<svg width="207px" height="53px" viewBox="0 0 207 53" version="1.1" xmlns="http://www.w3.org/2000/svg" xmlns:xlink="http://www.w3.org/1999/xlink">
    <g id="Page-1" stroke="none" stroke-width="1" fill="none" fill-rule="evenodd">
        <g id="logo-horizontal-spanish" transform="translate(0.320000, 0.410000)" fill-rule="nonzero">
            <g id="Layer_1" transform="translate(0.000000, -0.000000)">
                <polygon id="Path" fill="#CC0000" points="56.2149895 48.5600207 11.8283331 48.5600207 11.4102365 48.5600207 11.4102365 48.1419241 11.4102365 42.1770791 7.60429044 42.1770791 7.60429044 52.3659668 56.2149895 52.3659668"></polygon>
                <polygon id="Path" fill="#002E6D" points="7.67017233 10.1888877 11.4761184 10.1888877 11.4761184 4.22404271 11.4761184 3.8059461 11.894215 3.8059461 55.8399695 3.8059461 56.2580661 3.8059461 56.2580661 4.22404271 56.2580661 10.1888877 60.0640122 10.1888877 60.0640122 -3.60091525e-15 7.67017233 -3.60091525e-15"></polygon>
                <path d="M4.60666445,30.878335 C4.63707148,32.2035745 5.27561903,34.7248238 9.45658511,34.7248238 C11.7219086,34.7248238 14.2431578,34.1597599 14.2431578,31.6410446 C14.2431578,29.7836821 12.520093,29.287034 10.0951327,28.691563 L7.63723139,28.0935582 C3.93517596,27.1990848 0.362350394,26.3375524 0.362350394,21.0999422 C0.362350394,18.4469292 1.73320049,13.7743828 9.16771837,13.7743828 C16.1892075,13.7743828 18.0719092,18.545752 18.1048501,21.4648265 L13.5083213,21.4648265 C13.3816254,20.4031145 13.0015376,17.8843992 8.81803757,17.8843992 C6.99868384,17.8843992 4.82964931,18.5812269 4.82964931,20.7350579 C4.82964931,22.5924204 6.29678832,22.9902456 7.25460964,23.2208323 L12.8292311,24.6474286 C15.9560869,25.4430791 18.8295509,26.7683186 18.8295509,31.0430397 C18.8295509,38.2038944 11.8055279,38.8323062 9.79613024,38.8323062 C1.43419806,38.8323062 0,33.8278165 0,30.878335 L4.60666445,30.878335 Z" id="Path" fill="#002E6D"></path>
                <path d="M24.8932187,14.4053286 L36.4605582,14.4053286 C42.2885715,14.4053286 43.7861176,18.0516378 43.7861176,20.5044713 C43.7861176,23.9176599 41.8628732,24.8805491 40.869577,25.3746633 C43.7861176,26.4693162 44.5488271,28.7903859 44.5488271,31.1443965 C44.5436103,32.9888702 43.8019956,34.7548802 42.4887511,36.0500633 C41.1305706,37.3753029 39.838272,38.2038944 34.9655461,38.2038944 L24.8932187,38.2038944 L24.8932187,14.4053286 Z M29.6671218,23.7149464 L35.4951351,23.7149464 C37.4513205,23.7149464 39.0096806,22.9547708 39.0096806,21.0644673 C39.0096806,19.108282 37.6160252,18.5102771 35.3633713,18.5102771 L29.6671218,18.5102771 L29.6671218,23.7149464 Z M29.6671218,34.1040137 L35.7662644,34.1040137 C38.1861569,34.1040137 39.5671427,33.0423017 39.5671427,30.6224092 C39.5671427,28.536994 37.7756621,27.7388096 35.9867154,27.7388096 L29.6519183,27.7388096 L29.6671218,34.1040137 Z" id="Shape" fill="#002E6D"></path>
                <polygon id="Path" fill="#002E6D" points="60.0260034 14.3977269 56.2504643 14.3977269 48.6917844 38.2114961 53.4631536 38.2114961 58.0951573 22.5772169 62.8031785 38.2114961 67.5770816 38.2114961"></polygon>
                <polygon id="Path" fill="#002E6D" points="59.9981303 48.5372154 56.2149895 52.3659668 56.2149895 38.2697763 59.9981303 38.2697763"></polygon>
            </g>
            <g id="text" transform="translate(83.310184, 13.376558)" fill="#003363">
                <polygon id="Path" points="0.0380087826 0.762709571 1.16813659 0.762709571 1.16813659 8.72935041 5.07543944 8.72935041 5.07543944 9.6973074 0.0380087826 9.6973074"></polygon>
                <path d="M5.86602212,7.98184435 C5.86602212,6.53751061 7.10764235,5.81534374 9.92029226,5.50367172 C9.92029226,4.65734283 9.64916295,3.84142096 8.55957784,3.84142096 C7.84543691,3.87690785 7.15775777,4.12288539 6.58312115,4.54838432 L6.14728711,3.77300515 C6.91576941,3.24578297 7.81828863,2.94787253 8.74962176,2.91400667 C10.3687959,2.91400667 11.0504201,3.99092217 11.0504201,5.63796942 L11.0504201,9.69223957 L10.1255397,9.69223957 L10.0292508,8.90165689 L9.98870807,8.90165689 C9.36283012,9.40844066 8.62545973,9.85443792 7.79686827,9.85443792 C6.6971475,9.85947821 5.86602212,9.16518445 5.86602212,7.98184435 Z M9.92029226,8.07559935 L9.92029226,6.23850819 C7.71324895,6.5096375 6.95053938,7.05443005 6.95053938,7.90075895 C6.95053938,8.6609346 7.46999274,8.96247094 8.1237438,8.96247094 C8.77749486,8.96247094 9.28427863,8.648265 9.9253601,8.07559935 L9.92029226,8.07559935 Z" id="Shape"></path>
                <path d="M17.266123,0.762709571 L18.545752,0.762709571 L21.5712511,9.6973074 L20.357504,9.6973074 L19.513709,6.97334465 L16.2601572,6.97334465 L15.4011587,9.6973074 L14.2431578,9.6973074 L17.266123,0.762709571 Z M16.5439561,6.06113387 L19.232444,6.06113387 L18.8118135,4.70041945 C18.4849379,3.70458935 18.1986051,2.72396275 17.9122723,1.69012387 L17.8565261,1.69012387 C17.5853968,2.72396275 17.2990639,3.70458935 16.9721884,4.70041945 L16.5439561,6.06113387 Z" id="Shape"></path>
                <path d="M21.9513389,10.9642668 C21.9513389,10.4042708 22.3212911,9.87468172 22.9192959,9.46672079 L22.9192959,9.41097457 C22.5451422,9.18298044 22.3217819,8.77203628 22.3339607,8.33405907 C22.361344,7.8329375 22.63071,7.37643295 23.0561275,7.11017627 L23.0561275,7.04429438 C22.5225043,6.60843845 22.2082154,5.95946431 22.197129,5.27055119 C22.197129,3.82875137 23.3424604,2.91400667 24.6905052,2.91400667 C25.011298,2.91100527 25.3299241,2.96682925 25.6305891,3.07871139 L27.9313874,3.07871139 L27.9313874,3.93517596 L26.5808086,3.93517596 C26.9355204,4.29967963 27.1314056,4.78984819 27.1256012,5.2984243 C27.1256012,6.71488493 26.0512196,7.5992226 24.7031748,7.5992226 C24.3582505,7.59706195 24.0181137,7.51830254 23.7073447,7.36863599 C23.4520074,7.55257561 23.2965918,7.84468197 23.2867141,8.15921867 C23.2867141,8.57984919 23.5578435,8.87885162 24.4573847,8.87885162 L25.7370137,8.87885162 C27.2776363,8.87885162 28.0530155,9.35776228 28.0530155,10.460017 C28.0530155,11.6864337 26.758183,12.7406113 24.7031748,12.7406113 C23.0687971,12.7481457 21.9513389,12.1121321 21.9513389,10.9642668 Z M26.9507608,10.6221878 C26.9507608,10.0115133 26.474384,9.80626591 25.6153856,9.80626591 L24.4725882,9.80626591 C24.1826833,9.80831971 23.8938008,9.77167679 23.6135897,9.6973074 C23.2147121,9.93328733 22.959237,10.3521144 22.9319655,10.8147656 C22.9319655,11.521729 23.6541324,11.9727665 24.852676,11.9727665 C26.1196354,11.9727665 26.9507608,11.3164815 26.9507608,10.6221878 L26.9507608,10.6221878 Z M26.0917623,5.27055119 C26.0917623,4.30512811 25.4658843,3.73246245 24.6905052,3.73246245 C23.915126,3.73246245 23.2867141,4.30512811 23.2867141,5.27055119 C23.2867141,6.23597427 23.9277956,6.85171655 24.6905052,6.85171655 C25.4532148,6.85171655 26.0917623,6.23850819 26.0917623,5.27055119 Z" id="Shape"></path>
                <path d="M28.5572653,6.40067899 C28.5572653,4.2367123 30.0142687,2.91400667 31.5270182,2.91400667 C33.2146082,2.91400667 34.1698956,4.12775379 34.1698956,6.02059117 C34.1712711,6.23412486 34.1577239,6.44749369 34.1293529,6.65913871 L29.662054,6.65913871 C29.7431394,8.06292975 30.6021378,8.96247094 31.8665633,8.96247094 C32.4543037,8.95948716 33.0281069,8.78320355 33.5161445,8.45568717 L33.9114358,9.19305755 C33.2676912,9.62891554 32.5096525,9.86514154 31.7322656,9.8721478 C29.9610564,9.85947821 28.5572653,8.56464568 28.5572653,6.40067899 Z M33.189269,5.85588644 C33.189269,4.52304513 32.5887302,3.80087826 31.5548913,3.80087826 C30.627477,3.80087826 29.7811481,4.56105391 29.6468504,5.85588644 L33.189269,5.85588644 Z" id="Shape"></path>
                <path d="M35.53061,3.07871139 L36.4630921,3.07871139 L36.5568471,4.03146488 L36.5973898,4.03146488 C37.2258017,3.40558692 37.9048919,2.91400667 38.8196366,2.91400667 C40.2082242,2.91400667 40.8467717,3.81354786 40.8467717,5.50367172 L40.8467717,9.6973074 L39.7293135,9.6973074 L39.7293135,5.64303726 C39.7293135,4.40395095 39.3492257,3.86929407 38.4775576,3.86929407 C37.7959334,3.86929407 37.3322263,4.22404271 36.6658056,4.88286161 L36.6658056,9.67703605 L35.5483474,9.67703605 L35.53061,3.07871139 Z" id="Path"></path>
                <path d="M42.2201557,6.40067899 C42.2201557,4.18096609 43.7024982,2.91400667 45.4052917,2.91400667 C46.1270744,2.90844802 46.8218788,3.18800888 47.3386718,3.69191975 L46.76854,4.42675621 C46.4190652,4.0691694 45.9455046,3.85960526 45.4458344,3.84142096 C44.2472908,3.84142096 43.3756227,4.87525985 43.3756227,6.40067899 C43.3756227,7.92609813 44.2067481,8.93459783 45.4204952,8.93459783 C46.0020751,8.91202784 46.5546205,8.67457778 46.9712536,8.26817718 L47.4628338,9.02835283 C46.8777907,9.56274142 46.1165224,9.86309965 45.3242063,9.8721478 C43.5580649,9.85947821 42.2201557,8.59505271 42.2201557,6.40067899 Z" id="Path"></path>
                <path d="M48.4434604,0.995830104 C48.4669871,0.584112272 48.807717,0.262296784 49.2201065,0.262296784 C49.632496,0.262296784 49.9732259,0.584112272 49.9967526,0.995830104 C49.9732259,1.40754794 49.632496,1.72936342 49.2201065,1.72936342 C48.807717,1.72936342 48.4669871,1.40754794 48.4434604,0.995830104 L48.4434604,0.995830104 Z M48.6487078,3.07871139 L49.7636321,3.07871139 L49.7636321,9.6973074 L48.6487078,9.6973074 L48.6487078,3.07871139 Z" id="Shape"></path>
                <path d="M51.3169244,7.98184435 C51.3169244,6.53751061 52.5560107,5.81534374 55.3711945,5.50367172 C55.3711945,4.65734283 55.0975313,3.84142096 54.0079462,3.84142096 C53.2945001,3.87649941 52.6075173,4.12254334 52.0340234,4.54838432 L51.5981894,3.77300515 C52.3664837,3.2454038 53.2691162,2.94745599 54.200524,2.91400667 C55.8222321,2.91400667 56.5038562,3.99092217 56.5038562,5.63796942 L56.5038562,9.69223957 L55.5764419,9.69223957 L55.4826869,8.90165689 L55.4396103,8.90165689 C54.8137324,9.40844066 54.0788959,9.85443792 53.2477705,9.85443792 C52.1480497,9.85947821 51.3169244,9.16518445 51.3169244,7.98184435 Z M55.3711945,8.07559935 L55.3711945,6.23850819 C53.1641512,6.5096375 52.4014416,7.05443005 52.4014416,7.90075895 C52.4014416,8.6609346 52.9082254,8.96247094 53.5721121,8.96247094 C54.2359989,8.96247094 54.7351809,8.648265 55.3762623,8.07559935 L55.3711945,8.07559935 Z" id="Shape"></path>
                <polygon id="Path" points="60.8774002 0.762709571 66.0263232 0.762709571 66.0263232 1.72306481 62.007528 1.72306481 62.007528 4.74856391 65.4131149 4.74856391 65.4131149 5.70131739 62.007528 5.70131739 62.007528 9.70490916 60.8774002 9.70490916"></polygon>
                <path d="M66.7358205,6.40067899 C66.7358205,4.2367123 68.1928238,2.91400667 69.7030395,2.91400667 C71.3931633,2.91400667 72.3459168,4.12775379 72.3459168,6.02059117 C72.3472924,6.23412486 72.3337452,6.44749369 72.3053741,6.65913871 L67.8380752,6.65913871 C67.9191606,8.06292975 68.7781591,8.96247094 70.0451185,8.96247094 C70.6319946,8.95898963 71.2048463,8.78272757 71.6921658,8.45568717 L72.0874571,9.19305755 C71.4439108,9.62932755 70.6857445,9.86559332 69.9082869,9.8721478 C68.1370776,9.85947821 66.7358205,8.56464568 66.7358205,6.40067899 Z M71.3652902,5.85588644 C71.3652902,4.52304513 70.7647515,3.80087826 69.7309126,3.80087826 C68.8034983,3.80087826 67.9571694,4.56105391 67.8254056,5.85588644 L71.3652902,5.85588644 Z" id="Shape"></path>
                <path d="M73.2302545,6.40067899 C73.2302545,4.2493819 74.5935028,2.91400667 76.1037185,2.91400667 C76.8638941,2.91400667 77.3706779,3.2003395 77.9560131,3.67418232 L77.9028008,2.54405452 L77.9028008,0.0101356754 L79.0329286,0.0101356754 L79.0329286,9.70744308 L78.1055143,9.70744308 L78.0117594,8.93206391 L77.9712167,8.93206391 C77.4644329,9.43884768 76.7447999,9.86961388 75.9694208,9.86961388 C74.30717,9.85947821 73.2302545,8.6077223 73.2302545,6.40067899 Z M77.9028008,8.00718354 L77.9028008,4.54838432 C77.4798209,4.11414026 76.9024065,3.86459526 76.2962963,3.85409056 C75.2320504,3.85409056 74.3882554,4.86765809 74.3882554,6.3880094 C74.3882554,7.96664084 75.05721,8.92192824 76.212677,8.92192824 C76.8258853,8.92192824 77.3580083,8.6203919 77.9028008,8.00718354 L77.9028008,8.00718354 Z" id="Shape"></path>
                <path d="M80.5051355,6.40067899 C80.5051355,4.2367123 81.9621388,2.91400667 83.4723545,2.91400667 C85.1624783,2.91400667 86.1152318,4.12775379 86.1152318,6.02059117 C86.1178808,6.23415924 86.1043277,6.44762064 86.0746891,6.65913871 L81.6073902,6.65913871 C81.6884756,8.06292975 82.5474741,8.96247094 83.8144335,8.96247094 C84.4013786,8.9594403 84.9743575,8.7831391 85.4614807,8.45568717 L85.8567721,9.19305755 C85.2132258,9.62932755 84.4550595,9.86559332 83.6776019,9.8721478 C81.9063926,9.85947821 80.5051355,8.56464568 80.5051355,6.40067899 Z M85.1346052,5.85588644 C85.1346052,4.52304513 84.5366004,3.80087826 83.5002276,3.80087826 C82.5753472,3.80087826 81.7264844,4.56105391 81.5947206,5.85588644 L85.1346052,5.85588644 Z" id="Shape"></path>
                <path d="M87.4784801,3.07871139 L88.4084284,3.07871139 L88.5047173,4.277255 L88.54526,4.277255 C88.9937636,3.44612962 89.6753878,2.91400667 90.4254278,2.91400667 C90.6682291,2.90765962 90.9094923,2.95435573 91.1323911,3.05083828 L90.9144741,4.03146488 C90.7089182,3.95747003 90.4918525,3.92057744 90.2733926,3.92250637 C89.7159305,3.92250637 89.0495098,4.3304673 88.5984723,5.44285767 L88.5984723,9.69223957 L87.483548,9.69223957 L87.4784801,3.07871139 Z" id="Path"></path>
                <path d="M91.5226146,7.98184435 C91.5226146,6.53751061 92.7617009,5.81534374 95.5768848,5.50367172 C95.5768848,4.65734283 95.3032215,3.84142096 94.2136364,3.84142096 C93.5001904,3.87649941 92.8132075,4.12254334 92.2397136,4.54838432 L91.8038796,3.77300515 C92.5714531,3.24585945 93.4731424,2.94793286 94.4036803,2.91400667 C96.0253884,2.91400667 96.7070126,3.99092217 96.7070126,5.63796942 L96.7070126,9.69223957 L95.7795983,9.69223957 L95.6858433,8.90165689 L95.6453006,8.90165689 C95.0168887,9.40844066 94.2820522,9.85443792 93.4509268,9.85443792 C92.35374,9.85947821 91.5226146,9.16518445 91.5226146,7.98184435 Z M95.5768848,8.07559935 L95.5768848,6.23850819 C93.3698414,6.5096375 92.6071319,7.05443005 92.6071319,7.90075895 C92.6071319,8.6609346 93.1139156,8.96247094 93.7778024,8.96247094 C94.4416891,8.96247094 94.9408711,8.648265 95.5819526,8.07559935 L95.5768848,8.07559935 Z" id="Shape"></path>
                <path d="M98.5238324,8.36193217 L98.5238324,-3.60091525e-15 L99.6412906,-3.60091525e-15 L99.6412906,8.44301758 C99.6412906,8.79776622 99.7907918,8.93459783 99.9529626,8.93459783 C100.038312,8.93714595 100.1236,8.92776434 100.206354,8.90672473 L100.355856,9.7505197 C100.152722,9.83335664 99.9338692,9.87055295 99.7147742,9.85947821 C98.8633775,9.85947821 98.5238324,9.32482133 98.5238324,8.36193217 Z" id="Path"></path>
                <path d="M0,21.5357762 C0,19.3819452 1.36071442,18.0491039 2.87346397,18.0491039 C3.63363962,18.0491039 4.14042339,18.3354367 4.72575864,18.8092796 L4.67001242,17.6791518 L4.67001242,15.1452329 L5.80267415,15.1452329 L5.80267415,24.8400064 L4.87779377,24.8400064 L4.78150485,24.0646272 L4.74096215,24.0646272 C4.23417838,24.571411 3.51707935,25.0047111 2.73916627,25.0047111 C1.07691551,24.9945754 0,23.7402856 0,21.5357762 Z M4.67001242,23.1422808 L4.67001242,19.6834816 C4.24703245,19.2492375 3.66961811,18.9996925 3.06350788,18.9891878 C2.00179588,18.9891878 1.15800091,20.0027553 1.15800091,21.5231066 C1.15800091,23.104272 1.82442157,24.0570255 2.98242248,24.0570255 C3.59563084,24.0544916 4.12521987,23.7681587 4.67001242,23.1422808 L4.67001242,23.1422808 Z" id="Shape"></path>
                <path d="M7.27234707,21.5357762 C7.27234707,19.3692756 8.72935041,18.0491039 10.2421,18.0491039 C11.9296899,18.0491039 12.8824434,19.2603171 12.8824434,21.1531545 C12.8850846,21.3675642 12.8715318,21.5818672 12.8419007,21.7942359 L8.37713569,21.7942359 C8.45822109,23.1954931 9.31468566,24.0950343 10.5816451,24.0950343 C11.1693396,24.0917505 11.7430582,23.9154929 12.2312262,23.5882505 L12.6239837,24.323087 C11.9808546,24.7605296 11.2225808,24.9977106 10.4448135,25.0047111 C8.67613811,24.9945754 7.27234707,23.6997429 7.27234707,21.5357762 Z M11.9018168,20.980848 C11.9018168,19.6454728 11.3038119,18.9233059 10.2699731,18.9233059 C9.34255877,18.9233059 8.49622987,19.6834816 8.36193217,20.980848 L11.9018168,20.980848 Z" id="Shape"></path>
                <path d="M16.8074837,15.8978068 L19.3540721,15.8978068 C21.355868,15.8978068 22.7039128,16.5642275 22.7039128,18.5254806 C22.7039128,20.4056484 21.3685376,21.2899861 19.4098183,21.2899861 L17.9401454,21.2899861 L17.9401454,24.8374725 L16.8100176,24.8374725 L16.8074837,15.8978068 Z M19.2704528,20.3625718 C20.823745,20.3625718 21.573785,19.7924401 21.573785,18.5254806 C21.573785,17.2585212 20.7832023,16.8100176 19.2172405,16.8100176 L17.9376115,16.8100176 L17.9376115,20.357504 L19.2704528,20.3625718 Z" id="Shape"></path>
                <path d="M23.6439967,21.5357762 C23.6439967,19.3692756 25.101,18.0491039 26.6137496,18.0491039 C28.3013395,18.0491039 29.254093,19.2603171 29.254093,21.1531545 C29.2567342,21.3675642 29.2431814,21.5818672 29.2135503,21.7942359 L24.7462514,21.7942359 C24.8298707,23.1954931 25.6863353,24.0950343 26.9532947,24.0950343 C27.5402629,24.0921544 28.1132844,23.9158401 28.600342,23.5882505 L28.9956333,24.323087 C28.3523046,24.7601164 27.594159,24.9972573 26.8164631,25.0047111 C25.0604573,24.9945754 23.6439967,23.6997429 23.6439967,21.5357762 Z M28.2734664,20.980848 C28.2734664,19.6454728 27.6754616,18.9233059 26.6390888,18.9233059 C25.7142084,18.9233059 24.8653456,19.6834816 24.7335818,20.980848 L28.2734664,20.980848 Z" id="Shape"></path>
                <path d="M34.810977,25.2657048 L34.8667232,24.0671611 C34.3487637,24.6221765 33.6357057,24.9546342 32.877597,24.9945754 C31.2153462,24.9945754 30.1409646,23.727616 30.1409646,21.5357762 C30.1409646,19.3819452 31.501679,18.0491039 33.0144286,18.0491039 C33.7746042,18.0491039 34.3067272,18.3202332 34.907266,18.8396866 L34.9427408,18.8396866 L35.0516993,18.2112747 L35.9487066,18.2112747 L35.9487066,27.6222493 L34.8185788,27.6222493 L34.810977,25.2657048 Z M34.810977,23.1422808 L34.810977,19.6834816 C34.3879971,19.2492375 33.8105827,18.9996925 33.2044725,18.9891878 C32.1427605,18.9891878 31.2989655,20.0027553 31.2989655,21.5231066 C31.2989655,23.104272 31.9653862,24.0570255 33.1233871,24.0570255 C33.7365954,24.0544916 34.2661845,23.7681587 34.810977,23.1422808 Z" id="Shape"></path>
                <path d="M37.808603,22.4074443 L37.808603,18.2112747 L38.9387308,18.2112747 L38.9387308,22.2655449 C38.9387308,23.5046312 39.3061491,24.039288 40.1778171,24.039288 C40.8594413,24.039288 41.335818,23.6997429 41.9515603,22.9243638 L41.9515603,18.2112747 L43.0690185,18.2112747 L43.0690185,24.8298707 L42.1416042,24.8298707 L42.0478492,23.7960318 L42.0073065,23.7960318 C41.3940982,24.5181987 40.7403471,24.9945754 39.8281363,24.9945754 C38.434481,24.9945754 37.808603,24.0950343 37.808603,22.4074443 Z" id="Path"></path>
                <path d="M44.5513611,21.5357762 C44.5513611,19.3692756 46.0083644,18.0491039 47.51858,18.0491039 C49.2087039,18.0491039 50.1614574,19.2603171 50.1614574,21.1531545 C50.1640986,21.3675642 50.1505458,21.5818672 50.1209147,21.7942359 L45.6536158,21.7942359 C45.7347012,23.1954931 46.5936996,24.0950343 47.8606591,24.0950343 C48.4476273,24.0921544 49.0206488,23.9158401 49.5077063,23.5882505 L49.9029977,24.323087 C49.259669,24.7601164 48.5015234,24.9972573 47.7238274,25.0047111 C45.9526182,24.9945754 44.5513611,23.6997429 44.5513611,21.5357762 Z M49.1808308,20.980848 C49.1808308,19.6454728 48.5828259,18.9233059 47.5464531,18.9233059 C46.6215728,18.9233059 45.7727099,19.6834816 45.6409462,20.980848 L49.1808308,20.980848 Z" id="Shape"></path>
                <path d="M51.5247057,18.2112747 L52.4495861,18.2112747 L52.545875,19.1665621 L52.5864177,19.1665621 C53.2122957,18.5381502 53.8939198,18.0491039 54.8061306,18.0491039 C56.1947181,18.0491039 56.8332657,18.9486451 56.8332657,20.636235 L56.8332657,24.8298707 L55.7183414,24.8298707 L55.7183414,20.7756006 C55.7183414,19.5365143 55.3357196,19.0018574 54.451382,19.0018574 C53.7697578,19.0018574 53.3085846,19.356606 52.63963,20.0154249 L52.63963,24.8095994 L51.5247057,24.8095994 L51.5247057,18.2112747 Z M53.4175431,15.829391 C53.0070482,15.829391 52.8170043,16.265225 52.7764616,16.9037726 L52.016286,16.8632299 C52.0593626,15.8015179 52.45212,15.0109352 53.3922039,15.0109352 C54.3322878,15.0109352 54.7149095,16.1562665 55.3534571,16.1562665 C55.7487484,16.1562665 55.9387923,15.705229 55.979335,15.079351 L56.7395107,15.1350972 C56.698968,16.1816057 56.3036766,16.9721884 55.3635928,16.9721884 C54.4235089,16.9721884 54.043421,15.829391 53.4175431,15.829391 L53.4175431,15.829391 Z" id="Shape"></path>
                <path d="M58.2117175,21.5357762 C58.2117175,19.3160633 59.6560513,18.0491039 61.2752254,18.0491039 C62.8943995,18.0491039 64.3387333,19.3160633 64.3387333,21.5357762 C64.3387333,23.7554891 62.8969335,24.9945754 61.2752254,24.9945754 C59.6535173,24.9945754 58.2117175,23.727616 58.2117175,21.5357762 Z M63.1807324,21.5357762 C63.1807324,20.0154249 62.4205567,18.9739843 61.2752254,18.9739843 C60.1298941,18.9739843 59.3697184,20.0103571 59.3697184,21.5357762 C59.3697184,23.0611954 60.1450976,24.0696951 61.2752254,24.0696951 C62.4053532,24.0696951 63.1807324,23.0459919 63.1807324,21.5357762 Z" id="Shape"></path>
                <path d="M65.0761037,24.0823647 L65.6335658,23.322189 C66.2062315,23.7858962 66.7915667,24.1127717 67.5821494,24.1127717 C68.4538175,24.1127717 68.8896515,23.6490645 68.8896515,23.0763989 C68.8896515,22.3973086 68.0990688,22.0957723 67.3693002,21.824643 C66.4292163,21.4825639 65.3953774,21.0340603 65.3953774,19.919136 C65.3953774,18.8548901 66.2391724,18.0389682 67.6759044,18.0389682 C68.4266919,18.0475074 69.1522583,18.311106 69.7334465,18.7864743 L69.2013235,19.4959716 C68.7758178,19.1336973 68.2395616,18.9272387 67.6809722,18.9106363 C66.8498469,18.9106363 66.4672251,19.3591399 66.4672251,19.8633898 C66.4672251,20.4892677 67.189392,20.7223883 67.939432,21.0061872 C68.8921854,21.3609358 69.966567,21.7663628 69.966567,23.010517 C69.966567,24.0848986 69.1101025,24.9844398 67.5441406,24.9844398 C66.6431455,24.9713695 65.7731649,24.6533889 65.0761037,24.0823647 L65.0761037,24.0823647 Z" id="Path"></path>
                <path d="M73.8054541,15.8978068 L74.9786585,15.8978068 L78.2068711,21.5079031 L79.1748281,23.3601978 L79.2280404,23.3601978 C79.1748281,22.4606566 79.0937427,21.4521569 79.0937427,20.5146069 L79.0937427,15.8978068 L80.1681243,15.8978068 L80.1681243,24.8298707 L78.9974538,24.8298707 L75.7540377,19.2071048 L74.7860807,17.3674797 L74.7252666,17.3674797 C74.7936824,18.2670209 74.8747678,19.2197744 74.8747678,20.1547905 L74.8747678,24.8248029 L73.7978523,24.8248029 L73.8054541,15.8978068 Z" id="Path"></path>
                <path d="M81.7467557,21.5357762 C81.7467557,19.3692756 83.2037591,18.0491039 84.7165086,18.0491039 C86.4040986,18.0491039 87.356852,19.2603171 87.356852,21.1531545 C87.3594932,21.3675642 87.3459405,21.5818672 87.3163093,21.7942359 L82.8490104,21.7942359 C82.9300958,23.1954931 83.7890943,24.0950343 85.0560537,24.0950343 C85.6430219,24.0921544 86.2160435,23.9158401 86.703101,23.5882505 L87.0983923,24.323087 C86.4550636,24.7601164 85.696918,24.9972573 84.9192221,25.0047111 C83.1480128,24.9945754 81.7467557,23.6997429 81.7467557,21.5357762 Z M86.3812933,20.980848 C86.3812933,19.6454728 85.7832884,18.9233059 84.7469156,18.9233059 C83.8220353,18.9233059 82.9731724,19.6834816 82.8414087,20.980848 L86.3812933,20.980848 Z" id="Shape"></path>
                <path d="M88.2158505,26.0968301 C88.2158505,25.539368 88.5832688,25.007245 89.1838075,24.5992841 L89.1838075,24.5435379 C88.8090868,24.3170096 88.5846775,23.9068821 88.5959383,23.4691563 C88.6241923,22.9676281 88.893237,22.5107243 89.3181052,22.2427396 L89.3181052,22.1895273 C88.7862623,21.7525291 88.4731334,21.1040371 88.4616407,20.4157841 C88.4616407,18.9714504 89.604438,18.0591598 90.9524829,18.0591598 C91.2730104,18.0567695 91.5913924,18.1116925 91.8925668,18.2214104 L94.1933651,18.2214104 L94.1933651,19.0804089 L92.8326507,19.0804089 C93.1876883,19.4436709 93.3836877,19.9332138 93.3774432,20.4411233 C93.3774432,21.8575839 92.3005277,22.7444555 90.9524829,22.7444555 C90.6081613,22.7416373 90.2688109,22.6619939 89.9591867,22.511335 C89.702891,22.6947412 89.5464937,22.9869325 89.5360222,23.3019177 C89.5360222,23.7250821 89.8096855,24.0240845 90.7092267,24.0240845 L91.9761861,24.0240845 C93.5142748,24.0240845 94.289654,24.5004613 94.289654,25.602716 C94.289654,26.8291327 92.9973554,27.8832429 90.9398133,27.8832429 C89.3333087,27.880709 88.2158505,27.2421615 88.2158505,26.0968301 Z M93.2228742,25.757285 C93.2228742,25.1440767 92.7464974,24.9388292 91.8900328,24.9388292 L90.7447015,24.9388292 C90.4555579,24.9421249 90.1673451,24.9054588 89.888237,24.8298707 C89.4118602,25.1719498 89.2066128,25.5647072 89.2066128,25.9473289 C89.2066128,26.6542923 89.9287797,27.1053298 91.1273233,27.1053298 C92.384147,27.1053298 93.2228742,26.4515788 93.2228742,25.757285 Z M92.3664096,20.4056484 C92.3664096,19.4376914 91.7405316,18.8650258 90.9626185,18.8650258 C90.1847055,18.8650258 89.5613614,19.4376914 89.5613614,20.4056484 C89.5613614,21.3736054 90.1821715,21.9944155 90.9423472,21.9944155 C91.7025228,21.9944155 92.3562739,21.3710715 92.3562739,20.4056484 L92.3664096,20.4056484 Z" id="Shape"></path>
                <path d="M94.8217769,21.5357762 C94.8217769,19.3160633 96.2661107,18.0491039 97.8852848,18.0491039 C99.504459,18.0491039 100.948793,19.3160633 100.948793,21.5357762 C100.948793,23.7554891 99.5069929,24.9945754 97.8852848,24.9945754 C96.2635768,24.9945754 94.8217769,23.727616 94.8217769,21.5357762 Z M99.7933257,21.5357762 C99.7933257,20.0154249 99.0331501,18.9739843 97.8852848,18.9739843 C96.7374196,18.9739843 95.9797779,20.0103571 95.9797779,21.5357762 C95.9797779,23.0611954 96.755157,24.0696951 97.8852848,24.0696951 C99.0154126,24.0696951 99.7933257,23.0459919 99.7933257,21.5357762 Z" id="Shape"></path>
                <path d="M101.931953,21.5357762 C101.931953,19.3160633 103.41683,18.0490449 105.117089,18.0490449 C105.838975,18.0443845 106.533966,18.3227446 107.053003,18.8244831 L106.480338,19.5593195 C106.13149,19.202325 105.658949,18.9928107 105.160166,18.9739843 C103.961622,18.9739843 103.089954,20.0103571 103.089954,21.5357762 C103.089954,23.0611954 103.918546,24.0696951 105.132293,24.0696951 C105.713981,24.0476048 106.266691,23.8100837 106.683051,23.4032744 L107.174631,24.1634501 C106.588952,24.696819 105.828088,24.9970177 105.036004,25.007245 C103.279998,24.9945754 101.931953,23.727616 101.931953,21.5357762 Z" id="Path"></path>
                <path d="M108.155258,16.1283934 C108.178785,15.7166756 108.519515,15.3948601 108.931904,15.3948601 C109.344293,15.3948601 109.685023,15.7166756 109.70855,16.1283934 C109.685023,16.5401113 109.344293,16.8619267 108.931904,16.8619267 C108.519515,16.8619267 108.178785,16.5401113 108.155258,16.1283934 Z M108.360505,18.2112747 L109.47543,18.2112747 L109.47543,24.8298707 L108.360505,24.8298707 L108.360505,18.2112747 Z" id="Shape"></path>
                <path d="M110.960306,21.5357762 C110.960306,19.3160633 112.40464,18.0491039 114.023814,18.0491039 C115.642988,18.0491039 117.087322,19.3160633 117.087322,21.5357762 C117.087322,23.7554891 115.645522,24.9945754 114.023814,24.9945754 C112.402106,24.9945754 110.960306,23.727616 110.960306,21.5357762 Z M115.931855,21.5357762 C115.931855,20.0154249 115.171679,18.9739843 114.023814,18.9739843 C112.875949,18.9739843 112.118307,20.0103571 112.118307,21.5357762 C112.118307,23.0611954 112.893686,24.0696951 114.023814,24.0696951 C115.153942,24.0696951 115.919185,23.0459919 115.919185,21.5357762 L115.931855,21.5357762 Z" id="Shape"></path>
                <path d="M117.801887,24.0823647 L118.359349,23.322189 C118.932015,23.7858962 119.51735,24.1127717 120.307933,24.1127717 C121.179601,24.1127717 121.615435,23.6490645 121.615435,23.0763989 C121.615435,22.3973086 120.824852,22.0957723 120.095083,21.824643 C119.157533,21.4825639 118.121161,21.0340603 118.121161,19.919136 C118.121161,18.8548901 118.964956,18.0389682 120.401688,18.0389682 C121.15164,18.0478794 121.876285,18.3114682 122.456696,18.7864743 L121.924573,19.4959716 C121.499067,19.1336973 120.962811,18.9272387 120.404222,18.9106363 C119.573096,18.9106363 119.193008,19.3591399 119.193008,19.8633898 C119.193008,20.4892677 119.912641,20.7223883 120.662681,21.0061872 C121.615435,21.3609358 122.689816,21.7663628 122.689816,23.010517 C122.689816,24.0848986 121.830818,24.9844398 120.264856,24.9844398 C119.365607,24.9702295 118.497593,24.6523152 117.801887,24.0823647 L117.801887,24.0823647 Z" id="Path"></path>
            </g>
        </g>
    </g>
</svg>
