<svg width="22" height="22" viewBox="0 0 22 22" fill="none" xmlns="http://www.w3.org/2000/svg">
<g clip-path="url(#clip0_537_6326)">
<path fill-rule="evenodd" clip-rule="evenodd" d="M3.72998 10.8011C7.52626 7.00481 13.6869 7.00481 17.4832 10.8011L16.2325 12.0518C13.1257 8.94493 8.08753 8.94493 4.98068 12.0518L3.72998 10.8011ZM6.23137 13.3025C8.64879 10.8851 12.5644 10.8851 14.9818 13.3025L13.7311 14.5532C12.0075 12.8296 9.20564 12.8296 7.48207 14.5532L6.23137 13.3025ZM9.64316 14.7874C10.1753 14.2553 11.0379 14.2553 11.57 14.7874C12.1021 15.3195 12.1021 16.1822 11.57 16.7143C11.0379 17.2464 10.1752 17.2464 9.64316 16.7143C9.11107 16.1822 9.11107 15.3195 9.64316 14.7874Z" fill="black"/>
</g>
<defs>
<clipPath id="clip0_537_6326">
<rect width="15" height="15" fill="white" transform="translate(0 10.6066) rotate(-45)"/>
</clipPath>
</defs>
</svg>
