<svg xmlns="http://www.w3.org/2000/svg" xmlns:xlink="http://www.w3.org/1999/xlink" viewBox="0 0 792 612"><defs><style>.cls-1,.cls-5,.cls-6{fill:none;}.cls-2{fill:#e6e6e6;}.cls-3{clip-path:url(#clip-path);}.cls-4,.cls-8{fill:#007dbc;}.cls-4{opacity:0.8;}.cls-5{stroke:#0675af;stroke-linejoin:bevel;stroke-width:0.64px;}.cls-6,.cls-7{stroke:#fff;stroke-miterlimit:10;}.cls-6{stroke-width:3px;}.cls-7{fill:#fff;}</style><clipPath id="clip-path"><rect class="cls-1" x="-20.16" y="57.97" width="792" height="612"/></clipPath></defs><g id="Layer_1" data-name="Layer 1"><rect class="cls-2" x="-32.25" y="-17.38" width="843.7" height="636.89"/></g><g id="Layer_2" data-name="Layer 2"><g class="cls-3"><polygon class="cls-4" points="54.66 252.41 54.89 301.31 57.96 304.87 61.24 302.62 65.19 306.27 69.37 304.19 70.45 298.95 75.05 301.53 76.41 293.45 79.47 295.77 82.62 292.71 79.91 289.25 85.46 285.65 88.97 287.02 91.16 284.67 92.59 289.08 95.88 289.94 93.15 293.66 94.23 296.4 97.87 296.7 101.21 300 105.91 296.38 110.18 297.73 117.27 295.94 118.43 293.64 121.95 293.15 120.4 289.52 124.68 284.06 132.54 282.65 135.69 284.41 143.66 283.71 149.13 285.72 152.61 283.85 155.63 285.49 155.66 254.47 150.89 254.51 150.88 221.91 54.57 221.82 54.66 252.41"/><polygon class="cls-5" points="54.66 252.41 54.89 301.31 57.96 304.87 61.24 302.62 65.19 306.27 69.37 304.19 70.45 298.95 75.05 301.53 76.41 293.45 79.47 295.77 82.62 292.7 79.91 289.25 85.46 285.65 88.97 287.02 91.16 284.67 92.59 289.08 95.88 289.94 93.15 293.66 94.23 296.4 97.87 296.7 101.21 299.99 105.91 296.38 110.18 297.73 117.27 295.94 118.43 293.64 121.95 293.15 120.4 289.52 124.68 284.06 132.54 282.65 135.69 284.4 143.66 283.71 149.13 285.72 152.61 283.85 155.63 285.48 155.66 254.47 150.89 254.51 150.88 221.9 54.57 221.82 54.66 252.41"/><polygon class="cls-4" points="384.29 319.71 384.27 341.11 387.31 341.12 387.27 383.61 450.83 383.61 450.88 341.19 448.26 341.19 448.25 319.76 384.29 319.71"/><polygon class="cls-5" points="384.29 319.71 384.27 341.11 387.31 341.12 387.27 383.61 450.83 383.61 450.88 341.19 448.26 341.19 448.25 319.76 384.29 319.71"/><polygon class="cls-4" points="204.9 232.81 226.5 232.7 226.49 254.57 230.73 254.55 230.74 297.95 234.93 297.95 234.9 319.67 309.53 319.54 309.6 298.02 305.91 298.01 305.99 254.66 302.19 254.65 302.2 243.8 237.38 243.66 237.37 211.01 222.51 210.99 222.49 200.07 211.67 200.06 211.65 210.99 204.93 210.99 204.9 232.81"/><polygon class="cls-5" points="204.9 232.8 226.5 232.7 226.49 254.57 230.73 254.55 230.74 297.95 234.93 297.95 234.9 319.67 309.53 319.53 309.6 298.02 305.91 298.01 305.99 254.66 302.19 254.65 302.2 243.8 237.38 243.66 237.37 211.01 222.51 210.98 222.49 200.07 211.67 200.06 211.65 210.98 204.93 210.98 204.9 232.8"/><polygon class="cls-4" points="529.41 233.12 529.36 254.87 531.56 254.87 531.55 276.6 626.94 276.8 628.45 273.95 626.35 273.06 628.98 266.09 627.41 265.17 628.67 260.19 625.75 255.61 625.11 252.09 627.74 250.27 627.92 244.35 625.24 241.57 626.57 233.83 625.26 233.31 529.41 233.12"/><polygon class="cls-5" points="529.41 233.12 529.36 254.87 531.56 254.87 531.55 276.6 626.94 276.8 628.45 273.95 626.35 273.06 628.98 266.09 627.41 265.17 628.67 260.18 625.75 255.61 625.11 252.09 627.74 250.27 627.92 244.35 625.24 241.57 626.57 233.83 625.26 233.31 529.41 233.12"/><polygon class="cls-4" points="599.47 341.31 599.37 383.94 601.19 383.94 601.22 394.38 652.49 394.56 651.55 387.85 652.61 382.08 650.36 378.63 651.94 374.75 649.26 372.4 650.58 369.81 649.57 364.99 651.16 362.57 649.57 358.88 651.02 355.8 650.97 350.32 647.87 345.44 648.01 341.29 599.47 341.31"/><polygon class="cls-5" points="599.47 341.3 599.37 383.94 601.19 383.94 601.22 394.37 652.49 394.56 651.55 387.85 652.61 382.08 650.36 378.63 651.94 374.75 649.26 372.4 650.58 369.81 649.57 364.99 651.16 362.57 649.57 358.88 651.02 355.8 650.97 350.32 647.87 345.44 648.01 341.29 599.47 341.3"/><polygon class="cls-4" points="429.33 175.75 429.31 211.22 432.04 211.22 432.05 254.72 475.3 254.77 475.35 211.26 472.9 211.26 472.91 175.74 429.33 175.75"/><polygon class="cls-5" points="429.33 175.75 429.31 211.22 432.04 211.22 432.05 254.72 475.3 254.77 475.35 211.26 472.9 211.26 472.91 175.74 429.33 175.75"/><polygon class="cls-4" points="433.06 383.63 433.03 425.84 435.9 425.81 435.63 468.11 519.38 468.17 519.35 425.96 517.02 425.97 517.04 383.7 433.06 383.63"/><polygon class="cls-5" points="433.06 383.62 433.03 425.84 435.9 425.81 435.63 468.11 519.38 468.17 519.35 425.96 517.02 425.97 517.04 383.7 433.06 383.62"/><polygon class="cls-4" points="557.03 341.28 556.88 383.75 559.02 383.75 558.98 394.2 601.22 394.38 601.19 383.94 599.37 383.94 599.47 341.31 557.03 341.28"/><polygon class="cls-5" points="557.03 341.28 556.88 383.75 559.02 383.75 558.98 394.2 601.22 394.37 601.19 383.94 599.37 383.94 599.47 341.3 557.03 341.28"/><polygon class="cls-4" points="122.22 468.31 216.28 468.18 216.26 425.79 212.28 425.75 212.28 422.24 180.74 422.25 180.74 425.77 122.27 425.89 122.22 468.31"/><polygon class="cls-5" points="122.22 468.31 216.28 468.18 216.26 425.79 212.28 425.75 212.28 422.24 180.74 422.25 180.74 425.76 122.27 425.89 122.22 468.31"/><polygon class="cls-4" points="54.77 510.38 147.67 510.22 147.38 468.29 75.05 468.36 75.04 479.07 54.81 479.04 54.77 510.38"/><polygon class="cls-5" points="54.76 510.37 147.67 510.22 147.38 468.28 75.05 468.36 75.04 479.07 54.81 479.04 54.76 510.37"/><polygon class="cls-4" points="224.4 550.48 347.61 550.6 348.01 547.88 345.85 543.83 343.6 542.89 339.1 535.32 337.89 526.5 342.35 518.86 343.74 514 341.93 510.23 344.51 504.49 344.35 500.38 341.12 492.64 339.25 492.73 330.25 497.19 326.26 496.25 322.5 497.83 319.28 496.55 313.88 496.6 308.45 505.73 305.77 505.55 305.03 509.9 299.91 510.96 297.53 514.64 296.85 518.64 290.74 521.92 291.44 526.13 282.15 527.97 282.3 531.37 277.12 535.49 274.19 534.68 271.48 537.55 266.54 537.87 266.9 540.52 261.3 542.9 258.1 542.74 255.55 539.47 252.09 542.5 245.04 538.91 240.67 540.56 237.64 539.99 236.76 535.14 233.06 537.11 229.5 535.96 224.4 537.5 224.4 550.48"/><polygon class="cls-5" points="224.4 550.48 347.6 550.6 348.01 547.88 345.85 543.83 343.6 542.89 339.1 535.32 337.89 526.49 342.35 518.86 343.74 514 341.93 510.23 344.51 504.49 344.35 500.38 341.12 492.64 339.25 492.73 330.25 497.18 326.26 496.25 322.5 497.83 319.28 496.55 313.88 496.6 308.45 505.73 305.77 505.55 305.03 509.9 299.91 510.96 297.53 514.64 296.85 518.64 290.74 521.92 291.43 526.12 282.15 527.97 282.3 531.37 277.12 535.48 274.19 534.68 271.48 537.55 266.54 537.87 266.9 540.52 261.3 542.9 258.1 542.74 255.55 539.47 252.09 542.5 245.03 538.91 240.67 540.56 237.64 539.99 236.76 535.14 233.06 537.11 229.5 535.96 224.4 537.5 224.4 550.48"/><polygon class="cls-4" points="334.22 383.55 387.27 383.61 387.31 341.12 384.27 341.11 384.29 319.71 341.53 319.68 341.54 341.08 334.3 341.08 334.22 383.55"/><polygon class="cls-5" points="334.22 383.55 387.27 383.61 387.31 341.12 384.27 341.11 384.29 319.71 341.53 319.68 341.54 341.08 334.3 341.08 334.22 383.55"/><polygon class="cls-4" points="555.1 551.53 619.72 551.59 619.69 544.78 617.13 544.25 617.15 510.14 555.21 510.09 555.1 551.53"/><polygon class="cls-5" points="555.1 551.53 619.72 551.59 619.69 544.78 617.12 544.24 617.15 510.13 555.21 510.09 555.1 551.53"/><polygon class="cls-4" points="374.89 175.75 374.86 211.16 377.97 211.16 377.94 232.94 432.02 232.99 432.04 211.22 429.31 211.22 429.33 175.75 374.89 175.75"/><polygon class="cls-5" points="374.89 175.75 374.86 211.16 377.97 211.16 377.94 232.94 432.02 232.99 432.04 211.22 429.31 211.22 429.33 175.75 374.89 175.75"/><polygon class="cls-4" points="619.72 551.59 674.79 551.61 673.73 541.29 675.36 536.18 675.17 531.35 673.42 525.77 673.14 519.84 671.29 508.73 671.8 504.5 666.32 499.05 662.38 488.17 660.21 485.53 659.32 473.85 656.62 468.25 615.44 468.38 615.38 510.13 617.15 510.14 617.13 544.25 619.69 544.78 619.72 551.59"/><polygon class="cls-5" points="619.72 551.59 674.79 551.61 673.73 541.28 675.36 536.18 675.17 531.35 673.42 525.77 673.14 519.84 671.29 508.73 671.8 504.5 666.32 499.05 662.38 488.17 660.21 485.53 659.32 473.85 656.62 468.25 615.44 468.38 615.38 510.12 617.15 510.13 617.12 544.24 619.69 544.78 619.72 551.59"/><polygon class="cls-4" points="222.49 200.07 222.51 210.99 237.37 211.01 237.38 243.66 302.2 243.8 302.21 232.93 269.76 232.83 269.76 211.02 265.99 211.01 265.99 175.75 222.52 175.75 222.49 200.07"/><polygon class="cls-5" points="222.49 200.07 222.51 210.98 237.37 211.01 237.38 243.66 302.2 243.8 302.21 232.93 269.76 232.83 269.76 211.02 265.99 211.01 265.99 175.75 222.52 175.75 222.49 200.07"/><polygon class="cls-4" points="552.9 510.06 615.38 510.13 615.44 468.38 552.96 468.21 552.9 510.06"/><polygon class="cls-5" points="552.9 510.06 615.38 510.12 615.44 468.38 552.96 468.21 552.9 510.06"/><polygon class="cls-4" points="512.21 311.33 512.21 298.2 520.74 298.21 520.79 276.65 531.55 276.6 531.56 254.87 529.36 254.87 529.41 233.12 475.35 233.07 475.3 254.77 456.3 254.75 456.33 281.56 461.35 283 463.84 287.47 467.06 287.45 467.07 298.1 469.85 294.95 472.81 294.22 473.44 301.26 478.84 301.18 479.53 298.6 482.56 297.79 487.39 293.09 489.74 293.76 490.86 300.63 493.56 302.99 497.23 300.4 500.07 300.77 500.78 305.25 503.92 308.65 503.94 311.17 512.21 311.33"/><polygon class="cls-5" points="512.21 311.33 512.21 298.2 520.74 298.21 520.79 276.65 531.55 276.6 531.56 254.87 529.36 254.87 529.41 233.12 475.35 233.07 475.3 254.77 456.3 254.75 456.33 281.56 461.34 283 463.84 287.47 467.06 287.45 467.07 298.1 469.85 294.95 472.81 294.22 473.44 301.26 478.84 301.18 479.53 298.59 482.56 297.79 487.39 293.09 489.74 293.76 490.86 300.63 493.56 302.99 497.23 300.4 500.07 300.77 500.78 305.24 503.92 308.64 503.94 311.17 512.21 311.33"/><polygon class="cls-4" points="367.1 232.99 367.12 254.67 370.36 254.69 370.38 298.11 373.65 298.12 373.62 319.67 405.59 319.71 405.6 298.16 402.61 298.17 402.74 254.67 432.05 254.72 432.02 232.99 367.1 232.99"/><polygon class="cls-5" points="367.1 232.99 367.12 254.67 370.36 254.68 370.38 298.11 373.65 298.12 373.62 319.67 405.59 319.71 405.6 298.16 402.61 298.17 402.74 254.67 432.05 254.72 432.02 232.99 367.1 232.99"/><polygon class="cls-4" points="561.8 233.21 625.26 233.31 626.22 224.51 628.82 223.47 630.46 218.66 629.51 212.76 627.26 210.22 625.56 199.97 622.94 199.16 624.23 194.31 622.07 190.68 622.88 188.9 619.22 182.4 619.55 175.75 559.89 175.69 559.94 211.31 561.78 211.31 561.8 233.21"/><polygon class="cls-5" points="561.8 233.2 625.26 233.31 626.22 224.51 628.82 223.47 630.46 218.66 629.51 212.76 627.26 210.22 625.56 199.97 622.94 199.15 624.23 194.31 622.07 190.68 622.88 188.9 619.22 182.39 619.55 175.75 559.89 175.69 559.94 211.31 561.78 211.31 561.8 233.2"/><polygon class="cls-4" points="243.81 425.77 312.46 425.58 316.92 421.66 316.75 417.74 312.33 412.11 311.74 406.52 310.04 404.44 307.82 398.38 309.01 393.05 303.85 388.39 299.85 387.37 291.92 389.49 290.81 393.36 285.86 391.23 285.78 394.11 243.81 394.1 243.81 425.77"/><polygon class="cls-5" points="243.81 425.76 312.46 425.58 316.92 421.66 316.75 417.74 312.33 412.11 311.74 406.52 310.04 404.44 307.82 398.38 309.01 393.04 303.85 388.39 299.85 387.36 291.92 389.49 290.81 393.36 285.86 391.22 285.78 394.11 243.81 394.09 243.81 425.76"/><polygon class="cls-4" points="512.21 311.33 512.24 341.26 565.51 341.29 565.53 298.25 563.76 298.24 563.77 276.64 520.79 276.65 520.74 298.21 512.21 298.2 512.21 311.33"/><polygon class="cls-5" points="512.21 311.33 512.24 341.26 565.51 341.29 565.53 298.25 563.75 298.24 563.77 276.64 520.79 276.65 520.74 298.21 512.21 298.2 512.21 311.33"/><polygon class="cls-4" points="150.88 232.79 150.89 254.51 155.66 254.47 155.63 285.49 160.78 284.65 163.16 286.37 161.44 289.04 169.3 291.32 168.93 294.52 171.26 296.23 173.87 295.08 175.07 299.39 178.46 301 177.39 304.66 170.85 312.37 169.91 318.04 171.06 322.62 177.71 328 182.92 328.01 189.86 331.47 192.31 330.73 192.33 319.65 234.9 319.67 234.93 297.95 230.74 297.95 230.73 254.55 226.49 254.57 226.5 232.7 150.88 232.79"/><polygon class="cls-5" points="150.88 232.79 150.89 254.51 155.66 254.47 155.63 285.48 160.78 284.65 163.16 286.37 161.44 289.04 169.3 291.32 168.93 294.52 171.26 296.23 173.87 295.07 175.07 299.39 178.46 301 177.39 304.66 170.85 312.37 169.91 318.04 171.06 322.62 177.71 328 182.92 328.01 189.86 331.46 192.31 330.73 192.33 319.65 234.9 319.67 234.93 297.95 230.74 297.95 230.73 254.55 226.49 254.57 226.5 232.7 150.88 232.79"/><polygon class="cls-4" points="216.26 425.79 216.31 457.71 247.64 457.67 247.61 468.15 282.38 468.27 282.38 499.42 303.14 499.43 303.13 509.84 305.03 509.9 305.77 505.55 308.45 505.73 313.88 496.6 319.28 496.55 322.5 497.83 326.26 496.25 330.25 497.19 339.25 492.73 341.12 492.64 340.46 489.83 342.07 483.29 344.89 479.9 341.38 475.13 342.95 472.64 335.17 467.77 335.99 462.27 329.98 465.2 328.01 460.75 325.54 461.48 323.9 457.96 325.43 455.42 322.27 455.32 320.46 452.13 322.06 448.94 314.79 435.1 314.68 429.46 312.46 425.58 216.26 425.79"/><polygon class="cls-5" points="216.26 425.79 216.31 457.71 247.64 457.67 247.61 468.15 282.38 468.27 282.38 499.42 303.14 499.43 303.13 509.84 305.03 509.9 305.77 505.55 308.45 505.73 313.88 496.6 319.28 496.55 322.5 497.83 326.26 496.25 330.25 497.18 339.25 492.73 341.12 492.64 340.46 489.83 342.07 483.29 344.89 479.9 341.38 475.12 342.95 472.64 335.17 467.77 335.99 462.27 329.98 465.2 328.01 460.75 325.54 461.48 323.9 457.96 325.43 455.42 322.27 455.32 320.46 452.13 322.06 448.94 314.79 435.1 314.68 429.46 312.46 425.58 216.26 425.79"/><polygon class="cls-4" points="212.28 422.24 212.28 425.75 243.81 425.77 243.81 394.1 285.78 394.11 285.86 391.23 278.51 387.93 277.12 378.62 273.8 374.43 270.68 365.24 276.42 360.16 270.98 354.57 265.83 355.53 259.26 358.27 253.98 358.97 248.53 357.75 239.72 362.88 233.24 361.83 227.37 357.8 221.78 357.52 221.25 353.53 210.92 354.42 207.26 353.31 207.25 383.5 212.34 383.5 212.28 422.24"/><polygon class="cls-5" points="212.28 422.24 212.28 425.75 243.81 425.76 243.81 394.09 285.78 394.11 285.86 391.22 278.51 387.93 277.12 378.62 273.8 374.42 270.68 365.23 276.42 360.16 270.98 354.57 265.83 355.53 259.26 358.27 253.98 358.96 248.52 357.75 239.72 362.88 233.23 361.82 227.37 357.8 221.78 357.52 221.25 353.52 210.92 354.42 207.26 353.31 207.25 383.5 212.33 383.5 212.28 422.24"/><polygon class="cls-4" points="207.26 353.31 210.92 354.42 221.25 353.53 221.78 357.52 227.37 357.8 233.24 361.83 239.72 362.88 248.53 357.75 253.98 358.97 259.26 358.27 265.83 355.53 270.98 354.57 276.42 360.16 270.68 365.24 273.8 374.43 277.12 378.62 278.51 387.93 290.81 393.36 291.92 389.49 299.85 387.37 303.85 388.39 309.01 393.05 307.82 398.38 310.04 404.44 327.92 404.36 327.93 383.55 334.22 383.55 334.3 341.08 341.54 341.08 341.53 319.68 192.33 319.65 192.31 330.73 196.47 325.41 202.66 327.84 200.15 331.37 202.47 334.53 202.28 347.19 207.26 353.31"/><polygon class="cls-5" points="207.26 353.31 210.92 354.42 221.25 353.52 221.78 357.52 227.37 357.8 233.23 361.82 239.72 362.88 248.52 357.75 253.98 358.96 259.26 358.27 265.83 355.53 270.98 354.57 276.42 360.16 270.68 365.23 273.8 374.42 277.12 378.62 278.51 387.93 290.81 393.36 291.92 389.49 299.85 387.36 303.85 388.39 309.01 393.04 307.82 398.38 310.04 404.44 327.92 404.36 327.93 383.55 334.22 383.55 334.3 341.08 341.54 341.08 341.53 319.68 192.33 319.65 192.31 330.73 196.47 325.41 202.66 327.84 200.14 331.37 202.47 334.53 202.28 347.19 207.26 353.31"/><polygon class="cls-4" points="86.16 383.36 133.19 383.43 133.13 341.02 171.02 341.08 171.06 322.62 169.91 318.04 170.85 312.37 177.39 304.66 178.46 301 175.07 299.39 173.87 295.08 171.26 296.23 168.93 294.52 169.3 291.32 161.44 289.04 163.16 286.37 160.78 284.65 155.63 285.49 152.61 283.85 149.13 285.72 143.66 283.71 135.69 284.41 132.54 282.65 124.68 284.06 120.4 289.52 121.95 293.15 118.43 293.64 117.27 295.94 110.18 297.73 105.91 296.38 101.21 300 97.87 296.7 94.23 296.4 93.15 293.66 95.88 289.94 92.59 289.08 91.16 284.67 88.97 287.02 85.46 285.65 79.91 289.25 82.62 292.71 79.47 295.77 76.41 293.45 75.05 301.53 70.45 298.95 69.37 304.19 65.19 306.27 61.24 302.62 57.96 304.87 54.89 301.31 55.11 317.81 54.78 383.26 86.16 383.36"/><polygon class="cls-5" points="86.16 383.36 133.19 383.43 133.13 341.02 171.01 341.08 171.06 322.62 169.91 318.04 170.85 312.37 177.39 304.66 178.46 301 175.07 299.39 173.87 295.07 171.26 296.23 168.93 294.52 169.3 291.32 161.44 289.04 163.16 286.37 160.78 284.65 155.63 285.48 152.61 283.85 149.13 285.72 143.66 283.71 135.69 284.4 132.54 282.65 124.68 284.06 120.4 289.52 121.95 293.15 118.43 293.64 117.27 295.94 110.18 297.73 105.91 296.38 101.21 299.99 97.87 296.7 94.23 296.4 93.15 293.66 95.88 289.94 92.59 289.08 91.16 284.67 88.97 287.02 85.46 285.65 79.91 289.25 82.62 292.7 79.47 295.77 76.41 293.45 75.05 301.53 70.45 298.95 69.37 304.19 65.19 306.27 61.24 302.62 57.96 304.87 54.89 301.31 55.11 317.81 54.78 383.26 86.16 383.36"/><polygon class="cls-4" points="399.96 550.88 472.42 551.08 472.64 510.05 400.09 510.06 399.96 550.88"/><polygon class="cls-5" points="399.96 550.87 472.42 551.08 472.64 510.05 400.09 510.06 399.96 550.87"/><polygon class="cls-4" points="309.53 319.54 373.62 319.67 373.65 298.12 370.38 298.11 370.36 254.69 367.12 254.67 367.1 232.99 356.35 233 356.31 222.08 302.22 222.02 302.19 254.65 305.99 254.66 305.91 298.01 309.6 298.02 309.53 319.54"/><polygon class="cls-5" points="309.53 319.53 373.62 319.67 373.65 298.12 370.38 298.11 370.36 254.68 367.12 254.67 367.1 232.99 356.35 233 356.31 222.08 302.22 222.02 302.19 254.65 305.99 254.66 305.91 298.01 309.6 298.02 309.53 319.53"/><polygon class="cls-4" points="397.01 467.95 396.92 510.02 469.8 510.02 469.86 468.23 397.01 467.95"/><polygon class="cls-5" points="397.01 467.95 396.92 510.02 469.8 510.02 469.86 468.23 397.01 467.95"/><polygon class="cls-4" points="472.64 510.05 552.9 510.06 552.96 468.21 469.86 468.23 469.8 510.02 472.64 510.05"/><polygon class="cls-5" points="472.64 510.05 552.9 510.06 552.96 468.21 469.86 468.23 469.8 510.02 472.64 510.05"/><polygon class="cls-4" points="383.3 467.89 435.63 468.11 435.9 425.81 433.03 425.84 433.06 383.63 380.64 383.6 380.53 425.72 383.76 425.73 383.3 467.89"/><polygon class="cls-5" points="383.3 467.89 435.63 468.11 435.9 425.81 433.03 425.84 433.06 383.62 380.64 383.6 380.53 425.71 383.76 425.73 383.3 467.89"/><polygon class="cls-4" points="147.38 468.29 147.67 510.22 183.06 510.02 183.06 519.25 224.46 519.33 224.44 509.96 220.4 509.97 220.04 468.19 147.38 468.29"/><polygon class="cls-5" points="147.38 468.28 147.67 510.22 183.06 510.02 183.06 519.25 224.46 519.33 224.44 509.95 220.4 509.97 220.04 468.19 147.38 468.28"/><polygon class="cls-4" points="514.32 351.75 514.4 383.7 517.04 383.7 517.02 394.2 558.98 394.2 559.02 383.75 556.88 383.75 557.03 341.28 514.32 341.27 514.32 351.75"/><polygon class="cls-5" points="514.32 351.75 514.4 383.7 517.04 383.7 517.02 394.2 558.98 394.2 559.02 383.75 556.88 383.75 557.03 341.28 514.32 341.27 514.32 351.75"/><polygon class="cls-4" points="224.46 519.33 224.4 537.5 229.5 535.96 233.06 537.11 236.76 535.14 237.64 539.99 240.67 540.56 245.04 538.91 252.09 542.5 255.55 539.47 258.1 542.74 261.3 542.9 266.9 540.52 266.54 537.87 271.48 537.55 274.19 534.68 277.12 535.49 282.3 531.37 282.15 527.97 291.44 526.13 290.74 521.92 296.85 518.64 297.53 514.64 299.91 510.96 305.03 509.9 303.13 509.84 303.14 499.43 282.38 499.42 282.38 468.27 247.61 468.15 247.64 457.67 216.31 457.71 216.28 468.18 220.04 468.19 220.4 509.97 224.44 509.96 224.46 519.33"/><polygon class="cls-5" points="224.46 519.33 224.4 537.5 229.5 535.96 233.06 537.11 236.76 535.14 237.64 539.99 240.67 540.56 245.03 538.91 252.09 542.5 255.55 539.47 258.1 542.74 261.3 542.9 266.9 540.52 266.54 537.87 271.48 537.55 274.19 534.68 277.12 535.48 282.3 531.37 282.15 527.97 291.43 526.12 290.74 521.92 296.85 518.64 297.53 514.64 299.91 510.96 305.03 509.9 303.13 509.84 303.14 499.43 282.38 499.42 282.38 468.27 247.61 468.15 247.64 457.67 216.31 457.71 216.28 468.18 220.04 468.19 220.4 509.97 224.44 509.95 224.46 519.33"/><polygon class="cls-4" points="565.51 341.29 648.01 341.29 644.43 335.62 644 329.78 640.32 324.39 638.19 316.88 636.87 316.58 637.16 310.75 634.11 307.47 634.2 301.87 632.73 295.15 629.56 287.85 626.5 282.95 628.32 281.4 626.48 279.34 626.94 276.8 563.77 276.64 563.76 298.24 565.53 298.25 565.51 341.29"/><polygon class="cls-5" points="565.51 341.29 648.01 341.29 644.43 335.62 644 329.78 640.32 324.39 638.19 316.88 636.87 316.58 637.16 310.75 634.11 307.47 634.2 301.86 632.73 295.15 629.56 287.84 626.5 282.95 628.32 281.4 626.48 279.34 626.94 276.8 563.77 276.64 563.75 298.24 565.53 298.25 565.51 341.29"/><polygon class="cls-4" points="54.79 466.92 54.81 479.04 75.04 479.07 75.05 468.36 90.93 468.32 90.91 425.94 86.14 425.95 86.16 383.36 54.78 383.26 54.79 466.92"/><polygon class="cls-5" points="54.79 466.92 54.81 479.04 75.04 479.07 75.05 468.36 90.93 468.32 90.9 425.94 86.14 425.95 86.16 383.36 54.78 383.26 54.79 466.92"/><polygon class="cls-4" points="514.4 383.7 514.32 351.75 450.87 351.7 450.83 383.61 514.4 383.7"/><polygon class="cls-5" points="514.4 383.7 514.32 351.75 450.87 351.7 450.83 383.61 514.4 383.7"/><polygon class="cls-4" points="341.12 492.64 344.35 500.38 344.51 504.49 341.93 510.23 343.74 514 342.35 518.86 337.89 526.5 339.1 535.32 343.6 542.89 345.85 543.83 348.01 547.88 347.61 550.6 399.96 550.88 400.09 510.06 396.92 510.02 397.01 467.95 335.17 467.77 342.95 472.64 341.38 475.13 344.89 479.9 342.07 483.29 340.46 489.83 341.12 492.64"/><polygon class="cls-5" points="341.12 492.64 344.35 500.38 344.51 504.49 341.93 510.23 343.74 514 342.35 518.86 337.89 526.49 339.1 535.32 343.6 542.89 345.85 543.83 348.01 547.88 347.6 550.6 399.96 550.87 400.09 510.06 396.92 510.02 397.01 467.95 335.17 467.77 342.95 472.64 341.38 475.12 344.89 479.9 342.07 483.29 340.46 489.83 341.12 492.64"/><polygon class="cls-4" points="450.87 351.7 514.32 351.75 514.32 341.27 512.24 341.26 512.22 319.83 448.25 319.76 448.26 341.19 450.88 341.19 450.87 351.7"/><polygon class="cls-5" points="450.87 351.7 514.32 351.75 514.32 341.27 512.24 341.26 512.22 319.83 448.25 319.76 448.26 341.19 450.88 341.19 450.87 351.7"/><polygon class="cls-4" points="138.7 425.85 180.74 425.77 180.74 422.25 212.28 422.24 212.34 383.5 207.25 383.5 207.26 353.31 202.28 347.19 202.47 334.53 200.15 331.37 202.66 327.84 196.47 325.41 192.31 330.73 189.86 331.47 182.92 328.01 177.71 328 171.06 322.62 171.02 341.08 133.13 341.02 133.19 383.43 138.71 383.43 138.7 425.85"/><polygon class="cls-5" points="138.7 425.85 180.74 425.76 180.74 422.25 212.28 422.24 212.33 383.5 207.25 383.5 207.26 353.31 202.28 347.19 202.47 334.53 200.14 331.37 202.66 327.84 196.47 325.41 192.31 330.73 189.86 331.46 182.92 328.01 177.71 328 171.06 322.62 171.01 341.08 133.13 341.02 133.19 383.43 138.71 383.43 138.7 425.85"/><polygon class="cls-4" points="54.51 175.75 54.57 221.82 150.88 221.91 150.89 210.96 146.4 210.96 146.49 175.75 54.51 175.75"/><polygon class="cls-5" points="54.51 175.75 54.57 221.82 150.88 221.9 150.89 210.96 146.4 210.96 146.49 175.75 54.51 175.75"/><polygon class="cls-4" points="495.74 551.2 555.1 551.53 555.21 510.09 472.64 510.05 472.42 551.08 495.74 551.2"/><polygon class="cls-5" points="495.74 551.2 555.1 551.53 555.21 510.09 472.64 510.05 472.42 551.08 495.74 551.2"/><polygon class="cls-4" points="472.91 175.74 472.9 211.26 475.35 211.26 475.35 233.07 561.8 233.21 561.78 211.31 559.94 211.31 559.89 175.69 472.91 175.74"/><polygon class="cls-5" points="472.91 175.74 472.9 211.26 475.35 211.26 475.35 233.07 561.8 233.2 561.78 211.31 559.94 211.31 559.89 175.69 472.91 175.74"/><polygon class="cls-4" points="582.12 468.31 655.38 468.26 656.78 457.19 656.28 449.48 655 446.36 658.98 433.83 655.89 432.18 653.29 426.96 652.44 422.23 653.74 417.14 653.86 410.31 651.9 405.18 653.06 404.68 652.49 394.56 580.13 394.26 580.13 426.09 582.16 426.11 582.12 468.31"/><polygon class="cls-5" points="582.12 468.31 655.38 468.26 656.78 457.18 656.28 449.48 655 446.36 658.97 433.82 655.89 432.17 653.29 426.96 652.44 422.23 653.74 417.13 653.86 410.31 651.9 405.18 653.06 404.68 652.49 394.56 580.13 394.26 580.13 426.09 582.16 426.11 582.12 468.31"/><polygon class="cls-4" points="312.46 425.58 314.68 429.46 314.79 435.1 322.06 448.94 320.46 452.13 322.27 455.32 325.43 455.42 323.9 457.96 325.54 461.48 328.01 460.75 329.98 465.2 335.99 462.27 335.17 467.77 383.3 467.89 383.76 425.73 380.53 425.72 380.64 383.6 327.93 383.55 327.92 404.36 310.04 404.44 311.74 406.52 312.33 412.11 316.75 417.74 316.92 421.66 312.46 425.58"/><polygon class="cls-5" points="312.46 425.58 314.68 429.46 314.79 435.1 322.06 448.94 320.46 452.13 322.27 455.32 325.43 455.42 323.9 457.96 325.54 461.48 328.01 460.75 329.98 465.2 335.99 462.27 335.17 467.77 383.3 467.89 383.76 425.73 380.53 425.71 380.64 383.6 327.93 383.55 327.92 404.36 310.04 404.44 311.74 406.52 312.33 412.11 316.75 417.74 316.92 421.66 312.46 425.58"/><polygon class="cls-4" points="150.88 221.91 150.88 232.79 204.9 232.81 204.93 210.99 211.65 210.99 211.67 200.06 222.49 200.07 222.52 175.75 146.49 175.75 146.4 210.96 150.89 210.96 150.88 221.91"/><polygon class="cls-5" points="150.88 221.9 150.88 232.79 204.9 232.8 204.93 210.98 211.65 210.98 211.67 200.06 222.49 200.07 222.52 175.75 146.49 175.75 146.4 210.96 150.89 210.96 150.88 221.9"/><polygon class="cls-4" points="54.78 550.41 141.77 550.42 141.79 510.32 54.77 510.38 54.78 550.41"/><polygon class="cls-5" points="54.78 550.41 141.77 550.42 141.79 510.32 54.76 510.37 54.78 550.41"/><polygon class="cls-4" points="302.21 232.93 302.22 222.02 356.31 222.08 356.35 233 377.94 232.94 377.97 211.16 374.86 211.16 374.89 175.75 265.99 175.75 265.99 211.01 269.76 211.02 269.76 232.83 302.21 232.93"/><polygon class="cls-5" points="302.21 232.93 302.22 222.02 356.31 222.08 356.35 233 377.94 232.94 377.97 211.16 374.86 211.16 374.89 175.75 265.99 175.75 265.99 211.01 269.76 211.02 269.76 232.83 302.21 232.93"/><polygon class="cls-4" points="90.93 468.32 122.22 468.31 122.27 425.89 138.7 425.85 138.71 383.43 86.16 383.36 86.14 425.95 90.91 425.94 90.93 468.32"/><polygon class="cls-5" points="90.93 468.32 122.22 468.31 122.27 425.89 138.7 425.85 138.71 383.43 86.16 383.36 86.14 425.95 90.9 425.94 90.93 468.32"/><polygon class="cls-4" points="448.25 319.76 512.22 319.83 512.21 311.33 503.94 311.17 503.92 308.65 500.78 305.25 500.07 300.77 497.23 300.4 493.56 302.99 490.86 300.63 489.74 293.76 487.39 293.09 482.56 297.79 479.53 298.6 478.84 301.18 473.44 301.26 472.81 294.22 469.85 294.95 467.07 298.1 467.06 287.45 463.84 287.47 461.35 283 456.33 281.56 456.3 254.75 402.74 254.67 402.61 298.17 405.6 298.16 405.59 319.71 448.25 319.76"/><polygon class="cls-5" points="448.25 319.76 512.22 319.83 512.21 311.33 503.94 311.17 503.92 308.64 500.78 305.24 500.07 300.77 497.23 300.4 493.56 302.99 490.86 300.63 489.74 293.76 487.39 293.09 482.56 297.79 479.53 298.59 478.84 301.18 473.44 301.26 472.81 294.22 469.85 294.95 467.07 298.1 467.06 287.45 463.84 287.47 461.34 283 456.33 281.56 456.3 254.75 402.74 254.67 402.61 298.17 405.6 298.16 405.59 319.71 448.25 319.76"/><polygon class="cls-4" points="519.38 468.17 582.12 468.31 582.16 426.11 580.13 426.09 580.13 394.26 517.02 394.2 517.02 425.97 519.35 425.96 519.38 468.17"/><polygon class="cls-5" points="519.38 468.17 582.12 468.31 582.16 426.11 580.13 426.09 580.13 394.26 517.02 394.2 517.02 425.97 519.35 425.96 519.38 468.17"/><polygon class="cls-4" points="141.77 550.42 224.4 550.48 224.46 519.33 183.06 519.25 183.06 510.02 141.79 510.32 141.77 550.42"/><polygon class="cls-5" points="141.77 550.42 224.4 550.48 224.46 519.33 183.06 519.25 183.06 510.02 141.79 510.32 141.77 550.42"/></g></g><g id="Layer_3" data-name="Layer 3"><circle class="cls-6" cx="644.95" cy="436.12" r="26.39"/><circle class="cls-7" cx="644.95" cy="436.12" r="8.13"/><path class="cls-8" d="M484,79.77h4.76l8.16,14.72,2.68,5.56h.16c-.2-2.68-.6-6-.6-8.92V79.77h4.44v26.16h-4.76l-8.16-14.72L488,85.65h-.16c.2,2.76.6,5.92.6,8.84v11.44H484Z"/><path class="cls-8" d="M508.55,96.13c0-6.56,4.44-10.32,9.32-10.32s9.36,3.76,9.36,10.32-4.44,10.28-9.36,10.28S508.55,102.65,508.55,96.13Zm14,0c0-4-1.76-6.56-4.64-6.56s-4.6,2.6-4.6,6.56,1.72,6.52,4.6,6.52S522.51,100.05,522.51,96.13Z"/><path class="cls-8" d="M531.79,86.29h3.8l.32,3.48h.16c1.4-2.56,3.48-4,5.56-4a5,5,0,0,1,2.24.4l-.8,4a6.42,6.42,0,0,0-2-.32c-1.56,0-3.44,1.08-4.64,4v12h-4.6Z"/><path class="cls-8" d="M547.39,99.29V89.93h-2.8V86.49l3-.2.56-5.36H552v5.36h5v3.64h-5v9.36c0,2.32.88,3.44,2.76,3.44a5.63,5.63,0,0,0,2-.44l.8,3.4a12.54,12.54,0,0,1-4,.72C549.07,106.41,547.39,103.53,547.39,99.29Z"/><path class="cls-8" d="M561.15,77.69h4.6V85l-.16,3.8a9,9,0,0,1,6.28-3c4.2,0,6,2.84,6,7.8v12.32h-4.6V94.21c0-3.24-.92-4.44-3.08-4.44-1.72,0-2.84.84-4.48,2.44v13.72h-4.6Z"/><path class="cls-8" d="M591.87,79.77h7c8,0,12.72,4.32,12.72,13s-4.72,13.2-12.48,13.2h-7.24Zm6.68,22.4c5.28,0,8.28-3,8.28-9.44s-3-9.2-8.28-9.2h-2v18.64Z"/><path class="cls-8" d="M615.43,100.65c0-4.2,3.48-6.4,11.56-7.28-.08-2.08-.92-3.84-3.6-3.84a11.19,11.19,0,0,0-5.52,1.92l-1.68-3.08a15.36,15.36,0,0,1,8.08-2.56c4.88,0,7.32,3,7.32,8.48v11.64h-3.8l-.32-2.16h-.16a9.56,9.56,0,0,1-6.08,2.64A5.49,5.49,0,0,1,615.43,100.65Zm11.56,0v-4.4c-5.36.68-7.12,2.08-7.12,4,0,1.76,1.2,2.52,2.84,2.52S625.51,102,627,100.65Z"/><path class="cls-8" d="M637.11,77.69h4.52V95.33h.12l7.28-9h5l-6.72,8,7.4,11.64h-5l-5-8.52-3.08,3.52v5h-4.52Z"/><path class="cls-8" d="M655.79,96.13c0-6.56,4.44-10.32,9.32-10.32s9.36,3.76,9.36,10.32-4.44,10.28-9.36,10.28S655.79,102.65,655.79,96.13Zm14,0c0-4-1.76-6.56-4.64-6.56s-4.6,2.6-4.6,6.56,1.72,6.52,4.6,6.52S669.75,100.05,669.75,96.13Z"/><path class="cls-8" d="M678.83,99.29V89.93H676V86.49l3-.2.56-5.36h3.84v5.36h5v3.64h-5v9.36c0,2.32.88,3.44,2.76,3.44a5.63,5.63,0,0,0,2-.44l.8,3.4a12.54,12.54,0,0,1-4,.72C680.51,106.41,678.83,103.53,678.83,99.29Z"/><path class="cls-8" d="M690.71,100.65c0-4.2,3.48-6.4,11.56-7.28-.08-2.08-.92-3.84-3.6-3.84a11.19,11.19,0,0,0-5.52,1.92l-1.68-3.08a15.36,15.36,0,0,1,8.08-2.56c4.88,0,7.32,3,7.32,8.48v11.64h-3.8l-.32-2.16h-.16a9.56,9.56,0,0,1-6.08,2.64A5.49,5.49,0,0,1,690.71,100.65Zm11.56,0v-4.4c-5.36.68-7.12,2.08-7.12,4,0,1.76,1.2,2.52,2.84,2.52S700.79,102,702.27,100.65Z"/><path class="cls-8" d="M560.84,118.64h4.08c4.65,0,7.4,2.51,7.4,7.54s-2.75,7.68-7.27,7.68h-4.21Zm3.89,13c3.07,0,4.82-1.75,4.82-5.5s-1.75-5.36-4.82-5.36h-1.19v10.86Z"/><path class="cls-8" d="M574.85,118.92a1.66,1.66,0,1,1,1.66,1.51A1.54,1.54,0,0,1,574.85,118.92Zm.31,3.51h2.68v11.43h-2.68Z"/><path class="cls-8" d="M580.11,132.56l1.26-1.72a5.1,5.1,0,0,0,3.17,1.28c1.23,0,1.81-.58,1.81-1.38,0-1-1.23-1.37-2.44-1.84-1.51-.55-3.21-1.42-3.21-3.32s1.6-3.43,4.16-3.43a6.12,6.12,0,0,1,3.8,1.38l-1.23,1.63a4.22,4.22,0,0,0-2.52-1c-1.14,0-1.68.53-1.68,1.26,0,.9,1.15,1.25,2.38,1.7,1.56.58,3.28,1.32,3.28,3.46,0,2-1.56,3.54-4.44,3.54A7.26,7.26,0,0,1,580.11,132.56Z"/><path class="cls-8" d="M591.22,130v-5.45h-1.63v-2l1.77-.12.33-3.12h2.23v3.12h2.91v2.12h-2.91V130c0,1.35.51,2,1.61,2a3.33,3.33,0,0,0,1.19-.25l.46,2a7.31,7.31,0,0,1-2.33.41C592.2,134.14,591.22,132.47,591.22,130Z"/><path class="cls-8" d="M599.23,122.43h2.21l.19,2h.09a3.88,3.88,0,0,1,3.24-2.31,2.79,2.79,0,0,1,1.3.24l-.47,2.32a3.9,3.9,0,0,0-1.18-.18c-.91,0-2,.63-2.7,2.35v7h-2.68Z"/><path class="cls-8" d="M607.61,118.92a1.66,1.66,0,1,1,1.65,1.51A1.54,1.54,0,0,1,607.61,118.92Zm.3,3.51h2.68v11.43h-2.68Z"/><path class="cls-8" d="M613.26,128.16a5.64,5.64,0,0,1,5.73-6,5,5,0,0,1,3.36,1.28L621,125.18a2.77,2.77,0,0,0-1.91-.84c-1.84,0-3.12,1.51-3.12,3.82s1.26,3.8,3,3.8a3.82,3.82,0,0,0,2.35-1l1.1,1.77a5.71,5.71,0,0,1-3.73,1.39C615.66,134.14,613.26,132,613.26,128.16Z"/><path class="cls-8" d="M624.93,130v-5.45H623.3v-2l1.77-.12.32-3.12h2.24v3.12h2.91v2.12h-2.91V130c0,1.35.51,2,1.61,2a3.23,3.23,0,0,0,1.18-.25l.47,2a7.31,7.31,0,0,1-2.33.41C625.91,134.14,624.93,132.47,624.93,130Z"/></g></svg>