<svg xmlns="http://www.w3.org/2000/svg" viewBox="0 0 781.32 496.46"><defs><style>.cls-1{fill:#e6e6e6;}.cls-2,.cls-5,.cls-8{fill:none;}.cls-2{stroke:#f0f0f0;stroke-width:2.54px;}.cls-2,.cls-8,.cls-9{stroke-miterlimit:10;}.cls-3{fill:#f0f0f0;}.cls-4,.cls-7{fill:#007dbc;}.cls-4{opacity:0.8;}.cls-5{stroke:#0675af;stroke-linejoin:bevel;stroke-width:0.64px;}.cls-6{font-size:6.39px;fill:#666;font-family:ArialMT, Arial;letter-spacing:2.99em;}.cls-8,.cls-9{stroke:#fff;}.cls-8{stroke-width:3px;}.cls-9{fill:#fff;}</style></defs><g id="Layer_3" data-name="Layer 3"><rect class="cls-1" x="-24.86" y="-20.84" width="813.74" height="538.15"/></g><g id="Layer_1" data-name="Layer 1"><polygon class="cls-2" points="509.74 176.84 507.83 182.71 501.65 182.71 506.65 186.34 504.74 192.22 509.74 188.59 514.73 192.22 512.82 186.34 517.83 182.71 511.64 182.71 509.74 176.84"/><rect class="cls-3" x="469.54" y="193.59" width="80.75" height="19.75"/><polygon class="cls-4" points="524.57 234.02 524.54 227.7 521.21 227.74 521.52 220.97 521.57 200.76 524.96 200.76 523.61 198.2 507.48 197.98 505.27 200.77 485.95 200.76 483.28 194.02 474.63 193.95 474.53 223.3 494.98 223.24 502.25 226.96 519.01 232.69 522.08 234.23 524.57 234.02"/><polygon class="cls-5" points="524.57 234.01 524.54 227.7 521.21 227.74 521.52 220.96 521.57 200.76 524.96 200.75 523.61 198.2 507.48 197.98 505.27 200.77 485.95 200.75 483.28 194.02 474.63 193.95 474.53 223.29 494.98 223.24 502.25 226.96 519.01 232.69 522.08 234.23 524.57 234.01"/><polygon class="cls-4" points="677.62 95.49 677.61 98.91 691.27 98.95 691.25 105.89 718.54 105.84 718.54 112.74 717.91 112.75 717.9 133.03 739.1 133.08 739.07 73.2 741.58 73.2 741.6 33.56 677.68 33.88 677.62 95.49"/><polygon class="cls-5" points="677.62 95.48 677.61 98.91 691.27 98.95 691.25 105.89 718.54 105.84 718.54 112.74 717.91 112.74 717.9 133.03 739.1 133.08 739.07 73.2 741.58 73.2 741.6 33.56 677.68 33.87 677.62 95.48"/><polygon class="cls-4" points="524.57 234.02 524.64 247.88 594.72 247.85 594.76 221.11 596.18 221.14 596.14 187.43 535.58 187.59 535.58 194.32 541.54 194.32 541.57 200.76 521.57 200.76 521.52 220.97 521.21 227.74 524.54 227.7 524.57 234.02"/><polygon class="cls-5" points="524.57 234.01 524.64 247.88 594.72 247.85 594.76 221.11 596.18 221.14 596.14 187.43 535.58 187.59 535.58 194.32 541.54 194.31 541.57 200.76 521.57 200.76 521.52 220.96 521.21 227.74 524.54 227.7 524.57 234.01"/><polygon class="cls-4" points="580.92 111.61 583.53 109.7 587.94 102.28 587.83 99.27 589.4 97.56 588.59 94 592.96 92 593.83 80.71 591.95 77.22 594.37 73.89 590.63 69.11 592.4 68.38 590.81 64.64 592.29 62.4 591.1 59.65 594.72 55.56 598.72 56.02 600.37 54.7 599.67 50.2 600.05 45.68 601.91 40.28 599.62 36.57 600.61 33.95 550.66 33.95 552.86 42.62 552.07 48.51 552.28 56.38 554.97 76.2 554.1 78.42 553.44 84.98 548.63 87.01 547.36 89.26 560.17 94.51 567.86 104.77 580.92 111.61"/><polygon class="cls-5" points="580.92 111.61 583.53 109.69 587.94 102.28 587.83 99.27 589.4 97.56 588.59 94 592.96 92 593.83 80.71 591.95 77.22 594.37 73.89 590.63 69.11 592.4 68.37 590.81 64.64 592.29 62.4 591.1 59.65 594.72 55.56 598.72 56.02 600.37 54.69 599.67 50.2 600.05 45.68 601.91 40.28 599.62 36.57 600.61 33.95 550.66 33.95 552.86 42.62 552.07 48.51 552.28 56.38 554.97 76.2 554.1 78.41 553.44 84.97 548.63 87.01 547.36 89.26 560.17 94.51 567.86 104.77 580.92 111.61"/><polygon class="cls-4" points="441.45 223.35 441.41 247.87 442 247.87 442.23 307.8 520.93 307.88 527.36 307.55 527.31 293.8 534.01 293.81 547.72 294.57 547.72 281.15 555.86 281.18 555.91 247.86 524.64 247.88 524.57 234.02 522.08 234.23 519.01 232.69 502.25 226.96 494.98 223.24 441.45 223.35"/><polygon class="cls-5" points="441.45 223.35 441.41 247.87 442 247.86 442.23 307.8 520.93 307.88 527.36 307.55 527.31 293.8 534.01 293.81 547.72 294.57 547.72 281.15 555.86 281.18 555.9 247.85 524.64 247.88 524.57 234.01 522.08 234.23 519.01 232.69 502.25 226.96 494.98 223.24 441.45 223.35"/><polygon class="cls-4" points="448.86 373.87 468.49 373.86 468.49 360.66 494.66 360.74 494.65 357.45 529.44 340.03 529.09 314.35 527.42 314.35 527.36 307.55 520.93 307.88 484.11 307.7 427.86 307.99 423.93 307.71 423.93 328.74 431.88 328.66 434 329.97 433.1 331.5 434.38 338.89 433.08 343.85 434.79 346.77 437.92 347.61 438.88 350.71 438.39 355.1 441.68 360.83 442.06 365.1 440.69 372.05 448.86 373.87"/><polygon class="cls-5" points="448.86 373.87 468.49 373.86 468.49 360.66 494.66 360.74 494.65 357.45 529.44 340.03 529.09 314.35 527.42 314.35 527.36 307.55 520.93 307.88 484.11 307.7 427.86 307.99 423.93 307.71 423.93 328.74 431.88 328.66 434 329.97 433.1 331.5 434.38 338.89 433.08 343.84 434.79 346.77 437.92 347.61 438.88 350.71 438.39 355.1 441.68 360.83 442.06 365.1 440.69 372.05 448.86 373.87"/><polygon class="cls-4" points="535.29 123.94 535.29 125.25 540.16 126.12 538.51 129.31 535.29 131.81 535.24 167.03 535.58 187.59 569.22 187.47 568.85 122.76 569.07 112.45 546.54 112.48 547.64 113.75 547.63 118.07 535.48 118.06 535.29 123.94"/><polygon class="cls-5" points="535.29 123.94 535.29 125.25 540.16 126.11 538.51 129.3 535.29 131.81 535.24 167.03 535.58 187.59 569.22 187.47 568.85 122.76 569.07 112.44 546.54 112.48 547.64 113.75 547.63 118.07 535.48 118.06 535.29 123.94"/><polygon class="cls-4" points="467.82 166.98 472.32 166.96 475.05 173.66 509.25 173.81 510.54 174.92 513.03 173.77 535.49 174 535.24 167.03 535.29 131.81 533.12 128.96 528.39 127.06 525.61 127.73 525.68 115.77 531.04 116.36 531.98 114.72 535.32 115.28 535.37 112.52 494.81 112.71 494.83 95.6 447.85 95.34 447.71 112.61 467.94 112.74 467.82 166.98"/><polygon class="cls-5" points="467.82 166.98 472.32 166.96 475.05 173.66 509.25 173.81 510.54 174.92 513.03 173.77 535.49 174 535.24 167.03 535.29 131.81 533.12 128.96 528.39 127.06 525.61 127.73 525.68 115.77 531.04 116.36 531.98 114.72 535.32 115.28 535.37 112.52 494.81 112.71 494.83 95.59 447.85 95.34 447.71 112.61 467.94 112.74 467.82 166.98"/><polygon class="cls-4" points="569.22 187.47 596.14 187.43 596.11 173.9 670.25 173.95 670.25 179.66 687.23 170.18 687.24 171.88 701.25 171.98 701.24 157.88 695.68 157.86 679.65 128.19 676.83 129.78 622.93 130.25 613.49 130.69 613.1 131.86 607.55 127.71 592.52 122.78 568.85 122.76 569.22 187.47"/><polygon class="cls-5" points="569.22 187.47 596.14 187.43 596.11 173.9 670.25 173.95 670.25 179.66 687.23 170.18 687.24 171.88 701.25 171.98 701.24 157.87 695.68 157.86 679.65 128.19 676.83 129.78 622.93 130.25 613.49 130.68 613.1 131.86 607.55 127.71 592.52 122.78 568.85 122.76 569.22 187.47"/><polygon class="cls-4" points="447.71 112.61 447.69 78.16 448.23 49.09 449.52 46.74 456.22 43.37 459.2 40.3 458.5 37.3 460.77 33.57 357.54 33.64 357.49 112.45 447.71 112.61"/><polygon class="cls-5" points="447.71 112.61 447.69 78.16 448.23 49.09 449.52 46.74 456.22 43.37 459.2 40.3 458.5 37.29 460.77 33.57 357.54 33.64 357.49 112.45 447.71 112.61"/><polygon class="cls-4" points="681.44 221.27 681.62 261.47 688.25 261.55 688.23 281.66 696.18 281.66 696.09 294.13 709.34 294.05 709.3 300.68 738.39 300.65 738.94 269.77 738.95 244.58 694.71 244.54 694.82 221.3 681.44 221.27"/><polygon class="cls-5" points="681.44 221.26 681.62 261.47 688.25 261.55 688.23 281.65 696.18 281.65 696.09 294.13 709.34 294.04 709.3 300.68 738.39 300.65 738.94 269.77 738.95 244.58 694.71 244.54 694.82 221.29 681.44 221.26"/><polygon class="cls-4" points="535.32 115.28 535.48 118.06 547.63 118.07 547.64 113.75 546.54 112.48 569.07 112.45 569.04 114.3 572.68 115.89 574.46 114.24 578.25 114.8 580.92 111.61 567.86 104.77 560.17 94.51 547.36 89.26 548.63 87.01 553.44 84.98 554.1 78.42 554.97 76.2 552.28 56.38 552.07 48.51 552.86 42.62 550.66 33.95 495.8 34.18 495.32 33.56 460.77 33.57 458.5 37.3 459.2 40.3 456.22 43.37 449.52 46.74 448.23 49.09 447.69 78.16 447.85 95.34 494.83 95.6 494.81 112.71 535.37 112.52 535.32 115.28"/><polygon class="cls-5" points="535.32 115.28 535.48 118.06 547.63 118.07 547.64 113.75 546.54 112.48 569.07 112.44 569.03 114.3 572.68 115.89 574.46 114.24 578.25 114.79 580.92 111.61 567.86 104.77 560.17 94.51 547.36 89.26 548.63 87.01 553.44 84.97 554.1 78.41 554.97 76.2 552.28 56.38 552.07 48.51 552.86 42.62 550.66 33.95 495.8 34.18 495.32 33.56 460.77 33.57 458.5 37.29 459.2 40.3 456.22 43.37 449.52 46.74 448.23 49.09 447.69 78.16 447.85 95.34 494.83 95.59 494.81 112.71 535.37 112.52 535.32 115.28"/><polygon class="cls-4" points="669.96 207.8 669.99 221.26 696.84 221.3 696.89 214.51 710.23 214.59 710.25 207.85 716.94 207.88 716.99 201.14 723.69 201.17 723.76 194.25 739.02 194.26 739.1 133.08 717.9 133.03 717.59 159.75 716.93 160.37 701.25 160.39 701.25 171.98 687.24 171.88 687.23 170.18 670.25 179.66 669.96 207.8"/><polygon class="cls-5" points="669.96 207.8 669.99 221.26 696.84 221.3 696.89 214.51 710.23 214.59 710.25 207.85 716.94 207.88 716.99 201.14 723.69 201.17 723.76 194.24 739.02 194.26 739.1 133.08 717.9 133.03 717.59 159.75 716.93 160.37 701.25 160.39 701.25 171.98 687.24 171.88 687.23 170.18 670.25 179.66 669.96 207.8"/><polygon class="cls-4" points="527.12 419.3 624.3 419.35 624.07 380.27 592.14 380.4 592.22 346.91 594.53 346.91 594.36 320.87 568.49 320.9 568.41 314.38 529.09 314.35 529.42 347.19 527.14 347.22 527.12 419.3"/><polygon class="cls-5" points="527.12 419.3 624.3 419.35 624.07 380.27 592.14 380.4 592.22 346.91 594.53 346.91 594.36 320.87 568.49 320.9 568.41 314.38 529.09 314.35 529.42 347.19 527.14 347.22 527.12 419.3"/><polygon class="cls-4" points="654.84 129.78 653.41 123.83 656.31 119.46 655.79 117.31 657.29 115.89 655.62 113.66 653.66 105.69 651.83 102.86 652.55 100.58 650.45 95.42 623.18 95.49 623.2 92.09 592.96 92 588.59 94 589.4 97.56 587.83 99.27 587.94 102.28 583.53 109.7 580.92 111.61 578.25 114.8 574.46 114.24 572.68 115.89 569.04 114.3 568.85 122.76 592.52 122.78 607.55 127.71 613.1 131.86 613.49 130.69 622.93 130.25 654.84 129.78"/><polygon class="cls-5" points="654.84 129.78 653.41 123.83 656.31 119.46 655.79 117.31 657.29 115.89 655.62 113.66 653.66 105.69 651.83 102.86 652.55 100.58 650.45 95.42 623.18 95.48 623.2 92.09 592.96 92 588.59 94 589.4 97.56 587.83 99.27 587.94 102.28 583.53 109.69 580.92 111.61 578.25 114.79 574.46 114.24 572.68 115.89 569.03 114.3 568.85 122.76 592.52 122.78 607.55 127.71 613.1 131.86 613.49 130.68 622.93 130.25 654.84 129.78"/><polygon class="cls-4" points="357.49 112.45 357.5 193.83 394.14 193.88 394.19 166.85 440.86 167 440.87 163.62 447.6 163.62 447.59 167.01 467.82 166.98 467.94 112.74 357.49 112.45"/><polygon class="cls-5" points="357.49 112.45 357.5 193.83 394.14 193.88 394.19 166.85 440.86 167 440.87 163.62 447.6 163.62 447.59 167.01 467.82 166.98 467.94 112.74 357.49 112.45"/><polygon class="cls-4" points="410.73 435.59 468.66 435.57 468.49 373.86 428.83 373.94 428.83 380.51 409.4 380.54 409.35 413.39 410.18 413.4 410.17 429.57 410.73 435.59"/><polygon class="cls-5" points="410.72 435.59 468.66 435.57 468.49 373.86 428.83 373.94 428.83 380.51 409.4 380.53 409.35 413.39 410.18 413.4 410.17 429.57 410.72 435.59"/><polygon class="cls-4" points="535.29 123.94 535.32 115.28 531.98 114.72 531.04 116.36 525.68 115.77 525.61 127.73 528.39 127.06 533.12 128.96 535.29 131.81 538.51 129.31 540.16 126.12 535.29 125.25 535.29 123.94"/><polygon class="cls-5" points="535.29 123.94 535.32 115.28 531.98 114.72 531.04 116.36 525.68 115.77 525.61 127.73 528.39 127.06 533.12 128.96 535.29 131.81 538.51 129.3 540.16 126.11 535.29 125.25 535.29 123.94"/><polygon class="cls-4" points="527.36 307.55 527.42 314.35 568.41 314.38 568.49 320.9 594.36 320.87 594.49 334.01 614.2 333.88 620.62 333.52 620.74 320.79 621.92 320.78 621.47 313.83 621.5 241.16 594.74 241.19 594.72 247.85 555.91 247.86 555.86 281.18 547.72 281.15 547.72 294.57 534.01 293.81 527.31 293.8 527.36 307.55"/><polygon class="cls-5" points="527.36 307.55 527.42 314.35 568.41 314.38 568.49 320.9 594.36 320.87 594.49 334.01 614.2 333.88 620.62 333.52 620.74 320.79 621.92 320.78 621.47 313.83 621.5 241.16 594.74 241.19 594.72 247.85 555.9 247.85 555.86 281.18 547.72 281.15 547.72 294.57 534.01 293.81 527.31 293.8 527.36 307.55"/><polygon class="cls-4" points="689.97 346.67 690 380.12 695.79 380.11 695.79 419.38 737.64 419.35 737.62 347.13 738.39 300.65 695.93 300.72 695.89 313.97 693.03 314 693.03 346.67 689.97 346.67"/><polygon class="cls-5" points="689.97 346.67 690 380.12 695.79 380.11 695.79 419.37 737.64 419.35 737.62 347.13 738.39 300.65 695.93 300.72 695.89 313.96 693.03 314 693.03 346.67 689.97 346.67"/><polygon class="cls-4" points="375.73 469.23 410.71 469.17 410.73 435.59 410.17 429.57 390.62 429.6 390.63 413.42 389.77 413.41 389.84 380.55 382.84 380.54 382.89 374.01 369.75 374.01 369.67 360.89 357.42 360.87 357.24 469.23 375.73 469.23"/><polygon class="cls-5" points="375.73 469.22 410.71 469.17 410.72 435.59 410.17 429.57 390.62 429.6 390.63 413.41 389.77 413.41 389.84 380.55 382.84 380.54 382.89 374.01 369.75 374.01 369.67 360.89 357.42 360.86 357.24 469.23 375.73 469.22"/><polygon class="cls-4" points="654.84 129.78 676.83 129.78 679.65 128.19 695.68 157.86 701.24 157.88 701.25 160.39 716.93 160.37 717.59 159.75 717.91 112.75 718.54 112.74 718.54 105.84 691.25 105.89 691.27 98.95 677.61 98.91 677.62 95.49 650.45 95.42 652.55 100.58 651.83 102.86 653.66 105.69 655.62 113.66 657.29 115.89 655.79 117.31 656.31 119.46 653.41 123.83 654.84 129.78"/><polygon class="cls-5" points="654.84 129.78 676.83 129.78 679.65 128.19 695.68 157.86 701.24 157.87 701.25 160.39 716.93 160.37 717.59 159.75 717.91 112.74 718.54 112.74 718.54 105.84 691.25 105.89 691.27 98.95 677.61 98.91 677.62 95.48 650.45 95.42 652.55 100.58 651.83 102.86 653.66 105.69 655.62 113.66 657.29 115.89 655.79 117.31 656.31 119.46 653.41 123.83 654.84 129.78"/><polygon class="cls-4" points="621.5 241.16 621.49 221.32 649.91 221.29 649.91 214.58 656.59 214.54 656.58 207.82 669.96 207.8 670.25 173.95 596.11 173.9 596.18 221.14 594.76 221.11 594.74 241.19 621.5 241.16"/><polygon class="cls-5" points="621.5 241.16 621.49 221.32 649.91 221.29 649.91 214.57 656.59 214.54 656.58 207.82 669.96 207.8 670.25 173.95 596.11 173.9 596.18 221.14 594.76 221.11 594.74 241.19 621.5 241.16"/><polygon class="cls-4" points="357.42 328.18 357.42 360.87 369.67 360.89 369.75 374.01 382.89 374.01 382.84 380.54 389.84 380.55 389.77 413.41 390.63 413.42 390.62 429.6 410.17 429.57 410.18 413.4 409.35 413.39 409.4 380.54 428.83 380.51 428.83 373.94 448.86 373.87 440.69 372.05 442.06 365.1 441.68 360.83 438.39 355.1 438.88 350.71 437.92 347.61 434.79 346.77 433.08 343.85 434.38 338.89 433.1 331.5 434 329.97 431.88 328.66 395.37 328.79 382.88 328.15 357.42 328.18"/><polygon class="cls-5" points="357.42 328.18 357.42 360.86 369.67 360.89 369.75 374.01 382.89 374.01 382.84 380.54 389.84 380.55 389.77 413.41 390.63 413.41 390.62 429.6 410.17 429.57 410.18 413.4 409.35 413.39 409.4 380.53 428.83 380.51 428.83 373.94 448.86 373.87 440.69 372.05 442.06 365.1 441.68 360.83 438.39 355.1 438.88 350.71 437.92 347.61 434.79 346.77 433.08 343.84 434.38 338.89 433.1 331.5 434 329.97 431.88 328.66 395.37 328.78 382.88 328.15 357.42 328.18"/><polygon class="cls-4" points="624.07 380.27 624.3 419.35 695.79 419.38 695.79 380.11 690 380.12 689.97 346.67 624.72 346.81 624.67 380.26 624.07 380.27"/><polygon class="cls-5" points="624.07 380.27 624.3 419.35 695.79 419.37 695.79 380.11 690 380.12 689.97 346.67 624.72 346.81 624.67 380.25 624.07 380.27"/><polygon class="cls-4" points="468.49 373.86 468.66 435.57 517.51 435.63 516.31 433.82 512.61 432.29 510.05 426.98 512.19 425.38 511.77 419.35 527.12 419.3 527.14 347.22 529.42 347.19 529.44 340.03 494.65 357.45 494.66 360.74 468.49 360.66 468.49 373.86"/><polygon class="cls-5" points="468.49 373.86 468.66 435.57 517.51 435.62 516.31 433.81 512.61 432.29 510.05 426.98 512.19 425.38 511.77 419.35 527.12 419.3 527.14 347.22 529.42 347.19 529.44 340.03 494.65 357.45 494.66 360.74 468.49 360.66 468.49 373.86"/><polygon class="cls-4" points="681.62 261.47 681.44 221.27 669.99 221.26 669.96 207.8 656.58 207.82 656.59 214.54 649.91 214.58 649.91 221.29 621.49 221.32 621.42 261.05 628.22 261.08 628.23 267.81 668.25 268.17 668.28 261.43 681.62 261.47"/><polygon class="cls-5" points="681.62 261.47 681.44 221.26 669.99 221.26 669.96 207.8 656.58 207.82 656.59 214.54 649.91 214.57 649.91 221.29 621.49 221.32 621.42 261.05 628.22 261.08 628.23 267.81 668.25 268.17 668.28 261.43 681.62 261.47"/><polygon class="cls-4" points="694.82 221.3 694.71 244.54 738.95 244.58 739.02 194.26 723.76 194.25 723.69 201.17 716.99 201.14 716.94 207.88 710.25 207.85 710.23 214.59 696.89 214.51 696.84 221.3 694.82 221.3"/><polygon class="cls-5" points="694.82 221.29 694.71 244.54 738.95 244.58 739.02 194.26 723.76 194.24 723.69 201.17 716.99 201.14 716.94 207.88 710.25 207.85 710.23 214.59 696.89 214.51 696.84 221.3 694.82 221.29"/><polygon class="cls-4" points="592.96 92 623.2 92.09 623.18 95.49 677.62 95.49 677.68 33.88 600.61 33.95 599.62 36.57 601.91 40.28 600.05 45.68 599.67 50.2 600.37 54.7 598.72 56.02 594.72 55.56 591.1 59.65 592.29 62.4 590.81 64.64 592.4 68.38 590.63 69.11 594.37 73.89 591.95 77.22 593.83 80.71 592.96 92"/><polygon class="cls-5" points="592.96 92 623.2 92.09 623.18 95.48 677.62 95.48 677.68 33.87 600.61 33.95 599.62 36.57 601.91 40.28 600.05 45.68 599.67 50.2 600.37 54.69 598.72 56.02 594.72 55.56 591.1 59.65 592.29 62.4 590.81 64.64 592.4 68.37 590.63 69.11 594.37 73.89 591.95 77.22 593.83 80.71 592.96 92"/><polygon class="cls-4" points="441.45 223.35 474.53 223.3 474.63 193.95 483.28 194.02 472.32 166.96 447.59 167.01 447.6 163.62 440.87 163.62 440.86 167 394.19 166.85 394.14 193.88 357.5 193.83 357.48 223.26 441.45 223.35"/><polygon class="cls-5" points="441.45 223.35 474.53 223.29 474.63 193.95 483.28 194.02 472.32 166.96 447.59 167.01 447.6 163.62 440.87 163.62 440.86 167 394.19 166.85 394.14 193.88 357.5 193.83 357.48 223.26 441.45 223.35"/><polygon class="cls-4" points="624.07 380.27 624.67 380.26 624.72 346.81 693.03 346.67 693.03 314 695.89 313.97 695.93 300.72 709.3 300.68 709.34 294.05 696.09 294.13 696.18 281.66 688.23 281.66 688.25 261.55 668.28 261.43 668.25 268.17 628.23 267.81 628.22 261.08 621.42 261.05 621.47 313.83 621.92 320.78 620.74 320.79 620.62 333.52 614.2 333.88 594.49 334.01 594.53 346.91 592.22 346.91 592.14 380.4 624.07 380.27"/><polygon class="cls-5" points="624.07 380.27 624.67 380.25 624.72 346.81 693.03 346.67 693.03 314 695.89 313.96 695.93 300.72 709.3 300.68 709.34 294.04 696.09 294.13 696.18 281.65 688.23 281.65 688.25 261.55 668.28 261.43 668.25 268.17 628.23 267.81 628.22 261.08 621.42 261.05 621.47 313.83 621.92 320.78 620.74 320.79 620.62 333.52 614.2 333.88 594.49 334.01 594.53 346.91 592.22 346.91 592.14 380.4 624.07 380.27"/><polygon class="cls-4" points="423.93 328.74 423.93 307.71 427.86 307.99 442.23 307.8 442 247.87 441.41 247.87 441.45 223.35 357.48 223.26 357.42 328.18 382.88 328.15 395.37 328.79 423.93 328.74"/><polygon class="cls-5" points="423.93 328.74 423.93 307.71 427.86 307.99 442.23 307.8 442 247.86 441.41 247.87 441.45 223.35 357.48 223.26 357.42 328.18 382.88 328.15 395.37 328.78 423.93 328.74"/><polygon class="cls-4" points="483.28 194.02 485.95 200.76 505.27 200.77 507.48 197.98 523.61 198.2 524.96 200.76 541.57 200.76 541.54 194.32 535.58 194.32 535.49 174 513.03 173.77 510.54 174.92 509.25 173.81 475.05 173.66 483.28 194.02"/><polygon class="cls-5" points="483.28 194.02 485.95 200.75 505.27 200.77 507.48 197.98 523.61 198.2 524.96 200.75 541.57 200.76 541.54 194.31 535.58 194.32 535.49 174 513.03 173.77 510.54 174.92 509.25 173.81 475.05 173.66 483.28 194.02"/><text/><text/><text class="cls-6" transform="translate(286.97 487.53)">	</text><text class="cls-6" transform="translate(293.44 487.53)">	</text></g><g id="Layer_2" data-name="Layer 2"><path class="cls-7" d="M77.37,218.42h4.76l8.16,14.72L93,238.7h.16c-.2-2.68-.6-6-.6-8.92V218.42H97v26.16H92.21l-8.16-14.72-2.68-5.56h-.16c.2,2.76.6,5.92.6,8.84v11.44H77.37Z"/><path class="cls-7" d="M101.93,234.78c0-6.4,4.44-10.32,9-10.32,5.32,0,8.12,3.84,8.12,9.32a10.72,10.72,0,0,1-.2,2.24H106.41c.4,3.48,2.64,5.48,5.8,5.48a8.2,8.2,0,0,0,4.56-1.44l1.56,2.88a12.39,12.39,0,0,1-6.72,2.12C106.17,245.06,101.93,241.26,101.93,234.78Zm13.16-1.88c0-3-1.32-4.88-4-4.88-2.32,0-4.32,1.72-4.72,4.88Z"/><path class="cls-7" d="M121.53,224.94h4.64l2.36,10.2c.4,1.88.68,3.72,1,5.64h.16c.36-1.92.76-3.8,1.24-5.64l2.56-10.2h4.2l2.6,10.2c.48,1.88.88,3.72,1.32,5.64h.16c.36-1.92.68-3.76,1-5.64l2.36-10.2h4.31l-5,19.64h-5.48l-2.28-9.16c-.44-1.84-.76-3.64-1.2-5.72h-.16c-.36,2.08-.72,3.92-1.16,5.76L132,244.58h-5.28Z"/><path class="cls-7" d="M161.81,218.42h5.24l4.64,12.8c.56,1.64,1.12,3.4,1.68,5.12h.16c.56-1.72,1.08-3.48,1.64-5.12l4.51-12.8H185v26.16h-4.28v-12c0-2.44.37-5.92.6-8.32h-.16L179,230.38l-4.28,11.76H172l-4.32-11.76-2.08-6.08h-.16c.2,2.4.6,5.88.6,8.32v12h-4.2Z"/><path class="cls-7" d="M189.93,234.78c0-6.4,4.44-10.32,9-10.32,5.32,0,8.12,3.84,8.12,9.32a10.72,10.72,0,0,1-.2,2.24H194.41c.4,3.48,2.64,5.48,5.8,5.48a8.2,8.2,0,0,0,4.56-1.44l1.56,2.88a12.39,12.39,0,0,1-6.72,2.12C194.17,245.06,189.93,241.26,189.93,234.78Zm13.16-1.88c0-3-1.32-4.88-4-4.88-2.32,0-4.32,1.72-4.72,4.88Z"/><path class="cls-7" d="M214.89,234.34l-5.84-9.4h5l2.2,3.72c.56,1.08,1.2,2.24,1.8,3.32h.16c.48-1.08,1-2.24,1.52-3.32l1.88-3.72h4.76l-5.8,9.92,6.23,9.72h-4.95l-2.4-3.88c-.64-1.16-1.32-2.36-2-3.48h-.16c-.56,1.12-1.16,2.28-1.72,3.48l-2.08,3.88h-4.8Z"/><path class="cls-7" d="M229.73,218.9a2.85,2.85,0,1,1,2.84,2.6A2.64,2.64,0,0,1,229.73,218.9Zm.52,6h4.6v19.64h-4.6Z"/><path class="cls-7" d="M239.45,234.78c0-6.56,4.6-10.32,9.84-10.32a8.48,8.48,0,0,1,5.76,2.2l-2.24,3a4.8,4.8,0,0,0-3.28-1.44c-3.16,0-5.36,2.6-5.36,6.56s2.16,6.52,5.24,6.52a6.55,6.55,0,0,0,4-1.68l1.87,3a9.76,9.76,0,0,1-6.39,2.4C243.57,245.06,239.45,241.3,239.45,234.78Z"/><path class="cls-7" d="M257,234.78c0-6.56,4.44-10.32,9.32-10.32s9.35,3.76,9.35,10.32-4.44,10.28-9.35,10.28S257,241.3,257,234.78Zm14,0c0-4-1.76-6.56-4.64-6.56s-4.6,2.6-4.6,6.56,1.72,6.52,4.6,6.52S270.93,238.7,270.93,234.78Z"/><path class="cls-7" d="M141.44,257.29h4.07c4.66,0,7.41,2.51,7.41,7.54s-2.75,7.68-7.27,7.68h-4.21Zm3.89,13c3.07,0,4.82-1.75,4.82-5.5s-1.75-5.36-4.82-5.36h-1.19v10.86Z"/><path class="cls-7" d="M155.45,257.57a1.66,1.66,0,1,1,1.65,1.51A1.54,1.54,0,0,1,155.45,257.57Zm.3,3.51h2.68v11.43h-2.68Z"/><path class="cls-7" d="M160.71,271.21l1.26-1.72a5.08,5.08,0,0,0,3.17,1.28c1.23,0,1.81-.58,1.81-1.38s-1.23-1.37-2.44-1.84c-1.52-.55-3.22-1.42-3.22-3.32s1.61-3.43,4.17-3.43a6.12,6.12,0,0,1,3.8,1.38L168,263.81a4.19,4.19,0,0,0-2.51-1c-1.14,0-1.68.53-1.68,1.26,0,.9,1.14,1.25,2.38,1.69,1.56.59,3.28,1.33,3.28,3.47,0,2-1.56,3.54-4.45,3.54A7.23,7.23,0,0,1,160.71,271.21Z"/><path class="cls-7" d="M171.82,268.65V263.2h-1.63v-2l1.77-.12.32-3.12h2.24v3.12h2.91v2.12h-2.91v5.45c0,1.35.51,2,1.6,2a3.45,3.45,0,0,0,1.19-.25l.47,2a7.3,7.3,0,0,1-2.33.42C172.79,272.79,171.82,271.12,171.82,268.65Z"/><path class="cls-7" d="M179.82,261.08H182l.18,2h.1a3.88,3.88,0,0,1,3.23-2.31,3,3,0,0,1,1.31.23l-.47,2.33a4,4,0,0,0-1.19-.18c-.9,0-2,.63-2.7,2.35v7h-2.68Z"/><path class="cls-7" d="M188.2,257.57a1.66,1.66,0,1,1,1.66,1.51A1.54,1.54,0,0,1,188.2,257.57Zm.31,3.51h2.67v11.43h-2.67Z"/><path class="cls-7" d="M193.86,266.81a5.64,5.64,0,0,1,5.73-6,4.92,4.92,0,0,1,3.35,1.28l-1.3,1.75a2.79,2.79,0,0,0-1.91-.84c-1.84,0-3.12,1.51-3.12,3.82s1.26,3.8,3,3.8a3.85,3.85,0,0,0,2.35-1l1.1,1.77a5.74,5.74,0,0,1-3.73,1.39C196.26,272.79,193.86,270.61,193.86,266.81Z"/><path class="cls-7" d="M205.52,268.65V263.2h-1.63v-2l1.77-.12L206,258h2.24v3.12h2.91v2.12h-2.91v5.45c0,1.35.51,2,1.6,2a3.5,3.5,0,0,0,1.19-.25l.47,2a7.35,7.35,0,0,1-2.33.42C206.5,272.79,205.52,271.12,205.52,268.65Z"/><circle class="cls-8" cx="511.64" cy="185.71" r="26.39"/><circle class="cls-9" cx="511.64" cy="185.71" r="8.13"/></g></svg>