<svg xmlns="http://www.w3.org/2000/svg" viewBox="0 0 784.06 507.87"><defs><style>.cls-1{fill:#e6e6e6;}.cls-2,.cls-5{fill:#a5a5a5;}.cls-2,.cls-3{opacity:0.8;}.cls-4{fill:#007dbc;}.cls-10,.cls-6,.cls-7,.cls-9{fill:none;}.cls-6{stroke:#868788;stroke-linejoin:bevel;stroke-width:0.67px;}.cls-10,.cls-7{stroke:#0675af;}.cls-10,.cls-7,.cls-9{stroke-miterlimit:10;}.cls-8{fill:#fff;}.cls-9{stroke:#fff;stroke-width:3px;}.cls-10{stroke-width:4px;}</style></defs><g id="Background"><rect class="cls-1" x="-11.18" y="-11.39" width="804.92" height="529.99"/></g><g id="Metro_NY" data-name="Metro NY"><polygon class="cls-2" points="564.74 404.43 566.17 411.81 572.84 417.89 573.55 429.57 570.19 445.25 579.09 448.45 587.15 442.24 589.25 437.43 589.57 435.63 584.02 426.66 602.57 415.39 597.4 407.08 597.88 399.92 564.74 404.43"/><polygon class="cls-2" points="504.34 334.05 529.09 348.38 519.9 361.62 533.52 371.78 535.62 377.24 543.49 373.03 544.38 375.78 553.86 378.1 553.24 374.74 559.36 378.29 566.95 377.34 567.9 360.69 567.08 359.04 567.99 348.94 566.28 345.79 568.46 334.12 568.75 327.69 570.18 322.74 563.24 317.67 560.21 318.34 557.76 325.88 540.15 324.07 529.24 318.47 504.34 334.05"/><polygon class="cls-2" points="476.66 350.88 482.01 356.08 480 357.42 483.72 360.96 484.4 374.5 482.47 376.12 488.68 385.56 489.13 388.47 492.15 388.11 496 390.86 495.6 392.48 501.96 392.19 503.61 394.35 506.31 394.01 506.48 387.07 527.44 386 531.77 379.43 535.62 377.24 533.52 371.78 519.9 361.62 529.09 348.38 504.34 334.05 476.66 350.88"/><polygon class="cls-2" points="604 450.91 604.9 454.82 606.94 470.58 617.34 468.3 622.04 464.9 626.4 466.93 637.8 461.77 649.02 462.84 666.58 457.29 682.12 451.09 717.52 434.25 725.66 429.63 719.54 428.9 707.58 436.44 702.29 433 696.76 431.87 690.51 425.73 691.95 422.49 667.07 438.46 656.19 440.25 630.59 439.76 622.51 446 609.49 442.88 596.31 445.25 604 450.91"/><polygon class="cls-2" points="545.67 422.42 570.8 437.04 570.48 422.5 566.49 417.31 564.3 404.6 545.67 422.42"/><polygon class="cls-2" points="556.97 471.88 551.75 473.06 549.4 472.35 548.51 473.19 548.12 473.67 548 476.16 548.53 476.65 547.44 480.7 546.79 481.29 545.96 481.21 545.3 481.92 544.67 486.61 545.27 486.94 546.96 486.39 547.7 485.55 548.66 485.73 549.44 484.79 551.59 483.85 553.37 482.06 553.78 482.48 553.27 483.2 552.83 483.21 553.11 483.78 557.63 479 559.41 476.77 559.35 476.17 557.96 474.3 558.02 472.48 556.97 471.88"/><polygon class="cls-2" points="574.14 471.51 574.83 472.34 576.92 471.83 579.87 473.73 578.59 475.27 579.24 476 579.98 475.43 579.7 474.77 580.12 474.02 580.73 474.41 582.79 472.98 583.16 471.96 584.23 471.42 583.83 464.56 585.54 464 586.08 462.96 586 461.54 582.28 458.51 581.97 460.18 581.67 459.96 580.52 458.2 580.77 457.94 580.33 457.15 579.11 457.91 578.96 457.3 577.04 456.72 576.35 457.14 576.13 457.92 575.73 457.85 575.64 457.11 574.58 457.34 574.07 458.2 574.81 458.55 575.18 460.51 574.64 460.86 574.04 460.54 573.81 460.1 574.2 459.46 573.05 458.73 573.16 458.19 571.8 459.44 571.31 458.27 570.25 457.7 568.76 459.2 568.41 458.98 568.13 459.28 568.35 459.77 566.38 462.47 566.28 462.96 567 462.86 568.78 464 569.36 465.88 570.65 467.21 571.25 468.53 573.34 467.26 573.56 468.59 574.2 469.61 574.34 470.39 573.77 470.94 574.14 471.51"/><polygon class="cls-2" points="581.95 475.75 580.57 475.39 580.92 475.8 580.74 476.92 580.18 475.81 579.38 476.96 578.34 476.88 576.93 478.07 574.73 478.54 572.65 479.87 569.18 480.55 568.11 481.17 567.92 482.41 577.48 478.41 583.24 477.29 582.66 475.56 581.95 475.75"/><polygon class="cls-2" points="581.08 474.72 580.77 475.17 581.12 475.17 581.08 474.72"/><polygon class="cls-2" points="578.65 475.77 578.26 476.33 578.93 476.19 578.65 475.77"/><polygon class="cls-2" points="578.7 474.18 578.04 474.57 578.26 475.2 578.7 474.18"/><polygon class="cls-2" points="577.74 476.9 577.73 476.41 577.41 476.55 577.74 476.9"/><polygon class="cls-2" points="575.98 475.33 577.1 475.69 576.71 476.93 576.07 476.99 576.2 477.29 576.94 477.28 577.43 475.9 577.28 474.37 576.82 473.09 576.13 472.89 575.98 475.33"/><polygon class="cls-2" points="576.24 475.91 576.09 475.79 576.18 476.21 576.24 475.91"/><polygon class="cls-2" points="575.62 477.07 575.26 477.53 576.08 477.81 575.62 477.07"/><polygon class="cls-2" points="564.74 404.43 597.88 399.92 598.98 383.69 568.43 387.62 564.81 392.6 567.39 397.21 564.74 404.43"/><polygon class="cls-2" points="510.83 400.83 545.67 422.42 564.83 404.13 567.39 397.21 564.81 392.6 563.41 390.83 563.68 384.15 566.95 377.34 559.36 378.29 553.24 374.74 553.86 378.1 544.38 375.78 543.49 373.03 531.77 379.43 527.44 386 506.48 387.07 506.31 394.01 510.83 400.83"/><polygon class="cls-2" points="570.33 449.62 570.13 448.86 569.84 449.24 570.33 449.62"/><polygon class="cls-2" points="568.99 449.07 567.43 451.74 567.19 453.36 562.85 461.36 561.96 466.17 562.51 466.78 563.56 465.92 565.2 465.59 565.67 462.26 568.79 457.13 568.38 455.82 568.35 453.27 570.14 449.9 570.1 449.46 569.44 449.49 568.99 449.07"/><polygon class="cls-2" points="569.79 457.04 569.04 456.61 568.34 458.49 569.16 458.54 569.83 457.6 569.79 457.04"/><polygon class="cls-2" points="567.63 460.15 567.8 459.59 566.36 461.71 567.63 460.15"/><polygon class="cls-2" points="562.15 467.45 561.42 468.16 561.64 468.38 562.49 467.86 562.15 467.45"/><polygon class="cls-2" points="581.08 474.72 581.12 475.17 581.95 475.75 582.66 475.56 583.25 476.6 583.24 477.29 582.4 477.39 582.02 478.33 595.52 479.11 606.94 470.58 604.9 454.82 604 450.91 596.31 445.25 583.88 450.13 582.59 458.75 586 461.54 586.08 462.96 585.54 464 583.83 464.56 584.23 471.42 582.98 472.15 582.79 472.98 581.08 474.72"/><polygon class="cls-2" points="576.01 474.49 575.84 474.79 575.98 475.33 576.01 474.49"/><polygon class="cls-2" points="574.75 474.09 574.26 474.82 574.9 474.52 574.75 474.09"/><polygon class="cls-2" points="574.04 476.53 573.74 476.63 574 477.1 574.63 477.01 574.04 476.53"/><polygon class="cls-2" points="567 462.86 566.27 463.41 565.74 466.27 565.4 466.67 564.87 466.19 563.84 466.34 562.69 468.45 561.98 468.78 562.03 469.33 563.46 470.33 562.1 470.83 562.32 471.01 561.34 472.28 560.63 472.61 560.31 473.76 560.68 475.81 563.02 477.01 563.47 477.63 563.4 478.43 564.15 478.28 563.93 478.8 563.1 478.58 562.44 478.94 563.27 479.61 568.6 479.17 568.51 478.63 567.41 478.39 570.01 478.56 569.99 478.14 568.75 478 569.9 477.87 569.1 476.77 569.36 476.58 570.03 477.18 570.16 478.16 571.01 477.94 571.36 479.07 572.55 478.71 572.76 478.27 572.19 476.21 571.08 476.39 571.75 475.73 571.22 474.6 572.73 472.91 573.27 472.9 573.02 472.33 573.47 472.78 574.21 472.42 573.77 470.94 574.34 470.39 573.34 467.26 571.25 468.53 570.65 467.21 569.36 465.88 568.78 464 567 462.86"/><polygon class="cls-2" points="569.56 476.81 569.34 477.01 569.85 477.61 569.56 476.81"/><polygon class="cls-2" points="598.98 383.69 602.22 330.67 599.64 330.63 599.21 337.96 585.3 335.16 570.4 327.61 568.75 327.69 568.46 334.12 566.28 345.79 567.99 348.94 567.08 359.04 567.9 360.69 566.95 377.34 563.68 384.15 563.41 390.83 564.81 392.6 568.43 387.62 598.98 383.69"/><polygon class="cls-2" points="580.96 451.37 580.65 450.81 580.85 452 580.96 451.37"/><polygon class="cls-2" points="579.39 450.96 579.21 452.12 579.75 453.11 579.96 452.06 579.39 450.96"/><polygon class="cls-2" points="569.79 457.04 571.26 456.12 573.04 456.71 573.39 456.11 573.22 455.36 574.75 456.34 575.38 454.91 575.75 456.19 576.16 456.3 576.32 455.67 577.32 455.4 579.22 456.37 578.39 455.78 578.7 455.12 578.03 454.32 577.53 454.4 577.23 451.61 577.59 450.91 576.95 449.94 577.18 449.78 577.5 450.4 578.19 450.63 578.43 451.8 579.04 450.2 579.65 449.85 579.73 448.95 579.24 448.71 578.38 450.24 579.09 448.45 570.19 445.25 569.25 448.9 569.84 449.24 570.13 448.86 570.46 449.44 568.45 453.66 568.54 455.91 569.79 457.04"/><polygon class="cls-2" points="571.95 456.97 571.54 457.45 571.82 458.05 573.02 458.19 573.15 457.77 571.95 456.97"/></g><g id="Upstate_NY" data-name="Upstate NY" class="cls-3"><polygon class="cls-4" points="591.01 239.14 604.93 238.81 606.35 237.37 610.37 238.88 618.34 238.89 620.42 178.43 619.53 174.35 616.6 172.8 616.2 167.99 610.95 168.12 608.97 174.01 606.66 172.35 606.72 167.08 608.43 161.44 612.51 152.91 610.39 148.85 605.94 149.36 603.41 152.68 604.02 157.16 601.7 165.04 598.3 168.03 595.14 173.44 593.27 174.07 591.25 179.86 594.08 201.32 593.91 207.73 595.26 211.34 594.39 218.62 595.71 222.66 593.91 232.28 591.31 236.21 591.01 239.14"/><polygon class="cls-4" points="594.08 201.32 591.25 179.86 593.27 174.07 595.14 173.44 598.3 168.03 601.7 165.04 604.02 157.16 603.41 152.68 605.94 149.36 547.18 157.22 551.3 194.51 572.2 191.75 574.09 198.8 576.6 201.4 575.85 206.75 578.31 207.12 580.9 210.03 583.1 205.62 590.45 201.52 594.08 201.32"/><polygon class="cls-4" points="359.34 279.81 360.17 297.41 359.74 306.69 376.19 307.03 376.16 308.8 380.57 308.88 380.64 303.21 385.51 303.22 393.14 305.43 393.75 298.61 389.42 296.38 389.88 294.18 392.9 294.08 391.97 271.9 377.37 272.42 377.34 271.51 361.63 271.91 365.28 277.76 367.72 279.48 359.34 279.81"/><polygon class="cls-4" points="369.83 335.7 404.06 335.83 403.27 316.79 405.47 316.67 405.93 312.2 403.56 303.19 402.21 293.8 389.88 294.18 389.42 296.38 393.75 298.61 393.14 305.43 385.51 303.22 380.64 303.21 380.57 308.88 376.16 308.8 376.19 307.03 371.33 306.96 371.46 319.88 369.5 319.82 371.09 330.45 369.83 335.7"/><polygon class="cls-4" points="279.64 335.84 338.98 335.59 339.04 307.3 328.84 307.92 328.25 284 325.07 284.59 325.51 276.7 286.45 276.35 286.34 281 281.86 281 279.64 335.84"/><polygon class="cls-4" points="423.41 85.37 424.14 87.13 482.99 123.43 522.92 118.28 522.21 110.89 523.64 110.77 514.84 27.7 508.91 27.66 508.8 22.8 505.88 23.17 500.87 20.93 496.26 22.62 494.7 24.4 489.82 24.4 482.85 30.18 477.55 31.72 475.26 34.02 466.2 38.84 459.75 45.82 449.53 54.08 440.95 63.21 429.71 74.29 426.63 78.92 425.58 83.12 423.41 85.37"/><polygon class="cls-4" points="339.04 307.3 339.05 306.39 356.53 305.74 356.62 310.4 363.46 311.88 365.18 310.34 365.2 306.85 359.74 306.69 360.17 297.41 359.34 279.81 344.29 280.34 344.73 288.39 337.28 288.36 337.19 286.15 328.27 286.26 328.84 307.92 339.04 307.3"/><polygon class="cls-4" points="509.57 282.77 516.58 292.36 529.86 299.47 534.74 297.53 537.23 299.39 542.49 298.61 544.9 297.19 544.18 294.02 543.37 292.82 546.13 285.18 545.14 279.38 550.55 267.51 550.96 262.27 549.78 260.95 549.48 262.75 542.81 262.57 540.32 259.17 543.84 258.16 543.49 254.09 541.52 255.4 529 256.52 520.9 252.41 514.36 250.68 512.91 258.82 515.7 271.58 509.57 282.77"/><polygon class="cls-4" points="543.49 254.09 543.84 258.16 540.32 259.17 542.81 262.57 549.48 262.75 549.78 260.95 577.83 256.31 577.85 255.91 576.88 255.76 571.3 248.46 570.65 242.25 566.79 243.69 562.99 239.95 556.4 237.64 557.07 243.68 544.02 252.47 543.49 254.09"/><polygon class="cls-4" points="551.3 194.51 556.4 237.64 562.99 239.95 566.79 243.69 570.65 242.25 571.3 248.46 576.88 255.76 577.85 255.91 580.86 255.15 584.11 251.4 586.78 256.23 587.88 255.46 589.17 251.77 587.31 244.2 591.01 239.14 591.31 236.21 593.91 232.28 595.71 222.66 594.39 218.62 595.26 211.34 593.91 207.73 594.08 201.32 590.45 201.52 583.1 205.62 580.9 210.03 578.31 207.12 575.85 206.75 576.6 201.4 574.09 198.8 572.2 191.75 551.3 194.51"/><polygon class="cls-4" points="579.79 288.27 612.42 283.57 619.04 259.31 617.08 253.54 618.01 250.29 618.34 238.89 610.37 238.88 606.35 237.37 604.93 238.81 591.01 239.14 587.31 244.2 589.17 251.77 587.88 255.46 585.93 264.04 582.6 269.58 581.48 273.26 581.71 281.09 579.72 285.64 579.79 288.27"/><polygon class="cls-4" points="456.31 303.64 464.62 302.8 468.13 298.26 472.82 299.13 480.68 292.75 486.24 291.88 486.38 289.3 488.94 290.38 490.46 287.08 492.55 287.54 499.54 283.31 505.04 284.15 509.57 282.77 515.7 271.58 512.91 258.82 514.36 250.68 496.92 243.59 495.89 250.32 494.8 251.15 480.1 242.54 477.17 247.56 471.81 247.9 471.69 245.48 468.98 246.35 469.58 250.24 468.68 255.38 465.37 259.5 465.31 262.07 462.71 267.96 463.28 272.04 462.7 277.68 459.9 279.25 457.14 286.66 459.36 293.8 456.97 296.99 457.9 299.62 456.31 303.64"/><polygon class="cls-4" points="365.37 189.65 366.28 206.78 375.66 206.46 375.8 209.49 388.69 209.13 390.8 212.23 392.47 208.45 395.08 211.82 396.74 210.03 396.11 205.23 399.28 207.49 412.56 214.06 417.14 214.76 420.83 216.95 422.44 199.96 420.64 199.35 426.1 182.83 430.52 184.21 429.12 161.38 410.17 159.49 410.4 163.55 398.21 162.39 394.61 177.84 380.56 178.87 365.37 189.65"/><polygon class="cls-4" points="375.8 209.49 376.23 222.3 374.28 222.95 374.84 232.55 377.03 232.42 377.96 249.01 385.05 248.64 388.92 252.36 391.28 256.69 419.93 254.66 418.33 224.18 414.97 224.19 413.84 222.4 415.8 219.43 412.56 214.06 399.28 207.49 396.11 205.23 396.74 210.03 395.08 211.82 392.47 208.45 390.8 212.23 388.69 209.13 375.8 209.49"/><polygon class="cls-4" points="420.83 216.95 427.63 216.47 428.96 215.08 434.26 217.43 434.19 218.68 438.96 222.21 439.2 224.66 442.35 226.86 442.56 229.41 445.91 229.18 446.56 240.12 454.13 239.99 454.66 247.2 468.98 246.35 472.49 245.4 471.16 227.64 475.63 221.06 482.51 209.51 475.61 206.55 476.54 201.41 481.95 198.76 479.4 169.09 447.37 189.48 426.1 182.83 420.64 199.35 422.44 199.96 420.83 216.95"/><polygon class="cls-4" points="514.36 250.68 520.9 252.41 529 256.52 541.52 255.4 543.49 254.09 544.02 252.47 557.07 243.68 556.04 234.84 522.39 234.57 505.91 228.16 507.41 233.25 505.66 247.21 514.36 250.68"/><polygon class="cls-4" points="419.93 254.66 420.4 261.59 455.3 259.36 455.35 260.11 465.37 259.5 468.68 255.38 469.58 250.24 468.98 246.35 454.66 247.2 454.13 239.99 446.56 240.12 445.91 229.18 442.56 229.41 442.35 226.86 439.2 224.66 438.96 222.21 434.19 218.68 434.26 217.43 428.96 215.08 427.63 216.47 420.83 216.95 417.14 214.76 412.56 214.06 415.8 219.43 413.84 222.4 414.97 224.19 418.33 224.18 419.93 254.66"/><polygon class="cls-4" points="430.52 184.21 447.37 189.48 479.4 169.09 474.87 118.54 453.98 105.8 446.43 117.89 451.08 120.93 449.7 123.34 449.77 127.73 446.12 127.88 446.66 132.13 442.06 131.75 430.36 141.48 424.14 140.93 423.38 150.6 428.2 150.97 430.52 184.21"/><polygon class="cls-4" points="397.03 162.3 410.4 163.55 410.17 159.49 429.12 161.38 428.2 150.97 423.38 150.6 424.14 140.93 430.36 141.48 442.06 131.75 446.66 132.13 446.12 127.88 449.77 127.73 449.7 123.34 451.08 120.93 446.43 117.89 453.98 105.8 424.14 87.13 423.41 85.37 418.67 89.92 414.33 92.6 410.2 93 412.97 98 405.31 104.23 399.65 105.83 384.4 117.16 384.81 121.28 392.81 132.23 396.85 126.33 390.75 127.6 393.47 121.92 401.36 121.31 399.28 133.05 408.28 128.22 401.56 134.89 402.44 139.47 389.6 143.81 394.6 149.01 397.03 162.3"/><polygon class="cls-4" points="505.66 247.21 507.41 233.25 505.91 228.16 505.29 221.22 508.21 220.29 507.77 218.14 510.79 215.03 509.49 203.4 497.75 197.81 504.73 182.51 498.78 121.36 482.99 123.43 474.87 118.54 481.95 198.76 476.54 201.41 475.61 206.55 482.51 209.51 475.63 221.06 471.16 227.64 472.49 245.4 471.69 245.48 471.81 247.9 477.17 247.56 480.1 242.54 494.8 251.15 495.89 250.32 496.92 243.59 505.66 247.21"/><polygon class="cls-4" points="498.78 121.36 504.73 182.51 497.75 197.81 522.96 209.43 538.72 208.02 539.02 210.82 546.7 210.12 546.45 207.34 552.82 206.73 547.18 157.22 559.11 155.56 559.86 150.13 555.71 149.22 551.8 146.64 547.25 148.61 537.93 136.6 544.05 131.91 542.09 116.04 498.78 121.36"/><polygon class="cls-4" points="529.24 318.47 540.15 324.07 557.76 325.88 560.21 318.34 563.24 317.67 570.18 322.74 571.53 318.73 574.37 316.2 574.94 312.22 579.35 308.4 580.02 304.79 578.99 297.41 580.39 291.79 579.79 288.27 544.18 294.02 544.9 297.19 542.49 298.61 537.23 299.39 534.74 297.53 529.86 299.47 531.01 300.07 522.76 315.18 529.24 318.47"/><polygon class="cls-4" points="556.04 234.84 552.82 206.73 546.45 207.34 546.7 210.12 539.02 210.82 538.72 208.02 522.96 209.43 509.49 203.4 510.79 215.03 507.77 218.14 508.21 220.29 505.29 221.22 505.91 228.16 522.39 234.57 556.04 234.84"/><polygon class="cls-4" points="508.8 22.8 508.91 27.66 514.84 27.7 523.64 110.77 522.21 110.89 522.92 118.28 556.34 114.25 552.72 85.74 570.25 83.37 568.5 67.82 567.51 67.96 565.99 53.69 564.45 53.83 562.91 40.06 562.75 33.22 561.35 23.09 552.05 23.55 538.05 23.5 513.19 22.68 512.82 22.16 508.8 22.8"/><polygon class="cls-4" points="559.11 155.56 610.39 148.85 609.64 146.47 610.77 141.95 608.15 135.63 608.04 125.95 605.96 123.99 609.54 108.6 611.6 106.85 615.39 100.89 613.85 89.45 616.87 82.47 615.89 75.88 613.47 70.95 604 71.91 604.34 73.71 601.52 77.39 597.08 77.79 596.39 79.19 588.04 82.25 586.07 81.68 552.72 85.74 556.34 114.25 542.09 116.04 544.05 131.91 537.93 136.6 547.25 148.61 551.8 146.64 555.71 149.22 559.86 150.13 559.11 155.56"/><polygon class="cls-4" points="460.53 335.78 464.26 340.91 465.52 340.34 468.23 349.74 472.31 348.95 476.66 350.88 529.24 318.47 522.76 315.18 531.01 300.07 516.58 292.36 509.57 282.77 505.04 284.15 499.54 283.31 492.55 287.54 490.46 287.08 488.94 290.38 486.38 289.3 486.24 291.88 480.68 292.75 472.82 299.13 468.13 298.26 464.62 302.8 456.31 303.64 455.82 331.44 457.31 334.63 460.53 335.78"/><polygon class="cls-4" points="391.28 256.69 392.9 294.08 410.41 293.93 422.36 293.25 419.93 254.66 391.28 256.69"/><polygon class="cls-4" points="601.49 330.66 600.65 326.93 612.42 283.57 579.79 288.27 580.39 291.79 578.99 297.41 580.02 304.79 579.35 308.4 574.94 312.22 574.37 316.2 571.53 318.73 568.75 327.69 570.4 327.61 585.3 335.16 599.21 337.96 599.64 330.63 601.49 330.66"/><polygon class="cls-4" points="561.35 23.09 562.75 33.22 562.91 40.06 564.45 53.83 565.99 53.69 567.51 67.96 568.5 67.82 570.25 83.37 586.07 81.68 588.04 82.25 596.39 79.19 597.08 77.79 601.52 77.39 604.34 73.71 604 71.91 613.47 70.95 611.74 69.16 609.6 63.47 611.12 58.54 611.57 49.83 613.75 43.56 610.38 39.95 612.14 32.84 613.47 31.25 613.13 21.48 561.35 23.09"/><polygon class="cls-4" points="422.36 293.25 423.89 309.22 425.73 310.31 439.44 310.34 439.53 315.77 456.08 315.83 456.31 303.64 457.9 299.62 456.97 296.99 459.36 293.8 457.14 286.66 459.9 279.25 462.7 277.68 463.28 272.04 462.71 267.96 465.31 262.07 465.37 259.5 455.35 260.11 455.3 259.36 420.4 261.59 422.36 293.25"/><polygon class="cls-4" points="341.9 335.55 369.83 335.7 371.09 330.45 369.5 319.82 371.46 319.88 371.33 306.96 365.2 306.85 365.18 310.34 363.46 311.88 356.62 310.4 356.53 305.74 339.05 306.39 338.98 335.59 341.9 335.55"/><polygon class="cls-4" points="358.05 230.58 356.31 236.14 356.25 243.19 357.62 251.11 356.06 254.83 356.56 261.17 360.2 267.1 361.63 271.91 377.34 271.51 377.37 272.42 391.97 271.9 391.28 256.69 388.92 252.36 385.05 248.64 377.96 249.01 377.03 232.42 374.84 232.55 374.28 222.95 376.23 222.3 375.66 206.46 366.28 206.78 365.37 189.65 357.82 200.3 357.39 197.41 358.92 224.77 358.05 230.58"/><polygon class="cls-4" points="402.21 293.8 403.56 303.19 405.93 312.2 405.47 316.67 403.27 316.79 404.06 335.83 460.53 335.78 457.31 334.63 455.82 331.44 456.08 315.83 439.53 315.77 439.44 310.34 425.73 310.31 423.89 309.22 422.36 293.25 410.41 293.93 402.21 293.8"/><polygon class="cls-4" points="579.79 288.27 579.72 285.64 581.71 281.09 581.48 273.26 582.6 269.58 585.93 264.04 587.88 255.46 586.78 256.23 584.11 251.4 580.86 255.15 577.85 255.91 577.83 256.31 549.78 260.95 550.96 262.27 550.55 267.51 545.14 279.38 546.13 285.18 543.37 292.82 544.18 294.02 579.79 288.27"/></g><g id="Buffalo" class="cls-3"><polygon class="cls-5" points="308.65 276.75 325.51 276.7 325.07 284.59 328.25 284 328.27 286.26 337.19 286.15 337.28 288.36 344.73 288.39 344.29 280.34 344.31 268.54 341.28 262.43 340.35 257.41 312.7 257.72 310.84 260.67 308.61 267.34 308.65 276.75"/><polygon class="cls-5" points="225.57 246.77 223.91 246.75 223.77 255.72 225.66 255.74 225.55 282.63 257.78 282.44 256.14 281.25 258.5 273.98 260.98 272.67 264.02 267.34 264.12 247.28 255.09 247.16 255.1 246.48 225.57 246.77"/><polygon class="cls-5" points="308.28 229.48 326.23 228.94 326.29 231.78 339.13 231.71 358.05 230.58 358.92 224.77 357.39 197.41 340.73 204.65 325.29 202.99 308.03 204.43 308.28 229.48"/><polygon class="cls-5" points="338.48 257.42 340.35 257.41 341.28 262.43 344.31 268.54 344.29 280.34 367.72 279.48 365.28 277.76 361.63 271.91 360.2 267.1 356.56 261.17 356.06 254.83 357.62 251.11 356.25 243.19 356.31 236.14 358.05 230.58 339.13 231.71 339.16 246.24 338.01 246.6 338.48 257.42"/><polygon class="cls-5" points="225.48 219.75 260.92 219.29 261.04 195.18 252.93 194.1 225.48 194.52 225.87 210.66 225.48 219.75"/><polygon class="cls-5" points="299.31 276.66 308.65 276.75 308.61 267.34 310.84 260.67 312.7 257.72 338.48 257.42 338.01 246.6 339.16 246.24 339.13 231.71 326.29 231.78 326.23 228.94 299.65 229.49 299.87 238.95 292.46 238.86 293.97 241.15 294.97 247.05 291.89 248.16 291.88 257.55 290.1 257.53 291.07 266.92 299.54 267.1 299.31 276.66"/><polygon class="cls-5" points="180.21 206.16 181.77 218.65 179.71 220.55 179.23 224.75 184.47 226.27 188.82 226.04 192.88 228.5 193.35 230.79 197.19 231.05 197.8 227.86 200.02 226.26 204.34 225.84 205.19 224.35 211.81 224.65 212.12 223.04 216.36 225.49 217.12 223.87 225.56 223.9 225.87 210.66 225.48 194.52 212.36 196.01 180.21 206.16"/><polygon class="cls-5" points="267.54 234.33 281.07 234.27 280.97 238.73 278.94 239.22 299.87 238.95 299.65 229.49 308.28 229.48 308.03 204.43 292.69 207.86 279.24 198.13 261.04 195.18 260.92 219.29 267.83 219.23 264.42 228.98 267.97 229.23 267.54 234.33"/><polygon class="cls-5" points="281.67 287.56 281.86 281 286.34 281 286.45 276.35 299.31 276.66 299.54 267.1 291.07 266.92 290.1 257.53 291.88 257.55 291.89 248.16 294.97 247.05 293.97 241.15 292.46 238.86 278.94 239.22 280.97 238.73 281.07 234.27 267.54 234.33 267.42 238.75 265.69 238.7 265.62 242.86 264.08 242.8 264.02 267.34 260.98 272.67 258.5 273.98 256.14 281.25 257.78 282.44 272.77 282.77 272.8 287.21 281.67 287.56"/><polygon class="cls-5" points="225.48 219.75 225.57 246.77 255.1 246.48 255.09 247.16 264.12 247.28 264.08 242.8 265.62 242.86 265.69 238.7 267.42 238.75 267.97 229.23 264.42 228.98 267.83 219.23 225.48 219.75"/><polygon class="cls-5" points="180.43 280.72 185.63 281.55 188.29 287.43 192.9 290.69 201.71 289.21 204.91 286.6 208.31 287.46 216.55 283.15 218.12 283.63 225.6 280.87 225.66 255.74 223.77 255.72 223.91 246.75 225.57 246.77 225.56 223.9 217.12 223.87 216.36 225.49 212.12 223.04 211.81 224.65 205.19 224.35 204.34 225.84 200.02 226.26 197.8 227.86 197.19 231.05 193.35 230.79 192.88 228.5 188.82 226.04 184.47 226.27 183.38 231.59 184.13 234.59 191.12 238.53 196.06 255.4 191.21 260.27 181.46 264.94 174.8 277.55 176.88 277.41 180.43 280.72"/><polygon class="cls-5" points="127.38 308.22 127.42 335.84 180.4 335.79 180.43 280.72 176.88 277.41 174.8 277.55 166.5 281.19 154.19 289.5 150.71 293.71 127.38 308.22"/><polygon class="cls-5" points="180.4 335.79 237.39 335.78 237.34 282.44 225.55 282.63 225.6 280.87 218.12 283.63 216.55 283.15 208.31 287.46 204.91 286.6 201.71 289.21 192.9 290.69 188.29 287.43 185.63 281.55 180.43 280.72 180.4 335.79"/><polygon class="cls-5" points="237.39 335.78 279.64 335.84 281.07 294.46 281.67 287.56 272.8 287.21 272.77 282.77 237.34 282.44 237.39 335.78"/></g><g id="Buffalo_Outline" data-name="Buffalo Outline"><polygon class="cls-6" points="581.08 474.72 580.77 475.17 581.12 475.17 581.08 474.72"/><polygon class="cls-6" points="575.98 475.33 577.1 475.69 576.71 476.94 576.07 476.99 576.2 477.29 576.95 477.28 577.43 475.9 577.28 474.37 576.82 473.09 576.13 472.89 575.98 475.33"/><polygon class="cls-6" points="576.24 475.91 576.09 475.79 576.18 476.21 576.24 475.91"/><polygon class="cls-6" points="575.62 477.07 575.26 477.53 576.08 477.81 575.62 477.07"/><polygon class="cls-6" points="570.33 449.62 570.13 448.86 569.84 449.24 570.33 449.62"/><polygon class="cls-6" points="569.79 457.04 569.04 456.61 568.34 458.49 569.16 458.54 569.83 457.6 569.79 457.04"/><polygon class="cls-6" points="567.63 460.15 567.8 459.59 566.37 461.71 567.63 460.15"/><polygon class="cls-6" points="562.15 467.45 561.42 468.16 561.64 468.38 562.49 467.86 562.15 467.45"/><polygon class="cls-6" points="576.01 474.49 575.84 474.79 575.98 475.33 576.01 474.49"/><polygon class="cls-6" points="575.28 475.4 574.85 476.1 575.08 476.43 575.7 475.73 575.28 475.4"/><polygon class="cls-6" points="572.96 475.18 573.61 474.66 573.52 473.93 572.59 474.68 572.59 475.16 572.96 475.18"/><polygon class="cls-6" points="569.56 476.8 569.34 477.01 569.85 477.61 569.56 476.8"/><polygon class="cls-6" points="580.96 451.37 580.65 450.81 580.85 452 580.96 451.37"/><polygon class="cls-6" points="579.39 450.96 579.21 452.12 579.75 453.11 579.96 452.06 579.39 450.96"/><polygon class="cls-6" points="571.95 456.97 571.54 457.45 571.82 458.05 573.02 458.19 573.15 457.77 571.95 456.97"/><polygon class="cls-6" points="308.65 276.75 325.51 276.7 325.07 284.59 328.25 284 328.28 286.26 337.19 286.15 337.28 288.36 344.73 288.39 344.29 280.34 344.31 268.54 341.28 262.43 340.35 257.41 312.7 257.72 310.84 260.67 308.61 267.34 308.65 276.75"/><polygon class="cls-6" points="225.57 246.77 223.91 246.75 223.77 255.72 225.66 255.74 225.55 282.63 257.78 282.44 256.14 281.25 258.5 273.98 260.98 272.67 264.02 267.34 264.12 247.28 255.1 247.16 255.1 246.48 225.57 246.77"/><polygon class="cls-6" points="308.28 229.48 326.23 228.94 326.29 231.78 339.13 231.71 358.05 230.58 358.92 224.77 357.39 197.41 340.73 204.65 325.3 202.99 308.03 204.43 308.28 229.48"/><polygon class="cls-6" points="338.48 257.42 340.35 257.41 341.28 262.43 344.31 268.54 344.29 280.34 367.72 279.48 365.28 277.76 361.63 271.91 360.2 267.1 356.56 261.17 356.06 254.83 357.62 251.11 356.25 243.19 356.31 236.14 358.05 230.58 339.13 231.71 339.16 246.24 338.02 246.6 338.48 257.42"/><polygon class="cls-6" points="225.48 219.75 260.92 219.29 261.04 195.18 252.93 194.1 225.48 194.52 225.87 210.66 225.48 219.75"/><polygon class="cls-6" points="299.31 276.66 308.65 276.75 308.61 267.34 310.84 260.67 312.7 257.72 338.48 257.42 338.02 246.6 339.16 246.24 339.13 231.71 326.29 231.78 326.23 228.94 299.65 229.49 299.88 238.95 292.47 238.86 293.97 241.15 294.97 247.05 291.89 248.16 291.88 257.55 290.11 257.53 291.07 266.92 299.54 267.1 299.31 276.66"/><polygon class="cls-6" points="180.21 206.16 181.77 218.65 179.71 220.55 179.23 224.75 184.47 226.27 188.82 226.04 192.88 228.5 193.35 230.79 197.2 231.05 197.8 227.87 200.02 226.26 204.34 225.84 205.19 224.35 211.82 224.65 212.12 223.04 216.37 225.49 217.12 223.87 225.56 223.9 225.87 210.66 225.48 194.52 212.36 196.01 180.21 206.16"/><polygon class="cls-6" points="267.54 234.33 281.07 234.27 280.97 238.73 278.94 239.23 299.88 238.95 299.65 229.49 308.28 229.48 308.03 204.43 292.69 207.85 279.24 198.13 261.04 195.18 260.92 219.29 267.83 219.23 264.42 228.98 267.97 229.23 267.54 234.33"/><polygon class="cls-6" points="281.67 287.56 281.86 281 286.34 281 286.45 276.35 299.31 276.66 299.54 267.1 291.07 266.92 290.11 257.53 291.88 257.55 291.89 248.16 294.97 247.05 293.97 241.15 292.47 238.86 278.94 239.23 280.97 238.73 281.07 234.27 267.54 234.33 267.42 238.75 265.69 238.7 265.62 242.86 264.08 242.8 264.02 267.34 260.98 272.67 258.5 273.98 256.14 281.25 257.78 282.44 272.77 282.77 272.8 287.21 281.67 287.56"/><polygon class="cls-6" points="225.48 219.75 225.57 246.77 255.1 246.48 255.1 247.16 264.12 247.28 264.08 242.8 265.62 242.86 265.69 238.7 267.42 238.75 267.97 229.23 264.42 228.98 267.83 219.23 225.48 219.75"/><polygon class="cls-6" points="180.43 280.72 185.63 281.55 188.29 287.43 192.91 290.69 201.71 289.21 204.91 286.6 208.31 287.46 216.55 283.15 218.12 283.63 225.6 280.87 225.66 255.74 223.77 255.72 223.91 246.75 225.57 246.77 225.56 223.9 217.12 223.87 216.37 225.49 212.12 223.04 211.82 224.65 205.19 224.35 204.34 225.84 200.02 226.26 197.8 227.87 197.2 231.05 193.35 230.79 192.88 228.5 188.82 226.04 184.47 226.27 183.38 231.59 184.13 234.59 191.12 238.53 196.06 255.4 191.21 260.27 181.46 264.94 174.8 277.55 176.88 277.41 180.43 280.72"/><polygon class="cls-6" points="127.38 308.22 127.42 335.84 180.4 335.79 180.43 280.72 176.88 277.41 174.8 277.55 166.5 281.19 154.2 289.5 150.71 293.71 127.38 308.22"/><polygon class="cls-6" points="180.4 335.79 237.4 335.78 237.34 282.44 225.55 282.63 225.6 280.87 218.12 283.63 216.55 283.15 208.31 287.46 204.91 286.6 201.71 289.21 192.91 290.69 188.29 287.43 185.63 281.55 180.43 280.72 180.4 335.79"/><polygon class="cls-6" points="237.4 335.78 279.64 335.84 281.07 294.46 281.67 287.56 272.8 287.21 272.77 282.77 237.34 282.44 237.4 335.78"/></g><g id="Upstate_Outline" data-name="Upstate Outline"><polygon class="cls-7" points="591.01 239.14 604.93 238.81 606.35 237.38 610.37 238.88 618.34 238.89 620.42 178.43 619.53 174.34 616.6 172.8 616.2 167.99 610.95 168.12 608.97 174.01 606.66 172.35 606.72 167.08 608.43 161.44 612.51 152.91 610.39 148.85 605.94 149.36 603.41 152.68 604.02 157.16 601.7 165.04 598.3 168.03 595.14 173.44 593.27 174.07 591.25 179.86 594.08 201.32 593.91 207.73 595.27 211.34 594.39 218.62 595.71 222.66 593.91 232.28 591.31 236.21 591.01 239.14"/><polygon class="cls-7" points="594.08 201.32 591.25 179.86 593.27 174.07 595.14 173.44 598.3 168.03 601.7 165.04 604.02 157.16 603.41 152.68 605.94 149.36 547.18 157.22 551.3 194.51 572.2 191.75 574.09 198.8 576.6 201.4 575.85 206.75 578.31 207.12 580.9 210.03 583.1 205.62 590.45 201.52 594.08 201.32"/><polygon class="cls-7" points="359.34 279.81 360.18 297.41 359.74 306.69 376.2 307.03 376.16 308.8 380.57 308.88 380.64 303.21 385.51 303.22 393.14 305.43 393.75 298.61 389.42 296.38 389.89 294.18 392.9 294.08 391.97 271.9 377.37 272.42 377.34 271.51 361.63 271.91 365.28 277.76 367.72 279.48 359.34 279.81"/><polygon class="cls-7" points="369.83 335.7 404.06 335.83 403.27 316.79 405.47 316.67 405.93 312.2 403.56 303.19 402.21 293.8 389.89 294.18 389.42 296.38 393.75 298.61 393.14 305.43 385.51 303.22 380.64 303.21 380.57 308.88 376.16 308.8 376.2 307.03 371.33 306.96 371.46 319.88 369.5 319.82 371.09 330.45 369.83 335.7"/><polygon class="cls-7" points="279.64 335.84 338.99 335.59 339.04 307.3 328.84 307.92 328.25 284 325.07 284.59 325.51 276.7 286.45 276.35 286.34 281 281.86 281 279.64 335.84"/><polygon class="cls-7" points="423.41 85.37 424.14 87.13 482.99 123.44 522.93 118.28 522.22 110.89 523.64 110.77 514.84 27.7 508.91 27.66 508.8 22.8 505.88 23.17 500.87 20.93 496.26 22.62 494.71 24.4 489.82 24.4 482.85 30.18 477.55 31.72 475.26 34.02 466.2 38.84 459.75 45.82 449.53 54.08 440.95 63.21 429.71 74.29 426.63 78.92 425.58 83.13 423.41 85.37"/><polygon class="cls-6" points="509.57 282.77 516.58 292.36 529.86 299.47 534.74 297.53 537.23 299.39 542.49 298.61 544.9 297.19 544.18 294.02 543.37 292.82 546.13 285.18 545.14 279.38 550.55 267.51 550.96 262.27 549.78 260.95 549.48 262.75 542.81 262.57 540.32 259.17 543.84 258.16 543.5 254.09 541.52 255.4 529 256.52 520.9 252.41 514.36 250.68 512.91 258.82 515.7 271.58 509.57 282.77"/><polygon class="cls-7" points="543.5 254.09 543.84 258.16 540.32 259.17 542.81 262.57 549.48 262.75 549.78 260.95 577.83 256.31 577.85 255.91 576.88 255.76 571.3 248.46 570.66 242.25 566.8 243.69 562.99 239.95 556.41 237.64 557.07 243.68 544.02 252.47 543.5 254.09"/><polygon class="cls-7" points="551.3 194.51 556.41 237.64 562.99 239.95 566.8 243.69 570.66 242.25 571.3 248.46 576.88 255.76 577.85 255.91 580.87 255.15 584.11 251.4 586.78 256.23 587.88 255.46 589.17 251.77 587.31 244.2 591.01 239.14 591.31 236.21 593.91 232.28 595.71 222.66 594.39 218.62 595.27 211.34 593.91 207.73 594.08 201.32 590.45 201.52 583.1 205.62 580.9 210.03 578.31 207.12 575.85 206.75 576.6 201.4 574.09 198.8 572.2 191.75 551.3 194.51"/><polygon class="cls-7" points="579.79 288.27 612.42 283.57 619.04 259.31 617.08 253.54 618.01 250.29 618.34 238.89 610.37 238.88 606.35 237.38 604.93 238.81 591.01 239.14 587.31 244.2 589.17 251.77 587.88 255.46 585.93 264.04 582.6 269.58 581.49 273.26 581.71 281.09 579.72 285.64 579.79 288.27"/><polygon class="cls-7" points="456.31 303.64 464.62 302.8 468.13 298.26 472.82 299.13 480.68 292.75 486.25 291.88 486.38 289.3 488.94 290.38 490.46 287.08 492.55 287.54 499.54 283.31 505.04 284.15 509.57 282.77 515.7 271.58 512.91 258.82 514.36 250.68 496.92 243.59 495.89 250.32 494.8 251.15 480.1 242.54 477.17 247.56 471.81 247.9 471.69 245.48 468.98 246.35 469.58 250.24 468.68 255.38 465.37 259.5 465.31 262.07 462.71 267.96 463.28 272.04 462.7 277.68 459.9 279.25 457.14 286.66 459.37 293.8 456.97 296.99 457.9 299.62 456.31 303.64"/><polygon class="cls-7" points="365.37 189.65 366.28 206.78 375.66 206.46 375.8 209.49 388.69 209.13 390.8 212.23 392.47 208.45 395.08 211.82 396.74 210.03 396.11 205.23 399.28 207.49 412.57 214.07 417.14 214.76 420.83 216.95 422.44 199.96 420.64 199.35 426.1 182.83 430.52 184.21 429.12 161.38 410.17 159.49 410.4 163.55 398.21 162.39 394.61 177.84 380.56 178.87 365.37 189.65"/><polygon class="cls-7" points="375.8 209.49 376.23 222.3 374.28 222.96 374.84 232.55 377.03 232.42 377.96 249.01 385.05 248.64 388.92 252.36 391.28 256.69 419.93 254.66 418.33 224.18 414.97 224.19 413.84 222.4 415.8 219.43 412.57 214.07 399.28 207.49 396.11 205.23 396.74 210.03 395.08 211.82 392.47 208.45 390.8 212.23 388.69 209.13 375.8 209.49"/><polygon class="cls-7" points="420.83 216.95 427.63 216.47 428.96 215.08 434.26 217.43 434.19 218.68 438.96 222.21 439.2 224.66 442.35 226.86 442.56 229.41 445.91 229.18 446.56 240.13 454.13 239.99 454.67 247.2 468.98 246.35 472.49 245.4 471.16 227.64 475.63 221.06 482.51 209.51 475.61 206.55 476.54 201.41 481.95 198.76 479.4 169.09 447.37 189.48 426.1 182.83 420.64 199.35 422.44 199.96 420.83 216.95"/><polygon class="cls-7" points="514.36 250.68 520.9 252.41 529 256.52 541.52 255.4 543.5 254.09 544.02 252.47 557.07 243.68 556.04 234.84 522.39 234.57 505.91 228.17 507.41 233.25 505.66 247.21 514.36 250.68"/><polygon class="cls-7" points="419.93 254.66 420.41 261.59 455.3 259.36 455.35 260.12 465.37 259.5 468.68 255.38 469.58 250.24 468.98 246.35 454.67 247.2 454.13 239.99 446.56 240.13 445.91 229.18 442.56 229.41 442.35 226.86 439.2 224.66 438.96 222.21 434.19 218.68 434.26 217.43 428.96 215.08 427.63 216.47 420.83 216.95 417.14 214.76 412.57 214.07 415.8 219.43 413.84 222.4 414.97 224.19 418.33 224.18 419.93 254.66"/><polygon class="cls-7" points="430.52 184.21 447.37 189.48 479.4 169.09 474.87 118.54 453.98 105.8 446.43 117.89 451.08 120.93 449.7 123.34 449.77 127.73 446.12 127.88 446.66 132.13 442.06 131.75 430.37 141.48 424.14 140.93 423.38 150.6 428.2 150.97 430.52 184.21"/><polygon class="cls-7" points="397.03 162.3 410.4 163.55 410.17 159.49 429.12 161.38 428.2 150.97 423.38 150.6 424.14 140.93 430.37 141.48 442.06 131.75 446.66 132.13 446.12 127.88 449.77 127.73 449.7 123.34 451.08 120.93 446.43 117.89 453.98 105.8 424.14 87.13 423.41 85.37 418.67 89.92 414.33 92.6 410.2 93 412.97 98 405.31 104.23 399.65 105.83 384.41 117.16 384.81 121.28 392.81 132.23 396.85 126.33 390.75 127.6 393.47 121.92 401.36 121.31 399.28 133.05 408.28 128.22 401.56 134.89 402.44 139.47 389.61 143.81 394.6 149.01 397.03 162.3"/><polygon class="cls-7" points="505.66 247.21 507.41 233.25 505.91 228.17 505.29 221.22 508.21 220.29 507.77 218.14 510.79 215.03 509.49 203.4 497.76 197.81 504.73 182.51 498.79 121.36 482.99 123.44 474.87 118.54 481.95 198.76 476.54 201.41 475.61 206.55 482.51 209.51 475.63 221.06 471.16 227.64 472.49 245.4 471.69 245.48 471.81 247.9 477.17 247.56 480.1 242.54 494.8 251.15 495.89 250.32 496.92 243.59 505.66 247.21"/><polygon class="cls-7" points="498.79 121.36 504.73 182.51 497.76 197.81 522.96 209.43 538.72 208.02 539.02 210.82 546.7 210.12 546.45 207.34 552.82 206.73 547.18 157.22 559.11 155.56 559.86 150.13 555.71 149.22 551.8 146.64 547.25 148.61 537.93 136.6 544.05 131.92 542.1 116.04 498.79 121.36"/><polygon class="cls-7" points="529.24 318.47 540.15 324.07 557.76 325.88 560.21 318.34 563.24 317.67 570.18 322.74 571.53 318.73 574.37 316.2 574.94 312.22 579.35 308.4 580.02 304.79 578.99 297.41 580.39 291.79 579.79 288.27 544.18 294.02 544.9 297.19 542.49 298.61 537.23 299.39 534.74 297.53 529.86 299.47 531.02 300.07 522.76 315.18 529.24 318.47"/><polygon class="cls-7" points="556.04 234.84 552.82 206.73 546.45 207.34 546.7 210.12 539.02 210.82 538.72 208.02 522.96 209.43 509.49 203.4 510.79 215.03 507.77 218.14 508.21 220.29 505.29 221.22 505.91 228.17 522.39 234.57 556.04 234.84"/><polygon class="cls-7" points="508.8 22.8 508.91 27.66 514.84 27.7 523.64 110.77 522.22 110.89 522.93 118.28 556.35 114.25 552.72 85.74 570.25 83.37 568.5 67.82 567.51 67.96 565.99 53.69 564.45 53.83 562.91 40.06 562.75 33.22 561.35 23.09 552.05 23.55 538.05 23.5 513.19 22.68 512.82 22.16 508.8 22.8"/><polygon class="cls-7" points="559.11 155.56 610.39 148.85 609.64 146.47 610.77 141.95 608.15 135.63 608.04 125.95 605.96 123.99 609.54 108.6 611.6 106.85 615.39 100.89 613.85 89.45 616.87 82.47 615.89 75.88 613.47 70.95 604 71.91 604.34 73.7 601.52 77.39 597.08 77.79 596.39 79.19 588.04 82.25 586.07 81.68 552.72 85.74 556.35 114.25 542.1 116.04 544.05 131.92 537.93 136.6 547.25 148.61 551.8 146.64 555.71 149.22 559.86 150.13 559.11 155.56"/><polygon class="cls-7" points="460.53 335.78 464.26 340.91 465.52 340.34 468.23 349.74 472.31 348.95 476.66 350.89 529.24 318.47 522.76 315.18 531.02 300.07 516.58 292.36 509.57 282.77 505.04 284.15 499.54 283.31 492.55 287.54 490.46 287.08 488.94 290.38 486.38 289.3 486.25 291.88 480.68 292.75 472.82 299.13 468.13 298.26 464.62 302.8 456.31 303.64 455.82 331.44 457.31 334.63 460.53 335.78"/><polygon class="cls-7" points="391.28 256.69 392.9 294.08 410.41 293.94 422.36 293.25 419.93 254.66 391.28 256.69"/><polygon class="cls-7" points="601.49 330.66 600.65 326.93 612.42 283.57 579.79 288.27 580.39 291.79 578.99 297.41 580.02 304.79 579.35 308.4 574.94 312.22 574.37 316.2 571.53 318.73 568.75 327.69 570.4 327.61 585.3 335.16 599.21 337.96 599.64 330.63 601.49 330.66"/><polygon class="cls-7" points="561.35 23.09 562.75 33.22 562.91 40.06 564.45 53.83 565.99 53.69 567.51 67.96 568.5 67.82 570.25 83.37 586.07 81.68 588.04 82.25 596.39 79.19 597.08 77.79 601.52 77.39 604.34 73.7 604 71.91 613.47 70.95 611.74 69.16 609.6 63.46 611.12 58.54 611.57 49.83 613.75 43.56 610.38 39.95 612.14 32.84 613.47 31.25 613.13 21.48 561.35 23.09"/><polygon class="cls-7" points="422.36 293.25 423.89 309.22 425.73 310.31 439.44 310.34 439.53 315.77 456.08 315.83 456.31 303.64 457.9 299.62 456.97 296.99 459.37 293.8 457.14 286.66 459.9 279.25 462.7 277.68 463.28 272.04 462.71 267.96 465.31 262.07 465.37 259.5 455.35 260.12 455.3 259.36 420.41 261.59 422.36 293.25"/><polygon class="cls-7" points="341.91 335.55 369.83 335.7 371.09 330.45 369.5 319.82 371.46 319.88 371.33 306.96 365.2 306.85 365.18 310.34 363.47 311.88 356.62 310.4 356.53 305.74 339.05 306.38 338.99 335.59 341.91 335.55"/><polygon class="cls-7" points="358.05 230.58 356.31 236.14 356.25 243.19 357.62 251.11 356.06 254.83 356.56 261.17 360.2 267.1 361.63 271.91 377.34 271.51 377.37 272.42 391.97 271.9 391.28 256.69 388.92 252.36 385.05 248.64 377.96 249.01 377.03 232.42 374.84 232.55 374.28 222.96 376.23 222.3 375.66 206.46 366.28 206.78 365.37 189.65 357.82 200.3 357.39 197.41 358.92 224.77 358.05 230.58"/><polygon class="cls-7" points="402.21 293.8 403.56 303.19 405.93 312.2 405.47 316.67 403.27 316.79 404.06 335.83 460.53 335.78 457.31 334.63 455.82 331.44 456.08 315.83 439.53 315.77 439.44 310.34 425.73 310.31 423.89 309.22 422.36 293.25 410.41 293.94 402.21 293.8"/><polygon class="cls-7" points="579.79 288.27 579.72 285.64 581.71 281.09 581.49 273.26 582.6 269.58 585.93 264.04 587.88 255.46 586.78 256.23 584.11 251.4 580.87 255.15 577.85 255.91 577.83 256.31 549.78 260.95 550.96 262.27 550.55 267.51 545.14 279.38 546.13 285.18 543.37 292.82 544.18 294.02 579.79 288.27"/><polygon class="cls-7" points="339.04 307.3 339.05 306.38 356.53 305.74 356.62 310.4 363.47 311.88 365.18 310.34 365.2 306.85 359.74 306.69 360.18 297.41 359.34 279.81 344.29 280.34 344.73 288.39 337.28 288.36 337.19 286.15 328.28 286.26 328.84 307.92 339.04 307.3"/></g><g id="Metro_NY_outline" data-name="Metro NY outline"><polygon class="cls-6" points="564.74 404.43 566.18 411.81 572.84 417.89 573.55 429.57 570.19 445.25 579.09 448.45 587.15 442.24 589.25 437.43 589.57 435.63 584.02 426.66 602.57 415.39 597.4 407.08 597.88 399.92 564.74 404.43"/><polygon class="cls-6" points="476.66 350.89 482.01 356.09 480 357.43 483.72 360.95 484.4 374.5 482.47 376.12 488.68 385.56 489.14 388.47 492.15 388.11 496 390.86 495.6 392.48 501.96 392.19 503.61 394.35 506.31 394.01 506.48 387.08 527.44 386 531.77 379.43 535.62 377.24 533.52 371.78 519.9 361.62 529.09 348.38 504.34 334.05 476.66 350.89"/><polygon class="cls-6" points="604 450.91 604.9 454.82 606.94 470.58 617.34 468.3 622.04 464.9 626.4 466.93 637.8 461.77 649.02 462.84 666.59 457.29 682.12 451.09 717.52 434.25 725.67 429.63 719.54 428.9 707.58 436.44 702.29 433 696.76 431.87 690.51 425.73 691.95 422.49 667.07 438.46 656.19 440.25 630.59 439.76 622.51 446 609.49 442.88 596.31 445.25 604 450.91"/><polygon class="cls-6" points="545.67 422.42 570.8 437.04 570.48 422.5 566.49 417.31 564.3 404.6 545.67 422.42"/><polygon class="cls-6" points="556.97 471.88 551.75 473.06 549.41 472.35 548.51 473.19 548.12 473.67 548 476.16 548.53 476.66 547.44 480.7 546.79 481.29 545.96 481.21 545.3 481.92 544.67 486.61 545.27 486.94 546.96 486.39 547.7 485.55 548.66 485.73 549.44 484.8 551.59 483.85 553.37 482.07 553.78 482.48 553.27 483.2 552.83 483.21 553.11 483.78 557.63 479 559.41 476.77 559.35 476.17 557.97 474.3 558.02 472.48 556.97 471.88"/><polygon class="cls-6" points="574.14 471.51 574.83 472.34 576.92 471.83 579.87 473.73 578.6 475.27 579.25 476 579.98 475.43 579.7 474.77 580.12 474.02 580.73 474.41 582.79 472.98 583.16 471.96 584.23 471.42 583.83 464.56 585.54 464 586.08 462.96 586 461.54 582.28 458.51 581.97 460.18 581.67 459.96 580.52 458.2 580.77 457.94 580.33 457.15 579.11 457.91 578.96 457.3 577.04 456.72 576.35 457.14 576.13 457.92 575.73 457.85 575.64 457.11 574.58 457.34 574.07 458.2 574.81 458.55 575.18 460.51 574.64 460.86 574.05 460.54 573.81 460.1 574.2 459.46 573.05 458.73 573.16 458.19 571.8 459.44 571.32 458.27 570.25 457.7 568.76 459.2 568.41 458.98 568.14 459.28 568.36 459.77 566.38 462.47 566.28 462.96 567 462.86 568.78 464 569.36 465.88 570.66 467.21 571.25 468.53 573.34 467.26 573.56 468.59 574.2 469.61 574.34 470.39 573.77 470.94 574.14 471.51"/><polygon class="cls-6" points="581.95 475.75 580.57 475.39 580.92 475.8 580.74 476.93 580.18 475.81 579.38 476.96 578.34 476.88 576.93 478.07 574.73 478.54 572.65 479.88 569.18 480.55 568.11 481.17 567.92 482.41 577.48 478.41 583.24 477.29 582.66 475.56 581.95 475.75"/><polygon class="cls-6" points="578.65 475.77 578.26 476.33 578.93 476.19 578.65 475.77"/><polygon class="cls-6" points="578.7 474.18 578.04 474.57 578.26 475.2 578.7 474.18"/><polygon class="cls-6" points="577.74 476.91 577.73 476.41 577.41 476.55 577.74 476.91"/><polygon class="cls-6" points="510.83 400.83 545.67 422.42 564.83 404.13 567.39 397.21 564.81 392.6 563.41 390.83 563.69 384.15 566.96 377.34 559.36 378.29 553.24 374.74 553.86 378.1 544.38 375.78 543.5 373.02 531.77 379.43 527.44 386 506.48 387.08 506.31 394.01 510.83 400.83"/><polygon class="cls-6" points="568.99 449.07 567.43 451.74 567.19 453.36 562.85 461.36 561.96 466.17 562.51 466.78 563.56 465.92 565.2 465.59 565.67 462.25 568.79 457.13 568.38 455.82 568.35 453.27 570.14 449.9 570.1 449.46 569.44 449.49 568.99 449.07"/><polygon class="cls-6" points="581.08 474.72 581.12 475.17 581.95 475.75 582.66 475.56 583.25 476.6 583.24 477.29 582.4 477.39 582.02 478.33 595.52 479.11 606.94 470.58 604.9 454.82 604 450.91 596.31 445.25 583.88 450.13 582.59 458.75 586 461.54 586.08 462.96 585.54 464 583.83 464.56 584.23 471.42 582.98 472.15 582.79 472.98 581.08 474.72"/><polygon class="cls-2" points="575.28 475.4 574.85 476.1 575.08 476.43 575.7 475.73 575.28 475.4"/><polygon class="cls-2" points="572.96 475.18 573.61 474.66 573.52 473.93 572.59 474.68 572.59 475.16 572.96 475.18"/><polygon class="cls-6" points="574.75 474.09 574.27 474.82 574.9 474.52 574.75 474.09"/><polygon class="cls-6" points="574.04 476.52 573.74 476.64 574 477.1 574.63 477.01 574.04 476.52"/><polygon class="cls-6" points="567 462.86 566.27 463.41 565.75 466.27 565.4 466.67 564.87 466.19 563.85 466.34 562.69 468.45 561.98 468.78 562.04 469.34 563.46 470.33 562.1 470.83 562.32 471.01 561.34 472.28 560.63 472.61 560.31 473.76 560.68 475.81 563.02 477.01 563.47 477.63 563.41 478.43 564.15 478.28 563.94 478.8 563.1 478.58 562.45 478.94 563.27 479.61 568.6 479.17 568.51 478.63 567.41 478.39 570.01 478.56 569.99 478.14 568.75 478 569.9 477.87 569.1 476.77 569.36 476.58 570.03 477.18 570.16 478.16 571.01 477.94 571.36 479.07 572.55 478.71 572.76 478.27 572.19 476.21 571.08 476.39 571.75 475.73 571.22 474.6 572.73 472.91 573.27 472.9 573.02 472.33 573.47 472.78 574.21 472.42 573.77 470.94 574.34 470.39 573.34 467.26 571.25 468.53 570.66 467.21 569.36 465.88 568.78 464 567 462.86"/><polygon class="cls-6" points="598.98 383.69 602.22 330.67 599.64 330.63 599.21 337.96 585.3 335.16 570.4 327.61 568.75 327.69 568.46 334.12 566.28 345.79 567.99 348.94 567.08 359.04 567.9 360.69 566.96 377.34 563.69 384.15 563.41 390.83 564.81 392.6 568.43 387.62 598.98 383.69"/><polygon class="cls-6" points="569.79 457.04 571.26 456.12 573.04 456.71 573.39 456.11 573.22 455.36 574.75 456.34 575.38 454.91 575.75 456.19 576.16 456.3 576.32 455.67 577.32 455.4 579.22 456.37 578.39 455.78 578.7 455.12 578.03 454.32 577.53 454.4 577.23 451.61 577.59 450.91 576.95 449.94 577.18 449.78 577.5 450.4 578.19 450.63 578.43 451.8 579.04 450.2 579.65 449.85 579.73 448.95 579.25 448.71 578.38 450.24 579.09 448.45 570.19 445.25 569.25 448.9 569.84 449.24 570.13 448.86 570.46 449.44 568.45 453.66 568.54 455.91 569.79 457.04"/><polygon class="cls-6" points="564.74 404.43 597.88 399.92 598.98 383.69 568.43 387.62 564.81 392.6 567.39 397.21 564.74 404.43"/><polygon class="cls-6" points="504.34 334.05 529.09 348.38 519.9 361.62 533.52 371.78 535.62 377.24 543.5 373.02 544.38 375.78 553.86 378.1 553.24 374.74 559.36 378.29 566.96 377.34 567.9 360.69 567.08 359.04 567.99 348.94 566.28 345.79 568.46 334.12 568.75 327.69 570.18 322.74 563.24 317.67 560.21 318.34 557.76 325.88 540.15 324.07 529.24 318.47 504.34 334.05"/></g><g id="Layer_9" data-name="Layer 9"><path class="cls-4" d="M59.46,73.89V59.21H64.1v15c0,5.68,2.12,7.56,5.28,7.56s5.44-1.88,5.44-7.56v-15h4.44V73.89c0,8.6-3.8,12-9.88,12S59.46,82.49,59.46,73.89Z"/><path class="cls-4" d="M85.38,65.73h3.8l.32,2.08h.16a9.58,9.58,0,0,1,5.92-2.56c4.88,0,7.72,3.92,7.72,10,0,6.72-4,10.6-8.4,10.6a7.94,7.94,0,0,1-5-2.16L90,87v6.16h-4.6Zm13.16,9.56c0-3.92-1.28-6.24-4.24-6.24-1.44,0-2.8.72-4.32,2.2v9.16a6.21,6.21,0,0,0,4,1.64C96.54,82.05,98.54,79.73,98.54,75.29Z"/><path class="cls-4" d="M105.82,83.13l2.16-3a8.74,8.74,0,0,0,5.44,2.2c2.12,0,3.12-1,3.12-2.36,0-1.64-2.12-2.36-4.2-3.16-2.6-1-5.52-2.44-5.52-5.72,0-3.44,2.76-5.88,7.16-5.88a10.6,10.6,0,0,1,6.52,2.36l-2.12,2.8a7.31,7.31,0,0,0-4.32-1.68c-2,0-2.88.92-2.88,2.16,0,1.56,2,2.16,4.08,2.92,2.68,1,5.64,2.28,5.64,6,0,3.36-2.68,6.08-7.64,6.08A12.44,12.44,0,0,1,105.82,83.13Z"/><path class="cls-4" d="M124.9,78.73V69.37h-2.8V65.93l3-.2.56-5.36h3.84v5.36h5v3.64h-5v9.36c0,2.32.88,3.44,2.76,3.44a5.63,5.63,0,0,0,2-.44l.8,3.4a12.54,12.54,0,0,1-4,.72C126.58,85.85,124.9,83,124.9,78.73Z"/><path class="cls-4" d="M136.78,80.09c0-4.2,3.48-6.4,11.56-7.28-.08-2.08-.92-3.84-3.6-3.84a11.19,11.19,0,0,0-5.52,1.92l-1.68-3.08a15.36,15.36,0,0,1,8.08-2.56c4.88,0,7.32,3,7.32,8.48V85.37h-3.8l-.32-2.16h-.16a9.56,9.56,0,0,1-6.08,2.64A5.49,5.49,0,0,1,136.78,80.09Zm11.56,0v-4.4c-5.36.68-7.12,2.08-7.12,4,0,1.76,1.2,2.52,2.84,2.52S146.86,81.45,148.34,80.09Z"/><path class="cls-4" d="M158.5,78.73V69.37h-2.8V65.93l3-.2.56-5.36h3.84v5.36h5v3.64h-5v9.36c0,2.32.88,3.44,2.76,3.44a5.63,5.63,0,0,0,2-.44l.8,3.4a12.54,12.54,0,0,1-4,.72C160.18,85.85,158.5,83,158.5,78.73Z"/><path class="cls-4" d="M170.34,75.57c0-6.4,4.44-10.32,9-10.32,5.32,0,8.12,3.84,8.12,9.32a10.72,10.72,0,0,1-.2,2.24H174.82c.4,3.48,2.64,5.48,5.8,5.48a8.2,8.2,0,0,0,4.56-1.44l1.56,2.88A12.39,12.39,0,0,1,180,85.85C174.58,85.85,170.34,82.05,170.34,75.57Zm13.16-1.88c0-3-1.32-4.88-4-4.88-2.32,0-4.32,1.72-4.72,4.88Z"/><path class="cls-4" d="M200.3,59.21h4.76l8.16,14.72,2.68,5.56h.16c-.2-2.68-.6-6-.6-8.92V59.21h4.44V85.37h-4.76L207,70.65l-2.68-5.56h-.16c.2,2.76.6,5.92.6,8.84V85.37H200.3Z"/><path class="cls-4" d="M224.86,75.57c0-6.4,4.44-10.32,9-10.32,5.32,0,8.12,3.84,8.12,9.32a10.72,10.72,0,0,1-.2,2.24H229.34c.4,3.48,2.64,5.48,5.8,5.48a8.2,8.2,0,0,0,4.56-1.44l1.56,2.88a12.39,12.39,0,0,1-6.72,2.12C229.1,85.85,224.86,82.05,224.86,75.57ZM238,73.69c0-3-1.32-4.88-4-4.88-2.32,0-4.32,1.72-4.72,4.88Z"/><path class="cls-4" d="M244.46,65.73h4.64l2.36,10.2c.4,1.88.68,3.72,1,5.64h.16c.36-1.92.76-3.8,1.24-5.64l2.56-10.2h4.2l2.6,10.2c.48,1.88.88,3.72,1.32,5.64h.16c.36-1.92.68-3.76,1-5.64l2.36-10.2h4.31l-5,19.64H262l-2.28-9.16c-.44-1.84-.76-3.64-1.2-5.72h-.16c-.36,2.08-.72,3.92-1.16,5.76l-2.24,9.12h-5.28Z"/><path class="cls-4" d="M289.1,75.65l-7.84-16.44h5l2.84,6.68c.76,2,1.48,3.76,2.32,5.76h.16c.84-2,1.64-3.8,2.4-5.76l2.84-6.68h4.84l-7.88,16.44v9.72H289.1Z"/><path class="cls-4" d="M301.18,75.57c0-6.56,4.44-10.32,9.32-10.32s9.36,3.76,9.36,10.32-4.44,10.28-9.36,10.28S301.18,82.09,301.18,75.57Zm14,0c0-4-1.76-6.56-4.64-6.56s-4.6,2.6-4.6,6.56,1.72,6.52,4.6,6.52S315.14,79.49,315.14,75.57Z"/><path class="cls-4" d="M324.42,65.73h3.8l.32,3.48h.16c1.4-2.56,3.48-4,5.56-4a5,5,0,0,1,2.24.4l-.8,4a6.42,6.42,0,0,0-2-.32c-1.56,0-3.44,1.08-4.64,4v12h-4.6Z"/><path class="cls-4" d="M339.34,57.14h4.52V74.77H344l7.28-9h5l-6.72,8L357,85.37h-5l-5-8.52-3.08,3.52v5h-4.52Z"/><path class="cls-4" d="M173.61,98.47h4.2c4.8,0,7.63,2.6,7.63,7.78s-2.83,7.92-7.49,7.92h-4.34Zm4,13.45c3.16,0,5-1.81,5-5.67s-1.8-5.52-5-5.52h-1.23v11.19Z"/><path class="cls-4" d="M188.06,98.76a1.71,1.71,0,1,1,1.7,1.56A1.58,1.58,0,0,1,188.06,98.76Zm.31,3.63h2.76v11.78h-2.76Z"/><path class="cls-4" d="M193.48,112.83l1.3-1.78a5.2,5.2,0,0,0,3.26,1.32c1.27,0,1.87-.6,1.87-1.41,0-1-1.27-1.42-2.52-1.9-1.56-.58-3.31-1.47-3.31-3.43s1.66-3.53,4.3-3.53a6.38,6.38,0,0,1,3.91,1.41L201,105.19a4.4,4.4,0,0,0-2.6-1c-1.17,0-1.72.55-1.72,1.29,0,.94,1.17,1.3,2.44,1.75,1.61.6,3.39,1.37,3.39,3.58,0,2-1.61,3.65-4.59,3.65A7.5,7.5,0,0,1,193.48,112.83Z"/><path class="cls-4" d="M204.93,110.19v-5.62h-1.68v-2.06l1.82-.12.34-3.22h2.3v3.22h3v2.18h-3v5.62c0,1.39.53,2.06,1.66,2.06a3.4,3.4,0,0,0,1.22-.26l.48,2a7.69,7.69,0,0,1-2.4.43C205.94,114.46,204.93,112.73,204.93,110.19Z"/><path class="cls-4" d="M213.18,102.39h2.28l.2,2.08h.09a4,4,0,0,1,3.34-2.37,3,3,0,0,1,1.34.24l-.48,2.4a3.86,3.86,0,0,0-1.22-.19c-.94,0-2.07.64-2.79,2.42v7.2h-2.76Z"/><path class="cls-4" d="M221.82,98.76a1.71,1.71,0,1,1,1.71,1.56A1.59,1.59,0,0,1,221.82,98.76Zm.31,3.63h2.77v11.78h-2.77Z"/><path class="cls-4" d="M227.66,108.29a5.8,5.8,0,0,1,5.9-6.19,5.08,5.08,0,0,1,3.46,1.32l-1.35,1.8a2.88,2.88,0,0,0-2-.87c-1.89,0-3.21,1.56-3.21,3.94s1.29,3.91,3.14,3.91a3.93,3.93,0,0,0,2.43-1l1.12,1.83a5.87,5.87,0,0,1-3.84,1.44C230.13,114.46,227.66,112.2,227.66,108.29Z"/><path class="cls-4" d="M239.68,110.19v-5.62H238v-2.06l1.82-.12.34-3.22h2.3v3.22h3v2.18h-3v5.62c0,1.39.53,2.06,1.66,2.06a3.4,3.4,0,0,0,1.22-.26l.48,2a7.69,7.69,0,0,1-2.4.43C240.69,114.46,239.68,112.73,239.68,110.19Z"/><circle class="cls-8" cx="574.34" cy="259.36" r="9.02"/><circle class="cls-8" cx="354.27" cy="328.28" r="9.02"/><circle class="cls-9" cx="405.16" cy="224.42" r="29.28"/><circle class="cls-8" cx="405.16" cy="224.42" r="9.02"/></g><g id="Layer_10" data-name="Layer 10"><polyline class="cls-10" points="361.63 271.91 377.34 271.51 377.37 272.42 391.97 271.9 391.28 256.69 419.93 254.66 420.41 261.59 455.3 259.36 455.35 260.12 465.37 259.5 465.31 262.07 462.71 267.96 463.28 272.04 462.7 277.68 459.9 279.25 457.14 286.66 459.37 293.8 456.97 296.99 457.9 299.62 456.31 303.64 464.62 302.8 468.13 298.26 472.82 299.13 480.68 292.75 486.25 291.88 486.38 289.3 488.94 290.38 490.46 287.08 492.55 287.54 499.54 283.31 505.04 284.15 509.57 282.77 516.58 292.36 531.02 300.07 522.76 315.18 529.24 318.47"/><polyline class="cls-10" points="510.79 280.55 515.7 271.58 512.91 258.82 514.36 250.68 520.9 252.41 529 256.52 541.52 255.4 543.5 254.09 544.02 252.47 557.07 243.68 547.18 157.22 559.11 155.56 559.86 150.13 555.71 149.22 551.8 146.64 547.25 148.61 537.93 136.6 544.05 131.92 542.1 116.04 556.35 114.25 552.72 85.74 570.25 83.37 568.5 67.82 567.51 67.96 565.99 53.69 564.45 53.83 562.91 40.06 562.75 33.22 561.35 23.09"/></g></svg>