<svg xmlns="http://www.w3.org/2000/svg" xmlns:xlink="http://www.w3.org/1999/xlink" viewBox="0 0 792 612"><defs><style>.cls-1,.cls-3,.cls-6,.cls-8,.cls-9{fill:none;}.cls-1{clip-rule:evenodd;}.cls-2{fill:#e6e6e6;}.cls-3{stroke:#f0f0f0;stroke-width:2.54px;}.cls-10,.cls-3,.cls-9{stroke-miterlimit:10;}.cls-4{fill:#f0f0f0;}.cls-11,.cls-5{fill:#007dbc;}.cls-5{opacity:0.8;}.cls-6{stroke:#0675af;stroke-width:0.64px;}.cls-6,.cls-8{stroke-linejoin:bevel;}.cls-7{clip-path:url(#clip-path);}.cls-8{stroke:#e6e6e6;stroke-linecap:square;stroke-width:0.64px;}.cls-10,.cls-9{stroke:#fff;}.cls-9{stroke-width:3px;}.cls-10{fill:#fff;}</style><clipPath id="clip-path"><path class="cls-1" d="M10.07,43.58"/></clipPath></defs><g id="Layer_1" data-name="Layer 1"><rect class="cls-2" x="-32.25" y="-17.38" width="843.7" height="636.89"/></g><g id="Layer_2" data-name="Layer 2"><polygon class="cls-3" points="342.86 305.03 340.46 312.39 332.72 312.39 338.98 316.94 336.59 324.31 342.86 319.76 349.12 324.31 346.73 316.94 353 312.39 345.25 312.39 342.86 305.03"/><rect class="cls-4" x="298.39" y="326.08" width="88.83" height="24.76"/><polygon class="cls-5" points="350.8 302.26 353.91 313.44 356.38 312.99 357.27 316.97 374.12 329.36 387.04 331.82 392.77 330.74 398.4 331.14 388.38 297.09 382.65 292.31 379.54 292.96 379.3 295.5 376.35 291.83 375.1 295.29 369.88 295.5 371.19 293.63 368.66 291.48 367.55 295.63 362.51 293.04 358.45 295.81 356.77 298.9 354.98 294.57 352.71 300.48 350.8 302.26"/><polygon class="cls-6" points="350.8 302.26 353.91 313.44 356.38 312.99 357.27 316.97 374.12 329.36 387.04 331.82 392.77 330.74 398.4 331.14 388.38 297.09 382.65 292.31 379.54 292.96 379.3 295.5 376.35 291.83 375.1 295.28 369.88 295.5 371.19 293.63 368.66 291.48 367.55 295.63 362.52 293.04 358.45 295.81 356.77 298.9 354.98 294.57 352.71 300.48 350.8 302.26"/><polygon class="cls-5" points="299.81 342.33 335.38 356.92 339.29 357.71 343.25 356.57 345.18 348.39 349.24 348.45 350.3 342.08 348.03 336.3 348.78 330.42 334.78 323.5 323.29 321.84 315.2 328.26 313.03 322.57 302.48 322.14 300.7 331.33 299.81 342.33"/><polygon class="cls-6" points="299.81 342.33 335.38 356.92 339.29 357.71 343.25 356.57 345.18 348.39 349.24 348.45 350.3 342.08 348.03 336.3 348.78 330.42 334.78 323.5 323.29 321.83 315.2 328.26 313.03 322.57 302.48 322.14 300.7 331.33 299.81 342.33"/><polygon class="cls-5" points="425.73 344.3 432.24 347.98 442.81 345.17 452 347.79 460 345.22 459.62 348.19 461.93 346.51 464.26 336.28 461.82 336.02 460.06 329.3 456.19 327.9 456.35 323.98 451.19 321.87 439.93 318.87 435.72 319.72 433.81 322.62 431.56 322.51 428.81 325.66 427.31 330.09 429.41 339.18 426.5 341.75 429.62 342.01 428.06 344.64 425.73 344.3"/><polygon class="cls-6" points="425.73 344.3 432.24 347.98 442.81 345.17 452 347.79 460 345.22 459.62 348.19 461.93 346.51 464.26 336.28 461.82 336.02 460.06 329.3 456.19 327.9 456.35 323.98 451.19 321.87 439.93 318.87 435.72 319.72 433.81 322.62 431.56 322.51 428.81 325.65 427.31 330.09 429.41 339.18 426.5 341.75 429.62 342.01 428.06 344.64 425.73 344.3"/><polygon class="cls-5" points="156.5 304.54 162.75 310.25 166.2 314.64 172.34 315.77 178.44 320.82 181.63 320.66 181.49 315.27 191.62 315.46 192.93 276.09 167.4 275.95 168.47 279.31 168.27 285.41 161.6 287.12 157.28 285.52 156.5 304.54"/><polygon class="cls-6" points="156.5 304.54 162.75 310.25 166.19 314.64 172.34 315.77 178.44 320.82 181.63 320.66 181.49 315.27 191.62 315.46 192.93 276.08 167.4 275.95 168.47 279.3 168.27 285.41 161.6 287.11 157.28 285.52 156.5 304.54"/><polygon class="cls-5" points="236.57 427.5 267.69 427.74 269.11 422.23 268.98 413.76 269.93 409.32 270.21 388.03 267.59 384.23 264.37 383.64 264.42 380.55 258.53 379.48 251.47 379.31 249.55 380.82 237.54 381.83 234.7 385.52 237.37 386.45 236.35 388.78 233.31 388.65 234.93 392.83 233.89 397.99 236.85 398.38 236.57 427.5"/><polygon class="cls-6" points="236.57 427.5 267.69 427.74 269.11 422.23 268.98 413.76 269.92 409.31 270.21 388.03 267.59 384.23 264.37 383.63 264.42 380.55 258.53 379.48 251.47 379.31 249.55 380.82 237.53 381.83 234.7 385.52 237.37 386.45 236.35 388.78 233.31 388.65 234.93 392.82 233.89 397.99 236.84 398.38 236.57 427.5"/><polygon class="cls-5" points="670.47 285.41 676.47 285.3 674.98 312.31 679.3 317.42 684.84 312.06 692.27 311.47 697.91 305.63 700.22 301.48 703.54 289.36 703.55 286.83 697.89 286.16 697.48 284.49 692.18 281.82 678.78 284.1 672.27 283.23 670.47 285.41"/><polygon class="cls-6" points="670.48 285.41 676.47 285.3 674.98 312.31 679.3 317.41 684.84 312.06 692.27 311.46 697.91 305.62 700.22 301.48 703.54 289.36 703.55 286.83 697.89 286.15 697.48 284.49 692.18 281.81 678.78 284.1 672.27 283.23 670.48 285.41"/><polygon class="cls-5" points="409.72 375.36 414.62 376.43 423.99 374.9 435.97 374.47 432.92 365.89 432.06 356.74 433.16 352.08 432.24 347.98 425.73 344.3 416.99 342.2 409.05 343.45 406.69 345.19 400.86 354.09 400.84 361.63 403.71 366.7 403.87 370.39 409.72 375.36"/><polygon class="cls-6" points="409.72 375.36 414.62 376.43 423.99 374.9 435.97 374.47 432.92 365.89 432.06 356.74 433.16 352.08 432.24 347.98 425.73 344.3 416.99 342.2 409.05 343.45 406.69 345.19 400.86 354.09 400.84 361.63 403.71 366.7 403.87 370.39 409.72 375.36"/><polygon class="cls-5" points="435.97 374.47 444 373.06 446.95 370.99 459.97 355.43 460.93 350.83 459.36 348.72 460 345.22 452 347.79 442.81 345.17 432.24 347.98 433.16 352.08 432.06 356.74 432.92 365.89 435.97 374.47"/><polygon class="cls-6" points="435.97 374.47 444 373.06 446.95 370.99 459.97 355.43 460.93 350.83 459.36 348.71 460 345.22 452 347.79 442.81 345.17 432.24 347.98 433.16 352.08 432.06 356.74 432.92 365.89 435.97 374.47"/><polygon class="cls-5" points="568.69 308.24 570.25 309.97 585.86 310.46 588.53 306.08 588.32 299.4 591.22 292.14 588.77 289.97 585.84 292.08 583.25 286.6 579.88 282.81 577.6 284.47 575.3 282.93 571.66 284.43 570.38 287.71 567.94 286.34 566.04 296.84 563.55 299.69 566.44 305.83 568.69 308.24"/><polygon class="cls-6" points="568.69 308.24 570.25 309.97 585.86 310.46 588.53 306.08 588.32 299.4 591.22 292.14 588.77 289.97 585.84 292.08 583.25 286.59 579.88 282.81 577.6 284.47 575.3 282.93 571.66 284.43 570.38 287.7 567.94 286.34 566.04 296.84 563.55 299.69 566.44 305.83 568.69 308.24"/><polygon class="cls-5" points="686.67 329.45 690.35 326.4 693.96 319.79 698.97 315.47 704.45 313.4 708.05 313.88 709.94 311.24 709.38 307.82 706.16 305.84 707.13 303.48 701.93 300.69 700.22 301.48 697.91 305.63 692.27 311.47 684.84 312.06 679.3 317.42 680.77 319.23 678.66 323.15 678.01 330.5 682.36 331.87 686.67 329.45"/><polygon class="cls-6" points="686.67 329.45 690.35 326.4 693.96 319.79 698.97 315.47 704.45 313.4 708.05 313.88 709.94 311.24 709.38 307.82 706.16 305.84 707.13 303.48 701.93 300.68 700.22 301.48 697.91 305.62 692.27 311.46 684.84 312.06 679.3 317.41 680.77 319.23 678.66 323.15 678.01 330.5 682.36 331.87 686.67 329.45"/><polygon class="cls-5" points="376.35 291.83 379.3 295.5 379.54 292.96 382.65 292.31 388.38 297.09 392.96 291.03 396.65 288.31 401.04 286.89 401.35 283.81 385.79 281.95 384 278.03 380.86 277.54 380.13 281.17 377.54 281.07 377.24 290.69 376.35 291.83"/><polygon class="cls-6" points="376.35 291.83 379.3 295.5 379.54 292.96 382.65 292.31 388.38 297.09 392.96 291.03 396.65 288.31 401.04 286.89 401.35 283.81 385.79 281.95 384 278.03 380.86 277.54 380.13 281.17 377.54 281.07 377.24 290.69 376.35 291.83"/><polygon class="cls-5" points="67.64 388.22 89.2 389.35 89.38 387.5 95.49 387.01 95.45 388.98 101.21 390.32 108.61 387.4 114.24 387.58 114.59 373.09 111.91 369.64 107.69 367.27 101.98 362.42 98.8 364.47 93.37 362.95 87.67 364.4 85.52 367.37 80.92 369.07 78.46 373.97 77.79 376.37 74.64 375.21 71.92 371.74 67.79 372.95 66.92 376.14 69.51 381.35 67.64 388.22"/><polygon class="cls-5" points="64.89 389.47 66.59 388.96 64.07 379.94 61.28 380.99 59.53 384.19 57.17 385.67 56.32 389.37 59.92 390.23 59.04 387.93 61.65 386.76 64.89 389.47"/><polygon class="cls-6" points="67.64 388.22 89.2 389.35 89.38 387.5 95.49 387.01 95.45 388.98 101.21 390.32 108.61 387.4 114.24 387.57 114.59 373.09 111.91 369.64 107.69 367.26 101.98 362.42 98.8 364.47 93.37 362.95 87.67 364.4 85.52 367.37 80.92 369.07 78.46 373.97 77.79 376.37 74.64 375.21 71.92 371.74 67.79 372.95 66.92 376.14 69.51 381.35 67.64 388.22"/><polygon class="cls-6" points="64.89 389.47 66.59 388.96 64.07 379.93 61.28 380.99 59.53 384.19 57.17 385.67 56.32 389.37 59.92 390.23 59.04 387.93 61.65 386.76 64.89 389.47"/><polygon class="cls-5" points="350.8 302.26 352.71 300.48 354.98 294.57 356.77 298.9 358.45 295.81 362.51 293.04 367.55 295.63 368.66 291.48 371.19 293.63 369.88 295.5 375.1 295.29 376.35 291.83 377.24 290.69 377.54 281.07 380.13 281.17 382.75 261.96 357.92 260.65 353.31 262.59 347.57 272.48 346.06 279.35 342.67 285.74 338.15 284.57 337.62 285.91 342.38 294.47 346.88 297.87 347.12 301.25 350.8 302.26"/><polygon class="cls-6" points="350.8 302.26 352.71 300.48 354.98 294.57 356.77 298.9 358.45 295.81 362.52 293.04 367.55 295.63 368.66 291.48 371.19 293.63 369.88 295.5 375.1 295.28 376.35 291.83 377.24 290.69 377.54 281.07 380.13 281.17 382.75 261.96 357.92 260.65 353.31 262.59 347.57 272.48 346.06 279.34 342.67 285.74 338.15 284.57 337.62 285.91 342.38 294.47 346.88 297.87 347.12 301.25 350.8 302.26"/><polygon class="cls-5" points="672.27 283.23 678.78 284.1 692.18 281.82 697.48 284.49 697.89 286.16 703.55 286.83 707.48 284.43 712.74 286.41 725.02 277.68 729.52 275.41 734.1 269.32 742.42 264.58 734.54 264.38 733.6 266.63 678.15 266.64 678.07 274.29 676.7 276.73 670.5 280.77 672.27 283.23"/><polygon class="cls-6" points="672.27 283.23 678.78 284.1 692.18 281.81 697.48 284.49 697.89 286.15 703.55 286.83 707.48 284.43 712.74 286.41 725.03 277.68 729.52 275.41 734.1 269.32 742.42 264.58 734.54 264.38 733.6 266.63 678.15 266.64 678.06 274.29 676.7 276.73 670.5 280.77 672.27 283.23"/><polygon class="cls-5" points="230.97 276.56 230.53 282.47 236.88 291.19 244.14 293.13 249.97 293.75 255.35 292.29 258.7 289.72 268.82 289.77 264.81 262.15 247.39 262.64 247.69 259.51 229.54 258.04 232.66 272.1 230.97 276.56"/><polygon class="cls-6" points="230.96 276.56 230.53 282.47 236.88 291.19 244.14 293.13 249.97 293.74 255.35 292.29 258.7 289.71 268.82 289.77 264.81 262.15 247.39 262.64 247.69 259.51 229.54 258.04 232.66 272.1 230.96 276.56"/><polygon class="cls-5" points="394.71 318.45 400.76 318.34 402.96 315.95 407 315.3 410.79 317.66 412.9 314.09 415.44 313.82 417.68 302.99 414.08 301.63 412.23 297.87 413.75 285.27 401.35 283.81 401.04 286.89 396.65 288.31 392.96 291.03 388.38 297.09 394.71 318.45"/><polygon class="cls-6" points="394.72 318.45 400.76 318.34 402.96 315.95 407 315.3 410.79 317.66 412.9 314.09 415.44 313.81 417.68 302.99 414.08 301.63 412.23 297.87 413.75 285.27 401.35 283.81 401.04 286.89 396.65 288.31 392.96 291.03 388.38 297.09 394.72 318.45"/><polygon class="cls-5" points="93.7 428.61 100.27 428.56 101.21 390.32 95.45 388.98 95.49 387.01 89.38 387.5 89.2 389.35 67.64 388.22 64.89 389.47 62.24 393.61 62.09 397.45 57.59 398.34 58 401.71 62.88 402.84 64.54 405.11 62.26 411.36 65.58 414.44 62.79 416.38 59.63 414.64 56.79 416.24 53.85 425.43 47.06 423.9 45.64 428.52 93.7 428.61"/><polygon class="cls-6" points="93.7 428.61 100.27 428.56 101.21 390.32 95.45 388.98 95.49 387.01 89.38 387.5 89.2 389.35 67.64 388.22 64.89 389.47 62.24 393.61 62.09 397.45 57.6 398.34 58 401.71 62.88 402.84 64.54 405.11 62.26 411.35 65.58 414.44 62.79 416.38 59.63 414.64 56.79 416.24 53.85 425.43 47.06 423.9 45.64 428.52 93.7 428.61"/><polygon class="cls-5" points="591.59 370.82 596.6 369.9 598.24 371.47 605.11 371.44 609.43 366.51 611.41 366.57 618.53 361.08 620.54 362.19 625.16 358.02 625.06 356.07 623.34 356.22 623.43 349.64 622.44 347.95 624.55 344.9 620.69 340.2 620.52 337.76 614.08 334.48 605.77 334.5 602.88 330.78 592.18 322.8 590.74 323.28 592.27 330.04 580.8 338.64 586.99 352.76 588.11 356.42 591.6 358.54 591.59 370.82"/><polygon class="cls-6" points="591.59 370.82 596.6 369.9 598.24 371.47 605.11 371.44 609.43 366.51 611.41 366.57 618.53 361.08 620.54 362.19 625.16 358.01 625.06 356.07 623.34 356.21 623.43 349.64 622.44 347.94 624.55 344.9 620.69 340.2 620.52 337.76 614.08 334.48 605.77 334.5 602.88 330.78 592.18 322.8 590.74 323.28 592.27 330.04 580.8 338.64 586.99 352.76 588.11 356.42 591.6 358.54 591.59 370.82"/><polygon class="cls-5" points="435.88 396.01 436.02 397.12 445.2 401.67 449.62 407.97 449.97 413.3 461.55 396.03 463.2 392.48 455.94 386.15 448.63 378.58 445.95 373.54 446.95 370.99 444 373.06 435.97 374.47 431.88 374.6 437.39 378.73 437.75 384.7 441.87 387.24 440.18 392.14 435.88 396.01"/><polygon class="cls-6" points="435.88 396.01 436.02 397.12 445.2 401.67 449.62 407.97 449.97 413.29 461.56 396.03 463.2 392.48 455.94 386.14 448.63 378.58 445.95 373.54 446.95 370.99 444 373.06 435.97 374.47 431.88 374.6 437.39 378.73 437.75 384.7 441.87 387.23 440.18 392.14 435.88 396.01"/><polygon class="cls-5" points="503.79 273.74 507.02 282.85 509.76 286.95 506.34 289.44 513.71 299.69 516.84 300.07 518.53 303.42 525.21 306.47 527.68 310.57 530.98 309.05 533.29 305.15 533.01 300.74 536.8 298.23 536.43 287.69 534.91 279.88 536.71 275.34 542.58 274.83 543.43 269.65 542.44 266.85 499.4 265.69 503.79 273.74"/><polygon class="cls-6" points="503.79 273.73 507.02 282.85 509.76 286.95 506.34 289.44 513.71 299.69 516.84 300.07 518.53 303.41 525.21 306.47 527.68 310.57 530.98 309.04 533.29 305.14 533.01 300.73 536.8 298.23 536.43 287.68 534.91 279.88 536.71 275.34 542.58 274.83 543.43 269.64 542.44 266.85 499.4 265.69 503.79 273.73"/><polygon class="cls-5" points="347.1 359.02 347.4 357.42 355.01 357.83 359.04 361.85 365.41 362.69 366.49 365.79 371.54 361.2 379.48 364.48 379.46 358.71 382.61 357.21 384.6 347.83 385.43 340.07 386.59 339.28 387.04 331.82 374.12 329.36 357.27 316.97 356.54 321.2 354.84 318.39 353.57 323.16 349.32 326.19 348.03 336.3 350.3 342.08 349.24 348.45 345.18 348.39 343.25 356.57 347.1 359.02"/><polygon class="cls-6" points="347.1 359.02 347.4 357.42 355.01 357.83 359.04 361.85 365.41 362.69 366.49 365.79 371.54 361.2 379.48 364.48 379.46 358.71 382.61 357.21 384.6 347.83 385.43 340.07 386.59 339.28 387.04 331.82 374.12 329.36 357.27 316.97 356.54 321.19 354.84 318.39 353.57 323.16 349.32 326.19 348.03 336.3 350.3 342.08 349.24 348.45 345.18 348.39 343.25 356.57 347.1 359.02"/><polygon class="cls-5" points="324.6 288.25 326.15 287.57 331.79 291.5 334.94 290.56 338.15 284.57 342.67 285.74 346.06 279.35 347.57 272.48 353.31 262.59 351.13 260.67 308.03 261.7 306.63 271.29 307.79 271.25 306.9 280.14 318.45 289.62 324.6 288.25"/><polygon class="cls-6" points="324.6 288.25 326.15 287.57 331.79 291.5 334.94 290.56 338.15 284.57 342.67 285.74 346.06 279.34 347.57 272.48 353.31 262.59 351.13 260.67 308.03 261.69 306.63 271.29 307.79 271.25 306.9 280.14 318.45 289.61 324.6 288.25"/><polygon class="cls-5" points="504.44 352.24 508.69 357.3 510.91 355.12 512.73 356.4 512.98 363.18 515.89 363.21 520.29 360.58 523.28 355.93 529.7 349.85 531.98 350.67 532.71 345.71 535.75 344.26 536.8 338.06 541 339.26 542.27 337.65 537.61 328.03 535.83 322.21 527.26 328.61 519.08 330.35 518.33 332.23 514.13 332.81 508 336.47 504.05 341.45 499.69 344.94 499.07 346.01 503.29 349.52 501.93 352.09 504.44 352.24"/><polygon class="cls-6" points="504.44 352.24 508.69 357.3 510.91 355.12 512.73 356.4 512.98 363.18 515.89 363.21 520.29 360.58 523.28 355.93 529.7 349.85 531.98 350.67 532.71 345.71 535.74 344.26 536.8 338.06 541 339.26 542.27 337.65 537.61 328.03 535.83 322.21 527.26 328.61 519.08 330.34 518.33 332.23 514.13 332.81 508 336.47 504.05 341.45 499.68 344.94 499.07 346.01 503.29 349.51 501.93 352.09 504.44 352.24"/><polygon class="cls-5" points="480.42 386.94 484.31 381.15 486.21 383.88 489.4 383.05 490.36 379.51 493.27 378.09 492.11 372.73 498.61 372.5 497.38 369.47 499.63 368.23 499.69 360.23 504.5 358.63 504.44 352.24 501.93 352.09 503.29 349.52 499.07 346.01 499.69 344.94 498.37 344.92 488.64 351.36 477.85 365.81 472.91 370.59 473.62 374.39 469.74 378.67 472.23 380.25 470.56 382.06 473.37 385.02 476.25 384.17 480.42 386.94"/><polygon class="cls-6" points="480.42 386.94 484.31 381.15 486.21 383.88 489.4 383.05 490.36 379.51 493.27 378.09 492.11 372.73 498.61 372.5 497.38 369.47 499.63 368.22 499.68 360.23 504.5 358.63 504.44 352.24 501.93 352.09 503.29 349.51 499.07 346.01 499.68 344.94 498.37 344.92 488.64 351.36 477.85 365.81 472.91 370.59 473.62 374.39 469.74 378.67 472.23 380.25 470.56 382.06 473.37 385.02 476.25 384.17 480.42 386.94"/><polygon class="cls-5" points="428.81 325.66 431.56 322.51 433.81 322.62 435.72 319.72 439.93 318.87 451.19 321.87 456.35 323.98 456.19 327.9 460.06 329.3 462.38 316.44 469.22 317.08 473.53 313.1 471.94 312.48 464.99 311.69 454.91 306.75 454.93 305.04 447.31 303.18 444.56 300.59 443.1 296.45 441.09 296.44 441.18 298.73 437.92 302.52 429.68 305.5 429.57 304.66 417.68 302.99 415.44 313.82 418.02 319.24 422.4 318.86 425.35 320.61 428.81 325.66"/><polygon class="cls-6" points="428.81 325.65 431.56 322.51 433.81 322.62 435.72 319.72 439.93 318.87 451.19 321.87 456.35 323.98 456.19 327.9 460.06 329.3 462.38 316.44 469.22 317.08 473.53 313.1 471.94 312.48 464.99 311.69 454.91 306.75 454.93 305.04 447.31 303.18 444.56 300.59 443.1 296.45 441.09 296.44 441.18 298.73 437.92 302.52 429.68 305.5 429.57 304.66 417.68 302.99 415.44 313.81 418.02 319.24 422.4 318.86 425.36 320.61 428.81 325.65"/><polygon class="cls-5" points="512.85 429.26 537.46 429.25 539.89 407.34 534.98 407.29 534.59 404.62 523.2 399.41 521.51 401.32 509.08 401.17 506.1 403.89 506.41 410.92 502.52 419.45 503.5 419.92 500.17 429.3 512.85 429.26"/><polygon class="cls-6" points="512.85 429.26 537.46 429.25 539.89 407.33 534.98 407.28 534.59 404.62 523.2 399.41 521.51 401.32 509.08 401.17 506.1 403.89 506.41 410.92 502.52 419.45 503.5 419.92 500.17 429.3 512.85 429.26"/><polygon class="cls-5" points="458.35 273.06 459.65 272.14 466.53 277.24 469.61 280.74 471.87 285.74 473.32 285.46 474.49 276.25 477.36 273.87 478.15 270.25 486.44 267.95 493.07 269.11 499.5 273.7 503.79 273.74 499.4 265.69 483.85 264.45 459.06 263.32 459.82 268.78 458.35 273.06"/><polygon class="cls-6" points="458.35 273.06 459.65 272.14 466.53 277.24 469.61 280.73 471.87 285.74 473.32 285.46 474.49 276.25 477.36 273.87 478.15 270.25 486.44 267.95 493.07 269.11 499.5 273.7 503.79 273.73 499.4 265.69 483.85 264.45 459.06 263.32 459.82 268.78 458.35 273.06"/><polygon class="cls-5" points="258.53 379.48 260.74 377.26 261.14 372.94 263.95 371.2 263.41 366.76 256.38 361.23 258.6 343.54 250.23 343.74 247.81 347.06 242.7 343.59 238.4 343.33 236.16 351.35 232.86 354.71 233.78 361.62 232.39 365.5 237.44 376.38 235.93 379.76 233.13 380.61 231.86 383.38 234.7 385.52 237.54 381.83 249.55 380.82 251.47 379.31 258.53 379.48"/><polygon class="cls-6" points="258.53 379.48 260.74 377.26 261.14 372.94 263.95 371.2 263.41 366.76 256.38 361.23 258.6 343.54 250.23 343.74 247.81 347.05 242.7 343.59 238.4 343.33 236.16 351.35 232.86 354.71 233.78 361.61 232.39 365.5 237.44 376.38 235.93 379.76 233.13 380.61 231.86 383.38 234.7 385.52 237.53 381.83 249.55 380.82 251.47 379.31 258.53 379.48"/><polygon class="cls-5" points="441.07 286.15 441.09 296.44 443.1 296.45 444.56 300.59 447.31 303.18 454.93 305.04 454.91 306.75 464.99 311.69 471.94 312.48 474.98 307.24 471.72 296.2 471.87 285.74 469.61 280.74 466.53 277.24 459.65 272.14 458.35 273.06 454 273.42 449.73 275.69 445.72 276.15 442.19 280.93 441.07 286.15"/><polygon class="cls-6" points="441.07 286.14 441.09 296.44 443.1 296.45 444.56 300.59 447.31 303.18 454.93 305.04 454.91 306.75 464.99 311.69 471.94 312.48 474.98 307.24 471.72 296.2 471.87 285.74 469.61 280.73 466.53 277.24 459.65 272.14 458.35 273.06 454 273.42 449.73 275.69 445.72 276.15 442.19 280.93 441.07 286.14"/><polygon class="cls-5" points="140.5 306.38 156.38 306.69 157.28 285.52 161.6 287.12 168.27 285.41 168.47 279.31 167.4 275.95 128.53 275.54 124.76 275.93 125.25 278.53 122.87 282.97 123.61 285.52 120.01 291.39 119.98 295.31 116 303.98 113.53 305.56 140.5 306.38"/><polygon class="cls-6" points="140.5 306.38 156.38 306.69 157.28 285.52 161.6 287.11 168.27 285.41 168.47 279.3 167.4 275.95 128.53 275.53 124.76 275.93 125.25 278.53 122.87 282.97 123.61 285.52 120.01 291.39 119.98 295.3 116 303.98 113.53 305.56 140.5 306.38"/><polygon class="cls-5" points="508 336.47 514.13 332.81 518.33 332.23 519.08 330.35 527.26 328.61 535.83 322.21 532.77 317.5 529.37 316.18 527.03 313.02 527.68 310.57 525.21 306.47 518.53 303.42 516.84 300.07 513.71 299.69 506.34 289.44 504.51 288.86 503.07 292.99 499.28 294.24 498.36 296.99 491.75 298.67 491.33 302.87 488.81 306.01 489.36 311.29 492.37 313.28 495.53 318.66 497.74 317.99 498.85 321.15 504.7 327.71 508 336.47"/><polygon class="cls-6" points="508 336.47 514.13 332.81 518.33 332.23 519.08 330.34 527.26 328.61 535.83 322.21 532.77 317.5 529.37 316.18 527.03 313.02 527.68 310.57 525.21 306.47 518.53 303.41 516.84 300.07 513.71 299.69 506.34 289.44 504.51 288.86 503.07 292.99 499.28 294.23 498.36 296.99 491.75 298.67 491.33 302.87 488.81 306.01 489.36 311.29 492.37 313.28 495.53 318.65 497.74 317.98 498.85 321.14 504.7 327.71 508 336.47"/><polygon class="cls-5" points="373.48 415.32 374.48 404.87 379.46 395.52 378.14 394.57 379.46 393.18 376.63 389.14 378.46 386.62 369.13 393.13 366 393.26 363.13 395.87 359.74 391.84 356.47 392.43 356.31 396.79 361.72 398.68 367.4 404.45 369.35 410.86 369.21 414.58 373.48 415.32"/><polygon class="cls-6" points="373.48 415.32 374.48 404.87 379.46 395.52 378.14 394.57 379.46 393.18 376.63 389.14 378.46 386.62 369.13 393.13 366 393.26 363.13 395.87 359.74 391.84 356.47 392.43 356.31 396.79 361.72 398.68 367.4 404.45 369.35 410.86 369.21 414.58 373.48 415.32"/><polygon class="cls-5" points="264.81 262.15 269.26 292.41 292.58 295.41 293.94 294.44 294.44 291.09 300.59 285.5 305.25 284.61 305.12 281.88 307.59 280.81 306.9 280.14 307.79 271.25 306.63 271.29 308.03 261.7 264.81 262.15"/><polygon class="cls-6" points="264.81 262.15 269.26 292.41 292.58 295.41 293.94 294.44 294.44 291.09 300.59 285.5 305.25 284.61 305.12 281.88 307.59 280.81 306.9 280.14 307.79 271.25 306.63 271.29 308.03 261.69 264.81 262.15"/><polygon class="cls-5" points="520.71 365.25 520.99 366.91 530.29 388.04 530.96 394.89 526.64 396.04 523.2 399.41 534.59 404.62 534.98 407.29 539.89 407.34 540.07 405.44 545.53 401.06 547.55 403.62 555.85 403.26 561.51 398.74 560.76 393.14 563.29 390.74 561.99 386.72 568.96 379.03 563.1 376.69 564.41 372.75 557.2 373.64 554.68 368.97 553.17 370.12 548.44 366.64 543 365.62 540.02 362.17 534.83 360.73 531.21 363.64 530.51 361.07 526.34 361.05 521.73 363.25 520.71 365.25"/><polygon class="cls-6" points="520.7 365.25 520.99 366.91 530.29 388.04 530.96 394.89 526.64 396.04 523.2 399.41 534.59 404.62 534.98 407.28 539.89 407.33 540.07 405.43 545.53 401.06 547.55 403.61 555.85 403.26 561.51 398.73 560.76 393.14 563.29 390.74 561.99 386.72 568.96 379.02 563.1 376.69 564.41 372.75 557.2 373.64 554.68 368.97 553.17 370.12 548.44 366.64 543 365.62 540.02 362.17 534.83 360.73 531.21 363.64 530.51 361.07 526.34 361.05 521.73 363.25 520.7 365.25"/><polygon class="cls-5" points="480.42 386.94 483.81 392.29 486.16 399.2 487.73 399.07 493.25 392.91 497 384.15 504.38 375.64 512.98 363.18 512.73 356.4 510.91 355.12 508.69 357.3 504.44 352.24 504.5 358.63 499.69 360.23 499.63 368.23 497.38 369.47 498.61 372.5 492.11 372.73 493.27 378.09 490.36 379.51 489.4 383.05 486.21 383.88 484.31 381.15 480.42 386.94"/><polygon class="cls-6" points="480.42 386.94 483.81 392.29 486.16 399.2 487.73 399.07 493.24 392.9 497 384.15 504.38 375.64 512.98 363.18 512.73 356.4 510.91 355.12 508.69 357.3 504.44 352.24 504.5 358.63 499.68 360.23 499.63 368.22 497.38 369.47 498.61 372.5 492.11 372.73 493.27 378.09 490.36 379.51 489.4 383.05 486.21 383.88 484.31 381.15 480.42 386.94"/><polygon class="cls-5" points="170.72 428.56 204.08 428.53 205.55 389.76 188.8 389.66 182.69 391.81 178.71 396.92 176.21 403.23 171.12 403.22 170.72 428.56"/><polygon class="cls-6" points="170.72 428.56 204.08 428.53 205.55 389.76 188.8 389.66 182.69 391.81 178.71 396.92 176.21 403.23 171.12 403.22 170.72 428.56"/><polygon class="cls-5" points="493.25 392.91 499.62 396.59 503.08 402.33 506.1 403.89 509.08 401.17 521.51 401.32 526.64 396.04 530.96 394.89 530.29 388.04 520.99 366.91 520.71 365.25 515.89 363.21 512.98 363.18 504.38 375.64 497 384.15 493.25 392.91"/><polygon class="cls-6" points="493.24 392.9 499.62 396.59 503.08 402.33 506.1 403.89 509.08 401.17 521.51 401.32 526.64 396.04 530.96 394.89 530.29 388.04 520.99 366.91 520.7 365.25 515.89 363.21 512.98 363.18 504.38 375.64 497 384.15 493.24 392.9"/><polygon class="cls-5" points="289.61 361.73 288.54 369.26 293.66 372.95 294.9 379.47 293.29 383.37 300.51 384.53 304.32 384.31 307.55 382.26 318.57 386.93 320.7 386.17 321.17 382.69 326.06 379.7 329.83 375.22 331.65 369.51 332.93 357.96 335.38 356.92 299.81 342.33 298.25 355.09 295.66 355.67 289.61 361.73"/><polygon class="cls-6" points="289.61 361.73 288.54 369.25 293.66 372.95 294.9 379.47 293.29 383.37 300.51 384.53 304.32 384.31 307.55 382.26 318.57 386.93 320.7 386.17 321.17 382.69 326.06 379.7 329.83 375.22 331.65 369.51 332.93 357.95 335.38 356.92 299.81 342.33 298.25 355.09 295.66 355.67 289.61 361.73"/><polygon class="cls-5" points="331.58 401.6 338.27 402.69 342.28 398.42 350.12 395.23 350.38 391.41 348.84 391.23 345.55 384.32 345.06 378.62 347.1 359.02 343.25 356.57 339.29 357.71 335.38 356.92 332.93 357.96 331.65 369.51 329.83 375.22 326.06 379.7 321.17 382.69 320.7 386.17 323.58 387.63 325.16 396.52 328.64 397.46 330.41 396.01 331.58 401.6"/><polygon class="cls-6" points="331.58 401.6 338.27 402.69 342.28 398.42 350.12 395.23 350.38 391.41 348.84 391.22 345.55 384.32 345.06 378.62 347.1 359.02 343.25 356.57 339.29 357.71 335.38 356.92 332.93 357.95 331.65 369.51 329.83 375.22 326.06 379.7 321.17 382.69 320.7 386.17 323.58 387.63 325.16 396.52 328.64 397.46 330.41 396.01 331.58 401.6"/><polygon class="cls-5" points="410.8 429.26 442.82 429.79 450.09 423.96 452.03 419.28 449.26 417.49 449.97 413.3 449.62 407.97 445.2 401.67 436.02 397.12 435.88 396.01 428.04 397.4 423.48 399.04 424.79 404.06 420.97 406.47 414.21 403.77 410.05 405.66 410.85 405.97 410.8 429.26"/><polygon class="cls-6" points="410.8 429.26 442.82 429.79 450.09 423.96 452.02 419.28 449.26 417.49 449.97 413.29 449.62 407.97 445.2 401.67 436.02 397.12 435.88 396.01 428.04 397.4 423.48 399.04 424.79 404.06 420.97 406.47 414.21 403.76 410.05 405.66 410.85 405.97 410.8 429.26"/><polygon class="cls-5" points="146.71 384.71 168.32 385.11 179.81 378.89 183.23 374.15 184.93 368.89 185.48 348.54 160.08 347.73 161.99 349.11 151.58 360.39 147.48 358.33 146.71 384.71"/><polygon class="cls-6" points="146.71 384.71 168.32 385.11 179.81 378.88 183.23 374.15 184.93 368.89 185.48 348.54 160.08 347.73 161.99 349.11 151.58 360.39 147.48 358.33 146.71 384.71"/><polygon class="cls-5" points="380.86 277.54 384 278.03 385.79 281.95 413.75 285.27 416.98 263.8 382.75 261.96 380.86 277.54"/><polygon class="cls-6" points="380.86 277.54 384 278.03 385.79 281.95 413.75 285.27 416.98 263.8 382.75 261.96 380.86 277.54"/><polygon class="cls-5" points="515.89 363.21 520.71 365.25 521.73 363.25 526.34 361.05 530.51 361.07 531.21 363.64 534.83 360.73 540.02 362.17 543 365.62 548.44 366.64 551.44 364.92 552.84 361.17 549.71 356.3 551.42 351.76 549.16 350.67 550.25 346.95 542.27 337.65 541 339.26 536.8 338.06 535.75 344.26 532.71 345.71 531.98 350.67 529.7 349.85 523.28 355.93 520.29 360.58 515.89 363.21"/><polygon class="cls-6" points="515.89 363.21 520.7 365.25 521.73 363.25 526.34 361.05 530.51 361.07 531.21 363.64 534.83 360.73 540.02 362.17 543 365.62 548.44 366.64 551.44 364.92 552.84 361.17 549.71 356.3 551.42 351.76 549.16 350.67 550.25 346.95 542.27 337.65 541 339.26 536.8 338.06 535.74 344.26 532.71 345.71 531.98 350.67 529.7 349.85 523.28 355.93 520.29 360.58 515.89 363.21"/><polygon class="cls-5" points="330.92 428.91 373.43 428.97 373.48 415.32 369.21 414.58 369.35 410.86 367.4 404.45 361.72 398.68 356.31 396.79 356.47 392.43 350.38 391.41 350.12 395.23 342.28 398.42 338.27 402.69 331.58 401.6 330.92 428.91"/><polygon class="cls-6" points="330.92 428.91 373.43 428.97 373.48 415.32 369.21 414.58 369.35 410.86 367.4 404.45 361.72 398.68 356.31 396.79 356.47 392.43 350.38 391.41 350.12 395.23 342.28 398.42 338.27 402.69 331.58 401.6 330.92 428.91"/><polygon class="cls-5" points="270.21 388.03 275.03 388.06 275.62 386.4 280.63 385.8 280.64 382.05 290.72 382.19 293.29 383.37 294.9 379.47 293.66 372.95 288.54 369.26 289.61 361.73 279.51 366.1 272.38 364.65 269.27 362.31 263.41 366.76 263.95 371.2 261.14 372.94 260.74 377.26 258.53 379.48 264.42 380.55 264.37 383.64 267.59 384.23 270.21 388.03"/><polygon class="cls-6" points="270.21 388.03 275.02 388.06 275.62 386.4 280.63 385.8 280.64 382.05 290.72 382.19 293.29 383.37 294.9 379.47 293.66 372.95 288.54 369.25 289.61 361.73 279.51 366.1 272.38 364.65 269.27 362.31 263.41 366.76 263.95 371.2 261.14 372.94 260.74 377.26 258.53 379.48 264.42 380.55 264.37 383.63 267.59 384.23 270.21 388.03"/><polygon class="cls-5" points="267.69 427.74 299.14 428.16 299.9 415.72 301.18 411.77 299.27 410.68 299.82 389.76 300.51 384.53 293.29 383.37 290.72 382.19 280.64 382.05 280.63 385.8 275.62 386.4 275.03 388.06 270.21 388.03 269.93 409.32 268.98 413.76 269.11 422.23 267.69 427.74"/><polygon class="cls-6" points="267.69 427.74 299.14 428.16 299.9 415.71 301.18 411.77 299.26 410.68 299.82 389.76 300.51 384.53 293.29 383.37 290.72 382.19 280.64 382.05 280.63 385.8 275.62 386.4 275.02 388.06 270.21 388.03 269.92 409.31 268.98 413.76 269.11 422.23 267.69 427.74"/><polygon class="cls-5" points="78.46 373.97 80.92 369.07 85.52 367.37 87.67 364.4 93.37 362.95 98.8 364.47 101.98 362.42 107.69 367.27 111.91 369.64 114.59 368.19 114.88 359.34 116.01 359.36 118.08 352.8 117.08 350.91 120.18 345.17 123.94 345.7 125.05 339.26 119.73 332.61 112.84 332.5 111.42 334.84 107.36 333.52 100.23 336.89 97.58 338.79 94.47 336.71 90.3 338.22 90.64 341.68 94.93 343.53 95.33 345.49 88.97 346.95 85.74 351.85 81.19 353.75 78.66 351.54 75.13 353.7 74.68 358.54 76.85 361.74 82.72 360.8 82.83 364.22 75.34 367.69 75.86 372.08 78.46 373.97"/><polygon class="cls-6" points="78.46 373.97 80.92 369.07 85.52 367.37 87.67 364.4 93.37 362.95 98.8 364.47 101.98 362.42 107.69 367.26 111.91 369.64 114.59 368.19 114.88 359.34 116.01 359.36 118.08 352.8 117.08 350.91 120.18 345.17 123.94 345.7 125.05 339.26 119.73 332.61 112.84 332.5 111.42 334.84 107.36 333.52 100.23 336.89 97.58 338.79 94.47 336.7 90.3 338.22 90.64 341.67 94.93 343.53 95.33 345.48 88.97 346.95 85.74 351.85 81.19 353.75 78.66 351.54 75.13 353.7 74.68 358.54 76.85 361.74 82.71 360.8 82.83 364.22 75.34 367.69 75.86 372.08 78.46 373.97"/><polygon class="cls-5" points="113.53 305.56 116 303.98 119.98 295.31 120.01 291.39 123.61 285.52 122.87 282.97 125.25 278.53 124.76 275.93 118.84 276.36 115.94 280.16 112.61 278.68 113.34 276.5 108.89 276.44 110.43 278.44 108.65 284.42 111.33 289.17 108.41 292.92 103.03 292.55 102.94 295.74 109.2 299.68 109.27 301.48 103 302.86 96.09 301.48 95.26 303.13 101.48 308.34 113.11 308.13 113.53 305.56"/><polygon class="cls-6" points="113.53 305.56 116 303.98 119.98 295.3 120.01 291.39 123.61 285.52 122.87 282.97 125.25 278.53 124.76 275.93 118.84 276.36 115.94 280.16 112.61 278.68 113.34 276.49 108.89 276.44 110.43 278.44 108.65 284.42 111.32 289.17 108.41 292.92 103.03 292.55 102.94 295.74 109.21 299.68 109.27 301.48 103 302.85 96.09 301.48 95.26 303.13 101.48 308.34 113.11 308.13 113.53 305.56"/><polygon class="cls-5" points="541.59 336.3 542.27 337.65 550.25 346.95 552.05 347.89 553.09 342.3 554.27 344.19 557.35 342.27 561.98 343.37 564.36 338.98 565.92 341.05 568.36 339.76 571.5 342.75 575.94 343.31 580.8 338.64 592.27 330.04 590.74 323.28 587.73 318.35 591.22 319 588.6 316.06 585.86 310.46 570.25 309.97 568.69 308.24 556.18 320.19 559.09 323.5 551.62 328.52 547.87 327.9 546.32 332.48 541.59 336.3"/><polygon class="cls-6" points="541.59 336.3 542.27 337.65 550.25 346.95 552.05 347.89 553.09 342.3 554.27 344.19 557.35 342.27 561.98 343.37 564.36 338.98 565.92 341.05 568.36 339.76 571.5 342.75 575.94 343.31 580.8 338.64 592.27 330.04 590.74 323.28 587.73 318.35 591.22 319 588.6 316.06 585.86 310.46 570.25 309.97 568.69 308.24 556.18 320.19 559.09 323.5 551.62 328.52 547.87 327.9 546.32 332.48 541.59 336.3"/><polygon class="cls-5" points="729.52 275.41 732.31 279.08 723.35 289.79 725.68 293.23 728.01 293.27 729.63 297.88 733.69 300.25 734.91 298 739.24 293.68 745.18 290.3 747.5 292.73 752.22 293.08 750.48 287.37 751.55 280.6 753.25 279.59 752.16 272.61 754.68 267.24 757.19 264.82 742.42 264.58 734.1 269.32 729.52 275.41"/><polygon class="cls-6" points="729.52 275.41 732.31 279.08 723.35 289.79 725.68 293.23 728.01 293.27 729.63 297.88 733.69 300.25 734.91 297.99 739.24 293.68 745.18 290.3 747.5 292.72 752.22 293.08 750.48 287.37 751.55 280.6 753.25 279.59 752.16 272.61 754.68 267.24 757.19 264.82 742.42 264.58 734.1 269.32 729.52 275.41"/><polygon class="cls-5" points="590.74 323.28 592.18 322.8 602.88 330.78 605.77 334.5 614.08 334.48 620.52 337.76 621.92 336.31 623.32 326.41 624.76 327.21 624.96 322.69 626.77 318.54 624.76 314.94 621.92 313.14 615.41 311.56 608.37 311.39 607.68 309.43 606.33 310.2 600.12 308.84 596.94 310.5 596.42 313.11 593.65 312.64 594.39 316.57 590.62 314.53 591.22 319 587.73 318.35 590.74 323.28"/><polygon class="cls-6" points="590.74 323.28 592.18 322.8 602.88 330.78 605.77 334.5 614.08 334.48 620.52 337.76 621.92 336.31 623.32 326.41 624.76 327.21 624.96 322.69 626.77 318.54 624.76 314.94 621.92 313.14 615.41 311.56 608.37 311.4 607.68 309.43 606.33 310.2 600.12 308.84 596.94 310.5 596.42 313.11 593.65 312.64 594.39 316.57 590.63 314.53 591.22 319 587.73 318.35 590.74 323.28"/><polygon class="cls-5" points="413.75 285.27 412.23 297.87 414.08 301.63 417.68 302.99 429.57 304.66 429.68 305.5 437.92 302.52 441.18 298.73 441.07 286.15 434.44 279.17 424.78 276.69 423.93 273.97 414.91 276.31 413.75 285.27"/><polygon class="cls-6" points="413.75 285.27 412.23 297.87 414.08 301.63 417.68 302.99 429.57 304.66 429.68 305.5 437.92 302.52 441.18 298.73 441.07 286.14 434.44 279.17 424.78 276.69 423.93 273.97 414.91 276.31 413.75 285.27"/><polygon class="cls-5" points="238.4 343.33 242.7 343.59 247.81 347.06 250.23 343.74 258.6 343.54 259.4 336.77 264.84 334.92 269.21 331.92 271.3 332.44 273.56 327.86 272.05 325.52 272.75 317.61 270.94 309.11 269.34 307.09 263.08 306.73 260.17 304.54 251.89 302.3 248.92 303.56 239.47 302.47 239.31 304.59 242.26 310.85 241.99 313.98 235.27 324.33 233.66 329.22 234.28 332.61 241.43 334.25 240.24 340.78 238.4 343.33"/><polygon class="cls-6" points="238.4 343.33 242.7 343.59 247.81 347.05 250.23 343.74 258.6 343.54 259.4 336.77 264.84 334.92 269.21 331.92 271.3 332.43 273.56 327.86 272.05 325.52 272.75 317.61 270.94 309.11 269.34 307.09 263.08 306.73 260.17 304.54 251.89 302.29 248.92 303.56 239.47 302.47 239.31 304.59 242.26 310.84 241.99 313.98 235.27 324.33 233.66 329.22 234.28 332.61 241.43 334.25 240.24 340.78 238.4 343.33"/><polygon class="cls-5" points="239.47 302.47 248.92 303.56 251.89 302.3 260.17 304.54 263.08 306.73 269.34 307.09 270.94 309.11 274.44 301.64 275.3 293.13 269.26 292.41 268.82 289.77 258.7 289.72 255.35 292.29 249.97 293.75 244.14 293.13 236.88 291.19 238.97 295.43 239.47 302.47"/><polygon class="cls-6" points="239.47 302.47 248.92 303.56 251.89 302.29 260.17 304.54 263.08 306.73 269.34 307.09 270.94 309.11 274.44 301.64 275.3 293.13 269.26 292.41 268.82 289.77 258.7 289.71 255.35 292.29 249.97 293.74 244.14 293.13 236.88 291.19 238.97 295.43 239.47 302.47"/><polygon class="cls-5" points="263.41 366.76 269.27 362.31 272.38 364.65 279.51 366.1 289.61 361.73 295.66 355.67 298.25 355.09 300.7 331.33 273.56 327.86 271.3 332.44 269.21 331.92 264.84 334.92 259.4 336.77 256.38 361.23 263.41 366.76"/><polygon class="cls-6" points="263.41 366.76 269.27 362.31 272.38 364.65 279.51 366.1 289.61 361.73 295.66 355.67 298.25 355.09 300.7 331.33 273.56 327.86 271.3 332.43 269.21 331.92 264.84 334.92 259.4 336.77 256.38 361.23 263.41 366.76"/><polygon class="cls-5" points="217.87 314.94 220.84 312.18 224.17 304.95 228.5 301.08 226.9 295.58 228.13 290.63 236.13 290.47 230.53 282.47 230.97 276.56 192.93 276.09 191.78 311.73 217.94 312.35 217.87 314.94"/><polygon class="cls-6" points="217.87 314.94 220.84 312.18 224.17 304.95 228.5 301.08 226.9 295.58 228.13 290.63 236.13 290.47 230.53 282.47 230.96 276.56 192.93 276.08 191.78 311.73 217.94 312.35 217.87 314.94"/><polygon class="cls-5" points="184.93 368.89 188.88 369.01 193.82 376.58 201.28 379.58 205.44 378.52 205.71 385.96 215.48 385.53 215.37 374.88 219.69 366.78 220.62 345.77 188.56 344.96 185.48 348.54 184.93 368.89"/><polygon class="cls-6" points="184.93 368.89 188.88 369.01 193.82 376.58 201.28 379.58 205.44 378.52 205.71 385.96 215.48 385.53 215.37 374.88 219.69 366.78 220.62 345.77 188.56 344.96 185.48 348.54 184.93 368.89"/><polygon class="cls-5" points="114.24 387.58 138.09 388.17 138.19 384.57 146.71 384.71 147.48 358.33 143.61 357.68 136.4 352.82 130.92 352.04 125.29 348.42 123.94 345.7 120.18 345.17 117.08 350.91 118.08 352.8 116.01 359.36 114.88 359.34 114.59 368.19 111.91 369.64 114.59 373.09 114.24 387.58"/><polygon class="cls-6" points="114.24 387.57 138.09 388.17 138.19 384.57 146.71 384.71 147.48 358.33 143.61 357.68 136.4 352.82 130.91 352.03 125.29 348.42 123.94 345.7 120.18 345.17 117.08 350.91 118.08 352.8 116.01 359.36 114.88 359.34 114.59 368.19 111.91 369.64 114.59 373.09 114.24 387.57"/><polygon class="cls-5" points="623 287.01 624.29 291.45 623.56 294.72 625.08 297.78 628.34 297.33 632.69 292.05 635.01 297.06 639.28 302.55 644.3 299.76 651.25 293.11 652.99 293.75 659.15 289.46 661.24 290.15 670.47 285.41 672.27 283.23 670.5 280.77 676.7 276.73 678.07 274.29 678.15 266.64 659.98 266.67 650.11 271.87 645.16 269.75 635.71 275.23 632.73 280.18 629.04 282.21 630.12 283.99 623 287.01"/><polygon class="cls-6" points="623 287.01 624.29 291.45 623.56 294.72 625.07 297.78 628.34 297.33 632.69 292.05 635 297.06 639.28 302.55 644.29 299.76 651.25 293.11 652.99 293.74 659.15 289.46 661.24 290.15 670.48 285.41 672.27 283.23 670.5 280.77 676.7 276.73 678.06 274.29 678.15 266.64 659.98 266.67 650.11 271.86 645.16 269.75 635.71 275.23 632.73 280.18 629.04 282.21 630.12 283.99 623 287.01"/><polygon class="cls-5" points="205.48 428.54 218.9 428.53 218.66 427.29 236.57 427.5 236.85 398.38 233.89 397.99 234.93 392.83 233.31 388.65 230.32 386.21 225.07 389.5 219.19 389.94 215.48 385.53 205.71 385.96 204.08 428.53 205.48 428.54"/><polygon class="cls-6" points="205.48 428.54 218.9 428.53 218.66 427.29 236.57 427.5 236.84 398.38 233.89 397.99 234.93 392.82 233.31 388.65 230.32 386.21 225.07 389.5 219.19 389.93 215.48 385.53 205.71 385.96 204.08 428.53 205.48 428.54"/><polygon class="cls-5" points="151.79 428.59 170.72 428.56 171.12 403.22 169.77 394.06 166.17 389.45 166.2 385.08 138.19 384.57 136.9 428.64 151.79 428.59"/><polygon class="cls-6" points="151.79 428.59 170.72 428.56 171.12 403.22 169.77 394.06 166.17 389.45 166.2 385.08 138.19 384.57 136.9 428.64 151.79 428.59"/><polygon class="cls-5" points="614.27 285.13 617.12 284.45 623 287.01 630.12 283.99 629.04 282.21 632.73 280.18 635.71 275.23 645.16 269.75 650.11 271.87 659.98 266.67 607.27 266.31 613.33 272.69 615.7 280.43 614.27 285.13"/><polygon class="cls-6" points="614.27 285.12 617.12 284.45 623 287.01 630.12 283.99 629.04 282.21 632.73 280.18 635.71 275.23 645.16 269.75 650.11 271.86 659.98 266.67 607.26 266.31 613.33 272.69 615.7 280.43 614.27 285.12"/><polygon class="cls-5" points="451.87 429.75 483.65 429.32 484.96 426.56 482.24 424.58 479.79 413.15 486.16 399.2 483.81 392.29 480.42 386.94 476.25 384.17 473.37 385.02 470.56 382.06 467.94 382.25 461.55 396.03 449.97 413.3 449.26 417.49 452.03 419.28 450.09 423.96 442.82 429.79 451.87 429.75"/><polygon class="cls-6" points="451.87 429.75 483.65 429.32 484.96 426.56 482.24 424.58 479.79 413.15 486.16 399.2 483.81 392.29 480.42 386.94 476.25 384.17 473.37 385.02 470.56 382.06 467.94 382.25 461.56 396.03 449.97 413.29 449.26 417.49 452.02 419.28 450.09 423.96 442.82 429.79 451.87 429.75"/><polygon class="cls-5" points="626.77 318.54 625.82 314.67 628.04 311.83 631.65 314.29 630.83 309.22 634.65 307.85 639.28 302.55 635.01 297.06 632.69 292.05 628.34 297.33 625.08 297.78 622.21 300.47 619.08 297.01 612.41 301.89 611 305.69 609.12 305.02 607.68 309.43 608.37 311.39 615.41 311.56 621.92 313.14 624.76 314.94 626.77 318.54"/><polygon class="cls-6" points="626.77 318.54 625.82 314.67 628.04 311.83 631.65 314.29 630.82 309.22 634.65 307.86 639.28 302.55 635 297.06 632.69 292.05 628.34 297.33 625.07 297.78 622.21 300.47 619.08 297.01 612.41 301.89 611 305.68 609.12 305.02 607.68 309.43 608.37 311.4 615.41 311.56 621.92 313.14 624.76 314.94 626.77 318.54"/><polygon class="cls-5" points="406.72 399.08 410.05 405.66 414.21 403.77 420.97 406.47 424.79 404.06 423.48 399.04 428.04 397.4 435.88 396.01 440.18 392.14 441.87 387.24 437.75 384.7 437.39 378.73 431.88 374.6 423.99 374.9 414.62 376.43 409.72 375.36 408.72 383.44 408.88 389.83 410.32 389.85 407.43 394.89 406.72 399.08"/><polygon class="cls-6" points="406.72 399.08 410.05 405.66 414.21 403.76 420.97 406.47 424.79 404.06 423.48 399.04 428.04 397.4 435.88 396.01 440.18 392.14 441.87 387.23 437.75 384.7 437.39 378.73 431.88 374.6 423.99 374.9 414.62 376.43 409.72 375.36 408.72 383.44 408.88 389.83 410.32 389.85 407.43 394.89 406.72 399.08"/><polygon class="cls-5" points="632.4 308.8 631.86 311.15 634.57 314.06 637.6 314.9 649.56 327.18 654.38 332.76 658.24 332.31 660.8 335.1 664.54 330.03 664.45 327.11 675.91 320.5 678.66 323.15 680.77 319.23 674.98 312.31 676.47 285.3 670.47 285.41 661.24 290.15 659.15 289.46 652.99 293.75 651.25 293.11 644.3 299.76 639.28 302.55 634.65 307.85 632.4 308.8"/><polygon class="cls-6" points="632.4 308.8 631.86 311.15 634.57 314.06 637.6 314.9 649.56 327.18 654.38 332.76 658.24 332.3 660.8 335.09 664.54 330.03 664.45 327.11 675.91 320.49 678.66 323.15 680.77 319.23 674.98 312.31 676.47 285.3 670.48 285.41 661.24 290.15 659.15 289.46 652.99 293.74 651.25 293.11 644.29 299.76 639.28 302.55 634.65 307.86 632.4 308.8"/><polygon class="cls-5" points="585.86 310.46 588.6 316.06 591.22 319 590.62 314.53 594.39 316.57 593.65 312.64 596.42 313.11 596.94 310.5 600.12 308.84 606.33 310.2 607.68 309.43 609.12 305.02 611 305.69 612.41 301.89 619.08 297.01 622.21 300.47 625.08 297.78 623.56 294.72 624.29 291.45 623 287.01 617.12 284.45 614.27 285.13 609.98 285.15 609.15 289.09 605.15 288.7 602.3 291.23 599.65 289.27 593.45 292.99 591.22 292.14 588.32 299.4 588.53 306.08 585.86 310.46"/><polygon class="cls-6" points="585.86 310.46 588.6 316.06 591.22 319 590.63 314.53 594.39 316.57 593.65 312.64 596.42 313.11 596.94 310.5 600.12 308.84 606.33 310.2 607.68 309.43 609.12 305.02 611 305.68 612.41 301.89 619.08 297.01 622.21 300.47 625.07 297.78 623.56 294.72 624.29 291.45 623 287.01 617.12 284.45 614.27 285.12 609.98 285.15 609.15 289.09 605.15 288.69 602.3 291.23 599.65 289.27 593.45 292.99 591.22 292.14 588.32 299.4 588.53 306.08 585.86 310.46"/><polygon class="cls-5" points="300.16 428.19 330.92 428.91 331.58 401.6 330.41 396.01 328.64 397.46 325.16 396.52 323.58 387.63 320.7 386.17 318.57 386.93 307.55 382.26 304.32 384.31 300.51 384.53 299.82 389.76 299.27 410.68 301.18 411.77 299.9 415.72 299.14 428.16 300.16 428.19"/><polygon class="cls-6" points="300.16 428.19 330.92 428.91 331.58 401.6 330.41 396.01 328.64 397.46 325.16 396.52 323.58 387.63 320.7 386.17 318.57 386.93 307.55 382.26 304.32 384.31 300.51 384.53 299.82 389.76 299.26 410.68 301.18 411.77 299.9 415.71 299.14 428.16 300.16 428.19"/><polygon class="cls-5" points="137.68 327.23 142.02 330.49 142.5 337.31 144.2 341.18 155.94 344.75 160.08 347.73 177.28 348.37 178.44 320.82 172.34 315.77 166.2 314.64 162.75 310.25 156.5 304.54 156.38 306.69 140.5 306.38 139.77 324.55 136.53 325.53 137.68 327.23"/><polygon class="cls-6" points="137.68 327.23 142.02 330.49 142.5 337.31 144.2 341.18 155.94 344.75 160.08 347.73 177.28 348.37 178.44 320.82 172.34 315.77 166.19 314.64 162.75 310.25 156.5 304.54 156.38 306.69 140.5 306.38 139.77 324.55 136.53 325.53 137.68 327.23"/><polygon class="cls-5" points="374.05 428.98 410.8 429.26 410.85 405.97 410.05 405.66 406.72 399.08 400.48 396.61 396.62 393.55 386.64 391.63 383.68 393.47 378.14 394.57 379.46 395.52 374.48 404.87 373.48 415.32 373.43 428.97 374.05 428.98"/><polygon class="cls-6" points="374.05 428.98 410.8 429.26 410.85 405.97 410.05 405.66 406.72 399.08 400.48 396.61 396.62 393.55 386.64 391.63 383.68 393.47 378.14 394.57 379.46 395.52 374.48 404.87 373.48 415.32 373.43 428.97 374.05 428.98"/><polygon class="cls-5" points="471.94 312.48 475.02 313.68 479.43 309.86 481.98 311.73 487.21 312.33 489.36 311.29 488.81 306.01 491.33 302.87 491.75 298.67 498.36 296.99 499.28 294.24 503.07 292.99 504.51 288.86 506.34 289.44 509.76 286.95 507.02 282.85 503.79 273.74 499.5 273.7 493.07 269.11 486.44 267.95 478.15 270.25 477.36 273.87 474.49 276.25 473.32 285.46 471.87 285.74 471.72 296.2 474.98 307.24 471.94 312.48"/><polygon class="cls-6" points="471.94 312.48 475.03 313.68 479.43 309.86 481.98 311.73 487.22 312.33 489.36 311.29 488.81 306.01 491.33 302.87 491.75 298.67 498.36 296.99 499.28 294.23 503.07 292.99 504.51 288.86 506.34 289.44 509.76 286.95 507.02 282.85 503.79 273.73 499.5 273.7 493.07 269.11 486.44 267.95 478.15 270.25 477.36 273.87 474.49 276.25 473.32 285.46 471.87 285.74 471.72 296.2 474.98 307.24 471.94 312.48"/><polygon class="cls-5" points="124.22 428.7 136.9 428.64 138.09 388.17 108.61 387.4 101.21 390.32 100.27 428.56 124.22 428.7"/><polygon class="cls-6" points="124.22 428.7 136.9 428.64 138.09 388.17 108.61 387.4 101.21 390.32 100.27 428.56 124.22 428.7"/><polygon class="cls-5" points="100.23 336.89 107.36 333.52 111.42 334.84 112.84 332.5 119.73 332.61 125.05 339.26 130.18 338.71 136.33 330.94 137.68 327.23 136.53 325.53 139.77 324.55 140.5 306.38 113.53 305.56 113.11 308.13 101.48 308.34 104.55 311.93 104 314.81 97.34 318.81 95.13 327.09 92.97 327.13 94.15 330.41 99.3 334.72 100.23 336.89"/><polygon class="cls-6" points="100.23 336.89 107.36 333.52 111.42 334.84 112.84 332.5 119.73 332.61 125.05 339.26 130.18 338.71 136.33 330.93 137.68 327.23 136.53 325.53 139.77 324.55 140.5 306.38 113.53 305.56 113.11 308.13 101.48 308.34 104.55 311.93 104 314.81 97.34 318.81 95.13 327.09 92.97 327.13 94.15 330.41 99.3 334.72 100.23 336.89"/><polygon class="cls-5" points="273.56 327.86 300.7 331.33 302.48 322.14 303.86 311.48 305.11 308.98 302.09 305.26 303.93 303.26 301.55 302.21 304.63 299.56 305.09 296.73 302.91 295.23 293.94 294.44 292.58 295.41 275.3 293.13 274.44 301.64 270.94 309.11 272.75 317.61 272.05 325.52 273.56 327.86"/><polygon class="cls-6" points="273.56 327.86 300.7 331.33 302.48 322.14 303.86 311.48 305.12 308.98 302.09 305.26 303.93 303.26 301.55 302.21 304.63 299.56 305.09 296.73 302.91 295.23 293.94 294.44 292.58 295.41 275.3 293.13 274.44 301.64 270.94 309.11 272.75 317.61 272.05 325.52 273.56 327.86"/><polygon class="cls-5" points="394.71 318.45 398.4 331.14 407.18 340.12 409.05 343.45 416.99 342.2 428.06 344.64 429.62 342.01 426.5 341.75 429.41 339.18 427.31 330.09 428.81 325.66 425.35 320.61 422.4 318.86 418.02 319.24 415.44 313.82 412.9 314.09 410.79 317.66 407 315.3 402.96 315.95 400.76 318.34 394.71 318.45"/><polygon class="cls-6" points="394.72 318.45 398.4 331.14 407.18 340.12 409.05 343.45 416.99 342.2 428.06 344.64 429.62 342.01 426.5 341.75 429.41 339.18 427.31 330.09 428.81 325.65 425.36 320.61 422.4 318.86 418.02 319.24 415.44 313.81 412.9 314.09 410.79 317.66 407 315.3 402.96 315.95 400.76 318.34 394.72 318.45"/><polygon class="cls-5" points="233.31 388.65 236.35 388.78 237.37 386.45 234.7 385.52 231.86 383.38 233.13 380.61 235.93 379.76 237.44 376.38 232.39 365.5 233.78 361.62 232.86 354.71 236.16 351.35 237.74 345.88 233.02 346.36 231.08 342.4 228.06 343.17 220.72 342.83 219.69 366.78 215.37 374.88 215.48 385.53 219.19 389.94 225.07 389.5 230.32 386.21 233.31 388.65"/><polygon class="cls-6" points="233.31 388.65 236.35 388.78 237.37 386.45 234.7 385.52 231.86 383.38 233.13 380.61 235.93 379.76 237.44 376.38 232.39 365.5 233.78 361.61 232.86 354.71 236.16 351.35 237.74 345.88 233.02 346.36 231.08 342.4 228.06 343.16 220.72 342.83 219.69 366.78 215.37 374.88 215.48 385.53 219.19 389.93 225.07 389.5 230.32 386.21 233.31 388.65"/><polygon class="cls-5" points="313.03 322.57 315.2 328.26 323.29 321.84 334.78 323.5 348.78 330.42 349.32 326.19 353.57 323.16 354.84 318.39 356.54 321.2 357.27 316.97 356.38 312.99 353.91 313.44 350.8 302.26 347.12 301.25 346.88 297.87 342.38 294.47 337.62 285.91 334.94 290.56 331.79 291.5 326.15 287.57 324.6 288.25 325.17 289.97 321.76 298.46 319.58 301.78 317.67 314.13 314.36 317.65 313.03 322.57"/><polygon class="cls-6" points="313.03 322.57 315.2 328.26 323.29 321.83 334.78 323.5 348.78 330.42 349.32 326.19 353.57 323.16 354.84 318.39 356.54 321.19 357.27 316.97 356.38 312.99 353.91 313.44 350.8 302.26 347.12 301.25 346.88 297.87 342.38 294.47 337.62 285.91 334.94 290.56 331.79 291.5 326.15 287.57 324.6 288.25 325.17 289.97 321.76 298.46 319.58 301.77 317.67 314.13 314.36 317.65 313.03 322.57"/><polygon class="cls-5" points="460.93 350.83 478.39 350.35 479.39 352.91 487.63 350.66 488.64 351.36 498.37 344.92 499.69 344.94 504.05 341.45 508 336.47 504.7 327.71 498.85 321.15 497.74 317.99 495.53 318.66 492.37 313.28 489.36 311.29 487.21 312.33 481.98 311.73 479.43 309.86 475.02 313.68 473.53 313.1 469.22 317.08 462.38 316.44 460.06 329.3 461.82 336.02 464.26 336.28 461.93 346.51 459.36 348.72 460.93 350.83"/><polygon class="cls-6" points="460.93 350.83 478.39 350.35 479.39 352.91 487.63 350.66 488.64 351.36 498.37 344.92 499.68 344.94 504.05 341.45 508 336.47 504.7 327.71 498.85 321.14 497.74 317.98 495.53 318.65 492.37 313.28 489.36 311.29 487.22 312.33 481.98 311.73 479.43 309.86 475.03 313.68 473.53 313.1 469.22 317.08 462.38 316.44 460.06 329.3 461.82 336.02 464.26 336.28 461.93 346.51 459.36 348.71 460.93 350.83"/><polygon class="cls-5" points="147.48 358.33 151.58 360.39 161.99 349.11 155.94 344.75 144.2 341.18 142.5 337.31 142.02 330.49 137.68 327.23 136.33 330.94 130.18 338.71 125.05 339.26 123.94 345.7 125.29 348.42 130.92 352.04 136.4 352.82 143.61 357.68 147.48 358.33"/><polygon class="cls-6" points="147.48 358.33 151.58 360.39 161.99 349.11 155.94 344.75 144.2 341.18 142.5 337.31 142.02 330.49 137.68 327.23 136.33 330.93 130.18 338.71 125.05 339.26 123.94 345.7 125.29 348.42 130.91 352.03 136.4 352.82 143.61 357.68 147.48 358.33"/><polygon class="cls-5" points="406.72 399.08 407.43 394.89 410.32 389.85 408.88 389.83 408.72 383.44 409.72 375.36 403.87 370.39 403.71 366.7 400.84 361.63 396.53 363.36 387.82 361.45 382.61 357.21 379.46 358.71 379.77 377.37 378.46 386.62 376.63 389.14 379.46 393.18 378.14 394.57 383.68 393.47 386.64 391.63 396.62 393.55 400.48 396.61 406.72 399.08"/><polygon class="cls-6" points="406.72 399.08 407.43 394.89 410.32 389.85 408.88 389.83 408.72 383.44 409.72 375.36 403.87 370.39 403.71 366.7 400.84 361.63 396.53 363.36 387.82 361.45 382.61 357.21 379.46 358.71 379.77 377.37 378.46 386.62 376.63 389.14 379.46 393.18 378.14 394.57 383.68 393.47 386.64 391.63 396.62 393.55 400.48 396.61 406.72 399.08"/><polygon class="cls-5" points="625.06 356.07 630.79 354.57 632.97 351.02 636.17 350.89 639.58 348.53 646.67 350.12 649.2 348.37 652.57 340.53 654.54 339.52 653.13 334.85 654.38 332.76 649.56 327.18 637.6 314.9 634.57 314.06 631.86 311.15 632.4 308.8 630.83 309.22 631.65 314.29 628.04 311.83 625.82 314.67 626.77 318.54 624.96 322.69 624.76 327.21 623.32 326.41 621.92 336.31 620.52 337.76 620.69 340.2 624.55 344.9 622.44 347.95 623.43 349.64 623.34 356.22 625.06 356.07"/><polygon class="cls-6" points="625.06 356.07 630.79 354.57 632.97 351.02 636.17 350.89 639.58 348.53 646.67 350.12 649.2 348.37 652.57 340.53 654.54 339.51 653.13 334.85 654.38 332.76 649.56 327.18 637.6 314.9 634.57 314.06 631.86 311.15 632.4 308.8 630.82 309.22 631.65 314.29 628.04 311.83 625.82 314.67 626.77 318.54 624.96 322.69 624.76 327.21 623.32 326.41 621.92 336.31 620.52 337.76 620.69 340.2 624.55 344.9 622.44 347.94 623.43 349.64 623.34 356.21 625.06 356.07"/><polygon class="cls-5" points="441.07 286.15 442.19 280.93 445.72 276.15 449.73 275.69 454 273.42 458.35 273.06 459.82 268.78 459.06 263.32 440.69 264.51 416.98 263.8 414.91 276.31 423.93 273.97 424.78 276.69 434.44 279.17 441.07 286.15"/><polygon class="cls-6" points="441.07 286.14 442.19 280.93 445.72 276.15 449.73 275.69 454 273.42 458.35 273.06 459.82 268.78 459.06 263.32 440.69 264.51 416.98 263.8 414.91 276.31 423.93 273.97 424.78 276.69 434.44 279.17 441.07 286.14"/><polygon class="cls-5" points="564.91 267.1 565.54 271.08 570.14 282.72 571.66 284.43 575.3 282.93 577.6 284.47 579.88 282.81 583.25 286.6 585.84 292.08 588.77 289.97 591.22 292.14 593.45 292.99 599.65 289.27 602.3 291.23 605.15 288.7 609.15 289.09 609.98 285.15 614.27 285.13 615.7 280.43 613.33 272.69 607.27 266.31 590.57 265.95 589.31 267.81 564.91 267.1"/><polygon class="cls-6" points="564.91 267.1 565.54 271.08 570.14 282.71 571.66 284.43 575.3 282.93 577.6 284.47 579.88 282.81 583.25 286.59 585.84 292.08 588.77 289.97 591.22 292.14 593.45 292.99 599.65 289.27 602.3 291.23 605.15 288.69 609.15 289.09 609.98 285.15 614.27 285.12 615.7 280.43 613.33 272.69 607.26 266.31 590.57 265.95 589.31 267.81 564.91 267.1"/><polygon class="cls-5" points="171.12 403.22 176.21 403.23 178.71 396.92 182.69 391.81 188.8 389.66 205.55 389.76 205.44 378.52 201.28 379.58 193.82 376.58 188.88 369.01 184.93 368.89 183.23 374.15 179.81 378.89 168.32 385.11 166.2 385.08 166.17 389.45 169.77 394.06 171.12 403.22"/><polygon class="cls-6" points="171.12 403.22 176.21 403.23 178.71 396.92 182.69 391.81 188.8 389.66 205.55 389.76 205.44 378.52 201.28 379.58 193.82 376.58 188.88 369.01 184.93 368.89 183.23 374.15 179.81 378.88 168.32 385.11 166.2 385.08 166.17 389.45 169.77 394.06 171.12 403.22"/><polygon class="cls-5" points="302.48 322.14 313.03 322.57 314.36 317.65 317.67 314.13 319.58 301.78 321.76 298.46 325.17 289.97 324.6 288.25 318.45 289.62 307.59 280.81 305.12 281.88 305.25 284.61 300.59 285.5 294.44 291.09 293.94 294.44 302.91 295.23 305.09 296.73 304.63 299.56 301.55 302.21 303.93 303.26 302.09 305.26 305.11 308.98 303.86 311.48 302.48 322.14"/><polygon class="cls-6" points="302.48 322.14 313.03 322.57 314.36 317.65 317.67 314.13 319.58 301.77 321.76 298.46 325.17 289.97 324.6 288.25 318.45 289.61 307.59 280.81 305.12 281.88 305.25 284.61 300.59 285.5 294.44 291.09 293.94 294.44 302.91 295.23 305.09 296.73 304.63 299.56 301.55 302.21 303.93 303.26 302.09 305.26 305.12 308.98 303.86 311.48 302.48 322.14"/><polygon class="cls-5" points="709.94 311.24 716.04 312 717.61 316.63 721.58 316.72 725.47 314.95 733.69 300.25 729.63 297.88 728.01 293.27 725.68 293.23 723.35 289.79 732.31 279.08 729.52 275.41 725.02 277.68 712.74 286.41 707.48 284.43 703.55 286.83 703.54 289.36 700.22 301.48 701.93 300.69 707.13 303.48 706.16 305.84 709.38 307.82 709.94 311.24"/><polygon class="cls-6" points="709.94 311.24 716.04 312 717.61 316.63 721.58 316.72 725.47 314.95 733.69 300.25 729.63 297.88 728.01 293.27 725.68 293.23 723.35 289.79 732.31 279.08 729.52 275.41 725.03 277.68 712.74 286.41 707.48 284.43 703.55 286.83 703.54 289.36 700.22 301.48 701.93 300.68 707.13 303.48 706.16 305.84 709.38 307.82 709.94 311.24"/><polygon class="cls-5" points="185.48 348.54 188.56 344.96 220.62 345.77 220.72 342.83 217.48 342.75 217.94 312.35 191.78 311.73 191.62 315.46 181.49 315.27 181.63 320.66 178.44 320.82 177.28 348.37 185.48 348.54"/><polygon class="cls-6" points="185.48 348.54 188.56 344.96 220.62 345.77 220.72 342.83 217.48 342.75 217.94 312.35 191.78 311.73 191.62 315.46 181.49 315.27 181.63 320.66 178.44 320.82 177.28 348.37 185.48 348.54"/><polygon class="cls-5" points="382.61 357.21 387.82 361.45 396.53 363.36 400.84 361.63 400.86 354.09 406.69 345.19 409.05 343.45 407.18 340.12 398.4 331.14 392.77 330.74 387.04 331.82 386.59 339.28 385.43 340.07 384.6 347.83 382.61 357.21"/><polygon class="cls-6" points="382.61 357.21 387.82 361.45 396.53 363.36 400.84 361.63 400.86 354.09 406.69 345.19 409.05 343.45 407.18 340.12 398.4 331.14 392.77 330.74 387.04 331.82 386.59 339.28 385.43 340.07 384.6 347.83 382.61 357.21"/><polygon class="cls-5" points="563.55 299.69 566.04 296.84 567.94 286.34 570.38 287.71 571.66 284.43 570.14 282.72 565.54 271.08 564.91 267.1 542.44 266.85 543.43 269.65 542.58 274.83 536.71 275.34 534.91 279.88 536.43 287.69 536.8 298.23 533.01 300.74 533.29 305.15 536.74 306.03 539.15 304.72 544.04 309.14 545.22 302.29 558.13 303.81 557.66 301.98 561.73 296.97 563.55 299.69"/><polygon class="cls-6" points="563.55 299.69 566.04 296.84 567.94 286.34 570.38 287.7 571.66 284.43 570.14 282.71 565.54 271.08 564.91 267.1 542.44 266.85 543.43 269.64 542.58 274.83 536.71 275.34 534.91 279.88 536.43 287.68 536.8 298.23 533.01 300.73 533.29 305.14 536.74 306.03 539.15 304.72 544.04 309.14 545.22 302.29 558.13 303.81 557.66 301.98 561.73 296.96 563.55 299.69"/><polygon class="cls-5" points="497.31 429.33 500.17 429.3 503.5 419.92 502.52 419.45 506.41 410.92 506.1 403.89 503.08 402.33 499.62 396.59 493.25 392.91 487.73 399.07 486.16 399.2 479.79 413.15 482.24 424.58 484.96 426.56 483.65 429.32 497.31 429.33"/><polygon class="cls-6" points="497.31 429.33 500.17 429.3 503.5 419.92 502.52 419.45 506.41 410.92 506.1 403.89 503.08 402.33 499.62 396.59 493.24 392.9 487.73 399.07 486.16 399.2 479.79 413.15 482.24 424.58 484.96 426.56 483.65 429.32 497.31 429.33"/><polygon class="cls-5" points="567.1 381.46 567.77 381.77 571.15 380.22 573.55 376.06 578.23 375.39 582.66 371.53 591.59 370.82 591.6 358.54 588.11 356.42 586.99 352.76 580.8 338.64 575.94 343.31 571.5 342.75 568.36 339.76 565.92 341.05 564.36 338.98 561.98 343.37 557.35 342.27 554.27 344.19 553.09 342.3 552.05 347.89 550.25 346.95 549.16 350.67 551.42 351.76 549.71 356.3 552.84 361.17 551.44 364.92 548.44 366.64 553.17 370.12 554.68 368.97 557.2 373.64 564.41 372.75 563.1 376.69 568.96 379.03 567.1 381.46"/><polygon class="cls-6" points="567.1 381.46 567.77 381.77 571.15 380.22 573.55 376.06 578.23 375.39 582.66 371.53 591.59 370.82 591.6 358.54 588.11 356.42 586.99 352.76 580.8 338.64 575.94 343.31 571.5 342.75 568.36 339.76 565.92 341.05 564.36 338.98 561.98 343.37 557.35 342.27 554.27 344.19 553.09 342.3 552.05 347.89 550.25 346.95 549.16 350.67 551.42 351.76 549.71 356.3 552.84 361.17 551.44 364.92 548.44 366.64 553.17 370.12 554.68 368.97 557.2 373.64 564.41 372.75 563.1 376.69 568.96 379.02 567.1 381.46"/><polygon class="cls-5" points="446.95 370.99 445.95 373.54 448.63 378.58 455.94 386.15 463.2 392.48 467.94 382.25 470.56 382.06 472.23 380.25 469.74 378.67 473.62 374.39 472.91 370.59 477.85 365.81 488.64 351.36 487.63 350.66 479.39 352.91 478.39 350.35 460.9 350.95 459.97 355.43 446.95 370.99"/><polygon class="cls-6" points="446.95 370.99 445.95 373.54 448.63 378.58 455.94 386.14 463.2 392.48 467.94 382.25 470.56 382.06 472.23 380.25 469.74 378.67 473.62 374.39 472.91 370.59 477.85 365.81 488.64 351.36 487.63 350.66 479.39 352.91 478.39 350.35 460.9 350.95 459.97 355.43 446.95 370.99"/><polygon class="cls-5" points="220.72 342.83 228.06 343.17 231.08 342.4 233.02 346.36 237.74 345.88 238.4 343.33 240.24 340.78 241.43 334.25 234.28 332.61 233.66 329.22 235.27 324.33 241.99 313.98 242.26 310.85 239.31 304.59 238.97 295.43 236.88 291.19 236.13 290.47 228.13 290.63 226.9 295.58 228.5 301.08 224.17 304.95 220.84 312.18 217.87 314.94 217.48 342.75 220.72 342.83"/><polygon class="cls-6" points="220.72 342.83 228.06 343.16 231.08 342.4 233.02 346.36 237.74 345.88 238.4 343.33 240.24 340.78 241.43 334.25 234.28 332.61 233.66 329.22 235.27 324.33 241.99 313.98 242.26 310.84 239.31 304.59 238.97 295.43 236.88 291.19 236.13 290.47 228.13 290.63 226.9 295.58 228.5 301.08 224.17 304.95 220.84 312.18 217.87 314.94 217.48 342.75 220.72 342.83"/><polygon class="cls-5" points="347.1 359.02 345.06 378.62 345.55 384.32 348.84 391.23 356.47 392.43 359.74 391.84 363.13 395.87 366 393.26 369.13 393.13 378.46 386.62 379.77 377.37 379.48 364.48 371.54 361.2 366.49 365.79 365.41 362.69 359.04 361.85 355.01 357.83 347.4 357.42 347.1 359.02"/><polygon class="cls-6" points="347.1 359.02 345.06 378.62 345.55 384.32 348.84 391.22 356.47 392.43 359.74 391.84 363.13 395.87 366 393.26 369.13 393.13 378.46 386.62 379.77 377.37 379.48 364.48 371.54 361.2 366.49 365.79 365.41 362.69 359.04 361.85 355.01 357.83 347.4 357.42 347.1 359.02"/><polygon class="cls-5" points="527.68 310.57 527.03 313.02 529.37 316.18 532.77 317.5 535.83 322.21 537.61 328.03 541.59 336.3 546.32 332.48 547.87 327.9 551.62 328.52 559.09 323.5 556.18 320.19 568.69 308.24 566.44 305.83 563.55 299.69 561.73 296.97 557.66 301.98 558.13 303.81 545.22 302.29 544.04 309.14 539.15 304.72 536.74 306.03 533.29 305.15 530.98 309.05 527.68 310.57"/><polygon class="cls-6" points="527.68 310.57 527.03 313.02 529.37 316.18 532.77 317.5 535.83 322.21 537.61 328.03 541.59 336.3 546.32 332.48 547.87 327.9 551.62 328.52 559.09 323.5 556.18 320.19 568.69 308.24 566.44 305.83 563.55 299.69 561.73 296.96 557.66 301.98 558.13 303.81 545.22 302.29 544.04 309.14 539.15 304.72 536.74 306.03 533.29 305.14 530.98 309.04 527.68 310.57"/><g class="cls-7"><line class="cls-8" x1="10.07" y1="43.58" x2="10.07" y2="644.26"/><line class="cls-8" x1="10.07" y1="43.58" x2="792.77" y2="43.58"/></g></g><g id="Layer_3" data-name="Layer 3"><circle class="cls-9" cx="346.73" cy="313.95" r="26.39"/><circle class="cls-10" cx="346.73" cy="313.95" r="8.13"/><path class="cls-11" d="M504.76,131.42H497.2V127.5H517v3.92H509.4v22.23h-4.64Z"/><path class="cls-11" d="M516.8,143.86c0-6.4,4.44-10.32,9-10.32,5.32,0,8.12,3.84,8.12,9.32a10.72,10.72,0,0,1-.2,2.24H521.28c.4,3.48,2.64,5.47,5.8,5.47a8.27,8.27,0,0,0,4.56-1.43L533.2,152a12.39,12.39,0,0,1-6.72,2.12C521,154.13,516.8,150.33,516.8,143.86ZM530,142c0-3-1.32-4.88-4-4.88-2.32,0-4.32,1.72-4.72,4.88Z"/><path class="cls-11" d="M538.36,134h3.8l.32,2.64h.16c1.76-1.72,3.76-3.12,6.44-3.12,4.2,0,6,2.84,6,7.8v12.31h-4.6V141.94c0-3.24-.92-4.44-3.08-4.44-1.72,0-2.84.84-4.48,2.44v13.71h-4.6Z"/><path class="cls-11" d="M560.76,134h3.8l.32,2.64H565c1.76-1.72,3.76-3.12,6.44-3.12,4.2,0,6,2.84,6,7.8v12.31h-4.6V141.94c0-3.24-.92-4.44-3.08-4.44-1.72,0-2.84.84-4.48,2.44v13.71h-4.6Z"/><path class="cls-11" d="M581.88,143.86c0-6.4,4.44-10.32,9-10.32,5.32,0,8.12,3.84,8.12,9.32a10.72,10.72,0,0,1-.2,2.24H586.36c.4,3.48,2.64,5.47,5.8,5.47a8.27,8.27,0,0,0,4.56-1.43l1.56,2.87a12.39,12.39,0,0,1-6.72,2.12C586.12,154.13,581.88,150.33,581.88,143.86ZM595,142c0-3-1.32-4.88-4-4.88-2.32,0-4.32,1.72-4.72,4.88Z"/><path class="cls-11" d="M601.48,151.41l2.16-2.95a8.78,8.78,0,0,0,5.44,2.19c2.12,0,3.12-1,3.12-2.35,0-1.64-2.12-2.36-4.2-3.16-2.6-1-5.52-2.44-5.52-5.72,0-3.44,2.76-5.88,7.16-5.88a10.6,10.6,0,0,1,6.52,2.36L614,138.7a7.31,7.31,0,0,0-4.32-1.68c-2,0-2.88.92-2.88,2.16,0,1.56,2,2.16,4.08,2.92,2.68,1,5.64,2.28,5.64,6,0,3.35-2.68,6.07-7.64,6.07A12.44,12.44,0,0,1,601.48,151.41Z"/><path class="cls-11" d="M618.72,151.41l2.16-2.95a8.78,8.78,0,0,0,5.44,2.19c2.12,0,3.12-1,3.12-2.35,0-1.64-2.12-2.36-4.2-3.16-2.6-1-5.52-2.44-5.52-5.72,0-3.44,2.76-5.88,7.16-5.88a10.6,10.6,0,0,1,6.52,2.36l-2.12,2.8A7.31,7.31,0,0,0,627,137c-2,0-2.88.92-2.88,2.16,0,1.56,2,2.16,4.08,2.92,2.68,1,5.64,2.28,5.64,6,0,3.35-2.68,6.07-7.64,6.07A12.44,12.44,0,0,1,618.72,151.41Z"/><path class="cls-11" d="M636.64,143.86c0-6.4,4.44-10.32,9-10.32,5.32,0,8.12,3.84,8.12,9.32a10.72,10.72,0,0,1-.2,2.24H641.12c.4,3.48,2.64,5.47,5.8,5.47a8.27,8.27,0,0,0,4.56-1.43L653,152a12.39,12.39,0,0,1-6.72,2.12C640.88,154.13,636.64,150.33,636.64,143.86ZM649.8,142c0-3-1.32-4.88-4-4.88-2.32,0-4.32,1.72-4.72,4.88Z"/><path class="cls-11" d="M656.92,143.86c0-6.4,4.44-10.32,9-10.32,5.32,0,8.12,3.84,8.12,9.32a10.72,10.72,0,0,1-.2,2.24H661.4c.4,3.48,2.64,5.47,5.8,5.47a8.27,8.27,0,0,0,4.56-1.43l1.56,2.87a12.39,12.39,0,0,1-6.72,2.12C661.16,154.13,656.92,150.33,656.92,143.86ZM670.08,142c0-3-1.32-4.88-4-4.88-2.32,0-4.32,1.72-4.72,4.88Z"/><path class="cls-11" d="M551.63,166.36h4.07c4.66,0,7.41,2.52,7.41,7.55s-2.75,7.68-7.27,7.68h-4.21Zm3.89,13c3.07,0,4.82-1.75,4.82-5.49s-1.75-5.36-4.82-5.36h-1.19V179.4Z"/><path class="cls-11" d="M565.64,166.64a1.66,1.66,0,1,1,1.66,1.51A1.54,1.54,0,0,1,565.64,166.64Zm.31,3.52h2.67v11.43H566Z"/><path class="cls-11" d="M570.9,180.29l1.26-1.73a5.1,5.1,0,0,0,3.17,1.28c1.23,0,1.81-.58,1.81-1.37,0-1-1.23-1.37-2.44-1.84-1.51-.56-3.21-1.42-3.21-3.33s1.6-3.42,4.16-3.42a6.18,6.18,0,0,1,3.8,1.37l-1.24,1.63a4.25,4.25,0,0,0-2.51-1c-1.14,0-1.68.54-1.68,1.26,0,.91,1.14,1.26,2.38,1.7,1.56.58,3.28,1.33,3.28,3.47,0,2-1.56,3.54-4.45,3.54A7.29,7.29,0,0,1,570.9,180.29Z"/><path class="cls-11" d="M582,177.72v-5.44h-1.63v-2l1.77-.11.32-3.12h2.24v3.12h2.91v2.12h-2.91v5.44c0,1.36.51,2,1.61,2a3.23,3.23,0,0,0,1.18-.26l.47,2a7.3,7.3,0,0,1-2.33.42C583,181.87,582,180.19,582,177.72Z"/><path class="cls-11" d="M590,170.16h2.21l.18,2h.1a3.86,3.86,0,0,1,3.23-2.3,3,3,0,0,1,1.31.23l-.47,2.33a3.62,3.62,0,0,0-1.19-.19c-.9,0-2,.63-2.7,2.35v7H590Z"/><path class="cls-11" d="M598.4,166.64a1.66,1.66,0,1,1,1.65,1.51A1.53,1.53,0,0,1,598.4,166.64Zm.3,3.52h2.68v11.43H598.7Z"/><path class="cls-11" d="M604.05,175.88a5.64,5.64,0,0,1,5.73-6,4.9,4.9,0,0,1,3.35,1.28l-1.3,1.74a2.82,2.82,0,0,0-1.91-.83c-1.84,0-3.12,1.51-3.12,3.81s1.26,3.8,3.05,3.8a3.77,3.77,0,0,0,2.35-1l1.1,1.77a5.72,5.72,0,0,1-3.73,1.4C606.45,181.87,604.05,179.68,604.05,175.88Z"/><path class="cls-11" d="M615.72,177.72v-5.44h-1.63v-2l1.77-.11.32-3.12h2.24v3.12h2.91v2.12h-2.91v5.44c0,1.36.51,2,1.6,2a3.24,3.24,0,0,0,1.19-.26l.47,2a7.3,7.3,0,0,1-2.33.42C616.69,181.87,615.72,180.19,615.72,177.72Z"/></g></svg>