<svg xmlns="http://www.w3.org/2000/svg" xmlns:xlink="http://www.w3.org/1999/xlink" viewBox="0 0 792 612"><defs><style>.cls-1,.cls-5,.cls-7,.cls-8{fill:none;}.cls-2{fill:#e6e6e6;}.cls-3{clip-path:url(#clip-path);}.cls-4,.cls-6{fill:#007dbc;}.cls-4{opacity:0.8;}.cls-5,.cls-7{stroke:#0675af;}.cls-5{stroke-linejoin:bevel;stroke-width:0.64px;}.cls-7,.cls-8{stroke-miterlimit:10;}.cls-7{stroke-width:4px;fill-rule:evenodd;}.cls-8{stroke:#fff;stroke-width:3px;}.cls-9{fill:#fff;}</style><clipPath id="clip-path"><rect class="cls-1" x="15.75" y="43.62" width="682.94" height="524.11"/></clipPath></defs><g id="State"><rect class="cls-2" x="-5.74" y="-7.02" width="804.92" height="626.04"/><g class="cls-3"><polygon class="cls-4" points="364.28 426.87 366.53 436.62 371.62 475.92 397.55 470.22 409.27 461.76 420.14 466.81 448.55 453.94 476.54 456.6 520.33 442.77 559.07 427.31 647.34 385.32 667.64 373.81 652.38 371.99 622.54 390.78 609.36 382.22 595.58 379.4 580 364.08 583.58 356.01 521.54 395.83 494.42 400.27 430.59 399.07 410.44 414.61 389.45 409.09 377.98 406.85 358.02 410.74 345.11 412.76 364.28 426.87"/><polygon class="cls-5" points="364.28 426.87 366.53 436.62 371.62 475.91 397.55 470.22 409.27 461.76 420.14 466.81 448.55 453.94 476.54 456.6 520.33 442.77 559.07 427.31 647.34 385.32 667.64 373.81 652.38 371.99 622.54 390.77 609.35 382.22 595.58 379.39 579.99 364.07 583.58 356.01 521.54 395.82 494.42 400.27 430.59 399.07 410.44 414.61 389.45 409.09 377.98 406.85 358.02 410.74 345.11 412.76 364.28 426.87"/><polygon class="cls-4" points="307.13 486.24 307.24 487.36 307.71 487.11 309.3 488.8 311.07 488.32 312.54 490.91 312.52 492.65 310.43 492.9 309.88 493.37 309.49 495.23 343.15 497.17 371.62 475.92 366.53 436.62 364.28 426.87 345.11 412.76 314.11 424.92 310.9 446.41 319.39 453.37 319.6 456.9 318.26 459.52 314 460.91 314.92 466.51 314.37 475.82 315 478.01 314.69 478.5 313.15 478.95 311.88 479.82 311.41 481.88 307.13 486.24"/><polygon class="cls-5" points="307.13 486.23 307.24 487.35 307.71 487.11 309.3 488.8 311.07 488.32 312.54 490.91 312.52 492.65 310.43 492.9 309.88 493.37 309.49 495.23 343.15 497.17 371.62 475.91 366.53 436.62 364.28 426.87 345.11 412.76 314.11 424.92 310.9 446.41 319.39 453.36 319.6 456.9 318.26 459.52 314 460.91 314.92 466.51 314.37 475.82 315 478 314.69 478.5 313.15 478.95 311.88 479.82 311.41 481.88 307.13 486.23"/><polygon class="cls-4" points="266.39 310.97 269.98 329.38 286.6 344.53 288.35 373.67 279.98 412.76 302.19 420.73 322.28 405.25 327.51 393.25 328.3 388.78 314.47 366.4 360.72 338.31 347.83 317.58 349.02 299.74 266.39 310.97"/><polygon class="cls-5" points="266.39 310.97 269.98 329.38 286.6 344.53 288.35 373.66 279.98 412.76 302.18 420.73 322.28 405.25 327.51 393.25 328.3 388.77 314.47 366.4 360.72 338.31 347.83 317.58 349.02 299.74 266.39 310.97"/><polygon class="cls-4" points="115.8 135.49 177.5 171.21 154.59 204.22 188.56 229.57 193.78 243.17 213.43 232.67 215.63 239.54 239.26 245.32 237.73 236.94 252.97 245.79 271.92 243.42 274.28 201.92 272.24 197.8 274.5 172.63 270.24 164.77 275.67 135.67 276.39 119.63 279.96 107.3 262.65 94.65 255.11 96.33 248.99 115.11 205.09 110.61 177.88 96.64 115.8 135.49"/><polygon class="cls-5" points="115.8 135.49 177.5 171.21 154.59 204.22 188.56 229.56 193.78 243.17 213.42 232.67 215.63 239.54 239.26 245.31 237.73 236.94 252.97 245.79 271.92 243.43 274.28 201.92 272.24 197.79 274.5 172.63 270.24 164.77 275.68 135.67 276.39 119.63 279.95 107.3 262.65 94.65 255.1 96.33 248.99 115.11 205.08 110.6 177.88 96.64 115.8 135.49"/><polygon class="cls-4" points="46.79 177.47 60.13 190.43 55.11 193.77 64.38 202.58 66.08 236.36 61.26 240.4 76.76 263.92 77.89 271.18 85.4 270.27 95 277.14 94 281.17 109.87 280.47 113.97 285.83 120.7 285 121.14 267.7 173.38 265.03 184.2 248.65 193.78 243.17 188.56 229.57 154.59 204.22 177.5 171.21 115.8 135.49 46.79 177.47"/><polygon class="cls-5" points="46.79 177.47 60.13 190.43 55.11 193.77 64.38 202.58 66.08 236.36 61.26 240.4 76.75 263.92 77.89 271.18 85.4 270.27 95 277.14 94 281.17 109.87 280.47 113.96 285.83 120.7 285 121.14 267.7 173.38 265.03 184.19 248.64 193.78 243.17 188.56 229.56 154.59 204.22 177.5 171.21 115.8 135.49 46.79 177.47"/><polygon class="cls-4" points="218.86 355.83 281.5 392.28 280.71 356.04 270.75 343.1 265.3 311.4 218.86 355.83"/><polygon class="cls-5" points="218.86 355.83 281.5 392.28 280.71 356.03 270.75 343.1 265.3 311.4 218.86 355.83"/><polygon class="cls-4" points="247.01 479.15 245.41 479.92 242.54 479.97 239.67 481.34 237.75 480.92 234.01 482.08 232.48 481.64 231.07 480.69 228.16 480.32 225.94 482.41 224.95 483.63 224.65 489.82 225.97 491.06 225.65 492.52 224.61 493.84 223.25 501.14 222.86 502.04 221.63 502.61 220.44 502.19 219.58 502.41 218.48 503.16 217.92 504.18 217.5 511.05 216.33 512 216.35 515.87 217.86 516.71 218.73 515.97 222.07 515.32 223.9 513.24 225.16 512.94 226.31 513.68 228.26 511.35 229.18 511.05 229.6 511.32 230.44 510.51 233.62 508.99 235.84 507.23 236.35 506.58 236.33 505.69 236.94 504.97 238.05 504.55 238.54 504.72 239.07 505.59 237.8 507.38 236.71 507.4 236.8 508.32 237.39 508.82 239.56 505.69 240.82 504.55 241.88 504.18 242.86 502.71 243.28 502.93 244.07 501.64 248.67 496.9 253.11 491.36 252.96 489.84 249.5 485.19 249.28 483.3 249.63 480.64 248.31 479.37 247.01 479.15"/><polygon class="cls-5" points="247.01 479.15 245.41 479.92 242.54 479.97 239.67 481.34 237.75 480.92 234.01 482.08 232.48 481.63 231.07 480.69 228.16 480.32 225.93 482.41 224.95 483.62 224.65 489.81 225.97 491.06 225.65 492.52 224.61 493.84 223.25 501.14 222.86 502.04 221.63 502.61 220.44 502.19 219.57 502.41 218.48 503.16 217.91 504.17 217.5 511.05 216.33 511.99 216.35 515.86 217.86 516.71 218.73 515.96 222.07 515.32 223.9 513.24 225.16 512.94 226.31 513.68 228.26 511.35 229.18 511.05 229.6 511.33 230.44 510.5 233.61 508.99 235.84 507.23 236.35 506.58 236.33 505.69 236.93 504.97 238.05 504.55 238.54 504.72 239.07 505.59 237.8 507.38 236.71 507.4 236.8 508.32 237.39 508.81 239.56 505.69 240.82 504.55 241.88 504.17 242.86 502.71 243.28 502.93 244.07 501.64 248.67 496.9 253.11 491.36 252.96 489.84 249.5 485.19 249.28 483.3 249.63 480.64 248.31 479.37 247.01 479.15"/><polygon class="cls-4" points="289.85 478.23 291 478.73 290.94 479.67 291.56 480.29 294.07 479.9 294.28 479.37 295.39 479.05 296.77 479.03 297.2 479.62 302.34 482.43 304.11 483.77 303.13 485.34 302.47 485.76 301.86 485.67 300.94 487.6 300.96 488.35 302.56 489.42 304.39 488 303.69 486.36 304.75 484.5 305.37 484.55 306.26 485.47 307.17 484.22 311.41 481.88 311.88 479.82 312.34 479.35 314.69 478.5 315 478.01 314.37 475.82 314.92 466.51 314 460.91 318.26 459.52 319.6 456.9 319.39 453.37 310.13 445.82 309.32 447.39 309.64 448.26 309.22 448.63 309.36 449.98 308.6 449.43 307.47 448.16 305.73 445.04 306.36 444.39 305.26 442.43 304.34 442.6 304.41 443.6 302.22 444.32 301.81 443.67 301.85 442.8 298.26 442.15 297.07 441.36 296.24 442.18 295.33 442.4 295.52 443.4 295.03 443.65 294.79 444.35 293.81 444.17 293.58 442.33 292.79 442.8 292.11 442.5 290.94 442.9 290.5 444.37 289.66 445.04 290.39 445.99 291.5 445.92 291.5 449.15 292.41 450.13 292.43 450.8 291.09 451.67 289.6 450.87 289.01 449.78 289.66 449.73 289.98 448.18 287.11 446.36 287.73 445.62 287.39 445.02 286.68 446.14 284.9 446.49 285 447.98 284 448.13 283.54 446.29 282.69 445.72 282.79 445.22 281.92 444.3 280.13 443.8 276.41 447.54 275.54 446.99 274.86 447.74 274.9 448.38 275.41 448.95 274.2 449.78 270.49 455.68 270.24 456.9 272.03 456.65 273.98 457.57 274.94 458.99 276.47 459.52 277.47 461.43 277.64 462.2 277.37 462.55 277.92 464.2 279.71 465.59 279.79 466.46 281.15 467.51 280.88 467.9 281.58 468.48 281.79 469.52 282.64 470.79 283.11 470.14 283.39 470.57 286.88 467.88 287.84 467.63 288.39 470.94 288.75 470.82 289.09 471.61 289.45 473.58 289.98 473.48 290.33 475.44 289.85 475.59 290 476.39 288.92 476.81 289.85 478.23"/><polygon class="cls-4" points="309.3 488.8 307.43 488.32 307 487.78 305.86 487.9 305.79 488.45 306.73 488.92 306.28 491.73 305.85 491.75 305.34 490.59 305.52 488.9 304.9 488.95 302.9 491.83 302.47 491.21 300.3 491.61 299.34 492.87 296.79 494.59 296.45 494.41 293.43 495.8 291.3 495.75 286.13 499.08 283.37 499.16 281.75 500.48 279.56 500.03 278.41 500.77 277.47 500.77 274.79 502.31 274.33 505.42 280.82 502.06 282.88 501.84 285.66 500.8 298.17 495.43 305.45 493.64 309.88 493.37 310.43 492.9 312.52 492.65 312.54 490.91 311.07 488.32 309.3 488.8"/><polygon class="cls-4" points="307.13 486.24 306.37 487.36 307.24 487.36 307.13 486.24"/><polygon class="cls-4" points="301.07 488.85 300.69 488.85 299.98 489.72 300.11 490.24 301.09 490.34 301.79 489.89 301.52 489.07 301.07 488.85"/><polygon class="cls-4" points="301.2 484.89 300.66 484.72 299.56 485.86 300.11 487.43 300.56 486.68 300.47 485.59 301.2 484.89"/><polygon class="cls-4" points="298.81 491.68 298.79 490.44 298.19 490.21 298 490.79 298.81 491.68"/><polygon class="cls-4" points="294.43 487.75 295.98 487.73 296.66 488.72 297.2 488.65 296.52 489.87 296.24 491.75 294.66 491.9 294.96 492.65 296.83 492.62 297.43 489.89 297.79 489.89 298.03 489.17 297.56 487.08 297.66 485.37 297.49 484.5 297.03 484.42 296.5 482.16 295.5 482.38 294.79 481.66 294.54 481.76 294.98 483.2 294.64 484.12 294.98 484.99 294.5 485.32 294.43 487.75"/><polygon class="cls-4" points="295.07 489.19 294.69 488.9 294.11 489.89 294.92 489.94 295.07 489.19"/><polygon class="cls-4" points="293.52 492.1 292.49 492.82 292.64 493.25 293.5 493.39 293.79 493.97 294.68 493.94 294.71 493.12 293.52 492.1"/><polygon class="cls-5" points="289.84 478.23 290.99 478.73 290.94 479.67 291.56 480.29 294.07 479.89 294.28 479.37 295.39 479.05 296.77 479.02 297.2 479.62 302.34 482.43 304.11 483.77 303.13 485.34 302.47 485.76 301.87 485.66 300.94 487.6 300.96 488.35 302.56 489.42 304.39 488 303.69 486.36 304.75 484.49 305.37 484.55 306.26 485.47 307.17 484.22 311.41 481.88 311.88 479.82 312.34 479.35 314.69 478.5 315 478 314.37 475.82 314.92 466.51 314 460.91 318.26 459.52 319.6 456.9 319.39 453.36 310.13 445.81 309.32 447.38 309.64 448.26 309.22 448.63 309.35 449.98 308.6 449.43 307.47 448.16 305.73 445.04 306.36 444.39 305.26 442.43 304.33 442.6 304.41 443.6 302.22 444.32 301.81 443.67 301.84 442.8 298.26 442.15 297.07 441.35 296.24 442.18 295.33 442.4 295.52 443.4 295.03 443.65 294.79 444.34 293.81 444.17 293.58 442.32 292.79 442.8 292.11 442.5 290.94 442.9 290.5 444.37 289.65 445.04 290.39 445.99 291.5 445.92 291.5 449.16 292.41 450.13 292.43 450.8 291.09 451.67 289.6 450.87 289.01 449.78 289.65 449.73 289.98 448.18 287.11 446.36 287.73 445.62 287.39 445.02 286.67 446.14 284.9 446.49 284.99 447.98 283.99 448.13 283.54 446.29 282.69 445.71 282.79 445.22 281.92 444.3 280.13 443.8 276.41 447.54 275.54 446.99 274.86 447.73 274.9 448.38 275.41 448.95 274.2 449.78 270.48 455.68 270.24 456.9 272.03 456.65 273.98 457.57 274.94 458.99 276.46 459.52 277.47 461.43 277.64 462.2 277.37 462.55 277.92 464.2 279.71 465.59 279.79 466.46 281.15 467.5 280.88 467.9 281.58 468.48 281.79 469.52 282.63 470.79 283.11 470.14 283.39 470.56 286.88 467.88 287.84 467.63 288.39 470.94 288.75 470.81 289.09 471.61 289.45 473.58 289.98 473.48 290.33 475.44 289.84 475.59 289.99 476.39 288.92 476.81 289.84 478.23"/><polygon class="cls-5" points="309.3 488.8 307.43 488.32 307 487.78 305.86 487.9 305.79 488.45 306.73 488.92 306.28 491.73 305.84 491.75 305.34 490.58 305.52 488.89 304.9 488.94 302.9 491.83 302.47 491.21 300.3 491.6 299.34 492.87 296.79 494.59 296.45 494.41 293.43 495.8 291.3 495.75 286.13 499.08 283.37 499.16 281.75 500.48 279.56 500.03 278.41 500.77 277.47 500.77 274.79 502.31 274.33 505.42 280.82 502.06 282.88 501.84 285.65 500.79 298.17 495.43 305.45 493.64 309.88 493.37 310.43 492.9 312.52 492.65 312.54 490.91 311.07 488.32 309.3 488.8"/><polygon class="cls-5" points="307.13 486.23 306.37 487.35 307.24 487.35 307.13 486.23"/><polygon class="cls-5" points="301.07 488.85 300.69 488.85 299.98 489.72 300.11 490.24 301.09 490.34 301.79 489.89 301.52 489.07 301.07 488.85"/><polygon class="cls-5" points="301.2 484.89 300.65 484.72 299.56 485.86 300.11 487.43 300.56 486.68 300.47 485.59 301.2 484.89"/><polygon class="cls-5" points="298.81 491.68 298.79 490.44 298.18 490.21 298 490.79 298.81 491.68"/><polygon class="cls-5" points="294.43 487.75 295.98 487.73 296.66 488.72 297.2 488.65 296.52 489.86 296.24 491.75 294.65 491.9 294.96 492.65 296.82 492.62 297.43 489.89 297.79 489.89 298.03 489.17 297.56 487.08 297.66 485.36 297.49 484.49 297.03 484.42 296.5 482.16 295.5 482.38 294.79 481.66 294.54 481.76 294.98 483.2 294.64 484.12 294.98 484.99 294.51 485.32 294.43 487.75"/><polygon class="cls-5" points="295.07 489.19 294.69 488.89 294.11 489.89 294.92 489.94 295.07 489.19"/><polygon class="cls-5" points="293.52 492.1 292.49 492.82 292.64 493.24 293.51 493.39 293.79 493.96 294.68 493.94 294.71 493.12 293.52 492.1"/><polygon class="cls-4" points="266.39 310.97 349.02 299.74 351.77 259.26 275.6 269.06 266.58 281.48 273.01 292.97 266.39 310.97"/><polygon class="cls-5" points="266.39 310.97 349.02 299.74 351.77 259.26 275.6 269.06 266.58 281.48 273.01 292.98 266.39 310.97"/><polygon class="cls-4" points="131.99 302 176.76 329.43 194.06 340.79 218.86 355.83 266.62 310.22 273.01 292.97 266.58 281.48 263.09 277.07 263.77 260.42 271.92 243.42 252.97 245.79 237.73 236.94 239.26 245.32 215.63 239.54 213.43 232.67 184.2 248.65 173.38 265.03 121.14 267.7 120.7 285 131.99 302"/><polygon class="cls-5" points="131.99 302 176.76 329.43 194.06 340.79 218.86 355.83 266.62 310.22 273.01 292.98 266.58 281.48 263.09 277.07 263.77 260.42 271.92 243.43 252.97 245.79 237.73 236.94 239.26 245.31 215.63 239.54 213.42 232.67 184.19 248.64 173.38 265.03 121.14 267.7 120.7 285 131.99 302"/><polygon class="cls-4" points="280.33 423.65 280.64 422.5 279.82 421.75 279.11 422.7 280 423.05 280.33 423.65"/><polygon class="cls-4" points="277 422.27 276.49 422.65 275.84 424.69 273.9 428.39 273.11 428.94 273.26 430.61 272.5 432.98 271.6 434.7 271.16 434.77 271.07 435.82 261.67 452.92 261.24 454.26 260.62 461.88 259.96 461.78 259.46 464.92 260.26 466.21 260.84 466.44 263.45 464.3 267.24 463.82 267.54 463.48 268.5 459.24 267.98 457.9 268.71 455.16 274.05 447.51 273.75 445.84 276.49 442.38 276.33 440.73 275.49 439.11 275.39 432.75 277.77 427.61 279.86 424.35 279.77 423.25 278.88 422.95 278.11 423.32 277.64 422.25 277 422.27"/><polygon class="cls-4" points="279 442.15 277.71 440.98 277.11 441.08 276.9 442.68 275.22 445.14 275.37 445.77 276.62 446.26 277.41 445.89 279.09 443.55 279.35 442.85 279 442.15"/><polygon class="cls-4" points="273.6 449.9 274.39 448.78 274.03 448.51 270.45 453.79 271.18 453.31 273.6 449.9"/><polygon class="cls-4" points="259.94 468.1 258.13 469.87 258.67 470.42 260.79 469.12 260.81 468.65 259.94 468.1"/><polygon class="cls-5" points="280.33 423.65 280.64 422.5 279.82 421.75 279.11 422.7 280 423.05 280.33 423.65"/><polygon class="cls-5" points="276.99 422.27 276.48 422.65 275.84 424.7 273.9 428.39 273.11 428.93 273.26 430.61 272.5 432.98 271.6 434.7 271.16 434.77 271.07 435.82 261.67 452.92 261.24 454.26 260.62 461.88 259.96 461.78 259.46 464.92 260.26 466.21 260.84 466.44 263.45 464.29 267.24 463.82 267.54 463.47 268.5 459.24 267.98 457.9 268.71 455.15 274.05 447.51 273.75 445.84 276.48 442.38 276.33 440.73 275.48 439.11 275.39 432.75 277.77 427.62 279.86 424.34 279.77 423.25 278.88 422.95 278.11 423.32 277.64 422.25 276.99 422.27"/><polygon class="cls-5" points="278.99 442.15 277.71 440.98 277.11 441.08 276.9 442.67 275.22 445.14 275.37 445.77 276.62 446.26 277.41 445.89 279.09 443.55 279.35 442.85 278.99 442.15"/><polygon class="cls-5" points="273.6 449.9 274.39 448.78 274.03 448.51 270.45 453.79 271.18 453.31 273.6 449.9"/><polygon class="cls-5" points="259.94 468.1 258.12 469.87 258.67 470.42 260.79 469.13 260.81 468.65 259.94 468.1"/><polygon class="cls-4" points="294.5 485.67 294.07 486.41 294.43 487.75 294.5 485.67"/><polygon class="cls-4" points="292.68 487.93 292.18 487.75 292.09 489.24 291.6 489.67 292.17 490.49 293.01 490.26 293.73 488.75 292.68 487.93"/><polygon class="cls-4" points="291.35 484.67 290.83 485.94 290.35 485.67 290.15 486.49 291.26 486.29 291.73 485.74 291.32 485.39 291.35 484.67"/><polygon class="cls-4" points="289.58 490.74 288.83 491.01 289.49 492.18 290.22 492.38 291.05 491.95 291.32 491.53 290.64 490.91 289.58 490.74"/><polygon class="cls-4" points="272.03 456.65 271.24 456.75 270.2 458.02 270.33 460.24 268.79 464.1 268.9 465.17 268.26 465.57 268.05 466.16 266.71 464.97 264.16 465.34 263.2 466.34 261.28 470.59 260.65 471.31 260.45 470.99 259.52 471.41 259.65 472.81 261.24 474.27 262.5 474.57 263.2 475.3 262.9 475.69 261.99 475.87 261.46 475.54 259.81 476.54 260.37 476.99 259.69 477.83 259.31 477.61 258.3 478.95 258.35 479.6 257.92 480.14 256.67 480.29 256.14 480.96 255.35 483.85 255.52 487.6 256.28 488.95 257.24 490.01 260.67 490.91 262.11 491.95 263.24 493.49 263.45 494.64 263.07 495.48 263.86 495.73 264.94 495.11 264.39 496.4 262.31 495.85 261.26 496.15 260.67 496.75 260.84 497.49 262.73 498.41 267.31 498.29 276.01 497.32 275.79 495.98 273.9 496.03 273.05 495.38 279.54 495.8 279.49 494.76 277.11 495.08 276.39 494.41 276.73 494.14 277.39 494.79 278.54 494.69 279.26 494.09 277.28 491.36 277.92 490.86 279 491.51 279.6 492.38 279.92 494.81 282.03 494.26 282.73 495.68 282.45 496.38 282.9 497.07 285.88 496.18 286.39 495.08 284.98 489.94 283.58 490.44 282.2 490.39 282.26 489.99 283.39 489.47 283.86 488.75 283.67 488 282.75 487.6 282.54 485.94 286.17 482.61 286.32 481.71 287.13 482.26 287.68 481.69 287.03 480.27 287.52 480.14 288.17 481.39 290.01 480.49 290.05 478.83 288.92 476.81 290 476.39 289.85 475.59 290.33 475.44 289.98 473.48 289.45 473.58 289.09 471.61 288.75 470.82 288.39 470.94 287.84 467.63 286.88 467.88 283.39 470.57 283.11 470.14 282.64 470.79 281.79 469.52 281.58 468.48 280.88 467.9 281.15 467.51 279.79 466.46 279.71 465.59 277.92 464.2 277.37 462.55 277.64 462.2 277.47 461.43 276.47 459.52 274.94 458.99 273.98 457.57 272.03 456.65"/><polygon class="cls-4" points="286.9 487.38 288.11 486.88 288.5 486.09 288.28 484.27 285.96 486.14 285.98 487.33 286.9 487.38"/><polygon class="cls-4" points="278.41 491.43 277.86 491.95 279.15 493.44 279.49 492.77 278.41 491.43"/><polygon class="cls-5" points="294.51 485.66 294.07 486.41 294.43 487.75 294.51 485.66"/><polygon class="cls-5" points="292.68 487.93 292.18 487.75 292.09 489.24 291.6 489.67 292.17 490.49 293.01 490.26 293.73 488.75 292.68 487.93"/><polygon class="cls-5" points="291.35 484.67 290.82 485.94 290.35 485.66 290.15 486.49 291.26 486.28 291.73 485.74 291.31 485.39 291.35 484.67"/><polygon class="cls-5" points="289.58 490.73 288.82 491.01 289.48 492.17 290.22 492.37 291.05 491.95 291.31 491.53 290.64 490.91 289.58 490.73"/><polygon class="cls-5" points="272.03 456.65 271.24 456.75 270.2 458.02 270.33 460.24 268.79 464.1 268.9 465.17 268.26 465.56 268.05 466.16 266.71 464.96 264.16 465.34 263.2 466.33 261.28 470.59 260.65 471.32 260.45 470.99 259.52 471.41 259.65 472.8 261.24 474.27 262.5 474.57 263.2 475.3 262.9 475.69 261.99 475.87 261.46 475.54 259.81 476.54 260.37 476.99 259.69 477.83 259.31 477.61 258.3 478.95 258.35 479.6 257.92 480.14 256.67 480.29 256.14 480.96 255.35 483.85 255.52 487.6 256.27 488.94 257.24 490.01 260.67 490.91 262.11 491.95 263.24 493.5 263.45 494.64 263.07 495.48 263.86 495.73 264.94 495.11 264.39 496.4 262.31 495.86 261.26 496.15 260.67 496.75 260.84 497.5 262.73 498.41 267.31 498.29 276.01 497.32 275.79 495.98 273.9 496.03 273.05 495.38 279.54 495.8 279.48 494.76 277.11 495.08 276.39 494.41 276.73 494.14 277.39 494.79 278.54 494.69 279.26 494.09 277.28 491.36 277.92 490.86 278.99 491.51 279.6 492.37 279.92 494.81 282.03 494.26 282.73 495.68 282.45 496.37 282.9 497.07 285.88 496.18 286.39 495.08 284.98 489.94 283.58 490.44 282.2 490.38 282.26 489.99 283.39 489.46 283.86 488.75 283.68 488 282.75 487.6 282.54 485.94 286.17 482.61 286.32 481.71 287.13 482.26 287.67 481.68 287.03 480.26 287.52 480.14 288.17 481.39 290.01 480.49 290.05 478.82 288.92 476.81 289.99 476.39 289.84 475.59 290.33 475.44 289.98 473.48 289.45 473.58 289.09 471.61 288.75 470.81 288.39 470.94 287.84 467.63 286.88 467.88 283.39 470.56 283.11 470.14 282.63 470.79 281.79 469.52 281.58 468.48 280.88 467.9 281.15 467.5 279.79 466.46 279.71 465.59 277.92 464.2 277.37 462.55 277.64 462.2 277.47 461.43 276.46 459.52 274.94 458.99 273.98 457.57 272.03 456.65"/><polygon class="cls-5" points="286.9 487.38 288.11 486.88 288.5 486.08 288.28 484.27 285.96 486.14 285.98 487.33 286.9 487.38"/><polygon class="cls-5" points="278.41 491.43 277.86 491.95 279.14 493.44 279.48 492.77 278.41 491.43"/><polygon class="cls-4" points="351.77 259.26 359.85 127.06 353.42 126.95 352.34 145.24 317.66 138.26 280.5 119.43 276.39 119.63 275.67 135.67 270.24 164.77 274.5 172.63 272.24 197.8 274.28 201.92 271.92 243.42 263.77 260.42 263.09 277.07 266.58 281.48 275.6 269.06 351.77 259.26"/><polygon class="cls-5" points="351.77 259.26 359.85 127.06 353.42 126.95 352.34 145.24 317.66 138.25 280.5 119.43 276.39 119.63 275.68 135.67 270.24 164.77 274.5 172.63 272.24 197.79 274.28 201.92 271.92 243.43 263.77 260.42 263.09 277.07 266.58 281.48 275.6 269.06 351.77 259.26"/></g><path class="cls-6" d="M452.35,151.15h5.24l4.64,12.8c.56,1.64,1.12,3.4,1.68,5.12h.15c.56-1.72,1.08-3.48,1.65-5.12l4.51-12.8h5.28v26.16h-4.28v-12c0-2.44.36-5.92.6-8.32h-.16l-2.12,6.08-4.27,11.76h-2.76l-4.32-11.76L456.11,157H456c.2,2.4.6,5.88.6,8.32v12h-4.2Z"/><path class="cls-6" d="M480.47,167.51c0-6.4,4.44-10.32,9-10.32,5.31,0,8.11,3.84,8.11,9.32a10.72,10.72,0,0,1-.2,2.24H485c.4,3.48,2.64,5.48,5.8,5.48a8.15,8.15,0,0,0,4.55-1.44l1.57,2.88a12.45,12.45,0,0,1-6.72,2.12C484.71,177.79,480.47,174,480.47,167.51Zm13.15-1.88c0-3-1.32-4.88-4-4.88-2.31,0-4.31,1.72-4.71,4.88Z"/><path class="cls-6" d="M502.31,170.67v-9.36h-2.8v-3.44l3-.2.56-5.36H507v5.36h5v3.64h-5v9.36c0,2.32.88,3.44,2.76,3.44a5.68,5.68,0,0,0,2-.44l.79,3.4a12.49,12.49,0,0,1-4,.72C504,177.79,502.31,174.91,502.31,170.67Z"/><path class="cls-6" d="M516.07,157.67h3.8l.32,3.48h.16c1.4-2.56,3.47-4,5.55-4a5,5,0,0,1,2.24.4l-.8,4a6.42,6.42,0,0,0-2-.32c-1.55,0-3.43,1.08-4.63,4v12h-4.6Z"/><path class="cls-6" d="M529.3,167.51c0-6.56,4.44-10.32,9.32-10.32S548,161,548,167.51s-4.44,10.28-9.36,10.28S529.3,174,529.3,167.51Zm14,0c0-4-1.76-6.56-4.64-6.56s-4.59,2.6-4.59,6.56,1.71,6.52,4.59,6.52S543.26,171.43,543.26,167.51Z"/><path class="cls-6" d="M561,151.15h4.76l8.15,14.72,2.68,5.56h.16c-.2-2.68-.6-6-.6-8.92V151.15h4.44v26.16h-4.76l-8.16-14.72L564.94,157h-.15c.19,2.76.59,5.92.59,8.84v11.44H561Z"/><path class="cls-6" d="M585.5,167.51c0-6.4,4.44-10.32,9-10.32,5.32,0,8.12,3.84,8.12,9.32a10.72,10.72,0,0,1-.2,2.24H590c.4,3.48,2.64,5.48,5.8,5.48a8.2,8.2,0,0,0,4.56-1.44l1.56,2.88a12.39,12.39,0,0,1-6.72,2.12C589.74,177.79,585.5,174,585.5,167.51Zm13.16-1.88c0-3-1.32-4.88-4-4.88-2.32,0-4.32,1.72-4.72,4.88Z"/><path class="cls-6" d="M605.1,157.67h4.64l2.36,10.2c.4,1.88.68,3.72,1,5.64h.16c.36-1.92.76-3.8,1.24-5.64l2.56-10.2h4.2l2.6,10.2c.48,1.88.88,3.72,1.32,5.64h.16c.36-1.92.68-3.76,1-5.64l2.36-10.2h4.32l-5,19.64h-5.48l-2.28-9.16c-.44-1.84-.76-3.64-1.2-5.72H619c-.36,2.08-.72,3.92-1.16,5.76l-2.24,9.12H610.3Z"/><path class="cls-6" d="M649.74,167.59l-7.84-16.44h5l2.84,6.68c.76,2,1.48,3.76,2.32,5.76h.16c.84-2,1.64-3.8,2.4-5.76l2.84-6.68h4.84l-7.88,16.44v9.72h-4.64Z"/><path class="cls-6" d="M661.82,167.51c0-6.56,4.44-10.32,9.32-10.32s9.36,3.76,9.36,10.32-4.44,10.28-9.36,10.28S661.82,174,661.82,167.51Zm14,0c0-4-1.76-6.56-4.64-6.56s-4.6,2.6-4.6,6.56,1.72,6.52,4.6,6.52S675.78,171.43,675.78,167.51Z"/><path class="cls-6" d="M685.06,157.67h3.8l.32,3.48h.16c1.4-2.56,3.48-4,5.56-4a5,5,0,0,1,2.24.4l-.8,4a6.42,6.42,0,0,0-2-.32c-1.56,0-3.44,1.08-4.64,4v12h-4.6Z"/><path class="cls-6" d="M700,149.07h4.52v17.64h.12l7.28-9h5l-6.72,8,7.4,11.64h-5l-5-8.52-3.08,3.52v5H700Z"/><path class="cls-6" d="M548.34,190.41h4.2c4.8,0,7.64,2.59,7.64,7.77s-2.84,7.93-7.49,7.93h-4.35Zm4,13.44c3.17,0,5-1.8,5-5.67s-1.8-5.52-5-5.52h-1.22v11.19Z"/><path class="cls-6" d="M562.79,190.7a1.71,1.71,0,1,1,1.71,1.56A1.59,1.59,0,0,1,562.79,190.7Zm.31,3.62h2.76v11.79H563.1Z"/><path class="cls-6" d="M568.21,204.76l1.3-1.77a5.3,5.3,0,0,0,3.27,1.32c1.27,0,1.87-.6,1.87-1.42,0-1-1.27-1.42-2.52-1.9-1.56-.57-3.32-1.46-3.32-3.43s1.66-3.53,4.3-3.53a6.33,6.33,0,0,1,3.91,1.42l-1.27,1.68a4.36,4.36,0,0,0-2.59-1c-1.18,0-1.73.55-1.73,1.3,0,.93,1.18,1.29,2.45,1.75,1.61.6,3.38,1.37,3.38,3.58,0,2-1.6,3.64-4.58,3.64A7.47,7.47,0,0,1,568.21,204.76Z"/><path class="cls-6" d="M579.66,202.12V196.5H578v-2.06l1.83-.12.33-3.22h2.31v3.22h3v2.18h-3v5.62c0,1.39.53,2.07,1.65,2.07a3.3,3.3,0,0,0,1.23-.27l.48,2a7.46,7.46,0,0,1-2.4.43C580.67,206.39,579.66,204.67,579.66,202.12Z"/><path class="cls-6" d="M587.92,194.32h2.28l.19,2.09h.1a4,4,0,0,1,3.33-2.38,3,3,0,0,1,1.35.24l-.48,2.4a3.87,3.87,0,0,0-1.23-.19c-.93,0-2.06.65-2.78,2.42v7.21h-2.76Z"/><path class="cls-6" d="M596.56,190.7a1.71,1.71,0,1,1,1.7,1.56A1.59,1.59,0,0,1,596.56,190.7Zm.31,3.62h2.76v11.79h-2.76Z"/><path class="cls-6" d="M602.39,200.23a5.82,5.82,0,0,1,5.9-6.2,5.08,5.08,0,0,1,3.46,1.32l-1.34,1.8a2.91,2.91,0,0,0-2-.86c-1.9,0-3.22,1.56-3.22,3.94s1.3,3.91,3.15,3.91a3.93,3.93,0,0,0,2.42-1l1.13,1.82a5.88,5.88,0,0,1-3.84,1.44C604.86,206.39,602.39,204.14,602.39,200.23Z"/><path class="cls-6" d="M614.41,202.12V196.5h-1.68v-2.06l1.83-.12.33-3.22h2.31v3.22h3v2.18h-3v5.62c0,1.39.53,2.07,1.66,2.07a3.29,3.29,0,0,0,1.22-.27l.48,2a7.41,7.41,0,0,1-2.4.43C615.42,206.39,614.41,204.67,614.41,202.12Z"/></g><g id="Outline"><polyline class="cls-7" points="309.49 495.23 310.43 492.9 312.52 492.65 312.54 490.91 311.07 488.32 309.3 488.8 306.37 487.35 311.41 481.88 311.88 479.82 315 478 314.37 475.82 314.92 466.51 314 460.91 318.26 459.52 319.6 456.9 319.39 453.36 310.13 445.81 314.11 424.92"/></g><g id="Bullseye_Location_s_" data-name="Bullseye/Location(s)"><circle class="cls-8" cx="262.05" cy="463.93" r="29.28"/><circle class="cls-9" cx="262.05" cy="463.93" r="9.02"/><circle class="cls-9" cx="405.74" cy="439.91" r="9.02"/></g></svg>