<svg xmlns="http://www.w3.org/2000/svg" xmlns:xlink="http://www.w3.org/1999/xlink" viewBox="0 0 781.32 496.46"><defs><style>.cls-1,.cls-10,.cls-2,.cls-3,.cls-8{fill:none;}.cls-2{fill-rule:evenodd;}.cls-3{clip-rule:evenodd;}.cls-4{fill:#e6e6e6;}.cls-5{clip-path:url(#clip-path-2);}.cls-6{clip-path:url(#clip-path-3);}.cls-7,.cls-9{fill:#007dbc;}.cls-7{opacity:0.8;}.cls-8{stroke:#0675af;stroke-linejoin:bevel;stroke-width:0.64px;}.cls-9{opacity:0.8;}.cls-10,.cls-11{stroke:#fff;stroke-miterlimit:10;}.cls-10{stroke-width:3px;}.cls-11{fill:#fff;}</style><clipPath id="clip-path"><path class="cls-3" d="M36,513.54"/></clipPath><clipPath id="clip-path-2"><rect class="cls-1" x="-7.62" y="-54.2" width="792" height="612"/></clipPath><clipPath id="clip-path-3"><polyline class="cls-3" points="36 -10.57 718.94 -10.57 718.94 513.54 36 513.54"/></clipPath></defs><g id="Layer_1" data-name="Layer 1"><rect class="cls-4" x="-16.21" y="-6.23" width="813.74" height="570"/></g><g id="Layer_2" data-name="Layer 2"><g class="cls-5"><g class="cls-6"><polygon class="cls-7" points="456.91 237.43 454.5 242.36 458.74 244.23 459.47 250.08 464.02 248.62 470.96 222.19 468.35 217.55 469.13 216.07 464.17 216.3 462.74 214.01 451.36 219.62 451.27 222.2 454.38 225.67 452.5 229.11 454.06 231.07 454.71 236.19 456.91 237.43"/><polygon class="cls-8" points="456.91 237.43 454.5 242.36 458.74 244.23 459.47 250.08 464.02 248.62 470.96 222.19 468.35 217.54 469.13 216.07 464.17 216.3 462.74 214.01 451.36 219.62 451.27 222.2 454.38 225.67 452.5 229.11 454.06 231.06 454.71 236.19 456.91 237.43"/><polygon class="cls-7" points="561 271.66 563.28 273.65 566.86 271.77 568.72 267.03 571.75 265.33 576.67 267.92 583.35 268.44 582.25 264 580.13 260.91 576.37 259.3 577.12 257.28 572.08 253.56 568.28 253 563.22 248.58 559.82 252.32 552.11 252.35 545.83 263.61 553.29 268.73 561 271.66"/><polygon class="cls-8" points="561 271.66 563.28 273.65 566.86 271.77 568.72 267.03 571.75 265.32 576.67 267.91 583.35 268.44 582.25 264 580.13 260.9 576.37 259.3 577.12 257.28 572.08 253.56 568.28 253 563.22 248.58 559.82 252.32 552.11 252.35 545.83 263.61 553.29 268.73 561 271.66"/><polygon class="cls-7" points="497.76 342.7 495.63 348.25 495.81 353.9 492.96 356.31 493.45 359.75 495.64 361.86 496.92 370.37 503.43 378.81 527.65 379.26 525.48 373.75 531.98 369.12 525.38 365.06 523.27 357.44 516.76 352.23 514.26 341.81 509.63 340.59 507.13 343.4 500.88 341.86 497.76 342.7"/><polygon class="cls-8" points="497.76 342.7 495.63 348.25 495.81 353.9 492.96 356.31 493.45 359.75 495.64 361.85 496.92 370.37 503.43 378.81 527.65 379.25 525.48 373.75 531.98 369.12 525.38 365.06 523.27 357.44 516.76 352.23 514.26 341.81 509.63 340.58 507.13 343.39 500.88 341.86 497.76 342.7"/><polygon class="cls-7" points="211.58 298.37 210.6 301.27 228.54 289.83 236.18 287.3 246.39 278.69 244.93 276.89 237.76 275.67 236.56 270.72 217.04 271.68 200.84 287.98 199.93 289.6 201.12 295.32 203.24 296.39 208.13 294.47 208.08 298.77 211.58 298.37"/><polygon class="cls-8" points="211.58 298.37 210.6 301.27 228.54 289.83 236.18 287.3 246.39 278.69 244.93 276.89 237.76 275.67 236.56 270.72 217.04 271.68 200.84 287.98 199.93 289.6 201.12 295.32 203.24 296.39 208.13 294.46 208.08 298.77 211.58 298.37"/><polygon class="cls-7" points="435.09 351.65 439.99 362.11 438.68 365.99 440.21 370.19 440.37 375.45 442.4 376.43 458.46 377.67 468.75 360.88 474.69 356.18 473.38 353.85 474.78 350.79 471.2 347.53 466.52 339.17 459.1 341.54 457.98 339.41 453.78 337.47 447.85 342.78 445.23 341.18 443.48 345.79 435.09 351.65"/><polygon class="cls-8" points="435.09 351.65 439.99 362.11 438.68 365.99 440.21 370.19 440.37 375.45 442.4 376.43 458.46 377.67 468.75 360.88 474.69 356.18 473.38 353.85 474.78 350.79 471.2 347.53 466.52 339.16 459.1 341.54 457.98 339.41 453.78 337.47 447.85 342.78 445.23 341.18 443.48 345.79 435.09 351.65"/><polygon class="cls-7" points="407.56 262.15 409.81 267.98 412.52 270.3 419.3 272.42 437.86 272.4 440.28 249.34 437.85 245.5 431.6 245.3 430.15 242.92 427.85 244.88 424 244.79 423.69 250.16 420.44 249.77 415.93 251.67 415.33 255.14 411.23 256.74 411.46 259.37 407.56 262.15"/><polygon class="cls-8" points="407.56 262.14 409.81 267.98 412.52 270.3 419.3 272.42 437.86 272.4 440.28 249.34 437.85 245.5 431.6 245.3 430.15 242.92 427.85 244.88 424 244.79 423.69 250.16 420.44 249.77 415.93 251.67 415.33 255.14 411.23 256.74 411.46 259.37 407.56 262.14"/><polygon class="cls-7" points="303.59 337.24 311.04 354.56 325.95 356.9 325.53 360.06 337.17 350.19 336.77 348.23 341.25 347.06 342.39 343.8 345.05 343.96 349.4 330.96 342.97 329.37 340.83 326.54 335.67 328.92 326.07 319.82 324.73 321.56 320.52 321.51 318.31 317.79 315.73 319.03 310.02 318.26 308.59 321.23 303.59 337.24"/><polygon class="cls-8" points="303.59 337.24 311.04 354.55 325.95 356.9 325.53 360.06 337.17 350.19 336.77 348.23 341.25 347.06 342.39 343.79 345.05 343.96 349.4 330.96 342.97 329.36 340.83 326.54 335.67 328.91 326.07 319.82 324.73 321.56 320.52 321.51 318.3 317.79 315.73 319.03 310.02 318.26 308.59 321.22 303.59 337.24"/><polygon class="cls-7" points="184.46 278.27 189.72 283.31 190.34 285.38 192.65 284.47 194.05 281.07 198.26 288.99 200.84 287.98 217.04 271.68 215.38 268.29 215.31 262.5 213.92 258.43 210.44 258.87 201.3 244.46 200.27 247.35 202.3 249.85 202.92 254.24 199.88 257.53 193.06 255.06 190.14 261.32 185.35 264.3 182.33 269.25 184.46 278.27"/><polygon class="cls-8" points="184.46 278.27 189.72 283.31 190.34 285.38 192.65 284.47 194.05 281.07 198.26 288.99 200.84 287.98 217.04 271.68 215.38 268.29 215.31 262.5 213.92 258.43 210.44 258.87 201.3 244.46 200.27 247.34 202.3 249.85 202.92 254.24 199.88 257.53 193.06 255.06 190.14 261.32 185.35 264.3 182.33 269.25 184.46 278.27"/><polygon class="cls-7" points="404.96 179.79 409.31 180.35 414.69 183.06 417.56 182.71 426.58 173.35 423.05 173.91 421.6 169.03 413.13 157.59 406.77 157.52 403.41 160.42 405.36 173.28 406.37 177.44 404.96 179.79"/><polygon class="cls-8" points="404.96 179.79 409.31 180.35 414.69 183.06 417.56 182.7 426.58 173.35 423.05 173.91 421.6 169.02 413.13 157.59 406.77 157.52 403.41 160.41 405.36 173.28 406.37 177.43 404.96 179.79"/><polygon class="cls-7" points="182.5 350.79 186.31 363.05 189.59 370.06 207.63 371.52 207.34 374.63 220.33 374.23 222 362.08 222.13 349.61 223.08 340.6 217.11 337.01 214.55 339.8 206.94 342.26 205.4 341.25 195.36 346.34 182.5 350.79"/><polygon class="cls-8" points="182.5 350.79 186.31 363.05 189.59 370.06 207.63 371.52 207.34 374.63 220.33 374.23 222 362.08 222.13 349.61 223.08 340.6 217.11 337.01 214.55 339.8 206.94 342.26 205.4 341.25 195.36 346.34 182.5 350.79"/><polygon class="cls-7" points="249.58 373.78 272.04 373.61 272.67 330.98 267.39 332.64 256.59 333.08 255.76 329.91 249.58 373.78"/><polygon class="cls-8" points="249.58 373.78 272.04 373.61 272.67 330.98 267.39 332.64 256.59 333.08 255.76 329.91 249.58 373.78"/><polygon class="cls-7" points="411.52 317.51 414.63 312.61 418.17 310.5 424.63 309.33 424.97 305.74 426.85 305.4 429.62 297.83 434.3 294.8 429.81 290.73 426.32 289.51 421.87 291.76 420.19 294.14 414.18 291.03 412.52 289.04 404.06 288.34 402.27 289.47 399.24 287.8 397.17 290.63 392.67 289.02 392.55 292.83 401.28 299.93 411.52 317.51"/><polygon class="cls-8" points="411.52 317.51 414.63 312.61 418.17 310.5 424.63 309.33 424.97 305.74 426.85 305.4 429.62 297.83 434.3 294.8 429.81 290.73 426.32 289.51 421.87 291.76 420.19 294.14 414.18 291.03 412.52 289.04 404.06 288.34 402.27 289.47 399.24 287.8 397.17 290.63 392.67 289.01 392.55 292.83 401.28 299.93 411.52 317.51"/><polygon class="cls-7" points="400.19 235.06 407.69 240.5 426.63 237.17 426.5 234.52 429.62 234.72 431.96 230.44 421.33 225 405.7 218.98 405.3 222.02 401.75 224.83 398.53 232.91 400.19 235.06"/><polygon class="cls-8" points="400.19 235.06 407.69 240.5 426.63 237.17 426.5 234.52 429.62 234.71 431.96 230.44 421.33 225 405.7 218.98 405.3 222.02 401.75 224.83 398.53 232.91 400.19 235.06"/><polygon class="cls-7" points="296.34 373.03 310.46 372.67 312.63 374.58 317.22 372.65 325.07 372.83 324.46 370.02 325.95 356.9 311.04 354.56 308.73 349.19 305.1 349.87 302.27 353.14 297.32 365.07 296.34 373.03"/><polygon class="cls-8" points="296.34 373.03 310.46 372.67 312.63 374.57 317.22 372.65 325.07 372.83 324.46 370.01 325.95 356.9 311.04 354.55 308.73 349.19 305.1 349.87 302.27 353.14 297.32 365.06 296.34 373.03"/><polygon class="cls-7" points="402.19 204.65 407.25 206.91 405.7 218.98 421.33 225 431.96 230.44 436.43 226.77 436.54 222.81 438.38 220.9 439.72 216.04 440.42 205.74 443.85 199.78 417.22 197.09 413.82 202.08 405.41 202.75 402.19 204.65"/><polygon class="cls-8" points="402.19 204.65 407.25 206.91 405.7 218.98 421.33 225 431.96 230.44 436.43 226.77 436.54 222.81 438.38 220.9 439.72 216.04 440.42 205.74 443.85 199.78 417.22 197.09 413.82 202.08 405.41 202.75 402.19 204.65"/><polygon class="cls-7" points="461.53 197.69 462.74 214.01 464.17 216.3 469.13 216.07 468.35 217.55 470.96 222.19 471.31 220.85 489.18 212.72 485.84 204.89 486.54 202.41 484.74 199.33 483.26 192.69 478.86 189.25 476.48 183.02 471.1 189.46 461.53 197.69"/><polygon class="cls-8" points="461.53 197.69 462.74 214.01 464.17 216.3 469.13 216.07 468.35 217.54 470.96 222.19 471.31 220.85 489.18 212.72 485.84 204.88 486.54 202.41 484.74 199.33 483.26 192.69 478.86 189.25 476.48 183.02 471.1 189.46 461.53 197.69"/><polygon class="cls-7" points="421.38 344.88 417.86 347.65 421.05 352.21 422.73 352.06 421.5 348.68 430.64 354.85 443.48 345.79 445.23 341.18 447.85 342.78 453.78 337.47 448.02 332.38 448.41 325.34 444.05 326.75 436.75 318.16 426.76 333.81 423.51 337.57 421.38 344.88"/><polygon class="cls-8" points="421.38 344.88 417.86 347.65 421.05 352.21 422.73 352.07 421.5 348.68 430.64 354.85 443.48 345.79 445.23 341.18 447.85 342.78 453.78 337.47 448.02 332.38 448.41 325.34 444.05 326.74 436.75 318.16 426.76 333.81 423.51 337.57 421.38 344.88"/><polygon class="cls-7" points="551.77 214.82 555.42 216.66 553.08 218.31 554.28 221.45 555.84 219.22 561.58 223.06 560.02 224.42 565.65 225.55 562.89 228.97 564.54 230.96 568.22 230.75 573.37 227.07 578.85 224.96 582.05 222.49 585.45 220.59 586.9 216.08 583.71 214.32 581.88 214.4 578.59 210.88 578.51 208.11 575.78 201.1 569.61 193.11 566.67 194.62 562.83 198.03 563.79 200.58 561.68 203.89 562.25 206.34 551.77 214.82"/><polygon class="cls-8" points="551.77 214.82 555.42 216.66 553.08 218.31 554.28 221.45 555.84 219.22 561.58 223.06 560.02 224.42 565.65 225.55 562.89 228.97 564.54 230.96 568.22 230.74 573.37 227.07 578.85 224.96 582.05 222.49 585.45 220.59 586.9 216.08 583.71 214.31 581.88 214.4 578.59 210.87 578.51 208.11 575.78 201.1 569.61 193.11 566.67 194.62 562.84 198.03 563.79 200.58 561.68 203.89 562.25 206.34 551.77 214.82"/><polygon class="cls-7" points="480.91 303.55 498.4 321.65 497.57 319.71 501.52 312.65 504.21 312.26 504.36 308.51 509.88 306.22 510.73 304.43 511.44 300.61 508.17 297.73 508.98 294.43 505.31 286.93 505.71 283.57 500.05 284.32 497.18 282.05 493.59 281.9 491.37 288.72 485.51 287.39 480.91 303.55"/><polygon class="cls-8" points="480.91 303.55 498.4 321.65 497.57 319.71 501.52 312.65 504.21 312.26 504.36 308.51 509.88 306.22 510.73 304.43 511.44 300.61 508.17 297.73 508.98 294.43 505.31 286.93 505.71 283.57 500.05 284.32 497.18 282.05 493.59 281.9 491.37 288.72 485.51 287.39 480.91 303.55"/><polygon class="cls-7" points="508.78 176.67 507.04 182.62 513.62 186.51 515.91 186.73 522.01 190.26 523.61 188.63 527.68 183.09 525.17 178.85 524.56 173.66 522.67 172.51 519.25 173.63 516.35 171.42 510.02 177.09 508.78 176.67"/><polygon class="cls-8" points="508.78 176.67 507.04 182.62 513.62 186.51 515.91 186.73 522.01 190.25 523.61 188.63 527.68 183.09 525.17 178.85 524.56 173.66 522.67 172.51 519.25 173.63 516.35 171.42 510.03 177.09 508.78 176.67"/><polygon class="cls-7" points="448.41 325.34 448.02 332.38 453.78 337.47 457.98 339.41 459.1 341.54 466.52 339.17 471.2 347.53 474.78 350.79 487.95 342.66 492.92 341.26 493.54 338.25 496.17 337.2 495.48 330.28 498.7 328.13 498.4 321.65 480.91 303.55 476.55 300.75 463.13 312.82 448.41 325.34"/><polygon class="cls-8" points="448.41 325.34 448.02 332.38 453.78 337.47 457.98 339.41 459.1 341.54 466.52 339.16 471.2 347.53 474.78 350.79 487.95 342.66 492.92 341.26 493.54 338.25 496.17 337.2 495.48 330.28 498.7 328.13 498.4 321.65 480.91 303.55 476.55 300.75 463.13 312.82 448.41 325.34"/><polygon class="cls-7" points="521.83 251.08 524.99 250.26 524.96 254.95 529.66 259.19 532.97 259.93 535.85 258.57 536.59 260.61 540.24 259.16 544.68 263.62 545.83 263.61 552.11 252.35 541.9 244.67 540.86 242.73 537.05 244.35 531.9 244.11 524.72 241.41 522.67 242.75 521.83 251.08"/><polygon class="cls-8" points="521.83 251.08 524.99 250.26 524.96 254.94 529.66 259.19 532.97 259.92 535.85 258.57 536.59 260.61 540.24 259.16 544.68 263.62 545.83 263.61 552.11 252.35 541.9 244.67 540.86 242.73 537.05 244.34 531.9 244.11 524.72 241.41 522.67 242.75 521.83 251.08"/><polygon class="cls-7" points="625.48 309.4 630.46 313.95 633.94 311.84 639.14 317.14 649.4 311.91 656.29 310.05 687.9 282.03 674.38 280.42 674.53 276.29 671.9 273.54 668.18 273.03 665.64 269.25 661.11 266.64 658.09 261.05 654.69 261.21 651.57 264.09 653.76 265.55 648.1 268.56 642.81 265.9 635.11 268.39 636.45 271.25 634.38 285.52 636.1 285.31 637.58 289.3 635.93 295.15 631.86 298.29 630.41 305.8 625.48 309.4"/><polygon class="cls-8" points="625.48 309.4 630.46 313.94 633.94 311.84 639.14 317.13 649.4 311.9 656.28 310.05 687.9 282.02 674.38 280.42 674.53 276.29 671.9 273.54 668.18 273.03 665.64 269.25 661.11 266.64 658.09 261.05 654.69 261.2 651.57 264.09 653.76 265.55 648.1 268.55 642.81 265.9 635.11 268.39 636.45 271.25 634.38 285.52 636.1 285.31 637.58 289.3 635.93 295.14 631.86 298.29 630.41 305.8 625.48 309.4"/><polygon class="cls-7" points="558.91 302.92 558.6 307.84 562.15 313.03 564.17 311.42 564.73 307.68 568.38 307.48 570.84 304.98 574.81 306.69 577.14 314.11 582.86 316.31 586.66 319.34 585.07 323.19 589.97 326.74 588.79 335.09 593.68 337.1 598.89 335.64 597.77 332.9 600.32 329.02 598.63 325.3 600.52 320.28 603.65 317.15 599.24 315.15 598.23 312.17 595.33 313.11 593.37 310.97 594.63 306.59 593.45 295.66 587.34 294.7 586.08 291.76 581.62 296.33 574.39 299.66 571.09 302.69 566.56 298.44 564.73 298.5 562.47 302.16 558.91 302.92"/><polygon class="cls-8" points="558.91 302.92 558.6 307.84 562.15 313.03 564.17 311.42 564.73 307.68 568.38 307.48 570.84 304.98 574.81 306.69 577.14 314.11 582.86 316.31 586.66 319.34 585.07 323.19 589.97 326.74 588.79 335.08 593.68 337.1 598.89 335.64 597.77 332.9 600.32 329.02 598.63 325.3 600.52 320.28 603.65 317.15 599.24 315.15 598.23 312.17 595.33 313.1 593.37 310.97 594.63 306.59 593.45 295.66 587.34 294.7 586.08 291.76 581.62 296.33 574.39 299.66 571.09 302.69 566.56 298.44 564.73 298.5 562.47 302.16 558.91 302.92"/><polygon class="cls-7" points="478.68 151.74 483.09 177.82 484.97 179.07 489.28 175.94 505.22 173.7 502.71 148.58 503.17 148.05 503.05 143.09 490.35 149.64 478.68 151.74"/><polygon class="cls-8" points="478.68 151.74 483.09 177.82 484.97 179.07 489.28 175.94 505.22 173.69 502.71 148.58 503.17 148.05 503.05 143.09 490.35 149.64 478.68 151.74"/><polygon class="cls-7" points="531.36 284.13 531.49 288.25 534.24 291.27 537.34 299.29 539.54 301.48 548.54 302.43 550.37 300.58 554.86 307.28 560.58 310.72 558.6 307.84 559.89 294.17 558.78 289.42 556.35 285.27 552.81 284.79 552.17 282.07 548.1 284.68 543.88 283.75 542.98 286.5 535.84 287.25 531.36 284.13"/><polygon class="cls-8" points="531.36 284.13 531.49 288.25 534.24 291.27 537.34 299.29 539.54 301.47 548.54 302.43 550.37 300.58 554.86 307.28 560.58 310.71 558.6 307.84 559.89 294.17 558.78 289.42 556.35 285.27 552.81 284.79 552.17 282.07 548.1 284.68 543.88 283.75 542.98 286.5 535.84 287.24 531.36 284.13"/><polygon class="cls-7" points="450.88 197.25 457.22 199.12 461.53 197.69 471.1 189.46 474.58 185.13 470.76 183.77 466.36 176.06 458.75 169.89 457.82 159.28 446.4 164.19 445.69 165.35 442.3 168.13 439 168.61 434.29 172.17 440.1 176.66 438.73 181.9 442.11 181.04 441.15 183.58 443.95 185.18 443.33 188.74 450.14 190.8 448.64 193.81 450.88 197.25"/><polygon class="cls-8" points="450.88 197.25 457.22 199.12 461.53 197.69 471.1 189.46 474.58 185.13 470.76 183.77 466.36 176.06 458.75 169.89 457.82 159.27 446.4 164.19 445.69 165.35 442.3 168.13 439 168.6 434.29 172.17 440.1 176.66 438.73 181.9 442.11 181.04 441.15 183.58 443.95 185.18 443.32 188.74 450.14 190.8 448.64 193.81 450.88 197.25"/><polygon class="cls-7" points="402.19 204.65 405.41 202.75 413.82 202.08 417.22 197.09 413.78 192.31 412.07 186.49 414.69 183.06 409.31 180.35 404.96 179.79 401.59 181.86 399.59 185.6 393.22 187.21 389.63 190.27 388.2 194.75 402.19 204.65"/><polygon class="cls-8" points="402.19 204.65 405.41 202.75 413.82 202.08 417.22 197.09 413.78 192.31 412.07 186.49 414.69 183.06 409.31 180.35 404.96 179.79 401.59 181.86 399.59 185.6 393.22 187.21 389.63 190.26 388.2 194.75 402.19 204.65"/><polygon class="cls-7" points="285.22 315.48 290.96 308.39 291.99 303.58 295.36 303.8 296.65 306.06 308.69 296.69 304.43 280.05 307.66 279.18 309.82 282.02 310.26 279.29 306.33 273.65 306.51 269.25 291.42 261.4 287.89 264.39 291.93 268 283.9 272.71 280.85 272.7 273.89 279.66 268.57 287.88 269.12 298.81 265.78 302.75 267.77 303.99 271.27 299.28 274.51 300.01 278.19 304.61 278.32 309.24 285.22 315.48"/><polygon class="cls-8" points="285.23 315.47 290.96 308.39 291.99 303.58 295.36 303.8 296.65 306.06 308.69 296.69 304.43 280.05 307.66 279.18 309.82 282.01 310.26 279.29 306.33 273.65 306.51 269.25 291.42 261.4 287.89 264.39 291.93 268 283.9 272.71 280.85 272.7 273.89 279.66 268.57 287.88 269.12 298.8 265.78 302.75 267.77 303.99 271.27 299.28 274.51 300.01 278.19 304.61 278.32 309.24 285.23 315.47"/><polygon class="cls-7" points="523.77 214.33 534.4 203.46 535.53 201.43 532.47 196.75 528.95 196.69 526.12 190.32 523.61 188.63 522.01 190.26 515.91 186.73 513.62 186.51 506.13 195.66 508.42 197.42 512.18 205.7 515.5 205.93 516.87 209.88 524.49 212.54 523.77 214.33"/><polygon class="cls-8" points="523.77 214.32 534.4 203.46 535.53 201.43 532.47 196.75 528.95 196.69 526.12 190.32 523.61 188.63 522.01 190.25 515.91 186.73 513.62 186.51 506.13 195.66 508.42 197.42 512.18 205.7 515.5 205.93 516.87 209.88 524.49 212.54 523.77 214.32"/><polygon class="cls-7" points="380.08 253.76 380.19 256.92 384.45 259.77 384.77 261.98 388.54 265.92 392.02 266.15 391.2 271.53 392.96 272.87 390.34 274.82 390.93 279.12 389.45 280.57 394.22 283.56 396.13 279.46 397.76 280.34 403.53 266.76 407.56 262.15 411.46 259.37 411.23 256.74 415.33 255.14 415.93 251.67 420.44 249.77 423.69 250.16 424 244.79 427.85 244.88 426.63 237.17 407.69 240.5 400.19 235.06 396.71 237.88 395.49 241.72 392.49 243.82 393.27 246.19 387.96 251.35 384.52 253.39 380.08 253.76"/><polygon class="cls-8" points="380.08 253.76 380.19 256.92 384.45 259.77 384.77 261.98 388.54 265.92 392.02 266.15 391.2 271.52 392.96 272.86 390.34 274.82 390.93 279.12 389.45 280.57 394.22 283.56 396.13 279.46 397.76 280.34 403.53 266.76 407.56 262.14 411.46 259.37 411.23 256.74 415.33 255.14 415.93 251.67 420.44 249.77 423.69 250.16 424 244.79 427.85 244.88 426.63 237.17 407.69 240.5 400.19 235.06 396.71 237.88 395.49 241.72 392.49 243.82 393.27 246.19 387.96 251.35 384.52 253.38 380.08 253.76"/><polygon class="cls-7" points="249.76 321.14 251.45 325.82 253.77 326.14 255.76 329.91 256.59 333.08 267.39 332.64 272.67 330.98 278.94 329.67 281.81 330.14 285.67 328.1 285.08 323.42 283.24 322.6 283.55 319.15 285.61 318.93 285.22 315.48 278.32 309.24 278.19 304.61 274.51 300.01 271.27 299.28 267.77 303.99 265.78 302.75 269.12 298.81 268.86 294.55 263.06 294.82 259.81 298.15 252.85 297.06 248.73 305.5 246.11 305.23 245.41 311.07 248.8 315.53 251.82 317.22 249.76 321.14"/><polygon class="cls-8" points="249.76 321.14 251.45 325.82 253.77 326.14 255.76 329.91 256.59 333.08 267.39 332.64 272.67 330.98 278.94 329.67 281.81 330.14 285.67 328.1 285.08 323.42 283.24 322.6 283.55 319.15 285.61 318.93 285.23 315.47 278.32 309.24 278.19 304.61 274.51 300.01 271.27 299.28 267.77 303.99 265.78 302.75 269.12 298.8 268.86 294.55 263.06 294.82 259.81 298.15 252.85 297.06 248.73 305.5 246.11 305.22 245.41 311.07 248.8 315.52 251.82 317.22 249.76 321.14"/><polygon class="cls-7" points="563.22 248.58 568.28 253 572.08 253.56 577.12 257.28 576.37 259.3 580.13 260.91 582.25 264 583.78 260.74 581.72 258.56 586.69 252.99 594.4 248.35 592.92 245.39 596.42 245.65 599.18 247.74 600.83 246.04 603.26 248.85 604.64 245.56 606.83 245.18 604.56 238.01 602.33 237.03 601.84 233.54 599.7 234.63 595.34 233.28 591.84 234.64 587.76 233.17 585.46 229.73 581.78 228.15 582.05 222.49 578.85 224.96 573.37 227.07 568.22 230.75 567.37 240.25 563.14 245.6 563.22 248.58"/><polygon class="cls-8" points="563.22 248.58 568.28 253 572.08 253.56 577.12 257.28 576.37 259.3 580.13 260.9 582.25 264 583.78 260.74 581.72 258.56 586.69 252.99 594.4 248.35 592.92 245.39 596.42 245.65 599.18 247.74 600.83 246.04 603.26 248.84 604.64 245.56 606.83 245.18 604.56 238.01 602.33 237.02 601.84 233.54 599.7 234.63 595.34 233.27 591.84 234.64 587.76 233.17 585.46 229.73 581.78 228.15 582.05 222.49 578.85 224.96 573.37 227.07 568.22 230.74 567.37 240.25 563.14 245.6 563.22 248.58"/><polygon class="cls-7" points="515.39 222.36 524.72 241.41 531.9 244.11 537.05 244.35 540.86 242.73 540.43 235.28 541.62 234.4 538.19 229.98 536.61 225.85 531.66 220.11 524.32 217.71 523.77 214.33 522.8 216.11 515.39 222.36"/><polygon class="cls-8" points="515.39 222.36 524.72 241.41 531.9 244.11 537.05 244.34 540.86 242.73 540.43 235.28 541.62 234.4 538.19 229.98 536.61 225.85 531.66 220.11 524.32 217.71 523.77 214.32 522.8 216.11 515.39 222.36"/><polygon class="cls-7" points="360.56 365.51 362.83 371.8 360.7 375.09 399.5 376.49 404.67 376.13 399.76 368.77 401.92 364.83 397.95 364.57 396.31 360.46 392.27 359.95 391.65 355.79 390.27 354.3 379.97 353.41 374.43 355.43 360.56 365.51"/><polygon class="cls-8" points="360.56 365.51 362.83 371.8 360.7 375.08 399.5 376.49 404.67 376.13 399.76 368.77 401.92 364.83 397.95 364.57 396.31 360.46 392.27 359.95 391.65 355.79 390.27 354.3 379.97 353.41 374.43 355.43 360.56 365.51"/><polygon class="cls-7" points="379.57 319.81 376.9 323.04 378.57 326.08 379.97 353.41 390.27 354.3 391.65 355.79 393.41 353.73 391.2 350.3 394.55 352.44 398.91 350.74 401.62 348.03 404.26 341.92 399.21 336.45 397.3 326.01 388.65 324.41 384.25 318.57 379.57 319.81"/><polygon class="cls-8" points="379.57 319.81 376.9 323.04 378.57 326.08 379.97 353.41 390.27 354.3 391.65 355.79 393.41 353.73 391.2 350.3 394.55 352.44 398.91 350.74 401.62 348.03 404.26 341.91 399.21 336.44 397.3 326.01 388.65 324.41 384.25 318.57 379.57 319.81"/><polygon class="cls-7" points="437.85 245.5 440.28 249.34 438.28 267.49 461.14 263.95 464.66 262.68 465.34 258.85 463.5 253.39 464.02 248.62 459.47 250.08 458.74 244.23 454.5 242.36 456.91 237.43 449.82 240.49 445.78 239.03 442.52 240.95 441.33 244.09 437.85 245.5"/><polygon class="cls-8" points="437.85 245.5 440.28 249.34 438.28 267.49 461.14 263.95 464.66 262.68 465.34 258.85 463.5 253.38 464.02 248.62 459.47 250.08 458.74 244.23 454.5 242.36 456.91 237.43 449.82 240.48 445.78 239.02 442.53 240.95 441.33 244.09 437.85 245.5"/><polygon class="cls-7" points="552.11 252.35 559.82 252.32 563.22 248.58 563.14 245.6 567.37 240.25 568.22 230.75 564.54 230.96 562.89 228.97 556.69 228.17 556.42 232.9 553.83 233.54 549.53 231.35 545.26 233.82 541.62 234.4 540.43 235.28 540.86 242.73 541.9 244.67 552.11 252.35"/><polygon class="cls-8" points="552.11 252.35 559.82 252.32 563.22 248.58 563.14 245.6 567.37 240.25 568.22 230.74 564.54 230.96 562.89 228.97 556.69 228.17 556.42 232.9 553.83 233.54 549.53 231.35 545.26 233.82 541.62 234.4 540.43 235.28 540.86 242.73 541.9 244.67 552.11 252.35"/><polygon class="cls-7" points="346.29 255.09 358.07 253.09 360.62 247.11 358.77 234.31 356.01 235.31 355.55 238.5 352.24 234.27 348.25 232.62 344.05 233.11 336.87 228.36 336.47 219.98 331.73 215.44 328.93 213.71 327.89 216.6 332.39 218.8 331.51 220.79 328.02 220.73 325.59 223.31 321.02 221.71 323.23 225.28 321.74 229.04 318.58 229.53 323.69 234.31 338.25 246.54 346.29 255.09"/><polygon class="cls-8" points="346.29 255.09 358.07 253.09 360.62 247.11 358.77 234.31 356.01 235.31 355.55 238.49 352.24 234.27 348.25 232.62 344.05 233.11 336.87 228.36 336.47 219.97 331.73 215.44 328.93 213.71 327.89 216.6 332.39 218.8 331.51 220.78 328.02 220.73 325.59 223.31 321.02 221.71 323.23 225.28 321.74 229.04 318.58 229.53 323.69 234.31 338.25 246.54 346.29 255.09"/><polygon class="cls-7" points="246.39 278.69 248.5 284.3 247.49 287.14 248.24 293.51 252.85 297.06 259.81 298.15 263.06 294.82 268.86 294.55 268.57 287.88 273.89 279.66 269.32 279.03 255.6 273.34 243.65 267 236.56 270.72 237.76 275.67 244.93 276.89 246.39 278.69"/><polygon class="cls-8" points="246.39 278.69 248.5 284.3 247.49 287.14 248.24 293.51 252.85 297.06 259.81 298.15 263.06 294.82 268.86 294.55 268.57 287.88 273.89 279.66 269.32 279.03 255.6 273.34 243.65 267 236.56 270.72 237.76 275.67 244.93 276.89 246.39 278.69"/><polygon class="cls-7" points="458.46 377.67 503.43 378.81 496.92 370.37 495.64 361.86 493.45 359.75 492.96 356.31 495.81 353.9 495.63 348.25 497.76 342.7 492.53 343.35 492.92 341.26 487.95 342.66 474.78 350.79 473.38 353.85 474.69 356.18 468.75 360.88 458.46 377.67"/><polygon class="cls-8" points="458.46 377.67 503.43 378.81 496.92 370.37 495.64 361.85 493.45 359.75 492.96 356.31 495.81 353.9 495.63 348.25 497.76 342.7 492.53 343.34 492.92 341.26 487.95 342.66 474.78 350.79 473.38 353.85 474.69 356.18 468.75 360.88 458.46 377.67"/><polygon class="cls-7" points="119.14 314.17 128.97 342.67 155.81 343.11 155.92 334.88 153.53 334.58 149.16 329.05 143.85 324.79 136.36 322.76 129.56 317.89 119.57 314.02 119.14 314.17"/><polygon class="cls-8" points="119.14 314.17 128.97 342.67 155.81 343.11 155.92 334.88 153.53 334.58 149.16 329.05 143.85 324.79 136.36 322.76 129.56 317.89 119.57 314.02 119.14 314.17"/><polygon class="cls-7" points="522.67 172.51 524.56 173.66 525.17 178.85 527.68 183.09 533.47 186.84 544.71 181.89 551.22 179.65 552.64 170.68 550.86 168.05 546.05 167.61 540.58 165.76 539.67 161.82 535.01 159.07 533.51 155.42 529.84 154.27 522.67 172.51"/><polygon class="cls-8" points="522.67 172.51 524.56 173.66 525.17 178.85 527.68 183.09 533.47 186.84 544.71 181.89 551.22 179.65 552.64 170.68 550.86 168.05 546.05 167.61 540.58 165.76 539.67 161.82 535.01 159.07 533.51 155.42 529.84 154.27 522.67 172.51"/><polygon class="cls-7" points="632.99 263.24 639.29 266.88 642.81 265.9 648.1 268.56 653.76 265.55 651.57 264.09 654.69 261.21 658.09 261.05 659.37 258.6 653.64 253.1 651.45 249.24 650.89 246.12 644.83 241.84 644.67 239.93 641.65 238.13 637.78 239.25 635.28 246.78 630.52 249.64 632.66 252.64 630.2 256.28 632.99 263.24"/><polygon class="cls-8" points="632.99 263.24 639.29 266.88 642.81 265.9 648.1 268.55 653.76 265.55 651.57 264.09 654.69 261.2 658.09 261.05 659.37 258.6 653.64 253.1 651.45 249.24 650.89 246.11 644.83 241.84 644.67 239.92 641.65 238.13 637.78 239.25 635.28 246.78 630.52 249.64 632.66 252.64 630.2 256.28 632.99 263.24"/><polygon class="cls-7" points="155.69 362.69 186.31 363.05 182.5 350.79 179.97 343.93 170.34 332.34 165.56 330.63 159.62 332.49 155.92 334.88 155.69 362.69"/><polygon class="cls-8" points="155.69 362.69 186.31 363.05 182.5 350.79 179.97 343.93 170.35 332.34 165.56 330.63 159.62 332.49 155.92 334.88 155.69 362.69"/><polygon class="cls-7" points="397.76 280.34 399.67 281.01 402.27 289.47 404.06 288.34 412.52 289.04 414.18 291.03 420.19 294.14 421.87 291.76 426.32 289.51 429.81 290.73 434.3 294.8 436.67 294.96 437.09 281.26 437.86 272.4 419.3 272.42 412.52 270.3 409.81 267.98 407.56 262.15 403.53 266.76 397.76 280.34"/><polygon class="cls-8" points="397.76 280.34 399.67 281 402.27 289.47 404.06 288.34 412.52 289.04 414.18 291.03 420.19 294.14 421.87 291.76 426.32 289.51 429.81 290.73 434.3 294.8 436.67 294.96 437.09 281.26 437.86 272.4 419.3 272.42 412.52 270.3 409.81 267.98 407.56 262.14 403.53 266.76 397.76 280.34"/><polygon class="cls-7" points="582.25 264 583.35 268.44 589.62 271.3 592.64 274.93 595.96 273.44 600.46 277.25 602.65 277.32 602.3 280.83 609.74 287.3 612.13 285 612.71 279.24 611.64 277.95 611.57 271.42 608.07 267.59 608.51 263.61 607.66 255.55 604.49 253.13 603.26 248.85 600.83 246.04 599.18 247.74 596.42 245.65 592.92 245.39 594.4 248.35 586.69 252.99 581.72 258.56 583.78 260.74 582.25 264"/><polygon class="cls-8" points="582.25 264 583.35 268.44 589.62 271.3 592.64 274.93 595.96 273.44 600.46 277.25 602.65 277.32 602.3 280.83 609.74 287.3 612.13 285 612.71 279.23 611.64 277.95 611.57 271.42 608.07 267.58 608.51 263.61 607.66 255.54 604.49 253.13 603.26 248.84 600.83 246.04 599.18 247.74 596.42 245.65 592.92 245.39 594.4 248.35 586.69 252.99 581.72 258.56 583.78 260.74 582.25 264"/><polygon class="cls-7" points="479.08 258.16 480.88 261.82 485.82 267.59 485.55 270.36 491.32 276.08 493.59 281.9 497.18 282.05 500.05 284.32 505.71 283.57 507.97 279.97 514.61 279.07 511.62 271.24 514.7 268.6 514.2 261.57 515.3 258.41 513.23 257.47 515.95 254.88 512.29 253.06 515.43 249.51 511.43 248 508.43 248.63 506.54 246.83 500.89 247 499.74 242.82 494.43 245.47 490.65 245.16 492.13 248.75 490 250.2 488.5 247.71 486.4 250.11 483.12 249.48 484.16 254.17 479.08 258.16"/><polygon class="cls-8" points="479.08 258.16 480.88 261.81 485.82 267.58 485.55 270.36 491.32 276.08 493.59 281.9 497.18 282.05 500.05 284.32 505.71 283.57 507.97 279.97 514.61 279.07 511.62 271.24 514.7 268.6 514.2 261.57 515.3 258.41 513.24 257.47 515.95 254.88 512.29 253.06 515.43 249.51 511.43 248 508.43 248.63 506.54 246.83 500.89 247 499.74 242.82 494.43 245.47 490.65 245.16 492.13 248.75 490 250.2 488.5 247.71 486.4 250.11 483.12 249.47 484.16 254.17 479.08 258.16"/><polygon class="cls-7" points="182.5 350.79 195.36 346.34 205.4 341.25 197.36 330.24 191.91 319.33 187.49 318.83 185.7 321.37 179.66 323.96 179.56 322.17 176.46 328.15 178.27 337.21 175.8 339.18 179.97 343.93 182.5 350.79"/><polygon class="cls-8" points="182.5 350.79 195.36 346.34 205.4 341.25 197.36 330.23 191.91 319.33 187.49 318.83 185.7 321.37 179.66 323.96 179.56 322.17 176.46 328.15 178.27 337.21 175.8 339.17 179.97 343.93 182.5 350.79"/><polygon class="cls-7" points="296.34 373.03 297.32 365.07 302.27 353.14 305.1 349.87 308.73 349.19 303.59 337.24 289.66 331.44 278.94 329.67 272.67 330.98 272.04 373.61 296.34 373.03"/><polygon class="cls-8" points="296.34 373.03 297.32 365.06 302.27 353.14 305.1 349.87 308.73 349.19 303.59 337.24 289.66 331.44 278.94 329.67 272.67 330.98 272.04 373.61 296.34 373.03"/><polygon class="cls-7" points="155.92 334.88 159.62 332.49 165.56 330.63 170.34 332.34 175.8 339.18 178.27 337.21 176.46 328.15 179.56 322.17 177.4 318.52 179.33 314.73 177.48 309.25 171.38 302.84 169.39 296.41 166.11 295.73 161.46 293.8 156.46 297.57 155.57 302.51 153.23 308.13 153.63 310.48 158.77 316.38 160.67 321.6 157.85 329.64 155.3 330.26 149.16 329.05 153.53 334.58 155.92 334.88"/><polygon class="cls-8" points="155.92 334.88 159.62 332.49 165.56 330.63 170.35 332.34 175.8 339.17 178.27 337.21 176.46 328.15 179.56 322.17 177.4 318.52 179.33 314.73 177.48 309.25 171.38 302.84 169.39 296.41 166.11 295.73 161.46 293.8 156.46 297.57 155.57 302.51 153.23 308.13 153.63 310.48 158.77 316.38 160.67 321.6 157.85 329.64 155.3 330.25 149.16 329.05 153.53 334.58 155.92 334.88"/><polygon class="cls-7" points="452.79 281.02 451.75 289.27 452.51 293.43 456.98 297.18 462.98 300.3 464.32 306.51 462.83 307.86 463.13 312.82 476.55 300.75 480.91 303.55 485.51 287.39 483.34 286.5 468.71 273.72 468.24 272.06 468.1 273.81 457.9 278.07 452.79 281.02"/><polygon class="cls-8" points="452.79 281.02 451.75 289.27 452.51 293.43 456.98 297.18 462.98 300.29 464.32 306.51 462.83 307.86 463.13 312.82 476.55 300.75 480.91 303.55 485.51 287.39 483.34 286.49 468.71 273.72 468.24 272.06 468.1 273.81 457.9 278.07 452.79 281.02"/><polygon class="cls-7" points="550.86 168.05 552.64 170.68 551.22 179.65 554.68 182.06 556.07 189.32 564.25 192.25 566.67 194.62 569.61 193.11 575.78 201.1 584.79 199.04 584.28 189.95 586.7 188.41 588.56 182.73 590.06 181.87 594.13 178.22 596.96 173.11 597.61 168.41 601.68 163.16 601.13 158.71 599.31 161.83 594.02 164.94 591.99 169.22 581.8 169.92 579.59 172.2 576.34 167.41 572.76 165.38 565.42 163.95 561.79 161.21 553.39 163.04 550.86 168.05"/><polygon class="cls-8" points="550.86 168.05 552.64 170.68 551.22 179.65 554.68 182.06 556.07 189.32 564.25 192.25 566.67 194.62 569.61 193.11 575.78 201.1 584.79 199.04 584.28 189.95 586.7 188.41 588.56 182.72 590.06 181.87 594.13 178.22 596.96 173.11 597.61 168.41 601.68 163.16 601.13 158.71 599.31 161.83 594.02 164.94 591.99 169.22 581.8 169.92 579.59 172.2 576.34 167.41 572.76 165.38 565.42 163.95 561.79 161.21 553.39 163.04 550.86 168.05"/><polygon class="cls-7" points="593.68 337.1 591.31 341.86 606.45 337.23 608.62 335.63 614.33 339.85 618.13 336.78 621.39 336.39 626.31 332.6 625.96 325.45 639.14 317.14 633.94 311.84 630.46 313.95 625.48 309.4 618.36 309.68 613.9 312.4 610.09 316.74 605.35 319.56 603.65 317.15 600.52 320.28 598.63 325.3 600.32 329.02 597.77 332.9 598.89 335.64 593.68 337.1"/><polygon class="cls-8" points="593.68 337.1 591.31 341.86 606.45 337.23 608.62 335.63 614.33 339.85 618.13 336.78 621.39 336.39 626.31 332.6 625.96 325.45 639.14 317.13 633.94 311.84 630.46 313.94 625.48 309.4 618.36 309.68 613.9 312.4 610.09 316.74 605.35 319.55 603.65 317.15 600.52 320.28 598.63 325.3 600.32 329.02 597.77 332.9 598.89 335.64 593.68 337.1"/><polygon class="cls-7" points="562.09 343.5 563.65 347.9 570.49 348.23 571.05 345.27 577.23 343.26 582.41 340.41 585.2 336.63 588.79 335.09 589.97 326.74 585.07 323.19 586.66 319.34 582.86 316.31 577.14 314.11 574.81 306.69 570.84 304.98 568.38 307.48 564.73 307.68 564.17 311.42 562.15 313.03 562.38 316.3 558.62 320.07 558.63 325.1 562.09 343.5"/><polygon class="cls-8" points="562.09 343.5 563.65 347.9 570.49 348.23 571.05 345.26 577.23 343.26 582.41 340.41 585.2 336.63 588.79 335.08 589.97 326.74 585.07 323.19 586.66 319.34 582.86 316.31 577.14 314.11 574.81 306.69 570.84 304.98 568.38 307.48 564.73 307.68 564.17 311.42 562.15 313.03 562.38 316.29 558.62 320.07 558.63 325.1 562.09 343.5"/><polygon class="cls-7" points="531.36 284.13 535.84 287.25 542.98 286.5 543.88 283.75 548.1 284.68 552.17 282.07 552.81 284.79 556.35 285.27 561 271.66 553.29 268.73 545.83 263.61 544.68 263.62 536.43 269.42 535.62 271.89 529.7 281.5 531.36 284.13"/><polygon class="cls-8" points="531.36 284.13 535.84 287.24 542.98 286.5 543.88 283.75 548.1 284.68 552.17 282.07 552.81 284.79 556.35 285.27 561 271.66 553.29 268.73 545.83 263.61 544.68 263.62 536.42 269.42 535.62 271.88 529.7 281.5 531.36 284.13"/><polygon class="cls-7" points="604.56 238.01 608.61 234.38 617.4 237.61 625.21 242.98 630.01 245.43 635.28 246.78 637.78 239.25 641.65 238.13 644.67 239.93 646.78 238.39 645.42 234.39 643.38 234.36 640.31 226.96 634.77 221.79 632.69 217.09 635.28 216.57 635.95 208.58 634.08 206.35 628.19 207.11 622.72 209.88 620.45 208.96 615.57 214.54 613.13 213.94 609.8 216.12 612.72 222.7 605.17 229.09 601.84 233.54 602.33 237.03 604.56 238.01"/><polygon class="cls-8" points="604.56 238.01 608.6 234.38 617.4 237.6 625.21 242.98 630.01 245.43 635.28 246.78 637.78 239.25 641.65 238.13 644.67 239.92 646.78 238.39 645.42 234.39 643.38 234.36 640.31 226.96 634.77 221.79 632.69 217.09 635.28 216.57 635.95 208.58 634.08 206.35 628.19 207.11 622.72 209.88 620.45 208.96 615.57 214.54 613.13 213.94 609.8 216.12 612.72 222.69 605.17 229.09 601.84 233.54 602.33 237.02 604.56 238.01"/><polygon class="cls-7" points="497.76 342.7 500.88 341.86 507.13 343.4 509.63 340.59 514.26 341.81 519.33 338.37 525.32 339.55 528.29 333.54 532.53 331.6 531.16 329.55 533.22 327.9 531.33 325.05 528.1 325.81 524.53 319.32 526.85 316.23 526.59 311.55 521.52 311.26 517.41 309.59 511.5 303.01 509.88 306.22 504.36 308.51 504.21 312.26 501.52 312.65 497.57 319.71 498.4 321.65 498.7 328.13 495.48 330.28 496.17 337.2 493.54 338.25 492.53 343.35 497.76 342.7"/><polygon class="cls-8" points="497.76 342.7 500.88 341.86 507.13 343.39 509.63 340.58 514.26 341.81 519.33 338.37 525.32 339.55 528.29 333.54 532.53 331.6 531.16 329.55 533.22 327.9 531.33 325.04 528.1 325.81 524.53 319.32 526.85 316.23 526.59 311.54 521.52 311.26 517.41 309.59 511.49 303 509.88 306.22 504.36 308.51 504.21 312.26 501.52 312.65 497.57 319.71 498.4 321.65 498.7 328.13 495.48 330.28 496.17 337.2 493.54 338.25 492.53 343.34 497.76 342.7"/><polygon class="cls-7" points="386.65 293.94 388.55 288.79 392.67 289.02 397.17 290.63 399.24 287.8 402.27 289.47 399.67 281.01 396.13 279.46 394.22 283.56 389.45 280.57 390.93 279.12 390.34 274.82 392.96 272.87 391.2 271.53 392.02 266.15 388.54 265.92 384.77 261.98 379.97 270.4 374.71 273.38 375.22 274.78 368.95 281.19 367.42 292.06 386.65 293.94"/><polygon class="cls-8" points="386.65 293.94 388.55 288.79 392.67 289.01 397.17 290.63 399.24 287.8 402.27 289.47 399.67 281 396.13 279.46 394.22 283.56 389.45 280.57 390.93 279.12 390.34 274.82 392.96 272.86 391.2 271.52 392.02 266.15 388.54 265.92 384.77 261.98 379.97 270.4 374.71 273.38 375.22 274.78 368.95 281.19 367.41 292.06 386.65 293.94"/><polygon class="cls-7" points="531.98 369.12 537.57 362.94 539.82 357.36 543.37 356.77 547.95 351.99 551.22 350.78 556.76 345.97 555.51 341.74 551.27 341.33 547.1 338.95 542.88 334.46 540.43 333.47 536.43 334.56 532.53 331.6 528.29 333.54 525.32 339.55 519.33 338.37 514.26 341.81 516.76 352.23 523.27 357.44 525.38 365.06 531.98 369.12"/><polygon class="cls-8" points="531.98 369.12 537.57 362.94 539.82 357.36 543.37 356.77 547.95 351.99 551.22 350.78 556.76 345.97 555.51 341.74 551.27 341.33 547.1 338.95 542.88 334.46 540.43 333.47 536.43 334.56 532.53 331.6 528.29 333.54 525.32 339.55 519.33 338.37 514.26 341.81 516.76 352.23 523.27 357.44 525.38 365.06 531.98 369.12"/><polygon class="cls-7" points="603.65 317.15 605.35 319.56 610.09 316.74 613.9 312.4 618.36 309.68 625.48 309.4 627.26 307.99 623.83 305.38 623.02 301.21 623.95 296.2 622.59 293.37 617.1 294.74 617.41 289.35 609.74 287.3 607.86 285.6 600.93 285.11 599.52 283.31 595.91 284.04 595.87 286.38 592.64 290.33 594.63 306.59 593.37 310.97 595.33 313.11 598.23 312.17 599.24 315.15 603.65 317.15"/><polygon class="cls-8" points="603.65 317.15 605.35 319.55 610.09 316.74 613.9 312.4 618.36 309.68 625.48 309.4 627.26 307.98 623.83 305.38 623.02 301.21 623.95 296.2 622.59 293.37 617.1 294.73 617.41 289.34 609.74 287.3 607.86 285.6 600.93 285.1 599.52 283.31 595.91 284.03 595.87 286.38 592.64 290.33 594.63 306.59 593.37 310.97 595.33 313.1 598.23 312.17 599.24 315.15 603.65 317.15"/><polygon class="cls-7" points="471.07 122.12 473.16 142.59 471.71 150.68 478.68 151.74 487.85 150.24 485.11 148.79 484.15 145.77 486.15 139.91 484.25 135.29 485.18 130.61 482.05 127.65 480.66 119.94 476.76 119.6 471.07 122.12"/><polygon class="cls-8" points="471.07 122.12 473.16 142.59 471.71 150.68 478.68 151.74 487.85 150.24 485.11 148.79 484.15 145.77 486.15 139.91 484.25 135.29 485.18 130.6 482.05 127.65 480.66 119.94 476.76 119.6 471.07 122.12"/><polygon class="cls-7" points="608.51 263.61 611.77 264.95 623 259.51 632.99 263.24 630.2 256.28 632.66 252.64 630.52 249.64 635.28 246.78 630.01 245.43 625.21 242.98 617.4 237.61 608.61 234.38 604.56 238.01 606.83 245.18 604.64 245.56 603.26 248.85 604.49 253.13 607.66 255.55 608.51 263.61"/><polygon class="cls-8" points="608.51 263.61 611.77 264.95 623 259.51 632.99 263.24 630.2 256.28 632.66 252.64 630.52 249.64 635.28 246.78 630.01 245.43 625.21 242.98 617.4 237.6 608.6 234.38 604.56 238.01 606.83 245.18 604.64 245.56 603.26 248.84 604.49 253.13 607.66 255.54 608.51 263.61"/><polygon class="cls-7" points="463.5 253.39 466.62 252 472.51 260.89 475.39 262.36 479.08 258.16 484.16 254.17 483.12 249.48 486.4 250.11 485 243.68 482.83 240.5 473.62 235.7 468.06 233.89 464.02 248.62 463.5 253.39"/><polygon class="cls-8" points="463.5 253.38 466.62 252 472.51 260.88 475.39 262.36 479.08 258.16 484.16 254.17 483.12 249.47 486.4 250.11 485 243.68 482.83 240.49 473.62 235.7 468.06 233.88 464.02 248.62 463.5 253.38"/><polygon class="cls-7" points="363.73 234.44 368.26 230.06 382.15 225.24 394.87 226.62 405.3 222.02 407.25 206.91 402.19 204.65 388.2 194.75 386.96 200.31 384.51 203.6 379.79 206.43 375.69 204.31 372.6 205.54 371.76 209.39 366.79 215.77 366.33 225.34 365.01 231.31 362.88 233.57 363.73 234.44"/><polygon class="cls-8" points="363.73 234.43 368.25 230.06 382.15 225.24 394.87 226.62 405.3 222.02 407.25 206.91 402.19 204.65 388.2 194.75 386.96 200.31 384.51 203.59 379.8 206.43 375.69 204.31 372.6 205.54 371.76 209.39 366.79 215.77 366.33 225.34 365.01 231.3 362.88 233.57 363.73 234.43"/><polygon class="cls-7" points="510.73 304.43 511.5 303.01 517.41 309.59 521.52 311.26 526.59 311.55 530.03 311.22 531.65 305.78 539.54 301.48 537.34 299.29 534.24 291.27 531.49 288.25 531.36 284.13 529.7 281.5 524.83 277.54 518.3 279.38 514.61 279.07 507.97 279.97 505.71 283.57 505.31 286.93 508.98 294.43 508.17 297.73 511.44 300.61 510.73 304.43"/><polygon class="cls-8" points="510.73 304.43 511.49 303 517.41 309.59 521.52 311.26 526.59 311.54 530.03 311.22 531.65 305.78 539.54 301.47 537.34 299.29 534.24 291.27 531.49 288.25 531.36 284.13 529.7 281.5 524.83 277.53 518.3 279.38 514.61 279.07 507.97 279.97 505.71 283.57 505.31 286.93 508.98 294.43 508.17 297.73 511.44 300.61 510.73 304.43"/><polygon class="cls-7" points="221.42 321.93 234.25 326.39 237.37 324.24 246.39 323.54 249.76 321.14 251.82 317.22 248.8 315.53 245.41 311.07 246.11 305.23 248.73 305.5 252.85 297.06 248.24 293.51 247.49 287.14 248.5 284.3 246.39 278.69 236.18 287.3 228.54 289.83 210.6 301.27 207.53 304.22 210.27 306.14 212.01 304.51 211.88 312.04 214.64 317.26 219.19 319.03 221.42 321.93"/><polygon class="cls-8" points="221.42 321.93 234.25 326.39 237.37 324.24 246.39 323.54 249.76 321.14 251.82 317.22 248.8 315.52 245.41 311.07 246.11 305.22 248.73 305.5 252.85 297.06 248.24 293.51 247.49 287.14 248.5 284.3 246.39 278.69 236.18 287.3 228.54 289.83 210.6 301.27 207.53 304.22 210.27 306.14 212.01 304.5 211.88 312.04 214.64 317.26 219.19 319.03 221.42 321.93"/><polygon class="cls-7" points="99.19 372.63 101.68 373.01 111.52 378.81 118.53 378.86 121.59 380.34 127.19 387.9 128.65 387.89 128.95 360.39 108.23 360.37 105.18 357.9 103.57 359.1 103.39 362.56 100.08 361.74 97.54 363.79 97.62 366.52 100.7 371.25 99.19 372.63"/><polygon class="cls-8" points="99.19 372.63 101.68 373.01 111.52 378.81 118.53 378.86 121.59 380.34 127.19 387.89 128.65 387.88 128.95 360.39 108.23 360.37 105.18 357.9 103.57 359.1 103.39 362.56 100.08 361.74 97.54 363.79 97.62 366.52 100.7 371.25 99.19 372.63"/><polygon class="cls-7" points="414.69 183.06 412.07 186.49 413.78 192.31 417.22 197.09 440.53 199.42 447.99 195.34 450.88 197.25 448.64 193.81 450.14 190.8 443.33 188.74 443.95 185.18 441.15 183.58 442.11 181.04 438.73 181.9 440.1 176.66 434.29 172.17 426.58 173.35 417.56 182.71 414.69 183.06"/><polygon class="cls-8" points="414.69 183.06 412.07 186.49 413.78 192.31 417.22 197.09 440.53 199.42 447.99 195.34 450.88 197.25 448.64 193.81 450.14 190.8 443.32 188.74 443.95 185.18 441.15 183.58 442.11 181.04 438.73 181.9 440.1 176.66 434.29 172.17 426.58 173.35 417.56 182.7 414.69 183.06"/><polygon class="cls-7" points="217.04 271.68 236.56 270.72 243.65 267 244.88 262.77 250.82 260.92 254.78 257.11 250.72 253.01 252.33 244.76 245.77 240.78 240.16 240.39 235.22 243.96 230.58 240.34 228.13 236.94 225.7 241.72 228.68 246.05 228.94 248.67 226.76 251.67 222.33 252.08 221.35 249.2 222.49 244.91 219.79 244.86 212.07 247.19 208.32 246.47 206.15 242.86 203.22 241.99 201.3 244.46 210.44 258.87 213.92 258.43 215.31 262.5 215.38 268.29 217.04 271.68"/><polygon class="cls-8" points="217.04 271.68 236.56 270.72 243.65 267 244.88 262.76 250.82 260.92 254.78 257.1 250.72 253.01 252.33 244.76 245.77 240.78 240.16 240.39 235.22 243.96 230.58 240.34 228.13 236.94 225.7 241.72 228.68 246.05 228.94 248.67 226.76 251.67 222.33 252.08 221.35 249.2 222.49 244.91 219.79 244.86 212.07 247.19 208.32 246.47 206.15 242.85 203.22 241.99 201.3 244.46 210.44 258.87 213.92 258.43 215.31 262.5 215.38 268.29 217.04 271.68"/><polygon class="cls-7" points="345.8 302.81 354.66 315.15 354.06 320.09 366.29 322.02 379.57 319.81 384.25 318.57 384.88 310.46 383.38 306.26 384.35 300.19 387.13 296.52 386.65 293.94 354.79 291.07 355.47 295.82 352.79 298.1 353.53 301.27 350.16 301.24 350.5 303.33 345.8 302.81"/><polygon class="cls-8" points="345.8 302.81 354.66 315.15 354.06 320.09 366.29 322.02 379.57 319.81 384.25 318.57 384.88 310.46 383.38 306.26 384.35 300.19 387.13 296.52 386.65 293.94 354.79 291.07 355.47 295.82 352.79 298.1 353.53 301.27 350.16 301.24 350.5 303.33 345.8 302.81"/><polygon class="cls-7" points="476.48 183.02 478.86 189.25 483.26 192.69 484.74 199.33 486.54 202.41 485.84 204.89 493.86 204.68 498.89 201.85 506.13 195.66 513.62 186.51 507.04 182.62 508.78 176.67 504.9 177.07 505.22 173.7 489.28 175.94 484.97 179.07 483.09 177.82 482.36 181.39 476.48 183.02"/><polygon class="cls-8" points="476.48 183.02 478.86 189.25 483.26 192.69 484.74 199.33 486.54 202.41 485.84 204.88 493.86 204.68 498.89 201.85 506.13 195.66 513.62 186.51 507.04 182.62 508.78 176.67 504.9 177.07 505.22 173.69 489.28 175.94 484.97 179.07 483.09 177.82 482.36 181.39 476.48 183.02"/><polygon class="cls-7" points="566.02 371.4 569.05 371.15 575.23 367.76 587.82 363.79 592.6 363.48 592.84 359.19 597.72 352.06 606.17 351.72 613.58 348.12 615.27 344.51 614.33 339.85 608.62 335.63 606.45 337.23 591.31 341.86 593.68 337.1 588.79 335.09 585.2 336.63 582.41 340.41 577.23 343.26 571.05 345.27 570.49 348.23 563.65 347.9 564.31 352.63 561.89 356.83 563.98 359.34 562.75 364.43 566.17 368.08 566.02 371.4"/><polygon class="cls-8" points="566.02 371.4 569.05 371.15 575.23 367.75 587.82 363.79 592.6 363.48 592.84 359.18 597.72 352.07 606.17 351.72 613.58 348.11 615.27 344.51 614.33 339.85 608.62 335.63 606.45 337.23 591.31 341.86 593.68 337.1 588.79 335.08 585.2 336.63 582.41 340.41 577.23 343.26 571.05 345.26 570.49 348.23 563.65 347.9 564.31 352.63 561.9 356.83 563.98 359.34 562.75 364.42 566.17 368.08 566.02 371.4"/><polygon class="cls-7" points="354.79 291.07 367.42 292.06 368.95 281.19 375.22 274.78 374.71 273.38 379.97 270.4 384.77 261.98 384.45 259.77 380.19 256.92 380.08 253.76 377.99 251.12 373.61 248.98 371.75 246.59 372.49 242.68 370.38 239.84 366.42 240.32 366.2 235.14 363.73 234.44 362.88 233.57 358.77 234.31 360.62 247.11 358.07 253.09 346.29 255.09 336.18 276.28 339.32 276.77 344.19 280.25 349.35 279 354.25 286.34 353.21 290.33 354.79 291.07"/><polygon class="cls-8" points="354.79 291.07 367.41 292.06 368.95 281.19 375.22 274.78 374.71 273.38 379.97 270.4 384.77 261.98 384.45 259.77 380.19 256.92 380.08 253.76 377.99 251.12 373.61 248.98 371.75 246.59 372.49 242.68 370.38 239.84 366.42 240.32 366.2 235.14 363.73 234.43 362.88 233.57 358.77 234.31 360.62 247.11 358.07 253.09 346.29 255.09 336.18 276.28 339.31 276.77 344.19 280.24 349.35 279 354.25 286.34 353.21 290.33 354.79 291.07"/><polygon class="cls-7" points="278.72 241.51 278.04 244.95 282.58 243.63 285.67 246.5 284.12 251.1 288.92 250.77 291.89 255.84 291.42 261.4 307.87 269.94 303.28 255.74 305.19 250.59 305.53 243.5 303.11 243.08 299.86 245.42 297.38 243.33 293.76 235.4 292.13 234.41 288.77 235.6 284.98 239.85 278.72 241.51"/><polygon class="cls-8" points="278.72 241.51 278.04 244.94 282.58 243.63 285.67 246.5 284.12 251.1 288.92 250.77 291.89 255.85 291.42 261.4 307.87 269.94 303.28 255.74 305.19 250.59 305.53 243.5 303.11 243.08 299.86 245.42 297.38 243.33 293.76 235.4 292.13 234.41 288.77 235.59 284.98 239.85 278.72 241.51"/><polygon class="cls-7" points="590.06 181.87 599.43 185.92 606.06 193.38 610.78 192.83 618.54 195.44 622.4 189.3 630.96 181.68 626.01 176.21 618.67 174.9 615.58 170.58 613.86 163.19 614.05 156.93 612.29 155.47 605.33 158.67 601.13 158.71 601.68 163.16 597.61 168.41 596.96 173.11 594.13 178.22 590.06 181.87"/><polygon class="cls-8" points="590.06 181.87 599.43 185.92 606.06 193.38 610.79 192.83 618.54 195.44 622.4 189.29 630.96 181.68 626.01 176.21 618.67 174.9 615.58 170.58 613.86 163.19 614.05 156.93 612.29 155.47 605.33 158.67 601.13 158.71 601.68 163.16 597.61 168.41 596.96 173.11 594.13 178.22 590.06 181.87"/><polygon class="cls-7" points="384.25 318.57 388.65 324.41 397.3 326.01 409.31 319.99 411.52 317.51 401.28 299.93 392.55 292.83 392.67 289.02 388.55 288.79 386.65 293.94 387.13 296.52 384.35 300.19 383.38 306.26 384.88 310.46 384.25 318.57"/><polygon class="cls-8" points="384.25 318.57 388.65 324.41 397.3 326.01 409.31 319.98 411.52 317.51 401.28 299.93 392.55 292.83 392.67 289.01 388.55 288.79 386.65 293.94 387.13 296.52 384.35 300.19 383.38 306.26 384.88 310.46 384.25 318.57"/><polygon class="cls-7" points="308.69 296.69 318.89 300.07 320.36 304.32 345.8 302.81 350.5 303.33 350.16 301.24 353.53 301.27 352.79 298.1 355.47 295.82 354.79 291.07 353.21 290.33 354.25 286.34 349.35 279 344.19 280.25 339.32 276.77 336.18 276.28 333.38 277.77 329.88 276.95 330.44 279.59 325.23 279.07 319.9 276.62 316.85 273.28 314.96 276.68 311.73 275.64 310.26 279.29 309.82 282.02 307.66 279.18 304.43 280.05 308.69 296.69"/><polygon class="cls-8" points="308.69 296.69 318.89 300.07 320.36 304.32 345.8 302.81 350.5 303.33 350.16 301.24 353.53 301.27 352.79 298.1 355.47 295.82 354.79 291.07 353.21 290.33 354.25 286.34 349.35 279 344.19 280.24 339.31 276.77 336.18 276.28 333.38 277.77 329.88 276.95 330.44 279.58 325.23 279.07 319.91 276.62 316.85 273.28 314.96 276.68 311.73 275.64 310.26 279.29 309.82 282.01 307.66 279.18 304.43 280.05 308.69 296.69"/><polygon class="cls-7" points="128.65 387.89 155.41 388.05 155.81 343.11 128.97 342.67 128.65 387.89"/><polygon class="cls-8" points="128.65 387.88 155.41 388.05 155.81 343.11 128.97 342.67 128.65 387.88"/><polygon class="cls-7" points="474.58 185.13 476.48 183.02 482.36 181.39 483.09 177.82 478.68 151.74 471.71 150.68 468.08 153.3 458.24 154.56 457.82 159.28 458.75 169.89 466.36 176.06 470.76 183.77 474.58 185.13"/><polygon class="cls-8" points="474.58 185.13 476.48 183.02 482.36 181.39 483.09 177.82 478.68 151.74 471.71 150.68 468.08 153.3 458.24 154.56 457.82 159.27 458.75 169.89 466.36 176.06 470.76 183.77 474.58 185.13"/><polygon class="cls-7" points="468.24 272.06 468.71 273.72 483.34 286.5 485.51 287.39 491.37 288.72 493.59 281.9 491.32 276.08 485.55 270.36 485.82 267.59 480.88 261.82 479.08 258.16 475.39 262.36 472.51 260.89 466.62 252 463.5 253.39 465.34 258.85 464.66 262.68 461.14 263.95 464.62 265.54 466.42 271.81 468.24 272.06"/><polygon class="cls-8" points="468.24 272.06 468.71 273.72 483.34 286.49 485.51 287.39 491.37 288.72 493.59 281.9 491.32 276.08 485.55 270.36 485.82 267.58 480.88 261.81 479.08 258.16 475.39 262.36 472.51 260.88 466.62 252 463.5 253.38 465.34 258.85 464.66 262.68 461.14 263.95 464.62 265.54 466.42 271.81 468.24 272.06"/><polygon class="cls-7" points="438.38 154.96 443.46 163.6 445.69 165.35 446.4 164.19 457.82 159.28 458.24 154.56 468.08 153.3 457.05 144.9 454.76 146.81 455.56 152.46 449.06 151.56 444.62 153.52 440.9 153.27 438.38 154.96"/><polygon class="cls-8" points="438.38 154.96 443.46 163.6 445.69 165.35 446.4 164.19 457.82 159.27 458.24 154.56 468.08 153.3 457.05 144.9 454.76 146.81 455.56 152.46 449.06 151.56 444.62 153.52 440.9 153.26 438.38 154.96"/><polygon class="cls-7" points="79.54 388.27 89.17 387.45 127.19 387.9 121.59 380.34 118.53 378.86 111.52 378.81 101.68 373.01 99.19 372.63 96.88 378.75 92.57 381.6 86.94 374.76 83.44 375.86 79.54 388.27"/><polygon class="cls-7" points="69.64 388.35 74.08 388.4 75.69 384.6 74.1 380.87 69.1 380.04 67.05 383.36 69.64 388.35"/><polygon class="cls-8" points="79.54 388.27 89.17 387.45 127.19 387.89 121.59 380.34 118.53 378.86 111.52 378.81 101.68 373.01 99.19 372.63 96.89 378.75 92.57 381.59 86.94 374.76 83.44 375.86 79.54 388.27"/><polygon class="cls-8" points="69.64 388.35 74.08 388.4 75.69 384.6 74.1 380.87 69.1 380.04 67.05 383.36 69.64 388.35"/><polygon class="cls-7" points="438.38 220.9 443 221.91 447.41 224.38 451.27 222.2 451.36 219.62 462.74 214.01 461.53 197.69 457.22 199.12 450.88 197.25 447.99 195.34 440.53 199.42 443.85 199.78 440.42 205.74 439.72 216.04 438.38 220.9"/><polygon class="cls-8" points="438.38 220.9 443 221.91 447.41 224.38 451.27 222.2 451.36 219.62 462.74 214.01 461.53 197.69 457.22 199.12 450.88 197.25 447.99 195.34 440.53 199.42 443.85 199.78 440.42 205.74 439.72 216.04 438.38 220.9"/><polygon class="cls-7" points="609.74 287.3 617.41 289.35 617.1 294.74 622.59 293.37 623.95 296.2 623.02 301.21 623.83 305.38 627.26 307.99 630.41 305.8 631.86 298.29 635.93 295.15 637.58 289.3 636.1 285.31 634.38 285.52 636.45 271.25 635.11 268.39 639.29 266.88 632.99 263.24 623 259.51 611.77 264.95 608.51 263.61 608.07 267.59 611.57 271.42 611.64 277.95 612.71 279.24 612.13 285 609.74 287.3"/><polygon class="cls-8" points="609.74 287.3 617.41 289.34 617.1 294.73 622.59 293.37 623.95 296.2 623.02 301.21 623.83 305.38 627.26 307.98 630.41 305.8 631.86 298.29 635.93 295.14 637.58 289.3 636.1 285.31 634.38 285.52 636.45 271.25 635.11 268.39 639.29 266.88 632.99 263.24 623 259.51 611.77 264.95 608.51 263.61 608.07 267.58 611.57 271.42 611.64 277.95 612.71 279.23 612.13 285 609.74 287.3"/><polygon class="cls-7" points="534.4 203.46 542 204.75 547.73 208.13 547.66 212.05 551.77 214.82 562.25 206.34 561.68 203.89 563.79 200.58 562.83 198.03 566.67 194.62 564.25 192.25 556.07 189.32 554.68 182.06 551.22 179.65 544.71 181.89 533.47 186.84 527.68 183.09 523.61 188.63 526.12 190.32 528.95 196.69 532.47 196.75 535.53 201.43 534.4 203.46"/><polygon class="cls-8" points="534.4 203.46 542 204.75 547.73 208.13 547.66 212.05 551.77 214.82 562.25 206.34 561.68 203.89 563.79 200.58 562.84 198.03 566.67 194.62 564.25 192.25 556.07 189.32 554.68 182.06 551.22 179.65 544.71 181.89 533.47 186.84 527.68 183.09 523.61 188.63 526.12 190.32 528.95 196.69 532.47 196.75 535.53 201.43 534.4 203.46"/><polygon class="cls-7" points="486.4 250.11 488.5 247.71 490 250.2 492.13 248.75 490.65 245.16 494.43 245.47 494.28 241.02 495.66 234.18 498.9 232.3 498.6 227.33 490.88 222.52 492.97 215.78 491.05 212.34 489.18 212.72 471.31 220.85 468.06 233.89 473.62 235.7 482.83 240.5 485 243.68 486.4 250.11"/><polygon class="cls-8" points="486.4 250.11 488.5 247.71 490 250.2 492.13 248.75 490.65 245.16 494.43 245.47 494.28 241.02 495.66 234.18 498.9 232.3 498.6 227.33 490.88 222.52 492.97 215.78 491.05 212.34 489.18 212.72 471.31 220.85 468.06 233.88 473.62 235.7 482.83 240.49 485 243.68 486.4 250.11"/><polygon class="cls-7" points="514.61 279.07 518.3 279.38 524.83 277.54 529.7 281.5 535.62 271.89 536.43 269.42 544.68 263.62 540.24 259.16 536.59 260.61 535.85 258.57 532.97 259.93 529.66 259.19 524.96 254.95 524.99 250.26 521.83 251.08 515.43 249.51 512.29 253.06 515.95 254.88 513.23 257.47 515.3 258.41 514.2 261.57 514.7 268.6 511.62 271.24 514.61 279.07"/><polygon class="cls-8" points="514.61 279.07 518.3 279.38 524.83 277.53 529.7 281.5 535.62 271.88 536.42 269.42 544.68 263.62 540.24 259.16 536.59 260.61 535.85 258.57 532.97 259.92 529.66 259.19 524.96 254.94 524.99 250.26 521.83 251.08 515.43 249.51 512.29 253.06 515.95 254.88 513.24 257.47 515.3 258.41 514.2 261.57 514.7 268.6 511.62 271.24 514.61 279.07"/><polygon class="cls-7" points="582.05 222.49 581.78 228.15 585.46 229.73 587.76 233.17 591.84 234.64 595.34 233.28 599.7 234.63 601.84 233.54 605.17 229.09 612.72 222.7 609.8 216.12 605.66 216.44 602.7 212.97 599.46 215.72 596.12 210.63 590.24 206.65 585.84 209.69 583.71 214.32 586.9 216.08 585.45 220.59 582.05 222.49"/><polygon class="cls-8" points="582.05 222.49 581.78 228.15 585.46 229.73 587.76 233.17 591.84 234.64 595.34 233.27 599.7 234.63 601.84 233.54 605.17 229.09 612.72 222.69 609.8 216.12 605.66 216.43 602.7 212.97 599.46 215.72 596.12 210.63 590.24 206.65 585.84 209.69 583.71 214.31 586.9 216.08 585.45 220.59 582.05 222.49"/><polygon class="cls-7" points="326.07 319.82 335.67 328.92 340.83 326.54 342.97 329.37 352.54 331.74 354.66 315.15 345.8 302.81 320.36 304.32 326.07 319.82"/><polygon class="cls-8" points="326.07 319.82 335.67 328.91 340.83 326.54 342.97 329.36 352.54 331.74 354.66 315.15 345.8 302.81 320.36 304.32 326.07 319.82"/><polygon class="cls-7" points="273.89 279.66 280.85 272.7 283.9 272.71 291.93 268 287.89 264.39 291.42 261.4 291.89 255.84 288.92 250.77 284.12 251.1 285.67 246.5 282.58 243.63 278.04 244.95 278.72 241.51 274.28 243.95 271.53 254.36 266.49 256.41 263.61 250.65 258.96 249.83 252.33 244.76 250.72 253.01 254.78 257.11 250.82 260.92 244.88 262.77 243.65 267 255.6 273.34 269.32 279.03 273.89 279.66"/><polygon class="cls-8" points="273.89 279.66 280.85 272.7 283.9 272.71 291.93 268 287.89 264.39 291.42 261.4 291.89 255.85 288.92 250.77 284.12 251.1 285.67 246.5 282.58 243.63 278.04 244.94 278.72 241.51 274.28 243.95 271.53 254.35 266.49 256.41 263.61 250.64 258.96 249.83 252.33 244.76 250.72 253.01 254.78 257.1 250.82 260.92 244.88 262.76 243.65 267 255.6 273.34 269.32 279.03 273.89 279.66"/><polygon class="cls-7" points="391.65 355.79 392.27 359.95 396.31 360.46 397.95 364.57 401.92 364.83 399.76 368.77 404.67 376.13 416.15 375.38 420.26 363.07 422.73 352.06 421.05 352.21 417.86 347.65 421.38 344.88 403.43 343.53 401.62 348.03 398.91 350.74 394.55 352.44 391.2 350.3 393.41 353.73 391.65 355.79"/><polygon class="cls-8" points="391.65 355.79 392.27 359.95 396.31 360.46 397.95 364.57 401.92 364.83 399.76 368.77 404.67 376.13 416.15 375.38 420.26 363.07 422.73 352.07 421.05 352.21 417.86 347.65 421.38 344.88 403.43 343.53 401.62 348.03 398.91 350.74 394.55 352.44 391.2 350.3 393.41 353.73 391.65 355.79"/><polygon class="cls-7" points="166.11 295.73 169.39 296.41 171.38 302.84 177.48 309.25 179.33 314.73 177.4 318.52 179.56 322.17 179.66 323.96 185.7 321.37 187.49 318.83 188.07 314.44 191.2 312.8 211.58 298.37 208.08 298.77 208.13 294.47 203.24 296.39 201.12 295.32 199.93 289.6 200.84 287.98 198.26 288.99 194.05 281.07 192.65 284.47 190.34 285.38 188.47 288.73 184.41 288.83 172.61 290.72 166.11 295.73"/><polygon class="cls-8" points="166.11 295.73 169.39 296.41 171.38 302.84 177.48 309.25 179.33 314.73 177.4 318.52 179.56 322.17 179.66 323.96 185.7 321.37 187.49 318.83 188.07 314.44 191.2 312.8 211.58 298.37 208.08 298.77 208.13 294.46 203.24 296.39 201.12 295.32 199.93 289.6 200.84 287.98 198.26 288.99 194.05 281.07 192.65 284.47 190.34 285.38 188.47 288.73 184.41 288.83 172.61 290.72 166.11 295.73"/><polygon class="cls-7" points="417.77 375.31 442.4 376.43 440.37 375.45 440.21 370.19 438.68 365.99 439.99 362.11 435.09 351.65 430.64 354.85 421.5 348.68 422.73 352.06 420.26 363.07 416.15 375.38 417.77 375.31"/><polygon class="cls-8" points="417.77 375.31 442.4 376.43 440.37 375.45 440.21 370.19 438.68 365.99 439.99 362.11 435.09 351.65 430.64 354.85 421.5 348.68 422.73 352.07 420.26 363.07 416.15 375.38 417.77 375.31"/><polygon class="cls-7" points="526.59 311.55 526.85 316.23 524.53 319.32 528.1 325.81 531.33 325.05 533.22 327.9 531.16 329.55 532.53 331.6 536.43 334.56 540.43 333.47 542.88 334.46 547.1 338.95 551.27 341.33 555.51 341.74 562.09 343.5 558.63 325.1 558.62 320.07 562.38 316.3 562.15 313.03 560.58 310.72 554.86 307.28 550.37 300.58 548.54 302.43 539.54 301.48 531.65 305.78 530.03 311.22 526.59 311.55"/><polygon class="cls-8" points="526.59 311.54 526.85 316.23 524.53 319.32 528.1 325.81 531.33 325.04 533.22 327.9 531.16 329.55 532.53 331.6 536.43 334.56 540.43 333.47 542.88 334.46 547.1 338.95 551.27 341.33 555.51 341.74 562.09 343.5 558.63 325.1 558.62 320.07 562.38 316.29 562.15 313.03 560.58 310.71 554.86 307.28 550.37 300.58 548.54 302.43 539.54 301.47 531.65 305.78 530.03 311.22 526.59 311.54"/><polygon class="cls-7" points="515.43 249.51 521.83 251.08 522.67 242.75 524.72 241.41 515.39 222.36 498.6 227.33 498.9 232.3 495.66 234.18 494.28 241.02 494.43 245.47 499.74 242.82 500.89 247 506.54 246.83 508.43 248.63 511.43 248 515.43 249.51"/><polygon class="cls-8" points="515.43 249.51 521.83 251.08 522.67 242.75 524.72 241.41 515.39 222.36 498.6 227.33 498.9 232.3 495.66 234.18 494.28 241.02 494.43 245.47 499.74 242.82 500.89 247 506.54 246.83 508.43 248.63 511.43 248 515.43 249.51"/><polygon class="cls-7" points="217.11 337.01 223.08 340.6 222.13 349.61 222 362.08 220.33 374.23 249.58 373.78 255.76 329.91 253.77 326.14 251.45 325.82 249.76 321.14 246.39 323.54 237.37 324.24 234.25 326.39 221.42 321.93 218.97 335.01 217.11 337.01"/><polygon class="cls-8" points="217.11 337.01 223.08 340.6 222.13 349.61 222 362.08 220.33 374.23 249.58 373.78 255.76 329.91 253.77 326.14 251.45 325.82 249.76 321.14 246.39 323.54 237.37 324.24 234.25 326.39 221.42 321.93 218.97 335.01 217.11 337.01"/><polygon class="cls-7" points="436.75 318.16 444.05 326.75 448.41 325.34 463.13 312.82 462.83 307.86 464.32 306.51 462.98 300.3 456.98 297.18 452.51 293.43 451.75 289.27 452.79 281.02 448.65 282.61 440.14 282.47 437.09 281.26 436.67 294.96 434.3 294.8 429.62 297.83 426.85 305.4 435.67 310.88 436.75 318.16"/><polygon class="cls-8" points="436.75 318.16 444.05 326.74 448.41 325.34 463.13 312.82 462.83 307.86 464.32 306.51 462.98 300.29 456.98 297.18 452.51 293.43 451.75 289.27 452.79 281.02 448.65 282.61 440.14 282.47 437.09 281.26 436.67 294.96 434.3 294.8 429.62 297.83 426.85 305.4 435.67 310.88 436.75 318.16"/><polygon class="cls-7" points="583.71 214.32 585.84 209.69 590.24 206.65 596.12 210.63 599.46 215.72 602.7 212.97 605.66 216.44 609.8 216.12 613.13 213.94 615.57 214.54 620.45 208.96 622.21 196.54 610.78 192.83 606.06 193.38 599.43 185.92 590.06 181.87 588.56 182.73 586.7 188.41 584.28 189.95 584.79 199.04 575.78 201.1 578.51 208.11 578.59 210.88 581.88 214.4 583.71 214.32"/><polygon class="cls-8" points="583.71 214.31 585.84 209.69 590.24 206.65 596.12 210.63 599.46 215.72 602.7 212.97 605.66 216.43 609.8 216.12 613.13 213.94 615.57 214.54 620.45 208.96 622.21 196.54 610.79 192.83 606.06 193.38 599.43 185.92 590.06 181.87 588.56 182.72 586.7 188.41 584.28 189.95 584.79 199.04 575.78 201.1 578.51 208.11 578.59 210.87 581.88 214.4 583.71 214.31"/><polygon class="cls-7" points="426.58 173.35 434.29 172.17 439 168.61 442.3 168.13 445.69 165.35 443.46 163.6 438.38 154.96 426.2 162.66 423.87 162.3 420.22 158.08 413.13 157.59 421.6 169.03 423.05 173.91 426.58 173.35"/><polygon class="cls-8" points="426.58 173.35 434.29 172.17 439 168.6 442.3 168.13 445.69 165.35 443.46 163.6 438.38 154.96 426.2 162.66 423.87 162.3 420.22 158.08 413.13 157.59 421.6 169.02 423.05 173.91 426.58 173.35"/><polygon class="cls-7" points="128.95 360.39 128.97 342.67 128.7 341.9 120.58 343.09 114.58 345.45 108.66 343.8 107.1 345.82 105.45 343.04 102.42 352.8 99.73 353.39 99.06 356.52 103.57 359.1 105.18 357.9 108.23 360.37 128.95 360.39"/><polygon class="cls-8" points="128.95 360.39 128.97 342.67 128.7 341.9 120.58 343.09 114.58 345.45 108.66 343.79 107.1 345.82 105.45 343.04 102.42 352.8 99.73 353.39 99.06 356.52 103.57 359.1 105.18 357.9 108.23 360.37 128.95 360.39"/><polygon class="cls-7" points="480.66 119.94 482.05 127.65 485.18 130.61 484.25 135.29 486.15 139.91 484.15 145.77 485.11 148.79 487.85 150.24 490.35 149.64 503.05 143.09 502.84 141.15 498.45 134.58 495.91 127.66 493.73 126.05 487.23 124.35 485.63 117.89 483.57 117.16 480.66 119.94"/><polygon class="cls-8" points="480.66 119.94 482.05 127.65 485.18 130.6 484.25 135.29 486.15 139.91 484.15 145.77 485.11 148.79 487.85 150.24 490.35 149.64 503.05 143.09 502.84 141.15 498.45 134.57 495.91 127.66 493.73 126.04 487.23 124.35 485.63 117.89 483.57 117.15 480.66 119.94"/><polygon class="cls-7" points="191 388.46 192.7 384.04 189.59 370.06 186.31 363.05 155.69 362.69 155.41 388.05 191 388.46"/><polygon class="cls-8" points="191 388.46 192.69 384.03 189.59 370.06 186.31 363.05 155.69 362.69 155.41 388.05 191 388.46"/><polygon class="cls-7" points="187.49 318.83 191.91 319.33 197.36 330.24 205.4 341.25 206.94 342.26 214.55 339.8 218.97 335.01 221.42 321.93 219.19 319.03 214.64 317.26 211.88 312.04 212.01 304.51 210.27 306.14 207.53 304.22 210.6 301.27 211.58 298.37 191.2 312.8 188.07 314.44 187.49 318.83"/><polygon class="cls-8" points="187.49 318.83 191.91 319.33 197.36 330.23 205.4 341.25 206.94 342.26 214.55 339.8 218.97 335.01 221.42 321.93 219.19 319.03 214.64 317.26 211.88 312.04 212.01 304.5 210.27 306.14 207.53 304.22 210.6 301.27 211.58 298.37 191.2 312.8 188.07 314.44 187.49 318.83"/><polygon class="cls-7" points="303.59 337.24 308.59 321.23 310.02 318.26 315.73 319.03 318.31 317.79 320.52 321.51 324.73 321.56 326.07 319.82 318.89 300.07 308.69 296.69 296.65 306.06 295.36 303.8 291.99 303.58 290.96 308.39 285.22 315.48 285.61 318.93 283.55 319.15 283.24 322.6 285.08 323.42 285.67 328.1 281.81 330.14 289.66 331.44 303.59 337.24"/><polygon class="cls-8" points="303.59 337.24 308.59 321.22 310.02 318.26 315.73 319.03 318.3 317.79 320.52 321.51 324.73 321.56 326.07 319.82 318.89 300.07 308.69 296.69 296.65 306.06 295.36 303.8 291.99 303.58 290.96 308.39 285.23 315.47 285.61 318.93 283.55 319.15 283.24 322.6 285.08 323.42 285.67 328.1 281.81 330.14 289.66 331.44 303.59 337.24"/><polygon class="cls-7" points="380.08 253.76 384.52 253.39 387.96 251.35 393.27 246.19 392.49 243.82 395.49 241.72 396.71 237.88 400.19 235.06 398.53 232.91 401.75 224.83 405.3 222.02 394.87 226.62 382.15 225.24 368.26 230.06 363.73 234.44 366.2 235.14 366.42 240.32 370.38 239.84 372.49 242.68 371.75 246.59 373.61 248.98 377.99 251.12 380.08 253.76"/><polygon class="cls-8" points="380.08 253.76 384.52 253.38 387.96 251.35 393.27 246.19 392.49 243.82 395.49 241.72 396.71 237.88 400.19 235.06 398.53 232.91 401.75 224.83 405.3 222.02 394.87 226.62 382.15 225.24 368.25 230.06 363.73 234.43 366.2 235.14 366.42 240.32 370.38 239.84 372.49 242.68 371.75 246.59 373.61 248.98 377.99 251.12 380.08 253.76"/><polygon class="cls-7" points="306.51 269.25 306.33 273.65 310.26 279.29 311.73 275.64 314.96 276.68 316.85 273.28 319.9 276.62 325.23 279.07 330.44 279.59 329.88 276.95 333.38 277.77 336.18 276.28 346.29 255.09 338.25 246.54 323.69 234.31 318.58 229.53 315.8 231.62 315.78 237.57 317.3 241.46 315.05 242.88 310.6 242.44 309.83 248.01 305.19 250.59 303.28 255.74 307.87 269.94 306.51 269.25"/><polygon class="cls-8" points="306.51 269.25 306.33 273.65 310.26 279.29 311.73 275.64 314.96 276.68 316.85 273.28 319.91 276.62 325.23 279.07 330.44 279.58 329.88 276.95 333.38 277.77 336.18 276.28 346.29 255.09 338.25 246.54 323.69 234.31 318.58 229.53 315.8 231.62 315.78 237.57 317.3 241.46 315.05 242.87 310.61 242.44 309.83 248.01 305.19 250.59 303.28 255.74 307.87 269.94 306.51 269.25"/><polygon class="cls-7" points="558.91 302.92 562.47 302.16 564.73 298.5 566.56 298.44 571.09 302.69 574.39 299.66 581.62 296.33 586.08 291.76 587.34 294.7 593.45 295.66 592.64 290.33 595.87 286.38 595.91 284.04 599.52 283.31 600.93 285.11 607.86 285.6 602.3 280.83 602.65 277.32 600.46 277.25 595.96 273.44 592.64 274.93 589.62 271.3 583.35 268.44 576.67 267.92 571.75 265.33 568.72 267.03 566.86 271.77 563.28 273.65 561 271.66 556.35 285.27 558.78 289.42 559.89 294.17 558.91 302.92"/><polygon class="cls-8" points="558.91 302.92 562.47 302.16 564.73 298.5 566.56 298.44 571.09 302.69 574.39 299.66 581.62 296.33 586.08 291.76 587.34 294.7 593.45 295.66 592.64 290.33 595.87 286.38 595.91 284.03 599.52 283.31 600.93 285.1 607.86 285.6 602.3 280.83 602.65 277.32 600.46 277.25 595.96 273.44 592.64 274.93 589.62 271.3 583.35 268.44 576.67 267.91 571.75 265.32 568.72 267.03 566.86 271.77 563.28 273.65 561 271.66 556.35 285.27 558.78 289.42 559.89 294.17 558.91 302.92"/><polygon class="cls-7" points="505.22 173.7 504.9 177.07 508.78 176.67 510.02 177.09 516.35 171.42 519.25 173.63 522.67 172.51 529.84 154.27 524.01 152.2 517.68 153.93 514.52 153.62 504.6 150.32 503.17 148.05 502.71 148.58 505.22 173.7"/><polygon class="cls-8" points="505.22 173.69 504.9 177.07 508.78 176.67 510.03 177.09 516.35 171.42 519.25 173.63 522.67 172.51 529.84 154.27 524.01 152.2 517.68 153.93 514.52 153.62 504.6 150.32 503.17 148.05 502.71 148.58 505.22 173.69"/><polygon class="cls-7" points="452.79 281.02 457.9 278.07 468.1 273.81 468.24 272.06 466.42 271.81 464.62 265.54 461.14 263.95 438.28 267.49 437.09 281.26 440.14 282.47 448.65 282.61 452.79 281.02"/><polygon class="cls-8" points="452.79 281.02 457.9 278.07 468.1 273.81 468.24 272.06 466.42 271.81 464.62 265.54 461.14 263.95 438.28 267.49 437.09 281.26 440.14 282.47 448.65 282.61 452.79 281.02"/><polygon class="cls-7" points="618.54 195.44 622.21 196.54 620.45 208.96 622.72 209.88 628.19 207.11 634.08 206.35 635.95 208.58 638.35 207.02 638.61 201.48 636.47 198.37 636.66 190.45 635.27 185.27 630.96 181.68 622.4 189.3 618.54 195.44"/><polygon class="cls-8" points="618.54 195.44 622.21 196.54 620.45 208.96 622.72 209.88 628.19 207.11 634.08 206.35 635.95 208.58 638.35 207.02 638.61 201.48 636.47 198.37 636.66 190.45 635.27 185.27 630.96 181.68 622.4 189.29 618.54 195.44"/><polygon class="cls-7" points="489.18 212.72 491.05 212.34 492.97 215.78 490.88 222.52 498.6 227.33 515.39 222.36 522.8 216.11 524.49 212.54 516.87 209.88 515.5 205.93 512.18 205.7 508.42 197.42 506.13 195.66 498.89 201.85 493.86 204.68 485.84 204.89 489.18 212.72"/><polygon class="cls-8" points="489.18 212.72 491.05 212.34 492.97 215.78 490.88 222.52 498.6 227.33 515.39 222.36 522.8 216.11 524.49 212.54 516.87 209.88 515.5 205.93 512.18 205.7 508.42 197.42 506.13 195.66 498.89 201.85 493.86 204.68 485.84 204.88 489.18 212.72"/><polygon class="cls-7" points="450.89 140.34 456.4 141.24 457.05 144.9 468.08 153.3 471.71 150.68 473.16 142.59 471.07 122.12 465.86 119.2 463.32 115.51 460.38 114.5 448.71 123.9 453.93 131.88 453.79 134.35 450.19 138.75 450.89 140.34"/><polygon class="cls-8" points="450.89 140.34 456.4 141.24 457.05 144.9 468.08 153.3 471.71 150.68 473.16 142.59 471.07 122.12 465.86 119.2 463.32 115.51 460.38 114.5 448.71 123.9 453.93 131.88 453.79 134.34 450.19 138.74 450.89 140.34"/><polygon class="cls-7" points="527.65 379.26 547.25 379.77 548.5 377.92 554.2 374.16 560.21 371.39 566.02 371.4 566.17 368.08 562.75 364.43 563.98 359.34 561.89 356.83 564.31 352.63 563.65 347.9 562.09 343.5 555.51 341.74 556.76 345.97 551.22 350.78 547.95 351.99 543.37 356.77 539.82 357.36 537.57 362.94 531.98 369.12 525.48 373.75 527.65 379.26"/><polygon class="cls-8" points="527.65 379.25 547.25 379.77 548.5 377.92 554.19 374.16 560.21 371.39 566.02 371.4 566.17 368.08 562.75 364.42 563.98 359.34 561.9 356.83 564.31 352.63 563.65 347.9 562.09 343.5 555.51 341.74 556.76 345.97 551.22 350.78 547.95 351.99 543.37 356.77 539.82 357.36 537.57 362.94 531.98 369.12 525.48 373.75 527.65 379.25"/><polygon class="cls-7" points="541.62 234.4 545.26 233.82 549.53 231.35 553.83 233.54 556.42 232.9 556.69 228.17 562.89 228.97 565.65 225.55 560.02 224.42 561.58 223.06 555.84 219.22 554.28 221.45 553.08 218.31 555.42 216.66 551.77 214.82 547.66 212.05 547.73 208.13 542 204.75 534.4 203.46 523.77 214.33 524.32 217.71 531.66 220.11 536.61 225.85 538.19 229.98 541.62 234.4"/><polygon class="cls-8" points="541.62 234.4 545.26 233.82 549.53 231.35 553.83 233.54 556.42 232.9 556.69 228.17 562.89 228.97 565.65 225.55 560.02 224.42 561.58 223.06 555.84 219.22 554.28 221.45 553.08 218.31 555.42 216.66 551.77 214.82 547.66 212.05 547.73 208.13 542 204.75 534.4 203.46 523.77 214.32 524.32 217.71 531.66 220.11 536.61 225.85 538.19 229.98 541.62 234.4"/><polygon class="cls-7" points="360.56 365.51 374.43 355.43 379.97 353.41 378.57 326.08 376.9 323.04 379.57 319.81 366.29 322.02 354.06 320.09 352.54 331.74 349.4 330.96 345.05 343.96 345.8 346.77 349.69 350.65 352.35 347.17 352.3 352.06 354.09 354.69 355.6 361.69 358.5 361.88 360.56 365.51"/><polygon class="cls-8" points="360.56 365.51 374.43 355.43 379.97 353.41 378.57 326.08 376.9 323.04 379.57 319.81 366.29 322.02 354.06 320.09 352.54 331.74 349.4 330.96 345.05 343.96 345.8 346.77 349.69 350.64 352.35 347.17 352.3 352.05 354.09 354.69 355.6 361.69 358.5 361.88 360.56 365.51"/><polygon class="cls-7" points="102.72 339.17 107.1 345.82 108.66 343.8 114.58 345.45 120.58 343.09 128.7 341.9 119.14 314.17 115.95 313.68 111.24 315.59 106.1 321.19 104.6 325.02 99.65 330.25 98.76 333.31 100.05 336.93 102.72 339.17"/><polygon class="cls-8" points="102.72 339.16 107.1 345.82 108.66 343.79 114.58 345.45 120.58 343.09 128.7 341.9 119.14 314.17 115.95 313.68 111.24 315.59 106.1 321.19 104.6 325.02 99.65 330.25 98.76 333.3 100.05 336.93 102.72 339.16"/><polygon class="cls-7" points="427.85 244.88 430.15 242.92 431.6 245.3 437.85 245.5 441.33 244.09 442.52 240.95 445.78 239.03 449.82 240.49 456.91 237.43 454.71 236.19 454.06 231.07 452.5 229.11 454.38 225.67 451.27 222.2 447.41 224.38 443 221.91 438.38 220.9 436.54 222.81 436.43 226.77 431.96 230.44 429.62 234.72 426.5 234.52 427.85 244.88"/><polygon class="cls-8" points="427.85 244.88 430.15 242.92 431.6 245.3 437.85 245.5 441.33 244.09 442.53 240.95 445.78 239.02 449.82 240.48 456.91 237.43 454.71 236.19 454.06 231.06 452.5 229.11 454.38 225.67 451.27 222.2 447.41 224.38 443 221.91 438.38 220.9 436.54 222.81 436.43 226.77 431.96 230.44 429.62 234.71 426.5 234.52 427.85 244.88"/><polygon class="cls-7" points="341.9 373.96 360.7 375.09 362.83 371.8 360.56 365.51 358.5 361.88 355.6 361.69 354.09 354.69 352.3 352.06 352.35 347.17 349.69 350.65 345.8 346.77 345.05 343.96 342.39 343.8 341.25 347.06 336.77 348.23 337.17 350.19 325.53 360.06 324.46 370.02 325.07 372.83 341.9 373.96"/><polygon class="cls-8" points="341.9 373.95 360.7 375.08 362.83 371.8 360.56 365.51 358.5 361.88 355.6 361.69 354.09 354.69 352.3 352.05 352.35 347.17 349.69 350.64 345.8 346.77 345.05 343.96 342.39 343.79 341.25 347.06 336.77 348.23 337.17 350.19 325.53 360.06 324.46 370.01 325.07 372.83 341.9 373.95"/><polygon class="cls-7" points="403.43 343.53 421.38 344.88 423.51 337.57 426.76 333.81 436.75 318.16 435.67 310.88 426.85 305.4 424.97 305.74 424.63 309.33 418.17 310.5 414.63 312.61 411.52 317.51 409.31 319.99 397.3 326.01 399.21 336.45 404.26 341.92 403.43 343.53"/><polygon class="cls-8" points="403.43 343.53 421.38 344.88 423.51 337.57 426.76 333.81 436.75 318.16 435.67 310.88 426.85 305.4 424.97 305.74 424.63 309.33 418.17 310.5 414.63 312.61 411.52 317.51 409.31 319.98 397.3 326.01 399.21 336.44 404.26 341.91 403.43 343.53"/></g></g><path class="cls-9" d="M209.24,123.18h4.67v11.94H214l9.37-11.94h5.18l-8.08,10.26,9.45,16H224.8l-7.11-12.39-3.78,4.71v7.68h-4.67Z"/><path class="cls-9" d="M231.08,139.63c0-6.44,4.46-10.38,9.08-10.38,5.35,0,8.17,3.86,8.17,9.37a10.75,10.75,0,0,1-.2,2.25H235.58c.4,3.5,2.65,5.51,5.83,5.51a8.18,8.18,0,0,0,4.58-1.45l1.57,2.9a12.42,12.42,0,0,1-6.75,2.13C235.34,150,231.08,146.14,231.08,139.63Zm13.23-1.89c0-3.06-1.33-4.91-4-4.91-2.33,0-4.34,1.73-4.74,4.91Z"/><path class="cls-9" d="M252.75,129.74h3.82l.32,2.65h.16c1.77-1.73,3.78-3.14,6.48-3.14,4.22,0,6.07,2.86,6.07,7.84v12.39H265V137.7c0-3.26-.92-4.47-3.09-4.47-1.73,0-2.86.85-4.51,2.46v13.79h-4.62Z"/><path class="cls-9" d="M276,142.8v-9.4h-2.81v-3.46l3.05-.2.57-5.39h3.85v5.39h5v3.66h-5v9.4c0,2.34.89,3.46,2.78,3.46a5.69,5.69,0,0,0,2.05-.44l.8,3.42a12.62,12.62,0,0,1-4,.72C277.64,150,276,147.07,276,142.8Z"/><path class="cls-9" d="M289.58,142.12V129.74h4.63v11.78c0,3.25.92,4.46,3.05,4.46,1.73,0,2.9-.8,4.38-2.73V129.74h4.63v19.74h-3.78l-.36-2.9H302c-1.73,2-3.66,3.38-6.36,3.38C291.43,150,289.58,147.11,289.58,142.12Z"/><path class="cls-9" d="M310.85,139.63c0-6.6,4.63-10.38,9.89-10.38a8.47,8.47,0,0,1,5.79,2.22l-2.25,3A4.84,4.84,0,0,0,321,133c-3.17,0-5.38,2.62-5.38,6.6s2.17,6.55,5.26,6.55a6.58,6.58,0,0,0,4.07-1.69l1.88,3.06a9.82,9.82,0,0,1-6.43,2.41C315,150,310.85,146.18,310.85,139.63Z"/><path class="cls-9" d="M330.72,121.09h4.54v17.73h.12l7.32-9.08h5.06l-6.75,8,7.44,11.7h-5l-5.07-8.57-3.09,3.54v5h-4.54Z"/><path class="cls-9" d="M350.46,157.2l.84-3.62a4.9,4.9,0,0,0,1.41.28c2.09,0,3.3-1.41,3.94-3.38l.36-1.24-7.76-19.5H354l3.41,9.69c.57,1.73,1.13,3.7,1.73,5.55h.16c.49-1.81,1-3.78,1.49-5.55l3-9.69h4.46L361,150.36c-1.65,4.47-3.7,7.24-8,7.24A7.7,7.7,0,0,1,350.46,157.2Z"/><path class="cls-9" d="M253.06,162.19h4.07c4.66,0,7.41,2.51,7.41,7.54s-2.75,7.68-7.27,7.68h-4.21Zm3.89,13c3.07,0,4.82-1.75,4.82-5.5s-1.75-5.36-4.82-5.36h-1.19v10.86Z"/><path class="cls-9" d="M267.07,162.46a1.66,1.66,0,1,1,1.66,1.52A1.54,1.54,0,0,1,267.07,162.46Zm.31,3.52h2.67v11.43h-2.67Z"/><path class="cls-9" d="M272.33,176.11l1.26-1.72a5.1,5.1,0,0,0,3.17,1.28c1.23,0,1.81-.58,1.81-1.38s-1.23-1.37-2.44-1.84c-1.51-.55-3.21-1.42-3.21-3.33s1.6-3.42,4.16-3.42a6.18,6.18,0,0,1,3.8,1.37l-1.24,1.63a4.24,4.24,0,0,0-2.51-1c-1.14,0-1.68.53-1.68,1.25,0,.91,1.15,1.26,2.38,1.7,1.56.59,3.28,1.33,3.28,3.47,0,2-1.56,3.54-4.45,3.54A7.23,7.23,0,0,1,272.33,176.11Z"/><path class="cls-9" d="M283.44,173.55V168.1h-1.63v-2l1.77-.12.32-3.12h2.24V166h2.91v2.12h-2.91v5.45c0,1.35.51,2,1.61,2a3.23,3.23,0,0,0,1.18-.26l.47,2a7.3,7.3,0,0,1-2.33.42C284.42,177.69,283.44,176,283.44,173.55Z"/><path class="cls-9" d="M291.45,166h2.21l.18,2h.1a3.88,3.88,0,0,1,3.23-2.31,3,3,0,0,1,1.31.23l-.47,2.33a3.92,3.92,0,0,0-1.19-.18c-.9,0-2,.62-2.7,2.35v7h-2.67Z"/><path class="cls-9" d="M299.83,162.46a1.66,1.66,0,1,1,1.65,1.52A1.53,1.53,0,0,1,299.83,162.46Zm.3,3.52h2.68v11.43h-2.68Z"/><path class="cls-9" d="M305.48,171.71a5.64,5.64,0,0,1,5.73-6,4.9,4.9,0,0,1,3.35,1.28l-1.3,1.75a2.79,2.79,0,0,0-1.91-.84c-1.84,0-3.12,1.51-3.12,3.82s1.26,3.79,3,3.79a3.81,3.81,0,0,0,2.35-1l1.1,1.77a5.71,5.71,0,0,1-3.73,1.39C307.88,177.69,305.48,175.5,305.48,171.71Z"/><path class="cls-9" d="M317.15,173.55V168.1h-1.63v-2l1.77-.12.32-3.12h2.24V166h2.91v2.12h-2.91v5.45c0,1.35.51,2,1.6,2a3.24,3.24,0,0,0,1.19-.26l.47,2a7.3,7.3,0,0,1-2.33.42C318.12,177.69,317.15,176,317.15,173.55Z"/><circle class="cls-10" cx="380.06" cy="215.83" r="26.39"/><circle class="cls-11" cx="380.06" cy="215.83" r="8.13"/></g></svg>