<svg xmlns="http://www.w3.org/2000/svg" xmlns:xlink="http://www.w3.org/1999/xlink" viewBox="0 0 781.32 496.46"><defs><style>.cls-1,.cls-2,.cls-5,.cls-7,.cls-9{fill:none;}.cls-2{clip-rule:evenodd;}.cls-3{fill:#e6e6e6;}.cls-4{clip-path:url(#clip-path-2);}.cls-5{stroke:#f0f0f0;stroke-width:2.54px;}.cls-10,.cls-5,.cls-9{stroke-miterlimit:10;}.cls-6,.cls-8{fill:#007dbc;}.cls-6{opacity:0.8;}.cls-7{stroke:#0675af;stroke-linejoin:bevel;stroke-width:0.64px;}.cls-10,.cls-9{stroke:#fff;}.cls-9{stroke-width:3px;}.cls-10{fill:#fff;}</style><clipPath id="clip-path"><path class="cls-2" d="M634.43,510"/></clipPath><clipPath id="clip-path-2"><polyline class="cls-1" points="699.87 554.23 699.87 -57.77 -92.13 -57.77 -92.13 554.23"/></clipPath></defs><g id="Layer_4" data-name="Layer 4"><rect class="cls-3" x="-16.21" y="-23.4" width="813.74" height="538.15"/></g><g id="Layer_1" data-name="Layer 1"><g class="cls-4"><polygon class="cls-5" points="378.14 125.86 376.05 132.28 369.29 132.28 374.76 136.25 372.67 142.68 378.14 138.71 383.6 142.68 381.51 136.25 386.99 132.28 380.22 132.28 378.14 125.86"/><polygon class="cls-6" points="222.77 159 223.86 162.33 230.71 154.9 236.08 152.87 249.81 141.94 256.93 138.92 268.97 123.42 274.86 120.24 282.13 108.06 281.39 104.78 287.34 98.72 257.38 62.3 250.73 67.69 248.51 73.22 232.74 82.94 234.27 87.48 244.31 106.33 242.72 111.39 232.17 126.2 226.57 125.43 222.82 130.62 224.88 134.17 221.7 142.55 225.66 145.29 222.22 151.41 222.77 159"/><polygon class="cls-7" points="222.77 159 223.86 162.33 230.7 154.9 236.08 152.87 249.81 141.94 256.93 138.92 268.97 123.42 274.86 120.23 282.13 108.06 281.39 104.78 287.34 98.72 257.38 62.3 250.73 67.69 248.51 73.22 232.74 82.93 234.27 87.48 244.31 106.33 242.72 111.38 232.16 126.2 226.57 125.43 222.82 130.61 224.88 134.17 221.7 142.55 225.66 145.29 222.22 151.4 222.77 159"/><polygon class="cls-6" points="368.16 160.87 378.81 143.37 372.59 143.53 369.44 139.44 359.96 136.48 353.91 137.45 346.95 133.06 333.57 145.99 334.94 149.96 342.4 148.15 340.09 155.16 333.24 160.93 357.26 158.94 359.07 162.31 368.16 160.87"/><polygon class="cls-7" points="368.16 160.87 378.81 143.37 372.59 143.53 369.44 139.43 359.96 136.47 353.91 137.45 346.95 133.06 333.57 145.99 334.94 149.96 342.41 148.15 340.08 155.16 333.24 160.92 357.26 158.94 359.07 162.31 368.16 160.87"/><polygon class="cls-6" points="253.65 62.74 257.38 62.3 287.34 98.72 292.8 96.95 295.8 101.25 304.63 96.79 306.74 87.68 347.86 40.63 334.05 31.56 298.33 9.68 289.55 11.95 276.73 25.73 270.15 45.05 263.96 53.59 253.65 62.74"/><polygon class="cls-7" points="253.65 62.74 257.38 62.3 287.34 98.72 292.8 96.95 295.8 101.25 304.63 96.79 306.74 87.68 347.86 40.63 334.05 31.56 298.33 9.68 289.55 11.94 276.73 25.73 270.14 45.05 263.96 53.59 253.65 62.74"/><polygon class="cls-6" points="290.32 195.54 294.2 205.16 304.92 201.94 309.69 205.22 314.75 196.74 322.4 192.55 333.8 182.32 325.63 172.38 323.84 166.97 333.24 160.93 340.09 155.16 342.4 148.15 334.94 149.96 333.57 145.99 324.19 151.01 325.61 141.32 319.27 129.34 293.78 137.05 293.87 154.48 297.23 156.48 295.6 163.84 286.3 179.67 282.84 177.43 290.32 195.54"/><polygon class="cls-7" points="290.32 195.53 294.2 205.16 304.92 201.94 309.69 205.22 314.75 196.74 322.4 192.55 333.79 182.32 325.63 172.38 323.84 166.97 333.24 160.92 340.08 155.16 342.41 148.15 334.94 149.96 333.57 145.99 324.19 151.01 325.61 141.32 319.27 129.34 293.78 137.05 293.87 154.48 297.23 156.48 295.6 163.84 286.3 179.67 282.84 177.43 290.32 195.53"/><polygon class="cls-6" points="168.31 351.42 168.7 356.36 176.93 363.47 171.65 384.7 191.16 400.31 189.43 393.53 191.91 384.51 196.01 385.91 200.87 378.97 204.5 378.72 216.34 365.49 239.78 385.29 241.2 368.37 243.06 363.65 222.34 344.44 203.17 339.61 195.68 332.82 190.8 320.79 187.77 321.54 168.31 351.42"/><polygon class="cls-7" points="168.31 351.42 168.7 356.36 176.93 363.47 171.65 384.7 191.16 400.31 189.43 393.53 191.91 384.51 196.01 385.91 200.87 378.97 204.5 378.71 216.34 365.48 239.78 385.29 241.2 368.37 243.06 363.65 222.34 344.44 203.17 339.61 195.68 332.81 190.8 320.79 187.77 321.53 168.31 351.42"/><polygon class="cls-6" points="327.25 64 329.65 65.99 327.89 74.22 335.63 70.35 344.57 78.81 349.57 78.45 360.61 85.15 359.52 95.18 361.98 101.61 383.37 117.02 385.65 106.25 380.66 92.81 381.74 87.9 369.07 84.83 361.92 77.51 370.83 54.41 347.86 40.63 327.25 64"/><polygon class="cls-7" points="327.25 63.99 329.65 65.99 327.89 74.21 335.63 70.34 344.57 78.8 349.57 78.45 360.6 85.15 359.52 95.18 361.98 101.61 383.37 117.02 385.65 106.25 380.66 92.81 381.74 87.9 369.06 84.83 361.91 77.51 370.83 54.41 347.86 40.63 327.25 63.99"/><polygon class="cls-6" points="319.67 263.59 344.24 323.6 344.17 358.3 340.54 365.11 333.36 366.09 346.11 380.38 356.18 380.96 364.34 369.53 379.44 344.52 388.88 326 392.79 282.4 397.86 258.84 395.17 258.88 392.19 261.62 386.68 252.21 380.36 259.71 368.86 257.68 362.8 245.93 341.7 245.22 323.3 261.58 319.67 263.59"/><polygon class="cls-7" points="319.67 263.58 344.24 323.59 344.17 358.3 340.54 365.11 333.36 366.09 346.11 380.38 356.18 380.96 364.34 369.52 379.44 344.51 388.88 326 392.79 282.4 397.86 258.84 395.17 258.88 392.19 261.62 386.68 252.21 380.36 259.71 368.85 257.68 362.8 245.92 341.7 245.21 323.3 261.58 319.67 263.58"/><polygon class="cls-6" points="293.78 137.05 319.27 129.34 325.61 141.32 324.19 151.01 333.57 145.99 346.95 133.06 347.76 122.09 352.02 118.25 354.52 108.26 352.61 100.02 361.98 101.61 359.52 95.18 360.61 85.15 349.57 78.45 344.57 78.81 335.63 70.35 327.89 74.22 329.65 65.99 327.25 64 306.74 87.68 304.63 96.79 295.8 101.25 292.8 96.95 287.34 98.72 281.39 104.78 282.13 108.06 274.86 120.24 268.97 123.42 278.37 132.11 293.78 137.05"/><polygon class="cls-7" points="293.78 137.05 319.27 129.34 325.61 141.32 324.19 151.01 333.57 145.99 346.95 133.06 347.76 122.09 352.02 118.25 354.52 108.26 352.61 100.02 361.98 101.61 359.52 95.18 360.6 85.15 349.57 78.45 344.57 78.8 335.63 70.34 327.89 74.21 329.65 65.99 327.25 63.99 306.74 87.68 304.63 96.79 295.8 101.25 292.8 96.95 287.34 98.72 281.39 104.78 282.13 108.06 274.86 120.23 268.97 123.42 278.37 132.1 293.78 137.05"/><polygon class="cls-6" points="314.44 251.97 319.67 263.59 323.3 261.58 341.7 245.22 362.8 245.93 368.86 257.68 380.36 259.71 386.68 252.21 392.19 261.62 395.17 258.88 397.86 258.84 406.43 220.06 404.56 198.98 382.76 189.13 369.1 189.76 365.56 199 346.55 218.57 343.23 224.26 333.52 229.68 330.03 229.27 321.1 236.55 318.24 241.77 310.58 243.19 314.44 251.97"/><polygon class="cls-7" points="314.44 251.97 319.67 263.58 323.3 261.58 341.7 245.21 362.8 245.92 368.85 257.68 380.36 259.71 386.68 252.21 392.19 261.62 395.17 258.88 397.86 258.84 406.43 220.05 404.56 198.97 382.76 189.13 369.1 189.76 365.56 198.99 346.54 218.57 343.23 224.25 333.52 229.68 330.03 229.27 321.1 236.54 318.24 241.77 310.58 243.19 314.44 251.97"/><polygon class="cls-6" points="309.69 205.22 309.38 215.24 321.72 222.4 330.44 225.3 330.03 229.27 333.52 229.68 343.23 224.26 346.55 218.57 365.56 199 369.1 189.76 363.51 187.49 368.16 160.87 359.07 162.31 357.26 158.94 333.24 160.93 323.84 166.97 325.63 172.38 333.8 182.32 322.4 192.55 314.75 196.74 309.69 205.22"/><polyline class="cls-7" points="333.24 160.92 323.84 166.97 325.63 172.38 333.79 182.32 322.4 192.55 314.75 196.74 309.69 205.22 309.38 215.24 321.72 222.4 330.44 225.3 330.03 229.27 333.52 229.68 343.23 224.25 346.54 218.57 365.56 198.99 369.1 189.76 363.51 187.49 368.16 160.87 359.07 162.31"/><polygon class="cls-6" points="293.92 250.16 295.89 243.58 301.37 244.98 309.12 251.22 314.44 251.97 310.58 243.19 318.24 241.77 321.1 236.55 330.03 229.27 330.44 225.3 321.72 222.4 309.38 215.24 309.69 205.22 304.92 201.94 294.2 205.16 290.32 195.54 281.23 197 282.2 203.27 272 204.69 274.03 210.83 260.99 211.82 272.24 221 276.14 229.82 286.96 236.92 293.92 250.16"/><polygon class="cls-7" points="293.92 250.16 295.89 243.58 301.37 244.98 309.12 251.22 314.44 251.97 310.58 243.19 318.24 241.77 321.1 236.54 330.03 229.27 330.44 225.3 321.72 222.4 309.38 215.24 309.69 205.22 304.92 201.94 294.2 205.16 290.32 195.53 281.23 197 282.2 203.27 272 204.69 274.03 210.83 260.99 211.82 272.24 221 276.14 229.82 286.96 236.92 293.92 250.16"/><polygon class="cls-6" points="260.99 211.82 274.03 210.83 272 204.69 282.2 203.27 281.23 197 290.32 195.54 282.84 177.43 286.3 179.67 295.6 163.84 297.23 156.48 293.87 154.48 293.78 137.05 278.37 132.11 268.97 123.42 256.93 138.92 249.81 141.94 236.08 152.87 230.71 154.9 223.86 162.33 226.37 167.76 237.38 167.17 242.27 172.76 243.23 196.01 247.61 199.35 257.58 200.84 260.99 211.82"/><polygon class="cls-7" points="260.99 211.82 274.03 210.83 272 204.69 282.2 203.27 281.23 197 290.32 195.53 282.84 177.43 286.3 179.67 295.6 163.84 297.23 156.48 293.87 154.48 293.78 137.05 278.37 132.1 268.97 123.42 256.93 138.92 249.81 141.94 236.08 152.87 230.7 154.9 223.86 162.33 226.37 167.76 237.37 167.17 242.27 172.76 243.23 196.01 247.61 199.35 257.58 200.83 260.99 211.82"/><polygon class="cls-6" points="384.48 132.5 380.94 151.44 392.31 148.67 404.08 120.86 400.44 116.3 385.14 126.94 380.72 123.7 378.54 133.7 384.48 132.5"/><polygon class="cls-7" points="384.48 132.5 380.94 151.44 392.31 148.66 404.08 120.85 400.44 116.3 385.14 126.94 380.72 123.69 378.53 133.69 384.48 132.5"/><polygon class="cls-6" points="243.06 363.65 254.63 374.15 270.88 355.89 262.85 339.76 253.35 335.95 241.46 317.88 239.87 310.17 233.36 303.72 208.02 309.56 187.77 321.54 190.8 320.79 195.68 332.82 203.17 339.61 222.34 344.44 243.06 363.65"/><polygon class="cls-7" points="243.06 363.65 254.63 374.15 270.88 355.89 262.85 339.76 253.35 335.94 241.45 317.87 239.87 310.17 233.35 303.72 208.02 309.56 187.77 321.53 190.8 320.79 195.68 332.81 203.17 339.61 222.34 344.44 243.06 363.65"/><polygon class="cls-6" points="346.95 133.06 353.91 137.45 359.96 136.48 369.44 139.44 372.59 143.53 378.81 143.37 384.48 132.5 378.54 133.7 380.72 123.7 383.37 117.02 361.98 101.61 352.61 100.02 354.52 108.26 352.02 118.25 347.76 122.09 346.95 133.06"/><polygon class="cls-7" points="346.95 133.06 353.91 137.45 359.96 136.47 369.44 139.43 372.59 143.53 378.81 143.37 384.48 132.5 378.53 133.69 380.72 123.69 383.37 117.02 361.98 101.61 352.61 100.02 354.52 108.26 352.02 118.25 347.76 122.09 346.95 133.06"/><polygon class="cls-6" points="191.16 400.31 209.1 417.89 234.63 433.93 265.24 439.75 264.05 430.72 267.89 428.68 270.15 414.39 273.29 411.37 274.06 391.72 243.06 363.65 241.2 368.37 239.78 385.29 216.34 365.49 204.5 378.72 200.87 378.97 196.01 385.91 191.91 384.51 189.43 393.53 191.16 400.31"/><polygon class="cls-7" points="191.16 400.31 209.1 417.88 234.63 433.93 265.24 439.75 264.05 430.71 267.89 428.68 270.14 414.38 273.29 411.37 274.06 391.72 243.06 363.65 241.2 368.37 239.78 385.29 216.34 365.48 204.5 378.71 200.87 378.97 196.01 385.91 191.91 384.51 189.43 393.53 191.16 400.31"/><polygon class="cls-6" points="265.24 439.75 267.26 456.7 256.7 486.14 271.79 485.14 274.72 472.32 285.23 465.89 284.06 454.41 293.62 451.34 322.43 415.19 304.89 418.2 284.92 414.62 278.74 414.97 273.29 411.37 270.15 414.39 267.89 428.68 264.05 430.72 265.24 439.75"/><polygon class="cls-7" points="265.24 439.75 267.26 456.69 256.7 486.14 271.79 485.13 274.72 472.32 285.23 465.88 284.06 454.4 293.61 451.34 322.43 415.18 304.89 418.2 284.91 414.62 278.74 414.97 273.29 411.37 270.14 414.38 267.89 428.68 264.05 430.71 265.24 439.75"/><polygon class="cls-6" points="233.36 303.72 239.87 310.17 241.46 317.88 253.35 335.95 262.85 339.76 270.88 355.89 292.1 332.11 281.44 321.6 270.99 321.99 266.83 319.66 262.67 301.29 255.86 290.9 250.44 289.9 250.28 282.95 245.1 280.71 232.89 287.74 233.36 303.72"/><polygon class="cls-7" points="233.35 303.72 239.87 310.17 241.45 317.87 253.35 335.94 262.85 339.76 270.88 355.89 292.09 332.11 281.44 321.6 270.99 321.99 266.83 319.65 262.66 301.28 255.86 290.9 250.44 289.9 250.28 282.95 245.1 280.71 232.89 287.74 233.35 303.72"/><polygon class="cls-6" points="245.1 280.71 250.28 282.95 250.44 289.9 255.86 290.9 262.67 301.29 266.83 319.66 270.99 321.99 281.44 321.6 292.1 332.11 301.2 339.65 304.65 352.34 309.3 352.32 321.5 362.13 333.36 366.09 340.54 365.11 344.17 358.3 344.24 323.6 319.67 263.59 314.44 251.97 309.12 251.22 301.37 244.98 295.89 243.58 293.92 250.16 284.27 255.42 278.56 254.73 272.03 263.11 261.31 266.81 245.1 280.71"/><polygon class="cls-7" points="245.1 280.71 250.28 282.95 250.44 289.9 255.86 290.9 262.66 301.28 266.83 319.65 270.99 321.99 281.44 321.6 292.09 332.11 301.2 339.64 304.65 352.34 309.3 352.32 321.5 362.12 333.36 366.09 340.54 365.11 344.17 358.3 344.24 323.59 319.67 263.58 314.44 251.97 309.12 251.22 301.37 244.98 295.89 243.58 293.92 250.16 284.27 255.42 278.56 254.73 272.03 263.11 261.31 266.81 245.1 280.71"/><polygon class="cls-6" points="370.83 54.41 361.92 77.51 369.07 84.83 381.74 87.9 380.66 92.81 385.65 106.25 383.37 117.02 380.72 123.7 385.14 126.94 400.44 116.3 404.08 120.86 417.61 81.7 370.83 54.41"/><polygon class="cls-7" points="370.83 54.41 361.91 77.51 369.06 84.83 381.74 87.9 380.66 92.81 385.65 106.25 383.37 117.02 380.72 123.69 385.14 126.94 400.44 116.3 404.08 120.85 417.62 81.7 370.83 54.41"/><polygon class="cls-6" points="273.29 411.37 278.74 414.97 284.92 414.62 304.89 418.2 322.43 415.19 341.04 403.9 352.3 390.4 356.18 380.96 346.11 380.38 333.36 366.09 321.5 362.13 309.3 352.32 304.65 352.34 301.2 339.65 292.1 332.11 254.63 374.15 274.06 391.72 273.29 411.37"/><polygon class="cls-7" points="273.29 411.37 278.74 414.97 284.91 414.62 304.89 418.2 322.43 415.18 341.03 403.89 352.29 390.39 356.18 380.96 346.11 380.38 333.36 366.09 321.5 362.12 309.3 352.32 304.65 352.34 301.2 339.64 292.09 332.11 254.63 374.15 274.06 391.72 273.29 411.37"/></g><path class="cls-8" d="M485.27,182.34H490l8.16,14.72,2.68,5.56H501c-.2-2.68-.6-6-.6-8.92V182.34h4.44v26.15h-4.76L492,193.78l-2.68-5.56h-.16c.2,2.76.6,5.92.6,8.84v11.43h-4.44Z"/><path class="cls-8" d="M509.83,198.7c0-6.4,4.44-10.32,9-10.32,5.32,0,8.12,3.84,8.12,9.32a10.72,10.72,0,0,1-.2,2.24H514.31c.4,3.48,2.64,5.48,5.8,5.48a8.2,8.2,0,0,0,4.56-1.44l1.56,2.87a12.39,12.39,0,0,1-6.72,2.12C514.07,209,509.83,205.18,509.83,198.7ZM523,196.82c0-3-1.32-4.88-4-4.88-2.32,0-4.32,1.72-4.72,4.88Z"/><path class="cls-8" d="M529.43,188.86h4.64l2.36,10.2c.4,1.88.68,3.72,1,5.64h.16c.36-1.92.76-3.8,1.24-5.64l2.56-10.2h4.2l2.6,10.2c.47,1.88.88,3.72,1.31,5.64h.16c.37-1.92.68-3.76,1-5.64l2.36-10.2h4.32l-5,19.63H547l-2.28-9.15c-.44-1.84-.76-3.64-1.2-5.72h-.16c-.36,2.08-.72,3.92-1.16,5.76l-2.24,9.11h-5.28Z"/><path class="cls-8" d="M567.35,204.54l3.2-2.36a4.57,4.57,0,0,0,4.08,2.76c2.44,0,3.68-1.32,3.68-5V182.34H583v18c0,4.76-2.33,8.67-7.8,8.67A8.28,8.28,0,0,1,567.35,204.54Z"/><path class="cls-8" d="M587.79,198.7c0-6.4,4.44-10.32,9-10.32,5.31,0,8.11,3.84,8.11,9.32a10.72,10.72,0,0,1-.2,2.24H592.27c.4,3.48,2.64,5.48,5.8,5.48a8.2,8.2,0,0,0,4.55-1.44l1.56,2.87a12.36,12.36,0,0,1-6.71,2.12C592,209,587.79,205.18,587.79,198.7ZM601,196.82c0-3-1.33-4.88-4-4.88-2.32,0-4.32,1.72-4.72,4.88Z"/><path class="cls-8" d="M609.35,188.86h3.8l.32,3.48h.16c1.4-2.56,3.47-4,5.55-4a5,5,0,0,1,2.24.4l-.8,4a6.42,6.42,0,0,0-2-.32c-1.55,0-3.43,1.08-4.63,4v12h-4.6Z"/><path class="cls-8" d="M622.07,206.25l2.16-2.95a8.71,8.71,0,0,0,5.43,2.2c2.12,0,3.12-1,3.12-2.36,0-1.64-2.12-2.36-4.2-3.16-2.59-1-5.51-2.44-5.51-5.72,0-3.44,2.76-5.88,7.15-5.88a10.6,10.6,0,0,1,6.52,2.36l-2.12,2.8a7.31,7.31,0,0,0-4.32-1.68c-1.95,0-2.87.92-2.87,2.16,0,1.56,2,2.16,4.07,2.92,2.68,1,5.64,2.28,5.64,6,0,3.35-2.68,6.07-7.64,6.07A12.43,12.43,0,0,1,622.07,206.25Z"/><path class="cls-8" d="M640,198.7c0-6.4,4.44-10.32,9-10.32,5.32,0,8.12,3.84,8.12,9.32a10.72,10.72,0,0,1-.2,2.24H644.47c.4,3.48,2.64,5.48,5.79,5.48a8.2,8.2,0,0,0,4.56-1.44l1.56,2.87a12.39,12.39,0,0,1-6.72,2.12C644.23,209,640,205.18,640,198.7Zm13.15-1.88c0-3-1.32-4.88-4-4.88-2.31,0-4.31,1.72-4.71,4.88Z"/><path class="cls-8" d="M660.31,216.17l.84-3.6a4.83,4.83,0,0,0,1.39.28c2.08,0,3.29-1.4,3.92-3.36l.36-1.24-7.71-19.39h4.68l3.39,9.64c.56,1.72,1.12,3.68,1.72,5.52h.16c.48-1.8,1-3.76,1.48-5.52l3-9.64h4.44l-7.12,20.51c-1.64,4.44-3.68,7.2-8,7.2A7.64,7.64,0,0,1,660.31,216.17Z"/><path class="cls-8" d="M546,221.2H550c4.66,0,7.41,2.52,7.41,7.55s-2.75,7.68-7.27,7.68H546Zm3.88,13c3.08,0,4.82-1.75,4.82-5.49s-1.74-5.36-4.82-5.36h-1.18v10.85Z"/><path class="cls-8" d="M560,221.48a1.66,1.66,0,1,1,1.65,1.51A1.54,1.54,0,0,1,560,221.48Zm.3,3.52H563v11.43h-2.68Z"/><path class="cls-8" d="M565.23,235.13l1.26-1.73a5.08,5.08,0,0,0,3.17,1.28c1.23,0,1.81-.58,1.81-1.37,0-1-1.23-1.37-2.44-1.84-1.52-.56-3.22-1.42-3.22-3.33s1.61-3.42,4.17-3.42a6.22,6.22,0,0,1,3.8,1.37l-1.24,1.63a4.25,4.25,0,0,0-2.51-1c-1.14,0-1.68.54-1.68,1.26,0,.91,1.14,1.26,2.38,1.7,1.56.58,3.28,1.33,3.28,3.47,0,2-1.56,3.54-4.45,3.54A7.29,7.29,0,0,1,565.23,235.13Z"/><path class="cls-8" d="M576.34,232.56v-5.44h-1.63v-2l1.77-.11.32-3.12H579V225H582v2.12H579v5.44c0,1.36.51,2,1.6,2a3.29,3.29,0,0,0,1.19-.26l.47,2a7.3,7.3,0,0,1-2.33.42C577.31,236.71,576.34,235,576.34,232.56Z"/><path class="cls-8" d="M584.34,225h2.22l.18,2h.09a3.89,3.89,0,0,1,3.24-2.3,2.91,2.91,0,0,1,1.3.23l-.46,2.33a3.67,3.67,0,0,0-1.19-.19c-.91,0-2,.63-2.7,2.35v7h-2.68Z"/><path class="cls-8" d="M592.72,221.48a1.66,1.66,0,1,1,1.66,1.51A1.54,1.54,0,0,1,592.72,221.48ZM593,225h2.67v11.43H593Z"/><path class="cls-8" d="M598.38,230.73a5.64,5.64,0,0,1,5.73-6,4.92,4.92,0,0,1,3.35,1.28l-1.3,1.74a2.82,2.82,0,0,0-1.91-.83c-1.84,0-3.12,1.51-3.12,3.82s1.26,3.79,3,3.79a3.79,3.79,0,0,0,2.35-1l1.09,1.77a5.71,5.71,0,0,1-3.72,1.4C600.78,236.71,598.38,234.52,598.38,230.73Z"/><path class="cls-8" d="M610,232.56v-5.44h-1.63v-2l1.77-.11.33-3.12h2.23V225h2.92v2.12h-2.92v5.44c0,1.36.52,2,1.61,2a3.29,3.29,0,0,0,1.19-.26l.46,2a7.23,7.23,0,0,1-2.32.42C611,236.71,610,235,610,232.56Z"/></g><g id="Layer_3" data-name="Layer 3"><circle class="cls-9" cx="377.97" cy="135.81" r="26.39"/><circle class="cls-10" cx="377.97" cy="135.81" r="8.13"/></g></svg>