<svg xmlns="http://www.w3.org/2000/svg" viewBox="0 0 781.32 496.46"><defs><style>.cls-1{fill:#e6e6e6;}.cls-2,.cls-5,.cls-7{fill:none;}.cls-2{stroke:#f0f0f0;stroke-width:2.54px;}.cls-2,.cls-7,.cls-8{stroke-miterlimit:10;}.cls-3{fill:#f0f0f0;}.cls-4,.cls-6{fill:#007dbc;}.cls-4{opacity:0.8;}.cls-5{stroke:#0675af;stroke-linejoin:bevel;stroke-width:0.64px;}.cls-7,.cls-8{stroke:#fff;}.cls-7{stroke-width:3px;}.cls-8{fill:#fff;}</style></defs><g id="Layer_3" data-name="Layer 3"><polyline class="cls-1" points="791.41 -19.27 791.41 518.88 -22.33 518.88 -22.33 -19.27"/></g><g id="Layer_2" data-name="Layer 2"><polygon class="cls-2" points="475.23 228.58 473.14 235.01 466.38 235.01 471.85 238.98 469.76 245.4 475.23 241.43 480.69 245.4 478.61 238.98 484.08 235.01 477.31 235.01 475.23 228.58"/><rect class="cls-3" x="437.95" y="246.9" width="73.69" height="21.6"/><polygon class="cls-4" points="323.7 136.53 323.76 167.69 324.4 175.1 370.77 175.32 370.4 167.68 370.47 135.97 366.63 132.25 362.97 125.39 361.45 124.9 357.44 119.35 355.5 118.66 349.44 119.17 346.2 117.29 346.18 136.32 323.7 136.53"/><polygon class="cls-5" points="323.7 136.53 323.76 167.69 324.4 175.1 370.77 175.32 370.41 167.68 370.47 135.97 366.63 132.25 362.97 125.39 361.45 124.9 357.44 119.35 355.5 118.66 349.44 119.17 346.2 117.3 346.18 136.32 323.7 136.53"/><polygon class="cls-4" points="346.2 117.29 349.44 119.17 355.5 118.66 357.44 119.35 361.45 124.9 362.97 125.39 366.63 132.25 370.47 135.97 370.45 144.27 378.9 144.34 381.5 148.44 387.36 149.82 389.34 152.46 394.71 154.57 401.36 154.12 401.37 136.39 400.86 136.39 400.87 104.93 400.54 99.78 334.53 99.74 340.55 110.7 344.81 112.72 346.2 117.29"/><polygon class="cls-5" points="346.2 117.3 349.44 119.17 355.5 118.66 357.44 119.35 361.45 124.9 362.97 125.39 366.63 132.25 370.47 135.97 370.45 144.28 378.9 144.34 381.5 148.44 387.36 149.82 389.34 152.46 394.71 154.57 401.36 154.12 401.37 136.39 400.86 136.39 400.87 104.94 400.54 99.78 334.53 99.74 340.55 110.7 344.81 112.72 346.2 117.3"/><polygon class="cls-4" points="341.18 237.51 341.49 268.46 385.75 268.48 388.4 269.51 392.76 267.81 395.02 270.17 394.87 237.6 341.18 237.51"/><polygon class="cls-5" points="341.18 237.51 341.49 268.46 385.75 268.48 388.4 269.51 392.76 267.81 395.02 270.17 394.87 237.6 341.18 237.51"/><polygon class="cls-4" points="584.8 151.77 598.45 151.78 598.65 104.96 600.33 104.96 600.33 99.76 584.83 99.79 584.8 151.77"/><polygon class="cls-5" points="584.8 151.77 598.45 151.78 598.65 104.96 600.33 104.96 600.33 99.76 584.83 99.79 584.8 151.77"/><polygon class="cls-4" points="597.92 202.7 610.21 202.62 611.08 208.81 614.68 210.87 617.63 208.68 623.15 207.29 626.4 207.84 631.14 205.84 638.08 206.5 640.55 203.12 636.82 198.07 637.13 193.02 640.99 188.98 642.26 183.12 615.92 183.06 617.26 181.57 616.19 178.21 613.52 177.84 612.52 175.22 602.15 175.22 602.15 198.68 597.96 198.66 597.92 202.7"/><polygon class="cls-5" points="597.92 202.7 610.21 202.62 611.08 208.81 614.68 210.87 617.63 208.68 623.15 207.29 626.4 207.84 631.14 205.84 638.08 206.5 640.55 203.12 636.82 198.07 637.13 193.02 640.99 188.98 642.26 183.12 615.92 183.06 617.26 181.56 616.19 178.21 613.52 177.84 612.52 175.22 602.15 175.22 602.15 198.69 597.96 198.66 597.92 202.7"/><polygon class="cls-4" points="563.3 175.26 563.31 183.02 582.74 183.05 582.49 202.62 597.92 202.7 597.96 198.66 602.15 198.68 602.15 175.22 598.26 175.22 598.45 151.78 584.8 151.77 584.8 175.35 563.3 175.26"/><polygon class="cls-5" points="563.3 175.26 563.31 183.02 582.74 183.05 582.49 202.62 597.92 202.7 597.96 198.66 602.15 198.69 602.15 175.22 598.26 175.22 598.45 151.78 584.8 151.77 584.8 175.35 563.3 175.26"/><polygon class="cls-4" points="352.3 337.2 353.82 347.93 360.67 348.15 364.43 349.35 368.17 347.31 371.02 348.09 377.71 353.57 379.81 352.5 384.47 354.72 390.02 355.04 393.06 352.31 395.81 352.94 395.86 337.47 392.08 337.49 392.08 322.23 380.17 322.23 380.16 314.58 367.51 314.57 367.5 310.75 360.1 310.73 361.57 314.87 355.74 315.13 351.59 323.35 351.04 332.77 353.61 335.61 352.3 337.2"/><polygon class="cls-5" points="352.3 337.2 353.82 347.93 360.67 348.16 364.43 349.35 368.18 347.31 371.02 348.09 377.71 353.58 379.81 352.5 384.47 354.72 390.02 355.04 393.06 352.31 395.81 352.95 395.86 337.47 392.08 337.49 392.08 322.23 380.17 322.24 380.16 314.58 367.51 314.57 367.5 310.75 360.1 310.73 361.57 314.87 355.74 315.13 351.59 323.35 351.04 332.77 353.62 335.61 352.3 337.2"/><polygon class="cls-4" points="147.92 144.84 226.02 144.93 226.05 113.46 226.65 113.41 226.64 99.86 148.22 100.32 147.92 144.84"/><polygon class="cls-5" points="147.92 144.84 226.02 144.93 226.05 113.46 226.65 113.41 226.64 99.86 148.22 100.32 147.92 144.84"/><polygon class="cls-4" points="429.72 322.25 429.95 341.32 471.69 341.39 471.68 306.93 429.75 306.93 429.72 322.25"/><polygon class="cls-5" points="429.72 322.25 429.95 341.32 471.69 341.39 471.68 306.93 429.75 306.93 429.72 322.25"/><polygon class="cls-4" points="653.7 238.09 655.52 238.61 656.85 242.03 664.43 243.51 663.7 248.07 669.71 246.75 670.82 250.14 675.42 247.15 680.25 249.87 681.31 252.65 685.14 251.84 686.67 249.72 689.58 251.3 694.91 251.37 693.87 249.48 695.55 245.46 698.41 245.03 698.5 243.59 695.52 222.09 648.09 222.07 647.73 232.1 651.73 238.1 653.7 238.09"/><polygon class="cls-5" points="653.7 238.09 655.52 238.61 656.85 242.03 664.43 243.51 663.7 248.07 669.71 246.75 670.82 250.14 675.42 247.15 680.25 249.88 681.31 252.65 685.14 251.85 686.67 249.72 689.59 251.3 694.91 251.37 693.87 249.48 695.55 245.46 698.41 245.03 698.5 243.59 695.52 222.09 648.09 222.07 647.73 232.1 651.73 238.1 653.7 238.09"/><polygon class="cls-4" points="528.7 287.62 530.16 287.64 531.82 291.25 534.6 290.4 533.39 286.59 536.52 285.01 538.02 287.43 543.08 286.16 546.59 290.31 549.33 286.69 549.36 268.53 552.91 268.54 552.92 237.31 550.66 237.67 548.85 240.79 544.79 238.5 543.65 239.86 546.15 244.03 542.14 242.33 539.71 243.24 534.9 242.99 532.61 241.14 528.62 242.31 528.7 287.62"/><polygon class="cls-5" points="528.7 287.63 530.16 287.64 531.82 291.25 534.6 290.41 533.39 286.59 536.52 285.01 538.02 287.43 543.08 286.16 546.59 290.31 549.33 286.69 549.36 268.53 552.91 268.54 552.92 237.31 550.66 237.67 548.85 240.79 544.79 238.5 543.65 239.86 546.15 244.03 542.14 242.33 539.71 243.24 534.9 242.99 532.61 241.14 528.62 242.31 528.7 287.63"/><polygon class="cls-4" points="598.45 151.78 598.26 175.22 612.52 175.22 613.52 177.84 616.19 178.21 617.26 181.57 615.92 183.06 625.44 183.07 625.77 143.98 633.56 143.97 633.53 136.1 598.68 136.1 598.45 151.78"/><polygon class="cls-5" points="598.45 151.78 598.26 175.22 612.52 175.22 613.52 177.84 616.19 178.21 617.26 181.56 615.92 183.06 625.44 183.07 625.77 143.98 633.56 143.97 633.53 136.1 598.68 136.11 598.45 151.78"/><polygon class="cls-4" points="295.11 200.46 295.11 241.35 325.87 241.4 325.88 233.63 341.2 233.65 340.27 229.83 340.34 206.6 339.98 188.65 334.77 189.34 331.62 191.8 330.25 196.45 327.76 198.75 327.12 201.8 322.83 203.86 315.63 202.35 309.52 197.81 308.94 189.81 305.64 189.48 303.23 190.9 300.56 197.53 295.11 200.46"/><polygon class="cls-5" points="295.11 200.46 295.11 241.35 325.87 241.4 325.88 233.63 341.2 233.65 340.27 229.84 340.34 206.6 339.98 188.65 334.77 189.34 331.62 191.81 330.25 196.45 327.76 198.75 327.12 201.8 322.83 203.86 315.63 202.35 309.52 197.81 308.94 189.81 305.64 189.48 303.23 190.9 300.56 197.53 295.11 200.46"/><polygon class="cls-4" points="600.86 352.98 645.99 352.95 646.37 345.34 653.95 345.36 653.94 322.23 661.84 322.26 661.83 306.95 620.05 306.93 620.07 314.58 608.64 314.61 608.66 322.27 600.86 322.29 600.86 352.98"/><polygon class="cls-5" points="600.86 352.98 645.99 352.95 646.37 345.34 653.95 345.36 653.94 322.24 661.84 322.26 661.83 306.95 620.05 306.93 620.07 314.58 608.64 314.61 608.66 322.27 600.86 322.29 600.86 352.98"/><polygon class="cls-4" points="517.47 281.93 520.5 285.19 525.38 283.55 528.7 287.62 528.62 242.31 532.61 241.14 534.9 242.99 539.71 243.24 539.62 237.75 502.22 237.63 502.14 284.82 506.24 284.86 511.3 286.98 517.47 281.93"/><polygon class="cls-5" points="517.47 281.94 520.5 285.2 525.38 283.55 528.7 287.63 528.62 242.31 532.61 241.14 534.9 242.99 539.71 243.24 539.62 237.75 502.22 237.63 502.14 284.82 506.24 284.86 511.3 286.98 517.47 281.94"/><polygon class="cls-4" points="517.34 310.84 517.34 314.68 524.96 314.67 524.96 322.34 547.66 322.39 547.79 307.03 555.44 307.01 555.46 284.76 554.13 287.29 549.33 286.69 546.59 290.31 543.08 286.16 538.02 287.43 536.52 285.01 533.39 286.59 534.6 290.4 531.82 291.25 530.16 287.64 528.7 287.62 525.38 283.55 520.5 285.19 517.47 281.93 517.34 310.84"/><polygon class="cls-5" points="517.34 310.84 517.34 314.68 524.96 314.67 524.96 322.34 547.66 322.39 547.79 307.03 555.44 307.01 555.46 284.76 554.13 287.29 549.33 286.69 546.59 290.31 543.08 286.16 538.02 287.43 536.52 285.01 533.39 286.59 534.6 290.41 531.82 291.25 530.16 287.64 528.7 287.63 525.38 283.55 520.5 285.2 517.47 281.94 517.34 310.84"/><polygon class="cls-4" points="608.64 314.61 620.07 314.58 620.09 291.62 620.56 291.62 620.54 276.2 632.01 276.19 632.01 264.6 624.36 264.59 624.63 252.56 621.07 252.13 620.16 255.22 613.9 259.15 611.82 256.93 608.47 260.32 603.55 261.74 602.56 263.1 599.86 261.32 594.25 262.32 591.55 266.09 586.07 265.37 583.9 266.24 578.45 274.37 578.21 306.98 593.42 306.99 593.42 314.64 608.64 314.61"/><polygon class="cls-5" points="608.64 314.61 620.07 314.58 620.09 291.62 620.56 291.62 620.54 276.2 632.01 276.2 632.01 264.6 624.36 264.59 624.63 252.56 621.07 252.13 620.16 255.22 613.9 259.16 611.82 256.93 608.47 260.33 603.55 261.74 602.56 263.1 599.86 261.32 594.25 262.32 591.55 266.09 586.07 265.37 583.9 266.24 578.45 274.37 578.21 306.98 593.42 306.99 593.42 314.64 608.64 314.61"/><polygon class="cls-4" points="486.8 175.55 486.81 191.16 489.33 188.81 492.26 192.09 496.42 192.98 497.7 194.75 502.27 195.02 539.89 195.04 539.87 175.48 525.55 175.57 525.56 167.7 502.23 167.71 502.25 175.54 486.8 175.55"/><polygon class="cls-5" points="486.81 175.55 486.81 191.16 489.33 188.81 492.26 192.09 496.42 192.98 497.7 194.75 502.27 195.02 539.89 195.04 539.87 175.48 525.55 175.57 525.56 167.7 502.23 167.71 502.25 175.54 486.81 175.55"/><polygon class="cls-4" points="517.87 167.7 525.56 167.7 525.55 175.57 539.87 175.48 539.88 175.14 565.45 175.29 567.3 171.46 566.3 169.57 561.22 169.49 556.87 165.85 553.46 164.16 551.73 159.96 547.56 163.05 544.86 162.9 543.47 159.88 547.32 155.97 545.72 153.87 543.3 156.17 538.7 151.56 534.95 151.75 532.93 149.8 533.73 146.91 531.48 140.38 529.14 139 525.41 141.4 521.48 147.52 516.78 148.91 513.72 147.9 511.74 144.27 510.12 144.26 510.12 159.89 517.89 159.9 517.87 167.7"/><polygon class="cls-5" points="517.87 167.7 525.56 167.7 525.55 175.57 539.87 175.48 539.88 175.14 565.45 175.29 567.3 171.46 566.3 169.57 561.22 169.49 556.87 165.85 553.46 164.16 551.73 159.96 547.57 163.05 544.86 162.9 543.47 159.88 547.32 155.97 545.72 153.87 543.3 156.17 538.7 151.56 534.95 151.75 532.93 149.8 533.73 146.91 531.48 140.38 529.14 139 525.41 141.4 521.48 147.52 516.78 148.91 513.72 147.9 511.74 144.28 510.12 144.27 510.12 159.89 517.89 159.9 517.87 167.7"/><polygon class="cls-4" points="657.35 129.5 684.99 129.75 684.99 99.87 656.77 99.74 654.87 100.21 657.37 104.83 657.35 129.5"/><polygon class="cls-5" points="657.35 129.5 684.99 129.75 684.99 99.87 656.77 99.74 654.87 100.21 657.37 104.83 657.35 129.5"/><polygon class="cls-4" points="511.74 144.27 513.72 147.9 516.78 148.91 521.48 147.52 525.41 141.4 529.14 139 531.48 140.38 533.73 146.91 532.93 149.8 534.95 151.75 538.7 151.56 543.3 156.17 545.72 153.87 547.32 155.97 543.47 159.88 544.86 162.9 547.56 163.05 551.73 159.96 553.46 164.16 556.87 165.85 561.22 169.49 566.3 169.57 567.3 171.46 565.45 175.29 584.8 175.35 584.83 99.79 530.57 99.78 530.38 119.43 525.3 120.74 524.46 122.93 520.52 122.17 517.38 128.11 513.03 127.97 510.22 126.71 507.8 128.28 509.21 135.64 508.29 136.46 512.24 137.45 518.76 135.97 520.54 138.08 519.5 140.26 512.42 142.51 511.74 144.27"/><polygon class="cls-5" points="511.74 144.28 513.72 147.9 516.78 148.91 521.48 147.52 525.41 141.4 529.14 139 531.48 140.38 533.73 146.91 532.93 149.8 534.95 151.75 538.7 151.56 543.3 156.17 545.72 153.87 547.32 155.97 543.47 159.88 544.86 162.9 547.57 163.05 551.73 159.96 553.46 164.16 556.87 165.85 561.22 169.49 566.3 169.57 567.3 171.46 565.45 175.29 584.8 175.35 584.83 99.79 530.57 99.78 530.38 119.43 525.3 120.74 524.46 122.93 520.52 122.17 517.38 128.11 513.03 127.97 510.22 126.71 507.8 128.28 509.21 135.64 508.29 136.46 512.24 137.45 518.76 135.97 520.54 138.08 519.5 140.26 512.42 142.51 511.74 144.28"/><polygon class="cls-4" points="570.93 222.05 570.92 229.82 578.52 229.8 578.55 245.37 593.89 245.4 593.89 237.67 597.68 237.64 597.76 229.83 605.67 229.82 605.67 214.31 601.82 214.32 601.82 202.65 570.94 202.6 570.93 222.05"/><polygon class="cls-5" points="570.93 222.05 570.92 229.82 578.52 229.8 578.55 245.37 593.89 245.4 593.89 237.67 597.68 237.64 597.76 229.84 605.67 229.83 605.67 214.31 601.82 214.33 601.82 202.66 570.94 202.6 570.93 222.05"/><polygon class="cls-4" points="463.63 214.3 463.83 245.34 502.18 245.39 502.23 214.44 463.63 214.3"/><polygon class="cls-5" points="463.63 214.3 463.83 245.35 502.18 245.39 502.23 214.44 463.63 214.3"/><polygon class="cls-4" points="539.71 243.24 542.14 242.33 546.15 244.03 543.65 239.86 544.79 238.5 548.85 240.79 550.66 237.67 552.92 237.31 552.91 253.09 586.23 253.1 586.24 245.39 578.55 245.37 578.52 229.8 570.92 229.82 570.93 222.05 539.93 222.06 539.71 243.24"/><polygon class="cls-5" points="539.71 243.24 542.14 242.33 546.15 244.03 543.65 239.86 544.79 238.5 548.85 240.79 550.66 237.67 552.92 237.31 552.91 253.09 586.23 253.1 586.24 245.39 578.55 245.37 578.52 229.8 570.92 229.82 570.93 222.05 539.93 222.06 539.71 243.24"/><polygon class="cls-4" points="626.06 136.1 626.05 104.88 627.77 104.9 627.79 99.77 600.33 99.76 600.33 104.96 598.65 104.96 598.68 136.1 626.06 136.1"/><polygon class="cls-5" points="626.07 136.1 626.05 104.88 627.77 104.9 627.79 99.77 600.33 99.76 600.33 104.96 598.65 104.96 598.68 136.11 626.07 136.1"/><polygon class="cls-4" points="479.01 136.47 479.07 175.06 486.8 175.55 502.25 175.54 502.23 167.71 517.87 167.7 517.89 159.9 510.12 159.89 510.12 144.26 511.74 144.27 512.42 142.51 519.5 140.26 520.54 138.08 518.76 135.97 512.24 137.45 508.29 136.46 479.01 136.47"/><polygon class="cls-5" points="479.01 136.47 479.08 175.06 486.81 175.55 502.25 175.54 502.23 167.71 517.87 167.7 517.89 159.9 510.12 159.89 510.12 144.27 511.74 144.28 512.42 142.51 519.5 140.26 520.54 138.08 518.76 135.97 512.24 137.45 508.29 136.46 479.01 136.47"/><polygon class="cls-4" points="601.82 202.65 601.82 214.32 605.67 214.31 605.67 229.82 632.33 229.79 632.35 252.82 634.74 251.97 639.66 255.62 644.92 250.84 645.67 246.05 648.39 245.79 653.7 238.09 651.73 238.1 647.73 232.1 648.09 206.55 638.08 206.5 631.14 205.84 626.4 207.84 623.15 207.29 617.63 208.68 614.68 210.87 611.08 208.81 610.21 202.62 601.82 202.65"/><polygon class="cls-5" points="601.82 202.66 601.82 214.33 605.67 214.31 605.67 229.83 632.33 229.79 632.35 252.82 634.74 251.97 639.66 255.62 644.92 250.84 645.67 246.05 648.39 245.79 653.7 238.09 651.73 238.1 647.73 232.1 648.09 206.55 638.08 206.5 631.14 205.84 626.4 207.84 623.15 207.29 617.63 208.68 614.68 210.87 611.08 208.81 610.21 202.62 601.82 202.66"/><polygon class="cls-4" points="486.94 322.27 486.94 333.74 509.8 333.81 510.37 337.57 521.07 337.53 521.08 322.35 524.96 322.34 524.96 314.67 517.34 314.68 517.34 310.84 502.11 310.81 502.13 312.08 498 312.07 499.82 314.51 502.02 322.3 486.94 322.27"/><polygon class="cls-5" points="486.94 322.27 486.94 333.74 509.8 333.81 510.37 337.57 521.07 337.53 521.08 322.35 524.96 322.34 524.96 314.67 517.34 314.68 517.34 310.84 502.11 310.82 502.13 312.08 498 312.07 499.82 314.51 502.02 322.3 486.94 322.27"/><polygon class="cls-4" points="624.63 252.56 629.38 249.89 632.35 252.82 632.33 229.79 597.76 229.83 597.68 237.64 593.89 237.67 593.89 245.4 586.24 245.39 586.07 265.37 591.55 266.09 594.25 262.32 599.86 261.32 602.56 263.1 603.55 261.74 608.47 260.32 611.82 256.93 613.9 259.15 620.16 255.22 621.07 252.13 624.63 252.56"/><polygon class="cls-5" points="624.63 252.56 629.38 249.89 632.35 252.82 632.33 229.79 597.76 229.84 597.68 237.64 593.89 237.67 593.89 245.4 586.24 245.39 586.07 265.37 591.55 266.09 594.25 262.32 599.86 261.32 602.56 263.1 603.55 261.74 608.47 260.33 611.82 256.93 613.9 259.16 620.16 255.22 621.07 252.13 624.63 252.56"/><polygon class="cls-4" points="646.03 372.2 647.93 372.21 648.8 375.01 651.35 377.17 652.97 375.25 653.77 378.55 659.57 378.83 660.69 382.7 662.88 383.38 663.73 386.02 668.24 389.4 670.11 386.82 671.64 389.99 673.89 387.56 675.71 392.59 680.15 394.21 681.38 393.32 683.46 396.01 684.75 394.37 686.96 397.58 690.18 396.33 688.9 399.26 691.5 397.96 692.06 400.03 694.56 398.25 696.36 322.21 653.94 322.23 653.95 345.36 646.37 345.34 645.99 352.95 646.03 372.2"/><polygon class="cls-5" points="646.03 372.2 647.93 372.21 648.8 375.02 651.35 377.17 652.97 375.25 653.77 378.55 659.57 378.83 660.69 382.7 662.88 383.38 663.73 386.02 668.24 389.4 670.11 386.82 671.64 390 673.89 387.56 675.71 392.59 680.15 394.21 681.38 393.32 683.46 396.01 684.75 394.37 686.96 397.59 690.18 396.33 688.9 399.26 691.5 397.96 692.06 400.03 694.56 398.26 696.36 322.21 653.94 322.24 653.95 345.36 646.37 345.34 645.99 352.95 646.03 372.2"/><polygon class="cls-4" points="464.06 291.59 517.33 291.64 517.47 281.93 511.3 286.98 506.24 284.86 498.21 285.11 492.65 282.1 487.7 281.93 486.51 275.82 486.79 272 483.32 271.14 482.75 266.24 471.76 258.13 472.07 254.98 470.25 251.94 467.14 251.46 463.8 248.92 464.06 291.59"/><polygon class="cls-5" points="464.06 291.59 517.33 291.64 517.47 281.94 511.3 286.98 506.24 284.86 498.21 285.11 492.65 282.1 487.7 281.93 486.51 275.82 486.79 272 483.32 271.14 482.75 266.24 471.76 258.13 472.07 254.98 470.25 251.94 467.14 251.46 463.8 248.93 464.06 291.59"/><polygon class="cls-4" points="625.44 183.07 648.76 183.14 648.74 175.32 656.5 175.31 656.89 167.43 656.91 144.01 625.77 143.98 625.44 183.07"/><polygon class="cls-5" points="625.44 183.07 648.76 183.14 648.74 175.32 656.5 175.31 656.89 167.43 656.91 144.01 625.77 143.98 625.44 183.07"/><polygon class="cls-4" points="514.62 360.5 514.64 365.55 517.17 365.56 517.17 370.66 519.73 372.48 520.92 378.21 523.27 380.02 524.6 377.62 528.41 379.09 529.15 381.74 533.19 381.41 534.85 379.78 536.11 374.34 542.25 375.85 541.73 371.57 543.09 369.79 539.63 366.21 541.9 365.23 545.19 361.15 539.99 352.59 536.35 351.61 514.74 351.59 514.62 360.5"/><polygon class="cls-5" points="514.62 360.5 514.64 365.55 517.17 365.56 517.17 370.66 519.74 372.48 520.92 378.21 523.27 380.02 524.6 377.62 528.41 379.09 529.15 381.74 533.19 381.41 534.85 379.78 536.11 374.34 542.25 375.85 541.73 371.57 543.09 369.79 539.63 366.21 541.9 365.23 545.19 361.15 539.99 352.59 536.35 351.62 514.74 351.59 514.62 360.5"/><polygon class="cls-4" points="370.45 144.27 370.4 167.68 370.77 175.32 432.49 175.03 432.43 148.21 401.36 148.2 401.36 154.12 394.71 154.57 389.34 152.46 387.36 149.82 381.5 148.44 378.9 144.34 370.45 144.27"/><polygon class="cls-5" points="370.45 144.28 370.41 167.68 370.77 175.32 432.49 175.03 432.43 148.21 401.36 148.2 401.36 154.12 394.71 154.57 389.34 152.46 387.36 149.82 381.5 148.44 378.9 144.34 370.45 144.28"/><polygon class="cls-4" points="471.82 375.45 477.37 374.07 479.77 376.14 478.92 380.4 480.29 382.07 485.44 382.44 488.4 376.77 493.93 378.58 494.61 375.39 497.21 374.03 499.01 375.36 500.37 380.62 498.15 381.54 498.44 387.57 501.49 390.88 504.4 391.16 506.02 389.48 506.07 383.38 508.97 382.58 506.12 380.67 508.3 379.18 510.75 380.26 513.49 376.6 512.72 371.69 516.46 371.12 517.17 370.66 517.17 365.56 514.64 365.55 514.62 360.5 471.82 360.47 471.82 375.45"/><polygon class="cls-5" points="471.82 375.45 477.37 374.07 479.77 376.14 478.92 380.4 480.29 382.07 485.44 382.44 488.41 376.77 493.93 378.58 494.61 375.39 497.21 374.03 499.01 375.36 500.37 380.62 498.15 381.54 498.44 387.57 501.49 390.88 504.4 391.16 506.02 389.48 506.07 383.38 508.97 382.58 506.12 380.67 508.3 379.18 510.75 380.26 513.49 376.6 512.72 371.69 516.46 371.12 517.17 370.66 517.17 365.56 514.64 365.55 514.62 360.5 471.82 360.47 471.82 375.45"/><polygon class="cls-4" points="463.63 214.3 502.23 214.44 502.27 195.02 497.7 194.75 496.42 192.98 492.26 192.09 489.33 188.81 486.81 191.16 486.8 175.55 479.07 175.06 463.5 175.05 463.63 214.3"/><polygon class="cls-5" points="463.63 214.3 502.23 214.44 502.27 195.02 497.7 194.75 496.42 192.98 492.26 192.09 489.33 188.81 486.81 191.16 486.81 175.55 479.08 175.06 463.5 175.05 463.63 214.3"/><polygon class="cls-4" points="502.22 237.63 539.62 237.75 539.89 195.04 502.27 195.02 502.22 237.63"/><polygon class="cls-5" points="502.22 237.63 539.62 237.75 539.89 195.04 502.27 195.02 502.22 237.63"/><polygon class="cls-4" points="661.84 322.26 696.36 322.21 698.41 245.03 695.55 245.46 693.87 249.48 694.91 251.37 689.58 251.3 686.67 249.72 685.14 251.84 681.31 252.65 680.25 249.87 675.42 247.15 670.82 250.14 670.77 260.88 662.54 260.85 662.55 283.9 657.46 283.9 657.49 291.59 653.01 291.6 653 306.97 661.83 306.95 661.84 322.26"/><polygon class="cls-5" points="661.84 322.26 696.36 322.21 698.41 245.03 695.55 245.46 693.87 249.48 694.91 251.37 689.59 251.3 686.67 249.72 685.14 251.85 681.31 252.65 680.25 249.88 675.42 247.15 670.82 250.14 670.77 260.88 662.54 260.85 662.55 283.9 657.46 283.9 657.49 291.59 653.01 291.6 653 306.97 661.83 306.95 661.84 322.26"/><polygon class="cls-4" points="653 306.97 653.01 291.6 657.49 291.59 657.46 283.9 662.55 283.9 662.54 273.63 632.01 273.63 632.01 276.19 620.54 276.2 620.56 291.62 620.09 291.62 620.05 306.93 653 306.97"/><polygon class="cls-5" points="653 306.97 653.01 291.6 657.49 291.59 657.46 283.9 662.55 283.9 662.54 273.63 632.01 273.63 632.01 276.2 620.54 276.2 620.56 291.62 620.09 291.62 620.05 306.93 653 306.97"/><polygon class="cls-4" points="349.72 294.5 352.14 294.14 354.31 291.2 356.9 292 356.56 299.94 355.04 300.39 356.77 305.06 363.77 305.13 364.39 307.29 360.67 308.01 360.1 310.73 367.5 310.75 367.51 314.57 380.16 314.58 380.17 291.62 395.11 291.6 395.02 270.17 392.76 267.81 388.4 269.51 385.75 268.48 337.93 268.65 340.91 271.12 341.11 273.46 343.83 275.1 343.61 283.67 345.96 285.5 345.39 291.37 349.72 294.5"/><polygon class="cls-5" points="349.72 294.5 352.14 294.14 354.31 291.2 356.9 292 356.56 299.94 355.04 300.39 356.77 305.06 363.77 305.13 364.39 307.29 360.67 308.01 360.1 310.73 367.5 310.75 367.51 314.57 380.16 314.58 380.17 291.62 395.11 291.6 395.02 270.17 392.76 267.81 388.4 269.51 385.75 268.48 337.93 268.65 340.91 271.12 341.11 273.46 343.83 275.1 343.61 283.67 345.96 285.5 345.39 291.37 349.72 294.5"/><polygon class="cls-4" points="424.76 175.03 425 214.38 463.63 214.3 463.5 175.05 424.76 175.03"/><polygon class="cls-5" points="424.76 175.03 425 214.38 463.63 214.3 463.5 175.05 424.76 175.03"/><polygon class="cls-4" points="479.01 136.47 508.29 136.46 509.21 135.64 507.8 128.28 510.22 126.71 513.03 127.97 517.38 128.11 520.52 122.17 524.46 122.93 525.3 120.74 530.38 119.43 530.57 99.78 478.96 99.81 479.01 136.47"/><polygon class="cls-5" points="479.01 136.47 508.29 136.46 509.21 135.64 507.8 128.28 510.22 126.71 513.03 127.97 517.38 128.11 520.52 122.17 524.46 122.93 525.3 120.74 530.38 119.43 530.57 99.78 478.96 99.81 479.01 136.47"/><polygon class="cls-4" points="517.25 351.59 536.35 351.61 539.99 352.59 542.48 356.67 552.01 356.68 552 352.93 555.36 352.93 555.38 330.03 547.67 329.93 547.66 322.39 521.08 322.35 521.07 337.53 517.26 337.56 517.25 351.59"/><polygon class="cls-5" points="517.25 351.59 536.35 351.62 539.99 352.59 542.48 356.67 552.01 356.68 552 352.93 555.36 352.93 555.38 330.03 547.67 329.93 547.66 322.39 521.08 322.35 521.07 337.53 517.26 337.56 517.25 351.59"/><polygon class="cls-4" points="441.61 376.3 449.32 379.87 452.01 379.11 457.18 372.44 459.4 372.21 462.63 367.8 464.53 367.49 469.8 370.89 469.76 375.08 471.82 375.45 471.69 341.39 429.95 341.32 429.93 354.27 432.63 353.85 433.45 355.97 431.3 360.38 433.94 363.04 433.9 366.43 438.83 367.2 441.88 366.1 443.86 367.48 442.1 372.17 443.11 374.15 441.61 376.3"/><polygon class="cls-5" points="441.61 376.3 449.33 379.87 452.01 379.11 457.18 372.44 459.4 372.21 462.63 367.8 464.53 367.49 469.8 370.89 469.76 375.08 471.82 375.45 471.69 341.39 429.95 341.32 429.93 354.28 432.63 353.85 433.45 355.97 431.3 360.38 433.94 363.04 433.9 366.43 438.83 367.2 441.88 366.1 443.86 367.48 442.1 372.17 443.11 374.15 441.61 376.3"/><polygon class="cls-4" points="306.39 322.26 313 329.82 317.27 333.56 324.11 333.87 325.57 330.17 330.08 330.38 333.16 332.01 336.17 334.27 338.69 333.78 338.95 327.96 340.37 326.49 344.39 330.83 348.64 331.34 352.3 337.2 353.61 335.61 351.04 332.77 351.59 323.35 355.74 315.13 361.57 314.87 360.1 310.73 360.67 308.01 364.39 307.29 363.77 305.13 356.77 305.06 355.04 300.39 356.56 299.94 356.9 292 354.31 291.2 352.14 294.14 349.72 294.5 349.44 295.33 338.18 295.3 338.19 299.19 335.9 299.18 336.92 303.06 319.26 303.1 319.29 322.24 306.39 322.26"/><polygon class="cls-5" points="306.39 322.26 313 329.82 317.26 333.56 324.11 333.87 325.57 330.17 330.08 330.38 333.16 332.01 336.17 334.27 338.69 333.78 338.95 327.96 340.37 326.49 344.39 330.83 348.64 331.35 352.3 337.2 353.62 335.61 351.04 332.77 351.59 323.35 355.74 315.13 361.57 314.87 360.1 310.73 360.67 308.01 364.39 307.29 363.77 305.13 356.77 305.06 355.04 300.39 356.56 299.94 356.9 292 354.31 291.2 352.14 294.14 349.72 294.5 349.44 295.33 338.18 295.31 338.19 299.19 335.9 299.18 336.92 303.06 319.26 303.1 319.29 322.24 306.39 322.26"/><polygon class="cls-4" points="549.33 286.69 554.13 287.29 555.46 284.76 555.44 299.31 578.21 299.31 578.45 274.37 583.9 266.24 586.07 265.37 586.23 253.1 552.91 253.09 552.91 268.54 549.36 268.53 549.33 286.69"/><polygon class="cls-5" points="549.33 286.69 554.13 287.29 555.46 284.76 555.44 299.31 578.21 299.31 578.45 274.37 583.9 266.24 586.07 265.37 586.23 253.1 552.91 253.09 552.91 268.54 549.36 268.53 549.33 286.69"/><polygon class="cls-4" points="624.63 252.56 624.36 264.59 632.01 264.6 632.01 273.63 662.54 273.63 662.54 260.85 670.77 260.88 670.82 250.14 669.71 246.75 663.7 248.07 664.43 243.51 656.85 242.03 655.52 238.61 653.7 238.09 648.39 245.79 645.67 246.05 644.92 250.84 639.66 255.62 634.74 251.97 632.35 252.82 629.38 249.89 624.63 252.56"/><polygon class="cls-5" points="624.63 252.56 624.36 264.59 632.01 264.6 632.01 273.63 662.54 273.63 662.54 260.85 670.77 260.88 670.82 250.14 669.71 246.75 663.7 248.07 664.43 243.51 656.85 242.03 655.52 238.61 653.7 238.09 648.39 245.79 645.67 246.05 644.92 250.84 639.66 255.62 634.74 251.97 632.35 252.82 629.38 249.89 624.63 252.56"/><polygon class="cls-4" points="294.92 136.49 346.18 136.32 346.2 117.29 344.81 112.72 340.55 110.7 334.53 99.74 294.95 99.54 294.92 136.49"/><polygon class="cls-5" points="294.92 136.49 346.18 136.32 346.2 117.3 344.81 112.72 340.55 110.7 334.53 99.74 294.95 99.54 294.92 136.49"/><polygon class="cls-4" points="295.11 276.1 295.32 317.54 300.7 316.31 306.39 322.26 319.29 322.24 319.26 303.1 317.95 299.25 315.41 299.25 315.42 291.42 314.61 291.42 314.61 283.73 303.22 283.75 303.21 276.11 295.11 276.1"/><polygon class="cls-5" points="295.11 276.1 295.32 317.54 300.7 316.31 306.39 322.26 319.29 322.24 319.26 303.1 317.95 299.25 315.41 299.25 315.42 291.42 314.61 291.42 314.61 283.73 303.22 283.75 303.2 276.11 295.11 276.1"/><polygon class="cls-4" points="303.21 276.11 303.22 283.75 314.61 283.73 314.61 291.42 315.42 291.42 315.41 299.25 317.95 299.25 319.26 303.1 336.92 303.06 335.9 299.18 338.19 299.19 338.18 295.3 349.44 295.33 349.72 294.5 345.39 291.37 345.96 285.5 343.61 283.67 343.83 275.1 341.11 273.46 340.91 271.12 337.93 268.65 310.87 268.45 310.86 276.12 303.21 276.11"/><polygon class="cls-5" points="303.2 276.11 303.22 283.75 314.61 283.73 314.61 291.42 315.42 291.42 315.41 299.25 317.95 299.25 319.26 303.1 336.92 303.06 335.9 299.18 338.19 299.19 338.18 295.31 349.44 295.33 349.72 294.5 345.39 291.37 345.96 285.5 343.61 283.67 343.83 275.1 341.11 273.46 340.91 271.12 337.93 268.65 310.87 268.45 310.86 276.12 303.2 276.11"/><polygon class="cls-4" points="432.47 136.45 478.94 136.47 478.96 99.81 431.9 99.87 432.09 136.45 432.47 136.45"/><polygon class="cls-5" points="432.47 136.45 478.94 136.47 478.96 99.81 431.9 99.87 432.09 136.45 432.47 136.45"/><polygon class="cls-4" points="433.06 245.31 433.56 306.93 464.03 306.91 463.8 249.02 458.92 250.03 457.03 248.44 451.35 249.18 449.88 246.76 447.44 248.15 443.94 245.5 443.64 247.59 438.96 245.24 433.06 245.31"/><polygon class="cls-5" points="433.06 245.31 433.56 306.93 464.03 306.91 463.8 249.02 458.92 250.03 457.03 248.44 451.35 249.18 449.88 246.76 447.44 248.15 443.94 245.5 443.64 247.59 438.96 245.24 433.06 245.31"/><polygon class="cls-4" points="464.03 306.91 471.68 306.93 471.71 322.26 502.02 322.3 499.82 314.51 498 312.07 502.13 312.08 502.11 310.81 517.34 310.84 517.33 291.64 464.06 291.59 464.03 306.91"/><polygon class="cls-5" points="464.03 306.91 471.68 306.93 471.71 322.26 502.02 322.3 499.82 314.51 498 312.07 502.13 312.08 502.11 310.82 517.34 310.84 517.33 291.64 464.06 291.59 464.03 306.91"/><polygon class="cls-4" points="432.49 175.03 479.07 175.06 479.01 136.47 432.47 136.45 432.49 175.03"/><polygon class="cls-5" points="432.49 175.03 479.08 175.06 479.01 136.47 432.47 136.45 432.49 175.03"/><polygon class="cls-4" points="294.87 144.93 295.11 144.92 295.11 200.46 300.56 197.53 303.23 190.9 305.64 189.48 308.94 189.81 309.52 197.81 315.63 202.35 322.83 203.86 327.12 201.8 327.76 198.75 330.25 196.45 331.62 191.8 334.77 189.34 339.98 188.65 339.89 175.08 324.4 175.1 323.76 167.69 323.7 136.53 294.92 136.49 294.87 144.93"/><polygon class="cls-5" points="294.87 144.93 295.11 144.92 295.11 200.46 300.56 197.53 303.23 190.9 305.64 189.48 308.94 189.81 309.52 197.81 315.63 202.35 322.83 203.86 327.12 201.8 327.76 198.75 330.25 196.45 331.62 191.81 334.77 189.34 339.98 188.65 339.89 175.08 324.4 175.1 323.76 167.69 323.7 136.53 294.92 136.49 294.87 144.93"/><polygon class="cls-4" points="339.98 188.65 340.34 206.6 394.22 206.59 393.88 175.03 370.77 175.32 339.89 175.08 339.98 188.65"/><polygon class="cls-5" points="339.98 188.65 340.34 206.6 394.22 206.59 393.88 175.03 370.77 175.32 339.89 175.08 339.98 188.65"/><polygon class="cls-4" points="672 175.34 688.99 175.31 685 144.95 684.99 129.75 657.35 129.5 656.91 144.01 656.89 167.43 656.5 175.31 672 175.34"/><polygon class="cls-5" points="672 175.34 688.99 175.31 685 144.95 684.99 129.75 657.35 129.5 656.91 144.01 656.89 167.43 656.5 175.31 672 175.34"/><polygon class="cls-4" points="340.34 206.6 340.27 229.83 341.2 233.65 341.18 237.51 394.87 237.6 394.88 229.84 394.22 229.84 394.22 206.59 340.34 206.6"/><polygon class="cls-5" points="340.34 206.6 340.27 229.84 341.2 233.65 341.18 237.51 394.87 237.6 394.88 229.84 394.22 229.84 394.22 206.59 340.34 206.6"/><polygon class="cls-4" points="539.89 195.04 539.93 222.06 570.93 222.05 570.94 202.6 582.49 202.62 582.74 183.05 563.31 183.02 563.3 175.26 539.88 175.14 539.89 195.04"/><polygon class="cls-5" points="539.89 195.04 539.93 222.06 570.93 222.05 570.94 202.6 582.49 202.62 582.74 183.05 563.31 183.02 563.3 175.26 539.88 175.14 539.89 195.04"/><polygon class="cls-4" points="633.56 143.97 656.91 144.01 657.35 129.5 657.37 104.83 654.87 100.21 656.77 99.74 627.79 99.77 627.77 104.9 626.05 104.88 626.06 136.1 633.53 136.1 633.56 143.97"/><polygon class="cls-5" points="633.56 143.97 656.91 144.01 657.35 129.5 657.37 104.83 654.87 100.21 656.77 99.74 627.79 99.77 627.77 104.9 626.05 104.88 626.07 136.1 633.53 136.1 633.56 143.97"/><polygon class="cls-4" points="392.06 331.13 392.08 337.49 395.86 337.47 395.81 352.94 399.43 355.04 404.73 361.19 409.33 359.45 411.15 355.45 413.64 352.94 418.26 354.91 423.17 354.91 427.78 356.69 429.93 354.27 429.72 322.25 422.33 322.25 422.32 326.05 418.58 327.34 403.45 327.32 403.45 329.86 395.87 329.84 392.06 331.13"/><polygon class="cls-5" points="392.06 331.12 392.08 337.49 395.86 337.47 395.81 352.95 399.43 355.04 404.73 361.19 409.33 359.45 411.15 355.45 413.64 352.95 418.26 354.92 423.17 354.92 427.78 356.69 429.93 354.28 429.72 322.25 422.34 322.25 422.32 326.05 418.58 327.34 403.45 327.32 403.45 329.86 395.87 329.84 392.06 331.12"/><polygon class="cls-4" points="380.16 314.58 380.17 322.23 392.08 322.23 392.06 331.13 395.87 329.84 403.45 329.86 403.45 327.32 418.58 327.34 422.32 326.05 422.33 322.25 429.72 322.25 429.75 306.93 433.56 306.93 433.3 291.61 380.17 291.62 380.16 314.58"/><polygon class="cls-5" points="380.16 314.58 380.17 322.24 392.08 322.23 392.06 331.12 395.87 329.84 403.45 329.86 403.45 327.32 418.58 327.34 422.32 326.05 422.34 322.25 429.72 322.25 429.75 306.93 433.56 306.93 433.3 291.61 380.17 291.62 380.16 314.58"/><polygon class="cls-4" points="555.38 330.03 574.37 330.01 574.36 322.33 578.23 322.32 578.21 299.31 555.44 299.31 555.44 307.01 547.79 307.03 547.67 329.93 555.38 330.03"/><polygon class="cls-5" points="555.38 330.03 574.37 330.01 574.36 322.33 578.23 322.32 578.21 299.31 555.44 299.31 555.44 307.01 547.79 307.03 547.67 329.93 555.38 330.03"/><polygon class="cls-4" points="463.8 248.92 467.14 251.46 470.25 251.94 472.07 254.98 471.76 258.13 482.75 266.24 483.32 271.14 486.79 272 486.51 275.82 487.7 281.93 492.65 282.1 498.21 285.11 502.14 284.82 502.18 245.39 463.83 245.34 463.8 248.92"/><polygon class="cls-5" points="463.8 248.93 467.14 251.46 470.25 251.94 472.07 254.98 471.76 258.13 482.75 266.24 483.32 271.14 486.79 272 486.51 275.82 487.7 281.93 492.65 282.1 498.21 285.11 502.14 284.82 502.18 245.39 463.83 245.35 463.8 248.93"/><polygon class="cls-4" points="138.49 144.87 147.92 144.84 148.22 100.32 99.69 100.13 91.22 99.71 77.67 99.69 77.65 144.86 138.49 144.87"/><polygon class="cls-5" points="138.49 144.87 147.92 144.84 148.22 100.32 99.69 100.13 91.22 99.71 77.67 99.69 77.65 144.86 138.49 144.87"/><polygon class="cls-4" points="602.16 377.76 602.51 376.12 606.99 376.57 608.89 374.81 611.88 374.74 614.04 371.72 616.92 372.76 617.96 377.12 624.01 376.46 625.58 378.29 634.83 377.41 636.88 377.52 637.66 374.32 641.43 370.04 646.03 372.2 645.99 352.95 585.49 352.97 589.36 355.75 589.38 371.2 593.66 374.02 596.43 377.67 602.16 377.76"/><polygon class="cls-5" points="602.16 377.76 602.51 376.12 606.99 376.57 608.89 374.81 611.88 374.74 614.04 371.73 616.92 372.76 617.96 377.12 624.01 376.46 625.58 378.29 634.83 377.41 636.88 377.52 637.66 374.32 641.43 370.04 646.03 372.2 645.99 352.95 585.49 352.97 589.36 355.75 589.38 371.2 593.66 374.02 596.43 377.67 602.16 377.76"/><polygon class="cls-4" points="648.09 222.07 671.28 222.09 671.28 198.68 672.01 198.68 672 175.34 648.74 175.32 648.76 183.14 642.26 183.12 640.99 188.98 637.13 193.02 636.82 198.07 640.55 203.12 638.08 206.5 648.09 206.55 648.09 222.07"/><polygon class="cls-5" points="648.09 222.07 671.28 222.09 671.28 198.68 672.01 198.68 672 175.34 648.74 175.32 648.76 183.14 642.26 183.12 640.99 188.98 637.13 193.02 636.82 198.07 640.55 203.12 638.08 206.5 648.09 206.55 648.09 222.07"/><polygon class="cls-4" points="471.82 360.47 514.62 360.5 514.74 351.59 517.25 351.59 517.26 337.56 510.37 337.57 509.8 333.81 486.94 333.74 486.94 322.27 471.71 322.26 471.82 360.47"/><polygon class="cls-5" points="471.82 360.47 514.62 360.5 514.74 351.59 517.25 351.59 517.26 337.56 510.37 337.57 509.8 333.81 486.94 333.74 486.94 322.27 471.71 322.26 471.82 360.47"/><polygon class="cls-4" points="433.06 245.31 438.96 245.24 443.64 247.59 443.94 245.5 447.44 248.15 449.88 246.76 451.35 249.18 457.03 248.44 458.92 250.03 463.8 249.02 463.63 214.3 417.31 214.37 417.32 229.85 417.83 233.79 417.81 245.35 433.06 245.31"/><polygon class="cls-5" points="433.06 245.31 438.96 245.24 443.64 247.59 443.94 245.5 447.44 248.15 449.88 246.76 451.35 249.18 457.03 248.44 458.92 250.03 463.8 249.02 463.63 214.3 417.31 214.37 417.31 229.85 417.83 233.79 417.82 245.35 433.06 245.31"/><polygon class="cls-4" points="395.02 270.17 395.11 291.6 433.3 291.61 433.4 260.75 433.06 245.31 417.81 245.35 417.83 233.79 417.32 229.85 394.88 229.84 395.02 270.17"/><polygon class="cls-5" points="395.02 270.17 395.11 291.6 433.3 291.61 433.4 260.75 433.06 245.31 417.82 245.35 417.83 233.79 417.31 229.85 394.88 229.84 395.02 270.17"/><polygon class="cls-4" points="557.39 390.6 558.65 393.56 561.82 393.1 562.94 388.42 564.8 386.78 568.2 388.63 571.98 387.58 574.08 380.9 577.53 380.07 581.35 380.96 589.09 378.82 589.8 376.6 596.24 380.8 599.04 378.71 601.7 380.06 602.16 377.76 596.43 377.67 593.66 374.02 589.38 371.2 589.36 355.75 585.49 352.97 552 352.93 552.01 356.68 542.48 356.67 545.19 361.15 541.9 365.23 539.63 366.21 543.09 369.79 541.73 371.57 542.25 375.85 539.32 379.57 543.36 382.46 546.28 382.13 548.62 386.53 554.27 386.23 557.39 390.6"/><polygon class="cls-5" points="557.39 390.6 558.65 393.56 561.82 393.1 562.94 388.42 564.8 386.78 568.2 388.63 571.98 387.58 574.08 380.9 577.53 380.07 581.35 380.96 589.09 378.82 589.8 376.6 596.24 380.8 599.05 378.71 601.7 380.06 602.16 377.76 596.43 377.67 593.66 374.02 589.38 371.2 589.36 355.75 585.49 352.97 552 352.93 552.01 356.68 542.48 356.67 545.19 361.15 541.9 365.23 539.63 366.21 543.09 369.79 541.73 371.57 542.25 375.85 539.32 379.57 543.36 382.46 546.28 382.13 548.62 386.53 554.27 386.23 557.39 390.6"/><polygon class="cls-4" points="394.22 206.59 394.22 229.84 417.32 229.85 417.31 214.37 425 214.38 424.76 175.03 393.88 175.03 394.22 206.59"/><polygon class="cls-5" points="394.22 206.59 394.22 229.84 417.31 229.85 417.31 214.37 425 214.38 424.76 175.03 393.88 175.03 394.22 206.59"/><polygon class="cls-4" points="295.11 262.61 295.11 276.1 310.86 276.12 310.87 268.45 341.49 268.46 341.18 260.69 341.2 233.65 325.88 233.63 325.87 241.4 295.11 241.35 295.11 262.61"/><polygon class="cls-5" points="295.11 262.61 295.11 276.1 310.86 276.12 310.87 268.45 341.49 268.46 341.18 260.69 341.2 233.65 325.88 233.63 325.87 241.4 295.11 241.35 295.11 262.61"/><polygon class="cls-4" points="255.58 144.96 294.87 144.93 294.95 99.54 226.64 99.86 226.65 113.41 226.05 113.46 226.02 144.93 255.58 144.96"/><polygon class="cls-5" points="255.58 144.96 294.87 144.93 294.95 99.54 226.64 99.86 226.65 113.41 226.05 113.46 226.02 144.93 255.58 144.96"/><polygon class="cls-4" points="555.36 352.93 600.86 352.98 600.86 322.29 608.66 322.27 608.64 314.61 593.42 314.64 593.42 306.99 578.21 306.98 578.23 322.32 574.36 322.33 574.37 330.01 555.38 330.03 555.36 352.93"/><polygon class="cls-5" points="555.36 352.93 600.86 352.98 600.86 322.29 608.66 322.27 608.64 314.61 593.42 314.64 593.42 306.99 578.21 306.98 578.23 322.32 574.36 322.33 574.37 330.01 555.38 330.03 555.36 352.93"/><polygon class="cls-4" points="401.36 148.2 432.43 148.21 431.9 99.87 400.54 99.78 400.87 104.93 400.86 136.39 401.37 136.39 401.36 148.2"/><polygon class="cls-5" points="401.36 148.2 432.43 148.21 431.9 99.87 400.54 99.78 400.87 104.94 400.86 136.39 401.37 136.39 401.36 148.2"/><polygon class="cls-4" points="695.52 222.09 688.99 175.31 672 175.34 672.01 198.68 671.28 198.68 671.28 222.09 695.52 222.09"/><polygon class="cls-5" points="695.52 222.09 688.99 175.31 672 175.34 672.01 198.68 671.28 198.68 671.28 222.09 695.52 222.09"/></g><g id="Layer_1" data-name="Layer 1"><path class="cls-6" d="M82.15,227.23c0-8.43,4.72-13.43,11.52-13.43s11.55,5,11.55,13.43-4.72,13.68-11.55,13.68S82.15,235.71,82.15,227.23Zm18.27,0c0-5.83-2.64-9.39-6.75-9.39s-6.76,3.56-6.76,9.39,2.64,9.64,6.76,9.64S100.42,233.11,100.42,227.23Z"/><path class="cls-6" d="M110.07,212.2h4.52v17.63h.12l7.28-9h5l-6.71,8,7.39,11.64h-5l-5-8.52-3.08,3.52v5h-4.52Z"/><path class="cls-6" d="M131,235.39V212.2h4.6v23.43c0,1.12.52,1.52,1,1.52a2.76,2.76,0,0,0,.72-.08l.59,3.44a6.19,6.19,0,0,1-2.43.4C132.15,240.91,131,238.79,131,235.39Z"/><path class="cls-6" d="M140.75,235.15c0-4.2,3.48-6.4,11.55-7.28-.08-2.08-.92-3.84-3.6-3.84a11.19,11.19,0,0,0-5.51,1.92l-1.68-3.08a15.35,15.35,0,0,1,8.07-2.55c4.88,0,7.32,3,7.32,8.47v11.64h-3.8l-.32-2.16h-.16a9.56,9.56,0,0,1-6.07,2.64A5.49,5.49,0,0,1,140.75,235.15Zm11.55,0v-4.4c-5.35.68-7.11,2.08-7.11,4,0,1.76,1.2,2.52,2.83,2.52S150.82,236.51,152.3,235.15Z"/><path class="cls-6" d="M162.43,212.2H167v7.28l-.16,3.79a9,9,0,0,1,6.28-3c4.19,0,6,2.83,6,7.79v12.32h-4.6V228.71c0-3.24-.92-4.44-3.07-4.44-1.72,0-2.84.84-4.48,2.44v13.72h-4.6Z"/><path class="cls-6" d="M183.47,230.63c0-6.56,4.44-10.31,9.31-10.31s9.36,3.75,9.36,10.31-4.44,10.28-9.36,10.28S183.47,237.15,183.47,230.63Zm13.95,0c0-4-1.76-6.56-4.64-6.56s-4.59,2.6-4.59,6.56,1.72,6.52,4.59,6.52S197.42,234.55,197.42,230.63Z"/><path class="cls-6" d="M206.71,220.79h3.8l.32,2.68H211c1.64-1.76,3.55-3.15,6-3.15a5.33,5.33,0,0,1,5.44,3.51c1.88-2,3.84-3.51,6.32-3.51,4.16,0,6.08,2.83,6.08,7.79v12.32h-4.64V228.71c0-3.24-1-4.44-3-4.44-1.24,0-2.6.8-4.12,2.44v13.72h-4.6V228.71c0-3.24-1-4.44-3-4.44-1.19,0-2.6.8-4.11,2.44v13.72h-4.6Z"/><path class="cls-6" d="M239.39,235.15c0-4.2,3.48-6.4,11.55-7.28-.08-2.08-.92-3.84-3.6-3.84a11.19,11.19,0,0,0-5.51,1.92l-1.68-3.08a15.35,15.35,0,0,1,8.07-2.55c4.88,0,7.32,3,7.32,8.47v11.64h-3.8l-.32-2.16h-.16a9.56,9.56,0,0,1-6.07,2.64A5.49,5.49,0,0,1,239.39,235.15Zm11.55,0v-4.4c-5.35.68-7.11,2.08-7.11,4,0,1.76,1.19,2.52,2.83,2.52S249.46,236.51,250.94,235.15Z"/><path class="cls-6" d="M134.94,253.14H139c4.66,0,7.4,2.51,7.4,7.54s-2.74,7.69-7.26,7.69h-4.21Zm3.88,13c3.08,0,4.82-1.75,4.82-5.5s-1.74-5.35-4.82-5.35h-1.18v10.85Z"/><path class="cls-6" d="M149,253.42a1.66,1.66,0,1,1,1.65,1.51A1.54,1.54,0,0,1,149,253.42Zm.3,3.52h2.68v11.43h-2.68Z"/><path class="cls-6" d="M154.21,267.06l1.26-1.72a5.08,5.08,0,0,0,3.16,1.28c1.24,0,1.82-.58,1.82-1.37,0-1-1.23-1.38-2.44-1.84-1.52-.56-3.22-1.42-3.22-3.33s1.61-3.42,4.17-3.42a6.22,6.22,0,0,1,3.8,1.37l-1.24,1.63a4.28,4.28,0,0,0-2.51-1c-1.14,0-1.68.54-1.68,1.26,0,.91,1.14,1.26,2.37,1.7,1.57.58,3.29,1.33,3.29,3.47,0,1.95-1.56,3.54-4.45,3.54A7.24,7.24,0,0,1,154.21,267.06Z"/><path class="cls-6" d="M165.31,264.5v-5.45h-1.62v-2l1.76-.11.33-3.12H168v3.12h2.91v2.11H168v5.45c0,1.35.51,2,1.6,2a3.29,3.29,0,0,0,1.19-.26l.47,2a7.3,7.3,0,0,1-2.33.42C166.29,268.65,165.31,267,165.31,264.5Z"/><path class="cls-6" d="M173.32,256.94h2.21l.19,2h.09a3.89,3.89,0,0,1,3.24-2.3,2.91,2.91,0,0,1,1.3.23l-.46,2.33a3.67,3.67,0,0,0-1.19-.19c-.91,0-2,.63-2.7,2.35v7h-2.68Z"/><path class="cls-6" d="M181.7,253.42a1.66,1.66,0,1,1,1.66,1.51A1.54,1.54,0,0,1,181.7,253.42Zm.31,3.52h2.67v11.43H182Z"/><path class="cls-6" d="M187.36,262.66a5.63,5.63,0,0,1,5.73-6,4.9,4.9,0,0,1,3.35,1.28l-1.3,1.74a2.84,2.84,0,0,0-1.91-.84c-1.84,0-3.12,1.52-3.12,3.82s1.25,3.8,3,3.8a3.79,3.79,0,0,0,2.35-1l1.09,1.77a5.71,5.71,0,0,1-3.72,1.4C189.76,268.65,187.36,266.46,187.36,262.66Z"/><path class="cls-6" d="M199,264.5v-5.45h-1.63v-2l1.77-.11.33-3.12h2.23v3.12h2.91v2.11h-2.91v5.45c0,1.35.52,2,1.61,2a3.29,3.29,0,0,0,1.19-.26l.46,2a7.23,7.23,0,0,1-2.32.42C200,268.65,199,267,199,264.5Z"/></g><g id="Layer_4" data-name="Layer 4"><circle class="cls-7" cx="475.23" cy="240.43" r="26.39"/><circle class="cls-8" cx="475.23" cy="240.43" r="8.13"/></g></svg>