<svg xmlns="http://www.w3.org/2000/svg" xmlns:xlink="http://www.w3.org/1999/xlink" viewBox="0 0 792 612"><defs><style>.cls-1,.cls-10,.cls-4,.cls-7{fill:none;}.cls-2{fill:#e6e6e6;}.cls-3{clip-path:url(#clip-path);}.cls-4{stroke:#f0f0f0;stroke-width:2.54px;}.cls-10,.cls-11,.cls-4{stroke-miterlimit:10;}.cls-5{fill:#f0f0f0;}.cls-6,.cls-9{fill:#007dbc;}.cls-6{opacity:0.8;}.cls-7{stroke:#0675af;stroke-linejoin:bevel;stroke-width:0.64px;}.cls-8{font-size:6.99px;fill:#666;font-family:ArialMT, Arial;letter-spacing:2.99em;}.cls-10,.cls-11{stroke:#fff;}.cls-10{stroke-width:3px;}.cls-11{fill:#fff;}</style><clipPath id="clip-path"><rect class="cls-1" x="8.52" y="47.85" width="792" height="612"/></clipPath></defs><g id="Layer_4" data-name="Layer 4"><rect class="cls-2" x="-21.74" y="-17.38" width="822.26" height="636.89"/></g><g id="Layer_1" data-name="Layer 1"><g class="cls-3"><polygon class="cls-4" points="500.7 366.88 498.61 373.31 491.85 373.31 497.32 377.28 495.23 383.7 500.7 379.73 506.17 383.7 504.08 377.28 509.56 373.31 502.79 373.31 500.7 366.88"/><rect class="cls-5" x="465.71" y="384.98" width="69.88" height="21.6"/><polygon class="cls-6" points="608.45 298.07 697.46 297.48 697.48 215.96 647.9 215.99 608.49 216.47 608.45 298.07"/><polygon class="cls-7" points="608.45 298.07 697.46 297.48 697.48 215.96 647.9 215.99 608.49 216.47 608.45 298.07"/><polygon class="cls-6" points="307.03 228.18 312.28 228.13 312.36 238.75 317.77 238.73 317.56 249.43 327.99 249.44 327.97 256.27 338.77 256.06 337.43 258.81 339.79 259.59 358.65 259.63 358.63 269.89 379.53 269.9 379.5 280.41 390.01 280.34 390.02 297.72 432.09 297.85 431.83 259.94 430.62 259.95 430.53 217.74 307.05 217.41 307.03 228.18"/><polygon class="cls-7" points="307.03 228.18 312.28 228.13 312.36 238.75 317.77 238.73 317.55 249.43 327.99 249.44 327.97 256.27 338.77 256.06 337.43 258.81 339.79 259.59 358.65 259.63 358.63 269.89 379.53 269.9 379.5 280.41 390.01 280.33 390.02 297.71 432.09 297.85 431.83 259.94 430.62 259.95 430.53 217.74 307.05 217.4 307.03 228.18"/><polygon class="cls-6" points="90.3 562.22 90.29 591.46 160.52 591.76 176.97 591.51 177.01 524.5 90.37 524.22 90.3 562.22"/><polygon class="cls-7" points="90.3 562.22 90.29 591.46 160.52 591.76 176.97 591.51 177.01 524.5 90.37 524.22 90.3 562.22"/><polygon class="cls-6" points="90.09 180.31 90.47 319.91 110.5 319.89 110.5 329.51 130.93 329.51 130.96 322.79 151.31 322.84 151.29 312.49 176.21 312.5 176.7 302.1 176.55 221.75 170.83 221.75 170.04 218.59 171.72 214.29 168.49 206.72 168.12 202.5 163.29 200.28 161.27 192.42 155.41 185.1 156.97 174.8 153.85 170.39 152.24 171.38 147.77 169.22 148.59 167.05 123.18 167.07 123.18 156.88 89.54 156.88 90.09 180.31"/><polygon class="cls-7" points="90.09 180.31 90.47 319.91 110.5 319.89 110.5 329.51 130.93 329.51 130.96 322.79 151.31 322.83 151.29 312.48 176.21 312.5 176.7 302.09 176.54 221.75 170.83 221.75 170.04 218.59 171.72 214.29 168.49 206.72 168.12 202.5 163.28 200.28 161.27 192.42 155.41 185.1 156.97 174.79 153.85 170.38 152.24 171.38 147.77 169.22 148.59 167.04 123.18 167.07 123.18 156.88 89.54 156.88 90.09 180.31"/><polygon class="cls-6" points="177.01 524.5 176.97 591.51 361.95 591 362.06 545.24 360.95 545.24 360.96 514.95 397.44 515.2 397.8 505.54 397.95 464.99 396.34 464.99 396.31 444.63 224.88 444.45 176.52 443.58 176.46 474.46 177.15 474.48 177.01 524.5"/><polygon class="cls-7" points="177.01 524.5 176.97 591.51 361.95 591 362.06 545.24 360.95 545.24 360.96 514.95 397.44 515.2 397.8 505.54 397.95 464.99 396.34 464.99 396.31 444.63 224.88 444.45 176.52 443.58 176.46 474.46 177.15 474.48 177.01 524.5"/><polygon class="cls-6" points="130.93 329.51 130.94 342.48 130.12 342.51 130.15 383.67 127.05 383.67 127.04 391.82 129.94 391.84 129.94 422.7 134 422.69 134.15 442.79 163.25 442.9 163.22 443.59 224.88 444.45 264.21 444.4 264.22 424.44 261.99 424.45 261.69 393.8 256.34 393.7 256.53 388.6 251.06 384.93 247.48 384.9 249.76 382.02 246.56 380.53 243.46 375.62 240.63 374.56 237.91 366.96 235.83 363.94 233.48 364.71 224.39 356.25 220.03 356.01 219.35 347.57 214.13 342.57 213.28 338.07 211.45 337.64 207.87 325.96 209.63 320.59 207.35 318.13 207.68 313.88 202.5 313.92 202.49 302.29 176.7 302.1 176.21 312.5 151.29 312.49 151.31 322.84 130.96 322.79 130.93 329.51"/><polygon class="cls-7" points="130.93 329.51 130.94 342.48 130.12 342.51 130.15 383.66 127.05 383.66 127.04 391.82 129.94 391.84 129.94 422.7 134 422.69 134.15 442.78 163.25 442.9 163.22 443.59 224.88 444.45 264.21 444.4 264.22 424.44 261.99 424.45 261.69 393.8 256.34 393.7 256.53 388.6 251.06 384.93 247.47 384.89 249.76 382.02 246.56 380.53 243.46 375.62 240.63 374.56 237.91 366.96 235.83 363.94 233.48 364.71 224.39 356.25 220.03 356.01 219.35 347.57 214.13 342.56 213.28 338.07 211.45 337.64 207.87 325.96 209.63 320.59 207.35 318.13 207.68 313.88 202.5 313.92 202.48 302.29 176.7 302.09 176.21 312.5 151.29 312.48 151.31 322.83 130.96 322.79 130.93 329.51"/><polygon class="cls-6" points="362.52 115.86 365.13 117.8 365.12 124.19 367.59 126.53 366.58 131.53 370.8 138.28 369.42 141.74 376.19 144.14 377.31 151.01 382.55 152.41 383.63 155.27 388.21 152.61 396.61 157.59 395.83 160.73 398.73 159.82 400.92 163.47 408.4 165.53 409.6 169.87 491.29 170.24 491.29 169.63 527.7 169.36 527.24 151.9 527.3 133.46 526.53 132.11 526.38 116.81 434.33 116.44 417.14 115.87 362.52 115.86"/><polygon class="cls-7" points="362.52 115.86 365.13 117.8 365.12 124.19 367.59 126.52 366.58 131.53 370.8 138.27 369.42 141.74 376.19 144.14 377.31 151.01 382.55 152.41 383.63 155.27 388.21 152.61 396.61 157.59 395.83 160.73 398.73 159.82 400.92 163.47 408.4 165.53 409.6 169.87 491.29 170.24 491.29 169.63 527.7 169.36 527.24 151.9 527.3 133.46 526.53 132.11 526.38 116.8 434.33 116.44 417.14 115.87 362.52 115.86"/><polygon class="cls-6" points="590.72 424.7 590.97 464.89 591.6 464.9 591.77 505.37 591.22 515.29 645.48 515.72 645.28 403.72 590.5 404.15 590.72 424.7"/><polygon class="cls-7" points="590.72 424.7 590.97 464.88 591.6 464.9 591.77 505.37 591.22 515.29 645.48 515.72 645.28 403.71 590.5 404.15 590.72 424.7"/><polygon class="cls-6" points="176.56 236.81 182.04 243.92 185.05 242.11 187.95 244.28 193.44 242.84 192.25 246.47 197.14 252.01 197.32 254.5 194.41 255.47 193.64 258.38 199.43 261.48 204.47 257.88 210.2 256.38 209.62 253.68 212.29 247.09 220.93 242.43 224.32 245.16 229.6 246.17 233.42 251.73 235.01 251.91 236.22 256.73 238.93 256.85 240.85 260.28 260.01 259.93 259.95 249.29 275.59 249.26 275.32 238.87 286.1 238.85 286.06 228.16 307.03 228.18 307.05 217.41 305.03 217.41 305.07 174.63 303.41 174.61 303.43 131.8 300.98 131.78 300.91 115.98 260.81 116.07 259.04 115.3 198.66 115.75 171.62 115.54 163.86 116.49 149.69 115.95 146.2 116.78 119.94 116.97 113.02 115.65 89.55 115.86 89.54 156.88 123.18 156.88 123.18 167.07 148.59 167.05 147.77 169.22 152.24 171.38 153.85 170.39 156.97 174.8 155.41 185.1 161.27 192.42 163.29 200.28 168.12 202.5 168.49 206.72 171.72 214.29 170.04 218.59 170.83 221.75 176.55 221.75 176.56 236.81"/><polygon class="cls-7" points="176.56 236.81 182.04 243.92 185.05 242.11 187.95 244.28 193.44 242.84 192.25 246.47 197.14 252 197.32 254.5 194.41 255.47 193.63 258.38 199.43 261.48 204.47 257.88 210.2 256.38 209.62 253.68 212.29 247.09 220.93 242.43 224.32 245.16 229.6 246.17 233.42 251.73 235 251.91 236.22 256.73 238.93 256.85 240.85 260.28 260.01 259.93 259.95 249.29 275.59 249.26 275.32 238.87 286.1 238.85 286.06 228.16 307.03 228.18 307.05 217.4 305.03 217.4 305.07 174.62 303.41 174.61 303.43 131.79 300.98 131.78 300.91 115.98 260.81 116.07 259.04 115.3 198.66 115.75 171.62 115.54 163.86 116.48 149.69 115.94 146.19 116.78 119.94 116.96 113.01 115.65 89.55 115.86 89.54 156.88 123.18 156.88 123.18 167.07 148.59 167.04 147.77 169.22 152.24 171.38 153.85 170.38 156.97 174.79 155.41 185.1 161.27 192.42 163.28 200.28 168.12 202.5 168.49 206.72 171.72 214.29 170.04 218.59 170.83 221.75 176.54 221.75 176.56 236.81"/><polygon class="cls-6" points="624.72 403.79 697.63 403.47 697.46 297.48 624.07 297.93 624.18 383.2 624.63 383.23 624.72 403.79"/><polygon class="cls-7" points="624.72 403.79 697.63 403.47 697.46 297.48 624.07 297.93 624.18 383.2 624.63 383.23 624.72 403.79"/><polygon class="cls-6" points="395.25 297.72 396.8 301.15 396.83 342.28 398.08 342.27 398.16 383.39 394.5 383.38 394.63 424.35 474.26 424.81 521.95 424.49 522.12 301.16 521.76 298.54 432.07 298.79 432.09 297.85 395.25 297.72"/><polygon class="cls-7" points="395.25 297.71 396.8 301.15 396.83 342.28 398.08 342.27 398.16 383.39 394.5 383.38 394.63 424.35 474.26 424.8 521.95 424.49 522.12 301.16 521.76 298.54 432.07 298.79 432.09 297.85 395.25 297.71"/><polygon class="cls-6" points="90.29 475.1 90.37 524.22 177.01 524.5 177.15 474.48 176.46 474.46 176.52 443.58 163.22 443.59 163.25 442.9 134.15 442.79 134 422.69 129.94 422.7 129.94 391.84 127.04 391.82 127.05 383.67 130.15 383.67 130.12 342.51 130.94 342.48 130.93 329.51 110.5 329.51 110.5 319.89 90.47 319.91 90.29 475.1"/><polygon class="cls-7" points="90.29 475.09 90.37 524.22 177.01 524.5 177.15 474.48 176.46 474.46 176.52 443.58 163.22 443.59 163.25 442.9 134.15 442.78 134 422.69 129.94 422.7 129.94 391.84 127.04 391.82 127.05 383.66 130.15 383.66 130.12 342.51 130.94 342.48 130.93 329.51 110.5 329.51 110.5 319.89 90.47 319.91 90.29 475.09"/><polygon class="cls-6" points="591.31 591.44 697.6 591.07 697.66 526.02 645.51 525.94 645.48 515.72 591.22 515.29 591 554.16 591.31 591.44"/><polygon class="cls-7" points="591.31 591.44 697.6 591.07 697.66 526.02 645.51 525.94 645.48 515.72 591.22 515.29 591 554.16 591.31 591.44"/><polygon class="cls-6" points="428.95 217.74 430.53 217.74 430.62 259.95 431.83 259.94 432.07 298.79 527.03 298.48 527.01 259.29 527.74 259.28 527.55 217.26 527.11 217.26 527.28 174.6 527.7 169.36 491.29 169.63 491.29 170.24 409.6 169.87 416.18 177.16 415.27 181.56 420.64 184.66 424.31 184.21 424.38 189.41 426.16 188.92 427.65 193.19 425.29 195.62 429.11 198.56 428.95 217.74"/><polygon class="cls-7" points="428.95 217.74 430.53 217.74 430.62 259.95 431.83 259.94 432.07 298.79 527.03 298.48 527.01 259.29 527.74 259.28 527.55 217.26 527.11 217.26 527.28 174.6 527.7 169.36 491.29 169.63 491.29 170.24 409.6 169.87 416.18 177.16 415.27 181.56 420.64 184.65 424.31 184.2 424.38 189.41 426.16 188.92 427.65 193.19 425.29 195.62 429.11 198.55 428.95 217.74"/><polygon class="cls-6" points="390.02 297.72 390.01 280.34 379.5 280.41 379.53 269.9 358.63 269.89 358.65 259.63 339.79 259.59 337.43 258.81 338.77 256.06 327.97 256.27 327.99 249.44 317.56 249.43 317.77 238.73 312.36 238.75 312.28 228.13 286.06 228.16 286.1 238.85 275.32 238.87 275.59 249.26 259.95 249.29 260.01 259.93 240.85 260.28 244.14 262.22 248.01 266.79 250.91 272.41 253.14 273.98 253.12 283.53 273.74 283.6 273.77 285.34 284.15 285.27 284.15 288.83 294.53 288.8 294.5 294.01 304.82 293.98 304.82 297.49 315.18 297.5 315.18 300.96 325.53 300.98 325.52 302.69 341.29 302.72 341.29 301.4 390.02 301.2 390.02 297.72"/><polygon class="cls-7" points="390.02 297.71 390.01 280.33 379.5 280.41 379.53 269.9 358.63 269.89 358.65 259.63 339.79 259.59 337.43 258.81 338.77 256.06 327.97 256.27 327.99 249.44 317.55 249.43 317.77 238.73 312.36 238.75 312.28 228.13 286.06 228.16 286.1 238.85 275.32 238.87 275.59 249.26 259.95 249.29 260.01 259.93 240.85 260.28 244.14 262.21 248.01 266.79 250.91 272.41 253.14 273.98 253.12 283.53 273.74 283.6 273.77 285.34 284.15 285.26 284.15 288.82 294.53 288.8 294.5 294.01 304.82 293.98 304.82 297.49 315.18 297.5 315.18 300.96 325.53 300.98 325.52 302.69 341.29 302.72 341.29 301.4 390.02 301.2 390.02 297.71"/><polygon class="cls-6" points="645.48 515.72 645.51 525.94 697.66 526.02 697.63 403.47 645.28 403.72 645.48 515.72"/><polygon class="cls-7" points="645.48 515.72 645.51 525.94 697.66 526.02 697.63 403.47 645.28 403.71 645.48 515.72"/><polygon class="cls-6" points="176.7 302.1 202.49 302.29 202.5 313.92 207.68 313.88 207.35 318.13 209.63 320.59 207.87 325.96 211.45 337.64 213.28 338.07 214.13 342.57 219.35 347.57 220.03 356.01 224.39 356.25 233.48 364.71 235.83 363.94 237.91 366.96 240.63 374.56 243.46 375.62 246.56 380.53 249.76 382.02 247.48 384.9 251.06 384.93 256.53 388.6 256.34 393.7 261.69 393.8 261.99 424.45 264.22 424.44 264.21 444.4 396.31 444.63 396.29 424.35 394.63 424.35 394.5 383.38 398.16 383.39 398.08 342.27 396.83 342.28 396.8 301.15 395.25 297.72 390.02 297.72 390.02 301.2 341.29 301.4 341.29 302.72 325.52 302.69 325.53 300.98 315.18 300.96 315.18 297.5 304.82 297.49 304.82 293.98 294.5 294.01 294.53 288.8 284.15 288.83 284.15 285.27 273.77 285.34 273.74 283.6 253.12 283.53 253.14 273.98 250.91 272.41 248.01 266.79 244.14 262.22 240.85 260.28 238.93 256.85 236.22 256.73 235.01 251.91 233.42 251.73 229.6 246.17 224.32 245.16 220.93 242.43 212.29 247.09 209.62 253.68 210.2 256.38 204.47 257.88 199.43 261.48 193.64 258.38 194.41 255.47 197.32 254.5 197.14 252.01 192.25 246.47 193.44 242.84 187.95 244.28 185.05 242.11 182.04 243.92 176.56 236.81 176.7 302.1"/><polygon class="cls-7" points="176.7 302.09 202.48 302.29 202.5 313.92 207.68 313.88 207.35 318.13 209.63 320.59 207.87 325.96 211.45 337.64 213.28 338.07 214.13 342.56 219.35 347.57 220.03 356.01 224.39 356.25 233.48 364.71 235.83 363.94 237.91 366.96 240.63 374.56 243.46 375.62 246.56 380.53 249.76 382.02 247.47 384.89 251.06 384.93 256.53 388.6 256.34 393.7 261.69 393.8 261.99 424.45 264.22 424.44 264.21 444.4 396.31 444.63 396.29 424.35 394.63 424.35 394.5 383.38 398.16 383.39 398.08 342.27 396.83 342.28 396.8 301.15 395.25 297.71 390.02 297.71 390.02 301.2 341.29 301.4 341.29 302.72 325.52 302.69 325.53 300.98 315.18 300.96 315.18 297.5 304.82 297.49 304.82 293.98 294.5 294.01 294.53 288.8 284.15 288.82 284.15 285.26 273.77 285.34 273.74 283.6 253.12 283.53 253.14 273.98 250.91 272.41 248.01 266.79 244.14 262.21 240.85 260.28 238.93 256.85 236.22 256.73 235 251.91 233.42 251.73 229.6 246.17 224.32 245.16 220.93 242.43 212.29 247.09 209.62 253.68 210.2 256.38 204.47 257.88 199.43 261.48 193.63 258.38 194.41 255.47 197.32 254.5 197.14 252 192.25 246.47 193.44 242.84 187.95 244.28 185.05 242.11 182.04 243.92 176.56 236.81 176.7 302.09"/><polygon class="cls-6" points="608.49 216.47 647.9 215.99 697.48 215.96 697.21 116.34 607.61 115.97 607.61 130.67 608.89 130.67 608.7 142.23 607.95 142.15 608.04 211.58 608.49 216.47"/><polygon class="cls-7" points="608.49 216.47 647.9 215.99 697.48 215.96 697.21 116.34 607.61 115.97 607.61 130.67 608.89 130.67 608.7 142.23 607.95 142.15 608.04 211.58 608.49 216.47"/><polygon class="cls-6" points="521.95 424.49 567.09 424.79 565.39 431.06 562 431.05 562.07 439.62 569.66 441.45 582.77 441.31 584.24 437.88 583.97 431.18 586.49 424.74 590.72 424.7 590.5 404.15 624.72 403.79 624.63 383.23 624.18 383.2 624.07 297.93 521.76 298.54 522.12 301.16 521.95 424.49"/><polygon class="cls-7" points="521.95 424.49 567.09 424.79 565.39 431.06 562 431.05 562.07 439.61 569.66 441.44 582.77 441.3 584.24 437.88 583.97 431.18 586.49 424.73 590.72 424.7 590.5 404.15 624.72 403.79 624.63 383.23 624.18 383.2 624.07 297.93 521.76 298.54 522.12 301.16 521.95 424.49"/><polygon class="cls-6" points="414.1 590.9 490.36 591 500.64 591.34 500.5 545.63 522.6 545.65 522.03 460.29 522.16 424.49 474.26 424.81 396.29 424.35 396.34 464.99 397.95 464.99 397.8 505.54 397.44 515.2 360.96 514.95 360.95 545.24 362.06 545.24 361.95 591 414.1 590.9"/><polygon class="cls-7" points="414.1 590.9 490.36 591 500.64 591.33 500.5 545.63 522.6 545.64 522.03 460.29 522.16 424.49 474.26 424.8 396.29 424.35 396.34 464.99 397.95 464.99 397.8 505.54 397.44 515.2 360.96 514.95 360.95 545.24 362.06 545.24 361.95 591 414.1 590.9"/><polygon class="cls-6" points="527.7 169.36 527.28 174.6 527.11 217.26 527.55 217.26 527.74 259.28 527.01 259.29 527.03 298.48 608.45 298.07 608.49 216.47 608.04 211.58 607.95 142.15 608.7 142.23 608.89 130.67 607.61 130.67 607.61 115.97 536.06 115.91 534.77 116.81 526.38 116.81 526.53 132.11 527.3 133.46 527.24 151.9 527.7 169.36"/><polygon class="cls-7" points="527.7 169.36 527.28 174.6 527.11 217.26 527.55 217.26 527.74 259.28 527.01 259.29 527.03 298.48 608.45 298.07 608.49 216.47 608.04 211.58 607.95 142.15 608.7 142.23 608.89 130.67 607.61 130.67 607.61 115.97 536.06 115.91 534.77 116.8 526.38 116.8 526.53 132.11 527.3 133.46 527.24 151.9 527.7 169.36"/><polygon class="cls-6" points="307.05 217.41 428.95 217.74 429.11 198.56 425.29 195.62 427.65 193.19 426.16 188.92 424.38 189.41 424.31 184.21 420.64 184.66 415.27 181.56 416.18 177.16 409.6 169.87 408.4 165.53 400.92 163.47 398.73 159.82 395.83 160.73 396.61 157.59 388.21 152.61 383.63 155.27 382.55 152.41 377.31 151.01 376.19 144.14 369.42 141.74 370.8 138.28 366.58 131.53 367.59 126.53 365.12 124.19 365.13 117.8 362.52 115.86 300.91 115.98 300.98 131.78 303.43 131.8 303.41 174.61 305.07 174.63 305.03 217.41 307.05 217.41"/><polygon class="cls-7" points="307.05 217.4 428.95 217.74 429.11 198.55 425.29 195.62 427.65 193.19 426.16 188.92 424.38 189.41 424.31 184.2 420.64 184.65 415.27 181.56 416.18 177.16 409.6 169.87 408.4 165.53 400.92 163.47 398.73 159.82 395.83 160.73 396.61 157.59 388.21 152.61 383.63 155.27 382.55 152.41 377.31 151.01 376.19 144.14 369.42 141.74 370.8 138.27 366.58 131.53 367.59 126.52 365.12 124.19 365.13 117.8 362.52 115.86 300.91 115.98 300.98 131.78 303.43 131.79 303.41 174.61 305.07 174.62 305.03 217.4 307.05 217.4"/><polygon class="cls-6" points="511.99 591.51 591.31 591.44 591 554.16 591.22 515.29 591.77 505.37 591.6 464.9 590.97 464.89 590.72 424.7 586.49 424.74 583.97 431.18 584.24 437.88 582.77 441.31 569.66 441.45 562.07 439.62 562 431.05 565.39 431.06 567.09 424.79 522.16 424.49 522.03 460.29 522.6 545.65 500.5 545.63 500.64 591.34 511.99 591.51"/><polygon class="cls-7" points="511.99 591.51 591.31 591.44 591 554.16 591.22 515.29 591.77 505.37 591.6 464.9 590.97 464.88 590.72 424.7 586.49 424.73 583.97 431.18 584.24 437.88 582.77 441.3 569.66 441.44 562.07 439.61 562 431.05 565.39 431.06 567.09 424.79 522.16 424.49 522.03 460.29 522.6 545.64 500.5 545.63 500.64 591.33 511.99 591.51"/><text class="cls-8" transform="translate(79.82 611.77)">	</text><text class="cls-8" transform="translate(106.6 611.77)">	</text><text class="cls-8" transform="translate(113.67 611.77)">	</text><text/><text/></g><path class="cls-9" d="M324.78,34.9h4.76l2.28,13.2c.44,2.8.88,5.59,1.28,8.35h.16c.56-2.76,1.12-5.59,1.72-8.35l3.19-13.2h4l3.2,13.2c.6,2.72,1.16,5.55,1.76,8.35h.16c.4-2.8.84-5.59,1.24-8.35l2.28-13.2h4.44l-5,26.15h-5.76L341.29,47.3c-.44-2-.84-4-1.16-6H340c-.35,2-.76,4-1.19,6l-3.16,13.75H330Z"/><path class="cls-9" d="M357.74,68.73l.84-3.6a4.83,4.83,0,0,0,1.4.28c2.08,0,3.28-1.4,3.92-3.36l.35-1.24-7.71-19.39h4.68l3.4,9.64c.55,1.71,1.12,3.67,1.71,5.51h.17c.47-1.8,1-3.76,1.47-5.51l3-9.64h4.44l-7.12,20.51c-1.63,4.44-3.67,7.2-7.95,7.2A7.64,7.64,0,0,1,357.74,68.73Z"/><path class="cls-9" d="M377.26,51.26c0-6.56,4.44-10.32,9.32-10.32s9.35,3.76,9.35,10.32-4.44,10.27-9.35,10.27S377.26,57.77,377.26,51.26Zm13.95,0c0-4-1.76-6.56-4.63-6.56s-4.6,2.6-4.6,6.56,1.72,6.51,4.6,6.51S391.21,55.17,391.21,51.26Z"/><path class="cls-9" d="M400.5,41.42h3.8l.32,2.68h.16c1.64-1.76,3.55-3.16,6-3.16a5.34,5.34,0,0,1,5.43,3.52c1.88-2,3.84-3.52,6.32-3.52,4.16,0,6.08,2.84,6.08,7.8V61.05H424V49.34c0-3.24-1-4.44-3-4.44-1.24,0-2.6.8-4.12,2.44V61.05h-4.6V49.34c0-3.24-1-4.44-3-4.44-1.19,0-2.59.8-4.11,2.44V61.05h-4.6Z"/><path class="cls-9" d="M433.7,35.38a2.85,2.85,0,1,1,2.84,2.6A2.64,2.64,0,0,1,433.7,35.38Zm.52,6h4.6V61.05h-4.6Z"/><path class="cls-9" d="M444.7,41.42h3.8l.32,2.64H449c1.75-1.72,3.75-3.12,6.43-3.12,4.2,0,6,2.84,6,7.8V61.05h-4.6V49.34c0-3.24-.92-4.44-3.08-4.44-1.72,0-2.84.84-4.48,2.44V61.05H444.7Z"/><path class="cls-9" d="M465.78,64.61c0-1.64,1-3.08,2.8-4.2v-.16A3.69,3.69,0,0,1,466.82,57,4.75,4.75,0,0,1,469,53.33v-.16A6.63,6.63,0,0,1,466.41,48c0-4.52,3.64-7,7.76-7a8.85,8.85,0,0,1,2.88.48h7v3.4h-3.6a5.25,5.25,0,0,1,1.12,3.32c0,4.36-3.28,6.67-7.44,6.67a7.24,7.24,0,0,1-2.68-.52,2.25,2.25,0,0,0-.95,1.88c0,1.12.79,1.8,3.19,1.8h3.48c4.72,0,7.2,1.44,7.2,4.84,0,3.88-4.08,6.92-10.48,6.92C469.25,69.73,465.78,68.05,465.78,64.61Zm14.19-1c0-1.52-1.24-2-3.48-2h-2.68a10.4,10.4,0,0,1-2.68-.28,3.29,3.29,0,0,0-1.51,2.6c0,1.76,1.91,2.8,5,2.8S480,65.25,480,63.57ZM477.57,48c0-2.44-1.48-3.88-3.4-3.88s-3.44,1.4-3.44,3.88,1.52,4,3.44,4S477.57,50.5,477.57,48Z"/><path class="cls-9" d="M370.29,73.76h4.07c4.66,0,7.4,2.52,7.4,7.55S379,89,374.5,89h-4.21Zm3.88,13c3.08,0,4.82-1.75,4.82-5.49S377.25,76,374.17,76H373V86.8Z"/><path class="cls-9" d="M384.3,74A1.66,1.66,0,1,1,386,75.55,1.54,1.54,0,0,1,384.3,74Zm.3,3.52h2.68V89H384.6Z"/><path class="cls-9" d="M389.56,87.69,390.82,86A5.08,5.08,0,0,0,394,87.24c1.24,0,1.82-.58,1.82-1.37,0-1-1.23-1.37-2.44-1.84-1.52-.56-3.22-1.42-3.22-3.33s1.61-3.42,4.17-3.42a6.22,6.22,0,0,1,3.8,1.37l-1.24,1.63a4.28,4.28,0,0,0-2.51-1c-1.14,0-1.68.54-1.68,1.26,0,.91,1.14,1.26,2.37,1.7,1.57.58,3.29,1.33,3.29,3.47,0,2-1.56,3.54-4.45,3.54A7.29,7.29,0,0,1,389.56,87.69Z"/><path class="cls-9" d="M400.66,85.12V79.68H399v-2l1.76-.11.33-3.12h2.24v3.12h2.91v2.12h-2.91v5.44c0,1.35.51,2,1.6,2a3.29,3.29,0,0,0,1.19-.26l.47,2a7.35,7.35,0,0,1-2.33.42C401.64,89.27,400.66,87.59,400.66,85.12Z"/><path class="cls-9" d="M408.67,77.56h2.21l.19,2h.09a3.89,3.89,0,0,1,3.24-2.3,2.91,2.91,0,0,1,1.3.23l-.46,2.33a3.67,3.67,0,0,0-1.19-.19c-.91,0-2,.63-2.7,2.35v7h-2.68Z"/><path class="cls-9" d="M417.05,74a1.66,1.66,0,1,1,1.66,1.51A1.54,1.54,0,0,1,417.05,74Zm.31,3.52H420V89h-2.67Z"/><path class="cls-9" d="M422.71,83.28a5.64,5.64,0,0,1,5.73-6,4.94,4.94,0,0,1,3.35,1.28l-1.3,1.74a2.82,2.82,0,0,0-1.91-.83c-1.84,0-3.12,1.51-3.12,3.81s1.25,3.8,3.05,3.8a3.79,3.79,0,0,0,2.35-1L432,87.87a5.71,5.71,0,0,1-3.72,1.4C425.11,89.27,422.71,87.08,422.71,83.28Z"/><path class="cls-9" d="M434.37,85.12V79.68h-1.63v-2l1.77-.11.33-3.12h2.23v3.12H440v2.12h-2.91v5.44c0,1.35.52,2,1.61,2a3.29,3.29,0,0,0,1.19-.26l.46,2a7.28,7.28,0,0,1-2.32.42C435.35,89.27,434.37,87.59,434.37,85.12Z"/><circle class="cls-10" cx="500.79" cy="375.31" r="26.39"/><circle class="cls-11" cx="500.79" cy="375.31" r="8.13"/></g></svg>