<?xml version="1.0" encoding="utf-8"?>
<!-- Generator: Adobe Illustrator 27.8.1, SVG Export Plug-In . SVG Version: 6.00 Build 0)  -->
<svg version="1.1" id="Layer_1" xmlns="http://www.w3.org/2000/svg" xmlns:xlink="http://www.w3.org/1999/xlink" x="0px" y="0px"
	 viewBox="0 0 105.6 105.6" style="enable-background:new 0 0 105.6 105.6;" xml:space="preserve">
<style type="text/css">
	.st0{fill:#007DBC;}
	.st1{fill:none;stroke:#002E6D;stroke-width:3;stroke-linecap:round;stroke-linejoin:round;stroke-miterlimit:10;}
	.st2{fill:#FFFFFF;stroke:#002E6D;stroke-width:3;stroke-linecap:round;stroke-linejoin:round;stroke-miterlimit:10;}
	.st3{fill:none;stroke:#007DBC;stroke-width:2;stroke-linecap:round;stroke-linejoin:round;stroke-miterlimit:10;}
	.st4{fill:#FFFFFF;stroke:#002E6D;stroke-miterlimit:10;}
	.st5{fill:none;stroke:#002E6D;stroke-width:2;stroke-linecap:round;stroke-linejoin:round;stroke-miterlimit:10;}
	.st6{fill:none;stroke:#C5C5C5;stroke-width:2;stroke-linecap:round;stroke-linejoin:round;stroke-miterlimit:10;}
</style>
<g>
	<rect x="6.8" y="22.2" class="st0" width="50.5" height="59.1"/>
	<rect x="52.1" y="22.2" class="st0" width="50.5" height="59.1"/>
	<rect x="2.3" y="22.2" class="st1" width="50.5" height="59.1"/>
	<rect x="52.8" y="22.2" class="st1" width="50.5" height="59.1"/>
	<rect x="10.4" y="15.7" class="st2" width="42.4" height="56.8"/>
	<rect x="52.8" y="15.7" class="st2" width="42.4" height="56.8"/>
	<circle class="st3" cx="73" cy="52.5" r="7.4"/>
	<circle class="st3" cx="73" cy="52.5" r="12.6"/>
	<g>
		<g>
			<polygon class="st4" points="90.3,89.9 96.9,86.2 90.2,74.7 98.7,72.2 73.6,53.4 76.9,84.3 83.4,78.8 			"/>
			<polygon class="st4" points="90.3,89.9 96.9,86.2 90.2,74.7 98.7,72.2 73.6,53.4 76.9,84.3 83.4,78.8 			"/>
		</g>
		<g>
			<polygon class="st5" points="90.3,89.9 96.9,86.2 90.2,74.7 98.7,72.2 73.6,53.4 76.9,84.3 83.4,78.8 			"/>
			<polygon class="st5" points="90.3,89.9 96.9,86.2 90.2,74.7 98.7,72.2 73.6,53.4 76.9,84.3 83.4,78.8 			"/>
		</g>
	</g>
	<line class="st6" x1="19.2" y1="25" x2="43.5" y2="25"/>
	<line class="st6" x1="19.2" y1="32.3" x2="43.5" y2="32.3"/>
	<line class="st6" x1="19.2" y1="39.7" x2="43.5" y2="39.7"/>
	<line class="st6" x1="61.6" y1="25" x2="85.9" y2="25"/>
	<line class="st6" x1="61.6" y1="32.3" x2="85.9" y2="32.3"/>
	<line class="st6" x1="19.2" y1="47" x2="43.5" y2="47"/>
	<line class="st6" x1="19.2" y1="54.3" x2="43.5" y2="54.3"/>
	<line class="st6" x1="19.2" y1="61.6" x2="43.5" y2="61.6"/>
</g>
</svg>
