<?xml version="1.0" encoding="utf-8"?>
<!-- Generator: Adobe Illustrator 27.8.1, SVG Export Plug-In . SVG Version: 6.00 Build 0)  -->
<svg version="1.1" id="Layer_1" xmlns="http://www.w3.org/2000/svg" xmlns:xlink="http://www.w3.org/1999/xlink" x="0px" y="0px"
	 viewBox="0 0 157.5 157.5" style="enable-background:new 0 0 157.5 157.5;" xml:space="preserve">
<style type="text/css">
	.st0{fill:#EBEBEB;}
	.st1{fill:#FFFFFF;}
	.st2{fill:none;stroke:#002E6D;stroke-width:3;stroke-linecap:round;stroke-linejoin:round;}
	.st3{fill:#FFFFFF;stroke:#002E6D;stroke-width:3;stroke-linecap:round;stroke-linejoin:round;}
	.st4{fill:none;stroke:#007DBC;stroke-width:6;}
	.st5{fill:#007DBC;}
</style>
<g>
	<polygon id="Shape_73_" class="st0" points="49.7,148.3 62.5,121.9 63.2,121.9 63.2,143 64,143 76.4,143 77.3,143 77.3,121.9 
		78,121.9 90.8,148.3 105.6,148.3 88.8,113.6 86.4,108.7 77.3,108.7 63.2,108.7 54,108.7 52.1,113.2 34.9,148.3 	"/>
	<path id="Shape_72_" class="st1" d="M49.6,148.1c0.7,0,1.1-0.4,1.3-0.8l12.4-25.6H64v21h0.9h12.4h0.9v-21h0.7l12.4,25.6
		c0.2,0.4,0.9,0.8,1.3,0.8h11.6c1.1,0,1.7-1.1,1.3-2.1l-15.9-32.4l-2-4c-0.2-0.4-0.9-0.8-1.3-0.8h-8.1H63.8h-8.1
		c-0.7,0-1.1,0.4-1.3,0.8l-1.7,3.4l-15.9,33.3c-0.4,1.1,0.2,2.1,1.3,2.1h11.6V148.1z"/>
	<polygon id="Shape_71_" class="st2" points="49.7,148.3 62.5,121.9 63.2,121.9 63.2,143 64,143 76.4,143 77.3,143 77.3,121.9 
		78,121.9 90.8,148.3 105.6,148.3 88.8,113.6 86.4,108.7 77.3,108.7 63.2,108.7 54,108.7 52.1,113.2 34.9,148.3 	"/>
	<rect id="Rectangle-path_27_" x="55.6" y="17.4" class="st0" width="29.3" height="12.1"/>
	<rect id="Rectangle-path_26_" x="55.6" y="17.4" class="st3" width="29.3" height="12.1"/>
	<path id="Shape_70_" class="st1" d="M10.6,105.6h116.1c1.5,0,2.8-1.3,2.8-2.8V32.6c0-1.5-1.3-2.8-2.8-2.8H13.4
		c-1.5,0-2.8,1.3-2.8,2.8V105.6"/>
	<rect id="Rectangle-path_25_" x="2.2" y="107" class="st1" width="137.9" height="12.1"/>
	<rect id="Rectangle-path_24_" x="2.2" y="107" class="st2" width="137.9" height="12.1"/>
	<polyline id="Shape_69_" class="st4" points="21.1,91.5 54.9,64.5 76.3,84.5 112.5,50.1 	"/>
	<polygon id="Shape_68_" class="st5" points="109,53.5 100.4,44.5 109.9,43.9 119.3,43.2 118.5,52.6 117.8,62.2 	"/>
	<polyline id="Shape_67_" class="st2" points="10.8,107 129.7,107 129.7,29.4 10.8,29.4 10.8,107 	"/>
	<g id="Group_5_" transform="translate(74.000000, 0.000000)">
		<path id="Shape_66_" class="st2" d="M57.2,18l3.2-8.8"/>
		<path id="Shape_63_" class="st2" d="M66.3,23.8l7.1-6"/>
		<path id="Shape_62_" class="st2" d="M72.3,33.7l9-1.7"/>
	</g>
</g>
</svg>
