<?xml version="1.0" encoding="utf-8"?>
<!-- Generator: Adobe Illustrator 27.8.1, SVG Export Plug-In . SVG Version: 6.00 Build 0)  -->
<svg version="1.1" id="Layer_1" xmlns="http://www.w3.org/2000/svg" xmlns:xlink="http://www.w3.org/1999/xlink" x="0px" y="0px"
	 viewBox="0 0 210 210" style="enable-background:new 0 0 210 210;" xml:space="preserve">
<style type="text/css">
	.st0{fill:none;stroke:#002E6D;stroke-width:3;stroke-linecap:round;stroke-linejoin:round;}
	.st1{fill:none;stroke:#213469;stroke-width:3;stroke-linecap:round;stroke-linejoin:round;stroke-miterlimit:10;}
	.st2{fill:#FFFFFF;}
	.st3{fill:#FFFFFF;stroke:#213469;stroke-width:5;stroke-linecap:round;stroke-linejoin:round;stroke-miterlimit:10;}
	.st4{clip-path:url(#SVGID_00000087411821527500615540000004533748878025349793_);fill:#057DBB;}
	.st5{fill:none;stroke:#213469;stroke-width:4;stroke-linecap:round;stroke-linejoin:round;stroke-miterlimit:10;}
	.st6{fill:#213469;}
	.st7{fill:#FFFFFF;stroke:#213469;stroke-width:3;stroke-linecap:round;stroke-linejoin:round;stroke-miterlimit:10;}
	.st8{clip-path:url(#SVGID_00000145049100020221601620000002855140111401491360_);fill:#057DBB;}
	.st9{fill:#213469;stroke:#213469;stroke-width:2;stroke-linecap:round;stroke-linejoin:round;stroke-miterlimit:10;}
	.st10{fill:#FFFFFF;stroke:#213469;stroke-width:2.5;stroke-linecap:round;stroke-linejoin:round;stroke-miterlimit:10;}
	.st11{fill:#FFFFFF;stroke:#213469;stroke-width:2;stroke-linecap:round;stroke-linejoin:round;stroke-miterlimit:10;}
	.st12{fill:none;stroke:#002E6D;stroke-width:2;stroke-linecap:round;stroke-linejoin:round;}
</style>
<g>
	<line class="st0" x1="88.3" y1="21.1" x2="38.1" y2="81.3"/>
	<line class="st1" x1="88.3" y1="21.1" x2="170.9" y2="73.4"/>
	
		<rect x="16.8" y="78.1" transform="matrix(0.9889 -0.1483 0.1483 0.9889 -17.2048 16.9447)" class="st2" width="176.4" height="91.4"/>
	<polygon class="st3" points="199,178.5 24.5,204.5 11,70.3 185.5,44.3 	"/>
	<circle class="st2" cx="88.3" cy="21.1" r="16.7"/>
	<g>
		<defs>
			<circle id="SVGID_1_" cx="89" cy="21.1" r="16.7"/>
		</defs>
		<clipPath id="SVGID_00000071553062770025983440000005273964397912795325_">
			<use xlink:href="#SVGID_1_"  style="overflow:visible;"/>
		</clipPath>
		
			<circle style="clip-path:url(#SVGID_00000071553062770025983440000005273964397912795325_);fill:#057DBB;" cx="95.3" cy="21.1" r="16.7"/>
	</g>
	<circle class="st5" cx="88.3" cy="21.1" r="16.7"/>
</g>
<rect x="63.5" y="81.5" transform="matrix(0.9887 -0.1496 0.1496 0.9887 -17.1255 17.6235)" class="st6" width="90.2" height="82.3"/>
<rect x="68.7" y="91.3" transform="matrix(0.9887 -0.1496 0.1496 0.9887 -17.9308 14.5656)" class="st2" width="38.2" height="70.3"/>
<rect x="72" y="98.2" transform="matrix(0.9887 -0.1496 0.1496 0.9887 -15.3738 14.0046)" class="st6" width="26.7" height="22.1"/>
<g id="Group_00000079452049180769963750000000595220633042918308_" transform="translate(74.000000, 0.000000)">
	<path id="Shape_00000003094252354734531690000005843861547600029116_" class="st0" d="M-16.3,141.8l-7,4.8"/>
	<path id="Shape_00000174595945253789006830000014250010880953669282_" class="st0" d="M-20.2,132.7l-8.5,0.7"/>
	<path id="Shape_00000008149624360077583780000007302989646143444406_" class="st0" d="M-19.7,122.2l-7.8-3.5"/>
</g>
<g>
	<g>
		<line class="st0" x1="-302.7" y1="-2092.3" x2="-345.2" y2="-2041.4"/>
		<line class="st1" x1="-302.7" y1="-2092.3" x2="-232.8" y2="-2048"/>
		
			<rect x="-363.2" y="-2044.1" transform="matrix(0.9889 -0.1483 0.1483 0.9889 294.2812 -64.9918)" class="st2" width="149.2" height="77.3"/>
		<polygon class="st7" points="-209.1,-1959.2 -356.7,-1937.2 -368.1,-2050.7 -220.5,-2072.7 		"/>
		<circle class="st2" cx="-302.7" cy="-2092.3" r="14.1"/>
		<g>
			<defs>
				<circle id="SVGID_00000094606780391376326690000007917931826524160405_" cx="-302.1" cy="-2092.3" r="14.1"/>
			</defs>
			<clipPath id="SVGID_00000160164065533159170820000009071791542712805291_">
				<use xlink:href="#SVGID_00000094606780391376326690000007917931826524160405_"  style="overflow:visible;"/>
			</clipPath>
			
				<circle style="clip-path:url(#SVGID_00000160164065533159170820000009071791542712805291_);fill:#057DBB;" cx="-296.8" cy="-2092.3" r="14.1"/>
		</g>
		<circle class="st1" cx="-302.7" cy="-2092.3" r="14.1"/>
	</g>
	<polygon class="st9" points="-291.2,-2041.8 -255.5,-2047.2 -247,-1982.1 -284.4,-1976 	"/>
	<polygon class="st10" points="-288.7,-2041.9 -324.5,-2037 -317.7,-1962.7 -282,-1976.9 	"/>
	<circle class="st11" cx="-312.2" cy="-1997.7" r="3.2"/>
	<g id="Group_00000054949187955283432320000010558659545779936929_" transform="translate(74.000000, 0.000000)">
		<path id="Shape_00000009584457697721762130000005947644031973712009_" class="st12" d="M-401.7-1996.3l-5.7,3.7"/>
		<path id="Shape_00000096061033995541973710000015980850988282788512_" class="st12" d="M-404.5-2003.6l-6.7,0.5"/>
		<path id="Shape_00000055666396632047939070000009615500493336821437_" class="st12" d="M-403.7-2011.9l-6-2.9"/>
	</g>
	<polygon class="st11" points="-317.5,-2030.4 -294.6,-2033.8 -292.3,-2014.4 -315.7,-2008.6 	"/>
</g>
<circle class="st6" cx="80.4" cy="135" r="3.1"/>
</svg>
