<?xml version="1.0" encoding="utf-8"?>
<!-- Generator: Adobe Illustrator 27.8.1, SVG Export Plug-In . SVG Version: 6.00 Build 0)  -->
<svg version="1.1" id="Layer_1" xmlns="http://www.w3.org/2000/svg" xmlns:xlink="http://www.w3.org/1999/xlink" x="0px" y="0px"
	 viewBox="0 0 157.5 157.5" style="enable-background:new 0 0 157.5 157.5;" xml:space="preserve">
<style type="text/css">
	.st0{fill:#FEFEFE;}
	.st1{fill:#002E6D;}
	.st2{fill:#FCFDFD;}
	.st3{fill:#C1CCDB;}
	.st4{fill:#083471;}
	.st5{fill:#063370;}
	.st6{fill:#1A437B;}
	.st7{fill:#017DBB;}
	.st8{fill:#FDFDFD;}
	.st9{fill:#F8F9FB;}
	.st10{fill:#F4F6F8;}
	.st11{fill:#FAFCFD;}
</style>
<g>
	<g>
		<path class="st0" d="M82.1,157.4c-27.3,0-54.7,0-82,0c0-51.4,0-102.9-0.1-154.3C0,0.5,0.5,0,3.1,0C53.5,0.1,104,0.1,154.4,0
			c2.6,0,3.1,0.5,3.1,3.1c-0.1,42.2-0.1,84.5-0.1,126.7c-7.6,2.1-14.9,1.4-22.1-1.8c-4.3-1.9-8.4-4.2-12.8-6.1
			c-8.2-3.5-16.6-4.3-25.1-1.6c-4.9,1.6-9.7,1.4-14.6,0.1c-4.2-1.1-8.5-1.9-12.8-2.5c-5.7-0.8-8.8,1.3-9.9,6.9c-0.9,4.4-1.8,5-6,3.5
			c-2.9-1.1-5.8-2.2-8.8-2.9c-5.2-1.2-9.4,0.8-11.8,5.5c-1.7,3.3-0.8,6.1,3,7.8c8.3,3.9,16.8,7.4,25.5,10.5c6.6,2.4,13.1,5.4,20,7.1
			C82.3,156.6,82.4,157,82.1,157.4z"/>
		<path class="st0" d="M157.4,134.3c0,5.7,0,11.4,0,17.1c-3.4,1.9-7,1-10.5,0.8c-12.9-0.8-25.7-1.6-38.6-0.1c-8.7,1-17.6,1.5-26.4,1
			c-2.4-0.1-4.7-0.7-6.9-1.6c-11.6-4.7-23.5-8.7-34.9-14c-2.2-1-5.4-1.4-4.6-5.2c0.7-2.9,4.2-5.2,7.5-5c2,0.1,3.9,0.8,5.8,1.4
			c10.3,3.6,20.9,6.4,31.5,9.1c3.1,1.2,6.5,0.3,9,1.1c-0.7-0.1-2.1-0.4-3.6-0.4c-7.3-0.5-13.6-3.6-19.7-7.3c-3.1-1.9-4-5.3-2.8-8.1
			c1.2-2.6,3.4-3.6,7.2-3c4.2,0.6,8.3,1.4,12.4,2.6c4.8,1.4,9.5,1.5,14.3,0c10.1-3.2,19.7-1.7,28.7,3.4c8.6,4.8,17.7,7.8,27.8,7
			C154.9,133.1,156.3,133.3,157.4,134.3z"/>
		<path class="st1" d="M80.4,138.8c-10.1-1.5-19.6-5.1-29.3-7.9c-2.4-0.7-4.7-1.6-7.1-2.3c-2-0.6-3.9-0.2-5.5,1.2
			c-3.2,2.9-3,4.5,0.8,6.3c11.8,5.4,24.1,9.6,36.2,14.5c5,2,10.3,1.9,15.4,1.4c22.2-2.1,44.3-2.3,66.5-0.7c0,1.5,0,3,0,4.5
			c-3.7,1.5-7.6,0.7-11.4,0.6c-12.6-0.4-25.2-1.1-37.8,0c-6.1,0.5-12.4,0.7-18.6,0.5c-2.5-0.1-5.1,0.3-7.7-0.2
			c-6.7-0.5-12.5-3.8-18.7-6c-9.3-3.3-18.5-7.1-27.5-11.2c-4.6-2.1-5.7-5.6-3.1-9.9c2.8-4.7,6.8-6.6,12.3-5.2
			c3.8,0.9,7.5,2.4,11.3,3.6c1.6,0.5,2.6,1,2.6-1.7c-0.1-7.1,3.6-10.2,10.6-9.5c4.9,0.5,9.8,1.6,14.6,2.9c3.9,1,7.8,1.2,11.7-0.1
			c10-3.3,19.8-2.5,29.2,2.4c0.3,0.2,0.7,0.3,1,0.5c9.6,6,20,8.4,31.3,7.3c0,1.5,0,3,0,4.5c-11.7,1-22.5-1.4-32.7-7.3
			c-9-5.3-18.6-6.2-28.6-2.6c-4.2,1.5-8.5,0.9-12.8-0.1c-4.4-1.1-9-1.8-13.4-2.8c-2.6-0.5-5.1-0.5-6,2.6c-0.9,3.1,0.4,5.4,3.1,6.8
			c6,3.2,12.1,6.3,18.9,7.3C84.2,140.1,82.2,138.9,80.4,138.8z"/>
		<path class="st2" d="M89.6,156.7c12.7-0.3,25.4-2.5,38.2-2.2c9.9,0.3,19.8,0.9,29.7,1.3c0.5,2.3-1.3,1.5-2.2,1.5
			c-13.8,0-27.6,0-41.4,0c-8.1,0-16.2,0-24.2,0c-0.2-0.2-0.3-0.3-0.2-0.4C89.4,156.8,89.5,156.7,89.6,156.7z"/>
		<path class="st3" d="M89.6,156.7c-0.1,0.2-0.1,0.4,0,0.7c-2.5,0-5,0-7.5,0c0-0.2,0-0.4,0-0.6C84.6,156.8,87.1,156.7,89.6,156.7z"
			/>
		<path class="st1" d="M95.5,80.5c1.8-6.7,1.5-13.1,0.7-19.7c-1-8.5-3.2-16.5-7.9-23.8c-2.2-3.4-3.7-7.3-5-11.2
			c-2.3-7.1-4.7-8.8-12.4-9.4c-22.4-1.7-44.7-4.4-66.6-9.9C0.6,5.7,0.6,5.7,1.1,1.2C12,3.7,22.8,6.4,33.9,7.9
			c12.3,1.6,24.6,3.3,37,4.1c10.1,0.6,13.7,3.3,16.9,13c1.6,4.9,4.2,9.2,6.5,13.8c6.9,13.8,8.6,28.3,5.5,43.4
			c-0.3,1.6-0.3,2.7,0.5,4.2c3.7,7.2,2.4,15.3-3.2,20.5c-5.3,5-13.7,6-20.1,2.3c-6.7-3.8-9.8-11.1-7.9-19.1c0.3-1.2,0.9-2.3-0.5-3.3
			c-8.2-6.5-14.4-15-22.1-22.1c-4.4-4.1-9.4-7.3-15-9.5c-4.6-1.8-8.8-4.3-11.9-8c-4.1-4.9-9.3-7.9-15.3-9.4
			c-3.3-0.8-4.2-2.4-3.2-5.7c7.8,2.1,15.4,4.5,20.9,11.1c3,3.6,6.8,6.1,11.2,7.8c9.9,3.8,17.4,10.8,24.4,18.5
			c4.5,5,8.9,10.1,14.3,14.1c1.5,1.1,3,3.3,5.1,1.8c2.1-1.6,1.3-4,0.5-6.2C75,71.4,70,65.5,64.2,60.1c-1.8-1.7-3.7-3.3-4.8-5.6
			c-2.3-5,0-8.7,5.4-8c3,0.4,4.9-0.8,7-2.4c3.6-2.8,5.4-2.3,7.5,1.6c1.8,3.4,3.8,6.7,5.8,10c3.1,5.3,4.5,11,3.7,17.1
			c-0.4,3.2-0.4,5.9,3.8,6.4C93.6,79.3,94.4,80,95.5,80.5z"/>
		<path class="st4" d="M111.3,92.6c2.9,0.4,5.5,0.7,8,1.1c1.5,0.2,2.1,1.3,1.8,2.7c-0.2,1.4-1.3,1.8-2.5,1.7c-2.6-0.2-5.1-0.6-7.7-1
			c-1.5-0.2-2.2-1-2-2.5C109.2,93.1,110.3,92.6,111.3,92.6z"/>
		<path class="st5" d="M107.8,102.2c1.6,0,8.7,5,9,6.2c0.5,1.8-0.4,3.3-2.2,2.8c-3.4-0.9-6.1-3.3-8.3-5.9
			C105.1,103.8,106.5,102.6,107.8,102.2z"/>
		<path class="st5" d="M119.4,82.5c-0.1,0.3-0.1,0.7-0.3,1c-0.6,1.4-9.1,4.9-10.3,4.2c-1.8-1.1-2.1-2.8-0.3-3.8
			c2.6-1.4,5.4-2.4,8.2-3.3C118,80.1,119,81,119.4,82.5z"/>
		<path class="st6" d="M80.4,138.8c1.7-0.5,3.7,0.5,5.4-0.7c1.9,0.2,3.8,0.5,5.6,0.7C87.7,139.4,84,139.9,80.4,138.8z"/>
		<path class="st7" d="M76.7,90.4c3.6-0.6,5.2-3.2,6-6.3c0.4-1.6,1.1-1.9,2.5-2c6.4-0.4,12.3,5,12.6,11.6
			c0.3,7.1-4.7,12.9-11.4,13.1c-2.3,0.1-4.7,0.4-6.6-1.6c-3.3-2.9-4.4-6.6-4.6-10.8C75.1,92.8,75.5,91.4,76.7,90.4z"/>
		<path class="st8" d="M63.1,50.9c7,0.1,7,0.1,12-3.5c3,5.5,6.8,10.4,8.9,16.4c1.3,3.7-1.6,4.3-3.7,5.7c-2.4,1.7-2.6-0.8-3.4-1.9
			c-3-4.1-6.2-8.1-10.1-11.3C65.2,55,63.8,53.4,63.1,50.9z"/>
		<path class="st9" d="M76.7,90.4c-1.8,5.5,0.7,10.1,3.1,14.7c-5-2.3-7.7-7.9-6.6-13C73.7,89.6,75.2,90.2,76.7,90.4z"/>
		<path class="st10" d="M84.3,73.1c-0.6,1.6,1.2,3.7-1.2,4.5c-1.3,0.4-1.6-0.8-1.9-1.7C80.6,73.2,83,73.7,84.3,73.1z"/>
		<path class="st11" d="M85,91.4c0.6,1.7,2.2,1.7,3.3,2.5c2.3,1.8,2.5,4.4,0.4,6.3c-0.8,0.7-1.8,1.1-2.1,2.4
			c-0.2,1.1-1.7,1.1-1.9,0.2c-0.4-1.5-1.4-1.8-2.6-2.3c-0.8-0.3-1.6-0.9-0.8-1.9c0.5-0.6,0.7-1.6,1.9-1c0.9,0.4,2.3,1.5,2.9,0
			c0.6-1.6-1.3-1.7-2.3-2.3c-3.3-2.1-3.7-4.7-0.6-7c1-0.8,0.6-3.2,2.5-2.5c1.4,0.5,2.1,2.1,3.4,3c1.3,1,0.1,2-1.1,2.3
			C87.1,91.4,86.1,90.3,85,91.4z"/>
	</g>
</g>
</svg>
