<?xml version="1.0" encoding="utf-8"?>
<!-- Generator: Adobe Illustrator 27.8.1, SVG Export Plug-In . SVG Version: 6.00 Build 0)  -->
<svg version="1.1" id="Layer_1" xmlns="http://www.w3.org/2000/svg" xmlns:xlink="http://www.w3.org/1999/xlink" x="0px" y="0px"
	 viewBox="0 0 157.5 157.5" style="enable-background:new 0 0 157.5 157.5;" xml:space="preserve">
<style type="text/css">
	.st0{fill:#FEFEFE;}
	.st1{fill:#002E6D;}
	.st2{fill:#03306E;}
	.st3{fill:#04316F;}
	.st4{fill:#007CBB;}
	.st5{fill:#F4F8FA;}
	.st6{fill:#F6F8FA;}
	.st7{fill:#F2F5F8;}
	.st8{fill:#E6EEF4;}
	.st9{fill:#E1EAF1;}
	.st10{fill:#012E6D;}
</style>
<g>
	<g>
		<path class="st0" d="M0.1,157.4C0.1,106,0.1,54.6,0,3.2C0,0.8,0.2,0,2.9,0c50.6,0.1,101.1,0.1,151.7,0c2.3,0,2.9,0.5,2.9,2.8
			c-0.1,50.6-0.1,101.1,0,151.7c0,2.7-0.8,3-3.2,3C102.9,157.4,51.5,157.4,0.1,157.4z"/>
		<path class="st1" d="M97.9,83.2c0.9,3.3-2,4.5-4.4,6.1c-5.1,3.3-5.3,6.2,0.1,9c3.7,2,5.2,4.5,4.5,8.6c-0.9,4.8-2.9,8.8-7.4,11
			c-2.1,1-4.3-0.5-6.5-0.9c-3.7-0.7-5.8,1.5-5.2,5.3c0.5,3,2.6,6-0.6,9c-3.6,3.5-7.7,5.3-12.7,5.1c-3-0.1-4-2.5-5.3-4.6
			c-3.2-5.1-6.1-5.3-9,0c-2,3.6-4.4,5.4-8.6,4.7c-4.7-0.9-8.8-2.9-11.1-7.3c-1-2,0.4-4.3,0.9-6.5c0.9-4.1-1.4-6.4-5.4-5.5
			c-3.2,0.7-6.4,2.4-9.3-0.9c-3.3-3.7-5.1-7.8-4.6-12.9c0.3-3.1,3-3.8,4.9-5.1c4.3-2.9,4.4-6-0.1-8.5c-3.4-1.9-6-4-5.1-8.4
			c0.9-4.8,2.7-9.1,7.3-11.5c2.1-1.1,4.3,0.4,6.5,0.9c4.3,0.8,6.5-1.4,5.6-5.6c-0.7-3.2-2.2-6.4,1.1-9.3c3.9-3.4,8.2-5,13.3-4.4
			c2.5,0.3,3.1,2.7,4.2,4.4c3.4,5.2,6.2,5.4,9,0c2.1-4,4.8-5.3,9-4.6c4.6,0.8,8.6,2.8,10.7,7.1c1.1,2.2-0.5,4.6-1,6.9
			c-0.7,3.5,1.6,6,5.2,5.3c2.9-0.5,5.8-2.6,8.8,0.1C95.7,73.7,97.9,78.3,97.9,83.2z"/>
		<path class="st1" d="M88.9,65.7c-2.1,0.7-3.7-0.7-5-2.5c-2.1-2.9-3.2-6.2-3.2-9.7c0-3.5,0.9-6.3,4.8-7.4c3.2-0.9,4.9-2.8,5.8-6.3
			c0.7-2.8-0.4-4.4-1.8-5.9c-2.9-3.2-2.9-6.3-0.7-9.8c2.6-4,6-7.1,11-7.3c2.2-0.1,3.6,2,5.4,3.1c3.3,2.2,8.4,1,10.1-2.6
			c1.4-3,2-6.4,6.5-6.6c5-0.2,9.3,0.8,13,4.3c1.7,1.7,1.1,3.7,0.8,5.6c-0.8,6.3,2.3,9.8,8.5,9.1c3.8-0.5,6.8,0.2,8.7,3.9
			c2.2,4.3,3,8.7,1,13.2c-0.9,2-3.5,2.1-5.4,3c-4,1.9-5.5,7.1-2.8,10.6c2.1,2.9,4.3,5.5,2.1,9.4c-2.4,4.3-5.7,7.5-10.7,8.5
			c-2.6,0.5-4.1-1.5-5.8-2.7c-4-2.8-9.2-1.5-11,3c-1.4,3.7-3.3,6.3-7.7,6.2c-4.8-0.1-9.1-1.5-12.1-5.4c-1.4-1.7-0.3-3.9-0.2-5.8
			c0.3-5.6-2.9-8.8-8.5-8.2C90.8,65.6,90,65.7,88.9,65.7z"/>
		<path class="st2" d="M49.1,39.9c2.4,0.1,4.7,0.4,6.9,1.3c1.3,0.5,2,1.5,1.6,2.9c-0.4,1.5-1.7,1.8-3,1.3c-5.4-1.9-10.5-1-15.4,1.7
			c-1.3,0.7-2.5,0.7-3.3-0.5c-0.9-1.4-0.3-2.6,1.1-3.4C40.7,41,44.8,40.1,49.1,39.9z"/>
		<path class="st2" d="M61.8,147.9c-4,0.1-7.6-1.1-11.1-2.8c-1.6-0.8-2.9-1.8-1.9-3.7c1-1.8,2.5-1.1,3.9-0.4c4.7,2.3,9.5,3.6,14.6,1
			c1.2-0.6,2.5-0.4,3.2,1c0.8,1.7-0.3,2.6-1.5,3.2C66.7,147.4,64.3,148,61.8,147.9z"/>
		<path class="st2" d="M6,77c2.2,0.7,2.8,2,1.9,3.8C5.5,85.4,5.1,89.7,8.6,94c0.9,1.1,0.9,2.4-0.3,3.3c-1,0.9-2,0.5-3-0.3
			c-4.5-3.6-5.1-14.8-1-18.9C4.8,77.6,5.5,77.3,6,77z"/>
		<path class="st2" d="M135.3,88.1c-0.7,0-1.5,0-2.2,0c-1.3-0.1-2.1-0.9-2.1-2.1c0-1.4,0.8-2.3,2.3-2.3c4.8,0.1,9.3-0.8,13-4.3
			c1-1,2.4-0.8,3.2,0.4c0.9,1.2,0.3,2.3-0.6,3.3C146.4,85.9,140.6,88,135.3,88.1z"/>
		<path class="st3" d="M79.1,27.6c0.5-4.9,2.4-9.2,6.4-12.4c1.2-1,2.6-1.8,3.9-0.3c1.4,1.5,0.4,2.7-0.9,3.7c-3.2,2.4-4.7,5.7-5,9.6
			c-0.1,1.7-0.2,3.5-2.5,3.2C78.9,31.1,79.1,29.3,79.1,27.6z"/>
		<path class="st3" d="M111.2,105.1c-0.1,4.2-1,7.5-3.1,10.4c-0.9,1.3-2.1,2.4-3.7,1.2c-1.4-1-1.1-2.3-0.2-3.6
			c2.5-3.6,3.1-7.4,1.7-11.6c-0.5-1.4-0.3-2.8,1.4-3.2c1.7-0.5,2.6,0.6,2.9,2C110.7,102.1,111,104,111.2,105.1z"/>
		<path class="st3" d="M154.4,25c-1.7-0.1-2.2-1.1-2.7-2.1c-1.4-3.5-3.8-6-7.4-7.4c-1.7-0.6-2.5-1.7-1.8-3.4
			c0.7-1.6,2.3-1.3,3.6-0.8c4.9,1.9,8.2,5.4,10,10.3C156.9,23.7,155.9,24.6,154.4,25z"/>
		<path class="st0" d="M93.4,82.3c0.5,2.1-1.4,2.8-2.7,3.3c-6.1,2.1-5.5,7.1-5.3,11.8c0.1,2.3,2.6,2.8,4.2,3.9
			c4.8,3.1,5.3,5.4,2.1,10.1c-1.2,1.7-2.5,2.5-4.7,1.7c-4.2-1.6-7.6-1.5-11.1,2.5c-2.6,3-1.8,5.3-1.2,8.1c1,4.6,0.4,5.8-3.9,7.6
			c-3,1.2-5.2,1-7-2.3c-2.7-4.9-6.7-6.4-11.9-5c-2.4,0.7-3.1,3.2-4,5.1c-1.7,3.6-4.2,3.7-7.3,2.3c-3-1.4-5.1-2.9-3.9-7
			c1.8-5.8,0.5-8.3-4.4-11.7c-2.1-1.5-4.1-0.1-6.1,0.3c-5.1,1-8.7-2.1-8.6-7.3c0-1.5,0.9-2.2,2.1-2.8c4.4-2.1,6.6-4.9,6.2-10.3
			c-0.3-3.9-2.6-4.7-4.8-6.1c-4.2-2.7-4.6-3.9-2.4-8.3c1.4-2.8,3.1-3.9,6.5-3c6,1.7,8.3,0.7,11.8-4.4c1.5-2.2,0.1-4.3-0.3-6.4
			c-0.9-4.5-0.4-5.5,3.7-7.4c3.1-1.4,5.4-1.2,7.3,2.3c2.8,5.1,5.8,6.2,11.5,5c2.5-0.5,2.9-2.9,4-4.6c3-4.5,7.8-4.6,11.4-0.4
			c1.3,1.6,0.3,2.9,0,4.2c-1.3,6.3-0.4,8.6,4.6,12.1c2,1.4,3.9,0.1,5.7-0.3C90,74.1,93.5,76.8,93.4,82.3z"/>
		<path class="st4" d="M99.3,62c-2.7-2.9-5.9-0.7-8.9-0.9c-3.1-3.2-4.1-6.8-2.4-11c2.2-1.6,5.5-1.7,6.8-4.6c2-2.2,2.4-5.1,3.2-7.8
			c0.6-2.3-1.2-3.9-2.4-5.6c-1.4-2.1-3-4.1-0.9-6.7c2.2-4.1,3.9-4.5,7.7-1.6c5.1,3.8,13.4,2.4,16.3-2.7c2-1.3,2.8-3.3,3.1-5.6
			c3.2-1,5.7,0.6,8.3,2c1.3,0.7,1.3,2,0.9,3.3c-0.6,2.4-1.4,5.4,0,7.2c1.8,2.5,4.4,4.6,6.7,6.8c0.9,1,2.6,0.2,3.9-0.1
			c5.8-1.1,6.9-0.4,8.4,4.8c0.9,3.1,0.3,5.2-3.1,6.3c-2,0.6-4.7,1.1-5.3,3c-1,3.1-1.9,6.3-2.7,9.5c-0.4,1.5,1.2,2.6,2,3.8
			c3.8,5.3,3.5,7.1-2,10.9c-0.5,0.3-1.1,0.6-1.6,0.8c-1.7-1.1-3.1-2.8-5.4-3c-2-1.9-4.1-2.5-6.7-1c-0.7,0.4-1.6,0.8-2.4,0.8
			c-4-0.2-5.5,2.4-6.8,5.6c-2.1,5.1-2.9,5.3-7.9,2.9c-1.6-1.1-2.1-2.7-1.7-4.5C107.8,68.2,104.5,64.6,99.3,62z"/>
		<path class="st5" d="M94.8,25.4c-1.2,3.7,1.6,5.9,3.3,8.5c1.9,3,0,10-3.3,11.6c0-0.4-0.1-0.7,0-1.1c0.7-5.9,0.2-8.5-2.5-14.5
			C91.2,27.6,92.2,26,94.8,25.4z"/>
		<path class="st6" d="M99.3,62c3.5-0.1,8.4,4.9,8.3,8.2c-0.1,2.9-1.3,6,0.6,8.8c-2.8,0.1-4.1-1.2-3.7-4c0.1-0.8,0-1.8,0.2-2.6
			c1.1-3.3,0-5.6-2.8-7.5C100.8,64.3,99.7,63.4,99.3,62z"/>
		<path class="st7" d="M88,50.1c-0.3,3.9,0.9,7.5,2.4,11c-4.3,0.5-4.2-3-4.9-5.5C84.7,53.2,84.8,50.9,88,50.1z"/>
		<path class="st8" d="M121.8,15.4c1.2,2.4-0.2,5-3.1,5.6C119.6,19.1,119.8,16.8,121.8,15.4z"/>
		<path class="st9" d="M131.9,70.9c2.9-0.9,4.2,0.9,5.4,3C135,73.8,133.6,72.1,131.9,70.9z"/>
		<path class="st10" d="M55.6,117.3c-13.1,0.1-23.5-10.1-23.6-23.2c-0.1-13.1,10.1-23.6,23.1-23.8c13.3-0.2,23.9,10.2,24,23.3
			C79.2,106.8,68.9,117.2,55.6,117.3z"/>
		<path class="st1" d="M135.1,48.2c0,10.1-7.2,16.9-17.7,16.9c-10.1-0.1-16.6-7.2-16.9-17.7c-0.3-9.1,7.1-17.4,17.6-17.3
			C128.5,30.2,136,38.4,135.1,48.2z"/>
		<path class="st0" d="M36.5,94c0-10.7,8.6-19.3,19.1-19.2c10.5,0.1,19,8.5,19,18.9c0.1,10.5-8.6,19.2-19.2,19.1
			C44.9,112.8,36.5,104.4,36.5,94z"/>
		<path class="st0" d="M117.7,60.6c-7.3,0-12.9-5.7-12.9-13.1c0-7.2,5.8-13,13-13c7.2,0,13,5.8,13,13
			C130.9,55.1,125.3,60.7,117.7,60.6z"/>
	</g>
</g>
</svg>
