<?xml version="1.0" encoding="utf-8"?>
<!-- Generator: Adobe Illustrator 27.8.1, SVG Export Plug-In . SVG Version: 6.00 Build 0)  -->
<svg version="1.1" id="Layer_1" xmlns="http://www.w3.org/2000/svg" xmlns:xlink="http://www.w3.org/1999/xlink" x="0px" y="0px"
	 viewBox="0 0 157.5 157.5" style="enable-background:new 0 0 157.5 157.5;" xml:space="preserve">
<style type="text/css">
	.st0{fill:#FFFFFF;}
	.st1{fill:none;stroke:#002E6D;stroke-width:3;stroke-linecap:round;stroke-linejoin:round;}
	.st2{fill:#007DBC;}
</style>
<g>
	<path id="Shape" class="st0" d="M4.6,48.2v92.3h93.2c2.2,0,4-1.8,4-4V20.9c0-2.2-1.8-4-4-4H49.7L4.6,48.2z"/>
	<polygon id="Shape_26_" class="st1" points="4.6,48.2 4.6,140.5 101.8,140.5 101.8,17 49.7,17 	"/>
	<polyline id="Shape_25_" class="st1" points="4.6,48.3 49.7,48.3 49.7,17 	"/>
	<rect id="Rectangle-path" x="17.8" y="117.5" class="st2" width="46.1" height="4.9"/>
	<rect id="Rectangle-path_15_" x="17.8" y="102.6" class="st2" width="72.5" height="4.9"/>
	<rect id="Rectangle-path_11_" x="17.8" y="87.8" class="st2" width="72.5" height="4.9"/>
	<rect id="Rectangle-path_10_" x="17.8" y="74.6" class="st2" width="72.5" height="4.9"/>
	<rect id="Rectangle-path_9_" x="17.8" y="59.8" class="st2" width="72.5" height="4.9"/>
	<path id="Shape_24_" class="st0" d="M138,60l-9.9,10.6l-21.5-20.1l9.9-10.6C127.3,43.8,133.4,49.6,138,60z M62.3,120.6l27.9-8.8
		l38-41.3l-21.5-20.1L68.9,91.8L62.3,120.6z"/>
	<path id="Shape_23_" class="st2" d="M125.4,43.6c-1.3-0.4-2.6-0.2-3.7,0.9l-8.4,8.8L75.8,94c-0.4,0.4-0.7,0.9-0.9,1.5l-4.8,22.1
		c-0.7,2.4-2.4,1.2,0,0.5l21.9-8.3c0.4-0.1,13.3-13.5,38.5-40h0.8l7.8-10.5C134.9,51,133.9,47.1,125.4,43.6z"/>
	<path id="Shape_22_" class="st1" d="M138,60.2l-9.9,10.6l-21.5-20.1l9.9-10.6C127.3,44,133.4,49.8,138,60.2z M62.3,120.7l27.9-8.8
		l38-41.3l-21.5-20.1L68.9,92L62.3,120.7z"/>
	<path id="Path" class="st1" d="M68.9,92.7l20.2,18.6"/>
	<path id="Shape_21_" class="st1" d="M150.4,64.8c0,0,6.9-8.7-2.5-16.5"/>
</g>
</svg>
