<svg width="12" height="17" viewBox="0 0 12 17" fill="none" xmlns="http://www.w3.org/2000/svg">
<mask id="path-1-inside-1_3673_37291" fill="white">
<path fill-rule="evenodd" clip-rule="evenodd" d="M10.6749 9.33897C11.3744 8.36994 11.7866 7.17976 11.7866 5.89332C11.7866 2.63853 9.14811 0 5.89332 0C2.63853 0 0 2.63853 0 5.89332C0 7.09232 0.358061 8.2077 0.973089 9.13835L5.89337 17L10.6749 9.33897Z"/>
</mask>
<path d="M10.6749 9.33897L9.0533 8.16837L9.01391 8.22293L8.97828 8.28002L10.6749 9.33897ZM0.973089 9.13835L2.66843 8.0773L2.6553 8.05632L2.64165 8.03567L0.973089 9.13835ZM5.89337 17L4.19803 18.061L5.89571 20.7736L7.59003 18.0589L5.89337 17ZM9.78664 5.89332C9.78664 6.74568 9.51505 7.52871 9.0533 8.16837L12.2966 10.5096C13.2338 9.21116 13.7866 7.61384 13.7866 5.89332H9.78664ZM5.89332 2C8.04354 2 9.78664 3.7431 9.78664 5.89332H13.7866C13.7866 1.53396 10.2527 -2 5.89332 -2V2ZM2 5.89332C2 3.7431 3.7431 2 5.89332 2V-2C1.53396 -2 -2 1.53396 -2 5.89332H2ZM2.64165 8.03567C2.23614 7.42206 2 6.6883 2 5.89332H-2C-2 7.49634 -1.52002 8.99334 -0.695471 10.241L2.64165 8.03567ZM7.58872 15.9389L2.66843 8.0773L-0.722253 10.1994L4.19803 18.061L7.58872 15.9389ZM8.97828 8.28002L4.19672 15.941L7.59003 18.0589L12.3716 10.3979L8.97828 8.28002Z" fill="white" mask="url(#path-1-inside-1_3673_37291)"/>
</svg>
