<svg width="20" height="20" viewBox="0 0 20 20" fill="none" xmlns="http://www.w3.org/2000/svg">
<path fill-rule="evenodd" clip-rule="evenodd" d="M9.99166 1.6665C5.39166 1.6665 1.66666 5.39984 1.66666 9.99984C1.66666 14.5998 5.39166 18.3332 9.99166 18.3332C14.6 18.3332 18.3333 14.5998 18.3333 9.99984C18.3333 5.39984 14.6 1.6665 9.99166 1.6665ZM15.7667 6.6665H13.3083C13.0417 5.62484 12.6583 4.62484 12.1583 3.69984C13.6917 4.22484 14.9667 5.2915 15.7667 6.6665ZM9.99999 3.3665C10.6917 4.3665 11.2333 5.47484 11.5917 6.6665H8.40832C8.76666 5.47484 9.30832 4.3665 9.99999 3.3665ZM3.54999 11.6665C3.41666 11.1332 3.33332 10.5748 3.33332 9.99984C3.33332 9.42484 3.41666 8.8665 3.54999 8.33317H6.36666C6.29999 8.88317 6.24999 9.43317 6.24999 9.99984C6.24999 10.5665 6.29999 11.1165 6.36666 11.6665H3.54999ZM4.23332 13.3332H6.69166C6.95832 14.3748 7.34166 15.3748 7.84166 16.2998C6.30832 15.7748 5.03332 14.7165 4.23332 13.3332ZM6.69166 6.6665H4.23332C5.03332 5.28317 6.30832 4.22484 7.84166 3.69984C7.34166 4.62484 6.95832 5.62484 6.69166 6.6665ZM9.99999 16.6332C9.30832 15.6332 8.76666 14.5248 8.40832 13.3332H11.5917C11.2333 14.5248 10.6917 15.6332 9.99999 16.6332ZM11.95 11.6665H8.04999C7.97499 11.1165 7.91666 10.5665 7.91666 9.99984C7.91666 9.43317 7.97499 8.87484 8.04999 8.33317H11.95C12.025 8.87484 12.0833 9.43317 12.0833 9.99984C12.0833 10.5665 12.025 11.1165 11.95 11.6665ZM12.1583 16.2998C12.6583 15.3748 13.0417 14.3748 13.3083 13.3332H15.7667C14.9667 14.7082 13.6917 15.7748 12.1583 16.2998ZM13.6333 11.6665C13.7 11.1165 13.75 10.5665 13.75 9.99984C13.75 9.43317 13.7 8.88317 13.6333 8.33317H16.45C16.5833 8.8665 16.6667 9.42484 16.6667 9.99984C16.6667 10.5748 16.5833 11.1332 16.45 11.6665H13.6333Z" fill="white"/>
</svg>
