<svg width="30" height="30" viewBox="0 0 30 30" fill="none" xmlns="http://www.w3.org/2000/svg">
<path fill-rule="evenodd" clip-rule="evenodd" d="M16.0875 18.8375L12.9125 15.7L12.95 15.6625C15.125 13.2375 16.675 10.45 17.5875 7.5H21.25V5H12.5V2.5H10V5H1.25V7.4875H15.2125C14.375 9.9 13.05 12.1875 11.25 14.1875C10.0875 12.9 9.125 11.4875 8.3625 10H5.8625C6.775 12.0375 8.025 13.9625 9.5875 15.7L3.225 21.975L5 23.75L11.25 17.5L15.1375 21.3875L16.0875 18.8375ZM23.125 12.5H20.625L15 27.5H17.5L18.9 23.75H24.8375L26.25 27.5H28.75L23.125 12.5ZM19.85 21.25L21.875 15.8375L23.9 21.25H19.85Z" fill="#002E6D"/>
</svg>
