<?xml version="1.0" encoding="utf-8"?>
<!-- Generator: Adobe Illustrator 25.4.1, SVG Export Plug-In . SVG Version: 6.00 Build 0)  -->
<svg version="1.1" id="Layer_1" xmlns="http://www.w3.org/2000/svg" xmlns:xlink="http://www.w3.org/1999/xlink" x="0px" y="0px"
	 viewBox="0 0 784.06 507.87" style="enable-background:new 0 0 784.06 507.87;" xml:space="preserve">
<style type="text/css">
	.st0{fill:#E6E6E6;}
	.st1{fill:none;stroke:#F0F0F0;stroke-width:2.54;stroke-miterlimit:10;}
	.st2{fill:#F0F0F0;}
	.st3{opacity:0.8;fill:#007DBC;enable-background:new    ;}
	.st4{fill:none;stroke:#0675AF;stroke-width:0.64;stroke-linejoin:bevel;}
	.st5{fill:none;stroke:#FFFFFF;stroke-width:3;stroke-miterlimit:10;}
	.st6{fill:#FFFFFF;}
	.st7{fill:#007DBC;}
</style>
<g id="Layer_1_00000088126894427532418880000011266274836498123432_">
	<rect x="-11.18" y="-11.39" class="st0" width="804.92" height="529.99"/>
</g>
<g id="Layer_2_00000078756483529947161740000010696774608926068406_">
	<polygon class="st1" points="306.28,136.97 304.18,143.4 297.43,143.4 302.89,147.37 300.81,153.79 306.28,149.82 311.74,153.79 
		309.65,147.37 315.13,143.4 308.36,143.4 	"/>
	<rect x="277.08" y="155.45" class="st2" width="58.45" height="21.6"/>
	<polygon class="st3" points="337.76,361.64 339.67,364.23 339.4,393.58 369.22,394 369.61,369.99 363.67,364.51 356.89,364.42 
		356.38,346.05 351.82,342.67 344.58,341.58 338.79,346.06 340.52,349.96 336.5,355.05 	"/>
	<polygon class="st4" points="337.76,361.65 339.66,364.23 339.4,393.58 369.22,394 369.62,369.99 363.67,364.51 356.89,364.43 
		356.38,346.05 351.82,342.67 344.58,341.58 338.79,346.06 340.52,349.97 336.5,355.05 	"/>
	<polygon class="st3" points="390.54,234.22 406.13,266.44 422.16,257.31 429.38,253.72 430.26,248.48 427.9,240.28 423.35,238.54 
		419.33,229.24 412.95,222.85 394.8,231.35 	"/>
	<polygon class="st4" points="390.54,234.22 406.13,266.45 422.16,257.31 429.38,253.72 430.26,248.48 427.9,240.28 423.35,238.54 
		419.33,229.24 412.95,222.85 394.8,231.35 	"/>
	<polygon class="st3" points="430.08,147.95 435.13,158.37 441.82,155.98 447.72,160.6 452.26,159.7 453.31,161.78 456.03,160.89 
		458.63,158.57 465.02,157.76 468.42,155.64 470.62,157.67 462.49,142.45 460.78,138.17 462.21,133.32 459.72,134.77 456.29,121.85 
		455.36,121.1 444.74,123.24 443.49,125.55 436.51,128.36 432.41,135.12 430.45,136.2 426.78,143.01 	"/>
	<polygon class="st4" points="430.08,147.95 435.13,158.38 441.82,155.98 447.72,160.6 452.26,159.7 453.31,161.78 456.03,160.89 
		458.63,158.57 465.02,157.76 468.42,155.64 470.62,157.67 462.49,142.46 460.78,138.17 462.21,133.32 459.72,134.78 456.29,121.85 
		455.36,121.1 444.74,123.24 443.49,125.55 436.51,128.36 432.41,135.12 430.45,136.2 426.78,143.01 	"/>
	<polygon class="st3" points="372.82,340.95 384.22,341.64 407.58,341.92 410.36,341.58 406.13,332.63 400.46,327.69 400.19,318.04 
		396.56,315.32 394.6,312.72 389.73,312.54 388.06,314.17 373.15,314.05 	"/>
	<polygon class="st4" points="372.82,340.95 384.22,341.64 407.58,341.92 410.36,341.58 406.13,332.63 400.46,327.69 400.19,318.05 
		396.56,315.33 394.6,312.73 389.73,312.54 388.06,314.17 373.15,314.05 	"/>
	<polygon class="st3" points="240.51,39.9 238.43,44.87 248.63,44.91 248.66,55.82 259.36,55.85 260.44,53.92 257.86,49.09 
		262.71,49.42 259.63,45.37 264.59,46.23 265.77,42.5 263.46,38.73 266.93,36.81 264.86,34.99 266.57,30.19 268.44,29.69 
		266.58,24.1 269.35,16.75 254.75,16.75 250.99,25.89 251,29.02 247.69,29.81 247.69,34.45 241.63,34.43 	"/>
	<polygon class="st4" points="240.51,39.9 238.43,44.88 248.62,44.91 248.66,55.82 259.36,55.85 260.44,53.92 257.86,49.09 
		262.71,49.42 259.63,45.37 264.59,46.23 265.77,42.5 263.46,38.73 266.93,36.81 264.86,35 266.57,30.19 268.44,29.69 266.58,24.11 
		269.35,16.75 254.75,16.75 250.99,25.89 251,29.02 247.69,29.81 247.69,34.45 241.63,34.43 	"/>
	<polygon class="st3" points="352.87,67.41 368.15,67.61 372.5,62.47 370.87,60.55 370.58,55.15 368.47,51.22 369.94,50.29 
		371.87,43.62 370.98,39.58 366.83,36.43 358.31,37.24 354.41,38.7 353.99,43.84 351.73,44.67 349.94,54.4 351.04,55.86 
		351.05,62.67 352.95,63.6 	"/>
	<polygon class="st4" points="352.87,67.41 368.15,67.61 372.5,62.47 370.87,60.55 370.58,55.15 368.47,51.22 369.94,50.29 
		371.87,43.63 370.98,39.58 366.83,36.44 358.31,37.24 354.41,38.71 353.99,43.84 351.74,44.67 349.94,54.4 351.04,55.87 
		351.05,62.67 352.95,63.6 	"/>
	<polygon class="st3" points="456.27,334.36 465.07,330.29 460.9,325.17 458.29,317.82 457.03,298.6 455.42,295.76 449.68,294.57 
		437.91,306.3 435.63,306.13 436.75,307.49 431.9,312.33 435.38,317.97 442.86,321.61 444.08,323.82 448.86,325.35 452,330.5 	"/>
	<polygon class="st4" points="456.27,334.37 465.08,330.3 460.9,325.18 458.29,317.82 457.03,298.6 455.42,295.76 449.68,294.57 
		437.91,306.3 435.63,306.13 436.75,307.49 431.9,312.33 435.38,317.97 442.86,321.61 444.08,323.82 448.86,325.35 452,330.5 	"/>
	<polygon class="st3" points="282.73,334.22 300.21,334.33 301.96,321.83 302.12,312.45 293.84,312.4 290.63,306.76 287.5,306.68 
		285.77,302.35 283.29,302.36 284.06,303.15 283.71,323.17 282.87,323.21 	"/>
	<polygon class="st4" points="282.73,334.22 300.21,334.33 301.96,321.84 302.12,312.45 293.84,312.4 290.63,306.76 287.5,306.68 
		285.76,302.35 283.29,302.36 284.06,303.15 283.71,323.17 282.87,323.21 	"/>
	<polygon class="st3" points="508.47,389.65 518.62,392.47 529.18,390.66 535.19,394.07 538.08,390.25 538.62,386.94 540.96,387.03 
		545.49,380.08 541.52,375.81 541.09,372.96 538.27,371.51 537.76,368.27 530.09,363.31 529.45,361.33 524.91,359.88 519.66,351.17 
		514.68,347.54 507.82,343.69 502.82,346.47 504.3,349.2 500.53,349.15 500.55,379.78 504.26,378.92 507.46,381.52 507.05,386.08 	
		"/>
	<polygon class="st4" points="508.47,389.66 518.62,392.47 529.18,390.66 535.19,394.07 538.08,390.25 538.62,386.95 540.95,387.03 
		545.49,380.09 541.52,375.81 541.09,372.96 538.27,371.51 537.76,368.28 530.09,363.31 529.45,361.33 524.91,359.88 519.66,351.17 
		514.68,347.54 507.82,343.69 502.82,346.47 504.3,349.2 500.53,349.15 500.55,379.78 504.26,378.92 507.46,381.52 507.05,386.09 	
		"/>
	<polygon class="st3" points="430.26,248.48 442.72,243.31 445.65,247.49 453.24,244.64 454.43,246.06 463.62,242.24 467.03,242.01 
		467.91,232.2 465.45,229.11 464.51,221.75 460.39,220.45 454.87,210.73 448.21,205.8 447.4,199.18 444.85,199.17 438.2,203.5 
		435.27,209.46 424.93,215.42 421.17,215.43 419.84,220.93 421.45,225.2 419.33,229.24 423.35,238.54 427.9,240.28 	"/>
	<polygon class="st4" points="430.26,248.48 442.72,243.31 445.65,247.49 453.24,244.64 454.43,246.06 463.62,242.24 467.03,242.01 
		467.91,232.2 465.45,229.12 464.51,221.75 460.39,220.45 454.87,210.73 448.21,205.8 447.4,199.18 444.85,199.17 438.2,203.5 
		435.27,209.47 424.93,215.42 421.17,215.43 419.83,220.93 421.45,225.21 419.33,229.24 423.35,238.54 427.9,240.28 	"/>
	<polygon class="st3" points="446.76,197.61 453.57,195.39 456.28,192.66 463.69,189.99 474.72,195.41 478.87,191.56 473.03,188.58 
		468.95,188.9 465.77,186.88 464.22,180.84 461.54,177.33 456.03,160.89 451.22,162.88 449.68,167.92 447.15,171.08 441.63,169.94 
		437.2,175.58 438.46,177.97 440.85,179.59 441.88,186.21 444.54,192.35 444.23,196.01 	"/>
	<polygon class="st4" points="446.76,197.61 453.57,195.39 456.28,192.66 463.69,189.99 474.72,195.41 478.87,191.56 473.03,188.58 
		468.95,188.9 465.77,186.88 464.22,180.84 461.54,177.33 456.03,160.89 451.22,162.88 449.68,167.92 447.15,171.08 441.63,169.94 
		437.2,175.58 438.46,177.97 440.85,179.59 441.88,186.22 444.54,192.35 444.23,196.01 	"/>
	<polygon class="st3" points="475.85,469.4 493.48,470.73 499.07,449.07 496.63,448.4 475.66,447.98 476.13,426 500.64,426.29 
		494.04,418.83 494,410.14 487.47,407.99 487.31,404.8 484.82,404.59 478.59,397.43 478.5,390.98 476,385.27 470.44,385.23 
		469.33,380.04 457.78,379.98 457.66,399.66 451.63,399.33 451.49,404.86 454.03,408.87 460.85,425.49 464.33,427.18 467.1,431.06 
		469.67,431.06 469.24,445.52 474.38,445.47 474.81,466.29 	"/>
	<polygon class="st4" points="475.85,469.4 493.48,470.73 499.07,449.07 496.63,448.4 475.66,447.98 476.13,426 500.64,426.29 
		494.04,418.84 494,410.14 487.47,407.99 487.31,404.8 484.82,404.59 478.59,397.43 478.5,390.98 476,385.27 470.44,385.23 
		469.33,380.05 457.78,379.98 457.66,399.66 451.63,399.33 451.49,404.86 454.03,408.87 460.85,425.49 464.33,427.18 467.1,431.06 
		469.67,431.07 469.24,445.52 474.38,445.47 474.81,466.29 	"/>
	<polygon class="st3" points="340.9,142.45 360.21,156.95 362.28,157.04 366.89,162.09 382.01,139.16 376.07,135.92 375.4,132.46 
		371.24,131.98 369.82,129.97 367.29,128.78 359.96,131.14 356.69,127.51 	"/>
	<polygon class="st4" points="340.9,142.46 360.21,156.96 362.28,157.04 366.89,162.09 382.01,139.16 376.07,135.92 375.4,132.46 
		371.24,131.98 369.82,129.97 367.29,128.78 359.96,131.15 356.69,127.52 	"/>
	<polygon class="st3" points="206.9,54.99 207.49,58.69 247.04,58.84 248.66,55.14 248.63,44.91 238.43,44.87 240.51,39.9 
		235.58,39.12 235.55,30.77 230.15,30.79 230.12,17.01 221.59,17.19 215.57,28.6 214.11,33.16 214.13,40.79 210.66,47.1 
		210.64,50.22 	"/>
	<polygon class="st4" points="206.9,54.99 207.49,58.69 247.04,58.84 248.66,55.14 248.62,44.91 238.43,44.88 240.51,39.9 
		235.58,39.12 235.55,30.77 230.15,30.79 230.12,17.02 221.59,17.2 215.57,28.6 214.11,33.17 214.13,40.79 210.66,47.1 
		210.64,50.22 	"/>
	<polygon class="st3" points="293.85,226.78 293.88,232.64 295.58,235.9 301.13,241.72 303.04,240.36 305.59,245.64 314.63,249.69 
		317.2,252.24 318.53,250.71 321.85,255.6 326.46,244.18 328.61,244.22 328.78,224.81 297.07,224.39 	"/>
	<polygon class="st4" points="293.85,226.78 293.88,232.64 295.58,235.9 301.13,241.72 303.04,240.36 305.59,245.64 314.63,249.69 
		317.2,252.24 318.53,250.72 321.85,255.6 326.45,244.19 328.61,244.22 328.78,224.81 297.07,224.39 	"/>
	<polygon class="st3" points="325.7,52.44 328.43,50.72 336.18,53.1 339.8,49.29 340.25,46.26 344.61,42.71 351.73,44.67 
		353.99,43.84 354.41,38.7 358.31,37.24 355.82,30.21 354.96,24.54 352.05,26.03 346.67,23.14 344.04,18.57 344.82,16.76 
		328.17,16.76 323.93,20.49 330.06,27.39 326.6,31.81 327.18,35.77 331.3,36.35 330.4,44.09 	"/>
	<polygon class="st4" points="325.7,52.45 328.43,50.72 336.18,53.1 339.8,49.3 340.25,46.26 344.61,42.71 351.74,44.67 
		353.99,43.84 354.41,38.71 358.31,37.24 355.82,30.21 354.96,24.54 352.05,26.03 346.67,23.15 344.04,18.57 344.82,16.76 
		328.17,16.76 323.93,20.49 330.06,27.39 326.6,31.81 327.18,35.77 331.3,36.35 330.4,44.09 	"/>
	<polygon class="st3" points="374.08,258.22 376.8,258.59 378.81,262.18 378.37,267.59 380.44,274.57 383.51,276.59 382.69,279.96 
		406.13,266.44 390.54,234.22 381.35,239.69 383.43,241.83 382.31,244.17 375.72,250.66 372.88,255.15 	"/>
	<polygon class="st4" points="374.08,258.23 376.8,258.59 378.81,262.18 378.37,267.59 380.44,274.57 383.51,276.6 382.69,279.96 
		406.13,266.45 390.54,234.22 381.35,239.7 383.43,241.83 382.31,244.17 375.72,250.66 372.88,255.15 	"/>
	<polygon class="st3" points="356.38,346.05 356.89,364.42 363.67,364.51 369.61,369.99 369.65,367.1 382.45,367.35 383.32,357 
		386.57,355.77 386.52,350.73 384.22,341.64 372.82,340.95 372.79,346.03 	"/>
	<polygon class="st4" points="356.38,346.05 356.89,364.43 363.67,364.51 369.62,369.99 369.65,367.1 382.45,367.35 383.32,357 
		386.57,355.77 386.52,350.73 384.22,341.64 372.82,340.95 372.79,346.04 	"/>
	<polygon class="st3" points="232.59,210.39 237.12,237.06 264.93,237.26 264.92,200.66 258.28,200.58 245.41,206.03 243.69,203.64 
		242.88,206.88 	"/>
	<polygon class="st4" points="232.59,210.39 237.12,237.06 264.93,237.26 264.92,200.67 258.28,200.58 245.41,206.03 243.69,203.64 
		242.87,206.88 	"/>
	<polygon class="st3" points="455.42,295.76 455.98,294.36 476.7,290.02 479.04,281.15 469.67,275.43 456.1,273.79 456.04,278.4 
		452.79,279.13 448.15,292.75 449.68,294.57 	"/>
	<polygon class="st4" points="455.42,295.76 455.98,294.36 476.7,290.02 479.04,281.15 469.67,275.43 456.1,273.79 456.04,278.41 
		452.79,279.13 448.15,292.75 449.68,294.57 	"/>
	<polygon class="st3" points="358.31,37.24 366.83,36.43 369.37,34.08 368.98,28.24 373.74,21.94 378.46,21.08 378.25,16.23 
		372.15,16.86 344.82,16.76 344.04,18.57 346.67,23.14 352.05,26.03 354.96,24.54 355.82,30.21 	"/>
	<polygon class="st4" points="358.31,37.24 366.83,36.44 369.37,34.08 368.98,28.24 373.74,21.95 378.46,21.08 378.25,16.24 
		372.15,16.86 344.82,16.76 344.04,18.57 346.67,23.15 352.05,26.03 354.96,24.54 355.82,30.21 	"/>
	<polygon class="st3" points="474.76,329.55 484.86,333.15 486.85,331.96 492.59,334.95 494.37,318.29 496.1,307.76 493.59,302.78 
		491.92,293.59 487.86,296.11 481.4,296.32 481.02,293.6 476.69,290.02 474.11,296.27 473.93,303.89 470.31,329.27 	"/>
	<polygon class="st4" points="474.76,329.55 484.86,333.15 486.85,331.96 492.59,334.95 494.37,318.29 496.1,307.76 493.59,302.78 
		491.92,293.59 487.86,296.11 481.4,296.32 481.02,293.6 476.69,290.02 474.11,296.28 473.93,303.89 470.31,329.27 	"/>
	<polygon class="st3" points="369.22,394 385.91,394.45 393.66,386.88 393.78,380.41 396.44,379.31 393.19,378.71 389.36,371.45 
		382.43,369.77 382.45,367.35 369.65,367.1 	"/>
	<polygon class="st4" points="369.22,394 385.91,394.45 393.66,386.88 393.78,380.41 396.44,379.31 393.19,378.71 389.36,371.45 
		382.43,369.77 382.45,367.35 369.65,367.1 	"/>
	<polygon class="st3" points="329.27,419.52 329.06,429.26 332.79,436.15 332.11,459.97 361.47,461.71 362.12,423.57 339.01,423.18 
		339.04,419.58 	"/>
	<polygon class="st4" points="329.27,419.52 329.06,429.26 332.79,436.15 332.11,459.97 361.47,461.71 362.12,423.57 339.01,423.18 
		339.04,419.58 	"/>
	<polygon class="st3" points="287.56,334.23 287.28,349.29 290.12,350.44 293.12,358.47 292.15,364.6 313.63,364.51 314.61,347.34 
		317.02,347.39 316.47,342.99 312.95,339.45 310.15,338.98 301.03,329.44 300.21,334.33 	"/>
	<polygon class="st4" points="287.56,334.23 287.28,349.3 290.12,350.44 293.12,358.47 292.15,364.6 313.63,364.51 314.61,347.34 
		317.02,347.4 316.47,342.99 312.95,339.45 310.15,338.98 301.03,329.44 300.21,334.33 	"/>
	<polygon class="st3" points="407.92,336.25 410.36,341.58 418.34,345.28 423.26,348.65 437.5,348.18 439.81,345.33 445.04,340.09 
		453.63,334.94 456.27,334.36 452,330.5 448.86,325.35 444.08,323.82 442.86,321.61 435.38,317.97 431.9,312.33 	"/>
	<polygon class="st4" points="407.92,336.26 410.36,341.58 418.34,345.28 423.26,348.65 437.5,348.18 439.81,345.33 445.04,340.09 
		453.63,334.94 456.27,334.37 452,330.5 448.86,325.35 444.08,323.82 442.86,321.61 435.38,317.97 431.9,312.33 	"/>
	<polygon class="st3" points="300.98,268.71 301.91,275.76 304.14,276.57 305.48,283.87 308.06,282.44 307.97,285.55 311.43,285.51 
		311.39,288.11 317.36,288.15 317.93,285.21 322.26,285.21 328.79,274.45 334.77,271.94 339.04,272.01 333.98,267.13 333.44,261.96 
		330.25,257.16 321.85,255.6 318.53,250.71 317.2,252.24 314.63,249.69 310.17,252.43 310.09,256.73 307.89,256.69 306.67,261.58 
		304.09,263.75 304.04,268.73 	"/>
	<polygon class="st4" points="300.98,268.71 301.91,275.76 304.14,276.58 305.48,283.87 308.06,282.44 307.97,285.55 311.43,285.51 
		311.39,288.11 317.37,288.15 317.93,285.21 322.26,285.21 328.79,274.46 334.77,271.94 339.04,272.01 333.98,267.13 333.44,261.96 
		330.25,257.16 321.85,255.6 318.53,250.72 317.2,252.24 314.63,249.69 310.17,252.43 310.09,256.73 307.89,256.69 306.67,261.58 
		304.09,263.75 304.04,268.73 	"/>
	<polygon class="st3" points="491.92,293.59 493.59,302.78 496.1,307.76 494.37,318.29 492.59,334.95 501.96,337.59 502.76,339.97 
		507.82,343.69 514.68,347.54 522.2,334.41 521.58,331.5 527.18,324.59 532.59,321.23 521.61,320.98 513.74,317.81 509.83,297.67 	
		"/>
	<polygon class="st4" points="491.92,293.59 493.59,302.78 496.1,307.76 494.37,318.29 492.59,334.95 501.96,337.59 502.76,339.97 
		507.82,343.69 514.68,347.54 522.2,334.42 521.58,331.5 527.17,324.6 532.59,321.23 521.61,320.98 513.74,317.81 509.83,297.68 	
		"/>
	<polygon class="st3" points="424.57,175.31 427.08,177.55 434.93,178.53 438.46,177.97 437.2,175.58 441.63,169.94 447.15,171.08 
		449.68,167.92 451.22,162.88 453.31,161.78 452.26,159.7 447.72,160.6 441.82,155.98 435.13,158.37 430.08,147.95 426.06,152.06 
		429.89,155.75 424.47,163.8 426.89,170.01 426.92,173.18 	"/>
	<polygon class="st4" points="424.57,175.31 427.08,177.55 434.93,178.53 438.46,177.97 437.2,175.58 441.63,169.94 447.15,171.08 
		449.68,167.92 451.22,162.88 453.31,161.78 452.26,159.7 447.72,160.6 441.82,155.98 435.13,158.38 430.08,147.95 426.06,152.06 
		429.89,155.75 424.47,163.8 426.89,170.01 426.92,173.18 	"/>
	<polygon class="st3" points="279.38,266.48 281.72,268.52 279.39,273.15 284.32,271.5 288.74,272.75 291.78,270.02 295.76,270.79 
		296.86,268.72 304.04,268.73 304.09,263.75 306.67,261.58 307.89,256.69 310.09,256.73 310.17,252.43 314.63,249.69 305.59,245.64 
		303.04,240.36 301.13,241.72 295.58,235.9 290.07,239.66 278.87,239.72 279.57,241.29 	"/>
	<polygon class="st4" points="279.38,266.48 281.72,268.52 279.38,273.16 284.32,271.5 288.74,272.75 291.78,270.02 295.76,270.79 
		296.86,268.72 304.04,268.73 304.09,263.75 306.67,261.58 307.89,256.69 310.09,256.73 310.17,252.43 314.63,249.69 305.59,245.64 
		303.04,240.36 301.13,241.72 295.58,235.9 290.07,239.67 278.87,239.73 279.57,241.29 	"/>
	<polygon class="st3" points="310.15,338.98 310.16,334.64 338.41,334.9 346.01,335.3 345.83,331.43 342.69,323 340.49,318.91 
		341.5,316.7 338.33,314 336.94,308.68 332.02,306.62 327.72,307.19 327.77,302.87 323.66,302.7 323.49,309.96 302.2,309.17 
		301.96,321.83 301.03,329.44 	"/>
	<polygon class="st4" points="310.15,338.98 310.16,334.64 338.41,334.9 346.01,335.3 345.83,331.44 342.69,323 340.49,318.91 
		341.49,316.7 338.33,314 336.94,308.68 332.02,306.62 327.72,307.19 327.77,302.87 323.66,302.7 323.49,309.96 302.2,309.17 
		301.96,321.84 301.03,329.44 	"/>
	<polygon class="st3" points="247.12,326.94 249.38,328.58 257.01,328.68 256.88,331.98 261.04,333.79 282.73,334.22 282.87,323.21 
		283.71,323.17 284.06,303.15 283.29,302.36 259.66,302.57 255.32,303.92 256.31,305.88 252.22,307.61 247.65,312.61 249.12,317.14 
		248.18,319.69 248.79,323.77 	"/>
	<polygon class="st4" points="247.12,326.94 249.38,328.59 257.01,328.68 256.88,331.98 261.04,333.8 282.73,334.22 282.87,323.21 
		283.71,323.17 284.06,303.15 283.29,302.36 259.66,302.58 255.31,303.92 256.31,305.88 252.22,307.61 247.65,312.61 249.12,317.14 
		248.18,319.69 248.79,323.77 	"/>
	<polygon class="st3" points="385.98,69.96 391.28,72.06 393.45,71.12 410.33,70.31 416.73,64.15 410.78,56.68 404.67,55.61 
		403.64,53.55 396.48,48.35 394.17,49.6 	"/>
	<polygon class="st4" points="385.98,69.96 391.28,72.06 393.45,71.13 410.33,70.31 416.73,64.15 410.78,56.68 404.67,55.61 
		403.64,53.55 396.48,48.35 394.17,49.6 	"/>
	<polygon class="st3" points="295.97,200.95 296.45,204.8 300.38,202.21 305.37,202.27 307.08,204.2 317.92,204.26 319.98,205.25 
		328.64,205.34 328.76,197.69 331.66,194.28 330.49,192.99 326.32,191.46 326.34,189.13 318,189.11 317.98,187.36 305.84,187.38 
		306.18,190.75 303.19,193.46 301.97,197.3 296.39,197.21 	"/>
	<polygon class="st4" points="295.97,200.96 296.45,204.8 300.38,202.21 305.37,202.28 307.08,204.2 317.92,204.27 319.98,205.26 
		328.64,205.34 328.76,197.69 331.66,194.28 330.49,192.99 326.32,191.47 326.34,189.13 317.99,189.11 317.98,187.36 305.84,187.38 
		306.18,190.75 303.19,193.46 301.97,197.3 296.39,197.21 	"/>
	<polygon class="st3" points="252.8,427.3 254.43,433.81 257.98,438.59 259.43,443.09 258.47,445.63 260.69,452.4 264.8,456.38 
		265,451.31 269.08,449.36 272.96,443.76 274.08,438.94 274.34,423.22 276.24,420.4 250.54,419.76 	"/>
	<polygon class="st4" points="252.8,427.3 254.43,433.81 257.97,438.59 259.43,443.09 258.47,445.63 260.69,452.4 264.79,456.38 
		265,451.31 269.08,449.36 272.96,443.76 274.08,438.94 274.34,423.22 276.24,420.4 250.54,419.76 	"/>
	<polygon class="st3" points="525.74,259.79 529.25,260.67 538.97,270.35 548.39,273.79 551.04,276.16 551.85,274.15 564.75,265.3 
		562.2,261.81 564.42,259.55 561.48,254.47 563.38,249.96 561.8,246.51 561.53,240.12 556.96,235.97 554.95,230.05 555.88,223.05 
		551.57,219.04 532.08,233.06 523.41,256.53 	"/>
	<polygon class="st4" points="525.74,259.8 529.25,260.67 538.97,270.35 548.39,273.79 551.04,276.17 551.85,274.15 564.75,265.3 
		562.2,261.81 564.42,259.55 561.48,254.47 563.38,249.96 561.8,246.51 561.53,240.12 556.96,235.97 554.95,230.05 555.88,223.05 
		551.57,219.04 532.08,233.06 523.41,256.53 	"/>
	<polygon class="st3" points="302.2,309.17 323.49,309.96 323.66,302.7 320.34,302.54 320.42,296.02 317.25,295.91 317.36,288.15 
		311.39,288.11 311.43,285.51 307.97,285.55 308.06,282.44 305.48,283.87 305.68,295.79 303.66,295.77 303.91,302.47 302.27,302.44 
			"/>
	<polygon class="st4" points="302.2,309.17 323.49,309.96 323.66,302.7 320.34,302.55 320.42,296.02 317.25,295.91 317.37,288.15 
		311.39,288.11 311.43,285.51 307.97,285.55 308.06,282.44 305.48,283.87 305.68,295.79 303.66,295.77 303.91,302.47 302.27,302.44 
			"/>
	<polygon class="st3" points="335.52,169.44 345.31,156.39 346.7,146.81 340.9,142.45 334.46,148.63 329.35,160.24 323.45,156.97 
		327.33,164.44 335.15,168.1 	"/>
	<polygon class="st4" points="335.52,169.44 345.31,156.39 346.7,146.81 340.9,142.46 334.46,148.63 329.35,160.24 323.45,156.97 
		327.33,164.44 335.15,168.11 	"/>
	<polygon class="st3" points="488.91,196.17 497.11,193.1 500.39,195.24 503.57,199.96 506.83,198.73 513.85,200.33 520.61,196.81 
		524.78,198.23 526.22,195.74 516.67,186 516.81,182.09 519.77,180.96 517.71,175.41 513.23,173.52 510.94,168.79 509.58,167.47 
		481.49,191.55 	"/>
	<polygon class="st4" points="488.91,196.18 497.11,193.1 500.39,195.24 503.57,199.96 506.83,198.73 513.85,200.34 520.61,196.81 
		524.78,198.23 526.22,195.74 516.67,186 516.81,182.09 519.77,180.96 517.7,175.41 513.23,173.52 510.94,168.79 509.58,167.47 
		481.49,191.55 	"/>
	<polygon class="st3" points="268.74,364.74 282.67,364.71 283.29,362.31 287.77,364.57 292.15,364.6 293.12,358.47 290.12,350.44 
		287.28,349.29 287.56,334.23 261.04,333.79 260.75,348.81 256.58,348.69 256.52,355.24 257.98,364.85 	"/>
	<polygon class="st4" points="268.74,364.74 282.67,364.71 283.29,362.31 287.77,364.58 292.15,364.6 293.12,358.47 290.12,350.44 
		287.28,349.3 287.56,334.23 261.04,333.8 260.75,348.81 256.58,348.69 256.52,355.24 257.98,364.85 	"/>
	<polygon class="st3" points="369.37,34.08 375.01,34.39 378.11,41.76 384.36,44.49 388.45,42.04 395.26,45.31 397.48,41.69 
		397.72,37.88 400.78,33.91 402.49,34.32 404.68,28.39 408.33,27.62 411.95,22.91 414.69,21.91 416.31,15.37 378.25,16.23 
		378.46,21.08 373.74,21.94 368.98,28.24 	"/>
	<polygon class="st4" points="369.37,34.08 375.01,34.4 378.11,41.77 384.36,44.5 388.45,42.04 395.25,45.32 397.48,41.69 
		397.72,37.88 400.78,33.91 402.49,34.32 404.68,28.39 408.33,27.62 411.95,22.92 414.69,21.91 416.31,15.37 378.25,16.24 
		378.46,21.08 373.74,21.95 368.98,28.24 	"/>
	<polygon class="st3" points="240.83,348.43 260.75,348.81 261.04,333.79 256.88,331.98 257.01,328.68 249.38,328.58 247.12,326.94 
		246.2,332.2 243.25,335.07 240.86,340.61 	"/>
	<polygon class="st4" points="240.83,348.43 260.75,348.81 261.04,333.8 256.88,331.98 257.01,328.68 249.38,328.59 247.12,326.94 
		246.2,332.2 243.25,335.08 240.86,340.61 	"/>
	<polygon class="st3" points="388.64,204.64 397.09,206.47 402.02,204.45 403.79,197.01 413.08,191.71 411.5,187.12 408.69,182.9 
		404.8,182.67 404.92,180.38 401.51,173.84 379.6,178.9 378.55,206.03 	"/>
	<polygon class="st4" points="388.64,204.64 397.09,206.47 402.02,204.45 403.79,197.01 413.08,191.71 411.5,187.13 408.69,182.9 
		404.8,182.67 404.92,180.38 401.51,173.84 379.6,178.9 378.55,206.03 	"/>
	<polygon class="st3" points="372.53,296.68 373.33,296.7 373.15,314.05 388.06,314.17 389.73,312.54 394.6,312.72 396.56,315.32 
		399.37,312.54 397.64,310.79 400.55,307.89 393.4,300.64 395.76,298.33 382.69,285.13 380.47,285.07 	"/>
	<polygon class="st4" points="372.53,296.69 373.33,296.7 373.15,314.05 388.06,314.17 389.73,312.54 394.6,312.73 396.56,315.33 
		399.37,312.54 397.64,310.79 400.55,307.89 393.4,300.65 395.76,298.33 382.69,285.13 380.47,285.08 	"/>
	<polygon class="st3" points="218.58,123.94 219.63,130.44 234.64,130.7 234.64,129.96 248.67,130.15 248.71,125.14 254.85,125.27 
		259.68,111.61 248.95,111.57 248.96,110.16 230.77,109.71 230.73,111.97 216.59,111.79 	"/>
	<polygon class="st4" points="218.58,123.94 219.63,130.44 234.64,130.7 234.64,129.96 248.67,130.15 248.71,125.14 254.85,125.27 
		259.68,111.61 248.95,111.57 248.96,110.16 230.77,109.72 230.73,111.97 216.59,111.79 	"/>
	<polygon class="st3" points="316.03,224.67 316.1,220.51 317.87,219.69 317.92,204.26 307.08,204.2 305.37,202.27 300.38,202.21 
		296.45,204.8 294.65,209.15 294.17,218.13 292.98,222.75 293.85,226.78 297.07,224.39 	"/>
	<polygon class="st4" points="316.03,224.67 316.1,220.51 317.87,219.7 317.92,204.27 307.08,204.2 305.37,202.28 300.38,202.21 
		296.45,204.8 294.65,209.16 294.17,218.13 292.98,222.76 293.85,226.78 297.07,224.39 	"/>
	<polygon class="st3" points="487.31,404.8 492.48,405.13 495.37,406.98 499.47,404.2 499.46,401.93 503.39,399.46 511.25,399.33 
		512.7,396.3 510.27,394.34 507.05,386.08 507.46,381.52 504.26,378.92 500.55,379.78 497.87,379.31 492.45,373.77 482.26,383.95 
		476,385.27 478.5,390.98 478.59,397.43 484.82,404.59 	"/>
	<polygon class="st4" points="487.31,404.8 492.48,405.13 495.37,406.98 499.47,404.21 499.46,401.94 503.39,399.46 511.25,399.33 
		512.7,396.3 510.27,394.34 507.05,386.09 507.46,381.52 504.26,378.92 500.55,379.78 497.87,379.32 492.45,373.77 482.26,383.95 
		476,385.27 478.5,390.98 478.59,397.43 484.82,404.59 	"/>
	<polygon class="st3" points="282.85,62.86 282.95,77.13 289.03,77.17 289.05,80.39 317.11,80.44 317.17,71.41 311.74,71.34 
		309.51,61.41 307.28,62.9 	"/>
	<polygon class="st4" points="282.85,62.86 282.95,77.13 289.03,77.17 289.05,80.39 317.11,80.44 317.17,71.41 311.74,71.34 
		309.51,61.41 307.28,62.9 	"/>
	<polygon class="st3" points="337.78,274.41 345.17,274.48 352.58,278.29 354.24,281.29 356.81,280.49 356.81,275.42 361.01,274.54 
		361.02,271.57 363.53,271.81 363.62,261.24 365.16,255.53 359.48,255.33 339.04,272.01 	"/>
	<polygon class="st4" points="337.78,274.42 345.17,274.48 352.58,278.3 354.24,281.29 356.81,280.49 356.81,275.42 361.01,274.54 
		361.02,271.57 363.53,271.81 363.62,261.24 365.16,255.53 359.48,255.33 339.04,272.01 	"/>
	<polygon class="st3" points="249.74,139.77 263.44,143.63 276.83,142.19 276.91,125.67 275.49,125.66 275.65,111.93 259.68,111.61 
		254.85,125.27 248.71,125.14 248.67,130.15 249.84,130.17 	"/>
	<polygon class="st4" points="249.74,139.77 263.44,143.63 276.83,142.19 276.91,125.67 275.49,125.66 275.65,111.94 259.68,111.61 
		254.85,125.27 248.71,125.14 248.67,130.15 249.84,130.17 	"/>
	<polygon class="st3" points="426.06,152.06 430.08,147.95 426.78,143.01 430.45,136.2 432.41,135.12 436.51,128.36 443.49,125.55 
		444.74,123.24 437.38,121.87 430.66,118.64 427.73,115.71 421.42,118.53 414.98,115.25 406.63,120.15 403.37,120.3 401.9,126.22 
		404.88,130.16 401.85,136.02 399.21,139.82 401.48,144.98 415.43,151.52 421.44,149.77 	"/>
	<polygon class="st4" points="426.06,152.06 430.08,147.95 426.78,143.01 430.45,136.2 432.41,135.12 436.51,128.36 443.49,125.55 
		444.74,123.24 437.38,121.87 430.66,118.65 427.73,115.71 421.42,118.53 414.98,115.25 406.63,120.16 403.37,120.3 401.9,126.22 
		404.88,130.16 401.85,136.02 399.21,139.83 401.48,144.98 415.43,151.52 421.44,149.78 	"/>
	<polygon class="st3" points="382.01,139.16 384.52,141.16 387.26,149.08 390.61,151.56 400.51,147.83 401.48,144.98 399.21,139.82 
		401.85,136.02 397.48,135.23 389.81,128.69 381.78,127.36 379.28,123.76 369.82,129.97 371.24,131.98 375.4,132.46 376.07,135.92 	
		"/>
	<polygon class="st4" points="382.01,139.16 384.52,141.17 387.26,149.08 390.61,151.56 400.51,147.83 401.48,144.98 399.21,139.83 
		401.85,136.02 397.48,135.23 389.81,128.69 381.78,127.36 379.28,123.76 369.82,129.97 371.24,131.98 375.4,132.46 376.07,135.92 	
		"/>
	<polygon class="st3" points="345.92,177.9 351.17,185.75 353.94,183.14 352.71,180.95 362.08,174.1 367.44,173.45 366.78,169.41 
		366.89,162.09 362.28,157.04 360.21,156.95 346.7,146.81 345.31,156.39 335.52,169.44 337,172.97 343.65,173.59 	"/>
	<polygon class="st4" points="345.92,177.9 351.17,185.75 353.94,183.14 352.71,180.95 362.08,174.1 367.44,173.45 366.78,169.41 
		366.89,162.09 362.28,157.04 360.21,156.96 346.7,146.81 345.31,156.39 335.52,169.44 337,172.97 343.65,173.59 	"/>
	<polygon class="st3" points="252.91,273.99 253.57,280.11 256.17,283 255.43,287.58 256.77,287.97 265.49,283.82 273.04,282.95 
		276.67,274.58 279.39,273.15 281.72,268.52 279.38,266.48 260.96,266.53 260.98,264.05 246.03,264 247.21,266.95 	"/>
	<polygon class="st4" points="252.91,273.99 253.57,280.12 256.17,283 255.43,287.58 256.77,287.97 265.49,283.82 273.04,282.95 
		276.67,274.58 279.38,273.16 281.72,268.52 279.38,266.48 260.96,266.53 260.98,264.05 246.03,264 247.21,266.95 	"/>
	<polygon class="st3" points="282.84,59.26 282.62,43.97 283.96,38.87 289.07,33.86 285.94,30.67 285.69,16.68 269.35,16.75 
		266.58,24.1 268.44,29.69 266.57,30.19 264.86,34.99 266.93,36.81 263.46,38.73 265.77,42.5 264.59,46.23 259.63,45.37 
		262.71,49.42 257.86,49.09 260.44,53.92 264.77,56.6 274.89,56.44 	"/>
	<polygon class="st4" points="282.84,59.26 282.62,43.97 283.96,38.88 289.07,33.86 285.94,30.67 285.69,16.68 269.35,16.75 
		266.58,24.11 268.44,29.69 266.57,30.19 264.86,35 266.93,36.81 263.46,38.73 265.77,42.5 264.59,46.23 259.63,45.37 262.71,49.42 
		257.86,49.09 260.44,53.92 264.77,56.6 274.89,56.44 	"/>
	<polygon class="st3" points="379.6,178.9 401.51,173.84 402.44,168.68 395.74,161.71 394.38,157.62 390.61,151.56 387.26,149.08 
		384.52,141.16 382.01,139.16 366.89,162.09 366.78,169.41 	"/>
	<polygon class="st4" points="379.6,178.9 401.51,173.84 402.44,168.68 395.74,161.71 394.38,157.62 390.61,151.56 387.26,149.08 
		384.52,141.17 382.01,139.16 366.89,162.09 366.78,169.41 	"/>
	<polygon class="st3" points="465.07,330.29 469.59,331.33 470.31,329.27 473.93,303.89 474.11,296.27 476.69,290.02 455.98,294.36 
		455.42,295.76 457.03,298.6 458.29,317.82 460.9,325.17 	"/>
	<polygon class="st4" points="465.08,330.3 469.59,331.33 470.31,329.27 473.93,303.89 474.11,296.28 476.69,290.02 455.98,294.36 
		455.42,295.76 457.03,298.6 458.29,317.82 460.9,325.18 	"/>
	<polygon class="st3" points="328.61,239.21 348.65,239.34 364.32,228.6 363.42,221.33 355.23,210.16 354.69,205.17 350.04,202.88 
		335.76,202.86 335.54,229.1 334.67,230.79 328.7,230.72 	"/>
	<polygon class="st4" points="328.61,239.21 348.65,239.34 364.32,228.6 363.42,221.33 355.23,210.17 354.69,205.17 350.04,202.88 
		335.76,202.86 335.54,229.1 334.67,230.79 328.7,230.72 	"/>
	<polygon class="st3" points="306.83,419.42 339.04,419.58 339.54,382.57 327.17,382.94 322.44,387.9 322.25,391.29 312.3,394.91 
		309.96,396.57 307.8,403.08 297.69,411.58 295.58,414.89 295.48,419.47 	"/>
	<polygon class="st4" points="306.83,419.42 339.04,419.58 339.54,382.58 327.17,382.94 322.44,387.9 322.25,391.3 312.3,394.91 
		309.96,396.57 307.8,403.09 297.69,411.59 295.58,414.89 295.48,419.47 	"/>
	<polygon class="st3" points="259.71,420.05 283.59,420.52 283.63,419.37 292.49,419.41 292.98,401.56 283.94,401.25 279.41,401.98 
		260.14,401.55 	"/>
	<polygon class="st4" points="259.71,420.05 283.59,420.52 283.62,419.37 292.49,419.41 292.98,401.56 283.94,401.25 279.41,401.99 
		260.14,401.55 	"/>
	<polygon class="st3" points="264.94,236.86 273.05,237.35 278.87,239.72 290.07,239.66 295.58,235.9 293.88,232.64 293.85,226.78 
		292.98,222.75 294.17,218.13 294.65,209.15 296.45,204.8 295.97,200.95 265.75,200.69 264.89,204.04 	"/>
	<polygon class="st4" points="264.94,236.86 273.05,237.35 278.87,239.73 290.07,239.67 295.58,235.9 293.88,232.64 293.85,226.78 
		292.98,222.76 294.17,218.13 294.65,209.16 296.45,204.8 295.97,200.96 265.75,200.7 264.89,204.04 	"/>
	<polygon class="st3" points="541.09,372.96 541.52,375.81 545.49,380.08 544.45,381.63 548.38,386.94 560.72,395.76 570.8,396.18 
		572.81,397.94 570.29,393.81 583.26,375.2 577.84,373.92 578.71,363.41 571.2,360.72 561.4,362.49 558.12,357.18 555.89,356.64 
		549.49,369.13 	"/>
	<polygon class="st4" points="541.09,372.96 541.52,375.81 545.49,380.09 544.45,381.63 548.38,386.94 560.72,395.76 570.8,396.18 
		572.81,397.94 570.29,393.81 583.26,375.2 577.84,373.92 578.71,363.41 571.2,360.72 561.4,362.49 558.12,357.18 555.89,356.64 
		549.49,369.13 	"/>
	<polygon class="st3" points="456.03,160.89 461.54,177.33 464.22,180.84 465.77,186.88 468.95,188.9 473.03,188.58 478.87,191.56 
		481.49,191.55 486.62,187.15 482.63,181.94 483.09,180.71 478.8,175.49 477.36,171.16 478.77,169.02 474.19,166.94 476.38,162 
		473.88,157.79 475.3,156.52 470.62,157.67 468.42,155.64 465.02,157.76 458.63,158.57 	"/>
	<polygon class="st4" points="456.03,160.89 461.54,177.33 464.22,180.84 465.77,186.88 468.95,188.9 473.03,188.58 478.87,191.56 
		481.49,191.55 486.62,187.16 482.63,181.94 483.09,180.71 478.8,175.49 477.36,171.16 478.77,169.02 474.19,166.94 476.38,162 
		473.88,157.79 475.3,156.52 470.62,157.67 468.42,155.64 465.02,157.76 458.63,158.57 	"/>
	<polygon class="st3" points="283.29,302.36 285.77,302.35 287.5,306.68 290.63,306.76 293.84,312.4 302.12,312.45 302.27,302.44 
		303.91,302.47 303.66,295.77 305.68,295.79 305.48,283.87 304.14,276.57 301.91,275.76 300.98,268.71 296.86,268.72 295.76,270.79 
		291.78,270.02 288.74,272.75 284.32,271.5 282.6,275.59 282.46,302.37 	"/>
	<polygon class="st4" points="283.29,302.36 285.76,302.35 287.5,306.68 290.63,306.76 293.84,312.4 302.12,312.45 302.27,302.44 
		303.91,302.47 303.66,295.77 305.68,295.79 305.48,283.87 304.14,276.58 301.91,275.76 300.98,268.71 296.86,268.72 295.76,270.79 
		291.78,270.02 288.74,272.75 284.32,271.5 282.6,275.59 282.46,302.37 	"/>
	<polygon class="st3" points="390.94,99.61 394.27,103.1 394.85,108.1 392.28,114.98 403.37,120.3 406.63,120.15 414.98,115.25 
		421.42,118.53 427.73,115.71 422.56,109.88 419.83,104.06 416.83,102.17 418.95,96.89 415.89,91.68 410.77,95.33 400.94,93.79 
		399.99,92.61 395.05,96.87 	"/>
	<polygon class="st4" points="390.94,99.62 394.27,103.1 394.85,108.1 392.28,114.98 403.37,120.3 406.63,120.16 414.98,115.25 
		421.42,118.53 427.73,115.71 422.56,109.88 419.83,104.06 416.83,102.17 418.95,96.89 415.89,91.68 410.77,95.34 400.95,93.79 
		399.99,92.61 395.05,96.87 	"/>
	<polygon class="st3" points="323.66,302.7 327.77,302.87 327.72,307.19 332.02,306.62 336.94,308.68 342.37,300.82 348.19,297.47 
		352.43,296.45 353.44,281.28 352.58,278.29 345.17,274.48 337.78,274.41 339.04,272.01 334.77,271.94 328.79,274.45 322.26,285.21 
		317.93,285.21 317.36,288.15 317.25,295.91 320.42,296.02 320.34,302.54 	"/>
	<polygon class="st4" points="323.66,302.7 327.77,302.87 327.72,307.19 332.02,306.62 336.94,308.68 342.37,300.82 348.19,297.47 
		352.43,296.45 353.44,281.28 352.58,278.3 345.17,274.48 337.78,274.42 339.04,272.01 334.77,271.94 328.79,274.46 322.26,285.21 
		317.93,285.21 317.37,288.15 317.25,295.91 320.42,296.02 320.34,302.55 	"/>
	<polygon class="st3" points="323.05,57.19 322.86,63.88 331.29,72.16 341.11,76.5 347.13,71.21 349.05,71.25 352.87,67.41 
		352.95,63.6 351.05,62.67 351.04,55.86 349.94,54.4 351.73,44.67 344.61,42.71 340.25,46.26 339.8,49.29 336.18,53.1 328.43,50.72 
		325.7,52.44 	"/>
	<polygon class="st4" points="323.05,57.19 322.86,63.88 331.29,72.16 341.11,76.5 347.13,71.21 349.05,71.25 352.87,67.41 
		352.95,63.6 351.05,62.67 351.04,55.87 349.94,54.4 351.74,44.67 344.61,42.71 340.25,46.26 339.8,49.3 336.18,53.1 328.43,50.72 
		325.7,52.45 	"/>
	<polygon class="st3" points="384.62,424.14 388.63,432.51 387.56,436 389.63,438.5 393.92,439.15 395.77,442.12 391.5,444.93 
		386.89,445.68 386.24,450.93 384.02,451.82 387.76,458.7 391.47,459.82 394.85,463.83 413.89,465.17 413.87,449.91 416.67,447.12 
		418.07,442.6 424,442.52 423.91,437.3 421.98,432.68 410.18,432.39 410.09,424.8 	"/>
	<polygon class="st4" points="384.62,424.15 388.63,432.51 387.56,436 389.63,438.5 393.92,439.15 395.77,442.13 391.5,444.93 
		386.89,445.69 386.24,450.93 384.02,451.82 387.76,458.7 391.46,459.82 394.85,463.83 413.89,465.17 413.87,449.92 416.67,447.12 
		418.07,442.6 424,442.52 423.91,437.3 421.98,432.68 410.18,432.39 410.09,424.8 	"/>
	<polygon class="st3" points="514.68,347.54 519.66,351.17 524.91,359.88 529.45,361.33 530.09,363.31 537.76,368.27 538.27,371.51 
		541.09,372.96 549.49,369.13 555.89,356.64 542.94,349.95 542.81,347.88 538.94,345.5 532.27,338.88 534,332.53 533.57,328.84 
		529.81,328.37 527.18,324.59 521.58,331.5 522.2,334.41 	"/>
	<polygon class="st4" points="514.68,347.54 519.66,351.17 524.91,359.88 529.45,361.33 530.09,363.31 537.76,368.28 538.27,371.51 
		541.09,372.96 549.49,369.13 555.89,356.64 542.94,349.95 542.81,347.88 538.94,345.5 532.27,338.88 534,332.53 533.57,328.84 
		529.81,328.37 527.17,324.6 521.58,331.5 522.2,334.42 	"/>
	<polygon class="st3" points="456.29,121.85 459.72,134.77 462.21,133.32 460.78,138.17 462.49,142.45 470.62,157.67 475.3,156.52 
		477.45,154.38 485.56,151.33 488.18,153 493.14,152.81 490.65,145.93 486.1,140.95 476.76,134.12 475.51,134.38 469.3,129.4 
		467.73,126.76 463.28,124.82 459.94,122.3 	"/>
	<polygon class="st4" points="456.29,121.85 459.72,134.78 462.21,133.32 460.78,138.17 462.49,142.46 470.62,157.67 475.3,156.52 
		477.45,154.38 485.56,151.33 488.18,153 493.14,152.82 490.65,145.93 486.1,140.95 476.76,134.12 475.51,134.38 469.3,129.4 
		467.73,126.77 463.28,124.82 459.94,122.3 	"/>
	<polygon class="st3" points="527.18,324.59 529.81,328.37 533.57,328.84 534,332.53 532.27,338.88 538.94,345.5 542.81,347.88 
		542.94,349.95 555.89,356.64 558.12,357.18 561.4,362.49 571.2,360.72 578.71,363.41 582.98,371.03 587.26,363.51 587.03,357 
		575.31,350.66 574.4,347 571.5,347.48 569.88,342.54 566.22,342.36 563.16,331.78 558.31,331.2 557.65,328.94 550.63,330.45 
		547.13,329.04 546.23,325.25 538.55,317.12 536.3,317 532.59,321.23 	"/>
	<polygon class="st4" points="527.17,324.6 529.81,328.37 533.57,328.84 534,332.53 532.27,338.88 538.94,345.5 542.81,347.88 
		542.94,349.95 555.89,356.64 558.12,357.18 561.4,362.49 571.2,360.72 578.71,363.41 582.98,371.03 587.26,363.51 587.03,357 
		575.31,350.67 574.4,347 571.5,347.48 569.88,342.54 566.22,342.36 563.16,331.78 558.31,331.2 557.65,328.94 550.63,330.45 
		547.13,329.04 546.23,325.25 538.54,317.12 536.3,317.01 532.59,321.23 	"/>
	<polygon class="st3" points="310.15,338.98 312.95,339.45 316.47,342.99 317.02,347.39 314.61,347.34 313.63,364.51 335.62,364.35 
		337.76,361.64 336.5,355.05 340.52,349.96 338.79,346.06 344.58,341.58 346.01,335.3 338.41,334.9 310.16,334.64 	"/>
	<polygon class="st4" points="310.15,338.98 312.95,339.45 316.47,342.99 317.02,347.4 314.61,347.34 313.63,364.51 335.62,364.35 
		337.76,361.65 336.5,355.05 340.52,349.97 338.79,346.06 344.58,341.58 346.01,335.3 338.41,334.9 310.16,334.64 	"/>
	<polygon class="st3" points="406.13,266.44 426.46,311.1 435.63,306.13 437.91,306.3 449.68,294.57 448.15,292.75 452.79,279.13 
		456.04,278.4 456.1,273.79 453.78,272.62 454.29,263.58 443.43,258.65 444.17,255.94 437.53,252.95 429.38,253.72 422.16,257.31 	
		"/>
	<polygon class="st4" points="406.13,266.45 426.46,311.11 435.63,306.13 437.91,306.3 449.68,294.57 448.15,292.75 452.79,279.13 
		456.04,278.41 456.1,273.79 453.78,272.62 454.29,263.58 443.43,258.66 444.17,255.94 437.53,252.95 429.38,253.72 422.16,257.31 	
		"/>
	<polygon class="st3" points="408.6,424.81 410.09,424.8 410.18,432.39 421.98,432.68 423.91,437.3 424,442.52 428.16,440.51 
		428.23,408.82 421.63,408.85 422.38,412.58 411.43,412.53 411.25,421.08 408.6,421.1 	"/>
	<polygon class="st4" points="408.6,424.81 410.09,424.8 410.18,432.39 421.98,432.68 423.91,437.3 424,442.52 428.16,440.52 
		428.23,408.82 421.63,408.85 422.38,412.58 411.43,412.53 411.25,421.08 408.6,421.1 	"/>
	<polygon class="st3" points="328.7,230.72 334.67,230.79 335.54,229.1 335.76,202.86 328.66,202.84 328.64,205.34 319.98,205.25 
		317.92,204.26 317.87,219.69 316.1,220.51 316.03,224.67 328.78,224.81 	"/>
	<polygon class="st4" points="328.7,230.72 334.67,230.79 335.54,229.1 335.76,202.86 328.66,202.84 328.64,205.34 319.98,205.26 
		317.92,204.27 317.87,219.7 316.1,220.51 316.03,224.67 328.78,224.81 	"/>
	<polygon class="st3" points="355.23,210.16 363.42,221.33 364.32,228.6 365.59,232.29 368.86,235.27 374.04,235.28 381.35,239.69 
		394.8,231.35 389.85,212.12 388.64,204.64 378.55,206.03 	"/>
	<polygon class="st4" points="355.23,210.17 363.42,221.33 364.32,228.6 365.59,232.29 368.86,235.28 374.04,235.28 381.35,239.7 
		394.8,231.35 389.85,212.12 388.64,204.64 378.55,206.03 	"/>
	<polygon class="st3" points="456.1,273.79 463.29,271.74 460.7,266.96 471.86,260.03 468.9,255.98 474.54,248.18 471.15,246.61 
		467.03,242.01 463.62,242.24 454.43,246.06 453.24,244.64 445.65,247.49 442.72,243.31 430.26,248.48 429.38,253.72 437.53,252.95 
		444.17,255.94 443.43,258.65 454.29,263.58 453.78,272.62 	"/>
	<polygon class="st4" points="456.1,273.79 463.29,271.74 460.7,266.96 471.86,260.03 468.9,255.98 474.54,248.18 471.15,246.61 
		467.03,242.01 463.62,242.24 454.43,246.06 453.24,244.64 445.65,247.49 442.72,243.31 430.26,248.48 429.38,253.72 437.53,252.95 
		444.17,255.94 443.43,258.66 454.29,263.58 453.78,272.62 	"/>
	<polygon class="st3" points="499.5,243 504.86,258.34 511.91,264.12 525.74,259.79 523.41,256.53 532.08,233.06 530.7,231.11 
		524.27,228.49 515.78,231.59 504.96,232.32 501.34,235.71 	"/>
	<polygon class="st4" points="499.5,243 504.86,258.34 511.91,264.12 525.74,259.8 523.41,256.53 532.08,233.06 530.7,231.11 
		524.27,228.49 515.78,231.59 504.96,232.33 501.33,235.71 	"/>
	<polygon class="st3" points="454.87,210.73 460.39,220.45 464.51,221.75 465.45,229.11 467.91,232.2 467.03,242.01 471.15,246.61 
		474.54,248.18 477.63,246.63 475.84,243.16 480.8,242.62 484.69,240.63 488.5,230.14 486.88,217.28 488.98,207.97 491.93,199.91 
		488.91,196.17 481.49,191.55 478.87,191.56 474.72,195.41 461.53,206.07 462.2,210.91 	"/>
	<polygon class="st4" points="454.87,210.73 460.39,220.45 464.51,221.75 465.45,229.12 467.91,232.2 467.03,242.01 471.15,246.61 
		474.54,248.18 477.63,246.63 475.84,243.16 480.8,242.62 484.69,240.63 488.5,230.14 486.87,217.28 488.98,207.97 491.93,199.91 
		488.91,196.18 481.49,191.55 478.87,191.56 474.72,195.41 461.53,206.07 462.2,210.91 	"/>
	<polygon class="st3" points="439.81,345.33 439.79,359.5 467,359.39 467.1,342.55 474.77,342.59 474.76,329.55 470.31,329.27 
		469.59,331.33 465.07,330.29 456.27,334.36 453.63,334.94 445.04,340.09 	"/>
	<polygon class="st4" points="439.81,345.33 439.79,359.5 467,359.39 467.1,342.55 474.77,342.59 474.76,329.55 470.31,329.27 
		469.59,331.33 465.08,330.3 456.27,334.37 453.63,334.94 445.04,340.09 	"/>
	<polygon class="st3" points="351.17,185.75 353.12,189.82 353.81,195.62 355.46,198.16 354.69,205.17 355.23,210.16 378.55,206.03 
		379.6,178.9 366.78,169.41 367.44,173.45 362.08,174.1 352.71,180.95 353.94,183.14 	"/>
	<polygon class="st4" points="351.17,185.75 353.12,189.82 353.81,195.62 355.46,198.16 354.69,205.17 355.23,210.17 378.55,206.03 
		379.6,178.9 366.78,169.41 367.44,173.45 362.08,174.1 352.71,180.95 353.94,183.14 	"/>
	<polygon class="st3" points="379.28,123.76 394.6,115.98 392.28,114.98 394.85,108.1 394.27,103.1 384.2,92.88 377.2,93.85 
		372.14,89.4 355.09,106.92 359.42,113.29 372.62,115.29 377.05,116.88 	"/>
	<polygon class="st4" points="379.28,123.76 394.6,115.98 392.28,114.98 394.85,108.1 394.27,103.1 384.2,92.88 377.2,93.85 
		372.14,89.4 355.09,106.92 359.42,113.29 372.62,115.29 377.05,116.89 	"/>
	<polygon class="st3" points="382.45,367.35 382.43,369.77 389.36,371.45 393.19,378.71 396.44,379.31 413.11,379.68 416.04,379.08 
		420.5,370.24 420.6,365.61 424.46,363.12 425.82,359.32 410.44,358.78 410.38,361.5 402.68,361.25 402.75,358.64 397.57,358.57 
		397.6,350.86 386.52,350.73 386.57,355.77 383.32,357 	"/>
	<polygon class="st4" points="382.45,367.35 382.43,369.77 389.36,371.45 393.19,378.71 396.44,379.31 413.11,379.68 416.04,379.08 
		420.5,370.24 420.6,365.61 424.46,363.12 425.82,359.32 410.44,358.79 410.38,361.5 402.68,361.25 402.75,358.64 397.57,358.57 
		397.6,350.86 386.52,350.73 386.57,355.77 383.32,357 	"/>
	<polygon class="st3" points="352.43,296.45 372.53,296.68 380.47,285.07 382.69,285.13 382.69,279.96 383.51,276.59 380.44,274.57 
		378.37,267.59 378.81,262.18 376.8,258.59 374.08,258.22 365.14,255.37 363.62,261.24 363.53,271.81 361.02,271.57 361.01,274.54 
		356.81,275.42 356.81,280.49 354.24,281.29 352.58,278.29 353.44,281.28 	"/>
	<polygon class="st4" points="352.43,296.45 372.53,296.69 380.47,285.08 382.69,285.13 382.69,279.96 383.51,276.6 380.44,274.57 
		378.37,267.59 378.81,262.18 376.8,258.59 374.08,258.23 365.14,255.38 363.62,261.24 363.53,271.81 361.02,271.57 361.01,274.54 
		356.81,275.42 356.81,280.49 354.24,281.29 352.58,278.3 353.44,281.28 	"/>
	<polygon class="st3" points="330.49,192.99 333.02,192.62 336.52,186.44 342.42,185.03 341.67,181.69 345.92,177.9 343.65,173.59 
		337,172.97 335.15,168.1 327.33,164.44 323.45,156.97 315.06,156.85 317.49,163.61 314.96,168.72 313.9,178.78 308.82,178.73 
		308.75,187.38 317.98,187.36 318,189.11 326.34,189.13 326.32,191.46 	"/>
	<polygon class="st4" points="330.49,192.99 333.02,192.62 336.52,186.44 342.42,185.04 341.67,181.69 345.92,177.9 343.65,173.59 
		337,172.97 335.15,168.11 327.33,164.44 323.45,156.97 315.06,156.85 317.49,163.61 314.96,168.72 313.9,178.78 308.82,178.73 
		308.75,187.38 317.98,187.36 317.99,189.11 326.34,189.13 326.32,191.47 	"/>
	<polygon class="st3" points="232.59,210.39 242.88,206.88 243.69,203.64 245.41,206.03 258.28,200.58 251.68,179.83 227.65,179.56 
			"/>
	<polygon class="st4" points="232.59,210.39 242.87,206.88 243.69,203.64 245.41,206.03 258.28,200.58 251.68,179.84 227.65,179.57 
			"/>
	<polygon class="st3" points="415.89,91.68 418.95,96.89 424.06,95.79 427.32,98.16 432.98,94.37 445.18,90.01 443.43,84.69 
		439.96,82.09 437.74,72.53 434.05,69.44 426.35,70.15 421.23,68.64 417.55,76.79 416.43,84.24 417.5,84 	"/>
	<polygon class="st4" points="415.89,91.68 418.95,96.89 424.06,95.8 427.32,98.17 432.98,94.38 445.18,90.01 443.43,84.69 
		439.96,82.09 437.74,72.53 434.05,69.44 426.35,70.15 421.23,68.64 417.55,76.79 416.43,84.24 417.5,84 	"/>
	<polygon class="st3" points="241.35,249.8 242.93,250.48 243.29,256.27 246.03,264 260.98,264.05 260.96,266.53 279.38,266.48 
		279.57,241.29 278.87,239.72 273.05,237.35 264.94,236.86 264.93,237.26 237.12,237.06 239.66,240.22 238.51,243.12 242.45,246.94 
			"/>
	<polygon class="st4" points="241.35,249.8 242.93,250.48 243.29,256.28 246.03,264 260.98,264.05 260.96,266.53 279.38,266.48 
		279.57,241.29 278.87,239.73 273.05,237.35 264.94,236.86 264.93,237.26 237.12,237.06 239.66,240.22 238.51,243.12 242.45,246.94 
			"/>
	<polygon class="st3" points="219.63,130.44 223.81,156.26 228,156.36 241.01,151.39 243.08,152.3 248.62,149.88 248.75,139.72 
		249.74,139.77 249.84,130.17 234.64,129.96 234.64,130.7 	"/>
	<polygon class="st4" points="219.63,130.44 223.81,156.26 228,156.36 241.01,151.39 243.08,152.3 248.62,149.88 248.75,139.72 
		249.74,139.77 249.84,130.17 234.64,129.96 234.64,130.7 	"/>
	<polygon class="st3" points="402.02,204.45 417.28,208.14 415.43,214.78 417,218.6 421.17,215.43 424.93,215.42 435.27,209.46 
		438.2,203.5 444.85,199.17 447.4,199.18 446.76,197.61 444.23,196.01 444.54,192.35 441.88,186.21 440.85,179.59 438.46,177.97 
		434.93,178.53 427.08,177.55 424.57,175.31 411.5,187.12 413.08,191.71 403.79,197.01 	"/>
	<polygon class="st4" points="402.02,204.45 417.28,208.14 415.43,214.78 417,218.6 421.17,215.43 424.93,215.42 435.27,209.47 
		438.2,203.5 444.85,199.17 447.4,199.18 446.76,197.61 444.23,196.01 444.54,192.35 441.88,186.22 440.85,179.59 438.46,177.97 
		434.93,178.53 427.08,177.55 424.57,175.31 411.5,187.13 413.08,191.71 403.79,197.01 	"/>
	<polygon class="st3" points="333.92,102.7 350.74,109.96 355.09,106.92 372.14,89.4 367.87,82.02 369.08,78.48 372.56,75.13 
		368.15,67.61 352.87,67.41 349.05,71.25 347.13,71.21 341.11,76.5 340.7,80.23 345.61,91.07 340.29,99.8 335.14,100.27 	"/>
	<polygon class="st4" points="333.92,102.7 350.74,109.97 355.09,106.92 372.14,89.4 367.87,82.02 369.08,78.48 372.56,75.13 
		368.15,67.61 352.87,67.41 349.05,71.25 347.13,71.21 341.11,76.5 340.7,80.23 345.61,91.07 340.29,99.8 335.14,100.27 	"/>
	<polygon class="st3" points="366.83,36.43 370.98,39.58 371.87,43.62 369.94,50.29 368.47,51.22 370.58,55.15 370.87,60.55 
		372.5,62.47 368.15,67.61 372.56,75.13 379.27,68.85 385.98,69.96 394.17,49.6 396.48,48.35 395.26,45.31 388.45,42.04 
		384.36,44.49 378.11,41.76 375.01,34.39 369.37,34.08 	"/>
	<polygon class="st4" points="366.83,36.44 370.98,39.58 371.87,43.63 369.94,50.29 368.47,51.22 370.58,55.15 370.87,60.55 
		372.5,62.47 368.15,67.61 372.56,75.13 379.28,68.85 385.98,69.96 394.17,49.6 396.48,48.35 395.25,45.32 388.45,42.04 
		384.36,44.5 378.11,41.77 375.01,34.4 369.37,34.08 	"/>
	<polygon class="st3" points="315.45,124.61 316.92,128.65 321.78,133.42 325.82,135.57 332.79,143.35 337.3,145.91 356.69,127.51 
		350.79,119.47 355.08,106.92 350.74,109.96 333.92,102.7 329.88,109.92 330.91,114.94 325.75,116.84 323.79,120.11 316.7,121.52 	
		"/>
	<polygon class="st4" points="315.45,124.61 316.92,128.65 321.78,133.42 325.82,135.58 332.79,143.35 337.3,145.91 356.69,127.52 
		350.79,119.47 355.08,106.92 350.74,109.97 333.92,102.7 329.88,109.92 330.91,114.94 325.75,116.84 323.79,120.11 316.7,121.52 	
		"/>
	<polygon class="st3" points="390.61,151.56 394.38,157.62 395.74,161.71 402.44,168.68 401.51,173.84 404.92,180.38 404.8,182.67 
		408.69,182.9 411.5,187.12 426.92,173.18 426.89,170.01 424.47,163.8 429.89,155.75 426.06,152.06 421.44,149.77 415.43,151.52 
		401.48,144.98 400.51,147.83 	"/>
	<polygon class="st4" points="390.61,151.56 394.38,157.62 395.74,161.71 402.44,168.68 401.51,173.84 404.92,180.38 404.8,182.67 
		408.69,182.9 411.5,187.13 426.92,173.18 426.89,170.01 424.47,163.8 429.89,155.75 426.06,152.06 421.44,149.78 415.43,151.52 
		401.48,144.98 400.51,147.83 	"/>
	<polygon class="st3" points="314.95,459.01 332.11,459.97 332.79,436.15 329.06,429.26 329.27,419.52 306.83,419.42 306.48,458.54 
			"/>
	<polygon class="st4" points="314.95,459.01 332.11,459.97 332.79,436.15 329.06,429.26 329.27,419.52 306.83,419.42 306.48,458.54 
			"/>
	<polygon class="st3" points="247.04,58.84 247.53,63.53 245.24,63.59 245.23,71.81 243.39,71.82 245.42,78.32 252.51,79.25 
		257.11,78.56 275.97,78.82 275.98,77.09 282.95,77.13 282.84,59.26 274.89,56.44 264.77,56.6 260.44,53.92 259.36,55.85 
		248.66,55.82 248.66,55.14 	"/>
	<polygon class="st4" points="247.04,58.84 247.53,63.53 245.24,63.59 245.23,71.81 243.39,71.82 245.42,78.32 252.51,79.25 
		257.11,78.56 275.97,78.82 275.98,77.09 282.95,77.13 282.84,59.26 274.89,56.44 264.77,56.6 260.44,53.92 259.36,55.85 
		248.66,55.82 248.66,55.14 	"/>
	<polygon class="st3" points="532.19,410.27 539.11,415.03 543.8,416.49 550.19,414.86 548.91,417.74 552.58,420.53 562.09,425.67 
		563.2,415.39 558.61,418.61 561.65,409.2 566.71,412.44 573.43,405.14 572.81,397.94 570.8,396.18 560.72,395.76 548.38,386.94 
		544.45,381.63 540.96,387.03 538.62,386.94 538.08,390.25 535.19,394.07 531.37,410.79 	"/>
	<polygon class="st4" points="532.19,410.27 539.11,415.04 543.8,416.49 550.19,414.86 548.91,417.74 552.58,420.53 562.09,425.67 
		563.2,415.39 558.61,418.61 561.65,409.2 566.71,412.44 573.43,405.15 572.81,397.94 570.8,396.18 560.72,395.76 548.38,386.94 
		544.45,381.63 540.95,387.03 538.62,386.95 538.08,390.25 535.19,394.07 531.37,410.79 	"/>
	<polygon class="st3" points="446.76,197.61 447.4,199.18 448.21,205.8 454.87,210.73 462.2,210.91 461.53,206.07 474.72,195.41 
		463.69,189.99 456.28,192.66 453.57,195.39 	"/>
	<polygon class="st4" points="446.76,197.61 447.4,199.18 448.21,205.8 454.87,210.73 462.2,210.91 461.53,206.07 474.72,195.41 
		463.69,189.99 456.28,192.66 453.57,195.39 	"/>
	<polygon class="st3" points="282.84,59.26 282.85,62.86 307.28,62.9 309.51,61.41 310.97,59.22 317.32,60.82 317.36,57.76 
		322.36,55.62 322.29,53.03 317.56,50.72 317.57,45.09 312.18,35.73 307.29,31.85 303.08,30.74 285.94,30.67 289.07,33.86 
		283.96,38.87 282.62,43.97 	"/>
	<polygon class="st4" points="282.84,59.26 282.85,62.86 307.28,62.9 309.51,61.41 310.97,59.22 317.32,60.83 317.36,57.76 
		322.35,55.62 322.29,53.03 317.56,50.72 317.57,45.09 312.18,35.73 307.29,31.85 303.08,30.75 285.94,30.67 289.07,33.86 
		283.96,38.88 282.62,43.97 	"/>
	<polygon class="st3" points="265.9,170.93 285.73,171.02 286.72,171.87 288,170.19 299.74,166.85 299.83,156.69 309.11,156.8 
		309.32,124.03 315.45,124.61 316.7,121.52 323.79,120.11 325.75,116.84 330.91,114.94 323.87,112.94 320.83,109.85 316.99,108.8 
		317.01,100.83 311,100.81 308.25,103.24 308.14,107.2 303.22,108.85 303.18,112.57 304.71,118.71 307,121.63 306.25,124.02 
		300.77,129.41 301.1,132.91 298.66,138.32 283,153.09 282.68,155.6 274.7,158.47 269.51,164.45 267.49,167.43 268.97,169.93 	"/>
	<polygon class="st4" points="265.9,170.93 285.73,171.02 286.72,171.87 288,170.19 299.74,166.85 299.83,156.69 309.11,156.8 
		309.32,124.03 315.45,124.61 316.7,121.52 323.79,120.11 325.75,116.84 330.91,114.94 323.87,112.94 320.83,109.85 316.99,108.8 
		317.01,100.83 311,100.81 308.25,103.24 308.14,107.2 303.22,108.85 303.18,112.57 304.71,118.71 307,121.63 306.25,124.02 
		300.77,129.41 301.1,132.91 298.66,138.32 282.99,153.09 282.68,155.6 274.7,158.47 269.51,164.45 267.49,167.43 268.97,169.93 	
		"/>
	<polygon class="st3" points="391.28,72.06 392.65,75.43 391.67,86.34 396.5,92.88 395.05,96.87 399.99,92.61 400.94,93.79 
		410.77,95.33 415.89,91.68 417.5,84 416.43,84.24 417.55,76.79 421.23,68.64 416.73,64.15 410.33,70.31 393.45,71.12 	"/>
	<polygon class="st4" points="391.28,72.06 392.65,75.43 391.67,86.34 396.5,92.88 395.05,96.87 399.99,92.61 400.95,93.79 
		410.77,95.34 415.89,91.68 417.5,84 416.43,84.24 417.55,76.79 421.23,68.64 416.73,64.15 410.33,70.31 393.45,71.13 	"/>
	<polygon class="st3" points="330.91,114.94 329.88,109.92 335.14,100.27 340.29,99.8 345.61,91.07 343.05,85.36 317.06,85.23 
		316.99,108.8 320.83,109.85 323.87,112.94 	"/>
	<polygon class="st4" points="330.91,114.94 329.88,109.92 335.14,100.27 340.29,99.8 345.61,91.07 343.05,85.36 317.06,85.23 
		316.99,108.8 320.83,109.85 323.87,112.94 	"/>
	<polygon class="st3" points="216.59,111.79 230.73,111.97 230.77,109.71 248.96,110.16 249.15,97.93 250.96,97.95 251.02,83.98 
		252.56,83.98 252.51,79.25 245.42,78.32 243.39,71.82 245.23,71.81 245.24,63.59 247.53,63.53 247.04,58.84 243.71,58.81 
		237.43,74.68 224.1,81.62 219.56,90.36 213.11,90.33 	"/>
	<polygon class="st4" points="216.59,111.79 230.73,111.97 230.77,109.72 248.96,110.16 249.15,97.94 250.96,97.96 251.02,83.99 
		252.56,83.99 252.51,79.25 245.42,78.32 243.39,71.82 245.23,71.81 245.24,63.59 247.53,63.53 247.04,58.84 243.71,58.81 
		237.43,74.69 224.1,81.62 219.56,90.36 213.11,90.33 	"/>
	<polygon class="st3" points="286.72,171.87 285.33,177.96 288.75,186.82 293.21,189.14 296.39,197.21 301.97,197.3 303.19,193.46 
		306.18,190.75 305.84,187.38 305.96,181.46 304.62,178.71 306.39,175.92 299.74,166.85 288,170.19 	"/>
	<polygon class="st4" points="286.72,171.87 285.33,177.96 288.75,186.82 293.21,189.14 296.39,197.21 301.97,197.3 303.19,193.46 
		306.18,190.75 305.84,187.38 305.96,181.46 304.62,178.71 306.39,175.92 299.74,166.85 288,170.19 	"/>
	<polygon class="st3" points="285.69,16.68 285.94,30.67 303.08,30.74 307.29,31.85 312.18,35.73 317.57,45.09 317.56,50.72 
		322.29,53.03 322.36,55.62 323.05,57.19 330.4,44.09 331.3,36.35 327.18,35.77 326.6,31.81 330.06,27.39 323.93,20.49 
		328.17,16.76 	"/>
	<polygon class="st4" points="285.69,16.68 285.94,30.67 303.08,30.75 307.29,31.85 312.18,35.73 317.57,45.09 317.56,50.72 
		322.29,53.03 322.35,55.62 323.05,57.19 330.4,44.09 331.3,36.35 327.18,35.77 326.6,31.81 330.06,27.39 323.93,20.49 
		328.17,16.76 	"/>
	<polygon class="st3" points="509.83,297.67 513.74,317.81 521.61,320.98 532.59,321.23 536.3,317 532.99,315.37 527.88,301.9 
		521.28,298.09 514.68,298.7 	"/>
	<polygon class="st4" points="509.83,297.68 513.74,317.81 521.61,320.98 532.59,321.23 536.3,317.01 532.99,315.38 527.88,301.9 
		521.28,298.09 514.68,298.71 	"/>
	<polygon class="st3" points="456.1,273.79 469.67,275.43 479.04,281.15 476.7,290.02 481.02,293.6 481.4,296.32 487.86,296.11 
		491.92,293.59 490.04,290.26 495.79,281.86 496.38,277.72 499.21,272.98 505.13,268.91 509.41,271.1 511.91,264.12 504.86,258.34 
		499.5,243 493.52,243.93 484.69,240.63 480.8,242.62 475.84,243.16 477.63,246.63 474.54,248.18 468.9,255.98 471.86,260.03 
		460.7,266.96 463.29,271.74 	"/>
	<polygon class="st4" points="456.1,273.79 469.67,275.43 479.04,281.15 476.7,290.02 481.02,293.6 481.4,296.32 487.86,296.11 
		491.92,293.59 490.04,290.26 495.79,281.87 496.38,277.72 499.21,272.98 505.13,268.92 509.41,271.1 511.91,264.12 504.86,258.34 
		499.5,243 493.52,243.93 484.69,240.63 480.8,242.62 475.84,243.16 477.63,246.63 474.54,248.18 468.9,255.98 471.86,260.03 
		460.7,266.96 463.29,271.74 	"/>
	<polygon class="st3" points="427.73,115.71 430.66,118.64 437.38,121.87 444.74,123.24 455.36,121.1 456.29,121.85 459.94,122.3 
		463.28,124.82 460.68,118.77 456.63,113.03 453.72,106.68 450.07,104.52 448.04,98.42 447.54,92.4 445.18,90.01 432.98,94.37 
		427.32,98.16 424.06,95.79 418.95,96.89 416.83,102.17 419.83,104.06 422.56,109.88 	"/>
	<polygon class="st4" points="427.73,115.71 430.66,118.65 437.38,121.87 444.74,123.24 455.36,121.1 456.29,121.85 459.94,122.3 
		463.28,124.82 460.68,118.77 456.63,113.03 453.72,106.68 450.07,104.52 448.04,98.43 447.54,92.4 445.18,90.01 432.98,94.38 
		427.32,98.17 424.06,95.8 418.95,96.89 416.83,102.17 419.83,104.06 422.56,109.88 	"/>
	<polygon class="st3" points="551.04,276.16 552.86,280.61 552.17,285.95 558.26,293.1 560.73,301.51 562.65,305.26 563.22,313.72 
		564.53,316.34 581.48,301.89 585.89,303.04 584.93,301.03 587.95,297.02 587.12,291.24 583.87,289.49 580.36,281.54 582.2,278.88 
		574.22,271.36 574.06,269.29 570.52,268.97 564.75,265.3 551.85,274.15 	"/>
	<polygon class="st4" points="551.04,276.17 552.86,280.61 552.17,285.95 558.26,293.1 560.73,301.51 562.65,305.26 563.22,313.72 
		564.53,316.34 581.48,301.89 585.89,303.05 584.93,301.04 587.95,297.02 587.12,291.24 583.87,289.49 580.36,281.54 582.2,278.88 
		574.22,271.36 574.05,269.3 570.52,268.97 564.75,265.3 551.85,274.15 	"/>
	<polygon class="st3" points="452.5,467.8 461.6,468.43 462.02,458.31 459.66,456.11 452.44,454.19 445.87,454.28 440.29,449.35 
		438.92,443.97 428.16,440.51 424,442.52 418.07,442.6 416.67,447.12 413.87,449.91 413.89,465.17 	"/>
	<polygon class="st4" points="452.5,467.81 461.6,468.43 462.02,458.31 459.66,456.11 452.44,454.19 445.87,454.29 440.29,449.35 
		438.92,443.97 428.16,440.52 424,442.52 418.07,442.6 416.67,447.12 413.87,449.92 413.89,465.17 	"/>
	<polygon class="st3" points="250.54,419.76 259.71,420.05 260.14,401.55 279.41,401.98 283.94,401.25 284.3,383.57 271.21,383.31 
		270.57,376.74 258.46,376.61 250.49,378.28 249.08,375.14 246.83,380.07 247.29,384.01 245.05,390.57 245.44,396.23 243.49,398.95 
		244.65,404.66 244.38,410.7 249.81,416.3 	"/>
	<polygon class="st4" points="250.54,419.76 259.71,420.05 260.14,401.55 279.41,401.99 283.94,401.25 284.3,383.57 271.21,383.31 
		270.57,376.74 258.46,376.61 250.49,378.28 249.08,375.15 246.83,380.08 247.29,384.01 245.05,390.58 245.44,396.23 243.49,398.95 
		244.65,404.66 244.38,410.71 249.81,416.31 	"/>
	<polygon class="st3" points="261.5,143.01 261.14,164.52 269.51,164.45 274.7,158.47 282.68,155.6 283,153.09 289.44,146.88 
		285.33,140.5 276.83,140.39 276.83,142.19 263.44,143.63 	"/>
	<polygon class="st4" points="261.5,143.01 261.14,164.52 269.51,164.45 274.7,158.47 282.68,155.6 282.99,153.09 289.44,146.88 
		285.33,140.5 276.83,140.39 276.83,142.19 263.44,143.63 	"/>
	<polygon class="st3" points="300.47,364.52 300.1,372 303.73,381.21 302.23,383.28 321.09,383.36 339.54,382.57 339.67,364.23 
		337.76,361.64 335.62,364.35 	"/>
	<polygon class="st4" points="300.47,364.52 300.1,372.01 303.73,381.21 302.23,383.28 321.08,383.37 339.54,382.58 339.66,364.23 
		337.76,361.65 335.62,364.35 	"/>
	<polygon class="st3" points="342.69,323 373.04,323.27 373.33,296.7 352.43,296.45 348.19,297.47 342.37,300.82 336.94,308.68 
		338.33,314 341.5,316.7 340.49,318.91 	"/>
	<polygon class="st4" points="342.69,323 373.04,323.27 373.33,296.7 352.43,296.45 348.19,297.47 342.37,300.82 336.94,308.68 
		338.33,314 341.49,316.7 340.49,318.91 	"/>
	<polygon class="st3" points="396.56,315.32 400.19,318.04 400.46,327.69 406.13,332.63 407.92,336.25 436.75,307.49 435.63,306.13 
		426.46,311.1 413.68,282.94 410.72,279.93 399.37,291.23 401.16,293.04 393.4,300.64 400.55,307.89 397.64,310.79 399.37,312.54 	
		"/>
	<polygon class="st4" points="396.56,315.33 400.19,318.05 400.46,327.69 406.13,332.63 407.92,336.26 436.75,307.49 435.63,306.13 
		426.46,311.11 413.68,282.94 410.72,279.93 399.37,291.23 401.16,293.04 393.4,300.65 400.55,307.89 397.64,310.79 399.37,312.54 	
		"/>
	<polygon class="st3" points="309.11,156.8 323.45,156.97 329.35,160.24 334.46,148.63 337.3,145.91 332.79,143.35 325.82,135.57 
		321.78,133.42 316.92,128.65 315.45,124.61 309.32,124.03 	"/>
	<polygon class="st4" points="309.11,156.8 323.45,156.97 329.35,160.24 334.46,148.63 337.3,145.91 332.79,143.35 325.82,135.58 
		321.78,133.42 316.92,128.65 315.45,124.61 309.32,124.03 	"/>
	<polygon class="st3" points="264.8,456.38 306.48,458.54 306.83,419.42 283.63,419.37 283.59,420.52 276.24,420.4 274.34,423.22 
		274.08,438.94 272.96,443.76 269.08,449.36 265,451.31 	"/>
	<polygon class="st4" points="264.79,456.38 306.48,458.54 306.83,419.42 283.62,419.37 283.59,420.52 276.24,420.4 274.34,423.22 
		274.08,438.94 272.96,443.76 269.08,449.36 265,451.31 	"/>
	<polygon class="st3" points="317.11,80.44 317.06,85.23 343.05,85.36 340.7,80.23 341.11,76.5 331.29,72.16 322.86,63.88 
		323.05,57.19 322.36,55.62 317.36,57.76 317.32,60.82 310.97,59.22 309.51,61.41 311.74,71.34 317.17,71.41 	"/>
	<polygon class="st4" points="317.11,80.44 317.06,85.23 343.05,85.36 340.7,80.23 341.11,76.5 331.29,72.16 322.86,63.88 
		323.05,57.19 322.35,55.62 317.36,57.76 317.32,60.83 310.97,59.22 309.51,61.41 311.74,71.34 317.17,71.41 	"/>
	<polygon class="st3" points="202.67,30.14 206.9,54.99 210.64,50.22 210.66,47.1 214.13,40.79 214.11,33.16 215.57,28.6 
		221.59,17.19 200.76,17.06 	"/>
	<polygon class="st4" points="202.67,30.15 206.9,54.99 210.64,50.22 210.66,47.1 214.13,40.79 214.11,33.17 215.57,28.6 
		221.59,17.2 200.76,17.06 	"/>
	<polygon class="st3" points="346.01,335.3 344.58,341.58 351.82,342.67 356.38,346.05 372.79,346.03 373.04,323.27 342.69,323 
		345.83,331.43 	"/>
	<polygon class="st4" points="346.01,335.3 344.58,341.58 351.82,342.67 356.38,346.05 372.79,346.04 373.04,323.27 342.69,323 
		345.83,331.44 	"/>
	<polygon class="st3" points="339.04,272.01 359.48,255.33 365.14,255.37 362.11,255.21 354.23,249.92 351.7,244.95 348.58,242.23 
		348.65,239.34 328.61,239.21 328.61,244.22 326.46,244.18 321.85,255.6 330.25,257.16 333.44,261.96 333.98,267.13 	"/>
	<polygon class="st4" points="339.04,272.01 359.48,255.33 365.14,255.38 362.11,255.21 354.23,249.92 351.7,244.96 348.58,242.23 
		348.65,239.34 328.61,239.21 328.61,244.22 326.45,244.19 321.85,255.6 330.25,257.16 333.44,261.96 333.98,267.13 	"/>
	<polygon class="st3" points="258.28,200.58 264.92,200.66 264.89,204.04 265.75,200.69 295.97,200.95 296.39,197.21 293.21,189.14 
		288.75,186.82 285.33,177.96 286.72,171.87 285.73,171.02 265.9,170.93 258.59,178.6 254.78,176.62 251.68,179.83 	"/>
	<polygon class="st4" points="258.28,200.58 264.92,200.67 264.89,204.04 265.75,200.7 295.97,200.96 296.39,197.21 293.21,189.14 
		288.75,186.82 285.33,177.96 286.72,171.87 285.73,171.02 265.9,170.93 258.59,178.6 254.78,176.62 251.68,179.84 	"/>
	<polygon class="st3" points="376.05,419.5 378.89,422.22 384.62,424.14 400.23,424.61 401.52,421.15 398.01,417.49 399.3,410.51 
		396.82,408.05 396.68,402.7 392.19,401.1 388.66,397.78 388.17,392.01 385.91,394.45 381.43,394.34 381.67,406.58 379.02,409.3 	
		"/>
	<polygon class="st4" points="376.05,419.5 378.89,422.22 384.62,424.15 400.23,424.61 401.52,421.15 398.01,417.49 399.3,410.51 
		396.82,408.05 396.68,402.7 392.19,401.1 388.66,397.78 388.17,392.01 385.91,394.45 381.42,394.34 381.67,406.58 379.02,409.3 	
		"/>
	<polygon class="st3" points="475.3,156.52 473.88,157.79 476.38,162 474.19,166.94 478.77,169.02 477.36,171.16 478.8,175.49 
		483.09,180.71 482.63,181.94 486.62,187.15 509.58,167.47 502.06,162.12 500.49,162.75 495.04,158.59 493.14,152.81 488.18,153 
		485.56,151.33 477.45,154.38 	"/>
	<polygon class="st4" points="475.3,156.52 473.88,157.79 476.38,162 474.19,166.94 478.77,169.02 477.36,171.16 478.8,175.49 
		483.09,180.71 482.63,181.94 486.62,187.16 509.58,167.47 502.06,162.12 500.49,162.75 495.04,158.59 493.14,152.82 488.18,153 
		485.56,151.33 477.45,154.38 	"/>
	<polygon class="st3" points="362.12,423.57 376.12,423.95 376.05,419.5 379.02,409.3 381.67,406.58 381.43,394.34 339.4,393.58 
		339.01,423.18 	"/>
	<polygon class="st4" points="362.12,423.57 376.12,423.95 376.05,419.5 379.02,409.3 381.67,406.58 381.42,394.34 339.4,393.58 
		339.01,423.18 	"/>
	<polygon class="st3" points="413.11,379.68 413.55,384.93 429.26,385.25 429.3,386.69 439.14,386.66 441.46,390.59 457.71,390.65 
		457.78,379.98 460.43,379.98 460.53,371.01 457.77,370.97 457.86,359.37 439.79,359.5 439.81,345.33 437.5,348.18 426.05,348.38 
		425.82,359.32 424.46,363.12 420.6,365.61 420.5,370.24 416.04,379.08 	"/>
	<polygon class="st4" points="413.11,379.68 413.55,384.93 429.26,385.25 429.3,386.69 439.14,386.66 441.46,390.59 457.71,390.65 
		457.78,379.98 460.43,379.98 460.53,371.01 457.77,370.97 457.86,359.37 439.79,359.5 439.81,345.33 437.5,348.18 426.05,348.38 
		425.82,359.32 424.46,363.12 420.6,365.61 420.5,370.24 416.04,379.08 	"/>
	<polygon class="st3" points="275.65,111.93 275.49,125.66 276.91,125.67 276.83,140.39 285.33,140.5 289.44,146.88 298.66,138.32 
		301.1,132.91 300.77,129.41 306.25,124.02 307,121.63 304.71,118.71 303.18,112.57 	"/>
	<polygon class="st4" points="275.65,111.94 275.49,125.66 276.91,125.67 276.83,140.39 285.33,140.5 289.44,146.88 298.66,138.32 
		301.1,132.91 300.77,129.41 306.25,124.02 307,121.63 304.71,118.71 303.18,112.57 	"/>
	<polygon class="st3" points="428.16,440.51 438.92,443.97 440.29,449.35 445.87,454.28 452.44,454.19 459.66,456.11 462.02,458.31 
		461.6,468.43 475.85,469.4 474.81,466.29 474.38,445.47 469.24,445.52 469.67,431.06 467.1,431.06 464.33,427.18 460.85,425.49 
		454.03,408.87 428.23,408.82 	"/>
	<polygon class="st4" points="428.16,440.52 438.92,443.97 440.29,449.35 445.87,454.29 452.44,454.19 459.66,456.11 462.02,458.31 
		461.6,468.43 475.85,469.4 474.81,466.29 474.38,445.47 469.24,445.52 469.67,431.07 467.1,431.06 464.33,427.18 460.85,425.49 
		454.03,408.87 428.23,408.82 	"/>
	<polygon class="st3" points="305.84,187.38 308.75,187.38 308.82,178.73 313.9,178.78 314.96,168.72 317.49,163.61 315.06,156.85 
		299.83,156.69 299.74,166.85 306.39,175.92 304.62,178.71 305.96,181.46 	"/>
	<polygon class="st4" points="305.84,187.38 308.75,187.38 308.82,178.73 313.9,178.78 314.96,168.72 317.49,163.61 315.06,156.85 
		299.83,156.69 299.74,166.85 306.39,175.92 304.62,178.71 305.96,181.46 	"/>
	<polygon class="st3" points="242.02,350.25 242.14,356.98 248.05,364.86 249.08,375.14 250.49,378.28 258.46,376.61 268.57,376.75 
		268.74,364.74 257.98,364.85 256.52,355.24 256.58,348.69 240.83,348.43 	"/>
	<polygon class="st4" points="242.02,350.25 242.14,356.98 248.04,364.86 249.08,375.15 250.49,378.28 258.46,376.61 268.57,376.76 
		268.74,364.74 257.98,364.85 256.52,355.24 256.58,348.69 240.83,348.43 	"/>
	<polygon class="st3" points="379.28,123.76 381.78,127.36 389.81,128.69 397.48,135.23 401.85,136.02 404.88,130.16 401.9,126.22 
		403.37,120.3 394.6,115.98 	"/>
	<polygon class="st4" points="379.28,123.76 381.78,127.36 389.81,128.69 397.48,135.23 401.85,136.02 404.88,130.16 401.9,126.22 
		403.37,120.3 394.6,115.98 	"/>
	<polygon class="st3" points="303.18,112.57 303.22,108.85 308.14,107.2 308.25,103.24 311,100.81 317.01,100.83 317.11,80.44 
		289.05,80.39 289.03,77.17 282.95,77.13 282.9,96.51 282.43,112.08 	"/>
	<polygon class="st4" points="303.18,112.57 303.22,108.85 308.14,107.2 308.25,103.24 311,100.81 317.01,100.83 317.11,80.44 
		289.05,80.39 289.03,77.17 282.95,77.13 282.9,96.52 282.43,112.08 	"/>
	<polygon class="st3" points="208.66,65.45 213.11,90.33 219.56,90.36 224.1,81.62 237.43,74.68 243.71,58.81 207.49,58.69 	"/>
	<polygon class="st4" points="208.66,65.45 213.11,90.33 219.56,90.36 224.1,81.62 237.43,74.69 243.71,58.81 207.49,58.69 	"/>
	<polygon class="st3" points="259.66,302.57 282.46,302.37 282.6,275.59 284.32,271.5 279.39,273.15 276.67,274.58 273.04,282.95 
		265.49,283.82 256.77,287.97 255.43,287.58 252.77,293.23 258.73,295.69 262.64,299.51 	"/>
	<polygon class="st4" points="259.66,302.58 282.46,302.37 282.6,275.59 284.32,271.5 279.38,273.16 276.67,274.58 273.04,282.95 
		265.49,283.82 256.77,287.97 255.43,287.58 252.77,293.23 258.73,295.69 262.64,299.51 	"/>
	<polygon class="st3" points="564.53,316.34 566.66,321.23 573.29,328.27 575.41,335.21 581.89,334.45 583.22,336.26 593,341.64 
		589.77,336.86 599.08,340.51 611.97,326.14 607.78,322.57 604.67,321.87 597.76,315.8 592.57,316.9 588.23,314.13 587.71,305.6 
		585.89,303.04 581.48,301.89 	"/>
	<polygon class="st3" points="583.37,350.73 586.36,354.57 595.53,345.14 586.25,341.17 583.05,344.87 	"/>
	<polygon class="st4" points="564.53,316.34 566.66,321.23 573.29,328.27 575.41,335.21 581.89,334.46 583.22,336.26 593,341.64 
		589.77,336.86 599.08,340.51 611.97,326.14 607.78,322.57 604.67,321.87 597.76,315.8 592.57,316.91 588.23,314.13 587.71,305.6 
		585.89,303.05 581.48,301.89 	"/>
	<polygon class="st4" points="583.37,350.73 586.36,354.57 595.53,345.14 586.25,341.17 583.05,344.87 	"/>
	<polygon class="st3" points="493.48,470.73 491.27,473.79 494.64,479.08 493.82,485.06 497.74,491.84 502.94,490.74 507.71,491.38 
		508.8,490.45 508.56,483.94 510.56,480.09 511.54,471.24 507.84,462.14 508.84,452.07 509.97,449.17 513.66,449.8 515.13,445.67 
		520.23,444.65 521.13,436.92 519.35,435.83 521.3,431.33 519.48,429.93 520.08,423.32 506.75,419.76 505,426.31 476.13,426 
		475.66,447.98 496.63,448.4 499.07,449.07 	"/>
	<polygon class="st4" points="493.48,470.73 491.27,473.79 494.64,479.08 493.82,485.06 497.74,491.84 502.94,490.74 507.71,491.38 
		508.79,490.45 508.56,483.94 510.56,480.09 511.54,471.24 507.84,462.14 508.84,452.08 509.97,449.17 513.66,449.8 515.13,445.67 
		520.23,444.65 521.13,436.92 519.35,435.83 521.3,431.33 519.48,429.93 520.08,423.32 506.75,419.76 505,426.31 476.13,426 
		475.66,447.98 496.63,448.4 499.07,449.07 	"/>
	<polygon class="st3" points="230.12,17.01 230.15,30.79 235.55,30.77 235.58,39.12 240.51,39.9 241.63,34.43 247.69,34.45 
		247.69,29.81 251,29.02 250.99,25.89 254.75,16.75 	"/>
	<polygon class="st4" points="230.12,17.02 230.15,30.79 235.55,30.77 235.58,39.12 240.51,39.9 241.63,34.43 247.69,34.45 
		247.69,29.81 251,29.02 250.99,25.89 254.75,16.75 	"/>
	<polygon class="st3" points="226.73,173.89 227.65,179.56 251.68,179.83 254.78,176.62 258.59,178.6 265.9,170.93 268.97,169.93 
		267.49,167.43 269.51,164.45 261.14,164.52 261.5,143.01 248.75,139.72 248.62,149.88 243.08,152.3 241.01,151.39 228,156.36 
		223.81,156.26 	"/>
	<polygon class="st4" points="226.73,173.9 227.65,179.57 251.68,179.84 254.78,176.62 258.59,178.6 265.9,170.93 268.97,169.93 
		267.49,167.43 269.51,164.45 261.14,164.52 261.5,143.01 248.75,139.72 248.62,149.88 243.08,152.3 241.01,151.39 228,156.36 
		223.81,156.26 	"/>
	<polygon class="st3" points="509.83,297.67 514.68,298.7 515.74,296.93 519.03,283.75 514.05,277.25 514.52,273.72 505.13,268.91 
		499.21,272.98 496.38,277.72 495.79,281.86 490.04,290.26 491.92,293.59 	"/>
	<polygon class="st4" points="509.83,297.68 514.68,298.71 515.74,296.93 519.03,283.76 514.05,277.25 514.52,273.72 505.13,268.92 
		499.21,272.98 496.38,277.72 495.79,281.87 490.04,290.26 491.92,293.59 	"/>
	<polygon class="st3" points="520.23,444.65 522.13,447.41 532,449.8 536.26,453.06 551.84,456.67 555.3,455.06 563.46,436.46 
		555.14,430.03 559.02,424.71 548.91,417.74 550.19,414.86 543.8,416.49 539.11,415.03 532.19,410.27 527.63,413.61 525.77,417.52 
		519.28,417.77 517.54,422.5 520.08,423.32 519.48,429.93 521.3,431.33 519.35,435.83 521.13,436.92 	"/>
	<polygon class="st4" points="520.23,444.65 522.13,447.41 532,449.8 536.26,453.06 551.84,456.67 555.3,455.06 563.46,436.46 
		555.14,430.03 559.02,424.71 548.91,417.74 550.19,414.86 543.8,416.49 539.11,415.04 532.19,410.27 527.63,413.61 525.77,417.52 
		519.28,417.77 517.54,422.5 520.08,423.32 519.48,429.93 521.3,431.33 519.35,435.83 521.13,436.92 	"/>
	<polygon class="st3" points="284.3,383.57 296.97,384.17 300.68,381.46 302.23,383.28 303.73,381.21 300.1,372 300.47,364.52 
		287.77,364.57 283.29,362.31 282.67,364.71 268.74,364.74 268.57,376.75 270.57,376.74 271.21,383.31 	"/>
	<polygon class="st4" points="284.3,383.57 296.97,384.18 300.68,381.46 302.23,383.28 303.73,381.21 300.1,372.01 300.47,364.52 
		287.77,364.58 283.29,362.31 282.67,364.71 268.74,364.74 268.57,376.76 270.57,376.74 271.21,383.31 	"/>
	<polygon class="st3" points="335.76,202.86 350.04,202.88 354.69,205.17 355.46,198.16 353.81,195.62 353.12,189.82 351.17,185.75 
		345.92,177.9 341.67,181.69 342.42,185.03 336.52,186.44 333.02,192.62 330.49,192.99 331.66,194.28 328.76,197.69 328.66,202.84 	
		"/>
	<polygon class="st4" points="335.76,202.86 350.04,202.88 354.69,205.17 355.46,198.16 353.81,195.62 353.12,189.82 351.17,185.75 
		345.92,177.9 341.67,181.69 342.42,185.04 336.52,186.44 333.02,192.62 330.49,192.99 331.66,194.28 328.76,197.69 328.66,202.84 	
		"/>
	<polygon class="st3" points="484.69,240.63 493.52,243.93 499.5,243 501.34,235.71 504.96,232.32 515.78,231.59 524.27,228.49 
		530.7,231.11 532.08,233.06 551.57,219.04 546.26,216.01 545.34,213.93 537.52,211.74 532.5,207.38 533,203.33 528.83,201.95 
		524.78,198.23 520.61,196.81 513.85,200.33 506.83,198.73 503.57,199.96 500.39,195.24 497.11,193.1 488.91,196.17 491.93,199.91 
		488.98,207.97 486.88,217.28 488.5,230.14 	"/>
	<polygon class="st4" points="484.69,240.63 493.52,243.93 499.5,243 501.33,235.71 504.96,232.33 515.78,231.59 524.27,228.49 
		530.7,231.11 532.08,233.06 551.57,219.04 546.26,216.01 545.34,213.93 537.52,211.74 532.5,207.38 532.99,203.33 528.83,201.96 
		524.78,198.23 520.61,196.81 513.85,200.34 506.83,198.73 503.57,199.96 500.39,195.24 497.11,193.1 488.91,196.18 491.93,199.91 
		488.98,207.97 486.87,217.28 488.5,230.14 	"/>
	<polygon class="st3" points="514.68,298.7 521.28,298.09 527.88,301.9 530.93,310.53 544.41,306.78 560.73,301.51 558.26,293.1 
		552.17,285.95 552.86,280.61 551.04,276.16 548.39,273.79 538.97,270.35 529.25,260.67 525.74,259.79 511.91,264.12 509.41,271.1 
		514.52,273.72 514.05,277.25 519.03,283.75 515.74,296.93 	"/>
	<polygon class="st4" points="514.68,298.71 521.28,298.09 527.88,301.9 530.93,310.53 544.41,306.78 560.73,301.51 558.26,293.1 
		552.17,285.95 552.86,280.61 551.04,276.17 548.39,273.79 538.97,270.35 529.25,260.67 525.74,259.8 511.91,264.12 509.41,271.1 
		514.52,273.72 514.05,277.25 519.03,283.76 515.74,296.93 	"/>
	<polygon class="st3" points="536.3,317 538.55,317.12 546.23,325.25 547.13,329.04 550.63,330.45 557.65,328.94 558.31,331.2 
		563.16,331.78 566.22,342.36 569.88,342.54 571.5,347.48 574.4,347 575.31,350.66 583.37,350.73 583.05,344.87 586.25,341.17 
		581.89,334.45 575.41,335.21 573.29,328.27 566.66,321.23 563.22,313.72 562.65,305.26 560.73,301.51 544.41,306.78 530.93,310.53 
		532.99,315.37 	"/>
	<polygon class="st4" points="536.3,317.01 538.54,317.12 546.23,325.25 547.13,329.04 550.63,330.45 557.65,328.94 558.31,331.2 
		563.16,331.78 566.22,342.36 569.88,342.54 571.5,347.48 574.4,347 575.31,350.67 583.37,350.73 583.05,344.87 586.25,341.17 
		581.89,334.46 575.41,335.21 573.29,328.27 566.66,321.23 563.22,313.72 562.65,305.26 560.73,301.51 544.41,306.78 530.93,310.53 
		532.99,315.38 	"/>
	<polygon class="st3" points="372.87,462.43 394.85,463.83 391.47,459.82 387.76,458.7 384.02,451.82 386.24,450.93 386.89,445.68 
		391.5,444.93 395.77,442.12 393.92,439.15 389.63,438.5 387.56,436 388.63,432.51 384.62,424.14 378.89,422.22 376.05,419.5 
		376.12,423.95 362.12,423.57 361.47,461.71 	"/>
	<polygon class="st4" points="372.87,462.43 394.85,463.83 391.46,459.82 387.76,458.7 384.02,451.82 386.24,450.93 386.89,445.69 
		391.5,444.93 395.77,442.13 393.92,439.15 389.63,438.5 387.56,436 388.63,432.51 384.62,424.15 378.89,422.22 376.05,419.5 
		376.12,423.95 362.12,423.57 361.47,461.71 	"/>
	<polygon class="st3" points="500.64,426.29 505,426.31 506.75,419.76 517.54,422.5 519.28,417.77 525.77,417.52 527.63,413.61 
		532.19,410.27 531.37,410.79 535.19,394.07 529.18,390.66 518.62,392.47 508.47,389.65 510.27,394.34 512.7,396.3 511.25,399.33 
		503.39,399.46 499.46,401.93 499.47,404.2 495.37,406.98 492.48,405.13 487.31,404.8 487.47,407.99 494,410.14 494.04,418.83 	"/>
	<polygon class="st4" points="500.64,426.29 505,426.31 506.75,419.76 517.54,422.5 519.28,417.77 525.77,417.52 527.63,413.61 
		532.19,410.27 531.37,410.79 535.19,394.07 529.18,390.66 518.62,392.47 508.47,389.66 510.27,394.34 512.7,396.3 511.25,399.33 
		503.39,399.46 499.46,401.94 499.47,404.21 495.37,406.98 492.48,405.13 487.31,404.8 487.47,407.99 494,410.14 494.04,418.84 	"/>
	<polygon class="st3" points="395.76,298.33 401.16,293.04 399.37,291.23 410.72,279.93 413.68,282.94 406.13,266.44 382.69,279.96 
		382.69,285.13 	"/>
	<polygon class="st4" points="395.76,298.33 401.16,293.04 399.37,291.23 410.72,279.93 413.68,282.94 406.13,266.45 382.69,279.96 
		382.69,285.13 	"/>
	<polygon class="st3" points="365.14,255.37 374.08,258.22 372.88,255.15 375.72,250.66 382.31,244.17 383.43,241.83 381.35,239.69 
		374.04,235.28 368.86,235.27 365.59,232.29 364.32,228.6 348.65,239.34 348.58,242.23 351.7,244.95 354.23,249.92 362.11,255.21 	
		"/>
	<polygon class="st4" points="365.14,255.38 374.08,258.23 372.88,255.15 375.72,250.66 382.31,244.17 383.43,241.83 381.35,239.7 
		374.04,235.28 368.86,235.28 365.59,232.29 364.32,228.6 348.65,239.34 348.58,242.23 351.7,244.96 354.23,249.92 362.11,255.21 	
		"/>
	<polygon class="st3" points="400.23,424.61 408.6,424.81 408.6,421.1 411.25,421.08 411.43,412.53 422.38,412.58 421.63,408.85 
		421.3,403.96 422.79,399.66 419.27,392.49 417.14,391.71 413.55,384.93 413.11,379.68 396.44,379.31 393.78,380.41 393.66,386.88 
		388.17,392.01 388.66,397.78 392.19,401.1 396.68,402.7 396.82,408.05 399.3,410.51 398.01,417.49 401.52,421.15 	"/>
	<polygon class="st4" points="400.23,424.61 408.6,424.81 408.6,421.1 411.25,421.08 411.43,412.53 422.38,412.58 421.63,408.85 
		421.3,403.96 422.79,399.66 419.27,392.49 417.14,391.71 413.55,384.93 413.11,379.68 396.44,379.31 393.78,380.41 393.66,386.88 
		388.17,392.01 388.66,397.78 392.19,401.1 396.68,402.7 396.82,408.05 399.3,410.51 398.01,417.49 401.52,421.15 	"/>
	<polygon class="st3" points="386.52,350.73 397.6,350.86 397.57,358.57 402.75,358.64 402.68,361.25 410.38,361.5 410.44,358.78 
		425.82,359.32 426.05,348.38 423.26,348.65 418.34,345.28 410.36,341.58 407.58,341.92 384.22,341.64 	"/>
	<polygon class="st4" points="386.52,350.73 397.6,350.86 397.57,358.57 402.75,358.64 402.68,361.25 410.38,361.5 410.44,358.79 
		425.82,359.32 426.05,348.38 423.26,348.65 418.34,345.28 410.36,341.58 407.58,341.92 384.22,341.64 	"/>
	<polygon class="st3" points="259.68,111.61 282.43,112.08 282.9,96.51 282.95,77.13 275.98,77.09 275.97,78.82 257.11,78.56 
		252.51,79.25 252.56,83.98 251.02,83.98 250.96,97.95 249.15,97.93 248.95,111.57 	"/>
	<polygon class="st4" points="259.68,111.61 282.43,112.08 282.9,96.52 282.95,77.13 275.98,77.09 275.97,78.82 257.11,78.56 
		252.51,79.25 252.56,83.99 251.02,83.99 250.96,97.96 249.15,97.94 248.95,111.57 	"/>
	<polygon class="st3" points="356.69,127.51 359.96,131.14 367.29,128.78 369.82,129.97 379.28,123.76 377.05,116.88 372.62,115.29 
		359.42,113.29 355.08,106.92 350.79,119.47 	"/>
	<polygon class="st4" points="356.69,127.52 359.96,131.15 367.29,128.78 369.82,129.97 379.28,123.76 377.05,116.89 372.62,115.29 
		359.42,113.29 355.08,106.92 350.79,119.47 	"/>
	<polygon class="st3" points="390.94,99.61 395.05,96.87 396.5,92.88 391.67,86.34 392.65,75.43 391.28,72.06 385.98,69.96 
		379.27,68.85 369.08,78.48 367.87,82.02 372.14,89.4 377.2,93.85 384.2,92.88 	"/>
	<polygon class="st4" points="390.94,99.62 395.05,96.87 396.5,92.88 391.67,86.34 392.65,75.43 391.28,72.06 385.98,69.96 
		379.28,68.85 369.08,78.48 367.87,82.02 372.14,89.4 377.2,93.85 384.2,92.88 	"/>
	<polygon class="st3" points="394.8,231.35 412.95,222.85 419.33,229.24 421.45,225.2 419.84,220.93 421.17,215.43 417,218.6 
		415.43,214.78 417.28,208.14 402.02,204.45 397.09,206.47 388.64,204.64 389.85,212.12 	"/>
	<polygon class="st4" points="394.8,231.35 412.95,222.85 419.33,229.24 421.45,225.21 419.83,220.93 421.17,215.43 417,218.6 
		415.43,214.78 417.28,208.14 402.02,204.45 397.09,206.47 388.64,204.64 389.85,212.12 	"/>
	<polygon class="st3" points="292.49,419.41 295.48,419.47 295.58,414.89 297.69,411.58 307.8,403.08 309.96,396.57 312.3,394.91 
		322.25,391.29 322.44,387.9 327.17,382.94 321.09,383.36 302.23,383.28 300.68,381.46 296.97,384.17 284.3,383.57 283.94,401.25 
		292.98,401.56 	"/>
	<polygon class="st4" points="292.49,419.41 295.48,419.47 295.58,414.89 297.69,411.59 307.8,403.09 309.96,396.57 312.3,394.91 
		322.25,391.3 322.44,387.9 327.17,382.94 321.08,383.37 302.23,383.28 300.68,381.46 296.97,384.18 284.3,383.57 283.94,401.25 
		292.98,401.56 	"/>
	<polygon class="st3" points="457.86,359.37 457.77,370.97 460.53,371.01 460.43,379.98 469.33,380.04 470.44,385.23 476,385.27 
		482.26,383.95 492.45,373.77 491.24,371.24 485.49,367.99 481.93,364.65 476.83,362.77 467,355.51 467,359.39 	"/>
	<polygon class="st4" points="457.86,359.37 457.77,370.97 460.53,371.01 460.43,379.98 469.33,380.05 470.44,385.23 476,385.27 
		482.26,383.95 492.45,373.77 491.24,371.25 485.49,367.99 481.93,364.65 476.83,362.77 467,355.51 467,359.39 	"/>
	<polygon class="st3" points="421.63,408.85 454.03,408.87 451.49,404.86 451.63,399.33 457.66,399.66 457.71,390.65 441.46,390.59 
		439.14,386.66 429.3,386.69 429.26,385.25 413.55,384.93 417.14,391.71 419.27,392.49 422.79,399.66 421.3,403.96 	"/>
	<polygon class="st4" points="421.63,408.85 454.03,408.87 451.49,404.86 451.63,399.33 457.66,399.66 457.71,390.65 441.46,390.59 
		439.14,386.66 429.3,386.69 429.26,385.25 413.55,384.93 417.14,391.71 419.27,392.49 422.79,399.66 421.3,403.96 	"/>
	<polygon class="st3" points="467,355.51 476.83,362.77 481.93,364.65 485.49,367.99 491.24,371.24 492.45,373.77 497.87,379.31 
		500.55,379.78 500.53,349.15 504.3,349.2 502.82,346.47 507.82,343.69 502.76,339.97 501.96,337.59 492.59,334.95 486.85,331.96 
		484.86,333.15 474.76,329.55 474.77,342.59 467.1,342.55 	"/>
	<polygon class="st4" points="467,355.51 476.83,362.77 481.93,364.65 485.49,367.99 491.24,371.25 492.45,373.77 497.87,379.32 
		500.55,379.78 500.53,349.15 504.3,349.2 502.82,346.47 507.82,343.69 502.76,339.97 501.96,337.59 492.59,334.95 486.85,331.96 
		484.86,333.15 474.76,329.55 474.77,342.59 467.1,342.55 	"/>
</g>
<g id="Layer_3">
	<circle class="st5" cx="306.9" cy="147.43" r="29.28"/>
	<circle class="st6" cx="306.9" cy="147.43" r="9.02"/>
</g>
<g>
	<path class="st7" d="M563.92,96.97c0-8.56,5.4-13.64,12.36-13.64c3.72,0,6.28,1.64,7.92,3.32l-2.48,3
		c-1.32-1.28-2.84-2.28-5.28-2.28c-4.64,0-7.76,3.6-7.76,9.48c0,5.96,2.76,9.56,8,9.56c1.48,0,2.92-0.4,3.76-1.16v-5.64h-4.96v-3.8
		h9.12v11.52c-1.76,1.76-4.8,3.12-8.36,3.12C569.16,110.45,563.92,105.65,563.92,96.97z"/>
	<path class="st7" d="M588.72,100.17c0-6.4,4.44-10.32,9.04-10.32c5.32,0,8.12,3.84,8.12,9.32c0,0.88-0.08,1.76-0.2,2.24H593.2
		c0.4,3.48,2.64,5.48,5.8,5.48c1.68,0,3.12-0.52,4.56-1.44l1.56,2.88c-1.88,1.24-4.24,2.12-6.72,2.12
		C592.96,110.45,588.72,106.65,588.72,100.17z M601.88,98.29c0-3.04-1.32-4.88-4-4.88c-2.32,0-4.32,1.72-4.72,4.88H601.88z"/>
	<path class="st7" d="M609,100.17c0-6.56,4.44-10.32,9.32-10.32c4.92,0,9.36,3.76,9.36,10.32c0,6.52-4.44,10.28-9.36,10.28
		C613.44,110.45,609,106.69,609,100.17z M622.96,100.17c0-3.96-1.76-6.56-4.64-6.56c-2.88,0-4.6,2.6-4.6,6.56
		c0,3.92,1.72,6.52,4.6,6.52C621.2,106.69,622.96,104.09,622.96,100.17z"/>
	<path class="st7" d="M632.24,90.33h3.8l0.32,3.48h0.16c1.4-2.56,3.48-3.96,5.56-3.96c1,0,1.64,0.12,2.24,0.4l-0.8,4
		c-0.68-0.2-1.2-0.32-2.04-0.32c-1.56,0-3.44,1.08-4.64,4.04v12h-4.6V90.33z"/>
	<path class="st7" d="M645.44,113.53c0-1.64,1-3.08,2.8-4.2v-0.16c-1-0.64-1.76-1.68-1.76-3.28c0-1.52,1.04-2.84,2.16-3.64v-0.16
		c-1.32-1-2.56-2.88-2.56-5.2c0-4.52,3.64-7.04,7.76-7.04c1.08,0,2.08,0.2,2.88,0.48h7.04v3.4h-3.6c0.64,0.76,1.12,1.96,1.12,3.32
		c0,4.36-3.28,6.68-7.44,6.68c-0.84,0-1.8-0.16-2.68-0.52c-0.6,0.52-0.96,1-0.96,1.88c0,1.12,0.8,1.8,3.2,1.8h3.48
		c4.72,0,7.2,1.44,7.2,4.84c0,3.88-4.08,6.92-10.48,6.92C648.92,118.65,645.44,116.97,645.44,113.53z M659.63,112.49
		c0-1.52-1.24-1.96-3.48-1.96h-2.68c-1.08,0-1.92-0.08-2.68-0.28c-1.04,0.8-1.52,1.68-1.52,2.6c0,1.76,1.92,2.8,5.04,2.8
		C657.47,115.65,659.63,114.17,659.63,112.49z M657.23,96.89c0-2.44-1.48-3.88-3.4-3.88c-1.92,0-3.44,1.4-3.44,3.88
		c0,2.52,1.52,3.96,3.44,3.96C655.71,100.85,657.23,99.41,657.23,96.89z"/>
	<path class="st7" d="M667.04,84.29c0-1.56,1.2-2.64,2.84-2.64s2.84,1.08,2.84,2.64c0,1.52-1.2,2.6-2.84,2.6
		S667.04,85.81,667.04,84.29z M667.56,90.33h4.6v19.64h-4.6V90.33z"/>
	<path class="st7" d="M677,104.69c0-4.2,3.48-6.4,11.56-7.28c-0.08-2.08-0.92-3.84-3.6-3.84c-1.92,0-3.76,0.88-5.52,1.92l-1.68-3.08
		c2.16-1.36,4.96-2.56,8.08-2.56c4.88,0,7.32,3,7.32,8.48v11.64h-3.8l-0.32-2.16h-0.16c-1.76,1.48-3.76,2.64-6.08,2.64
		C679.36,110.45,677,108.13,677,104.69z M688.55,104.69v-4.4c-5.36,0.68-7.12,2.08-7.12,4.04c0,1.76,1.2,2.52,2.84,2.52
		C685.87,106.85,687.07,106.05,688.55,104.69z"/>
	<path class="st7" d="M595.68,123.07h4.2c4.8,0,7.63,2.59,7.63,7.78c0,5.21-2.83,7.92-7.49,7.92h-4.34V123.07z M599.69,136.51
		c3.17,0,4.97-1.8,4.97-5.67c0-3.84-1.8-5.52-4.97-5.52h-1.22v11.19H599.69z"/>
	<path class="st7" d="M610.13,123.36c0-0.94,0.72-1.58,1.7-1.58c0.98,0,1.7,0.65,1.7,1.58c0,0.91-0.72,1.56-1.7,1.56
		C610.85,124.92,610.13,124.27,610.13,123.36z M610.44,126.98h2.76v11.79h-2.76V126.98z"/>
	<path class="st7" d="M615.56,137.43l1.3-1.78c1.06,0.82,2.06,1.32,3.26,1.32c1.27,0,1.87-0.6,1.87-1.42c0-0.98-1.27-1.42-2.52-1.9
		c-1.56-0.58-3.31-1.46-3.31-3.43c0-2.06,1.66-3.53,4.3-3.53c1.63,0,2.95,0.67,3.91,1.42l-1.27,1.68c-0.82-0.6-1.66-1.01-2.59-1.01
		c-1.18,0-1.73,0.55-1.73,1.3c0,0.94,1.18,1.3,2.45,1.75c1.61,0.6,3.38,1.37,3.38,3.58c0,2.02-1.61,3.65-4.58,3.65
		C618.41,139.06,616.71,138.36,615.56,137.43z"/>
	<path class="st7" d="M627,134.79v-5.62h-1.68v-2.06l1.82-0.12l0.34-3.22h2.3v3.22h3v2.18h-3v5.62c0,1.39,0.53,2.06,1.66,2.06
		c0.41,0,0.89-0.12,1.22-0.26l0.48,2.04c-0.65,0.22-1.46,0.43-2.4,0.43C628.01,139.06,627,137.33,627,134.79z"/>
	<path class="st7" d="M635.26,126.98h2.28l0.19,2.09h0.1c0.84-1.54,2.09-2.38,3.34-2.38c0.6,0,0.98,0.07,1.34,0.24l-0.48,2.4
		c-0.41-0.12-0.72-0.19-1.22-0.19c-0.94,0-2.06,0.65-2.78,2.42v7.2h-2.76V126.98z"/>
	<path class="st7" d="M643.9,123.36c0-0.94,0.72-1.58,1.7-1.58c0.98,0,1.7,0.65,1.7,1.58c0,0.91-0.72,1.56-1.7,1.56
		C644.62,124.92,643.9,124.27,643.9,123.36z M644.21,126.98h2.76v11.79h-2.76V126.98z"/>
	<path class="st7" d="M649.73,132.89c0-3.94,2.76-6.19,5.9-6.19c1.51,0,2.59,0.58,3.46,1.32l-1.34,1.8
		c-0.62-0.55-1.22-0.86-1.97-0.86c-1.9,0-3.22,1.56-3.22,3.94c0,2.35,1.3,3.91,3.14,3.91c0.91,0,1.75-0.46,2.42-1.01l1.13,1.82
		c-1.1,0.96-2.5,1.44-3.84,1.44C652.2,139.06,649.73,136.8,649.73,132.89z"/>
	<path class="st7" d="M661.76,134.79v-5.62h-1.68v-2.06l1.82-0.12l0.34-3.22h2.3v3.22h3v2.18h-3v5.62c0,1.39,0.53,2.06,1.66,2.06
		c0.41,0,0.89-0.12,1.22-0.26l0.48,2.04c-0.65,0.22-1.46,0.43-2.4,0.43C662.76,139.06,661.76,137.33,661.76,134.79z"/>
</g>
</svg>
