<?xml version="1.0" encoding="utf-8"?>
<!-- Generator: Adobe Illustrator 25.4.1, SVG Export Plug-In . SVG Version: 6.00 Build 0)  -->
<svg version="1.1" xmlns="http://www.w3.org/2000/svg" xmlns:xlink="http://www.w3.org/1999/xlink" x="0px" y="0px"
	 viewBox="0 0 784.06 507.87" style="enable-background:new 0 0 784.06 507.87;" xml:space="preserve">
<style type="text/css">
	.st0{fill:#002E6D;}
	.st1{fill-rule:evenodd;clip-rule:evenodd;fill:none;stroke:#FFFFFF;stroke-width:3;stroke-miterlimit:10;}
	.st2{fill:#FFFFFF;}
	.st3{fill:none;stroke:#0675AF;stroke-miterlimit:10;}
	.st4{opacity:0.8039;fill:#007DBC;}
	.st5{fill:#A5A5A5;}
	.st6{fill:none;stroke:#868788;stroke-width:0.6353;stroke-linejoin:bevel;stroke-miterlimit:10;}
	.st7{fill:none;stroke:#0675AF;stroke-width:4;stroke-linejoin:bevel;stroke-miterlimit:10;}
	.st8{fill:#E6E6E6;}
	.st9{opacity:0.8;}
	.st10{opacity:0.8039;}
	.st11{fill:#007DBC;}
	.st12{opacity:0.8039;fill:#EDC948;}
	.st13{fill:none;stroke:#0675AF;stroke-width:0.675;stroke-linejoin:bevel;stroke-miterlimit:10;}
	.st14{opacity:0.8039;fill:#59A14F;}
	.st15{opacity:0.8039;fill:#76B7B2;}
	.st16{opacity:0.8039;fill:#E15759;}
	.st17{opacity:0.8039;fill:#9C755F;}
	.st18{opacity:0.8039;fill:#4E79A7;}
	.st19{fill-rule:evenodd;clip-rule:evenodd;fill:#F28E2B;}
	.st20{opacity:0.8;fill:#A5A5A5;}
	.st21{fill:none;stroke:#868788;stroke-width:0.675;stroke-linejoin:bevel;stroke-miterlimit:10;}
	.st22{fill:none;stroke:#0675AF;stroke-width:0.67;stroke-linejoin:bevel;stroke-miterlimit:10;}
</style>
<g id="Tools">
</g>
<g id="Background">
	<rect x="-11.18" y="-11.39" class="st8" width="804.92" height="529.99"/>
</g>
<g id="Fresno" class="st9">
</g>
<g id="Layer_12" class="st10">
	<polygon class="st11" points="249.92,177.8 254.28,174.96 255.27,175.87 255.27,165.89 255.77,163.79 257.58,163.23 258.17,161.5 
		259.9,160.68 261.26,158.26 262.99,157.51 265.44,157.67 264.96,151.38 264.02,150.23 265.35,149.09 265.94,144.96 263.29,147.13 
		262.09,148.67 260.39,149.28 260.39,150.76 256.81,150.75 256.83,151.44 254.26,151.11 253.88,153.35 253.1,153.72 253.1,155.94 
		251.95,157.06 251.59,159.04 250.25,160.29 247.55,160.64 244.07,162.09 242.14,161.37 241.18,164.31 242.04,165.98 241.88,168.32 
		243.15,173.1 242.21,174.68 243.74,180.74 244.84,179.03 246.97,178.03 	"/>
	<polygon class="st11" points="222.72,202.29 224.57,202.11 226.32,203.53 229.1,201.26 232.34,201 236.08,201.66 237.13,201.05 
		238.86,201.6 238.88,212.36 242.89,212.39 245.71,210.02 245.91,207.65 245.3,206.59 246.44,205.96 246.21,204.34 244.22,203.07 
		245.56,202.01 246.31,198.6 244.59,197.94 243.99,195.77 242.84,195.68 241.41,192.97 242.9,189.67 241.66,188.54 241.25,189.46 
		238.95,189.42 239.02,188.01 237.74,187.59 237.73,185.13 236.69,184.17 235.32,184.91 234.12,183.9 234.46,181.94 233.29,181.47 
		210.84,181.43 210.12,182.67 211.19,184.52 213.02,185.95 215.42,185.76 217.51,190.82 217.94,192.85 220.15,195.11 221.74,198.74 
			"/>
	<polygon class="st11" points="165.77,126.32 165.76,127.6 189.89,127.54 189.19,126.5 188.82,121.25 187.69,118.9 188.46,116.79 
		187.72,113.49 185.25,112.56 184.7,111.58 184.56,109.24 187.41,105.93 187.33,104.78 189.04,104.62 191.16,103.37 193.37,100.26 
		195.45,99.77 195.77,98.4 198.23,96.62 199.19,96.92 198.76,93.7 197.08,90.64 198.25,90.35 198.45,87.66 200.33,86.28 
		200.48,83.55 203.07,79.69 202.8,76.65 205.94,73.69 206.51,69.82 208.74,69.38 209.18,66.1 207.11,64.86 206.15,63.25 
		206.52,59.56 207.88,57.64 205,55.45 203.68,55.6 203.45,57.34 201.28,57.41 200.97,59.27 198.66,60.03 198.17,61.42 196.1,62.34 
		194.74,63.82 191.79,63.69 189.83,65.15 188.81,64.93 189.19,66.53 188.33,68.57 188.59,70.14 190.31,70.67 191.34,72.95 
		190.54,74.76 188.68,73.82 185.83,74.23 185.1,72 181.7,70.29 177.82,70.47 176.48,68 173.39,65.92 172.22,66.51 171.15,65.01 
		170.19,65.94 170.32,68.26 168.95,70.45 170.56,71.4 171.24,73.72 169.37,76.32 169.58,77.39 168.24,78.9 165.15,77.05 
		163.9,78.25 162.69,78.02 163.91,81.37 165.16,83.36 164.96,85.54 165.78,88.06 	"/>
	<polygon class="st11" points="189.89,127.54 190.44,130.68 189.28,131.15 188.86,134.39 189.75,136.81 224.96,136.84 
		224.06,134.63 225.03,132.4 234.55,132.38 236.66,131.22 236.83,129.59 238.53,127.23 240.79,127.32 241.19,125.08 242.78,123.44 
		243.15,121.23 246.14,121.23 248.42,120.11 249.05,118.57 248.96,116.34 250.22,116.53 251.76,115.45 252.48,112.15 251.43,111.01 
		252.79,110.4 251.23,108.81 247.73,108.3 247.18,105.9 247.59,104.49 246.65,103.35 243.99,103.34 243.06,104.07 240.77,103.92 
		239.22,102.96 237.29,103.87 234.44,103.38 231.56,103.84 229.13,104.93 226.39,104.34 221.69,105.78 214.53,107.22 209.22,107.1 
		206.09,106 201.09,109.43 197.22,107.5 193.05,108.69 192.32,108.36 190.24,110.58 188.19,110.12 184.7,111.58 185.25,112.56 
		187.72,113.49 188.46,116.79 187.69,118.9 188.82,121.25 189.19,126.5 	"/>
	<polygon class="st11" points="233.29,181.47 234.46,181.94 234.12,183.9 235.32,184.91 236.69,184.17 237.73,185.13 237.74,187.59 
		239.02,188.01 238.95,189.42 241.25,189.46 241.66,188.54 242.9,189.67 242.49,191.04 247.17,191.1 247.76,190.25 247.77,181.39 
		249.94,181.38 249.92,177.8 246.97,178.03 244.84,179.03 243.74,180.74 242.21,174.68 243.15,173.1 241.88,168.32 242.04,165.98 
		241.18,164.31 241.67,162.56 241.13,162.06 230.42,162.14 228.85,165.38 229.59,167.58 228.95,168.42 231.18,173.95 232.78,174.02 
		234.8,177.72 233.12,179.89 	"/>
	<polygon class="st11" points="171.15,65.01 172.22,66.51 173.39,65.92 176.48,68 177.82,70.47 181.7,70.29 185.1,72 185.83,74.23 
		188.68,73.82 190.54,74.76 191.34,72.95 190.31,70.67 188.59,70.14 188.33,68.57 189.19,66.53 188.81,64.93 189.83,65.15 
		191.79,63.69 194.74,63.82 196.1,62.34 198.17,61.42 198.66,60.03 200.97,59.27 201.28,57.41 203.45,57.34 203.68,55.6 205,55.45 
		207.88,57.64 206.52,59.56 206.15,63.25 207.11,64.86 248.67,64.82 248.25,24.34 248.63,21.81 211.86,21.17 185.49,21.51 
		181.51,21.19 173.55,21.73 166.82,21.63 164.94,26.83 163.02,28.01 161.88,27.56 160.78,30.42 159.48,30.73 160.7,32.53 
		160.08,33.29 161.19,36.85 160.03,39.21 158.86,43.12 160.32,43.17 159.86,45.15 161.67,46.32 162.21,48.93 163.11,50.16 
		161.65,52.34 161.15,54.38 167.48,54.35 168.55,55.22 169.79,61.36 169.29,62.02 	"/>
	<polygon class="st11" points="305.69,154.92 305.79,140.71 305.21,141.41 279.98,141.52 278.93,143.05 276.22,140.85 
		274.52,141.35 273.61,139.44 271.42,137.9 268.91,139.86 268.32,143.26 265.94,144.96 265.35,149.09 264.02,150.23 264.96,151.38 
		265.44,157.67 266.61,156.5 269.01,156.36 272.76,155.17 274.55,155.12 277.63,152.99 279.79,150.9 282.99,150.92 283.86,151.43 
		284.71,153.93 285.86,154.87 	"/>
	<polygon class="st11" points="246.65,103.35 253.36,103.36 253.67,79.37 253.19,79.39 253.23,64.8 207.11,64.86 209.18,66.1 
		208.74,69.38 206.51,69.82 205.94,73.69 202.8,76.65 203.07,79.69 200.48,83.55 200.33,86.28 198.45,87.66 198.25,90.35 
		197.08,90.64 198.76,93.7 199.19,96.92 198.23,96.62 195.77,98.4 195.45,99.77 193.37,100.26 191.16,103.37 189.04,104.62 
		187.33,104.78 187.41,105.93 184.56,109.24 184.7,111.58 188.19,110.12 190.24,110.58 192.32,108.36 193.05,108.69 197.22,107.5 
		201.09,109.43 206.09,106 209.22,107.1 214.53,107.22 221.69,105.78 226.39,104.34 229.13,104.93 231.56,103.84 234.44,103.38 
		237.29,103.87 239.22,102.96 240.77,103.92 243.06,104.07 243.99,103.34 	"/>
	<polygon class="st11" points="244.32,237.13 244.32,250.99 246.39,251.82 247.67,254.02 255.5,246.22 258.92,243.75 260.04,242.28 
		262.84,241.07 265.18,241.1 266.48,240.13 269.45,241.21 269.22,224.24 268.73,223.69 265.28,213.16 263.94,213.19 257.55,215.86 
		255.71,215.45 252.93,216.63 249.7,216.21 247.69,215.08 245.41,218.39 245.59,219.5 243.26,222.43 243.81,223.26 243.33,227.7 
		244.28,231.95 243.42,235.15 245.12,235.54 	"/>
	<polygon class="st11" points="237.18,223.86 243.81,223.26 243.26,222.43 245.59,219.5 245.41,218.39 247.69,215.08 249.7,216.21 
		252.93,216.63 255.71,215.45 257.55,215.86 263.94,213.19 265.28,213.16 265.24,202.56 261.62,191.97 260.75,192.24 247.17,191.1 
		242.49,191.04 241.41,192.97 242.84,195.68 243.99,195.77 244.59,197.94 246.31,198.6 245.56,202.01 244.22,203.07 246.21,204.34 
		246.44,205.96 245.3,206.59 245.91,207.65 245.71,210.02 242.89,212.39 242.4,213.28 242.51,217.06 242,218.3 240.01,219.13 
		238.35,222.87 	"/>
	<polygon class="st11" points="246.65,103.35 247.59,104.49 247.18,105.9 247.73,108.3 251.23,108.81 252.79,110.4 251.43,111.01 
		252.48,112.15 251.76,115.45 250.22,116.53 248.96,116.34 249.05,118.57 250.33,118.59 250.32,120.45 251.82,121.97 249.74,125.6 
		250.1,128.56 249.33,130.81 250.04,133.04 252.04,133.86 252.46,135.39 255.72,138.32 255.73,139.07 257.98,140.54 258.07,141.84 
		259.55,142.6 260.92,145.54 262.46,145.92 263.29,147.13 268.32,143.26 268.91,139.86 271.42,137.9 273.61,139.44 274.52,141.35 
		276.22,140.85 278.93,143.05 279.98,141.52 300.02,141.46 301.46,138.48 301.54,129.53 299.37,128.03 298.62,125.72 297.88,125.72 
		297.55,121.98 296.08,121.99 296.08,120.84 292.34,120.47 289.71,118.8 288.21,117.28 287.88,115.78 286.75,115.78 285.65,113.55 
		283.05,112.78 283.04,111.66 281.22,111.65 280.06,110.51 275.63,110.08 274.35,110.86 274.38,112.06 272.89,112.42 271.38,113.93 
		271.38,116.11 269.14,116.5 268.44,115.01 266.17,115 263.89,113.16 263.89,103.31 	"/>
	<polygon class="st11" points="247.17,191.1 260.75,192.24 262.25,188.52 262.33,187 264.01,185.4 264.19,182.73 267.99,180.72 
		268.68,179.55 271.7,179.95 273.73,177.61 275.49,177.15 277.27,177.69 279.96,180.23 281.63,180.52 283.52,182.02 285.61,181.11 
		287.23,179.35 288.64,176.19 292.87,176.49 298.56,176.05 300.16,174.21 305.74,174.2 305.59,161.5 280.32,161.57 277.05,162.96 
		274.04,165.75 272.19,166.83 271.42,168.49 268.39,170.33 266.86,172.43 266.61,173.82 264.67,176.93 262.16,177.01 260.88,175.7 
		258.99,176.94 257.62,177.03 255.27,175.87 254.28,174.96 249.92,177.8 249.94,181.38 247.77,181.39 247.76,190.25 	"/>
	<polygon class="st11" points="255.27,175.87 257.62,177.03 258.99,176.94 260.88,175.7 262.16,177.01 264.67,176.93 266.61,173.82 
		266.86,172.43 268.39,170.33 271.42,168.49 272.19,166.83 274.04,165.75 277.05,162.96 280.32,161.57 305.59,161.5 305.69,154.92 
		285.86,154.87 284.71,153.93 283.86,151.43 282.99,150.92 279.79,150.9 277.63,152.99 274.55,155.12 272.76,155.17 269.01,156.36 
		266.61,156.5 265.44,157.67 262.99,157.51 261.26,158.26 259.9,160.68 258.17,161.5 257.58,163.23 255.77,163.79 255.27,165.89 	
		"/>
	<polygon class="st11" points="248.63,21.81 248.25,24.34 248.67,64.82 305.84,64.8 305.87,21.97 	"/>
	<polygon class="st11" points="253.23,64.8 253.19,79.39 253.67,79.37 253.36,103.36 263.89,103.31 263.89,113.16 266.17,115 
		268.44,115.01 269.14,116.5 271.38,116.11 271.38,113.93 272.89,112.42 274.38,112.06 274.35,110.86 275.63,110.08 280.06,110.51 
		281.22,111.65 283.04,111.66 283.05,112.78 285.65,113.55 286.75,115.78 287.88,115.78 288.21,117.28 289.71,118.8 292.34,120.47 
		296.08,120.84 296.08,121.99 297.55,121.98 297.88,125.72 298.62,125.72 299.37,128.03 301.54,129.53 301.46,138.48 300.02,141.46 
		305.21,141.41 305.79,140.71 305.95,122.81 305.84,64.8 	"/>
	<polygon class="st11" points="191.81,148.01 197.73,147.98 197.59,158.09 221.43,157.97 221.42,156.49 226.45,156.54 
		226.42,158.06 231.15,158.06 231.91,154.69 231.65,151.62 232.47,150.22 227.04,150.38 226.67,148.36 227.1,145.47 228.06,144.51 
		227.39,143.39 229.11,141.95 225.83,138.37 224.96,136.84 189.75,136.81 189.72,139.39 190.74,139.38 190.73,141.4 191.52,141.4 	
		"/>
	<polygon class="st11" points="265.24,202.56 268.55,201.57 270.86,201.71 272.58,200.13 275.79,200.19 281.01,202.81 
		285.67,202.38 290.88,200.71 293.25,200.78 295.32,199.88 296.99,198.08 297.35,196.47 300.42,195.83 301.45,192.56 302.97,192.71 
		307.22,189 310.68,184.16 309.62,181.02 305.8,177.65 305.74,174.2 300.16,174.21 298.56,176.05 292.87,176.49 288.64,176.19 
		287.23,179.35 285.61,181.11 283.52,182.02 281.63,180.52 279.96,180.23 277.27,177.69 275.49,177.15 273.73,177.61 271.7,179.95 
		268.68,179.55 267.99,180.72 264.19,182.73 264.01,185.4 262.33,187 262.25,188.52 260.75,192.24 261.62,191.97 	"/>
	<polygon class="st11" points="197.59,158.09 196.17,161.74 196.88,163.14 199.89,165.47 204.14,167.23 206.44,166.98 
		208.05,170.25 207.17,170.48 207.39,174.93 210.46,176.6 210.63,179.52 213.36,181.48 233.29,181.47 233.12,179.89 234.8,177.72 
		232.78,174.02 231.18,173.95 228.95,168.42 229.59,167.58 228.85,165.38 230.42,162.14 231.15,158.06 226.42,158.06 226.45,156.54 
		221.42,156.49 221.43,157.97 	"/>
	<polygon class="st11" points="266.5,216.8 268.73,223.69 279.99,236.53 280.79,235.11 283.28,233.4 285.48,230.46 284.7,228.62 
		287.55,227.53 288.35,225.18 290.53,222.3 291.26,220.48 295.16,214.5 297.73,211.56 298.86,209.35 300.47,208.21 302.36,207.84 
		305.05,206.33 302.97,205.64 302.97,202.46 300.89,203.17 297.71,202.91 292.75,204.72 289.11,204.31 287.6,205.68 286.08,205.61 
		285.14,206.87 281.53,208.54 280.9,211.02 276.7,212.65 276.02,213.63 273.82,213.96 271.08,216.02 267.42,217.2 	"/>
	<polygon class="st11" points="224.96,136.84 225.83,138.37 229.11,141.95 227.39,143.39 228.06,144.51 227.1,145.47 226.67,148.36 
		227.04,150.38 232.47,150.22 231.65,151.62 231.91,154.69 230.42,162.14 241.13,162.06 241.67,162.56 242.14,161.37 244.07,162.09 
		247.55,160.64 250.25,160.29 251.59,159.04 251.95,157.06 253.1,155.94 253.1,153.72 253.88,153.35 254.26,151.11 256.83,151.44 
		256.81,150.75 260.39,150.76 260.39,149.28 262.09,148.67 263.29,147.13 262.46,145.92 260.92,145.54 259.55,142.6 258.07,141.84 
		257.98,140.54 255.73,139.07 255.72,138.32 252.46,135.39 252.04,133.86 250.04,133.04 249.33,130.81 250.1,128.56 249.74,125.6 
		251.82,121.97 250.32,120.45 250.33,118.59 249.05,118.57 248.42,120.11 246.14,121.23 243.15,121.23 242.78,123.44 241.19,125.08 
		240.79,127.32 238.53,127.23 236.83,129.59 236.66,131.22 234.55,132.38 225.03,132.4 224.06,134.63 	"/>
	<polygon class="st11" points="265.24,202.56 265.28,213.16 266.5,216.8 267.42,217.2 271.08,216.02 273.82,213.96 276.02,213.63 
		276.7,212.65 280.9,211.02 281.53,208.54 285.14,206.87 286.08,205.61 287.6,205.68 289.11,204.31 292.75,204.72 297.71,202.91 
		300.89,203.17 302.97,202.46 302.97,192.71 301.45,192.56 300.42,195.83 297.35,196.47 296.99,198.08 295.32,199.88 293.25,200.78 
		290.88,200.71 285.67,202.38 281.01,202.81 275.79,200.19 272.58,200.13 270.86,201.71 268.55,201.57 	"/>
</g>
<g id="Layer_11">
</g>
<g id="Layer_10">
</g>
<g id="Layer_8">
</g>
<g id="Layer_7">
</g>
<g id="Layer_13">
</g>
<g id="Layer_5">
</g>
<g id="Layer_6">
	<g>
		<path class="st4" d="M438.89,99.6l2.72-3.16c1.88,1.76,4.4,2.96,6.8,2.96c2.96,0,4.56-1.32,4.56-3.36c0-2.16-1.68-2.84-4.04-3.84
			l-3.6-1.56c-2.56-1.08-5.28-3.12-5.28-6.96c0-4.16,3.68-7.36,8.8-7.36c3.04,0,6,1.28,8.04,3.32l-2.36,2.96
			c-1.68-1.4-3.44-2.24-5.68-2.24c-2.48,0-4.12,1.16-4.12,3.08c0,2.04,2,2.8,4.16,3.68l3.56,1.48c3.08,1.32,5.28,3.28,5.28,7.08
			c0,4.24-3.52,7.76-9.4,7.76C444.81,103.44,441.37,102.04,438.89,99.6z"/>
		<path class="st4" d="M461.05,97.68c0-4.2,3.48-6.4,11.56-7.28c-0.08-2.08-0.92-3.84-3.6-3.84c-1.92,0-3.76,0.88-5.52,1.92
			l-1.68-3.08c2.16-1.36,4.96-2.56,8.08-2.56c4.88,0,7.32,3,7.32,8.48v11.64h-3.8l-0.32-2.16h-0.16c-1.76,1.48-3.76,2.64-6.08,2.64
			C463.41,103.44,461.05,101.12,461.05,97.68z M472.61,97.68v-4.4c-5.36,0.68-7.12,2.08-7.12,4.04c0,1.76,1.2,2.52,2.84,2.52
			C469.93,99.84,471.13,99.04,472.61,97.68z"/>
		<path class="st4" d="M481.45,93.16c0-6.56,4.6-10.32,9.84-10.32c2.52,0,4.32,0.96,5.76,2.2l-2.24,3
			c-1.04-0.92-2.04-1.44-3.28-1.44c-3.16,0-5.36,2.6-5.36,6.56c0,3.92,2.16,6.52,5.24,6.52c1.52,0,2.92-0.76,4.04-1.68l1.88,3.04
			c-1.84,1.6-4.16,2.4-6.4,2.4C485.57,103.44,481.45,99.68,481.45,93.16z"/>
		<path class="st4" d="M501.21,83.33h3.8l0.32,3.48h0.16c1.4-2.56,3.48-3.96,5.56-3.96c1,0,1.64,0.12,2.24,0.4l-0.8,4
			c-0.68-0.2-1.2-0.32-2.04-0.32c-1.56,0-3.44,1.08-4.64,4.04v12h-4.6V83.33z"/>
		<path class="st4" d="M514.05,97.68c0-4.2,3.48-6.4,11.56-7.28c-0.08-2.08-0.92-3.84-3.6-3.84c-1.92,0-3.76,0.88-5.52,1.92
			l-1.68-3.08c2.16-1.36,4.96-2.56,8.08-2.56c4.88,0,7.32,3,7.32,8.48v11.64h-3.8l-0.32-2.16h-0.16c-1.76,1.48-3.76,2.64-6.08,2.64
			C516.41,103.44,514.05,101.12,514.05,97.68z M525.61,97.68v-4.4c-5.36,0.68-7.12,2.08-7.12,4.04c0,1.76,1.2,2.52,2.84,2.52
			C522.93,99.84,524.13,99.04,525.61,97.68z"/>
		<path class="st4" d="M535.73,83.33h3.8l0.32,2.68h0.16c1.64-1.76,3.56-3.16,6-3.16c2.88,0,4.52,1.32,5.44,3.52
			c1.88-2,3.84-3.52,6.32-3.52c4.16,0,6.08,2.84,6.08,7.8v12.32h-4.64V91.24c0-3.24-0.96-4.44-3-4.44c-1.24,0-2.6,0.8-4.12,2.44
			v13.72h-4.6V91.24c0-3.24-0.96-4.44-3.04-4.44c-1.2,0-2.6,0.8-4.12,2.44v13.72h-4.6V83.33z"/>
		<path class="st4" d="M568.17,93.16c0-6.4,4.44-10.32,9.04-10.32c5.32,0,8.12,3.84,8.12,9.32c0,0.88-0.08,1.76-0.2,2.24h-12.48
			c0.4,3.48,2.64,5.48,5.8,5.48c1.68,0,3.12-0.52,4.56-1.44l1.56,2.88c-1.88,1.24-4.24,2.12-6.72,2.12
			C572.41,103.44,568.17,99.64,568.17,93.16z M581.33,91.28c0-3.04-1.32-4.88-4-4.88c-2.32,0-4.32,1.72-4.72,4.88H581.33z"/>
		<path class="st4" d="M589.73,83.33h3.8l0.32,2.64h0.16c1.76-1.72,3.76-3.12,6.44-3.12c4.2,0,6.04,2.84,6.04,7.8v12.32h-4.6V91.24
			c0-3.24-0.92-4.44-3.08-4.44c-1.72,0-2.84,0.84-4.48,2.44v13.72h-4.6V83.33z"/>
		<path class="st4" d="M612.81,96.32v-9.36h-2.8v-3.44l3.04-0.2l0.56-5.36h3.84v5.36h5v3.64h-5v9.36c0,2.32,0.88,3.44,2.76,3.44
			c0.68,0,1.48-0.2,2.04-0.44l0.8,3.4c-1.08,0.36-2.44,0.72-4,0.72C614.49,103.44,612.81,100.56,612.81,96.32z"/>
		<path class="st4" d="M624.65,93.16c0-6.56,4.44-10.32,9.32-10.32c4.92,0,9.36,3.76,9.36,10.32c0,6.52-4.44,10.28-9.36,10.28
			C629.09,103.44,624.65,99.68,624.65,93.16z M638.61,93.16c0-3.96-1.76-6.56-4.64-6.56c-2.88,0-4.6,2.6-4.6,6.56
			c0,3.92,1.72,6.52,4.6,6.52C636.85,99.68,638.61,97.08,638.61,93.16z"/>
		<path class="st4" d="M505.88,116.07h4.2c4.8,0,7.63,2.59,7.63,7.78c0,5.21-2.83,7.92-7.49,7.92h-4.34V116.07z M509.89,129.51
			c3.17,0,4.97-1.8,4.97-5.67c0-3.84-1.8-5.52-4.97-5.52h-1.22v11.19H509.89z"/>
		<path class="st4" d="M520.33,116.35c0-0.94,0.72-1.58,1.7-1.58c0.98,0,1.7,0.65,1.7,1.58c0,0.91-0.72,1.56-1.7,1.56
			C521.05,117.91,520.33,117.27,520.33,116.35z M520.64,119.98h2.76v11.79h-2.76V119.98z"/>
		<path class="st4" d="M525.75,130.42l1.3-1.78c1.06,0.82,2.06,1.32,3.26,1.32c1.27,0,1.87-0.6,1.87-1.42c0-0.98-1.27-1.42-2.52-1.9
			c-1.56-0.58-3.31-1.46-3.31-3.43c0-2.06,1.66-3.53,4.3-3.53c1.63,0,2.95,0.67,3.91,1.42l-1.27,1.68c-0.82-0.6-1.66-1.01-2.59-1.01
			c-1.18,0-1.73,0.55-1.73,1.3c0,0.94,1.18,1.3,2.45,1.75c1.61,0.6,3.38,1.37,3.38,3.58c0,2.02-1.61,3.65-4.58,3.65
			C528.61,132.05,526.9,131.35,525.75,130.42z"/>
		<path class="st4" d="M537.2,127.78v-5.62h-1.68v-2.06l1.82-0.12l0.34-3.22h2.3v3.22h3v2.18h-3v5.62c0,1.39,0.53,2.06,1.66,2.06
			c0.41,0,0.89-0.12,1.22-0.26l0.48,2.04c-0.65,0.22-1.46,0.43-2.4,0.43C538.21,132.05,537.2,130.32,537.2,127.78z"/>
		<path class="st4" d="M545.46,119.98h2.28l0.19,2.09h0.1c0.84-1.54,2.09-2.38,3.34-2.38c0.6,0,0.98,0.07,1.34,0.24l-0.48,2.4
			c-0.41-0.12-0.72-0.19-1.22-0.19c-0.94,0-2.06,0.65-2.78,2.42v7.2h-2.76V119.98z"/>
		<path class="st4" d="M554.1,116.35c0-0.94,0.72-1.58,1.7-1.58c0.98,0,1.7,0.65,1.7,1.58c0,0.91-0.72,1.56-1.7,1.56
			C554.82,117.91,554.1,117.27,554.1,116.35z M554.41,119.98h2.76v11.79h-2.76V119.98z"/>
		<path class="st4" d="M559.93,125.88c0-3.94,2.76-6.19,5.9-6.19c1.51,0,2.59,0.58,3.46,1.32l-1.34,1.8
			c-0.62-0.55-1.22-0.86-1.97-0.86c-1.9,0-3.22,1.56-3.22,3.94c0,2.35,1.3,3.91,3.14,3.91c0.91,0,1.75-0.46,2.42-1.01l1.13,1.82
			c-1.1,0.96-2.5,1.44-3.84,1.44C562.4,132.05,559.93,129.8,559.93,125.88z"/>
		<path class="st4" d="M571.95,127.78v-5.62h-1.68v-2.06l1.82-0.12l0.34-3.22h2.3v3.22h3v2.18h-3v5.62c0,1.39,0.53,2.06,1.66,2.06
			c0.41,0,0.89-0.12,1.22-0.26l0.48,2.04c-0.65,0.22-1.46,0.43-2.4,0.43C572.96,132.05,571.95,130.32,571.95,127.78z"/>
	</g>
</g>
<g id="Layer_14">
	<polygon class="st20" points="326.51,405.76 334.2,410.69 336.3,415.96 340.21,418.82 347.53,421.43 347.69,420.01 353.7,415.55 
		358.47,415.57 358.49,412.12 359.87,412.13 359.71,409.66 350.02,385.73 346.27,385.72 346.27,384.69 335.72,384.59 335.72,382.5 
		334.41,381.44 330.24,381.44 330.25,380.42 327.87,380.4 327.88,401.8 327.5,404.62 	"/>
	<polygon class="st20" points="324.25,457.55 322.73,458.79 326.83,460.88 328.69,460.19 	"/>
	<polygon class="st20" points="326.51,405.76 327.5,404.62 327.88,401.8 327.87,380.4 324.18,380.58 321.01,378.02 318.73,376.91 
		315.89,376.91 312.52,375.36 311.59,374.09 309.38,373.73 308.66,372.75 306.62,372.86 302.17,370.13 299.16,372.06 298.4,374.13 
		292.83,374.89 293.9,377.4 294,380.1 288.52,376.23 286.23,375.97 280.78,377.59 280.18,376.86 279.33,380.26 281.72,382.47 
		280.65,387.4 282.11,389.86 280.35,395.82 285.63,398.58 287.94,402.3 294.01,401.14 305.53,401.58 310.66,404.15 317.33,404.7 
		323.36,403.9 	"/>
	<polygon class="st20" points="309.12,419.9 310.81,424.54 317.11,425.43 323.23,423.81 323.09,420.94 320.41,422.94 317.17,421.52 
			"/>
	<polygon class="st20" points="303.68,421.8 296.44,423.15 301.11,428.63 307.08,426.35 	"/>
	<polygon class="st20" points="291.38,420.06 288.54,421.77 294.01,422.6 	"/>
	<polygon class="st20" points="347.53,421.43 353.03,423.58 355.43,422.05 362.28,421.61 365.4,423.31 369.44,431.37 368.61,435.92 
		373.08,437.4 374.96,434.53 381.02,434.35 382.53,430.92 385.79,428.23 385.8,426.17 393.43,426.15 392.66,424.75 394.05,422.46 
		395.29,422.71 397.61,415.71 398.87,409.74 398.03,396.91 398.02,384.19 350.92,384.42 350.02,385.73 359.71,409.66 359.87,412.13 
		358.49,412.12 358.47,415.57 353.7,415.55 347.69,420.01 	"/>
	<polygon class="st20" points="360.92,448.35 365.55,451.15 366.84,455.79 372.02,456.86 372.61,455.09 370.16,451.61 	"/>
	<polygon class="st20" points="361.4,469.29 365.14,477.96 368.04,480.25 370.34,478.64 365.46,474.35 	"/>
	<polygon class="st20" points="400.84,452.73 405.45,456.54 411.52,465.49 414.31,475.41 413.24,478.51 415.1,484.3 417.8,485.18 
		419.49,492.87 459.71,488.91 459.82,467.46 460.7,467.46 460.54,450.87 414.85,450.58 414.84,449.78 409.73,447.8 409.99,447.12 
		404.25,447.12 404.25,448.7 401.53,449.54 	"/>
	<polygon class="st20" points="468.81,488.08 514.5,484.21 515.19,482.96 518.61,483.76 522.12,482.41 521.93,480.81 524.41,478.27 
		524.65,475.32 522.53,469.68 519.3,469.78 517.46,468.69 516.43,469.19 515.02,466.82 516.12,463.29 516.19,458.23 514.36,457.38 
		515.31,453.93 514.32,452.07 518.16,450.51 460.54,450.87 460.7,467.46 459.82,467.46 459.71,488.91 	"/>
	<polygon class="st20" points="393.43,426.15 397.76,429.75 398.49,427.16 400.25,427.16 400.27,424.94 402.33,424.14 
		402.32,421.98 409.56,421.97 409.55,422.67 415.48,422.7 415.48,423.39 427.18,423.36 427.17,421.97 490.93,421.97 490.93,419.88 
		525.73,419.79 526.5,418.46 530.23,417 531.6,415.45 532.82,415.33 536.44,411.58 537.58,411.28 537.47,409.11 535.95,406.91 
		534,406.11 529.52,402.02 527.66,401.71 527.89,398.26 525.69,395.04 525.12,391.63 524.26,389.43 521.1,386.87 519.53,383.29 
		518.11,382.21 517.91,375.55 477.8,336.41 474.35,336.41 474.34,337.17 399.37,336.99 399.32,341.24 398.61,342.66 400.04,342.65 
		399.34,344.08 399.41,384.2 398.02,384.19 398.03,396.91 398.87,409.74 397.61,415.71 395.29,422.71 394.05,422.46 392.66,424.75 	
		"/>
	<polygon class="st20" points="404.25,447.12 409.99,447.12 409.73,447.8 414.84,449.78 414.85,450.58 460.54,450.87 518.16,450.51 
		518.32,449.41 520.89,445.81 522.22,444.84 521.58,443.02 522.31,442.08 521.91,439.31 523.32,438.01 522.9,434.64 522.07,432.4 
		522,430.37 523.03,429.98 521.8,427.13 525.62,422.51 525.73,419.79 490.93,419.88 490.93,421.97 427.17,421.97 427.18,423.36 
		415.48,423.39 415.48,422.7 409.55,422.67 409.56,421.97 402.32,421.98 402.33,424.14 400.27,424.94 400.25,427.16 398.49,427.16 
		397.76,429.75 401.44,434.56 403.19,435.12 403.29,437.37 405.63,437.69 408.07,439.81 404.23,445.74 	"/>
	<polygon class="st20" points="380.68,435.41 383.64,438.9 393.32,445.35 396.15,449.25 400.84,452.73 401.53,449.54 404.25,448.7 
		404.23,445.74 408.07,439.81 405.63,437.69 403.29,437.37 403.19,435.12 401.44,434.56 397.76,429.75 393.43,426.15 385.8,426.17 
		385.79,428.23 382.53,430.92 	"/>
	<polygon class="st20" points="187.18,213.27 187.48,212.76 190.97,212.05 197.56,217.73 201.19,219.02 204.47,218.98 
		204.75,220.08 207.3,222.58 210.71,220.3 212.12,220.22 212.71,218.91 212.31,215.72 210.81,213.99 211.21,212.81 209.1,209.05 
		207.14,206.78 207.71,205.35 205.87,204.5 205.31,201.95 202.26,199.92 201.26,197.96 201.97,196.75 202.01,194.5 201.25,192.54 
		199.46,192.3 197.23,188.4 197.21,187.57 194.33,185.24 184.08,185.13 184.07,185.84 181.89,185.78 181.9,187.32 172.73,187.45 
		172.73,188.95 167.56,188.89 166.79,189.81 174.13,199.67 182.18,205.44 184.99,213.14 	"/>
	<polygon class="st20" points="240.01,219.13 242,218.3 242.51,217.06 242.4,213.28 242.89,212.39 238.88,212.36 238.86,201.6 
		237.13,201.05 236.08,201.66 232.34,201 229.1,201.26 226.32,203.53 224.57,202.11 222.72,202.29 221.81,206.55 223.9,209.98 
		224.24,212.25 218.66,212.26 219.36,214.48 218.41,214.42 219.06,216.55 218.3,219.1 219.08,220.34 215.31,220.33 217.82,224.86 
		221.61,225.95 224.32,221.33 226.31,223.43 230.32,224.01 230.81,225.6 234.55,224.98 238.31,222.31 	"/>
	<polygon class="st20" points="215,220.33 210.75,220.3 217,224.28 	"/>
	<polygon class="st20" points="215.22,272.63 217.99,276.7 222.62,280.11 227.75,280.21 229.19,279.02 232.36,281.55 234.24,285.34 
		235.33,283.57 237.68,282.18 240.87,283.17 241.44,282.3 243.34,282.85 243.35,281.93 241.63,280.89 240.8,281.29 240.07,279.76 
		238.73,279.29 236.37,275.47 233.83,273.57 227.15,270.8 225.77,269.69 224.62,267.41 222.69,266.33 220.77,263.74 220.76,267.26 
		217.21,267.28 217.21,268.52 214.25,268.68 	"/>
	<polygon class="st20" points="243.34,282.85 246.01,280.65 246.99,278.77 248.45,278.49 249.79,279.89 257.81,279.85 
		256.63,278.29 256.6,276.67 258.04,274.56 256.72,273.35 257.36,271.26 255.16,268.84 253.34,269.71 252.31,268.83 250.33,270.21 
		249.84,267.47 248.31,265.58 248.18,263.92 250.28,262.52 249.57,260.14 250.01,258.62 248.27,258.32 247.64,256.93 247.64,254 
		232.12,253.88 229.75,255.38 222.24,254.8 219.27,256.55 218.8,259.91 219.88,261.79 219.21,262.11 222.69,266.33 224.62,267.41 
		225.77,269.69 227.15,270.8 233.83,273.57 236.37,275.47 238.73,279.29 240.07,279.76 240.8,281.29 241.63,280.89 243.35,281.93 	
		"/>
	<polygon class="st20" points="206.93,242.73 206.27,251.45 208.22,253.08 210.93,260.05 210.24,265.97 213.78,272.38 
		215.22,272.63 214.25,268.68 217.21,268.52 217.21,267.28 220.76,267.26 220.77,263.74 219.21,262.11 219.88,261.79 218.8,259.91 
		219.27,256.55 222.24,254.8 218.8,251.09 211.49,246.66 211.26,242.72 	"/>
	<polygon class="st20" points="211.26,242.72 212.69,241.71 210.19,237.59 206.51,239 206.93,242.73 	"/>
	<polygon class="st20" points="210.75,220.3 210.71,220.3 210.79,220.3 	"/>
	<polygon class="st20" points="210.79,220.3 219.08,220.34 218.3,219.1 219.06,216.55 218.41,214.42 219.36,214.48 218.66,212.26 
		224.24,212.25 223.9,209.98 221.81,206.55 222.72,202.29 221.74,198.74 220.15,195.11 217.94,192.85 217.51,190.82 215.42,185.76 
		213.02,185.95 211.19,184.52 212.04,186.92 211.07,187.58 208.47,192.59 202.01,194.5 201.97,196.75 201.26,197.96 202.26,199.92 
		205.31,201.95 205.87,204.5 207.71,205.35 207.14,206.78 209.1,209.05 211.21,212.81 210.81,213.99 212.31,215.72 212.71,218.91 
		212.12,220.22 	"/>
	<polygon class="st20" points="146.85,126.35 153.54,134.96 156.2,143.88 156.74,150.37 154.86,155.21 154.57,159.85 156.82,167.74 
		158.8,170.74 160.04,176 158.14,180.17 161.7,185.48 166.79,189.81 167.56,188.89 172.73,188.95 172.73,187.45 181.9,187.32 
		181.89,185.78 184.07,185.84 184.08,185.13 194.33,185.24 191.45,183.69 191.48,182.94 189.3,182.7 188.16,180.34 187.81,177.77 
		186.18,177.8 185.06,176.56 184.71,174.35 183.61,173.97 184.21,168.78 185.7,167.83 187.49,165.61 186.51,163.47 186.5,161.23 
		184.32,156.84 184.79,151.93 186.29,151.16 189.78,151.27 191.62,150.63 191.52,141.4 190.73,141.4 190.74,139.38 189.72,139.39 
		189.75,136.81 188.86,134.39 189.28,131.15 190.44,130.68 189.89,127.54 165.76,127.6 165.77,126.32 	"/>
	<polygon class="st20" points="187.18,213.27 191.93,221.93 187.47,216.02 189.31,220.35 186.77,228.06 189.81,223.89 
		190.22,226.61 194.36,228.31 199.04,233.45 201.4,233.27 205.79,237.18 207.88,236.86 206.16,233.87 209.02,234.52 207.24,229.62 
		207.3,222.58 204.75,220.08 204.47,218.98 201.19,219.02 197.56,217.73 190.97,212.05 187.48,212.76 	"/>
	<polygon class="st20" points="191.81,148.01 191.62,150.63 189.78,151.27 186.29,151.16 184.79,151.93 184.32,156.84 186.5,161.23 
		186.51,163.47 187.49,165.61 185.7,167.83 184.21,168.78 183.61,173.97 184.71,174.35 185.06,176.56 186.18,177.8 187.81,177.77 
		188.16,180.34 189.3,182.7 191.48,182.94 191.45,183.69 194.33,185.24 197.21,187.57 197.23,188.4 199.46,192.3 201.25,192.54 
		202.01,194.5 208.47,192.59 211.07,187.58 212.04,186.92 210.12,182.67 210.84,181.43 213.36,181.48 210.63,179.52 210.46,176.6 
		207.39,174.93 207.17,170.48 208.05,170.25 206.44,166.98 204.14,167.23 199.89,165.47 196.88,163.14 196.17,161.74 197.59,158.09 
		197.73,147.98 	"/>
	<polygon class="st20" points="145.19,50.03 143.55,62.34 141.51,66.95 141.7,71.64 143.35,72.99 140.33,83.57 132.46,99.98 
		131.62,103.48 133.98,110.32 133.41,112.92 140.34,119.68 143.37,121.04 144.57,124.8 146.85,126.35 165.77,126.32 165.78,88.06 
		164.96,85.54 165.16,83.36 163.91,81.37 162.69,78.02 163.9,78.25 165.15,77.05 168.24,78.9 169.58,77.39 169.37,76.32 
		171.24,73.72 170.56,71.4 168.95,70.45 170.32,68.26 170.19,65.94 171.15,65.01 169.29,62.02 169.79,61.36 168.55,55.22 
		167.48,54.35 156.85,54.45 156.83,50.05 	"/>
	<polygon class="st20" points="139.4,21.76 139.6,27.04 137.66,33.2 141.39,35.61 143.75,42.68 145.19,50.03 156.83,50.05 
		156.85,54.45 161.15,54.38 161.65,52.34 163.11,50.16 162.21,48.93 161.67,46.32 159.86,45.15 160.32,43.17 158.86,43.12 
		160.03,39.21 161.19,36.85 160.08,33.29 160.7,32.53 159.48,30.73 160.78,30.42 161.88,27.56 163.02,28.01 164.94,26.83 
		166.82,21.63 161.32,21.94 	"/>
	<polygon class="st20" points="214.45,233.27 216.09,232.85 217.95,234.22 219.45,237.11 221.24,237.91 225,238.24 226.89,239.98 
		226.33,240.77 228.35,242.21 244.32,237.13 245.12,235.54 243.42,235.15 244.28,231.95 243.33,227.7 240.34,225.33 237.03,227.15 
		225.91,225.22 220.81,226.99 217.15,225.21 209.83,229.9 211.44,232.55 	"/>
	<polygon class="st20" points="214.45,233.27 213.84,238.22 217.18,238.96 216.48,241.13 220.33,244.55 222.65,253.17 227.8,255.07 
		229.75,255.38 232.12,253.88 247.67,254.02 246.39,251.82 244.32,250.99 244.32,237.13 228.35,242.21 226.33,240.77 226.89,239.98 
		225,238.24 221.24,237.91 219.45,237.11 217.95,234.22 216.09,232.85 	"/>
	<polygon class="st20" points="290.52,246.45 290.35,243.96 292.95,245.69 293.73,244.87 292.19,241.9 298.37,239.75 298.62,238.38 
		300.8,239.06 302.69,236.7 309.51,240.25 311.19,239.53 313.37,240.39 319.51,237.62 319.82,235.8 321.24,235.48 322.99,233.05 
		324.25,232.99 326.61,235.36 328.49,234.8 329.36,236.28 331.43,236.83 334.72,241.18 337.4,237.93 336.88,234.65 337.42,233.98 
		333.17,230.79 332.6,229.58 333.32,226.93 331.53,223.83 329.66,222.77 327.03,223.19 326.8,221.69 322.57,220.21 322.21,218.87 
		320.35,218.14 321.48,216.32 321.12,214.99 319.61,213.73 320.09,211.7 317.69,209.77 317.73,207.51 315.56,207.17 313.67,207.94 
		310.39,210.22 305.05,206.33 302.36,207.84 300.47,208.21 298.86,209.35 297.73,211.56 295.16,214.5 291.26,220.48 290.53,222.3 
		288.35,225.18 287.55,227.53 284.7,228.62 285.48,230.46 283.28,233.4 280.79,235.11 279.99,236.53 	"/>
	<polygon class="st20" points="322.7,303.15 324.48,303.21 324.46,307.44 326.59,307.46 326.6,313.94 324.43,313.89 324.09,337.36 
		384.55,337.38 384.65,333.8 385.62,333.59 385.19,329.84 384.15,329 384.73,327.89 383.54,326.66 382.23,322.58 382.42,318.58 
		381.29,317.45 379.83,313.38 381.01,310.89 378.55,307.81 379.42,306.63 378.67,305.91 376.38,305.79 374.99,303.46 375.58,302.91 
		374.91,300.53 373.39,299.72 374.02,297.81 372.19,296.35 371.86,294.39 370.39,293.17 371.64,292.49 370.62,290.54 346.05,290.7 
		345.95,294.86 333.31,294.69 333.3,298.98 326.93,298.9 	"/>
	<polygon class="st20" points="257.36,271.26 267.73,260.79 266.93,258.12 290.52,246.45 279.99,236.53 269.22,224.24 
		269.45,241.21 266.48,240.13 265.18,241.1 262.84,241.07 260.04,242.28 258.92,243.75 255.5,246.22 247.64,254 247.64,256.93 
		248.27,258.32 250.01,258.62 249.57,260.14 250.28,262.52 248.18,263.92 248.31,265.58 249.84,267.47 250.33,270.21 252.31,268.83 
		253.34,269.71 255.16,268.84 	"/>
	<polygon class="st20" points="280.18,376.86 280.78,377.59 286.23,375.97 288.52,376.23 294,380.1 293.9,377.4 292.83,374.89 
		298.4,374.13 299.16,372.06 302.17,370.13 306.62,372.86 308.66,372.75 309.38,373.73 311.59,374.09 312.52,375.36 315.89,376.91 
		318.73,376.91 321.01,378.02 324.18,380.58 326.67,380.4 326.67,371.93 325.97,371.21 323.18,371.41 323.48,366.95 318.99,367.2 
		319.01,362.96 313.36,362.9 313.37,358.68 310.57,358.66 310.57,354.4 305.94,354.38 305.94,352.96 302.41,350.16 302.44,345.88 
		298.17,345.89 298.16,337.38 252.59,337.09 255.19,343.33 259.85,344.96 266.17,353.35 270.05,353.95 271.74,358.87 270.36,363.66 
		275.96,367.89 280.11,368.5 280.94,372.67 	"/>
	<polygon class="st20" points="240.87,283.17 241.73,285.54 242.7,285.98 246.4,289.93 247.29,289.52 248.45,291.56 247.17,292.11 
		247.82,293.47 250.18,294.89 252.48,295.29 253.74,297.19 253.33,299.91 254.64,301.26 254.11,302.63 256.67,302.26 258.67,305.27 
		264.71,311.24 264.73,313.83 266.62,313.89 266.9,312.76 268.15,313.66 269.46,311.88 271.65,312.78 274.64,315.6 275.74,317.14 
		277.72,317.39 277.92,315.98 276.33,311.92 279.02,314.02 279.8,311.62 282.26,311.02 282.24,303.18 268.94,290.19 260.73,286.01 
		258.48,282.18 257.04,281.55 257.81,279.85 249.79,279.89 248.45,278.49 246.99,278.77 246.01,280.65 243.34,282.85 241.44,282.3 	
		"/>
	<polygon class="st20" points="234.24,285.34 235.17,287.59 234.05,293.9 231.16,297.61 229.31,295.86 229.29,303.97 230.77,312.07 
		233.3,314.9 238,317.57 241.28,321.17 243.65,325.95 246.1,326.78 248.05,332.68 252.59,337.09 297.38,337.38 297.11,335.9 
		295.59,334.66 296.22,333.07 294.81,331.64 293.38,331.63 291.62,328.86 288.72,328.62 286.92,326.6 284.48,325.31 280.2,321.82 
		279.44,319.25 281.06,317.16 278.89,314.81 279.02,314.02 276.33,311.92 277.92,315.98 277.72,317.39 275.74,317.14 274.64,315.6 
		271.65,312.78 269.46,311.88 268.15,313.66 266.9,312.76 266.62,313.89 264.73,313.83 264.71,311.24 258.67,305.27 256.67,302.26 
		254.11,302.63 254.64,301.26 253.33,299.91 253.74,297.19 252.48,295.29 250.18,294.89 247.82,293.47 247.17,292.11 248.45,291.56 
		247.29,289.52 246.4,289.93 242.7,285.98 241.73,285.54 240.87,283.17 237.68,282.18 235.33,283.57 	"/>
	<polygon class="st20" points="320.09,211.7 319.61,213.73 321.12,214.99 321.48,216.32 320.35,218.14 322.21,218.87 322.57,220.21 
		326.8,221.69 327.03,223.19 329.66,222.77 331.53,223.83 333.32,226.93 332.6,229.58 333.17,230.79 337.42,233.98 336.88,234.65 
		337.4,237.93 334.72,241.18 336.81,242.43 337.51,241.31 340.44,241.45 342.78,243.91 344.06,246.61 344.47,248.84 346.26,250.28 
		348.63,250.61 351.26,254.32 353.37,253.68 354.24,254.95 391.48,254.86 356.65,223 322.22,192.18 321.06,194.58 320.89,197.74 
		323.9,202.98 323.14,207.47 320.77,208.32 321.35,209.7 	"/>
	<polygon class="st20" points="257.36,271.26 256.72,273.35 258.04,274.56 256.6,276.67 256.63,278.29 257.81,279.85 257.04,281.55 
		258.48,282.18 260.73,286.01 269.53,290.76 287,273.16 292.35,271.77 296.85,269.84 301.09,269.74 303.78,268.87 302.15,266.91 
		298.78,264.93 298.62,263.49 295.32,258.06 294.97,255.92 290.51,246.46 266.93,258.12 267.73,260.79 	"/>
	<polygon class="st20" points="290.51,246.46 294.97,255.92 295.32,258.06 298.62,263.49 298.78,264.93 302.15,266.91 
		303.78,268.87 315.25,257.24 319.62,257.21 319.62,255.04 321.03,255.03 321.04,253.38 322.27,253.38 322.29,250.11 333.14,239.24 
		331.43,236.83 329.36,236.28 328.49,234.8 326.61,235.36 324.25,232.99 322.99,233.05 321.24,235.48 319.82,235.8 319.51,237.62 
		313.37,240.39 311.19,239.53 309.51,240.25 302.69,236.7 300.8,239.06 298.62,238.38 298.37,239.75 292.19,241.9 293.73,244.87 
		292.95,245.69 290.35,243.96 	"/>
	<polygon class="st20" points="284.41,275.75 288.04,282.27 287.8,284.71 290.51,286.64 291.2,288.57 293.02,288.5 296.74,289.33 
		302.68,286.57 304.7,287.09 306.45,285.8 308.07,286.13 310.38,284.93 313,285.45 314.21,283 316.35,280.48 316.09,279.43 
		318.05,277.34 319.33,277.28 319.29,276.01 320.81,276.62 321.45,274.42 323.1,274.76 324.1,272.76 322.87,272.12 323.24,270.82 
		324.67,271.5 325.33,270.48 326.76,272.48 327.17,270.73 328.83,269.81 330.08,270.52 332.26,267.77 332.63,265.7 332.13,262.44 
		334.02,259.34 344.47,248.84 344.06,246.61 342.78,243.91 340.44,241.45 337.51,241.31 336.81,242.43 334.72,241.18 333.14,239.24 
		322.29,250.11 322.27,253.38 321.04,253.38 321.03,255.03 319.62,255.04 319.62,257.21 315.25,257.24 303.78,268.87 301.09,269.74 
		296.85,269.84 292.35,271.77 287,273.16 	"/>
	<polygon class="st20" points="293.38,331.63 294.81,331.64 296.22,333.07 295.59,334.66 297.11,335.9 297.38,337.38 324.09,337.36 
		324.43,313.89 326.6,313.94 326.59,307.46 324.46,307.44 324.48,303.21 322.7,303.15 319,306.59 318.82,305.99 315.83,306.7 
		315.56,307.41 307.41,307.47 307.45,318.23 	"/>
	<polygon class="st20" points="298.16,337.38 298.17,345.89 302.44,345.88 302.41,350.16 305.94,352.96 305.94,354.38 310.57,354.4 
		310.57,358.66 313.37,358.68 313.36,362.9 319.01,362.96 318.99,367.2 323.48,366.95 323.18,371.41 325.97,371.21 326.67,371.93 
		326.67,380.4 330.25,380.42 330.24,381.44 334.41,381.44 335.72,382.5 335.72,384.59 346.27,384.69 346.27,385.72 350.02,385.73 
		350.92,384.42 399.41,384.2 399.34,344.08 400.04,342.65 398.61,342.66 399.32,341.24 399.37,336.99 387.85,336.94 387.91,337.5 
		366.29,337.22 	"/>
	<polygon class="st20" points="370.62,290.54 371.64,292.49 370.39,293.17 371.86,294.39 372.19,296.35 374.02,297.81 
		373.39,299.72 374.91,300.53 375.58,302.91 374.99,303.46 376.38,305.79 378.67,305.91 379.42,306.63 378.55,307.81 381.01,310.89 
		379.83,313.38 381.29,317.45 382.42,318.58 382.23,322.58 383.54,326.66 384.73,327.89 384.15,329 385.19,329.84 385.62,333.59 
		384.65,333.8 384.55,337.38 387.91,337.5 387.85,336.94 474.34,337.17 474.35,336.41 477.8,336.41 444.61,304.61 391.48,254.86 
		354.24,254.95 354.85,256.32 353.65,258.39 354.51,260.02 353.78,260.91 355.63,262.31 356.58,261.66 358.58,265 357.82,265.9 
		357.93,267.77 359,270.91 361.45,271.09 363.61,272.31 366.4,274.64 367.17,274.54 367.96,277.34 370.61,283.49 370.58,285.58 
		369.47,286.12 	"/>
	<polygon class="st20" points="279.02,314.02 278.89,314.81 281.06,317.16 279.44,319.25 280.2,321.82 284.48,325.31 286.92,326.6 
		288.72,328.62 291.62,328.86 293.38,331.63 307.45,318.23 307.41,307.47 315.56,307.41 315.83,306.7 318.82,305.99 319,306.59 
		326.93,298.9 333.3,298.98 333.31,294.69 345.95,294.86 346.05,290.7 370.62,290.54 369.47,286.12 370.58,285.58 370.61,283.49 
		367.96,277.34 367.17,274.54 366.4,274.64 363.61,272.31 361.45,271.09 359,270.91 357.93,267.77 357.82,265.9 358.58,265 
		356.58,261.66 355.63,262.31 353.78,260.91 354.51,260.02 353.65,258.39 354.85,256.32 354.24,254.95 353.37,253.68 351.26,254.32 
		348.63,250.61 346.26,250.28 344.47,248.84 334.02,259.34 332.13,262.44 332.63,265.7 332.26,267.77 330.08,270.52 328.83,269.81 
		327.17,270.73 326.76,272.48 325.33,270.48 324.67,271.5 323.24,270.82 322.87,272.12 324.1,272.76 323.1,274.76 321.45,274.42 
		320.81,276.62 319.29,276.01 319.33,277.28 318.05,277.34 316.09,279.43 316.35,280.48 314.21,283 313,285.45 310.38,284.93 
		308.07,286.13 306.45,285.8 304.7,287.09 302.68,286.57 296.74,289.33 293.02,288.5 291.2,288.57 290.51,286.64 287.8,284.71 
		288.04,282.27 284.41,275.75 269.53,290.76 282.24,303.18 282.26,311.02 279.8,311.62 	"/>
	<polygon class="st20" points="302.97,202.46 302.97,205.64 305.05,206.33 310.39,210.22 313.67,207.94 315.56,207.17 
		317.73,207.51 317.69,209.77 320.09,211.7 321.35,209.7 320.77,208.32 323.14,207.47 323.9,202.98 320.89,197.74 321.06,194.58 
		322.22,192.18 309.62,181.02 310.68,184.16 307.22,189 302.97,192.71 	"/>
</g>
<g id="Layer_4">
	<g>
		<g>
			<polygon class="st21" points="187.18,213.27 187.48,212.76 190.97,212.05 197.56,217.73 201.19,219.02 204.47,218.98 
				204.75,220.08 207.3,222.58 210.71,220.3 212.12,220.22 212.71,218.91 212.31,215.72 210.81,213.99 211.21,212.81 209.1,209.06 
				207.14,206.78 207.71,205.35 205.87,204.5 205.31,201.95 202.26,199.92 201.26,197.96 201.97,196.75 202.01,194.5 201.25,192.54 
				199.46,192.3 197.23,188.4 197.21,187.57 194.33,185.24 184.08,185.13 184.07,185.84 181.89,185.78 181.9,187.32 172.72,187.45 
				172.73,188.95 167.56,188.89 166.79,189.81 174.13,199.67 182.18,205.44 184.99,213.14 			"/>
			<polygon class="st21" points="240.01,219.13 242,218.3 242.51,217.06 242.4,213.28 242.89,212.39 238.88,212.36 238.86,201.6 
				237.13,201.05 236.08,201.66 232.34,201 229.1,201.26 226.32,203.53 224.57,202.11 222.72,202.29 221.81,206.55 223.9,209.98 
				224.24,212.25 218.66,212.26 219.36,214.48 218.41,214.42 219.06,216.55 218.3,219.1 219.08,220.34 215.31,220.33 217.82,224.86 
				221.61,225.95 224.32,221.33 226.31,223.43 230.32,224.01 230.81,225.6 234.55,224.98 238.31,222.31 			"/>
			<polygon class="st21" points="215,220.33 210.75,220.3 217,224.28 			"/>
			<polygon class="st21" points="215.22,272.63 217.99,276.69 222.62,280.11 227.75,280.21 229.19,279.02 232.36,281.55 
				234.24,285.34 235.33,283.57 237.68,282.18 240.87,283.17 241.44,282.3 243.34,282.85 243.35,281.93 241.63,280.88 240.8,281.29 
				240.07,279.76 238.73,279.29 236.37,275.47 233.83,273.57 227.15,270.8 225.77,269.69 224.62,267.41 222.69,266.33 
				220.77,263.74 220.76,267.26 217.21,267.28 217.21,268.52 214.25,268.68 			"/>
			<polygon class="st21" points="243.34,282.85 246.01,280.65 246.99,278.77 248.45,278.49 249.79,279.89 257.81,279.85 
				256.63,278.29 256.6,276.67 258.04,274.56 256.72,273.35 257.36,271.26 255.16,268.84 253.34,269.71 252.31,268.83 
				250.33,270.21 249.84,267.47 248.31,265.58 248.18,263.92 250.28,262.52 249.57,260.14 250.01,258.62 248.27,258.32 
				247.64,256.93 247.64,254 232.12,253.88 229.75,255.38 222.24,254.8 219.27,256.55 218.8,259.91 219.88,261.79 219.21,262.11 
				222.69,266.33 224.62,267.41 225.77,269.69 227.15,270.8 233.83,273.57 236.37,275.47 238.73,279.29 240.07,279.76 240.8,281.29 
				241.63,280.88 243.35,281.93 			"/>
			<polygon class="st21" points="206.93,242.73 206.27,251.45 208.22,253.08 210.93,260.05 210.24,265.97 213.78,272.38 
				215.22,272.63 214.25,268.68 217.21,268.52 217.21,267.28 220.76,267.26 220.77,263.74 219.21,262.11 219.88,261.79 
				218.8,259.91 219.27,256.55 222.24,254.8 218.8,251.09 211.49,246.66 211.26,242.72 			"/>
			<polygon class="st21" points="211.26,242.72 212.69,241.71 210.19,237.59 206.51,239 206.93,242.73 			"/>
			<polygon class="st21" points="210.75,220.3 210.71,220.3 210.79,220.3 			"/>
			<polygon class="st21" points="210.79,220.3 219.08,220.34 218.3,219.1 219.06,216.55 218.41,214.42 219.36,214.48 218.66,212.26 
				224.24,212.25 223.9,209.98 221.81,206.55 222.72,202.29 221.74,198.74 220.15,195.11 217.94,192.85 217.51,190.82 
				215.42,185.76 213.02,185.95 211.19,184.52 212.04,186.92 211.07,187.58 208.47,192.59 202.01,194.5 201.97,196.75 
				201.26,197.96 202.26,199.92 205.31,201.95 205.87,204.5 207.71,205.35 207.14,206.78 209.1,209.06 211.21,212.81 210.81,213.99 
				212.31,215.72 212.71,218.91 212.12,220.22 			"/>
			<polygon class="st21" points="146.85,126.35 153.54,134.96 156.2,143.88 156.74,150.37 154.86,155.21 154.57,159.85 
				156.82,167.74 158.8,170.74 160.04,176 158.14,180.17 161.7,185.48 166.79,189.81 167.56,188.89 172.73,188.95 172.72,187.45 
				181.9,187.32 181.89,185.78 184.07,185.84 184.08,185.13 194.33,185.24 191.45,183.69 191.48,182.94 189.3,182.7 188.16,180.34 
				187.81,177.77 186.18,177.8 185.06,176.56 184.71,174.35 183.61,173.97 184.21,168.78 185.7,167.83 187.49,165.61 186.51,163.47 
				186.5,161.23 184.32,156.84 184.79,151.94 186.29,151.16 189.78,151.27 191.62,150.63 191.52,141.4 190.73,141.4 190.74,139.38 
				189.72,139.39 189.75,136.81 188.86,134.39 189.28,131.15 190.44,130.68 189.89,127.54 165.76,127.6 165.77,126.32 			"/>
			<polygon class="st21" points="187.18,213.27 191.93,221.93 187.47,216.03 189.31,220.35 186.77,228.05 189.81,223.89 
				190.22,226.61 194.36,228.31 199.04,233.45 201.4,233.27 205.79,237.18 207.88,236.86 206.16,233.87 209.02,234.52 
				207.24,229.62 207.3,222.58 204.75,220.08 204.47,218.98 201.19,219.02 197.56,217.73 190.97,212.05 187.48,212.76 			"/>
			<polygon class="st21" points="191.81,148.01 191.62,150.63 189.78,151.27 186.29,151.16 184.79,151.94 184.32,156.84 
				186.5,161.23 186.51,163.47 187.49,165.61 185.7,167.83 184.21,168.78 183.61,173.97 184.71,174.35 185.06,176.56 186.18,177.8 
				187.81,177.77 188.16,180.34 189.3,182.7 191.48,182.94 191.45,183.69 194.33,185.24 197.21,187.57 197.23,188.4 199.46,192.3 
				201.25,192.54 202.01,194.5 208.47,192.59 211.07,187.58 212.04,186.92 210.12,182.66 210.84,181.43 213.36,181.48 
				210.63,179.52 210.46,176.6 207.39,174.93 207.17,170.48 208.05,170.25 206.44,166.98 204.14,167.23 199.89,165.47 
				196.88,163.14 196.17,161.74 197.59,158.09 197.73,147.98 			"/>
			<polygon class="st21" points="145.19,50.03 143.55,62.34 141.51,66.95 141.7,71.64 143.35,72.99 140.33,83.57 132.46,99.98 
				131.62,103.48 133.98,110.32 133.41,112.93 140.34,119.68 143.37,121.04 144.57,124.81 146.85,126.35 165.77,126.32 
				165.78,88.06 164.96,85.54 165.16,83.36 163.91,81.37 162.69,78.02 163.9,78.25 165.15,77.05 168.24,78.9 169.58,77.39 
				169.37,76.32 171.24,73.72 170.56,71.4 168.95,70.45 170.32,68.26 170.19,65.94 171.15,65.01 169.29,62.02 169.78,61.36 
				168.55,55.22 167.48,54.35 156.85,54.45 156.83,50.05 			"/>
			<polygon class="st21" points="139.4,21.76 139.6,27.04 137.66,33.2 141.39,35.61 143.75,42.68 145.19,50.03 156.83,50.05 
				156.85,54.45 161.15,54.38 161.65,52.34 163.11,50.16 162.21,48.93 161.67,46.32 159.86,45.15 160.32,43.17 158.86,43.12 
				160.03,39.21 161.19,36.85 160.08,33.29 160.7,32.53 159.47,30.73 160.77,30.42 161.88,27.56 163.02,28.01 164.94,26.83 
				166.82,21.63 161.32,21.94 			"/>
			<polygon class="st21" points="214.45,233.27 216.09,232.85 217.95,234.22 219.45,237.11 221.24,237.91 225,238.24 226.89,239.98 
				226.33,240.77 228.35,242.21 244.32,237.13 245.12,235.54 243.42,235.16 244.28,231.95 243.33,227.7 240.34,225.33 
				237.03,227.15 225.91,225.22 220.81,226.99 217.15,225.21 209.83,229.9 211.44,232.55 			"/>
			<polygon class="st21" points="214.45,233.27 213.84,238.22 217.18,238.96 216.48,241.13 220.33,244.55 222.65,253.17 
				227.8,255.07 229.75,255.38 232.12,253.88 247.67,254.02 246.39,251.82 244.32,250.99 244.32,237.13 228.35,242.21 
				226.33,240.77 226.89,239.98 225,238.24 221.24,237.91 219.45,237.11 217.95,234.22 216.09,232.85 			"/>
			<polygon class="st21" points="400.84,452.73 405.45,456.54 411.52,465.49 414.31,475.41 413.24,478.51 415.1,484.3 417.8,485.18 
				419.49,492.87 459.71,488.91 459.82,467.46 460.7,467.46 460.54,450.86 414.85,450.58 414.84,449.78 409.73,447.8 409.99,447.12 
				404.25,447.12 404.25,448.7 401.53,449.54 			"/>
			<polygon class="st21" points="468.81,488.08 514.5,484.21 515.19,482.96 518.61,483.75 522.12,482.41 521.93,480.81 
				524.41,478.27 524.65,475.32 522.53,469.68 519.3,469.79 517.46,468.69 516.43,469.19 515.02,466.82 516.12,463.29 
				516.19,458.23 514.36,457.38 515.31,453.93 514.32,452.07 518.16,450.51 460.54,450.86 460.7,467.46 459.82,467.46 
				459.71,488.91 			"/>
			<polygon class="st22" points="249.92,177.8 254.28,174.96 255.27,175.87 255.27,165.89 255.77,163.79 257.58,163.23 
				258.17,161.5 259.9,160.68 261.26,158.26 262.99,157.51 265.44,157.67 264.96,151.38 264.02,150.23 265.35,149.09 265.94,144.96 
				263.29,147.13 262.09,148.67 260.39,149.28 260.39,150.76 256.81,150.75 256.83,151.44 254.26,151.11 253.88,153.35 
				253.1,153.72 253.1,155.94 251.95,157.06 251.59,159.04 250.25,160.29 247.55,160.64 244.07,162.09 242.14,161.37 241.18,164.31 
				242.04,165.98 241.88,168.32 243.15,173.1 242.21,174.68 243.74,180.74 244.84,179.03 246.97,178.03 			"/>
			<polygon class="st21" points="222.72,202.29 224.57,202.11 226.32,203.53 229.1,201.26 232.34,201 236.08,201.66 237.13,201.05 
				238.86,201.6 238.88,212.36 242.89,212.39 245.71,210.02 245.91,207.65 245.3,206.59 246.44,205.96 246.21,204.34 244.22,203.07 
				245.56,202.01 246.31,198.6 244.59,197.94 243.99,195.77 242.84,195.68 241.41,192.97 242.9,189.67 241.65,188.54 241.25,189.46 
				238.95,189.42 239.02,188.01 237.73,187.59 237.73,185.13 236.69,184.17 235.32,184.91 234.12,183.9 234.46,181.94 
				233.29,181.47 210.84,181.43 210.12,182.66 211.19,184.52 213.02,185.95 215.42,185.76 217.51,190.82 217.94,192.85 
				220.15,195.11 221.74,198.74 			"/>
			<polygon class="st22" points="165.77,126.32 165.76,127.6 189.89,127.54 189.19,126.5 188.82,121.25 187.69,118.9 188.46,116.79 
				187.72,113.49 185.25,112.56 184.7,111.58 184.56,109.24 187.41,105.93 187.33,104.78 189.04,104.62 191.16,103.37 
				193.37,100.26 195.45,99.77 195.77,98.4 198.23,96.62 199.19,96.92 198.76,93.7 197.08,90.64 198.25,90.35 198.45,87.66 
				200.33,86.28 200.48,83.55 203.07,79.69 202.8,76.65 205.94,73.69 206.51,69.82 208.74,69.38 209.18,66.1 207.11,64.86 
				206.15,63.25 206.52,59.56 207.88,57.64 205,55.45 203.67,55.6 203.45,57.34 201.28,57.41 200.97,59.27 198.66,60.02 
				198.17,61.42 196.1,62.34 194.74,63.82 191.79,63.69 189.83,65.15 188.81,64.93 189.19,66.53 188.33,68.57 188.59,70.14 
				190.31,70.67 191.34,72.95 190.54,74.76 188.68,73.82 185.83,74.23 185.1,72 181.7,70.29 177.82,70.47 176.48,68 173.39,65.92 
				172.22,66.51 171.15,65.01 170.19,65.94 170.32,68.26 168.95,70.45 170.56,71.4 171.24,73.72 169.37,76.32 169.58,77.39 
				168.24,78.9 165.15,77.05 163.9,78.25 162.69,78.02 163.91,81.37 165.16,83.36 164.96,85.54 165.78,88.06 			"/>
			<polygon class="st22" points="189.89,127.54 190.44,130.68 189.28,131.15 188.86,134.39 189.75,136.81 224.96,136.83 
				224.06,134.63 225.03,132.4 234.55,132.38 236.66,131.22 236.83,129.59 238.53,127.23 240.79,127.32 241.19,125.08 
				242.78,123.44 243.14,121.23 246.14,121.23 248.42,120.11 249.05,118.57 248.96,116.34 250.22,116.53 251.76,115.45 
				252.47,112.15 251.43,111.01 252.79,110.4 251.23,108.81 247.73,108.3 247.18,105.9 247.59,104.49 246.65,103.35 243.99,103.34 
				243.06,104.07 240.77,103.92 239.22,102.96 237.29,103.87 234.44,103.38 231.56,103.84 229.13,104.93 226.39,104.34 
				221.69,105.78 214.53,107.22 209.22,107.1 206.09,106.01 201.09,109.43 197.22,107.5 193.05,108.69 192.32,108.36 190.24,110.58 
				188.19,110.12 184.7,111.58 185.25,112.56 187.72,113.49 188.46,116.79 187.69,118.9 188.82,121.25 189.19,126.5 			"/>
			<polygon class="st22" points="233.29,181.47 234.46,181.94 234.12,183.9 235.32,184.91 236.69,184.17 237.73,185.13 
				237.73,187.59 239.02,188.01 238.95,189.42 241.25,189.46 241.65,188.54 242.9,189.67 242.49,191.04 247.17,191.1 247.76,190.25 
				247.77,181.39 249.94,181.38 249.92,177.8 246.97,178.03 244.84,179.03 243.74,180.74 242.21,174.68 243.15,173.1 241.88,168.32 
				242.04,165.98 241.18,164.31 241.67,162.56 241.13,162.06 230.42,162.14 228.85,165.38 229.59,167.58 228.95,168.42 
				231.18,173.95 232.78,174.02 234.8,177.72 233.12,179.89 			"/>
			<polygon class="st22" points="171.15,65.01 172.22,66.51 173.39,65.92 176.48,68 177.82,70.47 181.7,70.29 185.1,72 
				185.83,74.23 188.68,73.82 190.54,74.76 191.34,72.95 190.31,70.67 188.59,70.14 188.33,68.57 189.19,66.53 188.81,64.93 
				189.83,65.15 191.79,63.69 194.74,63.82 196.1,62.34 198.17,61.42 198.66,60.02 200.97,59.27 201.28,57.41 203.45,57.34 
				203.67,55.6 205,55.45 207.88,57.64 206.52,59.56 206.15,63.25 207.11,64.86 248.67,64.82 248.25,24.34 248.63,21.81 
				211.85,21.17 185.49,21.51 181.51,21.19 173.55,21.73 166.82,21.63 164.94,26.83 163.02,28.01 161.88,27.56 160.77,30.42 
				159.47,30.73 160.7,32.53 160.08,33.29 161.19,36.85 160.03,39.21 158.86,43.12 160.32,43.17 159.86,45.15 161.67,46.32 
				162.21,48.93 163.11,50.16 161.65,52.34 161.15,54.38 167.48,54.35 168.55,55.22 169.78,61.36 169.29,62.02 			"/>
			<polygon class="st22" points="305.68,154.92 305.79,140.71 305.21,141.41 279.98,141.52 278.93,143.05 276.22,140.85 
				274.52,141.35 273.6,139.44 271.42,137.91 268.91,139.86 268.32,143.26 265.94,144.96 265.35,149.09 264.02,150.23 
				264.96,151.38 265.44,157.67 266.61,156.5 269.01,156.36 272.76,155.17 274.55,155.12 277.63,152.99 279.79,150.9 282.99,150.92 
				283.86,151.43 284.71,153.93 285.86,154.87 			"/>
			<polygon class="st22" points="246.65,103.35 253.36,103.36 253.67,79.37 253.19,79.39 253.23,64.8 207.11,64.86 209.18,66.1 
				208.74,69.38 206.51,69.82 205.94,73.69 202.8,76.65 203.07,79.69 200.48,83.55 200.33,86.28 198.45,87.66 198.25,90.35 
				197.08,90.64 198.76,93.7 199.19,96.92 198.23,96.62 195.77,98.4 195.45,99.77 193.37,100.26 191.16,103.37 189.04,104.62 
				187.33,104.78 187.41,105.93 184.56,109.24 184.7,111.58 188.19,110.12 190.24,110.58 192.32,108.36 193.05,108.69 197.22,107.5 
				201.09,109.43 206.09,106.01 209.22,107.1 214.53,107.22 221.69,105.78 226.39,104.34 229.13,104.93 231.56,103.84 
				234.44,103.38 237.29,103.87 239.22,102.96 240.77,103.92 243.06,104.07 243.99,103.34 			"/>
			<polygon class="st22" points="244.32,237.13 244.32,250.99 246.39,251.82 247.67,254.02 255.5,246.22 258.92,243.75 
				260.04,242.28 262.84,241.07 265.18,241.1 266.48,240.13 269.45,241.21 269.22,224.24 268.73,223.69 265.28,213.16 
				263.94,213.19 257.54,215.86 255.71,215.45 252.93,216.63 249.7,216.21 247.69,215.08 245.41,218.39 245.59,219.5 243.26,222.43 
				243.81,223.26 243.33,227.7 244.28,231.95 243.42,235.16 245.12,235.54 			"/>
			<polygon class="st22" points="237.18,223.86 243.81,223.26 243.26,222.43 245.59,219.5 245.41,218.39 247.69,215.08 
				249.7,216.21 252.93,216.63 255.71,215.45 257.54,215.86 263.94,213.19 265.28,213.16 265.24,202.56 261.62,191.97 
				260.75,192.24 247.17,191.1 242.49,191.04 241.41,192.97 242.84,195.68 243.99,195.77 244.59,197.94 246.31,198.6 245.56,202.01 
				244.22,203.07 246.21,204.34 246.44,205.96 245.3,206.59 245.91,207.65 245.71,210.02 242.89,212.39 242.4,213.28 242.51,217.06 
				242,218.3 240.01,219.13 238.35,222.87 			"/>
			<polygon class="st22" points="246.65,103.35 247.59,104.49 247.18,105.9 247.73,108.3 251.23,108.81 252.79,110.4 251.43,111.01 
				252.47,112.15 251.76,115.45 250.22,116.53 248.96,116.34 249.05,118.57 250.33,118.59 250.32,120.45 251.82,121.97 
				249.74,125.6 250.1,128.56 249.33,130.81 250.04,133.04 252.04,133.86 252.46,135.39 255.72,138.32 255.73,139.07 257.98,140.54 
				258.07,141.84 259.55,142.6 260.92,145.54 262.46,145.92 263.29,147.13 268.32,143.26 268.91,139.86 271.42,137.91 273.6,139.44 
				274.52,141.35 276.22,140.85 278.93,143.05 279.98,141.52 300.02,141.46 301.46,138.48 301.54,129.53 299.37,128.03 
				298.62,125.72 297.88,125.72 297.55,121.98 296.08,121.99 296.08,120.84 292.34,120.47 289.71,118.8 288.21,117.28 
				287.88,115.78 286.75,115.78 285.65,113.55 283.05,112.78 283.04,111.66 281.22,111.65 280.06,110.51 275.63,110.08 
				274.35,110.86 274.38,112.06 272.89,112.42 271.38,113.93 271.38,116.11 269.14,116.5 268.44,115.01 266.17,115 263.89,113.16 
				263.89,103.31 			"/>
			<polygon class="st22" points="247.17,191.1 260.75,192.24 262.25,188.51 262.33,187 264.01,185.4 264.19,182.73 267.99,180.72 
				268.68,179.55 271.7,179.95 273.73,177.61 275.49,177.15 277.27,177.69 279.96,180.23 281.63,180.52 283.52,182.02 
				285.61,181.11 287.23,179.35 288.64,176.18 292.87,176.49 298.56,176.05 300.16,174.21 305.74,174.2 305.59,161.5 280.31,161.57 
				277.05,162.96 274.04,165.75 272.19,166.83 271.42,168.49 268.39,170.33 266.86,172.43 266.61,173.82 264.67,176.93 
				262.16,177.01 260.88,175.7 258.99,176.94 257.62,177.03 255.27,175.87 254.28,174.96 249.92,177.8 249.94,181.38 247.77,181.39 
				247.76,190.25 			"/>
			<polygon class="st22" points="255.27,175.87 257.62,177.03 258.99,176.94 260.88,175.7 262.16,177.01 264.67,176.93 
				266.61,173.82 266.86,172.43 268.39,170.33 271.42,168.49 272.19,166.83 274.04,165.75 277.05,162.96 280.31,161.57 
				305.59,161.5 305.68,154.92 285.86,154.87 284.71,153.93 283.86,151.43 282.99,150.92 279.79,150.9 277.63,152.99 274.55,155.12 
				272.76,155.17 269.01,156.36 266.61,156.5 265.44,157.67 262.99,157.51 261.26,158.26 259.9,160.68 258.17,161.5 257.58,163.23 
				255.77,163.79 255.27,165.89 			"/>
			<polygon class="st22" points="248.63,21.81 248.25,24.34 248.67,64.82 305.84,64.8 305.87,21.97 			"/>
			<polygon class="st22" points="253.23,64.8 253.19,79.39 253.67,79.37 253.36,103.36 263.89,103.31 263.89,113.16 266.17,115 
				268.44,115.01 269.14,116.5 271.38,116.11 271.38,113.93 272.89,112.42 274.38,112.06 274.35,110.86 275.63,110.08 
				280.06,110.51 281.22,111.65 283.04,111.66 283.05,112.78 285.65,113.55 286.75,115.78 287.88,115.78 288.21,117.28 
				289.71,118.8 292.34,120.47 296.08,120.84 296.08,121.99 297.55,121.98 297.88,125.72 298.62,125.72 299.37,128.03 
				301.54,129.53 301.46,138.48 300.02,141.46 305.21,141.41 305.79,140.71 305.95,122.81 305.84,64.8 			"/>
			<polygon class="st22" points="191.81,148.01 197.73,147.98 197.59,158.09 221.43,157.97 221.42,156.49 226.45,156.54 
				226.42,158.05 231.15,158.05 231.91,154.69 231.65,151.62 232.47,150.22 227.04,150.38 226.67,148.36 227.1,145.47 
				228.06,144.51 227.39,143.39 229.11,141.95 225.83,138.37 224.96,136.83 189.75,136.81 189.72,139.39 190.74,139.38 
				190.73,141.4 191.52,141.4 			"/>
			<polygon class="st22" points="265.24,202.56 268.55,201.57 270.86,201.71 272.58,200.13 275.79,200.19 281.01,202.81 
				285.67,202.38 290.88,200.71 293.24,200.78 295.32,199.88 296.99,198.08 297.35,196.47 300.42,195.83 301.45,192.56 
				302.97,192.71 307.22,189 310.68,184.16 309.62,181.02 305.8,177.65 305.74,174.2 300.16,174.21 298.56,176.05 292.87,176.49 
				288.64,176.18 287.23,179.35 285.61,181.11 283.52,182.02 281.63,180.52 279.96,180.23 277.27,177.69 275.49,177.15 
				273.73,177.61 271.7,179.95 268.68,179.55 267.99,180.72 264.19,182.73 264.01,185.4 262.33,187 262.25,188.51 260.75,192.24 
				261.62,191.97 			"/>
			<polygon class="st22" points="197.59,158.09 196.17,161.74 196.88,163.14 199.89,165.47 204.14,167.23 206.44,166.98 
				208.05,170.25 207.17,170.48 207.39,174.93 210.46,176.6 210.63,179.52 213.36,181.48 233.29,181.47 233.12,179.89 234.8,177.72 
				232.78,174.02 231.18,173.95 228.95,168.42 229.59,167.58 228.85,165.38 230.42,162.14 231.15,158.05 226.42,158.05 
				226.45,156.54 221.42,156.49 221.43,157.97 			"/>
			<polygon class="st22" points="266.5,216.8 268.73,223.69 279.99,236.53 280.79,235.11 283.28,233.4 285.48,230.46 284.7,228.62 
				287.55,227.53 288.35,225.18 290.53,222.3 291.26,220.48 295.16,214.5 297.73,211.56 298.86,209.35 300.47,208.21 302.36,207.84 
				305.04,206.33 302.97,205.64 302.97,202.46 300.89,203.17 297.71,202.91 292.75,204.72 289.11,204.31 287.6,205.68 
				286.08,205.61 285.14,206.87 281.53,208.54 280.9,211.02 276.7,212.65 276.02,213.63 273.82,213.96 271.08,216.03 267.42,217.2 
							"/>
			<polygon class="st22" points="224.96,136.83 225.83,138.37 229.11,141.95 227.39,143.39 228.06,144.51 227.1,145.47 
				226.67,148.36 227.04,150.38 232.47,150.22 231.65,151.62 231.91,154.69 230.42,162.14 241.13,162.06 241.67,162.56 
				242.14,161.37 244.07,162.09 247.55,160.64 250.25,160.29 251.59,159.04 251.95,157.06 253.1,155.94 253.1,153.72 253.88,153.35 
				254.26,151.11 256.83,151.44 256.81,150.75 260.39,150.76 260.39,149.28 262.09,148.67 263.29,147.13 262.46,145.92 
				260.92,145.54 259.55,142.6 258.07,141.84 257.98,140.54 255.73,139.07 255.72,138.32 252.46,135.39 252.04,133.86 
				250.04,133.04 249.33,130.81 250.1,128.56 249.74,125.6 251.82,121.97 250.32,120.45 250.33,118.59 249.05,118.57 248.42,120.11 
				246.14,121.23 243.14,121.23 242.78,123.44 241.19,125.08 240.79,127.32 238.53,127.23 236.83,129.59 236.66,131.22 
				234.55,132.38 225.03,132.4 224.06,134.63 			"/>
			<polygon class="st22" points="265.24,202.56 265.28,213.16 266.5,216.8 267.42,217.2 271.08,216.03 273.82,213.96 276.02,213.63 
				276.7,212.65 280.9,211.02 281.53,208.54 285.14,206.87 286.08,205.61 287.6,205.68 289.11,204.31 292.75,204.72 297.71,202.91 
				300.89,203.17 302.97,202.46 302.97,192.71 301.45,192.56 300.42,195.83 297.35,196.47 296.99,198.08 295.32,199.88 
				293.24,200.78 290.88,200.71 285.67,202.38 281.01,202.81 275.79,200.19 272.58,200.13 270.86,201.71 268.55,201.57 			"/>
			<polygon class="st21" points="393.43,426.15 397.76,429.74 398.49,427.16 400.25,427.16 400.27,424.94 402.33,424.14 
				402.32,421.98 409.56,421.97 409.55,422.67 415.48,422.7 415.48,423.39 427.18,423.36 427.17,421.97 490.93,421.97 
				490.93,419.88 525.73,419.79 526.5,418.46 530.23,417 531.6,415.45 532.82,415.33 536.44,411.58 537.58,411.28 537.47,409.11 
				535.95,406.91 534,406.11 529.52,402.02 527.66,401.71 527.89,398.26 525.69,395.04 525.12,391.63 524.26,389.43 521.1,386.87 
				519.53,383.29 518.11,382.21 517.9,375.55 477.8,336.41 474.34,336.41 474.34,337.17 399.37,336.99 399.32,341.24 398.61,342.66 
				400.04,342.65 399.34,344.08 399.41,384.2 398.02,384.19 398.03,396.91 398.87,409.74 397.61,415.71 395.29,422.71 
				394.05,422.46 392.66,424.75 			"/>
			<polygon class="st21" points="404.25,447.12 409.99,447.12 409.73,447.8 414.84,449.78 414.85,450.58 460.54,450.86 
				518.16,450.51 518.32,449.41 520.89,445.81 522.22,444.84 521.58,443.02 522.31,442.08 521.91,439.31 523.32,438.01 
				522.9,434.64 522.07,432.4 522,430.37 523.03,429.98 521.8,427.13 525.62,422.51 525.73,419.79 490.93,419.88 490.93,421.97 
				427.17,421.97 427.18,423.36 415.48,423.39 415.48,422.7 409.55,422.67 409.56,421.97 402.32,421.98 402.33,424.14 
				400.27,424.94 400.25,427.16 398.49,427.16 397.76,429.74 401.44,434.56 403.19,435.12 403.28,437.37 405.63,437.69 
				408.07,439.81 404.23,445.74 			"/>
			<polygon class="st21" points="380.68,435.41 383.64,438.9 393.32,445.35 396.15,449.26 400.84,452.73 401.53,449.54 
				404.25,448.7 404.23,445.74 408.07,439.81 405.63,437.69 403.28,437.37 403.19,435.12 401.44,434.56 397.76,429.74 
				393.43,426.15 385.8,426.17 385.79,428.23 382.53,430.92 			"/>
			<polygon class="st21" points="326.51,405.76 334.2,410.69 336.3,415.96 340.21,418.82 347.53,421.43 347.69,420.01 353.7,415.55 
				358.47,415.57 358.49,412.12 359.87,412.13 359.71,409.66 350.02,385.73 346.27,385.72 346.27,384.69 335.72,384.59 
				335.72,382.5 334.41,381.44 330.24,381.44 330.25,380.42 327.87,380.4 327.88,401.8 327.5,404.62 			"/>
			<polygon class="st21" points="324.25,457.55 322.72,458.79 326.83,460.88 328.69,460.19 			"/>
			<polygon class="st21" points="326.51,405.76 327.5,404.62 327.88,401.8 327.87,380.4 324.18,380.58 321.01,378.02 318.73,376.91 
				315.89,376.91 312.52,375.36 311.59,374.09 309.38,373.73 308.66,372.75 306.62,372.86 302.17,370.13 299.16,372.06 
				298.4,374.13 292.83,374.89 293.9,377.4 294,380.1 288.52,376.23 286.23,375.97 280.78,377.59 280.18,376.86 279.33,380.26 
				281.72,382.47 280.65,387.4 282.11,389.87 280.35,395.82 285.63,398.58 287.94,402.29 294.01,401.14 305.53,401.58 
				310.66,404.15 317.33,404.7 323.36,403.9 			"/>
			<polygon class="st21" points="309.12,419.9 310.81,424.54 317.11,425.43 323.23,423.81 323.09,420.94 320.41,422.94 
				317.17,421.52 			"/>
			<polygon class="st21" points="303.68,421.8 296.44,423.15 301.11,428.63 307.08,426.35 			"/>
			<polygon class="st21" points="291.38,420.06 288.54,421.77 294.01,422.59 			"/>
			<polygon class="st21" points="347.53,421.43 353.03,423.58 355.43,422.05 362.28,421.61 365.4,423.31 369.44,431.37 
				368.61,435.92 373.08,437.4 374.95,434.53 381.02,434.34 382.53,430.92 385.79,428.23 385.8,426.17 393.43,426.15 392.66,424.75 
				394.05,422.46 395.29,422.71 397.61,415.71 398.87,409.74 398.03,396.91 398.02,384.19 350.92,384.42 350.02,385.73 
				359.71,409.66 359.87,412.13 358.49,412.12 358.47,415.57 353.7,415.55 347.69,420.01 			"/>
			<polygon class="st21" points="360.92,448.35 365.55,451.15 366.84,455.79 372.02,456.87 372.61,455.09 370.16,451.61 			"/>
			<polygon class="st21" points="361.4,469.29 365.14,477.96 368.04,480.25 370.34,478.64 365.46,474.35 			"/>
			<polygon class="st21" points="290.52,246.45 290.35,243.96 292.95,245.69 293.73,244.87 292.19,241.9 298.37,239.75 
				298.62,238.38 300.8,239.06 302.69,236.7 309.51,240.25 311.19,239.53 313.37,240.39 319.51,237.62 319.82,235.8 321.24,235.48 
				322.99,233.05 324.25,232.99 326.61,235.36 328.49,234.8 329.36,236.28 331.43,236.83 334.72,241.18 337.4,237.93 336.88,234.65 
				337.42,233.98 333.17,230.79 332.6,229.58 333.32,226.93 331.53,223.83 329.66,222.77 327.03,223.19 326.8,221.69 322.57,220.21 
				322.21,218.87 320.35,218.14 321.48,216.32 321.12,214.99 319.61,213.73 320.09,211.7 317.69,209.77 317.73,207.51 
				315.56,207.17 313.67,207.94 310.39,210.22 305.04,206.33 302.36,207.84 300.47,208.21 298.86,209.35 297.73,211.56 
				295.16,214.5 291.26,220.48 290.53,222.3 288.35,225.18 287.55,227.53 284.7,228.62 285.48,230.46 283.28,233.4 280.79,235.11 
				279.99,236.53 			"/>
			<polygon class="st21" points="322.7,303.15 324.48,303.21 324.46,307.44 326.59,307.46 326.6,313.94 324.43,313.89 
				324.09,337.36 384.55,337.38 384.65,333.8 385.62,333.59 385.19,329.84 384.15,329 384.73,327.89 383.54,326.66 382.23,322.58 
				382.42,318.58 381.29,317.45 379.83,313.38 381.01,310.89 378.55,307.81 379.42,306.63 378.67,305.91 376.38,305.79 
				374.99,303.46 375.58,302.91 374.91,300.53 373.39,299.72 374.02,297.81 372.19,296.35 371.86,294.39 370.39,293.17 
				371.64,292.49 370.62,290.54 346.05,290.7 345.95,294.86 333.31,294.69 333.3,298.98 326.93,298.9 			"/>
			<polygon class="st21" points="257.36,271.26 267.73,260.79 266.93,258.12 290.52,246.45 279.99,236.53 269.22,224.24 
				269.45,241.21 266.48,240.13 265.18,241.1 262.84,241.07 260.04,242.28 258.92,243.75 255.5,246.22 247.64,254 247.64,256.93 
				248.27,258.32 250.01,258.62 249.57,260.14 250.28,262.52 248.18,263.92 248.31,265.58 249.84,267.47 250.33,270.21 
				252.31,268.83 253.34,269.71 255.16,268.84 			"/>
			<polygon class="st21" points="280.18,376.86 280.78,377.59 286.23,375.97 288.52,376.23 294,380.1 293.9,377.4 292.83,374.89 
				298.4,374.13 299.16,372.06 302.17,370.13 306.62,372.86 308.66,372.75 309.38,373.73 311.59,374.09 312.52,375.36 
				315.89,376.91 318.73,376.91 321.01,378.02 324.18,380.58 326.67,380.4 326.67,371.93 325.97,371.21 323.18,371.41 
				323.48,366.95 318.99,367.2 319.01,362.96 313.36,362.9 313.37,358.67 310.57,358.66 310.57,354.4 305.94,354.38 305.94,352.96 
				302.41,350.16 302.44,345.88 298.17,345.89 298.16,337.38 252.59,337.09 255.19,343.33 259.85,344.96 266.17,353.35 
				270.05,353.95 271.74,358.87 270.36,363.66 275.96,367.89 280.11,368.5 280.94,372.67 			"/>
			<polygon class="st21" points="240.87,283.17 241.73,285.54 242.7,285.98 246.4,289.93 247.29,289.52 248.45,291.56 
				247.17,292.11 247.82,293.47 250.18,294.89 252.48,295.29 253.74,297.19 253.33,299.91 254.64,301.26 254.11,302.63 
				256.67,302.26 258.67,305.27 264.71,311.24 264.73,313.83 266.62,313.89 266.9,312.76 268.15,313.66 269.46,311.88 
				271.65,312.78 274.64,315.6 275.74,317.14 277.72,317.39 277.92,315.98 276.33,311.92 279.02,314.02 279.8,311.62 282.26,311.02 
				282.24,303.18 268.94,290.19 260.73,286.01 258.48,282.18 257.04,281.55 257.81,279.85 249.79,279.89 248.45,278.49 
				246.99,278.77 246.01,280.65 243.34,282.85 241.44,282.3 			"/>
			<polygon class="st21" points="234.24,285.34 235.17,287.59 234.05,293.9 231.16,297.61 229.31,295.86 229.29,303.97 
				230.77,312.07 233.3,314.9 238,317.57 241.28,321.17 243.65,325.95 246.1,326.78 248.05,332.68 252.59,337.09 297.38,337.38 
				297.11,335.9 295.59,334.66 296.22,333.07 294.81,331.64 293.38,331.63 291.62,328.86 288.72,328.62 286.92,326.6 284.48,325.31 
				280.2,321.82 279.44,319.25 281.06,317.16 278.89,314.81 279.02,314.02 276.33,311.92 277.92,315.98 277.72,317.39 
				275.74,317.14 274.64,315.6 271.65,312.78 269.46,311.88 268.15,313.66 266.9,312.76 266.62,313.89 264.73,313.83 264.71,311.24 
				258.67,305.27 256.67,302.26 254.11,302.63 254.64,301.26 253.33,299.91 253.74,297.19 252.48,295.29 250.18,294.89 
				247.82,293.47 247.17,292.11 248.45,291.56 247.29,289.52 246.4,289.93 242.7,285.98 241.73,285.54 240.87,283.17 237.68,282.18 
				235.33,283.57 			"/>
			<polygon class="st21" points="320.09,211.7 319.61,213.73 321.12,214.99 321.48,216.32 320.35,218.14 322.21,218.87 
				322.57,220.21 326.8,221.69 327.03,223.19 329.66,222.77 331.53,223.83 333.32,226.93 332.6,229.58 333.17,230.79 337.42,233.98 
				336.88,234.65 337.4,237.93 334.72,241.18 336.8,242.44 337.51,241.31 340.44,241.45 342.78,243.91 344.06,246.61 344.47,248.84 
				346.26,250.28 348.63,250.61 351.26,254.32 353.37,253.68 354.24,254.95 391.48,254.86 356.65,223 322.22,192.18 321.06,194.58 
				320.89,197.73 323.9,202.98 323.14,207.47 320.77,208.32 321.35,209.7 			"/>
			<polygon class="st21" points="257.36,271.26 256.72,273.35 258.04,274.56 256.6,276.67 256.63,278.29 257.81,279.85 
				257.04,281.55 258.48,282.18 260.73,286.01 269.53,290.76 287,273.16 292.35,271.77 296.85,269.84 301.09,269.74 303.78,268.87 
				302.15,266.91 298.78,264.93 298.62,263.49 295.32,258.06 294.97,255.92 290.51,246.46 266.93,258.12 267.73,260.79 			"/>
			<polygon class="st21" points="290.51,246.46 294.97,255.92 295.32,258.06 298.62,263.49 298.78,264.93 302.15,266.91 
				303.78,268.87 315.25,257.24 319.62,257.21 319.62,255.04 321.03,255.03 321.04,253.38 322.27,253.38 322.29,250.11 
				333.14,239.24 331.43,236.83 329.36,236.28 328.49,234.8 326.61,235.36 324.25,232.99 322.99,233.05 321.24,235.48 319.82,235.8 
				319.51,237.62 313.37,240.39 311.19,239.53 309.51,240.25 302.69,236.7 300.8,239.06 298.62,238.38 298.37,239.75 292.19,241.9 
				293.73,244.87 292.95,245.69 290.35,243.96 			"/>
			<polygon class="st21" points="284.41,275.75 288.04,282.27 287.8,284.71 290.51,286.64 291.2,288.57 293.02,288.5 296.74,289.33 
				302.68,286.57 304.7,287.09 306.45,285.8 308.07,286.13 310.38,284.93 313,285.45 314.2,283 316.35,280.48 316.09,279.43 
				318.05,277.34 319.33,277.28 319.29,276.01 320.81,276.62 321.45,274.42 323.1,274.76 324.1,272.76 322.87,272.12 323.24,270.82 
				324.67,271.5 325.33,270.48 326.76,272.48 327.17,270.73 328.83,269.81 330.08,270.52 332.26,267.77 332.63,265.7 332.13,262.44 
				334.02,259.34 344.47,248.84 344.06,246.61 342.78,243.91 340.44,241.45 337.51,241.31 336.8,242.44 334.72,241.18 
				333.14,239.24 322.29,250.11 322.27,253.38 321.04,253.38 321.03,255.03 319.62,255.04 319.62,257.21 315.25,257.24 
				303.78,268.87 301.09,269.74 296.85,269.84 292.35,271.77 287,273.16 			"/>
			<polygon class="st21" points="293.38,331.63 294.81,331.64 296.22,333.07 295.59,334.66 297.11,335.9 297.38,337.38 
				324.09,337.36 324.43,313.89 326.6,313.94 326.59,307.46 324.46,307.44 324.48,303.21 322.7,303.15 319,306.59 318.82,305.99 
				315.83,306.71 315.56,307.41 307.41,307.47 307.45,318.23 			"/>
			<polygon class="st21" points="298.16,337.38 298.17,345.89 302.44,345.88 302.41,350.16 305.94,352.96 305.94,354.38 
				310.57,354.4 310.57,358.66 313.37,358.67 313.36,362.9 319.01,362.96 318.99,367.2 323.48,366.95 323.18,371.41 325.97,371.21 
				326.67,371.93 326.67,380.4 330.25,380.42 330.24,381.44 334.41,381.44 335.72,382.5 335.72,384.59 346.27,384.69 346.27,385.72 
				350.02,385.73 350.92,384.42 399.41,384.2 399.34,344.08 400.04,342.65 398.61,342.66 399.32,341.24 399.37,336.99 
				387.85,336.94 387.91,337.5 366.29,337.22 			"/>
			<polygon class="st21" points="370.62,290.54 371.64,292.49 370.39,293.17 371.86,294.39 372.19,296.35 374.02,297.81 
				373.39,299.72 374.91,300.53 375.58,302.91 374.99,303.46 376.38,305.79 378.67,305.91 379.42,306.63 378.55,307.81 
				381.01,310.89 379.83,313.38 381.29,317.45 382.42,318.58 382.23,322.58 383.54,326.66 384.73,327.89 384.15,329 385.19,329.84 
				385.62,333.59 384.65,333.8 384.55,337.38 387.91,337.5 387.85,336.94 474.34,337.17 474.34,336.41 477.8,336.41 444.61,304.61 
				391.48,254.86 354.24,254.95 354.85,256.32 353.65,258.39 354.51,260.02 353.78,260.91 355.63,262.31 356.58,261.66 358.58,265 
				357.82,265.9 357.93,267.77 359,270.91 361.45,271.09 363.61,272.31 366.4,274.64 367.17,274.54 367.96,277.34 370.61,283.49 
				370.58,285.58 369.47,286.12 			"/>
			<polygon class="st21" points="279.02,314.02 278.89,314.81 281.06,317.16 279.44,319.25 280.2,321.82 284.48,325.31 
				286.92,326.6 288.72,328.62 291.62,328.86 293.38,331.63 307.45,318.23 307.41,307.47 315.56,307.41 315.83,306.71 
				318.82,305.99 319,306.59 326.93,298.9 333.3,298.98 333.31,294.69 345.95,294.86 346.05,290.7 370.62,290.54 369.47,286.12 
				370.58,285.58 370.61,283.49 367.96,277.34 367.17,274.54 366.4,274.64 363.61,272.31 361.45,271.09 359,270.91 357.93,267.77 
				357.82,265.9 358.58,265 356.58,261.66 355.63,262.31 353.78,260.91 354.51,260.02 353.65,258.39 354.85,256.32 354.24,254.95 
				353.37,253.68 351.26,254.32 348.63,250.61 346.26,250.28 344.47,248.84 334.02,259.34 332.13,262.44 332.63,265.7 
				332.26,267.77 330.08,270.52 328.83,269.81 327.17,270.73 326.76,272.48 325.33,270.48 324.67,271.5 323.24,270.82 
				322.87,272.12 324.1,272.76 323.1,274.76 321.45,274.42 320.81,276.62 319.29,276.01 319.33,277.28 318.05,277.34 316.09,279.43 
				316.35,280.48 314.2,283 313,285.45 310.38,284.93 308.07,286.13 306.45,285.8 304.7,287.09 302.68,286.57 296.74,289.33 
				293.02,288.5 291.2,288.57 290.51,286.64 287.8,284.71 288.04,282.27 284.41,275.75 269.53,290.76 282.24,303.18 282.26,311.02 
				279.8,311.62 			"/>
			<polygon class="st21" points="302.97,202.46 302.97,205.64 305.04,206.33 310.39,210.22 313.67,207.94 315.56,207.17 
				317.73,207.51 317.69,209.77 320.09,211.7 321.35,209.7 320.77,208.32 323.14,207.47 323.9,202.98 320.89,197.73 321.06,194.58 
				322.22,192.18 309.62,181.02 310.68,184.16 307.22,189 302.97,192.71 			"/>
		</g>
	</g>
	<circle class="st1" cx="255.27" cy="204.51" r="29.28"/>
	<circle class="st2" cx="255.27" cy="204.51" r="9.02"/>
</g>
</svg>
