<?xml version="1.0" encoding="utf-8"?>
<!-- Generator: Adobe Illustrator 25.4.1, SVG Export Plug-In . SVG Version: 6.00 Build 0)  -->
<svg version="1.1" id="Layer_1" xmlns="http://www.w3.org/2000/svg" xmlns:xlink="http://www.w3.org/1999/xlink" x="0px" y="0px"
	 viewBox="0 0 804.92 529.99" style="enable-background:new 0 0 804.92 529.99;" xml:space="preserve">
<style type="text/css">
	.st0{fill:#E6E6E6;}
	.st1{opacity:0.8;fill:#007DBC;enable-background:new    ;}
	.st2{fill:none;stroke:#0675AF;stroke-width:0.64;stroke-linejoin:bevel;}
	.st3{fill:none;stroke:#007DBC;stroke-miterlimit:10;}
	.st4{fill:none;stroke:#FFFFFF;stroke-width:3;stroke-miterlimit:10;}
	.st5{fill:#FFFFFF;}
</style>
<g id="State">
	<rect class="st0" width="804.92" height="529.99"/>
</g>
<g id="Layer_4">
	<path class="st1" d="M45.77,312.57h4.36l6.81,20.93H53l-1.63-5.67h-7l-1.64,5.67H39L45.77,312.57z M45.23,324.92h5.34l-0.73-2.56
		c-0.67-2.21-1.28-4.61-1.89-6.91h-0.13c-0.57,2.34-1.18,4.7-1.85,6.91L45.23,324.92z"/>
	<path class="st1" d="M59.21,317.79h3l0.26,2.14h0.13c1.17-1.49,2.91-2.41,4.8-2.53c1.92-0.14,3.7,1.01,4.35,2.82
		c1.5-1.6,3.07-2.82,5-2.82c3.33,0,4.87,2.27,4.87,6.24v9.86H78v-9.38c0-2.59-0.77-3.55-2.4-3.55c-1,0-2.08,0.64-3.3,1.95v11h-3.68
		v-9.38c0-2.59-0.77-3.55-2.43-3.55c-1,0-2.08,0.64-3.3,1.95v11h-3.68V317.79z"/>
	<path class="st1" d="M85.17,325.66c0-5.12,3.55-8.26,7.23-8.26c4.25,0,6.49,3.07,6.49,7.46c0.01,0.6-0.04,1.2-0.16,1.79h-10
		c0.32,2.78,2.11,4.38,4.64,4.38c1.3-0.01,2.56-0.42,3.63-1.15l1.25,2.31c-1.59,1.07-3.46,1.65-5.38,1.69
		C88.56,333.88,85.17,330.84,85.17,325.66z M95.69,324.15c0-2.43-1-3.9-3.2-3.9c-1.85,0-3.45,1.38-3.77,3.9H95.69z"/>
	<path class="st1" d="M102.41,317.79h3l0.26,2.78h0.13c1.12-2.05,2.78-3.17,4.44-3.17c0.62-0.03,1.23,0.08,1.8,0.32l-0.64,3.2
		c-0.53-0.17-1.08-0.26-1.64-0.25c-1.24,0-2.75,0.86-3.71,3.23v9.6h-3.68L102.41,317.79z"/>
	<path class="st1" d="M113.93,313c-0.16-1.25,0.73-2.4,1.98-2.56c1.25-0.16,2.4,0.73,2.56,1.98c0.16,1.25-0.73,2.4-1.98,2.56
		c-0.1,0.01-0.19,0.02-0.29,0.02c-1.17,0.08-2.18-0.79-2.27-1.96C113.93,313.03,113.93,313.01,113.93,313z M114.35,317.83H118v15.67
		h-3.68L114.35,317.83z"/>
	<path class="st1" d="M121.71,325.66c0-5.25,3.68-8.26,7.87-8.26c1.7-0.01,3.35,0.61,4.61,1.76l-1.79,2.4
		c-0.7-0.7-1.64-1.11-2.63-1.15c-2.52,0-4.28,2.08-4.28,5.25s1.72,5.21,4.19,5.21c1.2-0.06,2.34-0.54,3.23-1.34l1.5,2.43
		c-1.42,1.23-3.24,1.91-5.12,1.92C125,333.88,121.71,330.87,121.71,325.66z"/>
	<path class="st1" d="M136.36,329.27c0-3.36,2.79-5.12,9.25-5.82c-0.06-1.66-0.73-3.07-2.88-3.07c-1.58,0.11-3.1,0.64-4.41,1.53
		l-1.32-2.46c1.92-1.28,4.16-1.99,6.47-2.05c3.9,0,5.85,2.4,5.85,6.79v9.31h-3l-0.25-1.73h-0.13c-1.32,1.26-3.05,2.01-4.87,2.11
		c-2.42,0.18-4.52-1.63-4.7-4.05C136.35,329.64,136.35,329.46,136.36,329.27z M145.61,329.27v-3.52c-4.29,0.55-5.69,1.67-5.69,3.24
		c0,1.4,1,2,2.27,2C143.51,330.89,144.74,330.27,145.61,329.27z"/>
	<path class="st1" d="M153.71,317.79h3l0.25,2.11h0.13c1.3-1.5,3.16-2.4,5.15-2.5c3.36,0,4.84,2.27,4.84,6.24v9.86h-3.68v-9.38
		c0-2.59-0.74-3.55-2.47-3.55c-1.37,0-2.27,0.67-3.58,1.95v11h-3.68L153.71,317.79z"/>
	<path class="st1" d="M176.91,330.81l2.17-2.53c1.46,1.43,3.4,2.27,5.44,2.37c2.37,0,3.65-1.06,3.65-2.69s-1.34-2.27-3.23-3.07
		l-2.88-1.25c-2.05-0.86-4.22-2.49-4.22-5.57c0-3.32,2.94-5.88,7-5.88c2.41,0.01,4.71,0.96,6.43,2.65l-1.89,2.37
		c-1.24-1.14-2.86-1.78-4.54-1.79c-2,0-3.3,0.93-3.3,2.46s1.6,2.24,3.33,2.95l2.85,1.18c2.46,1.06,4.22,2.62,4.22,5.66
		c0,3.4-2.82,6.21-7.52,6.21C181.61,333.87,178.92,332.77,176.91,330.81z"/>
	<path class="st1" d="M194.64,329.27c0-3.36,2.78-5.12,9.24-5.82c-0.06-1.66-0.73-3.07-2.88-3.07c-1.58,0.11-3.1,0.64-4.41,1.53
		l-1.35-2.46c1.92-1.28,4.16-1.99,6.47-2.05c3.9,0,5.85,2.4,5.85,6.79v9.31h-3l-0.25-1.73h-0.13c-1.32,1.26-3.04,2.01-4.86,2.11
		c-2.42,0.16-4.51-1.66-4.68-4.08C194.63,329.62,194.63,329.45,194.64,329.27z M203.88,329.27v-3.52c-4.28,0.55-5.69,1.67-5.69,3.24
		c0,1.4,1,2,2.27,2C201.78,330.89,203.01,330.27,203.88,329.27z"/>
	<path class="st1" d="M212,317.79h3l0.26,2.14h0.12c1.17-1.49,2.91-2.41,4.8-2.53c1.92-0.15,3.7,1,4.35,2.82
		c1.51-1.6,3.08-2.82,5.06-2.82c3.33,0,4.86,2.27,4.86,6.24v9.86h-3.71v-9.38c0-2.59-0.77-3.55-2.4-3.55c-1,0-2.08,0.64-3.29,1.95
		v11h-3.68v-9.38c0-2.59-0.77-3.55-2.43-3.55c-1,0-2.09,0.64-3.3,1.95v11H212V317.79z"/>
	<path class="st1" d="M237.93,325.66c0-5.25,3.55-8.26,7.46-8.26s7.48,3,7.48,8.26s-3.55,8.22-7.48,8.22
		S237.93,330.87,237.93,325.66z M249.1,325.66c0-3.17-1.41-5.25-3.71-5.25s-3.68,2.08-3.68,5.25s1.37,5.21,3.68,5.21
		S249.1,328.79,249.1,325.66L249.1,325.66z"/>
	<path class="st1" d="M255.31,329.27c0-3.36,2.78-5.12,9.24-5.82c-0.06-1.66-0.73-3.07-2.88-3.07c-1.58,0.11-3.1,0.64-4.41,1.53
		l-1.34-2.46c1.92-1.28,4.16-1.99,6.46-2.05c3.9,0,5.85,2.4,5.85,6.79v9.31h-3l-0.26-1.73h-0.13c-1.32,1.26-3.04,2.01-4.86,2.11
		c-2.42,0.16-4.51-1.68-4.67-4.09C255.3,329.61,255.3,329.44,255.31,329.27z M264.55,329.27v-3.52c-4.28,0.55-5.69,1.67-5.69,3.24
		c0,1.4,1,2,2.27,2C262.45,330.89,263.68,330.27,264.55,329.27z"/>
	<path class="st1" d="M41.46,351.02h4.2l3.71,10.24c0.45,1.31,0.89,2.72,1.34,4.1h0.13c0.45-1.38,0.86-2.79,1.31-4.1l3.59-10.24
		h4.22v20.9h-3.42v-9.57c0-1.95,0.29-4.74,0.48-6.66h-0.13l-1.7,4.87l-3.39,9.46h-2.21l-3.45-9.41l-1.67-4.87h-0.13
		c0.16,1.92,0.48,4.71,0.48,6.66v9.57h-3.36V351.02z"/>
	<path class="st1" d="M64.57,351.37c-0.11-1.25,0.82-2.36,2.07-2.47s2.36,0.82,2.47,2.07s-0.82,2.36-2.07,2.47
		c-0.07,0.01-0.13,0.01-0.2,0.01c-1.17,0.08-2.18-0.8-2.26-1.96C64.57,351.45,64.57,351.41,64.57,351.37z M64.98,356.21h3.68v15.71
		h-3.68V356.21z"/>
	<path class="st1" d="M72.34,364.08c0-5.25,3.68-8.26,7.88-8.26c1.7-0.01,3.34,0.62,4.6,1.76l-1.79,2.4
		c-0.69-0.7-1.63-1.12-2.62-1.15c-2.53,0-4.29,2.08-4.29,5.25s1.73,5.21,4.19,5.21c1.2-0.06,2.34-0.53,3.23-1.34l1.51,2.43
		c-1.42,1.23-3.24,1.91-5.12,1.92C75.64,372.3,72.34,369.29,72.34,364.08z"/>
	<path class="st1" d="M88.15,356.21h3l0.26,2.78h0.12c1.13-2.05,2.79-3.17,4.45-3.17c0.61-0.03,1.23,0.08,1.79,0.32l-0.64,3.2
		c-0.53-0.17-1.08-0.26-1.63-0.25c-1.25,0-2.75,0.86-3.71,3.23v9.6h-3.68L88.15,356.21z"/>
	<path class="st1" d="M98.74,364.08c0-5.25,3.55-8.26,7.46-8.26s7.49,3,7.49,8.26s-3.56,8.22-7.49,8.22S98.74,369.29,98.74,364.08z
		 M109.91,364.08c0-3.17-1.41-5.25-3.71-5.25s-3.68,2.08-3.68,5.25s1.38,5.21,3.68,5.21S109.91,367.21,109.91,364.08z"/>
	<path class="st1" d="M117.33,356.21h3l0.26,2.11h0.15c1.3-1.5,3.16-2.4,5.15-2.5c3.36,0,4.83,2.27,4.83,6.24v9.86h-3.68v-9.38
		c0-2.59-0.73-3.55-2.46-3.55c-1.38,0-2.27,0.67-3.59,1.95v11h-3.68L117.33,356.21z"/>
	<path class="st1" d="M134.23,364.08c0-5.12,3.55-8.26,7.23-8.26c4.26,0,6.5,3.07,6.5,7.46c0.01,0.6-0.05,1.2-0.16,1.79h-10
		c0.32,2.78,2.12,4.38,4.64,4.38c1.3-0.01,2.58-0.41,3.65-1.15l1.25,2.31c-1.59,1.07-3.46,1.66-5.38,1.69
		C137.62,372.3,134.23,369.26,134.23,364.08z M144.74,362.57c0-2.43-1.06-3.9-3.2-3.9c-1.86,0-3.46,1.38-3.78,3.9H144.74z"/>
	<path class="st1" d="M149.91,370.13l1.73-2.37c1.2,1.07,2.74,1.69,4.35,1.76c1.7,0,2.5-0.8,2.5-1.89c0-1.31-1.7-1.89-3.36-2.53
		c-2.08-0.77-4.42-1.95-4.42-4.57s2.21-4.71,5.73-4.71c1.9,0.03,3.73,0.69,5.21,1.89l-1.69,2.24c-0.98-0.81-2.19-1.28-3.46-1.34
		c-1.56,0-2.3,0.73-2.3,1.72c0,1.25,1.57,1.73,3.26,2.34c2.15,0.8,4.51,1.82,4.51,4.77c0,2.69-2.14,4.86-6.11,4.86
		C153.69,372.24,151.6,371.48,149.91,370.13z"/>
	<path class="st1" d="M164.85,351.37c-0.11-1.25,0.82-2.36,2.07-2.47c1.25-0.11,2.36,0.82,2.47,2.07c0.11,1.25-0.82,2.36-2.07,2.47
		c-0.06,0.01-0.13,0.01-0.19,0.01c-1.17,0.09-2.19-0.79-2.27-1.95C164.85,351.45,164.85,351.41,164.85,351.37z M165.27,356.21h3.68
		v15.71h-3.68V356.21z"/>
	<path class="st1" d="M172.82,367.69c0-3.36,2.79-5.12,9.25-5.82c-0.06-1.66-0.74-3.07-2.88-3.07c-1.58,0.11-3.1,0.64-4.41,1.53
		l-1.35-2.46c1.92-1.28,4.16-1.99,6.46-2.05c3.91,0,5.86,2.4,5.86,6.79v9.31h-3l-0.26-1.73h-0.12c-1.32,1.26-3.05,2.01-4.87,2.11
		c-2.42,0.16-4.51-1.67-4.68-4.08C172.81,368.04,172.81,367.87,172.82,367.69z M182.07,367.69v-3.52c-4.29,0.55-5.7,1.67-5.7,3.24
		c0,1.4,1,2,2.28,2C179.97,369.31,181.2,368.69,182.07,367.69z"/>
	<path class="st1" d="M41.68,389.37h4.19l3.71,10.24c0.45,1.31,0.9,2.72,1.35,4.1h0.12c0.45-1.38,0.87-2.79,1.32-4.1L56,389.37h4.23
		v20.93h-3.45v-9.57c0-2,0.29-4.73,0.48-6.65h-0.13l-1.69,4.86L52,408.35h-2.2l-3.46-9.41l-1.66-4.86h-0.13
		c0.16,1.92,0.48,4.7,0.48,6.65v9.57h-3.35V389.37z"/>
	<path class="st1" d="M64.37,406.07c0-3.36,2.78-5.12,9.24-5.82c-0.06-1.66-0.73-3.07-2.88-3.07c-1.58,0.11-3.1,0.64-4.41,1.53
		L65,396.25c1.92-1.28,4.16-1.99,6.47-2.05c3.9,0,5.85,2.4,5.85,6.79v9.31h-3L74,408.57h-0.13c-1.32,1.26-3.05,2.01-4.87,2.11
		c-2.42,0.14-4.49-1.72-4.63-4.14C64.36,406.39,64.36,406.23,64.37,406.07z M73.61,406.07v-3.52c-4.28,0.55-5.69,1.67-5.69,3.24
		c0,1.4,1,2,2.27,2C71.51,407.69,72.74,407.07,73.61,406.07z"/>
	<path class="st1" d="M81.71,394.59h3l0.26,2.78h0.12c1.12-2.05,2.79-3.17,4.45-3.17c0.61-0.03,1.23,0.08,1.79,0.32l-0.64,3.2
		c-0.53-0.17-1.08-0.26-1.63-0.25c-1.25,0-2.75,0.86-3.71,3.23v9.6h-3.64V394.59z"/>
	<path class="st1" d="M91.89,408.51l1.72-2.37c1.21,1.08,2.77,1.7,4.39,1.76c1.69,0,2.49-0.8,2.49-1.89c0-1.31-1.69-1.89-3.36-2.53
		c-2.08-0.77-4.41-2-4.41-4.57s2.2-4.71,5.72-4.71c1.9,0.03,3.74,0.69,5.22,1.89l-1.7,2.24c-0.98-0.81-2.21-1.28-3.48-1.33
		c-1.57,0-2.31,0.73-2.31,1.72c0,1.25,1.57,1.73,3.27,2.34c2.14,0.8,4.51,1.82,4.51,4.77c0,2.69-2.14,4.86-6.11,4.86
		C95.67,410.63,93.58,409.86,91.89,408.51z"/>
	<path class="st1" d="M107.25,387.71h3.67v5.82l-0.12,3c1.28-1.43,3.08-2.28,5-2.37c3.36,0,4.83,2.27,4.83,6.24v9.86H117v-9.38
		c0-2.59-0.73-3.55-2.46-3.55c-1.38,0-2.27,0.67-3.59,1.95v11h-3.67L107.25,387.71z"/>
	<path class="st1" d="M124.27,406.07c0-3.36,2.78-5.12,9.25-5.82c-0.07-1.66-0.74-3.07-2.88-3.07c-1.58,0.11-3.11,0.64-4.42,1.53
		l-1.34-2.46c1.92-1.28,4.16-1.99,6.46-2.05c3.91,0,5.86,2.4,5.86,6.79v9.31h-3l-0.26-1.73h-0.13c-1.32,1.26-3.04,2.01-4.86,2.11
		c-2.42,0.16-4.51-1.66-4.68-4.08C124.26,406.42,124.26,406.25,124.27,406.07z M133.52,406.07v-3.52c-4.29,0.55-5.7,1.67-5.7,3.24
		c0,1.4,1,2,2.27,2S132.33,407.16,133.52,406.07L133.52,406.07z"/>
	<path class="st1" d="M141.61,406.27v-18.56h3.68v18.75c0,0.89,0.42,1.21,0.8,1.21c0.2,0,0.39-0.02,0.58-0.06l0.48,2.75
		c-0.64,0.24-1.32,0.35-2,0.32C142.57,410.68,141.61,409,141.61,406.27z"/>
	<path class="st1" d="M150.29,406.27v-18.56H154v18.75c0,0.89,0.42,1.21,0.8,1.21c0.2,0,0.39-0.02,0.58-0.06l0.48,2.75
		c-0.62,0.23-1.29,0.34-1.95,0.32C151.25,410.68,150.29,409,150.29,406.27z"/>
	<path class="st1" d="M165.68,389.37h3.71v20.93h-3.71V389.37z"/>
	<path class="st1" d="M172.81,408.51l1.73-2.37c1.2,1.07,2.74,1.69,4.35,1.76c1.7,0,2.5-0.8,2.5-1.89c0-1.31-1.7-1.89-3.36-2.53
		c-2.08-0.77-4.42-2-4.42-4.57s2.21-4.71,5.73-4.71c1.9,0.03,3.74,0.69,5.22,1.89l-1.7,2.24c-0.98-0.81-2.19-1.27-3.46-1.33
		c-1.56,0-2.3,0.73-2.3,1.72c0,1.25,1.57,1.73,3.26,2.34c2.15,0.8,4.52,1.82,4.52,4.77c0,2.69-2.15,4.86-6.12,4.86
		C176.59,410.63,174.5,409.86,172.81,408.51z"/>
	<path class="st1" d="M188.17,406.27v-18.56h3.68v18.75c0,0.89,0.42,1.21,0.8,1.21c0.2,0,0.39-0.02,0.58-0.06l0.48,2.75
		c-0.64,0.24-1.32,0.35-2,0.32C189.13,410.68,188.17,409,188.17,406.27z"/>
	<path class="st1" d="M196,406.07c0-3.36,2.79-5.12,9.25-5.82c-0.06-1.66-0.74-3.07-2.88-3.07c-1.58,0.11-3.11,0.64-4.42,1.53
		l-1.34-2.46c1.92-1.28,4.16-1.99,6.46-2.05c3.91,0,5.86,2.4,5.86,6.79v9.31h-3l-0.26-1.73h-0.12c-1.32,1.26-3.05,2.01-4.87,2.11
		c-2.42,0.16-4.51-1.66-4.68-4.08C195.99,406.42,195.99,406.25,196,406.07z M205.25,406.07v-3.52c-4.29,0.55-5.7,1.67-5.7,3.24
		c0,1.4,1,2,2.28,2C203.16,407.7,204.39,407.08,205.25,406.07L205.25,406.07z"/>
	<path class="st1" d="M213.36,394.59h3l0.25,2.11h0.13c1.3-1.5,3.16-2.4,5.15-2.5c3.36,0,4.83,2.27,4.83,6.24v9.86h-3.68v-9.38
		c0-2.59-0.73-3.55-2.46-3.55c-1.38,0-2.27,0.67-3.58,1.95v11h-3.68L213.36,394.59z"/>
	<path class="st1" d="M230.32,402.46c0-5.12,3.23-8.26,6.65-8.26c1.55,0.01,3.04,0.63,4.13,1.73l-0.1-2.53v-5.69h3.68v22.59h-3
		l-0.25-1.7h-0.13c-1.16,1.24-2.75,1.99-4.45,2.08C232.84,410.68,230.32,407.64,230.32,402.46z M241,405.88v-7.33
		c-0.86-0.83-2.01-1.3-3.2-1.31c-2,0-3.65,1.89-3.65,5.19s1.28,5.21,3.56,5.21C239.02,407.6,240.24,406.95,241,405.88z"/>
	<path class="st1" d="M247.76,408.51l1.72-2.37c1.21,1.07,2.75,1.69,4.36,1.76c1.69,0,2.49-0.8,2.49-1.89
		c0-1.31-1.69-1.89-3.36-2.53c-2.08-0.77-4.41-2-4.41-4.57s2.2-4.71,5.72-4.71c1.9,0.03,3.74,0.69,5.22,1.89l-1.7,2.24
		c-0.97-0.81-2.18-1.28-3.45-1.34c-1.57,0-2.31,0.73-2.31,1.72c0,1.25,1.57,1.73,3.27,2.34c2.14,0.8,4.51,1.82,4.51,4.77
		c0,2.69-2.14,4.86-6.11,4.86C251.54,410.62,249.46,409.86,247.76,408.51z"/>
	<path class="st1" d="M41.68,427.77h3.81L52,439.55l2.16,4.45h0.13c-0.17-2.14-0.48-4.8-0.48-7.13v-9.09h3.55v20.92h-3.81L47,436.92
		l-2.14-4.45h-0.13c0.16,2.21,0.48,4.74,0.48,7.08v9.15h-3.53V427.77z"/>
	<path class="st1" d="M61.33,440.86c0-5.25,3.55-8.26,7.45-8.26s7.49,3,7.49,8.26s-3.55,8.22-7.49,8.22S61.33,446.07,61.33,440.86z
		 M72.49,440.86c0-3.17-1.4-5.25-3.71-5.25s-3.68,2.08-3.68,5.25s1.38,5.21,3.68,5.21S72.49,444,72.49,440.86z"/>
	<path class="st1" d="M79.92,433h3l0.25,2.78h0.13c1.12-2,2.78-3.17,4.45-3.17c0.61-0.03,1.23,0.08,1.79,0.32l-0.64,3.2
		c-0.53-0.17-1.08-0.26-1.63-0.25c-1.25,0-2.75,0.86-3.71,3.23v9.6h-3.64V433z"/>
	<path class="st1" d="M92.4,443.39v-7.49h-2.24v-2.75l2.43-0.16L93,428.7h3.07v4.3h4v2.91h-4v7.49c0,1.85,0.7,2.75,2.21,2.75
		c0.56-0.02,1.11-0.13,1.63-0.35l0.64,2.71c-1.03,0.37-2.11,0.56-3.2,0.58C93.74,449.08,92.4,446.78,92.4,443.39z"/>
	<path class="st1" d="M103.41,426.11h3.67v5.82l-0.12,3c1.28-1.43,3.08-2.28,5-2.37c3.36,0,4.83,2.27,4.83,6.24v9.86h-3.68v-9.38
		c0-2.59-0.73-3.55-2.46-3.55c-1.38,0-2.27,0.67-3.59,2v11h-3.67L103.41,426.11z"/>
	<path class="st1" d="M120.24,440.86c0-5.12,3.55-8.26,7.23-8.26c4.25,0,6.49,3.07,6.49,7.46c0.01,0.6-0.04,1.2-0.16,1.79h-10
		c0.32,2.78,2.11,4.38,4.64,4.38c1.3-0.01,2.58-0.41,3.65-1.15l1.25,2.31c-1.59,1.07-3.46,1.65-5.38,1.69
		C123.63,449.08,120.24,446,120.24,440.86z M130.76,439.35c0-2.43-1-3.9-3.2-3.9c-1.85,0-3.45,1.38-3.77,3.9H130.76z"/>
	<path class="st1" d="M137.49,433h3l0.25,2.78h0.13c1.12-2,2.78-3.17,4.45-3.17c0.61-0.03,1.23,0.08,1.79,0.32l-0.64,3.2
		c-0.53-0.17-1.08-0.25-1.63-0.25c-1.25,0-2.76,0.86-3.72,3.23v9.6h-3.67L137.49,433z"/>
	<path class="st1" d="M149.42,433h3l0.26,2.11h0.12c1.31-1.5,3.17-2.41,5.16-2.5c3.36,0,4.83,2.27,4.83,6.24v9.86h-3.68v-9.38
		c0-2.59-0.74-3.55-2.47-3.55c-1.37,0-2.27,0.67-3.58,2v11h-3.68L149.42,433z"/>
	<path class="st1" d="M174.06,427.77h4.19L182,438c0.45,1.31,0.9,2.72,1.35,4.1h0.13c0.44-1.38,0.86-2.79,1.31-4.1l3.61-10.24h4.23
		v20.94h-3.43v-9.57c0-1.95,0.29-4.74,0.48-6.66h-0.13l-1.69,4.87l-3.42,9.41h-2.21l-3.46-9.41l-1.66-4.87h-0.13
		c0.16,1.92,0.48,4.71,0.48,6.66v9.57h-3.36L174.06,427.77z"/>
	<path class="st1" d="M196.75,444.47c0-3.36,2.78-5.12,9.25-5.82c-0.07-1.66-0.74-3.07-2.88-3.07c-1.58,0.11-3.11,0.64-4.42,1.53
		l-1.34-2.46c1.92-1.26,4.16-1.95,6.46-2c3.9,0,5.85,2.4,5.85,6.79v9.31h-3l-0.26-1.73h-0.13c-1.32,1.26-3.04,2.01-4.86,2.11
		c-2.42,0.16-4.51-1.67-4.67-4.09C196.74,444.85,196.74,444.66,196.75,444.47z M206,444.47V441c-4.29,0.55-5.7,1.67-5.7,3.24
		c0,1.4,1,2,2.27,2S204.81,445.56,206,444.47z"/>
	<path class="st1" d="M214.09,433h3l0.26,2.78h0.13c1.12-2,2.78-3.17,4.44-3.17c0.61-0.03,1.23,0.08,1.79,0.32l-0.63,3.2
		c-0.53-0.17-1.08-0.26-1.64-0.25c-1.24,0-2.75,0.86-3.71,3.23v9.6h-3.68L214.09,433z"/>
	<path class="st1" d="M225.61,428.15c-0.11-1.25,0.82-2.36,2.07-2.47s2.36,0.82,2.47,2.07s-0.82,2.36-2.07,2.47
		c-0.07,0.01-0.13,0.01-0.2,0.01c-1.17,0.08-2.18-0.8-2.26-1.96C225.61,428.23,225.61,428.19,225.61,428.15z M226,433h3.68v15.7H226
		V433z"/>
	<path class="st1" d="M249.41,433h3l0.26,2.11h0.12c1.31-1.5,3.17-2.41,5.16-2.5c3.36,0,4.83,2.27,4.83,6.24v9.86h-3.68v-9.38
		c0-2.59-0.74-3.55-2.47-3.55c-1.37,0-2.27,0.67-3.58,2v11h-3.68L249.41,433z"/>
	<path class="st1" d="M266.5,444.47c0-3.36,2.78-5.12,9.25-5.82c-0.07-1.66-0.74-3.07-2.88-3.07c-1.58,0.11-3.11,0.64-4.42,1.53
		l-1.34-2.46c1.92-1.26,4.16-1.95,6.46-2c3.9,0,5.86,2.4,5.86,6.79v9.31h-3l-0.26-1.73H276c-1.32,1.26-3.04,2.01-4.86,2.11
		c-2.42,0.14-4.5-1.7-4.64-4.12C266.49,444.83,266.49,444.65,266.5,444.47z M232.24,444.27c0-3.36,2.78-5.12,9.25-5.82
		c-0.07-1.66-0.74-3.07-2.88-3.07c-1.58,0.11-3.11,0.64-4.42,1.53l-1.34-2.46c1.92-1.26,4.16-1.95,6.46-2c3.9,0,5.86,2.4,5.86,6.79
		v9.31h-3l-0.26-1.73h-0.17c-1.32,1.26-3.04,2.01-4.86,2.11c-2.42,0.14-4.5-1.7-4.64-4.12
		C232.23,444.63,232.23,444.45,232.24,444.27z M275.75,444.47V441c-4.29,0.55-5.7,1.67-5.7,3.24c0,1.4,1,2,2.27,2
		S274.56,445.56,275.75,444.47z M241.55,444.13v-3.47c-4.29,0.55-5.7,1.67-5.7,3.24c0,1.4,1,2,2.27,2S240.36,445.22,241.55,444.13z"
		/>
	<path class="st1" d="M290.56,427.77h3.71v20.93h-3.71V427.77z"/>
	<path class="st1" d="M297.7,446.91l1.73-2.37c1.2,1.07,2.74,1.69,4.35,1.76c1.69,0,2.49-0.8,2.49-1.89c0-1.31-1.69-1.89-3.36-2.53
		c-2.08-0.77-4.41-1.95-4.41-4.57s2.21-4.71,5.73-4.71c1.9,0.03,3.73,0.69,5.21,1.89l-1.69,2.24c-0.98-0.81-2.19-1.28-3.46-1.34
		c-1.57,0-2.3,0.73-2.3,1.72c0,1.25,1.56,1.73,3.26,2.34c2.14,0.8,4.51,1.82,4.51,4.77c0,2.69-2.14,4.86-6.11,4.86
		C301.48,449.02,299.4,448.26,297.7,446.91z"/>
	<path class="st1" d="M313.06,444.67v-18.56h3.68v18.75c0,0.89,0.41,1.21,0.8,1.21c0.19,0,0.38-0.02,0.57-0.06l0.48,2.75
		c-0.62,0.24-1.29,0.34-1.95,0.32C314,449.08,313.06,447.39,313.06,444.67z"/>
	<path class="st1" d="M320.9,444.47c0-3.36,2.78-5.12,9.25-5.82c-0.07-1.66-0.74-3.07-2.88-3.07c-1.58,0.11-3.11,0.64-4.42,1.53
		l-1.34-2.46c1.92-1.26,4.16-1.95,6.46-2c3.9,0,5.86,2.4,5.86,6.79v9.31h-3l-0.26-1.73h-0.13c-1.32,1.26-3.04,2.01-4.86,2.11
		c-2.42,0.17-4.51-1.66-4.68-4.08C320.89,444.86,320.89,444.66,320.9,444.47z M330.15,444.47V441c-4.29,0.55-5.7,1.67-5.7,3.24
		c0,1.4,1,2,2.27,2S329,445.56,330.15,444.47z"/>
	<path class="st1" d="M338.24,433h3l0.26,2.11h0.13c1.3-1.5,3.16-2.41,5.15-2.5c3.36,0,4.83,2.27,4.83,6.24v9.86H348v-9.38
		c0-2.59-0.74-3.55-2.46-3.55c-1.38,0-2.28,0.67-3.59,2v11h-3.68L338.24,433z"/>
	<path class="st1" d="M355.2,440.86c0-5.12,3.23-8.26,6.66-8.26c1.55,0,3.04,0.62,4.13,1.73l-0.13-2.53v-5.69h3.68v22.59h-3
		l-0.26-1.7h-0.13c-1.15,1.24-2.75,1.99-4.44,2.08C357.73,449.08,355.2,446,355.2,440.86z M365.86,444.28V437
		c-0.86-0.83-2.01-1.3-3.2-1.31c-2,0-3.65,1.89-3.65,5.19s1.28,5.21,3.55,5.21C363.88,446.03,365.1,445.37,365.86,444.28
		L365.86,444.28z"/>
	<path class="st1" d="M372.64,446.91l1.73-2.37c1.2,1.07,2.74,1.69,4.35,1.76c1.7,0,2.5-0.8,2.5-1.89c0-1.31-1.7-1.89-3.36-2.53
		c-2.08-0.77-4.42-1.95-4.42-4.57s2.21-4.71,5.73-4.71c1.9,0.03,3.74,0.69,5.21,1.89l-1.69,2.24c-0.98-0.81-2.19-1.28-3.46-1.34
		c-1.56,0-2.3,0.73-2.3,1.72c0,1.25,1.57,1.73,3.26,2.34c2.15,0.8,4.52,1.82,4.52,4.77c0,2.69-2.15,4.86-6.12,4.86
		C376.42,449.02,374.34,448.26,372.64,446.91z"/>
	<path class="st1" d="M41.68,466.17h6.59c4.64,0,8.1,1.6,8.1,6.46c0,4.64-3.46,6.79-8,6.79h-3v7.68h-3.69V466.17z M48.11,476.44
		c3.1,0,4.61-1.25,4.61-3.81s-1.63-3.48-4.74-3.48h-2.59v7.29H48.11z"/>
	<path class="st1" d="M57.93,482.87c0-3.36,2.79-5.12,9.25-5.82c-0.06-1.66-0.73-3.07-2.88-3.07c-1.58,0.11-3.1,0.64-4.41,1.53
		l-1.35-2.46c1.92-1.28,4.16-1.99,6.46-2.05c3.9,0,5.85,2.4,5.85,6.79v9.31h-3l-0.25-1.73h-0.13c-1.32,1.26-3.05,2.01-4.87,2.11
		c-2.42,0.16-4.51-1.68-4.67-4.09C57.92,483.21,57.92,483.04,57.93,482.87z M67.18,482.87v-3.52c-4.29,0.55-5.69,1.67-5.69,3.24
		c0,1.4,1,2,2.27,2C65.08,484.49,66.31,483.87,67.18,482.87z"/>
	<path class="st1" d="M75.28,483.07v-18.56H79v18.75c0,0.89,0.41,1.21,0.8,1.21c0.19,0,0.38-0.02,0.57-0.06l0.48,2.75
		c-0.64,0.24-1.32,0.35-2,0.32C76.24,487.48,75.28,485.79,75.28,483.07z"/>
	<path class="st1" d="M83.12,482.87c0-3.36,2.78-5.12,9.25-5.82c-0.07-1.66-0.74-3.07-2.88-3.07c-1.58,0.11-3.11,0.64-4.42,1.53
		l-1.34-2.46c1.92-1.28,4.16-1.99,6.46-2.05c3.9,0,5.85,2.4,5.85,6.79v9.31H93l-0.26-1.73h-0.13c-1.32,1.26-3.04,2.01-4.86,2.11
		c-2.42,0.14-4.49-1.72-4.63-4.14C83.11,483.19,83.11,483.03,83.12,482.87z M92.37,482.87v-3.52c-4.29,0.55-5.7,1.67-5.7,3.24
		c0,1.4,1,2,2.27,2S91.18,484,92.37,482.87z"/>
	<path class="st1" d="M100.3,481.24v-9.85h3.7v9.37c0,2.59,0.74,3.55,2.43,3.55c1.38,0,2.31-0.64,3.49-2.17v-10.75h3.68v15.71h-3
		l-0.28-2.31h-0.1c-1.17,1.65-3.04,2.64-5.06,2.69C101.77,487.48,100.3,485.21,100.3,481.24z"/>
	<g>
		<g>
			<polygon class="st1" points="585.63,166.09 576.87,174.8 583.18,188.7 599.2,192.27 601.12,210.18 614.74,212.44 624.36,207.84 
				639.34,205.14 644.86,199.53 642.91,190.33 633.4,187.62 620.66,176.09 612.73,174.89 598.01,180.59 592.96,170.86 			"/>
			<polygon class="st1" points="588.35,210.25 578.26,215.34 578.16,220.66 590.48,217.51 			"/>
			<polygon class="st1" points="546.04,150.45 522.02,146.81 517.14,158.77 523.23,160.35 539.79,158.71 559.22,164.48 
				566.27,162.39 575.15,152.94 555.43,152.02 555.33,156.25 553.01,153.07 			"/>
			<polygon class="st1" points="548.52,176.72 541.66,178.62 550.65,197.07 562.99,194.05 565.87,189.32 557.29,178.39 			"/>
			<polygon class="st2" points="585.63,166.09 576.87,174.8 583.18,188.7 599.2,192.27 601.12,210.18 614.74,212.44 624.36,207.84 
				639.34,205.14 644.86,199.53 642.91,190.32 633.4,187.62 620.66,176.08 612.73,174.89 598.01,180.59 592.96,170.86 			"/>
			<polygon class="st2" points="588.35,210.25 578.26,215.34 578.16,220.66 590.48,217.51 			"/>
			<polygon class="st2" points="546.04,150.45 522.02,146.81 517.14,158.77 523.23,160.35 539.79,158.71 559.22,164.48 
				566.27,162.39 575.15,152.94 555.42,152.02 555.33,156.25 553.01,153.07 			"/>
			<polygon class="st2" points="548.52,176.72 541.66,178.62 550.64,197.07 562.99,194.05 565.87,189.32 557.29,178.39 			"/>
			<polygon class="st1" points="315.23,41.32 297.83,42.29 283.46,50.98 278.34,58.75 280.9,67.81 289.42,70.35 295.63,76.71 
				311.11,79.25 322.17,69.58 321.78,60.33 325.45,50.12 			"/>
			<polygon class="st1" points="248.63,65.04 235.35,77.5 237.88,87.55 241.93,79.83 250.36,76.28 252.09,65.98 			"/>
			<polygon class="st2" points="315.23,41.32 297.82,42.29 283.46,50.99 278.34,58.75 280.9,67.81 289.42,70.35 295.63,76.71 
				311.11,79.25 322.17,69.58 321.78,60.33 325.45,50.12 			"/>
			<polygon class="st2" points="248.63,65.04 235.35,77.5 237.88,87.55 241.93,79.83 250.36,76.28 252.09,65.98 			"/>
			<polygon class="st1" points="546.04,150.45 553.01,153.07 555.33,156.25 555.43,152.02 550.37,147.18 			"/>
			<polygon class="st2" points="546.04,150.45 553.01,153.07 555.33,156.25 555.42,152.02 550.37,147.18 			"/>
			<polygon class="st1" points="452.22,95.51 439.34,108.82 423.58,109.92 437.46,131.14 439.88,138.32 452.34,136.62 
				470.26,142.69 484.31,138.38 473.42,121.4 471.71,126.74 466.3,121.88 457.08,99.47 			"/>
			<polygon class="st2" points="452.22,95.51 439.34,108.81 423.58,109.92 437.46,131.13 439.88,138.32 452.34,136.62 
				470.26,142.69 484.3,138.38 473.42,121.4 471.71,126.74 466.3,121.87 457.08,99.47 			"/>
			<polygon class="st1" points="674.55,383.99 682.43,378.1 691,361.63 711.2,348.43 727.62,346.95 742.99,339.12 757.69,325.78 
				758.95,321.7 741.95,309 739.95,299.5 731.8,300.39 732.41,288.22 726.7,280.94 713.26,270.48 686.59,259.2 683.6,260.19 
				667.57,248.2 656.64,245.03 652.96,252.26 654.98,261.59 660.59,269.09 659.91,275.2 651.4,287.18 645.65,288.57 637.78,300.42 
				646.96,315.48 648.49,325.06 654.92,340.86 651.57,362.71 655.41,371.41 663.27,373.8 			"/>
			<polygon class="st2" points="674.55,383.99 682.43,378.1 691,361.63 711.2,348.43 727.62,346.94 742.99,339.12 757.69,325.78 
				758.95,321.7 741.95,309 739.95,299.5 731.8,300.39 732.41,288.21 726.7,280.94 713.26,270.48 686.59,259.2 683.6,260.19 
				667.57,248.2 656.64,245.03 652.96,252.26 654.98,261.59 660.59,269.09 659.91,275.2 651.4,287.18 645.65,288.57 637.78,300.42 
				646.96,315.48 648.49,325.06 654.92,340.86 651.57,362.71 655.41,371.41 663.27,373.8 			"/>
		</g>
	</g>
	<path class="st1" d="M589.86,90.67h4.64v10.52h10.59V90.67h4.64v26.16h-4.64v-11.6H594.5v11.6h-4.64V90.67z"/>
	<path class="st1" d="M614.94,111.55c0-4.2,3.48-6.4,11.55-7.28c-0.08-2.08-0.92-3.84-3.6-3.84c-1.97,0.14-3.88,0.8-5.51,1.92
		l-1.68-3.08c2.4-1.59,5.19-2.48,8.07-2.56c4.88,0,7.32,3,7.32,8.48v11.64h-3.8l-0.32-2.16h-0.16c-1.64,1.57-3.8,2.51-6.07,2.64
		c-3.03,0.18-5.62-2.14-5.8-5.16C614.93,111.95,614.93,111.75,614.94,111.55z M626.49,111.55v-4.4c-5.35,0.68-7.11,2.08-7.11,4
		c0,1.76,1.2,2.52,2.83,2.52S625,112.91,626.49,111.55z"/>
	<path class="st1" d="M634.66,97.19h4.63l2.37,10.2c0.39,1.88,0.67,3.72,1,5.64h0.16c0.36-1.92,0.76-3.8,1.24-5.64l2.56-10.2h4.2
		l2.6,10.2c0.48,1.88,0.88,3.72,1.32,5.64h0.16c0.36-1.92,0.68-3.76,1-5.64l2.36-10.2h4.32l-5,19.64h-5.48l-2.28-9.16
		c-0.44-1.84-0.76-3.64-1.2-5.72h-0.16c-0.36,2.08-0.72,3.92-1.16,5.76l-2.24,9.12h-5.27L634.66,97.19z"/>
	<path class="st1" d="M665.1,111.55c0-4.2,3.48-6.4,11.55-7.28c-0.08-2.08-0.92-3.84-3.6-3.84c-1.97,0.14-3.88,0.8-5.51,1.92
		l-1.68-3.08c2.4-1.6,5.19-2.48,8.07-2.56c4.88,0,7.32,3,7.32,8.48v11.64h-3.8l-0.32-2.16H677c-1.65,1.58-3.8,2.51-6.08,2.64
		c-3.03,0.19-5.63-2.12-5.82-5.14C665.09,111.96,665.09,111.76,665.1,111.55z M676.65,111.55v-4.4c-5.36,0.68-7.11,2.08-7.11,4
		c0,1.76,1.19,2.52,2.83,2.52S675.17,112.91,676.65,111.55L676.65,111.55z"/>
	<path class="st1" d="M686.25,91.15c-0.14-1.57,1.02-2.95,2.59-3.09c1.57-0.14,2.95,1.02,3.09,2.59c0.14,1.57-1.02,2.95-2.59,3.09
		c-0.08,0.01-0.17,0.01-0.25,0.01c-1.46,0.11-2.73-0.99-2.83-2.45C686.25,91.25,686.25,91.2,686.25,91.15z M686.78,97.15h4.59v19.64
		h-4.59V97.15z"/>
	<path class="st1" d="M696.74,91.15c-0.14-1.57,1.02-2.95,2.59-3.09c1.57-0.14,2.95,1.02,3.09,2.59c0.14,1.57-1.02,2.95-2.59,3.09
		c-0.08,0.01-0.17,0.01-0.25,0.01c-1.45,0.11-2.72-0.98-2.83-2.43C696.74,91.26,696.74,91.21,696.74,91.15z M697.26,97.15h4.59
		v19.64h-4.59V97.15z"/>
	<path class="st1" d="M66.94,99.9c0-8.55,5.4-13.63,12.36-13.63c2.99-0.04,5.85,1.16,7.92,3.32l-2.48,3
		c-1.36-1.47-3.28-2.29-5.28-2.27c-4.64,0-7.76,3.59-7.76,9.47s2.76,9.56,8,9.56c1.35,0.06,2.68-0.35,3.76-1.16v-5.64h-5v-3.8h9.12
		v11.52c-2.28,2.08-5.28,3.19-8.36,3.12C72.18,113.38,66.94,108.58,66.94,99.9z"/>
	<path class="st1" d="M92.82,105.58V93.26h4.6V105c0,3.24,0.92,4.44,3,4.44c1.72,0,2.88-0.8,4.36-2.72V93.26h4.6v19.64h-3.76
		l-0.32-2.9h-0.12c-1.72,2-3.64,3.36-6.32,3.36C94.66,113.38,92.82,110.54,92.82,105.58z"/>
	<path class="st1" d="M114.22,107.62c0-4.2,3.48-6.4,11.56-7.28c-0.08-2.08-0.92-3.84-3.6-3.84c-1.98,0.14-3.88,0.8-5.52,1.92
		L115,95.34c2.4-1.59,5.2-2.48,8.08-2.56c4.88,0,7.32,3,7.32,8.48v11.64h-3.8l-0.32-2.16h-0.16c-1.65,1.58-3.8,2.51-6.08,2.64
		c-3.03,0.19-5.63-2.12-5.82-5.14C114.21,108.03,114.21,107.83,114.22,107.62z M125.78,107.62v-4.4c-5.36,0.68-7.12,2.08-7.12,4
		c0,1.76,1.2,2.52,2.84,2.52S124.3,109,125.78,107.62z"/>
	<path class="st1" d="M135.9,93.26h3.8l0.32,2.68h0.16c1.64-1.76,3.56-3.16,6-3.16c2.4-0.19,4.63,1.25,5.44,3.52
		c1.88-2,3.84-3.52,6.32-3.52c4.15,0,6.07,2.84,6.07,7.8v12.32h-4.63v-11.72c0-3.24-1-4.44-3-4.44c-1.24,0-2.6,0.8-4.12,2.44v13.72
		h-4.6v-11.72c0-3.24-1-4.44-3-4.44c-1.2,0-2.6,0.8-4.12,2.44v13.72h-4.6L135.9,93.26z"/>
	<rect y="270.73" class="st3" width="496.24" height="274.19"/>
	<polygon class="st1" points="146.35,141.48 133.78,138.97 127.56,129.62 122.5,127.07 116.58,134.83 116.97,141.63 108.42,157.6 
		107.53,164.17 101.56,164.32 100.09,170.87 90.24,171.04 80.93,175.11 73.51,174.83 74.64,180.75 63.85,178.9 70.02,187.89 
		74.22,191.08 68.3,205.62 74.24,222.24 77.71,228.04 90.04,229.96 92.79,224.76 97.86,221.96 101.12,215.7 100.97,192.67 
		105.13,188.12 120.36,175.31 132.99,162.83 138.12,161.24 142.28,149.03 	"/>
</g>
<g id="Layer_5">
	<circle class="st4" cx="456.01" cy="137.57" r="29.28"/>
	<circle class="st5" cx="456.01" cy="137.57" r="9.02"/>
	<circle class="st5" cx="92.82" cy="172.78" r="9.02"/>
</g>
<line class="st3" x1="201.1" y1="25.42" x2="201.1" y2="239.58"/>
</svg>
