<?xml version="1.0" encoding="UTF-8" standalone="no"?>
<!-- Generator: Adobe Illustrator 25.4.1, SVG Export Plug-In . SVG Version: 6.00 Build 0)  -->

<svg
   version="1.1"
   id="Layer_1"
   x="0px"
   y="0px"
   viewBox="0 0 784.06 507.87"
   style="enable-background:new 0 0 784.06 507.87;"
   xml:space="preserve"
   sodipodi:docname="SBA_DOMap_NH2.svg"
   inkscape:version="1.2 (dc2aedaf03, 2022-05-15)"
   xmlns:inkscape="http://www.inkscape.org/namespaces/inkscape"
   xmlns:sodipodi="http://sodipodi.sourceforge.net/DTD/sodipodi-0.dtd"
   xmlns="http://www.w3.org/2000/svg"
   xmlns:svg="http://www.w3.org/2000/svg"><defs
   id="defs231">
	
	
	
	
	
	
	
	
	
	
	
	
	
	
	
	
	
	
	
	
</defs><sodipodi:namedview
   id="namedview229"
   pagecolor="#ffffff"
   bordercolor="#000000"
   borderopacity="0.25"
   inkscape:showpageshadow="2"
   inkscape:pageopacity="0.0"
   inkscape:pagecheckerboard="0"
   inkscape:deskcolor="#d1d1d1"
   showgrid="false"
   inkscape:zoom="1.4846319"
   inkscape:cx="274.47881"
   inkscape:cy="307.82041"
   inkscape:window-width="1920"
   inkscape:window-height="986"
   inkscape:window-x="-11"
   inkscape:window-y="-11"
   inkscape:window-maximized="1"
   inkscape:current-layer="Layer_1" />
<style
   type="text/css"
   id="style121">
	.st0{fill:#E6E6E6;}
	.st1{fill:none;stroke:#F0F0F0;stroke-width:2.54;stroke-miterlimit:10;}
	.st2{fill:#F0F0F0;}
	.st3{opacity:0.8;fill:#007DBC;enable-background:new    ;}
	.st4{fill:none;stroke:#0675AF;stroke-width:0.64;stroke-linejoin:bevel;}
	.st5{fill-rule:evenodd;clip-rule:evenodd;fill:#FFFFFF;}
	.st6{fill:none;}
	.st7{fill:none;stroke:#0675AF;stroke-width:0.64;stroke-linecap:square;stroke-linejoin:bevel;}
	.st8{fill:none;stroke:#FFFFFF;stroke-width:3;stroke-miterlimit:10;}
	.st9{fill:#FFFFFF;}
	.st10{fill:#007DBC;}
</style>
<g
   id="Layer_1_00000080893229579309335260000001130215238082965656_">
	<rect
   x="-11.18"
   y="-11.39"
   class="st0"
   width="804.92"
   height="529.99"
   id="rect123" />
</g>
<g
   id="Layer_2_00000024688578414253896740000016666359274037035428_">
	<polygon
   class="st1"
   points="356.97,390.16 354.87,396.59 348.12,396.59 353.58,400.56 351.5,406.99 356.97,403.02 362.43,406.99    360.34,400.56 365.82,396.59 359.05,396.59  "
   id="polygon126" />
	<rect
   x="299.27"
   y="408.53"
   class="st2"
   width="115.62"
   height="21.6"
   id="rect128" />
	<polygon
   class="st3"
   points="236.8,405.58 239.5,410.2 247.31,410.85 246.75,406.24 275.64,401.87 272.75,410.87 291.19,411.45    295.01,400.8 287.6,388.71 284.37,376.51 289.56,366.52 289.13,355.09 294.71,355.83 304.71,339.28 287.36,336.45 284.25,339.19    282.2,334.73 269.06,329.06 252.9,326.26 247.44,329.84 243.86,342.47 244.76,350.07 241.66,368.68 244.84,370.65 242.35,374.66    244.24,378.31 239.14,388 239.22,392.62  "
   id="polygon130" />
	<polygon
   class="st4"
   points="236.8,405.58 239.5,410.2 247.31,410.85 246.75,406.24 275.63,401.87 272.75,410.87 291.19,411.44    295.01,400.8 287.6,388.7 284.37,376.5 289.56,366.51 289.13,355.09 294.71,355.83 304.71,339.28 287.35,336.45 284.25,339.19    282.2,334.73 269.05,329.06 252.9,326.26 247.44,329.84 243.86,342.47 244.76,350.07 241.66,368.68 244.84,370.65 242.35,374.67    244.24,378.31 239.14,388 239.22,392.62  "
   id="polygon132" />
	<polygon
   class="st3"
   points="395.09,385.24 424.06,409.77 417.98,419.92 441.94,419.69 451.95,395.65 441.19,383.24 436.41,374.14    433.28,374.32 429.4,366.14 429.3,359.94 432.66,355.59 430.72,348.3 432.93,344.53 432.53,337 424.36,347.5 422.67,339.05    412.88,343.18 410.79,331.2 402.32,342.14 406.53,370.49  "
   id="polygon134" />
	<polygon
   class="st4"
   points="395.09,385.24 424.06,409.77 417.97,419.92 441.94,419.69 451.95,395.65 441.19,383.24 436.4,374.14    433.28,374.32 429.4,366.13 429.3,359.93 432.66,355.59 430.72,348.3 432.92,344.54 432.53,336.99 424.36,347.5 422.67,339.05    412.88,343.17 410.79,331.19 402.31,342.14 406.53,370.49  "
   id="polygon136" />
	<polygon
   class="st3"
   points="376.03,432.99 378.25,445.52 368.28,447.05 371.46,466.01 376.79,466.28 381.42,475.45 393.42,478.38    395.31,480.75 403.68,481.64 403.12,472.14 410.16,466.64 419.13,469.34 423.47,459.89 436.66,455.31 442.59,455.69 447.45,459.56    451.72,457.52 464.55,424.96 451.13,413.35 441.94,419.69 417.98,419.92 424.06,409.77 395.09,385.24 375.85,427.71  "
   id="polygon138" />
	<polygon
   class="st4"
   points="376.03,432.99 378.25,445.52 368.28,447.05 371.46,466.01 376.79,466.28 381.42,475.45 393.42,478.38    395.31,480.74 403.68,481.64 403.12,472.14 410.16,466.64 419.13,469.35 423.46,459.88 436.65,455.32 442.59,455.69 447.45,459.56    451.72,457.52 464.54,424.95 451.13,413.35 441.94,419.69 417.97,419.92 424.06,409.77 395.09,385.24 375.85,427.7  "
   id="polygon140" />
	<polygon
   class="st3"
   points="376.03,432.99 375.85,427.71 395.09,385.24 396.59,383.35 381.6,371.88 354.39,352.54 348.69,356.23    346.18,354.6 343.66,345.75 336.81,341.4 331.95,332.92 327.62,332.12 320.11,336.35 315.97,324.19 304.71,339.28 294.71,355.83    289.13,355.09 289.56,366.52 284.37,376.51 287.6,388.71 295.01,400.8 307.59,397.31 315.11,413.86 339.84,407.16 343.32,424.87    359.45,422.22 360.21,425.93 368.54,430.94  "
   id="polygon142" />
	<polygon
   class="st4"
   points="376.03,432.99 375.85,427.7 395.09,385.24 396.59,383.35 381.6,371.88 354.39,352.54 348.69,356.23    346.18,354.6 343.66,345.74 336.81,341.4 331.95,332.92 327.62,332.12 320.1,336.35 315.96,324.19 304.71,339.28 294.71,355.83    289.13,355.09 289.56,366.51 284.37,376.5 287.6,388.7 295.01,400.8 307.58,397.31 315.11,413.86 339.84,407.16 343.32,424.87    359.45,422.22 360.21,425.93 368.54,430.94  "
   id="polygon144" />
	<polygon
   class="st3"
   points="305.55,486.18 388.92,488.9 393.93,481.91 395.31,480.75 393.42,478.38 381.42,475.45 376.79,466.28    371.46,466.01 368.28,447.05 378.25,445.52 376.03,432.99 368.54,430.94 360.21,425.93 359.45,422.22 343.32,424.87 339.84,407.16    315.11,413.86 307.59,397.31 295.01,400.8 291.19,411.45 288.56,431.21 288,444.52 295.39,444.68 299.56,472.37 303.45,472.51  "
   id="polygon146" />
	<polygon
   class="st4"
   points="305.55,486.18 388.92,488.9 393.93,481.91 395.31,480.74 393.42,478.38 381.42,475.45 376.79,466.28    371.46,466.01 368.28,447.05 378.25,445.52 376.03,432.99 368.54,430.94 360.21,425.93 359.45,422.22 343.32,424.87 339.84,407.16    315.11,413.86 307.58,397.31 295.01,400.8 291.19,411.44 288.56,431.21 288,444.52 295.39,444.68 299.56,472.37 303.45,472.51  "
   id="polygon148" />
	<polygon
   class="st3"
   points="252.9,326.26 269.06,329.06 282.2,334.73 284.25,339.19 287.36,336.45 304.71,339.28 315.97,324.19    320.11,336.35 327.62,332.12 331.95,332.92 331.47,328.02 340.44,325.37 342.4,310.65 358.96,308.65 357.62,296.33 353.39,273    380.02,268.92 377.28,249.42 381.99,240.89 377.41,235.62 376.65,225.06 373.34,223.08 372.94,214.69 369.33,207.87 360.92,205.36    351.92,206.88 350.44,197.69 337.34,191.87 336.04,192.64 327.11,178.98 320.62,183.45 317.52,189.79 312.94,191.85 308.43,189.7    298.68,191.68 291.85,194.82 287.29,203.89 289.9,209.85 287.54,218.87 290.43,224.8 290.93,225.02 289.32,231.57 292,239.44    285.74,245.93 280.83,254.5 280.69,267.49 271.51,279.74 272.1,288.17 269.26,295.25 260.57,301.95 256.48,307.51 256.3,313.94    252.2,323.43  "
   id="polygon150" />
	<polygon
   class="st4"
   points="252.9,326.26 269.05,329.06 282.2,334.73 284.25,339.19 287.35,336.45 304.71,339.28 315.96,324.19    320.1,336.35 327.62,332.12 331.95,332.92 331.47,328.02 340.44,325.37 342.4,310.65 358.96,308.65 357.62,296.33 353.39,273    380.02,268.92 377.28,249.42 381.99,240.89 377.41,235.62 376.64,225.06 373.34,223.08 372.94,214.69 369.33,207.87 360.92,205.36    351.92,206.88 350.44,197.69 337.34,191.87 336.04,192.63 327.11,178.98 320.62,183.45 317.52,189.79 312.94,191.85 308.43,189.7    298.68,191.68 291.85,194.82 287.29,203.89 289.9,209.85 287.54,218.87 290.43,224.8 290.93,225.02 289.32,231.58 292,239.44    285.74,245.93 280.82,254.5 280.69,267.49 271.51,279.74 272.1,288.17 269.26,295.25 260.57,301.94 256.48,307.51 256.3,313.94    252.2,323.43  "
   id="polygon152" />
	<polygon
   class="st3"
   points="372.94,214.69 375.65,214.18 376.99,220.74 380.6,223.14 382.43,236.64 386.59,236.74 387.37,228.41    394.41,208.81 414.73,210.44 421.98,209.98 421.72,201.56 426.25,201.36 422.64,114.61 417.46,23.33 416.49,12.43 410.22,23.61    403.8,24.64 397.21,22.81 390.3,13.05 376.91,25.89 369.34,25.59 375.31,31.41 370.02,43.06 371.23,46.26 362.09,56.37    361.55,66.81 356.95,70.6 359.95,82.89 362.56,85.64 352.12,103.04 352.26,107.89 344.58,115.13 350.35,132.01 353.29,133.47    354.67,144.49 356.93,146.16 349.16,151.95 352.29,155.11 351.75,161.15 344.44,164.76 340.31,173.13 334.44,178.06 327.11,178.98    336.04,192.64 337.34,191.87 350.44,197.69 351.92,206.88 360.92,205.36 369.33,207.87  "
   id="polygon154" />
	<polygon
   class="st4"
   points="372.94,214.69 375.65,214.18 376.99,220.74 380.6,223.14 382.43,236.64 386.59,236.73 387.37,228.41    394.41,208.8 414.73,210.44 421.98,209.98 421.72,201.56 426.25,201.36 422.64,114.61 417.46,23.33 416.49,12.43 410.22,23.61    403.8,24.64 397.2,22.81 390.3,13.05 376.91,25.89 369.34,25.59 375.31,31.41 370.02,43.06 371.23,46.26 362.09,56.37    361.55,66.81 356.95,70.6 359.95,82.89 362.56,85.64 352.12,103.04 352.26,107.89 344.58,115.13 350.35,132.01 353.29,133.47    354.67,144.48 356.93,146.16 349.16,151.95 352.29,155.1 351.75,161.15 344.43,164.76 340.31,173.13 334.44,178.06 327.11,178.98    336.04,192.63 337.34,191.87 350.44,197.69 351.92,206.88 360.92,205.36 369.33,207.87  "
   id="polygon156" />
	<polygon
   class="st3"
   points="259.02,484.52 305.55,486.18 303.45,472.51 299.56,472.37 295.39,444.68 288,444.52 288.56,431.21    291.19,411.45 272.75,410.87 275.64,401.87 246.75,406.24 247.31,410.85 239.5,410.2 236.8,405.58 239.34,413.25 239.04,419.09    234.79,425.15 237.85,432.85 233.98,439.6 226.33,442.65 227.28,449.86 223.57,455.24 224.89,468.95 228.79,476.95 231.6,475.36    235.96,483.57  "
   id="polygon158" />
	<polygon
   class="st4"
   points="259.02,484.52 305.55,486.18 303.45,472.51 299.56,472.37 295.39,444.68 288,444.52 288.56,431.21    291.19,411.44 272.75,410.87 275.63,401.87 246.75,406.24 247.31,410.85 239.5,410.2 236.8,405.58 239.34,413.25 239.04,419.09    234.79,425.15 237.85,432.85 233.98,439.6 226.33,442.65 227.28,449.86 223.57,455.24 224.89,468.95 228.79,476.95 231.6,475.36    235.96,483.57  "
   id="polygon160" />
	<polygon
   class="st3"
   points="406.07,337.29 410.79,331.2 412.88,343.18 422.67,339.05 424.36,347.5 432.53,337 431.14,331.58    429,291.34 426.25,201.36 421.72,201.56 421.98,209.98 414.73,210.44 394.41,208.81 387.37,228.41 386.59,236.74 382.43,236.64    380.6,223.14 376.99,220.74 375.65,214.18 372.94,214.69 373.34,223.08 376.65,225.06 377.41,235.62 381.99,240.89 377.28,249.42    380.02,268.92 353.39,273 357.62,296.33 366.49,305.78 393.28,331.36 401.34,333.66  "
   id="polygon162" />
	<polygon
   class="st4"
   points="406.07,337.29 410.79,331.19 412.88,343.17 422.67,339.05 424.36,347.5 432.53,336.99 431.14,331.58    429,291.34 426.25,201.36 421.72,201.56 421.98,209.98 414.73,210.44 394.41,208.8 387.37,228.41 386.59,236.73 382.43,236.64    380.6,223.14 376.99,220.74 375.65,214.18 372.94,214.69 373.34,223.08 376.64,225.06 377.41,235.62 381.99,240.89 377.28,249.42    380.02,268.92 353.39,273 357.62,296.33 366.49,305.78 393.28,331.36 401.34,333.66  "
   id="polygon164" />
	<polygon
   class="st3"
   points="396.59,383.35 406.53,370.49 402.32,342.14 406.07,337.29 401.34,333.66 393.28,331.36 366.49,305.78    357.62,296.33 358.96,308.65 342.4,310.65 340.44,325.37 331.47,328.02 331.95,332.92 336.81,341.4 343.66,345.75 346.18,354.6    348.69,356.23 354.39,352.54 381.6,371.88  "
   id="polygon166" />
	<polygon
   class="st4"
   points="396.59,383.35 406.53,370.49 402.31,342.14 406.07,337.29 401.34,333.66 393.28,331.36 366.49,305.78    357.62,296.33 358.96,308.65 342.4,310.65 340.44,325.37 331.47,328.02 331.95,332.92 336.81,341.4 343.66,345.74 346.18,354.6    348.69,356.23 354.39,352.54 381.6,371.88  "
   id="polygon168" />
	<polygon
   class="st5"
   points="356.97,390.16 354.87,396.59 348.12,396.59 353.58,400.56 351.5,406.99 356.97,403.02 362.43,406.99    360.34,400.56 365.82,396.59 359.05,396.59  "
   id="polygon170" />
	<g
   id="g178">
		<path
   class="st6"
   d="M685.53-11.39"
   id="path172" />
		<g
   id="g176">
			<line
   class="st7"
   x1="2.59"
   y1="-11.39"
   x2="2.59"
   y2="512.72"
   id="line174" />
		</g>
	</g>
</g>
<g
   id="Layer_3">
	<circle
   class="st8"
   cx="357.16"
   cy="399.86"
   r="29.28"
   id="circle181" />
	<circle
   class="st9"
   cx="357.16"
   cy="399.86"
   r="9.02"
   id="circle183" />
</g>
<path
   class="st10"
   d="m 482.83,305.03 h 4.76 l 8.16,14.72 2.68,5.56 h 0.16 c -0.2,-2.68 -0.6,-6 -0.6,-8.92 v -11.36 h 4.44 v 26.16 h -4.76 l -8.16,-14.72 -2.68,-5.56 h -0.16 c 0.2,2.76 0.6,5.92 0.6,8.84 v 11.44 h -4.44 z"
   id="path186" /><path
   class="st10"
   d="m 507.39,321.39 c 0,-6.4 4.44,-10.32 9.04,-10.32 5.32,0 8.12,3.84 8.12,9.32 0,0.88 -0.08,1.76 -0.2,2.24 h -12.48 c 0.4,3.48 2.64,5.48 5.8,5.48 1.68,0 3.12,-0.52 4.56,-1.44 l 1.56,2.88 c -1.88,1.24 -4.24,2.12 -6.72,2.12 -5.44,0 -9.68,-3.8 -9.68,-10.28 z m 13.16,-1.88 c 0,-3.04 -1.32,-4.88 -4,-4.88 -2.32,0 -4.32,1.72 -4.72,4.88 z"
   id="path188" /><path
   class="st10"
   d="m 526.99,311.55 h 4.64 l 2.36,10.2 c 0.4,1.88 0.68,3.72 1.04,5.64 h 0.16 c 0.36,-1.92 0.76,-3.8 1.24,-5.64 l 2.56,-10.2 h 4.2 l 2.6,10.2 c 0.48,1.88 0.88,3.72 1.32,5.64 h 0.16 c 0.36,-1.92 0.68,-3.76 1.04,-5.64 l 2.36,-10.2 h 4.32 l -5,19.64 h -5.48 l -2.28,-9.16 c -0.44,-1.84 -0.76,-3.64 -1.2,-5.72 h -0.16 c -0.36,2.08 -0.72,3.92 -1.16,5.76 l -2.24,9.12 h -5.28 z"
   id="path190" /><path
   class="st10"
   d="m 567.27,305.03 h 4.64 v 10.52 h 10.6 v -10.52 h 4.64 v 26.16 h -4.64 v -11.6 h -10.6 v 11.6 h -4.64 z"
   id="path192" /><path
   class="st10"
   d="m 592.35,325.91 c 0,-4.2 3.48,-6.4 11.56,-7.28 -0.08,-2.08 -0.92,-3.84 -3.6,-3.84 -1.92,0 -3.76,0.88 -5.52,1.92 l -1.68,-3.08 c 2.16,-1.36 4.96,-2.56 8.08,-2.56 4.88,0 7.32,3 7.32,8.48 v 11.64 h -3.8 l -0.32,-2.16 h -0.16 c -1.76,1.48 -3.76,2.64 -6.08,2.64 -3.44,0 -5.8,-2.32 -5.8,-5.76 z m 11.56,0 v -4.4 c -5.36,0.68 -7.12,2.08 -7.12,4.04 0,1.76 1.2,2.52 2.84,2.52 1.6,0 2.8,-0.8 4.28,-2.16 z"
   id="path194" /><path
   class="st10"
   d="m 614.03,311.55 h 3.8 l 0.32,2.68 h 0.16 c 1.64,-1.76 3.56,-3.16 6,-3.16 2.88,0 4.52,1.32 5.44,3.52 1.88,-2 3.84,-3.52 6.32,-3.52 4.16,0 6.08,2.84 6.08,7.8 v 12.32 h -4.64 v -11.72 c 0,-3.24 -0.96,-4.44 -3,-4.44 -1.24,0 -2.6,0.8 -4.12,2.44 v 13.72 h -4.6 v -11.72 c 0,-3.24 -0.96,-4.44 -3.04,-4.44 -1.2,0 -2.6,0.8 -4.12,2.44 v 13.72 h -4.6 z"
   id="path196" /><path
   class="st10"
   d="m 647.75,311.55 h 3.8 l 0.32,2.08 h 0.16 c 1.64,-1.4 3.76,-2.56 5.92,-2.56 4.88,0 7.72,3.92 7.72,10 0,6.72 -4.04,10.6 -8.4,10.6 -1.72,0 -3.44,-0.8 -5.04,-2.16 l 0.12,3.28 v 6.16 h -4.6 z m 13.16,9.56 c 0,-3.92 -1.28,-6.24 -4.24,-6.24 -1.44,0 -2.8,0.72 -4.32,2.2 v 9.16 c 1.44,1.2 2.8,1.64 3.96,1.64 2.6,0 4.6,-2.32 4.6,-6.76 z"
   id="path198" /><path
   class="st10"
   d="m 668.19,328.95 2.16,-2.96 c 1.76,1.36 3.44,2.2 5.44,2.2 2.12,0 3.12,-1 3.12,-2.36 0,-1.64 -2.12,-2.36 -4.2,-3.16 -2.6,-0.96 -5.52,-2.44 -5.52,-5.72 0,-3.44 2.76,-5.88 7.16,-5.88 2.72,0 4.92,1.12 6.52,2.36 l -2.12,2.8 c -1.36,-1 -2.76,-1.68 -4.32,-1.68 -1.96,0 -2.88,0.92 -2.88,2.16 0,1.56 1.96,2.16 4.08,2.92 2.68,1 5.64,2.28 5.64,5.96 0,3.36 -2.68,6.08 -7.64,6.08 -2.68,0 -5.52,-1.16 -7.44,-2.72 z"
   id="path200" /><path
   class="st10"
   d="m 687.39,302.96 h 4.6 v 7.28 l -0.16,3.8 c 1.64,-1.56 3.6,-2.96 6.28,-2.96 4.2,0 6.04,2.84 6.04,7.8 v 12.32 h -4.6 v -11.72 c 0,-3.24 -0.92,-4.44 -3.08,-4.44 -1.72,0 -2.84,0.84 -4.48,2.44 v 13.72 h -4.6 z"
   id="path202" /><path
   class="st10"
   d="m 709.19,305.51 c 0,-1.56 1.2,-2.64 2.84,-2.64 1.64,0 2.84,1.08 2.84,2.64 0,1.52 -1.2,2.6 -2.84,2.6 -1.64,0 -2.84,-1.08 -2.84,-2.6 z m 0.52,6.04 h 4.6 v 19.64 h -4.6 z"
   id="path204" /><path
   class="st10"
   d="m 720.19,311.55 h 3.8 l 0.32,3.48 h 0.16 c 1.4,-2.56 3.48,-3.96 5.56,-3.96 1,0 1.64,0.12 2.24,0.4 l -0.8,4 c -0.68,-0.2 -1.2,-0.32 -2.04,-0.32 -1.56,0 -3.44,1.08 -4.64,4.04 v 12 h -4.6 z"
   id="path206" /><path
   class="st10"
   d="m 733.43,321.39 c 0,-6.4 4.44,-10.32 9.04,-10.32 5.32,0 8.12,3.84 8.12,9.32 0,0.88 -0.08,1.76 -0.2,2.24 h -12.48 c 0.4,3.48 2.64,5.48 5.8,5.48 1.68,0 3.12,-0.52 4.56,-1.44 l 1.56,2.88 c -1.88,1.24 -4.24,2.12 -6.72,2.12 -5.44,0 -9.68,-3.8 -9.68,-10.28 z m 13.16,-1.88 c 0,-3.04 -1.32,-4.88 -4,-4.88 -2.32,0 -4.32,1.72 -4.72,4.88 z"
   id="path208" /><path
   class="st10"
   d="m 580.5,344.29 h 4.2 c 4.8,0 7.63,2.59 7.63,7.78 0,5.21 -2.83,7.92 -7.49,7.92 h -4.34 z m 4.01,13.44 c 3.17,0 4.97,-1.8 4.97,-5.66 0,-3.84 -1.8,-5.52 -4.97,-5.52 h -1.22 v 11.18 z"
   id="path210" /><path
   class="st10"
   d="m 594.95,344.58 c 0,-0.94 0.72,-1.58 1.7,-1.58 0.98,0 1.7,0.65 1.7,1.58 0,0.91 -0.72,1.56 -1.7,1.56 -0.98,0 -1.7,-0.65 -1.7,-1.56 z m 0.31,3.63 h 2.76 V 360 h -2.76 z"
   id="path212" /><path
   class="st10"
   d="m 600.37,358.65 1.3,-1.78 c 1.06,0.82 2.06,1.32 3.26,1.32 1.27,0 1.87,-0.6 1.87,-1.42 0,-0.98 -1.27,-1.42 -2.52,-1.9 -1.56,-0.58 -3.31,-1.46 -3.31,-3.43 0,-2.06 1.66,-3.53 4.3,-3.53 1.63,0 2.95,0.67 3.91,1.42 l -1.27,1.68 c -0.82,-0.6 -1.66,-1.01 -2.59,-1.01 -1.18,0 -1.73,0.55 -1.73,1.3 0,0.94 1.18,1.3 2.45,1.75 1.61,0.6 3.38,1.37 3.38,3.58 0,2.02 -1.61,3.65 -4.58,3.65 -1.61,0 -3.31,-0.7 -4.47,-1.63 z"
   id="path214"
   style="stroke-width:0.999996" /><path
   class="st10"
   d="m 611.82,356.01 v -5.62 h -1.68 v -2.06 l 1.82,-0.12 0.34,-3.22 h 2.3 v 3.22 h 3 v 2.18 h -3 v 5.62 c 0,1.39 0.53,2.06 1.66,2.06 0.41,0 0.89,-0.12 1.22,-0.26 l 0.48,2.04 c -0.65,0.22 -1.46,0.43 -2.4,0.43 -2.73,0 -3.74,-1.73 -3.74,-4.27 z"
   id="path216" /><path
   class="st10"
   d="m 620.08,348.21 h 2.28 l 0.19,2.09 h 0.1 c 0.84,-1.54 2.09,-2.38 3.34,-2.38 0.6,0 0.98,0.07 1.34,0.24 l -0.48,2.4 c -0.41,-0.12 -0.72,-0.19 -1.22,-0.19 -0.94,0 -2.06,0.65 -2.78,2.42 v 7.2 h -2.76 v -11.78 z"
   id="path218" /><path
   class="st10"
   d="m 628.72,344.58 c 0,-0.94 0.72,-1.58 1.7,-1.58 0.98,0 1.7,0.65 1.7,1.58 0,0.91 -0.72,1.56 -1.7,1.56 -0.98,0 -1.7,-0.65 -1.7,-1.56 z m 0.31,3.63 h 2.76 V 360 h -2.76 z"
   id="path220" /><path
   class="st10"
   d="m 634.55,354.11 c 0,-3.94 2.76,-6.19 5.9,-6.19 1.51,0 2.59,0.58 3.46,1.32 l -1.34,1.8 c -0.62,-0.55 -1.22,-0.86 -1.97,-0.86 -1.9,0 -3.22,1.56 -3.22,3.94 0,2.35 1.3,3.91 3.14,3.91 0.91,0 1.75,-0.46 2.42,-1.01 l 1.13,1.82 c -1.1,0.96 -2.5,1.44 -3.84,1.44 -3.21,0 -5.68,-2.26 -5.68,-6.17 z"
   id="path222" /><path
   class="st10"
   d="m 646.57,356.01 v -5.62 h -1.68 v -2.06 l 1.82,-0.12 0.34,-3.22 h 2.3 v 3.22 h 3 v 2.18 h -3 v 5.62 c 0,1.39 0.53,2.06 1.66,2.06 0.41,0 0.89,-0.12 1.22,-0.26 l 0.48,2.04 c -0.65,0.22 -1.46,0.43 -2.4,0.43 -2.73,0 -3.74,-1.73 -3.74,-4.27 z"
   id="path224" />
</svg>
