<svg xmlns="http://www.w3.org/2000/svg" viewBox="0 0 784.06 507.87"><defs><style>.cls-1{fill:#e6e6e6;}.cls-2{fill:#a5a5a5;opacity:0.8;}.cls-3{opacity:0.8;}.cls-4,.cls-5,.cls-8{fill:#007dbc;}.cls-5{opacity:0.9;}.cls-6,.cls-7,.cls-9{fill:none;}.cls-6{stroke:#868788;stroke-width:0.67px;}.cls-6,.cls-7{stroke-linejoin:bevel;}.cls-7{stroke:#0675af;stroke-width:0.67px;}.cls-8{opacity:0.8;}.cls-9{stroke:#fff;stroke-miterlimit:10;stroke-width:3px;}.cls-10{fill:#fff;}</style></defs><g id="Background"><rect class="cls-1" x="-11.18" y="-11.39" width="804.92" height="529.99"/></g><g id="Fresno"><polygon class="cls-2" points="204.26 243.37 204.09 240.87 206.7 242.6 207.47 241.78 205.93 238.82 212.11 236.66 212.36 235.29 214.55 235.98 216.44 233.62 223.25 237.16 224.93 236.45 227.11 237.31 233.26 234.54 233.56 232.72 234.98 232.4 236.73 229.97 237.99 229.91 240.35 232.28 242.23 231.72 243.1 233.2 245.18 233.74 248.47 238.1 251.14 234.84 250.62 231.56 251.16 230.89 246.91 227.71 246.35 226.5 247.06 223.84 245.27 220.75 243.41 219.68 240.77 220.11 240.54 218.6 236.31 217.13 235.96 215.78 234.09 215.05 235.22 213.24 234.87 211.91 233.35 210.65 233.84 208.61 231.44 206.68 231.48 204.42 229.31 204.09 227.42 204.86 224.13 207.13 218.79 203.24 216.11 204.76 214.21 205.12 212.6 206.26 211.47 208.47 208.9 211.42 205 217.4 204.28 219.22 202.09 222.1 201.29 224.44 198.44 225.54 199.23 227.38 197.03 230.31 194.53 232.03 193.74 233.44 204.26 243.37"/><polygon class="cls-2" points="236.44 300.06 238.22 300.13 238.2 304.35 240.33 304.38 240.34 310.85 238.18 310.81 237.83 334.28 298.3 334.3 298.4 330.71 299.37 330.51 298.93 326.76 297.89 325.92 298.47 324.81 297.29 323.58 295.97 319.5 296.16 315.5 295.03 314.37 293.57 310.29 294.76 307.81 292.29 304.73 293.17 303.54 292.42 302.82 290.13 302.71 288.74 300.38 289.33 299.82 288.66 297.44 287.13 296.64 287.76 294.73 285.94 293.26 285.6 291.31 284.14 290.08 285.39 289.41 284.36 287.46 259.79 287.61 259.7 291.78 247.05 291.61 247.04 295.89 240.67 295.81 236.44 300.06"/><polygon class="cls-2" points="171.1 268.18 181.48 257.7 180.68 255.04 204.26 243.37 193.74 233.44 182.97 221.16 183.2 238.12 180.22 237.05 178.92 238.01 176.58 237.99 173.78 239.2 172.67 240.66 169.24 243.14 161.38 250.92 161.39 253.85 162.01 255.23 163.76 255.54 163.32 257.06 164.03 259.43 161.92 260.83 162.05 262.49 163.59 264.38 164.07 267.13 166.05 265.74 167.09 266.63 168.91 265.75 171.1 268.18"/><polygon class="cls-2" points="193.93 373.78 194.52 374.5 199.97 372.88 202.27 373.14 207.75 377.02 207.65 374.32 206.57 371.81 212.15 371.05 212.91 368.98 215.92 367.04 220.37 369.78 222.41 369.67 223.12 370.64 225.33 371 226.27 372.28 229.63 373.82 232.48 373.83 234.75 374.94 237.92 377.49 240.41 377.32 240.42 368.84 239.71 368.13 236.93 368.32 237.22 363.86 232.74 364.11 232.75 359.87 227.11 359.82 227.12 355.59 224.31 355.58 224.32 351.32 219.68 351.3 219.68 349.88 216.15 347.07 216.19 342.8 211.92 342.8 211.91 334.3 166.34 334 168.93 340.25 173.59 341.88 179.92 350.26 183.79 350.86 185.49 355.79 184.11 360.58 189.7 364.81 193.85 365.42 194.69 369.59 193.93 373.78"/><polygon class="cls-2" points="154.62 280.09 155.48 282.46 156.44 282.89 160.15 286.85 161.03 286.44 162.19 288.48 160.92 289.02 161.56 290.38 163.92 291.8 166.23 292.21 167.48 294.1 167.07 296.82 168.39 298.18 167.85 299.54 170.42 299.17 172.41 302.18 178.45 308.15 178.47 310.75 180.36 310.81 180.64 309.68 181.9 310.58 183.2 308.79 185.39 309.69 188.39 312.52 189.49 314.06 191.46 314.31 191.66 312.9 190.07 308.83 192.76 310.94 193.54 308.54 196 307.94 195.98 300.09 182.68 287.11 174.47 282.93 172.23 279.09 170.79 278.47 171.55 276.77 163.53 276.8 162.19 275.41 160.74 275.68 159.76 277.57 157.08 279.77 155.19 279.22 154.62 280.09"/><polygon class="cls-2" points="147.99 282.25 148.91 284.51 147.8 290.81 144.9 294.52 143.06 292.77 143.03 300.89 144.51 308.99 147.04 311.82 151.75 314.49 155.02 318.08 157.4 322.86 159.84 323.69 161.8 329.6 166.34 334 211.12 334.29 210.86 332.82 209.33 331.57 209.97 329.98 208.55 328.56 207.13 328.55 205.36 325.77 202.46 325.53 200.66 323.52 198.22 322.22 193.94 318.74 193.18 316.16 194.81 314.08 192.64 311.73 192.76 310.94 190.07 308.83 191.66 312.9 191.46 314.31 189.49 314.06 188.39 312.52 185.39 309.69 183.2 308.79 181.9 310.58 180.64 309.68 180.36 310.81 178.47 310.75 178.45 308.15 172.41 302.18 170.42 299.17 167.85 299.54 168.39 298.18 167.07 296.82 167.48 294.1 166.23 292.21 163.92 291.8 161.56 290.38 160.92 289.02 162.19 288.48 161.03 286.44 160.15 286.85 156.44 282.89 155.48 282.46 154.62 280.09 151.42 279.09 149.08 280.49 147.99 282.25"/><polygon class="cls-2" points="233.84 208.61 233.35 210.65 234.87 211.91 235.22 213.24 234.09 215.05 235.96 215.78 236.31 217.13 240.54 218.6 240.77 220.11 243.41 219.68 245.27 220.75 247.06 223.84 246.35 226.5 246.91 227.71 251.16 230.89 250.62 231.56 251.14 234.84 248.47 238.1 250.55 239.35 251.25 238.22 254.19 238.36 256.52 240.82 257.81 243.53 258.21 245.76 260.01 247.2 262.37 247.52 265 251.24 267.12 250.59 267.99 251.87 305.23 251.78 270.39 219.92 235.96 189.1 234.81 191.49 234.63 194.65 237.64 199.9 236.89 204.39 234.51 205.24 235.09 206.62 233.84 208.61"/><polygon class="cls-2" points="171.1 268.18 170.46 270.26 171.78 271.48 170.34 273.59 170.38 275.2 171.55 276.77 170.79 278.47 172.23 279.09 174.47 282.93 183.28 287.68 200.74 270.08 206.1 268.68 210.6 266.76 214.83 266.65 217.52 265.78 215.9 263.82 212.53 261.85 212.36 260.41 209.07 254.98 208.71 252.84 204.26 243.38 180.68 255.04 181.48 257.7 171.1 268.18"/><polygon class="cls-2" points="204.26 243.38 208.71 252.84 209.07 254.98 212.36 260.41 212.53 261.85 215.9 263.82 217.52 265.78 228.99 254.16 233.36 254.12 233.36 251.95 234.77 251.95 234.79 250.29 236.01 250.29 236.03 247.03 246.89 236.16 245.18 233.74 243.1 233.2 242.23 231.72 240.35 232.28 237.99 229.91 236.73 229.97 234.98 232.4 233.56 232.72 233.26 234.54 227.11 237.31 224.93 236.45 223.25 237.16 216.44 233.62 214.55 235.98 212.36 235.29 212.11 236.66 205.93 238.82 207.47 241.78 206.7 242.6 204.09 240.87 204.26 243.38"/><polygon class="cls-2" points="198.15 272.67 201.79 279.19 201.54 281.63 204.26 283.55 204.95 285.48 206.77 285.41 210.49 286.25 216.43 283.49 218.44 284.01 220.19 282.71 221.81 283.05 224.13 281.84 226.74 282.36 227.95 279.91 230.1 277.4 229.83 276.34 231.8 274.26 233.07 274.19 233.04 272.93 234.55 273.54 235.19 271.34 236.85 271.68 237.84 269.68 236.62 269.04 236.98 267.73 238.42 268.42 239.07 267.39 240.5 269.4 240.91 267.64 242.57 266.73 243.83 267.44 246.01 264.69 246.38 262.61 245.87 259.36 247.77 256.26 258.21 245.76 257.81 243.53 256.52 240.82 254.19 238.36 251.25 238.22 250.55 239.35 248.47 238.1 246.89 236.16 236.03 247.03 236.01 250.29 234.79 250.29 234.77 251.95 233.36 251.95 233.36 254.12 228.99 254.16 217.52 265.78 214.83 266.65 210.6 266.76 206.1 268.68 200.74 270.08 198.15 272.67"/><polygon class="cls-2" points="207.13 328.55 208.55 328.56 209.97 329.98 209.33 331.57 210.86 332.82 211.12 334.29 237.83 334.28 238.18 310.81 240.34 310.85 240.33 304.38 238.2 304.35 238.22 300.13 236.44 300.06 232.75 303.51 232.56 302.9 229.58 303.62 229.3 304.33 221.16 304.38 221.19 315.14 207.13 328.55"/><polygon class="cls-2" points="211.91 334.3 211.92 342.8 216.19 342.8 216.15 347.07 219.68 349.88 219.68 351.3 224.32 351.32 224.31 355.58 227.12 355.59 227.11 359.82 232.75 359.87 232.74 364.11 237.22 363.86 236.93 368.32 239.71 368.13 240.42 368.84 240.41 377.32 243.99 377.33 243.98 378.36 248.15 378.36 249.47 379.42 249.47 381.51 260.02 381.61 260.02 382.64 263.76 382.64 264.67 381.34 313.16 381.12 313.08 341 313.78 339.57 312.35 339.57 313.06 338.16 313.12 333.91 301.6 333.86 301.65 334.41 280.04 334.13 211.91 334.3"/><polygon class="cls-2" points="284.36 287.46 285.39 289.41 284.14 290.08 285.6 291.31 285.94 293.26 287.76 294.73 287.13 296.64 288.66 297.44 289.33 299.82 288.74 300.38 290.13 302.71 292.42 302.82 293.17 303.54 292.29 304.73 294.76 307.81 293.57 310.29 295.03 314.37 296.16 315.5 295.97 319.5 297.29 323.58 298.47 324.81 297.89 325.92 298.93 326.76 299.37 330.51 298.4 330.71 298.3 334.3 301.65 334.41 301.6 333.86 388.08 334.08 388.09 333.33 391.55 333.32 358.36 301.52 305.23 251.78 267.99 251.87 268.6 253.24 267.39 255.31 268.26 256.94 267.53 257.82 269.37 259.22 270.32 258.58 272.33 261.92 271.56 262.82 271.68 264.69 272.75 267.83 275.19 268.01 277.35 269.23 280.15 271.55 280.91 271.45 281.7 274.26 284.36 280.41 284.33 282.5 283.21 283.03 284.36 287.46"/><polygon class="cls-2" points="192.76 310.94 192.64 311.73 194.81 314.08 193.18 316.16 193.94 318.74 198.22 322.22 200.66 323.52 202.46 325.53 205.36 325.77 207.13 328.55 221.19 315.14 221.16 304.38 229.3 304.33 229.58 303.62 232.56 302.9 232.75 303.51 240.67 295.81 247.04 295.89 247.05 291.61 259.7 291.78 259.79 287.61 284.36 287.46 283.21 283.03 284.33 282.5 284.36 280.41 281.7 274.26 280.91 271.45 280.15 271.55 277.35 269.23 275.19 268.01 272.75 267.83 271.68 264.69 271.56 262.82 272.33 261.92 270.32 258.58 269.37 259.22 267.53 257.82 268.26 256.94 267.39 255.31 268.6 253.24 267.99 251.87 267.12 250.59 265 251.24 262.37 247.52 260.01 247.2 258.21 245.76 247.77 256.26 245.87 259.36 246.38 262.61 246.01 264.69 243.83 267.44 242.57 266.73 240.91 267.64 240.5 269.4 239.07 267.39 238.42 268.42 236.98 267.73 236.62 269.04 237.84 269.68 236.85 271.68 235.19 271.34 234.55 273.54 233.04 272.93 233.07 274.19 231.8 274.26 229.83 276.34 230.1 277.4 227.95 279.91 226.74 282.36 224.13 281.84 221.81 283.05 220.19 282.71 218.44 284.01 216.43 283.49 210.49 286.25 206.77 285.41 204.95 285.48 204.26 283.55 201.54 281.63 201.79 279.19 198.15 272.67 183.28 287.68 195.98 300.09 196 307.94 193.54 308.54 192.76 310.94"/><polygon class="cls-2" points="216.71 199.38 216.71 202.55 218.79 203.24 224.13 207.13 227.42 204.86 229.31 204.09 231.48 204.42 231.44 206.68 233.84 208.61 235.09 206.62 234.51 205.24 236.89 204.39 237.64 199.9 234.63 194.65 234.81 191.49 235.96 189.1 223.36 177.94 224.43 181.07 220.96 185.92 216.72 189.63 216.71 199.38"/></g><g id="Layer_12" data-name="Layer 12"><polygon class="cls-2" points="163.67 174.71 168.03 171.88 169.02 172.79 169.02 162.81 169.51 160.71 171.33 160.15 171.91 158.42 173.64 157.6 175.01 155.18 176.74 154.42 179.19 154.58 178.7 148.29 177.76 147.15 179.1 146 179.69 141.88 177.03 144.04 175.83 145.59 174.14 146.2 174.14 147.68 170.56 147.67 170.57 148.36 168 148.03 167.62 150.26 166.84 150.63 166.85 152.86 165.7 153.97 165.33 155.95 163.99 157.21 161.29 157.56 157.81 159 155.88 158.29 154.93 161.22 155.79 162.9 155.62 165.24 156.9 170.01 155.95 171.6 157.49 177.65 158.58 175.95 160.71 174.95 163.67 174.71"/><polygon class="cls-2" points="136.46 199.21 138.31 199.02 140.07 200.44 142.84 198.18 146.08 197.92 149.82 198.57 150.88 197.96 152.6 198.52 152.63 209.28 156.63 209.31 159.45 206.94 159.65 204.56 159.05 203.5 160.19 202.87 159.95 201.25 157.96 199.98 159.31 198.92 160.05 195.52 158.33 194.86 157.73 192.69 156.59 192.6 155.15 189.89 156.64 186.58 155.4 185.45 155 186.38 152.7 186.34 152.77 184.92 151.48 184.51 151.47 182.05 150.44 181.09 149.07 181.82 147.86 180.82 148.2 178.85 147.03 178.38 124.58 178.34 123.86 179.58 124.93 181.44 126.77 182.87 129.16 182.68 131.25 187.73 131.69 189.77 133.89 192.03 135.48 195.65 136.46 199.21"/><polygon class="cls-2" points="79.51 123.23 79.51 124.52 103.64 124.46 102.94 123.42 102.56 118.17 101.44 115.82 102.21 113.71 101.46 110.41 99 109.47 98.44 108.5 98.31 106.15 101.15 102.85 101.08 101.7 102.78 101.53 104.9 100.28 107.11 97.17 109.2 96.69 109.52 95.32 111.97 93.53 112.93 93.84 112.5 90.62 110.83 87.56 112 87.27 112.19 84.57 114.08 83.19 114.22 80.47 116.81 76.6 116.54 73.57 119.69 70.61 120.26 66.74 122.48 66.3 122.92 63.02 120.85 61.78 119.89 60.16 120.26 56.47 121.62 54.56 118.74 52.37 117.42 52.51 117.2 54.25 115.03 54.33 114.71 56.18 112.41 56.94 111.91 58.34 109.84 59.25 108.48 60.74 105.54 60.6 103.57 62.06 102.55 61.84 102.94 63.45 102.08 65.49 102.33 67.06 104.06 67.59 105.08 69.87 104.29 71.67 102.43 70.73 99.57 71.15 98.85 68.91 95.44 67.21 91.56 67.39 90.22 64.92 87.14 62.84 85.96 63.43 84.89 61.93 83.93 62.85 84.06 65.18 82.69 67.36 84.3 68.31 84.98 70.64 83.11 73.24 83.32 74.3 81.99 75.81 78.89 73.96 77.65 75.17 76.43 74.94 77.65 78.29 78.91 80.27 78.71 82.46 79.53 84.98 79.51 123.23"/><polygon class="cls-2" points="103.64 124.46 104.18 127.6 103.03 128.07 102.6 131.31 103.49 133.73 138.71 133.75 137.8 131.55 138.77 129.32 148.29 129.29 150.4 128.13 150.57 126.5 152.27 124.15 154.53 124.23 154.94 122 156.53 120.35 156.89 118.14 159.88 118.14 162.16 117.03 162.8 115.49 162.71 113.25 163.96 113.44 165.5 112.37 166.22 109.07 165.17 107.92 166.53 107.31 164.97 105.72 161.47 105.22 160.92 102.81 161.33 101.41 160.4 100.27 157.73 100.26 156.8 100.99 154.52 100.83 152.97 99.88 151.03 100.79 148.19 100.3 145.3 100.76 142.88 101.84 140.14 101.25 135.43 102.7 128.28 104.14 122.96 104.02 119.84 102.92 114.83 106.35 110.96 104.42 106.8 105.6 106.07 105.28 103.98 107.5 101.94 107.04 98.44 108.5 99 109.47 101.46 110.41 102.21 113.71 101.44 115.82 102.56 118.17 102.94 123.42 103.64 124.46"/><polygon class="cls-2" points="147.03 178.38 148.2 178.85 147.86 180.82 149.07 181.82 150.44 181.09 151.47 182.05 151.48 184.51 152.77 184.92 152.7 186.34 155 186.38 155.4 185.45 156.64 186.58 156.24 187.96 160.92 188.02 161.51 187.17 161.51 178.31 163.69 178.29 163.67 174.71 160.71 174.95 158.58 175.95 157.49 177.65 155.95 171.6 156.9 170.01 155.62 165.24 155.79 162.9 154.93 161.22 155.41 159.48 154.88 158.97 144.17 159.06 142.59 162.3 143.34 164.49 142.69 165.34 144.93 170.86 146.53 170.94 148.54 174.64 146.87 176.81 147.03 178.38"/><polygon class="cls-2" points="84.89 61.93 85.96 63.43 87.14 62.84 90.22 64.92 91.56 67.39 95.44 67.21 98.85 68.91 99.57 71.15 102.43 70.73 104.29 71.67 105.08 69.87 104.06 67.59 102.33 67.06 102.08 65.49 102.94 63.45 102.55 61.84 103.57 62.06 105.54 60.6 108.48 60.74 109.84 59.25 111.91 58.34 112.41 56.94 114.71 56.18 115.03 54.33 117.2 54.25 117.42 52.51 118.74 52.37 121.62 54.56 120.26 56.47 119.89 60.16 120.85 61.78 162.42 61.74 162 21.26 162.37 18.73 125.6 18.09 99.24 18.43 95.26 18.11 87.29 18.64 80.56 18.55 78.68 23.74 76.77 24.92 75.63 24.47 74.52 27.34 73.22 27.65 74.44 29.45 73.83 30.21 74.94 33.77 73.78 36.13 72.61 40.03 74.07 40.09 73.61 42.07 75.42 43.23 75.96 45.85 76.85 47.08 75.4 49.26 74.89 51.3 81.22 51.27 82.29 52.13 83.53 58.27 83.03 58.93 84.89 61.93"/><polygon class="cls-2" points="219.43 151.84 219.54 137.62 218.96 138.33 193.73 138.43 192.68 139.96 189.96 137.77 188.26 138.27 187.35 136.36 185.17 134.82 182.65 136.78 182.06 140.18 179.69 141.88 179.1 146 177.76 147.15 178.7 148.29 179.19 154.58 180.35 153.41 182.76 153.27 186.5 152.08 188.3 152.03 191.38 149.91 193.53 147.82 196.74 147.84 197.6 148.34 198.46 150.85 199.6 151.79 219.43 151.84"/><polygon class="cls-2" points="160.4 100.27 167.11 100.28 167.42 76.28 166.93 76.31 166.97 61.72 120.85 61.78 122.92 63.02 122.48 66.3 120.26 66.74 119.69 70.61 116.54 73.57 116.81 76.6 114.22 80.47 114.08 83.19 112.19 84.57 112 87.27 110.83 87.56 112.5 90.62 112.93 93.84 111.97 93.53 109.52 95.32 109.2 96.69 107.11 97.17 104.9 100.28 102.78 101.53 101.08 101.7 101.15 102.85 98.31 106.15 98.44 108.5 101.94 107.04 103.98 107.5 106.07 105.28 106.8 105.6 110.96 104.42 114.83 106.35 119.84 102.92 122.96 104.02 128.28 104.14 135.43 102.7 140.14 101.25 142.88 101.84 145.3 100.76 148.19 100.3 151.03 100.79 152.97 99.88 154.52 100.83 156.8 100.99 157.73 100.26 160.4 100.27"/><polygon class="cls-2" points="158.06 234.04 158.06 247.9 160.14 248.74 161.41 250.94 169.24 243.14 172.67 240.66 173.78 239.2 176.58 237.99 178.92 238.01 180.22 237.05 183.2 238.12 182.97 221.16 182.48 220.61 179.03 210.07 177.68 210.1 171.29 212.78 169.45 212.37 166.67 213.55 163.44 213.13 161.43 212 159.15 215.31 159.34 216.42 157 219.34 157.56 220.18 157.08 224.62 158.02 228.87 157.17 232.07 158.87 232.46 158.06 234.04"/><polygon class="cls-2" points="150.93 220.77 157.56 220.18 157 219.34 159.34 216.42 159.15 215.31 161.43 212 163.44 213.13 166.67 213.55 169.45 212.37 171.29 212.78 177.68 210.1 179.03 210.07 178.98 199.47 175.37 188.89 174.49 189.16 160.92 188.02 156.24 187.96 155.15 189.89 156.59 192.6 157.73 192.69 158.33 194.86 160.05 195.52 159.31 198.92 157.96 199.98 159.95 201.25 160.19 202.87 159.05 203.5 159.65 204.56 159.45 206.94 156.63 209.31 156.14 210.2 156.26 213.97 155.74 215.21 153.75 216.04 152.09 219.78 150.93 220.77"/><polygon class="cls-2" points="160.4 100.27 161.33 101.41 160.92 102.81 161.47 105.22 164.97 105.72 166.53 107.31 165.17 107.92 166.22 109.07 165.5 112.37 163.96 113.44 162.71 113.25 162.8 115.49 164.08 115.5 164.06 117.37 165.57 118.89 163.48 122.52 163.84 125.48 163.07 127.72 163.78 129.96 165.79 130.78 166.2 132.31 169.46 135.24 169.47 135.99 171.73 137.45 171.81 138.76 173.3 139.51 174.66 142.46 176.21 142.84 177.03 144.04 182.06 140.18 182.65 136.78 185.17 134.82 187.35 136.36 188.26 138.27 189.96 137.77 192.68 139.96 193.73 138.43 213.76 138.38 215.21 135.39 215.28 126.45 213.11 124.94 212.37 122.64 211.63 122.63 211.3 118.89 209.82 118.9 209.83 117.76 206.09 117.38 203.46 115.72 201.96 114.19 201.63 112.7 200.5 112.7 199.39 110.47 196.79 109.7 196.79 108.58 194.97 108.56 193.81 107.42 189.37 106.99 188.09 107.77 188.12 108.98 186.63 109.34 185.13 110.85 185.13 113.02 182.88 113.42 182.19 111.92 179.92 111.91 177.63 110.08 177.64 100.22 160.4 100.27"/><polygon class="cls-2" points="160.92 188.02 174.49 189.16 175.99 185.43 176.08 183.92 177.75 182.31 177.93 179.64 181.74 177.64 182.43 176.46 185.45 176.87 187.47 174.53 189.23 174.07 191.01 174.6 193.7 177.15 195.38 177.44 197.26 178.94 199.35 178.02 200.98 176.27 202.38 173.1 206.61 173.41 212.3 172.97 213.9 171.12 219.48 171.11 219.33 158.42 194.06 158.48 190.79 159.88 187.79 162.66 185.93 163.74 185.16 165.4 182.14 167.25 180.6 169.34 180.36 170.74 178.42 173.84 175.91 173.93 174.63 172.61 172.74 173.86 171.37 173.95 169.02 172.79 168.03 171.88 163.67 174.71 163.69 178.29 161.51 178.31 161.51 187.17 160.92 188.02"/><polygon class="cls-2" points="169.02 172.79 171.37 173.95 172.74 173.86 174.63 172.61 175.91 173.93 178.42 173.84 180.36 170.74 180.6 169.34 182.14 167.25 185.16 165.4 185.93 163.74 187.79 162.66 190.79 159.88 194.06 158.48 219.33 158.42 219.43 151.84 199.6 151.79 198.46 150.85 197.6 148.34 196.74 147.84 193.53 147.82 191.38 149.91 188.3 152.03 186.5 152.08 182.76 153.27 180.35 153.41 179.19 154.58 176.74 154.42 175.01 155.18 173.64 157.6 171.91 158.42 171.33 160.15 169.51 160.71 169.02 162.81 169.02 172.79"/><polygon class="cls-2" points="162.37 18.73 162 21.26 162.42 61.74 219.58 61.71 219.61 18.89 162.37 18.73"/><polygon class="cls-2" points="166.97 61.72 166.93 76.31 167.42 76.28 167.11 100.28 177.64 100.22 177.63 110.08 179.92 111.91 182.19 111.92 182.88 113.42 185.13 113.02 185.13 110.85 186.63 109.34 188.12 108.98 188.09 107.77 189.37 106.99 193.81 107.42 194.97 108.56 196.79 108.58 196.79 109.7 199.39 110.47 200.5 112.7 201.63 112.7 201.96 114.19 203.46 115.72 206.09 117.38 209.83 117.76 209.82 118.9 211.3 118.89 211.63 122.63 212.37 122.64 213.11 124.94 215.28 126.45 215.21 135.39 213.76 138.38 218.96 138.33 219.54 137.62 219.69 119.73 219.58 61.71 166.97 61.72"/><polygon class="cls-2" points="105.56 144.93 111.48 144.9 111.34 155 135.17 154.89 135.16 153.41 140.19 153.45 140.16 154.97 144.89 154.97 145.65 151.61 145.39 148.54 146.22 147.14 140.78 147.29 140.41 145.27 140.84 142.39 141.8 141.42 141.13 140.3 142.85 138.87 139.57 135.28 138.71 133.75 103.49 133.73 103.46 136.3 104.48 136.3 104.47 138.32 105.27 138.32 105.56 144.93"/><polygon class="cls-2" points="178.98 199.47 182.29 198.49 184.6 198.62 186.32 197.05 189.53 197.11 194.76 199.72 199.41 199.29 204.63 197.62 206.99 197.69 209.07 196.79 210.74 195 211.09 193.38 214.16 192.74 215.2 189.48 216.72 189.63 220.96 185.92 224.43 181.07 223.36 177.94 219.54 174.57 219.48 171.11 213.9 171.12 212.3 172.97 206.61 173.41 202.38 173.1 200.98 176.27 199.35 178.02 197.26 178.94 195.38 177.44 193.7 177.15 191.01 174.6 189.23 174.07 187.47 174.53 185.45 176.87 182.43 176.46 181.74 177.64 177.93 179.64 177.75 182.31 176.08 183.92 175.99 185.43 174.49 189.16 175.37 188.89 178.98 199.47"/><polygon class="cls-2" points="111.34 155 109.92 158.66 110.63 160.06 113.64 162.39 117.89 164.14 120.18 163.89 121.79 167.16 120.91 167.39 121.13 171.85 124.21 173.52 124.38 176.44 127.1 178.39 147.03 178.38 146.87 176.81 148.54 174.64 146.53 170.94 144.93 170.86 142.69 165.34 143.34 164.49 142.59 162.3 144.17 159.06 144.89 154.97 140.16 154.97 140.19 153.45 135.16 153.41 135.17 154.89 111.34 155"/><polygon class="cls-2" points="180.24 213.72 182.48 220.61 193.74 233.44 194.53 232.03 197.03 230.31 199.23 227.38 198.44 225.54 201.29 224.44 202.09 222.1 204.28 219.22 205 217.4 208.9 211.42 211.47 208.47 212.6 206.26 214.21 205.12 216.11 204.76 218.79 203.24 216.71 202.55 216.71 199.38 214.63 200.09 211.45 199.83 206.5 201.64 202.85 201.22 201.35 202.6 199.82 202.53 198.89 203.79 195.27 205.46 194.64 207.94 190.44 209.56 189.77 210.54 187.57 210.87 184.82 212.94 181.17 214.12 180.24 213.72"/><polygon class="cls-2" points="138.71 133.75 139.57 135.28 142.85 138.87 141.13 140.3 141.8 141.42 140.84 142.39 140.41 145.27 140.78 147.29 146.22 147.14 145.39 148.54 145.65 151.61 144.17 159.06 154.88 158.97 155.41 159.48 155.88 158.29 157.81 159 161.29 157.56 163.99 157.21 165.33 155.95 165.7 153.97 166.85 152.86 166.84 150.63 167.62 150.26 168 148.03 170.57 148.36 170.56 147.67 174.14 147.68 174.14 146.2 175.83 145.59 177.03 144.04 176.21 142.84 174.66 142.46 173.3 139.51 171.81 138.76 171.73 137.45 169.47 135.99 169.46 135.24 166.2 132.31 165.79 130.78 163.78 129.96 163.07 127.72 163.84 125.48 163.48 122.52 165.57 118.89 164.06 117.37 164.08 115.5 162.8 115.49 162.16 117.03 159.88 118.14 156.89 118.14 156.53 120.35 154.94 122 154.53 124.23 152.27 124.15 150.57 126.5 150.4 128.13 148.29 129.29 138.77 129.32 137.8 131.55 138.71 133.75"/><polygon class="cls-2" points="178.98 199.47 179.03 210.07 180.24 213.72 181.17 214.12 184.82 212.94 187.57 210.87 189.77 210.54 190.44 209.56 194.64 207.94 195.27 205.46 198.89 203.79 199.82 202.53 201.35 202.6 202.85 201.22 206.5 201.64 211.45 199.83 214.63 200.09 216.71 199.38 216.72 189.63 215.2 189.48 214.16 192.74 211.09 193.38 210.74 195 209.07 196.79 206.99 197.69 204.63 197.62 199.41 199.29 194.76 199.72 189.53 197.11 186.32 197.05 184.6 198.62 182.29 198.49 178.98 199.47"/></g><g id="Layer_11" data-name="Layer 11"><polygon class="cls-2" points="100.92 210.18 101.22 209.68 104.71 208.97 111.31 214.65 114.94 215.93 118.21 215.89 118.5 217 121.05 219.5 124.46 217.22 125.86 217.13 126.45 215.83 126.05 212.63 124.56 210.9 124.95 209.73 122.84 205.97 120.88 203.69 121.46 202.27 119.62 201.42 119.05 198.87 116.01 196.84 115 194.87 115.72 193.66 115.75 191.41 114.99 189.45 113.21 189.22 110.98 185.32 110.96 184.49 108.08 182.16 97.83 182.04 97.82 182.75 95.63 182.7 95.64 184.24 86.47 184.37 86.48 185.86 81.3 185.8 80.53 186.73 87.87 196.58 95.93 202.35 98.73 210.06 100.92 210.18"/><polygon class="cls-2" points="153.75 216.04 155.74 215.21 156.26 213.97 156.14 210.2 156.63 209.31 152.63 209.28 152.6 198.52 150.88 197.96 149.82 198.57 146.08 197.92 142.84 198.18 140.07 200.44 138.31 199.02 136.46 199.21 135.55 203.47 137.64 206.9 137.98 209.16 132.4 209.18 133.1 211.4 132.16 211.34 132.8 213.47 132.04 216.02 132.82 217.26 129.06 217.25 131.57 221.78 135.35 222.86 138.07 218.25 140.06 220.34 144.06 220.93 144.56 222.51 148.29 221.9 152.06 219.22 153.75 216.04"/><polygon class="cls-2" points="128.74 217.25 124.5 217.22 130.74 221.2 128.74 217.25"/><polygon class="cls-2" points="128.96 269.55 131.74 273.61 136.36 277.02 141.5 277.12 142.94 275.94 146.1 278.46 147.99 282.25 149.08 280.49 151.42 279.09 154.62 280.09 155.19 279.22 157.08 279.77 157.09 278.84 155.37 277.8 154.54 278.2 153.81 276.67 152.47 276.21 150.12 272.38 147.57 270.49 140.89 267.71 139.51 266.61 138.36 264.32 136.44 263.24 134.52 260.66 134.51 264.18 130.96 264.19 130.95 265.44 127.99 265.59 128.96 269.55"/><polygon class="cls-2" points="157.08 279.77 159.76 277.57 160.74 275.68 162.19 275.41 163.53 276.8 171.55 276.77 170.38 275.2 170.34 273.59 171.78 271.48 170.46 270.26 171.1 268.18 168.91 265.75 167.09 266.63 166.05 265.74 164.07 267.13 163.59 264.38 162.05 262.49 161.92 260.83 164.03 259.43 163.32 257.06 163.76 255.54 162.01 255.23 161.39 253.85 161.38 250.92 145.87 250.8 143.5 252.3 135.98 251.72 133.01 253.47 132.54 256.83 133.63 258.7 132.95 259.03 136.44 263.24 138.36 264.32 139.51 266.61 140.89 267.71 147.57 270.49 150.12 272.38 152.47 276.21 153.81 276.67 154.54 278.2 155.37 277.8 157.09 278.84 157.08 279.77"/><polygon class="cls-2" points="120.67 239.65 120.01 248.37 121.96 250 124.67 256.96 123.98 262.88 127.52 269.29 128.96 269.55 127.99 265.59 130.95 265.44 130.96 264.19 134.51 264.18 134.52 260.66 132.95 259.03 133.63 258.7 132.54 256.83 133.01 253.47 135.98 251.72 132.54 248 125.24 243.57 125 239.64 120.67 239.65"/><polygon class="cls-2" points="125 239.64 126.44 238.62 123.93 234.5 120.26 235.92 120.67 239.65 125 239.64"/><polygon class="cls-2" points="124.5 217.22 124.46 217.22 124.54 217.22 124.5 217.22"/><polygon class="cls-2" points="124.54 217.22 132.82 217.26 132.04 216.02 132.8 213.47 132.16 211.34 133.1 211.4 132.4 209.18 137.98 209.16 137.64 206.9 135.55 203.47 136.46 199.21 135.48 195.65 133.89 192.03 131.69 189.77 131.25 187.73 129.16 182.68 126.77 182.87 124.93 181.44 125.78 183.84 124.82 184.5 122.21 189.5 115.75 191.41 115.72 193.66 115 194.87 116.01 196.84 119.05 198.87 119.62 201.42 121.46 202.27 120.88 203.69 122.84 205.97 124.95 209.73 124.56 210.9 126.05 212.63 126.45 215.83 125.86 217.13 124.54 217.22"/><polygon class="cls-2" points="60.59 123.26 67.29 131.88 69.95 140.8 70.49 147.28 68.6 152.12 68.32 156.77 70.57 164.66 72.54 167.66 73.79 172.91 71.88 177.08 75.44 182.39 80.53 186.73 81.3 185.8 86.48 185.86 86.47 184.37 95.64 184.24 95.63 182.7 97.82 182.75 97.83 182.04 108.08 182.16 105.19 180.6 105.22 179.85 103.05 179.62 101.91 177.25 101.55 174.68 99.92 174.72 98.81 173.47 98.45 171.27 97.35 170.88 97.95 165.7 99.44 164.74 101.23 162.53 100.25 160.38 100.25 158.15 98.06 153.75 98.53 148.85 100.03 148.07 103.53 148.19 105.36 147.54 105.27 138.32 104.47 138.32 104.48 136.3 103.46 136.3 103.49 133.73 102.6 131.31 103.03 128.07 104.18 127.6 103.64 124.46 79.51 124.52 79.51 123.23 60.59 123.26"/><polygon class="cls-2" points="100.92 210.18 105.67 218.85 101.22 212.94 103.06 217.27 100.51 224.97 103.56 220.8 103.96 223.52 108.11 225.23 112.78 230.36 115.14 230.18 119.53 234.1 121.62 233.78 119.91 230.78 122.77 231.44 120.98 226.54 121.05 219.5 118.5 217 118.21 215.89 114.94 215.93 111.31 214.65 104.71 208.97 101.22 209.68 100.92 210.18"/><polygon class="cls-2" points="105.56 144.93 105.36 147.54 103.53 148.19 100.03 148.07 98.53 148.85 98.06 153.75 100.25 158.15 100.25 160.38 101.23 162.53 99.44 164.74 97.95 165.7 97.35 170.88 98.45 171.27 98.81 173.47 99.92 174.72 101.55 174.68 101.91 177.25 103.05 179.62 105.22 179.85 105.19 180.6 108.08 182.16 110.96 184.49 110.98 185.32 113.21 189.22 114.99 189.45 115.75 191.41 122.21 189.5 124.82 184.5 125.78 183.84 123.86 179.58 124.58 178.34 127.1 178.39 124.38 176.44 124.21 173.52 121.13 171.85 120.91 167.39 121.79 167.16 120.18 163.89 117.89 164.14 113.64 162.39 110.63 160.06 109.92 158.66 111.34 155 111.48 144.9 105.56 144.93"/><polygon class="cls-2" points="58.93 46.94 57.3 59.26 55.25 63.87 55.44 68.55 57.1 69.91 54.07 80.49 46.2 96.9 45.36 100.39 47.72 107.23 47.15 109.84 54.09 116.59 57.11 117.95 58.32 121.72 60.59 123.26 79.51 123.23 79.53 84.98 78.71 82.46 78.91 80.27 77.65 78.29 76.43 74.94 77.65 75.17 78.89 73.96 81.99 75.81 83.32 74.3 83.11 73.24 84.98 70.64 84.3 68.31 82.69 67.36 84.06 65.18 83.93 62.85 84.89 61.93 83.03 58.93 83.53 58.27 82.29 52.13 81.22 51.27 70.59 51.36 70.58 46.97 58.93 46.94"/><polygon class="cls-2" points="53.15 18.68 53.35 23.95 51.4 30.11 55.13 32.53 57.49 39.59 58.93 46.94 70.58 46.97 70.59 51.36 74.89 51.3 75.4 49.26 76.85 47.08 75.96 45.85 75.42 43.23 73.61 42.07 74.07 40.09 72.61 40.03 73.78 36.13 74.94 33.77 73.83 30.21 74.44 29.45 73.22 27.65 74.52 27.34 75.63 24.47 76.77 24.92 78.68 23.74 80.56 18.55 75.06 18.86 53.15 18.68"/><polygon class="cls-2" points="128.2 230.18 129.83 229.76 131.7 231.14 133.19 234.02 134.98 234.83 138.75 235.15 140.63 236.9 140.08 237.69 142.09 239.13 158.06 234.04 158.87 232.46 157.17 232.07 158.02 228.87 157.08 224.62 154.08 222.24 150.78 224.07 139.66 222.13 134.56 223.91 130.9 222.12 123.57 226.82 125.19 229.46 128.2 230.18"/><polygon class="cls-2" points="128.2 230.18 127.58 235.13 130.93 235.87 130.23 238.05 134.07 241.47 136.39 250.09 141.54 251.99 143.5 252.3 145.87 250.8 161.41 250.94 160.14 248.74 158.06 247.9 158.06 234.04 142.09 239.13 140.08 237.69 140.63 236.9 138.75 235.15 134.98 234.83 133.19 234.02 131.7 231.14 129.83 229.76 128.2 230.18"/></g><g id="Layer_10" data-name="Layer 10"><polygon class="cls-2" points="314.58 449.64 319.19 453.45 325.26 462.4 328.05 472.32 326.98 475.43 328.85 481.21 331.54 482.1 333.24 489.78 373.45 485.83 373.57 464.38 374.44 464.37 374.28 447.78 328.6 447.49 328.58 446.69 323.47 444.72 323.74 444.03 317.99 444.03 317.99 445.61 315.27 446.45 314.58 449.64"/><polygon class="cls-2" points="382.56 485 428.25 481.13 428.93 479.88 432.36 480.67 435.86 479.33 435.67 477.73 438.15 475.19 438.39 472.24 436.27 466.6 433.05 466.7 431.2 465.6 430.18 466.11 428.76 463.74 429.86 460.21 429.93 455.15 428.1 454.3 429.06 450.84 428.06 448.99 431.9 447.42 374.28 447.78 374.44 464.37 373.57 464.38 373.45 485.83 382.56 485"/></g><g id="Layer_8" data-name="Layer 8" class="cls-3"><polygon class="cls-4" points="294.43 432.33 297.38 435.82 307.06 442.26 309.9 446.17 314.58 449.64 315.27 446.45 317.99 445.61 317.97 442.66 321.81 436.73 319.38 434.6 317.03 434.29 316.93 432.04 315.18 431.48 311.5 426.66 307.18 423.06 299.55 423.08 299.54 425.15 296.27 427.84 294.43 432.33"/></g><g id="Layer_7" data-name="Layer 7"><polygon class="cls-2" points="240.26 402.68 247.94 407.61 250.04 412.88 253.95 415.73 261.27 418.35 261.44 416.93 267.45 412.47 272.22 412.49 272.23 409.03 273.62 409.04 273.46 406.58 263.76 382.64 260.02 382.64 260.02 381.61 249.47 381.51 249.47 379.42 248.15 378.36 243.98 378.36 243.99 377.33 241.61 377.31 241.62 398.72 241.25 401.54 240.26 402.68"/><polygon class="cls-2" points="237.99 454.46 236.47 455.71 240.57 457.79 242.43 457.1 237.99 454.46"/><polygon class="cls-2" points="240.26 402.68 241.25 401.54 241.62 398.72 241.61 377.31 237.92 377.49 234.75 374.94 232.48 373.83 229.63 373.82 226.27 372.28 225.33 371 223.12 370.64 222.41 369.67 220.37 369.78 215.92 367.04 212.91 368.98 212.15 371.05 206.57 371.81 207.65 374.32 207.75 377.02 202.27 373.14 199.97 372.88 194.52 374.5 193.93 373.78 193.07 377.18 195.46 379.39 194.39 384.31 195.85 386.78 194.1 392.74 199.37 395.5 201.69 399.21 207.76 398.06 219.27 398.5 224.4 401.06 231.07 401.62 237.1 400.82 240.26 402.68"/><polygon class="cls-2" points="222.86 416.82 224.55 421.46 230.85 422.35 236.97 420.73 236.83 417.85 234.15 419.86 230.92 418.44 222.86 416.82"/><polygon class="cls-2" points="217.42 418.72 210.19 420.06 214.85 425.55 220.83 423.27 217.42 418.72"/><polygon class="cls-2" points="205.12 416.97 202.29 418.68 207.76 419.51 205.12 416.97"/><polygon class="cls-2" points="261.27 418.35 266.77 420.49 269.17 418.97 276.03 418.53 279.14 420.23 283.18 428.29 282.36 432.83 286.83 434.32 288.7 431.45 294.76 431.26 296.27 427.84 299.54 425.15 299.55 423.08 307.18 423.06 306.4 421.67 307.79 419.37 309.03 419.63 311.35 412.63 312.62 406.66 311.77 393.82 311.76 381.11 264.67 381.34 263.76 382.64 273.46 406.58 273.62 409.04 272.23 409.03 272.22 412.49 267.45 412.47 261.44 416.93 261.27 418.35"/><polygon class="cls-2" points="274.67 445.27 279.3 448.07 280.58 452.71 285.76 453.78 286.35 452 283.9 448.53 274.67 445.27"/><polygon class="cls-2" points="275.14 466.2 278.88 474.88 281.78 477.17 284.09 475.55 279.2 471.27 275.14 466.2"/><polygon class="cls-5" points="307.18 423.06 311.5 426.66 312.23 424.08 313.99 424.08 314.01 421.86 316.08 421.06 316.06 418.9 323.3 418.89 323.3 419.58 329.22 419.62 329.23 420.3 340.92 420.27 340.91 418.88 404.67 418.88 404.68 416.8 439.48 416.71 440.25 415.38 443.98 413.92 445.34 412.36 446.56 412.25 450.18 408.49 451.33 408.2 451.22 406.03 449.69 403.82 447.75 403.03 443.26 398.93 441.4 398.62 441.63 395.18 439.44 391.96 438.87 388.55 438.01 386.35 434.84 383.79 433.28 380.21 431.86 379.13 431.65 372.46 391.55 333.32 388.09 333.33 388.08 334.08 313.12 333.91 313.06 338.16 312.35 339.57 313.78 339.57 313.08 341 313.16 381.12 311.76 381.11 311.77 393.82 312.62 406.66 311.35 412.63 309.03 419.63 307.79 419.37 306.4 421.67 307.18 423.06"/><polygon class="cls-5" points="317.99 444.03 323.74 444.03 323.47 444.72 328.58 446.69 328.6 447.49 374.28 447.78 431.9 447.42 432.07 446.33 434.63 442.73 435.97 441.75 435.32 439.94 436.05 438.99 435.66 436.22 437.06 434.93 436.64 431.56 435.81 429.32 435.74 427.29 436.77 426.9 435.54 424.05 439.36 419.43 439.48 416.71 404.68 416.8 404.67 418.88 340.91 418.88 340.92 420.27 329.23 420.3 329.22 419.62 323.3 419.58 323.3 418.89 316.06 418.9 316.08 421.06 314.01 421.86 313.99 424.08 312.23 424.08 311.5 426.66 315.18 431.48 316.93 432.04 317.03 434.29 319.38 434.6 321.81 436.73 317.97 442.66 317.99 444.03"/></g><g id="Layer_4" data-name="Layer 4"><polygon class="cls-6" points="100.92 210.18 101.22 209.68 104.71 208.97 111.31 214.65 114.94 215.93 118.21 215.89 118.5 217 121.05 219.5 124.46 217.22 125.86 217.13 126.45 215.83 126.05 212.63 124.56 210.9 124.95 209.73 122.84 205.97 120.88 203.69 121.46 202.27 119.62 201.42 119.05 198.87 116.01 196.84 115 194.87 115.72 193.66 115.75 191.41 114.99 189.46 113.21 189.22 110.98 185.32 110.96 184.49 108.08 182.16 97.83 182.04 97.82 182.75 95.63 182.7 95.64 184.24 86.47 184.37 86.48 185.86 81.3 185.8 80.53 186.73 87.87 196.58 95.93 202.35 98.73 210.06 100.92 210.18"/><polygon class="cls-6" points="153.75 216.04 155.74 215.21 156.26 213.97 156.14 210.2 156.63 209.31 152.63 209.28 152.6 198.52 150.88 197.96 149.82 198.57 146.08 197.92 142.84 198.18 140.07 200.44 138.31 199.02 136.46 199.21 135.55 203.47 137.64 206.9 137.98 209.16 132.4 209.18 133.1 211.4 132.16 211.34 132.8 213.47 132.04 216.02 132.82 217.26 129.06 217.25 131.57 221.78 135.35 222.86 138.07 218.25 140.06 220.34 144.06 220.93 144.56 222.51 148.29 221.9 152.06 219.22 153.75 216.04"/><polygon class="cls-6" points="128.74 217.25 124.5 217.22 130.74 221.2 128.74 217.25"/><polygon class="cls-6" points="128.96 269.55 131.74 273.61 136.36 277.02 141.5 277.12 142.94 275.94 146.1 278.46 147.99 282.25 149.08 280.49 151.42 279.09 154.62 280.09 155.19 279.22 157.08 279.77 157.09 278.84 155.37 277.8 154.54 278.2 153.81 276.67 152.47 276.21 150.12 272.38 147.57 270.49 140.89 267.71 139.51 266.61 138.36 264.32 136.44 263.24 134.52 260.66 134.51 264.18 130.96 264.19 130.95 265.44 127.99 265.59 128.96 269.55"/><polygon class="cls-6" points="157.08 279.77 159.76 277.57 160.74 275.69 162.19 275.41 163.53 276.8 171.55 276.77 170.38 275.2 170.34 273.59 171.78 271.48 170.46 270.26 171.1 268.18 168.91 265.75 167.08 266.63 166.05 265.74 164.07 267.13 163.59 264.38 162.05 262.49 161.92 260.83 164.03 259.43 163.32 257.06 163.76 255.53 162.01 255.23 161.39 253.85 161.38 250.92 145.87 250.8 143.5 252.3 135.98 251.72 133.01 253.47 132.54 256.83 133.63 258.7 132.95 259.03 136.44 263.24 138.36 264.32 139.51 266.61 140.89 267.71 147.57 270.49 150.12 272.38 152.47 276.21 153.81 276.67 154.54 278.2 155.37 277.8 157.09 278.84 157.08 279.77"/><polygon class="cls-6" points="120.67 239.65 120.01 248.37 121.96 250 124.67 256.96 123.98 262.88 127.52 269.29 128.96 269.55 127.99 265.59 130.95 265.44 130.96 264.19 134.51 264.18 134.52 260.66 132.95 259.03 133.63 258.7 132.54 256.83 133.01 253.47 135.98 251.72 132.54 248 125.23 243.57 125 239.64 120.67 239.65"/><polygon class="cls-6" points="125 239.64 126.44 238.62 123.93 234.5 120.26 235.92 120.67 239.65 125 239.64"/><polygon class="cls-6" points="124.5 217.22 124.46 217.22 124.54 217.22 124.5 217.22"/><polygon class="cls-6" points="124.54 217.22 132.82 217.26 132.04 216.02 132.8 213.47 132.16 211.34 133.1 211.4 132.4 209.18 137.98 209.16 137.64 206.9 135.55 203.47 136.46 199.21 135.48 195.65 133.89 192.03 131.69 189.77 131.25 187.73 129.16 182.68 126.77 182.87 124.93 181.44 125.78 183.84 124.82 184.5 122.21 189.5 115.75 191.41 115.72 193.66 115 194.87 116.01 196.84 119.05 198.87 119.62 201.42 121.46 202.27 120.88 203.69 122.84 205.97 124.95 209.73 124.56 210.9 126.05 212.63 126.45 215.83 125.86 217.13 124.54 217.22"/><polygon class="cls-6" points="60.59 123.26 67.29 131.88 69.95 140.8 70.49 147.28 68.6 152.12 68.32 156.77 70.57 164.66 72.54 167.66 73.79 172.91 71.88 177.08 75.44 182.39 80.53 186.73 81.3 185.8 86.48 185.86 86.47 184.37 95.64 184.24 95.63 182.7 97.82 182.75 97.83 182.04 108.08 182.16 105.19 180.6 105.22 179.86 103.05 179.62 101.91 177.25 101.55 174.68 99.92 174.72 98.81 173.47 98.45 171.27 97.35 170.88 97.95 165.7 99.44 164.74 101.23 162.53 100.25 160.38 100.25 158.15 98.06 153.75 98.53 148.85 100.03 148.07 103.53 148.19 105.36 147.54 105.27 138.32 104.47 138.32 104.48 136.3 103.46 136.3 103.49 133.73 102.6 131.31 103.03 128.07 104.18 127.6 103.64 124.46 79.51 124.52 79.51 123.23 60.59 123.26"/><polygon class="cls-6" points="100.92 210.18 105.67 218.85 101.22 212.94 103.05 217.27 100.51 224.97 103.56 220.8 103.96 223.52 108.11 225.23 112.78 230.36 115.14 230.18 119.53 234.1 121.62 233.78 119.91 230.78 122.77 231.44 120.98 226.54 121.05 219.5 118.5 217 118.21 215.89 114.94 215.93 111.31 214.65 104.71 208.97 101.22 209.68 100.92 210.18"/><polygon class="cls-6" points="105.56 144.93 105.36 147.54 103.53 148.19 100.03 148.07 98.53 148.85 98.06 153.75 100.25 158.15 100.25 160.38 101.23 162.53 99.44 164.74 97.95 165.7 97.35 170.88 98.45 171.27 98.81 173.47 99.92 174.72 101.55 174.68 101.91 177.25 103.05 179.62 105.22 179.86 105.19 180.6 108.08 182.16 110.96 184.49 110.98 185.32 113.21 189.22 114.99 189.46 115.75 191.41 122.21 189.5 124.82 184.5 125.78 183.84 123.86 179.58 124.58 178.34 127.1 178.39 124.38 176.44 124.21 173.52 121.13 171.85 120.91 167.39 121.79 167.16 120.18 163.89 117.89 164.14 113.64 162.39 110.63 160.06 109.92 158.66 111.34 155 111.48 144.9 105.56 144.93"/><polygon class="cls-6" points="58.93 46.94 57.3 59.26 55.25 63.87 55.44 68.55 57.1 69.91 54.07 80.49 46.2 96.9 45.36 100.39 47.72 107.24 47.15 109.84 54.09 116.59 57.11 117.95 58.32 121.72 60.59 123.26 79.51 123.23 79.53 84.98 78.71 82.46 78.91 80.27 77.65 78.29 76.43 74.94 77.65 75.17 78.89 73.96 81.99 75.81 83.32 74.3 83.11 73.24 84.98 70.64 84.3 68.31 82.69 67.36 84.06 65.18 83.93 62.85 84.89 61.93 83.03 58.93 83.53 58.27 82.29 52.13 81.22 51.27 70.59 51.36 70.58 46.97 58.93 46.94"/><polygon class="cls-6" points="53.15 18.68 53.35 23.95 51.4 30.11 55.13 32.53 57.49 39.59 58.93 46.94 70.58 46.97 70.59 51.36 74.89 51.3 75.4 49.26 76.85 47.08 75.96 45.85 75.42 43.23 73.61 42.07 74.07 40.09 72.61 40.03 73.78 36.13 74.94 33.76 73.83 30.21 74.44 29.45 73.22 27.65 74.52 27.34 75.63 24.47 76.77 24.92 78.68 23.74 80.56 18.55 75.06 18.86 53.15 18.68"/><polygon class="cls-6" points="128.19 230.18 129.83 229.76 131.7 231.14 133.19 234.02 134.98 234.83 138.75 235.15 140.63 236.9 140.08 237.69 142.09 239.13 158.06 234.04 158.87 232.46 157.16 232.07 158.02 228.87 157.08 224.62 154.08 222.24 150.78 224.07 139.66 222.13 134.56 223.91 130.9 222.12 123.57 226.82 125.19 229.46 128.19 230.18"/><polygon class="cls-6" points="128.19 230.18 127.58 235.13 130.93 235.87 130.23 238.05 134.07 241.47 136.39 250.09 141.54 251.99 143.5 252.3 145.87 250.8 161.41 250.94 160.14 248.74 158.06 247.9 158.06 234.04 142.09 239.13 140.08 237.69 140.63 236.9 138.75 235.15 134.98 234.83 133.19 234.02 131.7 231.14 129.83 229.76 128.19 230.18"/><polygon class="cls-6" points="314.58 449.64 319.19 453.45 325.26 462.4 328.05 472.32 326.98 475.43 328.85 481.21 331.54 482.1 333.24 489.78 373.45 485.83 373.57 464.38 374.44 464.37 374.28 447.78 328.6 447.49 328.58 446.69 323.47 444.72 323.74 444.04 317.99 444.04 317.99 445.61 315.27 446.45 314.58 449.64"/><polygon class="cls-6" points="382.56 485 428.25 481.13 428.93 479.88 432.36 480.67 435.86 479.33 435.67 477.73 438.15 475.19 438.39 472.24 436.27 466.6 433.05 466.7 431.2 465.6 430.18 466.11 428.76 463.74 429.86 460.21 429.93 455.15 428.1 454.3 429.06 450.84 428.06 448.99 431.9 447.42 374.28 447.78 374.44 464.37 373.57 464.38 373.45 485.83 382.56 485"/><polygon class="cls-6" points="163.67 174.71 168.03 171.88 169.02 172.79 169.02 162.81 169.51 160.71 171.33 160.15 171.91 158.41 173.64 157.6 175.01 155.18 176.74 154.42 179.19 154.58 178.7 148.29 177.76 147.15 179.1 146 179.69 141.88 177.03 144.04 175.83 145.59 174.14 146.2 174.14 147.68 170.56 147.67 170.57 148.36 168 148.03 167.62 150.26 166.84 150.63 166.85 152.86 165.7 153.97 165.33 155.95 163.99 157.21 161.29 157.56 157.81 159 155.88 158.29 154.93 161.22 155.79 162.9 155.62 165.24 156.9 170.01 155.95 171.6 157.49 177.65 158.58 175.95 160.71 174.95 163.67 174.71"/><polygon class="cls-6" points="136.46 199.21 138.31 199.02 140.07 200.44 142.84 198.18 146.08 197.92 149.82 198.57 150.88 197.96 152.6 198.52 152.63 209.28 156.63 209.31 159.45 206.94 159.65 204.56 159.05 203.5 160.19 202.87 159.95 201.25 157.96 199.98 159.31 198.92 160.05 195.52 158.33 194.86 157.73 192.69 156.59 192.6 155.15 189.89 156.64 186.58 155.4 185.45 155 186.38 152.7 186.34 152.77 184.92 151.48 184.51 151.47 182.05 150.44 181.09 149.07 181.82 147.86 180.82 148.2 178.85 147.03 178.38 124.58 178.34 123.86 179.58 124.93 181.44 126.77 182.87 129.16 182.68 131.25 187.73 131.69 189.77 133.89 192.03 135.48 195.65 136.46 199.21"/><polygon class="cls-6" points="79.51 123.23 79.51 124.52 103.64 124.46 102.94 123.42 102.56 118.17 101.44 115.82 102.21 113.71 101.46 110.41 99 109.47 98.44 108.5 98.31 106.15 101.15 102.85 101.08 101.7 102.78 101.53 104.9 100.28 107.11 97.17 109.19 96.69 109.52 95.32 111.97 93.53 112.93 93.84 112.5 90.62 110.83 87.56 112 87.27 112.19 84.57 114.08 83.19 114.22 80.46 116.81 76.6 116.54 73.57 119.69 70.61 120.26 66.74 122.48 66.3 122.92 63.01 120.85 61.78 119.89 60.16 120.26 56.47 121.62 54.56 118.74 52.37 117.42 52.51 117.2 54.25 115.03 54.33 114.71 56.18 112.41 56.94 111.91 58.34 109.84 59.25 108.48 60.74 105.54 60.6 103.57 62.06 102.55 61.84 102.94 63.45 102.08 65.49 102.33 67.06 104.06 67.59 105.08 69.87 104.29 71.67 102.43 70.73 99.57 71.15 98.85 68.91 95.44 67.21 91.56 67.39 90.22 64.92 87.14 62.84 85.96 63.43 84.89 61.93 83.93 62.85 84.06 65.18 82.69 67.36 84.3 68.31 84.98 70.64 83.11 73.24 83.32 74.3 81.99 75.81 78.89 73.96 77.65 75.17 76.43 74.94 77.65 78.29 78.91 80.27 78.71 82.46 79.53 84.98 79.51 123.23"/><polygon class="cls-6" points="103.64 124.46 104.18 127.6 103.03 128.07 102.6 131.31 103.49 133.73 138.71 133.75 137.8 131.55 138.77 129.32 148.29 129.29 150.4 128.13 150.57 126.5 152.27 124.15 154.53 124.23 154.94 122 156.53 120.35 156.89 118.14 159.88 118.14 162.16 117.03 162.8 115.49 162.71 113.25 163.96 113.44 165.5 112.37 166.22 109.07 165.17 107.92 166.53 107.31 164.97 105.72 161.47 105.22 160.92 102.81 161.33 101.41 160.4 100.27 157.73 100.26 156.8 100.99 154.52 100.83 152.97 99.88 151.03 100.79 148.19 100.3 145.3 100.76 142.88 101.84 140.14 101.25 135.43 102.7 128.28 104.14 122.96 104.02 119.84 102.92 114.83 106.35 110.96 104.42 106.8 105.6 106.07 105.28 103.98 107.5 101.94 107.04 98.44 108.5 99 109.47 101.46 110.41 102.21 113.71 101.44 115.82 102.56 118.17 102.94 123.42 103.64 124.46"/><polygon class="cls-6" points="147.03 178.38 148.2 178.85 147.86 180.82 149.07 181.82 150.44 181.09 151.47 182.05 151.48 184.51 152.77 184.92 152.7 186.34 155 186.38 155.4 185.45 156.64 186.58 156.24 187.95 160.92 188.01 161.51 187.17 161.51 178.31 163.69 178.29 163.67 174.71 160.71 174.95 158.58 175.95 157.49 177.65 155.95 171.6 156.9 170.01 155.62 165.24 155.79 162.9 154.93 161.22 155.41 159.48 154.88 158.97 144.17 159.06 142.59 162.3 143.33 164.49 142.69 165.34 144.93 170.86 146.53 170.94 148.54 174.64 146.87 176.81 147.03 178.38"/><polygon class="cls-6" points="84.89 61.93 85.96 63.43 87.14 62.84 90.22 64.92 91.56 67.39 95.44 67.21 98.85 68.91 99.57 71.15 102.43 70.73 104.29 71.67 105.08 69.87 104.06 67.59 102.33 67.06 102.08 65.49 102.94 63.45 102.55 61.84 103.57 62.06 105.54 60.6 108.48 60.74 109.84 59.25 111.91 58.34 112.41 56.94 114.71 56.18 115.03 54.33 117.2 54.25 117.42 52.51 118.74 52.37 121.62 54.56 120.26 56.47 119.89 60.16 120.85 61.78 162.42 61.74 162 21.26 162.37 18.73 125.6 18.09 99.24 18.43 95.26 18.11 87.29 18.64 80.56 18.55 78.68 23.74 76.77 24.92 75.63 24.47 74.52 27.34 73.22 27.65 74.44 29.45 73.83 30.21 74.94 33.76 73.78 36.13 72.61 40.03 74.07 40.09 73.61 42.07 75.42 43.23 75.96 45.85 76.85 47.08 75.4 49.26 74.89 51.3 81.22 51.27 82.29 52.13 83.53 58.27 83.03 58.93 84.89 61.93"/><polygon class="cls-6" points="219.43 151.84 219.54 137.62 218.96 138.33 193.73 138.44 192.68 139.96 189.96 137.77 188.26 138.27 187.35 136.36 185.17 134.82 182.65 136.78 182.06 140.18 179.69 141.88 179.1 146 177.76 147.15 178.7 148.29 179.19 154.58 180.35 153.41 182.76 153.27 186.5 152.08 188.3 152.03 191.38 149.91 193.53 147.82 196.74 147.84 197.6 148.34 198.46 150.85 199.6 151.79 219.43 151.84"/><polygon class="cls-6" points="160.4 100.27 167.11 100.28 167.42 76.28 166.93 76.31 166.97 61.72 120.85 61.78 122.92 63.01 122.48 66.3 120.26 66.74 119.69 70.61 116.54 73.57 116.81 76.6 114.22 80.46 114.08 83.19 112.19 84.57 112 87.27 110.83 87.56 112.5 90.62 112.93 93.84 111.97 93.53 109.52 95.32 109.19 96.69 107.11 97.17 104.9 100.28 102.78 101.53 101.08 101.7 101.15 102.85 98.31 106.15 98.44 108.5 101.94 107.04 103.98 107.5 106.07 105.28 106.8 105.6 110.96 104.42 114.83 106.35 119.84 102.92 122.96 104.02 128.28 104.14 135.43 102.7 140.14 101.25 142.88 101.84 145.3 100.76 148.19 100.3 151.03 100.79 152.97 99.88 154.52 100.83 156.8 100.99 157.73 100.26 160.4 100.27"/><polygon class="cls-6" points="158.06 234.04 158.06 247.9 160.14 248.74 161.41 250.94 169.24 243.14 172.67 240.66 173.78 239.2 176.58 237.99 178.92 238.01 180.22 237.05 183.2 238.12 182.97 221.16 182.48 220.61 179.03 210.07 177.68 210.1 171.29 212.78 169.45 212.37 166.67 213.55 163.44 213.13 161.43 212 159.15 215.31 159.34 216.42 157 219.34 157.56 220.18 157.08 224.62 158.02 228.87 157.16 232.07 158.87 232.46 158.06 234.04"/><polygon class="cls-6" points="150.93 220.77 157.56 220.18 157 219.34 159.34 216.42 159.15 215.31 161.43 212 163.44 213.13 166.67 213.55 169.45 212.37 171.29 212.78 177.68 210.1 179.03 210.07 178.98 199.47 175.37 188.89 174.49 189.16 160.92 188.01 156.24 187.95 155.15 189.89 156.59 192.6 157.73 192.69 158.33 194.86 160.05 195.52 159.31 198.92 157.96 199.98 159.95 201.25 160.19 202.87 159.05 203.5 159.65 204.56 159.45 206.94 156.63 209.31 156.14 210.2 156.26 213.97 155.74 215.21 153.75 216.04 152.09 219.78 150.93 220.77"/><polygon class="cls-6" points="160.4 100.27 161.33 101.41 160.92 102.81 161.47 105.22 164.97 105.72 166.53 107.31 165.17 107.92 166.22 109.07 165.5 112.37 163.96 113.44 162.71 113.25 162.8 115.49 164.08 115.5 164.06 117.37 165.57 118.89 163.48 122.52 163.84 125.48 163.07 127.72 163.78 129.96 165.79 130.78 166.2 132.31 169.46 135.24 169.47 135.99 171.73 137.45 171.81 138.76 173.3 139.51 174.66 142.46 176.21 142.84 177.03 144.04 182.06 140.18 182.65 136.78 185.17 134.82 187.35 136.36 188.26 138.27 189.96 137.77 192.68 139.96 193.73 138.44 213.76 138.38 215.21 135.39 215.28 126.45 213.11 124.94 212.37 122.64 211.62 122.64 211.3 118.89 209.82 118.9 209.83 117.76 206.09 117.38 203.46 115.72 201.96 114.19 201.63 112.7 200.5 112.7 199.39 110.47 196.79 109.7 196.78 108.58 194.97 108.56 193.81 107.42 189.37 106.99 188.09 107.77 188.12 108.98 186.63 109.34 185.13 110.84 185.13 113.02 182.88 113.42 182.19 111.92 179.92 111.91 177.63 110.08 177.63 100.22 160.4 100.27"/><polygon class="cls-6" points="160.92 188.01 174.49 189.16 175.99 185.43 176.08 183.92 177.75 182.31 177.93 179.64 181.74 177.64 182.43 176.46 185.45 176.87 187.47 174.53 189.23 174.07 191.01 174.6 193.7 177.15 195.38 177.44 197.26 178.94 199.35 178.02 200.98 176.27 202.38 173.1 206.61 173.41 212.3 172.97 213.9 171.12 219.48 171.11 219.33 158.41 194.06 158.48 190.79 159.88 187.79 162.66 185.93 163.74 185.16 165.4 182.14 167.25 180.6 169.34 180.36 170.74 178.42 173.84 175.91 173.93 174.63 172.61 172.74 173.86 171.37 173.95 169.02 172.79 168.03 171.88 163.67 174.71 163.69 178.29 161.51 178.31 161.51 187.17 160.92 188.01"/><polygon class="cls-6" points="169.02 172.79 171.37 173.95 172.74 173.86 174.63 172.61 175.91 173.93 178.42 173.84 180.36 170.74 180.6 169.34 182.14 167.25 185.16 165.4 185.93 163.74 187.79 162.66 190.79 159.88 194.06 158.48 219.33 158.41 219.43 151.84 199.6 151.79 198.46 150.85 197.6 148.34 196.74 147.84 193.53 147.82 191.38 149.91 188.3 152.03 186.5 152.08 182.76 153.27 180.35 153.41 179.19 154.58 176.74 154.42 175.01 155.18 173.64 157.6 171.91 158.41 171.33 160.15 169.51 160.71 169.02 162.81 169.02 172.79"/><polygon class="cls-6" points="162.37 18.73 162 21.26 162.42 61.74 219.58 61.71 219.61 18.89 162.37 18.73"/><polygon class="cls-6" points="166.97 61.72 166.93 76.31 167.42 76.28 167.11 100.28 177.63 100.22 177.63 110.08 179.92 111.91 182.19 111.92 182.88 113.42 185.13 113.02 185.13 110.84 186.63 109.34 188.12 108.98 188.09 107.77 189.37 106.99 193.81 107.42 194.97 108.56 196.78 108.58 196.79 109.7 199.39 110.47 200.5 112.7 201.63 112.7 201.96 114.19 203.46 115.72 206.09 117.38 209.83 117.76 209.82 118.9 211.3 118.89 211.62 122.64 212.37 122.64 213.11 124.94 215.28 126.45 215.21 135.39 213.76 138.38 218.96 138.33 219.54 137.62 219.69 119.73 219.58 61.71 166.97 61.72"/><polygon class="cls-6" points="105.56 144.93 111.48 144.9 111.34 155 135.17 154.89 135.16 153.41 140.19 153.45 140.16 154.97 144.89 154.97 145.65 151.61 145.39 148.54 146.22 147.14 140.78 147.29 140.41 145.28 140.84 142.39 141.8 141.42 141.13 140.3 142.85 138.87 139.57 135.28 138.71 133.75 103.49 133.73 103.46 136.3 104.48 136.3 104.47 138.32 105.27 138.32 105.56 144.93"/><polygon class="cls-6" points="178.98 199.47 182.29 198.49 184.6 198.62 186.32 197.05 189.53 197.11 194.76 199.72 199.41 199.29 204.63 197.62 206.99 197.69 209.07 196.79 210.74 195 211.09 193.38 214.16 192.75 215.2 189.48 216.72 189.63 220.96 185.92 224.43 181.07 223.36 177.94 219.54 174.57 219.48 171.11 213.9 171.12 212.3 172.97 206.61 173.41 202.38 173.1 200.98 176.27 199.35 178.02 197.26 178.94 195.38 177.44 193.7 177.15 191.01 174.6 189.23 174.07 187.47 174.53 185.45 176.87 182.43 176.46 181.74 177.64 177.93 179.64 177.75 182.31 176.08 183.92 175.99 185.43 174.49 189.16 175.37 188.89 178.98 199.47"/><polygon class="cls-6" points="111.34 155 109.92 158.66 110.63 160.06 113.64 162.39 117.89 164.14 120.18 163.89 121.79 167.16 120.91 167.39 121.13 171.85 124.21 173.52 124.38 176.44 127.1 178.39 147.03 178.38 146.87 176.81 148.54 174.64 146.53 170.94 144.93 170.86 142.69 165.34 143.33 164.49 142.59 162.3 144.17 159.06 144.89 154.97 140.16 154.97 140.19 153.45 135.16 153.41 135.17 154.89 111.34 155"/><polygon class="cls-6" points="180.24 213.72 182.48 220.61 193.74 233.44 194.53 232.03 197.03 230.31 199.23 227.38 198.44 225.54 201.29 224.44 202.09 222.1 204.28 219.22 205 217.4 208.9 211.42 211.47 208.47 212.6 206.26 214.21 205.12 216.11 204.76 218.79 203.24 216.71 202.55 216.71 199.38 214.63 200.09 211.45 199.83 206.5 201.64 202.85 201.22 201.35 202.6 199.82 202.53 198.89 203.79 195.27 205.46 194.64 207.94 190.44 209.56 189.77 210.54 187.57 210.87 184.82 212.94 181.17 214.12 180.24 213.72"/><polygon class="cls-6" points="138.71 133.75 139.57 135.28 142.85 138.87 141.13 140.3 141.8 141.42 140.84 142.39 140.41 145.28 140.78 147.29 146.22 147.14 145.39 148.54 145.65 151.61 144.17 159.06 154.88 158.97 155.41 159.48 155.88 158.29 157.81 159 161.29 157.56 163.99 157.21 165.33 155.95 165.7 153.97 166.85 152.86 166.84 150.63 167.62 150.26 168 148.03 170.57 148.36 170.56 147.67 174.14 147.68 174.14 146.2 175.83 145.59 177.03 144.04 176.21 142.84 174.66 142.46 173.3 139.51 171.81 138.76 171.73 137.45 169.47 135.99 169.46 135.24 166.2 132.31 165.79 130.78 163.78 129.96 163.07 127.72 163.84 125.48 163.48 122.52 165.57 118.89 164.06 117.37 164.08 115.5 162.8 115.49 162.16 117.03 159.88 118.14 156.89 118.14 156.53 120.35 154.94 122 154.53 124.23 152.27 124.15 150.57 126.5 150.4 128.13 148.29 129.29 138.77 129.32 137.8 131.55 138.71 133.75"/><polygon class="cls-6" points="178.98 199.47 179.03 210.07 180.24 213.72 181.17 214.12 184.82 212.94 187.57 210.87 189.77 210.54 190.44 209.56 194.64 207.94 195.27 205.46 198.89 203.79 199.82 202.53 201.35 202.6 202.85 201.22 206.5 201.64 211.45 199.83 214.63 200.09 216.71 199.38 216.72 189.63 215.2 189.48 214.16 192.75 211.09 193.38 210.74 195 209.07 196.79 206.99 197.69 204.63 197.62 199.41 199.29 194.76 199.72 189.53 197.11 186.32 197.05 184.6 198.62 182.29 198.49 178.98 199.47"/><polygon class="cls-7" points="307.18 423.06 311.5 426.66 312.23 424.08 313.99 424.08 314.01 421.86 316.08 421.06 316.06 418.9 323.3 418.89 323.3 419.58 329.22 419.62 329.23 420.3 340.92 420.27 340.91 418.88 404.67 418.88 404.67 416.8 439.48 416.71 440.25 415.38 443.97 413.92 445.34 412.36 446.56 412.25 450.18 408.49 451.33 408.19 451.22 406.03 449.69 403.82 447.75 403.03 443.26 398.93 441.4 398.62 441.63 395.18 439.44 391.96 438.87 388.55 438.01 386.35 434.84 383.79 433.28 380.21 431.85 379.13 431.65 372.46 391.55 333.32 388.09 333.33 388.08 334.08 313.12 333.91 313.06 338.16 312.35 339.57 313.78 339.57 313.08 341 313.16 381.12 311.76 381.11 311.77 393.82 312.62 406.66 311.35 412.63 309.03 419.63 307.79 419.37 306.4 421.67 307.18 423.06"/><polygon class="cls-7" points="317.99 444.04 323.74 444.04 323.47 444.72 328.58 446.69 328.6 447.49 374.28 447.78 431.9 447.42 432.07 446.33 434.63 442.73 435.97 441.75 435.32 439.94 436.05 438.99 435.66 436.22 437.06 434.93 436.64 431.56 435.81 429.32 435.74 427.29 436.77 426.9 435.54 424.05 439.36 419.43 439.48 416.71 404.67 416.8 404.67 418.88 340.91 418.88 340.92 420.27 329.23 420.3 329.22 419.62 323.3 419.58 323.3 418.89 316.06 418.9 316.08 421.06 314.01 421.86 313.99 424.08 312.23 424.08 311.5 426.66 315.18 431.48 316.93 432.04 317.03 434.29 319.38 434.6 321.81 436.73 317.97 442.66 317.99 444.04"/><polygon class="cls-7" points="294.43 432.33 297.38 435.82 307.06 442.26 309.9 446.17 314.58 449.64 315.27 446.45 317.99 445.61 317.97 442.66 321.81 436.73 319.38 434.6 317.03 434.29 316.93 432.04 315.18 431.48 311.5 426.66 307.18 423.06 299.55 423.08 299.54 425.15 296.27 427.84 294.43 432.33"/><polygon class="cls-6" points="240.26 402.68 247.94 407.61 250.04 412.88 253.95 415.73 261.27 418.35 261.44 416.93 267.45 412.47 272.22 412.49 272.23 409.03 273.62 409.04 273.46 406.58 263.76 382.64 260.02 382.64 260.02 381.61 249.47 381.51 249.47 379.42 248.15 378.36 243.98 378.36 243.99 377.33 241.61 377.31 241.62 398.72 241.25 401.54 240.26 402.68"/><polygon class="cls-6" points="237.99 454.46 236.47 455.71 240.57 457.79 242.43 457.1 237.99 454.46"/><polygon class="cls-6" points="240.26 402.68 241.25 401.54 241.62 398.72 241.61 377.31 237.92 377.49 234.75 374.94 232.48 373.83 229.63 373.82 226.27 372.28 225.33 371 223.12 370.64 222.41 369.67 220.37 369.78 215.92 367.04 212.91 368.98 212.15 371.05 206.57 371.81 207.65 374.32 207.75 377.01 202.27 373.14 199.97 372.88 194.52 374.5 193.93 373.78 193.07 377.18 195.46 379.39 194.39 384.31 195.85 386.78 194.1 392.74 199.37 395.5 201.69 399.21 207.76 398.06 219.27 398.5 224.4 401.07 231.07 401.62 237.1 400.82 240.26 402.68"/><polygon class="cls-6" points="222.86 416.82 224.55 421.46 230.85 422.35 236.97 420.73 236.83 417.85 234.15 419.86 230.92 418.44 222.86 416.82"/><polygon class="cls-6" points="217.42 418.72 210.19 420.06 214.85 425.55 220.83 423.27 217.42 418.72"/><polygon class="cls-6" points="205.12 416.97 202.29 418.68 207.76 419.51 205.12 416.97"/><polygon class="cls-6" points="261.27 418.35 266.77 420.49 269.17 418.97 276.03 418.53 279.14 420.23 283.18 428.29 282.36 432.83 286.83 434.32 288.7 431.45 294.76 431.26 296.27 427.84 299.54 425.15 299.55 423.08 307.18 423.06 306.4 421.67 307.79 419.37 309.03 419.63 311.35 412.63 312.62 406.66 311.77 393.82 311.76 381.11 264.67 381.33 263.76 382.64 273.46 406.58 273.62 409.04 272.23 409.03 272.22 412.49 267.45 412.47 261.44 416.93 261.27 418.35"/><polygon class="cls-6" points="274.67 445.27 279.3 448.07 280.58 452.71 285.76 453.78 286.35 452 283.9 448.53 274.67 445.27"/><polygon class="cls-6" points="275.14 466.2 278.88 474.88 281.78 477.17 284.09 475.55 279.2 471.27 275.14 466.2"/><polygon class="cls-6" points="204.26 243.37 204.09 240.87 206.7 242.6 207.47 241.78 205.93 238.82 212.11 236.66 212.36 235.29 214.55 235.98 216.44 233.62 223.25 237.16 224.93 236.45 227.11 237.31 233.26 234.54 233.56 232.72 234.98 232.4 236.73 229.97 237.99 229.91 240.35 232.28 242.23 231.72 243.1 233.2 245.18 233.74 248.47 238.1 251.14 234.84 250.62 231.56 251.16 230.89 246.91 227.71 246.35 226.5 247.06 223.84 245.27 220.75 243.41 219.68 240.77 220.11 240.54 218.6 236.31 217.13 235.96 215.78 234.09 215.05 235.22 213.24 234.86 211.91 233.35 210.65 233.84 208.61 231.43 206.68 231.48 204.42 229.31 204.09 227.41 204.86 224.13 207.14 218.79 203.24 216.11 204.76 214.21 205.12 212.6 206.26 211.47 208.47 208.9 211.42 205 217.4 204.28 219.22 202.09 222.1 201.29 224.44 198.44 225.54 199.23 227.38 197.03 230.31 194.53 232.03 193.74 233.44 204.26 243.37"/><polygon class="cls-6" points="236.44 300.06 238.22 300.13 238.2 304.35 240.33 304.38 240.34 310.85 238.18 310.81 237.83 334.28 298.3 334.3 298.4 330.71 299.37 330.51 298.93 326.76 297.89 325.92 298.47 324.81 297.29 323.58 295.97 319.5 296.16 315.5 295.03 314.37 293.57 310.29 294.76 307.81 292.29 304.73 293.16 303.54 292.42 302.82 290.13 302.71 288.74 300.38 289.33 299.82 288.65 297.44 287.13 296.64 287.76 294.73 285.94 293.26 285.6 291.31 284.14 290.08 285.39 289.41 284.36 287.46 259.79 287.61 259.7 291.78 247.05 291.61 247.04 295.89 240.67 295.81 236.44 300.06"/><polygon class="cls-6" points="171.1 268.18 181.48 257.7 180.68 255.04 204.26 243.37 193.74 233.44 182.97 221.16 183.2 238.12 180.22 237.05 178.92 238.01 176.58 237.99 173.78 239.2 172.67 240.66 169.24 243.14 161.38 250.92 161.39 253.85 162.01 255.23 163.76 255.53 163.32 257.06 164.03 259.43 161.92 260.83 162.05 262.49 163.59 264.38 164.07 267.13 166.05 265.74 167.08 266.63 168.91 265.75 171.1 268.18"/><polygon class="cls-6" points="193.93 373.78 194.52 374.5 199.97 372.88 202.27 373.14 207.75 377.01 207.65 374.32 206.57 371.81 212.15 371.05 212.91 368.98 215.92 367.04 220.37 369.78 222.41 369.67 223.12 370.64 225.33 371 226.27 372.28 229.63 373.82 232.48 373.83 234.75 374.94 237.92 377.49 240.41 377.32 240.42 368.84 239.71 368.12 236.93 368.32 237.22 363.86 232.73 364.11 232.75 359.87 227.11 359.82 227.12 355.59 224.31 355.58 224.32 351.32 219.68 351.3 219.68 349.88 216.15 347.07 216.19 342.8 211.92 342.8 211.91 334.3 166.34 334 168.93 340.25 173.59 341.88 179.92 350.26 183.79 350.86 185.49 355.79 184.11 360.58 189.7 364.81 193.85 365.42 194.69 369.59 193.93 373.78"/><polygon class="cls-6" points="154.62 280.09 155.48 282.46 156.44 282.89 160.15 286.85 161.03 286.44 162.19 288.48 160.92 289.02 161.56 290.38 163.92 291.8 166.23 292.21 167.48 294.1 167.07 296.82 168.39 298.18 167.85 299.54 170.42 299.17 172.41 302.18 178.45 308.16 178.47 310.75 180.36 310.81 180.64 309.68 181.9 310.58 183.2 308.79 185.39 309.69 188.39 312.52 189.49 314.06 191.46 314.31 191.66 312.9 190.07 308.83 192.76 310.94 193.54 308.54 196 307.93 195.98 300.09 182.68 287.11 174.47 282.93 172.22 279.09 170.79 278.47 171.55 276.77 163.53 276.8 162.19 275.41 160.74 275.69 159.76 277.57 157.08 279.77 155.19 279.22 154.62 280.09"/><polygon class="cls-6" points="147.99 282.25 148.91 284.51 147.8 290.81 144.9 294.52 143.06 292.77 143.03 300.89 144.51 308.99 147.04 311.82 151.75 314.49 155.02 318.08 157.4 322.86 159.84 323.69 161.8 329.6 166.34 334 211.12 334.29 210.86 332.82 209.33 331.57 209.97 329.98 208.55 328.56 207.13 328.55 205.36 325.77 202.46 325.53 200.66 323.52 198.22 322.22 193.94 318.74 193.18 316.16 194.81 314.08 192.64 311.73 192.76 310.94 190.07 308.83 191.66 312.9 191.46 314.31 189.49 314.06 188.39 312.52 185.39 309.69 183.2 308.79 181.9 310.58 180.64 309.68 180.36 310.81 178.47 310.75 178.45 308.16 172.41 302.18 170.42 299.17 167.85 299.54 168.39 298.18 167.07 296.82 167.48 294.1 166.23 292.21 163.92 291.8 161.56 290.38 160.92 289.02 162.19 288.48 161.03 286.44 160.15 286.85 156.44 282.89 155.48 282.46 154.62 280.09 151.42 279.09 149.08 280.49 147.99 282.25"/><polygon class="cls-6" points="233.84 208.61 233.35 210.65 234.86 211.91 235.22 213.24 234.09 215.05 235.96 215.78 236.31 217.13 240.54 218.6 240.77 220.11 243.41 219.68 245.27 220.75 247.06 223.84 246.35 226.5 246.91 227.71 251.16 230.89 250.62 231.56 251.14 234.84 248.47 238.1 250.55 239.35 251.25 238.22 254.19 238.36 256.52 240.82 257.81 243.53 258.21 245.76 260.01 247.2 262.37 247.52 265 251.24 267.11 250.59 267.99 251.87 305.23 251.78 270.39 219.92 235.96 189.1 234.81 191.5 234.63 194.65 237.64 199.9 236.89 204.39 234.51 205.24 235.09 206.62 233.84 208.61"/><polygon class="cls-6" points="171.1 268.18 170.46 270.26 171.78 271.48 170.34 273.59 170.38 275.2 171.55 276.77 170.79 278.47 172.22 279.09 174.47 282.93 183.28 287.68 200.74 270.08 206.1 268.68 210.6 266.76 214.83 266.65 217.52 265.78 215.9 263.82 212.53 261.85 212.36 260.41 209.07 254.98 208.71 252.84 204.26 243.38 180.68 255.04 181.48 257.7 171.1 268.18"/><polygon class="cls-6" points="204.26 243.38 208.71 252.84 209.07 254.98 212.36 260.41 212.53 261.85 215.9 263.82 217.52 265.78 228.99 254.16 233.36 254.12 233.36 251.95 234.77 251.95 234.79 250.29 236.01 250.29 236.03 247.03 246.89 236.16 245.18 233.74 243.1 233.2 242.23 231.72 240.35 232.28 237.99 229.91 236.73 229.97 234.98 232.4 233.56 232.72 233.26 234.54 227.11 237.31 224.93 236.45 223.25 237.16 216.44 233.62 214.55 235.98 212.36 235.29 212.11 236.66 205.93 238.82 207.47 241.78 206.7 242.6 204.09 240.87 204.26 243.38"/><polygon class="cls-6" points="198.15 272.67 201.79 279.19 201.54 281.63 204.26 283.55 204.95 285.48 206.77 285.41 210.49 286.25 216.43 283.49 218.44 284.01 220.19 282.71 221.81 283.05 224.13 281.84 226.74 282.36 227.95 279.91 230.1 277.39 229.83 276.34 231.8 274.26 233.07 274.19 233.04 272.93 234.55 273.54 235.19 271.34 236.85 271.68 237.84 269.68 236.62 269.03 236.98 267.73 238.42 268.42 239.07 267.39 240.5 269.4 240.91 267.64 242.57 266.73 243.83 267.44 246.01 264.69 246.38 262.61 245.87 259.36 247.77 256.26 258.21 245.76 257.81 243.53 256.52 240.82 254.19 238.36 251.25 238.22 250.55 239.35 248.47 238.1 246.89 236.16 236.03 247.03 236.01 250.29 234.79 250.29 234.77 251.95 233.36 251.95 233.36 254.12 228.99 254.16 217.52 265.78 214.83 266.65 210.6 266.76 206.1 268.68 200.74 270.08 198.15 272.67"/><polygon class="cls-6" points="207.13 328.55 208.55 328.56 209.97 329.98 209.33 331.57 210.86 332.82 211.12 334.29 237.83 334.28 238.18 310.81 240.34 310.85 240.33 304.38 238.2 304.35 238.22 300.13 236.44 300.06 232.75 303.51 232.56 302.9 229.58 303.62 229.3 304.33 221.16 304.38 221.19 315.14 207.13 328.55"/><polygon class="cls-6" points="211.91 334.3 211.92 342.8 216.19 342.8 216.15 347.07 219.68 349.88 219.68 351.3 224.32 351.32 224.31 355.58 227.12 355.59 227.11 359.82 232.75 359.87 232.73 364.11 237.22 363.86 236.93 368.32 239.71 368.12 240.42 368.84 240.41 377.32 243.99 377.33 243.98 378.36 248.15 378.36 249.47 379.42 249.47 381.51 260.02 381.61 260.02 382.64 263.76 382.64 264.67 381.33 313.16 381.12 313.08 341 313.78 339.57 312.35 339.57 313.06 338.16 313.12 333.91 301.6 333.86 301.65 334.41 280.04 334.13 211.91 334.3"/><polygon class="cls-6" points="284.36 287.46 285.39 289.41 284.14 290.08 285.6 291.31 285.94 293.26 287.76 294.73 287.13 296.64 288.65 297.44 289.33 299.82 288.74 300.38 290.13 302.71 292.42 302.82 293.16 303.54 292.29 304.73 294.76 307.81 293.57 310.29 295.03 314.37 296.16 315.5 295.97 319.5 297.29 323.58 298.47 324.81 297.89 325.92 298.93 326.76 299.37 330.51 298.4 330.71 298.3 334.3 301.65 334.41 301.6 333.86 388.08 334.08 388.09 333.33 391.55 333.32 358.36 301.52 305.23 251.78 267.99 251.87 268.6 253.24 267.39 255.31 268.26 256.94 267.52 257.82 269.37 259.22 270.32 258.58 272.33 261.92 271.56 262.82 271.68 264.69 272.75 267.83 275.19 268.01 277.35 269.23 280.15 271.55 280.91 271.45 281.7 274.26 284.36 280.4 284.33 282.5 283.21 283.03 284.36 287.46"/><polygon class="cls-6" points="192.76 310.94 192.64 311.73 194.81 314.08 193.18 316.16 193.94 318.74 198.22 322.22 200.66 323.52 202.46 325.53 205.36 325.77 207.13 328.55 221.19 315.14 221.16 304.38 229.3 304.33 229.58 303.62 232.56 302.9 232.75 303.51 240.67 295.81 247.04 295.89 247.05 291.61 259.7 291.78 259.79 287.61 284.36 287.46 283.21 283.03 284.33 282.5 284.36 280.4 281.7 274.26 280.91 271.45 280.15 271.55 277.35 269.23 275.19 268.01 272.75 267.83 271.68 264.69 271.56 262.82 272.33 261.92 270.32 258.58 269.37 259.22 267.52 257.82 268.26 256.94 267.39 255.31 268.6 253.24 267.99 251.87 267.11 250.59 265 251.24 262.37 247.52 260.01 247.2 258.21 245.76 247.77 256.26 245.87 259.36 246.38 262.61 246.01 264.69 243.83 267.44 242.57 266.73 240.91 267.64 240.5 269.4 239.07 267.39 238.42 268.42 236.98 267.73 236.62 269.03 237.84 269.68 236.85 271.68 235.19 271.34 234.55 273.54 233.04 272.93 233.07 274.19 231.8 274.26 229.83 276.34 230.1 277.39 227.95 279.91 226.74 282.36 224.13 281.84 221.81 283.05 220.19 282.71 218.44 284.01 216.43 283.49 210.49 286.25 206.77 285.41 204.95 285.48 204.26 283.55 201.54 281.63 201.79 279.19 198.15 272.67 183.28 287.68 195.98 300.09 196 307.93 193.54 308.54 192.76 310.94"/><polygon class="cls-6" points="216.71 199.38 216.71 202.55 218.79 203.24 224.13 207.14 227.41 204.86 229.31 204.09 231.48 204.42 231.43 206.68 233.84 208.61 235.09 206.62 234.51 205.24 236.89 204.39 237.64 199.9 234.63 194.65 234.81 191.5 235.96 189.1 223.36 177.94 224.43 181.07 220.96 185.92 216.72 189.63 216.71 199.38"/></g><g id="Layer_6" data-name="Layer 6"><path class="cls-8" d="M470.51,293.49c0-8.43,4.72-13.43,11.52-13.43s11.56,5,11.56,13.43-4.72,13.68-11.56,13.68S470.51,302,470.51,293.49Zm18.28,0c0-5.84-2.64-9.39-6.76-9.39s-6.76,3.55-6.76,9.39,2.64,9.64,6.76,9.64S488.79,299.37,488.79,293.49Z"/><path class="cls-8" d="M498.43,287.06h3.8l.32,3.47h.16c1.4-2.55,3.48-4,5.56-4a4.85,4.85,0,0,1,2.24.41l-.8,4a6.42,6.42,0,0,0-2-.32c-1.56,0-3.44,1.08-4.64,4v12h-4.6Z"/><path class="cls-8" d="M511.27,301.41c0-4.2,3.48-6.4,11.56-7.28-.08-2.08-.92-3.84-3.6-3.84a11.19,11.19,0,0,0-5.52,1.92L512,289.13a15.36,15.36,0,0,1,8.08-2.56c4.88,0,7.32,3,7.32,8.48v11.64h-3.8l-.32-2.16h-.16a9.56,9.56,0,0,1-6.08,2.64A5.49,5.49,0,0,1,511.27,301.41Zm11.56,0V297c-5.36.68-7.12,2.08-7.12,4,0,1.76,1.2,2.52,2.84,2.52S521.35,302.77,522.83,301.41Z"/><path class="cls-8" d="M533,287.06h3.8l.32,2.63h.16c1.76-1.71,3.76-3.12,6.44-3.12,4.2,0,6,2.84,6,7.8v12.32h-4.6V295c0-3.24-.92-4.44-3.08-4.44-1.72,0-2.84.84-4.48,2.44v13.72H533Z"/><path class="cls-8" d="M554,310.25c0-1.64,1-3.08,2.8-4.2v-.16a3.69,3.69,0,0,1-1.76-3.28,4.74,4.74,0,0,1,2.16-3.64v-.16a6.63,6.63,0,0,1-2.56-5.2c0-4.52,3.64-7,7.76-7a8.58,8.58,0,0,1,2.88.49h7v3.39h-3.6a5.25,5.25,0,0,1,1.12,3.32c0,4.36-3.28,6.68-7.44,6.68a7.24,7.24,0,0,1-2.68-.52,2.26,2.26,0,0,0-1,1.88c0,1.12.8,1.8,3.2,1.8h3.48c4.72,0,7.2,1.44,7.2,4.84,0,3.88-4.08,6.92-10.48,6.92C557.51,315.37,554,313.69,554,310.25Zm14.2-1c0-1.52-1.24-2-3.48-2h-2.68a10.4,10.4,0,0,1-2.68-.28,3.3,3.3,0,0,0-1.52,2.6c0,1.76,1.92,2.8,5,2.8S568.23,310.89,568.23,309.21Zm-2.4-15.6c0-2.44-1.48-3.88-3.4-3.88s-3.44,1.4-3.44,3.88,1.52,4,3.44,4S565.83,296.13,565.83,293.61Z"/><path class="cls-8" d="M574.23,296.89c0-6.4,4.44-10.32,9-10.32,5.32,0,8.12,3.84,8.12,9.32a10.72,10.72,0,0,1-.2,2.24H578.71c.4,3.48,2.64,5.48,5.8,5.48a8.2,8.2,0,0,0,4.56-1.44l1.56,2.88a12.39,12.39,0,0,1-6.72,2.12C578.47,307.17,574.23,303.37,574.23,296.89ZM587.39,295c0-3-1.32-4.88-4-4.88-2.32,0-4.32,1.72-4.72,4.88Z"/><path class="cls-8" d="M602.83,293.69c0-8.55,5.36-13.63,12-13.63a10.39,10.39,0,0,1,7.56,3.32l-2.48,3a6.82,6.82,0,0,0-5-2.28c-4.28,0-7.32,3.59-7.32,9.47s2.8,9.56,7.2,9.56a7.45,7.45,0,0,0,5.6-2.68l2.48,2.92a10.55,10.55,0,0,1-8.24,3.8C608,307.17,602.83,302.37,602.83,293.69Z"/><path class="cls-8" d="M625.55,296.89c0-6.56,4.44-10.32,9.32-10.32s9.36,3.76,9.36,10.32-4.44,10.28-9.36,10.28S625.55,303.41,625.55,296.89Zm14,0c0-4-1.76-6.56-4.64-6.56s-4.6,2.6-4.6,6.56,1.72,6.52,4.6,6.52S639.51,300.81,639.51,296.89Z"/><path class="cls-8" d="M648.59,299.37V287.06h4.6v11.71c0,3.24.92,4.44,3,4.44,1.72,0,2.88-.8,4.36-2.72V287.06h4.6v19.63h-3.76l-.36-2.88H661c-1.72,2-3.64,3.36-6.32,3.36C650.43,307.17,648.59,304.33,648.59,299.37Z"/><path class="cls-8" d="M671,287.06h3.8l.32,2.63h.16c1.76-1.71,3.76-3.12,6.44-3.12,4.2,0,6,2.84,6,7.8v12.32h-4.6V295c0-3.24-.92-4.44-3.08-4.44-1.72,0-2.84.84-4.48,2.44v13.72H671Z"/><path class="cls-8" d="M694.11,300.05v-9.36h-2.8v-3.43l3-.2.56-5.36h3.84v5.36h5v3.63h-5v9.36c0,2.32.88,3.44,2.76,3.44a5.63,5.63,0,0,0,2-.44l.8,3.4a12.54,12.54,0,0,1-4,.72C695.79,307.17,694.11,304.29,694.11,300.05Z"/><path class="cls-8" d="M706.63,314.37l.84-3.6a4.83,4.83,0,0,0,1.4.28c2.08,0,3.28-1.4,3.92-3.36l.36-1.24-7.72-19.39h4.68l3.4,9.63c.56,1.72,1.12,3.68,1.72,5.52h.16c.48-1.8,1-3.76,1.48-5.52l3-9.63h4.43l-7.11,20.51c-1.64,4.44-3.68,7.2-8,7.2A7.64,7.64,0,0,1,706.63,314.37Z"/><path class="cls-8" d="M734.19,278.3h3.12L728,313.09h-3.12Z"/><path class="cls-8" d="M486.07,328.54h4.64v26.15h-4.64Z"/><path class="cls-8" d="M497,335.05h3.8l.32,2.64h.16c1.76-1.72,3.76-3.12,6.44-3.12,4.2,0,6,2.84,6,7.8v12.32h-4.6V343c0-3.24-.92-4.44-3.08-4.44-1.72,0-2.84.84-4.48,2.44v13.72H497Z"/><path class="cls-8" d="M519.35,349.65V326.46H524v23.43c0,1.12.52,1.52,1,1.52a2.76,2.76,0,0,0,.72-.08l.6,3.44a6.28,6.28,0,0,1-2.44.4C520.55,355.17,519.35,353.05,519.35,349.65Z"/><path class="cls-8" d="M529.15,349.41c0-4.2,3.48-6.4,11.56-7.28-.08-2.08-.92-3.84-3.6-3.84a11.19,11.19,0,0,0-5.52,1.92l-1.68-3.08a15.36,15.36,0,0,1,8.08-2.56c4.88,0,7.32,3,7.32,8.48v11.64h-3.8l-.32-2.16H541a9.56,9.56,0,0,1-6.08,2.64A5.49,5.49,0,0,1,529.15,349.41Zm11.56,0V345c-5.36.68-7.12,2.08-7.12,4,0,1.76,1.2,2.52,2.84,2.52S539.23,350.77,540.71,349.41Z"/><path class="cls-8" d="M550.83,335.05h3.8l.32,2.64h.16c1.76-1.72,3.76-3.12,6.44-3.12,4.2,0,6,2.84,6,7.8v12.32H563V343c0-3.24-.92-4.44-3.08-4.44-1.72,0-2.84.84-4.48,2.44v13.72h-4.6Z"/><path class="cls-8" d="M572,344.89c0-6.4,4-10.32,8.32-10.32a7.25,7.25,0,0,1,5.16,2.16l-.16-3.16v-7.11H590v28.23h-3.8l-.32-2.12h-.16a8.18,8.18,0,0,1-5.56,2.6C575.19,355.17,572,351.37,572,344.89Zm13.32,4.28V340a5.86,5.86,0,0,0-4-1.64c-2.52,0-4.56,2.36-4.56,6.48s1.6,6.52,4.44,6.52A5.3,5.3,0,0,0,585.35,349.17Z"/><path class="cls-8" d="M604.19,328.54H620v3.91H608.83v6.68h9.4v3.92h-9.4v7.72h11.52v3.92H604.19Z"/><path class="cls-8" d="M625.31,335.05h3.8l.32,2.68h.16c1.64-1.76,3.56-3.16,6-3.16a5.34,5.34,0,0,1,5.44,3.52c1.88-2,3.84-3.52,6.32-3.52,4.15,0,6.07,2.84,6.07,7.8v12.32h-4.64V343c0-3.24-.95-4.44-3-4.44-1.24,0-2.6.8-4.12,2.44v13.72h-4.6V343c0-3.24-1-4.44-3-4.44-1.2,0-2.6.8-4.12,2.44v13.72h-4.6Z"/><path class="cls-8" d="M659,335.05h3.8l.32,2.08h.16a9.58,9.58,0,0,1,5.92-2.56c4.88,0,7.72,3.92,7.72,10,0,6.72-4,10.6-8.4,10.6a7.94,7.94,0,0,1-5-2.16l.12,3.28v6.16H659Zm13.16,9.56c0-3.92-1.28-6.24-4.24-6.24-1.44,0-2.8.72-4.32,2.2v9.16a6.21,6.21,0,0,0,4,1.64C670.19,351.37,672.19,349.05,672.19,344.61Z"/><path class="cls-8" d="M681.07,329a2.85,2.85,0,1,1,2.84,2.59A2.64,2.64,0,0,1,681.07,329Zm.52,6h4.6v19.64h-4.6Z"/><path class="cls-8" d="M692.07,335.05h3.8l.32,3.48h.16c1.4-2.56,3.48-4,5.56-4a5,5,0,0,1,2.24.4l-.8,4a6.42,6.42,0,0,0-2-.32c-1.56,0-3.44,1.08-4.64,4v12h-4.6Z"/><path class="cls-8" d="M705.31,344.89c0-6.4,4.44-10.32,9-10.32,5.31,0,8.11,3.84,8.11,9.32a10.72,10.72,0,0,1-.2,2.24H709.79c.4,3.48,2.64,5.48,5.8,5.48a8.23,8.23,0,0,0,4.56-1.44l1.55,2.88a12.33,12.33,0,0,1-6.71,2.12C709.55,355.17,705.31,351.37,705.31,344.89ZM718.47,343c0-3-1.32-4.88-4-4.88-2.32,0-4.32,1.72-4.72,4.88Z"/><path class="cls-8" d="M568.06,367.79h4.2c4.8,0,7.63,2.6,7.63,7.78s-2.83,7.92-7.49,7.92h-4.34Zm4,13.45c3.17,0,5-1.8,5-5.67s-1.79-5.52-5-5.52h-1.23v11.19Z"/><path class="cls-8" d="M582.51,368.08a1.71,1.71,0,1,1,1.7,1.56A1.58,1.58,0,0,1,582.51,368.08Zm.31,3.63h2.76v11.78h-2.76Z"/><path class="cls-8" d="M587.93,382.15l1.3-1.78a5.2,5.2,0,0,0,3.26,1.32c1.27,0,1.87-.6,1.87-1.41,0-1-1.27-1.42-2.52-1.9-1.56-.58-3.31-1.46-3.31-3.43s1.66-3.53,4.3-3.53a6.38,6.38,0,0,1,3.91,1.41l-1.27,1.69a4.35,4.35,0,0,0-2.6-1c-1.17,0-1.72.55-1.72,1.29,0,.94,1.17,1.3,2.44,1.76,1.61.59,3.39,1.36,3.39,3.57,0,2-1.61,3.65-4.59,3.65A7.5,7.5,0,0,1,587.93,382.15Z"/><path class="cls-8" d="M599.38,379.51v-5.62H597.7v-2.06l1.82-.12.34-3.22h2.3v3.22h3v2.18h-3v5.62c0,1.39.53,2.06,1.66,2.06a3.4,3.4,0,0,0,1.22-.26l.48,2a7.69,7.69,0,0,1-2.4.43C600.39,383.78,599.38,382.05,599.38,379.51Z"/><path class="cls-8" d="M607.63,371.71h2.28l.2,2.08h.09a4,4,0,0,1,3.34-2.37,3,3,0,0,1,1.34.24l-.48,2.4a3.86,3.86,0,0,0-1.22-.19c-.94,0-2.06.65-2.78,2.42v7.2h-2.77Z"/><path class="cls-8" d="M616.27,368.08a1.71,1.71,0,1,1,1.71,1.56A1.59,1.59,0,0,1,616.27,368.08Zm.32,3.63h2.76v11.78h-2.76Z"/><path class="cls-8" d="M622.11,377.61a5.81,5.81,0,0,1,5.9-6.19,5.08,5.08,0,0,1,3.46,1.32l-1.35,1.8a2.87,2.87,0,0,0-2-.86c-1.89,0-3.21,1.55-3.21,3.93s1.29,3.91,3.14,3.91a4,4,0,0,0,2.43-1l1.12,1.82a5.87,5.87,0,0,1-3.84,1.44C624.58,383.78,622.11,381.52,622.11,377.61Z"/><path class="cls-8" d="M634.13,379.51v-5.62h-1.68v-2.06l1.82-.12.34-3.22h2.3v3.22h3v2.18h-3v5.62c0,1.39.53,2.06,1.66,2.06a3.4,3.4,0,0,0,1.22-.26l.48,2a7.63,7.63,0,0,1-2.4.43C635.14,383.78,634.13,382.05,634.13,379.51Z"/><circle class="cls-9" cx="307.94" cy="436.35" r="29.28"/><circle class="cls-10" cx="307.94" cy="436.35" r="9.02"/><circle class="cls-10" cx="358.33" cy="434.32" r="9.02"/></g></svg>