<?xml version="1.0" encoding="utf-8"?>
<!-- Generator: Adobe Illustrator 25.4.1, SVG Export Plug-In . SVG Version: 6.00 Build 0)  -->
<svg version="1.1" id="Layer_1" xmlns="http://www.w3.org/2000/svg" xmlns:xlink="http://www.w3.org/1999/xlink" x="0px" y="0px"
	 viewBox="0 0 784.06 507.87" style="enable-background:new 0 0 784.06 507.87;" xml:space="preserve">
<style type="text/css">
	.st0{fill:#E6E6E6;}
	.st1{enable-background:new    ;}
	.st2{fill:#007DBC;}
	.st3{fill:none;stroke:#F0F0F0;stroke-width:2.54;stroke-miterlimit:10;}
	.st4{fill:#F0F0F0;}
	.st5{opacity:0.8;fill:#007DBC;enable-background:new    ;}
	.st6{fill:none;stroke:#0675AF;stroke-width:0.64;stroke-linejoin:bevel;}
	.st7{fill:none;stroke:#FFFFFF;stroke-width:3;stroke-miterlimit:10;}
	.st8{fill:#FFFFFF;}
</style>
<g id="Layer_1_00000135672924365408834060000004501151727219289005_">
	<rect x="-11.18" y="-11.39" class="st0" width="804.92" height="529.99"/>
	<g class="st1">
		<path class="st2" d="M509.63,214.22h4.92l3.68,13.16c0.84,2.96,1.44,5.52,2.32,8.52h0.16c0.88-3,1.48-5.56,2.28-8.52l3.64-13.16
			h4.76l-8.12,26.16h-5.48L509.63,214.22z"/>
	</g>
	<g class="st1">
		<path class="st2" d="M532.19,230.58c0-6.4,4.44-10.32,9.04-10.32c5.32,0,8.12,3.84,8.12,9.32c0,0.88-0.08,1.76-0.2,2.24h-12.48
			c0.4,3.48,2.64,5.48,5.8,5.48c1.68,0,3.12-0.52,4.56-1.44l1.56,2.88c-1.88,1.24-4.24,2.12-6.72,2.12
			C536.43,240.86,532.19,237.06,532.19,230.58z M545.35,228.7c0-3.04-1.32-4.88-4-4.88c-2.32,0-4.32,1.72-4.72,4.88H545.35z"/>
		<path class="st2" d="M553.75,220.74h3.8l0.32,3.48h0.16c1.4-2.56,3.48-3.96,5.56-3.96c1,0,1.64,0.12,2.24,0.4l-0.8,4
			c-0.68-0.2-1.2-0.32-2.04-0.32c-1.56,0-3.44,1.08-4.64,4.04v12h-4.6V220.74z"/>
		<path class="st2" d="M568.67,220.74h3.8l0.32,2.68h0.16c1.64-1.76,3.56-3.16,6-3.16c2.88,0,4.52,1.32,5.44,3.52
			c1.88-2,3.84-3.52,6.32-3.52c4.16,0,6.08,2.84,6.08,7.8v12.32h-4.64v-11.72c0-3.24-0.96-4.44-3-4.44c-1.24,0-2.6,0.8-4.12,2.44
			v13.72h-4.6v-11.72c0-3.24-0.96-4.44-3.04-4.44c-1.2,0-2.6,0.8-4.12,2.44v13.72h-4.6V220.74z"/>
		<path class="st2" d="M601.11,230.58c0-6.56,4.44-10.32,9.32-10.32c4.92,0,9.36,3.76,9.36,10.32c0,6.52-4.44,10.28-9.36,10.28
			C605.55,240.86,601.11,237.1,601.11,230.58z M615.07,230.58c0-3.96-1.76-6.56-4.64-6.56s-4.6,2.6-4.6,6.56
			c0,3.92,1.72,6.52,4.6,6.52S615.07,234.5,615.07,230.58z"/>
		<path class="st2" d="M624.35,220.74h3.8l0.32,2.64h0.16c1.76-1.72,3.76-3.12,6.44-3.12c4.2,0,6.04,2.84,6.04,7.8v12.32h-4.6
			v-11.72c0-3.24-0.92-4.44-3.08-4.44c-1.72,0-2.84,0.84-4.48,2.44v13.72h-4.6V220.74z"/>
		<path class="st2" d="M647.43,233.74v-9.36h-2.8v-3.44l3.04-0.2l0.56-5.36h3.84v5.36h5v3.64h-5v9.36c0,2.32,0.88,3.44,2.76,3.44
			c0.68,0,1.48-0.2,2.04-0.44l0.8,3.4c-1.08,0.36-2.44,0.72-4,0.72C649.11,240.86,647.43,237.98,647.43,233.74z"/>
	</g>
	<g class="st1">
		<path class="st2" d="M550.85,253.48h4.2c4.8,0,7.63,2.59,7.63,7.78c0,5.21-2.83,7.92-7.49,7.92h-4.34V253.48z M554.86,266.92
			c3.17,0,4.97-1.8,4.97-5.67c0-3.84-1.8-5.52-4.97-5.52h-1.22v11.19H554.86z"/>
		<path class="st2" d="M565.3,253.77c0-0.94,0.72-1.58,1.7-1.58c0.98,0,1.71,0.65,1.71,1.58c0,0.91-0.72,1.56-1.71,1.56
			C566.02,255.33,565.3,254.68,565.3,253.77z M565.61,257.39h2.76v11.79h-2.76V257.39z"/>
	</g>
	<g class="st1">
		<path class="st2" d="M570.73,267.84l1.3-1.78c1.06,0.82,2.06,1.32,3.26,1.32c1.27,0,1.87-0.6,1.87-1.42c0-0.98-1.27-1.42-2.52-1.9
			c-1.56-0.58-3.31-1.46-3.31-3.43c0-2.06,1.66-3.53,4.3-3.53c1.63,0,2.95,0.67,3.91,1.42l-1.27,1.68c-0.82-0.6-1.66-1.01-2.59-1.01
			c-1.18,0-1.73,0.55-1.73,1.3c0,0.94,1.18,1.3,2.45,1.75c1.61,0.6,3.38,1.37,3.38,3.58c0,2.02-1.61,3.65-4.58,3.65
			C573.58,269.47,571.88,268.77,570.73,267.84z"/>
	</g>
	<g class="st1">
		<path class="st2" d="M582.18,265.2v-5.62h-1.68v-2.06l1.82-0.12l0.34-3.22h2.3v3.22h3v2.18h-3v5.62c0,1.39,0.53,2.06,1.66,2.06
			c0.41,0,0.89-0.12,1.22-0.26l0.48,2.04c-0.65,0.22-1.46,0.43-2.4,0.43C583.19,269.47,582.18,267.74,582.18,265.2z"/>
		<path class="st2" d="M590.44,257.39h2.28l0.19,2.09h0.1c0.84-1.54,2.09-2.38,3.34-2.38c0.6,0,0.98,0.07,1.34,0.24l-0.48,2.4
			c-0.41-0.12-0.72-0.19-1.22-0.19c-0.94,0-2.06,0.65-2.78,2.42v7.2h-2.76V257.39z"/>
		<path class="st2" d="M599.08,253.77c0-0.94,0.72-1.58,1.7-1.58s1.71,0.65,1.71,1.58c0,0.91-0.72,1.56-1.71,1.56
			S599.08,254.68,599.08,253.77z M599.39,257.39h2.76v11.79h-2.76V257.39z"/>
	</g>
	<g class="st1">
		<path class="st2" d="M604.9,263.3c0-3.94,2.76-6.19,5.9-6.19c1.51,0,2.59,0.58,3.46,1.32l-1.34,1.8
			c-0.62-0.55-1.22-0.86-1.97-0.86c-1.9,0-3.22,1.56-3.22,3.94c0,2.35,1.3,3.91,3.14,3.91c0.91,0,1.75-0.46,2.42-1.01l1.13,1.82
			c-1.1,0.96-2.5,1.44-3.84,1.44C607.38,269.47,604.9,267.21,604.9,263.3z"/>
	</g>
	<g class="st1">
		<path class="st2" d="M616.93,265.2v-5.62h-1.68v-2.06l1.82-0.12l0.34-3.22h2.3v3.22h3v2.18h-3v5.62c0,1.39,0.53,2.06,1.66,2.06
			c0.41,0,0.89-0.12,1.22-0.26l0.48,2.04c-0.65,0.22-1.46,0.43-2.4,0.43C617.94,269.47,616.93,267.74,616.93,265.2z"/>
	</g>
</g>
<g id="Layer_2_00000108282181804687098310000004866608588025156743_">
	<polygon class="st3" points="375.67,171.63 373.57,178.06 366.82,178.06 372.28,182.03 370.19,188.46 375.67,184.48 381.13,188.46 
		379.04,182.03 384.52,178.06 377.75,178.06 	"/>
	<rect x="343.45" y="189.8" class="st4" width="64.8" height="21.6"/>
	<polygon class="st5" points="318.18,270.42 330.82,263.85 331,267.7 342.47,269.82 344.57,275.06 339.22,287.08 339.01,293.21 
		356.87,300.26 348.31,320.01 346.09,319.16 343.34,339.14 352.93,344.58 348.04,368.24 338.12,362.83 334,364.73 331.83,379.25 
		339.02,379.56 339.1,388.56 359.18,395.37 380.07,392.59 396.94,393.13 396.85,387.86 402.67,376.79 400.51,372.63 403.36,368.05 
		399.73,365.8 403.27,344.56 402.24,335.88 406.33,321.45 412.55,317.38 411.76,314.14 416.44,303.31 416.65,295.96 421.31,289.62 
		431.24,281.98 411.37,273.92 392.98,267.97 371.91,259.05 344.53,249.1 343.31,242.24 339.56,247.26 332.21,263.1 330.52,254.57 
		319.05,260.36 314.98,258.76 	"/>
	<polygon class="st6" points="318.18,270.43 330.82,263.85 331,267.7 342.47,269.82 344.57,275.06 339.22,287.08 339.01,293.2 
		356.87,300.26 348.31,320.01 346.09,319.16 343.34,339.15 352.93,344.58 348.04,368.24 338.12,362.83 334,364.73 331.82,379.25 
		339.02,379.56 339.1,388.56 359.18,395.37 380.07,392.59 396.94,393.13 396.85,387.86 402.67,376.8 400.51,372.63 403.36,368.05 
		399.73,365.8 403.27,344.56 402.24,335.88 406.33,321.46 412.55,317.38 411.76,314.14 416.44,303.31 416.65,295.97 421.31,289.62 
		431.24,281.98 411.37,273.92 392.98,267.97 371.91,259.05 344.53,249.1 343.31,242.25 339.56,247.26 332.21,263.11 330.52,254.57 
		319.05,260.36 314.98,258.76 	"/>
	<polygon class="st5" points="393.22,496.96 388.24,487.58 385.04,489.4 380.58,480.27 379.08,464.62 383.31,458.48 382.23,450.24 
		390.96,446.76 395.38,439.05 391.89,430.27 396.73,423.35 397.08,416.68 394.18,407.92 396.94,393.13 380.07,392.59 359.18,395.37 
		334.82,387.12 332.71,398.93 331.71,417.83 312.48,416.61 310.8,455.38 323.8,456.06 322.47,494.4 	"/>
	<polygon class="st6" points="393.22,496.96 388.24,487.58 385.03,489.4 380.58,480.27 379.08,464.62 383.31,458.48 382.23,450.24 
		390.96,446.76 395.38,439.05 391.89,430.27 396.73,423.35 397.08,416.68 394.18,407.92 396.94,393.13 380.07,392.59 359.18,395.37 
		334.82,387.12 332.71,398.93 331.7,417.83 312.48,416.61 310.8,455.39 323.8,456.06 322.46,494.4 	"/>
	<polygon class="st5" points="319.18,200.63 321.87,200.15 324.49,219.31 327.48,218.93 359.44,231.61 366.68,215.61 367.95,216.11 
		373.61,200.84 378.05,200.29 395.55,207.44 399.04,188.14 406.74,191.68 414.55,177.34 414.35,171.94 421.31,163.36 429.43,148.3 
		428.41,145.44 396.85,128.34 388.42,145.23 372.48,133.97 363.84,151.01 347.12,141.68 341.26,139.77 336.14,149.91 341.33,152.62 
		338.09,159.19 333.67,157.85 325.3,175.41 327.61,176.56 	"/>
	<polygon class="st6" points="319.18,200.63 321.87,200.15 324.49,219.31 327.47,218.93 359.43,231.62 366.68,215.61 367.95,216.11 
		373.61,200.84 378.05,200.3 395.55,207.44 399.04,188.14 406.73,191.68 414.55,177.34 414.35,171.94 421.31,163.36 429.43,148.3 
		428.4,145.44 396.85,128.34 388.42,145.23 372.48,133.97 363.84,151 347.12,141.68 341.26,139.77 336.14,149.91 341.33,152.63 
		338.09,159.19 333.67,157.85 325.3,175.41 327.61,176.56 	"/>
	<polygon class="st5" points="273.83,376.36 331.83,379.25 334,364.73 338.12,362.83 348.04,368.24 352.93,344.58 343.34,339.14 
		346.09,319.16 348.31,320.01 356.87,300.26 339.01,293.21 339.22,287.08 344.57,275.06 342.47,269.82 331,267.7 330.82,263.85 
		309.45,274.91 307.53,266.22 279.19,268.18 281.08,282.83 257.61,285.67 251.25,299.1 247.84,310.29 247.74,320.73 252.31,324.02 
		256.24,312.34 266.63,312.09 267.43,321.62 273.23,324.69 275,332.77 	"/>
	<polygon class="st6" points="273.83,376.36 331.82,379.25 334,364.73 338.12,362.83 348.04,368.24 352.93,344.58 343.34,339.15 
		346.09,319.16 348.31,320.01 356.87,300.26 339.01,293.2 339.22,287.08 344.57,275.06 342.47,269.82 331,267.7 330.82,263.85 
		309.45,274.92 307.53,266.22 279.19,268.18 281.07,282.83 257.6,285.67 251.24,299.1 247.84,310.29 247.74,320.73 252.31,324.02 
		256.24,312.34 266.63,312.1 267.43,321.62 273.23,324.69 275,332.77 	"/>
	<polygon class="st5" points="375.27,70.27 399.4,82.66 389.65,101.43 406.77,110.2 405.78,111.92 422.54,120.72 440,86.76 
		448.65,90.93 444.81,77.03 460.11,87.75 471,72.93 465.84,69.23 480.78,50.2 472.71,43.68 477.34,22.25 421.36,23.14 378.84,22.27 
		381.65,39.76 382.11,59.34 	"/>
	<polygon class="st6" points="375.27,70.27 399.4,82.66 389.65,101.43 406.76,110.2 405.77,111.92 422.54,120.72 440,86.76 
		448.65,90.94 444.81,77.03 460.11,87.75 471,72.93 465.84,69.23 480.77,50.2 472.71,43.68 477.34,22.25 421.36,23.14 378.84,22.28 
		381.64,39.76 382.11,59.34 	"/>
	<polygon class="st5" points="431.24,281.98 434.48,273.89 433.81,264.27 444.29,250.28 444.44,235.45 450.05,225.67 457.2,218.26 
		454.14,209.28 455.97,201.8 436.44,194.19 416.24,196.07 399.04,188.14 395.55,207.44 378.05,200.29 373.61,200.84 367.95,216.11 
		366.68,215.61 359.44,231.61 350.68,228.13 343.31,242.24 344.53,249.1 371.91,259.05 392.98,267.97 411.37,273.92 	"/>
	<polygon class="st6" points="431.24,281.98 434.48,273.89 433.8,264.27 444.29,250.28 444.44,235.45 450.05,225.67 457.2,218.26 
		454.14,209.28 455.97,201.8 436.44,194.19 416.24,196.07 399.04,188.14 395.55,207.44 378.05,200.3 373.61,200.84 367.95,216.11 
		366.68,215.61 359.43,231.62 350.68,228.13 343.31,242.25 344.53,249.1 371.91,259.05 392.98,267.97 411.37,273.92 	"/>
	<polygon class="st5" points="323.4,101.6 325.41,102.06 337.64,118.62 340.61,119.54 337.39,126.17 341.47,128.32 336.22,138.19 
		347.12,141.68 363.84,151.01 372.48,133.97 388.42,145.23 396.85,128.34 406.77,110.2 389.65,101.43 399.4,82.66 375.27,70.27 
		370.19,66.04 349.9,69.29 344.54,78.99 342.68,89.14 334.35,85.15 326.62,98.78 	"/>
	<polygon class="st6" points="323.4,101.6 325.41,102.06 337.64,118.62 340.61,119.55 337.39,126.17 341.47,128.32 336.22,138.2 
		347.12,141.68 363.84,151 372.48,133.97 388.42,145.23 396.85,128.34 406.76,110.2 389.65,101.43 399.4,82.66 375.27,70.27 
		370.19,66.04 349.9,69.29 344.54,78.99 342.68,89.14 334.34,85.15 326.62,98.78 	"/>
	<polygon class="st5" points="257.8,116.24 267.95,113.12 273.88,107.14 277.04,98.08 277.69,82.66 273.58,74.95 275.74,65.45 
		280.69,61.41 283.32,44.21 276.2,36.45 283.24,21.15 260.56,21.74 261.24,41.12 258.6,44.27 255.1,58.34 261.77,65.51 
		257.45,77.93 256.57,95.19 253.56,104.95 	"/>
	<polygon class="st6" points="257.8,116.24 267.95,113.13 273.88,107.14 277.04,98.08 277.69,82.66 273.58,74.96 275.74,65.45 
		280.68,61.41 283.32,44.21 276.2,36.46 283.23,21.15 260.56,21.75 261.23,41.12 258.6,44.27 255.1,58.35 261.77,65.51 
		257.45,77.93 256.57,95.2 253.56,104.95 	"/>
	<polygon class="st5" points="323.4,101.6 326.62,98.78 334.35,85.15 342.68,89.14 344.54,78.99 349.9,69.29 370.19,66.04 
		375.27,70.27 382.11,59.34 381.65,39.76 378.84,22.27 373.52,21.23 335.17,20.49 283.24,21.15 276.2,36.45 283.32,44.21 
		280.69,61.41 275.74,65.45 273.58,74.95 277.69,82.66 306.32,97.79 	"/>
	<polygon class="st6" points="323.4,101.6 326.62,98.78 334.34,85.15 342.68,89.14 344.54,78.99 349.9,69.29 370.19,66.04 
		375.27,70.27 382.11,59.34 381.64,39.76 378.84,22.28 373.52,21.24 335.17,20.49 283.23,21.15 276.2,36.46 283.32,44.21 
		280.68,61.41 275.74,65.45 273.58,74.96 277.69,82.66 306.31,97.79 	"/>
	<polygon class="st5" points="486.32,161.58 489.86,154.34 497.27,149.24 505.64,148.19 512.34,142.56 517.05,133 525.41,128.88 
		526.02,121.98 522.45,118.39 531.32,111.78 528.74,109.86 527.16,97.28 523.8,95.61 517.22,76.35 525.99,68.09 525.83,62.55 
		537.75,42.68 534.76,39.55 531.35,25.52 536.59,21.19 477.34,22.25 472.71,43.68 480.78,50.2 465.84,69.23 486.38,83.99 
		475.44,98.67 485.57,106.22 475.68,119.71 483.49,130.42 471.99,141.98 	"/>
	<polygon class="st6" points="486.32,161.58 489.86,154.34 497.27,149.24 505.64,148.19 512.34,142.56 517.05,133 525.41,128.88 
		526.02,121.98 522.45,118.39 531.32,111.78 528.74,109.86 527.16,97.28 523.8,95.62 517.22,76.35 525.99,68.09 525.83,62.55 
		537.75,42.68 534.76,39.55 531.34,25.52 536.59,21.19 477.34,22.25 472.71,43.68 480.77,50.2 465.84,69.23 486.38,83.99 
		475.44,98.67 485.57,106.22 475.68,119.71 483.49,130.42 471.99,141.98 	"/>
	<polygon class="st5" points="261.24,119.78 266.02,129.56 267.97,142.61 261.98,156.44 265.03,179.12 271.43,179.96 301.62,174.93 
		309.54,174.68 308.95,170.82 315.93,172.96 319.18,200.63 327.61,176.56 325.3,175.41 333.67,157.85 338.09,159.19 341.33,152.62 
		336.14,149.91 341.26,139.77 336.22,138.19 341.47,128.32 337.39,126.17 340.61,119.54 337.64,118.62 325.41,102.06 306.32,97.79 
		277.69,82.66 277.04,98.08 273.88,107.14 267.95,113.12 257.8,116.24 	"/>
	<polygon class="st6" points="261.23,119.78 266.02,129.56 267.97,142.61 261.98,156.44 265.03,179.12 271.43,179.96 301.62,174.93 
		309.54,174.68 308.95,170.82 315.93,172.96 319.18,200.63 327.61,176.56 325.3,175.41 333.67,157.85 338.09,159.19 341.33,152.63 
		336.14,149.91 341.26,139.77 336.22,138.2 341.47,128.32 337.39,126.17 340.61,119.55 337.64,118.62 325.41,102.06 306.31,97.79 
		277.69,82.66 277.04,98.08 273.88,107.14 267.95,113.13 257.8,116.24 	"/>
	<polygon class="st5" points="406.74,191.68 416.24,196.07 436.44,194.19 455.4,201.55 452.1,194.78 454.8,184.48 451.82,177.68 
		457.02,167.32 464.82,163.74 475.95,161.47 481.11,163.93 486.32,161.58 471.99,141.98 483.49,130.42 475.68,119.71 485.57,106.22 
		475.44,98.67 486.38,83.99 471,72.93 460.11,87.75 444.81,77.03 448.65,90.93 440,86.76 422.54,120.72 405.78,111.92 
		396.85,128.34 428.41,145.44 429.43,148.3 421.31,163.36 414.35,171.94 414.55,177.34 	"/>
	<polygon class="st6" points="406.73,191.68 416.24,196.07 436.44,194.19 455.4,201.55 452.1,194.78 454.8,184.48 451.81,177.68 
		457.02,167.33 464.82,163.74 475.94,161.48 481.1,163.93 486.32,161.58 471.99,141.98 483.49,130.42 475.68,119.71 485.57,106.22 
		475.44,98.67 486.38,83.99 471,72.93 460.11,87.75 444.81,77.03 448.65,90.94 440,86.76 422.54,120.72 405.77,111.92 
		396.85,128.34 428.4,145.44 429.43,148.3 421.31,163.36 414.35,171.94 414.55,177.34 	"/>
	<polygon class="st5" points="272.27,493.06 322.47,494.4 323.8,456.06 310.8,455.38 312.48,416.61 331.71,417.83 332.71,398.93 
		334.82,387.12 339.1,388.56 339.02,379.56 273.83,376.36 270.22,475.18 268.39,481.62 	"/>
	<polygon class="st6" points="272.27,493.06 322.46,494.4 323.8,456.06 310.8,455.39 312.48,416.61 331.7,417.83 332.71,398.93 
		334.82,387.12 339.1,388.56 339.02,379.56 273.83,376.36 270.22,475.18 268.39,481.62 	"/>
	<polygon class="st5" points="257.61,285.67 281.08,282.83 279.19,268.18 307.53,266.22 309.45,274.91 318.18,270.42 314.98,258.76 
		319.05,260.36 330.52,254.57 332.21,263.1 339.56,247.26 343.31,242.24 350.68,228.13 327.48,218.93 324.49,219.31 321.87,200.15 
		319.18,200.63 315.93,172.96 308.95,170.82 309.54,174.68 301.62,174.93 271.43,179.96 265.03,179.12 257.51,190.93 253.44,194.4 
		246.34,224.9 250.47,228.78 250.69,247.95 255.88,260.48 253.63,269.45 255.13,274.16 259.33,282.2 	"/>
	<polygon class="st6" points="257.6,285.67 281.07,282.83 279.19,268.18 307.53,266.22 309.45,274.92 318.18,270.43 314.98,258.76 
		319.05,260.36 330.52,254.57 332.21,263.11 339.56,247.26 343.31,242.25 350.68,228.13 327.47,218.93 324.49,219.31 321.87,200.15 
		319.18,200.63 315.93,172.96 308.95,170.82 309.54,174.68 301.62,174.93 271.43,179.96 265.03,179.12 257.51,190.93 253.43,194.4 
		246.34,224.9 250.47,228.78 250.69,247.95 255.88,260.48 253.63,269.45 255.13,274.16 259.33,282.21 	"/>
</g>
<g id="Layer_3">
	<circle class="st7" cx="375.8" cy="181.55" r="29.28"/>
	<circle class="st8" cx="375.8" cy="181.55" r="9.02"/>
</g>
</svg>
