<svg xmlns="http://www.w3.org/2000/svg" viewBox="0 0 781.32 496.46"><defs><style>.cls-1{fill:#e6e6e6;}.cls-2,.cls-3,.cls-4{opacity:0.8;}.cls-3,.cls-4{fill:#007dbc;}.cls-4{stroke:#0675af;}.cls-4,.cls-5,.cls-6{stroke-miterlimit:10;}.cls-5{fill:none;stroke-width:3px;}.cls-5,.cls-6{stroke:#fff;}.cls-6{fill:#fff;}</style></defs><g id="Layer_1" data-name="Layer 1"><rect class="cls-1" x="-13.93" y="-31" width="813.74" height="570"/></g><g id="Layer_3" data-name="Layer 3"><g class="cls-2"><path class="cls-3" d="M464.29,100.91h8.84c5.44,0,9.6,1.92,9.6,7.76a7.32,7.32,0,0,1-5.2,7.47l6.24,10.92h-5.2l-5.64-10.24h-4v10.24h-4.64Zm8.36,12.23c3.56,0,5.52-1.52,5.52-4.47s-2-4-5.52-4h-3.72v8.51Z"/><path class="cls-3" d="M487.57,98.83h4.6v7.28L492,109.9a9,9,0,0,1,6.28-3c4.2,0,6,2.83,6,7.79v12.32h-4.6V115.34c0-3.24-.92-4.44-3.08-4.44-1.72,0-2.84.84-4.48,2.44v13.72h-4.6Z"/><path class="cls-3" d="M508.61,117.26c0-6.56,4.44-10.31,9.32-10.31s9.36,3.75,9.36,10.31-4.44,10.28-9.36,10.28S508.61,123.78,508.61,117.26Zm14,0c0-4-1.76-6.56-4.64-6.56s-4.6,2.6-4.6,6.56,1.72,6.52,4.6,6.52S522.57,121.18,522.57,117.26Z"/><path class="cls-3" d="M530.65,117.26c0-6.4,4-10.31,8.32-10.31a7.25,7.25,0,0,1,5.16,2.16L544,106V98.83h4.6v28.23h-3.8l-.32-2.12h-.16a8.18,8.18,0,0,1-5.56,2.6C533.81,127.54,530.65,123.74,530.65,117.26ZM544,121.54v-9.16a5.86,5.86,0,0,0-4-1.64c-2.52,0-4.56,2.36-4.56,6.48s1.6,6.52,4.44,6.52A5.3,5.3,0,0,0,544,121.54Z"/><path class="cls-3" d="M553.13,117.26c0-6.4,4.44-10.31,9-10.31,5.32,0,8.12,3.83,8.12,9.31a10.72,10.72,0,0,1-.2,2.24H557.61c.4,3.48,2.64,5.48,5.8,5.48a8.2,8.2,0,0,0,4.56-1.44l1.56,2.88a12.39,12.39,0,0,1-6.72,2.12C557.37,127.54,553.13,123.74,553.13,117.26Zm13.16-1.88c0-3-1.32-4.88-4-4.88-2.32,0-4.32,1.72-4.72,4.88Z"/><path class="cls-3" d="M583.09,100.91h4.64v26.15h-4.64Z"/><path class="cls-3" d="M592,124.82l2.16-3a8.74,8.74,0,0,0,5.44,2.2c2.12,0,3.12-1,3.12-2.36,0-1.64-2.12-2.36-4.2-3.16-2.6-1-5.52-2.44-5.52-5.72,0-3.44,2.76-5.87,7.16-5.87a10.6,10.6,0,0,1,6.52,2.36l-2.12,2.79a7.31,7.31,0,0,0-4.32-1.68c-2,0-2.88.92-2.88,2.16,0,1.56,2,2.16,4.08,2.92,2.68,1,5.64,2.28,5.64,6,0,3.36-2.68,6.08-7.64,6.08A12.44,12.44,0,0,1,592,124.82Z"/><path class="cls-3" d="M611.21,122V98.83h4.6v23.43c0,1.12.52,1.52,1,1.52a2.76,2.76,0,0,0,.72-.08l.6,3.44a6.28,6.28,0,0,1-2.44.4C612.41,127.54,611.21,125.42,611.21,122Z"/><path class="cls-3" d="M621,121.78c0-4.2,3.48-6.4,11.56-7.28-.08-2.08-.92-3.84-3.6-3.84a11.19,11.19,0,0,0-5.52,1.92l-1.68-3.08a15.45,15.45,0,0,1,8.08-2.55c4.88,0,7.32,3,7.32,8.47v11.64h-3.8l-.32-2.16h-.16a9.56,9.56,0,0,1-6.08,2.64A5.49,5.49,0,0,1,621,121.78Zm11.56,0v-4.4c-5.36.68-7.12,2.08-7.12,4,0,1.76,1.2,2.52,2.84,2.52S631.09,123.14,632.57,121.78Z"/><path class="cls-3" d="M642.69,107.43h3.8l.32,2.63H647c1.76-1.71,3.76-3.11,6.44-3.11,4.2,0,6,2.83,6,7.79v12.32h-4.6V115.34c0-3.24-.92-4.44-3.08-4.44-1.72,0-2.84.84-4.48,2.44v13.72h-4.6Z"/><path class="cls-3" d="M663.89,117.26c0-6.4,4-10.31,8.32-10.31a7.25,7.25,0,0,1,5.16,2.16l-.16-3.16V98.83h4.6v28.23H678l-.32-2.12h-.16a8.18,8.18,0,0,1-5.56,2.6C667.05,127.54,663.89,123.74,663.89,117.26Zm13.32,4.28v-9.16a5.86,5.86,0,0,0-4-1.64c-2.52,0-4.56,2.36-4.56,6.48s1.6,6.52,4.44,6.52A5.3,5.3,0,0,0,677.21,121.54Z"/><path class="cls-3" d="M538.62,139.77h4.08c4.65,0,7.4,2.51,7.4,7.54s-2.75,7.69-7.27,7.69h-4.21Zm3.89,13c3.07,0,4.82-1.75,4.82-5.5s-1.75-5.35-4.82-5.35h-1.19v10.85Z"/><path class="cls-3" d="M552.63,140.05a1.66,1.66,0,1,1,1.66,1.51A1.54,1.54,0,0,1,552.63,140.05Zm.31,3.51h2.67V155h-2.67Z"/><path class="cls-3" d="M557.89,153.69l1.26-1.72a5.1,5.1,0,0,0,3.17,1.28c1.23,0,1.81-.58,1.81-1.37,0-1-1.23-1.38-2.44-1.84-1.51-.56-3.21-1.42-3.21-3.33s1.6-3.42,4.16-3.42a6.18,6.18,0,0,1,3.8,1.37l-1.23,1.63a4.3,4.3,0,0,0-2.52-1c-1.14,0-1.68.54-1.68,1.26,0,.91,1.15,1.26,2.38,1.7,1.56.58,3.28,1.33,3.28,3.47,0,1.95-1.56,3.54-4.44,3.54A7.27,7.27,0,0,1,557.89,153.69Z"/><path class="cls-3" d="M569,151.13v-5.45h-1.63v-2l1.77-.12.33-3.12h2.23v3.12h2.91v2.12H571.7v5.45c0,1.35.51,2,1.61,2a3.23,3.23,0,0,0,1.18-.26l.47,2a7.3,7.3,0,0,1-2.33.42C570,155.28,569,153.6,569,151.13Z"/><path class="cls-3" d="M577,143.56h2.21l.19,2h.09a3.86,3.86,0,0,1,3.24-2.3,2.94,2.94,0,0,1,1.3.23l-.47,2.33a3.6,3.6,0,0,0-1.18-.19c-.91,0-2,.63-2.7,2.35v7H577Z"/><path class="cls-3" d="M585.39,140.05a1.66,1.66,0,1,1,1.65,1.51A1.54,1.54,0,0,1,585.39,140.05Zm.3,3.51h2.68V155h-2.68Z"/><path class="cls-3" d="M591,149.29a5.63,5.63,0,0,1,5.73-6,4.86,4.86,0,0,1,3.35,1.28l-1.3,1.74a2.84,2.84,0,0,0-1.91-.84c-1.84,0-3.12,1.52-3.12,3.82s1.26,3.8,3.05,3.8a3.77,3.77,0,0,0,2.35-1l1.1,1.77a5.72,5.72,0,0,1-3.73,1.4C593.44,155.28,591,153.09,591,149.29Z"/><path class="cls-3" d="M602.71,151.13v-5.45h-1.63v-2l1.77-.12.32-3.12h2.24v3.12h2.91v2.12h-2.91v5.45c0,1.35.51,2,1.6,2a3.29,3.29,0,0,0,1.19-.26l.47,2a7.3,7.3,0,0,1-2.33.42C603.68,155.28,602.71,153.6,602.71,151.13Z"/></g><path class="cls-4" d="M322.85,271l3.2-1.66,8.76-2.68,2.22-2.72-.65-4.16-3.89-.16-1-2.23,5.15-4.28-1.5-3.36-3.67-1.54,1.19-1.44,3.27.05-.21-3.1-1.47-4.52.13-3.68-.52-4.74-4-.42-3.2,1.91s-2.17.62-2.46.72-3.32,1.41-3.32,1.41l-1,2.93-1.58,2.29-.43,3-.81,1-.77-.33L315,240.5l-1.53-.81s-5.12,3-6.57,3.63c-.34,1.18-.3,3.48-3.42,5.6-.38,1.53-.59,2.6-.59,2.6l1.69,3.4-.43,3.37-59.21,1.56-7.66.39-55-.45.12,16.21-3.68,81.36-1.12,1.54-6.84-2.33-9.29,5.74-1,2.25s0,5.87,0,6.23a37.64,37.64,0,0,0,2.13,3.41,31.78,31.78,0,0,1,1,3.1l-2,10.89s1,3.94,1,4,1.65,3.69,2.21,5.17-1.61,4.31-1.61,4.31l-6.47,4.8-1,4.73-.7.24-2.27,2.95-8.82.44-1.45.95-.49,2.64,1.81,1.28,3.32-1.65,5.06-1,.62,2.95,1.41-.44,5.5-4.25,7-2.73,14.87-3,5.22-1.69,3.06.35,1.32-.79,4.53.77,5.81-1.3,7.26-.46,3.5-.91,5.24-4.42,17.19-6.34,13-5.81,5-.94,4.91,0,1.74-1,6.45-1.32,3.89-1.76,5.74-1,5,.46,5.24-1.7,2.64-.11.26-2.86-.53-2,.53-1.57,1.37-1.43.06-1.41,3.77-11.55.06-2.73,3.59-.48-.07,5.85,1.79,2.73-.58,2.6.58,2-.29,1.74-6.65,6.16L291.6,380l.29,1.76,6.67,3.43,2.57,3.68,2.75.7.71-1.65-.95-4.16,1.88-5.43,9.7-14.33,1-3.67-.94-5.24v-3.77l.38-1.55.92-1.25,4.29-2.41,2.66-.7,1-4.24,1.62-2.41-1.64-5,.53-3,1-1,3,.05.41-5-1.38-3.4,0-8.8,2.66-5.64-.41-8.3L327.7,288.5l.91-1-2,0-.4-2.62.66-1.32L326,282l-3.12-2.11-.71-3.66-2.56-1-1-3.25,1.24-2.36Z"/><path class="cls-4" d="M356.54,179.29l.79,2.44,3.66,4.91.83,4.92.84,1.46,5.94.61,4.36,2.65,1.29,2.38.62,3.85,1.06.61.94-1.26,1-4.85,2-2.16-1-4.46-3.12-3.73L371.08,183l-1.95-4,1-7,2.51-.05,1.76,2.41-1.61,3.22,1,3L375.7,183s2.77,1.21,3.09,1.26a3.15,3.15,0,0,0,1-.23l.57-4,3.24-3.06,1.73,4.34.4,2.73-.68,1.88-.31,7.62-5.19,12,.27,8.73-3.9,4.44-1,2.25.16,9.72,1.27,1.55h2.23l4.09-9.84,2.94.58,1.55,3.09,2.4,2.52L390,233l1.82,2.25,2.34-.73.63-3.63,1.07-1.59-.13-2,1.44-2,4.9-3.24.44-3.73-2.14-5.64-3.65-5.32-2-4.12.26-3.7,1.42-.65,2,5,2.22,3.52,1,.36,3.39-1.39,1.55-6.14v-2.16l-13.38-19.35-22.65-13.2-13.35,12Z"/><path class="cls-4" d="M367.62,163.81l-2.2-5.73a13,13,0,0,0-2.51-2.9c-1.81-1.63-1.28-7.57-1.28-7.57s-1.1-3.65-1.41-4.45.22-3.56.22-3.74,2.78-4.66,2.78-4.66l-.8-4.45,2.07-8.71a93.15,93.15,0,0,0-1.76-10.39c-1.41-6.47,0-8.67.18-9.07s-.22-1.89-.22-2.51-17.48,3.48-17.48,3.48l1.15-68.93-20,.18L180.6,38.94l1.14,154.21,133.06-3.6,4.6-4.66.94-1.5-.5-3.12-.06-1s1.38-1.21,1.68-1.51a13.71,13.71,0,0,1,1-2.7c0-.12.84-1.14.84-1.14l1.12-.53,1.62.2,2.34-.2,1.61-2.18,1,.43,1.3-.36,2.21-1.31,3-.43.61-1.45.77-.38s3.5,4,3.95,4.23l.77,1.19.3-1.31-1.66-9.77.31-2.76,1.68-1.63.2-1.44-1.91-3-1.7-.69-1.56-1.52-3.05-8.33.71-1,2.51,1.29,1.42-.3,1.95-6.9,2.22-4.6.68-6.06,2.31-4.24,2.38,2.66-.41,7.09-6.49,13.74-.73,3.3,4.44,5,1.59,4.43,2.31,8.07-1.83,4.83,1.28,1.85,1.92.68,1.12,3.22.05,3.91,2.84-.55,0,.06.69-1.8,13.35-12Z"/><path class="cls-4" d="M352,210.31l-.56-10.26,6.89-2.45-.27-1.2h-6.6l-2.36-.94-3.27-3.67.88-3.26-.55-4.38,2.21-2-.41-.93-2.24-.41-.75-1.91,0-2.08-1.59-2.51.26-1.12-.77-1.19c-.45-.28-3.95-4.23-3.95-4.23l-.77.38-.61,1.45-3,.43-2.21,1.31-1.3.36-1-.43-1.61,2.18-2.34.2-1.62-.2-1.12.53s-.79,1-.84,1.14a13.71,13.71,0,0,0-1,2.7c-.3.3-1.68,1.51-1.68,1.51l.06,1,.5,3.12-.94,1.5-4.6,4.66-133.06,3.6.5,66.64,55,.45,7.66-.39,59.21-1.56.43-3.37-1.69-3.4s.21-1.07.59-2.6c3.12-2.12,3.08-4.42,3.42-5.6,1.45-.65,6.57-3.63,6.57-3.63l1.53.81,1.35,2.69.77.33.81-1,.43-3,1.58-2.29,1-2.93s3-1.31,3.32-1.41,2.46-.72,2.46-.72l3.2-1.91,4,.42-.14-1.24.51-3.28-5.59-2.51-1-1.7-2.65.68-2.18,1.6-1.75.23-1.49-1.24L319,211.8l4.93,1.67,11.52.85-.28-2.72,1-.86L337,214l2.66,1.24,1.25-1.29,1.59,1.57-1.31,4.11,1.39,2,3,2.62,2-.11,1.24-4-.5-2.72.47-2.46Z"/><path class="cls-4" d="M353.91,324.07l-2.66-6,.28-2.69,3-4.6v-1.31l-2.38-1.7-.51-1.17.83-1.35-.3-12.66,2.21-5.38-.61-8.54-2-3.55-2.41-.38L347,276l-3,6.83-1.26,9-2.47,9.31L342.9,309l2.31,3.48L344,316.84l1.52,2.21s-2.68.56-2.76.5-4.67-1.29-4.67-1.29l-1,2.24,1.53,9.71-.28,3.58-1.9,5.73,1.08,2.21,2.5-2,1.29-2.05.13-3.93h2l2-7.31,2.51.43,4.6-.4Z"/><polygon class="cls-4" points="401.64 251.2 408.18 249.18 409.11 248.36 409.8 245.54 409.85 241.11 408.89 238.13 408.79 232.83 407.59 232.28 404.15 236.74 396.6 239.82 393.89 242.28 391.96 246.51 389.56 247.19 387.73 249.15 386.69 258.77 383.54 264.02 380.16 275.69 376.34 281.12 374.2 285.26 372.98 290.23 372.73 300.5 371.7 302.89 367.31 301.54 366.56 304.59 368.3 306.16 367.74 308.55 368.27 310.96 368.01 314.13 368.01 319.05 369.77 326.02 366.16 327.95 364.23 329.62 362.82 330.01 361.9 329.4 361.22 325.44 358.14 329.67 352.23 334.47 351.73 336.93 353.29 338.71 353.71 341.35 355.25 342.85 359.03 340.1 361.34 341.38 363.5 340.38 368.19 336.68 374.11 340.61 375.75 334.86 378.17 332.16 378.16 327.01 379.07 322.75 383.94 321.87 385.34 324.04 388.01 324.6 389.25 322.85 389.32 321.05 391.68 320.42 395.93 322.22 398.03 324.3 398.58 325.62 397.58 329.22 399.24 329.48 401.83 323.29 398.89 318.51 401.12 311.05 403.76 307.38 406.02 297.18 403.31 294.77 403.38 286.92 402.65 282.86 403.63 273.18 399.65 266.25 401.48 256.98 401.64 251.2"/><polygon class="cls-4" points="383.94 235.73 383.21 236.87 382.98 239.31 384.89 240.62 386.61 240.85 388.33 238.19 388.31 235.65 386.16 234.68 383.94 235.73"/><polygon class="cls-4" points="363.52 259.25 363.98 269.44 366.9 270.81 370.17 268.89 374.76 263.15 378.44 252.25 377.78 248.46 376.52 246.66 373.72 244.25 366.03 239.59 364.79 237.02 365.33 230.43 363.85 226.34 362.79 225.09 360.4 225.37 359.47 227.76 361.09 234.1 357.23 237.73 356.83 241.25 360.35 245.27 364.23 245.31 365.83 246.38 366.26 250.06 365.19 255.32 363.52 259.25"/><polygon class="cls-4" points="444.54 263.18 441.04 258.38 440.47 254.61 441.13 248.74 443.92 243.95 443.21 238.31 444.54 232.03 444.13 228.29 426.92 223.65 426.96 222.16 419.24 219.92 418.02 218.22 416.96 222.63 415.25 225.48 414.47 231.42 412.49 239.94 412.23 247.78 412.75 256.15 415.61 261 415.59 262.65 414.16 264.68 411.94 269.65 413.2 271.56 413.96 280.4 413.25 282.08 410.34 281.11 408.94 281.5 410.34 284.16 410.13 289.38 414.06 291.69 415.05 293.34 413.37 298.67 414.62 301.7 414.02 303.87 414.49 305.35 417.01 308.24 414.32 312.65 414.7 315.27 419.65 322.19 420.81 327.57 420.15 332.11 417.57 339.04 419.32 339.75 422.72 337.34 427.13 336.45 428.85 335.23 428.83 333.15 431.64 329.65 432.68 329.7 434 328.06 436.74 327.42 440.63 324.02 441.39 319.07 445.25 317.17 449.18 316.69 444.54 263.18"/><polygon class="cls-4" points="267.42 427.68 275.08 432.65 275.45 441.43 273.74 449 273.98 453.98 280.49 465.95 279.24 467.69 275.34 469.67 263.35 471.07 257.67 473.49 254.52 474.26 252.32 471.07 252.81 469.03 252.92 462.27 254.06 454.88 257.21 452.43 260.27 448.52 261.9 451.2 265.33 453.93 268.54 451.99 267.55 448.78 264.23 443.87 266.54 440.42 266.89 437.27 265.7 427.92 267.42 427.68"/><path class="cls-4" d="M322.91,271.07l3.2-1.67h0l8.76-2.67h0l0,0,2.21-2.73,0,0v-.06l-.65-4.16v-.11h-.11l-3.9-.17.12.08-1-2.23,0,.16,5.15-4.28.08-.06,0-.09-1.5-3.37,0,0-.05,0L331.52,248l.05.2,1.18-1.43-.1.05,3.27,0h.14v-.15l-.21-3.1h0v0l-1.47-4.52v0l.13-3.68h0l-.52-4.73v-.11h-.11l-3.95-.42h0l0,0-3.19,1.9h0c-.09,0-2.19.63-2.47.73s-3.21,1.36-3.33,1.41l-.06,0,0,.06-1,2.93,0,0-1.58,2.29v.06l-.43,3,0-.07-.81,1,.15,0-.77-.33.07.06-1.36-2.69,0,0,0,0-1.53-.82-.07,0-.06,0c-.05,0-5.13,3-6.56,3.63l-.05,0,0,.06c-.06.2-.1.42-.15.66a6.88,6.88,0,0,1-3.22,4.87l0,0v0c-.37,1.51-.58,2.59-.59,2.6v0l0,0,1.69,3.4,0-.08-.42,3.38.12-.12-59.21,1.55-7.66.4-55-.46h-.13v.14l.12,16.21-3.68,81.36,0-.08-1.13,1.54.15,0-6.84-2.34-.06,0,0,0-9.29,5.74,0,0,0,0-1,2.24v.06c0,.24,0,5.89,0,6.24a16.37,16.37,0,0,0,1.71,2.8l.44.67a29.89,29.89,0,0,1,1,3.07v-.06l-2,10.89v.06c1,4,1,4,1.09,4.06l0,0c.12.17,1.64,3.69,2.18,5.13s-1.57,4.16-1.59,4.19l0,0-6.47,4.79,0,0v.05l-1,4.73.08-.09-.7.24h0l0,0-2.27,2.95.1-.05-8.83.44h0l0,0-1.46,1,0,0v.06l-.49,2.64v.08l.07,0,1.8,1.27.06,0,.08,0,3.32-1.65,0,0,5.07-1-.16-.11.62,3,0,.15.14-.05,1.4-.44h0l5.5-4.25,0,0,7-2.73h0l14.88-3h0l5.22-1.7h-.06l3.06.35h.05l0,0,1.32-.79-.09,0,4.53.77h.05l5.81-1.3h0l7.26-.46h0l3.5-.91h0l0,0,5.24-4.43,0,0,17.18-6.34,13-5.82h0l5-.94h0l4.91,0h.06l1.74-1,0,0,6.45-1.32h0l3.89-1.76h0l5.75-1h0l5,.46h.05l5.24-1.69h0l2.64-.12h.12v-.11l.26-2.87v0l-.53-2.05v.08l.53-1.56,0,0L290,373.8l0,0v0l.07-1.41v0l3.76-11.56v0l.06-2.73-.11.13,3.59-.48-.15-.13-.07,5.85v0l0,0,1.79,2.73,0-.1-.57,2.6v.06l.57,2v-.05l-.29,1.73,0-.07-6.65,6.16,0,0v0l-.55,1.43v.07l.29,1.76v.07l.06,0,6.67,3.43-.05,0L301,389l0,0,.05,0,2.75.7.11,0,.05-.11.7-1.65,0,0v0l-1-4.16v.08l1.87-5.44v0l9.7-14.33h0v0l1-3.66v-.06l-.94-5.25v-3.71l.38-1.55,0,.05.93-1.25,0,0,4.29-2.41h0l2.65-.69.08,0,0-.08,1-4.24,0,0,1.62-2.41,0-.06,0-.06-1.63-5v.06l.53-3,0,.07,1-1-.09,0,3,0h.12v-.12l.41-5v-.06l-1.39-3.4v0l0-8.8,0,.06,2.66-5.65V307l-.41-8.3h0v0l-2.61-10.21,0,.12.91-1,.18-.22h-.28l-2-.05.13.11-.4-2.62v.08l.66-1.33,0-.06,0-.06-.88-1.5v0l0,0L323,279.74l.06.09-.71-3.67,0-.07-.06,0-2.56-1,.08.08-1-3.25v.1l1.23-2.36-.17.06,3,1.38.06,0Zm-3.15-1.56-1.24,2.36,0,.05V272l1,3.25,0,.06.06,0,2.56,1-.08-.1.71,3.67v.05l0,0,3.12,2.11,0,0,.88,1.5v-.12l-.66,1.32v.08l.4,2.62v.11h.11l2,0-.1-.22-.91,1,0,.06v.06l2.61,10.22v0l.41,8.31V307l-2.66,5.65v.05l0,8.8v.05l1.39,3.4v-.06l-.41,5,.13-.12-3-.05h-.05l0,0-1,1,0,0v0l-.53,3v.06l1.63,5,0-.11-1.62,2.41v0l-1,4.24.1-.09-2.66.69h0l-4.29,2.41,0,0v0l-.93,1.25v0l-.38,1.55v0h0v3.77h0l.94,5.25v-.06l-1,3.66v0l-9.7,14.32v0h0l-1.87,5.44,0,0v0l.95,4.16v-.08l-.71,1.65.16-.08-2.75-.7.07.05-2.57-3.67,0,0h0L292,381.67l.07.1-.29-1.76v.07l.55-1.43,0,0,6.65-6.16,0,0v0l.29-1.74v-.06l-.57-2v.07l.57-2.6,0-.06,0,0-1.79-2.73,0,.07.06-5.85v-.15l-.15,0-3.59.48-.11,0V358l-.07,2.73v0l-3.76,11.55v0l-.06,1.41,0-.09-1.36,1.43,0,0v0l-.53,1.56v.08l.52,2.05v-.05l-.26,2.86.12-.12-2.64.11h0l-5.24,1.69h.05l-5-.47h0l-5.74,1h0l-3.9,1.76h0l-6.45,1.32h0l0,0-1.74,1,.07,0-4.91,0h0l-5,.94h0l-13,5.81L217.41,401h0l-5.24,4.42.05,0-3.5.9h0l-7.27.46h0l-5.81,1.3h0l-4.53-.77h0l0,0-1.32.79.08,0-3.06-.35h-.05l-5.22,1.7h0l-14.88,3h0l-7,2.73h0l-5.51,4.25.05,0-1.41.44.17.1-.62-2.95,0-.13-.12,0-5.07,1h0l-3.32,1.65h.13L142,418.3l.05.13.49-2.64-.06.09,1.45-.95-.06,0,8.82-.44h.06l0-.05,2.26-2.95-.06.05.71-.24.07,0v-.07l1-4.73-.05.08,6.47-4.8h0v0c.09-.12,2.2-2.91,1.63-4.44-.39-1-2.11-5.14-2.25-5.23l0,0c-.08-.16-.65-2.45-1-3.95v.06l2-10.9v-.06c0-.11-.76-2.72-1-3.13l-.45-.68a25.75,25.75,0,0,1-1.67-2.68c0-.27,0-4.18,0-6.21v.05l1-2.24-.05.06,9.29-5.75h-.12l6.85,2.34.09,0,.06-.08,1.12-1.54,0,0v0L182.49,276l-.12-16.23-.13.14,55,.45,7.66-.39,59.21-1.55h.11l0-.11.43-3.38v0l0,0-1.68-3.4v.08s.21-1.08.58-2.59l0,.08a7.11,7.11,0,0,0,3.33-5c.05-.25.09-.46.14-.64l-.07.08c1.44-.65,6.37-3.52,6.58-3.64h-.13l1.53.82-.05-.06,1.35,2.69,0,0,.05,0,.77.33.09,0,.06-.08.81-1,0,0v0l.43-3,0,0,1.58-2.29h0v0l1-2.93-.07.08s3-1.31,3.31-1.4,2.44-.72,2.46-.73h0l3.19-1.9h-.08l3.95.43-.11-.12.52,4.73v0l-.13,3.68v.05l1.47,4.52v0l.22,3.1.13-.14-3.27,0h-.06l0,0-1.19,1.44-.11.13.16.07,3.67,1.54-.07-.07,1.5,3.37,0-.16-5.15,4.28-.08.06,0,.09,1,2.23,0,.07h.08l3.9.16-.13-.11.65,4.16,0-.1-2.21,2.72.07,0L326,269.16h0l-3.2,1.67h.11l-3-1.39-.11-.06Z"/><path class="cls-4" d="M356.41,179.33l.79,2.44v0h0l3.67,4.92,0-.05.83,4.91v0l.85,1.45,0,.06h.07l5.94.61-.06,0,4.36,2.66-.05-.05,1.29,2.37v0l.62,3.85v.06l.06,0,1.05.61.11.06.07-.09.94-1.26v-.05l1-4.85,0,.06,2-2.16.05-.05,0-.07-1-4.46v0l0,0-3.12-3.73h0l-4.67-3.63,0,0-1.95-4v.08l1-7-.13.11,2.51-.05-.11-.06,1.77,2.41v-.13l-1.62,3.22,0,0,0,.05,1,3v0h0l1.87,2.36,0,0h0c.28.13,2.79,1.22,3.11,1.27a3.12,3.12,0,0,0,1.11-.24l.07,0,0-.07.57-4,0,.08,3.24-3-.21-.05,1.73,4.34v0l.4,2.72V184l-.67,1.88v0l-.31,7.63v-.05l-5.19,12v.06l.27,8.73,0-.09-3.9,4.44h0v0l-1,2.24,0,0v0l.17,9.72v.05l0,0,1.27,1.56,0,0h2.38l0-.08,4.1-9.83-.15.07,2.94.58-.1-.07,1.56,3.09v0h0l2.39,2.53,0-.08.44,4.36v0l0,0,1.82,2.25.05.07.09,0,2.34-.72.08,0v-.08l.63-3.63,0,0,1.07-1.58,0,0v0l-.13-2,0,.09,1.43-2,0,0,4.9-3.24.05,0v-.06l.45-3.73v-.06l-2.15-5.65h0v0l-3.65-5.31v0l-2-4.13v.07l.26-3.7-.07.11,1.41-.64-.17-.08,2,5h0l2.21,3.52,0,0h0l1,.37h.05l0,0,3.39-1.38.06,0v-.06l1.56-6.14v0h0l0-2.17v0l0,0-13.38-19.36v0l0,0-22.66-13.19-.08,0-.07.06-13.35,12,0,0v0l-.7,1.79v.09Zm.91-1.74,13.35-12-.16,0,22.66,13.19,0,0,13.38,19.36,0-.08v2.13l-1.55,6.14.08-.09-3.39,1.39h.1l-1-.37.07.06-2.21-3.52v0l-2-5-.05-.13-.12.05-1.42.65-.08,0v.08l-.27,3.7v0l0,0,2,4.13h0l3.65,5.31v0l2.14,5.65v-.06l-.44,3.73.06-.1-4.91,3.24h0v0l-1.44,2,0,0v0l.13,2,0-.08-1.07,1.59,0,0v0l-.63,3.63.09-.11-2.34.73.14,0-1.81-2.24,0,.07-.44-4.36v0l0,0L387.25,226l0,0L385.72,223l0-.05-.06,0-2.94-.57-.11,0,0,.1-4.09,9.84.12-.08h-2.23l.1,0-1.27-1.55,0,.08L375,221v.05l1.05-2.24,0,0,3.9-4.44,0,0v-.05l-.26-8.73v.06l5.18-12v-.05l.31-7.63v0l.68-1.88v-.06l-.4-2.73h0v0L383.76,177l-.07-.18-.14.14-3.24,3,0,0v.05l-.58,4,.09-.11a2.93,2.93,0,0,1-1,.23c-.22,0-1.95-.77-3.06-1.25l.05,0-1.86-2.36,0,0-1-3v.1l1.61-3.21,0-.08-.05-.06L372.78,172l0-.06h-.06l-2.51,0h-.11l0,.11-1,7v0l0,0,1.95,4v0h0l4.67,3.64,0,0,3.12,3.73,0-.06,1,4.46,0-.12-2,2.16,0,0v0l-1,4.86,0-.06-.94,1.26.18,0-1.06-.61.06.1-.62-3.85v0l-1.28-2.38,0,0,0,0-4.36-2.66h-.05l-5.95-.62.1.07-.84-1.45,0,0-.83-4.92v0l0,0-3.67-4.92,0,0-.79-2.44v.09l.69-1.79Z"/><path class="cls-4" d="M367.74,163.76l-2.2-5.72h0a12.88,12.88,0,0,0-2.53-2.94c-1.74-1.57-1.24-7.4-1.24-7.46v-.05c-.05-.15-1.11-3.67-1.41-4.45a10.67,10.67,0,0,1,.17-3.3,3.12,3.12,0,0,0,.05-.4v0c.07-.23,1.69-2.89,2.76-4.62l0-.05v-.05l-.8-4.44v.05l2.07-8.71v0a94.36,94.36,0,0,0-1.76-10.4c-.88-4-.83-7.22.15-8.94v0a3.17,3.17,0,0,0-.07-1.63,6,6,0,0,1-.13-1,.16.16,0,0,0-.07-.13c-.12-.09-.4-.32-9.05,1.56-4.24.92-8.47,1.91-8.52,1.92l.17.13,1.14-68.92v-.14h-.13l-20,.18L180.59,38.8h-.12v.13l1.14,154.21v.14h.14l133.05-3.6h.06l0,0,4.6-4.66h0v0l.94-1.5,0,0v0l-.5-3.12s-.06-.94-.06-.94l-.05.11c.06,0,1.4-1.22,1.69-1.51l0,0v0a12.37,12.37,0,0,1,1-2.59l0-.09c0-.08.45-.63.83-1.11l-.05,0,1.12-.53h-.07l1.61.2h0l2.35-.2h0l0,0,1.6-2.18-.16,0,1,.43,0,0h0l1.31-.37h0l2.21-1.3h-.05l3-.43h.07l0-.06.61-1.46-.06.07.77-.38-.15,0c.36.4,3.52,4,4,4.25l0,0c.25.41.59.92.77,1.19l.17.26.07-.3.3-1.31v-.05l-1.66-9.77v0l.31-2.76,0,.08,1.68-1.63,0,0v0l.2-1.44v0l0,0-1.91-3,0,0,0,0-1.7-.69,0,0L339.4,151l0,.05-3.06-8.34v.12l.71-1-.17,0,2.51,1.29,0,0h.05l1.42-.3H341l0-.08,1.94-6.9v0l2.22-4.6v-.05l.67-6v0l2.31-4.24-.22,0,2.38,2.65,0-.09-.42,7.1,0-.05-6.49,13.73h0v0l-.73,3.3v.06l0,.05,4.44,5,0,0,1.58,4.42,2.31,8.06v-.08l-1.84,4.84,0,.06,0,.06,1.29,1.85,0,0h0l1.91.68-.08-.08,1.13,3.22v0l.05,3.91v.16l.16,0,2.83-.55-.15-.09,0,.06.12.35.13-.35.69-1.79,0,.05,13.35-12,.13-.12-.16-.09-3-1.73Zm2.75,1.67-13.35,12,0,0v0l-.7,1.79h.25v-.05l0-.11-.12,0-2.83.55.15.13-.05-3.92v0l-1.13-3.22,0-.06-.06,0-1.91-.67.06.05-1.29-1.85,0,.12,1.83-4.84,0,0v0L349,157.18s-1.58-4.43-1.58-4.43v0l0,0-4.44-5,0,.12.73-3.31v0l6.49-13.73v-.05l.41-7.1v0l0,0-2.38-2.66-.12-.14-.09.17-2.31,4.24,0,0v0l-.68,6,0,0-2.23,4.61h0l-1.95,6.9.1-.1-1.42.3h.09L337,141.66l-.1,0-.07.09-.71,1,0,.06,0,.06,3.05,8.34v0l0,0,1.55,1.51,0,0h0l1.7.7-.07-.06,1.92,3,0-.09-.2,1.43,0-.07-1.68,1.63,0,0v.05l-.32,2.76h0v0l1.66,9.77v0l-.3,1.31.24-.05c-.18-.26-.51-.77-.77-1.18v0h0c-.35-.23-2.95-3.11-3.92-4.21l-.06-.07-.09,0-.78.38,0,0,0,.05-.61,1.45.1-.08-3,.43h0l-2.21,1.3h0l-1.31.36h.09l-1-.43-.1,0-.06.08-1.6,2.18.09-.05-2.34.2h0l-1.62-.2h0l0,0-1.13.53h0l0,0c-.19.24-.81,1-.86,1.17a.56.56,0,0,0,0,.08,13.25,13.25,0,0,0-1,2.64l0-.06c-.29.29-1.66,1.48-1.68,1.5l-.05,0v.06l.06,1,.5,3.13,0-.09-.94,1.5v0l-4.59,4.66.09,0L181.74,193l.14.13L180.73,38.94l-.13.13,145.78-4.58,20-.18-.13-.13-1.15,68.93v.17l.16,0c6.65-1.56,16.76-3.78,17.36-3.52a.12.12,0,0,1,0-.09,6.53,6.53,0,0,0,.13,1,3.51,3.51,0,0,1,.1,1.45l0,0c-1,1.78-1.06,5-.17,9.13a93.77,93.77,0,0,1,1.76,10.37v0l-2.07,8.71v.05l.8,4.45v-.09c-1.85,3-2.79,4.59-2.79,4.73s0,.19-.05.36a9.53,9.53,0,0,0-.16,3.43c.3.78,1.39,4.4,1.4,4.44v-.05c0,.24-.51,6,1.32,7.68a13,13,0,0,1,2.48,2.87v0l2.2,5.72,0,.05,0,0,3,1.73Z"/><path class="cls-4" d="M352.1,210.31,351.53,200l-.08.13,6.88-2.44.11,0,0-.11-.26-1.21,0-.1h-6.66l-2.36-.94.05,0-3.27-3.66,0,.12.87-3.27v-.05l-.55-4.37,0,.11,2.21-2,.07-.07,0-.09-.41-.92,0-.06-.07,0-2.24-.41.1.08-.74-1.91v0l0-2.08v0l0,0-1.59-2.51,0,.1.26-1.12v-.06l0-.05c-.18-.26-.51-.77-.77-1.18v0h0c-.35-.23-2.95-3.11-3.92-4.21l-.06-.07-.09,0-.78.38,0,0,0,.05-.61,1.45.1-.08-3,.43h0l-2.21,1.3h0l-1.31.36h.09l-1-.43-.1,0-.06.08-1.6,2.18.09-.05-2.34.2h0l-1.62-.2h0l0,0-1.13.53h0l0,0c-.19.24-.81,1-.86,1.17a.56.56,0,0,0,0,.08,13.25,13.25,0,0,0-1,2.64l0-.06c-.29.29-1.66,1.48-1.68,1.5l-.05,0v.06l.06,1,.5,3.13,0-.09-.94,1.5v0l-4.59,4.66.09,0L181.74,193h-.13v.13l.5,66.64v.13h.13l55,.45,7.66-.39,59.21-1.55h.11l0-.11.43-3.38v0l0,0-1.68-3.4v.08s.21-1.08.58-2.59l0,.08a7.11,7.11,0,0,0,3.33-5c.05-.25.09-.46.14-.64l-.07.08c1.44-.65,6.37-3.52,6.58-3.64h-.13l1.53.82-.05-.06,1.35,2.69,0,0,.05,0,.77.33.09,0,.06-.08.81-1,0,0v0l.43-3,0,0,1.58-2.29h0v0l1-2.93-.07.08s3-1.31,3.31-1.4,2.44-.72,2.46-.73h0l3.19-1.9h-.08l3.95.43H334l0-.16-.14-1.24v0l.51-3.28,0-.1-.1,0-5.59-2.51.06,0-1-1.7-.05-.08-.1,0-2.66.68h0l0,0-2.18,1.6.06,0-1.75.23.1,0-1.48-1.24.05.09-.53-11.47-.18.13,4.94,1.67h0l11.52.86h.16l0-.16-.28-2.72,0,.11,1-.86-.21-.07.72,3.25,0,.07,0,0,2.66,1.24.09,0,.06-.07L341,214h-.19l1.58,1.57,0-.14-1.3,4.11,0,.06,0,.06,1.39,2h0l3,2.63,0,0h.06l2-.11h.09l0-.09,1.24-3.94v-.06l-.5-2.73v.05l.47-2.46,0,.05,3.27-4.7,0,0ZM348.57,215l-.47,2.46v.05l.5,2.72v-.06l-1.24,4,.12-.1-2,.12.1,0-3-2.62,0,0-1.39-2,0,.11,1.3-4.11,0-.07-.06-.06L341,213.85l-.1-.09-.09.09-1.26,1.29.15,0L337,213.87l.07.1-.73-3.26,0-.21-.17.14-1,.86-.06,0v.07l.28,2.73.14-.15L324,213.33h0l-4.93-1.67-.19-.06v.19l.53,11.48v.05l.05,0,1.48,1.24.05,0h.06l1.75-.23h0l0,0,2.18-1.6-.05,0,2.66-.67-.15-.06,1,1.7,0,0,0,0,5.6,2.51-.08-.14-.51,3.28v0l.14,1.24.14-.15-3.95-.42h0l0,0-3.19,1.9h0c-.09,0-2.19.63-2.47.73s-3.21,1.36-3.33,1.41l-.06,0,0,.06-1,2.93,0,0-1.58,2.29v.06l-.43,3,0-.07-.81,1,.15,0-.77-.33.07.06-1.36-2.69,0,0,0,0-1.53-.82-.07,0-.06,0c-.05,0-5.13,3-6.56,3.63l-.05,0,0,.06c-.06.2-.1.42-.15.66a6.88,6.88,0,0,1-3.22,4.87l0,0v0c-.37,1.51-.58,2.59-.59,2.6v0l0,0,1.69,3.4,0-.08-.42,3.38.12-.12-59.21,1.55-7.66.4-55-.46.13.13-.49-66.63-.13.14,133.05-3.6h.06l0,0,4.6-4.66h0v0l.94-1.5,0,0v0l-.5-3.12s-.06-.94-.06-.94l-.05.11c.06,0,1.4-1.22,1.69-1.51l0,0v0a12.37,12.37,0,0,1,1-2.59l0-.09c0-.08.45-.63.83-1.11l-.05,0,1.12-.53h-.07l1.61.2h0l2.35-.2h0l0,0,1.6-2.18-.16,0,1,.43,0,0h0l1.31-.37h0l2.21-1.3h-.05l3-.43h.07l0-.06.61-1.46-.06.07.77-.38-.15,0c.36.4,3.52,4,4,4.25l0,0c.25.41.59.92.77,1.19l0-.1-.26,1.12v0l0,.05,1.58,2.51,0-.07,0,2.07v.05l.74,1.92,0,.07h.07l2.25.41-.1-.07.41.92,0-.15-2.21,2,0,0v.07l.54,4.37v0l-.88,3.27v.07l0,0,3.27,3.67,0,0h0l2.36.94H358l-.13-.1.27,1.2.08-.15-6.88,2.44-.09,0v.09l.56,10.27,0-.08-3.27,4.7,0,0Z"/><path class="cls-4" d="M354,324l-2.66-6,0,.06.28-2.69,0,.06,3-4.6,0,0v-1.41l-.05,0-2.38-1.7,0,.06-.51-1.17v.12l.83-1.36,0,0v0l-.3-12.66v.06l2.21-5.38v-.06l-.61-8.54v0l0,0-2-3.55,0-.06h-.07l-2.41-.38h0l0,0L347,275.84l0,0,0,0-3,6.84h0v0l-1.26,9h0l-2.48,9.31v.07l2.58,7.89v0h0l2.31,3.49v-.11l-1.26,4.35,0,.06,0,.05,1.52,2.22.08-.21c-1.2.25-2.55.51-2.7.5a.08.08,0,0,1,.05,0s-.1-.08-4.72-1.31l-.11,0,0,.11-1,2.24v.07l1.53,9.71v0l-.28,3.58v0l-1.9,5.73,0,0,0,.05,1.08,2.21.07.15.13-.11,2.51-2h0l0,0,1.28-2.05,0,0v0l.14-3.92-.14.12h2.09l0-.09,2-7.32-.15.1,2.5.43h0l4.6-.4h.07l0-.06,1.42-2.39,0-.06Zm-1.55,2.31-4.6.4h0l-2.51-.43-.12,0,0,.12-2,7.31.12-.1h-2.1v.13l-.13,3.93,0-.07-1.29,2,0,0-2.51,2,.2,0-1.07-2.21v.1l1.9-5.73h0v0l.28-3.58v0h0l-1.53-9.71v.08l1-2.25-.15.08c1.77.47,4.48,1.2,4.64,1.27h0c.06.05.13.1,2.86-.47l.2,0-.11-.16-1.52-2.21,0,.11,1.25-4.36,0-.06,0,0L343,308.93l0,0-2.58-7.89v.07l2.47-9.31h0l1.26-9v0l3-6.83-.06.06,2.29-1.17h-.08l2.41.38-.09-.06,2,3.55,0-.06.61,8.53v-.05L352,292.58v.05l.29,12.66,0-.07-.82,1.35,0,.06,0,.06.51,1.17,0,0,0,0,2.37,1.7-.05-.11v1.31l0-.08-3,4.61v.06l-.28,2.69v.06l2.66,6V324l-1.42,2.4Z"/><path class="cls-4" d="M401.68,251.32l6.54-2h0l0,0,.92-.82,0,0v0l.7-2.82v0h0l.05-4.43v0l-1-3v0l-.1-5.3v-.08l-.07,0-1.21-.55-.09,0-.07.08-3.43,4.46.05,0-7.56,3.08h0v0l-2.71,2.46,0,0v0l-1.93,4.22.08-.07-2.39.68h0l0,0-1.83,2,0,0v0l-1,9.62,0-.05L383.43,264v0L380,275.65l0,0-3.82,5.43h0l-2.15,4.14v0h0l-1.22,5v0h0l-.24,10.27v-.05l-1,2.39.16-.07-4.39-1.36-.13,0,0,.14-.76,3.05,0,.08.06.05,1.75,1.57,0-.13-.57,2.39v.06l.53,2.41v0l-.26,3.17v4.95h0l1.77,7,.06-.15-3.61,1.93h0l-1.93,1.67.05,0-1.4.39.11,0-.93-.61.06.09-.68-4-.05-.31-.18.25L358,329.59l0,0-5.9,4.81,0,0v0l-.5,2.46V337l0,0,1.56,1.79,0-.07.43,2.64v0l0,0,1.54,1.51.08.07.09-.06,3.78-2.76H359l2.32,1.29.05,0,.06,0,2.17-1h0l4.69-3.7h-.15l5.92,3.93.15.1.05-.18,1.64-5.74,0,.05,2.42-2.71,0,0v0l0-5.15v0l.91-4.25-.11.1L384,322l-.14-.05,1.41,2.16,0,0,.05,0,2.68.56h.08l.05-.07,1.24-1.75,0,0v0l.07-1.8-.1.13,2.36-.63h-.08l4.25,1.8,0,0,2.1,2.08,0,0,.54,1.32v-.08l-1,3.59,0,.15.14,0,1.66.26.1,0,0-.1,2.59-6.19,0-.06,0-.06L399,318.44l0,.1,2.22-7.46,0,0,2.65-3.66v0l2.26-10.2,0-.08-.06-.05-2.71-2.41.05.1.06-7.85v0h0l-.73-4.06v0l1-9.67v-.05l0,0-4-6.94,0,.1,1.83-9.28h0l.17-5.78Zm-.33,5.63-1.83,9.27v0l0,.05,4,6.93v-.08l-1,9.67v0l.73,4.06v0l-.07,7.85v.06l0,0,2.71,2.41,0-.13-2.26,10.2,0,0L401,311v0l-2.23,7.46v.06l0,.05,2.93,4.78v-.12l-2.6,6.19.15-.08-1.65-.26.1.16,1-3.59,0-.05,0,0-.55-1.32v0l0,0L396,322.13l0,0h0l-4.26-1.8,0,0h-.05l-2.36.63-.09,0V321l-.06,1.8,0-.07-1.24,1.75.14,0-2.67-.56.08,0-1.4-2.16-.05-.07h-.09l-4.87.88H379l0,.09L378,327h0v5.17l0-.09-2.43,2.71,0,0v0L374,340.57l.2-.07-5.93-3.93-.08-.05-.07.06-4.69,3.69h0l-2.17,1h.12L359.09,340l-.07,0L359,340l-3.78,2.76h.17l-1.53-1.5,0,.07-.43-2.64v0l0,0-1.55-1.78,0,.11.5-2.46-.05.08,5.91-4.8h0v0l3.09-4.22-.24-.06.68,4v.06l.05,0,.92.61.05,0,.06,0,1.4-.4h.05l1.94-1.67h0l3.62-1.93.09-.05,0-.1-1.76-7v-4.89l.26-3.16h0v0l-.53-2.41v.05l.56-2.39,0-.08-.06-.05-1.75-1.57,0,.13.76-3.05-.16.1,4.39,1.35.11,0,.05-.11,1-2.39v-.05l.25-10.26v0l1.23-5,0,0,2.15-4.15v0l3.81-5.43,0,0v0l3.39-11.67,0,0,3.15-5.25,0,0v0l1-9.63,0,.08,1.83-2-.06,0,2.39-.67.06,0,0-.06,1.93-4.22,0,0,2.7-2.46,0,0,7.57-3.09h0l0,0,3.43-4.46-.16,0,1.21.55-.08-.12.1,5.3v0l1,3v0l-.05,4.42v0l-.69,2.83,0-.07-.93.83.05,0-6.53,2-.09,0v.09l-.16,5.78Z"/><path class="cls-4" d="M383.82,235.66l-.72,1.14,0,0v0l-.23,2.44v.08l.06,0,1.92,1.31h.06l1.71.23h.08l.05-.07,1.72-2.66,0,0v0l0-2.54v-.09l-.08,0-2.14-1-.06,0-.05,0-2.23,1.05,0,0Zm2.29-.86,2.14,1-.07-.12v2.54l0-.07-1.71,2.66.13-.06-1.72-.23.06,0-1.92-1.31.06.13.23-2.45,0,.06.73-1.14-.06,0,2.23-1.06Z"/><path class="cls-4" d="M363.39,259.26l.46,10.18v.08l.07,0,2.93,1.37.06,0,.06,0,3.27-1.92h0v0l4.59-5.74,0,0v0l3.68-10.89v-.07l-.66-3.8v-.05l-1.26-1.8h0l-2.81-2.41h0l-7.69-4.66,0,.06L364.91,237V237l.54-6.59v-.05L364,226.3v-.05L362.89,225l0-.05h-.07l-2.4.29h-.08l0,.08-.93,2.39v.08l1.61,6.34,0-.13-3.86,3.63,0,0v0l-.4,3.52v.06l0,0,3.52,4,0,0h.06l3.88,0-.08,0,1.61,1.08-.06-.1.43,3.68v0l-1.07,5.27v0l-1.66,3.93,0,0Zm1.92-3.91,1.08-5.27v0l-.43-3.68v-.06l-.05,0-1.6-1.07,0,0h0l-3.88,0,.1.05-3.52-4,0,.1.4-3.52,0,.09,3.86-3.64.06-.05,0-.07-1.62-6.34v.08l.92-2.4-.11.09,2.4-.28-.12-.05,1.06,1.25,0,0,1.49,4.1v-.06l-.54,6.59v0l0,0,1.24,2.57,0,0,0,0,7.69,4.65h0l2.81,2.41,0,0,1.25,1.8,0-.05.66,3.8v-.07l-3.68,10.89,0,0-4.59,5.75,0,0-3.26,1.91H367L364,269.32l.07.11-.46-10.18v.05l1.67-3.92v0Z"/><path class="cls-4" d="M444.65,263.1l-3.5-4.8,0,.06-.57-3.77v0l.66-5.88,0,.05L444,244l0,0v0l-.71-5.65v0l1.33-6.27v0l-.41-3.75v-.09l-.08,0L427,223.52l.1.13.05-1.48v-.1l-.1,0-7.72-2.25.07.05-1.22-1.7-.17-.23-.07.28-1.06,4.41,0,0-1.72,2.85v.05l-.78,5.95s-2,8.5-2,8.5h0v0l-.27,7.84.53,8.38v0l0,0,2.86,4.85,0-.07,0,1.65,0-.07-1.44,2h0l-2.21,5,0,.06,0,.06,1.26,1.92,0-.06.76,8.83v-.07l-.71,1.69.16-.08-2.9-1h-.08l-1.4.4-.16,0,.07.14,1.41,2.66,0-.07-.21,5.22v.08l.07,0L414,291.8l-.05-.05,1,1.65,0-.1-1.68,5.33v.09l1.26,3v-.08l-.59,2.16v.08l.46,1.48v0l0,0,2.52,2.89v-.16l-2.69,4.41,0,0v.05l.38,2.62v.06l5,6.91,0,0,1.16,5.38v-.05l-.66,4.54v0L417.45,339l0,.12.11.05,1.75.71.07,0,.06,0,3.4-2.41-.05,0,4.41-.89h0l1.71-1.22.06,0v-.06l0-2.08,0,.08,2.81-3.5-.11,0,1,.05h.07l0-.05,1.32-1.63-.07,0,2.74-.64h0l0,0,3.9-3.4,0,0v0l.76-5-.07.1,3.86-1.9h0l3.93-.48h.12v-.13l-4.64-53.51v0Zm4.52,53.46-3.93.48h-.05l-3.86,1.9-.06,0v.07L440.5,324l0-.08-3.89,3.4.06,0-2.74.65h-.05l0,0-1.32,1.63.11,0-1-.05h-.07l0,.06-2.8,3.49,0,0v2.13l.06-.11-1.72,1.22.05,0-4.4.89h-.05l-3.4,2.41h.12l-1.75-.71.08.17,2.57-6.94h0l.66-4.54v0l-1.16-5.38v0l0,0-4.95-6.91,0,.05-.38-2.62v.09l2.68-4.41.06-.08-.07-.08-2.52-2.89,0,.05-.46-1.48v.07l.6-2.16v0l0-.05-1.25-3v.09l1.68-5.34,0-.05,0-.05-1-1.65,0,0,0,0-3.92-2.31.06.12.22-5.22v0l0,0-1.4-2.66-.08.19,1.4-.4h-.08l2.91,1,.11,0,.05-.11.71-1.68v-.07l-.76-8.83v0l0,0-1.25-1.91v.12l2.21-5,0,0,1.44-2,0,0V261l0,0-2.85-4.85,0,.06-.53-8.37s.26-7.82.26-7.82v0l2-8.52.78-5.95,0,.05,1.72-2.86h0v0l1.06-4.41-.24.05,1.22,1.7,0,0,0,0,7.73,2.24-.1-.13-.05,1.49v.1l.1,0,17.22,4.64-.1-.12.41,3.75v0l-1.33,6.27v0l.71,5.65,0-.08L441,248.67v.05l-.67,5.88v0h0l.57,3.77v0l0,0,3.5,4.8,0-.07,4.64,53.51Z"/><path class="cls-4" d="M267.35,427.79l7.66,5-.06-.11.37,8.79v0L273.61,449v0l.25,5V454l6.52,12v-.14l-1.25,1.74.05,0-3.9,2,.05,0-12,1.41h0l-5.68,2.42h0l-3.15.77.14.05-2.2-3.19,0,.1.48-2v0h0l.11-6.76v0l1.14-7.39-.05.08,3.15-2.44h0v0l3.06-3.91-.22,0,1.63,2.69,0,0h0l3.44,2.73.07.06.08,0,3.21-1.93.09-.06,0-.1-1-3.21v0h0l-3.32-4.91V444l2.31-3.46,0,0v0l.35-3.14v0l-1.19-9.35-.11.15,1.72-.24Zm-1.78.14,1.19,9.36v0l-.35,3.14,0-.06-2.31,3.46-.05.07.05.08,3.32,4.9,0,0,1,3.21.05-.15-3.21,1.94h.15L262,451.1l0,0-1.63-2.68-.1-.17-.12.16-3.06,3.91,0,0L254,454.77l0,0v.06l-1.14,7.39h0l-.11,6.75v0l-.49,2v.06l0,0,2.2,3.19.06.07.08,0,3.15-.77h0l5.68-2.42h0l12-1.4h0l3.9-2h0v0L280.6,466l0-.06,0-.08-6.52-12,0,.06-.24-5v0l1.72-7.57v0l-.37-8.78v-.06l-.06,0-7.66-5,0,0h-.05l-1.72.25-.12,0Z"/></g><g id="Layer_4" data-name="Layer 4"><circle class="cls-5" cx="337.17" cy="126.96" r="26.39"/><circle class="cls-6" cx="337.17" cy="126.96" r="8.13"/></g></svg>