<svg xmlns="http://www.w3.org/2000/svg" xmlns:xlink="http://www.w3.org/1999/xlink" viewBox="0 0 784.06 507.87"><defs><style>.cls-1,.cls-6,.cls-8,.cls-9{fill:none;}.cls-2{fill:#e6e6e6;}.cls-3{opacity:0.8;}.cls-4{clip-path:url(#clip-path);}.cls-5,.cls-7{fill:#007dbc;}.cls-5{opacity:0.8;}.cls-6,.cls-8{stroke:#0675af;}.cls-6{stroke-linejoin:bevel;stroke-width:0.67px;}.cls-8,.cls-9{stroke-miterlimit:10;}.cls-8{stroke-width:4px;fill-rule:evenodd;}.cls-9{stroke:#fff;stroke-width:3px;}.cls-10{fill:#fff;}</style><clipPath id="clip-path"><rect class="cls-1" x="101.95" y="-2.48" width="658.12" height="523.12"/></clipPath></defs><g id="Background"><rect class="cls-2" x="-11.18" y="-11.39" width="804.92" height="529.99"/></g><g id="Layer_10" data-name="Layer 10"><g class="cls-4"><polygon class="cls-5" points="490.25 219.89 538.37 252.96 588.86 252.95 589.03 154.04 494.08 153.29 494.49 157.81 494.07 160.95 495.81 168.19 496.21 172.32 495.28 174.3 495.3 179.25 494.18 180.87 494.48 186.62 495.23 190.24 494.32 193.83 491.91 199.04 490.22 199.13 490.25 219.89"/><polygon class="cls-6" points="490.25 219.89 538.37 252.96 588.86 252.95 589.03 154.04 494.08 153.29 494.49 157.81 494.07 160.95 495.81 168.19 496.21 172.32 495.28 174.3 495.3 179.25 494.18 180.87 494.48 186.62 495.22 190.24 494.32 193.83 491.91 199.04 490.22 199.13 490.25 219.89"/><polygon class="cls-5" points="272.73 219.63 279.28 219.64 282.15 216.73 285.12 216.23 286.12 214.23 288.21 213.79 290.08 211.73 290.08 208.25 291.08 208.26 289.65 204.27 291.16 203.27 291.27 200.29 289.09 200.29 289.12 195.3 292.96 195.92 295.09 193.42 298.12 192.11 300.03 192.35 301.18 190.97 306.44 190.64 310.99 188.31 315.21 188.3 315.93 187.62 316 184.24 316.99 184.24 316.97 176.8 314.98 175.3 314.97 169.11 314.04 169.12 314.1 162.19 308.03 162.25 308.07 126.13 309.43 126.09 309.61 95.11 308.54 95.11 308.47 75.76 309.82 75.8 309.87 63.06 308.84 63.08 308.83 21.87 273 21.83 273.17 122.44 272.73 219.63"/><polygon class="cls-6" points="272.73 219.63 279.28 219.64 282.15 216.73 285.12 216.23 286.12 214.24 288.21 213.79 290.08 211.73 290.08 208.25 291.08 208.26 289.65 204.27 291.16 203.27 291.26 200.29 289.09 200.29 289.12 195.3 292.96 195.92 295.09 193.42 298.12 192.11 300.03 192.35 301.18 190.97 306.44 190.64 310.99 188.31 315.21 188.3 315.93 187.62 316 184.24 316.99 184.24 316.97 176.8 314.98 175.3 314.97 169.11 314.04 169.12 314.1 162.19 308.03 162.25 308.07 126.13 309.43 126.09 309.61 95.11 308.54 95.11 308.47 75.76 309.82 75.8 309.87 63.06 308.84 63.08 308.83 21.87 273 21.83 273.17 122.44 272.73 219.63"/><polygon class="cls-5" points="310.99 188.31 306.44 190.64 301.18 190.97 300.03 192.35 298.12 192.11 295.09 193.42 292.96 195.92 289.12 195.3 289.09 200.29 291.27 200.29 291.16 203.27 289.65 204.27 291.08 208.26 290.08 208.25 290.08 211.73 288.21 213.79 291.67 212.71 300.63 207.85 310.99 188.31"/><polygon class="cls-6" points="310.99 188.31 306.44 190.64 301.18 190.97 300.03 192.35 298.12 192.11 295.09 193.42 292.96 195.92 289.12 195.3 289.09 200.29 291.26 200.29 291.16 203.27 289.65 204.27 291.08 208.26 290.08 208.25 290.08 211.73 288.21 213.79 291.67 212.71 300.63 207.85 310.99 188.31"/><polygon class="cls-5" points="309.61 95.11 309.43 126.09 308.07 126.13 308.03 162.25 403.47 162.08 416.27 125.55 416.3 115.05 415.8 114.54 398.02 114.48 398.03 102.32 337.37 102.45 337.37 95.08 309.61 95.11"/><polygon class="cls-6" points="309.61 95.11 309.43 126.09 308.07 126.13 308.03 162.25 403.47 162.08 416.27 125.55 416.3 115.05 415.8 114.54 398.02 114.48 398.03 102.32 337.37 102.45 337.37 95.08 309.61 95.11"/><polygon class="cls-5" points="356.41 305.79 360.48 305.96 395.54 266.78 368.72 236.48 368.72 230.97 386.3 225.92 329.78 225.92 325.26 234.83 325.28 241.11 331.24 241.05 330.99 270.78 317.71 270.78 356.41 305.79"/><polygon class="cls-6" points="356.41 305.79 360.48 305.96 395.54 266.78 368.72 236.48 368.72 230.97 386.3 225.92 329.78 225.92 325.26 234.83 325.28 241.11 331.24 241.05 330.99 270.78 317.71 270.78 356.41 305.79"/><polygon class="cls-5" points="288.21 213.79 289.82 216.63 291.59 217.6 296.19 217.59 295.54 220.34 296.79 225.09 309.5 225.25 309.55 231.59 304.72 232.1 303.7 234.05 303.65 239.01 304.6 243.98 304.48 249.14 307.47 249.43 307.58 254.91 308.56 254.91 308.61 262.64 317.71 270.78 330.99 270.78 331.24 241.05 325.28 241.11 325.26 234.83 329.78 225.92 339.12 225.86 339.11 223.3 337.07 223.28 337.05 221.28 335.02 220.32 334.06 218.24 331.83 217.4 331.86 215.37 328.84 213.41 319.77 204.35 319.8 195.39 321.26 195.39 321.32 187.26 321.95 187.26 321.9 181.35 315.21 188.3 310.99 188.31 300.63 207.85 291.67 212.71 288.21 213.79"/><polygon class="cls-6" points="288.21 213.79 289.82 216.63 291.59 217.6 296.19 217.59 295.54 220.34 296.79 225.09 309.5 225.24 309.55 231.59 304.72 232.1 303.7 234.05 303.65 239.01 304.6 243.99 304.47 249.14 307.47 249.43 307.58 254.91 308.56 254.91 308.61 262.64 317.71 270.78 330.99 270.78 331.24 241.05 325.28 241.11 325.26 234.83 329.78 225.92 339.12 225.86 339.11 223.3 337.07 223.28 337.05 221.28 335.02 220.32 334.06 218.24 331.83 217.4 331.86 215.37 328.84 213.41 319.77 204.35 319.8 195.39 321.26 195.39 321.32 187.26 321.95 187.26 321.9 181.35 315.21 188.3 310.99 188.31 300.63 207.85 291.67 212.71 288.21 213.79"/><polygon class="cls-5" points="391.06 224.57 414.61 219.78 453.42 219.91 453.99 182.46 453.98 157.14 453.47 157.14 453.78 139.9 453.64 96.09 454.17 92.3 431.25 92.31 431.24 117.38 419.13 117.42 403.47 162.08 406.85 166.34 407.72 169.99 406.31 174.16 405.93 179.56 407.56 184.31 406.42 186.69 407.72 188.2 406.63 189.92 406.46 193.56 405.61 194.57 400.9 195.48 401.08 196.47 397.38 198.88 397.93 201.73 396.49 201.92 395.26 204.52 392.6 204.54 391.72 206.8 393.86 213.8 394.01 216.36 389.43 220.99 391.06 224.57"/><polygon class="cls-6" points="391.06 224.57 414.61 219.78 453.42 219.91 453.99 182.46 453.98 157.14 453.47 157.14 453.77 139.9 453.64 96.09 454.17 92.3 431.25 92.31 431.24 117.38 419.13 117.42 403.47 162.08 406.85 166.34 407.72 169.99 406.31 174.16 405.93 179.56 407.56 184.31 406.42 186.69 407.72 188.19 406.63 189.92 406.46 193.56 405.61 194.57 400.89 195.47 401.08 196.47 397.38 198.88 397.93 201.73 396.49 201.92 395.26 204.52 392.6 204.54 391.72 206.8 393.86 213.8 394.01 216.36 389.43 220.99 391.06 224.57"/><polygon class="cls-5" points="308.83 21.87 308.84 63.08 309.87 63.06 309.82 75.8 308.47 75.76 308.54 95.11 337.37 95.08 337.37 102.45 398.03 102.32 398.02 114.48 415.8 114.54 416.3 115.05 416.27 125.55 419.13 117.42 431.24 117.38 431.26 21.48 342.17 22.02 308.83 21.87"/><polygon class="cls-6" points="308.83 21.87 308.84 63.08 309.87 63.06 309.82 75.8 308.47 75.76 308.54 95.11 337.37 95.08 337.37 102.45 398.03 102.32 398.02 114.48 415.8 114.54 416.3 115.05 416.27 125.55 419.13 117.42 431.24 117.38 431.26 21.48 342.17 22.02 308.83 21.87"/><polygon class="cls-5" points="490.25 219.89 490.22 199.13 491.91 199.04 494.32 193.83 495.23 190.24 494.48 186.62 494.18 180.87 495.3 179.25 495.28 174.3 496.21 172.32 495.81 168.19 494.07 160.95 494.49 157.81 494.08 153.29 485.27 153.31 476.94 115.74 476.92 92.34 454.17 92.3 453.64 96.09 453.78 139.9 453.47 157.14 453.98 157.14 453.99 182.46 453.42 219.91 490.25 219.89"/><polygon class="cls-6" points="490.25 219.89 490.22 199.13 491.91 199.04 494.32 193.83 495.22 190.24 494.48 186.62 494.18 180.87 495.3 179.25 495.28 174.3 496.21 172.32 495.81 168.19 494.07 160.95 494.49 157.81 494.08 153.29 485.27 153.31 476.94 115.74 476.92 92.33 454.17 92.3 453.64 96.09 453.77 139.9 453.47 157.14 453.98 157.14 453.99 182.46 453.42 219.91 490.25 219.89"/><polygon class="cls-5" points="454.17 92.3 476.92 92.34 476.94 115.74 485.27 153.31 589.03 154.04 589.29 21.89 559.74 21.83 548.65 21.3 536.38 21.72 431.26 21.48 431.25 92.31 454.17 92.3"/><polygon class="cls-6" points="454.17 92.3 476.92 92.33 476.94 115.74 485.27 153.31 589.03 154.04 589.29 21.89 559.74 21.83 548.65 21.3 536.38 21.72 431.26 21.48 431.25 92.31 454.17 92.3"/><polygon class="cls-5" points="272.82 226.35 272.9 230.99 308.61 262.64 308.56 254.91 307.58 254.91 307.47 249.43 304.48 249.14 304.6 243.98 303.65 239.01 303.7 234.05 304.72 232.1 309.55 231.59 309.5 225.25 286.12 225.16 285.63 223.17 272.77 223.25 272.82 226.35"/><polygon class="cls-6" points="272.82 226.35 272.9 230.99 308.61 262.64 308.56 254.91 307.58 254.91 307.47 249.43 304.47 249.14 304.6 243.99 303.65 239.01 303.7 234.05 304.72 232.1 309.55 231.59 309.5 225.24 286.12 225.16 285.63 223.17 272.77 223.25 272.82 226.35"/><polygon class="cls-5" points="315.93 187.62 321.9 181.35 321.95 187.26 321.32 187.26 321.26 195.39 319.8 195.39 319.77 204.35 328.84 213.41 331.86 215.37 331.83 217.4 334.06 218.24 335.02 220.32 337.05 221.28 337.07 223.28 339.11 223.3 339.12 225.86 386.3 225.92 391.06 224.57 389.43 220.99 394.01 216.36 393.86 213.8 391.72 206.8 392.6 204.54 395.26 204.52 396.49 201.92 397.93 201.73 397.38 198.88 401.08 196.47 400.9 195.48 405.61 194.57 406.46 193.56 406.63 189.92 407.72 188.2 406.42 186.69 407.56 184.31 405.93 179.56 406.31 174.16 407.72 169.99 406.85 166.34 403.47 162.08 314.1 162.19 314.04 169.12 314.97 169.11 314.98 175.3 316.97 176.8 316.99 184.24 316 184.24 315.93 187.62"/><polygon class="cls-6" points="315.93 187.62 321.9 181.35 321.95 187.26 321.32 187.26 321.26 195.39 319.8 195.39 319.77 204.35 328.84 213.41 331.86 215.37 331.83 217.4 334.06 218.24 335.02 220.32 337.05 221.28 337.07 223.28 339.11 223.3 339.12 225.86 386.3 225.92 391.06 224.57 389.43 220.99 394.01 216.36 393.86 213.8 391.72 206.8 392.6 204.54 395.26 204.52 396.49 201.92 397.93 201.73 397.38 198.88 401.08 196.47 400.89 195.47 405.61 194.57 406.46 193.56 406.63 189.92 407.72 188.19 406.42 186.69 407.56 184.31 405.93 179.56 406.31 174.16 407.72 169.99 406.85 166.34 403.47 162.08 314.1 162.19 314.04 169.12 314.97 169.11 314.98 175.3 316.97 176.8 316.99 184.24 316 184.24 315.93 187.62"/><polygon class="cls-5" points="272.73 219.63 272.77 223.25 285.63 223.17 286.12 225.16 296.79 225.09 295.54 220.34 296.19 217.59 291.59 217.6 289.82 216.63 288.21 213.79 286.12 214.23 285.12 216.23 282.15 216.73 279.28 219.64 272.73 219.63"/><polygon class="cls-6" points="272.73 219.63 272.77 223.25 285.63 223.17 286.12 225.16 296.79 225.09 295.54 220.34 296.19 217.59 291.59 217.6 289.82 216.63 288.21 213.79 286.12 214.24 285.12 216.23 282.15 216.73 279.28 219.64 272.73 219.63"/><polygon class="cls-5" points="386.3 225.92 368.72 230.97 368.72 236.48 423.44 298.69 423.42 367.65 493.5 434.16 493.51 420.55 490.86 420.46 490.96 295.4 538.37 295.38 538.37 252.96 490.25 219.89 414.61 219.78 391.06 224.57 386.3 225.92"/><polygon class="cls-6" points="386.3 225.92 368.72 230.97 368.72 236.48 423.44 298.69 423.42 367.65 493.5 434.16 493.51 420.55 490.86 420.46 490.96 295.4 538.37 295.38 538.37 252.96 490.25 219.89 414.61 219.78 391.06 224.57 386.3 225.92"/><polygon class="cls-5" points="490.8 376.21 499.09 376.23 499.08 375.48 551.02 375.45 551.03 376.09 588.83 376.14 588.86 252.95 538.37 252.96 538.37 295.38 490.96 295.4 490.8 376.21"/><polygon class="cls-6" points="490.8 376.21 499.09 376.23 499.08 375.48 551.02 375.46 551.03 376.09 588.83 376.14 588.86 252.95 538.37 252.96 538.37 295.38 490.96 295.4 490.8 376.21"/><polygon class="cls-5" points="388.02 334.72 423.42 367.65 423.44 298.69 395.54 266.78 360.48 305.96 356.41 305.79 388.02 334.72"/><polygon class="cls-6" points="388.02 334.72 423.42 367.65 423.44 298.69 395.54 266.78 360.48 305.96 356.41 305.79 388.02 334.72"/><polygon class="cls-5" points="493.5 434.16 557.87 496.87 557.62 495.56 559.43 492.21 557.38 490.73 557.94 489.39 560.8 488.64 561.27 486.46 559.91 476.08 558.2 470.34 556.28 467.89 555.46 464.4 556.64 462.2 555.67 459.37 556.79 457.19 554.93 454.67 555.26 452.17 554.06 450.65 554.64 447.72 553.71 444.52 554.03 441.69 556.33 440.35 552.69 435.45 552.09 431.37 553.17 429.87 551.38 426.2 552.53 424.9 555.31 424.6 558.03 422.43 558.83 423.25 561.19 421.85 564.53 421.94 564.71 423.42 569.61 422.15 571.85 422.41 575.36 426.81 574.82 427.8 577.13 428.79 579.12 430.93 583.36 430.25 588.39 419.44 589.18 419.07 588.83 376.14 551.03 376.09 551.02 375.45 499.08 375.48 499.09 376.23 490.8 376.21 490.86 420.46 493.51 420.55 493.5 434.16"/><polygon class="cls-6" points="493.5 434.16 557.87 496.87 557.62 495.56 559.43 492.21 557.38 490.73 557.94 489.39 560.8 488.64 561.27 486.46 559.91 476.09 558.2 470.34 556.28 467.89 555.46 464.4 556.64 462.2 555.67 459.37 556.79 457.19 554.93 454.67 555.26 452.17 554.06 450.65 554.64 447.72 553.71 444.52 554.03 441.69 556.33 440.35 552.69 435.45 552.09 431.37 553.17 429.87 551.38 426.2 552.53 424.9 555.31 424.6 558.03 422.43 558.83 423.26 561.19 421.85 564.53 421.94 564.71 423.42 569.61 422.15 571.85 422.41 575.36 426.81 574.82 427.8 577.12 428.79 579.12 430.93 583.36 430.25 588.39 419.44 589.18 419.07 588.83 376.14 551.03 376.09 551.02 375.46 499.08 375.48 499.09 376.23 490.8 376.21 490.86 420.46 493.51 420.55 493.5 434.16"/></g><path class="cls-7" d="M140.08,331.53h4.76L153,346.25l2.68,5.56h.16c-.2-2.68-.6-6-.6-8.92V331.53h4.44v26.16h-4.76L146.76,343l-2.68-5.56h-.16c.2,2.76.6,5.92.6,8.84v11.44h-4.44Z"/><path class="cls-7" d="M164.64,347.89c0-6.4,4.44-10.32,9-10.32,5.32,0,8.12,3.84,8.12,9.32a10.72,10.72,0,0,1-.2,2.24H169.12c.4,3.48,2.64,5.48,5.8,5.48a8.2,8.2,0,0,0,4.56-1.44l1.56,2.88a12.39,12.39,0,0,1-6.72,2.12C168.88,358.17,164.64,354.37,164.64,347.89ZM177.8,346c0-3-1.32-4.88-4-4.88-2.32,0-4.32,1.72-4.72,4.88Z"/><path class="cls-7" d="M183.76,338.05h4.68l3.12,10.2c.52,1.92,1.12,3.92,1.64,5.92h.16c.56-2,1.12-4,1.68-5.92l3.12-10.2h4.44l-6.68,19.64H190.6Z"/><path class="cls-7" d="M204.16,352.41c0-4.2,3.48-6.4,11.56-7.28-.08-2.08-.92-3.84-3.6-3.84a11.19,11.19,0,0,0-5.52,1.92l-1.68-3.08a15.36,15.36,0,0,1,8.08-2.56c4.88,0,7.32,3,7.32,8.48v11.64h-3.8l-.32-2.16H216a9.56,9.56,0,0,1-6.08,2.64A5.49,5.49,0,0,1,204.16,352.41Zm11.56,0V348c-5.36.68-7.12,2.08-7.12,4,0,1.76,1.2,2.52,2.84,2.52S214.24,353.77,215.72,352.41Z"/><path class="cls-7" d="M224.64,347.89c0-6.4,4-10.32,8.32-10.32a7.25,7.25,0,0,1,5.16,2.16l-.16-3.16v-7.12h4.6v28.24h-3.8l-.32-2.12h-.16a8.18,8.18,0,0,1-5.56,2.6C227.8,358.17,224.64,354.37,224.64,347.89ZM238,352.17V343a5.86,5.86,0,0,0-4-1.64c-2.52,0-4.56,2.36-4.56,6.48s1.6,6.52,4.44,6.52A5.3,5.3,0,0,0,238,352.17Z"/><path class="cls-7" d="M247.36,352.41c0-4.2,3.48-6.4,11.56-7.28-.08-2.08-.92-3.84-3.6-3.84a11.19,11.19,0,0,0-5.52,1.92l-1.68-3.08a15.36,15.36,0,0,1,8.08-2.56c4.88,0,7.32,3,7.32,8.48v11.64h-3.8l-.32-2.16h-.16a9.56,9.56,0,0,1-6.08,2.64A5.49,5.49,0,0,1,247.36,352.41Zm11.56,0V348c-5.36.68-7.12,2.08-7.12,4,0,1.76,1.2,2.52,2.84,2.52S257.44,353.77,258.92,352.41Z"/><path class="cls-7" d="M166.15,370.79h4.2c4.8,0,7.63,2.59,7.63,7.78s-2.83,7.92-7.49,7.92h-4.34Zm4,13.44c3.17,0,5-1.8,5-5.66s-1.8-5.52-5-5.52h-1.23v11.18Z"/><path class="cls-7" d="M180.6,371.08a1.71,1.71,0,1,1,1.7,1.56A1.59,1.59,0,0,1,180.6,371.08Zm.31,3.62h2.76v11.79h-2.76Z"/><path class="cls-7" d="M186,385.14l1.3-1.77a5.25,5.25,0,0,0,3.26,1.32c1.27,0,1.87-.6,1.87-1.42,0-1-1.27-1.41-2.52-1.89-1.56-.58-3.31-1.47-3.31-3.44s1.66-3.52,4.3-3.52a6.38,6.38,0,0,1,3.91,1.41l-1.27,1.68a4.41,4.41,0,0,0-2.59-1c-1.18,0-1.73.56-1.73,1.3,0,.94,1.17,1.3,2.45,1.75,1.6.6,3.38,1.37,3.38,3.58,0,2-1.61,3.65-4.58,3.65A7.45,7.45,0,0,1,186,385.14Z"/><path class="cls-7" d="M197.47,382.5v-5.61h-1.68v-2.07l1.83-.12.33-3.21h2.3v3.21h3v2.19h-3v5.61c0,1.4.53,2.07,1.66,2.07a3.21,3.21,0,0,0,1.22-.27l.49,2a7.46,7.46,0,0,1-2.41.44C198.48,386.78,197.47,385.05,197.47,382.5Z"/><path class="cls-7" d="M205.73,374.7H208l.19,2.09h.09a4,4,0,0,1,3.34-2.37,3,3,0,0,1,1.35.24l-.49,2.4a3.75,3.75,0,0,0-1.22-.2c-.94,0-2.06.65-2.78,2.43v7.2h-2.76Z"/><path class="cls-7" d="M214.37,371.08a1.71,1.71,0,1,1,1.7,1.56A1.59,1.59,0,0,1,214.37,371.08Zm.31,3.62h2.76v11.79h-2.76Z"/><path class="cls-7" d="M220.2,380.61a5.81,5.81,0,0,1,5.9-6.19,5.08,5.08,0,0,1,3.46,1.32l-1.35,1.8a2.84,2.84,0,0,0-2-.87c-1.9,0-3.22,1.56-3.22,3.94s1.3,3.91,3.14,3.91a3.94,3.94,0,0,0,2.43-1l1.13,1.83a5.9,5.9,0,0,1-3.84,1.44C222.67,386.78,220.2,384.52,220.2,380.61Z"/><path class="cls-7" d="M232.22,382.5v-5.61h-1.68v-2.07l1.83-.12.33-3.21H235v3.21h3v2.19h-3v5.61c0,1.4.52,2.07,1.65,2.07a3.3,3.3,0,0,0,1.23-.27l.48,2a7.45,7.45,0,0,1-2.4.44C233.23,386.78,232.22,385.05,232.22,382.5Z"/><polyline class="cls-8" points="356.41 305.79 360.48 305.96 395.54 266.78 368.72 236.48 368.72 230.97 391.06 224.57 414.61 219.78 490.25 219.89 538.37 252.96 588.86 252.95"/><circle class="cls-9" cx="531.07" cy="421.86" r="29.28"/><circle class="cls-10" cx="531.07" cy="421.86" r="9.02"/><circle class="cls-10" cx="285.65" cy="219.99" r="9.02"/></g></svg>