<?xml version="1.0" encoding="utf-8"?>
<!-- Generator: Adobe Illustrator 25.4.1, SVG Export Plug-In . SVG Version: 6.00 Build 0)  -->
<svg version="1.1" xmlns="http://www.w3.org/2000/svg" xmlns:xlink="http://www.w3.org/1999/xlink" x="0px" y="0px"
	 viewBox="0 0 784.06 507.87" style="enable-background:new 0 0 784.06 507.87;" xml:space="preserve">
<style type="text/css">
	.st0{fill:#002E6D;}
	.st1{fill-rule:evenodd;clip-rule:evenodd;fill:none;stroke:#FFFFFF;stroke-width:3;stroke-miterlimit:10;}
	.st2{fill:#FFFFFF;}
	.st3{fill:none;stroke:#0675AF;stroke-miterlimit:10;}
	.st4{opacity:0.8039;fill:#007DBC;}
	.st5{fill:#A5A5A5;}
	.st6{fill:none;stroke:#868788;stroke-width:0.6353;stroke-linejoin:bevel;stroke-miterlimit:10;}
	.st7{fill:none;stroke:#0675AF;stroke-width:4;stroke-linejoin:bevel;stroke-miterlimit:10;}
	.st8{fill:#E6E6E6;}
	.st9{opacity:0.8;}
	.st10{clip-path:url(#SVGID_00000182512388865108508560000017940136264260042428_);}
	.st11{opacity:0.8;fill:#007DBC;enable-background:new    ;}
	.st12{fill:none;stroke:#0675AF;stroke-width:0.67;stroke-linejoin:bevel;}
	.st13{fill:#007DBC;}
	.st14{fill:none;stroke:#0675AF;stroke-width:4;stroke-miterlimit:10;}
	.st15{fill:none;stroke:#FFFFFF;stroke-width:3;stroke-miterlimit:10;}
</style>
<g id="Tools">
	<rect x="-1182.34" y="60.89" class="st0" width="86.7" height="86.7"/>
	<circle class="st1" cx="-1211.62" cy="-29.53" r="29.28"/>
	<circle class="st2" cx="-1211.62" cy="-29.53" r="9.02"/>
	
		<text transform="matrix(1 0 0 1 -1007.5043 122.955)" class="st2" style="font-family:'SourceSansPro-Semibold'; font-size:78.2938px;">SBA Dark Blue</text>
	
		<text transform="matrix(1 0 0 1 -1004.5297 -9.147)" class="st2" style="font-family:'SourceSansPro-Semibold'; font-size:78.2938px;">Bullseye/Location</text>
	
		<text transform="matrix(1 0 0 1 -998.0316 -122.5049)" class="st2" style="font-family:'SourceSansPro-Semibold'; font-size:78.2938px;">Type</text>
	
		<text transform="matrix(1 0 0 1 -1010.4787 252.9294)" class="st2" style="font-family:'SourceSansPro-Semibold'; font-size:78.2938px;">SBA Blue</text>
	
		<text transform="matrix(1 0 0 1 -1007.5042 372.0581)" class="st2" style="font-family:'SourceSansPro-Semibold'; font-size:78.2938px;">Gray</text>
	
		<text transform="matrix(1 0 0 1 -1007.5043 478.7079)" class="st2" style="font-family:'SourceSansPro-Semibold'; font-size:78.2938px;">State outline Gray</text>
	
		<text transform="matrix(1 0 0 1 -1007.5042 612.6002)" class="st2" style="font-family:'SourceSansPro-Semibold'; font-size:78.2938px;">Boundary outline</text>
	<rect x="-1380.13" y="-268.72" class="st3" width="1097.39" height="955.98"/>
	<circle class="st2" cx="-1102.07" cy="-29.53" r="9.02"/>
	<rect x="-1182.34" y="189.9" class="st4" width="86.7" height="86.7"/>
	<rect x="-1182.34" y="308.13" class="st5" width="86.7" height="86.7"/>
	<rect x="-1182.34" y="418.06" class="st6" width="86.7" height="86.7"/>
	<rect x="-1182.34" y="555.37" class="st7" width="86.7" height="86.7"/>
	<text transform="matrix(1 0 0 1 -1232.7102 -141.0646)"><tspan x="0" y="0" class="st4" style="font-family:'SourceSansPro-Semibold'; font-size:40px;">Area name</tspan><tspan x="183.2" y="0" class="st4" style="font-family:'MyriadPro-Regular'; font-size:19.9851px;"> </tspan><tspan x="56.07" y="28.8" class="st4" style="font-family:'SourceSansPro-Semibold'; font-size:24px;">District</tspan></text>
</g>
<g id="Background">
	<rect x="-11.18" y="-11.39" class="st8" width="804.92" height="529.99"/>
</g>
<g id="Fresno" class="st9">
</g>
<g id="Layer_12">
</g>
<g id="Layer_11">
</g>
<g id="Layer_10">
	<g id="State">
		<g>
			<defs>
				<rect id="SVGID_1_" x="-11.18" y="-8.63" width="658.12" height="523.12"/>
			</defs>
			<clipPath id="SVGID_00000162332460243595116120000003956132532577978029_">
				<use xlink:href="#SVGID_1_"  style="overflow:visible;"/>
			</clipPath>
			<g style="clip-path:url(#SVGID_00000162332460243595116120000003956132532577978029_);">
				<polygon class="st11" points="395.51,369.74 436.65,369.51 434.67,324.7 422.24,328.3 410.5,330.39 395.52,331.5 				"/>
				<polygon class="st12" points="395.51,369.74 436.65,369.51 434.66,324.71 422.24,328.3 410.5,330.39 395.52,331.5 				"/>
				<polygon class="st11" points="362.38,446.1 370.82,446.11 370.82,443.24 400.42,443.23 400.38,420.6 362.43,420.69 				"/>
				<polygon class="st12" points="362.38,446.1 370.82,446.1 370.82,443.24 400.42,443.23 400.38,420.6 362.43,420.69 				"/>
				<polygon class="st11" points="378.64,369.68 378.63,411.9 379.32,420.69 404.58,420.65 404.6,412.14 404.05,412.1 
					403.99,369.72 				"/>
				<polygon class="st12" points="378.64,369.68 378.63,411.9 379.32,420.69 404.58,420.65 404.6,412.14 404.05,412.1 
					403.98,369.72 				"/>
				<polygon class="st11" points="333.35,464.31 336.94,464.35 336.93,460.12 345.5,458.75 345.5,446.03 362.38,446.1 
					362.43,420.69 361.75,410.93 355.44,410.96 355.4,413.64 351.18,413.6 349.06,410.59 344.86,411.76 330.19,411.72 
					327.87,417.37 328.76,419.47 326.4,421.95 325.68,428.31 321.27,434.32 320.68,444.33 322.53,447.54 323.92,454.38 
					326.91,459.12 				"/>
				<polygon class="st12" points="333.35,464.31 336.94,464.35 336.93,460.12 345.5,458.74 345.5,446.03 362.38,446.1 
					362.43,420.69 361.75,410.93 355.44,410.96 355.4,413.64 351.18,413.6 349.06,410.59 344.86,411.76 330.19,411.72 
					327.87,417.37 328.76,419.47 326.4,421.95 325.67,428.31 321.27,434.32 320.68,444.32 322.53,447.54 323.92,454.38 
					326.91,459.12 				"/>
				<polygon class="st11" points="336.34,369.71 336.36,411.7 344.86,411.76 349.06,410.59 351.18,413.6 355.4,413.64 
					355.44,410.96 361.75,410.93 361.84,378.21 353.25,378.23 353.21,369.69 				"/>
				<polygon class="st12" points="336.34,369.71 336.36,411.7 344.86,411.76 349.06,410.59 351.18,413.6 355.4,413.64 
					355.44,410.96 361.75,410.93 361.84,378.21 353.25,378.23 353.21,369.69 				"/>
				<polygon class="st11" points="357.57,369.69 395.51,369.74 395.52,331.5 357.4,334.21 				"/>
				<polygon class="st12" points="357.57,369.69 395.51,369.74 395.52,331.5 357.4,334.21 				"/>
				<polygon class="st11" points="400.42,443.23 400.54,467.49 411.75,475.05 423.23,472.2 434.22,477.9 441.1,471.33 
					439.71,437.59 400.42,437.59 				"/>
				<polygon class="st12" points="400.42,443.23 400.54,467.49 411.74,475.04 423.23,472.2 434.21,477.9 441.1,471.33 
					439.71,437.59 400.42,437.59 				"/>
				<polygon class="st11" points="362.42,472.68 367.44,479.34 385.63,472.55 402.75,470.94 400.54,467.49 400.42,443.23 
					370.82,443.24 370.82,446.11 362.38,446.1 				"/>
				<polygon class="st12" points="362.42,472.68 367.44,479.34 385.63,472.55 402.75,470.94 400.54,467.49 400.42,443.23 
					370.82,443.24 370.82,446.1 362.38,446.1 				"/>
				<polygon class="st11" points="342.53,490.71 353.92,490.44 355.9,484.09 363.96,478.25 362.42,472.68 362.38,446.1 
					345.5,446.03 345.5,458.75 336.93,460.12 336.94,464.35 333.35,464.31 335.77,473.51 338.35,475.86 337.54,478.98 
					339.45,486.84 				"/>
				<polygon class="st12" points="342.53,490.71 353.92,490.44 355.9,484.09 363.95,478.25 362.42,472.68 362.38,446.1 
					345.5,446.03 345.5,458.74 336.93,460.12 336.94,464.35 333.35,464.31 335.77,473.51 338.34,475.85 337.54,478.98 
					339.45,486.84 				"/>
				<polygon class="st11" points="404.6,412.14 438.64,412.11 436.65,369.51 403.99,369.72 404.05,412.1 				"/>
				<polygon class="st12" points="404.6,412.14 438.64,412.11 436.65,369.51 403.98,369.72 404.05,412.1 				"/>
				<polygon class="st11" points="400.42,437.59 439.71,437.59 438.64,412.11 404.6,412.14 404.58,420.65 400.38,420.6 				"/>
				<polygon class="st12" points="400.42,437.59 439.71,437.59 438.64,412.11 404.6,412.14 404.58,420.65 400.38,420.6 				"/>
				<polygon class="st11" points="353.21,369.69 353.25,378.23 361.84,378.21 361.75,410.93 362.43,420.69 379.32,420.69 
					378.63,411.9 378.64,369.68 				"/>
				<polygon class="st12" points="353.21,369.69 353.25,378.23 361.84,378.21 361.75,410.93 362.43,420.69 379.32,420.69 
					378.63,411.9 378.64,369.68 				"/>
				<polygon class="st11" points="247.34,249.06 249.47,252.71 247.6,253.33 250.11,253.35 250.09,256.24 252.98,256.2 
					253.05,260.53 258.6,260.52 261.44,261.92 261.44,264.32 266.01,262.7 270.09,257.75 273.84,257.67 284.43,249.21 291.54,248.6 
					296.19,245.53 299.16,245.29 304.85,239.33 306.09,232.72 310.39,227.52 279.38,214.57 270.14,214.68 270.09,223.19 
					252.88,223.27 244.29,231.86 244.31,234.02 249.72,233.86 247.99,236.41 250.12,238.78 245.72,242.42 252.23,246.39 
					250.59,248.9 249.33,246.37 				"/>
				<polygon class="st12" points="247.34,249.06 249.47,252.71 247.6,253.33 250.11,253.35 250.09,256.24 252.98,256.2 
					253.05,260.53 258.6,260.52 261.43,261.92 261.44,264.32 266,262.7 270.09,257.75 273.84,257.66 284.43,249.21 291.54,248.6 
					296.19,245.53 299.16,245.29 304.85,239.33 306.09,232.72 310.39,227.52 279.38,214.57 270.14,214.68 270.09,223.19 
					252.88,223.27 244.29,231.86 244.31,234.02 249.72,233.86 247.99,236.41 250.12,238.79 245.72,242.42 252.23,246.39 
					250.59,248.9 249.33,246.37 				"/>
				<polygon class="st11" points="313.25,99.22 313.75,101.6 313.7,125.97 326.76,126.06 326.77,129.05 348.56,129.03 348.4,96.53 
					330.77,96.38 330.75,99.3 				"/>
				<polygon class="st12" points="313.25,99.22 313.75,101.6 313.7,125.97 326.76,126.06 326.76,129.05 348.56,129.03 348.39,96.53 
					330.77,96.38 330.74,99.3 				"/>
				<polygon class="st11" points="364.23,222.35 389.33,222.39 406.39,222.92 406.37,187.1 381.74,187.15 381.74,195.89 
					373.04,195.95 373,204.71 364.34,204.76 				"/>
				<polygon class="st12" points="364.23,222.35 389.33,222.39 406.39,222.92 406.37,187.1 381.74,187.15 381.74,195.89 
					373.04,195.95 373,204.71 364.34,204.76 				"/>
				<polygon class="st11" points="209.63,412.03 219.28,412.05 219.35,384.55 216.35,380.71 205.9,375.84 198.78,376.82 
					188.98,381.26 185.3,380.85 183.76,389.77 180.16,391.05 179.26,388.77 176.29,390.21 175.22,393.36 172.33,398.95 
					173.11,401.79 177.32,405.45 177.31,408.15 171.27,412 				"/>
				<polygon class="st12" points="209.62,412.03 219.28,412.05 219.35,384.55 216.35,380.71 205.9,375.83 198.78,376.82 
					188.98,381.25 185.3,380.84 183.76,389.77 180.16,391.05 179.26,388.77 176.29,390.21 175.22,393.36 172.33,398.95 
					173.11,401.79 177.32,405.45 177.31,408.15 171.27,412 				"/>
				<polygon class="st11" points="348.6,148.05 348.64,169.81 359.07,169.76 369.05,163.95 375.75,162.52 383.45,162.48 
					383.45,159.61 389.26,159.6 389.27,152.27 387.95,152.27 387.93,141.86 374.84,141.94 374.83,143.59 348.58,143.63 				"/>
				<polygon class="st12" points="348.6,148.05 348.64,169.81 359.07,169.76 369.05,163.95 375.75,162.52 383.45,162.48 
					383.45,159.61 389.26,159.6 389.26,152.27 387.95,152.27 387.93,141.86 374.84,141.94 374.83,143.59 348.58,143.62 				"/>
				<polygon class="st11" points="210.45,214.46 231.43,214.81 231.41,205.9 249.11,206.03 250.91,195.5 246.51,192.42 
					247.91,188.73 243.96,188.69 243.98,162.86 206.34,162.86 209.03,165.98 204.71,171.89 210.18,170.58 210.59,166.02 
					213.88,168.52 213.31,172.77 206.87,175.29 210.45,177.8 214.25,176.92 217.82,170.23 219.45,172.92 212.46,180.86 
					212.54,185.9 215.96,191.91 217.25,188.01 220.66,188.27 216.66,193.63 217,201.15 215.61,202.5 209,201.5 207.55,204.83 
					213.92,209.21 213.55,212.24 				"/>
				<polygon class="st12" points="210.45,214.45 231.43,214.81 231.41,205.9 249.11,206.03 250.91,195.5 246.51,192.42 
					247.91,188.73 243.96,188.69 243.98,162.86 206.34,162.86 209.03,165.98 204.71,171.89 210.18,170.58 210.59,166.02 
					213.88,168.51 213.31,172.77 206.87,175.29 210.45,177.8 214.25,176.92 217.82,170.23 219.45,172.91 212.45,180.86 
					212.54,185.9 215.96,191.91 217.25,188 220.66,188.27 216.66,193.63 217,201.15 215.61,202.5 209,201.5 207.55,204.83 
					213.92,209.21 213.55,212.24 				"/>
				<polygon class="st11" points="219.87,302.09 219.44,296.51 224.05,298.37 221.73,302.44 221.78,303.06 231.12,306.37 
					231.98,301.34 234.07,303.05 243.09,299.19 241.69,296.78 246.89,292.17 249.61,285.02 249.86,279.44 255.29,280.83 
					254.58,277.45 258.78,270.47 257.26,266.92 261.44,264.32 261.44,261.92 258.6,260.52 253.05,260.53 252.98,256.2 
					250.09,256.24 250.11,253.35 247.6,253.33 246.91,258.52 235.9,257.65 235.83,270.79 228.35,270.57 227.34,273.83 
					227.29,257.61 220.66,257.54 218.48,258.87 218.02,260.46 225.28,265.39 224.29,266.82 220.19,265.22 216.49,260.22 
					214.58,265.06 216.51,269.28 222.01,271.59 224.38,269.99 227.08,271.59 223.9,278.17 225.4,279.69 231.59,280.9 234.65,277.55 
					231.27,284.44 228.64,286.42 226.28,285.14 226.83,289.51 224.32,295.51 224.05,292.37 220.42,290.59 210.57,295.06 
					210.74,301.26 				"/>
				<polygon class="st12" points="219.87,302.09 219.44,296.51 224.05,298.37 221.73,302.44 221.78,303.06 231.12,306.37 
					231.98,301.34 234.07,303.05 243.09,299.19 241.69,296.78 246.89,292.17 249.61,285.02 249.86,279.44 255.29,280.83 
					254.58,277.45 258.78,270.47 257.25,266.92 261.44,264.32 261.43,261.92 258.6,260.52 253.05,260.53 252.98,256.2 
					250.09,256.24 250.11,253.35 247.6,253.33 246.91,258.53 235.9,257.64 235.83,270.79 228.35,270.57 227.34,273.83 227.29,257.6 
					220.66,257.54 218.48,258.87 218.02,260.46 225.28,265.39 224.29,266.82 220.19,265.22 216.49,260.22 214.58,265.06 
					216.51,269.28 222.01,271.6 224.38,269.99 227.08,271.6 223.9,278.17 225.4,279.69 231.59,280.9 234.65,277.55 231.27,284.44 
					228.64,286.42 226.28,285.14 226.83,289.51 224.32,295.51 224.05,292.37 220.42,290.59 210.57,295.06 210.74,301.26 				"/>
				<polygon class="st11" points="285.87,377.85 285.94,411.87 321.21,411.75 321.21,404.66 314.14,404.68 312.7,399.02 
					307.06,399.08 307.04,394.87 304.89,394.86 304.19,389.2 304.23,379.25 300.69,379.95 298.5,377.79 				"/>
				<polygon class="st12" points="285.87,377.85 285.94,411.87 321.21,411.75 321.21,404.66 314.13,404.68 312.69,399.02 
					307.06,399.08 307.04,394.87 304.89,394.86 304.19,389.19 304.23,379.25 300.69,379.95 298.5,377.79 				"/>
				<polygon class="st11" points="370.3,77.54 396.73,77.56 396.74,79.02 405.39,79.02 405.37,76.08 408.31,76.1 408.34,65.89 
					412.74,64.47 412.83,55.62 370.36,55.51 				"/>
				<polygon class="st12" points="370.3,77.54 396.73,77.56 396.74,79.02 405.39,79.02 405.37,76.08 408.31,76.1 408.34,65.89 
					412.74,64.47 412.83,55.62 370.36,55.51 				"/>
				<polygon class="st11" points="260.15,62.86 274.29,73.07 282.41,73 282.22,64.4 291.02,64.25 291.02,59.88 288.24,56.4 
					287.56,52.63 289.46,50.59 288.29,45.28 290.87,42.68 290.72,28.89 279.21,28.89 273.58,31.66 271.85,30.81 271.06,26.43 
					268.74,25.78 267.26,28.79 269.51,32.64 268.23,34.76 269.88,41.1 264.24,41.91 265.8,37.56 264.7,34.83 261.94,37.12 
					262.97,40.07 260.3,42.78 262.08,44.93 267.37,44.98 269.04,46.4 264.49,52.14 262.03,52.12 262.45,46.41 258.56,48.08 
					259.12,54.84 262.1,58.97 				"/>
				<polygon class="st12" points="260.15,62.86 274.29,73.07 282.41,73 282.22,64.4 291.01,64.25 291.01,59.88 288.23,56.4 
					287.56,52.63 289.46,50.59 288.28,45.29 290.87,42.68 290.72,28.88 279.21,28.88 273.58,31.66 271.85,30.81 271.06,26.43 
					268.74,25.78 267.26,28.79 269.51,32.64 268.23,34.76 269.88,41.1 264.24,41.91 265.8,37.56 264.7,34.83 261.93,37.12 
					262.97,40.07 260.3,42.78 262.08,44.93 267.37,44.98 269.04,46.4 264.49,52.14 262.03,52.12 262.45,46.41 258.56,48.08 
					259.12,54.84 262.1,58.97 				"/>
				<polygon class="st11" points="443.6,39.51 446.53,41.02 446.65,69.05 461.05,69.09 465.91,25.66 461.19,22.59 457.4,15.16 
					443.8,15.17 				"/>
				<polygon class="st12" points="443.6,39.51 446.53,41.02 446.65,69.05 461.05,69.09 465.91,25.66 461.19,22.59 457.4,15.16 
					443.8,15.17 				"/>
				<polygon class="st11" points="383.44,55.45 414.3,55.62 414.24,39.39 411.36,39.37 411.37,29.05 405.5,29.07 405.52,15.2 
					389.38,15.22 389.34,29.06 387.87,33.46 383.47,33.46 				"/>
				<polygon class="st12" points="383.44,55.44 414.3,55.62 414.24,39.39 411.36,39.37 411.37,29.05 405.5,29.07 405.52,15.2 
					389.38,15.22 389.34,29.06 387.87,33.46 383.47,33.46 				"/>
				<polygon class="st11" points="291.02,59.88 335.16,59.88 335.09,46.58 330.66,46.61 330.56,37.84 314.82,37.8 311.36,42.42 
					303.3,43.91 299.09,41.95 296.82,39.02 293.57,39.2 288.29,45.28 289.46,50.59 287.56,52.63 288.24,56.4 				"/>
				<polygon class="st12" points="291.01,59.88 335.16,59.88 335.09,46.58 330.66,46.61 330.56,37.84 314.82,37.8 311.36,42.42 
					303.3,43.91 299.09,41.95 296.82,39.02 293.57,39.2 288.28,45.29 289.46,50.59 287.56,52.63 288.23,56.4 				"/>
				<polygon class="st11" points="269.95,134.67 292.35,134.86 292.1,139.25 283.03,140.7 281.43,143.24 282.48,145.89 
					285.15,146.1 286.55,142.77 296.16,143.65 296.19,134.86 309.35,134.82 313.69,133.4 313.75,101.6 313.25,99.22 311,99.7 
					296.27,99.64 296.25,108.41 270,108.41 				"/>
				<polygon class="st12" points="269.95,134.67 292.35,134.86 292.1,139.25 283.03,140.7 281.42,143.24 282.48,145.89 
					285.15,146.1 286.54,142.77 296.16,143.65 296.19,134.86 309.35,134.82 313.69,133.4 313.75,101.6 313.25,99.22 311,99.7 
					296.27,99.64 296.25,108.41 270,108.41 				"/>
				<polygon class="st11" points="243.98,162.86 243.96,188.69 261.26,188.64 261.3,182.83 269.82,182.8 270,117.17 252.85,116.98 
					252.72,154.18 243.98,154.19 				"/>
				<polygon class="st12" points="243.98,162.86 243.96,188.69 261.26,188.64 261.3,182.83 269.82,182.8 270,117.17 252.85,116.98 
					252.72,154.18 243.98,154.19 				"/>
				<polygon class="st11" points="330,292.49 330.02,309.67 335.68,309.66 336.32,312.95 336.43,335.81 364.45,333.7 364.11,326.63 
					363.94,292.33 				"/>
				<polygon class="st12" points="330,292.49 330.02,309.67 335.68,309.66 336.32,312.95 336.43,335.81 364.45,333.7 364.11,326.63 
					363.94,292.33 				"/>
				<polygon class="st11" points="288.38,309.41 286.93,311.25 293.69,321.52 296.51,328.33 294.32,329.68 295,333.92 
					298.31,334.96 297.34,338.54 336.43,335.81 336.32,312.95 335.68,309.66 				"/>
				<polygon class="st12" points="288.38,309.41 286.93,311.25 293.69,321.52 296.51,328.33 294.32,329.67 295,333.92 
					298.31,334.96 297.34,338.54 336.43,335.81 336.32,312.95 335.68,309.66 				"/>
				<polygon class="st11" points="247.34,249.06 249.33,246.37 250.59,248.9 252.23,246.39 245.72,242.42 250.12,238.78 
					247.99,236.41 249.72,233.86 244.31,234.02 244.29,231.86 252.88,223.27 252.77,205.99 231.41,205.9 231.45,221.11 
					227.31,231.63 227.22,248.99 				"/>
				<polygon class="st12" points="247.34,249.06 249.33,246.37 250.59,248.9 252.23,246.39 245.72,242.42 250.12,238.79 
					247.99,236.41 249.72,233.86 244.31,234.02 244.29,231.86 252.88,223.27 252.77,205.99 231.41,205.9 231.45,221.11 
					227.31,231.63 227.22,248.99 				"/>
				<polygon class="st11" points="325.52,256.49 330.02,279.6 330,292.49 363.94,292.33 363.95,257.53 330.01,257.45 330,251.82 
									"/>
				<polygon class="st12" points="325.52,256.49 330.02,279.6 330,292.49 363.94,292.33 363.95,257.53 330.01,257.45 330,251.81 
									"/>
				<polygon class="st11" points="330.02,309.67 330.02,279.6 325.52,256.49 319.46,256.67 314.94,262.24 310.71,265.93 
					306.01,267.27 304.16,270.83 301.82,271.18 302.08,274.99 299.17,276.68 298.38,280.42 294.02,284.23 290.46,289.53 
					292.08,292.71 291.32,295.83 287.12,297.45 287.08,305.22 288.38,309.41 				"/>
				<polygon class="st12" points="330.02,309.67 330.02,279.6 325.52,256.49 319.46,256.67 314.94,262.24 310.71,265.93 
					306.01,267.27 304.16,270.83 301.82,271.18 302.08,274.99 299.17,276.68 298.38,280.42 294.02,284.23 290.46,289.53 
					292.08,292.71 291.32,295.83 287.12,297.45 287.08,305.22 288.38,309.41 				"/>
				<polygon class="st11" points="270,108.41 296.25,108.41 296.36,89.06 291.39,85.41 291.02,64.25 282.22,64.4 282.41,73 
					274.29,73.07 274.33,89.43 270.03,89.34 				"/>
				<polygon class="st12" points="270,108.41 296.25,108.41 296.36,89.06 291.39,85.41 291.01,64.25 282.22,64.4 282.41,73 
					274.29,73.07 274.33,89.43 270.03,89.34 				"/>
				<polygon class="st11" points="428.94,68.88 446.65,69.05 446.53,41.02 443.6,39.51 414.24,39.39 414.3,55.62 412.83,55.62 
					412.74,64.47 428.96,64.44 				"/>
				<polygon class="st12" points="428.94,68.88 446.65,69.05 446.53,41.02 443.6,39.51 414.24,39.39 414.3,55.62 412.83,55.62 
					412.74,64.47 428.96,64.44 				"/>
				<polygon class="st11" points="370.3,77.54 370.46,108.31 405.42,108.21 405.39,79.02 396.74,79.02 396.73,77.56 				"/>
				<polygon class="st12" points="370.3,77.54 370.46,108.31 405.42,108.21 405.39,79.02 396.74,79.02 396.73,77.56 				"/>
				<polygon class="st11" points="261.95,411.97 285.94,411.87 285.87,377.85 261.91,377.92 				"/>
				<polygon class="st12" points="261.95,411.97 285.94,411.87 285.87,377.85 261.91,377.92 				"/>
				<polygon class="st11" points="291.02,64.25 291.39,85.41 296.36,89.06 296.27,99.64 311,99.7 313.25,99.22 330.75,99.3 
					330.75,59.89 291.02,59.88 				"/>
				<polygon class="st12" points="291.01,64.25 291.39,85.41 296.36,89.06 296.27,99.64 311,99.7 313.25,99.22 330.74,99.3 
					330.75,59.88 291.01,59.88 				"/>
				<polygon class="st11" points="383.45,162.48 383.45,187.14 418.36,187.05 418.15,159.3 383.45,159.61 				"/>
				<polygon class="st12" points="383.45,162.48 383.45,187.14 418.36,187.05 418.15,159.3 383.45,159.61 				"/>
				<polygon class="st11" points="406.37,187.1 406.39,222.92 445.1,222.61 448.72,186.91 				"/>
				<polygon class="st12" points="406.37,187.1 406.39,222.92 445.1,222.61 448.72,186.91 				"/>
				<polygon class="st11" points="363.94,292.33 397.98,292.26 397.92,257.47 363.95,257.53 				"/>
				<polygon class="st12" points="363.94,292.33 397.98,292.26 397.92,257.47 363.95,257.53 				"/>
				<polygon class="st11" points="364.36,257.52 397.92,257.47 397.93,222.86 389.33,222.39 364.23,222.35 				"/>
				<polygon class="st12" points="364.36,257.52 397.92,257.47 397.93,222.86 389.33,222.39 364.23,222.35 				"/>
				<polygon class="st11" points="325.29,148.14 325.43,174.15 331.21,174.1 331.23,175.57 337,175.53 337.08,187.19 353.02,187.15 
					353,172.46 355.68,172.83 359.07,169.76 348.64,169.81 348.6,148.05 				"/>
				<polygon class="st12" points="325.29,148.14 325.43,174.15 331.21,174.1 331.23,175.57 337,175.53 337.08,187.19 353.02,187.15 
					353,172.46 355.68,172.83 359.07,169.76 348.64,169.81 348.6,148.05 				"/>
				<polygon class="st11" points="414.12,134.69 414.15,147.78 432.43,147.82 431.28,150.8 432.73,149.4 439.23,148.87 
					442.78,147.29 446.89,143.26 447.05,141.23 453.34,141.3 457.09,107.03 414.22,106.75 				"/>
				<polygon class="st12" points="414.12,134.69 414.15,147.78 432.43,147.82 431.28,150.8 432.73,149.4 439.23,148.87 
					442.78,147.29 446.89,143.26 447.05,141.23 453.34,141.3 457.09,107.03 414.22,106.75 				"/>
				<polygon class="st11" points="330.5,15.24 330.66,46.61 335.09,46.58 335.16,59.88 351.13,59.89 355.46,63.42 361.37,62.62 
					366.41,63.64 370.32,65.82 370.36,56.96 365.97,56.99 365.9,30.51 361.44,30.51 361.44,15.33 				"/>
				<polygon class="st12" points="330.5,15.24 330.66,46.61 335.09,46.58 335.16,59.88 351.13,59.89 355.46,63.42 361.37,62.62 
					366.41,63.65 370.32,65.82 370.36,56.96 365.97,56.99 365.89,30.51 361.44,30.51 361.44,15.33 				"/>
				<polygon class="st11" points="304.23,379.25 304.19,389.2 304.89,394.86 307.04,394.87 307.06,399.08 312.7,399.02 
					314.14,404.68 321.21,404.66 321.21,411.75 336.36,411.7 336.34,369.71 322.19,369.68 322.26,373.98 304.18,373.53 				"/>
				<polygon class="st12" points="304.23,379.25 304.19,389.19 304.89,394.86 307.04,394.87 307.06,399.08 312.69,399.02 
					314.13,404.68 321.21,404.66 321.21,411.75 336.36,411.7 336.34,369.71 322.19,369.68 322.26,373.98 304.18,373.53 				"/>
				<polygon class="st11" points="302.08,274.99 301.82,271.18 304.16,270.83 306.01,267.27 310.71,265.93 314.94,262.24 
					319.46,256.67 325.52,256.49 330,251.82 330.03,227.01 310.39,227.52 306.09,232.72 304.85,239.33 299.16,245.29 296.19,245.53 
					291.54,248.6 284.43,249.21 273.84,257.67 270.09,257.75 270.09,266.27 287.27,266.31 287.28,274.95 				"/>
				<polygon class="st12" points="302.08,274.99 301.82,271.18 304.16,270.83 306.01,267.27 310.71,265.93 314.94,262.24 
					319.46,256.67 325.52,256.49 330,251.81 330.03,227.01 310.39,227.52 306.09,232.72 304.85,239.33 299.16,245.29 296.19,245.53 
					291.54,248.6 284.43,249.21 273.84,257.66 270.09,257.75 270.09,266.27 287.27,266.31 287.28,274.95 				"/>
				<polygon class="st11" points="418.36,187.05 448.72,186.91 453.34,141.3 447.05,141.23 446.89,143.26 442.78,147.29 
					439.23,148.87 432.73,149.4 431.28,150.8 432.06,154.47 434.54,156 432.85,157.86 434.07,163.53 430.42,160.72 427.94,163.64 
					424.01,165.02 418.17,165.18 				"/>
				<polygon class="st12" points="418.36,187.05 448.72,186.91 453.34,141.3 447.05,141.23 446.89,143.26 442.78,147.29 
					439.23,148.87 432.73,149.4 431.28,150.8 432.06,154.47 434.54,156 432.85,157.86 434.07,163.53 430.42,160.72 427.94,163.64 
					424.01,165.02 418.17,165.18 				"/>
				<polygon class="st11" points="246.17,352.39 254.83,352.36 254.82,377.96 287.24,377.85 287.14,341.99 284.24,343.71 
					246.21,343.84 				"/>
				<polygon class="st12" points="246.16,352.39 254.83,352.36 254.82,377.96 287.24,377.85 287.13,341.98 284.24,343.71 
					246.21,343.84 				"/>
				<polygon class="st11" points="269.82,182.8 269.77,189 273.15,192.19 276.45,191.5 278.93,184.84 279.94,185.47 284.27,181.81 
					280.78,178.26 293.01,182.42 293,174.08 296.08,174.13 296.09,169.88 299.11,169.9 298.98,149.74 296.85,148.11 296.16,143.65 
					286.55,142.77 285.15,146.1 282.48,145.89 281.43,143.24 283.03,140.7 292.1,139.25 292.35,134.86 269.95,134.67 				"/>
				<polygon class="st12" points="269.82,182.8 269.77,189 273.15,192.19 276.45,191.5 278.93,184.84 279.94,185.46 284.27,181.81 
					280.78,178.26 293.01,182.42 293,174.08 296.08,174.13 296.09,169.88 299.11,169.9 298.97,149.74 296.85,148.11 296.16,143.65 
					286.54,142.77 285.15,146.1 282.48,145.89 281.42,143.24 283.03,140.7 292.1,139.25 292.35,134.86 269.95,134.67 				"/>
				<polygon class="st11" points="405.42,108.21 414.2,108.25 414.22,106.75 428.82,106.79 428.96,64.44 412.74,64.47 408.34,65.89 
					408.31,76.1 405.37,76.08 				"/>
				<polygon class="st12" points="405.42,108.21 414.2,108.25 414.22,106.75 428.82,106.79 428.96,64.44 412.74,64.47 408.34,65.89 
					408.31,76.1 405.37,76.08 				"/>
				<polygon class="st11" points="363.95,257.53 364.36,257.52 364.23,222.35 330.01,222.53 330.01,257.45 				"/>
				<polygon class="st12" points="363.95,257.53 364.36,257.52 364.23,222.35 330.01,222.53 330.01,257.45 				"/>
				<polygon class="st11" points="287.24,377.85 298.5,377.79 300.69,379.95 304.23,379.25 304.18,373.53 310.97,373.93 
					310.95,361.06 309.54,361.05 309.67,337.66 297.34,338.54 287.14,341.99 				"/>
				<polygon class="st12" points="287.24,377.85 298.5,377.79 300.69,379.95 304.23,379.25 304.18,373.53 310.97,373.93 
					310.95,361.06 309.54,361.05 309.66,337.66 297.34,338.54 287.13,341.98 				"/>
				<polygon class="st11" points="397.98,292.26 438.14,291.91 441.69,257.36 397.92,257.47 				"/>
				<polygon class="st12" points="397.98,292.26 438.14,291.91 441.69,257.36 397.92,257.47 				"/>
				<polygon class="st11" points="330.77,96.38 348.4,96.53 348.37,99.44 370.37,99.53 370.32,65.82 366.41,63.64 361.37,62.62 
					355.46,63.42 351.13,59.89 330.75,59.89 				"/>
				<polygon class="st12" points="330.77,96.38 348.39,96.53 348.37,99.44 370.37,99.53 370.32,65.82 366.41,63.65 361.37,62.62 
					355.46,63.42 351.13,59.89 330.75,59.88 				"/>
				<polygon class="st11" points="397.92,257.47 441.69,257.36 445.1,222.61 397.93,222.86 				"/>
				<polygon class="st12" points="397.92,257.47 441.69,257.36 445.1,222.61 397.93,222.86 				"/>
				<polygon class="st11" points="310.97,373.93 322.26,373.98 322.19,369.68 341.95,369.72 341.94,361.94 337.56,357.44 
					334.83,356.95 327.9,352.52 327.94,336.39 309.67,337.66 309.54,361.05 310.95,361.06 				"/>
				<polygon class="st12" points="310.97,373.93 322.26,373.98 322.19,369.68 341.95,369.72 341.94,361.94 337.56,357.44 
					334.83,356.95 327.9,352.52 327.94,336.39 309.66,337.66 309.54,361.05 310.95,361.06 				"/>
				<polygon class="st11" points="197.83,338.82 200.01,344.52 199.32,346.41 204.89,350.62 211.49,350.5 211.48,352.49 
					246.17,352.39 246.25,335.27 236.54,335.34 237.44,331.31 223.15,327.84 203.64,327.07 203.85,330.65 200.72,332.36 
					199.76,327.98 196.12,328.88 193.86,337.75 200.37,336.65 202.65,337.95 				"/>
				<polygon class="st12" points="197.83,338.83 200.01,344.52 199.32,346.41 204.89,350.62 211.49,350.5 211.48,352.49 
					246.16,352.39 246.25,335.27 236.54,335.34 237.44,331.31 223.15,327.84 203.64,327.07 203.85,330.65 200.72,332.36 
					199.76,327.98 196.12,328.88 193.86,337.75 200.37,336.65 202.65,337.95 				"/>
				<polygon class="st11" points="364.45,333.7 398.26,331.3 397.98,292.26 363.94,292.33 364.11,326.63 				"/>
				<polygon class="st12" points="364.45,333.7 398.26,331.3 397.98,292.26 363.94,292.33 364.11,326.63 				"/>
				<polygon class="st11" points="457.09,107.03 461.05,69.09 428.94,68.88 428.82,106.79 				"/>
				<polygon class="st12" points="457.09,107.03 461.05,69.09 428.94,68.88 428.82,106.79 				"/>
				<polygon class="st11" points="210.45,214.46 210.47,215.17 207.49,219.43 206.58,223.31 210.65,225.55 213.36,222.83 
					213.05,217.55 217.07,217.93 218.9,222.87 218.42,226.62 212.34,230.98 210.83,234.17 210.69,240.66 219.23,242.59 
					218.97,245.02 211.58,251.16 213.88,256.66 220.15,254.48 222.15,250.59 224,252.74 220.66,257.54 227.29,257.61 227.34,273.83 
					228.35,270.57 235.83,270.79 235.9,257.65 246.91,258.52 247.6,253.33 249.47,252.71 247.34,249.06 227.22,248.99 
					227.31,231.63 231.45,221.11 231.43,214.81 				"/>
				<polygon class="st12" points="210.45,214.45 210.47,215.17 207.49,219.43 206.58,223.31 210.65,225.55 213.36,222.83 
					213.05,217.55 217.07,217.93 218.9,222.87 218.42,226.62 212.34,230.98 210.83,234.17 210.69,240.66 219.23,242.58 
					218.97,245.02 211.58,251.16 213.88,256.66 220.15,254.48 222.15,250.59 224,252.75 220.66,257.54 227.29,257.6 227.34,273.83 
					228.35,270.57 235.83,270.79 235.9,257.64 246.91,258.53 247.6,253.33 249.47,252.71 247.34,249.06 227.22,248.99 
					227.31,231.63 231.45,221.11 231.43,214.81 				"/>
				<polygon class="st11" points="247.91,188.73 246.51,192.42 250.91,195.5 249.11,206.03 252.77,205.99 252.88,223.27 
					270.09,223.19 270.14,214.68 277.25,214.52 275.93,211.4 271.77,209.52 272.71,204.18 276.5,207.24 280.05,202.14 
					279.94,185.47 278.93,184.84 276.45,191.5 273.15,192.19 269.77,189 269.82,182.8 261.3,182.83 261.26,188.64 				"/>
				<polygon class="st12" points="247.91,188.73 246.51,192.42 250.91,195.5 249.11,206.03 252.77,205.99 252.88,223.27 
					270.09,223.19 270.14,214.68 277.25,214.52 275.93,211.39 271.77,209.52 272.71,204.18 276.5,207.24 280.05,202.14 
					279.94,185.46 278.93,184.84 276.45,191.5 273.15,192.19 269.77,189 269.82,182.8 261.3,182.83 261.26,188.64 				"/>
				<polygon class="st11" points="277.25,214.52 279.38,214.57 310.39,227.52 316.13,222.27 316.85,217.52 322.14,209.21 
					322.25,204.35 324.52,203.19 325.95,196.57 328.41,194.26 280.78,178.26 284.27,181.81 279.94,185.47 280.05,202.14 
					276.5,207.24 272.71,204.18 271.77,209.52 275.93,211.4 				"/>
				<polygon class="st12" points="277.25,214.52 279.38,214.57 310.39,227.52 316.13,222.27 316.85,217.52 322.14,209.21 
					322.25,204.35 324.52,203.19 325.95,196.57 328.4,194.26 280.78,178.26 284.27,181.81 279.94,185.46 280.05,202.14 
					276.5,207.24 272.71,204.18 271.77,209.52 275.93,211.39 				"/>
				<polygon class="st11" points="247.75,309.54 288.38,309.41 287.08,305.22 287.12,297.45 291.32,295.83 292.08,292.71 
					290.46,289.53 294.02,284.23 298.38,280.42 299.17,276.68 302.08,274.99 287.28,274.95 287.27,266.31 270.09,266.27 
					270.09,257.75 266.01,262.7 261.44,264.32 257.26,266.92 258.78,270.47 254.58,277.45 255.29,280.83 249.86,279.44 
					249.61,285.02 246.89,292.17 				"/>
				<polygon class="st12" points="247.75,309.54 288.38,309.41 287.08,305.22 287.12,297.45 291.32,295.83 292.08,292.71 
					290.46,289.53 294.02,284.23 298.38,280.42 299.17,276.68 302.08,274.99 287.28,274.95 287.27,266.31 270.09,266.27 
					270.09,257.75 266,262.7 261.44,264.32 257.25,266.92 258.78,270.47 254.58,277.45 255.29,280.83 249.86,279.44 249.61,285.02 
					246.89,292.17 				"/>
				<polygon class="st11" points="296.85,148.11 348.6,148.05 348.56,129.03 326.77,129.05 326.76,126.06 313.7,125.97 
					313.69,133.4 309.35,134.82 296.19,134.86 296.16,143.65 				"/>
				<polygon class="st12" points="296.85,148.11 348.6,148.05 348.56,129.03 326.76,129.05 326.76,126.06 313.7,125.97 
					313.69,133.4 309.35,134.82 296.19,134.86 296.16,143.65 				"/>
				<polygon class="st11" points="211.12,378.21 216.35,380.71 225.71,378.01 254.82,377.96 254.83,352.36 211.48,352.49 				"/>
				<polygon class="st12" points="211.12,378.21 216.35,380.71 225.71,378.01 254.82,377.96 254.83,352.36 211.48,352.49 				"/>
				<polygon class="st11" points="282.2,28.86 290.72,28.89 290.87,42.68 293.57,39.2 296.82,39.02 299.09,41.95 303.3,43.91 
					311.36,42.42 314.82,37.8 330.56,37.84 330.5,15.24 281.8,15.14 286.33,19.22 286.73,24.13 281.45,27.74 				"/>
				<polygon class="st12" points="282.2,28.86 290.72,28.88 290.87,42.68 293.57,39.2 296.82,39.02 299.09,41.95 303.3,43.91 
					311.36,42.42 314.82,37.8 330.56,37.84 330.5,15.24 281.8,15.14 286.33,19.22 286.73,24.12 281.45,27.74 				"/>
				<polygon class="st11" points="341.95,369.72 357.57,369.69 357.4,334.21 327.94,336.39 327.9,352.52 334.83,356.95 
					337.56,357.44 341.94,361.94 				"/>
				<polygon class="st12" points="341.95,369.72 357.57,369.69 357.4,334.21 327.94,336.39 327.9,352.52 334.83,356.95 
					337.56,357.44 341.94,361.94 				"/>
				<polygon class="st11" points="287.14,341.99 297.34,338.54 298.31,334.96 295,333.92 294.32,329.68 296.51,328.33 
					293.69,321.52 286.93,311.25 288.38,309.41 247.75,309.54 247.87,329.54 246.25,335.27 246.21,343.84 284.24,343.71 				"/>
				<polygon class="st12" points="287.13,341.98 297.34,338.54 298.31,334.96 295,333.92 294.32,329.67 296.51,328.33 
					293.69,321.52 286.93,311.25 288.38,309.41 247.75,309.54 247.87,329.54 246.25,335.27 246.21,343.84 284.24,343.71 				"/>
				<polygon class="st11" points="252.85,116.98 270,117.17 270.03,89.34 274.33,89.43 274.29,73.07 260.15,62.86 258.44,66.91 
					260.39,72.49 259.2,74.4 252.73,77.92 252.82,82.8 249.85,83.27 251.21,78.35 244.59,78.77 243.84,81.24 245.87,84.9 
					243.84,87.52 238.17,89.15 236.97,94.97 229.54,92.07 233.63,97.44 239.56,97.34 240.35,99.28 237.02,101.97 231.79,99.1 
					227.96,103.66 252.64,103.79 				"/>
				<polygon class="st12" points="252.85,116.98 270,117.17 270.03,89.34 274.33,89.43 274.29,73.07 260.15,62.86 258.44,66.91 
					260.38,72.49 259.2,74.4 252.73,77.92 252.82,82.8 249.85,83.27 251.21,78.35 244.59,78.77 243.84,81.24 245.87,84.9 
					243.84,87.52 238.17,89.15 236.97,94.97 229.54,92.07 233.63,97.44 239.56,97.34 240.35,99.28 237.01,101.97 231.79,99.1 
					227.96,103.66 252.64,103.79 				"/>
				<polygon class="st11" points="389.26,159.6 418.15,159.3 418.17,165.18 424.01,165.02 427.94,163.64 430.42,160.72 
					434.07,163.53 432.85,157.86 434.54,156 432.06,154.47 431.28,150.8 432.43,147.82 414.15,147.78 414.12,134.69 396.53,134.55 
					396.5,140.37 387.91,140.38 387.95,152.27 389.27,152.27 				"/>
				<polygon class="st12" points="389.26,159.6 418.15,159.3 418.17,165.18 424.01,165.02 427.94,163.64 430.42,160.72 
					434.07,163.53 432.85,157.86 434.54,156 432.06,154.47 431.28,150.8 432.43,147.82 414.15,147.78 414.12,134.69 396.53,134.55 
					396.5,140.37 387.91,140.38 387.95,152.27 389.26,152.27 				"/>
				<polygon class="st11" points="398.26,331.3 410.5,330.39 422.24,328.3 434.67,324.7 438.14,291.91 397.98,292.26 				"/>
				<polygon class="st12" points="398.26,331.3 410.5,330.39 422.24,328.3 434.66,324.71 438.14,291.91 397.98,292.26 				"/>
				<polygon class="st11" points="246.25,335.27 247.87,329.54 247.75,309.54 246.89,292.17 241.69,296.78 243.09,299.19 
					234.07,303.05 231.98,301.34 231.12,306.37 221.78,303.06 217.63,306.52 217.56,309.59 213.59,306.77 210.87,307.55 
					212.21,309.72 216.52,310.67 217.98,312.64 215.4,315.33 210.61,316 208.63,318.08 209.26,322.34 203.64,327.07 223.15,327.84 
					237.44,331.31 236.54,335.34 				"/>
				<polygon class="st12" points="246.25,335.27 247.87,329.54 247.75,309.54 246.89,292.17 241.69,296.78 243.09,299.19 
					234.07,303.05 231.98,301.34 231.12,306.37 221.78,303.06 217.63,306.52 217.56,309.59 213.59,306.77 210.87,307.55 
					212.21,309.72 216.52,310.67 217.97,312.64 215.39,315.33 210.61,316 208.63,318.08 209.26,322.34 203.64,327.07 223.15,327.84 
					237.44,331.31 236.54,335.34 				"/>
				<polygon class="st11" points="364.34,204.76 373,204.71 373.04,195.95 381.74,195.89 381.74,187.15 383.45,187.14 
					383.45,162.48 375.75,162.52 369.05,163.95 359.07,169.76 355.68,172.83 353,172.46 353.02,187.15 364.46,187.18 				"/>
				<polygon class="st12" points="364.34,204.76 373,204.71 373.04,195.95 381.74,195.89 381.74,187.15 383.45,187.14 
					383.45,162.48 375.75,162.52 369.05,163.95 359.07,169.76 355.68,172.83 353,172.46 353.02,187.15 364.46,187.18 				"/>
				<polygon class="st11" points="387.93,141.86 387.91,140.38 396.5,140.37 396.53,134.55 414.12,134.69 414.2,108.25 
					379.22,108.29 379.32,134.58 374.99,134.62 374.84,141.94 				"/>
				<polygon class="st12" points="387.93,141.86 387.91,140.38 396.5,140.37 396.53,134.55 414.12,134.69 414.2,108.25 
					379.22,108.29 379.32,134.58 374.99,134.62 374.84,141.94 				"/>
				<polygon class="st11" points="328.41,194.26 332.39,187.19 337.08,187.19 337,175.53 331.23,175.57 331.21,174.1 325.43,174.15 
					325.29,148.14 296.85,148.11 298.98,149.74 299.11,169.9 296.09,169.88 296.08,174.13 293,174.08 293.01,182.42 				"/>
				<polygon class="st12" points="328.4,194.26 332.39,187.19 337.08,187.19 337,175.53 331.23,175.57 331.21,174.1 325.43,174.15 
					325.29,148.14 296.85,148.11 298.97,149.74 299.11,169.9 296.09,169.88 296.08,174.13 293,174.08 293.01,182.42 				"/>
				<polygon class="st11" points="348.37,99.44 348.58,143.63 374.83,143.59 374.99,134.62 379.32,134.58 379.22,108.29 
					370.46,108.31 370.37,99.53 				"/>
				<polygon class="st12" points="348.37,99.44 348.58,143.62 374.83,143.59 374.99,134.62 379.32,134.58 379.22,108.29 
					370.46,108.31 370.37,99.53 				"/>
				<polygon class="st11" points="206.34,162.86 243.98,162.86 243.98,154.19 252.72,154.18 252.64,103.79 227.96,103.66 
					230.85,106.29 235.06,107.26 232.88,113.26 225.3,113.83 227.49,117.75 224.29,119.11 222.72,115.41 216.98,118.21 
					216.95,119.74 223.44,122.82 218.22,130.04 220.4,134.25 224.99,136.54 224.29,138.88 219.81,137.93 215.36,138.74 
					213.08,137.57 212.11,142.74 214.5,145.28 218.61,144.16 221.76,147.03 217.76,149.98 213.19,148.13 210.9,145.1 206.99,145.8 
					205.89,149.51 210.04,151.03 213.44,155.21 211.63,157.54 205.07,159.67 				"/>
				<polygon class="st12" points="206.34,162.86 243.98,162.86 243.98,154.19 252.72,154.18 252.64,103.79 227.96,103.66 
					230.85,106.29 235.06,107.26 232.88,113.26 225.3,113.83 227.49,117.75 224.29,119.11 222.72,115.41 216.98,118.21 
					216.95,119.74 223.44,122.82 218.22,130.04 220.4,134.25 224.98,136.54 224.29,138.88 219.81,137.93 215.36,138.74 
					213.08,137.57 212.11,142.74 214.5,145.28 218.61,144.16 221.76,147.03 217.76,149.98 213.19,148.13 210.9,145.1 206.99,145.8 
					205.89,149.51 210.04,151.03 213.44,155.21 211.63,157.54 205.07,159.67 				"/>
				<polygon class="st11" points="370.36,56.96 370.36,55.51 383.44,55.45 383.47,33.46 387.87,33.46 389.34,29.06 389.38,15.22 
					361.44,15.33 361.44,30.51 365.9,30.51 365.97,56.99 				"/>
				<polygon class="st12" points="370.36,56.96 370.36,55.51 383.44,55.44 383.47,33.46 387.87,33.46 389.34,29.06 389.38,15.22 
					361.44,15.33 361.44,30.51 365.89,30.51 365.97,56.99 				"/>
				<polygon class="st11" points="330.03,227.01 330.01,222.53 364.23,222.35 364.46,187.18 332.39,187.19 328.41,194.26 
					325.95,196.57 324.52,203.19 322.25,204.35 322.14,209.21 316.85,217.52 316.13,222.27 310.39,227.52 				"/>
				<polygon class="st12" points="330.03,227.01 330.01,222.53 364.23,222.35 364.46,187.18 332.39,187.19 328.4,194.26 
					325.95,196.57 324.52,203.19 322.25,204.35 322.14,209.21 316.85,217.52 316.13,222.27 310.39,227.52 				"/>
				<polygon class="st11" points="219.28,412.05 261.95,411.97 261.91,377.92 225.71,378.01 216.35,380.71 219.35,384.55 				"/>
				<polygon class="st12" points="219.28,412.05 261.95,411.97 261.91,377.92 225.71,378.01 216.35,380.71 219.35,384.55 				"/>
				<polygon class="st11" points="405.52,15.2 405.5,29.07 411.37,29.05 411.36,39.37 443.6,39.51 443.8,15.17 				"/>
				<polygon class="st12" points="405.52,15.2 405.5,29.07 411.37,29.05 411.36,39.37 443.6,39.51 443.8,15.17 				"/>
				<polygon class="st11" points="211.12,378.21 211.49,350.5 204.89,350.62 199.32,346.41 200.01,344.52 197.83,338.82 
					192.63,340.44 190.98,344.01 190.93,351.47 185.68,351.48 182.86,349.04 181.23,352.16 183.79,354.79 189.1,353.76 
					190.34,356.47 187.34,359.1 181.5,360.11 181.41,368.21 185.58,374.57 182.27,376.42 179.58,370.65 177.24,370.72 
					176.92,375.19 181.83,381.12 181.12,385.16 177.78,386.44 170.9,385.98 169.85,387.06 175.22,393.36 176.29,390.21 
					179.26,388.77 180.16,391.05 183.76,389.77 185.3,380.85 188.98,381.26 198.78,376.82 205.9,375.84 				"/>
				<polygon class="st12" points="211.12,378.21 211.49,350.5 204.89,350.62 199.32,346.41 200.01,344.52 197.83,338.83 
					192.63,340.44 190.98,344.01 190.93,351.47 185.68,351.48 182.86,349.04 181.23,352.16 183.79,354.79 189.1,353.76 
					190.33,356.47 187.34,359.1 181.5,360.11 181.41,368.21 185.58,374.57 182.27,376.42 179.58,370.65 177.24,370.72 
					176.92,375.19 181.83,381.12 181.12,385.16 177.78,386.44 170.9,385.98 169.85,387.06 175.22,393.36 176.29,390.21 
					179.26,388.77 180.16,391.05 183.76,389.77 185.3,380.84 188.98,381.25 198.78,376.82 205.9,375.83 				"/>
			</g>
		</g>
		<path class="st13" d="M502.69,205.08h5.24l4.64,12.8c0.56,1.64,1.12,3.4,1.68,5.12h0.16c0.56-1.72,1.08-3.48,1.64-5.12l4.54-12.8
			h5.28v26.16h-4.28v-12c0-2.44,0.36-5.92,0.6-8.32h-0.16l-2.12,6.16l-4.28,11.76h-2.76l-4.32-11.76l-2.08-6.08h-0.16
			c0.2,2.4,0.6,5.88,0.6,8.32v12h-4.22V205.08z"/>
		<path class="st13" d="M531.59,205.56c-0.14-1.57,1.02-2.95,2.59-3.09c1.57-0.14,2.95,1.02,3.09,2.59
			c0.14,1.57-1.02,2.95-2.59,3.09c-0.08,0.01-0.17,0.01-0.25,0.01c-1.45,0.11-2.72-0.98-2.83-2.43
			C531.59,205.67,531.59,205.62,531.59,205.56z M532.11,211.56h4.58v19.64h-4.6L532.11,211.56z"/>
		<path class="st13" d="M540.63,229l2.16-3c1.51,1.34,3.43,2.12,5.44,2.2c2.12,0,3.12-1,3.12-2.36c0-1.64-2.12-2.36-4.2-3.16
			c-2.6-1-5.52-2.44-5.52-5.72c0-3.44,2.76-5.88,7.16-5.88c2.38,0.03,4.67,0.86,6.52,2.36l-2.12,2.8c-1.22-1.01-2.74-1.6-4.32-1.68
			c-2,0-2.88,0.92-2.88,2.16c0,1.56,2,2.16,4.08,2.92c2.68,1,5.64,2.28,5.64,6c0,3.36-2.68,6.08-7.64,6.08
			C545.36,231.65,542.75,230.69,540.63,229z"/>
		<path class="st13" d="M557.87,229l2.16-3c1.51,1.34,3.43,2.12,5.44,2.2c2.12,0,3.12-1,3.12-2.36c0-1.64-2.12-2.36-4.2-3.16
			c-2.6-1-5.52-2.44-5.52-5.72c0-3.44,2.76-5.88,7.16-5.88c2.38,0.03,4.67,0.86,6.52,2.36l-2.12,2.8c-1.22-1.01-2.74-1.6-4.32-1.68
			c-2,0-2.88,0.92-2.88,2.16c0,1.56,2,2.16,4.08,2.92c2.68,1,5.64,2.28,5.64,6c0,3.36-2.68,6.08-7.64,6.08
			C562.6,231.65,559.99,230.69,557.87,229z"/>
		<path class="st13" d="M576.55,205.56c-0.14-1.57,1.02-2.95,2.59-3.09c1.57-0.14,2.95,1.02,3.09,2.59s-1.02,2.95-2.59,3.09
			c-0.08,0.01-0.17,0.01-0.25,0.01c-1.45,0.11-2.72-0.98-2.83-2.43C576.55,205.67,576.55,205.62,576.55,205.56z M577.07,211.56h4.62
			v19.64h-4.6L577.07,211.56z"/>
		<path class="st13" d="M585.59,229l2.16-3c1.51,1.34,3.43,2.12,5.44,2.2c2.12,0,3.12-1,3.12-2.36c0-1.64-2.12-2.36-4.2-3.16
			c-2.6-1-5.52-2.44-5.52-5.72c0-3.44,2.76-5.88,7.16-5.88c2.38,0.03,4.67,0.86,6.52,2.36l-2.12,2.8c-1.22-1.01-2.74-1.6-4.32-1.68
			c-2,0-2.88,0.92-2.88,2.16c0,1.56,2,2.16,4.08,2.92c2.68,1,5.64,2.28,5.64,6c0,3.36-2.68,6.08-7.64,6.08
			C590.32,231.65,587.71,230.69,585.59,229z"/>
		<path class="st13" d="M602.83,229l2.16-3c1.51,1.34,3.43,2.12,5.44,2.2c2.12,0,3.12-1,3.12-2.36c0-1.64-2.12-2.36-4.2-3.16
			c-2.6-1-5.52-2.44-5.52-5.72c0-3.44,2.76-5.88,7.16-5.88c2.38,0.03,4.67,0.86,6.52,2.36l-2.12,2.8c-1.22-1.01-2.74-1.6-4.32-1.68
			c-2,0-2.88,0.92-2.88,2.16c0,1.56,2,2.16,4.08,2.92c2.68,1,5.64,2.28,5.64,6c0,3.36-2.68,6.08-7.64,6.08
			C607.56,231.65,604.95,230.69,602.83,229z"/>
		<path class="st13" d="M621.51,205.56c-0.14-1.57,1.02-2.95,2.59-3.09c1.57-0.14,2.95,1.02,3.09,2.59s-1.02,2.95-2.59,3.09
			c-0.08,0.01-0.17,0.01-0.25,0.01c-1.45,0.11-2.72-0.98-2.83-2.43C621.51,205.67,621.51,205.62,621.51,205.56z M622.03,211.56h4.6
			v19.64h-4.6V211.56z"/>
		<path class="st13" d="M632.51,211.6h3.8l0.32,2.08h0.16c1.61-1.52,3.69-2.44,5.9-2.6c4.88,0,7.72,3.92,7.72,10
			c0,6.72-4,10.6-8.4,10.6c-1.87-0.11-3.64-0.87-5-2.16l0.12,3.28v6.16h-4.6L632.51,211.6z M645.69,221.16
			c0-3.92-1.28-6.24-4.24-6.24c-1.44,0-2.8,0.72-4.32,2.2v9.16c1.09,1.01,2.51,1.59,4,1.64
			C643.69,227.92,645.69,225.6,645.69,221.16z"/>
		<path class="st13" d="M655.07,211.6h3.8l0.32,2.08h0.16c1.62-1.51,3.71-2.42,5.92-2.56c4.88,0,7.72,3.92,7.72,10
			c0,6.72-4,10.6-8.4,10.6c-1.87-0.11-3.64-0.87-5-2.16l0.12,3.28V239h-4.6L655.07,211.6z M668.23,221.16
			c0-3.92-1.28-6.24-4.24-6.24c-1.44,0-2.8,0.72-4.32,2.2v9.16c1.09,1.01,2.51,1.59,4,1.64
			C666.23,227.92,668.23,225.6,668.23,221.16z"/>
		<path class="st13" d="M677.11,205.56c-0.14-1.57,1.02-2.95,2.59-3.09c1.57-0.14,2.95,1.02,3.09,2.59s-1.02,2.95-2.59,3.09
			c-0.08,0.01-0.17,0.01-0.25,0.01c-1.45,0.11-2.72-0.98-2.83-2.43C677.11,205.67,677.11,205.62,677.11,205.56z M677.63,211.56h4.6
			v19.64h-4.6V211.56z"/>
		<path class="st13" d="M557,244.34h4.2c4.8,0,7.64,2.59,7.64,7.78c0,5.19-2.84,7.92-7.49,7.92H557L557,244.34z M561,257.78
			c3.17,0,5-1.8,5-5.66s-1.8-5.52-5-5.52h-1.21v11.18H561z"/>
		<path class="st13" d="M571.45,244.63c-0.08-0.94,0.61-1.77,1.55-1.85c0.94-0.08,1.77,0.61,1.85,1.55
			c0.08,0.94-0.61,1.77-1.55,1.85c-0.05,0-0.1,0.01-0.15,0.01c-0.87,0.07-1.63-0.59-1.7-1.46
			C571.45,244.7,571.45,244.66,571.45,244.63z M571.76,248.25h2.76v11.83h-2.76V248.25z"/>
		<path class="st13" d="M576.87,258.7l1.3-1.78c0.9,0.81,2.06,1.27,3.27,1.32c1.27,0,1.87-0.6,1.87-1.42c0-1-1.28-1.41-2.52-1.89
			c-1.56-0.58-3.32-1.47-3.32-3.44s1.66-3.52,4.3-3.52c1.43,0.02,2.81,0.51,3.92,1.41l-1.28,1.7c-0.73-0.61-1.64-0.96-2.59-1
			c-1.18,0-1.73,0.56-1.73,1.3c0,0.94,1.18,1.3,2.45,1.75c1.61,0.6,3.38,1.37,3.38,3.58c0,2-1.61,3.65-4.58,3.65
			C579.71,260.3,578.14,259.72,576.87,258.7z"/>
		<path class="st13" d="M588.32,256.08v-5.62h-1.63v-2.07l1.83-0.12l0.33-3.21h2.31v3.21h3v2.19h-3v5.62c0,1.39,0.53,2.06,1.65,2.06
			c0.42-0.01,0.84-0.1,1.23-0.26l0.48,2c-0.77,0.27-1.58,0.41-2.4,0.43C589.33,260.33,588.32,258.6,588.32,256.08z"/>
		<path class="st13" d="M596.58,248.25h2.28l0.19,2.09h0.1c0.59-1.34,1.87-2.25,3.33-2.37c0.46-0.03,0.92,0.06,1.35,0.24l-0.48,2.4
			c-0.4-0.13-0.81-0.2-1.23-0.2c-0.93,0-2.06,0.65-2.78,2.43v7.24h-2.76V248.25z"/>
		<path class="st13" d="M605.22,244.63c-0.08-0.94,0.61-1.77,1.55-1.85c0.94-0.08,1.77,0.61,1.85,1.55
			c0.08,0.94-0.61,1.77-1.55,1.85c-0.05,0-0.1,0.01-0.15,0.01c-0.87,0.07-1.63-0.59-1.7-1.46
			C605.22,244.7,605.22,244.66,605.22,244.63z M605.53,248.25h2.76v11.83h-2.76V248.25z"/>
		<path class="st13" d="M611.05,254.16c-0.21-3.2,2.21-5.97,5.42-6.18c0.16-0.01,0.32-0.01,0.48-0.01c1.28-0.02,2.52,0.45,3.46,1.32
			l-1.34,1.8c-0.53-0.54-1.25-0.85-2-0.87c-1.9,0-3.22,1.56-3.22,3.94c0,2.38,1.3,3.91,3.15,3.91c0.9-0.04,1.75-0.4,2.42-1
			l1.13,1.83c-1.07,0.93-2.43,1.44-3.84,1.44C613.52,260.33,611.05,258.08,611.05,254.16z"/>
		<path class="st13" d="M623.07,256.08v-5.62h-1.68v-2.07l1.83-0.12l0.33-3.21h2.31v3.21h3v2.19h-3v5.62c0,1.39,0.53,2.06,1.65,2.06
			c0.42-0.01,0.84-0.1,1.23-0.26l0.48,2c-0.77,0.27-1.58,0.41-2.4,0.43C624.08,260.33,623.07,258.6,623.07,256.08z"/>
	</g>
	<g id="Outline">
		<polyline class="st14" points="330.19,411.72 336.36,411.7 336.34,369.71 357.57,369.69 357.4,334.21 395.52,331.5 398.26,331.3 
			410.5,330.39 422.24,328.3 434.66,324.71 		"/>
	</g>
	<g id="Bullseye_Location_s_">
		<circle class="st15" cx="292.68" cy="286.17" r="29.28"/>
		<circle class="st2" cx="292.68" cy="286.17" r="9.02"/>
		<circle class="st2" cx="383.31" cy="471.92" r="9.02"/>
	</g>
</g>
<g id="Layer_8">
</g>
<g id="Layer_7">
</g>
<g id="Layer_13">
</g>
<g id="Layer_4">
</g>
<g id="Layer_5">
	<circle class="st1" cx="-1211.62" cy="-29.53" r="29.28"/>
	<circle class="st2" cx="-1211.62" cy="-29.53" r="9.02"/>
</g>
<g id="Layer_6">
</g>
</svg>
