<svg xmlns="http://www.w3.org/2000/svg" viewBox="0 0 784.06 507.87"><defs><style>.cls-1{fill:#e6e6e6;}.cls-2,.cls-3{opacity:0.8;}.cls-3{fill:#a5a5a5;}.cls-4,.cls-7{fill:#007dbc;}.cls-4{opacity:0.8;}.cls-5,.cls-6,.cls-8{fill:none;}.cls-5{stroke:#0675af;stroke-width:0.67px;}.cls-5,.cls-6{stroke-linejoin:bevel;}.cls-6{stroke:#868788;stroke-width:0.67px;}.cls-7{opacity:0.8;}.cls-8{stroke:#fff;stroke-miterlimit:10;stroke-width:3px;}.cls-9{fill:#fff;}</style></defs><g id="Background"><rect class="cls-1" x="-11.18" y="-11.39" width="804.92" height="529.99"/></g><g id="Layer_10" data-name="Layer 10"><polygon class="cls-3" points="473.26 242.11 473.09 239.62 475.7 241.34 476.48 240.53 474.93 237.56 481.11 235.41 481.36 234.03 483.55 234.72 485.44 232.36 492.25 235.9 493.94 235.19 496.11 236.05 502.26 233.28 502.56 231.46 503.98 231.14 505.73 228.71 507 228.65 509.35 231.02 511.23 230.46 512.11 231.94 514.17 232.48 517.47 236.84 520.14 233.58 519.62 230.31 520.16 229.64 515.91 226.45 515.35 225.24 516.06 222.59 514.27 219.49 512.41 218.42 509.77 218.85 509.54 217.34 505.32 215.87 504.96 214.53 503.1 213.79 504.22 211.98 503.87 210.65 502.35 209.39 502.84 207.35 500.44 205.42 500.48 203.16 498.31 202.83 496.42 203.6 493.13 205.88 487.79 201.99 485.11 203.5 483.21 203.87 481.6 205 480.47 207.22 477.9 210.16 474.01 216.14 473.28 217.96 471.09 220.84 470.29 223.19 467.45 224.28 468.23 226.12 466.03 229.06 463.53 230.77 462.74 232.18 473.26 242.11"/><polygon class="cls-3" points="505.45 298.81 507.22 298.87 507.2 303.09 509.33 303.12 509.34 309.59 507.18 309.55 506.83 333.02 567.3 333.04 567.4 329.46 568.37 329.25 567.93 325.5 566.89 324.66 567.47 323.55 566.29 322.32 564.97 318.24 565.16 314.24 564.03 313.11 562.57 309.04 563.76 306.55 561.29 303.47 562.16 302.28 561.42 301.57 559.13 301.45 557.74 299.12 558.33 298.56 557.66 296.19 556.13 295.38 556.76 293.47 554.94 292.01 554.6 290.05 553.14 288.82 554.39 288.15 553.37 286.2 528.79 286.36 528.7 290.52 516.05 290.35 516.04 294.63 509.67 294.56 505.45 298.81"/><polygon class="cls-3" points="440.1 266.92 450.48 256.45 449.68 253.78 473.26 242.11 462.74 232.18 451.97 219.9 452.2 236.86 449.23 235.79 447.93 236.75 445.58 236.73 442.78 237.94 441.67 239.41 438.24 241.88 430.38 249.66 430.39 252.59 431.01 253.97 432.76 254.28 432.32 255.8 433.03 258.18 430.92 259.58 431.05 261.24 432.59 263.13 433.07 265.87 435.05 264.49 436.08 265.37 437.91 264.5 440.1 266.92"/><polygon class="cls-3" points="462.93 372.52 463.52 373.25 468.97 371.63 471.27 371.89 476.75 375.76 476.65 373.06 475.57 370.55 481.15 369.79 481.91 367.72 484.92 365.79 489.37 368.52 491.41 368.41 492.13 369.39 494.33 369.74 495.27 371.02 498.63 372.57 501.48 372.57 503.75 373.68 506.92 376.24 509.41 376.06 509.42 367.59 508.71 366.87 505.93 367.06 506.22 362.61 501.74 362.86 501.75 358.61 496.11 358.56 496.12 354.33 493.31 354.32 493.32 350.06 488.68 350.04 488.68 348.62 485.15 345.82 485.19 341.54 480.92 341.55 480.91 333.04 435.34 332.75 437.93 338.99 442.59 340.62 448.92 349 452.79 349.61 454.49 354.53 453.11 359.32 458.7 363.55 462.85 364.16 463.69 368.33 462.93 372.52"/><polygon class="cls-3" points="423.62 278.83 424.48 281.2 425.44 281.64 429.15 285.59 430.04 285.18 431.19 287.22 429.92 287.76 430.56 289.13 432.92 290.54 435.23 290.95 436.48 292.84 436.07 295.56 437.39 296.92 436.86 298.29 439.42 297.92 441.42 300.92 447.45 306.9 447.47 309.49 449.36 309.55 449.64 308.42 450.9 309.32 452.2 307.54 454.39 308.44 457.39 311.26 458.49 312.8 460.46 313.05 460.67 311.64 459.07 307.57 461.76 309.68 462.55 307.28 465 306.68 464.98 298.83 451.68 285.85 443.47 281.67 441.23 277.83 439.79 277.21 440.55 275.51 432.53 275.54 431.19 274.15 429.74 274.43 428.76 276.31 426.08 278.51 424.19 277.96 423.62 278.83"/><polygon class="cls-3" points="416.99 281 417.91 283.25 416.8 289.55 413.9 293.27 412.06 291.51 412.03 299.63 413.51 307.73 416.04 310.56 420.75 313.23 424.02 316.83 426.4 321.6 428.85 322.43 430.8 328.34 435.34 332.75 480.12 333.04 479.86 331.56 478.33 330.31 478.96 328.73 477.56 327.3 476.13 327.29 474.36 324.51 471.46 324.27 469.66 322.26 467.23 320.96 462.94 317.48 462.18 314.9 463.81 312.82 461.64 310.47 461.76 309.68 459.07 307.57 460.67 311.64 460.46 313.05 458.49 312.8 457.39 311.26 454.39 308.44 452.2 307.54 450.9 309.32 449.64 308.42 449.36 309.55 447.47 309.49 447.45 306.9 441.42 300.92 439.42 297.92 436.86 298.29 437.39 296.92 436.07 295.56 436.48 292.84 435.23 290.95 432.92 290.54 430.56 289.13 429.92 287.76 431.19 287.22 430.04 285.18 429.15 285.59 425.44 281.64 424.48 281.2 423.62 278.83 420.42 277.83 418.08 279.23 416.99 281"/><polygon class="cls-3" points="502.84 207.35 502.35 209.39 503.87 210.65 504.22 211.98 503.1 213.79 504.96 214.53 505.32 215.87 509.54 217.34 509.77 218.85 512.41 218.42 514.27 219.49 516.06 222.59 515.35 225.24 515.91 226.45 520.16 229.64 519.62 230.31 520.14 233.58 517.47 236.84 519.55 238.09 520.25 236.96 523.18 237.1 525.52 239.57 526.81 242.27 527.21 244.5 529.01 245.94 531.37 246.27 534 249.98 536.12 249.34 536.99 250.61 574.23 250.52 539.39 218.66 504.96 187.84 503.81 190.24 503.63 193.39 506.64 198.64 505.89 203.13 503.51 203.98 504.09 205.36 502.84 207.35"/><polygon class="cls-3" points="440.1 266.92 439.46 269.01 440.78 270.22 439.34 272.33 439.38 273.95 440.55 275.51 439.79 277.21 441.23 277.83 443.47 281.67 452.27 286.42 469.74 268.82 475.1 267.43 479.6 265.5 483.83 265.4 486.52 264.52 484.9 262.56 481.53 260.59 481.36 259.15 478.07 253.72 477.71 251.58 473.26 242.12 449.68 253.78 450.48 256.45 440.1 266.92"/><polygon class="cls-3" points="473.26 242.12 477.71 251.58 478.07 253.72 481.36 259.15 481.53 260.59 484.9 262.56 486.52 264.52 497.99 252.9 502.36 252.87 502.36 250.69 503.77 250.69 503.79 249.04 505.01 249.04 505.04 245.77 515.89 234.9 514.17 232.48 512.11 231.94 511.23 230.46 509.35 231.02 507 228.65 505.73 228.71 503.98 231.14 502.56 231.46 502.26 233.28 496.11 236.05 493.94 235.19 492.25 235.9 485.44 232.36 483.55 234.72 481.36 234.03 481.11 235.41 474.93 237.56 476.48 240.53 475.7 241.34 473.09 239.62 473.26 242.12"/><polygon class="cls-3" points="467.15 271.41 470.79 277.93 470.54 280.37 473.26 282.29 473.95 284.22 475.77 284.15 479.49 284.99 485.43 282.23 487.45 282.75 489.19 281.45 490.81 281.79 493.13 280.59 495.74 281.1 496.95 278.65 499.1 276.14 498.83 275.08 500.8 273 502.07 272.94 502.04 271.67 503.55 272.28 504.19 270.08 505.85 270.42 506.85 268.42 505.62 267.78 505.98 266.47 507.42 267.16 508.07 266.14 509.5 268.14 509.91 266.38 511.57 265.47 512.83 266.18 515.01 263.43 515.38 261.35 514.88 258.1 516.77 255 527.21 244.5 526.81 242.27 525.52 239.57 523.18 237.1 520.25 236.96 519.55 238.09 517.47 236.84 515.89 234.9 505.04 245.77 505.01 249.04 503.79 249.04 503.77 250.69 502.36 250.69 502.36 252.87 497.99 252.9 486.52 264.52 483.83 265.4 479.6 265.5 475.1 267.43 469.74 268.82 467.15 271.41"/><polygon class="cls-3" points="476.13 327.29 477.56 327.3 478.96 328.73 478.33 330.31 479.86 331.56 480.12 333.04 506.83 333.02 507.18 309.55 509.34 309.59 509.33 303.12 507.2 303.09 507.22 298.87 505.45 298.81 501.75 302.25 501.56 301.65 498.58 302.36 498.3 303.07 490.16 303.12 490.19 313.88 476.13 327.29"/><polygon class="cls-3" points="480.91 333.04 480.92 341.55 485.19 341.54 485.15 345.82 488.68 348.62 488.68 350.04 493.32 350.06 493.31 354.32 496.12 354.33 496.11 358.56 501.75 358.61 501.74 362.86 506.22 362.61 505.93 367.06 508.71 366.87 509.42 367.59 509.41 376.06 512.99 376.08 512.98 377.1 517.15 377.1 518.47 378.16 518.47 380.25 529.02 380.35 529.02 381.38 532.76 381.39 533.67 380.08 582.16 379.86 582.09 339.74 582.78 338.31 581.36 338.32 582.07 336.9 582.12 332.65 570.6 332.6 570.65 333.16 549.04 332.87 480.91 333.04"/><polygon class="cls-3" points="553.37 286.2 554.39 288.15 553.14 288.82 554.6 290.05 554.94 292.01 556.76 293.47 556.13 295.38 557.66 296.19 558.33 298.56 557.74 299.12 559.13 301.45 561.42 301.57 562.16 302.28 561.29 303.47 563.76 306.55 562.57 309.04 564.03 313.11 565.16 314.24 564.97 318.24 566.29 322.32 567.47 323.55 566.89 324.66 567.93 325.5 568.37 329.25 567.4 329.46 567.3 333.04 570.65 333.16 570.6 332.6 657.09 332.82 657.09 332.07 660.55 332.06 627.36 300.26 574.23 250.52 536.99 250.61 537.6 251.98 536.4 254.05 537.26 255.68 536.53 256.56 538.37 257.97 539.32 257.32 541.33 260.66 540.56 261.56 540.68 263.43 541.75 266.57 544.19 266.75 546.35 267.97 549.15 270.29 549.91 270.19 550.7 273 553.36 279.15 553.33 281.24 552.21 281.78 553.37 286.2"/><polygon class="cls-3" points="461.76 309.68 461.64 310.47 463.81 312.82 462.18 314.9 462.94 317.48 467.23 320.96 469.66 322.26 471.46 324.27 474.36 324.51 476.13 327.29 490.19 313.88 490.16 303.12 498.3 303.07 498.58 302.36 501.56 301.65 501.75 302.25 509.67 294.56 516.04 294.63 516.05 290.35 528.7 290.52 528.79 286.36 553.37 286.2 552.21 281.78 553.33 281.24 553.36 279.15 550.7 273 549.91 270.19 549.15 270.29 546.35 267.97 544.19 266.75 541.75 266.57 540.68 263.43 540.56 261.56 541.33 260.66 539.32 257.32 538.37 257.97 536.53 256.56 537.26 255.68 536.4 254.05 537.6 251.98 536.99 250.61 536.12 249.34 534 249.98 531.37 246.27 529.01 245.94 527.21 244.5 516.77 255 514.88 258.1 515.38 261.35 515.01 263.43 512.83 266.18 511.57 265.47 509.91 266.38 509.5 268.14 508.07 266.14 507.42 267.16 505.98 266.47 505.62 267.78 506.85 268.42 505.85 270.42 504.19 270.08 503.55 272.28 502.04 271.67 502.07 272.94 500.8 273 498.83 275.08 499.1 276.14 496.95 278.65 495.74 281.1 493.13 280.59 490.81 281.79 489.19 281.45 487.45 282.75 485.43 282.23 479.49 284.99 475.77 284.15 473.95 284.22 473.26 282.29 470.54 280.37 470.79 277.93 467.15 271.41 452.27 286.42 464.98 298.83 465 306.68 462.55 307.28 461.76 309.68"/><polygon class="cls-3" points="485.71 198.12 485.71 201.29 487.79 201.99 493.13 205.88 496.42 203.6 498.31 202.83 500.48 203.16 500.44 205.42 502.84 207.35 504.09 205.36 503.51 203.98 505.89 203.13 506.64 198.64 503.63 193.39 503.81 190.24 504.96 187.84 492.36 176.68 493.43 179.82 489.96 184.66 485.72 188.37 485.71 198.12"/><polygon class="cls-3" points="432.67 173.46 437.03 170.62 438.02 171.53 438.02 161.55 438.51 159.45 440.33 158.89 440.91 157.16 442.64 156.34 444.01 153.92 445.74 153.17 448.19 153.32 447.7 147.03 446.76 145.89 448.1 144.74 448.69 140.62 446.03 142.79 444.83 144.33 443.14 144.94 443.14 146.42 439.56 146.41 439.57 147.1 437.01 146.77 436.62 149.01 435.84 149.38 435.85 151.6 434.7 152.72 434.33 154.69 433 155.95 430.29 156.3 426.81 157.75 424.88 157.03 423.93 159.97 424.79 161.64 424.62 163.98 425.9 168.75 424.95 170.34 426.49 176.39 427.58 174.69 429.71 173.69 432.67 173.46"/><polygon class="cls-3" points="405.46 197.95 407.31 197.76 409.07 199.18 411.84 196.92 415.08 196.66 418.82 197.31 419.88 196.7 421.61 197.26 421.63 208.02 425.63 208.05 428.45 205.68 428.65 203.31 428.05 202.25 429.19 201.62 428.95 200 426.96 198.72 428.31 197.66 429.06 194.26 427.33 193.6 426.73 191.43 425.58 191.34 424.15 188.63 425.64 185.32 424.4 184.19 424 185.12 421.7 185.08 421.77 183.67 420.48 183.25 420.47 180.79 419.44 179.83 418.07 180.57 416.86 179.56 417.2 177.6 416.03 177.13 393.58 177.08 392.87 178.32 393.93 180.18 395.77 181.61 398.16 181.42 400.25 186.47 400.69 188.51 402.89 190.77 404.48 194.39 405.46 197.95"/><polygon class="cls-3" points="348.51 121.97 348.51 123.26 372.64 123.2 371.94 122.16 371.56 116.91 370.44 114.56 371.21 112.45 370.46 109.15 368 108.22 367.44 107.24 367.31 104.89 370.15 101.59 370.08 100.44 371.78 100.28 373.9 99.03 376.11 95.91 378.2 95.43 378.52 94.06 380.97 92.27 381.93 92.58 381.5 89.36 379.83 86.3 381 86.01 381.2 83.31 383.08 81.94 383.22 79.21 385.81 75.34 385.54 72.31 388.69 69.35 389.26 65.48 391.48 65.04 391.92 61.76 389.85 60.52 388.89 58.91 389.26 55.22 390.62 53.3 387.74 51.11 386.42 51.25 386.2 53 384.03 53.07 383.71 54.93 381.41 55.68 380.91 57.08 378.84 58 377.49 59.48 374.54 59.35 372.57 60.81 371.55 60.59 371.94 62.19 371.08 64.23 371.33 65.8 373.06 66.33 374.08 68.61 373.29 70.42 371.43 69.47 368.57 69.89 367.85 67.66 364.44 65.95 360.56 66.13 359.22 63.66 356.14 61.58 354.96 62.17 353.89 60.67 352.93 61.59 353.06 63.92 351.69 66.11 353.3 67.05 353.98 69.38 352.12 71.98 352.32 73.04 350.99 74.56 347.89 72.7 346.65 73.91 345.43 73.68 346.65 77.03 347.91 79.01 347.71 81.2 348.53 83.72 348.51 121.97"/><polygon class="cls-3" points="372.64 123.2 373.18 126.34 372.03 126.81 371.6 130.05 372.49 132.47 407.71 132.49 406.8 130.29 407.77 128.06 417.29 128.04 419.4 126.88 419.57 125.24 421.27 122.89 423.53 122.98 423.94 120.74 425.53 119.09 425.89 116.89 428.88 116.89 431.17 115.77 431.8 114.23 431.71 111.99 432.96 112.19 434.5 111.11 435.22 107.81 434.17 106.67 435.54 106.06 433.98 104.46 430.47 103.96 429.92 101.55 430.33 100.15 429.4 99.01 426.73 99 425.8 99.73 423.52 99.58 421.97 98.62 420.03 99.53 417.19 99.04 414.3 99.5 411.88 100.58 409.14 100 404.43 101.44 397.28 102.88 391.96 102.76 388.84 101.66 383.83 105.09 379.96 103.16 375.8 104.34 375.07 104.02 372.98 106.24 370.94 105.78 367.44 107.24 368 108.22 370.46 109.15 371.21 112.45 370.44 114.56 371.56 116.91 371.94 122.16 372.64 123.2"/><polygon class="cls-3" points="416.03 177.13 417.2 177.6 416.86 179.56 418.07 180.57 419.44 179.83 420.47 180.79 420.48 183.25 421.77 183.67 421.7 185.08 424 185.12 424.4 184.19 425.64 185.32 425.24 186.7 429.92 186.76 430.51 185.91 430.51 177.05 432.69 177.03 432.67 173.46 429.71 173.69 427.58 174.69 426.49 176.39 424.95 170.34 425.9 168.75 424.62 163.98 424.79 161.64 423.93 159.97 424.41 158.22 423.88 157.71 413.17 157.8 411.59 161.04 412.33 163.24 411.69 164.08 413.93 169.6 415.53 169.68 417.54 173.38 415.87 175.55 416.03 177.13"/><polygon class="cls-3" points="353.89 60.67 354.96 62.17 356.14 61.58 359.22 63.66 360.56 66.13 364.44 65.95 367.85 67.66 368.57 69.89 371.43 69.47 373.29 70.42 374.08 68.61 373.06 66.33 371.33 65.8 371.08 64.23 371.94 62.19 371.55 60.59 372.57 60.81 374.54 59.35 377.49 59.48 378.84 58 380.91 57.08 381.41 55.68 383.71 54.93 384.03 53.07 386.2 53 386.42 51.25 387.74 51.11 390.62 53.3 389.26 55.22 388.89 58.91 389.85 60.52 431.42 60.48 431 20 431.38 17.47 394.6 16.83 368.24 17.17 364.26 16.85 356.29 17.39 349.56 17.29 347.69 22.49 345.77 23.66 344.63 23.21 343.52 26.08 342.22 26.39 343.44 28.19 342.83 28.95 343.94 32.51 342.78 34.87 341.61 38.77 343.07 38.83 342.61 40.81 344.42 41.98 344.96 44.59 345.85 45.82 344.4 48 343.89 50.04 350.22 50.01 351.29 50.87 352.53 57.01 352.03 57.68 353.89 60.67"/><polygon class="cls-3" points="488.43 150.58 488.54 136.36 487.96 137.07 462.73 137.18 461.68 138.71 458.96 136.51 457.26 137.01 456.35 135.1 454.17 133.56 451.65 135.52 451.06 138.92 448.69 140.62 448.1 144.74 446.76 145.89 447.7 147.03 448.19 153.32 449.35 152.15 451.76 152.01 455.5 150.82 457.3 150.78 460.38 148.65 462.53 146.56 465.74 146.58 466.6 147.09 467.46 149.59 468.6 150.53 488.43 150.58"/><polygon class="cls-3" points="429.4 99.01 436.11 99.02 436.42 75.03 435.93 75.05 435.97 60.46 389.85 60.52 391.92 61.76 391.48 65.04 389.26 65.48 388.69 69.35 385.54 72.31 385.81 75.34 383.22 79.21 383.08 81.94 381.2 83.31 381 86.01 379.83 86.3 381.5 89.36 381.93 92.58 380.97 92.27 378.52 94.06 378.2 95.43 376.11 95.91 373.9 99.03 371.78 100.28 370.08 100.44 370.15 101.59 367.31 104.89 367.44 107.24 370.94 105.78 372.98 106.24 375.07 104.02 375.8 104.34 379.96 103.16 383.83 105.09 388.84 101.66 391.96 102.76 397.28 102.88 404.43 101.44 409.14 100 411.88 100.58 414.3 99.5 417.19 99.04 420.03 99.53 421.97 98.62 423.52 99.58 425.8 99.73 426.73 99 429.4 99.01"/><polygon class="cls-3" points="427.06 232.78 427.06 246.65 429.14 247.48 430.41 249.68 438.24 241.88 441.67 239.41 442.78 237.94 445.58 236.73 447.93 236.75 449.23 235.79 452.2 236.86 451.97 219.9 451.48 219.35 448.03 208.81 446.68 208.84 440.29 211.52 438.45 211.11 435.67 212.29 432.45 211.87 430.43 210.74 428.15 214.05 428.34 215.16 426 218.09 426.56 218.92 426.08 223.36 427.02 227.61 426.17 230.81 427.87 231.2 427.06 232.78"/><polygon class="cls-3" points="419.93 219.51 426.56 218.92 426 218.09 428.34 215.16 428.15 214.05 430.43 210.74 432.45 211.87 435.67 212.29 438.45 211.11 440.29 211.52 446.68 208.84 448.03 208.81 447.98 198.21 444.37 187.63 443.5 187.9 429.92 186.76 425.24 186.7 424.15 188.63 425.58 191.34 426.73 191.43 427.33 193.6 429.06 194.26 428.31 197.66 426.96 198.72 428.95 200 429.19 201.62 428.05 202.25 428.65 203.31 428.45 205.68 425.63 208.05 425.14 208.94 425.26 212.71 424.74 213.96 422.75 214.79 421.09 218.52 419.93 219.51"/><polygon class="cls-3" points="429.4 99.01 430.33 100.15 429.92 101.55 430.47 103.96 433.98 104.46 435.54 106.06 434.17 106.67 435.22 107.81 434.5 111.11 432.96 112.19 431.71 111.99 431.8 114.23 433.08 114.24 433.06 116.11 434.57 117.63 432.49 121.26 432.85 124.22 432.07 126.47 432.79 128.7 434.79 129.52 435.2 131.05 438.46 133.98 438.47 134.73 440.73 136.19 440.81 137.5 442.3 138.25 443.66 141.2 445.21 141.58 446.03 142.79 451.06 138.92 451.65 135.52 454.17 133.56 456.35 135.1 457.26 137.01 458.96 136.51 461.68 138.71 462.73 137.18 482.76 137.12 484.21 134.13 484.28 125.19 482.11 123.69 481.37 121.38 480.63 121.38 480.3 117.63 478.82 117.64 478.83 116.5 475.09 116.13 472.46 114.46 470.96 112.94 470.63 111.44 469.5 111.44 468.39 109.21 465.79 108.44 465.79 107.32 463.97 107.3 462.81 106.16 458.37 105.73 457.09 106.52 457.12 107.72 455.63 108.08 454.13 109.59 454.13 111.77 451.88 112.16 451.19 110.66 448.92 110.65 446.63 108.82 446.64 98.96 429.4 99.01"/><polygon class="cls-3" points="429.92 186.76 443.5 187.9 444.99 184.17 445.08 182.66 446.75 181.05 446.93 178.38 450.74 176.38 451.43 175.2 454.45 175.61 456.47 173.27 458.23 172.81 460.01 173.34 462.7 175.89 464.38 176.18 466.26 177.68 468.36 176.76 469.98 175.01 471.39 171.84 475.61 172.15 481.31 171.71 482.9 169.86 488.48 169.85 488.33 157.16 463.06 157.22 459.8 158.62 456.79 161.41 454.93 162.49 454.16 164.14 451.14 165.99 449.6 168.09 449.36 169.48 447.42 172.59 444.91 172.67 443.63 171.35 441.74 172.6 440.37 172.69 438.02 171.53 437.03 170.62 432.67 173.46 432.69 177.03 430.51 177.05 430.51 185.91 429.92 186.76"/><polygon class="cls-3" points="438.02 171.53 440.37 172.69 441.74 172.6 443.63 171.35 444.91 172.67 447.42 172.59 449.36 169.48 449.6 168.09 451.14 165.99 454.16 164.14 454.93 162.49 456.79 161.41 459.8 158.62 463.06 157.22 488.33 157.16 488.43 150.58 468.6 150.53 467.46 149.59 466.6 147.09 465.74 146.58 462.53 146.56 460.38 148.65 457.3 150.78 455.5 150.82 451.76 152.01 449.35 152.15 448.19 153.32 445.74 153.17 444.01 153.92 442.64 156.34 440.91 157.16 440.33 158.89 438.51 159.45 438.02 161.55 438.02 171.53"/><polygon class="cls-3" points="431.38 17.47 431 20 431.42 60.48 488.58 60.45 488.61 17.63 431.38 17.47"/><polygon class="cls-3" points="435.97 60.46 435.93 75.05 436.42 75.03 436.11 99.02 446.64 98.96 446.63 108.82 448.92 110.65 451.19 110.66 451.88 112.16 454.13 111.77 454.13 109.59 455.63 108.08 457.12 107.72 457.09 106.52 458.37 105.73 462.81 106.16 463.97 107.3 465.79 107.32 465.79 108.44 468.39 109.21 469.5 111.44 470.63 111.44 470.96 112.94 472.46 114.46 475.09 116.13 478.83 116.5 478.82 117.64 480.3 117.63 480.63 121.38 481.37 121.38 482.11 123.69 484.28 125.19 484.21 134.13 482.76 137.12 487.96 137.07 488.54 136.36 488.69 118.47 488.58 60.45 435.97 60.46"/><polygon class="cls-3" points="374.56 143.67 380.48 143.64 380.34 153.74 404.17 153.63 404.16 152.15 409.19 152.19 409.16 153.71 413.89 153.71 414.65 150.35 414.39 147.28 415.22 145.88 409.78 146.04 409.42 144.02 409.85 141.13 410.8 140.16 410.13 139.04 411.85 137.61 408.57 134.03 407.71 132.49 372.49 132.47 372.46 135.04 373.49 135.04 373.47 137.06 374.27 137.06 374.56 143.67"/><polygon class="cls-3" points="447.98 198.21 451.29 197.23 453.6 197.37 455.32 195.79 458.54 195.85 463.76 198.47 468.41 198.04 473.63 196.37 475.99 196.44 478.07 195.54 479.74 193.74 480.09 192.12 483.17 191.49 484.2 188.22 485.72 188.37 489.96 184.66 493.43 179.82 492.36 176.68 488.54 173.31 488.48 169.85 482.9 169.86 481.31 171.71 475.61 172.15 471.39 171.84 469.98 175.01 468.36 176.76 466.26 177.68 464.38 176.18 462.7 175.89 460.01 173.34 458.23 172.81 456.47 173.27 454.45 175.61 451.43 175.2 450.74 176.38 446.93 178.38 446.75 181.05 445.08 182.66 444.99 184.17 443.5 187.9 444.37 187.63 447.98 198.21"/><polygon class="cls-3" points="380.34 153.74 378.92 157.4 379.63 158.8 382.64 161.13 386.89 162.88 389.18 162.63 390.79 165.91 389.91 166.14 390.13 170.59 393.21 172.26 393.38 175.18 396.1 177.13 416.03 177.13 415.87 175.55 417.54 173.38 415.53 169.68 413.93 169.6 411.69 164.08 412.33 163.24 411.59 161.04 413.17 157.8 413.89 153.71 409.16 153.71 409.19 152.19 404.16 152.15 404.17 153.63 380.34 153.74"/><polygon class="cls-3" points="449.24 212.46 451.48 219.35 462.74 232.18 463.53 230.77 466.03 229.06 468.23 226.12 467.45 224.28 470.29 223.19 471.09 220.84 473.28 217.96 474.01 216.14 477.9 210.16 480.47 207.22 481.6 205 483.21 203.87 485.11 203.5 487.79 201.99 485.71 201.29 485.71 198.12 483.63 198.83 480.45 198.57 475.5 200.38 471.85 199.97 470.35 201.34 468.82 201.27 467.89 202.53 464.27 204.2 463.64 206.68 459.44 208.31 458.77 209.29 456.57 209.61 453.82 211.68 450.17 212.86 449.24 212.46"/><polygon class="cls-3" points="407.71 132.49 408.57 134.03 411.85 137.61 410.13 139.04 410.8 140.16 409.85 141.13 409.42 144.02 409.78 146.04 415.22 145.88 414.39 147.28 414.65 150.35 413.17 157.8 423.88 157.71 424.41 158.22 424.88 157.03 426.81 157.75 430.29 156.3 433 155.95 434.33 154.69 434.7 152.72 435.85 151.6 435.84 149.38 436.62 149.01 437.01 146.77 439.57 147.1 439.56 146.41 443.14 146.42 443.14 144.94 444.83 144.33 446.03 142.79 445.21 141.58 443.66 141.2 442.3 138.25 440.81 137.5 440.73 136.19 438.47 134.73 438.46 133.98 435.2 131.05 434.79 129.52 432.79 128.7 432.07 126.47 432.85 124.22 432.49 121.26 434.57 117.63 433.06 116.11 433.08 114.24 431.8 114.23 431.17 115.77 428.88 116.89 425.89 116.89 425.53 119.09 423.94 120.74 423.53 122.98 421.27 122.89 419.57 125.24 419.4 126.88 417.29 128.04 407.77 128.06 406.8 130.29 407.71 132.49"/><polygon class="cls-3" points="447.98 198.21 448.03 208.81 449.24 212.46 450.17 212.86 453.82 211.68 456.57 209.61 458.77 209.29 459.44 208.31 463.64 206.68 464.27 204.2 467.89 202.53 468.82 201.27 470.35 201.34 471.85 199.97 475.5 200.38 480.45 198.57 483.63 198.83 485.71 198.12 485.72 188.37 484.2 188.22 483.17 191.49 480.09 192.12 479.74 193.74 478.07 195.54 475.99 196.44 473.63 196.37 468.41 198.04 463.76 198.47 458.54 195.85 455.32 195.79 453.6 197.37 451.29 197.23 447.98 198.21"/><polygon class="cls-4" points="369.92 208.93 370.22 208.42 373.71 207.71 380.31 213.39 383.94 214.68 387.21 214.63 387.5 215.74 390.05 218.24 393.46 215.96 394.86 215.88 395.45 214.57 395.05 211.38 393.56 209.65 393.95 208.47 391.85 204.71 389.88 202.43 390.46 201.01 388.62 200.16 388.05 197.61 385.01 195.58 384 193.62 384.72 192.41 384.75 190.16 383.99 188.2 382.21 187.96 379.98 184.06 379.96 183.23 377.08 180.9 366.83 180.78 366.82 181.5 364.63 181.44 364.64 182.98 355.47 183.11 355.48 184.6 350.3 184.54 349.53 185.47 356.87 195.32 364.93 201.1 367.73 208.8 369.92 208.93"/><polygon class="cls-4" points="422.75 214.79 424.74 213.96 425.26 212.71 425.14 208.94 425.63 208.05 421.63 208.02 421.61 197.26 419.88 196.7 418.82 197.31 415.08 196.66 411.84 196.92 409.07 199.18 407.31 197.76 405.46 197.95 404.55 202.21 406.64 205.64 406.99 207.91 401.4 207.92 402.1 210.14 401.16 210.08 401.8 212.21 401.05 214.76 401.82 216 398.06 215.99 400.57 220.52 404.35 221.61 407.07 216.99 409.06 219.09 413.06 219.67 413.56 221.25 417.3 220.64 421.06 217.97 422.75 214.79"/><polygon class="cls-4" points="397.74 215.99 393.5 215.96 399.74 219.94 397.74 215.99"/><polygon class="cls-4" points="397.96 268.29 400.74 272.35 405.36 275.77 410.5 275.87 411.94 274.68 415.1 277.21 416.99 281 418.08 279.23 420.42 277.83 423.62 278.83 424.19 277.96 426.08 278.51 426.1 277.59 424.37 276.54 423.54 276.94 422.81 275.42 421.48 274.95 419.12 271.13 416.57 269.23 409.89 266.45 408.51 265.35 407.36 263.07 405.44 261.98 403.52 259.4 403.51 262.92 399.96 262.94 399.95 264.18 396.99 264.34 397.96 268.29"/><polygon class="cls-4" points="426.08 278.51 428.76 276.31 429.74 274.43 431.19 274.15 432.53 275.54 440.55 275.51 439.38 273.95 439.34 272.33 440.78 270.22 439.46 269.01 440.1 266.92 437.91 264.5 436.08 265.37 435.05 264.49 433.07 265.87 432.59 263.13 431.05 261.24 430.92 259.58 433.03 258.18 432.32 255.8 432.76 254.28 431.01 253.97 430.39 252.59 430.38 249.66 414.87 249.54 412.5 251.04 404.99 250.46 402.01 252.21 401.54 255.57 402.63 257.44 401.95 257.77 405.44 261.98 407.36 263.07 408.51 265.35 409.89 266.45 416.57 269.23 419.12 271.13 421.48 274.95 422.81 275.42 423.54 276.94 424.37 276.54 426.1 277.59 426.08 278.51"/><polygon class="cls-4" points="389.68 238.39 389.01 247.11 390.96 248.74 393.68 255.71 392.98 261.63 396.52 268.04 397.96 268.29 396.99 264.34 399.95 264.18 399.96 262.94 403.51 262.92 403.52 259.4 401.95 257.77 402.63 257.44 401.54 255.57 402.01 252.21 404.99 250.46 401.54 246.75 394.24 242.32 394 238.38 389.68 238.39"/><polygon class="cls-4" points="394 238.38 395.44 237.36 392.93 233.24 389.26 234.66 389.68 238.39 394 238.38"/><polygon class="cls-4" points="393.5 215.96 393.46 215.96 393.54 215.96 393.5 215.96"/><polygon class="cls-4" points="393.54 215.96 401.82 216 401.05 214.76 401.8 212.21 401.16 210.08 402.1 210.14 401.4 207.92 406.99 207.91 406.64 205.64 404.55 202.21 405.46 197.95 404.48 194.39 402.89 190.77 400.69 188.51 400.25 186.47 398.16 181.42 395.77 181.61 393.93 180.18 394.79 182.58 393.82 183.24 391.21 188.25 384.75 190.16 384.72 192.41 384 193.62 385.01 195.58 388.05 197.61 388.62 200.16 390.46 201.01 389.88 202.43 391.85 204.71 393.95 208.47 393.56 209.65 395.05 211.38 395.45 214.57 394.86 215.88 393.54 215.96"/><polygon class="cls-4" points="329.59 122.01 336.29 130.62 338.95 139.54 339.49 146.03 337.6 150.86 337.32 155.51 339.57 163.4 341.54 166.4 342.79 171.66 340.88 175.82 344.44 181.13 349.53 185.47 350.3 184.54 355.48 184.6 355.47 183.11 364.64 182.98 364.63 181.44 366.82 181.5 366.83 180.78 377.08 180.9 374.19 179.34 374.22 178.6 372.05 178.36 370.91 176 370.55 173.43 368.92 173.46 367.81 172.22 367.45 170.01 366.35 169.63 366.95 164.44 368.44 163.49 370.23 161.27 369.25 159.12 369.25 156.89 367.06 152.5 367.53 147.59 369.03 146.81 372.53 146.93 374.36 146.29 374.27 137.06 373.47 137.06 373.49 135.04 372.46 135.04 372.49 132.47 371.6 130.05 372.03 126.81 373.18 126.34 372.64 123.2 348.51 123.26 348.51 121.97 329.59 122.01"/><polygon class="cls-4" points="369.92 208.93 374.67 217.59 370.22 211.68 372.06 216.01 369.51 223.71 372.56 219.54 372.96 222.26 377.11 223.97 381.78 229.1 384.14 228.93 388.53 232.84 390.62 232.52 388.91 229.53 391.77 230.18 389.98 225.28 390.05 218.24 387.5 215.74 387.21 214.63 383.94 214.68 380.31 213.39 373.71 207.71 370.22 208.42 369.92 208.93"/><polygon class="cls-4" points="374.56 143.67 374.36 146.29 372.53 146.93 369.03 146.81 367.53 147.59 367.06 152.5 369.25 156.89 369.25 159.12 370.23 161.27 368.44 163.49 366.95 164.44 366.35 169.63 367.45 170.01 367.81 172.22 368.92 173.46 370.55 173.43 370.91 176 372.05 178.36 374.22 178.6 374.19 179.34 377.08 180.9 379.96 183.23 379.98 184.06 382.21 187.96 383.99 188.2 384.75 190.16 391.21 188.25 393.82 183.24 394.79 182.58 392.87 178.32 393.58 177.08 396.1 177.13 393.38 175.18 393.21 172.26 390.13 170.59 389.91 166.14 390.79 165.91 389.18 162.63 386.89 162.88 382.64 161.13 379.63 158.8 378.92 157.4 380.34 153.74 380.48 143.64 374.56 143.67"/><polygon class="cls-4" points="327.93 45.68 326.3 58 324.25 62.61 324.44 67.3 326.1 68.65 323.07 79.23 315.21 95.64 314.36 99.14 316.72 105.98 316.15 108.58 323.08 115.33 326.11 116.69 327.32 120.46 329.59 122.01 348.51 121.97 348.53 83.72 347.71 81.2 347.91 79.01 346.65 77.03 345.43 73.68 346.65 73.91 347.89 72.7 350.99 74.56 352.32 73.04 352.12 71.98 353.98 69.38 353.3 67.05 351.69 66.11 353.06 63.92 352.93 61.59 353.89 60.67 352.03 57.68 352.53 57.01 351.29 50.87 350.22 50.01 339.59 50.11 339.58 45.71 327.93 45.68"/><polygon class="cls-4" points="322.15 17.42 322.35 22.69 320.4 28.86 324.13 31.27 326.49 38.34 327.93 45.68 339.58 45.71 339.59 50.11 343.89 50.04 344.4 48 345.85 45.82 344.96 44.59 344.42 41.98 342.61 40.81 343.07 38.83 341.61 38.77 342.78 34.87 343.94 32.51 342.83 28.95 343.44 28.19 342.22 26.39 343.52 26.08 344.63 23.21 345.77 23.66 347.69 22.49 349.56 17.29 344.06 17.6 322.15 17.42"/><polygon class="cls-4" points="397.2 228.93 398.83 228.5 400.7 229.88 402.19 232.76 403.98 233.57 407.75 233.9 409.63 235.64 409.08 236.43 411.09 237.87 427.06 232.78 427.87 231.2 426.17 230.81 427.02 227.61 426.08 223.36 423.08 220.98 419.78 222.81 408.66 220.87 403.56 222.65 399.9 220.86 392.57 225.56 394.19 228.2 397.2 228.93"/><polygon class="cls-4" points="397.2 228.93 396.58 233.88 399.93 234.62 399.23 236.79 403.07 240.21 405.39 248.83 410.54 250.73 412.5 251.04 414.87 249.54 430.41 249.68 429.14 247.48 427.06 246.65 427.06 232.78 411.09 237.87 409.08 236.43 409.63 235.64 407.75 233.9 403.98 233.57 402.19 232.76 400.7 229.88 398.83 228.5 397.2 228.93"/><polygon class="cls-3" points="583.58 448.38 588.19 452.2 594.26 461.15 597.05 471.07 595.98 474.17 597.85 479.95 600.54 480.84 602.24 488.53 642.45 484.57 642.57 463.12 643.44 463.11 643.28 446.52 597.6 446.23 597.58 445.43 592.48 443.46 592.74 442.78 586.99 442.78 586.99 444.35 584.27 445.2 583.58 448.38"/><polygon class="cls-3" points="651.56 483.74 697.25 479.87 697.93 478.62 701.36 479.41 704.86 478.07 704.67 476.47 707.15 473.93 707.39 470.98 705.27 465.34 702.05 465.44 700.2 464.35 699.18 464.85 697.76 462.48 698.86 458.95 698.93 453.89 697.1 453.04 698.06 449.59 697.07 447.73 700.9 446.16 643.28 446.52 643.44 463.11 642.57 463.12 642.45 484.57 651.56 483.74"/><polygon class="cls-3" points="576.18 421.8 580.5 425.4 581.23 422.82 582.99 422.82 583.01 420.6 585.08 419.8 585.07 417.64 592.3 417.63 592.3 418.32 598.23 418.36 598.23 419.05 609.92 419.02 609.91 417.62 673.67 417.62 673.67 415.54 708.48 415.45 709.25 414.12 712.98 412.66 714.34 411.11 715.56 410.99 719.18 407.23 720.33 406.94 720.22 404.77 718.69 402.56 716.75 401.77 712.26 397.68 710.4 397.36 710.64 393.92 708.44 390.7 707.87 387.29 707.01 385.09 703.84 382.53 702.28 378.95 700.86 377.87 700.65 371.21 660.55 332.06 657.09 332.07 657.09 332.82 582.12 332.65 582.07 336.9 581.36 338.32 582.78 338.31 582.09 339.74 582.16 379.86 580.76 379.85 580.77 392.56 581.62 405.4 580.36 411.37 578.03 418.37 576.79 418.12 575.4 420.41 576.18 421.8"/><polygon class="cls-3" points="586.99 442.78 592.74 442.78 592.48 443.46 597.58 445.43 597.6 446.23 643.28 446.52 700.9 446.16 701.07 445.07 703.63 441.47 704.97 440.5 704.32 438.68 705.05 437.74 704.66 434.96 706.06 433.67 705.64 430.3 704.82 428.06 704.74 426.03 705.77 425.64 704.54 422.79 708.36 418.17 708.48 415.45 673.67 415.54 673.67 417.62 609.91 417.62 609.92 419.02 598.23 419.05 598.23 418.36 592.3 418.32 592.3 417.63 585.07 417.64 585.08 419.8 583.01 420.6 582.99 422.82 581.23 422.82 580.5 425.4 584.18 430.22 585.93 430.78 586.03 433.03 588.38 433.34 590.81 435.47 586.97 441.4 586.99 442.78"/><polygon class="cls-3" points="563.43 431.07 566.39 434.56 576.06 441 578.9 444.91 583.58 448.38 584.27 445.2 586.99 444.35 586.97 441.4 590.81 435.47 588.38 433.34 586.03 433.03 585.93 430.78 584.18 430.22 580.5 425.4 576.18 421.8 568.55 421.83 568.54 423.89 565.27 426.58 563.43 431.07"/><polygon class="cls-3" points="509.26 401.42 516.95 406.35 519.04 411.62 522.95 414.48 530.27 417.09 530.44 415.67 536.45 411.21 541.22 411.23 541.23 407.77 542.62 407.78 542.46 405.32 532.76 381.39 529.02 381.38 529.02 380.35 518.47 380.25 518.47 378.16 517.15 377.1 512.98 377.1 512.99 376.08 510.62 376.06 510.62 397.46 510.25 400.28 509.26 401.42"/><polygon class="cls-3" points="507 453.2 505.47 454.45 509.57 456.54 511.43 455.85 507 453.2"/><polygon class="cls-3" points="509.26 401.42 510.25 400.28 510.62 397.46 510.62 376.06 506.92 376.24 503.75 373.68 501.48 372.57 498.63 372.57 495.27 371.02 494.33 369.74 492.13 369.39 491.41 368.41 489.37 368.52 484.92 365.79 481.91 367.72 481.15 369.79 475.57 370.55 476.65 373.06 476.75 375.76 471.27 371.89 468.97 371.63 463.52 373.25 462.93 372.52 462.07 375.92 464.46 378.13 463.39 383.06 464.85 385.52 463.1 391.48 468.37 394.24 470.69 397.95 476.76 396.8 488.27 397.24 493.4 399.81 500.08 400.36 506.1 399.56 509.26 401.42"/><polygon class="cls-3" points="491.86 415.56 493.55 420.2 499.85 421.09 505.98 419.47 505.83 416.59 503.15 418.6 499.92 417.18 491.86 415.56"/><polygon class="cls-3" points="486.42 417.46 479.19 418.81 483.85 424.29 489.83 422.01 486.42 417.46"/><polygon class="cls-3" points="474.13 415.72 471.29 417.42 476.76 418.25 474.13 415.72"/><polygon class="cls-3" points="530.27 417.09 535.78 419.24 538.17 417.71 545.03 417.27 548.14 418.97 552.18 427.03 551.36 431.58 555.83 433.06 557.7 430.19 563.77 430 565.27 426.58 568.54 423.89 568.55 421.83 576.18 421.8 575.4 420.41 576.79 418.12 578.03 418.37 580.36 411.37 581.62 405.4 580.77 392.56 580.76 379.85 533.67 380.08 532.76 381.39 542.46 405.32 542.62 407.78 541.23 407.77 541.22 411.23 536.45 411.21 530.44 415.67 530.27 417.09"/><polygon class="cls-3" points="543.67 444.01 548.3 446.81 549.58 451.45 554.76 452.52 555.35 450.75 552.9 447.27 543.67 444.01"/><polygon class="cls-3" points="544.14 464.94 547.88 473.62 550.78 475.91 553.09 474.3 548.2 470.01 544.14 464.94"/><polygon class="cls-5" points="369.92 208.93 370.22 208.42 373.71 207.71 380.31 213.39 383.94 214.68 387.21 214.63 387.5 215.74 390.05 218.24 393.46 215.96 394.86 215.88 395.45 214.57 395.05 211.38 393.56 209.65 393.95 208.47 391.85 204.71 389.88 202.43 390.46 201.01 388.62 200.16 388.05 197.61 385.01 195.58 384 193.62 384.72 192.41 384.75 190.16 383.99 188.2 382.21 187.96 379.98 184.06 379.96 183.23 377.08 180.9 366.83 180.79 366.82 181.5 364.63 181.44 364.64 182.98 355.47 183.11 355.48 184.6 350.3 184.54 349.53 185.47 356.87 195.32 364.93 201.1 367.73 208.8 369.92 208.93"/><polygon class="cls-5" points="422.75 214.79 424.74 213.96 425.26 212.71 425.14 208.94 425.63 208.05 421.63 208.02 421.61 197.26 419.88 196.7 418.82 197.32 415.08 196.66 411.84 196.92 409.07 199.18 407.31 197.76 405.46 197.95 404.55 202.21 406.64 205.64 406.98 207.91 401.4 207.92 402.1 210.14 401.16 210.08 401.8 212.21 401.05 214.76 401.82 216 398.06 215.99 400.57 220.52 404.35 221.61 407.07 216.99 409.06 219.09 413.06 219.67 413.56 221.25 417.29 220.64 421.06 217.97 422.75 214.79"/><polygon class="cls-5" points="397.74 215.99 393.5 215.96 399.74 219.94 397.74 215.99"/><polygon class="cls-5" points="397.96 268.29 400.74 272.35 405.36 275.77 410.5 275.87 411.94 274.68 415.1 277.21 416.99 281 418.08 279.23 420.42 277.83 423.62 278.83 424.19 277.96 426.08 278.51 426.1 277.59 424.37 276.54 423.54 276.94 422.81 275.42 421.48 274.95 419.12 271.13 416.57 269.23 409.89 266.45 408.51 265.35 407.36 263.07 405.44 261.98 403.52 259.4 403.51 262.92 399.96 262.94 399.95 264.18 396.99 264.34 397.96 268.29"/><polygon class="cls-5" points="426.08 278.51 428.76 276.31 429.74 274.43 431.19 274.15 432.53 275.55 440.55 275.51 439.38 273.95 439.34 272.33 440.78 270.22 439.46 269.01 440.1 266.92 437.91 264.49 436.08 265.37 435.05 264.49 433.07 265.87 432.59 263.13 431.05 261.24 430.92 259.58 433.03 258.18 432.32 255.8 432.76 254.28 431.01 253.97 430.39 252.59 430.38 249.66 414.87 249.54 412.5 251.04 404.99 250.46 402.01 252.21 401.54 255.57 402.63 257.44 401.95 257.77 405.44 261.98 407.36 263.07 408.51 265.35 409.89 266.45 416.57 269.23 419.12 271.13 421.48 274.95 422.81 275.42 423.54 276.94 424.37 276.54 426.1 277.59 426.08 278.51"/><polygon class="cls-5" points="389.68 238.39 389.01 247.11 390.96 248.74 393.68 255.71 392.98 261.63 396.52 268.04 397.96 268.29 396.99 264.34 399.95 264.18 399.96 262.94 403.51 262.92 403.52 259.4 401.95 257.77 402.63 257.44 401.54 255.57 402.01 252.21 404.99 250.46 401.54 246.75 394.24 242.32 394 238.38 389.68 238.39"/><polygon class="cls-5" points="394 238.38 395.44 237.36 392.93 233.24 389.26 234.66 389.68 238.39 394 238.38"/><polygon class="cls-5" points="393.5 215.96 393.46 215.96 393.54 215.96 393.5 215.96"/><polygon class="cls-5" points="393.54 215.96 401.82 216 401.05 214.76 401.8 212.21 401.16 210.08 402.1 210.14 401.4 207.92 406.98 207.91 406.64 205.64 404.55 202.21 405.46 197.95 404.48 194.39 402.89 190.77 400.69 188.51 400.25 186.47 398.16 181.42 395.77 181.61 393.93 180.18 394.79 182.58 393.82 183.24 391.21 188.25 384.75 190.16 384.72 192.41 384 193.62 385.01 195.58 388.05 197.61 388.62 200.16 390.46 201.01 389.88 202.43 391.85 204.71 393.95 208.47 393.56 209.65 395.05 211.38 395.45 214.57 394.86 215.88 393.54 215.96"/><polygon class="cls-5" points="329.59 122.01 336.29 130.62 338.95 139.54 339.49 146.03 337.6 150.86 337.32 155.51 339.57 163.4 341.54 166.4 342.79 171.66 340.88 175.82 344.44 181.13 349.53 185.47 350.3 184.54 355.48 184.6 355.47 183.11 364.64 182.98 364.63 181.44 366.82 181.5 366.83 180.79 377.08 180.9 374.19 179.34 374.22 178.6 372.05 178.36 370.91 176 370.55 173.43 368.92 173.46 367.81 172.22 367.45 170.01 366.35 169.63 366.95 164.44 368.44 163.49 370.23 161.27 369.25 159.12 369.25 156.89 367.06 152.5 367.53 147.59 369.03 146.81 372.53 146.93 374.36 146.29 374.27 137.06 373.47 137.06 373.49 135.04 372.46 135.04 372.49 132.47 371.6 130.05 372.03 126.81 373.18 126.34 372.64 123.2 348.51 123.26 348.51 121.97 329.59 122.01"/><polygon class="cls-5" points="369.92 208.93 374.67 217.59 370.22 211.68 372.06 216.01 369.51 223.71 372.56 219.54 372.96 222.26 377.11 223.97 381.78 229.1 384.14 228.93 388.53 232.84 390.62 232.52 388.91 229.53 391.77 230.18 389.98 225.28 390.05 218.24 387.5 215.74 387.21 214.63 383.94 214.68 380.31 213.39 373.71 207.71 370.22 208.42 369.92 208.93"/><polygon class="cls-5" points="374.56 143.67 374.36 146.29 372.53 146.93 369.03 146.81 367.53 147.59 367.06 152.5 369.25 156.89 369.25 159.12 370.23 161.27 368.44 163.49 366.95 164.44 366.35 169.63 367.45 170.01 367.81 172.22 368.92 173.46 370.55 173.43 370.91 176 372.05 178.36 374.22 178.6 374.19 179.34 377.08 180.9 379.96 183.23 379.98 184.06 382.21 187.96 383.99 188.2 384.75 190.16 391.21 188.25 393.82 183.24 394.79 182.58 392.87 178.32 393.58 177.08 396.1 177.13 393.38 175.18 393.21 172.26 390.13 170.59 389.91 166.14 390.79 165.91 389.18 162.63 386.89 162.88 382.64 161.13 379.63 158.8 378.92 157.4 380.34 153.74 380.48 143.64 374.56 143.67"/><polygon class="cls-5" points="327.93 45.68 326.3 58 324.25 62.61 324.44 67.3 326.1 68.65 323.07 79.23 315.21 95.64 314.36 99.14 316.72 105.98 316.15 108.58 323.08 115.33 326.11 116.69 327.32 120.46 329.59 122.01 348.51 121.97 348.53 83.72 347.71 81.2 347.91 79.01 346.65 77.03 345.43 73.68 346.65 73.91 347.89 72.7 350.99 74.56 352.32 73.04 352.12 71.98 353.98 69.38 353.3 67.05 351.69 66.11 353.06 63.92 352.93 61.59 353.89 60.67 352.03 57.68 352.53 57.01 351.29 50.87 350.22 50.01 339.59 50.1 339.58 45.71 327.93 45.68"/><polygon class="cls-5" points="322.15 17.42 322.35 22.69 320.4 28.86 324.13 31.27 326.49 38.34 327.93 45.68 339.58 45.71 339.59 50.1 343.89 50.04 344.4 48 345.85 45.82 344.96 44.59 344.42 41.97 342.61 40.81 343.07 38.83 341.61 38.77 342.78 34.87 343.94 32.51 342.83 28.95 343.44 28.19 342.22 26.39 343.52 26.08 344.63 23.21 345.77 23.66 347.69 22.49 349.56 17.29 344.06 17.6 322.15 17.42"/><polygon class="cls-5" points="397.2 228.93 398.83 228.5 400.7 229.88 402.19 232.76 403.98 233.57 407.75 233.89 409.63 235.64 409.08 236.43 411.09 237.87 427.06 232.78 427.87 231.2 426.17 230.81 427.02 227.61 426.08 223.36 423.08 220.98 419.78 222.81 408.66 220.87 403.56 222.65 399.9 220.86 392.57 225.56 394.19 228.2 397.2 228.93"/><polygon class="cls-5" points="397.2 228.93 396.58 233.88 399.93 234.61 399.23 236.79 403.07 240.21 405.39 248.83 410.54 250.73 412.5 251.04 414.87 249.54 430.41 249.68 429.14 247.48 427.06 246.65 427.06 232.78 411.09 237.87 409.08 236.43 409.63 235.64 407.75 233.89 403.98 233.57 402.19 232.76 400.7 229.88 398.83 228.5 397.2 228.93"/><polygon class="cls-6" points="583.58 448.38 588.19 452.2 594.26 461.15 597.05 471.07 595.98 474.17 597.85 479.95 600.54 480.84 602.24 488.53 642.45 484.57 642.57 463.12 643.44 463.11 643.28 446.52 597.6 446.24 597.58 445.43 592.48 443.46 592.74 442.78 586.99 442.78 586.99 444.35 584.27 445.2 583.58 448.38"/><polygon class="cls-6" points="651.56 483.74 697.25 479.87 697.93 478.62 701.36 479.41 704.86 478.07 704.67 476.47 707.15 473.93 707.39 470.98 705.27 465.34 702.05 465.44 700.2 464.35 699.18 464.85 697.76 462.48 698.86 458.95 698.93 453.89 697.1 453.04 698.06 449.59 697.07 447.73 700.9 446.16 643.28 446.52 643.44 463.11 642.57 463.12 642.45 484.57 651.56 483.74"/><polygon class="cls-6" points="432.67 173.46 437.03 170.62 438.02 171.53 438.02 161.55 438.51 159.45 440.33 158.89 440.91 157.16 442.64 156.34 444.01 153.92 445.74 153.17 448.19 153.32 447.7 147.03 446.76 145.89 448.1 144.74 448.69 140.62 446.03 142.79 444.83 144.33 443.14 144.94 443.14 146.42 439.56 146.41 439.57 147.1 437.01 146.77 436.62 149.01 435.84 149.38 435.85 151.6 434.7 152.72 434.33 154.69 433 155.95 430.29 156.3 426.81 157.75 424.88 157.03 423.93 159.97 424.79 161.64 424.62 163.98 425.9 168.75 424.95 170.34 426.49 176.39 427.58 174.69 429.71 173.69 432.67 173.46"/><polygon class="cls-6" points="405.46 197.95 407.31 197.76 409.07 199.18 411.84 196.92 415.08 196.66 418.82 197.32 419.88 196.7 421.61 197.26 421.63 208.02 425.63 208.05 428.45 205.68 428.65 203.31 428.05 202.25 429.19 201.62 428.95 200 426.96 198.72 428.31 197.66 429.06 194.26 427.33 193.6 426.73 191.43 425.58 191.34 424.15 188.63 425.64 185.32 424.4 184.19 424 185.12 421.7 185.08 421.77 183.67 420.48 183.25 420.47 180.79 419.44 179.83 418.07 180.57 416.86 179.56 417.2 177.6 416.03 177.13 393.58 177.08 392.87 178.32 393.93 180.18 395.77 181.61 398.16 181.42 400.25 186.47 400.69 188.51 402.89 190.77 404.48 194.39 405.46 197.95"/><polygon class="cls-6" points="348.51 121.97 348.51 123.26 372.64 123.2 371.94 122.16 371.56 116.91 370.44 114.56 371.21 112.45 370.46 109.15 368 108.22 367.44 107.24 367.31 104.89 370.15 101.59 370.08 100.44 371.78 100.28 373.9 99.03 376.11 95.91 378.2 95.43 378.52 94.06 380.97 92.27 381.93 92.58 381.5 89.36 379.83 86.3 381 86.01 381.19 83.31 383.08 81.94 383.22 79.21 385.81 75.34 385.54 72.31 388.69 69.35 389.26 65.48 391.48 65.04 391.92 61.76 389.85 60.52 388.89 58.91 389.26 55.22 390.62 53.3 387.74 51.11 386.42 51.25 386.2 53 384.03 53.07 383.71 54.93 381.41 55.68 380.91 57.08 378.84 58 377.49 59.48 374.54 59.35 372.57 60.81 371.55 60.59 371.94 62.19 371.08 64.23 371.33 65.8 373.06 66.33 374.08 68.61 373.29 70.42 371.43 69.47 368.57 69.89 367.85 67.66 364.44 65.95 360.56 66.13 359.22 63.66 356.14 61.58 354.96 62.17 353.89 60.67 352.93 61.59 353.06 63.92 351.69 66.11 353.3 67.05 353.98 69.38 352.12 71.98 352.32 73.04 350.99 74.56 347.89 72.7 346.65 73.91 345.43 73.68 346.65 77.03 347.91 79.01 347.71 81.2 348.53 83.72 348.51 121.97"/><polygon class="cls-6" points="372.64 123.2 373.18 126.34 372.03 126.81 371.6 130.05 372.49 132.47 407.71 132.49 406.8 130.29 407.77 128.06 417.29 128.04 419.4 126.88 419.57 125.24 421.27 122.89 423.53 122.98 423.94 120.74 425.53 119.1 425.89 116.89 428.88 116.89 431.17 115.77 431.8 114.23 431.71 111.99 432.96 112.19 434.5 111.11 435.22 107.81 434.17 106.67 435.54 106.06 433.98 104.46 430.47 103.96 429.92 101.55 430.33 100.15 429.4 99.01 426.73 99 425.8 99.73 423.52 99.58 421.96 98.62 420.03 99.53 417.19 99.04 414.3 99.5 411.88 100.58 409.14 100 404.43 101.44 397.28 102.88 391.96 102.76 388.84 101.66 383.83 105.09 379.96 103.16 375.8 104.34 375.07 104.02 372.98 106.24 370.94 105.78 367.44 107.24 368 108.22 370.46 109.15 371.21 112.45 370.44 114.56 371.56 116.91 371.94 122.16 372.64 123.2"/><polygon class="cls-6" points="416.03 177.13 417.2 177.6 416.86 179.56 418.07 180.57 419.44 179.83 420.47 180.79 420.48 183.25 421.77 183.67 421.7 185.08 424 185.12 424.4 184.19 425.64 185.32 425.24 186.7 429.92 186.76 430.51 185.91 430.51 177.05 432.69 177.03 432.67 173.46 429.71 173.69 427.58 174.69 426.49 176.39 424.95 170.34 425.9 168.75 424.62 163.98 424.79 161.64 423.93 159.97 424.41 158.22 423.88 157.71 413.17 157.8 411.59 161.04 412.33 163.24 411.69 164.08 413.93 169.6 415.53 169.68 417.54 173.38 415.87 175.55 416.03 177.13"/><polygon class="cls-6" points="353.89 60.67 354.96 62.17 356.14 61.58 359.22 63.66 360.56 66.13 364.44 65.95 367.85 67.66 368.57 69.89 371.43 69.47 373.29 70.42 374.08 68.61 373.06 66.33 371.33 65.8 371.08 64.23 371.94 62.19 371.55 60.59 372.57 60.81 374.54 59.35 377.49 59.48 378.84 58 380.91 57.08 381.41 55.68 383.71 54.93 384.03 53.07 386.2 53 386.42 51.25 387.74 51.11 390.62 53.3 389.26 55.22 388.89 58.91 389.85 60.52 431.42 60.48 431 20 431.37 17.47 394.6 16.83 368.24 17.17 364.26 16.85 356.29 17.39 349.56 17.29 347.69 22.49 345.77 23.66 344.63 23.21 343.52 26.08 342.22 26.39 343.44 28.19 342.83 28.95 343.94 32.51 342.78 34.87 341.61 38.77 343.07 38.83 342.61 40.81 344.42 41.97 344.96 44.59 345.85 45.82 344.4 48 343.89 50.04 350.22 50.01 351.29 50.87 352.53 57.01 352.03 57.68 353.89 60.67"/><polygon class="cls-6" points="488.43 150.58 488.54 136.36 487.96 137.07 462.73 137.18 461.68 138.71 458.96 136.51 457.26 137.01 456.35 135.1 454.17 133.56 451.65 135.52 451.06 138.92 448.69 140.62 448.1 144.74 446.76 145.89 447.7 147.03 448.19 153.32 449.35 152.15 451.76 152.01 455.5 150.82 457.3 150.78 460.38 148.65 462.53 146.56 465.74 146.58 466.6 147.09 467.46 149.59 468.6 150.53 488.43 150.58"/><polygon class="cls-6" points="429.4 99.01 436.11 99.02 436.42 75.03 435.93 75.05 435.97 60.46 389.85 60.52 391.92 61.76 391.48 65.04 389.26 65.48 388.69 69.35 385.54 72.31 385.81 75.34 383.22 79.21 383.08 81.94 381.19 83.31 381 86.01 379.83 86.3 381.5 89.36 381.93 92.58 380.97 92.27 378.52 94.06 378.2 95.43 376.11 95.91 373.9 99.03 371.78 100.28 370.08 100.44 370.15 101.59 367.31 104.89 367.44 107.24 370.94 105.78 372.98 106.24 375.07 104.02 375.8 104.34 379.96 103.16 383.83 105.09 388.84 101.66 391.96 102.76 397.28 102.88 404.43 101.44 409.14 100 411.88 100.58 414.3 99.5 417.19 99.04 420.03 99.53 421.96 98.62 423.52 99.58 425.8 99.73 426.73 99 429.4 99.01"/><polygon class="cls-6" points="427.06 232.78 427.06 246.65 429.14 247.48 430.41 249.68 438.24 241.88 441.67 239.41 442.78 237.94 445.58 236.73 447.92 236.75 449.22 235.79 452.2 236.86 451.97 219.9 451.48 219.35 448.03 208.81 446.68 208.84 440.29 211.52 438.45 211.11 435.67 212.29 432.44 211.87 430.43 210.74 428.15 214.05 428.34 215.16 426 218.09 426.56 218.92 426.08 223.36 427.02 227.61 426.17 230.81 427.87 231.2 427.06 232.78"/><polygon class="cls-6" points="419.93 219.51 426.56 218.92 426 218.09 428.34 215.16 428.15 214.05 430.43 210.74 432.44 211.87 435.67 212.29 438.45 211.11 440.29 211.52 446.68 208.84 448.03 208.81 447.98 198.21 444.37 187.63 443.49 187.9 429.92 186.76 425.24 186.7 424.15 188.63 425.58 191.34 426.73 191.43 427.33 193.6 429.06 194.26 428.31 197.66 426.96 198.72 428.95 200 429.19 201.62 428.05 202.25 428.65 203.31 428.45 205.68 425.63 208.05 425.14 208.94 425.26 212.71 424.74 213.96 422.75 214.79 421.09 218.53 419.93 219.51"/><polygon class="cls-6" points="429.4 99.01 430.33 100.15 429.92 101.55 430.47 103.96 433.98 104.46 435.54 106.06 434.17 106.67 435.22 107.81 434.5 111.11 432.96 112.19 431.71 111.99 431.8 114.23 433.08 114.24 433.06 116.11 434.57 117.63 432.49 121.26 432.85 124.22 432.07 126.47 432.79 128.7 434.79 129.52 435.2 131.05 438.46 133.98 438.47 134.73 440.73 136.19 440.81 137.5 442.3 138.25 443.66 141.2 445.2 141.58 446.03 142.79 451.06 138.92 451.65 135.52 454.17 133.56 456.35 135.1 457.26 137.01 458.96 136.51 461.68 138.71 462.73 137.18 482.76 137.12 484.21 134.13 484.28 125.19 482.11 123.69 481.37 121.38 480.63 121.38 480.3 117.63 478.82 117.64 478.83 116.5 475.09 116.13 472.46 114.46 470.96 112.94 470.63 111.44 469.5 111.44 468.39 109.21 465.79 108.44 465.79 107.32 463.97 107.3 462.81 106.17 458.37 105.73 457.09 106.52 457.12 107.72 455.63 108.08 454.13 109.59 454.13 111.77 451.88 112.16 451.19 110.67 448.92 110.65 446.63 108.82 446.64 98.96 429.4 99.01"/><polygon class="cls-6" points="429.92 186.76 443.49 187.9 444.99 184.17 445.08 182.66 446.75 181.05 446.93 178.38 450.74 176.38 451.43 175.21 454.45 175.61 456.47 173.27 458.23 172.81 460.01 173.34 462.7 175.89 464.38 176.18 466.26 177.68 468.36 176.76 469.98 175.01 471.39 171.84 475.61 172.15 481.31 171.71 482.9 169.86 488.48 169.85 488.33 157.16 463.06 157.22 459.8 158.62 456.79 161.41 454.93 162.49 454.16 164.14 451.14 165.99 449.6 168.09 449.36 169.48 447.42 172.59 444.91 172.67 443.63 171.35 441.74 172.6 440.37 172.69 438.02 171.53 437.03 170.62 432.67 173.46 432.69 177.03 430.51 177.05 430.51 185.91 429.92 186.76"/><polygon class="cls-6" points="438.02 171.53 440.37 172.69 441.74 172.6 443.63 171.35 444.91 172.67 447.42 172.59 449.36 169.48 449.6 168.09 451.14 165.99 454.16 164.14 454.93 162.49 456.79 161.41 459.8 158.62 463.06 157.22 488.33 157.16 488.43 150.58 468.6 150.53 467.46 149.59 466.6 147.09 465.74 146.58 462.53 146.56 460.38 148.65 457.3 150.78 455.5 150.82 451.76 152.01 449.35 152.15 448.19 153.32 445.74 153.17 444.01 153.92 442.64 156.34 440.91 157.16 440.33 158.89 438.51 159.45 438.02 161.55 438.02 171.53"/><polygon class="cls-6" points="431.37 17.47 431 20 431.42 60.48 488.58 60.45 488.61 17.63 431.37 17.47"/><polygon class="cls-6" points="435.97 60.46 435.93 75.05 436.42 75.03 436.11 99.02 446.64 98.96 446.63 108.82 448.92 110.65 451.19 110.67 451.88 112.16 454.13 111.77 454.13 109.59 455.63 108.08 457.12 107.72 457.09 106.52 458.37 105.73 462.81 106.17 463.97 107.3 465.79 107.32 465.79 108.44 468.39 109.21 469.5 111.44 470.63 111.44 470.96 112.94 472.46 114.46 475.09 116.13 478.83 116.5 478.82 117.64 480.3 117.63 480.63 121.38 481.37 121.38 482.11 123.69 484.28 125.19 484.21 134.13 482.76 137.12 487.96 137.07 488.54 136.36 488.69 118.47 488.58 60.45 435.97 60.46"/><polygon class="cls-6" points="374.56 143.67 380.48 143.64 380.34 153.74 404.17 153.63 404.16 152.15 409.19 152.19 409.16 153.71 413.89 153.71 414.65 150.35 414.39 147.28 415.22 145.88 409.78 146.04 409.42 144.02 409.85 141.13 410.8 140.16 410.13 139.05 411.85 137.61 408.57 134.03 407.71 132.49 372.49 132.47 372.46 135.04 373.49 135.04 373.47 137.06 374.27 137.06 374.56 143.67"/><polygon class="cls-6" points="447.98 198.21 451.29 197.23 453.6 197.37 455.32 195.79 458.54 195.85 463.76 198.47 468.41 198.04 473.63 196.37 475.99 196.44 478.07 195.54 479.74 193.74 480.09 192.12 483.17 191.49 484.2 188.22 485.72 188.37 489.96 184.66 493.43 179.82 492.36 176.68 488.54 173.31 488.48 169.85 482.9 169.86 481.31 171.71 475.61 172.15 471.39 171.84 469.98 175.01 468.36 176.76 466.26 177.68 464.38 176.18 462.7 175.89 460.01 173.34 458.23 172.81 456.47 173.27 454.45 175.61 451.43 175.21 450.74 176.38 446.93 178.38 446.75 181.05 445.08 182.66 444.99 184.17 443.49 187.9 444.37 187.63 447.98 198.21"/><polygon class="cls-6" points="380.34 153.74 378.92 157.4 379.63 158.8 382.64 161.13 386.89 162.88 389.18 162.63 390.79 165.91 389.91 166.14 390.13 170.59 393.21 172.26 393.38 175.18 396.1 177.13 416.03 177.13 415.87 175.55 417.54 173.38 415.53 169.68 413.93 169.6 411.69 164.08 412.33 163.24 411.59 161.04 413.17 157.8 413.89 153.71 409.16 153.71 409.19 152.19 404.16 152.15 404.17 153.63 380.34 153.74"/><polygon class="cls-6" points="449.24 212.46 451.48 219.35 462.74 232.18 463.53 230.77 466.03 229.06 468.23 226.12 467.45 224.28 470.29 223.19 471.09 220.84 473.28 217.96 474.01 216.14 477.9 210.16 480.47 207.22 481.6 205 483.21 203.87 485.11 203.5 487.79 201.98 485.71 201.29 485.71 198.12 483.63 198.83 480.45 198.57 475.5 200.38 471.85 199.97 470.35 201.34 468.82 201.27 467.89 202.53 464.27 204.2 463.64 206.68 459.44 208.31 458.77 209.29 456.57 209.61 453.82 211.68 450.17 212.86 449.24 212.46"/><polygon class="cls-6" points="407.71 132.49 408.57 134.03 411.85 137.61 410.13 139.05 410.8 140.16 409.85 141.13 409.42 144.02 409.78 146.04 415.22 145.88 414.39 147.28 414.65 150.35 413.17 157.8 423.88 157.71 424.41 158.22 424.88 157.03 426.81 157.75 430.29 156.3 433 155.95 434.33 154.69 434.7 152.72 435.85 151.6 435.84 149.38 436.62 149.01 437.01 146.77 439.57 147.1 439.56 146.41 443.14 146.42 443.14 144.94 444.83 144.33 446.03 142.79 445.2 141.58 443.66 141.2 442.3 138.25 440.81 137.5 440.73 136.19 438.47 134.73 438.46 133.98 435.2 131.05 434.79 129.52 432.79 128.7 432.07 126.47 432.85 124.22 432.49 121.26 434.57 117.63 433.06 116.11 433.08 114.24 431.8 114.23 431.17 115.77 428.88 116.89 425.89 116.89 425.53 119.1 423.94 120.74 423.53 122.98 421.27 122.89 419.57 125.24 419.4 126.88 417.29 128.04 407.77 128.06 406.8 130.29 407.71 132.49"/><polygon class="cls-6" points="447.98 198.21 448.03 208.81 449.24 212.46 450.17 212.86 453.82 211.68 456.57 209.61 458.77 209.29 459.44 208.31 463.64 206.68 464.27 204.2 467.89 202.53 468.82 201.27 470.35 201.34 471.85 199.97 475.5 200.38 480.45 198.57 483.63 198.83 485.71 198.12 485.72 188.37 484.2 188.22 483.17 191.49 480.09 192.12 479.74 193.74 478.07 195.54 475.99 196.44 473.63 196.37 468.41 198.04 463.76 198.47 458.54 195.85 455.32 195.79 453.6 197.37 451.29 197.23 447.98 198.21"/><polygon class="cls-6" points="576.18 421.8 580.5 425.4 581.23 422.82 582.99 422.82 583.01 420.6 585.08 419.8 585.07 417.64 592.3 417.63 592.3 418.32 598.23 418.36 598.23 419.04 609.92 419.02 609.91 417.62 673.67 417.62 673.67 415.54 708.48 415.45 709.25 414.12 712.98 412.66 714.34 411.11 715.56 410.99 719.18 407.23 720.33 406.94 720.22 404.77 718.69 402.56 716.75 401.77 712.26 397.68 710.4 397.36 710.64 393.92 708.44 390.7 707.87 387.29 707.01 385.09 703.84 382.53 702.28 378.95 700.86 377.87 700.65 371.21 660.55 332.06 657.09 332.07 657.09 332.82 582.12 332.65 582.07 336.9 581.36 338.32 582.78 338.31 582.09 339.74 582.16 379.86 580.76 379.85 580.77 392.56 581.62 405.4 580.36 411.37 578.03 418.37 576.79 418.12 575.4 420.41 576.18 421.8"/><polygon class="cls-6" points="586.99 442.78 592.74 442.78 592.48 443.46 597.58 445.43 597.6 446.24 643.28 446.52 700.9 446.16 701.07 445.07 703.63 441.47 704.97 440.5 704.32 438.68 705.05 437.74 704.66 434.96 706.06 433.67 705.64 430.3 704.82 428.06 704.74 426.03 705.77 425.64 704.54 422.79 708.36 418.17 708.48 415.45 673.67 415.54 673.67 417.62 609.91 417.62 609.92 419.02 598.23 419.04 598.23 418.36 592.3 418.32 592.3 417.63 585.07 417.64 585.08 419.8 583.01 420.6 582.99 422.82 581.23 422.82 580.5 425.4 584.18 430.22 585.93 430.78 586.03 433.03 588.38 433.34 590.81 435.47 586.97 441.4 586.99 442.78"/><polygon class="cls-6" points="563.43 431.07 566.38 434.56 576.06 441 578.9 444.91 583.58 448.38 584.27 445.2 586.99 444.35 586.97 441.4 590.81 435.47 588.38 433.34 586.03 433.03 585.93 430.78 584.18 430.22 580.5 425.4 576.18 421.8 568.55 421.83 568.54 423.89 565.27 426.58 563.43 431.07"/><polygon class="cls-6" points="509.26 401.42 516.95 406.35 519.04 411.62 522.95 414.48 530.27 417.09 530.44 415.67 536.45 411.21 541.22 411.23 541.23 407.77 542.62 407.78 542.46 405.32 532.76 381.39 529.02 381.38 529.02 380.35 518.47 380.25 518.47 378.16 517.15 377.1 512.98 377.1 512.99 376.07 510.62 376.06 510.62 397.46 510.25 400.28 509.26 401.42"/><polygon class="cls-6" points="507 453.2 505.47 454.45 509.57 456.54 511.43 455.85 507 453.2"/><polygon class="cls-6" points="509.26 401.42 510.25 400.28 510.62 397.46 510.62 376.06 506.92 376.24 503.75 373.68 501.48 372.57 498.63 372.57 495.27 371.02 494.33 369.74 492.12 369.39 491.41 368.41 489.37 368.52 484.92 365.78 481.9 367.72 481.15 369.79 475.57 370.55 476.65 373.06 476.75 375.76 471.27 371.89 468.97 371.63 463.52 373.25 462.93 372.52 462.07 375.92 464.46 378.13 463.39 383.06 464.85 385.52 463.1 391.48 468.37 394.24 470.69 397.95 476.76 396.8 488.27 397.24 493.4 399.81 500.07 400.36 506.1 399.56 509.26 401.42"/><polygon class="cls-6" points="491.86 415.56 493.55 420.2 499.85 421.09 505.98 419.47 505.83 416.59 503.15 418.6 499.92 417.18 491.86 415.56"/><polygon class="cls-6" points="486.42 417.46 479.19 418.81 483.85 424.29 489.83 422.01 486.42 417.46"/><polygon class="cls-6" points="474.12 415.72 471.29 417.42 476.76 418.25 474.12 415.72"/><polygon class="cls-6" points="530.27 417.09 535.77 419.24 538.17 417.71 545.03 417.27 548.14 418.97 552.18 427.03 551.36 431.58 555.83 433.06 557.7 430.19 563.77 430 565.27 426.58 568.54 423.89 568.55 421.83 576.18 421.8 575.4 420.41 576.79 418.12 578.03 418.37 580.36 411.37 581.62 405.4 580.77 392.56 580.76 379.85 533.67 380.08 532.76 381.39 542.46 405.32 542.62 407.78 541.23 407.77 541.22 411.23 536.45 411.21 530.44 415.67 530.27 417.09"/><polygon class="cls-6" points="543.67 444.01 548.3 446.81 549.58 451.45 554.76 452.52 555.35 450.75 552.9 447.27 543.67 444.01"/><polygon class="cls-6" points="544.14 464.94 547.88 473.62 550.78 475.91 553.09 474.3 548.2 470.01 544.14 464.94"/><polygon class="cls-6" points="473.26 242.11 473.09 239.62 475.7 241.34 476.48 240.53 474.93 237.56 481.11 235.41 481.36 234.03 483.55 234.72 485.44 232.36 492.25 235.9 493.93 235.19 496.11 236.05 502.26 233.28 502.56 231.46 503.98 231.14 505.73 228.71 507 228.65 509.35 231.02 511.23 230.46 512.1 231.94 514.17 232.49 517.47 236.84 520.14 233.58 519.62 230.31 520.16 229.64 515.91 226.45 515.35 225.24 516.06 222.59 514.27 219.49 512.41 218.42 509.77 218.85 509.54 217.34 505.31 215.87 504.96 214.53 503.09 213.8 504.22 211.98 503.87 210.65 502.35 209.39 502.84 207.35 500.44 205.42 500.48 203.16 498.31 202.83 496.42 203.6 493.13 205.88 487.79 201.98 485.11 203.5 483.21 203.87 481.6 205 480.47 207.22 477.9 210.16 474.01 216.14 473.28 217.96 471.09 220.84 470.29 223.19 467.45 224.28 468.23 226.12 466.03 229.06 463.53 230.77 462.74 232.18 473.26 242.11"/><polygon class="cls-6" points="505.45 298.81 507.22 298.87 507.2 303.09 509.33 303.12 509.34 309.59 507.18 309.55 506.83 333.02 567.3 333.04 567.4 329.46 568.37 329.25 567.93 325.5 566.89 324.66 567.47 323.55 566.29 322.32 564.97 318.24 565.16 314.24 564.03 313.11 562.57 309.04 563.76 306.55 561.29 303.47 562.16 302.28 561.42 301.57 559.13 301.45 557.74 299.12 558.33 298.56 557.66 296.19 556.13 295.38 556.76 293.47 554.94 292.01 554.6 290.05 553.14 288.82 554.39 288.15 553.37 286.2 528.79 286.36 528.7 290.52 516.05 290.35 516.04 294.64 509.67 294.56 505.45 298.81"/><polygon class="cls-6" points="440.1 266.92 450.48 256.45 449.68 253.78 473.26 242.11 462.74 232.18 451.97 219.9 452.2 236.86 449.22 235.79 447.92 236.75 445.58 236.73 442.78 237.94 441.67 239.41 438.24 241.88 430.38 249.66 430.39 252.59 431.01 253.97 432.76 254.28 432.32 255.8 433.03 258.18 430.92 259.58 431.05 261.24 432.59 263.13 433.07 265.87 435.05 264.49 436.08 265.37 437.91 264.49 440.1 266.92"/><polygon class="cls-6" points="462.93 372.52 463.52 373.25 468.97 371.63 471.27 371.89 476.75 375.76 476.65 373.06 475.57 370.55 481.15 369.79 481.9 367.72 484.92 365.78 489.37 368.52 491.41 368.41 492.12 369.39 494.33 369.74 495.27 371.02 498.63 372.57 501.48 372.57 503.75 373.68 506.92 376.24 509.41 376.06 509.42 367.59 508.71 366.87 505.93 367.06 506.22 362.61 501.74 362.86 501.75 358.61 496.11 358.56 496.12 354.33 493.31 354.32 493.32 350.06 488.68 350.04 488.68 348.62 485.15 345.82 485.19 341.54 480.92 341.55 480.91 333.04 435.34 332.75 437.93 338.99 442.59 340.62 448.92 349 452.79 349.61 454.49 354.53 453.11 359.32 458.7 363.55 462.85 364.16 463.69 368.33 462.93 372.52"/><polygon class="cls-6" points="423.62 278.83 424.48 281.2 425.44 281.64 429.15 285.59 430.04 285.18 431.19 287.22 429.92 287.76 430.56 289.13 432.92 290.54 435.23 290.95 436.48 292.84 436.07 295.56 437.39 296.92 436.86 298.28 439.42 297.92 441.42 300.92 447.45 306.9 447.47 309.49 449.36 309.55 449.64 308.42 450.9 309.32 452.2 307.54 454.39 308.44 457.39 311.26 458.49 312.8 460.46 313.05 460.67 311.64 459.07 307.57 461.76 309.68 462.55 307.28 465 306.68 464.98 298.84 451.68 285.85 443.47 281.67 441.23 277.83 439.79 277.21 440.55 275.51 432.53 275.55 431.19 274.15 429.74 274.43 428.76 276.31 426.08 278.51 424.19 277.96 423.62 278.83"/><polygon class="cls-6" points="416.99 281 417.91 283.25 416.8 289.55 413.9 293.27 412.06 291.51 412.03 299.63 413.51 307.73 416.04 310.56 420.75 313.23 424.02 316.83 426.4 321.6 428.85 322.43 430.8 328.34 435.34 332.75 480.12 333.03 479.86 331.56 478.33 330.31 478.96 328.73 477.55 327.3 476.13 327.29 474.36 324.51 471.46 324.27 469.66 322.26 467.23 320.96 462.94 317.48 462.18 314.9 463.81 312.82 461.64 310.47 461.76 309.68 459.07 307.57 460.67 311.64 460.46 313.05 458.49 312.8 457.39 311.26 454.39 308.44 452.2 307.54 450.9 309.32 449.64 308.42 449.36 309.55 447.47 309.49 447.45 306.9 441.42 300.92 439.42 297.92 436.86 298.28 437.39 296.92 436.07 295.56 436.48 292.84 435.23 290.95 432.92 290.54 430.56 289.13 429.92 287.76 431.19 287.22 430.04 285.18 429.15 285.59 425.44 281.64 424.48 281.2 423.62 278.83 420.42 277.83 418.08 279.23 416.99 281"/><polygon class="cls-6" points="502.84 207.35 502.35 209.39 503.87 210.65 504.22 211.98 503.09 213.8 504.96 214.53 505.31 215.87 509.54 217.34 509.77 218.85 512.41 218.42 514.27 219.49 516.06 222.59 515.35 225.24 515.91 226.45 520.16 229.64 519.62 230.31 520.14 233.58 517.47 236.84 519.55 238.09 520.25 236.96 523.18 237.1 525.52 239.57 526.81 242.27 527.21 244.5 529.01 245.94 531.37 246.27 534 249.98 536.12 249.34 536.99 250.61 574.23 250.52 539.39 218.66 504.96 187.84 503.81 190.24 503.63 193.39 506.64 198.64 505.89 203.13 503.51 203.98 504.09 205.36 502.84 207.35"/><polygon class="cls-6" points="440.1 266.92 439.46 269.01 440.78 270.22 439.34 272.33 439.38 273.95 440.55 275.51 439.79 277.21 441.23 277.83 443.47 281.67 452.27 286.42 469.74 268.82 475.1 267.43 479.6 265.5 483.83 265.4 486.52 264.52 484.9 262.56 481.53 260.59 481.36 259.15 478.07 253.72 477.71 251.58 473.26 242.12 449.68 253.78 450.48 256.45 440.1 266.92"/><polygon class="cls-6" points="473.26 242.12 477.71 251.58 478.07 253.72 481.36 259.15 481.53 260.59 484.9 262.56 486.52 264.52 497.99 252.9 502.36 252.87 502.36 250.69 503.77 250.69 503.79 249.04 505.01 249.04 505.04 245.77 515.89 234.9 514.17 232.49 512.1 231.94 511.23 230.46 509.35 231.02 507 228.65 505.73 228.71 503.98 231.14 502.56 231.46 502.26 233.28 496.11 236.05 493.93 235.19 492.25 235.9 485.44 232.36 483.55 234.72 481.36 234.03 481.11 235.41 474.93 237.56 476.48 240.53 475.7 241.34 473.09 239.62 473.26 242.12"/><polygon class="cls-6" points="467.15 271.41 470.79 277.93 470.54 280.37 473.26 282.29 473.95 284.22 475.77 284.15 479.49 284.99 485.43 282.23 487.45 282.75 489.19 281.45 490.81 281.79 493.13 280.59 495.74 281.1 496.95 278.65 499.1 276.14 498.83 275.08 500.8 273 502.07 272.94 502.04 271.67 503.55 272.28 504.19 270.08 505.85 270.42 506.85 268.42 505.62 267.78 505.98 266.47 507.42 267.16 508.07 266.14 509.5 268.14 509.91 266.38 511.57 265.47 512.83 266.18 515.01 263.43 515.38 261.35 514.88 258.1 516.77 255 527.21 244.5 526.81 242.27 525.52 239.57 523.18 237.1 520.25 236.96 519.55 238.09 517.47 236.84 515.89 234.9 505.04 245.77 505.01 249.04 503.79 249.04 503.77 250.69 502.36 250.69 502.36 252.87 497.99 252.9 486.52 264.52 483.83 265.4 479.6 265.5 475.1 267.43 469.74 268.82 467.15 271.41"/><polygon class="cls-6" points="476.13 327.29 477.55 327.3 478.96 328.73 478.33 330.31 479.86 331.56 480.12 333.03 506.83 333.02 507.18 309.55 509.34 309.59 509.33 303.12 507.2 303.09 507.22 298.87 505.45 298.81 501.75 302.25 501.56 301.64 498.58 302.36 498.3 303.07 490.16 303.12 490.19 313.89 476.13 327.29"/><polygon class="cls-6" points="480.91 333.04 480.92 341.55 485.19 341.54 485.15 345.82 488.68 348.62 488.68 350.04 493.32 350.06 493.31 354.32 496.12 354.33 496.11 358.56 501.75 358.61 501.74 362.86 506.22 362.61 505.93 367.06 508.71 366.87 509.42 367.59 509.41 376.06 512.99 376.07 512.98 377.1 517.15 377.1 518.47 378.16 518.47 380.25 529.02 380.35 529.02 381.38 532.76 381.39 533.67 380.08 582.16 379.86 582.09 339.74 582.78 338.31 581.36 338.32 582.07 336.9 582.12 332.65 570.6 332.6 570.65 333.16 549.04 332.87 480.91 333.04"/><polygon class="cls-6" points="553.37 286.2 554.39 288.15 553.14 288.82 554.6 290.05 554.94 292.01 556.76 293.47 556.13 295.38 557.66 296.19 558.33 298.56 557.74 299.12 559.13 301.45 561.42 301.57 562.16 302.28 561.29 303.47 563.76 306.55 562.57 309.04 564.03 313.11 565.16 314.24 564.97 318.24 566.29 322.32 567.47 323.55 566.89 324.66 567.93 325.5 568.37 329.25 567.4 329.46 567.3 333.04 570.65 333.16 570.6 332.6 657.09 332.82 657.09 332.07 660.55 332.06 627.36 300.26 574.23 250.52 536.99 250.61 537.6 251.98 536.4 254.05 537.26 255.68 536.53 256.56 538.37 257.97 539.32 257.32 541.33 260.66 540.56 261.56 540.68 263.43 541.75 266.57 544.19 266.75 546.35 267.97 549.15 270.29 549.91 270.19 550.7 273 553.36 279.15 553.33 281.24 552.21 281.78 553.37 286.2"/><polygon class="cls-6" points="461.76 309.68 461.64 310.47 463.81 312.82 462.18 314.9 462.94 317.48 467.23 320.96 469.66 322.26 471.46 324.27 474.36 324.51 476.13 327.29 490.19 313.89 490.16 303.12 498.3 303.07 498.58 302.36 501.56 301.64 501.75 302.25 509.67 294.56 516.04 294.64 516.05 290.35 528.7 290.52 528.79 286.36 553.37 286.2 552.21 281.78 553.33 281.24 553.36 279.15 550.7 273 549.91 270.19 549.15 270.29 546.35 267.97 544.19 266.75 541.75 266.57 540.68 263.43 540.56 261.56 541.33 260.66 539.32 257.32 538.37 257.97 536.53 256.56 537.26 255.68 536.4 254.05 537.6 251.98 536.99 250.61 536.12 249.34 534 249.98 531.37 246.27 529.01 245.94 527.21 244.5 516.77 255 514.88 258.1 515.38 261.35 515.01 263.43 512.83 266.18 511.57 265.47 509.91 266.38 509.5 268.14 508.07 266.14 507.42 267.16 505.98 266.47 505.62 267.78 506.85 268.42 505.85 270.42 504.19 270.08 503.55 272.28 502.04 271.67 502.07 272.94 500.8 273 498.83 275.08 499.1 276.14 496.95 278.65 495.74 281.1 493.13 280.59 490.81 281.79 489.19 281.45 487.45 282.75 485.43 282.23 479.49 284.99 475.77 284.15 473.95 284.22 473.26 282.29 470.54 280.37 470.79 277.93 467.15 271.41 452.27 286.42 464.98 298.84 465 306.68 462.55 307.28 461.76 309.68"/><polygon class="cls-6" points="485.71 198.12 485.71 201.29 487.79 201.98 493.13 205.88 496.42 203.6 498.31 202.83 500.48 203.16 500.44 205.42 502.84 207.35 504.09 205.36 503.51 203.98 505.89 203.13 506.64 198.64 503.63 193.39 503.81 190.24 504.96 187.84 492.36 176.68 493.43 179.82 489.96 184.66 485.72 188.37 485.71 198.12"/><path class="cls-7" d="M63.8,249.8l2.72-3.16a10.4,10.4,0,0,0,6.8,3c3,0,4.56-1.32,4.56-3.36s-1.68-2.84-4-3.84l-3.6-1.56c-2.56-1.08-5.28-3.12-5.28-7,0-4.16,3.68-7.36,8.8-7.36a11.55,11.55,0,0,1,8,3.32l-2.36,3a8.52,8.52,0,0,0-5.68-2.24c-2.48,0-4.12,1.16-4.12,3.08s2,2.8,4.16,3.68l3.56,1.48c3.08,1.32,5.28,3.28,5.28,7.08,0,4.24-3.52,7.76-9.4,7.76A13.55,13.55,0,0,1,63.8,249.8Z"/><path class="cls-7" d="M86,247.88c0-4.2,3.48-6.4,11.56-7.28-.08-2.08-.92-3.84-3.6-3.84a11.19,11.19,0,0,0-5.52,1.92l-1.68-3.08A15.36,15.36,0,0,1,94.8,233c4.88,0,7.32,3,7.32,8.48v11.64h-3.8L98,251h-.16a9.56,9.56,0,0,1-6.08,2.64A5.49,5.49,0,0,1,86,247.88Zm11.56,0v-4.4c-5.36.68-7.12,2.08-7.12,4,0,1.76,1.2,2.52,2.84,2.52S96,249.24,97.52,247.88Z"/><path class="cls-7" d="M107.64,233.52h3.8l.32,2.64h.16c1.76-1.72,3.76-3.12,6.44-3.12,4.2,0,6,2.84,6,7.8v12.32h-4.6V241.44c0-3.24-.92-4.44-3.08-4.44-1.72,0-2.84.84-4.48,2.44v13.72h-4.6Z"/><path class="cls-7" d="M138.44,227h15.8v3.92H143.08v7.4h9.52v3.92h-9.52v10.92h-4.64Z"/><path class="cls-7" d="M157.64,233.52h3.8l.32,3.48h.16c1.4-2.56,3.48-4,5.56-4a5,5,0,0,1,2.24.4l-.8,4a6.42,6.42,0,0,0-2-.32c-1.56,0-3.44,1.08-4.64,4v12h-4.6Z"/><path class="cls-7" d="M170.48,247.88c0-4.2,3.48-6.4,11.56-7.28-.08-2.08-.92-3.84-3.6-3.84a11.19,11.19,0,0,0-5.52,1.92l-1.68-3.08a15.36,15.36,0,0,1,8.08-2.56c4.88,0,7.32,3,7.32,8.48v11.64h-3.8l-.32-2.16h-.16a9.56,9.56,0,0,1-6.08,2.64A5.49,5.49,0,0,1,170.48,247.88Zm11.56,0v-4.4c-5.36.68-7.12,2.08-7.12,4,0,1.76,1.2,2.52,2.84,2.52S180.56,249.24,182,247.88Z"/><path class="cls-7" d="M192.16,233.52H196l.32,2.64h.16c1.76-1.72,3.76-3.12,6.44-3.12,4.2,0,6,2.84,6,7.8v12.32h-4.6V241.44c0-3.24-.92-4.44-3.08-4.44-1.72,0-2.84.84-4.48,2.44v13.72h-4.6Z"/><path class="cls-7" d="M213.28,243.36c0-6.56,4.6-10.32,9.84-10.32a8.46,8.46,0,0,1,5.76,2.2l-2.24,3a4.8,4.8,0,0,0-3.28-1.44c-3.16,0-5.36,2.6-5.36,6.56s2.16,6.52,5.24,6.52a6.55,6.55,0,0,0,4-1.68l1.88,3a9.81,9.81,0,0,1-6.4,2.4C217.4,253.64,213.28,249.88,213.28,243.36Z"/><path class="cls-7" d="M232.52,227.48a2.85,2.85,0,1,1,2.84,2.6A2.64,2.64,0,0,1,232.52,227.48Zm.52,6h4.6v19.64H233Z"/><path class="cls-7" d="M241.56,250.92l2.16-3a8.74,8.74,0,0,0,5.44,2.2c2.12,0,3.12-1,3.12-2.36,0-1.64-2.12-2.36-4.2-3.16-2.6-1-5.52-2.44-5.52-5.72,0-3.44,2.76-5.88,7.16-5.88a10.6,10.6,0,0,1,6.52,2.36l-2.12,2.8a7.31,7.31,0,0,0-4.32-1.68c-2,0-2.88.92-2.88,2.16,0,1.56,2,2.16,4.08,2.92,2.68,1,5.64,2.28,5.64,6,0,3.36-2.68,6.08-7.64,6.08A12.44,12.44,0,0,1,241.56,250.92Z"/><path class="cls-7" d="M259.48,243.36c0-6.56,4.6-10.32,9.84-10.32a8.46,8.46,0,0,1,5.76,2.2l-2.24,3a4.8,4.8,0,0,0-3.28-1.44c-3.16,0-5.36,2.6-5.36,6.56s2.16,6.52,5.24,6.52a6.55,6.55,0,0,0,4-1.68l1.88,3a9.81,9.81,0,0,1-6.4,2.4C263.6,253.64,259.48,249.88,259.48,243.36Z"/><path class="cls-7" d="M277,243.36c0-6.56,4.44-10.32,9.32-10.32s9.36,3.76,9.36,10.32-4.44,10.28-9.36,10.28S277,249.88,277,243.36Zm14,0c0-4-1.76-6.56-4.64-6.56s-4.6,2.6-4.6,6.56,1.72,6.52,4.6,6.52S291,247.28,291,243.36Z"/><path class="cls-7" d="M144.51,266.26h4.2c4.8,0,7.63,2.59,7.63,7.78s-2.83,7.92-7.48,7.92h-4.35Zm4,13.44c3.17,0,5-1.8,5-5.66s-1.8-5.52-5-5.52h-1.23V279.7Z"/><path class="cls-7" d="M159,266.55a1.71,1.71,0,1,1,1.7,1.56A1.59,1.59,0,0,1,159,266.55Zm.31,3.62H162V282h-2.76Z"/><path class="cls-7" d="M164.38,280.61l1.3-1.77a5.28,5.28,0,0,0,3.26,1.32c1.27,0,1.88-.6,1.88-1.42,0-1-1.28-1.42-2.53-1.9-1.55-.57-3.31-1.46-3.31-3.43s1.66-3.53,4.3-3.53a6.39,6.39,0,0,1,3.91,1.42L171.92,273a4.41,4.41,0,0,0-2.59-1c-1.18,0-1.73.55-1.73,1.3,0,.93,1.18,1.29,2.45,1.75,1.61.6,3.38,1.37,3.38,3.58,0,2-1.61,3.64-4.58,3.64A7.44,7.44,0,0,1,164.38,280.61Z"/><path class="cls-7" d="M175.83,278v-5.61h-1.68v-2.07l1.83-.12.33-3.21h2.31v3.21h3v2.19h-3V278c0,1.39.52,2.07,1.65,2.07a3.21,3.21,0,0,0,1.22-.27l.49,2a7.46,7.46,0,0,1-2.4.43C176.84,282.24,175.83,280.52,175.83,278Z"/><path class="cls-7" d="M184.09,270.17h2.28l.19,2.09h.1a4,4,0,0,1,3.33-2.38,3.14,3.14,0,0,1,1.35.24l-.48,2.4a3.87,3.87,0,0,0-1.23-.19c-.93,0-2.06.65-2.78,2.43V282h-2.76Z"/><path class="cls-7" d="M192.73,266.55a1.71,1.71,0,1,1,1.7,1.56A1.59,1.59,0,0,1,192.73,266.55Zm.31,3.62h2.76V282H193Z"/><path class="cls-7" d="M198.56,276.08a5.82,5.82,0,0,1,5.9-6.2,5.08,5.08,0,0,1,3.46,1.32l-1.34,1.8a2.91,2.91,0,0,0-2-.86c-1.9,0-3.22,1.56-3.22,3.94s1.3,3.91,3.15,3.91a3.93,3.93,0,0,0,2.42-1l1.13,1.82a5.9,5.9,0,0,1-3.84,1.44C201,282.24,198.56,280,198.56,276.08Z"/><path class="cls-7" d="M210.58,278v-5.61H208.9v-2.07l1.83-.12.33-3.21h2.31v3.21h3v2.19h-3V278c0,1.39.53,2.07,1.65,2.07a3.3,3.3,0,0,0,1.23-.27l.48,2a7.46,7.46,0,0,1-2.4.43C211.59,282.24,210.58,280.52,210.58,278Z"/><circle class="cls-8" cx="392.57" cy="239.77" r="29.28"/><circle class="cls-9" cx="392.57" cy="239.77" r="9.02"/></g></svg>