<svg xmlns="http://www.w3.org/2000/svg" viewBox="0 0 784.06 507.87"><defs><style>.cls-1{fill:#e6e6e6;}.cls-2{fill:#868788;opacity:0.8;}.cls-3,.cls-4,.cls-9{fill:#007dbc;}.cls-13,.cls-3{opacity:0.8;}.cls-4{opacity:0.8;}.cls-10,.cls-11,.cls-5,.cls-7,.cls-8{fill:none;}.cls-5,.cls-7,.cls-9{stroke:#0675af;stroke-linejoin:bevel;}.cls-5,.cls-9{stroke-width:0.64px;}.cls-6{fill:#a5a5a5;}.cls-10,.cls-6,.cls-8{stroke:#868788;}.cls-10,.cls-11,.cls-6,.cls-8{stroke-miterlimit:10;}.cls-10,.cls-7{stroke-width:4px;}.cls-7{stroke-dasharray:12;}.cls-8{stroke-width:5px;}.cls-9{opacity:0.8;}.cls-11{stroke:#fff;stroke-width:3px;}.cls-12,.cls-13{fill:#fff;}</style></defs><g id="State"><rect class="cls-1" x="-10.43" y="-11.06" width="804.92" height="529.99"/><polyline class="cls-1" points="180.88 350.3 185.19 351.01 191.9 349.84 204.59 360.3 211.51 357.07 214.49 357.38 221.07 361.77 223.52 364.24 226.98 366.03 228.51 370.48 232.29 376.45 232.44 380.55 233.97 385.81 233.38 389.24 234.91 391.73 235.32 396.16 234.62 400.19 235.25 402.16 240.49 405.46 252.28 408.8 254.42 410.04 257.87 409.01 260.75 411.34 265.61 411.38 269.46 408.86 274.3 408.37 277.68 406.18 280.08 405.64 284.88 402.83 288.13 399.11 291.42 397.97 295.92 399.05 308.46 396.45"/></g><g id="Location_s_" data-name="Location(s)"><path class="cls-2" d="M67.72,388.9h3.76c2.65,0,4.63.91,4.63,3.69s-2,3.88-4.55,3.88H69.84v4.38H67.72Zm3.67,5.87c1.77,0,2.63-.72,2.63-2.18s-.93-2-2.7-2H69.84v4.17Z"/><path class="cls-2" d="M77.18,396.38c0-3,2-4.72,4.26-4.72s4.28,1.72,4.28,4.72a4.34,4.34,0,0,1-4.28,4.69C79.21,401.07,77.18,399.35,77.18,396.38Zm6.38,0c0-1.81-.8-3-2.12-3s-2.1,1.19-2.1,3,.78,3,2.1,3S83.56,398.17,83.56,396.38Z"/><path class="cls-2" d="M87.8,391.88h1.73l.15,1.59h.07a3,3,0,0,1,2.54-1.81,2.29,2.29,0,0,1,1,.18L93,393.67a2.92,2.92,0,0,0-.93-.15c-.71,0-1.57.5-2.12,1.85v5.48H87.8Z"/><path class="cls-2" d="M94.93,397.82v-4.28H93.65V392l1.38-.09.26-2.45h1.76v2.45h2.28v1.66H97.05v4.28c0,1.06.4,1.57,1.26,1.57a2.58,2.58,0,0,0,.93-.2l.37,1.55a5.64,5.64,0,0,1-1.83.33C95.69,401.07,94.93,399.76,94.93,397.82Z"/><path class="cls-2" d="M101.21,398.55V388h2.1v10.71c0,.51.24.69.46.69a1.57,1.57,0,0,0,.33,0l.27,1.57a2.83,2.83,0,0,1-1.11.18C101.76,401.07,101.21,400.1,101.21,398.55Z"/><path class="cls-2" d="M105.69,398.44c0-1.92,1.59-2.92,5.28-3.33,0-.95-.42-1.75-1.64-1.75a5.11,5.11,0,0,0-2.53.88l-.77-1.41a7.06,7.06,0,0,1,3.7-1.17c2.23,0,3.34,1.37,3.34,3.87v5.32h-1.73l-.15-1h-.07a4.41,4.41,0,0,1-2.78,1.2A2.51,2.51,0,0,1,105.69,398.44Zm5.28,0v-2c-2.45.31-3.25.95-3.25,1.85s.54,1.15,1.29,1.15A2.88,2.88,0,0,0,111,398.44Z"/><path class="cls-2" d="M115.59,391.88h1.74l.14,1.2h.08a4.18,4.18,0,0,1,2.94-1.42c1.92,0,2.76,1.3,2.76,3.56v5.63h-2.1V395.5c0-1.48-.42-2-1.41-2a2.84,2.84,0,0,0-2,1.11v6.27h-2.1Z"/><path class="cls-2" d="M125.28,396.38c0-2.93,1.84-4.72,3.8-4.72a3.31,3.31,0,0,1,2.36,1l-.08-1.45V388h2.11v12.9h-1.74l-.15-1h-.07a3.77,3.77,0,0,1-2.54,1.18C126.72,401.07,125.28,399.34,125.28,396.38Zm6.08,1.95v-4.19a2.69,2.69,0,0,0-1.83-.74c-1.15,0-2.08,1.07-2.08,3s.73,3,2,3A2.4,2.4,0,0,0,131.36,398.33Z"/><path class="cls-2" d="M73.63,410.83h3.2c3.65,0,5.81,2,5.81,5.92s-2.16,6-5.7,6H73.63Zm3.05,10.23c2.41,0,3.78-1.37,3.78-4.31s-1.37-4.2-3.78-4.2h-.93v8.51Z"/><path class="cls-2" d="M84.63,411.05a1.3,1.3,0,0,1,2.59,0,1.3,1.3,0,0,1-2.59,0Zm.24,2.76H87v9h-2.1Z"/><path class="cls-2" d="M88.76,421.76l1-1.35a4,4,0,0,0,2.49,1c1,0,1.43-.46,1.43-1.08s-1-1.08-1.92-1.44c-1.19-.44-2.53-1.12-2.53-2.62s1.27-2.68,3.28-2.68a4.86,4.86,0,0,1,3,1.08l-1,1.27a3.37,3.37,0,0,0-2-.76c-.89,0-1.31.42-1.31,1,0,.72.89,1,1.86,1.34,1.23.46,2.58,1,2.58,2.72S94.42,423,92.16,423A5.67,5.67,0,0,1,88.76,421.76Z"/><path class="cls-2" d="M97.47,419.75v-4.28H96.19V413.9l1.39-.09.26-2.45h1.75v2.45h2.29v1.66H99.59v4.28c0,1.06.41,1.57,1.27,1.57a2.58,2.58,0,0,0,.93-.2l.36,1.55a5.53,5.53,0,0,1-1.82.33C98.24,423,97.47,421.68,97.47,419.75Z"/><path class="cls-2" d="M103.76,413.81h1.74l.14,1.59h.08a3,3,0,0,1,2.54-1.81,2.25,2.25,0,0,1,1,.18l-.37,1.83a2.92,2.92,0,0,0-.93-.15c-.71,0-1.57.49-2.12,1.85v5.48h-2.1Z"/><path class="cls-2" d="M110.34,411.05a1.3,1.3,0,0,1,2.59,0,1.3,1.3,0,0,1-2.59,0Zm.24,2.76h2.1v9h-2.1Z"/><path class="cls-2" d="M114.78,418.3a4.42,4.42,0,0,1,4.5-4.71,3.9,3.9,0,0,1,2.63,1l-1,1.37a2.18,2.18,0,0,0-1.49-.66c-1.45,0-2.45,1.19-2.45,3s1,3,2.39,3a3,3,0,0,0,1.85-.77l.86,1.39a4.46,4.46,0,0,1-2.93,1.1C116.66,423,114.78,421.28,114.78,418.3Z"/><path class="cls-2" d="M123.93,419.75v-4.28h-1.28V413.9l1.39-.09.26-2.45h1.75v2.45h2.29v1.66h-2.29v4.28c0,1.06.41,1.57,1.27,1.57a2.58,2.58,0,0,0,.93-.2l.36,1.55a5.54,5.54,0,0,1-1.83.33C124.7,423,123.93,421.68,123.93,419.75Z"/><path class="cls-3" d="M60.21,78.08l2.72-3.16a10.4,10.4,0,0,0,6.8,3c3,0,4.56-1.32,4.56-3.36s-1.68-2.84-4-3.84l-3.6-1.56c-2.56-1.08-5.28-3.12-5.28-7,0-4.16,3.68-7.36,8.8-7.36a11.55,11.55,0,0,1,8,3.32l-2.36,3a8.52,8.52,0,0,0-5.68-2.24c-2.48,0-4.12,1.16-4.12,3.08s2,2.79,4.16,3.67l3.56,1.48c3.08,1.32,5.28,3.28,5.28,7.08,0,4.24-3.52,7.76-9.4,7.76A13.55,13.55,0,0,1,60.21,78.08Z"/><path class="cls-3" d="M82.13,71.64c0-6.4,4.44-10.31,9-10.31,5.32,0,8.12,3.83,8.12,9.31a10.72,10.72,0,0,1-.2,2.24H86.61c.4,3.48,2.64,5.48,5.8,5.48A8.2,8.2,0,0,0,97,76.92l1.56,2.88a12.39,12.39,0,0,1-6.72,2.12C86.37,81.92,82.13,78.12,82.13,71.64Zm13.16-1.88c0-3-1.32-4.87-4-4.87-2.32,0-4.32,1.71-4.72,4.87Z"/><path class="cls-3" d="M102.17,76.16c0-4.2,3.48-6.4,11.56-7.28-.08-2.08-.92-3.84-3.6-3.84A11.19,11.19,0,0,0,104.61,67l-1.68-3.07A15.36,15.36,0,0,1,111,61.33c4.88,0,7.32,3,7.32,8.47V81.44h-3.8l-.32-2.16h-.16A9.56,9.56,0,0,1,108,81.92,5.49,5.49,0,0,1,102.17,76.16Zm11.56,0v-4.4c-5.36.68-7.12,2.08-7.12,4,0,1.76,1.2,2.52,2.84,2.52S112.25,77.52,113.73,76.16Z"/><path class="cls-3" d="M123.89,74.8V65.44h-2.8V62l3-.2.56-5.36h3.84v5.36h5v3.63h-5V74.8c0,2.32.88,3.44,2.76,3.44a5.63,5.63,0,0,0,2-.44l.8,3.4a12.54,12.54,0,0,1-4,.72C125.57,81.92,123.89,79,123.89,74.8Z"/><path class="cls-3" d="M137.53,74.8V65.44h-2.8V62l3-.2.56-5.36h3.84v5.36h5v3.63h-5V74.8c0,2.32.88,3.44,2.76,3.44a5.63,5.63,0,0,0,2-.44l.8,3.4a12.54,12.54,0,0,1-4,.72C139.21,81.92,137.53,79,137.53,74.8Z"/><path class="cls-3" d="M151.29,76.4V53.21h4.6V76.64c0,1.12.52,1.52,1,1.52a2.76,2.76,0,0,0,.72-.08l.6,3.44a6.28,6.28,0,0,1-2.44.4C152.49,81.92,151.29,79.8,151.29,76.4Z"/><path class="cls-3" d="M160.85,71.64c0-6.4,4.44-10.31,9-10.31,5.32,0,8.12,3.83,8.12,9.31a10.72,10.72,0,0,1-.2,2.24H165.33c.4,3.48,2.64,5.48,5.8,5.48a8.2,8.2,0,0,0,4.56-1.44l1.56,2.88a12.39,12.39,0,0,1-6.72,2.12C165.09,81.92,160.85,78.12,160.85,71.64ZM174,69.76c0-3-1.32-4.87-4-4.87-2.32,0-4.32,1.71-4.72,4.87Z"/><path class="cls-3" d="M83.8,94.55H88c4.8,0,7.63,2.59,7.63,7.77s-2.83,7.92-7.48,7.92H83.8Zm4,13.44c3.17,0,5-1.8,5-5.67s-1.8-5.52-5-5.52H86.58V108Z"/><path class="cls-3" d="M98.25,94.83a1.71,1.71,0,1,1,1.7,1.56A1.58,1.58,0,0,1,98.25,94.83Zm.31,3.63h2.76v11.78H98.56Z"/><path class="cls-3" d="M103.67,108.9l1.3-1.78a5.22,5.22,0,0,0,3.26,1.32c1.27,0,1.88-.6,1.88-1.41,0-1-1.28-1.42-2.53-1.9-1.55-.58-3.31-1.46-3.31-3.43s1.66-3.53,4.3-3.53a6.33,6.33,0,0,1,3.91,1.42l-1.27,1.68a4.41,4.41,0,0,0-2.59-1c-1.18,0-1.73.55-1.73,1.29,0,.94,1.18,1.3,2.45,1.76,1.61.6,3.38,1.36,3.38,3.57,0,2-1.61,3.65-4.58,3.65A7.53,7.53,0,0,1,103.67,108.9Z"/><path class="cls-3" d="M115.12,106.26v-5.62h-1.68V98.58l1.83-.12.33-3.22h2.31v3.22h3v2.18h-3v5.62c0,1.39.52,2.06,1.65,2.06a3.4,3.4,0,0,0,1.22-.26l.49,2a7.74,7.74,0,0,1-2.4.43C116.13,110.53,115.12,108.8,115.12,106.26Z"/><path class="cls-3" d="M123.38,98.46h2.28l.19,2.09h.1a4,4,0,0,1,3.33-2.38,3,3,0,0,1,1.35.24l-.48,2.4a3.87,3.87,0,0,0-1.23-.19c-.93,0-2.06.65-2.78,2.42v7.2h-2.76Z"/><path class="cls-3" d="M132,94.83a1.71,1.71,0,1,1,1.7,1.56A1.58,1.58,0,0,1,132,94.83Zm.31,3.63h2.76v11.78h-2.76Z"/><path class="cls-3" d="M137.85,104.36a5.81,5.81,0,0,1,5.9-6.19,5.12,5.12,0,0,1,3.46,1.32l-1.34,1.8a2.91,2.91,0,0,0-2-.86c-1.9,0-3.22,1.56-3.22,3.93s1.3,3.91,3.15,3.91a3.92,3.92,0,0,0,2.42-1l1.13,1.82a5.9,5.9,0,0,1-3.84,1.44C140.32,110.53,137.85,108.27,137.85,104.36Z"/><path class="cls-3" d="M149.87,106.26v-5.62h-1.68V98.58l1.83-.12.33-3.22h2.31v3.22h3v2.18h-3v5.62c0,1.39.52,2.06,1.65,2.06a3.51,3.51,0,0,0,1.23-.26l.48,2a7.74,7.74,0,0,1-2.4.43C150.88,110.53,149.87,108.8,149.87,106.26Z"/><polygon class="cls-4" points="308.37 369.39 406.13 369.68 406.09 354.91 405.68 354.9 405.67 319.47 404.05 318.87 401.4 315.4 399.83 310.13 368.19 310.06 368.21 302.61 360.83 302.5 360.8 295.07 337.7 295.13 333.97 290.12 333.97 288.24 324.17 280.41 322.66 279.78 317.78 281.27 316.88 279.95 317.24 282.58 315.66 284.57 315.06 287.81 312.29 290.57 312.35 294.14 309.98 295.34 308.44 298.47 309.92 299.23 312.41 306.13 315.3 310.98 318.49 312.27 315.73 314.39 314.67 317.23 316.38 320.47 314.24 324.51 314.69 326.49 312.66 327.62 312.81 330.27 314.97 333.97 316.47 338.15 316.04 339.93 308.39 340.07 308.37 369.39"/><polygon class="cls-5" points="308.37 369.39 406.13 369.68 406.09 354.91 405.68 354.9 405.67 319.47 404.05 318.87 401.4 315.4 399.83 310.13 368.19 310.06 368.21 302.62 360.83 302.5 360.8 295.07 337.71 295.13 333.97 290.12 333.97 288.24 324.17 280.41 322.66 279.78 317.79 281.27 316.88 279.95 317.24 282.58 315.66 284.57 315.07 287.81 312.29 290.57 312.35 294.14 309.98 295.34 308.44 298.47 309.92 299.24 312.41 306.13 315.3 310.98 318.49 312.27 315.73 314.39 314.67 317.23 316.38 320.47 314.24 324.51 314.69 326.49 312.66 327.62 312.81 330.28 314.97 333.97 316.47 338.15 316.04 339.93 308.39 340.07 308.37 369.39"/><polygon class="cls-4" points="503.47 322.88 506.01 325.61 509.2 325.63 510.71 324.11 518.97 322.6 523.15 322.59 524.93 319.79 528.32 319.49 530.87 314.19 534.63 313.06 537.23 313.54 539.71 315.68 545.75 314.75 547.13 313.31 549.15 316.28 552.46 317.88 552.54 320.62 555.23 323.46 556.71 323.55 560.19 326.63 561.45 330.02 561.66 333.73 563.55 337.35 566.17 336.45 569.92 337.59 572.81 336.88 572.8 264.99 518.54 264.88 518.61 294.82 517.91 298.92 515.93 300.57 515.44 305.54 513.35 307.46 510.54 306.59 506.63 309.3 501.49 310.49 503.36 315.12 502.58 317.09 504.4 319.85 503.47 322.88"/><polygon class="cls-5" points="503.47 322.88 506.01 325.61 509.2 325.63 510.71 324.11 518.97 322.6 523.15 322.59 524.93 319.79 528.32 319.49 530.87 314.19 534.63 313.06 537.23 313.54 539.71 315.68 545.75 314.75 547.13 313.31 549.15 316.28 552.46 317.88 552.54 320.62 555.23 323.46 556.71 323.55 560.19 326.63 561.45 330.02 561.66 333.73 563.55 337.35 566.17 336.45 569.92 337.59 572.81 336.88 572.8 264.99 518.54 264.88 518.61 294.81 517.91 298.92 515.93 300.57 515.45 305.55 513.35 307.46 510.54 306.59 506.63 309.3 501.49 310.5 503.36 315.12 502.58 317.09 504.4 319.85 503.47 322.88"/><polygon class="cls-4" points="235.59 110.97 232.04 116.64 236.24 118.67 233.9 121.42 237.68 124.38 238.66 129.2 242.12 131.43 241.89 136.75 244.87 131.52 251.38 134.26 249.67 136.92 251.5 142.93 344.55 143.33 344.56 141.85 353.89 141.85 359.63 135.89 354.97 130.64 354.44 128.04 355.16 124.17 352.94 122.17 352.98 115.26 351.03 114.83 349.29 116.73 346.28 114.21 347.99 111.16 235.59 110.97"/><polygon class="cls-4" points="239.37 134.9 237.89 136.52 244.37 143.37 239.37 134.9"/><polygon class="cls-5" points="235.59 110.97 232.04 116.64 236.24 118.67 233.9 121.42 237.68 124.38 238.66 129.2 242.12 131.44 241.89 136.76 244.87 131.52 251.38 134.26 249.67 136.92 251.5 142.93 344.55 143.33 344.56 141.86 353.89 141.85 359.63 135.89 354.97 130.64 354.44 128.04 355.16 124.17 352.94 122.17 352.98 115.26 351.03 114.83 349.29 116.73 346.28 114.21 347.99 111.16 235.59 110.97"/><polygon class="cls-5" points="239.37 134.9 237.89 136.52 244.38 143.37 239.37 134.9"/><polygon class="cls-4" points="454.77 356.73 458.34 360.7 460.6 366.79 460.69 370.65 457.98 373.15 516.37 373.07 516.7 355.46 509.32 355.46 509.34 347.99 501.94 348.02 501.89 325.32 502.69 322.47 497.17 321.34 493.21 323.59 489.5 322.18 483.87 325.71 479.88 330.11 478.56 336.2 478.81 337.86 475.43 340.67 474.62 342.51 472.18 342.52 470.56 346.06 470.86 348.05 467.23 349.17 465.43 351.65 458.82 352.83 455.83 354.71 454.77 356.73"/><polygon class="cls-5" points="454.77 356.74 458.34 360.7 460.6 366.79 460.69 370.65 457.98 373.15 516.37 373.07 516.7 355.46 509.32 355.46 509.34 347.99 501.94 348.02 501.89 325.32 502.69 322.47 497.17 321.34 493.21 323.59 489.5 322.18 483.87 325.71 479.88 330.11 478.56 336.2 478.81 337.86 475.43 340.67 474.62 342.51 472.18 342.52 470.56 346.06 470.86 348.05 467.23 349.17 465.43 351.65 458.82 352.83 455.83 354.71 454.77 356.74"/><polygon class="cls-6" points="178.4 348.49 185.19 351.01 191.9 349.84 204.59 360.3 208.75 358.47 208.48 340.33 178.5 340.29 178.4 348.49"/><polygon class="cls-6" points="178.4 348.49 185.19 351.01 191.9 349.84 204.59 360.3 208.75 358.47 208.48 340.33 178.5 340.29 178.4 348.49"/><polygon class="cls-4" points="211.85 305.29 211.83 307.8 268.34 307.95 266.22 306.82 264.38 307.58 261.85 304.99 262.38 302.29 258.38 300.82 253.73 300.29 251.3 298.88 251.09 295.6 247.42 293.34 247.04 290.4 242.68 289.46 243.14 287.62 241.25 287.1 238.79 281.88 239.2 279.02 233.91 276.43 232.24 272.04 226.8 275.3 226.96 283.57 224.32 278.87 220.27 281.71 226.11 272.44 216.91 279.03 216.89 280.15 209.4 280.12 209.45 287.73 211.98 287.79 211.85 305.29"/><polygon class="cls-5" points="211.85 305.29 211.83 307.8 268.34 307.95 266.22 306.82 264.38 307.58 261.85 304.99 262.38 302.29 258.38 300.82 253.73 300.29 251.3 298.88 251.09 295.6 247.42 293.34 247.04 290.4 242.68 289.46 243.14 287.62 241.25 287.1 238.8 281.88 239.2 279.02 233.91 276.43 232.24 272.04 226.8 275.3 226.96 283.57 224.32 278.87 220.27 281.71 226.11 272.44 216.91 279.03 216.89 280.15 209.4 280.12 209.45 287.73 211.98 287.79 211.85 305.29"/><polygon class="cls-4" points="526.75 215.55 528.44 216.8 529.76 215.08 533.13 213.69 534.38 210.2 535.98 210.84 536 213.5 537.98 214.7 539.97 217.75 543.57 218.19 543.61 195.94 549.39 196.01 549.36 188.29 545.54 188.26 545.69 141.96 538.05 141.99 538.04 134.23 541.93 134.25 541.92 125.82 545.76 125.81 545.74 118.1 549.79 118.07 549.83 111.11 504.58 111.15 503.24 111.51 503.13 116.81 504.64 118.96 503.8 122.6 508.79 132.54 509.05 137.84 510.02 142.74 507.36 154.05 505.62 154.42 504.01 158.53 504.19 163.91 505.56 168 505.83 171.92 507.94 176.57 507.46 178.49 504.69 181.45 504.91 186.05 503.95 187.96 501.53 188.32 502.42 194.57 499.94 196.59 495.02 195.81 492.55 197.64 495.62 202.65 495.19 206.4 496.08 209.47 501.5 205.18 503.63 204.99 507.81 210.38 509.16 214.91 511.58 217.74 515.53 217.14 516.82 214.7 520.01 215.72 523.14 213.62 526.75 215.55"/><polygon class="cls-5" points="526.76 215.55 528.44 216.8 529.76 215.08 533.13 213.69 534.38 210.2 535.98 210.84 536 213.5 537.98 214.7 539.97 217.75 543.57 218.19 543.61 195.94 549.4 196.01 549.36 188.29 545.54 188.26 545.69 141.96 538.05 141.99 538.04 134.23 541.93 134.25 541.92 125.82 545.76 125.81 545.74 118.1 549.79 118.07 549.83 111.11 504.58 111.15 503.24 111.51 503.13 116.81 504.64 118.96 503.8 122.6 508.79 132.54 509.05 137.84 510.02 142.74 507.36 154.05 505.62 154.42 504.01 158.53 504.19 163.91 505.56 168 505.83 171.92 507.94 176.58 507.46 178.49 504.69 181.45 504.91 186.05 503.95 187.96 501.53 188.32 502.42 194.57 499.94 196.59 495.02 195.81 492.55 197.64 495.62 202.65 495.19 206.4 496.08 209.47 501.5 205.18 503.63 204.99 507.81 210.38 509.16 214.92 511.58 217.74 515.53 217.14 516.83 214.7 520.01 215.72 523.14 213.62 526.76 215.55"/><polygon class="cls-4" points="572.8 264.99 572.7 196.15 543.61 195.94 543.57 218.19 539.97 217.75 537.98 214.7 536 213.5 535.98 210.84 534.38 210.2 533.13 213.69 529.76 215.08 528.44 216.8 526.75 215.55 526.58 264.89 572.8 264.99"/><polygon class="cls-5" points="572.8 264.99 572.7 196.15 543.61 195.94 543.57 218.19 539.97 217.75 537.98 214.7 536 213.5 535.98 210.84 534.38 210.2 533.13 213.69 529.76 215.08 528.44 216.8 526.76 215.55 526.59 264.89 572.8 264.99"/><polygon class="cls-4" points="256.45 178.08 260.06 191.56 266.47 197.58 265.35 203.82 262.18 204.65 260.26 213.64 257.03 219.7 332.25 219.53 335.1 215.48 330.2 213.74 330.6 212.76 328.61 209.09 329.55 204.23 332.3 200.38 330.22 196.58 333.34 194.65 338.36 193.54 342.36 190.28 341.95 186.7 344.79 185.74 344.06 183.33 341.4 181.53 341.65 180 339.04 176.55 339.19 174.04 259.01 173.86 256.45 178.08"/><polygon class="cls-4" points="258.22 173.85 258.75 173.86 258.39 173.85 258.22 173.85"/><polygon class="cls-5" points="256.45 178.08 260.06 191.56 266.47 197.58 265.35 203.82 262.19 204.65 260.26 213.64 257.03 219.7 332.25 219.53 335.1 215.48 330.2 213.74 330.6 212.76 328.61 209.09 329.55 204.23 332.3 200.38 330.22 196.58 333.34 194.65 338.36 193.55 342.36 190.28 341.95 186.7 344.79 185.75 344.06 183.33 341.4 181.53 341.65 180 339.04 176.55 339.19 174.04 259.01 173.86 256.45 178.08"/><polygon class="cls-5" points="258.22 173.85 258.75 173.86 258.39 173.85 258.22 173.85"/><polygon class="cls-6" points="265.61 411.38 269.46 408.86 274.3 408.37 277.68 406.18 280.08 405.63 284.88 402.83 288.13 399.11 291.42 397.96 295.92 399.05 302.04 398.14 308.46 396.45 307.56 392.51 308.91 391.59 303.36 391.56 303.15 369.42 308.37 369.39 308.39 340.07 266.04 340.31 265.61 411.38"/><polyline class="cls-6" points="308.39 340.07 266.04 340.31 265.61 411.38 269.46 408.86 274.3 408.37 277.68 406.18 280.08 405.64 284.88 402.83 288.13 399.11 291.42 397.97 295.92 399.05 302.04 398.14 308.46 396.45 307.56 392.51 308.91 391.59 303.36 391.56 303.15 369.42"/><polygon class="cls-4" points="250.63 161.69 252.47 169.05 258.85 173.86 339.19 174.04 335.05 172.06 336.87 169.38 335.36 165.46 337.09 161.82 335.55 159.44 337.16 156.35 342.18 155.97 342.84 153.15 347.32 153.22 348.77 151.37 351.73 155.31 356.87 153.07 357.82 150 356.68 147.89 354.33 148.88 352.01 146.78 351.7 144.71 353.89 141.85 344.56 141.85 344.55 143.33 251.5 142.93 255.19 146.94 251.25 150.6 252.26 159.27 250.11 159.59 250.53 161.28 244.53 154 240.29 156.38 241.54 164.04 246.26 160.64 248.91 166.98 250.63 161.69"/><polygon class="cls-4" points="246.03 151.45 241.84 148.31 242 153.32 246.03 151.45"/><polygon class="cls-5" points="250.63 161.69 252.47 169.05 258.85 173.86 339.19 174.04 335.05 172.06 336.87 169.38 335.36 165.46 337.09 161.82 335.55 159.44 337.16 156.35 342.18 155.97 342.84 153.15 347.32 153.22 348.77 151.37 351.73 155.31 356.87 153.07 357.82 150 356.68 147.89 354.33 148.89 352.01 146.78 351.71 144.71 353.89 141.85 344.56 141.86 344.55 143.33 251.5 142.93 255.19 146.94 251.25 150.6 252.26 159.27 250.11 159.6 250.53 161.28 244.53 154 240.29 156.38 241.54 164.04 246.26 160.64 248.91 166.98 250.63 161.69"/><polygon class="cls-5" points="246.03 151.45 241.84 148.31 242 153.32 246.03 151.45"/><polygon class="cls-4" points="226.98 136.75 220.74 142.06 224.32 147.16 231.31 146.94 236.53 141.56 226.98 136.75"/><polygon class="cls-4" points="228.17 149.41 224.54 158.96 230.39 160.68 228.17 149.41"/><polygon class="cls-4" points="212.75 144.87 210.93 150.35 213.53 156.06 220.99 158.59 220.98 151.25 212.75 144.87"/><polygon class="cls-5" points="226.98 136.75 220.74 142.06 224.32 147.16 231.31 146.94 236.53 141.56 226.98 136.75"/><polygon class="cls-5" points="228.18 149.41 224.54 158.97 230.39 160.68 228.18 149.41"/><polygon class="cls-5" points="212.75 144.87 210.93 150.36 213.53 156.06 220.99 158.59 220.98 151.25 212.75 144.87"/><polygon class="cls-4" points="239.2 279.02 238.79 281.88 241.25 287.1 243.14 287.62 242.68 289.46 247.04 290.4 247.42 293.34 251.09 295.6 251.3 298.88 253.73 300.29 258.38 300.82 262.38 302.29 261.85 304.99 264.38 307.58 266.22 306.82 268.34 307.95 275.33 308.84 278.06 309.75 283 308.6 284.44 309.93 290.11 310.79 294.53 306.13 312.41 306.13 309.92 299.23 308.44 298.47 309.98 295.34 312.35 294.14 312.29 290.57 315.06 287.81 315.66 284.57 317.24 282.58 316.88 279.95 313.3 280.18 310.32 277.34 304.21 276.84 302.62 274.51 300.12 273.62 297.06 274.44 292.28 272.5 289.56 275.08 286.06 273.98 284.04 275.46 279.53 272.22 277.4 272.57 274.64 270.57 271.87 265.12 260.57 265.11 255.67 259.64 254.56 264.75 249.09 262.09 245.47 272.14 239.2 279.02"/><polygon class="cls-4" points="247.81 252.47 243.31 252.44 240.58 262.53 246.32 265.18 247.81 252.47"/><polygon class="cls-4" points="242.88 252.44 233.03 252.4 232.99 256.31 233.79 261.47 231.29 266.17 234.97 272.99 237.81 268.31 235.1 264.07 237.35 258.1 242.88 252.44"/><polygon class="cls-5" points="239.2 279.02 238.8 281.88 241.25 287.1 243.14 287.62 242.68 289.46 247.04 290.4 247.42 293.34 251.09 295.6 251.3 298.88 253.73 300.29 258.38 300.82 262.38 302.29 261.85 304.99 264.38 307.58 266.22 306.82 268.34 307.95 275.33 308.84 278.06 309.75 283 308.6 284.44 309.94 290.11 310.79 294.53 306.13 312.41 306.13 309.92 299.24 308.44 298.47 309.98 295.34 312.35 294.14 312.29 290.57 315.07 287.81 315.66 284.57 317.24 282.58 316.88 279.95 313.3 280.18 310.32 277.34 304.21 276.84 302.62 274.51 300.12 273.62 297.06 274.44 292.28 272.5 289.56 275.08 286.06 273.98 284.04 275.46 279.53 272.22 277.4 272.56 274.64 270.57 271.87 265.12 260.57 265.11 255.67 259.64 254.56 264.75 249.09 262.09 245.47 272.14 239.2 279.02"/><polygon class="cls-5" points="247.81 252.47 243.31 252.44 240.58 262.53 246.32 265.18 247.81 252.47"/><polygon class="cls-5" points="242.88 252.44 233.03 252.4 232.99 256.32 233.79 261.47 231.29 266.17 234.97 272.99 237.81 268.31 235.1 264.07 237.35 258.1 242.88 252.44"/><polygon class="cls-4" points="572.7 196.15 573.25 111.16 549.83 111.11 549.79 118.07 545.74 118.1 545.76 125.81 541.92 125.82 541.93 134.25 538.04 134.23 538.05 141.99 545.69 141.96 545.54 188.26 549.36 188.29 549.39 196.01 572.7 196.15"/><polygon class="cls-5" points="572.7 196.15 573.25 111.16 549.83 111.11 549.79 118.07 545.74 118.1 545.76 125.81 541.92 125.82 541.93 134.25 538.04 134.23 538.05 141.99 545.69 141.96 545.54 188.26 549.36 188.29 549.4 196.01 572.7 196.15"/><polygon class="cls-4" points="156.55 305.23 157.15 310.38 164.22 312.74 168.65 309.01 171.79 312.22 164.77 319.08 168.48 326.23 165.68 332.69 167.94 336.52 165.07 340.93 161.5 340.89 160.96 323.42 158.34 318.92 159.04 334.39 157.59 350.4 161.13 346.26 169.69 352.74 178.4 348.49 178.5 340.29 200.19 340.41 199.46 305.38 156.55 305.23"/><polygon class="cls-4" points="163.99 331.73 162.8 334.97 165.88 338.07 163.99 331.73"/><polygon class="cls-5" points="156.55 305.23 157.15 310.38 164.22 312.74 168.65 309.01 171.79 312.22 164.77 319.08 168.48 326.23 165.68 332.69 167.94 336.52 165.07 340.93 161.51 340.89 160.96 323.42 158.34 318.92 159.04 334.39 157.59 350.4 161.13 346.26 169.69 352.74 178.4 348.49 178.5 340.29 200.19 340.41 199.46 305.38 156.55 305.23"/><polygon class="cls-5" points="163.99 331.73 162.8 334.97 165.88 338.07 163.99 331.73"/><polygon class="cls-4" points="347.99 111.16 346.28 114.21 349.29 116.73 351.03 114.83 352.98 115.26 352.94 122.17 355.16 124.17 354.44 128.04 354.97 130.64 359.63 135.89 351.7 144.71 352.01 146.78 354.33 148.88 356.68 147.89 357.82 150 356.87 153.07 359.8 152.63 359.48 155.28 360.36 158.72 358.84 160.33 359.84 161.53 359.99 165.1 361.55 164.89 364.78 166.89 365.23 168.27 363.82 171.95 368.04 172.6 370.67 176.44 375.13 178.7 377.8 182.62 376.86 185.27 379.52 189.2 381.1 188.74 385.65 193.19 389.79 194.43 389.59 196.85 393.35 199.2 395.36 203.64 405.89 203.67 405.08 202.51 405.97 198.56 404.58 195.4 411.73 190.93 414.31 192.61 416.76 191.96 417.69 194.01 416.31 197.29 418.83 200.18 420.95 200.22 422.28 198.19 426.7 194.66 427.59 192.93 431.55 193.53 433.84 195.81 437.1 195.8 438.02 191.38 439.94 190 441.76 191.12 449.78 186.88 454.11 188.39 455.42 189.99 456.86 196.1 459.84 198.12 458.25 203.52 458.78 205.14 465.94 203.9 466.31 203.38 466.45 157.51 464.91 157.5 464.9 142.19 466.92 142.14 466.86 111.15 347.99 111.16"/><polygon class="cls-5" points="347.99 111.16 346.28 114.21 349.29 116.73 351.03 114.83 352.98 115.26 352.94 122.17 355.16 124.17 354.44 128.04 354.97 130.64 359.63 135.89 351.71 144.71 352.01 146.78 354.33 148.89 356.68 147.89 357.82 150 356.87 153.07 359.8 152.63 359.48 155.28 360.36 158.72 358.84 160.33 359.84 161.53 359.99 165.1 361.55 164.89 364.78 166.89 365.23 168.27 363.82 171.95 368.04 172.6 370.67 176.44 375.13 178.7 377.8 182.62 376.86 185.27 379.52 189.2 381.1 188.74 385.65 193.19 389.79 194.43 389.59 196.85 393.35 199.2 395.36 203.64 405.89 203.66 405.08 202.51 405.97 198.56 404.58 195.4 411.73 190.93 414.31 192.61 416.76 191.97 417.69 194.01 416.31 197.29 418.83 200.18 420.95 200.22 422.28 198.19 426.7 194.67 427.59 192.93 431.55 193.53 433.84 195.81 437.11 195.8 438.02 191.38 439.94 190 441.76 191.12 449.78 186.88 454.11 188.39 455.42 189.99 456.86 196.1 459.84 198.12 458.25 203.52 458.78 205.14 465.94 203.9 466.31 203.38 466.45 157.51 464.91 157.5 464.9 142.2 466.92 142.14 466.86 111.15 347.99 111.16"/><polygon class="cls-4" points="191.58 242.49 191.48 265.11 192.42 265.1 192.48 280.31 216.89 280.15 216.91 279.03 223.24 272.86 225.6 263.13 230.4 260.46 232 252.19 232.99 256.31 233.11 242.26 219.95 242.25 214.28 253.6 220.56 254.56 230.58 249.57 226.44 253.74 220.18 256.7 211.92 256.75 214.69 247.78 222.06 234.75 191.58 234.67 191.58 242.49"/><polygon class="cls-4" points="229.87 261.94 225.71 266.97 228.71 273.24 230.63 269.47 229.87 261.94"/><polygon class="cls-5" points="191.58 242.49 191.48 265.11 192.42 265.1 192.48 280.31 216.89 280.15 216.91 279.03 223.25 272.86 225.6 263.14 230.4 260.46 232 252.19 232.99 256.32 233.11 242.26 219.95 242.25 214.28 253.6 220.56 254.57 230.58 249.57 226.44 253.74 220.18 256.7 211.92 256.75 214.69 247.78 222.06 234.75 191.58 234.67 191.58 242.49"/><polygon class="cls-5" points="229.87 261.94 225.71 266.97 228.71 273.24 230.63 269.47 229.87 261.94"/><polygon class="cls-4" points="458.42 264.8 526.58 264.89 526.75 215.55 523.14 213.62 520.01 215.72 516.82 214.7 515.53 217.14 511.58 217.74 509.16 214.91 507.81 210.38 503.63 204.99 501.5 205.18 496.08 209.47 495.13 214.11 493.03 215.06 489.9 213.76 488.65 210.52 486.64 211.27 484.1 210.38 484.73 207.66 482.55 206.13 477.74 206.59 475.59 205.22 474.22 208.67 468.31 207.19 465.94 203.9 458.78 205.14 458.42 264.8"/><polygon class="cls-5" points="458.42 264.8 526.59 264.89 526.76 215.55 523.14 213.62 520.01 215.72 516.83 214.7 515.53 217.14 511.58 217.74 509.16 214.92 507.81 210.38 503.63 204.99 501.5 205.18 496.08 209.47 495.13 214.11 493.03 215.06 489.9 213.76 488.65 210.52 486.64 211.27 484.1 210.38 484.73 207.66 482.55 206.13 477.74 206.59 475.59 205.22 474.22 208.67 468.31 207.19 465.94 203.9 458.78 205.14 458.42 264.8"/><polygon class="cls-4" points="200.19 340.41 316.04 339.93 316.47 338.15 314.97 333.97 312.81 330.27 312.66 327.62 314.69 326.49 314.24 324.51 316.38 320.47 314.67 317.23 315.73 314.39 318.49 312.27 315.3 310.98 312.41 306.13 294.53 306.13 290.11 310.79 284.44 309.93 283 308.6 278.06 309.75 275.33 308.84 268.34 307.95 211.83 307.8 211.85 305.29 199.46 305.38 200.19 340.41"/><polygon class="cls-5" points="200.19 340.41 316.04 339.93 316.47 338.15 314.97 333.97 312.81 330.28 312.66 327.62 314.69 326.49 314.24 324.51 316.38 320.47 314.67 317.23 315.73 314.39 318.49 312.27 315.3 310.98 312.41 306.13 294.53 306.13 290.11 310.79 284.44 309.94 283 308.6 278.06 309.75 275.33 308.84 268.34 307.95 211.83 307.8 211.85 305.29 199.46 305.38 200.19 340.41"/><polygon class="cls-4" points="316.88 279.95 317.78 281.27 322.66 279.78 324.17 280.41 333.97 288.24 333.97 290.12 337.7 295.13 360.8 295.07 360.83 302.5 368.21 302.61 368.19 310.06 399.83 310.13 401.6 306.9 402.52 303.25 400.44 300.06 400.23 292.32 398.18 288.02 397.58 284.06 395.71 281.1 398.12 276.54 397.82 268.39 393.84 267.95 392.67 264.74 375.3 264.85 366.84 258.87 364.69 260.59 364.1 258.21 359.02 257.68 355.86 255.46 355.01 253.32 352.06 252.79 350.93 250.78 348.55 251.73 343.73 249.83 343.22 247.59 339.61 243.64 339.48 242.4 336.49 241.05 332.57 235.54 329.13 236.16 328.63 238.36 326.48 237.95 323.81 241.96 322.82 242.02 320.93 245.83 316.88 248.01 316.5 249.82 314 251.37 313.43 255.17 311.89 256.74 313.86 258.48 313.75 262 319.15 263.05 319.72 265.11 317.78 268.1 320.6 269.13 320.56 272.29 321.69 274.63 320.69 275.82 317.76 275.19 315.23 277.15 316.88 279.95"/><polygon class="cls-5" points="316.88 279.95 317.79 281.27 322.66 279.78 324.17 280.41 333.97 288.24 333.97 290.12 337.71 295.13 360.8 295.07 360.83 302.5 368.21 302.62 368.19 310.06 399.83 310.13 401.6 306.9 402.52 303.25 400.44 300.06 400.24 292.32 398.18 288.02 397.58 284.06 395.71 281.1 398.12 276.54 397.82 268.39 393.84 267.95 392.67 264.74 375.3 264.85 366.84 258.88 364.69 260.59 364.1 258.21 359.02 257.68 355.86 255.46 355.01 253.32 352.06 252.79 350.93 250.78 348.55 251.73 343.73 249.83 343.22 247.59 339.61 243.64 339.48 242.4 336.49 241.05 332.57 235.54 329.13 236.16 328.63 238.36 326.48 237.95 323.81 241.96 322.82 242.03 320.93 245.83 316.88 248.01 316.5 249.82 314 251.37 313.43 255.17 311.89 256.74 313.86 258.48 313.75 262.01 319.15 263.05 319.72 265.11 317.79 268.1 320.6 269.13 320.56 272.29 321.69 274.63 320.69 275.82 317.76 275.19 315.23 277.15 316.88 279.95"/><polygon class="cls-4" points="246.31 227.99 247.22 222.12 251.49 222.71 249.28 207.88 245.15 207.21 246.93 215.94 244.47 212.76 236.17 224.87 235.95 229.41 226.23 233.36 219.95 242.25 233.11 242.26 233.03 252.4 247.81 252.47 251.12 243.11 247.98 241.88 247.57 236.12 244.47 239.94 245.73 231.78 246.27 235.22 252 236.63 247.88 224.69 246.31 227.99"/><polygon class="cls-5" points="246.31 227.99 247.22 222.12 251.49 222.71 249.28 207.88 245.15 207.21 246.93 215.94 244.47 212.76 236.17 224.87 235.95 229.41 226.23 233.36 219.95 242.25 233.11 242.26 233.03 252.4 247.81 252.47 251.12 243.11 247.98 241.88 247.57 236.12 244.47 239.94 245.73 231.78 246.27 235.22 252.01 236.63 247.88 224.69 246.31 227.99"/><path class="cls-4" d="M258.35,229.73l5.56,1.34,5.27,6.12L267.4,244l-2.55-1.84-1-10.62Zm-1.86-.61,1.86.61-1.91-.46Zm0,0-.32-.11-.46,2.59,4.59,3.34-.65,4.05-4.19-1.64,3.53,8.3-1.29,2.69,3.23,4.35.21,4.54-5.47,2.41,4.9,5.47h11.3l2.77,5.45,2.76,2,2.13-.35,4.51,3.24,2-1.48,3.5,1.1,2.72-2.58,4.78,1.94,3.06-.82,2.5.89,1.59,2.33,6.11.5,3,2.84,3.58-.23-1.65-2.8,2.53-2,2.93.63,1-1.19-1.13-2.34,0-3.16-2.82-1,1.94-3-.57-2.06-5.4-1,.11-3.53-2-1.74,1.54-1.57.57-3.8,2.5-1.55.38-1.81,4.05-2.18,1.89-3.81,1-.06,2.67-4,2.15.41.49-2.2,3.45-.62-1.17-4.24.71-3.47,3.12-1.84-.61-2.9-2.37-3.56L257,219.7l1.26,4.27Z"/><polygon class="cls-4" points="253.76 245.79 252.18 243.14 249.16 257.54 258.26 253.73 255.1 252.56 253.76 245.79"/><polygon class="cls-5" points="256.49 229.12 256.18 229.01 255.71 231.6 260.3 234.94 259.65 238.99 255.46 237.35 258.99 245.65 257.7 248.34 260.93 252.69 261.14 257.23 255.67 259.64 260.57 265.11 271.87 265.12 274.64 270.57 277.4 272.56 279.53 272.22 284.04 275.46 286.06 273.98 289.56 275.08 292.28 272.5 297.06 274.44 300.12 273.62 302.62 274.51 304.21 276.84 310.32 277.34 313.3 280.18 316.88 279.95 315.23 277.15 317.76 275.19 320.69 275.82 321.69 274.63 320.56 272.29 320.6 269.13 317.79 268.1 319.72 265.11 319.15 263.05 313.75 262.01 313.86 258.48 311.89 256.74 313.43 255.17 314 251.37 316.5 249.82 316.88 248.01 320.93 245.83 322.82 242.03 323.81 241.96 326.48 237.95 328.63 238.36 329.13 236.16 332.57 235.54 331.4 231.3 332.12 227.83 335.24 225.99 334.62 223.09 332.25 219.53 257.03 219.7 258.29 223.97 256.49 229.12"/><polygon class="cls-5" points="256.49 229.12 258.35 229.73 256.44 229.26 256.49 229.12"/><polygon class="cls-5" points="258.35 229.73 263.91 231.07 269.19 237.19 267.4 244 264.85 242.16 263.88 231.54 258.35 229.73"/><polygon class="cls-5" points="253.76 245.8 252.18 243.14 249.16 257.54 258.26 253.73 255.1 252.56 253.76 245.8"/><polygon class="cls-4" points="126.33 210.67 132.98 215.78 136.91 222.42 141.44 241.09 159.56 241.06 159.57 242.44 191.58 242.49 191.58 234.67 222.06 234.75 227.02 231.28 228.68 222.56 233.91 217.38 231.21 227.28 234.74 227.33 236.44 216.96 239.51 211.72 244.29 210.11 240.55 207.46 233.09 192.63 235.75 187.43 230.82 188.19 227.74 193.32 231.16 199.25 225.6 194.43 224.32 194.42 224.35 211.86 191.25 211.9 191.23 210.64 126.33 210.67"/><polygon class="cls-5" points="126.33 210.67 132.98 215.78 136.91 222.42 141.44 241.09 159.56 241.06 159.57 242.44 191.58 242.49 191.58 234.67 222.06 234.75 227.03 231.28 228.68 222.56 233.91 217.38 231.21 227.29 234.74 227.33 236.44 216.96 239.51 211.73 244.29 210.11 240.55 207.46 233.09 192.63 235.75 187.43 230.82 188.19 227.74 193.32 231.16 199.25 225.6 194.43 224.32 194.42 224.35 211.86 191.25 211.9 191.23 210.65 126.33 210.67"/><polygon class="cls-4" points="245.18 165.02 241.13 164.58 240.56 168.8 234.89 180.06 240.22 186.48 244.23 186.52 244.5 197.38 251.86 200.88 254.85 207.73 258.1 208.34 259.61 204.29 258.1 197.14 249.36 191.6 248.64 196.54 246.8 187.05 243.24 180.52 237.75 181.24 241.34 175.4 250.44 172.83 245 168.51 245.18 165.02"/><polygon class="cls-4" points="256.45 178.08 248.98 178.1 250.15 188.47 257.92 192.46 252.05 184.62 253.68 179.71 257 179.91 256.45 178.08"/><polygon class="cls-5" points="245.18 165.02 241.13 164.58 240.56 168.8 234.89 180.06 240.22 186.48 244.23 186.52 244.5 197.38 251.86 200.88 254.85 207.73 258.1 208.34 259.61 204.29 258.1 197.15 249.36 191.6 248.64 196.54 246.8 187.05 243.24 180.52 237.75 181.24 241.34 175.4 250.44 172.83 245.01 168.51 245.18 165.02"/><polygon class="cls-5" points="256.45 178.08 248.98 178.1 250.15 188.48 257.92 192.46 252.05 184.62 253.68 179.71 257 179.91 256.45 178.08"/><polygon class="cls-4" points="141.44 241.09 143.43 256.67 148.3 262.43 152.24 283.67 152.03 293.7 154.83 292.21 153.42 285.53 160.8 284.85 162.45 289.12 172.78 291.12 159.44 296.85 154.33 295.64 156.55 305.23 211.85 305.29 211.98 287.79 209.45 287.73 209.4 280.12 192.48 280.31 192.42 265.1 191.48 265.11 191.58 242.49 159.57 242.44 159.56 241.06 141.44 241.09"/><polygon class="cls-5" points="141.44 241.09 143.43 256.67 148.3 262.43 152.24 283.67 152.03 293.7 154.83 292.21 153.42 285.53 160.8 284.85 162.45 289.12 172.78 291.12 159.44 296.85 154.33 295.64 156.55 305.23 211.85 305.29 211.98 287.79 209.45 287.73 209.4 280.12 192.48 280.31 192.42 265.1 191.48 265.11 191.58 242.49 159.57 242.44 159.56 241.06 141.44 241.09"/><polygon class="cls-4" points="397.82 268.39 398.12 276.54 395.71 281.1 397.58 284.06 398.18 288.02 400.23 292.32 400.44 300.06 402.52 303.25 401.6 306.9 399.83 310.13 401.4 315.4 404.05 318.87 408.31 319.76 414.85 317.84 420.29 318.06 423.19 315.63 426.8 310.98 428.46 311.83 430.49 315.12 435.46 315.21 435.47 295.02 458.24 295.13 458.78 205.14 458.25 203.52 451.08 203.53 449.8 207.45 445.97 208.74 444.7 210.06 444.68 217.7 442.13 220.25 442.12 222.82 439.6 224.05 439.59 229.14 438.32 229.14 438.31 232.94 437.06 234.2 433.32 234.19 429.54 237.85 428.29 240.36 425.79 241.61 425.75 249.15 405.57 249.49 405.54 252.02 403.03 253.31 403.02 255.84 397.96 259.7 397.82 268.39"/><polygon class="cls-5" points="397.82 268.39 398.12 276.54 395.71 281.1 397.58 284.06 398.18 288.02 400.24 292.32 400.44 300.06 402.52 303.25 401.6 306.9 399.83 310.13 401.4 315.4 404.05 318.87 408.31 319.76 414.85 317.84 420.29 318.06 423.19 315.63 426.8 310.98 428.46 311.83 430.49 315.12 435.46 315.21 435.47 295.02 458.24 295.13 458.78 205.14 458.25 203.52 451.08 203.53 449.8 207.45 445.97 208.74 444.7 210.06 444.68 217.7 442.13 220.25 442.12 222.82 439.6 224.05 439.59 229.14 438.32 229.14 438.31 232.94 437.06 234.2 433.32 234.19 429.54 237.85 428.29 240.36 425.79 241.61 425.75 249.15 405.57 249.49 405.54 252.02 403.03 253.31 403.02 255.84 397.96 259.7 397.82 268.39"/><polygon class="cls-4" points="524.93 319.79 524.33 325.35 524.25 332.99 531.68 332.95 532.89 335.49 532.89 339.24 535.41 340.49 535.35 344.39 539.08 344.31 539.03 362.52 539.56 362.84 539.59 373.23 546.85 373.32 546.85 362.77 550.42 362.78 550.41 340.49 554.16 338.01 561.67 338.09 561.45 330.02 560.19 326.63 556.71 323.55 555.23 323.46 552.54 320.62 552.46 317.88 549.15 316.28 547.13 313.31 545.75 314.75 539.71 315.68 537.23 313.54 534.63 313.06 530.87 314.19 528.32 319.49 524.93 319.79"/><polygon class="cls-5" points="524.93 319.79 524.33 325.35 524.25 332.99 531.68 332.95 532.89 335.49 532.89 339.24 535.41 340.49 535.35 344.39 539.08 344.31 539.03 362.52 539.57 362.84 539.59 373.23 546.85 373.32 546.85 362.77 550.42 362.78 550.41 340.49 554.16 338.01 561.67 338.09 561.45 330.02 560.19 326.63 556.71 323.55 555.23 323.46 552.54 320.62 552.46 317.88 549.15 316.28 547.13 313.31 545.75 314.75 539.71 315.68 537.23 313.54 534.63 313.06 530.87 314.19 528.32 319.49 524.93 319.79"/><polygon class="cls-4" points="454.77 356.73 455.83 354.71 458.82 352.83 465.43 351.65 467.23 349.17 470.86 348.05 470.56 346.06 472.18 342.52 474.62 342.51 475.43 340.67 478.81 337.86 478.56 336.2 479.88 330.11 483.87 325.71 489.5 322.18 493.21 323.59 497.17 321.34 503.47 322.88 504.4 319.85 502.58 317.09 503.36 315.12 501.49 310.49 503.81 309.99 435.42 310.12 435.46 315.21 430.49 315.12 433.01 317.69 433.31 320.64 439.25 327.16 441.19 328.5 441.98 331.4 441.29 341.2 442.33 347.17 441.36 349.48 444.92 352.93 450.3 354.2 454.77 356.73"/><polygon class="cls-5" points="454.77 356.74 455.83 354.71 458.82 352.83 465.43 351.65 467.23 349.17 470.86 348.05 470.56 346.06 472.18 342.52 474.62 342.51 475.43 340.67 478.81 337.86 478.56 336.2 479.88 330.11 483.87 325.71 489.5 322.18 493.21 323.59 497.17 321.34 503.47 322.88 504.4 319.85 502.58 317.09 503.36 315.12 501.49 310.5 503.81 309.99 435.42 310.12 435.46 315.21 430.49 315.12 433.01 317.69 433.31 320.64 439.25 327.16 441.19 328.5 441.98 331.4 441.29 341.2 442.33 347.17 441.36 349.48 444.93 352.93 450.3 354.2 454.77 356.74"/><polygon class="cls-4" points="496.08 209.47 495.19 206.4 495.62 202.65 492.55 197.64 495.02 195.81 499.94 196.59 502.42 194.57 501.53 188.32 503.95 187.96 504.91 186.05 504.69 181.45 507.46 178.49 507.94 176.57 505.83 171.92 505.56 168 504.19 163.91 504.01 158.53 505.62 154.42 507.36 154.05 510.02 142.74 509.05 137.84 508.79 132.54 503.8 122.6 504.64 118.96 503.13 116.81 503.24 111.51 504.58 111.15 466.86 111.15 466.92 142.14 464.9 142.19 464.91 157.5 466.45 157.51 466.31 203.38 465.94 203.9 468.31 207.19 474.22 208.67 475.59 205.22 477.74 206.59 482.55 206.13 484.73 207.66 484.1 210.38 486.64 211.27 488.65 210.52 489.9 213.76 493.03 215.06 495.13 214.11 496.08 209.47"/><polygon class="cls-5" points="496.08 209.47 495.19 206.4 495.62 202.65 492.55 197.64 495.02 195.81 499.94 196.59 502.42 194.57 501.53 188.32 503.95 187.96 504.91 186.05 504.69 181.45 507.46 178.49 507.94 176.58 505.83 171.92 505.56 168 504.19 163.91 504.01 158.53 505.62 154.42 507.36 154.05 510.02 142.74 509.05 137.84 508.79 132.54 503.8 122.6 504.64 118.96 503.13 116.81 503.24 111.51 504.58 111.15 466.86 111.15 466.92 142.14 464.9 142.2 464.91 157.5 466.45 157.51 466.31 203.38 465.94 203.9 468.31 207.19 474.22 208.67 475.59 205.22 477.74 206.59 482.55 206.13 484.73 207.66 484.1 210.38 486.64 211.27 488.65 210.52 489.9 213.76 493.03 215.06 495.13 214.11 496.08 209.47"/><polygon class="cls-4" points="397.82 268.39 397.96 259.7 403.02 255.84 403.03 253.31 405.54 252.02 405.57 249.49 425.75 249.15 425.79 241.61 428.29 240.36 429.54 237.85 433.32 234.19 437.06 234.2 438.31 232.94 438.32 229.14 439.59 229.14 439.6 224.05 442.12 222.82 442.13 220.25 444.68 217.7 444.7 210.06 445.97 208.74 449.8 207.45 451.08 203.53 458.25 203.52 459.84 198.12 456.86 196.1 455.42 189.99 454.11 188.39 449.78 186.88 441.76 191.12 439.94 190 438.02 191.38 437.1 195.8 433.84 195.81 431.55 193.53 427.59 192.93 426.7 194.66 422.28 198.19 420.95 200.22 418.83 200.18 416.31 197.29 417.69 194.01 416.76 191.96 414.31 192.61 411.73 190.93 404.58 195.4 405.97 198.56 405.08 202.51 406.51 205.29 403.25 208.85 403 212.29 400.59 213.74 398.67 219.24 392.69 220.96 390.52 219.81 386.04 222.1 385.1 224.49 386.5 228.08 384.27 232.5 384.46 235.5 382.94 238.91 380.97 240.69 379.49 247.78 381.35 253.34 384.29 254.6 390.6 255.68 393.33 258.52 392.67 264.74 393.84 267.95 397.82 268.39"/><polygon class="cls-5" points="397.82 268.39 397.96 259.7 403.02 255.84 403.03 253.31 405.54 252.02 405.57 249.49 425.75 249.15 425.79 241.61 428.29 240.36 429.54 237.85 433.32 234.19 437.06 234.2 438.31 232.94 438.32 229.14 439.59 229.14 439.6 224.05 442.12 222.82 442.13 220.25 444.68 217.7 444.7 210.06 445.97 208.74 449.8 207.45 451.08 203.53 458.25 203.52 459.84 198.12 456.86 196.1 455.42 189.99 454.11 188.39 449.78 186.88 441.76 191.12 439.94 190 438.02 191.38 437.11 195.8 433.84 195.81 431.55 193.53 427.59 192.93 426.7 194.67 422.28 198.19 420.95 200.22 418.83 200.18 416.31 197.29 417.69 194.01 416.76 191.97 414.31 192.61 411.73 190.93 404.58 195.4 405.97 198.56 405.08 202.51 406.51 205.29 403.25 208.85 403 212.29 400.59 213.74 398.67 219.24 392.69 220.96 390.52 219.81 386.04 222.1 385.1 224.49 386.5 228.08 384.27 232.5 384.46 235.5 382.94 238.91 380.97 240.69 379.49 247.78 381.35 253.34 384.29 254.6 390.6 255.68 393.33 258.52 392.67 264.74 393.84 267.95 397.82 268.39"/><polygon class="cls-6" points="208.75 358.47 211.51 357.07 214.49 357.38 221.07 361.77 223.52 364.23 226.98 366.03 228.51 370.48 232.29 376.45 232.44 380.55 233.97 385.81 237.88 384.14 236.71 380.32 239.6 378.1 241.51 379.24 247.42 377.05 248.77 374.9 252.16 374.15 259.19 376.8 261.68 373.72 260.9 372.28 264.42 368.08 265.81 368.56 266.04 340.31 208.48 340.33 208.75 358.47"/><polygon class="cls-6" points="208.75 358.47 211.51 357.07 214.49 357.38 221.07 361.77 223.52 364.24 226.98 366.03 228.51 370.48 232.29 376.45 232.44 380.55 233.97 385.81 237.88 384.14 236.71 380.32 239.6 378.1 241.51 379.24 247.42 377.05 248.77 374.9 252.16 374.15 259.19 376.8 261.68 373.72 260.9 372.28 264.42 368.08 265.81 368.56 266.04 340.31 208.48 340.33 208.75 358.47"/><polygon class="cls-4" points="516.37 373.07 539.59 373.23 539.56 362.84 539.03 362.52 539.08 344.31 535.35 344.39 535.41 340.49 532.89 339.24 532.89 335.49 531.68 332.95 524.25 332.99 524.33 325.35 524.93 319.79 523.15 322.59 518.97 322.6 510.71 324.11 509.2 325.63 506.01 325.61 502.69 322.47 501.89 325.32 501.94 348.02 509.34 347.99 509.32 355.46 516.7 355.46 516.37 373.07"/><polygon class="cls-5" points="516.37 373.07 539.59 373.23 539.57 362.84 539.03 362.52 539.08 344.31 535.35 344.39 535.41 340.49 532.89 339.24 532.89 335.49 531.68 332.95 524.25 332.99 524.33 325.35 524.93 319.79 523.15 322.59 518.97 322.6 510.71 324.11 509.2 325.63 506.01 325.61 502.69 322.47 501.89 325.32 501.94 348.02 509.34 347.99 509.32 355.46 516.7 355.46 516.37 373.07"/><polygon class="cls-6" points="235.32 396.16 234.62 400.19 235.25 402.16 240.49 405.46 252.28 408.8 254.42 410.04 257.87 409.01 260.75 411.34 265.61 411.38 265.81 368.56 264.42 368.08 260.9 372.28 261.68 373.72 259.19 376.8 252.16 374.15 248.77 374.9 247.42 377.05 241.51 379.24 239.6 378.1 236.71 380.32 237.88 384.14 233.97 385.81 233.38 389.24 234.91 391.73 235.32 396.16"/><polygon class="cls-6" points="235.32 396.16 234.62 400.19 235.25 402.16 240.49 405.46 252.28 408.8 254.42 410.04 257.87 409.01 260.75 411.34 265.61 411.38 265.81 368.56 264.42 368.08 260.9 372.28 261.68 373.72 259.19 376.8 252.16 374.15 248.77 374.9 247.42 377.05 241.51 379.24 239.6 378.1 236.71 380.32 237.88 384.14 233.97 385.81 233.38 389.24 234.91 391.73 235.32 396.16"/><polygon class="cls-4" points="225.6 194.43 226.16 191.72 218.93 193.04 217.34 189.47 211.68 185.51 206.66 189.96 199.15 190.09 181.67 185.81 170.31 186.53 159.36 184.47 156.34 181.01 147.53 176.79 139.89 175.01 124.8 165.84 119.2 166.43 123.12 170.3 119.09 185.9 121.84 191.79 122.53 203.22 126.33 210.67 191.23 210.64 191.25 211.9 224.35 211.86 224.32 194.42 225.6 194.43"/><polygon class="cls-5" points="225.6 194.43 226.16 191.72 218.93 193.04 217.34 189.47 211.68 185.51 206.66 189.96 199.15 190.09 181.67 185.81 170.31 186.53 159.36 184.47 156.34 181.01 147.53 176.79 139.89 175.01 124.8 165.84 119.2 166.43 123.12 170.3 119.09 185.89 121.84 191.79 122.53 203.22 126.33 210.67 191.23 210.65 191.25 211.9 224.35 211.86 224.32 194.42 225.6 194.43"/><polygon class="cls-4" points="332.57 235.54 336.49 241.05 339.48 242.4 339.61 243.64 343.22 247.59 343.73 249.83 348.55 251.73 350.93 250.78 352.06 252.79 355.01 253.32 355.86 255.46 359.02 257.68 364.1 258.21 364.69 260.59 366.84 258.87 375.3 264.85 392.67 264.74 393.33 258.52 390.6 255.68 384.29 254.6 381.35 253.34 379.49 247.78 380.97 240.69 382.94 238.91 384.46 235.5 384.27 232.5 386.5 228.08 385.1 224.49 386.04 222.1 390.52 219.81 392.69 220.96 398.67 219.24 400.59 213.74 403 212.29 403.25 208.85 406.51 205.29 405.89 203.67 395.36 203.64 393.35 199.2 389.59 196.85 389.79 194.43 385.65 193.19 381.1 188.74 379.52 189.2 376.86 185.27 377.8 182.62 375.13 178.7 370.67 176.44 368.04 172.6 363.82 171.95 365.23 168.27 364.78 166.89 361.55 164.89 359.99 165.1 359.84 161.53 358.84 160.33 360.36 158.72 359.48 155.28 359.8 152.63 356.87 153.07 351.73 155.31 348.77 151.37 347.32 153.22 342.84 153.15 342.18 155.97 337.16 156.35 335.55 159.44 337.09 161.82 335.36 165.46 336.87 169.38 335.05 172.06 339.19 174.04 339.04 176.55 341.65 180 341.4 181.53 344.06 183.33 344.79 185.74 341.95 186.7 342.36 190.28 338.36 193.54 333.34 194.65 330.22 196.58 332.3 200.38 329.55 204.23 328.61 209.09 330.6 212.76 330.2 213.74 335.1 215.48 332.25 219.53 334.62 223.09 335.23 225.99 332.12 227.83 331.4 231.3 332.57 235.54"/><polygon class="cls-5" points="332.57 235.54 336.49 241.05 339.48 242.4 339.61 243.64 343.22 247.59 343.73 249.83 348.55 251.73 350.93 250.78 352.06 252.79 355.01 253.32 355.86 255.46 359.02 257.68 364.1 258.21 364.69 260.59 366.84 258.88 375.3 264.85 392.67 264.74 393.33 258.52 390.6 255.68 384.29 254.6 381.35 253.34 379.49 247.78 380.97 240.69 382.94 238.91 384.46 235.5 384.27 232.5 386.5 228.08 385.1 224.49 386.04 222.1 390.52 219.81 392.69 220.96 398.67 219.24 400.59 213.74 403 212.29 403.25 208.85 406.51 205.29 405.89 203.66 395.36 203.64 393.35 199.2 389.59 196.85 389.79 194.43 385.65 193.19 381.1 188.74 379.52 189.2 376.86 185.27 377.8 182.62 375.13 178.7 370.67 176.44 368.04 172.6 363.82 171.95 365.23 168.27 364.78 166.89 361.55 164.89 359.99 165.1 359.84 161.53 358.84 160.33 360.36 158.72 359.48 155.28 359.8 152.63 356.87 153.07 351.73 155.31 348.77 151.37 347.32 153.22 342.84 153.15 342.18 155.97 337.16 156.35 335.55 159.44 337.09 161.82 335.36 165.46 336.87 169.38 335.05 172.06 339.19 174.04 339.04 176.55 341.65 180 341.4 181.53 344.06 183.33 344.79 185.75 341.95 186.7 342.36 190.28 338.36 193.55 333.34 194.65 330.22 196.58 332.3 200.38 329.55 204.23 328.61 209.09 330.6 212.76 330.2 213.74 335.1 215.48 332.25 219.53 334.62 223.09 335.24 225.99 332.12 227.83 331.4 231.3 332.57 235.54"/><polygon class="cls-4" points="406.13 369.68 406.02 387.04 417.71 385.27 420.45 381.15 423.5 379.46 428.45 381.09 431.74 380.07 435.73 379.79 442.05 378.24 445.69 379.26 449.78 378.83 456.71 374.9 460.69 370.65 460.6 366.79 458.34 360.7 454.77 356.73 450.3 354.2 444.92 352.93 441.36 349.48 442.33 347.17 441.29 341.2 441.98 331.4 441.19 328.5 439.25 327.16 433.31 320.64 433.01 317.69 430.49 315.12 428.46 311.83 426.8 310.98 423.19 315.63 420.29 318.06 414.85 317.84 408.31 319.76 405.67 319.47 405.68 354.9 406.09 354.91 406.13 369.68"/><polygon class="cls-5" points="406.13 369.68 406.02 387.04 417.71 385.27 420.45 381.15 423.51 379.46 428.45 381.09 431.74 380.07 435.73 379.79 442.05 378.24 445.69 379.26 449.78 378.83 456.71 374.9 460.69 370.65 460.6 366.79 458.34 360.7 454.77 356.74 450.3 354.2 444.93 352.93 441.36 349.48 442.33 347.17 441.29 341.2 441.98 331.4 441.19 328.5 439.25 327.16 433.31 320.64 433.01 317.69 430.49 315.12 428.46 311.83 426.8 310.98 423.19 315.63 420.29 318.06 414.85 317.84 408.31 319.76 405.67 319.47 405.68 354.9 406.09 354.91 406.13 369.68"/><polygon class="cls-4" points="580.11 373.53 578.54 367.96 576.4 366.34 579.01 361.52 579.64 358.61 577.34 356.15 577.75 353.91 575.87 347.77 572.11 343.86 572.81 336.88 569.92 337.59 566.17 336.45 563.55 337.35 561.66 333.73 561.67 338.09 554.16 338.01 550.41 340.49 550.42 362.78 546.85 362.77 546.85 373.32 580.11 373.53"/><polygon class="cls-5" points="580.12 373.53 578.54 367.96 576.41 366.34 579.01 361.52 579.64 358.61 577.34 356.16 577.76 353.91 575.88 347.77 572.11 343.86 572.81 336.88 569.92 337.59 566.17 336.45 563.55 337.35 561.66 333.73 561.67 338.09 554.16 338.01 550.41 340.49 550.42 362.78 546.85 362.77 546.85 373.32 580.12 373.53"/><polygon class="cls-4" points="503.81 309.99 506.63 309.3 510.54 306.59 513.35 307.46 515.44 305.54 515.93 300.57 517.91 298.92 518.61 294.82 518.54 264.88 458.42 264.8 458.24 295.13 435.47 295.02 435.42 310.12 503.81 309.99"/><polygon class="cls-5" points="503.81 309.99 506.63 309.3 510.54 306.59 513.35 307.46 515.45 305.55 515.93 300.57 517.91 298.92 518.61 294.81 518.54 264.88 458.42 264.8 458.24 295.13 435.47 295.02 435.42 310.12 503.81 309.99"/><polygon class="cls-6" points="178.61 450.93 217.19 451.01 221.44 447.71 219.4 445.01 221.28 443.37 218.95 438.73 221.38 438.55 221.23 435.78 223.52 433.51 227.19 435.79 230.19 435.57 229.12 435.58 229.11 430.74 226.69 430.76 226.71 428.32 223.07 428.3 219.42 423.4 214.57 423.44 213.34 421.01 193.91 420.96 194 439.21 175.06 439.23 175.04 450.91 178.61 450.93"/><polygon class="cls-6" points="178.61 450.93 217.19 451.01 221.44 447.71 219.4 445.01 221.28 443.37 218.95 438.73 221.38 438.56 221.23 435.78 223.52 433.51 227.2 435.79 230.19 435.57 229.12 435.58 229.11 430.74 226.69 430.76 226.71 428.32 223.07 428.3 219.42 423.4 214.57 423.44 213.34 421.01 193.91 420.96 194 439.21 175.06 439.23 175.04 450.91 178.61 450.93"/><polygon class="cls-6" points="193.91 420.96 213.34 421.01 214.57 423.44 219.42 423.4 223.07 428.3 226.71 428.32 226.69 430.76 229.11 430.74 230.37 428.32 232.79 429.54 236.41 429.52 236.41 413.77 231.56 410.11 227.92 405.24 225.5 404.11 225.54 395.49 221.91 395.45 219.44 394.19 219.49 391.85 200.03 391.81 200.04 397.81 192.73 397.77 192.74 400.29 198.88 403.97 198.88 405.21 203.66 406.36 202.47 408.79 200.03 408.75 200.03 411.2 195.21 413.61 194.14 416.1 193.91 420.96"/><polygon class="cls-6" points="193.91 420.96 213.34 421.01 214.57 423.44 219.42 423.4 223.07 428.3 226.71 428.32 226.69 430.76 229.11 430.74 230.37 428.32 232.79 429.54 236.41 429.52 236.41 413.77 231.56 410.11 227.92 405.24 225.5 404.11 225.54 395.49 221.91 395.45 219.44 394.19 219.49 391.85 200.03 391.8 200.04 397.81 192.73 397.77 192.74 400.29 198.88 403.96 198.88 405.21 203.67 406.36 202.47 408.79 200.03 408.75 200.03 411.2 195.22 413.61 194.14 416.1 193.91 420.96"/><polygon class="cls-6" points="294.48 471.8 376.32 472.13 373.93 469.63 371.38 468.44 372.5 466.05 370.28 464.8 369.45 461.39 369.79 452.62 368.55 450.36 355.2 450.29 355.57 446.35 345.79 440.4 340 440.67 337.88 439.06 338.34 431.6 341.83 431.33 342.87 428.29 347.02 423.94 347.62 418.7 348.96 417.95 349.53 414.44 346.21 413.09 344.68 410.51 345.47 407.92 344.23 403.49 342.57 402.22 334.26 402.94 331.48 406.15 328.43 406.44 326.54 400.97 319.35 398.13 315.58 399.14 313.25 398.77 313.28 413.77 310.81 413.75 310.87 435.69 298.18 435.71 299.01 438.14 295.3 439.99 295.27 441.72 298.44 447.45 300.03 447.32 300.38 451.73 298.91 451.62 296.89 454.1 293.19 454.44 291.79 456.34 292.49 462.71 294.46 462.32 297.13 465.54 295.95 466.6 294.48 471.8"/><polygon class="cls-6" points="294.48 471.8 376.32 472.13 373.93 469.63 371.38 468.44 372.5 466.05 370.28 464.8 369.45 461.39 369.79 452.62 368.55 450.36 355.2 450.29 355.57 446.35 345.79 440.4 340 440.67 337.88 439.06 338.34 431.6 341.83 431.33 342.87 428.29 347.02 423.94 347.62 418.7 348.96 417.94 349.53 414.44 346.21 413.09 344.68 410.51 345.47 407.92 344.23 403.49 342.57 402.22 334.26 402.94 331.48 406.15 328.43 406.44 326.54 400.97 319.35 398.13 315.58 399.14 313.25 398.77 313.29 413.77 310.81 413.75 310.87 435.69 298.18 435.71 299.01 438.14 295.3 439.99 295.27 441.72 298.44 447.45 300.03 447.32 300.38 451.73 298.91 451.62 296.89 454.1 293.19 454.44 291.79 456.34 292.49 462.72 294.46 462.32 297.13 465.54 295.95 466.6 294.48 471.8"/><polygon class="cls-6" points="517.5 373.08 517.79 384.96 531.09 384.93 531.1 392.35 528.68 392.31 528.7 399.42 531.14 401.92 531.14 405.53 532.27 405.52 532.27 414.16 534.82 414.13 534.84 421.45 536.01 421.46 536.03 426.68 537.21 429.07 540.78 428.98 540.82 431.35 543.2 432.54 544.38 434.89 544.5 439.79 547.05 439.79 547.03 443.48 559.4 443.42 559.44 450.54 587.9 450.69 588.44 448.47 591.15 445.22 594.4 430.39 599.4 420.32 601.41 418.52 601.35 414.81 603.22 411.31 606.79 406.74 605.36 402.78 602.58 399.27 602.54 395.65 599.09 391.86 594.9 391.61 593.02 388.39 587.98 387.94 587.27 385.35 583.03 380.18 582.47 376.98 580.11 373.53 517.5 373.08"/><polygon class="cls-6" points="517.5 373.08 517.79 384.96 531.09 384.93 531.1 392.35 528.68 392.31 528.7 399.42 531.14 401.92 531.14 405.53 532.27 405.52 532.27 414.16 534.82 414.13 534.84 421.45 536.01 421.46 536.03 426.68 537.21 429.07 540.78 428.98 540.82 431.35 543.2 432.54 544.38 434.89 544.5 439.78 547.05 439.78 547.03 443.47 559.4 443.43 559.44 450.54 587.9 450.69 588.44 448.47 591.15 445.22 594.4 430.39 599.4 420.32 601.42 418.52 601.35 414.81 603.22 411.31 606.79 406.74 605.36 402.78 602.58 399.27 602.54 395.65 599.09 391.86 594.9 391.61 593.02 388.39 587.98 387.94 587.27 385.35 583.03 380.18 582.47 376.98 580.12 373.53 517.5 373.08"/><polygon class="cls-6" points="501.75 460.76 503.65 456.8 506.69 455.95 508.47 453.52 510.71 453.8 512.07 455.86 516.48 457.75 520.75 455.72 523.02 452.27 524.99 452.25 526.35 454.55 528.03 454.84 529.28 457.93 541.92 457.88 541.95 450.64 559.44 450.54 559.4 443.42 547.03 443.48 547.05 439.79 544.5 439.79 544.38 434.89 543.2 432.54 540.82 431.35 540.78 428.98 537.21 429.07 536.03 426.68 536.01 421.46 534.84 421.45 534.82 414.13 532.27 414.16 532.27 405.52 531.14 405.53 531.14 401.92 528.7 399.42 528.68 392.31 531.1 392.35 531.09 384.93 517.79 384.96 517.74 388.65 513.53 388.64 513.53 392.33 512.27 392.33 512.25 399.52 509.28 399.51 509.28 417.85 504.5 417.88 504.5 421.52 494.57 421.37 493.51 420.21 490.92 421.37 490.93 427.56 480.01 427.58 479.98 428.85 475.04 428.4 475.1 435.74 477.51 435.73 477.51 440.83 483.95 440.82 483.83 450.54 485.61 450.55 485.57 457.61 490.46 458.56 490.5 460.39 494.73 458.03 498.71 460.55 501.75 460.76"/><polygon class="cls-6" points="501.75 460.76 503.65 456.8 506.69 455.95 508.47 453.52 510.71 453.8 512.07 455.86 516.48 457.75 520.75 455.72 523.02 452.27 524.99 452.25 526.35 454.55 528.04 454.84 529.28 457.93 541.92 457.88 541.95 450.64 559.44 450.54 559.4 443.43 547.03 443.47 547.05 439.78 544.5 439.78 544.38 434.89 543.2 432.54 540.82 431.35 540.78 428.98 537.21 429.07 536.03 426.68 536.01 421.46 534.84 421.45 534.82 414.13 532.27 414.16 532.27 405.52 531.14 405.53 531.14 401.92 528.7 399.42 528.68 392.31 531.1 392.35 531.09 384.93 517.79 384.96 517.74 388.65 513.53 388.64 513.53 392.33 512.27 392.33 512.25 399.52 509.28 399.51 509.28 417.85 504.5 417.88 504.5 421.52 494.57 421.37 493.51 420.22 490.92 421.37 490.93 427.56 480.01 427.58 479.98 428.85 475.04 428.4 475.1 435.74 477.51 435.73 477.51 440.83 483.95 440.82 483.83 450.54 485.61 450.55 485.57 457.62 490.46 458.56 490.5 460.39 494.73 458.03 498.71 460.55 501.75 460.76"/><polygon class="cls-6" points="431.74 380.07 431.58 406.73 442.58 406.81 442.57 414.04 448.64 414.04 448.58 450.35 447.6 450.36 447.55 457.62 485.57 457.61 485.61 450.55 483.83 450.54 483.95 440.82 477.51 440.83 477.51 435.73 475.1 435.74 475.04 428.4 479.98 428.85 480.01 427.58 490.93 427.56 490.92 421.37 493.51 420.21 494.57 421.37 504.5 421.52 504.5 417.88 509.28 417.85 509.28 399.51 512.25 399.52 512.27 392.33 513.53 392.33 513.53 388.64 517.74 388.65 517.5 373.08 457.98 373.15 456.71 374.9 449.78 378.83 445.69 379.26 442.05 378.24 435.73 379.79 431.74 380.07"/><polygon class="cls-6" points="431.74 380.07 431.58 406.73 442.58 406.82 442.57 414.04 448.64 414.04 448.58 450.35 447.6 450.36 447.55 457.62 485.57 457.62 485.61 450.55 483.83 450.54 483.95 440.82 477.51 440.83 477.51 435.73 475.1 435.74 475.04 428.4 479.98 428.85 480.01 427.58 490.93 427.56 490.92 421.37 493.51 420.22 494.57 421.37 504.5 421.52 504.5 417.88 509.28 417.85 509.28 399.51 512.25 399.52 512.27 392.33 513.53 392.33 513.53 388.64 517.74 388.65 517.5 373.08 457.98 373.15 456.71 374.9 449.78 378.83 445.69 379.26 442.05 378.24 435.73 379.79 431.74 380.07"/><polygon class="cls-6" points="162.05 453.53 178.54 453.61 178.61 450.93 175.04 450.91 175.06 439.23 194 439.21 194.14 416.1 195.21 413.61 200.03 411.2 200.03 408.75 202.47 408.79 203.66 406.36 198.88 405.21 198.88 403.97 192.74 400.29 192.73 397.77 200.04 397.81 200.03 391.81 178.9 392.35 178.89 391.5 164.16 391.51 167.28 397.97 164.92 409.51 167.94 410.72 169.07 416.54 163.62 416.59 166.37 423.58 163.92 427.6 164.01 443.63 162.05 453.53"/><polygon class="cls-6" points="162.05 453.53 178.54 453.61 178.61 450.93 175.04 450.91 175.06 439.23 194 439.21 194.14 416.1 195.22 413.61 200.03 411.2 200.03 408.75 202.47 408.79 203.67 406.36 198.88 405.21 198.88 403.96 192.74 400.29 192.73 397.77 200.04 397.81 200.03 391.8 178.9 392.36 178.89 391.5 164.16 391.51 167.28 397.97 164.92 409.51 167.94 410.72 169.07 416.54 163.62 416.59 166.37 423.59 163.92 427.6 164.01 443.63 162.05 453.53"/><polygon class="cls-6" points="368.55 450.36 371.77 445.38 370.15 444.6 369.86 441.18 366.34 439.74 365.55 436.16 367.29 431.78 366.71 426.46 369.76 420.55 368.99 418.37 371.9 416.78 374.06 417.89 373.27 415.37 376.72 415.61 375.8 413.58 377.12 412.5 374.24 410.49 374.07 407.47 370.6 405.3 369.43 402.36 365.96 401.16 359.7 395.4 357.58 397.2 347.78 400.94 344.23 403.49 345.47 407.92 344.68 410.51 346.21 413.09 349.53 414.44 348.96 417.95 347.62 418.7 347.02 423.94 342.87 428.29 341.83 431.33 338.34 431.6 337.88 439.06 340 440.67 345.79 440.4 355.57 446.35 355.2 450.29 368.55 450.36"/><polygon class="cls-6" points="368.55 450.36 371.77 445.38 370.15 444.6 369.86 441.18 366.34 439.74 365.55 436.16 367.29 431.79 366.71 426.46 369.76 420.55 368.99 418.37 371.9 416.78 374.06 417.89 373.27 415.37 376.72 415.61 375.8 413.58 377.12 412.5 374.24 410.49 374.07 407.47 370.6 405.3 369.43 402.36 365.96 401.16 359.7 395.4 357.58 397.2 347.78 400.95 344.23 403.49 345.47 407.92 344.68 410.51 346.21 413.09 349.53 414.44 348.96 417.94 347.62 418.7 347.02 423.94 342.87 428.29 341.83 431.33 338.34 431.6 337.88 439.06 340 440.67 345.79 440.4 355.57 446.35 355.2 450.29 368.55 450.36"/><polygon class="cls-6" points="225.51 396.66 225.5 404.11 227.92 405.24 231.56 410.11 236.41 413.77 236.43 420.99 242.04 421.07 242.49 418.67 290.89 418.63 288.36 416.01 287.99 414.2 285.8 413.67 286.08 410.67 285.1 408.12 284.88 402.83 280.08 405.63 277.68 406.18 274.3 408.37 269.46 408.86 265.61 411.38 260.75 411.34 257.87 409.01 254.42 410.04 252.28 408.8 240.49 405.46 235.25 402.16 234.62 400.19 235.32 396.16 234.01 396.75 225.51 396.66"/><polygon class="cls-6" points="225.51 396.66 225.5 404.11 227.92 405.24 231.56 410.11 236.41 413.77 236.43 420.99 242.04 421.07 242.49 418.67 290.89 418.63 288.36 416.01 287.99 414.2 285.8 413.67 286.08 410.67 285.1 408.12 284.88 402.83 280.08 405.64 277.68 406.18 274.3 408.37 269.46 408.86 265.61 411.38 260.75 411.34 257.87 409.01 254.42 410.04 252.28 408.8 240.49 405.46 235.25 402.16 234.62 400.19 235.32 396.16 234.01 396.75 225.51 396.66"/><polygon class="cls-6" points="398.27 389.03 397.85 435.76 405.2 435.88 405.14 443.11 412.39 443.28 412.37 450.5 410.6 451.62 410.56 457.73 447.55 457.62 447.6 450.36 448.58 450.35 448.64 414.04 442.57 414.04 442.58 406.81 431.58 406.73 431.74 380.07 428.45 381.09 423.5 379.46 420.45 381.15 417.71 385.27 400.26 388.02 398.27 389.03"/><polygon class="cls-6" points="398.27 389.03 397.85 435.76 405.2 435.88 405.14 443.11 412.39 443.28 412.37 450.5 410.6 451.62 410.56 457.73 447.55 457.62 447.6 450.36 448.58 450.35 448.64 414.04 442.57 414.04 442.58 406.82 431.58 406.73 431.74 380.07 428.45 381.09 423.51 379.46 420.45 381.15 417.71 385.27 400.26 388.02 398.27 389.03"/><polygon class="cls-6" points="284.88 402.83 285.1 408.12 286.08 410.67 285.8 413.67 287.99 414.2 288.36 416.01 290.89 418.63 293.48 423.59 296.55 424.31 298.22 426.05 297.69 428.81 299.13 433.04 298.18 435.71 310.87 435.69 310.81 413.75 313.28 413.77 313.25 398.77 308.46 396.45 302.04 398.14 295.92 399.05 291.42 397.96 288.13 399.11 284.88 402.83"/><polygon class="cls-6" points="284.88 402.83 285.1 408.12 286.08 410.67 285.8 413.67 287.99 414.2 288.36 416.01 290.89 418.63 293.48 423.59 296.55 424.32 298.22 426.05 297.69 428.81 299.13 433.04 298.18 435.71 310.87 435.69 310.81 413.75 313.29 413.77 313.25 398.77 308.46 396.45 302.04 398.14 295.92 399.05 291.42 397.97 288.13 399.11 284.88 402.83"/><polygon class="cls-6" points="359.7 395.4 365.96 401.16 369.43 402.36 370.6 405.3 374.07 407.47 374.24 410.49 377.12 412.5 375.8 413.58 376.72 415.61 373.27 415.37 374.06 417.89 371.9 416.78 368.99 418.37 369.76 420.55 366.71 426.46 367.29 431.78 365.55 436.16 366.34 439.74 369.86 441.18 370.15 444.6 371.77 445.38 368.55 450.36 369.04 451.56 403.54 451.8 410.6 451.62 412.37 450.5 412.39 443.28 405.14 443.11 405.2 435.88 397.85 435.76 398.27 389.03 394.1 391.34 388.19 393.3 385.81 396.34 381.5 396.75 374.42 398.6 368.41 398.54 365.25 395.3 363.38 394.61 359.7 395.4"/><polygon class="cls-6" points="359.7 395.4 365.96 401.16 369.43 402.36 370.6 405.3 374.07 407.47 374.24 410.49 377.12 412.5 375.8 413.58 376.72 415.61 373.27 415.37 374.06 417.89 371.9 416.78 368.99 418.37 369.76 420.55 366.71 426.46 367.29 431.79 365.55 436.16 366.34 439.74 369.86 441.18 370.15 444.6 371.77 445.38 368.55 450.36 369.04 451.56 403.54 451.8 410.6 451.62 412.37 450.5 412.39 443.28 405.14 443.11 405.2 435.88 397.85 435.76 398.27 389.03 394.1 391.34 388.19 393.3 385.81 396.34 381.5 396.75 374.42 398.6 368.41 398.54 365.25 395.3 363.38 394.61 359.7 395.4"/><polygon class="cls-6" points="199.87 360.98 200.03 391.81 219.49 391.85 219.44 394.19 221.91 395.45 225.54 395.49 225.51 396.66 234.01 396.75 235.32 396.16 234.91 391.73 233.38 389.24 233.97 385.81 232.44 380.55 232.29 376.45 228.51 370.48 226.98 366.03 223.52 364.23 221.07 361.77 214.49 357.38 211.51 357.07 208.75 358.47 207.81 361.2 199.87 360.98"/><polygon class="cls-6" points="199.87 360.98 200.03 391.8 219.49 391.85 219.44 394.19 221.91 395.45 225.54 395.49 225.51 396.66 234.01 396.75 235.32 396.16 234.91 391.73 233.38 389.24 233.97 385.81 232.44 380.55 232.29 376.45 228.51 370.48 226.98 366.03 223.52 364.24 221.07 361.77 214.49 357.38 211.51 357.07 208.75 358.47 207.81 361.2 199.87 360.98"/><polygon class="cls-6" points="200.03 391.81 199.87 360.98 191.79 353.14 186.69 357.15 178.61 358.68 176.25 355.88 168.2 359.02 161.72 354.02 166.26 366.89 166.03 375.07 162.8 377.63 164.26 380.96 164.16 391.51 178.89 391.5 178.9 392.35 200.03 391.81"/><polygon class="cls-6" points="200.03 391.8 199.87 360.98 191.79 353.14 186.69 357.15 178.61 358.68 176.25 355.88 168.2 359.02 161.72 354.02 166.26 366.89 166.03 375.07 162.8 377.63 164.26 380.96 164.16 391.51 178.89 391.5 178.9 392.36 200.03 391.8"/><polygon class="cls-6" points="230.19 435.57 231.07 434.37 234.01 434.37 236.71 435.59 235.36 442.92 233.8 446.43 236.11 448.42 238.67 452.32 241.43 454.27 245.12 455.62 248.69 462.51 254.25 465.29 256.72 465.31 256.89 466.84 295.95 466.6 297.13 465.54 294.46 462.32 292.49 462.71 291.79 456.34 293.19 454.44 296.89 454.1 298.91 451.62 300.38 451.73 300.03 447.32 298.44 447.45 295.27 441.72 295.3 439.99 299.01 438.14 298.18 435.71 299.13 433.04 297.69 428.81 298.22 426.05 296.55 424.31 293.48 423.59 290.89 418.63 242.49 418.67 242.04 421.07 236.43 420.99 236.41 429.52 232.79 429.54 230.37 428.32 229.11 430.74 229.12 435.58 230.19 435.57"/><polygon class="cls-6" points="230.19 435.57 231.07 434.38 234.01 434.37 236.71 435.59 235.36 442.92 233.8 446.43 236.11 448.42 238.67 452.32 241.43 454.27 245.12 455.62 248.69 462.51 254.25 465.29 256.72 465.31 256.89 466.84 295.95 466.6 297.13 465.54 294.46 462.32 292.49 462.72 291.79 456.34 293.19 454.44 296.89 454.1 298.91 451.62 300.38 451.73 300.03 447.32 298.44 447.45 295.27 441.72 295.3 439.99 299.01 438.14 298.18 435.71 299.13 433.04 297.69 428.81 298.22 426.05 296.55 424.32 293.48 423.59 290.89 418.63 242.49 418.67 242.04 421.07 236.43 420.99 236.41 429.52 232.79 429.54 230.37 428.32 229.11 430.74 229.12 435.58 230.19 435.57"/><polygon class="cls-4" points="614.7 293.12 695.51 293.26 693.03 289.89 690.28 290.1 688.9 285.2 686.79 283.22 684.69 278.65 682.16 276.23 678.74 274.45 677.66 271.73 675.41 271.21 675.88 269.23 673.01 264.68 668.97 264.58 667.95 263.17 661.89 261.51 660.61 257.11 656.71 254.27 655.14 254.7 654.05 252.52 648.89 249.22 652.24 247.76 654.99 247.8 656.03 245.8 652.61 245.28 651.21 242.01 648.57 239.53 652.56 235.75 652.16 233.23 649.68 230.49 650.49 226.95 646.9 223.96 645.7 221.4 644.48 221.96 643.16 219.14 642.84 215.3 639.95 213.97 635.13 207.51 632.32 202.51 631.26 202.18 627.09 197.2 625.15 198.34 621.95 196.54 620.59 194.2 618.09 194.64 614.73 198.6 615.1 209.83 614.7 293.12"/><polygon class="cls-5" points="614.7 293.12 695.51 293.26 693.03 289.89 690.28 290.1 688.9 285.2 686.79 283.23 684.69 278.65 682.16 276.23 678.74 274.45 677.66 271.73 675.41 271.21 675.88 269.23 673.01 264.68 668.97 264.58 667.95 263.17 661.89 261.51 660.61 257.11 656.71 254.27 655.14 254.7 654.05 252.52 648.89 249.22 652.25 247.76 654.99 247.8 656.03 245.81 652.61 245.28 651.21 242.01 648.57 239.53 652.56 235.75 652.16 233.23 649.68 230.49 650.49 226.95 646.9 223.97 645.7 221.4 644.48 221.96 643.16 219.14 642.84 215.3 639.95 213.98 635.13 207.51 632.32 202.51 631.26 202.18 627.09 197.2 625.15 198.34 621.95 196.54 620.59 194.2 618.09 194.64 614.73 198.6 615.1 209.83 614.7 293.12"/><polygon class="cls-4" points="572.81 336.88 572.11 343.86 575.87 347.77 577.75 353.91 577.34 356.15 579.64 358.61 579.01 361.52 576.4 366.34 578.54 367.96 580.11 373.53 582.47 376.98 583.03 380.18 587.27 385.35 589.87 384.26 591.07 382.12 589.51 377.99 592.74 373.46 592.71 352.91 593.86 352.44 592.04 345.42 605.24 345.44 606.46 343.25 611.32 344.12 612.77 343.13 612.43 337.65 609.62 333.33 612.36 333.33 612.35 330.51 607.68 330.75 607.25 319.43 597.49 319.39 592.86 323.22 591.8 326.83 572.82 326.92 572.81 336.88"/><polygon class="cls-5" points="572.81 336.88 572.11 343.86 575.88 347.77 577.76 353.91 577.34 356.16 579.64 358.61 579.01 361.52 576.41 366.34 578.54 367.96 580.12 373.53 582.47 376.98 583.03 380.18 587.27 385.35 589.87 384.26 591.07 382.12 589.51 377.99 592.74 373.46 592.71 352.91 593.86 352.44 592.04 345.42 605.24 345.44 606.46 343.25 611.32 344.12 612.77 343.13 612.43 337.65 609.62 333.33 612.36 333.33 612.35 330.52 607.68 330.75 607.25 319.43 597.49 319.39 592.86 323.22 591.8 326.83 572.82 326.92 572.81 336.88"/><polygon class="cls-4" points="592.74 373.46 595.09 373.85 596.47 370.07 599.93 370.78 602.72 373.17 603.77 369.89 603.79 361.94 605.9 362.79 607.37 356.79 608.89 355.92 612.29 357.54 614.58 357.48 616.37 358.96 618.99 358.55 622.52 360.22 623.16 357.98 626.27 354.83 628.97 355.48 633.39 353.95 629.86 351.31 626.63 347.72 622.55 337.94 615.93 337.95 615.25 335.82 612.36 333.33 609.62 333.33 612.43 337.65 612.77 343.13 611.32 344.12 606.46 343.25 605.24 345.44 592.04 345.42 593.86 352.44 592.71 352.91 592.74 373.46"/><polygon class="cls-5" points="592.74 373.46 595.09 373.85 596.47 370.07 599.93 370.78 602.72 373.17 603.77 369.89 603.79 361.94 605.9 362.79 607.37 356.79 608.89 355.92 612.29 357.54 614.58 357.49 616.37 358.96 618.99 358.55 622.52 360.22 623.16 357.98 626.27 354.83 628.97 355.48 633.39 353.95 629.86 351.31 626.63 347.72 622.55 337.94 615.93 337.95 615.25 335.82 612.36 333.33 609.62 333.33 612.43 337.65 612.77 343.13 611.32 344.12 606.46 343.25 605.24 345.44 592.04 345.42 593.86 352.44 592.71 352.91 592.74 373.46"/><polygon class="cls-4" points="572.82 276.44 572.82 326.92 591.8 326.83 592.86 323.22 597.49 319.39 614.71 319.53 614.7 285.53 607.11 285.56 607.09 284.3 588.65 284.22 584.87 284.65 581.31 280.73 578.45 281.65 576.65 280.03 577.07 277.47 572.82 276.44"/><polygon class="cls-5" points="572.82 276.44 572.82 326.92 591.8 326.83 592.86 323.22 597.49 319.39 614.71 319.53 614.7 285.53 607.11 285.56 607.09 284.3 588.65 284.22 584.87 284.65 581.31 280.73 578.45 281.65 576.65 280.03 577.07 277.48 572.82 276.44"/><polygon class="cls-4" points="572.67 202.16 572.81 255.71 586.32 255.68 586.31 254.43 590.79 253.96 590.75 255.21 597.03 255.21 597.02 252.72 599.54 251.46 614.7 251.54 615.1 209.83 604.35 209.84 604.4 200.92 596.8 200.92 596.8 202.18 572.67 202.16"/><polygon class="cls-5" points="572.67 202.16 572.81 255.71 586.32 255.68 586.31 254.44 590.79 253.96 590.75 255.21 597.03 255.21 597.02 252.72 599.54 251.46 614.7 251.54 615.1 209.83 604.35 209.84 604.4 200.92 596.8 200.92 596.8 202.18 572.67 202.16"/><polygon class="cls-4" points="587.27 385.35 587.98 387.94 593.02 388.39 594.9 391.61 599.09 391.86 602.54 395.65 602.58 399.27 605.36 402.78 606.79 406.74 603.22 411.31 601.35 414.81 601.41 418.52 599.4 420.32 594.4 430.39 593.62 434.88 613.91 434.87 616.38 441.81 617.34 446.49 616.16 448.19 625.61 448.3 626.96 444.03 629.33 444.51 632.55 442.31 635.61 438.92 635.56 440.95 711.15 440.81 712.34 437.7 716.46 432.56 714.25 430.57 709.9 424.25 705.28 420.73 705.3 414.67 708.76 416.25 710.54 416.05 712.95 417.82 715.1 413.46 718.77 410.54 720.35 406.4 719 403.61 722.62 401.16 721.7 399.81 722.34 396.71 719.77 394.86 718.69 392.3 721.91 387.58 722.04 386.24 726.27 384.79 727.92 385.73 729.19 383.12 726.65 378.6 728.36 376.72 727.81 375.05 723.32 372.77 723.74 370.55 722.14 370.46 724.54 367.57 724.11 363.52 721.34 362.49 721.72 358.88 725.83 358.86 725.94 355.88 724.56 349.96 726.88 349 727.68 344.54 727.16 340.16 730.35 335.82 728.44 332.34 728.47 330.32 731.9 328.81 731.78 322.77 733.05 321 732.45 316.7 730.97 316.01 727.05 316.72 724.54 319.2 720.13 317.63 717.01 319.05 655.98 332.77 654.71 337.29 649.85 342.22 648.95 347.87 647.09 350.4 643.09 349.12 636.43 348.33 634.2 347.08 631.01 342.85 627.43 342.15 626.3 342.95 624.09 341.49 626.63 347.72 629.86 351.31 633.39 353.95 628.97 355.48 626.27 354.83 623.16 357.98 622.52 360.22 618.99 358.55 616.37 358.96 614.58 357.48 612.29 357.54 608.89 355.92 607.37 356.79 605.9 362.79 603.79 361.94 603.77 369.89 602.72 373.17 599.93 370.78 596.47 370.07 595.09 373.85 592.74 373.46 589.51 377.99 591.07 382.12 589.87 384.26 587.27 385.35"/><polygon class="cls-5" points="587.27 385.35 587.98 387.94 593.02 388.39 594.9 391.61 599.09 391.86 602.54 395.65 602.58 399.27 605.36 402.78 606.79 406.74 603.22 411.31 601.35 414.81 601.42 418.52 599.4 420.32 594.4 430.39 593.62 434.89 613.91 434.87 616.38 441.81 617.34 446.49 616.16 448.19 625.61 448.3 626.96 444.03 629.33 444.51 632.55 442.31 635.61 438.92 635.56 440.95 711.15 440.81 712.34 437.7 716.46 432.56 714.25 430.57 709.9 424.25 705.28 420.73 705.3 414.67 708.76 416.25 710.54 416.05 712.95 417.82 715.1 413.46 718.77 410.54 720.35 406.4 719 403.61 722.62 401.16 721.7 399.81 722.34 396.71 719.77 394.86 718.69 392.3 721.92 387.58 722.04 386.24 726.27 384.79 727.92 385.73 729.19 383.12 726.65 378.6 728.36 376.72 727.81 375.05 723.32 372.77 723.74 370.55 722.14 370.46 724.54 367.58 724.11 363.52 721.34 362.49 721.72 358.88 725.83 358.86 725.94 355.88 724.56 349.97 726.88 349 727.68 344.54 727.16 340.16 730.35 335.82 728.44 332.34 728.47 330.32 731.91 328.81 731.78 322.77 733.06 321 732.45 316.7 730.97 316 727.05 316.72 724.55 319.2 720.13 317.63 717.01 319.05 655.98 332.77 654.71 337.29 649.85 342.22 648.95 347.87 647.09 350.4 643.09 349.12 636.43 348.33 634.2 347.08 631.01 342.85 627.43 342.15 626.3 342.95 624.09 341.49 626.63 347.72 629.86 351.31 633.39 353.95 628.97 355.48 626.27 354.83 623.16 357.98 622.52 360.22 618.99 358.55 616.37 358.96 614.58 357.49 612.29 357.54 608.89 355.92 607.37 356.79 605.9 362.79 603.79 361.94 603.77 369.89 602.72 373.17 599.93 370.78 596.47 370.07 595.09 373.85 592.74 373.46 589.51 377.99 591.07 382.12 589.87 384.26 587.27 385.35"/><polygon class="cls-4" points="612.36 333.33 615.25 335.82 615.93 337.95 622.55 337.94 624.09 341.49 626.3 342.95 627.43 342.15 631.01 342.85 634.2 347.08 636.43 348.33 643.09 349.12 647.09 350.4 648.95 347.87 649.85 342.22 654.71 337.29 655.98 332.77 717.01 319.05 714.59 316.82 715.46 312.7 712.27 310.16 710.86 309.87 707.78 313.56 705.57 312.13 706.96 308.33 703.09 306.14 701.05 303.49 699.23 304.49 697.32 300 697.41 294.41 695.51 293.26 614.7 293.12 614.71 319.53 607.25 319.43 607.68 330.75 612.35 330.51 612.36 333.33"/><polygon class="cls-5" points="612.36 333.33 615.25 335.82 615.93 337.95 622.55 337.94 624.09 341.49 626.3 342.95 627.43 342.15 631.01 342.85 634.2 347.08 636.43 348.33 643.09 349.12 647.09 350.4 648.95 347.87 649.85 342.22 654.71 337.29 655.98 332.77 717.01 319.05 714.59 316.82 715.46 312.7 712.27 310.16 710.86 309.87 707.79 313.56 705.57 312.13 706.96 308.33 703.09 306.14 701.05 303.49 699.24 304.49 697.32 300 697.41 294.41 695.51 293.26 614.7 293.12 614.71 319.53 607.25 319.43 607.68 330.75 612.35 330.52 612.36 333.33"/><polygon class="cls-4" points="573.25 124.93 587.83 124.86 587.85 155.83 631.23 155.7 631.23 111.16 573.25 111.16 573.25 124.93"/><polygon class="cls-5" points="573.25 124.93 587.83 124.86 587.85 155.83 631.23 155.7 631.23 111.16 573.25 111.16 573.25 124.93"/><polygon class="cls-4" points="572.67 202.16 596.8 202.18 596.8 200.92 604.4 200.92 604.35 209.84 615.1 209.83 614.73 198.6 618.09 194.64 620.59 194.2 621.95 196.54 625.15 198.34 627.09 197.2 631.26 202.18 631.23 155.7 587.85 155.83 587.83 124.86 573.25 124.93 572.67 202.16"/><polygon class="cls-5" points="572.67 202.16 596.8 202.18 596.8 200.92 604.4 200.92 604.35 209.84 615.1 209.83 614.73 198.6 618.09 194.64 620.59 194.2 621.95 196.54 625.15 198.34 627.09 197.2 631.26 202.18 631.23 155.7 587.85 155.83 587.83 124.86 573.25 124.93 572.67 202.16"/><polygon class="cls-4" points="572.82 276.44 577.07 277.47 576.65 280.03 578.45 281.65 581.31 280.73 584.87 284.65 588.65 284.22 607.09 284.3 607.11 285.56 614.7 285.53 614.7 251.54 599.54 251.46 597.02 252.72 597.03 255.21 590.75 255.21 590.79 253.96 586.31 254.43 586.32 255.68 572.81 255.71 572.82 276.44"/><polygon class="cls-5" points="572.82 276.44 577.07 277.48 576.65 280.03 578.45 281.65 581.31 280.73 584.87 284.65 588.65 284.22 607.09 284.3 607.11 285.56 614.7 285.53 614.7 251.54 599.54 251.46 597.02 252.72 597.03 255.21 590.75 255.21 590.79 253.96 586.31 254.44 586.32 255.68 572.81 255.71 572.82 276.44"/><polyline class="cls-7" points="580.12 373.53 578.54 367.96 576.41 366.34 579.01 361.52 579.64 358.61 577.34 356.16 577.76 353.91 575.88 347.77 572.11 343.86 572.81 336.88 572.82 326.92 573.25 111.16"/><polyline class="cls-8" points="308.46 396.45 315.58 399.14 319.35 398.13 326.54 400.97 328.43 406.44 331.48 406.15 334.26 402.94 342.57 402.22 344.23 403.49 347.78 400.95 357.58 397.2 359.7 395.4 363.38 394.61 365.25 395.3 368.41 398.54 374.42 398.6 381.5 396.75 385.81 396.34 388.19 393.3 394.1 391.34 400.26 388.02 417.71 385.27 420.45 381.15 423.51 379.46 428.45 381.09 431.74 380.07 435.73 379.79 442.05 378.24 445.69 379.26 449.78 378.83 456.71 374.9 457.98 373.15 576.11 373.52"/></g><g id="Layer_5" data-name="Layer 5"><polyline class="cls-9" points="303.15 369.42 303.36 391.56 308.91 391.59 307.56 392.51 308.46 396.45 313.25 398.77 315.58 399.14 319.35 398.13 326.54 400.97 328.43 406.44 331.48 406.15 334.26 402.94 342.57 402.22 344.23 403.49 347.78 400.95 357.58 397.2 359.7 395.4 363.38 394.61 365.25 395.3 368.41 398.54 374.42 398.6 381.5 396.75 385.81 396.34 388.19 393.3 394.1 391.34 400.26 388.02 406.02 387.04 406.13 369.68"/></g><g id="Layer_6" data-name="Layer 6"><polyline class="cls-8" points="308.46 396.45 315.58 399.14 319.35 398.13 326.54 400.97 328.43 406.44 331.48 406.15 334.26 402.94 342.57 402.22 344.23 403.49 347.78 400.95 357.58 397.2 359.7 395.4 363.38 394.61 365.25 395.3 368.41 398.54 374.42 398.6 381.5 396.75 385.81 396.34 388.19 393.3 394.1 391.34 400.26 388.02 417.71 385.27 420.45 381.15 423.51 379.46 428.45 381.09 431.74 380.07 435.73 379.79 442.05 378.24 445.69 379.26 449.78 378.83 456.71 374.9 457.98 373.15 576.11 373.52"/></g><g id="Layer_7" data-name="Layer 7"><polyline class="cls-10" points="175.63 349.84 185.19 351.01 191.9 349.84 204.59 360.3 211.51 357.07 214.49 357.38 221.07 361.77 223.52 364.24 229.11 366.24 228.51 370.48 232.29 376.45 232.44 380.55 233.97 385.81 233.38 389.24 234.91 391.73 235.32 396.16 235.25 402.16 235.25 402.16 254.42 410.04 257.87 409.01 260.75 411.34 265.61 411.38 269.46 408.86 274.3 408.37 277.68 406.18 282.69 406.44 284.88 402.83 288.13 399.11 291.42 397.97 295.92 399.05 313.28 396.16"/><circle class="cls-11" cx="263.76" cy="245.88" r="29.28"/><circle class="cls-12" cx="263.76" cy="245.88" r="9.02"/><circle class="cls-12" cx="549.96" cy="230.47" r="9.02"/></g><g id="Layer_8" data-name="Layer 8"><path class="cls-13" d="M556.68,254v2.15l-5.94,1c-1.26.2-2.52.4-3.77.58v.07c1.25.25,2.52.5,3.77.77l5.94,1.44v1.82l-5.94,1.44-3.77.8v.07l3.77.56,5.94,1v2l-11.78-2.25v-2.59l6.2-1.46c.92-.2,1.82-.38,2.72-.52v-.08c-.9-.16-1.8-.34-2.72-.54l-6.2-1.42v-2.54Z"/><path class="cls-13" d="M556.68,271.91v2.45l-11.78,3.83V276l3.19-.91v-4l-3.19-.92v-2.13Zm-6.95-.31v3l1.44-.42c1.24-.37,2.59-.72,3.89-1.06v-.07c-1.32-.32-2.65-.67-3.89-1Z"/><path class="cls-13" d="M546.42,278.84l1.42,1.22a4.7,4.7,0,0,0-1.33,3.06c0,1.33.59,2.05,1.51,2.05s1.28-.75,1.73-1.81l.7-1.62a3.39,3.39,0,0,1,3.13-2.38c1.87,0,3.32,1.66,3.32,4a5.2,5.2,0,0,1-1.5,3.62l-1.33-1.06a3.85,3.85,0,0,0,1-2.56c0-1.12-.53-1.85-1.39-1.85s-1.26.9-1.66,1.87l-.66,1.6a3.3,3.3,0,0,1-3.19,2.38c-1.91,0-3.49-1.59-3.49-4.23A6.07,6.07,0,0,1,546.42,278.84Z"/><path class="cls-13" d="M556.68,289.46v2.09h-4.74v4.77h4.74v2.09H544.9v-2.09h5.22v-4.77H544.9v-2.09Z"/><path class="cls-13" d="M556.68,301.39v2.09H544.9v-2.09Z"/><path class="cls-13" d="M556.68,306.47v2.14l-6.63,3.67-2.5,1.21v.07c1.21-.09,2.7-.27,4-.27h5.11v2H544.9v-2.14l6.63-3.68,2.5-1.2v-.07c-1.24.09-2.66.27-4,.27H544.9v-2Z"/><path class="cls-13" d="M550.76,317.66c3.85,0,6.14,2.43,6.14,5.57a4.83,4.83,0,0,1-1.5,3.56l-1.35-1.11a3.19,3.19,0,0,0,1-2.38c0-2.09-1.62-3.49-4.27-3.49s-4.3,1.24-4.3,3.6a2.62,2.62,0,0,0,.52,1.69h2.54v-2.23h1.71V327h-5.19a5.4,5.4,0,0,1-1.4-3.76C544.69,320,546.85,317.66,550.76,317.66Z"/><path class="cls-13" d="M554.91,331.6v-3.41h1.77v8.9h-1.77v-3.41h-10V331.6Z"/><path class="cls-13" d="M550.85,338c3.79,0,6,2.12,6,5.18s-2.26,5.21-6,5.21-6.16-2.13-6.16-5.21S547,338,550.85,338Zm0,8.23c2.62,0,4.23-1.19,4.23-3.05s-1.61-3-4.23-3-4.34,1.19-4.34,3S548.2,346.2,550.85,346.2Z"/><path class="cls-13" d="M556.68,350.71v2.14l-6.63,3.68-2.5,1.2v.08c1.21-.09,2.7-.27,4-.27h5.11v2H544.9v-2.14l6.63-3.67,2.5-1.21v-.07c-1.24.09-2.66.27-4,.27H544.9v-2Z"/><path class="cls-13" d="M593.84,285.25v2.09H582.06v-2.09Z"/><path class="cls-13" d="M593.84,290.33v3.15c0,3.6-2,5.73-5.84,5.73s-5.94-2.13-5.94-5.62v-3.26Zm-10.09,3c0,2.38,1.35,3.73,4.25,3.73s4.14-1.35,4.14-3.73v-.91h-8.39Z"/><path class="cls-13" d="M593.84,303.7v2.45L582.06,310v-2.2l3.19-.92v-4l-3.19-.92v-2.12Zm-7-.3v3l1.44-.41c1.24-.38,2.59-.72,3.88-1.06v-.07c-1.31-.33-2.64-.67-3.88-1.05Z"/><path class="cls-13" d="M593.84,311.44v2.09H589.1v4.77h4.74v2.09H582.06V318.3h5.22v-4.77h-5.22v-2.09Z"/><path class="cls-13" d="M588,322.76c3.8,0,6,2.13,6,5.19s-2.25,5.2-6,5.2-6.16-2.12-6.16-5.2S584.18,322.76,588,322.76Zm0,8.23c2.63,0,4.23-1.19,4.23-3s-1.6-3-4.23-3-4.34,1.19-4.34,3S585.36,331,588,331Z"/></g></svg>