<svg xmlns="http://www.w3.org/2000/svg" viewBox="0 0 784.06 507.87"><defs><style>.cls-1{fill:#e6e6e6;}.cls-2{fill:#a5a5a5;}.cls-2,.cls-4{opacity:0.8;}.cls-3,.cls-5,.cls-8,.cls-9{fill:none;}.cls-3{stroke:#868788;}.cls-3,.cls-5{stroke-linejoin:bevel;stroke-width:0.67px;}.cls-4,.cls-6{fill:#007dbc;}.cls-5,.cls-8{stroke:#0675af;}.cls-6,.cls-7{opacity:0.8;}.cls-7{fill:#868788;}.cls-8,.cls-9{stroke-miterlimit:10;}.cls-8{stroke-width:4px;}.cls-9{stroke:#fff;stroke-width:3px;}.cls-10{fill:#fff;}</style></defs><g id="State"><rect class="cls-1" x="-10.55" y="-11.24" width="804.92" height="529.99"/><polygon class="cls-2" points="572.88 305.28 573.01 333.57 600.98 333.57 601.03 328.95 604.68 329 598.7 315.52 595.94 305.39 572.88 305.28"/><polygon class="cls-3" points="572.88 305.28 573.01 333.57 600.98 333.57 601.03 328.95 604.68 329 598.7 315.52 595.94 305.39 572.88 305.28"/><polygon class="cls-2" points="438.43 318.89 447.58 345.69 453.53 354.38 460.58 354.44 460.6 347.43 474.69 347.5 474.76 333.43 460.72 333.34 460.81 319.12 438.43 318.89"/><polygon class="cls-3" points="438.43 318.89 447.58 345.69 453.53 354.38 460.58 354.44 460.61 347.43 474.69 347.5 474.76 333.43 460.72 333.34 460.81 319.12 438.43 318.89"/><polygon class="cls-2" points="474.92 298.21 539.92 298.47 539.65 293.05 535.25 284.17 533.62 282.41 528.35 280.78 527.77 276.06 526.11 273.81 520.48 269.68 517.29 265.9 523.05 268.78 525.38 262.88 517.61 262.82 517.59 258.18 512.7 258.19 512.71 253.48 510.33 248.76 503.22 248.77 503.21 241.66 493.71 241.71 493.69 240.47 488.94 240.46 488.95 241.75 481.81 241.81 481.8 244.8 477.68 243.55 474.8 244.51 474.79 248.79 471.22 248.78 471.24 255.85 474.78 255.86 474.92 298.21"/><polygon class="cls-3" points="474.92 298.21 539.92 298.47 539.65 293.05 535.25 284.17 533.62 282.41 528.35 280.78 527.77 276.06 526.11 273.81 520.48 269.68 517.29 265.9 523.05 268.78 525.38 262.88 517.61 262.82 517.59 258.18 512.7 258.19 512.71 253.48 510.33 248.76 503.22 248.77 503.21 241.66 493.71 241.71 493.69 240.47 488.94 240.46 488.95 241.75 481.81 241.81 481.8 244.8 477.68 243.55 474.8 244.51 474.79 248.79 471.22 248.78 471.24 255.85 474.78 255.86 474.92 298.21"/><polygon class="cls-2" points="432.57 268.28 432.38 255.72 422.81 255.78 422.08 270.53 418.3 279.53 419.4 282.99 432.14 293.88 436.25 280.61 427.4 274.85 432.57 268.28"/><polygon class="cls-3" points="432.57 268.28 432.38 255.72 422.81 255.78 422.08 270.53 418.3 279.53 419.41 282.99 432.14 293.88 436.25 280.61 427.4 274.85 432.57 268.28"/><polygon class="cls-2" points="431.26 234.65 430.59 234.66 426.94 247.73 422.81 255.78 471.24 255.85 471.22 248.78 474.79 248.79 474.85 231.02 460.73 231.01 460.73 234.55 431.26 234.65"/><polygon class="cls-3" points="431.26 234.65 430.59 234.66 426.94 247.73 422.81 255.78 471.24 255.85 471.22 248.78 474.79 248.79 474.85 231.02 460.73 231.01 460.73 234.55 431.26 234.65"/><polygon class="cls-2" points="558.52 403.19 605.16 403.12 615.99 404.2 618.72 365.08 615.59 352.42 611.21 352.38 611.2 353.54 558.21 353.35 558.52 403.19"/><polygon class="cls-3" points="558.52 403.19 605.16 403.12 615.99 404.2 618.72 365.08 615.6 352.42 611.21 352.38 611.2 353.54 558.21 353.35 558.52 403.19"/><polygon class="cls-2" points="539.92 298.47 559.09 298.54 558.5 284.03 559.4 284.03 559.83 241.63 503.21 241.66 503.22 248.77 510.33 248.76 512.71 253.48 512.7 258.19 517.59 258.18 517.61 262.82 525.38 262.88 523.05 268.78 517.29 265.9 520.48 269.68 526.11 273.81 527.77 276.06 528.35 280.78 533.62 282.41 535.25 284.17 539.65 293.05 539.92 298.47"/><polygon class="cls-3" points="539.92 298.47 559.09 298.54 558.5 284.03 559.4 284.03 559.83 241.63 503.21 241.66 503.22 248.77 510.33 248.76 512.71 253.48 512.7 258.19 517.59 258.18 517.61 262.82 525.38 262.88 523.05 268.78 517.29 265.9 520.48 269.68 526.11 273.81 527.77 276.06 528.35 280.78 533.62 282.41 535.25 284.17 539.65 293.05 539.92 298.47"/><polygon class="cls-2" points="554.11 333.2 559.24 337.65 558.21 353.35 573.05 340.33 572.88 305.28 565.94 305.26 565.88 298.47 539.92 298.47 539.9 302.13 534.98 307.49 535.44 310.8 540.15 315.29 539.95 317.04 543.03 319.67 547.56 321.27 546.76 322.78 549.73 325.82 552.16 332.65 554.11 333.2"/><polygon class="cls-3" points="554.11 333.2 559.24 337.65 558.21 353.35 573.05 340.33 572.88 305.28 565.94 305.27 565.88 298.47 539.92 298.47 539.9 302.13 534.98 307.49 535.44 310.8 540.15 315.29 539.95 317.04 543.03 319.67 547.56 321.27 546.76 322.78 549.73 325.82 552.16 332.65 554.11 333.2"/><polygon class="cls-2" points="597.62 486.17 596.08 492.66 590.34 490.09 595.12 495.49 602.23 482.6 597.62 486.17"/><polygon class="cls-2" points="560.16 494.76 559.88 479.98 559.09 479.99 559.1 445.12 529.12 445.24 534.09 451.83 530.17 454.25 538.16 471.49 539.37 478.07 547.29 482.37 552.82 482.54 557.12 489.1 555.01 492.12 548.59 491.47 540.99 482.56 537.95 491.35 544.12 499.52 555.62 497.46 560.16 494.76"/><polygon class="cls-2" points="528.33 453.57 528.99 445.39 524.08 447.78 528.33 453.57"/><polygon class="cls-2" points="521.49 445.27 521.78 445.28 521.61 445.27 521.49 445.27"/><polygon class="cls-2" points="521.78 445.28 521.97 445.29 521.86 445.28 521.78 445.28"/><polygon class="cls-2" points="518.67 445.3 519.08 445.29 518.96 445.29 518.67 445.3"/><polygon class="cls-2" points="519.08 445.29 519.24 445.29 519.49 445.28 519.08 445.29"/><polygon class="cls-3" points="597.62 486.17 596.08 492.66 590.34 490.09 595.12 495.5 602.23 482.6 597.62 486.17"/><polygon class="cls-3" points="560.16 494.76 559.88 479.98 559.09 479.99 559.1 445.12 529.12 445.24 534.09 451.83 530.17 454.25 538.16 471.49 539.37 478.07 547.29 482.37 552.82 482.54 557.12 489.1 555.01 492.12 548.59 491.47 540.99 482.56 537.95 491.35 544.12 499.52 555.62 497.46 560.16 494.76"/><polygon class="cls-3" points="528.33 453.57 528.99 445.39 524.08 447.78 528.33 453.57"/><polygon class="cls-3" points="521.49 445.27 521.78 445.28 521.61 445.27 521.49 445.27"/><polygon class="cls-3" points="521.78 445.28 521.97 445.29 521.86 445.28 521.78 445.28"/><polygon class="cls-3" points="518.67 445.3 519.08 445.29 518.96 445.29 518.67 445.3"/><polygon class="cls-3" points="519.08 445.29 519.24 445.29 519.48 445.28 519.08 445.29"/><polygon class="cls-2" points="559.1 445.12 559.09 479.99 559.88 479.98 560.16 494.76 568.48 497.45 578.22 492.71 586.6 492.34 586.6 491.94 590.34 490.09 591.07 490.06 599.2 479.32 597.04 469.35 604.7 451.01 607.86 448.85 609.14 440.18 612.91 431.67 600.29 432.03 600.3 433.12 572.86 433.12 572.86 431.39 559.12 431.33 559.1 445.12"/><polygon class="cls-3" points="559.1 445.12 559.09 479.99 559.88 479.98 560.16 494.76 568.48 497.45 578.22 492.7 586.6 492.35 586.6 491.94 590.34 490.09 591.07 490.06 599.2 479.32 597.04 469.35 604.7 451.01 607.85 448.85 609.14 440.18 612.91 431.67 600.29 432.03 600.3 433.12 572.86 433.12 572.86 431.39 559.12 431.33 559.1 445.12"/><polygon class="cls-2" points="558.21 353.35 611.2 353.54 611.21 352.38 615.59 352.42 610.09 337.02 600.99 333.2 600.98 333.57 573.01 333.57 573.05 340.33 558.21 353.35"/><polygon class="cls-2" points="604.68 329 601.03 328.95 601.01 331.57 604.68 329"/><polygon class="cls-3" points="558.21 353.35 611.2 353.54 611.21 352.38 615.6 352.42 610.09 337.02 600.98 333.2 600.98 333.57 573.01 333.57 573.05 340.33 558.21 353.35"/><polygon class="cls-3" points="604.68 329 601.03 328.95 601.01 331.57 604.68 329"/><polygon class="cls-2" points="438.43 318.89 460.81 319.12 460.72 333.34 474.76 333.43 474.92 298.21 439.32 298.29 439.17 303.65 430.72 308.41 429.7 312.6 438.43 318.89"/><polygon class="cls-3" points="438.43 318.89 460.81 319.12 460.72 333.34 474.76 333.43 474.92 298.21 439.32 298.29 439.17 303.65 430.72 308.41 429.7 312.6 438.43 318.89"/><path class="cls-2" d="M482.83,385.81l1.86-6.15,5.69-5.12L486,383.7ZM481.09,387l1.74-1.16-.28.9Zm0,0L478,389l6.46,5.55,3.56-1.28,1.74,10.15,1.92,1.13,11.48-.11-.11-8.23,6.93-.12-.26-27.66-35.29-.06L473,376.73l3.53,11Z"/><polygon class="cls-2" points="467.74 373.86 472.1 390.47 474.39 390.49 474.12 381.09 467.74 373.86"/><polygon class="cls-3" points="481.09 386.96 478.01 389.04 484.47 394.6 488.04 393.31 489.77 403.46 491.69 404.59 503.17 404.48 503.06 396.25 509.99 396.13 509.73 368.48 474.44 368.41 472.97 376.73 476.5 387.77 481.09 386.96"/><polygon class="cls-3" points="481.09 386.96 482.83 385.81 482.55 386.71 481.09 386.96"/><polygon class="cls-3" points="482.83 385.81 484.69 379.66 490.38 374.54 485.96 383.7 482.83 385.81"/><polygon class="cls-3" points="467.74 373.86 472.1 390.47 474.39 390.49 474.12 381.09 467.74 373.86"/><polygon class="cls-2" points="559.09 298.54 565.88 298.47 565.94 305.26 595.94 305.39 594.46 297.37 586.33 281.45 585.04 284.07 558.5 284.03 559.09 298.54"/><polygon class="cls-3" points="559.09 298.54 565.88 298.47 565.94 305.27 595.94 305.39 594.46 297.37 586.33 281.45 585.04 284.07 558.5 284.03 559.09 298.54"/><polygon class="cls-2" points="432.38 255.72 432.57 268.28 439.67 272.7 440.22 282.22 445.09 284.06 446.07 274.44 451.3 284.27 439.32 298.29 474.92 298.21 474.78 255.86 432.38 255.72"/><polygon class="cls-3" points="432.38 255.72 432.57 268.28 439.67 272.7 440.22 282.22 445.09 284.06 446.07 274.44 451.3 284.28 439.32 298.29 474.92 298.21 474.78 255.86 432.38 255.72"/><polygon class="cls-2" points="509.88 322.77 509.95 347.37 531.02 347.46 530.98 340.37 538.06 340.32 538.02 333.28 554.11 333.2 552.16 332.65 549.73 325.82 546.76 322.78 547.56 321.27 543.03 319.67 539.95 317.04 540.15 315.29 535.44 310.8 534.98 307.49 539.9 302.13 539.92 298.47 509.91 298.2 509.88 322.77"/><polygon class="cls-3" points="509.88 322.77 509.95 347.37 531.02 347.46 530.98 340.37 538.06 340.32 538.02 333.28 554.11 333.2 552.16 332.65 549.73 325.82 546.76 322.78 547.56 321.27 543.03 319.67 539.95 317.04 540.15 315.29 535.44 310.8 534.98 307.49 539.9 302.13 539.92 298.47 509.91 298.2 509.88 322.77"/><polygon class="cls-2" points="509.88 388.91 530.69 388.61 530.92 409.62 558.62 409.1 558.21 353.35 553.95 368.52 509.73 368.47 509.88 388.91"/><polygon class="cls-3" points="509.88 388.91 530.69 388.61 530.91 409.62 558.62 409.1 558.21 353.35 553.95 368.52 509.73 368.48 509.88 388.91"/><polygon class="cls-2" points="509.88 322.77 509.91 298.2 474.92 298.21 474.81 322.96 509.88 322.77"/><polygon class="cls-3" points="509.88 322.77 509.91 298.2 474.92 298.21 474.81 322.96 509.88 322.77"/><polygon class="cls-2" points="509.73 368.47 553.95 368.52 558.21 353.35 559.24 337.65 554.11 333.2 538.02 333.28 538.06 340.32 530.98 340.37 531.02 347.46 509.95 347.37 509.73 368.47"/><polygon class="cls-3" points="509.73 368.48 553.95 368.52 558.21 353.35 559.24 337.65 554.11 333.2 538.02 333.28 538.06 340.32 530.98 340.37 531.02 347.46 509.95 347.37 509.73 368.48"/><polygon class="cls-2" points="509.95 347.37 509.88 322.77 474.81 322.96 474.69 347.5 509.95 347.37"/><polygon class="cls-3" points="509.95 347.37 509.88 322.77 474.81 322.96 474.69 347.5 509.95 347.37"/><polygon class="cls-2" points="489.77 403.46 492.95 422.24 498.31 430.95 503.57 434.89 512.94 436.66 525.55 445.28 559.1 445.12 558.62 409.1 530.92 409.62 530.69 388.61 509.88 388.91 509.99 396.13 503.06 396.25 503.17 404.48 491.69 404.59 489.77 403.46"/><polygon class="cls-2" points="521.97 445.29 522.31 445.29 521.86 445.28 521.97 445.29"/><polygon class="cls-3" points="489.77 403.46 492.95 422.24 498.31 430.95 503.57 434.89 512.94 436.66 525.55 445.28 559.1 445.12 558.62 409.1 530.91 409.62 530.69 388.61 509.88 388.91 509.99 396.13 503.06 396.25 503.17 404.48 491.69 404.59 489.77 403.46"/><polygon class="cls-3" points="521.97 445.29 522.31 445.29 521.86 445.28 521.97 445.29"/><polygon class="cls-2" points="460.6 349.64 472.77 355.83 474.44 368.41 509.73 368.47 509.95 347.37 460.6 347.43 460.6 349.64"/><polygon class="cls-2" points="460.6 350.14 460.58 354.44 453.53 354.38 461.82 365.29 468.24 366.37 465.68 355.12 460.6 350.14"/><polygon class="cls-3" points="460.6 349.64 472.77 355.83 474.44 368.41 509.73 368.48 509.95 347.37 460.61 347.43 460.6 349.64"/><polygon class="cls-3" points="460.6 350.15 460.58 354.44 453.53 354.38 461.82 365.29 468.24 366.38 465.68 355.12 460.6 350.15"/><polygon class="cls-2" points="558.52 403.19 559.12 431.33 572.86 431.39 572.86 433.12 600.3 433.12 600.29 432.03 612.91 431.67 615.99 404.2 605.16 403.12 558.52 403.19"/><polygon class="cls-3" points="558.52 403.19 559.12 431.33 572.86 431.39 572.86 433.12 600.3 433.12 600.29 432.03 612.91 431.67 615.99 404.2 605.16 403.12 558.52 403.19"/><polygon class="cls-2" points="550.96 220.1 554.08 221.65 554.37 226.37 558.19 228.44 559.25 231.55 557.55 231.95 557.92 237.95 559.83 241.63 559.4 284.03 585.04 284.07 586.33 281.45 573.28 250.81 567.93 236.68 563.15 219.08 560.71 205.63 552.35 205.7 552.6 220.1 550.96 220.1"/><polygon class="cls-2" points="571.74 236.74 574.07 236.6 579.48 223.17 578.27 235.77 583.9 232.55 580.35 222.35 569.1 205.62 568.69 205.62 575.95 216.29 568.49 211.85 565.2 218.9 569.31 220.49 570.13 236.85 571.37 236.76 570.11 237.07 574.21 248.85 571.74 236.74"/><polygon class="cls-2" points="576.33 236.64 577.93 238.55 577.68 256.07 581.39 263.42 577.99 244.56 579.42 236.72 576.33 236.64"/><polygon class="cls-3" points="550.96 220.1 554.08 221.65 554.37 226.37 558.19 228.44 559.25 231.55 557.55 231.95 557.92 237.95 559.83 241.63 559.4 284.03 585.04 284.07 586.33 281.45 573.28 250.81 567.93 236.68 563.15 219.07 560.71 205.63 552.35 205.7 552.6 220.1 550.96 220.1"/><polygon class="cls-3" points="571.75 236.74 574.07 236.6 579.48 223.17 578.27 235.77 583.9 232.55 580.35 222.36 569.1 205.62 568.69 205.62 575.95 216.29 568.49 211.85 565.2 218.9 569.31 220.49 570.13 236.85 571.37 236.76 570.11 237.07 574.21 248.85 571.75 236.74"/><polygon class="cls-3" points="576.33 236.65 577.93 238.55 577.68 256.07 581.39 263.42 577.99 244.56 579.42 236.72 576.33 236.65"/><polygon class="cls-4" points="194.25 74.64 196.19 72.87 201.99 72.91 204.17 70.4 230.22 70.72 230.33 59.9 234.01 59.9 234.18 41.84 230.59 41.81 230.62 38.16 222.24 38.1 220.88 45.29 212.53 45.08 211.41 41.48 206.44 41.4 206.08 46.83 203.2 51.99 199.76 54.2 199.72 57.48 202.29 60.84 201.8 63.84 203.85 65.75 200.77 70.14 196.31 70.46 194.25 74.64"/><polygon class="cls-5" points="194.25 74.64 196.19 72.87 201.99 72.91 204.17 70.4 230.22 70.72 230.33 59.9 234.01 59.9 234.18 41.84 230.59 41.81 230.62 38.16 222.24 38.1 220.88 45.29 212.53 45.09 211.41 41.49 206.44 41.4 206.08 46.83 203.2 51.99 199.76 54.2 199.72 57.48 202.29 60.84 201.8 63.84 203.85 65.75 200.77 70.14 196.31 70.46 194.25 74.64"/><polygon class="cls-4" points="165.41 75.52 172.58 76.86 194 84.55 194.25 74.64 196.31 70.46 200.77 70.14 203.85 65.75 201.8 63.84 202.29 60.84 199.72 57.48 199.76 54.2 203.2 51.99 204.79 48.67 191.05 48.55 191.23 24.58 166.03 24.51 165.6 69.29 175.58 66.58 185.06 71.26 185.26 75.66 176.05 71.39 176.6 74.45 165.44 73.9 165.41 75.52"/><polygon class="cls-5" points="165.41 75.52 172.58 76.86 194 84.55 194.25 74.64 196.31 70.46 200.77 70.14 203.85 65.75 201.8 63.84 202.29 60.84 199.72 57.48 199.76 54.2 203.2 51.99 204.79 48.67 191.05 48.55 191.23 24.58 166.03 24.51 165.6 69.29 175.58 66.58 185.06 71.26 185.26 75.66 176.05 71.39 176.6 74.45 165.44 73.9 165.41 75.52"/><polygon class="cls-4" points="285.42 82 284.48 85.59 286.49 86.5 288.62 91.67 288.6 96.46 294.14 104.3 297.41 105.83 299.62 107.64 302.54 106.58 304.99 108.6 311.9 109.19 310.55 101.69 317.1 98.16 325.08 100.75 330.84 98.79 330.87 84.19 319.07 84.14 318.61 81.73 285.42 82"/><polygon class="cls-5" points="285.42 82 284.48 85.59 286.49 86.5 288.62 91.68 288.6 96.46 294.14 104.3 297.41 105.83 299.62 107.64 302.54 106.58 304.99 108.6 311.9 109.19 310.55 101.69 317.1 98.16 325.08 100.76 330.83 98.79 330.87 84.19 319.07 84.14 318.61 81.73 285.42 82"/><polygon class="cls-4" points="517.62 157.82 509.18 160.16 512.69 170.25 509.28 172.03 512.17 174.17 514.27 180.65 516.82 180.74 517.58 183.41 521.35 185.99 524.79 189.9 524.64 197.78 523.91 198.46 524.54 201.02 527.22 202.1 533.95 202.26 537.12 206.19 540.23 205.61 542.52 202.59 544.63 203.34 546.2 206.34 545.71 208.94 548.88 213.68 549.53 218.18 550.96 220.1 552.6 220.1 552.35 205.7 565.14 205.63 564.7 199.23 568.69 205.62 569.1 205.62 551.18 173.81 542.8 153.75 538.95 155.07 539.36 166.92 520.32 167.31 520.08 155.99 519.13 156.09 517.62 157.82"/><polygon class="cls-5" points="517.62 157.82 509.18 160.16 512.69 170.25 509.28 172.03 512.17 174.17 514.27 180.65 516.82 180.74 517.58 183.41 521.35 185.99 524.79 189.9 524.64 197.78 523.91 198.46 524.54 201.02 527.22 202.1 533.95 202.26 537.12 206.19 540.23 205.61 542.52 202.59 544.63 203.34 546.2 206.34 545.71 208.95 548.88 213.68 549.53 218.18 550.96 220.1 552.6 220.1 552.35 205.7 565.14 205.63 564.7 199.23 568.69 205.62 569.1 205.62 551.18 173.81 542.8 153.75 538.95 155.07 539.36 166.92 520.32 167.31 520.08 155.99 519.13 156.09 517.62 157.82"/><polygon class="cls-4" points="441.04 111.6 448.95 113.07 456.92 110.33 460.28 104.4 462.66 103.96 468.34 97.64 468.62 94.96 446.12 95.51 446.18 98.26 443.26 99.41 440.62 102.23 440.69 104.44 437.74 107.43 441.04 111.6"/><polygon class="cls-5" points="441.04 111.6 448.95 113.07 456.92 110.33 460.28 104.4 462.66 103.96 468.34 97.64 468.62 94.95 446.12 95.51 446.18 98.26 443.26 99.41 440.62 102.23 440.69 104.44 437.74 107.43 441.04 111.6"/><polygon class="cls-4" points="337.44 97.87 337.04 100.39 348.47 108.15 351.4 108.14 361.96 116 365.83 126.43 373.09 132.37 381.66 133.97 382.9 127.82 384.76 124.94 384.8 121.33 382.38 121.36 382.37 115.96 381.09 115.96 381.36 85.28 374.08 85.29 374.12 81.67 349.09 81.73 347.45 83.81 342.26 86.55 341.28 91.13 339.81 91.27 337.44 97.87"/><polygon class="cls-5" points="337.44 97.87 337.04 100.39 348.47 108.15 351.4 108.14 361.96 116 365.83 126.44 373.09 132.37 381.66 133.97 382.9 127.82 384.76 124.94 384.8 121.33 382.38 121.36 382.37 115.96 381.09 115.96 381.36 85.28 374.08 85.29 374.12 81.67 349.09 81.73 347.45 83.82 342.26 86.55 341.28 91.13 339.82 91.27 337.44 97.87"/><polygon class="cls-4" points="416.09 116.05 417.21 114.13 421.77 112.31 424.46 109.64 422.21 107.88 422.16 78.97 418.6 78.64 410.65 72.63 407.25 71.13 402.17 71.66 401.51 70.63 396.49 72.35 395.34 74.98 392.37 78.23 392.57 81.03 389.9 85.26 389.79 91.59 391.39 97.3 394.33 98.97 396.08 97.7 402.56 100.05 402.79 101.36 410.15 107.31 412.46 110.25 412.81 113.21 416.09 116.05"/><polygon class="cls-5" points="416.09 116.05 417.21 114.13 421.77 112.31 424.47 109.64 422.21 107.88 422.16 78.97 418.6 78.64 410.65 72.63 407.25 71.13 402.17 71.66 401.51 70.63 396.49 72.35 395.34 74.98 392.37 78.23 392.57 81.03 389.9 85.26 389.79 91.59 391.39 97.31 394.33 98.97 396.08 97.7 402.56 100.05 402.79 101.36 410.15 107.31 412.46 110.24 412.81 113.21 416.09 116.05"/><polygon class="cls-4" points="460.04 215.66 460.25 218.31 463.95 223.42 468.99 224 471.91 227.25 474.9 227.51 474.8 244.51 477.68 243.55 481.8 244.8 482.06 191.87 456.58 191.86 459.32 197.02 465.78 203.13 466.62 205.7 461.04 211.59 460.04 215.66"/><polygon class="cls-5" points="460.04 215.66 460.25 218.31 463.95 223.42 468.99 223.99 471.91 227.25 474.9 227.51 474.8 244.51 477.68 243.55 481.8 244.8 482.06 191.87 456.58 191.86 459.32 197.02 465.78 203.13 466.62 205.7 461.04 211.59 460.04 215.66"/><polygon class="cls-4" points="507.18 95.99 502.39 101.83 510.43 109.4 508.08 115.78 512.58 126.49 512.74 137.75 526.96 137.49 531.51 133.93 534.88 133.79 528.17 120.75 528.41 110.68 522.99 85.9 518.92 85.95 519.15 98.01 511.67 98.2 511.64 96.87 507.18 95.99"/><polygon class="cls-4" points="530.32 114.59 528.66 120.69 532.21 126.48 530.32 114.59"/><polygon class="cls-5" points="507.18 95.99 502.39 101.83 510.43 109.4 508.08 115.78 512.58 126.49 512.74 137.75 526.96 137.49 531.51 133.93 534.88 133.79 528.17 120.75 528.41 110.68 522.99 85.9 518.92 85.95 519.15 98.01 511.67 98.2 511.64 96.87 507.18 95.99"/><polygon class="cls-5" points="530.32 114.59 528.66 120.69 532.21 126.48 530.32 114.59"/><polygon class="cls-4" points="520.52 206.12 519.98 209.77 517.33 211.96 517.31 217.9 526.61 217.94 526.69 220.32 550.96 220.1 549.53 218.18 548.88 213.68 545.71 208.94 546.2 206.34 544.63 203.34 542.52 202.59 540.23 205.61 537.12 206.19 533.95 202.26 527.22 202.1 524.54 201.02 523.91 198.46 520.13 203.72 520.52 206.12"/><polygon class="cls-5" points="520.52 206.12 519.98 209.78 517.33 211.96 517.31 217.9 526.61 217.94 526.69 220.32 550.96 220.1 549.53 218.18 548.88 213.68 545.71 208.95 546.2 206.34 544.63 203.34 542.52 202.59 540.23 205.61 537.12 206.19 533.95 202.26 527.22 202.1 524.54 201.02 523.91 198.46 520.13 203.72 520.52 206.12"/><polygon class="cls-4" points="108.58 61.45 111.73 59.24 115.28 63.82 115.18 70.05 120.97 65.08 126.97 69.28 121.23 73.52 112.19 76.33 136.76 73.25 137.72 24.28 110.87 24.1 105.88 26.7 104.25 29.71 102.01 30.29 102.19 33.33 100.12 36.53 101.59 39.7 100.17 41.79 100.91 47.3 102.99 47.45 103.61 53.18 107.52 60.91 108.58 61.45"/><polygon class="cls-4" points="128.2 75.85 128.21 76.17 136.69 74.84 136.71 74.34 128.2 75.85"/><polygon class="cls-5" points="108.58 61.45 111.73 59.24 115.28 63.82 115.18 70.05 120.97 65.08 126.97 69.28 121.23 73.52 112.19 76.33 136.76 73.25 137.72 24.28 110.87 24.1 105.88 26.7 104.25 29.71 102.01 30.29 102.19 33.34 100.12 36.53 101.59 39.7 100.18 41.79 100.91 47.3 102.99 47.45 103.61 53.18 107.52 60.91 108.58 61.45"/><polygon class="cls-5" points="128.2 75.85 128.21 76.17 136.69 74.84 136.71 74.34 128.2 75.85"/><polygon class="cls-4" points="509.09 128.97 509.94 124.64 506.86 119.93 492.15 120.18 488.78 122.94 484.91 123.89 483.07 127.49 478.29 128.15 474.83 129.9 474.81 150.14 476.52 148.42 483.64 146.44 485.21 147.38 489.98 146.06 490 148.89 494.74 148.81 494.83 153.58 497.19 153.52 497.22 158.34 502.41 158.28 500.58 152.74 501.36 140.6 501.57 152.99 509.18 160.16 517.62 157.82 519.13 156.09 515.94 156.04 515.09 151.53 512.94 148.28 512.58 126.49 509.09 128.97"/><polygon class="cls-5" points="509.09 128.97 509.93 124.64 506.86 119.93 492.15 120.19 488.78 122.94 484.91 123.89 483.07 127.49 478.29 128.15 474.83 129.9 474.81 150.14 476.52 148.42 483.64 146.44 485.21 147.38 489.98 146.06 490 148.89 494.74 148.81 494.83 153.58 497.19 153.52 497.22 158.34 502.41 158.28 500.58 152.74 501.36 140.6 501.57 152.99 509.18 160.16 517.62 157.82 519.13 156.09 515.93 156.04 515.09 151.53 512.94 148.28 512.58 126.49 509.09 128.97"/><polygon class="cls-4" points="559.83 241.63 557.92 237.95 557.55 231.95 559.25 231.55 558.19 228.44 554.37 226.37 554.08 221.65 550.96 220.1 526.69 220.32 526.61 217.94 517.31 217.9 517.33 211.96 519.98 209.77 520.52 206.12 503.97 206.05 503.12 206.62 503.21 241.66 559.83 241.63"/><polygon class="cls-5" points="559.83 241.63 557.92 237.95 557.55 231.95 559.25 231.55 558.19 228.44 554.37 226.37 554.08 221.65 550.96 220.1 526.69 220.32 526.61 217.94 517.31 217.9 517.33 211.96 519.98 209.78 520.52 206.12 503.97 206.05 503.11 206.62 503.21 241.66 559.83 241.63"/><polygon class="cls-4" points="165.6 69.29 166.03 24.51 137.72 24.28 136.76 73.25 150.6 73.65 161.49 64.79 165.6 69.29"/><polygon class="cls-4" points="165.44 73.9 158.9 72.32 157.57 75.3 165.41 75.52 165.44 73.9"/><polygon class="cls-5" points="165.6 69.29 166.03 24.51 137.72 24.28 136.76 73.25 150.6 73.65 161.49 64.79 165.6 69.29"/><polygon class="cls-5" points="165.44 73.9 158.9 72.32 157.57 75.3 165.41 75.52 165.44 73.9"/><polygon class="cls-4" points="475.24 76.86 475.29 84.21 490.82 68.19 493.42 65.05 496.83 62.94 498.63 59.53 502.76 60.64 505.55 58.36 511.36 63.51 514.45 60.21 517.93 63.9 519.73 48.85 514.52 46.88 511.67 48.21 498.8 45.23 495.29 42.55 487.14 40.57 485.57 38.29 481.36 39.14 480.15 42.55 477.1 42.02 476.17 44.42 475.34 52.73 478.4 60.24 477.59 67.55 475.94 70.72 476.13 76.09 475.24 76.86"/><polygon class="cls-5" points="475.24 76.86 475.29 84.21 490.82 68.19 493.42 65.05 496.83 62.94 498.63 59.53 502.76 60.64 505.55 58.36 511.36 63.51 514.45 60.21 517.93 63.9 519.73 48.85 514.52 46.88 511.67 48.21 498.8 45.23 495.29 42.55 487.14 40.57 485.57 38.29 481.37 39.14 480.14 42.55 477.1 42.02 476.17 44.42 475.34 52.73 478.4 60.24 477.59 67.55 475.94 70.72 476.13 76.09 475.24 76.86"/><polygon class="cls-4" points="440.62 184.96 446.11 184.74 449.07 187.56 456.3 190.83 456.58 191.86 503.12 191.85 503.08 184.73 504.54 184.73 504.31 166.02 502.41 158.28 497.22 158.34 497.19 153.52 494.83 153.58 494.74 148.81 490 148.89 489.98 146.06 485.21 147.38 483.64 146.44 476.52 148.42 474.81 150.14 474.83 152.55 469.17 153.1 468.19 154.57 463.57 153.28 463.73 149.09 449.81 149.01 450.06 171.04 440.59 171.11 440.62 184.96"/><polygon class="cls-5" points="440.62 184.97 446.11 184.74 449.07 187.56 456.3 190.83 456.58 191.86 503.11 191.85 503.08 184.73 504.54 184.73 504.31 166.02 502.41 158.28 497.22 158.34 497.19 153.52 494.83 153.58 494.74 148.81 490 148.89 489.98 146.06 485.21 147.38 483.64 146.44 476.52 148.42 474.81 150.14 474.83 152.55 469.17 153.1 468.19 154.57 463.57 153.28 463.73 149.09 449.81 149.01 450.06 171.04 440.59 171.11 440.62 184.97"/><polygon class="cls-4" points="349.09 81.73 374.12 81.67 374.08 85.29 389.9 85.26 392.57 81.03 392.37 78.23 395.34 74.98 392.18 72.27 392.04 69.16 390.17 67.7 390.5 63.94 388.94 61.1 389.25 58.3 387.83 54.8 385.47 54.37 363.93 52.97 364.47 58.71 362.1 61.13 359.7 61.11 355.02 64.8 356.1 70.91 353.53 74.98 349.96 76.68 351.05 80.45 349.09 81.73"/><polygon class="cls-5" points="349.09 81.73 374.12 81.67 374.08 85.29 389.9 85.26 392.57 81.03 392.37 78.23 395.34 74.98 392.18 72.27 392.04 69.16 390.17 67.7 390.5 63.94 388.94 61.1 389.25 58.3 387.83 54.8 385.47 54.37 363.93 52.97 364.47 58.71 362.1 61.13 359.7 61.11 355.02 64.8 356.1 70.91 353.53 74.98 349.96 76.68 351.05 80.45 349.09 81.73"/><polygon class="cls-4" points="256.74 90.27 254.03 99.22 256.89 104.83 261.14 106.63 263.18 109.09 264.44 105.6 297.41 105.83 294.14 104.3 288.6 96.46 288.62 91.67 286.49 86.5 284.48 85.59 285.42 82 285.29 79.29 290.19 74.72 287.75 74.75 287.76 72.33 285.37 72.34 285.37 68.77 280.59 68.81 280.54 63.94 278.12 62.75 273.36 62.75 273.31 56.75 269.8 56.69 265.58 63.76 265 69.11 266.19 70.3 262.65 72.08 263.97 73.01 261.94 77.68 260.78 85.05 256.74 90.27"/><polygon class="cls-5" points="256.74 90.27 254.03 99.22 256.89 104.83 261.14 106.63 263.18 109.09 264.44 105.6 297.41 105.83 294.14 104.3 288.6 96.46 288.62 91.68 286.49 86.5 284.48 85.59 285.42 82 285.29 79.29 290.19 74.72 287.75 74.75 287.76 72.33 285.37 72.33 285.37 68.77 280.59 68.81 280.54 63.94 278.12 62.75 273.36 62.75 273.31 56.75 269.8 56.69 265.58 63.76 265 69.11 266.19 70.3 262.65 72.08 263.97 73.01 261.94 77.68 260.78 85.05 256.74 90.27"/><polygon class="cls-4" points="404.06 157.68 399.63 162.13 402.69 173.09 406.38 174.87 421.55 174.65 421.4 181.55 424.94 188.47 429.57 185.87 435.13 187.87 436.49 186.18 440.62 184.96 440.59 171.11 450.06 171.04 449.81 149.01 439.11 149.41 439.05 144.7 432.02 144.87 432.02 142.47 424.88 142.66 423.71 140.83 411.99 140.31 409.24 144.4 408.64 150.16 404.06 157.68"/><polygon class="cls-5" points="404.06 157.68 399.63 162.13 402.69 173.09 406.38 174.87 421.55 174.65 421.4 181.55 424.94 188.47 429.57 185.87 435.13 187.87 436.49 186.18 440.62 184.97 440.59 171.11 450.06 171.04 449.81 149.01 439.11 149.41 439.05 144.7 432.02 144.87 432.02 142.48 424.88 142.66 423.71 140.83 411.99 140.31 409.24 144.4 408.64 150.16 404.06 157.68"/><polygon class="cls-4" points="285.42 82 318.61 81.73 319.07 84.14 330.87 84.19 330.94 70.92 333.3 68.53 333.34 63.68 337.88 63.67 335.71 56.45 335.73 51.24 316.12 50.15 312.72 57.22 309.79 58.78 306.29 68.47 299.21 69.5 290.19 74.72 285.29 79.29 285.42 82"/><polygon class="cls-5" points="285.42 82 318.61 81.73 319.07 84.14 330.87 84.19 330.94 70.92 333.3 68.53 333.34 63.68 337.88 63.67 335.71 56.45 335.72 51.24 316.12 50.15 312.72 57.22 309.79 58.78 306.29 68.48 299.21 69.5 290.19 74.72 285.29 79.29 285.42 82"/><polygon class="cls-4" points="481.81 241.81 488.95 241.75 488.94 240.46 493.69 240.47 493.71 241.71 503.21 241.66 503.12 206.62 503.97 206.05 520.52 206.12 520.13 203.72 524.64 197.78 524.79 189.9 521.35 185.99 517.58 183.41 516.82 180.74 514.27 180.65 512.17 174.17 509.28 172.03 504.31 166.02 504.54 184.73 503.08 184.73 503.12 191.85 482.06 191.87 481.81 241.81"/><polygon class="cls-5" points="481.81 241.81 488.95 241.75 488.94 240.46 493.69 240.47 493.71 241.71 503.21 241.66 503.11 206.62 503.97 206.05 520.52 206.12 520.13 203.72 524.64 197.78 524.79 189.9 521.35 185.99 517.58 183.41 516.82 180.74 514.27 180.65 512.17 174.17 509.28 172.03 504.31 166.02 504.54 184.73 503.08 184.73 503.11 191.85 482.06 191.87 481.81 241.81"/><polygon class="cls-4" points="381.36 85.28 381.09 115.96 382.37 115.96 382.38 121.36 414.37 121.19 416.09 116.05 412.81 113.21 412.46 110.25 410.15 107.31 402.79 101.36 402.56 100.05 396.08 97.7 394.33 98.97 391.39 97.3 389.79 91.59 389.9 85.26 381.36 85.28"/><polygon class="cls-5" points="381.36 85.28 381.09 115.96 382.37 115.96 382.38 121.36 414.37 121.19 416.09 116.05 412.81 113.21 412.46 110.24 410.15 107.31 402.79 101.36 402.56 100.05 396.08 97.7 394.33 98.97 391.39 97.31 389.79 91.59 389.9 85.26 381.36 85.28"/><polygon class="cls-4" points="337.44 97.87 339.81 91.27 341.28 91.13 342.26 86.55 347.45 83.81 349.09 81.73 351.05 80.45 349.96 76.68 353.53 74.98 356.1 70.91 355.02 64.8 359.7 61.11 362.1 61.13 364.47 58.71 363.93 52.97 335.73 51.24 335.71 56.45 337.88 63.67 333.34 63.68 333.3 68.53 330.94 70.92 330.84 98.79 337.44 97.87"/><polygon class="cls-5" points="337.44 97.87 339.82 91.27 341.28 91.13 342.26 86.55 347.45 83.82 349.09 81.73 351.05 80.45 349.96 76.68 353.53 74.98 356.1 70.91 355.02 64.8 359.7 61.11 362.1 61.13 364.47 58.71 363.93 52.97 335.72 51.24 335.71 56.45 337.88 63.67 333.34 63.68 333.3 68.53 330.94 70.92 330.83 98.79 337.44 97.87"/><polygon class="cls-4" points="222.24 38.1 230.62 38.16 230.59 41.81 234.18 41.84 234.01 59.9 252.74 60.17 253.03 56.55 269.8 56.69 271.54 55.6 275.12 49.06 274.63 47.98 271.33 44.69 269.5 39.1 270.29 37 269.09 33.29 266.16 29.35 264.82 23.97 229.48 24.29 227.2 29.04 223.97 32.46 222.24 38.1"/><polygon class="cls-5" points="222.24 38.1 230.62 38.16 230.59 41.81 234.18 41.84 234.01 59.9 252.74 60.17 253.03 56.55 269.8 56.69 271.54 55.6 275.12 49.06 274.63 47.98 271.33 44.69 269.5 39.1 270.29 37 269.09 33.29 266.16 29.35 264.82 23.97 229.48 24.28 227.2 29.04 223.97 32.46 222.24 38.1"/><polygon class="cls-4" points="204.79 48.67 206.08 46.83 206.44 41.4 211.41 41.48 212.53 45.08 220.88 45.29 222.24 38.1 223.97 32.46 227.2 29.04 229.48 24.29 191.23 24.58 191.05 48.55 204.79 48.67"/><polygon class="cls-5" points="204.79 48.67 206.08 46.83 206.44 41.4 211.41 41.49 212.53 45.09 220.88 45.29 222.24 38.1 223.97 32.46 227.2 29.04 229.48 24.28 191.23 24.58 191.05 48.55 204.79 48.67"/><polygon class="cls-4" points="474.85 231.02 474.9 227.51 471.91 227.25 468.99 224 463.95 223.42 460.25 218.31 460.04 215.66 449 215.8 448.97 213.45 433.63 213.49 431.38 234.65 460.73 234.55 460.73 231.01 474.85 231.02"/><polygon class="cls-5" points="474.85 231.02 474.9 227.51 471.91 227.25 468.99 223.99 463.95 223.42 460.25 218.31 460.04 215.66 449 215.8 448.97 213.45 433.63 213.49 431.38 234.65 460.73 234.55 460.73 231.01 474.85 231.02"/><polygon class="cls-4" points="395.34 74.98 396.49 72.35 401.51 70.63 402.17 71.66 407.25 71.13 410.65 72.63 418.6 78.64 422.16 78.97 425.58 80.6 430.22 78.52 432.68 74.14 430.52 67.82 426.94 62.96 427.02 60.59 429.67 57.41 385.47 54.37 387.83 54.8 389.25 58.3 388.94 61.1 390.5 63.94 390.17 67.7 392.04 69.16 392.18 72.27 395.34 74.98"/><polygon class="cls-5" points="395.34 74.98 396.49 72.35 401.51 70.63 402.17 71.66 407.25 71.13 410.65 72.63 418.6 78.64 422.16 78.97 425.58 80.6 430.22 78.52 432.68 74.15 430.52 67.82 426.94 62.96 427.02 60.59 429.67 57.41 385.47 54.37 387.83 54.8 389.25 58.3 388.94 61.1 390.5 63.94 390.17 67.7 392.04 69.16 392.18 72.27 395.34 74.98"/><polygon class="cls-4" points="237.31 112.98 243.44 122.56 242.66 132.55 249.44 131.91 250.3 130.47 257.2 125.09 262.13 124.88 263.53 122.57 261.49 113.52 263.72 110.77 263.18 109.09 261.14 106.63 256.89 104.83 254.03 99.22 256.74 90.27 237.21 90.19 237.31 112.98"/><polygon class="cls-5" points="237.31 112.98 243.44 122.56 242.66 132.55 249.44 131.91 250.3 130.47 257.2 125.09 262.13 124.88 263.53 122.57 261.49 113.52 263.72 110.77 263.18 109.09 261.14 106.63 256.89 104.83 254.03 99.22 256.74 90.27 237.21 90.19 237.31 112.98"/><polygon class="cls-4" points="411.99 140.31 423.71 140.83 424.88 142.66 432.02 142.47 431.86 120.71 428.95 120.16 425.11 116.49 423.89 112.64 421.77 112.31 417.21 114.13 416.09 116.05 414.37 121.19 413.18 121.2 411.11 126.93 410.59 136.4 409.54 138.89 411.99 140.31"/><polygon class="cls-5" points="411.99 140.31 423.71 140.83 424.88 142.66 432.02 142.48 431.86 120.71 428.95 120.16 425.11 116.49 423.89 112.64 421.77 112.31 417.21 114.13 416.09 116.05 414.37 121.19 413.18 121.2 411.11 126.93 410.59 136.4 409.54 138.89 411.99 140.31"/><polygon class="cls-4" points="269.8 56.69 273.31 56.75 273.36 62.75 278.12 62.75 280.54 63.94 280.59 68.81 285.37 68.77 285.37 72.34 287.76 72.33 287.75 74.75 290.19 74.72 299.21 69.5 306.29 68.47 309.79 58.78 312.72 57.22 316.12 50.15 274.63 47.98 275.12 49.06 271.54 55.6 269.8 56.69"/><polygon class="cls-5" points="269.8 56.69 273.31 56.75 273.36 62.75 278.12 62.75 280.54 63.94 280.59 68.81 285.37 68.77 285.37 72.33 287.76 72.33 287.75 74.75 290.19 74.72 299.21 69.5 306.29 68.48 309.79 58.78 312.72 57.22 316.12 50.15 274.63 47.98 275.12 49.06 271.54 55.6 269.8 56.69"/><polygon class="cls-4" points="304.99 108.6 302.54 106.58 299.62 107.64 297.41 105.83 264.44 105.6 263.18 109.09 263.72 110.77 261.49 113.52 263.53 122.57 262.13 124.88 257.2 125.09 250.3 130.47 249.44 131.91 266.51 129.32 270.87 124.53 271.94 128.49 282.49 124.12 297.97 114.19 303.79 112.6 311.14 114.97 312.25 111.33 304.99 108.6"/><polygon class="cls-4" points="256.83 132.29 250.61 132.83 254.9 136.91 256.83 132.29"/><polygon class="cls-5" points="304.99 108.6 302.54 106.58 299.62 107.64 297.41 105.83 264.44 105.6 263.18 109.09 263.72 110.77 261.49 113.52 263.53 122.57 262.13 124.88 257.2 125.09 250.3 130.47 249.44 131.91 266.51 129.32 270.87 124.53 271.94 128.49 282.49 124.12 297.97 114.19 303.79 112.6 311.14 114.97 312.25 111.33 304.99 108.6"/><polygon class="cls-5" points="256.83 132.29 250.61 132.83 254.9 136.91 256.83 132.29"/><polygon class="cls-4" points="512.74 137.75 512.94 148.28 515.09 151.53 515.94 156.04 520.08 155.99 520.32 167.31 539.36 166.92 538.95 155.07 542.8 153.75 534.88 133.79 531.51 133.93 526.96 137.49 512.74 137.75"/><polygon class="cls-5" points="512.74 137.75 512.94 148.28 515.09 151.53 515.93 156.04 520.08 155.99 520.32 167.31 539.36 166.92 538.95 155.07 542.8 153.75 534.88 133.79 531.51 133.93 526.96 137.49 512.74 137.75"/><polygon class="cls-4" points="90.51 64.41 97.86 71.8 92.29 73.55 92.94 78.11 88.74 80.83 103.42 78.38 102.35 75.98 109.75 71.8 110.99 64.25 108.58 61.45 107.52 60.91 103.61 53.18 102.99 47.45 100.91 47.3 100.17 41.79 101.59 39.7 100.12 36.53 102.19 33.33 102.01 30.29 104.25 29.71 105.88 26.7 110.87 24.1 79.78 24.23 80.48 27.05 77.21 35.17 79.67 38.93 83.63 42.44 84.67 45.5 93.45 50.99 94.37 53.76 93.33 58.56 90.51 64.41"/><polygon class="cls-5" points="90.51 64.41 97.86 71.8 92.29 73.55 92.94 78.11 88.74 80.83 103.42 78.38 102.35 75.98 109.75 71.8 110.99 64.25 108.58 61.45 107.52 60.91 103.61 53.18 102.99 47.45 100.91 47.3 100.18 41.79 101.59 39.7 100.12 36.53 102.19 33.34 102.01 30.29 104.25 29.71 105.88 26.7 110.87 24.1 79.78 24.24 80.48 27.05 77.21 35.17 79.67 38.93 83.63 42.44 84.67 45.5 93.45 50.99 94.37 53.76 93.33 58.56 90.51 64.41"/><polygon class="cls-4" points="518.88 74.11 521.17 71.06 517.93 63.9 514.45 60.21 511.36 63.51 505.55 58.36 502.76 60.64 498.63 59.53 496.83 62.94 493.42 65.05 490.82 68.19 475.29 84.21 475.27 91.34 500.8 90.99 502.89 87.13 499.69 83.11 505.2 80.47 504.77 74.19 512.13 72.29 516.28 74.21 506.41 74.59 506.41 80.41 502.73 83.87 505.66 87.64 503.11 95.9 507.18 95.99 511.64 96.87 511.67 98.2 519.15 98.01 518.92 85.95 522.99 85.9 522.15 73.98 518.88 74.11"/><polygon class="cls-5" points="518.88 74.11 521.17 71.06 517.93 63.9 514.45 60.21 511.36 63.51 505.55 58.36 502.76 60.64 498.63 59.53 496.83 62.94 493.42 65.05 490.82 68.19 475.29 84.21 475.27 91.34 500.8 90.99 502.89 87.13 499.69 83.11 505.2 80.47 504.77 74.2 512.13 72.29 516.28 74.21 506.41 74.59 506.41 80.41 502.73 83.87 505.66 87.64 503.11 95.9 507.18 95.99 511.64 96.87 511.67 98.2 519.15 98.01 518.92 85.95 522.99 85.9 522.15 73.98 518.88 74.11"/><polygon class="cls-4" points="404.06 157.68 408.64 150.16 409.24 144.4 411.99 140.31 409.54 138.89 410.59 136.4 411.11 126.93 413.18 121.2 384.8 121.33 384.76 124.94 382.9 127.82 381.66 133.97 380.12 133.91 378.74 144.34 388.2 153.48 392.22 154.66 395.89 163.45 404.06 157.68"/><polygon class="cls-5" points="404.06 157.68 408.64 150.16 409.24 144.4 411.99 140.31 409.54 138.89 410.59 136.4 411.11 126.93 413.18 121.2 384.8 121.33 384.76 124.94 382.9 127.82 381.66 133.97 380.12 133.91 378.74 144.34 388.2 153.48 392.23 154.66 395.89 163.45 404.06 157.68"/><polygon class="cls-4" points="421.77 112.31 423.89 112.64 425.11 116.49 428.95 120.16 431.86 120.71 436.97 117.62 437.74 113.89 441.04 111.6 437.74 107.43 440.69 104.44 440.62 102.23 443.26 99.41 446.18 98.26 446.02 58.52 429.67 57.41 427.02 60.59 426.94 62.96 430.52 67.82 432.68 74.14 430.22 78.52 425.58 80.6 422.16 78.97 422.21 107.88 424.46 109.64 421.77 112.31"/><polygon class="cls-5" points="421.77 112.31 423.89 112.64 425.11 116.49 428.95 120.16 431.86 120.71 436.97 117.62 437.74 113.89 441.04 111.6 437.74 107.43 440.69 104.44 440.62 102.23 443.26 99.41 446.18 98.26 446.02 58.52 429.67 57.41 427.02 60.59 426.94 62.96 430.52 67.82 432.68 74.15 430.22 78.52 425.58 80.6 422.16 78.97 422.21 107.88 424.47 109.64 421.77 112.31"/><polygon class="cls-4" points="475.27 94.96 475.29 129.86 478.29 128.15 483.07 127.49 484.91 123.89 488.78 122.94 492.15 120.18 506.86 119.93 506.45 109.75 500.74 106.08 500.8 90.99 475.27 91.34 475.27 94.96"/><polygon class="cls-5" points="475.27 94.95 475.29 129.86 478.29 128.15 483.07 127.49 484.91 123.89 488.78 122.94 492.15 120.19 506.86 119.93 506.45 109.75 500.74 106.08 500.8 90.99 475.27 91.34 475.27 94.95"/><polygon class="cls-4" points="424.94 188.47 429.63 196.27 433.74 198.43 432.2 202.4 433.63 213.49 448.97 213.45 449 215.8 460.04 215.66 461.04 211.59 466.62 205.7 465.78 203.13 459.32 197.02 456.3 190.83 449.07 187.56 446.11 184.74 440.62 184.96 436.49 186.18 435.13 187.87 429.57 185.87 424.94 188.47"/><polygon class="cls-5" points="424.94 188.47 429.63 196.27 433.74 198.43 432.2 202.4 433.63 213.49 448.97 213.45 449 215.8 460.04 215.66 461.04 211.59 466.62 205.7 465.78 203.13 459.32 197.02 456.3 190.83 449.07 187.56 446.11 184.74 440.62 184.97 436.49 186.18 435.13 187.87 429.57 185.87 424.94 188.47"/><polygon class="cls-4" points="256.74 90.27 260.78 85.05 261.94 77.68 263.97 73.01 262.65 72.08 266.19 70.3 265 69.11 265.58 63.76 269.8 56.69 253.03 56.55 252.74 60.17 237.61 59.95 237.21 90.19 256.74 90.27"/><polygon class="cls-5" points="256.74 90.27 260.78 85.05 261.94 77.68 263.97 73.01 262.65 72.08 266.19 70.3 265 69.11 265.58 63.76 269.8 56.69 253.03 56.55 252.74 60.17 237.61 59.95 237.21 90.19 256.74 90.27"/><polygon class="cls-4" points="448.95 113.07 450.46 116.11 454.85 116.71 458.71 119.53 461.51 118.87 469.31 120.23 471.02 124.57 473.14 125.15 474.83 129.9 475.29 129.86 475.27 94.96 468.62 94.96 468.34 97.64 462.66 103.96 460.28 104.4 456.92 110.33 448.95 113.07"/><polygon class="cls-5" points="448.95 113.07 450.46 116.11 454.85 116.71 458.71 119.53 461.51 118.87 469.31 120.23 471.02 124.57 473.14 125.15 474.83 129.9 475.29 129.86 475.27 94.95 468.62 94.95 468.34 97.64 462.66 103.96 460.28 104.4 456.92 110.33 448.95 113.07"/><polygon class="cls-4" points="194 84.55 211.84 95 212 88.89 204.28 83.44 210.61 82.02 213.35 87.01 218.64 83.83 212.75 91.5 229.77 99.28 230.51 103.93 237.12 103.71 237.61 59.95 230.33 59.9 230.22 70.72 204.17 70.4 201.99 72.91 196.19 72.87 194.25 74.64 194 84.55"/><polygon class="cls-4" points="237.11 104.64 231.73 105.47 220.87 96.57 216.08 96.95 237.31 112.98 237.11 104.64"/><polygon class="cls-5" points="194 84.55 211.84 95.01 212 88.89 204.28 83.44 210.61 82.02 213.35 87.01 218.64 83.83 212.75 91.5 229.77 99.28 230.51 103.93 237.12 103.71 237.61 59.95 230.33 59.9 230.22 70.72 204.17 70.4 201.99 72.91 196.19 72.87 194.25 74.64 194 84.55"/><polygon class="cls-5" points="237.11 104.64 231.73 105.47 220.87 96.57 216.08 96.95 237.31 112.98 237.11 104.64"/><polygon class="cls-4" points="446.12 95.51 475.27 94.96 475.24 76.86 471.3 76.33 467.01 77.24 463.77 71.65 464.45 66.71 461.67 62.35 463.49 59.82 446.02 58.52 446.12 95.51"/><polygon class="cls-5" points="446.12 95.51 475.27 94.95 475.24 76.86 471.3 76.33 467.01 77.24 463.77 71.65 464.45 66.71 461.67 62.35 463.49 59.82 446.02 58.52 446.12 95.51"/><polygon class="cls-4" points="432.02 142.47 432.02 144.87 439.05 144.7 439.11 149.41 449.81 149.01 463.73 149.09 463.57 153.28 468.19 154.57 469.17 153.1 474.83 152.55 474.83 129.9 473.14 125.15 471.02 124.57 469.31 120.23 461.51 118.87 458.71 119.53 454.85 116.71 450.46 116.11 448.95 113.07 441.04 111.6 437.74 113.89 436.97 117.62 431.86 120.71 432.02 142.47"/><polygon class="cls-5" points="432.02 142.48 432.02 144.87 439.05 144.7 439.11 149.41 449.81 149.01 463.73 149.09 463.57 153.28 468.19 154.57 469.17 153.1 474.83 152.55 474.83 129.9 473.14 125.15 471.02 124.57 469.31 120.23 461.51 118.87 458.71 119.53 454.85 116.71 450.46 116.11 448.95 113.07 441.04 111.6 437.74 113.89 436.97 117.62 431.86 120.71 432.02 142.48"/><path class="cls-6" d="M100.34,180.13h4.76l8.15,14.71,2.68,5.56h.16c-.2-2.68-.6-6-.6-8.92V180.13h4.44v26.15h-4.76L107,191.56,104.34,186h-.16c.2,2.75.6,5.91.6,8.83v11.44h-4.44Z"/><path class="cls-6" d="M124.9,196.48c0-6.56,4.44-10.31,9.31-10.31s9.36,3.75,9.36,10.31-4.44,10.28-9.36,10.28S124.9,203,124.9,196.48Zm13.95,0c0-4-1.76-6.56-4.64-6.56s-4.59,2.6-4.59,6.56,1.72,6.52,4.59,6.52S138.85,200.4,138.85,196.48Z"/><path class="cls-6" d="M148.14,186.65h3.8l.32,3.47h.16c1.39-2.56,3.47-4,5.55-4a5.15,5.15,0,0,1,2.24.39l-.8,4a6.42,6.42,0,0,0-2-.32c-1.56,0-3.43,1.08-4.64,4v12h-4.59Z"/><path class="cls-6" d="M163.74,199.64v-9.36h-2.8v-3.43l3-.2.56-5.36h3.83v5.36h5v3.63h-5v9.36c0,2.32.88,3.44,2.76,3.44a5.63,5.63,0,0,0,2-.44l.8,3.4a12.54,12.54,0,0,1-4,.72C165.42,206.76,163.74,203.88,163.74,199.64Z"/><path class="cls-6" d="M177.5,178.05h4.59v7.28l-.16,3.79a9,9,0,0,1,6.28-3c4.2,0,6,2.83,6,7.79v12.32h-4.6V194.56c0-3.24-.92-4.44-3.08-4.44-1.72,0-2.84.84-4.48,2.44v13.72H177.5Z"/><path class="cls-6" d="M208.22,180.13H224v3.92H212.86v7.39h9.51v3.92h-9.51v10.92h-4.64Z"/><path class="cls-6" d="M228.22,201.24V178.05h4.59v23.43c0,1.12.52,1.52,1,1.52a2.76,2.76,0,0,0,.72-.08l.6,3.44a6.28,6.28,0,0,1-2.44.4C229.41,206.76,228.22,204.64,228.22,201.24Z"/><path class="cls-6" d="M237.77,196.48c0-6.56,4.44-10.31,9.32-10.31s9.36,3.75,9.36,10.31-4.44,10.28-9.36,10.28S237.77,203,237.77,196.48Zm14,0c0-4-1.76-6.56-4.64-6.56s-4.6,2.6-4.6,6.56,1.72,6.52,4.6,6.52S251.73,200.4,251.73,196.48Z"/><path class="cls-6" d="M261,186.65h3.79l.32,3.47h.16c1.4-2.56,3.48-4,5.56-4a5.15,5.15,0,0,1,2.24.39l-.8,4a6.42,6.42,0,0,0-2-.32c-1.56,0-3.44,1.08-4.64,4v12H261Z"/><path class="cls-6" d="M275.41,180.61a2.85,2.85,0,1,1,2.84,2.6A2.64,2.64,0,0,1,275.41,180.61Zm.52,6h4.6v19.63h-4.6Z"/><path class="cls-6" d="M285.21,196.48c0-6.4,4-10.31,8.32-10.31a7.24,7.24,0,0,1,5.16,2.15l-.16-3.15v-7.12h4.6v28.23h-3.8l-.32-2.12h-.16a8.18,8.18,0,0,1-5.56,2.6C288.37,206.76,285.21,203,285.21,196.48Zm13.32,4.28V191.6a5.86,5.86,0,0,0-4-1.64c-2.52,0-4.56,2.36-4.56,6.48s1.6,6.52,4.44,6.52A5.3,5.3,0,0,0,298.53,200.76Z"/><path class="cls-6" d="M307.93,201c0-4.2,3.48-6.4,11.56-7.28-.08-2.08-.92-3.84-3.6-3.84a11.19,11.19,0,0,0-5.52,1.92l-1.68-3.08a15.36,15.36,0,0,1,8.08-2.55c4.88,0,7.32,3,7.32,8.47v11.64h-3.8l-.32-2.16h-.16a9.56,9.56,0,0,1-6.08,2.64A5.49,5.49,0,0,1,307.93,201Zm11.56,0v-4.4c-5.36.68-7.12,2.08-7.12,4,0,1.76,1.2,2.52,2.84,2.52S318,202.36,319.49,201Z"/><path class="cls-6" d="M178.68,219.38h4.2c4.8,0,7.64,2.6,7.64,7.78s-2.84,7.92-7.49,7.92h-4.35Zm4,13.45c3.17,0,5-1.8,5-5.67s-1.8-5.52-5-5.52h-1.22v11.19Z"/><path class="cls-6" d="M193.13,219.67a1.71,1.71,0,1,1,1.71,1.56A1.59,1.59,0,0,1,193.13,219.67Zm.31,3.63h2.76v11.78h-2.76Z"/><path class="cls-6" d="M198.56,233.74l1.29-1.78a5.25,5.25,0,0,0,3.27,1.32c1.27,0,1.87-.6,1.87-1.41,0-1-1.27-1.42-2.52-1.9-1.56-.58-3.32-1.46-3.32-3.43s1.66-3.53,4.3-3.53a6.38,6.38,0,0,1,3.91,1.41l-1.27,1.69a4.3,4.3,0,0,0-2.59-1c-1.18,0-1.73.55-1.73,1.29,0,.94,1.18,1.3,2.45,1.76,1.61.6,3.38,1.36,3.38,3.57,0,2-1.6,3.65-4.58,3.65A7.48,7.48,0,0,1,198.56,233.74Z"/><path class="cls-6" d="M210,231.1v-5.62h-1.68v-2.06l1.83-.12.33-3.22h2.31v3.22h3v2.18h-3v5.62c0,1.39.53,2.06,1.65,2.06a3.51,3.51,0,0,0,1.23-.26l.48,2a7.74,7.74,0,0,1-2.4.43C211,235.37,210,233.64,210,231.1Z"/><path class="cls-6" d="M218.26,223.3h2.28l.19,2.08h.1a4,4,0,0,1,3.33-2.37,3,3,0,0,1,1.35.24l-.48,2.4a3.87,3.87,0,0,0-1.23-.19c-.93,0-2.06.65-2.78,2.42v7.2h-2.76Z"/><path class="cls-6" d="M226.9,219.67a1.71,1.71,0,1,1,1.7,1.56A1.58,1.58,0,0,1,226.9,219.67Zm.31,3.63H230v11.78h-2.76Z"/><path class="cls-6" d="M232.73,229.2a5.82,5.82,0,0,1,5.91-6.19,5.08,5.08,0,0,1,3.45,1.32l-1.34,1.8a2.91,2.91,0,0,0-2-.86c-1.9,0-3.22,1.56-3.22,3.93s1.3,3.91,3.15,3.91a3.92,3.92,0,0,0,2.42-1l1.13,1.82a5.88,5.88,0,0,1-3.84,1.44C235.2,235.37,232.73,233.11,232.73,229.2Z"/><path class="cls-6" d="M244.75,231.1v-5.62h-1.68v-2.06l1.83-.12.33-3.22h2.31v3.22h3v2.18h-3v5.62c0,1.39.53,2.06,1.65,2.06a3.51,3.51,0,0,0,1.23-.26l.48,2a7.69,7.69,0,0,1-2.4.43C245.76,235.37,244.75,233.64,244.75,231.1Z"/><path class="cls-7" d="M647.12,354.61l1.22-1.42a4.72,4.72,0,0,0,3.07,1.33c1.33,0,2.05-.59,2.05-1.51s-.76-1.28-1.82-1.73l-1.62-.7a3.41,3.41,0,0,1-2.38-3.14c0-1.87,1.66-3.31,4-3.31a5.2,5.2,0,0,1,3.62,1.5L654.16,347a3.85,3.85,0,0,0-2.56-1c-1.11,0-1.85.52-1.85,1.39s.9,1.26,1.87,1.65l1.6.67a3.29,3.29,0,0,1,2.38,3.19c0,1.9-1.58,3.49-4.23,3.49A6.09,6.09,0,0,1,647.12,354.61Z"/><path class="cls-7" d="M657,351.71c0-2.95,2-4.64,4.2-4.64s4.21,1.69,4.21,4.64-2,4.63-4.21,4.63S657,354.65,657,351.71Zm6.29,0c0-1.78-.79-2.95-2.09-2.95s-2.07,1.17-2.07,2.95.77,2.94,2.07,2.94S663.27,353.48,663.27,351.71Z"/><path class="cls-7" d="M667.35,352.83v-5.55h2.07v5.28c0,1.46.42,2,1.37,2,.78,0,1.3-.36,2-1.23v-6.05h2.07v8.84h-1.69l-.16-1.29h-.05a3.64,3.64,0,0,1-2.85,1.51C668.18,356.34,667.35,355.06,667.35,352.83Z"/><path class="cls-7" d="M677.76,353.13v-4.21H676.5v-1.55l1.36-.09.26-2.41h1.73v2.41h2.25v1.64h-2.25v4.21c0,1.05.39,1.55,1.24,1.55a2.57,2.57,0,0,0,.92-.2l.36,1.53a5.45,5.45,0,0,1-1.8.33C678.51,356.34,677.76,355,677.76,353.13Z"/><path class="cls-7" d="M684,343.41H686v3.28L686,348.4a4.06,4.06,0,0,1,2.82-1.33c1.89,0,2.72,1.27,2.72,3.51v5.54h-2.07v-5.27c0-1.46-.41-2-1.38-2a2.8,2.8,0,0,0-2,1.1v6.17H684Z"/><path class="cls-7" d="M697.77,344.35h7.11v1.76h-5v3.33h4.29v1.77h-4.29v4.91h-2.09Z"/><path class="cls-7" d="M706.77,353.85V343.41h2.07V354c0,.51.24.69.45.69a1.19,1.19,0,0,0,.33,0l.27,1.55a2.85,2.85,0,0,1-1.1.18C707.31,356.34,706.77,355.38,706.77,353.85Z"/><path class="cls-7" d="M711.07,351.71c0-2.95,2-4.64,4.2-4.64s4.21,1.69,4.21,4.64-2,4.63-4.21,4.63S711.07,354.65,711.07,351.71Zm6.29,0c0-1.78-.8-2.95-2.09-2.95s-2.07,1.17-2.07,2.95.77,2.94,2.07,2.94S717.36,353.48,717.36,351.71Z"/><path class="cls-7" d="M721.53,347.28h1.71l.15,1.57h.07a3,3,0,0,1,2.5-1.78,2.2,2.2,0,0,1,1,.18l-.36,1.8a2.91,2.91,0,0,0-.92-.15c-.7,0-1.55.49-2.09,1.82v5.4h-2.07Z"/><path class="cls-7" d="M728,344.56a1.29,1.29,0,1,1,1.28,1.17A1.19,1.19,0,0,1,728,344.56Zm.24,2.72h2.07v8.84h-2.07Z"/><path class="cls-7" d="M732.42,351.71c0-2.88,1.82-4.64,3.75-4.64a3.24,3.24,0,0,1,2.32,1l-.07-1.42v-3.21h2.07v12.71h-1.71l-.15-.95h-.07a3.68,3.68,0,0,1-2.5,1.17C733.84,356.34,732.42,354.63,732.42,351.71Zm6,1.93v-4.13a2.63,2.63,0,0,0-1.8-.73c-1.14,0-2.06,1.06-2.06,2.91s.72,2.94,2,2.94A2.41,2.41,0,0,0,738.42,353.64Z"/><path class="cls-7" d="M742.65,353.75c0-1.89,1.56-2.89,5.2-3.28,0-.94-.41-1.73-1.62-1.73a5.14,5.14,0,0,0-2.49.86l-.75-1.38a6.91,6.91,0,0,1,3.63-1.15c2.2,0,3.3,1.35,3.3,3.81v5.24h-1.71l-.15-1H748a4.27,4.27,0,0,1-2.73,1.19A2.47,2.47,0,0,1,742.65,353.75Zm5.2,0v-2c-2.41.31-3.21.94-3.21,1.82s.54,1.14,1.28,1.14A2.83,2.83,0,0,0,747.85,353.75Z"/><path class="cls-7" d="M672.29,366h3.15c3.6,0,5.73,1.94,5.73,5.83s-2.13,5.94-5.62,5.94h-3.26Zm3,10.08c2.38,0,3.73-1.35,3.73-4.25s-1.35-4.14-3.73-4.14h-.92V376Z"/><path class="cls-7" d="M683.13,366.16a1.29,1.29,0,1,1,1.28,1.17A1.19,1.19,0,0,1,683.13,366.16Zm.23,2.72h2.07v8.84h-2.07Z"/><path class="cls-7" d="M687.2,376.71l1-1.33a3.94,3.94,0,0,0,2.45,1c1,0,1.4-.45,1.4-1.06s-.95-1.06-1.89-1.42c-1.17-.44-2.48-1.1-2.48-2.58s1.24-2.64,3.22-2.64a4.76,4.76,0,0,1,2.93,1.06l-.95,1.26a3.28,3.28,0,0,0-1.94-.76c-.89,0-1.3.42-1.3,1,0,.71.88,1,1.84,1.32,1.2.45,2.53,1,2.53,2.68s-1.2,2.74-3.43,2.74A5.54,5.54,0,0,1,687.2,376.71Z"/><path class="cls-7" d="M695.78,374.73v-4.21h-1.26V369l1.37-.09.25-2.41h1.73v2.41h2.25v1.64h-2.25v4.21c0,1,.4,1.55,1.24,1.55a2.48,2.48,0,0,0,.92-.2l.36,1.53a5.4,5.4,0,0,1-1.8.33C696.54,377.94,695.78,376.64,695.78,374.73Z"/><path class="cls-7" d="M702,368.88h1.71l.14,1.57h.07a3,3,0,0,1,2.5-1.78,2.33,2.33,0,0,1,1,.17l-.36,1.81a2.86,2.86,0,0,0-.92-.15c-.7,0-1.54.49-2.08,1.82v5.4H702Z"/><path class="cls-7" d="M708.45,366.16a1.29,1.29,0,1,1,1.28,1.17A1.19,1.19,0,0,1,708.45,366.16Zm.24,2.72h2.07v8.84h-2.07Z"/><path class="cls-7" d="M712.83,373.31a4.36,4.36,0,0,1,4.43-4.64,3.8,3.8,0,0,1,2.59,1l-1,1.35a2.14,2.14,0,0,0-1.47-.65c-1.43,0-2.42,1.17-2.42,2.95s1,2.94,2.36,2.94a3,3,0,0,0,1.82-.76l.85,1.37a4.43,4.43,0,0,1-2.88,1.08C714.68,377.94,712.83,376.25,712.83,373.31Z"/><path class="cls-7" d="M721.85,374.73v-4.21h-1.26V369l1.36-.09.26-2.41h1.73v2.41h2.25v1.64h-2.25v4.21c0,1,.39,1.55,1.24,1.55a2.57,2.57,0,0,0,.92-.2l.36,1.53a5.45,5.45,0,0,1-1.8.33C722.6,377.94,721.85,376.64,721.85,374.73Z"/></g><g id="Outline"><polyline class="cls-8" points="424.94 188.47 429.57 185.87 435.13 187.87 436.49 186.18 440.62 184.97 446.11 184.74 449.07 187.56 456.3 190.83 456.58 191.86 503.11 191.85 503.08 184.73 504.54 184.73 504.31 166.02 509.28 172.03 512.17 174.17 514.27 180.65 516.82 180.74 517.58 183.41 521.35 185.99 524.79 189.9 524.64 197.78 523.91 198.46 524.54 201.02 527.22 202.1 533.95 202.26 537.12 206.19 540.23 205.61 542.52 202.59 544.63 203.34 546.2 206.34 545.71 208.95 548.88 213.68 549.33 216.81 549.53 218.18 550.96 220.1 552.6 220.1"/></g><g id="Bullseye_Location_s_" data-name="Bullseye/Location(s)"><circle class="cls-9" cx="508.84" cy="88.96" r="29.28"/><circle class="cls-10" cx="508.84" cy="88.96" r="9.02"/><circle class="cls-10" cx="523.69" cy="225.83" r="9.02"/></g></svg>