<?xml version="1.0" encoding="utf-8"?>
<!-- Generator: Adobe Illustrator 25.4.1, SVG Export Plug-In . SVG Version: 6.00 Build 0)  -->
<svg version="1.1" id="Layer_1" xmlns="http://www.w3.org/2000/svg" xmlns:xlink="http://www.w3.org/1999/xlink" x="0px" y="0px"
	 viewBox="0 0 784.1 507.9" style="enable-background:new 0 0 784.1 507.9;" xml:space="preserve">
<style type="text/css">
	.st0{fill:#E6E6E6;}
	.st1{opacity:0.8;fill:#A5A5A5;enable-background:new    ;}
	.st2{opacity:0.8;}
	.st3{fill:#A5A5A5;}
	.st4{fill:#007DBC;}
	.st5{fill:none;stroke:#0675AF;stroke-width:0.67;stroke-linejoin:bevel;}
	.st6{fill:none;stroke:#868788;stroke-width:0.67;stroke-linejoin:bevel;}
	.st7{fill:#007DBC;stroke:#868788;stroke-miterlimit:10;}
	.st8{opacity:0.8;fill:#007DBC;enable-background:new    ;}
	.st9{fill:#FFFFFF;}
	.st10{fill:none;stroke:#0675AF;stroke-width:4;stroke-linejoin:bevel;}
	.st11{fill:none;stroke:#FFFFFF;stroke-width:3;stroke-miterlimit:10;}
	.st12{opacity:0.8;fill:#868788;enable-background:new    ;}
	.st13{fill:none;stroke:#868788;stroke-width:4;stroke-linejoin:bevel;}
</style>
<g id="Background">
	<rect x="-11.2" y="-11.4" class="st0" width="804.9" height="530"/>
</g>
<g id="Metro_NY">
	<polygon class="st1" points="543.2,406.8 544.6,414.2 551.3,420.3 552,432 548.6,447.6 557.5,450.8 565.6,444.6 567.7,439.8 
		568,438 562.5,429 581,417.8 575.8,409.5 576.3,402.3 	"/>
	<polygon class="st1" points="482.8,336.4 507.5,350.8 498.3,364 512,374.2 514,379.6 521.9,375.4 522.8,378.2 532.3,380.5 
		531.7,377.1 537.8,380.7 545.4,379.7 546.3,363.1 545.5,361.4 546.4,351.3 544.7,348.2 546.9,336.5 547.2,330.1 548.6,325.1 
		541.7,320.1 538.6,320.7 536.2,328.3 518.6,326.5 507.7,320.9 	"/>
	<polygon class="st1" points="455.1,353.3 460.5,358.5 458.4,359.8 462.1,363.4 462.8,376.9 460.9,378.5 467.1,388 467.6,390.9 
		470.6,390.5 474.4,393.2 474,394.9 480.4,394.6 482,396.7 484.7,396.4 484.9,389.5 505.9,388.4 510.2,381.8 514,379.6 512,374.2 
		498.3,364 507.5,350.8 482.8,336.4 	"/>
	<polygon class="st1" points="582.4,453.3 583.3,457.2 585.4,473 595.8,470.7 600.5,467.3 604.8,469.3 616.2,464.2 627.5,465.2 
		645,459.7 660.5,453.5 696,436.6 704.1,432 698,431.3 686,438.8 680.7,435.4 675.2,434.3 669,428.1 670.4,424.9 645.5,440.9 
		634.6,442.6 609,442.1 600.9,448.4 587.9,445.3 574.7,447.6 	"/>
	<polygon class="st1" points="524.1,424.8 549.2,439.4 548.9,424.9 544.9,419.7 542.7,407 	"/>
	<polygon class="st1" points="535.4,474.3 530.2,475.5 527.8,474.7 527,475.6 526.5,476.1 526.4,478.5 527,479 525.9,483.1 
		525.2,483.7 524.4,483.6 523.7,484.3 523.1,489 523.7,489.3 525.4,488.8 526.1,487.9 527.1,488.1 527.9,487.2 530,486.2 
		531.8,484.5 532.2,484.9 531.7,485.6 531.3,485.6 531.5,486.2 536.1,481.4 537.8,479.2 537.8,478.6 536.4,476.7 536.5,474.9 	"/>
	<polygon class="st1" points="552.6,473.9 553.3,474.7 555.3,474.2 558.3,476.1 557,477.7 557.7,478.4 558.4,477.8 558.1,477.2 
		558.5,476.4 559.2,476.8 561.2,475.4 561.6,474.4 562.7,473.8 562.3,467 564,466.4 564.5,465.4 564.4,463.9 560.7,460.9 
		560.4,462.6 560.1,462.4 559,460.6 559.2,460.3 558.8,459.5 557.5,460.3 557.4,459.7 555.5,459.1 554.8,459.5 554.6,460.3 
		554.2,460.2 554.1,459.5 553,459.7 552.5,460.6 553.2,460.9 553.6,462.9 553.1,463.2 552.5,462.9 552.2,462.5 552.6,461.9 
		551.5,461.1 551.6,460.6 550.2,461.8 549.8,460.7 548.7,460.1 547.2,461.6 546.8,461.4 546.6,461.7 546.8,462.2 544.8,464.9 
		544.7,465.4 545.4,465.2 547.2,466.4 547.8,468.3 549.1,469.6 549.7,470.9 551.8,469.6 552,471 552.6,472 552.8,472.8 552.2,473.3 
			"/>
	<polygon class="st1" points="560.4,478.1 559,477.8 559.3,478.2 559.2,479.3 558.6,478.2 557.8,479.4 556.8,479.3 555.4,480.5 
		553.2,480.9 551.1,482.3 547.6,482.9 546.5,483.6 546.4,484.8 555.9,480.8 561.7,479.7 561.1,478 	"/>
	<polygon class="st1" points="559.5,477.1 559.2,477.6 559.5,477.6 	"/>
	<polygon class="st1" points="557.1,478.2 556.7,478.7 557.4,478.6 	"/>
	<polygon class="st1" points="557.1,476.6 556.5,477 556.7,477.6 	"/>
	<polygon class="st1" points="556.2,479.3 556.2,478.8 555.8,478.9 	"/>
	<polygon class="st1" points="554.4,477.7 555.5,478.1 555.1,479.3 554.5,479.4 554.6,479.7 555.4,479.7 555.9,478.3 555.7,476.8 
		555.2,475.5 554.6,475.3 	"/>
	<polygon class="st1" points="554.7,478.3 554.5,478.2 554.6,478.6 	"/>
	<polygon class="st1" points="554,479.5 553.7,479.9 554.5,480.2 	"/>
	<polygon class="st1" points="543.2,406.8 576.3,402.3 577.4,386.1 546.9,390 543.2,395 545.8,399.6 	"/>
	<polygon class="st1" points="489.3,403.2 524.1,424.8 543.3,406.5 545.8,399.6 543.2,395 541.8,393.2 542.1,386.5 545.4,379.7 
		537.8,380.7 531.7,377.1 532.3,380.5 522.8,378.2 521.9,375.4 510.2,381.8 505.9,388.4 484.9,389.5 484.7,396.4 	"/>
	<polygon class="st1" points="548.8,452 548.6,451.2 548.3,451.6 	"/>
	<polygon class="st1" points="547.4,451.5 545.9,454.1 545.6,455.8 541.3,463.8 540.4,468.6 541,469.2 542,468.3 543.6,468 
		544.1,464.6 547.2,459.5 546.8,458.2 546.8,455.7 548.6,452.3 548.5,451.9 547.9,451.9 	"/>
	<polygon class="st1" points="548.2,459.4 547.5,459 546.8,460.9 547.6,460.9 548.3,460 	"/>
	<polygon class="st1" points="546.1,462.5 546.2,462 544.8,464.1 	"/>
	<polygon class="st1" points="540.6,469.8 539.9,470.5 540.1,470.8 540.9,470.2 	"/>
	<polygon class="st1" points="559.5,477.1 559.5,477.6 560.4,478.1 561.1,478 561.7,479 561.7,479.7 560.8,479.8 560.5,480.7 
		574,481.5 585.4,473 583.3,457.2 582.4,453.3 574.7,447.6 562.3,452.5 561,461.1 564.4,463.9 564.5,465.4 564,466.4 562.3,467 
		562.7,473.8 561.4,474.5 561.2,475.4 	"/>
	<polygon class="st1" points="554.5,476.9 554.3,477.2 554.4,477.7 	"/>
	<polygon class="st1" points="553.2,476.5 552.7,477.2 553.3,476.9 	"/>
	<polygon class="st1" points="552.5,478.9 552.2,479 552.4,479.5 553.1,479.4 	"/>
	<polygon class="st1" points="545.4,465.2 544.7,465.8 544.2,468.7 543.8,469.1 543.3,468.6 542.3,468.7 541.1,470.8 540.4,471.2 
		540.5,471.7 541.9,472.7 540.5,473.2 540.8,473.4 539.8,474.7 539.1,475 538.7,476.2 539.1,478.2 541.5,479.4 541.9,480 
		541.8,480.8 542.6,480.7 542.4,481.2 541.5,481 540.9,481.3 541.7,482 547,481.6 546.9,481 545.8,480.8 548.4,481 548.4,480.5 
		547.2,480.4 548.3,480.3 547.5,479.2 547.8,479 548.5,479.6 548.6,480.5 549.4,480.3 549.8,481.5 551,481.1 551.2,480.7 
		550.6,478.6 549.5,478.8 550.2,478.1 549.7,477 551.2,475.3 551.7,475.3 551.5,474.7 551.9,475.2 552.6,474.8 552.2,473.3 
		552.8,472.8 551.8,469.6 549.7,470.9 549.1,469.6 547.8,468.3 547.2,466.4 	"/>
	<polygon class="st1" points="548,479.2 547.8,479.4 548.3,480 	"/>
	<polygon class="st1" points="577.4,386.1 580.7,333.1 578.1,333 577.6,340.4 563.7,337.5 548.8,330 547.2,330.1 546.9,336.5 
		544.7,348.2 546.4,351.3 545.5,361.4 546.3,363.1 545.4,379.7 542.1,386.5 541.8,393.2 543.2,395 546.9,390 	"/>
	<polygon class="st1" points="559.4,453.8 559.1,453.2 559.3,454.4 	"/>
	<polygon class="st1" points="557.8,453.4 557.6,454.5 558.2,455.5 558.4,454.5 	"/>
	<polygon class="st1" points="548.2,459.4 549.7,458.5 551.5,459.1 551.8,458.5 551.7,457.8 553.2,458.7 553.8,457.3 554.2,458.6 
		554.6,458.7 554.8,458.1 555.8,457.8 557.7,458.8 556.8,458.2 557.1,457.5 556.5,456.7 556,456.8 555.7,454 556,453.3 555.4,452.3 
		555.6,452.2 555.9,452.8 556.6,453 556.9,454.2 557.5,452.6 558.1,452.2 558.2,451.3 557.7,451.1 556.8,452.6 557.5,450.8 
		548.6,447.6 547.7,451.3 548.3,451.6 548.6,451.2 548.9,451.8 546.9,456 547,458.3 	"/>
	<polygon class="st1" points="550.4,459.4 550,459.8 550.2,460.4 551.5,460.6 551.6,460.2 	"/>
</g>
<g id="Upstate_NY" class="st2">
	<polygon class="st3" points="569.5,241.5 583.4,241.2 584.8,239.8 588.8,241.3 596.8,241.3 598.8,180.8 598,176.7 595,175.2 
		594.6,170.4 589.4,170.5 587.4,176.4 585.1,174.7 585.2,169.5 586.9,163.8 591,155.3 588.8,151.2 584.4,151.8 581.8,155.1 
		582.5,159.6 580.1,167.4 576.7,170.4 573.6,175.8 571.7,176.5 569.7,182.2 572.5,203.7 572.3,210.1 573.7,213.7 572.8,221 
		574.1,225.1 572.3,234.7 569.7,238.6 	"/>
	<polygon class="st3" points="572.5,203.7 569.7,182.2 571.7,176.5 573.6,175.8 576.7,170.4 580.1,167.4 582.5,159.6 581.8,155.1 
		584.4,151.8 525.6,159.6 529.7,196.9 550.6,194.1 552.5,201.2 555,203.8 554.3,209.1 556.7,209.5 559.3,212.4 561.5,208 
		568.9,203.9 	"/>
	<polygon class="st3" points="337.8,282.2 338.6,299.8 338.2,309.1 354.6,309.4 354.6,311.2 359,311.3 359.1,305.6 363.9,305.6 
		371.6,307.8 372.2,301 367.9,298.8 368.3,296.6 371.3,296.5 370.4,274.3 355.8,274.8 355.8,273.9 340.1,274.3 343.7,280.1 
		346.1,281.9 	"/>
	<polygon class="st3" points="348.3,338.1 382.5,338.2 381.7,319.2 383.9,319.1 384.4,314.6 382,305.6 380.6,296.2 368.3,296.6 
		367.9,298.8 372.2,301 371.6,307.8 363.9,305.6 359.1,305.6 359,311.3 354.6,311.2 354.6,309.4 349.8,309.4 349.9,322.3 
		347.9,322.2 349.5,332.8 	"/>
	<polygon class="st3" points="258.1,338.2 317.4,338 317.5,309.7 307.3,310.3 306.7,286.4 303.5,287 303.9,279.1 264.9,278.7 
		264.8,283.4 260.3,283.4 	"/>
	<polygon class="st3" points="401.8,87.8 402.6,89.5 461.4,125.8 501.4,120.7 500.6,113.3 502.1,113.2 493.3,30.1 487.3,30 
		487.2,25.2 484.3,25.6 479.3,23.3 474.7,25 473.1,26.8 468.3,26.8 461.3,32.6 456,34.1 453.7,36.4 444.6,41.2 438.2,48.2 428,56.5 
		419.4,65.6 408.1,76.7 405.1,81.3 404,85.5 	"/>
	<polygon class="st3" points="317.5,309.7 317.5,308.8 335,308.1 335,312.8 341.9,314.3 343.6,312.7 343.6,309.2 338.2,309.1 
		338.6,299.8 337.8,282.2 322.7,282.7 323.2,290.8 315.7,290.8 315.6,288.5 306.7,288.6 307.3,310.3 	"/>
	<polygon class="st3" points="488,285.2 495,294.8 508.3,301.9 513.2,299.9 515.7,301.8 520.9,301 523.3,299.6 522.6,296.4 
		521.8,295.2 524.6,287.6 523.6,281.8 529,269.9 529.4,264.7 528.2,263.3 527.9,265.1 521.2,265 518.8,261.6 522.3,260.5 
		521.9,256.5 520,257.8 507.4,258.9 499.3,254.8 492.8,253.1 491.3,261.2 494.1,274 	"/>
	<polygon class="st3" points="521.9,256.5 522.3,260.5 518.8,261.6 521.2,265 527.9,265.1 528.2,263.3 556.3,258.7 556.3,258.3 
		555.3,258.2 549.7,250.9 549.1,244.6 545.2,246.1 541.4,242.3 534.8,240 535.5,246.1 522.5,254.9 	"/>
	<polygon class="st3" points="529.7,196.9 534.8,240 541.4,242.3 545.2,246.1 549.1,244.6 549.7,250.9 555.3,258.2 556.3,258.3 
		559.3,257.5 562.5,253.8 565.2,258.6 566.3,257.9 567.6,254.2 565.7,246.6 569.5,241.5 569.7,238.6 572.3,234.7 574.1,225.1 
		572.8,221 573.7,213.7 572.3,210.1 572.5,203.7 568.9,203.9 561.5,208 559.3,212.4 556.7,209.5 554.3,209.1 555,203.8 552.5,201.2 
		550.6,194.1 	"/>
	<polygon class="st3" points="558.2,290.7 590.8,286 597.5,261.7 595.5,255.9 596.4,252.7 596.8,241.3 588.8,241.3 584.8,239.8 
		583.4,241.2 569.5,241.5 565.7,246.6 567.6,254.2 566.3,257.9 564.4,266.4 561,272 559.9,275.6 560.1,283.5 558.2,288 	"/>
	<polygon class="st3" points="434.8,306 443.1,305.2 446.6,300.6 451.2,301.5 459.1,295.1 464.7,294.3 464.8,291.7 467.4,292.8 
		468.9,289.5 471,289.9 478,285.7 483.5,286.5 488,285.2 494.1,274 491.3,261.2 492.8,253.1 475.4,246 474.3,252.7 473.2,253.5 
		458.5,244.9 455.6,249.9 450.2,250.3 450.1,247.9 447.4,248.8 448,252.6 447.1,257.8 443.8,261.9 443.7,264.5 441.1,270.4 
		441.7,274.4 441.1,280.1 438.3,281.6 435.6,289.1 437.8,296.2 435.4,299.4 436.3,302 	"/>
	<polygon class="st3" points="343.8,192 344.7,209.2 354.1,208.9 354.2,211.9 367.1,211.5 369.2,214.6 370.9,210.8 373.5,214.2 
		375.2,212.4 374.5,207.6 377.7,209.9 391,216.5 395.6,217.1 399.3,219.3 400.9,202.4 399.1,201.7 404.5,185.2 409,186.6 
		407.6,163.8 388.6,161.9 388.8,165.9 376.6,164.8 373,180.2 359,181.3 	"/>
	<polygon class="st3" points="354.2,211.9 354.7,224.7 352.7,225.3 353.3,234.9 355.5,234.8 356.4,251.4 363.5,251 367.4,254.8 
		369.7,259.1 398.4,257 396.8,226.6 393.4,226.6 392.3,224.8 394.2,221.8 391,216.5 377.7,209.9 374.5,207.6 375.2,212.4 
		373.5,214.2 370.9,210.8 369.2,214.6 367.1,211.5 	"/>
	<polygon class="st3" points="399.3,219.3 406.1,218.9 407.4,217.5 412.7,219.8 412.6,221.1 417.4,224.6 417.6,227.1 420.8,229.2 
		421,231.8 424.3,231.6 425,242.5 432.6,242.4 433.1,249.6 447.4,248.8 450.9,247.8 449.6,230 454.1,223.4 460.9,211.9 454,208.9 
		455,203.8 460.4,201.1 457.8,171.5 425.8,191.9 404.5,185.2 399.1,201.7 400.9,202.4 	"/>
	<polygon class="st3" points="492.8,253.1 499.3,254.8 507.4,258.9 520,257.8 521.9,256.5 522.5,254.9 535.5,246.1 534.5,237.2 
		500.8,237 484.4,230.6 485.8,235.6 484.1,249.6 	"/>
	<polygon class="st3" points="398.4,257 398.8,264 433.7,261.8 433.8,262.5 443.8,261.9 447.1,257.8 448,252.6 447.4,248.8 
		433.1,249.6 432.6,242.4 425,242.5 424.3,231.6 421,231.8 420.8,229.2 417.6,227.1 417.4,224.6 412.6,221.1 412.7,219.8 
		407.4,217.5 406.1,218.9 399.3,219.3 395.6,217.1 391,216.5 394.2,221.8 392.3,224.8 393.4,226.6 396.8,226.6 	"/>
	<polygon class="st3" points="409,186.6 425.8,191.9 457.8,171.5 453.3,120.9 432.4,108.2 424.9,120.3 429.5,123.3 428.1,125.7 
		428.2,130.1 424.5,130.3 425.1,134.5 420.5,134.1 408.8,143.9 402.6,143.3 401.8,153 406.6,153.4 	"/>
	<polygon class="st3" points="375.5,164.7 388.8,165.9 388.6,161.9 407.6,163.8 406.6,153.4 401.8,153 402.6,143.3 408.8,143.9 
		420.5,134.1 425.1,134.5 424.5,130.3 428.2,130.1 428.1,125.7 429.5,123.3 424.9,120.3 432.4,108.2 402.6,89.5 401.8,87.8 
		397.1,92.3 392.8,95 388.6,95.4 391.4,100.4 383.7,106.6 378.1,108.2 362.8,119.6 363.2,123.7 371.2,134.6 375.3,128.7 369.2,130 
		371.9,124.3 379.8,123.7 377.7,135.4 386.7,130.6 380,137.3 380.9,141.9 368,146.2 373,151.4 	"/>
	<polygon class="st3" points="484.1,249.6 485.8,235.6 484.4,230.6 483.7,223.6 486.6,222.7 486.2,220.5 489.2,217.4 487.9,205.8 
		476.2,200.2 483.2,184.9 477.2,123.8 461.4,125.8 453.3,120.9 460.4,201.1 455,203.8 454,208.9 460.9,211.9 454.1,223.4 449.6,230 
		450.9,247.8 450.1,247.9 450.2,250.3 455.6,249.9 458.5,244.9 473.2,253.5 474.3,252.7 475.4,246 	"/>
	<polygon class="st3" points="477.2,123.8 483.2,184.9 476.2,200.2 501.4,211.8 517.2,210.4 517.5,213.2 525.1,212.5 524.9,209.7 
		531.2,209.1 525.6,159.6 537.5,157.9 538.3,152.5 534.1,151.6 530.2,149 525.7,151 516.4,139 522.5,134.3 520.5,118.4 	"/>
	<polygon class="st3" points="507.7,320.9 518.6,326.5 536.2,328.3 538.6,320.7 541.7,320.1 548.6,325.1 550,321.1 552.8,318.6 
		553.4,314.6 557.8,310.8 558.5,307.2 557.4,299.8 558.8,294.2 558.2,290.7 522.6,296.4 523.3,299.6 520.9,301 515.7,301.8 
		513.2,299.9 508.3,301.9 509.5,302.5 501.2,317.6 	"/>
	<polygon class="st3" points="534.5,237.2 531.2,209.1 524.9,209.7 525.1,212.5 517.5,213.2 517.2,210.4 501.4,211.8 487.9,205.8 
		489.2,217.4 486.2,220.5 486.6,222.7 483.7,223.6 484.4,230.6 500.8,237 	"/>
	<polygon class="st3" points="487.2,25.2 487.3,30 493.3,30.1 502.1,113.2 500.6,113.3 501.4,120.7 534.8,116.6 531.2,88.1 
		548.7,85.8 546.9,70.2 546,70.3 544.4,56.1 542.9,56.2 541.3,42.5 541.2,35.6 539.8,25.5 530.5,26 516.5,25.9 491.6,25.1 
		491.2,24.5 	"/>
	<polygon class="st3" points="537.5,157.9 588.8,151.2 588.1,148.9 589.2,144.3 586.6,138 586.5,128.3 584.4,126.4 588,111 
		590,109.2 593.8,103.3 592.3,91.8 595.3,84.9 594.3,78.3 591.9,73.3 582.4,74.3 582.8,76.1 580,79.8 575.5,80.2 574.8,81.6 
		566.5,84.7 564.5,84.1 531.2,88.1 534.8,116.6 520.5,118.4 522.5,134.3 516.4,139 525.7,151 530.2,149 534.1,151.6 538.3,152.5 	
		"/>
	<polygon class="st3" points="439,338.2 442.7,343.3 444,342.7 446.7,352.1 450.7,351.4 455.1,353.3 507.7,320.9 501.2,317.6 
		509.5,302.5 495,294.8 488,285.2 483.5,286.5 478,285.7 471,289.9 468.9,289.5 467.4,292.8 464.8,291.7 464.7,294.3 459.1,295.1 
		451.2,301.5 446.6,300.6 443.1,305.2 434.8,306 434.2,333.8 435.7,337 	"/>
	<polygon class="st3" points="369.7,259.1 371.3,296.5 388.8,296.3 400.8,295.6 398.4,257 	"/>
	<polygon class="st3" points="579.9,333 579.1,329.3 590.8,286 558.2,290.7 558.8,294.2 557.4,299.8 558.5,307.2 557.8,310.8 
		553.4,314.6 552.8,318.6 550,321.1 547.2,330.1 548.8,330 563.7,337.5 577.6,340.4 578.1,333 	"/>
	<polygon class="st3" points="539.8,25.5 541.2,35.6 541.3,42.5 542.9,56.2 544.4,56.1 546,70.3 546.9,70.2 548.7,85.8 564.5,84.1 
		566.5,84.7 574.8,81.6 575.5,80.2 580,79.8 582.8,76.1 582.4,74.3 591.9,73.3 590.2,71.6 588,65.9 589.5,60.9 590,52.2 592.2,46 
		588.8,42.3 590.6,35.2 591.9,33.6 591.6,23.9 	"/>
	<polygon class="st3" points="400.8,295.6 402.3,311.6 404.2,312.7 417.9,312.7 418,318.2 434.5,318.2 434.8,306 436.3,302 
		435.4,299.4 437.8,296.2 435.6,289.1 438.3,281.6 441.1,280.1 441.7,274.4 441.1,270.4 443.7,264.5 443.8,261.9 433.8,262.5 
		433.7,261.8 398.8,264 	"/>
	<polygon class="st3" points="320.3,337.9 348.3,338.1 349.5,332.8 347.9,322.2 349.9,322.3 349.8,309.4 343.6,309.2 343.6,312.7 
		341.9,314.3 335,312.8 335,308.1 317.5,308.8 317.4,338 	"/>
	<polygon class="st3" points="336.5,233 334.8,238.5 334.7,245.6 336,253.5 334.5,257.2 335,263.6 338.6,269.5 340.1,274.3 
		355.8,273.9 355.8,274.8 370.4,274.3 369.7,259.1 367.4,254.8 363.5,251 356.4,251.4 355.5,234.8 353.3,234.9 352.7,225.3 
		354.7,224.7 354.1,208.9 344.7,209.2 343.8,192 336.2,202.7 335.8,199.8 337.4,227.2 	"/>
	<polygon class="st3" points="380.6,296.2 382,305.6 384.4,314.6 383.9,319.1 381.7,319.2 382.5,338.2 439,338.2 435.7,337 
		434.2,333.8 434.5,318.2 418,318.2 417.9,312.7 404.2,312.7 402.3,311.6 400.8,295.6 388.8,296.3 	"/>
	<polygon class="st3" points="558.2,290.7 558.2,288 560.1,283.5 559.9,275.6 561,272 564.4,266.4 566.3,257.9 565.2,258.6 
		562.5,253.8 559.3,257.5 556.3,258.3 556.3,258.7 528.2,263.3 529.4,264.7 529,269.9 523.6,281.8 524.6,287.6 521.8,295.2 
		522.6,296.4 	"/>
</g>
<g id="Buffalo" class="st2">
	<polygon class="st4" points="287.1,279.1 303.9,279.1 303.5,287 306.7,286.4 306.7,288.6 315.6,288.5 315.7,290.8 323.2,290.8 
		322.7,282.7 322.7,270.9 319.7,264.8 318.8,259.8 291.1,260.1 289.3,263.1 287,269.7 	"/>
	<polygon class="st4" points="204,249.2 202.3,249.1 202.2,258.1 204.1,258.1 204,285 236.2,284.8 234.6,283.6 236.9,276.4 
		239.4,275.1 242.4,269.7 242.6,249.7 233.5,249.6 233.5,248.9 	"/>
	<polygon class="st4" points="286.7,231.9 304.7,231.3 304.7,234.2 317.6,234.1 336.5,233 337.4,227.2 335.8,199.8 319.2,207 
		303.7,205.4 286.5,206.8 	"/>
	<polygon class="st4" points="316.9,259.8 318.8,259.8 319.7,264.8 322.7,270.9 322.7,282.7 346.1,281.9 343.7,280.1 340.1,274.3 
		338.6,269.5 335,263.6 334.5,257.2 336,253.5 334.7,245.6 334.8,238.5 336.5,233 317.6,234.1 317.6,248.6 316.5,249 	"/>
	<polygon class="st4" points="203.9,222.1 239.4,221.7 239.5,197.6 231.4,196.5 203.9,196.9 204.3,213.1 	"/>
	<polygon class="st4" points="277.7,279 287.1,279.1 287,269.7 289.3,263.1 291.1,260.1 316.9,259.8 316.5,249 317.6,248.6 
		317.6,234.1 304.7,234.2 304.7,231.3 278.1,231.9 278.3,241.3 270.9,241.2 272.4,243.5 273.4,249.4 270.3,250.6 270.3,259.9 
		268.5,259.9 269.5,269.3 278,269.5 	"/>
	<polygon class="st4" points="158.6,208.6 160.2,221 158.1,222.9 157.7,227.1 162.9,228.7 167.2,228.4 171.3,230.9 171.8,233.2 
		175.6,233.4 176.2,230.3 178.4,228.6 182.8,228.2 183.6,226.7 190.2,227 190.6,225.4 194.8,227.9 195.6,226.3 204,226.3 
		204.3,213.1 203.9,196.9 190.8,198.4 	"/>
	<polygon class="st4" points="246,236.7 259.5,236.7 259.4,241.1 257.4,241.6 278.3,241.3 278.1,231.9 286.7,231.9 286.5,206.8 
		271.1,210.2 257.7,200.5 239.5,197.6 239.4,221.7 246.3,221.6 242.9,231.4 246.4,231.6 	"/>
	<polygon class="st4" points="260.1,290 260.3,283.4 264.8,283.4 264.9,278.7 277.7,279 278,269.5 269.5,269.3 268.5,259.9 
		270.3,259.9 270.3,250.6 273.4,249.4 272.4,243.5 270.9,241.2 257.4,241.6 259.4,241.1 259.5,236.7 246,236.7 245.9,241.1 
		244.1,241.1 244.1,245.2 242.5,245.2 242.4,269.7 239.4,275.1 236.9,276.4 234.6,283.6 236.2,284.8 251.2,285.2 251.2,289.6 	"/>
	<polygon class="st4" points="203.9,222.1 204,249.2 233.5,248.9 233.5,249.6 242.6,249.7 242.5,245.2 244.1,245.2 244.1,241.1 
		245.9,241.1 246.4,231.6 242.9,231.4 246.3,221.6 	"/>
	<polygon class="st4" points="158.9,283.1 164.1,283.9 166.7,289.8 171.3,293.1 180.1,291.6 183.3,289 186.7,289.9 195,285.5 
		196.6,286 204,283.3 204.1,258.1 202.2,258.1 202.3,249.1 204,249.2 204,226.3 195.6,226.3 194.8,227.9 190.6,225.4 190.2,227 
		183.6,226.7 182.8,228.2 178.4,228.6 176.2,230.3 175.6,233.4 171.8,233.2 171.3,230.9 167.2,228.4 162.9,228.7 161.8,234 
		162.6,237 169.6,240.9 174.5,257.8 169.6,262.7 159.9,267.3 153.2,279.9 155.3,279.8 	"/>
	<polygon class="st4" points="105.8,310.6 105.8,338.2 158.8,338.2 158.9,283.1 155.3,279.8 153.2,279.9 144.9,283.6 132.6,291.9 
		129.1,296.1 	"/>
	<polygon class="st4" points="158.8,338.2 215.8,338.2 215.8,284.8 204,285 204,283.3 196.6,286 195,285.5 186.7,289.9 183.3,289 
		180.1,291.6 171.3,293.1 166.7,289.8 164.1,283.9 158.9,283.1 	"/>
	<polygon class="st4" points="215.8,338.2 258.1,338.2 259.5,296.9 260.1,290 251.2,289.6 251.2,285.2 215.8,284.8 	"/>
</g>
<g id="Buffalo_Outline">
	<polygon class="st5" points="559.5,477.1 559.2,477.6 559.5,477.6 	"/>
	<polygon class="st5" points="554.4,477.7 555.5,478.1 555.1,479.3 554.5,479.4 554.6,479.7 555.4,479.7 555.9,478.3 555.7,476.8 
		555.2,475.5 554.6,475.3 	"/>
	<polygon class="st5" points="554.7,478.3 554.5,478.2 554.6,478.6 	"/>
	<polygon class="st5" points="554,479.5 553.7,479.9 554.5,480.2 	"/>
	<polygon class="st5" points="548.8,452 548.6,451.2 548.3,451.6 	"/>
	<polygon class="st5" points="548.2,459.4 547.5,459 546.8,460.9 547.6,460.9 548.3,460 	"/>
	<polygon class="st5" points="546.1,462.5 546.2,462 544.8,464.1 	"/>
	<polygon class="st5" points="540.6,469.8 539.9,470.5 540.1,470.8 540.9,470.2 	"/>
	<polygon class="st5" points="554.5,476.9 554.3,477.2 554.4,477.7 	"/>
	<polygon class="st5" points="553.7,477.8 553.3,478.5 553.5,478.8 554.1,478.1 	"/>
	<polygon class="st5" points="551.4,477.6 552,477 552,476.3 551,477.1 551,477.5 	"/>
	<polygon class="st5" points="548,479.2 547.8,479.4 548.3,480 	"/>
	<polygon class="st5" points="559.4,453.8 559.1,453.2 559.3,454.4 	"/>
	<polygon class="st5" points="557.8,453.4 557.6,454.5 558.2,455.5 558.4,454.5 	"/>
	<polygon class="st5" points="550.4,459.4 550,459.8 550.2,460.4 551.5,460.6 551.6,460.2 	"/>
	<polygon class="st5" points="287.1,279.1 303.9,279.1 303.5,287 306.7,286.4 306.7,288.6 315.6,288.5 315.7,290.8 323.2,290.8 
		322.7,282.7 322.8,270.9 319.7,264.8 318.8,259.8 291.1,260.1 289.3,263.1 287,269.7 	"/>
	<polygon class="st5" points="204,249.2 202.3,249.1 202.2,258.1 204.1,258.1 204,285 236.2,284.8 234.6,283.6 236.9,276.4 
		239.4,275.1 242.4,269.7 242.6,249.7 233.5,249.6 233.5,248.9 	"/>
	<polygon class="st5" points="286.7,231.9 304.7,231.3 304.7,234.2 317.6,234.1 336.5,233 337.4,227.2 335.8,199.8 319.2,207 
		303.7,205.4 286.5,206.8 	"/>
	<polygon class="st5" points="316.9,259.8 318.8,259.8 319.7,264.8 322.8,270.9 322.7,282.7 346.1,281.9 343.7,280.1 340.1,274.3 
		338.6,269.5 335,263.6 334.5,257.2 336,253.5 334.7,245.6 334.8,238.5 336.5,233 317.6,234.1 317.6,248.6 316.5,249 	"/>
	<polygon class="st5" points="203.9,222.1 239.4,221.7 239.5,197.6 231.4,196.5 203.9,196.9 204.3,213.1 	"/>
	<polygon class="st5" points="277.7,279 287.1,279.1 287,269.7 289.3,263.1 291.1,260.1 316.9,259.8 316.5,249 317.6,248.6 
		317.6,234.1 304.7,234.2 304.7,231.3 278.1,231.9 278.3,241.3 270.9,241.2 272.4,243.5 273.4,249.4 270.3,250.6 270.3,259.9 
		268.5,259.9 269.5,269.3 278,269.5 	"/>
	<polygon class="st5" points="158.6,208.6 160.2,221 158.1,222.9 157.7,227.1 162.9,228.7 167.2,228.4 171.3,230.9 171.8,233.2 
		175.6,233.4 176.2,230.3 178.4,228.6 182.8,228.2 183.6,226.8 190.2,227 190.6,225.4 194.8,227.9 195.6,226.3 204,226.3 
		204.3,213.1 203.9,196.9 190.8,198.4 	"/>
	<polygon class="st5" points="246,236.7 259.5,236.7 259.4,241.1 257.4,241.6 278.3,241.3 278.1,231.9 286.7,231.9 286.5,206.8 
		271.1,210.2 257.7,200.5 239.5,197.6 239.4,221.7 246.3,221.6 242.9,231.4 246.4,231.6 	"/>
	<polygon class="st5" points="260.1,290 260.3,283.4 264.8,283.4 264.9,278.8 277.7,279 278,269.5 269.5,269.3 268.5,259.9 
		270.3,259.9 270.3,250.6 273.4,249.4 272.4,243.5 270.9,241.2 257.4,241.6 259.4,241.1 259.5,236.7 246,236.7 245.9,241.1 
		244.1,241.1 244.1,245.2 242.5,245.2 242.4,269.7 239.4,275.1 236.9,276.4 234.6,283.6 236.2,284.8 251.2,285.2 251.2,289.6 	"/>
	<polygon class="st5" points="203.9,222.1 204,249.2 233.5,248.9 233.5,249.6 242.6,249.7 242.5,245.2 244.1,245.2 244.1,241.1 
		245.9,241.1 246.4,231.6 242.9,231.4 246.3,221.6 	"/>
	<polygon class="st5" points="158.9,283.1 164.1,283.9 166.7,289.8 171.3,293.1 180.1,291.6 183.3,289 186.8,289.9 195,285.5 
		196.6,286 204,283.3 204.1,258.1 202.2,258.1 202.3,249.1 204,249.2 204,226.3 195.6,226.3 194.8,227.9 190.6,225.4 190.2,227 
		183.6,226.8 182.8,228.2 178.4,228.6 176.2,230.3 175.6,233.4 171.8,233.2 171.3,230.9 167.2,228.4 162.9,228.7 161.8,234 
		162.6,237 169.6,240.9 174.5,257.8 169.6,262.7 159.9,267.3 153.2,279.9 155.3,279.8 	"/>
	<polygon class="st5" points="105.8,310.6 105.8,338.2 158.8,338.2 158.9,283.1 155.3,279.8 153.2,279.9 144.9,283.6 132.6,291.9 
		129.1,296.1 	"/>
	<polygon class="st5" points="158.8,338.2 215.8,338.2 215.8,284.8 204,285 204,283.3 196.6,286 195,285.5 186.8,289.9 183.3,289 
		180.1,291.6 171.3,293.1 166.7,289.8 164.1,283.9 158.9,283.1 	"/>
	<polygon class="st5" points="215.8,338.2 258.1,338.2 259.5,296.9 260.1,290 251.2,289.6 251.2,285.2 215.8,284.8 	"/>
</g>
<g id="Upstate_Outline">
	<polygon class="st6" points="569.5,241.5 583.4,241.2 584.8,239.8 588.8,241.3 596.8,241.3 598.8,180.8 598,176.7 595,175.2 
		594.6,170.4 589.4,170.5 587.4,176.4 585.1,174.7 585.2,169.5 586.9,163.8 591,155.3 588.8,151.2 584.4,151.8 581.8,155.1 
		582.5,159.6 580.1,167.4 576.7,170.4 573.6,175.8 571.7,176.5 569.7,182.2 572.5,203.7 572.3,210.1 573.7,213.7 572.8,221 
		574.1,225.1 572.3,234.7 569.7,238.6 	"/>
	<polygon class="st6" points="572.5,203.7 569.7,182.2 571.7,176.5 573.6,175.8 576.7,170.4 580.1,167.4 582.5,159.6 581.8,155.1 
		584.4,151.8 525.6,159.6 529.7,196.9 550.6,194.1 552.5,201.2 555,203.8 554.3,209.1 556.7,209.5 559.3,212.4 561.5,208 
		568.9,203.9 	"/>
	<polygon class="st6" points="337.8,282.2 338.6,299.8 338.2,309.1 354.6,309.4 354.6,311.2 359,311.3 359.1,305.6 363.9,305.6 
		371.6,307.8 372.2,301 367.9,298.8 368.3,296.6 371.3,296.5 370.4,274.3 355.8,274.8 355.8,273.9 340.1,274.3 343.7,280.1 
		346.1,281.9 	"/>
	<polygon class="st6" points="348.3,338.1 382.5,338.2 381.7,319.2 383.9,319.1 384.4,314.6 382,305.6 380.6,296.2 368.3,296.6 
		367.9,298.8 372.2,301 371.6,307.8 363.9,305.6 359.1,305.6 359,311.3 354.6,311.2 354.6,309.4 349.8,309.4 349.9,322.3 
		347.9,322.2 349.5,332.8 	"/>
	<polygon class="st6" points="258.1,338.2 317.4,338 317.5,309.7 307.3,310.3 306.7,286.4 303.5,287 303.9,279.1 264.9,278.8 
		264.8,283.4 260.3,283.4 	"/>
	<polygon class="st6" points="401.8,87.8 402.6,89.5 461.4,125.8 501.4,120.7 500.6,113.3 502.1,113.2 493.3,30.1 487.3,30 
		487.2,25.2 484.3,25.6 479.3,23.3 474.7,25 473.1,26.8 468.3,26.8 461.3,32.6 456,34.1 453.7,36.4 444.6,41.2 438.2,48.2 428,56.5 
		419.4,65.6 408.1,76.7 405.1,81.3 404,85.5 	"/>
	<polygon class="st6" points="488,285.2 495,294.8 508.3,301.9 513.2,299.9 515.7,301.8 520.9,301 523.3,299.6 522.6,296.4 
		521.8,295.2 524.6,287.6 523.6,281.8 529,269.9 529.4,264.7 528.2,263.3 527.9,265.1 521.2,265 518.8,261.6 522.3,260.5 
		521.9,256.5 520,257.8 507.4,258.9 499.3,254.8 492.8,253.1 491.3,261.2 494.1,274 	"/>
	<polygon class="st6" points="521.9,256.5 522.3,260.5 518.8,261.6 521.2,265 527.9,265.1 528.2,263.3 556.3,258.7 556.3,258.3 
		555.3,258.2 549.7,250.9 549.1,244.6 545.2,246.1 541.4,242.3 534.8,240 535.5,246.1 522.5,254.9 	"/>
	<polygon class="st6" points="529.7,196.9 534.8,240 541.4,242.3 545.2,246.1 549.1,244.6 549.7,250.9 555.3,258.2 556.3,258.3 
		559.3,257.5 562.5,253.8 565.2,258.6 566.3,257.9 567.6,254.2 565.7,246.6 569.5,241.5 569.7,238.6 572.3,234.7 574.1,225.1 
		572.8,221 573.7,213.7 572.3,210.1 572.5,203.7 568.9,203.9 561.5,208 559.3,212.4 556.7,209.5 554.3,209.1 555,203.8 552.5,201.2 
		550.6,194.1 	"/>
	<polygon class="st6" points="558.2,290.7 590.8,286 597.5,261.7 595.5,255.9 596.4,252.7 596.8,241.3 588.8,241.3 584.8,239.8 
		583.4,241.2 569.5,241.5 565.7,246.6 567.6,254.2 566.3,257.9 564.4,266.4 561,272 559.9,275.6 560.1,283.5 558.2,288 	"/>
	<polygon class="st6" points="434.8,306 443.1,305.2 446.6,300.6 451.2,301.5 459.1,295.1 464.7,294.3 464.8,291.7 467.4,292.8 
		468.9,289.5 471,289.9 478,285.7 483.5,286.5 488,285.2 494.1,274 491.3,261.2 492.8,253.1 475.4,246 474.3,252.7 473.2,253.5 
		458.5,244.9 455.6,249.9 450.2,250.3 450.1,247.9 447.4,248.8 448,252.6 447.1,257.8 443.8,261.9 443.7,264.5 441.1,270.4 
		441.7,274.4 441.1,280.1 438.3,281.6 435.6,289.1 437.8,296.2 435.4,299.4 436.3,302 	"/>
	<polygon class="st6" points="343.8,192 344.7,209.2 354.1,208.9 354.2,211.9 367.1,211.5 369.2,214.6 370.9,210.8 373.5,214.2 
		375.2,212.4 374.5,207.6 377.7,209.9 391,216.5 395.6,217.1 399.3,219.3 400.9,202.4 399.1,201.7 404.5,185.2 409,186.6 
		407.6,163.8 388.6,161.9 388.8,165.9 376.6,164.8 373,180.2 359,181.3 	"/>
	<polygon class="st6" points="354.2,211.9 354.7,224.7 352.7,225.4 353.3,234.9 355.5,234.8 356.4,251.4 363.5,251 367.4,254.8 
		369.7,259.1 398.4,257 396.8,226.6 393.4,226.6 392.3,224.8 394.2,221.8 391,216.5 377.7,209.9 374.5,207.6 375.2,212.4 
		373.5,214.2 370.9,210.8 369.2,214.6 367.1,211.5 	"/>
	<polygon class="st6" points="399.3,219.3 406.1,218.9 407.4,217.5 412.7,219.8 412.6,221.1 417.4,224.6 417.6,227.1 420.8,229.2 
		421,231.8 424.3,231.6 425,242.5 432.6,242.4 433.1,249.6 447.4,248.8 450.9,247.8 449.6,230 454.1,223.4 460.9,211.9 454,208.9 
		455,203.8 460.4,201.1 457.8,171.5 425.8,191.9 404.5,185.2 399.1,201.7 400.9,202.4 	"/>
	<polygon class="st6" points="492.8,253.1 499.3,254.8 507.4,258.9 520,257.8 521.9,256.5 522.5,254.9 535.5,246.1 534.5,237.2 
		500.8,237 484.4,230.6 485.9,235.6 484.1,249.6 	"/>
	<polygon class="st6" points="398.4,257 398.8,264 433.7,261.8 433.8,262.5 443.8,261.9 447.1,257.8 448,252.6 447.4,248.8 
		433.1,249.6 432.6,242.4 425,242.5 424.3,231.6 421,231.8 420.8,229.2 417.6,227.1 417.4,224.6 412.6,221.1 412.7,219.8 
		407.4,217.5 406.1,218.9 399.3,219.3 395.6,217.1 391,216.5 394.2,221.8 392.3,224.8 393.4,226.6 396.8,226.6 	"/>
	<polygon class="st6" points="409,186.6 425.8,191.9 457.8,171.5 453.3,120.9 432.4,108.2 424.9,120.3 429.5,123.3 428.1,125.7 
		428.2,130.1 424.5,130.3 425.1,134.5 420.5,134.1 408.8,143.9 402.6,143.3 401.8,153 406.6,153.4 	"/>
	<polygon class="st6" points="375.5,164.7 388.8,165.9 388.6,161.9 407.6,163.8 406.6,153.4 401.8,153 402.6,143.3 408.8,143.9 
		420.5,134.1 425.1,134.5 424.5,130.3 428.2,130.1 428.1,125.7 429.5,123.3 424.9,120.3 432.4,108.2 402.6,89.5 401.8,87.8 
		397.1,92.3 392.8,95 388.6,95.4 391.4,100.4 383.7,106.6 378.1,108.2 362.8,119.6 363.2,123.7 371.2,134.6 375.3,128.7 369.2,130 
		371.9,124.3 379.8,123.7 377.7,135.4 386.7,130.6 380,137.3 380.9,141.9 368,146.2 373,151.4 	"/>
	<polygon class="st6" points="484.1,249.6 485.9,235.6 484.4,230.6 483.7,223.6 486.6,222.7 486.2,220.5 489.2,217.4 487.9,205.8 
		476.2,200.2 483.2,184.9 477.2,123.8 461.4,125.8 453.3,120.9 460.4,201.1 455,203.8 454,208.9 460.9,211.9 454.1,223.4 449.6,230 
		450.9,247.8 450.1,247.9 450.2,250.3 455.6,249.9 458.5,244.9 473.2,253.5 474.3,252.7 475.4,246 	"/>
	<polygon class="st6" points="477.2,123.8 483.2,184.9 476.2,200.2 501.4,211.8 517.2,210.4 517.5,213.2 525.1,212.5 524.9,209.7 
		531.2,209.1 525.6,159.6 537.5,157.9 538.3,152.5 534.1,151.6 530.2,149 525.7,151 516.4,139 522.5,134.3 520.5,118.4 	"/>
	<polygon class="st6" points="507.7,320.9 518.6,326.5 536.2,328.3 538.6,320.7 541.7,320.1 548.6,325.1 550,321.1 552.8,318.6 
		553.4,314.6 557.8,310.8 558.5,307.2 557.4,299.8 558.8,294.2 558.2,290.7 522.6,296.4 523.3,299.6 520.9,301 515.7,301.8 
		513.2,299.9 508.3,301.9 509.5,302.5 501.2,317.6 	"/>
	<polygon class="st6" points="534.5,237.2 531.2,209.1 524.9,209.7 525.1,212.5 517.5,213.2 517.2,210.4 501.4,211.8 487.9,205.8 
		489.2,217.4 486.2,220.5 486.6,222.7 483.7,223.6 484.4,230.6 500.8,237 	"/>
	<polygon class="st6" points="487.2,25.2 487.3,30 493.3,30.1 502.1,113.2 500.6,113.3 501.4,120.7 534.8,116.6 531.2,88.1 
		548.7,85.8 546.9,70.2 546,70.3 544.4,56.1 542.9,56.2 541.3,42.5 541.2,35.6 539.8,25.5 530.5,25.9 516.5,25.9 491.6,25.1 
		491.3,24.5 	"/>
	<polygon class="st6" points="537.5,157.9 588.8,151.2 588.1,148.9 589.2,144.3 586.6,138 586.5,128.3 584.4,126.4 588,111 
		590,109.2 593.8,103.3 592.3,91.8 595.3,84.9 594.3,78.3 591.9,73.3 582.4,74.3 582.8,76.1 580,79.8 575.5,80.2 574.8,81.6 
		566.5,84.7 564.5,84.1 531.2,88.1 534.8,116.6 520.5,118.4 522.5,134.3 516.4,139 525.7,151 530.2,149 534.1,151.6 538.3,152.5 	
		"/>
	<polygon class="st6" points="439,338.2 442.7,343.3 444,342.7 446.7,352.1 450.7,351.4 455.1,353.3 507.7,320.9 501.2,317.6 
		509.5,302.5 495,294.8 488,285.2 483.5,286.5 478,285.7 471,289.9 468.9,289.5 467.4,292.8 464.8,291.7 464.7,294.3 459.1,295.1 
		451.2,301.5 446.6,300.6 443.1,305.2 434.8,306 434.3,333.8 435.7,337 	"/>
	<polygon class="st6" points="369.7,259.1 371.3,296.5 388.8,296.3 400.8,295.6 398.4,257 	"/>
	<polygon class="st6" points="579.9,333 579.1,329.3 590.8,286 558.2,290.7 558.8,294.2 557.4,299.8 558.5,307.2 557.8,310.8 
		553.4,314.6 552.8,318.6 550,321.1 547.2,330.1 548.8,330 563.7,337.5 577.6,340.4 578.1,333 	"/>
	<polygon class="st6" points="539.8,25.5 541.2,35.6 541.3,42.5 542.9,56.2 544.4,56.1 546,70.3 546.9,70.2 548.7,85.8 564.5,84.1 
		566.5,84.7 574.8,81.6 575.5,80.2 580,79.8 582.8,76.1 582.4,74.3 591.9,73.3 590.2,71.6 588,65.9 589.5,60.9 590,52.2 592.2,46 
		588.8,42.3 590.6,35.2 591.9,33.7 591.6,23.9 	"/>
	<polygon class="st6" points="400.8,295.6 402.3,311.6 404.2,312.7 417.9,312.7 418,318.2 434.5,318.2 434.8,306 436.3,302 
		435.4,299.4 437.8,296.2 435.6,289.1 438.3,281.6 441.1,280.1 441.7,274.4 441.1,270.4 443.7,264.5 443.8,261.9 433.8,262.5 
		433.7,261.8 398.8,264 	"/>
	<polygon class="st6" points="320.3,337.9 348.3,338.1 349.5,332.8 347.9,322.2 349.9,322.3 349.8,309.4 343.6,309.2 343.6,312.7 
		341.9,314.3 335,312.8 335,308.1 317.5,308.8 317.4,338 	"/>
	<polygon class="st6" points="336.5,233 334.8,238.5 334.7,245.6 336,253.5 334.5,257.2 335,263.6 338.6,269.5 340.1,274.3 
		355.8,273.9 355.8,274.8 370.4,274.3 369.7,259.1 367.4,254.8 363.5,251 356.4,251.4 355.5,234.8 353.3,234.9 352.7,225.4 
		354.7,224.7 354.1,208.9 344.7,209.2 343.8,192 336.2,202.7 335.8,199.8 337.4,227.2 	"/>
	<polygon class="st6" points="380.6,296.2 382,305.6 384.4,314.6 383.9,319.1 381.7,319.2 382.5,338.2 439,338.2 435.7,337 
		434.3,333.8 434.5,318.2 418,318.2 417.9,312.7 404.2,312.7 402.3,311.6 400.8,295.6 388.8,296.3 	"/>
	<polygon class="st6" points="558.2,290.7 558.2,288 560.1,283.5 559.9,275.6 561,272 564.4,266.4 566.3,257.9 565.2,258.6 
		562.5,253.8 559.3,257.5 556.3,258.3 556.3,258.7 528.2,263.3 529.4,264.7 529,269.9 523.6,281.8 524.6,287.6 521.8,295.2 
		522.6,296.4 	"/>
	<polygon class="st6" points="317.5,309.7 317.5,308.8 335,308.1 335,312.8 341.9,314.3 343.6,312.7 343.6,309.2 338.2,309.1 
		338.6,299.8 337.8,282.2 322.7,282.7 323.2,290.8 315.7,290.8 315.6,288.5 306.7,288.6 307.3,310.3 	"/>
</g>
<g id="Metro_NY_outline">
	<polygon class="st6" points="543.2,406.8 544.6,414.2 551.3,420.3 552,432 548.6,447.6 557.5,450.8 565.6,444.6 567.7,439.8 
		568,438 562.5,429 581,417.8 575.8,409.5 576.3,402.3 	"/>
	<polygon class="st6" points="455.1,353.3 460.5,358.5 458.4,359.8 462.1,363.4 462.8,376.9 460.9,378.5 467.1,388 467.6,390.9 
		470.6,390.5 474.4,393.2 474,394.9 480.4,394.6 482,396.7 484.7,396.4 484.9,389.5 505.9,388.4 510.2,381.8 514,379.6 512,374.2 
		498.3,364 507.5,350.8 482.8,336.4 	"/>
	<polygon class="st6" points="582.4,453.3 583.3,457.2 585.4,473 595.8,470.7 600.5,467.3 604.8,469.3 616.2,464.2 627.5,465.2 
		645,459.7 660.5,453.5 696,436.6 704.1,432 698,431.3 686,438.8 680.7,435.4 675.2,434.3 669,428.1 670.4,424.9 645.5,440.9 
		634.6,442.6 609,442.2 600.9,448.4 587.9,445.3 574.7,447.6 	"/>
	<polygon class="st6" points="524.1,424.8 549.2,439.4 548.9,424.9 544.9,419.7 542.7,407 	"/>
	<polygon class="st6" points="535.4,474.3 530.2,475.5 527.8,474.7 527,475.6 526.5,476.1 526.4,478.5 527,479 525.9,483.1 
		525.2,483.7 524.4,483.6 523.7,484.3 523.1,489 523.7,489.3 525.4,488.8 526.1,487.9 527.1,488.1 527.9,487.2 530,486.2 
		531.8,484.5 532.2,484.9 531.7,485.6 531.3,485.6 531.5,486.2 536.1,481.4 537.8,479.2 537.8,478.6 536.4,476.7 536.5,474.9 	"/>
	<polygon class="st6" points="552.6,473.9 553.3,474.7 555.3,474.2 558.3,476.1 557,477.7 557.7,478.4 558.4,477.8 558.1,477.2 
		558.6,476.4 559.2,476.8 561.2,475.4 561.6,474.4 562.7,473.8 562.3,467 564,466.4 564.5,465.4 564.4,463.9 560.7,460.9 
		560.4,462.6 560.1,462.4 559,460.6 559.2,460.3 558.8,459.5 557.5,460.3 557.4,459.7 555.5,459.1 554.8,459.5 554.6,460.3 
		554.2,460.2 554.1,459.5 553,459.7 552.5,460.6 553.2,460.9 553.6,462.9 553.1,463.2 552.5,462.9 552.2,462.5 552.6,461.9 
		551.5,461.1 551.6,460.6 550.2,461.8 549.8,460.7 548.7,460.1 547.2,461.6 546.8,461.4 546.6,461.7 546.8,462.2 544.8,464.9 
		544.7,465.4 545.4,465.2 547.2,466.4 547.8,468.3 549.1,469.6 549.7,470.9 551.8,469.6 552,471 552.6,472 552.8,472.8 552.2,473.3 
			"/>
	<polygon class="st6" points="560.4,478.1 559,477.8 559.3,478.2 559.2,479.3 558.6,478.2 557.8,479.4 556.8,479.3 555.4,480.5 
		553.2,480.9 551.1,482.3 547.6,482.9 546.5,483.6 546.4,484.8 555.9,480.8 561.7,479.7 561.1,478 	"/>
	<polygon class="st6" points="557.1,478.2 556.7,478.7 557.4,478.6 	"/>
	<polygon class="st6" points="557.1,476.6 556.5,477 556.7,477.6 	"/>
	<polygon class="st6" points="556.2,479.3 556.2,478.8 555.8,478.9 	"/>
	<polygon class="st6" points="489.3,403.2 524.1,424.8 543.3,406.5 545.8,399.6 543.2,395 541.8,393.2 542.1,386.5 545.4,379.7 
		537.8,380.7 531.7,377.1 532.3,380.5 522.8,378.2 521.9,375.4 510.2,381.8 505.9,388.4 484.9,389.5 484.7,396.4 	"/>
	<polygon class="st6" points="547.4,451.5 545.9,454.1 545.6,455.8 541.3,463.8 540.4,468.6 541,469.2 542,468.3 543.6,468 
		544.1,464.6 547.2,459.5 546.8,458.2 546.8,455.7 548.6,452.3 548.5,451.9 547.9,451.9 	"/>
	<polygon class="st6" points="559.5,477.1 559.5,477.6 560.4,478.1 561.1,478 561.7,479 561.7,479.7 560.8,479.8 560.5,480.7 
		574,481.5 585.4,473 583.3,457.2 582.4,453.3 574.7,447.6 562.3,452.5 561,461.1 564.4,463.9 564.5,465.4 564,466.4 562.3,467 
		562.7,473.8 561.4,474.5 561.2,475.4 	"/>
	<polygon class="st7" points="553.7,477.8 553.3,478.5 553.5,478.8 554.1,478.1 	"/>
	<polygon class="st7" points="551.4,477.6 552,477 552,476.3 551,477.1 551,477.5 	"/>
	<polygon class="st6" points="553.2,476.5 552.7,477.2 553.3,476.9 	"/>
	<polygon class="st6" points="552.5,478.9 552.2,479 552.4,479.5 553.1,479.4 	"/>
	<polygon class="st6" points="545.4,465.2 544.7,465.8 544.2,468.7 543.8,469.1 543.3,468.6 542.3,468.7 541.1,470.8 540.4,471.2 
		540.5,471.7 541.9,472.7 540.5,473.2 540.8,473.4 539.8,474.7 539.1,475 538.7,476.2 539.1,478.2 541.5,479.4 541.9,480 
		541.8,480.8 542.6,480.7 542.4,481.2 541.5,481 540.9,481.3 541.7,482 547,481.6 546.9,481 545.8,480.8 548.5,481 548.4,480.5 
		547.2,480.4 548.3,480.3 547.5,479.2 547.8,479 548.5,479.6 548.6,480.5 549.4,480.3 549.8,481.5 551,481.1 551.2,480.7 
		550.6,478.6 549.5,478.8 550.2,478.1 549.7,477 551.2,475.3 551.7,475.3 551.5,474.7 551.9,475.2 552.6,474.8 552.2,473.3 
		552.8,472.8 551.8,469.6 549.7,470.9 549.1,469.6 547.8,468.3 547.2,466.4 	"/>
	<polygon class="st6" points="577.4,386.1 580.7,333.1 578.1,333 577.6,340.4 563.7,337.5 548.8,330 547.2,330.1 546.9,336.5 
		544.7,348.2 546.4,351.3 545.5,361.4 546.3,363.1 545.4,379.7 542.1,386.5 541.8,393.2 543.2,395 546.9,390 	"/>
	<polygon class="st6" points="548.2,459.4 549.7,458.5 551.5,459.1 551.8,458.5 551.7,457.8 553.2,458.7 553.8,457.3 554.2,458.6 
		554.6,458.7 554.8,458.1 555.8,457.8 557.7,458.8 556.8,458.2 557.1,457.5 556.5,456.7 556,456.8 555.7,454 556,453.3 555.4,452.3 
		555.6,452.2 555.9,452.8 556.6,453 556.9,454.2 557.5,452.6 558.1,452.2 558.2,451.3 557.7,451.1 556.8,452.6 557.5,450.8 
		548.6,447.6 547.7,451.3 548.3,451.6 548.6,451.2 548.9,451.8 546.9,456 547,458.3 	"/>
	<polygon class="st6" points="543.2,406.8 576.3,402.3 577.4,386.1 546.9,390 543.2,395 545.8,399.6 	"/>
	<polygon class="st6" points="482.8,336.4 507.5,350.8 498.3,364 512,374.2 514,379.6 521.9,375.4 522.8,378.2 532.3,380.5 
		531.7,377.1 537.8,380.7 545.4,379.7 546.3,363.1 545.5,361.4 546.4,351.3 544.7,348.2 546.9,336.5 547.2,330.1 548.6,325.1 
		541.7,320.1 538.6,320.7 536.2,328.3 518.6,326.5 507.7,320.9 	"/>
</g>
<g id="Layer_9">
	<path class="st8" d="M71.8,120h8.4c5.4,0,9.3,1.6,9.3,6.4c0.1,2.5-1.3,4.7-3.6,5.7v0.2c3,0.5,5.1,3.2,5,6.2c0,5.2-4.3,7.7-10,7.7
		h-9L71.8,120z M79.8,130.8c3.6,0,5.2-1.4,5.2-3.7c0-2.6-1.7-3.5-5.1-3.5h-3.4v7.2H79.8z M80.4,142.6c3.8,0,6-1.4,6-4.3
		c0-2.8-2.1-4-6-4h-4v8.3L80.4,142.6z"/>
	<path class="st8" d="M95.1,138.9v-12.3h4.6v11.7c0,3.2,0.9,4.4,3,4.4c1.7,0,2.9-0.8,4.4-2.7v-13.4h4.6v19.6h-3.8l-0.4-2.9h-0.1
		c-1.7,2-3.6,3.4-6.3,3.4C96.9,146.7,95.1,143.8,95.1,138.9z"/>
	<path class="st8" d="M130.4,130.2h-7.4v16h-4.6v-16h-2.6v-3.4l2.6-0.2v-1.7c0-4,2-7,6.8-7c1.3,0,2.6,0.2,3.8,0.7l-0.9,3.4
		c-0.8-0.4-1.6-0.6-2.5-0.5c-1.6,0-2.7,1.1-2.7,3.3v1.7h7.4v-2c0-4.1,1.8-7,6.5-7c1.2,0,2.5,0.2,3.6,0.7l-0.9,3.4
		c-0.7-0.3-1.4-0.5-2.1-0.5c-1.6,0-2.5,1-2.5,3.3v2.1h3.8v3.6H135v16h-4.6L130.4,130.2z"/>
	<path class="st8" d="M140.4,140.9c0-4.2,3.5-6.4,11.6-7.3c-0.1-2.1-0.9-3.8-3.6-3.8c-2,0.1-3.9,0.8-5.5,1.9l-1.7-3.1
		c2.4-1.6,5.2-2.5,8.1-2.6c4.9,0,7.3,3,7.3,8.5v11.6h-3.8l-0.3-2.2h-0.2c-1.6,1.6-3.8,2.5-6.1,2.6c-3,0.2-5.6-2.1-5.8-5.2
		C140.4,141.3,140.4,141.1,140.4,140.9z M152,140.9v-4.4c-5.4,0.7-7.1,2.1-7.1,4c0,1.8,1.2,2.5,2.8,2.5S150.5,142.3,152,140.9
		L152,140.9z"/>
	<path class="st8" d="M162.1,141.1v-23.2h4.6v23.4c0,1.1,0.5,1.5,1,1.5c0.2,0,0.5,0,0.7-0.1l0.6,3.4c-0.8,0.3-1.6,0.4-2.4,0.4
		C163.3,146.7,162.1,144.5,162.1,141.1z"/>
	<path class="st8" d="M171.6,136.4c0-6.6,4.4-10.3,9.3-10.3s9.4,3.8,9.4,10.3s-4.4,10.3-9.4,10.3S171.6,142.9,171.6,136.4z
		 M185.6,136.4c0-4-1.8-6.6-4.6-6.6s-4.6,2.6-4.6,6.6s1.7,6.5,4.6,6.5S185.6,140.3,185.6,136.4L185.6,136.4z"/>
	<path class="st8" d="M97,159.3h4.2c4.8,0,7.6,2.6,7.6,7.8s-2.8,7.9-7.5,7.9H97V159.3z M101,172.7c3.2,0,5-1.8,5-5.7s-1.8-5.5-5-5.5
		h-1.2v11.2H101z"/>
	<path class="st8" d="M111.5,159.6c-0.1-0.9,0.6-1.8,1.6-1.9c0.9-0.1,1.8,0.6,1.9,1.6c0.1,0.9-0.6,1.8-1.6,1.9c0,0-0.1,0-0.1,0
		C112.3,161.2,111.6,160.5,111.5,159.6C111.5,159.6,111.5,159.6,111.5,159.6z M111.8,163.2h2.8V175h-2.8L111.8,163.2z"/>
	<path class="st8" d="M116.9,173.6l1.3-1.8c0.9,0.8,2.1,1.3,3.3,1.3c1.3,0,1.9-0.6,1.9-1.4c0-1-1.3-1.4-2.5-1.9
		c-1.6-0.6-3.3-1.5-3.3-3.4s1.7-3.5,4.3-3.5c1.4,0,2.8,0.5,3.9,1.4l-1.3,1.7c-0.7-0.6-1.6-1-2.6-1c-1.2,0-1.7,0.6-1.7,1.3
		c0,0.9,1.2,1.3,2.4,1.8c1.6,0.6,3.4,1.4,3.4,3.6c0,2-1.6,3.6-4.6,3.6C119.8,175.2,118.2,174.7,116.9,173.6z"/>
	<path class="st8" d="M128.4,171v-5.6h-1.7v-2.1l1.8-0.1l0.3-3.2h2.3v3.2h3v2.2h-3v5.6c0,1.4,0.5,2.1,1.7,2.1c0.4,0,0.8-0.1,1.2-0.3
		l0.5,2c-0.8,0.3-1.6,0.4-2.4,0.4C129.4,175.3,128.4,173.5,128.4,171z"/>
	<path class="st8" d="M136.6,163.2h2.3l0.2,2.1h0.1c0.6-1.3,1.9-2.3,3.3-2.4c0.5,0,0.9,0.1,1.3,0.2l-0.5,2.4
		c-0.4-0.1-0.8-0.2-1.2-0.2c-0.9,0-2.1,0.6-2.8,2.4v7.2h-2.8L136.6,163.2z"/>
	<path class="st8" d="M145.3,159.6c-0.1-0.9,0.6-1.8,1.6-1.9s1.8,0.6,1.9,1.6s-0.6,1.8-1.6,1.9c-0.1,0-0.1,0-0.2,0
		C146.1,161.2,145.3,160.5,145.3,159.6C145.3,159.6,145.3,159.6,145.3,159.6z M145.6,163.2h2.8V175h-2.8V163.2z"/>
	<path class="st8" d="M151.1,169.1c-0.2-3.2,2.2-6,5.4-6.2c0.2,0,0.3,0,0.5,0c1.3,0,2.5,0.5,3.4,1.3l-1.3,1.8
		c-0.5-0.5-1.2-0.8-2-0.9c-1.9,0-3.2,1.6-3.2,3.9s1.3,3.9,3.1,3.9c0.9,0,1.8-0.4,2.4-1l1.1,1.8c-1.1,0.9-2.4,1.4-3.8,1.4
		C153.6,175.3,151.1,173,151.1,169.1z"/>
	<path class="st8" d="M163.1,171v-5.6h-1.7v-2.1l1.8-0.1l0.3-3.2h2.3v3.2h3v2.2h-3v5.6c0,1.4,0.5,2.1,1.7,2.1c0.4,0,0.8-0.1,1.2-0.3
		l0.5,2c-0.8,0.3-1.6,0.4-2.4,0.4C164.1,175.3,163.1,173.5,163.1,171z"/>
	<circle class="st9" cx="270" cy="221.5" r="9"/>
	<polyline class="st10" points="239.5,197.6 239.4,221.7 246.3,221.6 242.9,231.4 246.4,231.6 245.9,241.1 244.1,241.1 244.1,245.2 
		242.5,245.2 242.4,269.7 239.4,275.1 236.9,276.4 234.6,283.6 236.2,284.8 251.2,285.2 251.2,289.6 260.1,290 258.1,338.2 	"/>
	<circle class="st11" cx="176.3" cy="246.3" r="29.3"/>
	<circle class="st9" cx="176.3" cy="246.3" r="9"/>
	<path class="st12" d="M621.5,75.2v-6.6h2.1v6.8c0,2.6,1,3.4,2.4,3.4s2.5-0.8,2.5-3.4v-6.8h2v6.6c0,3.9-1.7,5.4-4.5,5.4
		S621.5,79.1,621.5,75.2z"/>
	<path class="st12" d="M633.2,71.5h1.7l0.2,0.9h0.1c0.7-0.7,1.7-1.1,2.7-1.2c2.2,0,3.5,1.8,3.5,4.5c0,3-1.8,4.8-3.8,4.8
		c-0.9-0.1-1.7-0.4-2.3-1l0,1.5v2.8h-2.1L633.2,71.5z M639.1,75.8c0-1.8-0.6-2.8-1.9-2.8c-0.8,0.1-1.5,0.4-2,1v4.1
		c0.5,0.5,1.1,0.7,1.8,0.7C638.2,78.8,639.1,77.8,639.1,75.8L639.1,75.8z"/>
	<path class="st12" d="M642.4,79.3l1-1.3c0.7,0.6,1.5,1,2.5,1c1,0,1.4-0.4,1.4-1.1s-1-1.1-1.9-1.4c-1.2-0.4-2.5-1.1-2.5-2.6
		s1.2-2.6,3.2-2.6c1.1,0,2.1,0.4,2.9,1l-1,1.3c-0.5-0.5-1.2-0.7-1.9-0.8c-0.9,0-1.3,0.4-1.3,1c0,0.7,0.9,1,1.8,1.3
		c1.2,0.4,2.5,1,2.5,2.7s-1.2,2.7-3.4,2.7C644.5,80.6,643.3,80.1,642.4,79.3z"/>
	<path class="st12" d="M651,77.3v-4.2h-1.3v-1.6l1.4-0.1l0.3-2.4h1.6v2.4h2.3v1.6H653v4.2c0,1.1,0.4,1.6,1.2,1.6
		c0.3,0,0.6-0.1,0.9-0.2l0.4,1.5c-0.6,0.2-1.2,0.3-1.8,0.3C651.7,80.6,651,79.3,651,77.3z"/>
	<path class="st12" d="M656.3,78c0-1.9,1.6-2.9,5.2-3.3c0-0.9-0.4-1.7-1.6-1.7c-0.9,0.1-1.7,0.4-2.5,0.9l-0.8-1.4
		c1.1-0.7,2.3-1.1,3.6-1.2c2.2,0,3.3,1.3,3.3,3.8v5.2h-1.7l-0.2-1h-0.1c-0.7,0.7-1.7,1.1-2.7,1.2c-1.4,0.1-2.5-1-2.6-2.3
		C656.3,78.2,656.3,78.1,656.3,78z M661.5,78v-2c-2.4,0.3-3.2,0.9-3.2,1.8s0.5,1.1,1.3,1.1C660.3,78.9,661,78.6,661.5,78z"/>
	<path class="st12" d="M666.1,77.3v-4.2h-1.3v-1.6l1.4-0.1l0.3-2.4h1.7v2.4h2.3v1.6h-2.3v4.2c0,1.1,0.4,1.6,1.2,1.6
		c0.3,0,0.6-0.1,0.9-0.2l0.3,1.5c-0.6,0.2-1.2,0.3-1.8,0.3C666.8,80.6,666.1,79.3,666.1,77.3z"/>
	<path class="st12" d="M671.4,75.9c0-2.9,2-4.6,4.1-4.6c2.4,0,3.7,1.7,3.7,4.2c0,0.3,0,0.7-0.1,1h-5.6c0,1.4,1.1,2.5,2.5,2.5
		c0,0,0,0,0.1,0c0.7,0,1.4-0.2,2-0.7l0.7,1.3c-0.9,0.6-1.9,1-3,1c-2.4,0.1-4.3-1.8-4.4-4.1C671.4,76.3,671.4,76.1,671.4,75.9z
		 M677.3,75.1c0-1.4-0.6-2.2-1.8-2.2c-1.2,0-2.1,1-2.1,2.2H677.3z"/>
	<path class="st12" d="M684.9,68.6h2.1l3.7,6.6l1.2,2.5h0.1c-0.1-1.2-0.3-2.7-0.3-4v-5.1h2v11.8h-2.1l-3.7-6.6l-1.2-2.5h-0.1
		c0.1,1.2,0.3,2.7,0.3,4v5.2h-2L684.9,68.6z"/>
	<path class="st12" d="M695.9,75.9c0-2.9,2-4.6,4.1-4.6c2.4,0,3.7,1.7,3.7,4.2c0,0.3,0,0.7-0.1,1h-5.6c0,1.4,1.1,2.5,2.5,2.5
		c0,0,0,0,0.1,0c0.7,0,1.5-0.2,2.1-0.7l0.7,1.3c-0.9,0.6-1.9,1-3,1c-2.4,0.1-4.3-1.8-4.4-4.1C695.9,76.3,695.9,76.1,695.9,75.9z
		 M701.8,75.1c0-1.4-0.6-2.2-1.8-2.2c-1.2,0-2.1,1-2.1,2.2H701.8z"/>
	<path class="st12" d="M704.8,71.5h2.1l1.1,4.6c0.2,0.8,0.3,1.7,0.5,2.5h0.1c0.2-0.9,0.3-1.7,0.6-2.5l1.2-4.6h1.8l1.2,4.6
		c0.2,0.8,0.4,1.7,0.6,2.5h0.1c0.2-0.9,0.3-1.7,0.5-2.5l1.1-4.6h1.9l-2.2,8.8h-2.5l-1-4.1c-0.2-0.8-0.3-1.6-0.5-2.6H711
		c-0.2,0.9-0.3,1.8-0.5,2.6l-1,4.1h-2.4L704.8,71.5z"/>
	<path class="st12" d="M724.8,76l-3.5-7.4h2.2l1.3,3c0.3,0.9,0.7,1.7,1,2.6h0.1c0.4-0.9,0.7-1.7,1.1-2.6l1.3-3h2.2l-3.5,7.4v4.4
		h-2.1L724.8,76z"/>
	<path class="st12" d="M730.3,75.9c0-3,2-4.6,4.2-4.6s4.2,1.7,4.2,4.6s-2,4.6-4.2,4.6S730.3,78.9,730.3,75.9z M736.6,75.9
		c0-1.8-0.8-3-2.1-3s-2.1,1.2-2.1,3s0.8,2.9,2.1,2.9S736.6,77.7,736.6,75.9z"/>
	<path class="st12" d="M740.7,71.5h1.7l0.1,1.6h0.1c0.4-1,1.4-1.7,2.5-1.8c0.3,0,0.7,0,1,0.2l-0.4,1.8c-0.3-0.1-0.6-0.1-0.9-0.2
		c-0.7,0-1.5,0.5-2.1,1.8v5.4h-2.1L740.7,71.5z"/>
	<path class="st12" d="M747.4,67.6h2v7.9l0,0l3.3-4.1h2.3l-3,3.6l3.3,5.2h-2.2l-2.3-3.8l-1.4,1.6v2.2h-2L747.4,67.6z"/>
	<path class="st12" d="M661.3,90.2h3.2c3.6,0,5.7,1.9,5.7,5.8s-2.1,5.9-5.6,5.9h-3.3V90.2z M664.3,100.2c2.4,0,3.7-1.3,3.7-4.2
		s-1.3-4.1-3.7-4.1h-0.9v8.4H664.3z"/>
	<path class="st12" d="M672.2,90.4c0.1-0.7,0.7-1.2,1.4-1.2c0.6,0.1,1.1,0.5,1.2,1.2c-0.1,0.7-0.7,1.2-1.4,1.2
		C672.7,91.5,672.2,91,672.2,90.4z M672.4,93.1h2.1v8.8h-2.1V93.1z"/>
	<path class="st12" d="M676.2,100.9l1-1.3c0.7,0.6,1.5,1,2.5,1c1,0,1.4-0.4,1.4-1.1s-1-1.1-1.9-1.4c-1.2-0.4-2.5-1.1-2.5-2.6
		s1.2-2.6,3.2-2.6c1.1,0,2.1,0.4,2.9,1.1l-1,1.3c-0.5-0.5-1.2-0.7-1.9-0.8c-0.9,0-1.3,0.4-1.3,1c0,0.7,0.9,1,1.8,1.3
		c1.2,0.4,2.5,1,2.5,2.7s-1.2,2.7-3.4,2.7C678.3,102.2,677.2,101.7,676.2,100.9z"/>
	<path class="st12" d="M684.8,99v-4.3h-1.3v-1.5l1.4-0.1l0.2-2.4h1.7v2.4h2.2v1.6h-2.2V99c0,1,0.4,1.6,1.2,1.6
		c0.3,0,0.6-0.1,0.9-0.2l0.4,1.5c-0.6,0.2-1.2,0.3-1.8,0.3C685.6,102.2,684.8,100.9,684.8,99z"/>
	<path class="st12" d="M691,93.1h1.7l0.2,1.6h0.1c0.4-1,1.4-1.7,2.5-1.8c0.3,0,0.7,0,1,0.2l-0.4,1.8c-0.3-0.1-0.6-0.2-0.9-0.2
		c-0.7,0-1.5,0.5-2.1,1.8v5.4H691V93.1z"/>
	<path class="st12" d="M697.5,90.4c-0.1-0.7,0.5-1.3,1.2-1.4c0.7-0.1,1.3,0.5,1.4,1.2c0.1,0.7-0.5,1.3-1.2,1.4c0,0-0.1,0-0.1,0
		C698.1,91.6,697.5,91.1,697.5,90.4C697.5,90.4,697.5,90.4,697.5,90.4z M697.7,93.1h2.1v8.8h-2.1V93.1z"/>
	<path class="st12" d="M701.9,97.5c-0.2-2.4,1.7-4.5,4.1-4.6c0.1,0,0.2,0,0.4,0c1,0,1.9,0.4,2.6,1l-1,1.3c-0.4-0.4-0.9-0.6-1.5-0.7
		c-1.4,0-2.4,1.2-2.4,3s1,2.9,2.4,2.9c0.7,0,1.3-0.3,1.8-0.8l0.8,1.4c-0.8,0.7-1.8,1.1-2.9,1.1C703.7,102.2,701.9,100.5,701.9,97.5z
		"/>
	<path class="st12" d="M710.9,99v-4.3h-1.3v-1.5l1.4-0.1l0.3-2.4h1.7v2.4h2.3v1.6H713V99c0,1,0.4,1.6,1.2,1.6c0.3,0,0.6-0.1,0.9-0.2
		l0.4,1.5c-0.6,0.2-1.2,0.3-1.8,0.3C711.6,102.2,710.9,100.9,710.9,99z"/>
	<path class="st12" d="M375.7,437.1h2.4l2.1,5.8c0.3,0.7,0.5,1.5,0.8,2.3h0.1c0.3-0.8,0.5-1.6,0.7-2.3l2-5.8h2.4v11.8h-1.9v-5.4
		c0-1.1,0.2-2.7,0.3-3.8h-0.1l-1,2.7l-1.9,5.3h-1.2l-1.9-5.3l-0.9-2.7h-0.1c0.1,1.1,0.3,2.6,0.3,3.8v5.4h-1.9L375.7,437.1z"/>
	<path class="st12" d="M388.4,444.5c0-2.9,2-4.6,4.1-4.6c2.4,0,3.7,1.7,3.7,4.2c0,0.3,0,0.7-0.1,1h-5.6c0,1.4,1.2,2.5,2.6,2.5
		c0,0,0,0,0,0c0.7,0,1.4-0.2,2-0.6l0.7,1.3c-0.9,0.6-1.9,0.9-3,1c-2.4,0.1-4.3-1.8-4.4-4.1C388.4,444.8,388.4,444.7,388.4,444.5z
		 M394.3,443.7c0-1.4-0.6-2.2-1.8-2.2c-1.2,0-2.1,1-2.1,2.2H394.3z"/>
	<path class="st12" d="M398.2,445.9v-4.2H397v-1.5l1.4-0.1l0.2-2.4h1.7v2.4h2.2v1.6h-2.2v4.2c0,1,0.4,1.5,1.2,1.5
		c0.3,0,0.6-0.1,0.9-0.2l0.4,1.5c-0.6,0.2-1.2,0.3-1.8,0.3C399,449.1,398.2,447.9,398.2,445.9z"/>
	<path class="st12" d="M404.4,440.1h1.7l0.1,1.6h0.1c0.4-1,1.4-1.7,2.5-1.8c0.3,0,0.7,0,1,0.2l-0.4,1.8c-0.3-0.1-0.6-0.1-0.9-0.1
		c-0.7,0-1.5,0.5-2.1,1.8v5.4h-2.1L404.4,440.1z"/>
	<path class="st12" d="M410.4,444.5c0-3,2-4.6,4.2-4.6s4.2,1.7,4.2,4.6c0.2,2.3-1.5,4.4-3.8,4.6s-4.4-1.5-4.6-3.8
		C410.4,445,410.4,444.8,410.4,444.5z M416.6,444.5c0-1.8-0.8-3-2.1-3s-2.1,1.2-2.1,3s0.8,2.9,2.1,2.9S416.6,446.3,416.6,444.5z"/>
	<path class="st12" d="M424.6,437.1h2.1l3.7,6.6l1.2,2.5h0.1c-0.1-1.2-0.3-2.7-0.3-4v-5.1h2v11.8h-2.1l-3.7-6.6l-1.2-2.5h-0.1
		c0.1,1.2,0.3,2.7,0.3,4v5.1h-2L424.6,437.1z"/>
	<path class="st12" d="M435.7,444.5c0-2.9,2-4.6,4.1-4.6c2.4,0,3.6,1.7,3.6,4.2c0,0.3,0,0.7-0.1,1h-5.6c0,1.4,1.2,2.5,2.6,2.5
		c0,0,0,0,0,0c0.7,0,1.5-0.2,2.1-0.6l0.7,1.3c-0.9,0.6-1.9,0.9-3,1c-2.4,0.1-4.3-1.8-4.4-4.1C435.6,444.8,435.6,444.7,435.7,444.5z
		 M441.6,443.7c0-1.4-0.6-2.2-1.8-2.2c-1.2,0-2.1,1-2.1,2.2H441.6z"/>
	<path class="st12" d="M444.5,440.1h2.1l1.1,4.6c0.2,0.9,0.3,1.7,0.5,2.5h0.1c0.2-0.9,0.3-1.7,0.6-2.5l1.1-4.6h1.9l1.2,4.6
		c0.2,0.9,0.4,1.7,0.6,2.5h0.1c0.2-0.9,0.3-1.7,0.5-2.5l1.1-4.6h1.9l-2.2,8.8h-2.5l-1-4.1c-0.2-0.8-0.3-1.6-0.5-2.6h-0.1
		c-0.2,0.9-0.3,1.8-0.5,2.6l-1,4.1h-2.4L444.5,440.1z"/>
	<path class="st12" d="M464.6,444.5l-3.5-7.4h2.2l1.3,3c0.3,0.9,0.7,1.7,1,2.6h0.1c0.4-0.9,0.7-1.7,1.1-2.6l1.3-3h2.2l-3.5,7.4v4.4
		h-2.1L464.6,444.5z"/>
	<path class="st12" d="M470,444.5c0-3,2-4.6,4.2-4.6s4.2,1.7,4.2,4.6c0.2,2.3-1.5,4.4-3.8,4.6s-4.4-1.5-4.6-3.8
		C470,445,470,444.8,470,444.5z M476.3,444.5c0-1.8-0.8-3-2.1-3s-2.1,1.2-2.1,3s0.8,2.9,2.1,2.9S476.3,446.3,476.3,444.5z"/>
	<path class="st12" d="M480.5,440.1h1.7l0.1,1.6h0.1c0.4-1,1.4-1.7,2.5-1.8c0.3,0,0.7,0,1,0.2l-0.4,1.8c-0.3-0.1-0.6-0.1-0.9-0.1
		c-0.7,0-1.5,0.5-2.1,1.8v5.4h-2.1L480.5,440.1z"/>
	<path class="st12" d="M487.2,436.2h2v7.9h0l3.3-4.1h2.3l-3,3.6l3.3,5.2h-2.2l-2.3-3.8l-1.4,1.6v2.2h-2L487.2,436.2z"/>
	<path class="st12" d="M408.3,458.8h3.1c3.6,0,5.7,2,5.7,5.8s-2.1,5.9-5.6,5.9h-3.3V458.8z M411.3,468.8c2.4,0,3.7-1.4,3.7-4.2
		s-1.4-4.1-3.7-4.1h-0.9v8.4H411.3z"/>
	<path class="st12" d="M419.1,459c-0.1-0.7,0.5-1.3,1.2-1.4c0.7-0.1,1.3,0.5,1.4,1.2c0.1,0.7-0.5,1.3-1.2,1.4c0,0-0.1,0-0.1,0
		C419.7,460.2,419.2,459.7,419.1,459C419.1,459,419.1,459,419.1,459z M419.4,461.7h2.1v8.8h-2.1V461.7z"/>
	<path class="st12" d="M423.2,469.5l1-1.3c0.7,0.6,1.5,1,2.5,1c1,0,1.4-0.5,1.4-1.1s-1-1.1-1.9-1.4c-1.2-0.4-2.5-1.1-2.5-2.6
		s1.2-2.6,3.2-2.6c1.1,0,2.1,0.4,2.9,1.1l-1,1.3c-0.6-0.5-1.2-0.7-2-0.8c-0.9,0-1.3,0.4-1.3,1s0.9,1,1.8,1.3c1.2,0.5,2.5,1,2.5,2.7
		s-1.2,2.7-3.4,2.7C425.3,470.7,424.1,470.3,423.2,469.5z"/>
	<path class="st12" d="M431.8,467.5v-4.2h-1.3v-1.5l1.4-0.1l0.2-2.4h1.7v2.4h2.2v1.6h-2.2v4.2c0,1,0.4,1.5,1.2,1.5
		c0.3,0,0.6-0.1,0.9-0.2l0.4,1.5c-0.6,0.2-1.2,0.3-1.8,0.3C432.5,470.7,431.8,469.5,431.8,467.5z"/>
	<path class="st12" d="M438,461.7h1.7l0.1,1.6h0.1c0.4-1,1.4-1.7,2.5-1.8c0.3,0,0.7,0,1,0.2l-0.4,1.8c-0.3-0.1-0.6-0.1-0.9-0.1
		c-0.7,0-1.5,0.5-2.1,1.8v5.4H438V461.7z"/>
	<path class="st12" d="M444.4,459c-0.1-0.7,0.5-1.3,1.2-1.4s1.3,0.5,1.4,1.2s-0.5,1.3-1.2,1.4c0,0-0.1,0-0.1,0
		C445.1,460.2,444.5,459.7,444.4,459C444.4,459,444.4,459,444.4,459z M444.7,461.7h2.1v8.8h-2.1V461.7z"/>
	<path class="st12" d="M448.8,466.1c-0.2-2.4,1.7-4.5,4.1-4.6c0.1,0,0.2,0,0.4,0c1,0,1.9,0.4,2.6,1l-1,1.4c-0.4-0.4-0.9-0.6-1.5-0.6
		c-1.4,0-2.4,1.2-2.4,3s1,2.9,2.4,2.9c0.7,0,1.3-0.3,1.8-0.8l0.8,1.4c-0.8,0.7-1.8,1.1-2.9,1.1C450.7,470.7,448.8,469,448.8,466.1z"
		/>
	<path class="st12" d="M457.8,467.5v-4.2h-1.3v-1.5l1.4-0.1l0.2-2.4h1.7v2.4h2.2v1.6h-2.2v4.2c0,1,0.4,1.5,1.2,1.5
		c0.3,0,0.6-0.1,0.9-0.2l0.4,1.5c-0.6,0.2-1.2,0.3-1.8,0.3C458.6,470.7,457.8,469.5,457.8,467.5z"/>
	<polyline class="st13" points="455.1,353.3 507.7,320.9 518.6,326.5 536.2,328.3 538.6,320.7 541.7,320.1 548.6,325.1 547.2,330.1 
		563.7,337.5 577.6,340.4 578.1,333 580.7,333.1 	"/>
</g>
</svg>
