<svg xmlns="http://www.w3.org/2000/svg" viewBox="0 0 784.06 507.87"><defs><style>.cls-1{fill:#e6e6e6;}.cls-2,.cls-6{fill:#007dbc;}.cls-3{fill:#a5a5a5;}.cls-10,.cls-11,.cls-12,.cls-13,.cls-14,.cls-4,.cls-5,.cls-8,.cls-9{fill:none;}.cls-4{stroke:#868788;stroke-width:0.67px;}.cls-10,.cls-11,.cls-12,.cls-13,.cls-4,.cls-5,.cls-8,.cls-9{stroke-linejoin:bevel;}.cls-10,.cls-11,.cls-12,.cls-13,.cls-5,.cls-8,.cls-9{stroke:#0675af;}.cls-5{stroke-width:0.64px;}.cls-6{opacity:0.8;}.cls-7{fill:#fff;}.cls-10,.cls-11,.cls-12,.cls-13,.cls-8,.cls-9{stroke-width:4px;}.cls-9{stroke-dasharray:10.28 10.28;}.cls-10{stroke-dasharray:12.41 12.41;}.cls-11{stroke-dasharray:7.41 7.41;}.cls-12{stroke-dasharray:8.21 8.21;}.cls-13{stroke-dasharray:12.04 12.04;}.cls-14{stroke:#fff;stroke-miterlimit:10;stroke-width:3px;}.cls-15{fill:#868788;opacity:0.8;}</style></defs><g id="Layer_1" data-name="Layer 1"><rect class="cls-1" x="-11.18" y="-11.39" width="804.92" height="529.99"/></g><g id="Layer_5" data-name="Layer 5"><path class="cls-2" d="M40.44,156.61h8.24c5.8,0,10.12,2,10.12,8.08,0,5.8-4.32,8.48-10,8.48H45.08v9.6H40.44Zm8,12.84c3.88,0,5.76-1.56,5.76-4.76s-2-4.36-5.92-4.36H45.08v9.12Z"/><path class="cls-2" d="M61.16,173c0-6.56,4.44-10.32,9.32-10.32s9.36,3.76,9.36,10.32-4.44,10.28-9.36,10.28S61.16,179.49,61.16,173Zm14,0c0-4-1.76-6.56-4.64-6.56s-4.6,2.6-4.6,6.56,1.72,6.52,4.6,6.52S75.12,176.89,75.12,173Z"/><path class="cls-2" d="M84.4,163.13h3.8l.32,3.48h.16c1.4-2.56,3.48-4,5.56-4a5,5,0,0,1,2.24.4l-.8,4a6.42,6.42,0,0,0-2-.32c-1.56,0-3.44,1.08-4.64,4v12H84.4Z"/><path class="cls-2" d="M100,176.13v-9.36H97.2v-3.44l3-.2.56-5.36h3.84v5.36h5v3.64h-5v9.36c0,2.32.88,3.44,2.76,3.44a5.63,5.63,0,0,0,2-.44l.8,3.4a12.54,12.54,0,0,1-4,.72C101.68,183.25,100,180.37,100,176.13Z"/><path class="cls-2" d="M113.76,177.73v-23.2h4.6V178c0,1.12.52,1.52,1,1.52a2.76,2.76,0,0,0,.72-.08l.6,3.44a6.47,6.47,0,0,1-2.44.4C115,183.25,113.76,181.13,113.76,177.73Z"/><path class="cls-2" d="M123.56,177.49c0-4.2,3.48-6.4,11.56-7.28-.08-2.08-.92-3.84-3.6-3.84a11.19,11.19,0,0,0-5.52,1.92l-1.68-3.08a15.36,15.36,0,0,1,8.08-2.56c4.88,0,7.32,3,7.32,8.48v11.64h-3.8l-.32-2.16h-.16a9.56,9.56,0,0,1-6.08,2.64A5.49,5.49,0,0,1,123.56,177.49Zm11.56,0v-4.4c-5.36.68-7.12,2.08-7.12,4,0,1.76,1.2,2.52,2.84,2.52S133.64,178.85,135.12,177.49Z"/><path class="cls-2" d="M145.24,163.13H149l.32,2.64h.16c1.76-1.72,3.76-3.12,6.44-3.12,4.2,0,6,2.84,6,7.8v12.32h-4.6V171.05c0-3.24-.92-4.44-3.08-4.44-1.72,0-2.84.84-4.48,2.44v13.72h-4.6Z"/><path class="cls-2" d="M166.44,173c0-6.4,4-10.32,8.32-10.32a7.25,7.25,0,0,1,5.16,2.16l-.16-3.16v-7.12h4.6v28.24h-3.8l-.32-2.12h-.16a8.18,8.18,0,0,1-5.56,2.6C169.6,183.25,166.44,179.45,166.44,173Zm13.32,4.28v-9.16a5.86,5.86,0,0,0-4-1.64c-2.52,0-4.56,2.36-4.56,6.48s1.6,6.52,4.44,6.52A5.3,5.3,0,0,0,179.76,177.25Z"/><path class="cls-2" d="M76.91,195.87h4.2c4.8,0,7.63,2.59,7.63,7.77s-2.83,7.92-7.49,7.92H76.91Zm4,13.44c3.17,0,5-1.8,5-5.67s-1.8-5.52-5-5.52H79.69v11.19Z"/><path class="cls-2" d="M91.36,196.16a1.71,1.71,0,1,1,1.7,1.56A1.59,1.59,0,0,1,91.36,196.16Zm.31,3.62h2.76v11.78H91.67Z"/><path class="cls-2" d="M96.78,210.22l1.3-1.78a5.2,5.2,0,0,0,3.26,1.32c1.27,0,1.87-.6,1.87-1.41,0-1-1.27-1.42-2.52-1.9-1.56-.57-3.31-1.46-3.31-3.43s1.66-3.53,4.3-3.53a6.33,6.33,0,0,1,3.91,1.42l-1.27,1.68a4.41,4.41,0,0,0-2.59-1c-1.18,0-1.73.55-1.73,1.3,0,.93,1.17,1.29,2.45,1.75,1.6.6,3.38,1.37,3.38,3.57,0,2-1.61,3.65-4.58,3.65A7.44,7.44,0,0,1,96.78,210.22Z"/><path class="cls-2" d="M108.23,207.58V202h-1.68V199.9l1.82-.12.34-3.22H111v3.22h3V202h-3v5.62c0,1.39.53,2.06,1.66,2.06a3.4,3.4,0,0,0,1.22-.26l.48,2a7.36,7.36,0,0,1-2.4.43C109.24,211.85,108.23,210.12,108.23,207.58Z"/><path class="cls-2" d="M116.49,199.78h2.28l.19,2.09h.09a4,4,0,0,1,3.34-2.38,3,3,0,0,1,1.35.24l-.49,2.4a3.81,3.81,0,0,0-1.22-.19c-.94,0-2.06.65-2.78,2.42v7.2h-2.76Z"/><path class="cls-2" d="M125.13,196.16a1.71,1.71,0,1,1,1.7,1.56A1.59,1.59,0,0,1,125.13,196.16Zm.31,3.62h2.76v11.78h-2.76Z"/><path class="cls-2" d="M131,205.68a5.81,5.81,0,0,1,5.9-6.19,5.12,5.12,0,0,1,3.46,1.32l-1.34,1.8a2.91,2.91,0,0,0-2-.86c-1.9,0-3.22,1.56-3.22,3.93s1.3,3.92,3.15,3.92a3.93,3.93,0,0,0,2.42-1l1.13,1.82a5.9,5.9,0,0,1-3.84,1.44C133.43,211.85,131,209.6,131,205.68Z"/><path class="cls-2" d="M143,207.58V202H141.3V199.9l1.83-.12.33-3.22h2.31v3.22h3V202h-3v5.62c0,1.39.52,2.06,1.65,2.06a3.51,3.51,0,0,0,1.23-.26l.48,2a7.46,7.46,0,0,1-2.4.43C144,211.85,143,210.12,143,207.58Z"/><polygon class="cls-3" points="382.02 115.86 478.31 116.14 478.28 101.59 477.87 101.58 477.86 66.68 476.27 66.09 473.66 62.67 472.12 57.48 440.94 57.41 440.96 50.08 433.69 49.97 433.66 42.64 410.91 42.7 407.23 37.77 407.24 35.92 397.58 28.2 396.09 27.58 391.29 29.05 390.39 27.75 390.75 30.34 389.2 32.3 388.61 35.49 385.88 38.22 385.93 41.73 383.6 42.91 382.09 45.99 383.54 46.75 386 53.54 388.84 58.32 391.99 59.58 389.27 61.68 388.22 64.47 389.9 67.67 387.8 71.65 388.25 73.59 386.24 74.71 386.39 77.33 388.52 80.96 389.99 85.08 389.57 86.83 382.04 86.97 382.02 115.86"/><polygon class="cls-4" points="382.02 115.86 478.31 116.14 478.28 101.59 477.87 101.58 477.86 66.68 476.27 66.08 473.66 62.67 472.12 57.48 440.94 57.4 440.96 50.08 433.69 49.96 433.66 42.64 410.91 42.7 407.23 37.76 407.24 35.92 397.58 28.2 396.09 27.58 391.29 29.05 390.39 27.75 390.75 30.34 389.2 32.3 388.61 35.49 385.88 38.22 385.93 41.73 383.6 42.91 382.09 45.99 383.54 46.74 386 53.54 388.84 58.32 391.99 59.58 389.27 61.67 388.22 64.47 389.9 67.67 387.8 71.65 388.25 73.59 386.24 74.71 386.38 77.32 388.52 80.96 389.99 85.08 389.57 86.83 382.03 86.97 382.02 115.86"/><polygon class="cls-3" points="526.24 103.39 529.75 107.3 531.98 113.3 532.06 117.1 529.39 119.56 586.92 119.48 587.24 102.14 579.97 102.13 579.99 94.77 572.7 94.81 572.65 72.44 573.44 69.64 568 68.52 564.1 70.74 560.44 69.35 554.9 72.82 550.97 77.16 549.67 83.16 549.91 84.8 546.58 87.57 545.78 89.38 543.39 89.39 541.79 92.88 542.08 94.83 538.51 95.94 536.73 98.39 530.22 99.54 527.28 101.39 526.24 103.39"/><polygon class="cls-5" points="526.24 103.39 529.75 107.3 531.98 113.3 532.06 117.1 529.39 119.56 586.92 119.48 587.24 102.14 579.97 102.13 579.99 94.77 572.7 94.8 572.65 72.44 573.44 69.64 568 68.52 564.1 70.74 560.44 69.35 554.9 72.82 550.97 77.16 549.67 83.16 549.91 84.8 546.58 87.57 545.78 89.38 543.39 89.39 541.79 92.88 542.08 94.83 538.51 95.94 536.73 98.38 530.22 99.54 527.28 101.39 526.24 103.39"/><polygon class="cls-6" points="253.98 95.27 260.68 97.75 267.28 96.59 279.78 106.9 283.88 105.1 283.61 87.23 254.08 87.19 253.98 95.27"/><polygon class="cls-5" points="253.98 95.27 260.68 97.75 267.28 96.59 279.78 106.9 283.88 105.1 283.61 87.23 254.08 87.19 253.98 95.27"/><polygon class="cls-6" points="339.89 157.22 343.68 154.74 348.45 154.25 351.78 152.09 354.14 151.56 358.88 148.8 362.07 145.13 365.32 144.01 369.75 145.07 375.78 144.18 382.1 142.52 381.22 138.63 382.55 137.73 377.08 137.69 376.87 115.89 382.02 115.86 382.04 86.97 340.32 87.21 339.89 157.22"/><polygon class="cls-5" points="339.89 157.22 343.68 154.74 348.45 154.25 351.78 152.09 354.14 151.56 358.88 148.8 362.07 145.13 365.32 144.01 369.75 145.07 375.78 144.18 382.1 142.51 381.22 138.63 382.55 137.73 377.08 137.69 376.87 115.89 382.02 115.86 382.03 86.97 340.32 87.21 339.89 157.22"/><polygon class="cls-3" points="382.1 142.52 386.83 144.8 389.12 145.16 392.83 144.16 399.92 146.97 401.77 152.35 404.78 152.07 407.52 148.9 415.71 148.2 417.34 149.45 420.84 146.94 430.5 143.26 432.58 141.48 436.2 140.7 438.04 141.38 441.16 144.57 447.08 144.63 454.06 142.81 458.3 142.41 460.64 139.41 466.47 137.48 472.54 134.21 478.21 133.25 478.31 116.14 376.87 115.89 377.08 137.69 382.55 137.73 381.22 138.63 382.1 142.52"/><polygon class="cls-4" points="382.1 142.51 386.83 144.8 389.12 145.16 392.83 144.16 399.92 146.97 401.77 152.35 404.78 152.07 407.52 148.9 415.71 148.2 417.34 149.45 420.84 146.94 430.5 143.26 432.58 141.47 436.2 140.7 438.04 141.38 441.16 144.57 447.08 144.63 454.06 142.81 458.3 142.41 460.64 139.41 466.47 137.48 472.54 134.21 478.21 133.24 478.31 116.14 376.87 115.89 377.08 137.69 382.55 137.73 381.22 138.63 382.1 142.51"/><polygon class="cls-3" points="595.35 67 594.76 72.47 594.68 80 602 79.96 603.19 82.46 603.19 86.15 605.67 87.39 605.61 91.23 609.29 91.15 609.24 109.09 609.76 109.4 609.79 119.64 616.94 119.72 616.95 109.34 620.45 109.34 620.45 87.38 624.14 84.95 631.54 85.02 631.32 77.07 630.08 73.74 626.66 70.7 625.19 70.61 622.55 67.81 622.46 65.11 619.21 63.54 617.22 60.61 615.85 62.03 609.9 62.95 607.46 60.84 604.9 60.36 601.2 61.48 598.69 66.69 595.35 67"/><polygon class="cls-4" points="595.35 67 594.76 72.47 594.68 80 602 79.96 603.19 82.46 603.19 86.15 605.67 87.39 605.61 91.23 609.29 91.15 609.24 109.09 609.76 109.4 609.79 119.64 616.94 119.72 616.94 109.33 620.45 109.34 620.45 87.38 624.14 84.95 631.54 85.02 631.32 77.07 630.08 73.74 626.66 70.7 625.19 70.61 622.55 67.81 622.46 65.11 619.21 63.54 617.22 60.61 615.85 62.03 609.9 62.95 607.46 60.84 604.9 60.36 601.2 61.48 598.68 66.69 595.35 67"/><polygon class="cls-3" points="526.24 103.39 527.28 101.39 530.22 99.54 536.73 98.39 538.51 95.94 542.08 94.83 541.79 92.88 543.39 89.39 545.78 89.38 546.58 87.57 549.91 84.8 549.67 83.16 550.97 77.16 554.9 72.82 560.44 69.35 564.1 70.74 568 68.52 574.21 70.03 575.13 67.05 573.33 64.33 574.09 62.4 572.26 57.84 574.54 57.34 507.17 57.47 507.21 62.48 502.31 62.4 504.79 64.93 505.09 67.84 510.95 74.25 512.85 75.58 513.64 78.43 512.95 88.09 513.98 93.96 513.02 96.24 516.53 99.64 521.83 100.9 526.24 103.39"/><polygon class="cls-4" points="526.24 103.39 527.28 101.39 530.22 99.54 536.73 98.38 538.51 95.94 542.08 94.83 541.79 92.88 543.39 89.39 545.78 89.38 546.58 87.57 549.91 84.8 549.67 83.16 550.97 77.16 554.9 72.82 560.44 69.35 564.1 70.74 568 68.52 574.2 70.03 575.13 67.05 573.33 64.33 574.09 62.4 572.26 57.84 574.54 57.34 507.17 57.47 507.21 62.48 502.31 62.4 504.79 64.92 505.09 67.84 510.95 74.25 512.85 75.58 513.63 78.43 512.95 88.09 513.98 93.96 513.02 96.24 516.53 99.64 521.83 100.9 526.24 103.39"/><polygon class="cls-6" points="283.88 105.1 286.6 103.72 289.53 104.03 296.02 108.35 298.43 110.78 301.84 112.55 303.35 116.93 307.07 122.81 307.21 126.84 308.73 132.04 312.57 130.38 311.43 126.63 314.27 124.44 316.16 125.56 321.98 123.4 323.31 121.29 326.64 120.55 333.57 123.15 336.02 120.12 335.25 118.7 338.72 114.56 340.09 115.04 340.32 87.21 290.93 87 283.61 87.23 283.88 105.1"/><polygon class="cls-5" points="283.88 105.1 286.6 103.72 289.53 104.03 296.02 108.35 298.43 110.78 301.83 112.54 303.35 116.93 307.07 122.81 307.21 126.84 308.73 132.03 312.57 130.38 311.43 126.63 314.27 124.44 316.16 125.56 321.98 123.4 323.31 121.29 326.64 120.54 333.57 123.15 336.02 120.12 335.25 118.7 338.72 114.56 340.09 115.04 340.32 87.21 290.93 87 283.61 87.23 283.88 105.1"/><polygon class="cls-3" points="586.92 119.48 609.79 119.64 609.76 109.4 609.24 109.09 609.29 91.15 605.61 91.23 605.67 87.39 603.19 86.15 603.19 82.46 602 79.96 594.68 80 594.76 72.47 595.35 67 593.6 69.76 589.47 69.77 581.34 71.25 579.85 72.75 576.71 72.73 574.21 70.03 573.44 69.64 572.65 72.44 572.7 94.81 579.99 94.77 579.97 102.13 587.24 102.14 586.92 119.48"/><polygon class="cls-4" points="586.92 119.48 609.79 119.64 609.76 109.4 609.24 109.09 609.29 91.15 605.61 91.23 605.67 87.39 603.19 86.15 603.19 82.46 602 79.96 594.68 80 594.76 72.47 595.35 67 593.6 69.76 589.47 69.76 581.34 71.25 579.85 72.75 576.71 72.73 574.2 70.03 573.44 69.64 572.65 72.44 572.7 94.8 579.99 94.77 579.97 102.13 587.24 102.14 586.92 119.48"/><polygon class="cls-6" points="310.06 142.22 309.37 146.2 309.99 148.14 315.14 151.39 319.06 152.21 326.76 154.68 328.87 155.9 332.26 154.88 335.1 157.18 339.89 157.22 340.09 115.04 338.72 114.56 335.25 118.7 336.02 120.12 333.57 123.15 326.64 120.55 323.31 121.29 321.98 123.4 316.16 125.56 314.27 124.44 311.43 126.63 312.57 130.38 308.73 132.04 308.14 135.41 309.65 137.86 310.06 142.22"/><polygon class="cls-5" points="310.06 142.22 309.36 146.2 309.99 148.14 315.14 151.39 319.05 152.21 326.76 154.68 328.87 155.9 332.26 154.88 335.1 157.18 339.89 157.22 340.09 115.04 338.72 114.56 335.25 118.7 336.02 120.12 333.57 123.15 326.64 120.54 323.31 121.29 321.98 123.4 316.16 125.56 314.27 124.44 311.43 126.63 312.57 130.38 308.73 132.03 308.14 135.41 309.65 137.86 310.06 142.22"/><polygon class="cls-3" points="478.31 116.14 478.21 133.25 489.72 131.5 492.43 127.44 495.44 125.78 500.3 127.38 503.55 126.38 507.47 126.1 513.7 124.57 517.28 125.58 521.32 125.16 528.14 121.28 529.39 119.56 532.06 117.1 531.98 113.3 529.75 107.3 526.24 103.39 521.83 100.9 516.53 99.64 513.02 96.24 513.98 93.96 512.95 88.09 513.64 78.43 512.85 75.58 510.95 74.25 505.09 67.84 504.79 64.93 502.31 62.4 500.32 59.15 498.68 58.31 495.13 62.9 492.27 65.29 486.91 65.07 480.46 66.97 477.86 66.68 477.87 101.58 478.28 101.59 478.31 116.14"/><polygon class="cls-4" points="478.31 116.14 478.21 133.24 489.72 131.5 492.43 127.44 495.43 125.78 500.3 127.38 503.55 126.38 507.47 126.1 513.7 124.57 517.28 125.58 521.32 125.16 528.14 121.28 529.39 119.56 532.06 117.1 531.98 113.3 529.75 107.3 526.24 103.39 521.83 100.9 516.53 99.64 513.02 96.24 513.98 93.96 512.95 88.09 513.63 78.43 512.85 75.58 510.95 74.25 505.09 67.84 504.79 64.92 502.31 62.4 500.32 59.15 498.68 58.31 495.13 62.89 492.27 65.29 486.91 65.07 480.46 66.96 477.86 66.68 477.87 101.58 478.28 101.59 478.31 116.14"/><polygon class="cls-3" points="649.71 119.94 648.16 114.45 646.06 112.86 648.62 108.1 649.25 105.23 646.98 102.82 647.39 100.61 645.53 94.56 641.83 90.71 642.52 83.84 639.67 84.53 635.97 83.41 633.4 84.29 631.53 80.72 631.54 85.02 624.14 84.95 620.45 87.38 620.45 109.34 616.95 109.34 616.94 119.72 649.71 119.94"/><polygon class="cls-4" points="649.71 119.93 648.16 114.44 646.05 112.85 648.62 108.1 649.25 105.23 646.98 102.82 647.38 100.61 645.53 94.56 641.83 90.71 642.52 83.83 639.67 84.53 635.97 83.41 633.4 84.29 631.53 80.72 631.54 85.02 624.14 84.95 620.45 87.38 620.45 109.34 616.94 109.33 616.94 119.72 649.71 119.93"/><polygon class="cls-6" points="254.19 196.18 292.2 196.26 296.38 193.01 294.37 190.35 296.22 188.74 293.93 184.16 296.32 183.99 296.18 181.26 298.43 179.02 302.05 181.27 305 181.05 303.94 181.06 303.93 176.29 301.56 176.31 301.57 173.91 297.98 173.89 294.39 169.06 289.62 169.1 288.4 166.7 269.26 166.66 269.35 184.63 250.69 184.66 250.67 196.16 254.19 196.18"/><polygon class="cls-5" points="254.19 196.18 292.2 196.26 296.38 193.01 294.37 190.35 296.22 188.74 293.93 184.16 296.32 183.99 296.18 181.26 298.43 179.02 302.05 181.27 305 181.05 303.94 181.06 303.93 176.29 301.56 176.31 301.57 173.91 297.98 173.89 294.39 169.06 289.62 169.1 288.4 166.7 269.26 166.66 269.35 184.63 250.69 184.66 250.67 196.16 254.19 196.18"/><polygon class="cls-6" points="448.95 217.06 447.05 219.49 448.14 222.94 448.13 248.42 469.28 248.34 469.35 252.31 476.42 252.33 476.43 259.06 490.56 259.03 490.76 216.94 489.61 216.91 489.61 202.9 482.68 202.88 482.72 196.86 441.78 196.81 442.52 197.84 442.19 206.49 443 209.84 445.19 211.07 444.09 213.43 446.6 214.61 448.95 217.06"/><polygon class="cls-5" points="448.95 217.06 447.05 219.49 448.14 222.94 448.13 248.42 469.28 248.34 469.34 252.31 476.41 252.33 476.43 259.06 490.55 259.03 490.76 216.94 489.61 216.91 489.61 202.9 482.68 202.88 482.72 196.86 441.78 196.81 442.52 197.84 442.19 206.48 443 209.84 445.19 211.07 444.09 213.42 446.6 214.6 448.95 217.06"/><polygon class="cls-6" points="269.26 166.66 288.4 166.7 289.62 169.1 294.39 169.06 297.98 173.89 301.57 173.91 301.56 176.31 303.93 176.29 305.18 173.91 307.56 175.11 311.13 175.09 311.13 159.58 306.35 155.97 302.76 151.17 300.38 150.06 300.42 141.57 296.84 141.53 294.41 140.28 294.46 137.98 275.29 137.94 275.3 143.85 268.1 143.81 268.11 146.29 274.16 149.92 274.16 151.15 278.87 152.28 277.69 154.67 275.29 154.63 275.29 157.04 270.55 159.42 269.49 161.87 269.26 166.66"/><polygon class="cls-5" points="269.26 166.66 288.4 166.7 289.62 169.1 294.39 169.06 297.98 173.89 301.57 173.91 301.56 176.31 303.93 176.29 305.18 173.91 307.56 175.11 311.13 175.09 311.13 159.58 306.35 155.97 302.76 151.17 300.38 150.06 300.42 141.57 296.84 141.53 294.41 140.28 294.46 137.98 275.29 137.94 275.3 143.85 268.1 143.81 268.11 146.29 274.16 149.91 274.16 151.15 278.87 152.27 277.69 154.67 275.29 154.63 275.29 157.04 270.55 159.42 269.49 161.87 269.26 166.66"/><polygon class="cls-6" points="368.33 216.74 448.95 217.06 446.6 214.61 444.09 213.43 445.19 211.07 443 209.84 442.19 206.49 442.52 197.84 441.3 195.62 428.15 195.55 428.52 191.67 418.87 185.8 413.18 186.08 411.09 184.48 411.54 177.14 414.98 176.87 416 173.88 420.09 169.59 420.68 164.43 422 163.69 422.56 160.23 419.3 158.91 417.78 156.36 418.56 153.81 417.34 149.45 415.71 148.2 407.52 148.9 404.78 152.07 401.77 152.35 399.92 146.97 392.83 144.16 389.12 145.16 386.83 144.8 386.86 159.58 384.42 159.55 384.48 181.17 371.97 181.19 372.8 183.59 369.14 185.4 369.12 187.11 372.23 192.76 373.8 192.63 374.14 196.97 372.7 196.86 370.71 199.31 367.06 199.63 365.68 201.51 366.37 207.79 368.31 207.41 370.94 210.57 369.78 211.62 368.33 216.74"/><polygon class="cls-5" points="368.33 216.74 448.95 217.06 446.6 214.6 444.09 213.42 445.19 211.07 443 209.84 442.19 206.48 442.52 197.84 441.3 195.62 428.15 195.55 428.51 191.67 418.87 185.8 413.18 186.07 411.09 184.48 411.54 177.14 414.98 176.87 416 173.87 420.09 169.59 420.68 164.43 422 163.69 422.56 160.23 419.3 158.91 417.78 156.36 418.56 153.81 417.34 149.45 415.71 148.2 407.52 148.9 404.78 152.07 401.77 152.35 399.92 146.97 392.83 144.16 389.12 145.16 386.83 144.8 386.86 159.58 384.42 159.55 384.48 181.17 371.97 181.19 372.8 183.58 369.14 185.4 369.11 187.11 372.23 192.76 373.8 192.63 374.14 196.97 372.7 196.86 370.71 199.31 367.06 199.63 365.68 201.51 366.37 207.79 368.31 207.41 370.94 210.57 369.78 211.62 368.33 216.74"/><polygon class="cls-3" points="588.02 119.49 588.31 131.19 601.42 131.16 601.43 138.47 599.05 138.44 599.06 145.44 601.46 147.91 601.46 151.45 602.58 151.44 602.58 159.96 605.09 159.93 605.11 167.14 606.27 167.15 606.28 172.29 607.44 174.65 610.96 174.56 611 176.89 613.34 178.06 614.51 180.38 614.62 185.2 617.14 185.2 617.12 188.84 629.31 188.79 629.34 195.79 657.38 195.94 657.91 193.76 660.59 190.56 662.04 182.69 663.01 180.38 663.78 175.95 668.71 166.03 670.69 164.25 670.62 160.6 672.47 157.15 675.99 152.65 674.58 148.75 671.84 145.29 671.8 141.73 668.4 137.99 664.27 137.75 662.42 134.57 657.45 134.13 656.76 131.58 652.59 126.49 652.03 123.33 649.71 119.94 588.02 119.49"/><polygon class="cls-4" points="588.02 119.49 588.31 131.19 601.41 131.16 601.43 138.47 599.05 138.44 599.06 145.43 601.46 147.9 601.46 151.45 602.58 151.44 602.58 159.96 605.09 159.93 605.11 167.14 606.27 167.15 606.28 172.29 607.44 174.65 610.96 174.56 611 176.89 613.34 178.06 614.51 180.38 614.62 185.2 617.14 185.2 617.12 188.84 629.31 188.79 629.34 195.79 657.38 195.94 657.91 193.76 660.59 190.56 662.04 182.68 663.01 180.38 663.78 175.95 668.71 166.03 670.69 164.25 670.62 160.6 672.47 157.15 675.99 152.65 674.58 148.75 671.84 145.29 671.8 141.72 668.4 137.99 664.27 137.75 662.42 134.57 657.45 134.13 656.76 131.58 652.59 126.48 652.03 123.33 649.71 119.93 588.02 119.49"/><polygon class="cls-3" points="572.51 205.86 574.38 201.96 577.38 201.12 579.14 198.73 581.34 199.01 582.68 201.04 587.03 202.9 591.23 200.9 593.47 197.5 595.41 197.48 596.75 199.75 598.41 200.03 599.63 203.08 612.08 203.03 612.12 195.89 629.34 195.79 629.31 188.79 617.12 188.84 617.14 185.2 614.62 185.2 614.51 180.38 613.34 178.06 611 176.89 610.96 174.56 607.44 174.65 606.28 172.29 606.27 167.15 605.11 167.14 605.09 159.93 602.58 159.96 602.58 151.44 601.46 151.45 601.46 147.91 599.06 145.44 599.05 138.44 601.43 138.47 601.42 131.16 588.31 131.19 588.26 134.83 584.12 134.82 584.12 138.45 582.88 138.45 582.86 145.54 579.93 145.53 579.93 163.6 575.22 163.62 575.23 167.21 565.44 167.06 564.4 165.92 561.84 167.06 561.85 173.16 551.1 173.18 551.07 174.43 546.2 173.99 546.26 181.22 548.64 181.21 548.64 186.23 554.98 186.22 554.87 195.79 556.61 195.8 556.58 202.77 561.39 203.69 561.44 205.5 565.6 203.18 569.52 205.66 572.51 205.86"/><polygon class="cls-4" points="572.51 205.86 574.38 201.96 577.38 201.12 579.14 198.73 581.34 199.01 582.68 201.04 587.03 202.9 591.23 200.9 593.47 197.5 595.41 197.48 596.75 199.75 598.41 200.03 599.63 203.08 612.08 203.03 612.12 195.89 629.34 195.79 629.31 188.79 617.12 188.84 617.14 185.2 614.62 185.2 614.51 180.38 613.34 178.06 611 176.89 610.96 174.56 607.44 174.65 606.28 172.29 606.27 167.15 605.11 167.14 605.09 159.93 602.58 159.96 602.58 151.44 601.46 151.45 601.46 147.9 599.06 145.43 599.05 138.44 601.43 138.47 601.41 131.16 588.31 131.19 588.26 134.83 584.12 134.82 584.12 138.45 582.88 138.45 582.85 145.53 579.93 145.53 579.93 163.6 575.22 163.62 575.23 167.21 565.44 167.06 564.4 165.92 561.84 167.06 561.85 173.16 551.1 173.18 551.07 174.43 546.2 173.99 546.25 181.22 548.64 181.21 548.64 186.23 554.98 186.22 554.87 195.79 556.61 195.8 556.58 202.76 561.39 203.69 561.43 205.5 565.6 203.18 569.52 205.66 572.51 205.86"/><polygon class="cls-6" points="503.55 126.38 503.39 152.64 514.22 152.72 514.22 159.84 520.19 159.84 520.14 195.6 519.17 195.62 519.12 202.77 556.58 202.77 556.61 195.8 554.87 195.79 554.98 186.22 548.64 186.23 548.64 181.21 546.26 181.22 546.2 173.99 551.07 174.43 551.1 173.18 561.85 173.16 561.84 167.06 564.4 165.92 565.44 167.06 575.23 167.21 575.22 163.62 579.93 163.6 579.93 145.53 582.86 145.54 582.88 138.45 584.12 138.45 584.12 134.82 588.26 134.83 588.02 119.49 529.39 119.56 528.14 121.28 521.32 125.16 517.28 125.58 513.7 124.57 507.47 126.1 503.55 126.38"/><polygon class="cls-5" points="503.55 126.38 503.39 152.64 514.22 152.72 514.22 159.84 520.19 159.84 520.14 195.6 519.17 195.62 519.12 202.77 556.58 202.76 556.61 195.8 554.87 195.79 554.98 186.22 548.64 186.23 548.64 181.21 546.25 181.22 546.2 173.99 551.07 174.43 551.1 173.18 561.85 173.16 561.84 167.06 564.4 165.92 565.44 167.06 575.23 167.21 575.22 163.62 579.93 163.6 579.93 145.53 582.85 145.53 582.88 138.45 584.12 138.45 584.12 134.82 588.26 134.83 588.02 119.49 529.39 119.56 528.14 121.28 521.32 125.16 517.28 125.58 513.7 124.57 507.47 126.1 503.55 126.38"/><polygon class="cls-6" points="237.87 198.74 254.12 198.82 254.19 196.18 250.67 196.16 250.69 184.66 269.35 184.63 269.49 161.87 270.55 159.42 275.29 157.04 275.29 154.63 277.69 154.67 278.87 152.28 274.16 151.15 274.16 149.92 268.11 146.29 268.1 143.81 275.3 143.85 275.29 137.94 254.48 138.48 254.47 137.64 239.95 137.65 243.03 144.01 240.7 155.38 243.68 156.57 244.79 162.31 239.42 162.35 242.13 169.24 239.72 173.2 239.8 188.99 237.87 198.74"/><polygon class="cls-5" points="237.87 198.74 254.12 198.82 254.19 196.18 250.67 196.16 250.69 184.66 269.35 184.63 269.49 161.87 270.55 159.42 275.29 157.04 275.29 154.63 277.69 154.67 278.87 152.27 274.16 151.15 274.16 149.91 268.11 146.29 268.1 143.81 275.3 143.85 275.29 137.94 254.48 138.48 254.47 137.64 239.95 137.65 243.03 144.01 240.7 155.38 243.68 156.57 244.79 162.3 239.42 162.35 242.13 169.24 239.72 173.2 239.8 188.99 237.87 198.74"/><polygon class="cls-6" points="441.3 195.62 444.47 190.72 442.88 189.94 442.59 186.58 439.12 185.16 438.35 181.63 440.05 177.32 439.48 172.07 442.49 166.26 441.73 164.1 444.6 162.54 446.73 163.63 445.95 161.15 449.35 161.38 448.44 159.39 449.74 158.33 446.9 156.34 446.73 153.37 443.32 151.23 442.17 148.34 438.75 147.15 432.58 141.48 430.5 143.26 420.84 146.94 417.34 149.45 418.56 153.81 417.78 156.36 419.3 158.91 422.56 160.23 422 163.69 420.68 164.43 420.09 169.59 416 173.88 414.98 176.87 411.54 177.14 411.09 184.48 413.18 186.08 418.87 185.8 428.52 191.67 428.15 195.55 441.3 195.62"/><polygon class="cls-5" points="441.3 195.62 444.47 190.71 442.88 189.94 442.59 186.58 439.12 185.16 438.35 181.63 440.05 177.32 439.48 172.07 442.49 166.25 441.73 164.1 444.6 162.54 446.73 163.63 445.95 161.15 449.35 161.38 448.44 159.39 449.74 158.32 446.9 156.34 446.73 153.37 443.32 151.23 442.17 148.34 438.75 147.15 432.58 141.47 430.5 143.26 420.84 146.94 417.34 149.45 418.56 153.81 417.78 156.36 419.3 158.91 422.56 160.23 422 163.69 420.68 164.43 420.09 169.59 416 173.87 414.98 176.87 411.54 177.14 411.09 184.48 413.18 186.07 418.87 185.8 428.51 191.67 428.15 195.55 441.3 195.62"/><polygon class="cls-6" points="254.12 198.82 254.15 223.82 255.34 225.3 287.6 225.36 287.82 221.19 290.89 217.74 285.88 216.09 285.78 214.02 287.64 213.76 289.97 208.16 291.98 208.39 293.96 206.41 293.92 203.38 291.87 201.25 292.2 196.26 254.19 196.18 254.12 198.82"/><polygon class="cls-5" points="254.12 198.82 254.15 223.82 255.34 225.29 287.6 225.36 287.82 221.19 290.89 217.73 285.88 216.09 285.78 214.02 287.64 213.76 289.97 208.16 291.98 208.39 293.96 206.41 293.92 203.38 291.87 201.25 292.2 196.26 254.19 196.18 254.12 198.82"/><polygon class="cls-6" points="300.39 142.72 300.38 150.06 302.76 151.17 306.35 155.97 311.13 159.58 311.15 166.69 316.68 166.77 317.12 164.4 364.79 164.37 362.31 161.78 361.94 160 359.78 159.48 360.06 156.52 359.09 154.01 358.88 148.8 354.14 151.56 351.78 152.09 348.45 154.25 343.68 154.74 339.89 157.22 335.1 157.18 332.26 154.88 328.87 155.9 326.76 154.68 319.06 152.21 315.14 151.39 309.99 148.14 309.37 146.2 310.06 142.22 308.77 142.81 300.39 142.72"/><polygon class="cls-5" points="300.39 142.72 300.38 150.06 302.76 151.17 306.35 155.97 311.13 159.58 311.15 166.69 316.68 166.77 317.12 164.4 364.79 164.37 362.31 161.78 361.94 160 359.78 159.48 360.06 156.52 359.09 154.01 358.88 148.8 354.14 151.56 351.78 152.09 348.45 154.25 343.68 154.74 339.89 157.22 335.1 157.18 332.26 154.88 328.87 155.9 326.76 154.68 319.05 152.21 315.14 151.39 309.99 148.14 309.36 146.2 310.06 142.22 308.77 142.81 300.39 142.72"/><polygon class="cls-6" points="470.58 135.2 470.59 159.74 470.28 159.75 470.16 181.23 477.4 181.36 477.34 188.47 484.48 188.65 484.47 195.75 482.72 196.86 482.68 202.88 519.12 202.77 519.17 195.62 520.14 195.6 520.19 159.84 514.22 159.84 514.22 152.72 503.39 152.64 503.55 126.38 500.3 127.38 495.44 125.78 492.43 127.44 489.72 131.5 472.54 134.21 470.58 135.2"/><polygon class="cls-5" points="470.58 135.2 470.59 159.73 470.28 159.75 470.16 181.23 477.4 181.36 477.34 188.47 484.48 188.65 484.47 195.75 482.72 196.86 482.68 202.88 519.12 202.77 519.17 195.62 520.14 195.6 520.19 159.84 514.22 159.84 514.22 152.72 503.39 152.64 503.55 126.38 500.3 127.38 495.43 125.78 492.43 127.44 489.72 131.5 472.54 134.21 470.58 135.2"/><polygon class="cls-6" points="287.92 222.96 293.82 223.95 295.18 225.06 295.86 228.03 298.8 225.34 300.19 225.66 307.98 219.53 312.26 219.47 314.23 220.9 318.35 219.74 325.44 222.86 337.69 222.7 341.74 227.57 346.06 224.9 351.58 227.61 356.54 228.32 366.33 228.34 366.52 223.2 368.37 221.93 364.88 219.72 365.33 217.92 368.33 216.74 369.78 211.62 331.3 211.85 331.14 210.34 328.7 210.33 323.23 207.59 319.71 200.8 316.07 199.47 313.35 197.56 310.83 193.7 308.56 191.75 310.09 188.29 311.43 181.07 308.76 179.86 305.87 179.87 305 181.05 302.05 181.27 298.43 179.02 296.18 181.26 296.32 183.99 293.93 184.16 296.22 188.74 294.37 190.35 296.38 193.01 292.2 196.26 291.87 201.25 293.92 203.38 293.96 206.41 291.98 208.39 289.97 208.16 287.64 213.76 285.78 214.02 285.88 216.09 290.89 217.74 287.82 221.19 287.92 222.96"/><polygon class="cls-5" points="287.92 222.96 293.82 223.94 295.18 225.06 295.86 228.03 298.8 225.34 300.19 225.65 307.98 219.53 312.26 219.47 314.23 220.9 318.35 219.74 325.44 222.86 337.69 222.7 341.74 227.57 346.06 224.9 351.57 227.61 356.54 228.32 366.33 228.34 366.52 223.2 368.37 221.92 364.88 219.72 365.33 217.92 368.33 216.74 369.78 211.62 331.3 211.85 331.14 210.34 328.7 210.32 323.23 207.59 319.71 200.8 316.07 199.47 313.35 197.55 310.83 193.7 308.56 191.74 310.09 188.29 311.43 181.07 308.76 179.86 305.87 179.87 305 181.05 302.05 181.27 298.43 179.02 296.18 181.26 296.32 183.99 293.93 184.16 296.22 188.74 294.37 190.35 296.38 193.01 292.2 196.26 291.87 201.25 293.92 203.38 293.96 206.41 291.98 208.39 289.97 208.16 287.64 213.76 285.78 214.02 285.88 216.09 290.89 217.73 287.82 221.19 287.92 222.96"/><polygon class="cls-3" points="573.52 280.66 573.51 301.69 573.26 301.7 573.43 370.76 574.15 370.77 574.26 421.16 575.38 421.17 575.28 443.01 643.31 442.76 643.32 296.73 645.77 293.57 647.07 290.48 646.15 287.26 648.56 284.63 648.12 281.01 646.39 279.9 646.22 277.19 648.68 275.81 650.77 271.56 650.43 269.33 646.73 268.15 646.26 264.27 642.98 263.77 642.15 265.22 638.78 261.23 634.94 262.94 632.05 259.49 616.58 259.49 616.6 252.48 614.06 250.2 611.72 250.22 610.5 247.86 588.39 247.95 586.08 249.06 584.89 252.3 581.69 254.93 581.38 257.27 577.89 259.63 577.87 261.98 573.25 263.16 573.52 280.66"/><polygon class="cls-4" points="573.52 280.66 573.51 301.69 573.26 301.7 573.43 370.76 574.15 370.77 574.26 421.16 575.38 421.17 575.28 443.01 643.31 442.76 643.32 296.73 645.77 293.57 647.07 290.48 646.15 287.26 648.56 284.62 648.12 281.01 646.39 279.9 646.22 277.19 648.68 275.81 650.77 271.56 650.43 269.33 646.73 268.15 646.26 264.27 642.98 263.77 642.15 265.22 638.78 261.23 634.94 262.94 632.05 259.49 616.58 259.49 616.6 252.47 614.06 250.2 611.72 250.22 610.5 247.86 588.38 247.95 586.08 249.06 584.89 252.3 581.69 254.93 581.38 257.27 577.89 259.63 577.87 261.98 573.25 263.16 573.52 280.66"/><polygon class="cls-6" points="366.01 263 363.64 260.78 363.32 244.04 365.5 242 366.4 235.68 365.38 234.03 366.33 228.34 356.54 228.32 351.58 227.61 346.06 224.9 341.74 227.57 337.69 222.7 325.44 222.86 318.35 219.74 314.23 220.9 312.26 219.47 307.98 219.53 300.19 225.66 298.8 225.34 295.86 228.03 295.18 225.06 293.82 223.95 287.92 222.96 287.6 225.36 289.47 228.9 291.99 230.51 290.12 231.99 286.71 232.13 284.92 234.78 285.11 236.34 281.67 237.26 281.15 238.85 283.84 242.78 283.3 252.06 282.02 252.92 283.47 254.77 282.07 256.7 285.01 259.04 286.08 264.06 287.45 265.4 286.65 267.71 301.75 267.69 301.88 262.93 304.08 262.94 304.11 260.58 306.25 261.48 312.27 260.56 316.77 262.31 316.9 263.5 320.83 265.43 331.92 266.32 333.01 266.97 335.37 265.18 335.38 263.41 366.01 263"/><polygon class="cls-5" points="366.01 263 363.64 260.78 363.32 244.04 365.5 242 366.39 235.68 365.38 234.03 366.33 228.34 356.54 228.32 351.57 227.61 346.06 224.9 341.74 227.57 337.69 222.7 325.44 222.86 318.35 219.74 314.23 220.9 312.26 219.47 307.98 219.53 300.19 225.65 298.8 225.34 295.86 228.03 295.18 225.06 293.82 223.94 287.92 222.96 287.6 225.36 289.47 228.9 291.99 230.51 290.12 231.99 286.71 232.13 284.92 234.78 285.11 236.34 281.67 237.26 281.15 238.85 283.84 242.78 283.3 252.06 282.02 252.92 283.47 254.77 282.07 256.7 285.01 259.04 286.08 264.05 287.45 265.4 286.65 267.71 301.75 267.69 301.88 262.93 304.08 262.94 304.11 260.58 306.25 261.47 312.27 260.56 316.77 262.31 316.9 263.5 320.83 265.43 331.92 266.32 333.01 266.97 335.37 265.18 335.38 263.4 366.01 263"/><polygon class="cls-6" points="231.44 261.52 241.6 261.43 241.6 260.98 251.22 260.93 251.21 258.29 248.84 258.33 248.81 255.96 253.57 255.88 254.72 254.68 254.44 248.78 261.57 248.8 261.57 231 261.26 225.29 255.34 225.3 254.15 223.82 254.12 198.82 237.87 198.74 236.71 208.33 234.37 216.36 234.81 223.93 233.32 249.09 231.44 261.52"/><polygon class="cls-5" points="231.44 261.52 241.6 261.43 241.6 260.98 251.22 260.93 251.21 258.28 248.84 258.32 248.81 255.96 253.57 255.88 254.72 254.68 254.44 248.78 261.57 248.8 261.57 231 261.26 225.29 255.34 225.29 254.15 223.82 254.12 198.82 237.87 198.74 236.71 208.33 234.37 216.36 234.81 223.93 233.32 249.09 231.44 261.52"/><polygon class="cls-6" points="346.69 328.87 345.77 322.82 346.75 319.53 348.57 317.95 356.19 313.85 355.12 311.69 356.27 307.86 355.48 304.55 356.64 301.51 355.79 299.07 355.94 295.07 358.99 290.85 361.97 290.97 362.85 286.57 364.72 282.96 363.94 280.85 365.87 279.67 367.6 276.61 367.67 270.38 366.01 263 335.38 263.41 335.37 265.18 333.01 266.97 331.92 266.32 320.83 265.43 316.9 263.5 316.77 262.31 312.27 260.56 306.25 261.48 304.11 260.58 304.08 262.94 301.88 262.93 301.75 267.69 286.65 267.71 287.45 265.4 286.08 264.06 285.57 260.92 261.79 261.09 261.78 261.5 251.22 260.93 241.6 260.98 241.6 261.43 231.44 261.52 231.06 275.39 228.96 294.9 242.5 294.73 242.5 292.02 246.7 290.31 248.23 288.33 255.4 288.32 260.29 290.34 260.29 292.63 262.6 292.68 262.59 294.53 265.53 294.54 265.53 297.64 268.92 297.56 268.93 299.19 276.05 299.27 276.06 301.61 288.26 301.65 288.3 315.61 290.01 315.61 290.02 320.9 311.26 320.53 311.32 329.14 346.69 328.87"/><polygon class="cls-5" points="346.69 328.87 345.77 322.82 346.75 319.52 348.57 317.95 356.19 313.85 355.12 311.69 356.27 307.86 355.48 304.55 356.64 301.51 355.79 299.07 355.94 295.07 358.99 290.85 361.97 290.97 362.85 286.57 364.72 282.96 363.94 280.84 365.87 279.66 367.6 276.61 367.67 270.38 366.01 263 335.38 263.4 335.37 265.18 333.01 266.97 331.92 266.32 320.83 265.43 316.9 263.5 316.77 262.31 312.27 260.56 306.25 261.47 304.11 260.58 304.08 262.94 301.88 262.93 301.75 267.69 286.65 267.71 287.45 265.4 286.08 264.05 285.57 260.92 261.79 261.09 261.78 261.5 251.22 260.93 241.6 260.98 241.6 261.43 231.44 261.52 231.06 275.39 228.96 294.9 242.5 294.73 242.5 292.02 246.7 290.31 248.23 288.33 255.4 288.32 260.29 290.34 260.29 292.63 262.6 292.68 262.59 294.53 265.53 294.54 265.53 297.64 268.92 297.56 268.93 299.19 276.05 299.27 276.06 301.61 288.26 301.65 288.3 315.6 290.01 315.61 290.02 320.9 311.26 320.53 311.32 329.14 346.69 328.87"/><polygon class="cls-6" points="393.11 314.75 393.14 335.57 392.2 335.56 392.14 384.06 419.23 384.28 419.45 443.26 477.13 442.98 507.72 443.23 507.42 383.88 473.81 384.09 473.83 370.56 474.52 370.57 474.47 349.74 476.54 349.74 476.57 315.26 448.58 315.2 448.58 314.84 393.11 314.75"/><polygon class="cls-5" points="393.11 314.75 393.14 335.57 392.2 335.56 392.14 384.06 419.23 384.28 419.45 443.26 477.13 442.97 507.71 443.23 507.42 383.88 473.81 384.09 473.83 370.56 474.52 370.57 474.47 349.74 476.54 349.74 476.56 315.26 448.57 315.19 448.57 314.84 393.11 314.75"/><polygon class="cls-6" points="337.54 442.17 419.45 443.26 419.23 384.28 392.14 384.06 392.2 335.56 393.14 335.57 393.11 314.75 354.2 314.87 348.57 317.95 346.75 319.53 345.77 322.82 346.69 328.87 348.92 329.77 351.08 333.57 353.77 336.64 353.81 340.66 355.88 343.15 352.1 346.93 349.04 357.93 350.1 358.63 337.96 358.62 337.54 442.17"/><polygon class="cls-5" points="337.54 442.17 419.45 443.26 419.23 384.28 392.14 384.06 392.2 335.56 393.14 335.57 393.11 314.75 354.2 314.87 348.57 317.95 346.75 319.52 345.77 322.82 346.69 328.87 348.92 329.77 351.08 333.56 353.77 336.64 353.81 340.66 355.87 343.15 352.1 346.93 349.04 357.93 350.1 358.63 337.96 358.62 337.54 442.17"/><polygon class="cls-6" points="248.54 443.13 258.1 443.16 266.18 442.71 276.07 442.85 282.88 442.48 282.91 387.56 280.37 385.26 275 385.22 270.46 387.51 264.75 386.93 262.48 384.57 254.72 384.62 254.66 381.13 252.43 385.77 247.94 393.08 248.6 394.18 247.02 396.79 246.6 399.57 244.54 403.51 237.66 403.85 238.09 407.91 235.74 412.54 236.68 414.62 244.43 415.12 250.29 424.26 248.45 427.73 249.03 429.51 246.49 431.74 248.46 436.07 246.94 439.24 248.54 443.13"/><polygon class="cls-5" points="248.54 443.13 258.1 443.16 266.18 442.71 276.07 442.85 282.88 442.48 282.91 387.56 280.37 385.25 275 385.22 270.46 387.51 264.75 386.93 262.48 384.57 254.72 384.61 254.66 381.13 252.43 385.77 247.94 393.08 248.6 394.18 247.02 396.79 246.6 399.57 244.54 403.5 237.66 403.85 238.09 407.91 235.74 412.54 236.68 414.62 244.43 415.12 250.29 424.26 248.45 427.72 249.03 429.51 246.49 431.74 248.46 436.07 246.94 439.24 248.54 443.13"/><polygon class="cls-6" points="363.5 252.09 413.12 252.29 413.11 245.26 422.49 245.24 422.49 238.22 448.15 238.12 448.14 222.94 447.05 219.49 448.95 217.06 368.33 216.74 365.33 217.92 364.88 219.72 368.37 221.93 366.52 223.2 366.33 228.34 365.38 234.03 366.4 235.68 365.5 242 363.32 244.04 363.5 252.09"/><polygon class="cls-5" points="363.5 252.09 413.12 252.29 413.11 245.26 422.49 245.24 422.49 238.22 448.15 238.12 448.14 222.94 447.05 219.49 448.95 217.06 368.33 216.74 365.33 217.92 364.88 219.72 368.37 221.92 366.52 223.2 366.33 228.34 365.38 234.03 366.39 235.68 365.5 242 363.32 244.04 363.5 252.09"/><polygon class="cls-6" points="337.54 442.17 337.98 364.26 331.1 364.27 327.63 368.75 321.81 368.82 321.81 369.99 315.02 373.4 311.58 377.97 309.33 377.58 308.19 381.47 299.11 381.85 295.72 383.63 287.47 383.32 282.91 387.56 282.88 442.48 287.78 442.06 293.63 442.54 337.54 442.17"/><polygon class="cls-5" points="337.54 442.17 337.98 364.26 331.1 364.27 327.63 368.75 321.81 368.82 321.81 369.99 315.02 373.4 311.58 377.97 309.33 377.58 308.19 381.47 299.11 381.85 295.72 383.63 287.47 383.32 282.91 387.56 282.88 442.48 287.78 442.06 293.63 442.54 337.54 442.17"/><polygon class="cls-6" points="358.88 148.8 359.09 154.01 360.06 156.52 359.78 159.48 361.94 160 362.31 161.78 364.79 164.37 367.34 169.25 370.38 169.96 372.02 171.67 371.5 174.39 372.91 178.56 371.97 181.19 384.48 181.17 384.42 159.55 386.86 159.58 386.83 144.8 382.1 142.52 375.78 144.18 369.75 145.07 365.32 144.01 362.07 145.13 358.88 148.8"/><polygon class="cls-5" points="358.88 148.8 359.09 154.01 360.06 156.52 359.78 159.48 361.94 160 362.31 161.78 364.79 164.37 367.34 169.25 370.38 169.96 372.02 171.67 371.5 174.39 372.91 178.56 371.97 181.19 384.48 181.17 384.42 159.55 386.86 159.58 386.83 144.8 382.1 142.51 375.78 144.18 369.75 145.07 365.32 144.01 362.07 145.13 358.88 148.8"/><polygon class="cls-3" points="476.57 315.26 476.54 349.74 474.47 349.74 474.52 370.57 473.83 370.56 473.81 384.09 507.42 383.88 507.72 443.23 546.28 443.42 575.28 443.01 575.38 421.17 574.26 421.16 574.15 370.77 573.43 370.76 573.26 301.7 573.51 301.69 573.52 280.66 552.65 280.65 552.66 280.08 539.31 280.04 539.3 287.12 483.58 287.19 483.47 308.21 476.46 308.19 476.57 315.26"/><polygon class="cls-4" points="476.56 315.26 476.54 349.74 474.47 349.74 474.52 370.57 473.83 370.56 473.81 384.09 507.42 383.88 507.71 443.23 546.28 443.42 575.28 443.01 575.38 421.17 574.26 421.16 574.15 370.77 573.43 370.76 573.26 301.7 573.51 301.69 573.52 280.66 552.65 280.65 552.66 280.08 539.31 280.04 539.29 287.12 483.58 287.19 483.47 308.21 476.46 308.19 476.56 315.26"/><polygon class="cls-3" points="489.61 202.9 489.61 216.91 490.76 216.94 490.44 287.19 539.3 287.12 539.31 280.04 552.66 280.08 552.65 280.65 573.52 280.66 573.25 263.16 557.85 263.24 558.9 258.35 561.6 253.99 561.48 251.68 562.99 247.19 565.77 245.68 565.1 241.01 568.95 236.09 566.77 232.59 564.72 231.4 557.4 229.77 556.61 226.47 559.92 226.41 565.34 223.16 570.17 222.83 569.52 217.52 568.2 215.87 569.53 213.7 573.48 213.48 572.96 209.92 573.73 207.61 572.51 205.86 569.52 205.66 565.6 203.18 561.44 205.5 561.39 203.69 556.58 202.77 489.61 202.9"/><polygon class="cls-4" points="489.61 202.9 489.61 216.91 490.76 216.94 490.44 287.19 539.29 287.12 539.31 280.04 552.66 280.08 552.65 280.65 573.52 280.66 573.25 263.16 557.85 263.24 558.9 258.35 561.6 253.99 561.48 251.68 562.99 247.19 565.77 245.68 565.1 241.01 568.95 236.09 566.77 232.59 564.72 231.4 557.4 229.77 556.61 226.47 559.92 226.41 565.34 223.16 570.17 222.83 569.52 217.52 568.2 215.87 569.53 213.7 573.48 213.48 572.96 209.92 573.73 207.61 572.51 205.86 569.52 205.66 565.6 203.18 561.43 205.5 561.39 203.69 556.58 202.76 489.61 202.9"/><polygon class="cls-6" points="432.58 141.48 438.75 147.15 442.17 148.34 443.32 151.23 446.73 153.37 446.9 156.34 449.74 158.33 448.44 159.39 449.35 161.38 445.95 161.15 446.73 163.63 444.6 162.54 441.73 164.1 442.49 166.26 439.48 172.07 440.05 177.32 438.35 181.63 439.12 185.16 442.59 186.58 442.88 189.94 444.47 190.72 441.3 195.62 441.78 196.81 475.76 197.04 482.72 196.86 484.47 195.75 484.48 188.65 477.34 188.47 477.4 181.36 470.16 181.23 470.28 159.75 470.59 159.74 470.58 135.2 466.47 137.48 460.64 139.41 458.3 142.41 454.06 142.81 447.08 144.63 441.16 144.57 438.04 141.38 436.2 140.7 432.58 141.48"/><polygon class="cls-5" points="432.58 141.47 438.75 147.15 442.17 148.34 443.32 151.23 446.73 153.37 446.9 156.34 449.74 158.32 448.44 159.39 449.35 161.38 445.95 161.15 446.73 163.63 444.6 162.54 441.73 164.1 442.49 166.25 439.48 172.07 440.05 177.32 438.35 181.63 439.12 185.16 442.59 186.58 442.88 189.94 444.47 190.71 441.3 195.62 441.78 196.81 475.76 197.03 482.72 196.86 484.47 195.75 484.48 188.65 477.34 188.47 477.4 181.36 470.16 181.23 470.28 159.75 470.59 159.73 470.58 135.2 466.47 137.48 460.64 139.41 458.3 142.41 454.06 142.81 447.08 144.63 441.16 144.57 438.04 141.38 436.2 140.7 432.58 141.47"/><polygon class="cls-6" points="225.48 315.26 245.41 315.42 245.4 322.83 248.81 322.82 248.76 329.61 251.87 329.53 251.88 343.45 255.38 343.46 255.48 357.04 252.07 357.38 251.99 364.3 248.58 364.31 248.64 377.92 249.09 380.68 250.86 379.85 254.66 381.13 254.72 384.62 262.48 384.57 264.75 386.93 270.46 387.51 275 385.22 280.37 385.26 282.91 387.56 287.47 383.32 295.72 383.63 299.11 381.85 308.19 381.47 309.33 377.58 311.58 377.97 315.02 373.4 321.81 369.99 321.81 368.82 327.63 368.75 331.1 364.27 337.98 364.26 337.96 358.62 350.1 358.63 349.04 357.93 352.1 346.93 355.88 343.15 353.81 340.66 353.77 336.64 351.08 333.57 348.92 329.77 346.69 328.87 311.32 329.14 311.26 320.53 290.02 320.9 290.01 315.61 288.3 315.61 288.26 301.65 276.06 301.61 276.05 299.27 268.93 299.19 268.92 297.56 265.53 297.64 265.53 294.54 262.59 294.53 262.6 292.68 260.29 292.63 260.29 290.34 255.4 288.32 248.23 288.33 246.7 290.31 242.5 292.02 242.5 294.73 228.96 294.9 225.48 315.26"/><polygon class="cls-5" points="225.48 315.26 245.41 315.42 245.4 322.83 248.81 322.82 248.76 329.61 251.87 329.53 251.88 343.45 255.38 343.46 255.48 357.04 252.07 357.37 251.99 364.3 248.58 364.31 248.64 377.92 249.09 380.68 250.86 379.85 254.66 381.13 254.72 384.61 262.48 384.57 264.75 386.93 270.46 387.51 275 385.22 280.37 385.25 282.91 387.56 287.47 383.32 295.72 383.63 299.11 381.85 308.19 381.47 309.33 377.58 311.58 377.97 315.02 373.4 321.81 369.99 321.81 368.82 327.63 368.75 331.1 364.27 337.98 364.26 337.96 358.62 350.1 358.63 349.04 357.93 352.1 346.93 355.87 343.15 353.81 340.66 353.77 336.64 351.08 333.56 348.92 329.77 346.69 328.87 311.32 329.14 311.26 320.53 290.02 320.9 290.01 315.61 288.3 315.6 288.26 301.65 276.06 301.61 276.05 299.27 268.93 299.19 268.92 297.56 265.53 297.64 265.53 294.54 262.59 294.53 262.6 292.68 260.29 292.63 260.29 290.34 255.4 288.32 248.23 288.33 246.7 290.31 242.5 292.02 242.5 294.73 228.96 294.9 225.48 315.26"/><polygon class="cls-6" points="393.11 314.75 448.58 314.84 448.58 315.2 476.57 315.26 476.46 308.19 455.56 308.15 455.56 301.2 448.56 301.21 448.53 294.22 427.1 294.27 427.07 287.32 413.24 287.05 413.19 273.07 406.49 272.73 406.14 266.21 406.22 252.25 363.5 252.09 363.64 260.78 366.01 263 367.67 270.38 367.6 276.61 365.87 279.67 363.94 280.85 364.72 282.96 362.85 286.57 361.97 290.97 358.99 290.85 355.94 295.07 355.79 299.07 356.64 301.51 355.48 304.55 356.27 307.86 355.12 311.69 356.19 313.85 354.2 314.87 393.11 314.75"/><polygon class="cls-5" points="393.11 314.75 448.57 314.84 448.57 315.19 476.56 315.26 476.46 308.19 455.56 308.15 455.56 301.2 448.56 301.21 448.53 294.22 427.1 294.27 427.07 287.32 413.24 287.05 413.19 273.07 406.49 272.73 406.14 266.21 406.22 252.25 363.5 252.09 363.64 260.78 366.01 263 367.67 270.38 367.6 276.61 365.87 279.66 363.94 280.84 364.72 282.96 362.85 286.57 361.97 290.97 358.99 290.85 355.94 295.07 355.79 299.07 356.64 301.51 355.48 304.55 356.27 307.86 355.12 311.69 356.19 313.85 354.2 314.87 393.11 314.75"/><polygon class="cls-6" points="225.88 442.9 248.54 443.13 246.94 439.24 248.46 436.07 246.49 431.74 249.03 429.51 248.45 427.73 250.29 424.26 244.43 415.12 236.68 414.62 235.74 412.54 238.09 407.91 237.66 403.85 244.54 403.51 246.6 399.57 247.02 396.79 248.6 394.18 247.94 393.08 252.43 385.77 254.66 381.13 250.86 379.85 245.76 381.85 242.5 381.83 242.45 384.64 238.35 387.75 238.34 388.89 232.94 388.91 230.1 390.06 230.1 384.62 228.88 384.62 228.82 377.63 229.91 377.58 228.82 373.31 225.7 371.64 225.41 369.28 223.23 367.57 210.31 367.56 205.87 376.79 208.34 384.46 214.01 390.83 215.51 397.64 212.92 408.18 213.04 417.42 216.22 425.65 217.83 434.94 225.88 442.9"/><polygon class="cls-5" points="225.88 442.9 248.54 443.13 246.94 439.24 248.46 436.07 246.49 431.74 249.03 429.51 248.45 427.72 250.29 424.26 244.43 415.12 236.68 414.62 235.74 412.54 238.09 407.91 237.66 403.85 244.54 403.5 246.6 399.57 247.02 396.79 248.6 394.18 247.94 393.08 252.43 385.77 254.66 381.13 250.86 379.85 245.76 381.85 242.5 381.83 242.45 384.64 238.35 387.75 238.34 388.89 232.94 388.91 230.1 390.06 230.1 384.61 228.88 384.62 228.82 377.62 229.91 377.58 228.82 373.31 225.7 371.64 225.41 369.28 223.23 367.57 210.31 367.55 205.87 376.78 208.34 384.46 214.01 390.83 215.51 397.64 212.92 408.18 213.04 417.42 216.22 425.65 217.83 434.94 225.88 442.9"/><polygon class="cls-6" points="476.46 308.19 483.47 308.21 483.58 287.19 490.44 287.19 490.56 259.03 476.43 259.06 476.42 252.33 469.35 252.31 469.28 248.34 448.13 248.42 448.15 238.12 422.49 238.22 422.49 245.24 413.11 245.26 413.12 252.29 406.22 252.25 406.14 266.21 406.49 272.73 413.19 273.07 413.24 287.05 427.07 287.32 427.1 294.27 448.53 294.22 448.56 301.21 455.56 301.2 455.56 308.15 476.46 308.19"/><polygon class="cls-5" points="476.46 308.19 483.47 308.21 483.58 287.19 490.44 287.19 490.55 259.03 476.43 259.06 476.41 252.33 469.34 252.31 469.28 248.34 448.13 248.42 448.15 238.12 422.49 238.22 422.49 245.24 413.11 245.26 413.12 252.29 406.22 252.25 406.14 266.21 406.49 272.73 413.19 273.07 413.24 287.05 427.07 287.32 427.1 294.27 448.53 294.22 448.56 301.21 455.56 301.2 455.56 308.15 476.46 308.19"/><path class="cls-6" d="M218.94,335l5.83-7.39.47,2.54Zm-.27.2.27-.2-.42.52Zm0,0L216.31,337l-3.86,23.47-2.14,7.06h12.92l2.18,1.71.29,2.36,3.12,1.67,1.09,4.27-1.09.05.06,7h1.22v5.45l2.84-1.15,5.4,0v-1.14l4.1-3.11.05-2.81,3.26,0,3.33-1.17-.45-2.76-.06-13.61H252l.08-6.92,3.41-.34-.1-13.58h-3.5V329.53l-3.11.08.05-6.79H245.4v-7.41l-19.93-.16-4,13.94Z"/><polygon class="cls-5" points="218.67 335.21 216.31 337.03 212.45 360.5 210.31 367.55 223.23 367.57 225.41 369.28 225.7 371.64 228.82 373.31 229.91 377.58 228.82 377.62 228.88 384.62 230.1 384.61 230.1 390.06 232.94 388.91 238.34 388.89 238.35 387.75 242.45 384.64 242.5 381.83 245.76 381.85 249.09 380.68 248.64 377.92 248.58 364.31 251.99 364.3 252.07 357.37 255.48 357.04 255.38 343.46 251.88 343.45 251.87 329.53 248.76 329.61 248.81 322.82 245.4 322.83 245.41 315.42 225.48 315.26 221.5 329.2 218.67 335.21"/><polygon class="cls-5" points="218.67 335.21 218.94 335.01 218.52 335.53 218.67 335.21"/><polygon class="cls-5" points="218.94 335.01 224.77 327.62 225.24 330.16 218.94 335.01"/><polygon class="cls-6" points="275.13 107.57 275 116.21 275.45 116.23 275.29 137.94 294.46 137.98 294.41 140.28 296.84 141.53 300.42 141.57 300.39 142.72 308.77 142.81 310.06 142.22 309.65 137.86 308.14 135.41 308.73 132.04 307.21 126.84 307.07 122.81 303.35 116.93 301.84 112.55 298.43 110.78 296.02 108.35 289.53 104.03 286.6 103.72 283.88 105.1 282.95 107.79 275.13 107.57"/><polygon class="cls-5" points="275.13 107.56 275 116.21 275.45 116.23 275.29 137.94 294.46 137.98 294.41 140.28 296.84 141.53 300.42 141.57 300.39 142.72 308.77 142.81 310.06 142.22 309.65 137.86 308.14 135.41 308.73 132.03 307.21 126.84 307.07 122.81 303.35 116.93 301.83 112.54 298.43 110.78 296.02 108.35 289.53 104.03 286.6 103.72 283.88 105.1 282.95 107.79 275.13 107.56"/><polygon class="cls-6" points="275.29 137.94 275.45 116.23 275 116.21 275.13 107.57 267.18 99.85 262.15 103.8 254.19 105.3 251.86 102.55 243.93 105.64 237.55 100.72 242.02 113.39 241.8 121.45 238.61 123.97 240.05 127.25 239.95 137.65 254.47 137.64 254.48 138.48 275.29 137.94"/><polygon class="cls-5" points="275.29 137.94 275.45 116.23 275 116.21 275.13 107.56 267.18 99.84 262.15 103.8 254.19 105.3 251.86 102.55 243.93 105.64 237.55 100.72 242.02 113.39 241.8 121.45 238.61 123.97 240.05 127.25 239.95 137.65 254.47 137.64 254.48 138.48 275.29 137.94"/><polygon class="cls-6" points="305 181.05 305.87 179.87 308.76 179.86 311.43 181.07 310.09 188.29 308.56 191.75 310.83 193.7 313.35 197.56 316.07 199.47 319.71 200.8 323.23 207.59 328.7 210.33 331.14 210.34 331.3 211.85 369.78 211.62 370.94 210.57 368.31 207.41 366.37 207.79 365.68 201.51 367.06 199.63 370.71 199.31 372.7 196.86 374.14 196.97 373.8 192.63 372.23 192.76 369.12 187.11 369.14 185.4 372.8 183.59 371.97 181.19 372.91 178.56 371.5 174.39 372.02 171.67 370.38 169.96 367.34 169.25 364.79 164.37 317.12 164.4 316.68 166.77 311.15 166.69 311.13 175.09 307.56 175.11 305.18 173.91 303.93 176.29 303.94 181.06 305 181.05"/><polygon class="cls-5" points="305 181.05 305.87 179.87 308.76 179.86 311.43 181.07 310.09 188.29 308.56 191.74 310.83 193.7 313.35 197.55 316.07 199.47 319.71 200.8 323.23 207.59 328.7 210.32 331.14 210.34 331.3 211.85 369.78 211.62 370.94 210.57 368.31 207.41 366.37 207.79 365.68 201.51 367.06 199.63 370.71 199.31 372.7 196.86 374.14 196.97 373.8 192.63 372.23 192.76 369.11 187.11 369.14 185.4 372.8 183.58 371.97 181.19 372.91 178.56 371.5 174.39 372.02 171.67 370.38 169.96 367.34 169.25 364.79 164.37 317.12 164.4 316.68 166.77 311.15 166.69 311.13 175.09 307.56 175.11 305.18 173.91 303.93 176.29 303.94 181.06 305 181.05"/><polygon class="cls-6" points="285.57 260.92 285.01 259.04 282.07 256.7 283.47 254.77 282.02 252.92 283.3 252.06 283.84 242.78 281.15 238.85 281.67 237.26 285.11 236.34 284.92 234.78 286.71 232.13 290.12 231.99 291.99 230.51 289.47 228.9 287.6 225.36 261.26 225.29 261.57 231 261.57 248.8 254.44 248.78 254.72 254.68 253.57 255.88 248.81 255.96 248.84 258.33 251.21 258.29 251.22 260.93 261.78 261.5 261.79 261.09 285.57 260.92"/><polygon class="cls-5" points="285.57 260.92 285.01 259.04 282.07 256.7 283.47 254.77 282.02 252.92 283.3 252.06 283.84 242.78 281.15 238.85 281.67 237.26 285.11 236.34 284.92 234.78 286.71 232.13 290.12 231.99 291.99 230.51 289.47 228.9 287.6 225.36 261.26 225.29 261.57 231 261.57 248.8 254.44 248.78 254.72 254.68 253.57 255.88 248.81 255.96 248.84 258.32 251.21 258.28 251.22 260.93 261.78 261.5 261.79 261.09 285.57 260.92"/><polygon class="cls-3" points="573.25 263.16 577.87 261.98 577.89 259.63 581.38 257.27 581.69 254.93 584.89 252.3 586.08 249.06 588.39 247.95 610.5 247.86 611.72 250.22 614.06 250.2 616.6 252.48 616.58 259.49 632.05 259.49 633.8 256.76 631.17 253.6 630.73 251.76 632.33 249.26 631.81 244.67 636.45 239.62 639.26 229.91 642.26 223.33 648.62 220.16 650.66 215.51 652.65 213.06 654.59 207.94 653.1 203.87 653.67 200.58 657.38 195.94 612.12 195.89 612.08 203.03 599.63 203.08 598.41 200.03 596.75 199.75 595.41 197.48 593.47 197.5 591.23 200.9 587.03 202.9 582.68 201.04 581.34 199.01 579.14 198.73 577.38 201.12 574.38 201.96 572.51 205.86 573.73 207.61 572.96 209.92 573.48 213.48 569.53 213.7 568.2 215.87 569.52 217.52 570.17 222.83 565.34 223.16 559.92 226.41 556.61 226.47 557.4 229.77 564.72 231.4 566.77 232.59 568.95 236.09 565.1 241.01 565.77 245.68 562.99 247.19 561.48 251.68 561.6 253.99 558.9 258.35 557.85 263.24 573.25 263.16"/><polygon class="cls-4" points="573.25 263.16 577.87 261.98 577.89 259.63 581.38 257.27 581.69 254.93 584.89 252.3 586.08 249.06 588.38 247.95 610.5 247.86 611.72 250.22 614.06 250.2 616.6 252.47 616.58 259.49 632.05 259.49 633.8 256.76 631.17 253.6 630.73 251.76 632.33 249.26 631.81 244.66 636.45 239.62 639.26 229.9 642.26 223.33 648.62 220.16 650.66 215.51 652.65 213.06 654.59 207.94 653.1 203.87 653.67 200.58 657.38 195.94 612.12 195.89 612.08 203.03 599.63 203.08 598.41 200.03 596.75 199.75 595.41 197.48 593.47 197.5 591.23 200.9 587.03 202.9 582.68 201.04 581.34 199.01 579.14 198.73 577.38 201.12 574.38 201.96 572.51 205.86 573.73 207.61 572.96 209.92 573.48 213.48 569.53 213.7 568.2 215.87 569.52 217.52 570.17 222.83 565.34 223.16 559.92 226.41 556.61 226.47 557.4 229.77 564.72 231.4 566.77 232.59 568.95 236.09 565.1 241.01 565.77 245.68 562.99 247.19 561.48 251.68 561.6 253.99 558.9 258.35 557.85 263.24 573.25 263.16"/><path class="cls-7" d="M437.07,162.69c-.77-3.72.85-6.36,3.85-7s5.55,1.14,6.33,4.86-.83,6.47-3.85,7.09S437.85,166.43,437.07,162.69Zm8.06-1.68c-.53-2.57-2-3.9-3.84-3.52s-2.65,2.19-2.12,4.76,2.05,4,3.86,3.63S445.67,163.61,445.13,161Z"/><path class="cls-7" d="M448.37,154.38l3.89-.81c2.4-.49,4.41,0,4.94,2.54a3.31,3.31,0,0,1-1.6,3.78l3.75,4.24-2.29.47-3.43-4-1.76.36.94,4.52-2.05.42Zm4.8,4.63c1.57-.32,2.29-1.17,2-2.48s-1.23-1.6-2.8-1.27l-1.64.34.78,3.75Z"/><path class="cls-7" d="M458.8,152.21l6.94-1.44.36,1.73-4.9,1,.61,2.94,4.15-.86.36,1.73-4.15.86.71,3.4,5.08-1.05.36,1.72-7.12,1.48Z"/><path class="cls-7" d="M468.89,156.17c-.79-3.77,1.13-6.51,4.19-7.14a4.87,4.87,0,0,1,3.8.73l-.82,1.55a3.22,3.22,0,0,0-2.54-.52c-2,.43-3.09,2.3-2.55,4.89s2.09,4,4.4,3.48a2.55,2.55,0,0,0,1.55-.85l-.51-2.49-2.19.45-.35-1.67,4-.84,1.06,5.08a5.37,5.37,0,0,1-3.4,2.14C472.43,161.63,469.68,160,468.89,156.17Z"/><path class="cls-7" d="M479.94,153.78c-.78-3.72.84-6.35,3.84-7s5.55,1.15,6.33,4.87-.83,6.46-3.85,7.08S480.71,157.52,479.94,153.78Zm8.05-1.67c-.54-2.58-2-3.9-3.84-3.53s-2.65,2.19-2.12,4.76,2.05,4,3.86,3.63S488.53,154.7,488,152.11Z"/><path class="cls-7" d="M491.22,145.48l2.1-.44,4.95,5.74L500,153H500c-.33-1.16-.82-2.59-1.08-3.88l-1-5,1.95-.41,2.4,11.53-2.1.44-4.94-5.74-1.69-2.21-.07,0c.34,1.19.8,2.55,1.07,3.84l1.05,5-2,.41Z"/><path d="M406.41,127.42l2.07-.53,2.46,5.5c.5,1.17,1,2.35,1.48,3.5h.07c-.06-1.27-.13-2.57-.18-3.84l-.06-6.11,1.76-.44,2.86,5.4c.56,1.12,1.12,2.29,1.69,3.45l.07,0c-.14-1.27-.25-2.53-.39-3.78l-.46-6,1.93-.49.72,12-2.51.64L415,131c-.42-.84-.81-1.66-1.17-2.5l-.07,0c.06.91.11,1.82.14,2.76l.15,6.35-2.46.63Z"/><path d="M424.3,123.15l2.41-.46,6,10.84-2.16.41L429,131l-3.89.74-.3,3.31-2.09.4Zm1,6.88,2.95-.56-.67-1.34c-.61-1.15-1.2-2.41-1.78-3.62h-.07c-.07,1.35-.16,2.73-.29,4Z"/><path d="M432.93,132l1.05-1.55a4.69,4.69,0,0,0,3.19,1c1.33-.16,2-.83,1.87-1.74s-.9-1.18-2-1.51l-1.69-.51a3.39,3.39,0,0,1-2.72-2.84c-.21-1.86,1.26-3.48,3.55-3.74a5.22,5.22,0,0,1,3.77,1.06l-.9,1.45a3.89,3.89,0,0,0-2.66-.71c-1.11.13-1.78.74-1.68,1.59s1,1.15,2.05,1.43l1.67.48a3.29,3.29,0,0,1,2.73,2.89c.22,1.9-1.17,3.65-3.8,4A6.11,6.11,0,0,1,432.93,132Z"/><path d="M441.91,120.48l2-.38.88,4.65,4.69-.89-.88-4.65,2.05-.39,2.19,11.57-2.05.39-1-5.13-4.69.88,1,5.13-2,.39Z"/><path d="M453.37,118.26l2-.43,2.38,11.53-2,.42Z"/><path d="M458.2,117.25l2.09-.45,5,5.7,1.71,2.19.07,0c-.34-1.16-.84-2.58-1.11-3.87l-1.09-5,2-.43,2.49,11.51-2.09.45-5-5.69-1.71-2.19h-.07c.36,1.2.83,2.55,1.11,3.83l1.09,5-1.95.42Z"/><path d="M470.34,120.67c-.85-3.76,1-6.53,4.07-7.22a4.87,4.87,0,0,1,3.81.67l-.79,1.57a3.19,3.19,0,0,0-2.54-.48c-2,.46-3.05,2.35-2.47,4.93s2.16,3.92,4.46,3.41a2.58,2.58,0,0,0,1.53-.89l-.55-2.47-2.18.49L475.3,119l4-.9,1.14,5a5.39,5.39,0,0,1-3.36,2.2C474,126.06,471.2,124.48,470.34,120.67Z"/><path d="M482.92,113.54l-3.32.77-.4-1.72,8.67-2,.39,1.71-3.31.77,2.26,9.75-2,.47Z"/><path d="M490,116.07c-.88-3.7.67-6.38,3.65-7.08s5.58,1,6.45,4.68-.64,6.49-3.64,7.19S490.89,119.78,490,116.07Zm8-1.9c-.6-2.55-2.13-3.84-3.93-3.41s-2.59,2.26-2,4.82,2.16,3.94,4,3.52S498.62,116.75,498,114.17Z"/><path d="M501,107.47l2.08-.5,5.12,5.58L510,114.7l.07,0c-.37-1.15-.89-2.56-1.2-3.84l-1.2-5,1.94-.47,2.76,11.45-2.08.5-5.12-5.58-1.76-2.15h-.07c.38,1.19.88,2.53,1.19,3.81l1.21,5-1.95.46Z"/></g><g id="Layer_7" data-name="Layer 7"><polyline class="cls-8" points="254.08 87.19 253.98 95.27 259.6 97.35"/><polyline class="cls-8" points="261.37 97.63 267.28 96.59 271.91 100.41"/><polyline class="cls-8" points="275.15 103.08 279.78 106.9 285.21 104.36"/><polyline class="cls-9" points="294.36 107.24 296.02 108.35 298.43 110.78 301.83 112.54 303.35 116.93 307.07 122.81 307.21 126.84 308.73 132.03 308.14 135.41 309.65 137.86 310.06 142.22 309.36 146.2 309.99 148.14 315.14 151.39 318.46 152.08"/><polyline class="cls-8" points="323.37 153.59 326.76 154.68 328.87 155.9 332.26 154.88 335.1 157.18 337.45 157.2"/><polyline class="cls-10" points="349 153.9 351.78 152.09 354.14 151.56 358.88 148.8 362.07 145.13 365.32 144.01 369.75 145.07 382.1 142.51 388.42 144.9"/><polyline class="cls-8" points="394.34 144.76 399.92 146.97 401.77 152.35 404.78 152.07 406.73 149.81"/><polyline class="cls-8" points="411.78 148.53 415.71 148.2 417.34 149.45 420.84 146.94 422.42 146.34"/><polyline class="cls-8" points="436.59 140.85 438.04 141.38 441.16 144.57 447.08 144.63 447.15 144.61"/><polyline class="cls-8" points="452.38 143.25 454.06 142.81 458.3 142.41 460.64 139.41 462.73 138.72"/><polyline class="cls-11" points="469.52 135.83 472.54 134.21 480.14 133.01"/><polyline class="cls-8" points="483.8 132.44 489.72 131.5 492.43 127.44 495.43 125.78 500.3 127.38 501.14 127.12"/><polyline class="cls-12" points="509.17 125.68 513.7 124.57 517.28 125.58 521.19 125.17"/><polyline class="cls-8" points="524.77 123.19 528.14 121.28 529.39 119.56 535.39 119.57"/><polyline class="cls-13" points="547.43 119.59 616.94 119.72 637.69 119.86"/><line class="cls-8" x1="643.71" y1="119.9" x2="649.71" y2="119.93"/><polyline class="cls-8" points="588.26 122.2 588.26 134.83 584.12 134.82 584.12 138.45 582.88 138.45 582.85 145.53 579.93 145.53 579.93 163.6 575.22 163.62 575.23 167.21 565.44 167.06 561.84 167.06 561.85 173.16 551.1 173.18 551.07 174.43 546.2 173.99 546.25 181.22 548.64 181.21 548.64 186.23 554.98 186.22 554.87 195.79 556.61 195.8 556.58 202.76 489.61 202.9 489.61 216.91 490.76 216.94 490.44 287.19 483.58 287.19 483.47 308.21 476.46 308.19 476.54 349.74 474.47 349.74 474.52 370.57 473.81 371.7 473.81 384.09 507.42 383.88 507.71 443.23"/></g><g id="Layer_6" data-name="Layer 6"><circle class="cls-14" cx="314.53" cy="163.3" r="29.28"/><circle class="cls-7" cx="314.53" cy="163.3" r="9.02"/><path class="cls-15" d="M670.68,296.43h3.77c2.43,0,4.21.74,4.21,2.9a2.65,2.65,0,0,1-1.64,2.56V302a2.69,2.69,0,0,1,2.25,2.79c0,2.36-1.93,3.46-4.52,3.46h-4.07Zm3.58,4.86c1.64,0,2.35-.64,2.35-1.65s-.78-1.59-2.31-1.59h-1.53v3.24Zm.27,5.3c1.73,0,2.71-.63,2.71-1.95s-.94-1.78-2.71-1.78h-1.76v3.73Z"/><path class="cls-15" d="M680.67,303.8c0-3,2-4.65,4.2-4.65s4.21,1.69,4.21,4.65a4.22,4.22,0,1,1-8.41,0Zm6.29,0c0-1.78-.8-3-2.09-3s-2.07,1.18-2.07,3,.77,2.93,2.07,2.93S687,305.56,687,303.8Z"/><path class="cls-15" d="M690.9,296.65a1.28,1.28,0,1,1,1.27,1.17A1.19,1.19,0,0,1,690.9,296.65Zm.23,2.72h2.07v8.84h-2.07Z"/><path class="cls-15" d="M695,307.2l1-1.33a3.92,3.92,0,0,0,2.44,1c1,0,1.41-.45,1.41-1.06s-1-1.07-1.89-1.43c-1.17-.43-2.49-1.1-2.49-2.57s1.25-2.65,3.23-2.65a4.82,4.82,0,0,1,2.93,1.06l-1,1.27a3.27,3.27,0,0,0-2-.76c-.88,0-1.29.41-1.29,1s.88,1,1.83,1.32c1.21.45,2.54,1,2.54,2.68,0,1.51-1.21,2.74-3.44,2.74A5.65,5.65,0,0,1,695,307.2Z"/><path class="cls-15" d="M703,303.8c0-2.88,2-4.65,4.07-4.65,2.39,0,3.65,1.73,3.65,4.2a4.53,4.53,0,0,1-.09,1H705a2.53,2.53,0,0,0,2.61,2.46,3.67,3.67,0,0,0,2.06-.65l.7,1.3a5.59,5.59,0,0,1-3,1A4.27,4.27,0,0,1,703,303.8ZM709,303c0-1.37-.59-2.2-1.8-2.2A2.22,2.22,0,0,0,705,303Z"/><path class="cls-15" d="M663.83,318H667c3.6,0,5.73,2,5.73,5.84s-2.13,5.94-5.62,5.94h-3.26Zm3,10.09c2.38,0,3.73-1.35,3.73-4.25s-1.35-4.14-3.73-4.14h-.92v8.39Z"/><path class="cls-15" d="M674.67,318.25a1.28,1.28,0,1,1,1.28,1.17A1.19,1.19,0,0,1,674.67,318.25Zm.23,2.72H677v8.84H674.9Z"/><path class="cls-15" d="M678.74,328.8l1-1.33a3.94,3.94,0,0,0,2.45,1c1,0,1.4-.45,1.4-1.06s-.95-1.07-1.89-1.43c-1.17-.43-2.48-1.09-2.48-2.57s1.24-2.65,3.22-2.65a4.82,4.82,0,0,1,2.93,1.06l-1,1.26a3.27,3.27,0,0,0-1.94-.75c-.89,0-1.3.41-1.3,1s.88,1,1.84,1.32c1.2.45,2.53,1,2.53,2.68,0,1.51-1.2,2.73-3.44,2.73A5.59,5.59,0,0,1,678.74,328.8Z"/><path class="cls-15" d="M687.32,326.82v-4.21h-1.26v-1.55l1.37-.09.25-2.41h1.73V321h2.25v1.64h-2.25v4.21c0,1,.4,1.55,1.24,1.55a2.48,2.48,0,0,0,.92-.2l.36,1.53a5.69,5.69,0,0,1-1.8.32C688.08,330,687.32,328.73,687.32,326.82Z"/><path class="cls-15" d="M693.51,321h1.71l.15,1.56h.07a3,3,0,0,1,2.5-1.78,2.34,2.34,0,0,1,1,.18l-.36,1.8a2.87,2.87,0,0,0-.92-.14c-.7,0-1.55.48-2.09,1.82v5.4h-2.07Z"/><path class="cls-15" d="M700,318.25a1.29,1.29,0,1,1,1.28,1.17A1.19,1.19,0,0,1,700,318.25Zm.24,2.72h2.07v8.84h-2.07Z"/><path class="cls-15" d="M704.37,325.4a4.36,4.36,0,0,1,4.43-4.65,3.8,3.8,0,0,1,2.59,1l-1,1.35a2.19,2.19,0,0,0-1.47-.65c-1.43,0-2.42,1.17-2.42,3s1,2.93,2.36,2.93a3,3,0,0,0,1.82-.75l.85,1.36a4.38,4.38,0,0,1-2.88,1.08C706.22,330,704.37,328.33,704.37,325.4Z"/><path class="cls-15" d="M713.39,326.82v-4.21h-1.26v-1.55l1.36-.09.26-2.41h1.72V321h2.26v1.64h-2.26v4.21c0,1,.4,1.55,1.25,1.55a2.57,2.57,0,0,0,.92-.2l.35,1.53a5.62,5.62,0,0,1-1.79.32C714.14,330,713.39,328.73,713.39,326.82Z"/><path class="cls-15" d="M663.81,65.35,665,63.93a4.7,4.7,0,0,0,3.06,1.33c1.33,0,2-.59,2-1.51s-.75-1.28-1.82-1.73l-1.62-.7a3.4,3.4,0,0,1-2.37-3.14c0-1.87,1.65-3.31,4-3.31a5.2,5.2,0,0,1,3.62,1.5l-1.06,1.33a3.85,3.85,0,0,0-2.56-1c-1.12,0-1.86.52-1.86,1.39s.9,1.26,1.88,1.65l1.6.67a3.29,3.29,0,0,1,2.38,3.19c0,1.9-1.59,3.49-4.24,3.49A6.07,6.07,0,0,1,663.81,65.35Z"/><path class="cls-15" d="M673.67,62.45c0-2.88,2-4.64,4.07-4.64,2.39,0,3.65,1.72,3.65,4.19a4.46,4.46,0,0,1-.09,1h-5.61a2.53,2.53,0,0,0,2.61,2.47,3.74,3.74,0,0,0,2.05-.65l.7,1.29a5.58,5.58,0,0,1-3,1A4.26,4.26,0,0,1,673.67,62.45Zm5.92-.84c0-1.37-.59-2.2-1.8-2.2a2.22,2.22,0,0,0-2.12,2.2Z"/><path class="cls-15" d="M682.69,64.49c0-1.89,1.56-2.88,5.2-3.28,0-.94-.41-1.73-1.62-1.73a5.17,5.17,0,0,0-2.49.86L683,59a6.92,6.92,0,0,1,3.64-1.15c2.19,0,3.29,1.35,3.29,3.81v5.24h-1.71l-.14-1H688a4.27,4.27,0,0,1-2.73,1.19A2.47,2.47,0,0,1,682.69,64.49Zm5.2,0v-2c-2.41.3-3.2.93-3.2,1.81s.54,1.14,1.27,1.14A2.83,2.83,0,0,0,687.89,64.49Z"/><path class="cls-15" d="M692.46,63.87V59.66H691.2V58.11l1.37-.09.25-2.41h1.73V58h2.25v1.64h-2.25v4.21c0,1.05.4,1.55,1.24,1.55a2.48,2.48,0,0,0,.92-.2l.36,1.53a5.45,5.45,0,0,1-1.8.33C693.22,67.08,692.46,65.78,692.46,63.87Z"/><path class="cls-15" d="M698.6,63.87V59.66h-1.26V58.11l1.37-.09.25-2.41h1.73V58h2.25v1.64h-2.25v4.21c0,1.05.39,1.55,1.24,1.55a2.48,2.48,0,0,0,.92-.2l.36,1.53a5.45,5.45,0,0,1-1.8.33C699.36,67.08,698.6,65.78,698.6,63.87Z"/><path class="cls-15" d="M704.79,64.59V54.15h2.07V64.7c0,.51.24.69.45.69a1.19,1.19,0,0,0,.33,0l.27,1.55a2.85,2.85,0,0,1-1.1.18C705.33,67.08,704.79,66.12,704.79,64.59Z"/><path class="cls-15" d="M709.09,62.45c0-2.88,2-4.64,4.07-4.64,2.4,0,3.66,1.72,3.66,4.19a5.14,5.14,0,0,1-.09,1h-5.62a2.53,2.53,0,0,0,2.61,2.47,3.71,3.71,0,0,0,2-.65l.7,1.29a5.53,5.53,0,0,1-3,1A4.26,4.26,0,0,1,709.09,62.45Zm5.93-.84c0-1.37-.6-2.2-1.8-2.2a2.22,2.22,0,0,0-2.13,2.2Z"/><path class="cls-15" d="M663.83,76.69H667c3.6,0,5.73,1.94,5.73,5.83s-2.13,5.94-5.62,5.94h-3.26Zm3,10.08c2.38,0,3.73-1.35,3.73-4.25s-1.35-4.14-3.73-4.14h-.92v8.39Z"/><path class="cls-15" d="M674.67,76.9a1.28,1.28,0,0,1,2.55,0,1.28,1.28,0,0,1-2.55,0Zm.23,2.72H677v8.84H674.9Z"/><path class="cls-15" d="M678.74,87.45l1-1.33a3.94,3.94,0,0,0,2.45,1c1,0,1.4-.45,1.4-1.06s-.95-1.06-1.89-1.42c-1.17-.43-2.48-1.1-2.48-2.58s1.24-2.64,3.22-2.64a4.76,4.76,0,0,1,2.93,1.06l-1,1.26a3.28,3.28,0,0,0-1.94-.76c-.89,0-1.3.42-1.3,1s.88,1,1.84,1.31c1.2.45,2.53,1,2.53,2.68s-1.2,2.74-3.44,2.74A5.53,5.53,0,0,1,678.74,87.45Z"/><path class="cls-15" d="M687.32,85.47V81.26h-1.26V79.71l1.37-.09.25-2.41h1.73v2.41h2.25v1.64h-2.25v4.21c0,1,.4,1.55,1.24,1.55a2.48,2.48,0,0,0,.92-.2l.36,1.53a5.4,5.4,0,0,1-1.8.33C688.08,88.68,687.32,87.38,687.32,85.47Z"/><path class="cls-15" d="M693.51,79.62h1.71l.15,1.57h.07a3,3,0,0,1,2.5-1.78,2.2,2.2,0,0,1,1,.18l-.36,1.8a2.86,2.86,0,0,0-.92-.15c-.7,0-1.55.49-2.09,1.82v5.4h-2.07Z"/><path class="cls-15" d="M700,76.9a1.29,1.29,0,1,1,1.28,1.17A1.19,1.19,0,0,1,700,76.9Zm.24,2.72h2.07v8.84h-2.07Z"/><path class="cls-15" d="M704.37,84.05a4.36,4.36,0,0,1,4.43-4.64,3.8,3.8,0,0,1,2.59,1l-1,1.35a2.14,2.14,0,0,0-1.47-.65c-1.43,0-2.42,1.17-2.42,3s1,2.94,2.36,2.94a3,3,0,0,0,1.82-.76l.85,1.37a4.43,4.43,0,0,1-2.88,1.08C706.22,88.68,704.37,87,704.37,84.05Z"/><path class="cls-15" d="M713.39,85.47V81.26h-1.26V79.71l1.36-.09.26-2.41h1.72v2.41h2.26v1.64h-2.26v4.21c0,1,.4,1.55,1.25,1.55a2.57,2.57,0,0,0,.92-.2l.35,1.53a5.34,5.34,0,0,1-1.79.33C714.14,88.68,713.39,87.38,713.39,85.47Z"/></g></svg>