<?xml version="1.0" encoding="utf-8"?>
<!-- Generator: Adobe Illustrator 25.4.1, SVG Export Plug-In . SVG Version: 6.00 Build 0)  -->
<svg version="1.1" id="Layer_1" xmlns="http://www.w3.org/2000/svg" xmlns:xlink="http://www.w3.org/1999/xlink" x="0px" y="0px"
	 viewBox="0 0 784.06 507.87" style="enable-background:new 0 0 784.06 507.87;" xml:space="preserve">
<style type="text/css">
	.st0{fill:#E6E6E6;}
	.st1{clip-path:url(#SVGID_00000020358569200530412880000009456416873780996999_);}
	.st2{fill:none;stroke:#F0F0F0;stroke-width:2.54;stroke-miterlimit:10;}
	.st3{fill:#F0F0F0;}
	.st4{opacity:0.8;fill:#007DBC;enable-background:new    ;}
	.st5{fill:none;stroke:#0675AF;stroke-width:0.64;stroke-linejoin:bevel;}
	.st6{fill-rule:evenodd;clip-rule:evenodd;fill:#FFFFFF;}
	.st7{fill:none;}
	.st8{fill:none;stroke:#E6E6E6;stroke-width:0.64;stroke-linecap:square;stroke-linejoin:bevel;}
	.st9{enable-background:new    ;}
	.st10{fill:#007DBC;}
	.st11{fill:none;stroke:#FFFFFF;stroke-width:3;stroke-miterlimit:10;}
	.st12{fill:#FFFFFF;}
</style>
<g id="Layer_1_00000160150194437872270050000016181209706529692067_">
	<rect x="-10.43" y="-11.06" class="st0" width="804.92" height="529.99"/>
</g>
<g id="Layer_2_00000151534936756788169450000010282485797903252907_">
	<g>
		<defs>
			<rect id="SVGID_1_" x="-38.97" y="-52.06" width="792" height="612"/>
		</defs>
		<clipPath id="SVGID_00000128456320821026824880000013970086186852249762_">
			<use xlink:href="#SVGID_1_"  style="overflow:visible;"/>
		</clipPath>
		<g style="clip-path:url(#SVGID_00000128456320821026824880000013970086186852249762_);">
			<polygon class="st2" points="503.54,380.61 501.45,387.04 494.69,387.04 500.16,391.01 498.07,397.44 503.54,393.46 509,397.44 
				506.91,391.01 512.39,387.04 505.62,387.04 			"/>
			<rect x="468.41" y="398.78" class="st3" width="69.88" height="21.6"/>
			<polygon class="st4" points="202.24,176.27 238.9,176.18 238.98,165.51 265.58,165.57 267.82,163.53 270.77,149.6 270.81,122.85 
				205.81,122.63 208.62,128.1 212.74,147.34 210.42,150.85 208.99,158.96 205.09,158.19 205.88,161.57 202.94,167.44 			"/>
			<polygon class="st5" points="202.24,176.27 238.89,176.18 238.98,165.51 265.58,165.57 267.82,163.53 270.77,149.6 
				270.81,122.85 205.81,122.63 208.62,128.1 212.74,147.34 210.42,150.85 208.99,158.96 205.09,158.19 205.88,161.57 
				202.94,167.44 			"/>
			<polygon class="st4" points="338.18,265.92 340,270.93 338.29,279.62 342.23,281.62 349.18,280.64 347.53,275.45 343.14,272.31 
				349.92,272.48 353.41,279.11 350.93,287.57 345.22,292.52 349.53,294.86 360.17,294.21 367.41,291.48 370.25,295.92 
				372.56,303.56 375.25,304.24 373.62,298.65 382.21,287.34 385.33,272.25 388.6,262.45 340.83,262.42 			"/>
			<polygon class="st4" points="329.1,260.07 333.98,260.09 338.61,263.02 340.09,259.62 337.98,256.92 331.82,256.98 			"/>
			<polygon class="st5" points="338.18,265.92 340,270.93 338.29,279.62 342.23,281.62 349.18,280.64 347.53,275.45 343.14,272.31 
				349.91,272.48 353.41,279.11 350.93,287.57 345.22,292.52 349.53,294.86 360.17,294.21 367.41,291.48 370.25,295.92 
				372.56,303.56 375.25,304.24 373.62,298.65 382.21,287.34 385.32,272.25 388.6,262.45 340.83,262.41 			"/>
			<polygon class="st5" points="329.09,260.07 333.98,260.09 338.61,263.02 340.08,259.62 337.98,256.92 331.82,256.98 			"/>
			<polygon class="st4" points="340.76,58.84 344.98,58.85 345.07,69.32 360.7,69.34 365.93,65.6 365.57,55.67 371.12,47.82 
				371.66,34.82 374.56,32.6 374.79,25.79 377.82,23.85 379.39,17.15 361.68,17.03 361.5,20.11 357.13,25.77 353.83,32.73 
				348.14,35.62 344.37,44.04 344.95,48.78 340.63,54.5 			"/>
			<polygon class="st5" points="340.76,58.84 344.98,58.85 345.07,69.31 360.7,69.34 365.93,65.6 365.57,55.67 371.12,47.82 
				371.66,34.82 374.56,32.6 374.79,25.79 377.82,23.85 379.39,17.15 361.68,17.03 361.5,20.11 357.13,25.77 353.83,32.73 
				348.14,35.62 344.37,44.04 344.95,48.78 340.63,54.5 			"/>
			<polygon class="st4" points="356.57,323.02 359.87,325.69 374.55,344.01 392.14,343.92 390.89,342 383.79,341.84 381.83,339.79 
				386.15,332.4 386.43,321.81 385.17,319.9 379.63,322.04 381.34,318.19 379.18,313.94 375.15,313.88 376,304.67 372.56,303.56 
				374.78,304.61 369.01,312.07 365.55,314.39 363.86,321.29 356.92,321.37 			"/>
			<polygon class="st5" points="356.57,323.02 359.87,325.69 374.55,344.01 392.14,343.91 390.89,342 383.79,341.84 381.83,339.79 
				386.15,332.4 386.42,321.82 385.17,319.9 379.63,322.04 381.34,318.19 379.18,313.94 375.15,313.88 376,304.66 372.56,303.56 
				374.78,304.6 369.01,312.07 365.55,314.39 363.86,321.29 356.91,321.37 			"/>
			<polygon class="st4" points="160.85,90.46 174.95,90.47 174.95,85.06 184.25,84.93 181.73,76.18 180.96,68.98 181.49,63.14 
				180.14,52.74 174.88,52.8 174.75,15.56 145.47,15.48 144.47,19.9 146.29,25.3 149.62,26.79 149.6,31.26 152.82,33.87 
				150.36,44.57 153.38,47.27 153.19,79.67 153.74,90.44 			"/>
			<polygon class="st5" points="160.85,90.46 174.95,90.47 174.95,85.06 184.25,84.93 181.73,76.18 180.96,68.98 181.49,63.14 
				180.14,52.74 174.88,52.8 174.75,15.56 145.47,15.48 144.47,19.9 146.29,25.3 149.62,26.79 149.6,31.26 152.82,33.87 
				150.36,44.56 153.38,47.27 153.19,79.67 153.74,90.44 			"/>
			<polygon class="st4" points="474.56,262.27 474.61,273.78 477.7,275.53 480.12,285.71 483.33,290.66 484.05,297.13 
				511.16,302.75 526.91,302.68 527.65,290.22 533.14,282.73 534.04,274.81 536.98,271.73 535.87,269.1 538.76,262.06 			"/>
			<polygon class="st5" points="474.56,262.27 474.61,273.78 477.7,275.53 480.12,285.71 483.33,290.66 484.05,297.13 
				511.16,302.75 526.91,302.68 527.65,290.22 533.13,282.73 534.04,274.81 536.98,271.73 535.87,269.1 538.76,262.06 			"/>
			<polygon class="st4" points="201.72,277.07 217.62,277.37 217.15,231.78 211.99,227.38 211.96,223.88 203.17,222.09 
				201.41,220.34 196.14,218.19 159,218.21 153.6,228.82 144.03,228.83 142.03,233.18 142.19,239.87 143.56,248.4 141.09,250.6 
				144.79,253.33 146.72,258.8 141.81,261.85 140.56,266.08 144.32,267.44 144.92,270.84 141.57,272.84 141.57,278.2 143.56,276.73 
				149.92,279.36 155.83,276.48 185.63,276.55 			"/>
			<polygon class="st5" points="201.72,277.07 217.62,277.37 217.15,231.78 211.99,227.38 211.96,223.88 203.17,222.09 
				201.41,220.34 196.14,218.19 159,218.21 153.6,228.82 144.03,228.83 142.03,233.18 142.19,239.87 143.56,248.4 141.09,250.6 
				144.78,253.33 146.72,258.8 141.81,261.85 140.56,266.08 144.32,267.43 144.92,270.85 141.57,272.84 141.57,278.2 143.56,276.73 
				149.92,279.36 155.83,276.48 185.63,276.55 			"/>
			<polygon class="st4" points="239.16,432.26 269.07,438.54 291.97,428.87 282.32,412.12 288.51,416.27 304.85,407.16 
				306.07,402.59 304.18,386.24 306.86,378.27 296.32,373.84 293.88,367.32 289.9,368.8 282.16,365.56 273.66,365.03 264.17,374.71 
				259.01,376.77 254.47,375.26 245.75,369.39 238.32,371.63 226.6,378.22 239.35,378.11 239.51,405.51 			"/>
			<polygon class="st5" points="239.16,432.26 269.07,438.54 291.97,428.87 282.32,412.12 288.51,416.27 304.85,407.16 
				306.07,402.59 304.18,386.24 306.86,378.27 296.32,373.84 293.88,367.32 289.9,368.8 282.16,365.56 273.66,365.03 264.17,374.71 
				259.01,376.77 254.47,375.26 245.75,369.39 238.32,371.63 226.6,378.22 239.35,378.11 239.51,405.51 			"/>
			<polygon class="st4" points="260.14,69.24 275.02,69.43 280.16,67.99 280.47,65.71 293.99,56.03 296.42,51.98 297.72,43.14 
				295.05,34.47 294.58,21.57 296.02,16.77 228.01,16 227.97,47.48 238.03,47.43 244.33,49.05 246.33,52.48 249.36,52.3 
				249.43,58.42 260.15,58.49 			"/>
			<polygon class="st5" points="260.14,69.24 275.02,69.43 280.16,67.99 280.47,65.71 293.98,56.03 296.42,51.98 297.72,43.13 
				295.05,34.47 294.58,21.57 296.02,16.77 228.01,16 227.97,47.48 238.03,47.43 244.33,49.05 246.33,52.48 249.36,52.3 
				249.43,58.42 260.15,58.49 			"/>
			<polygon class="st4" points="379.16,441.95 384.19,454.77 391.75,459.95 394.76,471.18 390.72,471.44 378.97,459.37 
				374.86,465.64 377.97,472.16 393.22,475.47 400.48,480.03 406.25,475.93 423.15,489.58 438.57,485.61 438.84,476.39 
				446.23,467.36 460.25,467.01 466.04,460.42 469.43,470.43 471.44,465.98 470.59,458.15 464.11,452.2 461.94,447.86 
				454.77,441.62 450.98,435.36 446.35,430.71 442.33,429.54 437.43,422.86 431.05,419.09 426.81,409.49 423.37,413 419.1,413.06 
				419.29,416.55 406.18,416.79 398.31,427.33 389.9,431.35 388.42,429.33 378.64,438.89 			"/>
			<polygon class="st5" points="379.15,441.95 384.19,454.77 391.75,459.95 394.76,471.18 390.72,471.44 378.97,459.37 
				374.86,465.64 377.97,472.16 393.22,475.47 400.48,480.03 406.25,475.93 423.15,489.58 438.57,485.61 438.84,476.39 
				446.23,467.36 460.25,467.01 466.04,460.41 469.43,470.43 471.44,465.98 470.59,458.15 464.11,452.2 461.94,447.86 
				454.77,441.62 450.98,435.36 446.35,430.71 442.33,429.54 437.43,422.86 431.05,419.09 426.81,409.49 423.37,413 419.1,413.06 
				419.29,416.55 406.18,416.79 398.31,427.33 389.9,431.35 388.42,429.33 378.64,438.89 			"/>
			<polygon class="st4" points="347.18,155.07 346.87,164.93 350.33,170.99 367.68,171.55 367.44,173.29 373.91,171.28 
				379.91,170.19 377.07,168.57 368.96,169.94 371.78,158.9 376.31,157.77 377.51,163.23 381.41,161.11 381.15,156.64 
				388.15,150.75 387.37,145.45 389.83,142.86 395.79,142.03 399,138.68 397.19,136.22 391.83,135.03 390.15,132.33 393.54,131.36 
				398.48,134.87 398.58,131.04 403.74,126.73 403.68,125.96 401.36,125.53 389.99,124.49 389.77,116.78 394.01,114.89 393,110.21 
				384.53,112.19 382.53,115.02 379.5,113.61 373.62,115.94 355.78,115.84 354.44,122.89 356.08,129.43 353.99,138.22 
				355.19,141.87 352.1,145.71 353.85,149.28 			"/>
			<polygon class="st5" points="347.18,155.07 346.87,164.92 350.33,170.99 367.68,171.55 367.44,173.29 373.91,171.28 
				379.91,170.19 377.07,168.57 368.96,169.94 371.78,158.9 376.31,157.77 377.51,163.23 381.4,161.1 381.15,156.64 388.14,150.75 
				387.37,145.45 389.82,142.86 395.79,142.03 399,138.68 397.19,136.22 391.83,135.03 390.15,132.33 393.54,131.36 398.48,134.87 
				398.58,131.04 403.74,126.73 403.68,125.96 401.36,125.53 389.99,124.49 389.77,116.78 394.01,114.89 393,110.21 384.53,112.19 
				382.53,115.02 379.5,113.61 373.62,115.94 355.78,115.84 354.44,122.89 356.08,129.43 353.99,138.22 355.19,141.87 352.1,145.7 
				353.85,149.28 			"/>
			<polygon class="st4" points="451.75,262.38 451.78,324.26 453.87,330.93 457.2,333.94 461.35,342.33 468.94,348.45 478.36,347.3 
				485.3,339.06 485.35,305.21 483.33,290.66 480.12,285.71 477.7,275.53 474.61,273.78 474.56,262.27 			"/>
			<polygon class="st5" points="451.75,262.38 451.78,324.26 453.86,330.93 457.2,333.94 461.35,342.33 468.94,348.46 478.36,347.3 
				485.3,339.06 485.35,305.21 483.33,290.66 480.12,285.71 477.7,275.53 474.61,273.78 474.56,262.27 			"/>
			<polygon class="st4" points="484.05,297.13 485.35,305.21 485.3,339.06 488.76,336.39 504.14,340.79 511.85,351.05 524.63,352.8 
				539.81,362.64 554.13,360.44 550.3,355.62 547.91,345.84 548.92,341.94 545.71,339.02 542.7,327.57 534.67,321.11 530.95,315.19 
				529.22,306.68 526.91,302.68 511.16,302.75 			"/>
			<polygon class="st5" points="484.05,297.13 485.35,305.21 485.3,339.06 488.76,336.39 504.14,340.79 511.85,351.05 524.63,352.8 
				539.81,362.64 554.13,360.44 550.3,355.62 547.91,345.84 548.92,341.94 545.71,339.02 542.7,327.57 534.67,321.1 530.95,315.19 
				529.22,306.68 526.91,302.68 511.16,302.75 			"/>
			<polygon class="st4" points="379.16,441.95 378.64,438.89 388.42,429.33 389.9,431.35 398.31,427.33 396,425.41 396.5,418.62 
				392.97,415.68 388.07,415.14 384.56,412.44 370.39,410.64 366.8,408.56 368.13,402.5 363.99,394.06 357.94,387.95 342.1,389.24 
				333.14,401.1 318.23,413.91 341.99,413.1 341.89,427.07 349.04,425.82 352.44,436.96 362.6,436.67 376.18,445.11 			"/>
			<polygon class="st5" points="379.15,441.95 378.64,438.89 388.42,429.33 389.9,431.35 398.31,427.33 396,425.41 396.5,418.62 
				392.97,415.67 388.07,415.14 384.56,412.44 370.39,410.64 366.8,408.56 368.13,402.5 363.99,394.06 357.94,387.95 342.1,389.23 
				333.14,401.1 318.23,413.91 341.99,413.1 341.89,427.07 349.04,425.82 352.43,436.96 362.6,436.67 376.18,445.11 			"/>
			<polygon class="st4" points="396.5,418.62 397.26,406.44 395.35,403.43 387.91,401.09 380.41,386.1 357.94,387.95 363.99,394.06 
				368.13,402.5 366.8,408.56 370.39,410.64 384.56,412.44 388.07,415.14 392.97,415.68 			"/>
			<polygon class="st4" points="308.26,373.92 316.01,374.59 321.93,377.42 327.51,369.7 331.51,368.01 338.55,369.73 
				343.38,374.56 344.62,378.71 354.22,378.7 356.36,375.73 368.63,375.64 366.55,370.43 358.78,370.41 357.59,355.18 
				348.52,353.69 342.47,345.52 340.5,329.56 334.2,322.98 328.46,322.95 336.48,335.33 322.61,335.39 316.74,332.63 309.69,335.33 
				305.47,333.77 304.35,338.47 307.96,339.53 306.72,343.6 308.47,349.5 305.68,351.4 309.11,354.32 305.61,357.41 305.27,360.8 
				311.28,360.13 312.98,364.16 			"/>
			<polygon class="st5" points="396.5,418.62 397.26,406.44 395.35,403.43 387.91,401.09 380.41,386.1 357.94,387.95 363.99,394.06 
				368.13,402.5 366.8,408.56 370.39,410.64 384.56,412.44 388.07,415.14 392.97,415.67 			"/>
			<polygon class="st5" points="308.26,373.92 316.01,374.59 321.93,377.42 327.51,369.7 331.51,368.01 338.55,369.73 
				343.38,374.55 344.62,378.71 354.22,378.7 356.35,375.73 368.63,375.64 366.55,370.43 358.78,370.41 357.59,355.18 
				348.51,353.69 342.47,345.52 340.5,329.56 334.19,322.98 328.46,322.95 336.48,335.33 322.61,335.39 316.73,332.63 
				309.69,335.33 305.47,333.77 304.35,338.47 307.96,339.53 306.72,343.6 308.47,349.5 305.68,351.4 309.11,354.32 305.61,357.41 
				305.27,360.8 311.28,360.13 312.98,364.16 			"/>
			<polygon class="st4" points="288.44,346.86 293.39,343.11 294.55,339.43 298.12,337.15 300.38,339.52 304.35,338.47 
				305.47,333.77 309.69,335.33 316.74,332.63 322.61,335.39 336.48,335.33 328.46,322.95 330.89,320.23 328.38,315.13 
				328.62,309.12 331.02,302.22 330.8,298.37 327.16,288.27 323.16,285.17 322.33,280.7 281.13,280.64 281.27,287.33 285.31,290.39 
				285.31,301.74 282.39,303.86 281.28,314.47 275.99,314.47 275.94,318.01 260.12,318.02 255.6,319.31 255.04,323.24 
				252.03,325.02 277.8,325.05 277.85,330.29 284.89,330.26 284.95,340.75 286.74,340.74 			"/>
			<polygon class="st5" points="288.44,346.86 293.39,343.11 294.55,339.43 298.12,337.15 300.38,339.52 304.35,338.47 
				305.47,333.77 309.69,335.33 316.73,332.63 322.61,335.39 336.48,335.33 328.46,322.95 330.89,320.23 328.38,315.13 
				328.62,309.12 331.02,302.22 330.79,298.37 327.15,288.27 323.16,285.17 322.33,280.7 281.13,280.64 281.27,287.33 
				285.31,290.39 285.31,301.74 282.39,303.86 281.28,314.47 275.98,314.47 275.94,318.01 260.12,318.02 255.6,319.31 
				255.04,323.23 252.03,325.01 277.8,325.05 277.85,330.28 284.89,330.26 284.95,340.75 286.74,340.74 			"/>
			<polygon class="st4" points="454.38,395.67 454.77,380.64 464,378.75 468.26,373.01 465.61,363.84 468.33,356.83 478.36,347.3 
				468.94,348.45 458.94,352.01 452.64,359.47 444.95,356.15 442,376.6 439.13,378.38 441.49,386.73 442.52,395.91 			"/>
			<polygon class="st5" points="454.38,395.67 454.77,380.64 464,378.75 468.26,373.01 465.61,363.84 468.33,356.83 478.36,347.3 
				468.94,348.46 458.94,352.01 452.64,359.47 444.95,356.15 442,376.6 439.13,378.38 441.49,386.73 442.52,395.91 			"/>
			<polygon class="st4" points="418.74,394.01 429.14,393.76 429.09,392.07 438.98,394.07 442.52,395.91 441.49,386.73 
				439.13,378.38 442,376.6 443.99,362.75 415.62,369.11 410.64,374.73 411.03,385.33 414.54,385.3 414.57,390.47 418.67,390.39 			
				"/>
			<polygon class="st5" points="418.73,394.01 429.14,393.76 429.09,392.07 438.97,394.07 442.52,395.91 441.49,386.73 
				439.13,378.38 442,376.6 443.99,362.75 415.62,369.11 410.64,374.73 411.03,385.33 414.53,385.3 414.56,390.47 418.67,390.4 			
				"/>
			<polygon class="st4" points="451.75,304.61 451.75,262.38 424.91,262.42 421.35,268.67 422.9,276.02 421.29,278.08 
				423.93,284.07 422.53,296.25 416.13,304.68 			"/>
			<polygon class="st5" points="451.75,304.6 451.75,262.38 424.91,262.41 421.35,268.67 422.9,276.01 421.29,278.08 423.93,284.07 
				422.53,296.25 416.13,304.68 			"/>
			<polygon class="st4" points="486.9,419.51 493.21,404.53 485.66,399.19 482.77,394.07 481.5,385.97 481.61,376.88 468.26,373.01 
				464,378.75 454.77,380.64 454.38,395.67 460.8,400.94 461.27,405.15 466.23,409.58 471.99,411.48 474.67,419.35 			"/>
			<polygon class="st5" points="486.9,419.51 493.21,404.53 485.66,399.19 482.77,394.07 481.5,385.97 481.61,376.88 468.26,373.01 
				464,378.75 454.77,380.64 454.38,395.67 460.8,400.94 461.27,405.15 466.23,409.58 471.99,411.48 474.67,419.35 			"/>
			<polygon class="st4" points="524.86,382.76 521.44,382.41 516.89,385.03 511.61,383.94 509.31,389.15 518.75,392.78 
				519.79,398.42 524.07,407.15 530.28,406.75 532.25,411.29 539.49,411.66 543.34,416.64 549.11,420.86 555.66,423.35 
				559.35,424.26 546.82,416.95 553.96,411.75 565.58,415.78 558.33,408.92 573.64,407.65 584.16,411.2 583.89,406.74 
				570.54,404.94 576.98,401.04 572.94,388.04 566.15,387.24 569.56,376.5 554.08,383.97 552.38,397.12 542.63,398.48 			"/>
			<polygon class="st4" points="559.35,424.26 561.05,425.25 559.63,424.33 			"/>
			<polygon class="st5" points="524.86,382.76 521.44,382.41 516.89,385.03 511.61,383.94 509.31,389.15 518.75,392.78 
				519.79,398.42 524.07,407.15 530.28,406.75 532.25,411.29 539.49,411.66 543.34,416.64 549.11,420.86 555.66,423.35 
				559.35,424.26 546.82,416.95 553.96,411.75 565.58,415.78 558.33,408.92 573.64,407.65 584.16,411.2 583.89,406.74 
				570.54,404.94 576.98,401.04 572.94,388.04 566.15,387.24 569.56,376.5 554.08,383.97 552.38,397.12 542.63,398.48 			"/>
			<polygon class="st5" points="559.35,424.26 561.05,425.25 559.63,424.33 			"/>
			<polygon class="st4" points="108.34,159.75 108.78,162.44 114.2,168.38 112.71,171.23 117.11,177.09 114.29,180.52 114.6,187.75 
				112.92,191.21 118.1,198.54 125.61,200.07 121.78,205.5 127.68,209.33 126.4,212.53 129.59,214.13 130.11,218.06 128.21,224.68 
				137.44,234.35 137.25,241.01 142.19,239.87 142.03,233.18 144.03,228.83 153.6,228.82 159,218.21 175.01,218.16 174.95,197.04 
				164.5,197.06 164.34,175.61 153.69,175.58 153.74,159.64 			"/>
			<polygon class="st5" points="108.34,159.75 108.78,162.44 114.2,168.38 112.71,171.23 117.11,177.09 114.29,180.52 114.6,187.75 
				112.92,191.21 118.09,198.53 125.61,200.07 121.78,205.5 127.68,209.33 126.4,212.53 129.59,214.13 130.11,218.06 128.21,224.68 
				137.44,234.35 137.25,241.01 142.19,239.87 142.03,233.18 144.03,228.83 153.6,228.82 159,218.21 175.01,218.16 174.95,197.04 
				164.5,197.07 164.34,175.61 153.69,175.58 153.74,159.64 			"/>
			<polygon class="st4" points="314.1,122.18 320.15,119.09 321.87,114.57 327.11,109.24 327.61,100.31 334.13,98.48 334.52,95.26 
				341.04,91.05 357.44,91 356.58,80.04 359.42,74.78 362.18,71.9 360.7,69.34 345.07,69.32 344.98,58.85 340.76,58.84 
				337.19,65.75 333.67,65.5 329.9,72.18 323.48,70.66 319.82,77.15 314.88,74.03 312.19,78.7 309.27,85 302.74,94.11 
				301.13,104.28 299.62,106.8 303.87,106.83 302.62,112.71 305.46,114.26 305.27,120.4 309.03,119.3 			"/>
			<polygon class="st5" points="314.1,122.18 320.14,119.09 321.87,114.57 327.11,109.24 327.61,100.31 334.13,98.48 334.52,95.26 
				341.04,91.05 357.44,91 356.58,80.04 359.42,74.78 362.18,71.9 360.7,69.34 345.07,69.31 344.98,58.85 340.76,58.84 
				337.19,65.75 333.67,65.5 329.9,72.18 323.47,70.66 319.82,77.15 314.88,74.03 312.19,78.7 309.27,85 302.74,94.11 
				301.13,104.28 299.62,106.8 303.87,106.83 302.62,112.71 305.46,114.26 305.27,120.4 309.03,119.3 			"/>
			<polygon class="st4" points="162.72,149.02 163.15,153.11 170.21,154.49 174.66,152.52 174.76,144.06 186.51,144.12 
				183.1,139.58 185.26,133.84 183.69,127.94 180.08,122.57 177.6,117.2 177.3,111.83 135.75,111.65 137.98,115.54 143.99,117.11 
				146.68,124.66 143.38,127.91 153.95,142.11 157.36,142.26 			"/>
			<polygon class="st5" points="162.72,149.02 163.15,153.11 170.21,154.49 174.66,152.52 174.76,144.05 186.51,144.12 
				183.1,139.58 185.25,133.84 183.69,127.94 180.08,122.57 177.6,117.2 177.3,111.82 135.75,111.65 137.98,115.54 143.99,117.11 
				146.68,124.66 143.38,127.91 153.95,142.11 157.36,142.26 			"/>
			<polygon class="st4" points="201.41,220.34 203.17,222.09 211.96,223.88 211.99,227.38 217.15,231.78 217.77,275.64 
				228.61,274.59 250.4,274.94 253.4,272.19 253.38,268.11 260.25,264.94 262.93,262.15 268.87,266.79 274.08,266.56 281.61,266.89 
				278.89,246.43 279,223.28 283.16,221.91 286.31,226.1 294.19,221.7 294.55,218.12 287.71,213.17 286.52,205.69 282.85,204.39 
				234.89,215.3 229.96,207.69 231.31,205.19 228.63,199.56 218.86,208.84 212.82,211.56 208.51,217.72 			"/>
			<polygon class="st5" points="201.41,220.34 203.17,222.09 211.96,223.88 211.99,227.38 217.15,231.78 217.77,275.64 
				228.61,274.59 250.4,274.94 253.4,272.19 253.38,268.11 260.25,264.94 262.93,262.15 268.87,266.79 274.08,266.56 281.6,266.89 
				278.89,246.42 279,223.28 283.16,221.9 286.31,226.1 294.19,221.7 294.55,218.12 287.71,213.17 286.52,205.69 282.85,204.38 
				234.89,215.3 229.96,207.69 231.31,205.19 228.63,199.56 218.86,208.84 212.82,211.56 208.51,217.72 			"/>
			<polygon class="st4" points="322.33,280.7 323.16,285.17 327.16,288.27 330.8,298.37 331.02,302.22 328.62,309.12 328.38,315.13 
				330.89,320.23 328.46,322.95 346.38,323.03 346.35,324.76 356.57,323.02 356.92,321.37 363.86,321.29 365.55,314.39 
				369.01,312.07 374.78,304.61 372.56,303.56 370.25,295.92 367.41,291.48 360.17,294.21 349.53,294.86 345.22,292.52 
				350.93,287.57 353.41,279.11 349.92,272.48 343.14,272.31 347.53,275.45 349.18,280.64 342.23,281.62 338.29,279.62 340,270.93 
				338.18,265.92 338.61,263.02 333.98,260.09 329.1,260.07 323.3,265.66 323.48,278.82 			"/>
			<polygon class="st5" points="322.33,280.7 323.16,285.17 327.15,288.27 330.79,298.37 331.02,302.22 328.62,309.12 
				328.38,315.13 330.89,320.23 328.46,322.95 346.38,323.03 346.35,324.76 356.57,323.02 356.91,321.37 363.86,321.29 
				365.55,314.39 369.01,312.07 374.78,304.6 372.56,303.56 370.25,295.92 367.41,291.48 360.17,294.21 349.53,294.86 
				345.22,292.52 350.93,287.57 353.41,279.11 349.91,272.48 343.14,272.31 347.53,275.45 349.18,280.64 342.23,281.62 
				338.29,279.62 340,270.93 338.18,265.92 338.61,263.02 333.98,260.09 329.09,260.07 323.3,265.66 323.47,278.82 			"/>
			<polygon class="st4" points="600.91,476.51 587.79,479.28 597.52,481.05 			"/>
			<polygon class="st4" points="595.74,466.6 587.49,478.06 593.01,475.99 			"/>
			<polygon class="st4" points="586,476.52 580.75,467.5 587.35,464 583.68,458.07 577.17,462.18 565.49,454.23 554.81,452.49 
				558.58,448.91 543.95,438.79 537.7,429.63 545.83,426.21 544.19,420.53 555.66,423.35 549.11,420.86 543.34,416.64 
				539.49,411.66 532.25,411.29 530.28,406.75 524.07,407.15 519.79,398.42 517.29,395.53 509.72,395.19 507.74,400.27 
				503.47,403.12 503.59,413.93 508.91,421.61 510.35,427.79 512.64,429.58 511.73,436.58 512.91,447.23 527.72,445.51 
				527.49,452.07 546.88,453.1 563.98,463.95 567.6,479.8 582.05,473.52 			"/>
			<polygon class="st4" points="586,476.52 586.66,477.66 586.76,477.11 			"/>
			<polygon class="st4" points="586.76,477.11 587.21,477.45 593.43,467.15 588.95,464.83 			"/>
			<polygon class="st5" points="600.91,476.51 587.79,479.28 597.52,481.05 			"/>
			<polygon class="st5" points="595.74,466.6 587.49,478.06 593.01,475.99 			"/>
			<polygon class="st5" points="586,476.52 580.75,467.5 587.35,463.99 583.68,458.07 577.17,462.18 565.49,454.23 554.81,452.49 
				558.58,448.9 543.95,438.79 537.7,429.63 545.83,426.21 544.19,420.53 555.66,423.35 549.11,420.86 543.34,416.64 539.49,411.66 
				532.25,411.29 530.28,406.75 524.07,407.15 519.79,398.42 517.29,395.53 509.72,395.19 507.74,400.27 503.47,403.12 
				503.59,413.93 508.91,421.61 510.34,427.79 512.64,429.58 511.73,436.58 512.9,447.23 527.72,445.51 527.48,452.07 546.88,453.1 
				563.98,463.95 567.6,479.8 582.05,473.52 			"/>
			<polygon class="st5" points="586,476.52 586.66,477.66 586.76,477.1 			"/>
			<polygon class="st5" points="586.76,477.1 587.21,477.45 593.43,467.14 588.95,464.83 			"/>
			<polygon class="st4" points="260.11,79.98 260.11,90.76 270.85,101.44 270.84,106.76 286.11,106.85 287.36,109.07 292.18,109.07 
				292.15,106.86 299.62,106.8 301.13,104.28 302.74,94.11 309.27,85 312.19,78.7 310.15,66.28 311.04,61.55 305.77,53.41 
				297.39,55.05 296.42,51.98 293.99,56.03 280.47,65.71 280.16,67.99 275.02,69.43 260.14,69.24 			"/>
			<polygon class="st5" points="260.11,79.98 260.11,90.76 270.85,101.44 270.84,106.76 286.1,106.85 287.36,109.07 292.18,109.07 
				292.15,106.86 299.62,106.8 301.13,104.28 302.74,94.11 309.27,85 312.19,78.7 310.15,66.28 311.04,61.55 305.77,53.41 
				297.38,55.04 296.42,51.98 293.98,56.03 280.47,65.71 280.16,67.99 275.02,69.43 260.14,69.24 			"/>
			<polygon class="st4" points="498,380.3 496.19,392.4 503.13,392.35 504.5,389.24 509.72,395.19 517.29,395.53 519.79,398.42 
				518.75,392.78 509.31,389.15 511.61,383.94 516.89,385.03 521.44,382.41 524.86,382.76 529.28,377.31 538.13,380.02 
				549.14,364.73 527.25,370.94 522.75,365.24 509.27,378.14 			"/>
			<polygon class="st5" points="498,380.3 496.19,392.4 503.13,392.35 504.5,389.23 509.72,395.19 517.29,395.53 519.79,398.42 
				518.75,392.78 509.31,389.15 511.61,383.94 516.89,385.03 521.44,382.41 524.86,382.76 529.28,377.31 538.13,380.02 
				549.14,364.73 527.25,370.94 522.75,365.24 509.27,378.14 			"/>
			<polygon class="st4" points="153.74,159.64 153.69,175.58 164.34,175.61 164.5,197.06 174.95,197.04 175.01,218.16 
				196.14,218.19 201.41,220.34 208.51,217.72 212.82,211.56 218.86,208.84 228.63,199.56 219.59,189.71 209,186.46 209.57,182.28 
				203.25,179.8 202.24,176.27 202.94,167.44 205.88,161.57 205.09,158.19 208.99,158.96 210.42,150.85 212.74,147.34 208.62,128.1 
				205.81,122.63 180.08,122.57 183.69,127.94 185.26,133.84 183.1,139.58 186.51,144.12 174.76,144.06 174.66,152.52 
				170.21,154.49 163.15,153.11 162.72,149.02 153.78,151.28 			"/>
			<polygon class="st5" points="153.74,159.64 153.69,175.58 164.34,175.61 164.5,197.07 174.95,197.04 175.01,218.16 
				196.14,218.19 201.41,220.34 208.51,217.72 212.82,211.56 218.86,208.84 228.63,199.56 219.59,189.71 209,186.46 209.57,182.28 
				203.25,179.8 202.24,176.27 202.94,167.44 205.88,161.57 205.09,158.19 208.99,158.96 210.42,150.85 212.74,147.34 208.62,128.1 
				205.81,122.63 180.08,122.57 183.69,127.94 185.25,133.84 183.1,139.58 186.51,144.12 174.76,144.05 174.66,152.52 
				170.21,154.49 163.15,153.11 162.72,149.02 153.78,151.28 			"/>
			<polygon class="st4" points="296.42,51.98 297.39,55.05 305.77,53.41 311.04,61.55 310.15,66.28 312.19,78.7 314.88,74.03 
				319.82,77.15 323.48,70.66 329.9,72.18 333.67,65.5 337.19,65.75 340.76,58.84 340.63,54.5 344.95,48.78 344.37,44.04 
				348.14,35.62 353.83,32.73 357.13,25.77 361.5,20.11 361.68,17.03 296.02,16.77 294.58,21.57 295.05,34.47 297.72,43.14 			"/>
			<polygon class="st5" points="296.42,51.98 297.38,55.04 305.77,53.41 311.04,61.55 310.15,66.28 312.19,78.7 314.88,74.03 
				319.82,77.15 323.47,70.66 329.9,72.18 333.67,65.5 337.19,65.75 340.76,58.84 340.63,54.5 344.95,48.78 344.37,44.04 
				348.14,35.62 353.83,32.73 357.13,25.77 361.5,20.11 361.68,17.03 296.02,16.77 294.58,21.57 295.05,34.47 297.72,43.13 			"/>
			<polygon class="st4" points="355.78,115.84 373.62,115.94 379.5,113.61 382.53,115.02 384.53,112.19 393,110.21 394.01,114.89 
				402.05,111.21 406.57,113.42 406.9,117.34 410.04,109.86 409.34,104.42 412.29,106.01 415.56,103.55 419.77,94.97 415.96,99.14 
				408.25,97.63 406.38,95.74 410.35,87.55 406.98,85.55 404.03,87.55 397.18,84.66 394.77,79.42 397.16,73.39 401.76,79.61 
				406.86,81.6 408.1,79.82 399.05,73.68 399.63,71.7 395.63,71.73 393.01,74.77 359.42,74.78 356.58,80.04 357.44,91 360.04,95.57 
				356.58,95.83 357.89,101.96 352.26,103.9 351.35,115.8 			"/>
			<polygon class="st4" points="401.36,125.53 403.68,125.96 406.57,120.89 400.83,118.58 			"/>
			<polygon class="st5" points="355.78,115.84 373.62,115.94 379.5,113.61 382.53,115.02 384.53,112.19 393,110.21 394.01,114.89 
				402.05,111.21 406.57,113.42 406.9,117.34 410.03,109.86 409.34,104.42 412.28,106.01 415.56,103.55 419.77,94.97 415.95,99.14 
				408.25,97.63 406.38,95.74 410.35,87.55 406.98,85.55 404.03,87.55 397.18,84.66 394.77,79.42 397.16,73.39 401.76,79.61 
				406.86,81.6 408.1,79.82 399.05,73.68 399.63,71.7 395.63,71.73 393.01,74.77 359.42,74.78 356.58,80.04 357.44,91 360.04,95.57 
				356.58,95.83 357.89,101.96 352.26,103.9 351.35,115.79 			"/>
			<polygon class="st5" points="401.36,125.53 403.68,125.96 406.57,120.89 400.83,118.58 			"/>
			<polygon class="st4" points="416.13,304.68 413.69,309.07 408.85,311.83 408.89,320.45 410.19,322.16 407.77,327.16 
				414.19,339.29 424.42,344.48 426.48,349.63 432.89,353.75 435.96,359.92 439.04,361.52 443.24,354.84 444.95,356.15 
				452.64,359.47 458.94,352.01 468.94,348.45 461.35,342.33 457.2,333.94 453.87,330.93 451.78,324.26 451.75,304.61 			"/>
			<polygon class="st5" points="416.13,304.68 413.68,309.07 408.85,311.83 408.89,320.45 410.19,322.16 407.77,327.16 
				414.19,339.29 424.42,344.48 426.48,349.63 432.89,353.75 435.96,359.92 439.04,361.52 443.24,354.84 444.95,356.15 
				452.64,359.47 458.94,352.01 468.94,348.46 461.35,342.33 457.2,333.94 453.86,330.93 451.78,324.26 451.75,304.6 			"/>
			<polygon class="st4" points="211.85,68.97 212.01,85.07 238.72,85.2 238.66,79.87 260.11,79.98 260.15,58.49 249.43,58.42 
				249.36,52.3 246.33,52.48 244.33,49.05 238.03,47.43 217.26,47.56 217.33,53.33 213.72,56.22 213.95,62.07 			"/>
			<polygon class="st5" points="211.85,68.97 212.01,85.07 238.72,85.2 238.66,79.87 260.11,79.98 260.15,58.49 249.43,58.42 
				249.36,52.3 246.33,52.48 244.33,49.05 238.03,47.43 217.26,47.56 217.33,53.33 213.72,56.21 213.95,62.07 			"/>
			<polygon class="st4" points="265.58,165.57 268.23,169.91 264.59,176.57 267.13,177.76 265.12,183.59 266.76,186.54 
				263.32,187.05 271.36,190.81 269.99,192.98 274.66,197.31 275.58,202.57 282.85,204.39 286.52,205.69 287.71,213.17 
				294.55,218.12 294.19,221.7 299.32,220.79 302.34,222.86 302.33,165.61 302.62,149.62 270.77,149.6 267.82,163.53 			"/>
			<polygon class="st5" points="265.58,165.57 268.23,169.91 264.59,176.57 267.13,177.76 265.12,183.59 266.76,186.53 
				263.32,187.05 271.36,190.81 269.99,192.98 274.66,197.31 275.58,202.57 282.85,204.38 286.52,205.69 287.71,213.17 
				294.55,218.12 294.19,221.7 299.32,220.79 302.34,222.86 302.33,165.61 302.62,149.61 270.77,149.6 267.82,163.53 			"/>
			<polygon class="st4" points="406.18,416.79 419.29,416.55 419.1,413.06 423.37,413 426.81,409.49 431.05,419.09 437.43,422.86 
				442.33,429.54 446.35,430.71 450.98,435.36 454.77,441.62 461.94,447.86 464.11,452.2 470.59,458.15 471.44,465.98 
				469.43,470.43 473.14,465.03 484.18,472.13 481.79,482.76 487.38,491.85 501.4,481.99 504.13,477.39 501.1,478.9 493.72,457.99 
				504.41,464.34 506.68,457.54 503.21,448.68 486.32,442.43 493.5,431.71 492.07,420.62 486.9,419.51 474.67,419.35 471.99,411.48 
				466.23,409.58 461.27,405.15 460.8,400.94 454.38,395.67 442.52,395.91 438.98,394.07 429.09,392.07 429.14,393.76 
				418.74,394.01 414.67,403.08 			"/>
			<polygon class="st5" points="406.18,416.79 419.29,416.55 419.1,413.06 423.37,413 426.81,409.49 431.05,419.09 437.43,422.86 
				442.33,429.54 446.35,430.71 450.98,435.36 454.77,441.62 461.94,447.86 464.11,452.2 470.59,458.15 471.44,465.98 
				469.43,470.43 473.14,465.03 484.18,472.13 481.79,482.76 487.38,491.85 501.4,481.99 504.13,477.39 501.1,478.9 493.72,457.99 
				504.41,464.34 506.68,457.54 503.21,448.68 486.32,442.43 493.5,431.71 492.07,420.62 486.9,419.51 474.67,419.35 471.99,411.48 
				466.23,409.58 461.27,405.15 460.8,400.94 454.38,395.67 442.52,395.91 438.97,394.07 429.09,392.07 429.14,393.76 
				418.73,394.01 414.67,403.08 			"/>
			<polygon class="st4" points="273.66,365.03 282.16,365.56 289.9,368.8 293.88,367.32 296.32,373.84 306.86,378.27 308.26,373.92 
				312.98,364.16 311.28,360.13 305.27,360.8 305.61,357.41 309.11,354.32 305.68,351.4 308.47,349.5 306.72,343.6 307.96,339.53 
				304.35,338.47 300.38,339.52 298.12,337.15 294.55,339.43 293.39,343.11 288.44,346.86 284.9,350.33 284.92,353.79 
				277.21,358.33 276.96,362.08 			"/>
			<polygon class="st5" points="273.66,365.03 282.16,365.56 289.9,368.8 293.88,367.32 296.32,373.84 306.86,378.27 308.26,373.92 
				312.98,364.16 311.28,360.13 305.27,360.8 305.61,357.41 309.11,354.32 305.68,351.4 308.47,349.5 306.72,343.6 307.96,339.53 
				304.35,338.47 300.38,339.52 298.12,337.15 294.55,339.43 293.39,343.11 288.44,346.86 284.9,350.33 284.92,353.78 
				277.21,358.33 276.96,362.08 			"/>
			<polygon class="st4" points="185.89,331.86 185.9,337.1 196.28,337.17 196.31,351.44 199.81,351.43 199.88,363.88 210.56,363.96 
				209.04,369.19 211.15,372.81 199.89,372.83 199.87,378.08 226.6,378.22 238.32,371.63 238,366.67 241.89,360.83 238.21,355.08 
				237.75,337.75 240.74,334.84 240.91,330.19 237.65,324.94 237.83,324.13 222.93,324.08 222.76,330.17 192.7,330.06 
				192.69,331.78 			"/>
			<polygon class="st5" points="185.89,331.86 185.9,337.1 196.28,337.18 196.31,351.44 199.81,351.43 199.88,363.87 210.56,363.96 
				209.04,369.19 211.15,372.81 199.89,372.83 199.87,378.07 226.6,378.22 238.32,371.63 238,366.67 241.89,360.83 238.21,355.08 
				237.75,337.75 240.74,334.84 240.91,330.19 237.65,324.94 237.83,324.13 222.93,324.08 222.76,330.16 192.7,330.06 
				192.69,331.77 			"/>
			<polygon class="st4" points="486.9,419.51 492.07,420.62 499.02,425.02 496.78,436.06 512.91,447.23 511.73,436.58 
				512.64,429.58 510.35,427.79 508.91,421.61 503.59,413.93 503.47,403.12 507.74,400.27 509.72,395.19 504.5,389.24 
				503.13,392.35 496.19,392.4 498,380.3 481.61,376.88 481.5,385.97 482.77,394.07 485.66,399.19 493.21,404.53 			"/>
			<polygon class="st5" points="486.9,419.51 492.07,420.62 499.02,425.02 496.78,436.06 512.9,447.23 511.73,436.58 512.64,429.58 
				510.34,427.79 508.91,421.61 503.59,413.93 503.47,403.12 507.74,400.27 509.72,395.19 504.5,389.23 503.13,392.35 496.19,392.4 
				498,380.3 481.61,376.88 481.5,385.97 482.77,394.07 485.66,399.19 493.21,404.53 			"/>
			<polygon class="st4" points="270.81,122.85 270.85,101.44 260.11,90.76 260.11,79.98 238.66,79.87 238.72,85.2 222.59,85.14 
				222.83,111.7 220.13,114.94 218.73,122.75 			"/>
			<polygon class="st5" points="270.81,122.85 270.85,101.44 260.11,90.76 260.11,79.98 238.66,79.87 238.72,85.2 222.59,85.14 
				222.83,111.7 220.13,114.94 218.73,122.75 			"/>
			<polygon class="st4" points="334.2,322.98 340.5,329.56 342.47,345.52 348.52,353.69 357.59,355.18 358.78,370.41 366.55,370.43 
				368.63,375.64 378.97,375.58 383.6,379.66 395.88,375.2 395.84,369.73 399.26,363.43 404.69,344.11 403.13,344.96 392.14,343.92 
				374.55,344.01 359.87,325.69 356.57,323.02 346.35,324.76 346.38,323.03 			"/>
			<polygon class="st5" points="334.19,322.98 340.5,329.56 342.47,345.52 348.51,353.69 357.59,355.18 358.78,370.41 
				366.55,370.43 368.63,375.64 378.97,375.58 383.6,379.66 395.88,375.2 395.84,369.73 399.26,363.43 404.69,344.11 403.13,344.96 
				392.14,343.91 374.55,344.01 359.87,325.69 356.57,323.02 346.35,324.76 346.38,323.03 			"/>
			<polygon class="st4" points="306.07,402.59 320.94,403.06 318.23,413.91 333.14,401.1 342.1,389.24 380.41,386.1 379.98,382.66 
				383.6,379.66 378.97,375.58 356.36,375.73 354.22,378.7 344.62,378.71 343.38,374.56 338.55,369.73 331.51,368.01 327.51,369.7 
				321.93,377.42 316.01,374.59 308.26,373.92 304.18,386.24 			"/>
			<polygon class="st4" points="313.52,426.02 300.58,434.45 321.81,445.24 332.99,435.81 			"/>
			<polygon class="st5" points="306.07,402.59 320.94,403.06 318.23,413.91 333.14,401.1 342.1,389.23 380.41,386.1 379.98,382.66 
				383.6,379.66 378.97,375.58 356.35,375.73 354.22,378.7 344.62,378.71 343.38,374.55 338.55,369.73 331.51,368.01 327.51,369.7 
				321.93,377.42 316.01,374.59 308.26,373.92 304.18,386.24 			"/>
			<polygon class="st5" points="313.52,426.02 300.58,434.45 321.81,445.24 332.99,435.81 			"/>
			<polygon class="st4" points="228.63,199.56 231.31,205.19 229.96,207.69 234.89,215.3 282.85,204.39 275.58,202.57 
				274.66,197.31 269.99,192.98 271.36,190.81 263.32,187.05 266.76,186.54 265.12,183.59 267.13,177.76 264.59,176.57 
				268.23,169.91 265.58,165.57 238.98,165.51 238.9,176.18 202.24,176.27 203.25,179.8 209.57,182.28 209,186.46 219.59,189.71 			
				"/>
			<polygon class="st5" points="228.63,199.56 231.31,205.19 229.96,207.69 234.89,215.3 282.85,204.38 275.58,202.57 
				274.66,197.31 269.99,192.98 271.36,190.81 263.32,187.05 266.76,186.53 265.12,183.59 267.13,177.76 264.59,176.57 
				268.23,169.91 265.58,165.57 238.98,165.51 238.89,176.18 202.24,176.27 203.25,179.8 209.57,182.28 209,186.46 219.59,189.71 
							"/>
			<polygon class="st4" points="314.1,122.18 316.85,129.52 312.4,130.33 314.62,144.21 319.31,146.44 323.41,153.78 331.27,155.06 
				337.69,149.64 339.73,144.35 344.98,144.42 344.96,155.06 347.18,155.07 353.85,149.28 352.1,145.71 355.19,141.87 
				353.99,138.22 356.08,129.43 354.44,122.89 355.78,115.84 351.35,115.8 352.26,103.9 357.89,101.96 356.58,95.83 360.04,95.57 
				357.44,91 341.04,91.05 334.52,95.26 334.13,98.48 327.61,100.31 327.11,109.24 321.87,114.57 320.15,119.09 			"/>
			<polygon class="st5" points="314.1,122.18 316.85,129.53 312.4,130.33 314.62,144.21 319.31,146.44 323.41,153.78 331.27,155.06 
				337.69,149.64 339.73,144.35 344.98,144.42 344.96,155.06 347.18,155.07 353.85,149.28 352.1,145.7 355.19,141.87 353.99,138.22 
				356.08,129.43 354.44,122.89 355.78,115.84 351.35,115.79 352.26,103.9 357.89,101.96 356.58,95.83 360.04,95.57 357.44,91 
				341.04,91.05 334.52,95.26 334.13,98.48 327.61,100.31 327.11,109.24 321.87,114.57 320.14,119.09 			"/>
			<polygon class="st4" points="252.03,325.02 255.04,323.24 255.6,319.31 260.12,318.02 275.94,318.01 275.99,314.47 
				281.28,314.47 282.39,303.86 285.31,301.74 285.31,290.39 281.27,287.33 281.13,280.64 278.54,280.69 278.48,275.38 
				274.08,270.08 274.08,266.56 268.87,266.79 262.93,262.15 260.25,264.94 253.38,268.11 253.4,272.19 250.4,274.94 241.21,274.9 
				241.24,312.85 242.76,314.73 237.65,324.94 			"/>
			<polygon class="st5" points="252.03,325.01 255.04,323.23 255.6,319.31 260.12,318.02 275.94,318.01 275.98,314.47 
				281.28,314.47 282.39,303.86 285.31,301.74 285.31,290.39 281.27,287.33 281.13,280.64 278.54,280.69 278.48,275.37 
				274.08,270.08 274.08,266.56 268.87,266.79 262.93,262.15 260.25,264.94 253.38,268.11 253.4,272.19 250.4,274.94 241.21,274.9 
				241.24,312.85 242.76,314.73 237.65,324.94 			"/>
			<polygon class="st4" points="375.25,304.24 376,304.67 380.49,297.94 422.53,296.25 423.93,284.07 421.29,278.08 422.9,276.02 
				421.35,268.67 424.91,262.42 388.6,262.45 385.33,272.25 382.21,287.34 373.62,298.65 			"/>
			<polygon class="st5" points="375.25,304.24 376,304.66 380.49,297.94 422.53,296.25 423.93,284.07 421.29,278.08 422.9,276.01 
				421.35,268.67 424.91,262.41 388.6,262.45 385.32,272.25 382.21,287.34 373.62,298.65 			"/>
			<polygon class="st4" points="399.63,71.7 402.35,70.04 406.51,64.07 404.2,61.39 401.71,66.24 393.9,68.95 391.04,62.1 
				400.25,54.45 400.57,51.42 389.93,49.02 390.11,40.94 391.98,36.97 399.55,31.54 400.15,26.87 397.87,20.71 392.86,20.24 
				393.26,26.82 389.88,30.2 384.81,27.41 385.95,22.58 389.65,17.28 379.39,17.15 377.82,23.85 374.79,25.79 374.56,32.6 
				371.66,34.82 371.12,47.82 365.57,55.67 365.93,65.6 360.7,69.34 362.18,71.9 359.42,74.78 393.01,74.77 395.63,71.73 			"/>
			<polygon class="st5" points="399.63,71.7 402.35,70.04 406.51,64.07 404.2,61.39 401.71,66.24 393.9,68.95 391.04,62.1 
				400.25,54.45 400.57,51.42 389.93,49.02 390.11,40.94 391.98,36.97 399.55,31.53 400.15,26.87 397.87,20.71 392.86,20.24 
				393.26,26.82 389.88,30.2 384.81,27.41 385.95,22.58 389.65,17.28 379.39,17.15 377.82,23.85 374.79,25.79 374.56,32.6 
				371.66,34.82 371.12,47.82 365.57,55.67 365.93,65.6 360.7,69.34 362.18,71.9 359.42,74.78 393.01,74.77 395.63,71.73 			"/>
			<polygon class="st4" points="392.14,343.92 403.13,344.96 404.69,344.11 407.09,341.76 418.1,341.28 414.19,339.29 
				407.77,327.16 410.19,322.16 408.89,320.45 408.85,311.83 413.69,309.07 416.13,304.68 422.53,296.25 380.49,297.94 376,304.67 
				375.15,313.88 379.18,313.94 381.34,318.19 379.63,322.04 385.17,319.9 386.43,321.81 386.15,332.4 381.83,339.79 383.79,341.84 
				390.89,342 			"/>
			<polygon class="st5" points="392.14,343.91 403.13,344.96 404.69,344.11 407.09,341.76 418.1,341.28 414.19,339.29 
				407.77,327.16 410.19,322.16 408.89,320.45 408.85,311.83 413.68,309.07 416.13,304.68 422.53,296.25 380.49,297.94 376,304.66 
				375.15,313.88 379.18,313.94 381.34,318.19 379.63,322.04 385.17,319.9 386.42,321.82 386.15,332.4 381.83,339.79 383.79,341.84 
				390.89,342 			"/>
			<polygon class="st4" points="91.39,116.74 91.38,140.81 94.19,143.19 98.83,150.51 103.07,151.4 106.51,154.75 108.34,159.75 
				153.74,159.64 153.78,151.28 162.72,149.02 157.36,142.26 153.95,142.11 143.38,127.91 146.68,124.66 143.99,117.11 
				137.98,115.54 135.75,111.65 134.82,106.05 130.39,101.84 125.24,101.94 120.16,98.41 111.59,104.91 110.28,109.68 100.87,116.8 
							"/>
			<polygon class="st5" points="91.39,116.74 91.38,140.81 94.18,143.19 98.83,150.51 103.07,151.4 106.51,154.75 108.34,159.75 
				153.74,159.64 153.78,151.28 162.72,149.02 157.36,142.26 153.95,142.11 143.38,127.91 146.68,124.66 143.99,117.11 
				137.98,115.54 135.75,111.65 134.82,106.05 130.39,101.84 125.24,101.94 120.16,98.41 111.59,104.91 110.28,109.68 100.87,116.8 
							"/>
			<polygon class="st4" points="320.36,230.08 322.78,233.63 336.64,239.58 332.32,246.05 333.89,249.8 331.82,256.98 
				337.98,256.92 340.09,259.62 338.61,263.02 338.18,265.92 340.83,262.42 348.35,257.62 348.37,254.26 343.12,249.71 
				342.15,246.16 345.75,239.2 339.06,231.36 340.38,230.01 348.94,230.58 353.1,228.99 353.99,223.96 347.87,216.57 348.27,211.01 
				351.18,210.91 354.53,218.1 358.66,215.8 353.46,207.88 353.58,197.79 360.84,196.53 364.58,193.26 363.04,189.88 356.43,191.16 
				353.24,187.89 355.27,184 358.78,187.05 365.31,187.03 365.39,177.74 367.44,173.29 367.68,171.55 350.33,170.99 350.03,174.58 
				344.49,169.8 340.95,173.8 334.86,173.05 332.81,180.28 333.68,184.31 330.43,187.81 326.43,183.61 323.27,185.76 321.13,190.54 
				322.57,195.02 326.02,197.93 324.05,204.93 330.35,205.66 330.32,210.01 323.18,209.14 321.41,202.87 318.12,202.19 
				318.12,210.96 326.33,215.65 319.25,216.78 317.36,219.39 317.47,225.72 321.47,226.82 			"/>
			<polygon class="st5" points="320.36,230.08 322.78,233.63 336.64,239.58 332.32,246.05 333.89,249.8 331.82,256.98 
				337.98,256.92 340.08,259.62 338.61,263.02 338.18,265.92 340.83,262.41 348.35,257.62 348.37,254.26 343.12,249.71 
				342.15,246.16 345.75,239.2 339.06,231.36 340.38,230.01 348.94,230.58 353.1,228.99 353.99,223.96 347.87,216.57 348.27,211.01 
				351.18,210.91 354.53,218.1 358.66,215.8 353.46,207.87 353.58,197.79 360.84,196.53 364.58,193.26 363.04,189.88 356.43,191.16 
				353.24,187.89 355.26,184 358.78,187.05 365.31,187.03 365.38,177.74 367.44,173.29 367.68,171.55 350.33,170.99 350.03,174.58 
				344.49,169.8 340.95,173.8 334.86,173.05 332.81,180.28 333.68,184.31 330.43,187.81 326.43,183.61 323.27,185.75 321.13,190.54 
				322.57,195.02 326.02,197.93 324.04,204.93 330.35,205.66 330.32,210.01 323.18,209.14 321.41,202.87 318.12,202.18 
				318.12,210.96 326.32,215.65 319.25,216.78 317.36,219.39 317.47,225.72 321.47,226.82 			"/>
			<polygon class="st4" points="180.96,68.98 211.85,68.97 213.95,62.07 213.72,56.22 217.33,53.33 217.26,47.56 227.97,47.48 
				228.01,16 174.75,15.56 174.88,52.8 180.14,52.74 181.49,63.14 			"/>
			<polygon class="st5" points="180.96,68.98 211.85,68.97 213.95,62.07 213.72,56.21 217.33,53.33 217.26,47.56 227.97,47.48 
				228.01,16 174.75,15.56 174.88,52.8 180.14,52.74 181.49,63.14 			"/>
			<polygon class="st4" points="320.36,230.08 321.47,226.82 317.47,225.72 317.36,219.39 319.25,216.78 326.33,215.65 
				318.12,210.96 318.12,202.19 321.41,202.87 323.18,209.14 330.32,210.01 330.35,205.66 324.05,204.93 326.02,197.93 
				322.57,195.02 321.13,190.54 323.27,185.76 326.43,183.61 330.43,187.81 333.68,184.31 332.81,180.28 334.86,173.05 
				340.95,173.8 344.49,169.8 350.03,174.58 350.33,170.99 346.87,164.93 347.18,155.07 344.96,155.06 344.98,144.42 339.73,144.35 
				337.69,149.64 331.27,155.06 323.41,153.78 319.31,146.44 314.62,144.21 313.1,149.58 302.62,149.62 302.17,228.12 
				305.89,235.06 309.88,233.47 308.73,229.39 310.76,226.63 			"/>
			<polygon class="st5" points="320.36,230.08 321.47,226.82 317.47,225.72 317.36,219.39 319.25,216.78 326.32,215.65 
				318.12,210.96 318.12,202.18 321.41,202.87 323.18,209.14 330.32,210.01 330.35,205.66 324.04,204.93 326.02,197.93 
				322.57,195.02 321.13,190.54 323.27,185.75 326.43,183.61 330.43,187.81 333.68,184.31 332.81,180.28 334.86,173.05 
				340.95,173.8 344.49,169.8 350.03,174.58 350.33,170.99 346.87,164.92 347.18,155.07 344.96,155.06 344.98,144.42 339.73,144.35 
				337.69,149.64 331.27,155.06 323.41,153.78 319.31,146.44 314.62,144.21 313.1,149.58 302.62,149.61 302.17,228.12 
				305.89,235.06 309.88,233.47 308.73,229.39 310.76,226.63 			"/>
			<polygon class="st4" points="121.2,380.86 115.87,403.31 105.69,407.25 112.91,419.36 121.45,414.72 147.65,410.4 180.26,409.92 
				203.05,416.7 226.85,428.21 239.16,432.26 239.51,405.51 239.35,378.11 186.18,378.09 186.17,376.39 124.58,376.59 			"/>
			<polygon class="st5" points="121.2,380.85 115.87,403.31 105.69,407.25 112.91,419.36 121.45,414.72 147.65,410.39 
				180.26,409.92 203.05,416.7 226.84,428.2 239.16,432.26 239.51,405.51 239.35,378.11 186.18,378.09 186.17,376.39 124.58,376.59 
							"/>
			<polygon class="st4" points="302.62,149.62 313.1,149.58 314.62,144.21 312.4,130.33 316.85,129.52 314.1,122.18 309.03,119.3 
				305.27,120.4 305.46,114.26 302.62,112.71 303.87,106.83 292.15,106.86 292.18,109.07 287.36,109.07 286.11,106.85 
				270.84,106.76 270.77,149.6 			"/>
			<polygon class="st5" points="302.62,149.61 313.1,149.58 314.62,144.21 312.4,130.33 316.85,129.53 314.1,122.18 309.03,119.3 
				305.27,120.4 305.46,114.26 302.62,112.71 303.87,106.83 292.15,106.86 292.18,109.07 287.36,109.07 286.1,106.85 270.84,106.76 
				270.77,149.6 			"/>
			<polygon class="st4" points="126.18,353.47 124.73,357.47 127.66,366.49 123.51,372.76 126.97,375.46 124.58,376.59 
				186.17,376.39 186.18,378.09 199.87,378.08 199.89,372.83 211.15,372.81 209.04,369.19 210.56,363.96 199.88,363.88 
				199.81,351.43 196.31,351.44 196.28,337.17 185.9,337.1 185.9,334.32 159.55,334.38 159.6,323.86 149.06,323.81 149.09,334.4 
				122.59,334.42 120.45,340.26 122.54,346.59 126.42,347.93 			"/>
			<polygon class="st5" points="126.18,353.47 124.73,357.47 127.66,366.49 123.51,372.76 126.97,375.46 124.58,376.59 
				186.17,376.39 186.18,378.09 199.87,378.07 199.89,372.83 211.15,372.81 209.04,369.19 210.56,363.96 199.88,363.87 
				199.81,351.43 196.31,351.44 196.28,337.18 185.9,337.1 185.9,334.32 159.55,334.38 159.6,323.86 149.06,323.81 149.09,334.4 
				122.59,334.42 120.45,340.26 122.54,346.59 126.42,347.93 			"/>
			<polygon class="st4" points="91.33,55.67 91.39,116.74 100.87,116.8 110.28,109.68 111.59,104.91 120.16,98.41 125.24,101.94 
				130.39,101.84 134.82,106.05 135.75,111.65 150.63,111.69 145.08,107.18 141.91,100.14 134.62,96.39 133.58,92.22 130.23,91.21 
				126.4,79.76 122.26,77.56 121.27,71.42 122.81,68.26 119.74,67.66 121.57,64.55 118.4,53.31 114.55,50.37 118.28,44.41 
				114.02,43.41 117.62,39.77 118.08,35.4 114.38,29.89 116.42,26.19 112.35,24.46 114.7,20.77 115.03,15.38 91.34,15.41 			"/>
			<polygon class="st5" points="91.33,55.67 91.39,116.74 100.87,116.8 110.28,109.68 111.59,104.91 120.16,98.41 125.24,101.94 
				130.39,101.84 134.82,106.05 135.75,111.65 150.63,111.69 145.08,107.18 141.91,100.14 134.62,96.39 133.58,92.22 130.23,91.21 
				126.4,79.76 122.26,77.56 121.27,71.42 122.81,68.26 119.74,67.66 121.57,64.55 118.4,53.31 114.55,50.37 118.28,44.41 
				114.02,43.41 117.62,39.77 118.08,35.4 114.38,29.89 116.42,26.19 112.35,24.46 114.7,20.77 115.03,15.38 91.34,15.41 			"/>
			<polygon class="st4" points="115.03,15.38 114.7,20.77 112.35,24.46 116.42,26.19 114.38,29.89 118.08,35.4 117.62,39.77 
				114.02,43.41 118.28,44.41 114.55,50.37 118.4,53.31 121.57,64.55 119.74,67.66 122.81,68.26 121.27,71.42 122.26,77.56 
				126.4,79.76 130.23,91.21 133.58,92.22 134.62,96.39 141.91,100.14 145.08,107.18 150.63,111.69 155.09,111.85 157.16,110.03 
				155.49,104.09 157.72,95.56 155.8,91.76 160.85,90.46 153.74,90.44 153.19,79.67 153.38,47.27 150.36,44.57 152.82,33.87 
				149.6,31.26 149.62,26.79 146.29,25.3 144.47,19.9 145.47,15.48 			"/>
			<polygon class="st5" points="115.03,15.38 114.7,20.77 112.35,24.46 116.42,26.19 114.38,29.89 118.08,35.4 117.62,39.77 
				114.02,43.41 118.28,44.41 114.55,50.37 118.4,53.31 121.57,64.55 119.74,67.66 122.81,68.26 121.27,71.42 122.26,77.56 
				126.4,79.76 130.23,91.21 133.58,92.22 134.62,96.39 141.91,100.14 145.08,107.18 150.63,111.69 155.09,111.85 157.16,110.03 
				155.49,104.09 157.72,95.56 155.8,91.76 160.85,90.46 153.74,90.44 153.19,79.67 153.38,47.27 150.36,44.56 152.82,33.87 
				149.6,31.26 149.62,26.79 146.29,25.3 144.47,19.9 145.47,15.48 			"/>
			<polygon class="st4" points="155.09,111.85 177.3,111.83 177.6,117.2 180.08,122.57 218.73,122.75 220.13,114.94 222.83,111.7 
				222.59,85.14 212.01,85.07 211.85,68.97 180.96,68.98 181.73,76.18 184.25,84.93 174.95,85.06 174.95,90.47 160.85,90.46 
				155.8,91.76 157.72,95.56 155.49,104.09 157.16,110.03 			"/>
			<polygon class="st5" points="155.09,111.85 177.3,111.82 177.6,117.2 180.08,122.57 218.73,122.75 220.13,114.94 222.83,111.7 
				222.59,85.14 212.01,85.07 211.85,68.97 180.96,68.98 181.73,76.18 184.25,84.93 174.95,85.06 174.95,90.47 160.85,90.46 
				155.8,91.76 157.72,95.56 155.49,104.09 157.16,110.03 			"/>
			<polygon class="st4" points="122.59,334.42 149.09,334.4 149.06,323.81 159.6,323.86 159.55,334.38 185.9,334.32 185.98,310.88 
				201.65,310.83 201.72,277.07 185.63,276.55 155.83,276.48 149.92,279.36 143.56,276.73 141.57,278.2 142.09,282.27 
				135.74,291.82 136.48,296.69 134.01,301.23 128.66,305.71 129.11,310.8 124.06,313.68 123.41,318.85 127.14,329.43 			"/>
			<polygon class="st5" points="122.59,334.42 149.09,334.4 149.06,323.81 159.6,323.86 159.55,334.38 185.9,334.32 185.98,310.88 
				201.65,310.83 201.72,277.07 185.63,276.55 155.83,276.48 149.92,279.36 143.56,276.73 141.57,278.2 142.09,282.27 
				135.74,291.82 136.48,296.69 134.01,301.23 128.66,305.71 129.11,310.8 124.06,313.68 123.4,318.85 127.14,329.43 			"/>
			<polygon class="st4" points="274.08,266.56 274.08,270.08 278.48,275.38 278.54,280.69 322.33,280.7 323.48,278.82 323.3,265.66 
				331.82,256.98 333.89,249.8 332.32,246.05 336.64,239.58 322.78,233.63 320.36,230.08 310.76,226.63 308.73,229.39 
				309.88,233.47 305.89,235.06 302.17,228.12 302.34,222.86 299.32,220.79 294.19,221.7 286.31,226.1 283.16,221.91 279,223.28 
				278.89,246.43 281.61,266.89 			"/>
			<polygon class="st5" points="274.08,266.56 274.08,270.08 278.48,275.37 278.54,280.69 322.33,280.7 323.47,278.82 323.3,265.66 
				331.82,256.98 333.89,249.8 332.32,246.05 336.64,239.58 322.78,233.63 320.36,230.08 310.76,226.63 308.73,229.39 
				309.88,233.47 305.89,235.06 302.17,228.12 302.34,222.86 299.32,220.79 294.19,221.7 286.31,226.1 283.16,221.9 279,223.28 
				278.89,246.42 281.6,266.89 			"/>
			<polygon class="st4" points="380.41,386.1 387.91,401.09 395.35,403.43 397.26,406.44 396,425.41 398.31,427.33 406.18,416.79 
				414.67,403.08 418.74,394.01 418.67,390.39 414.57,390.47 414.54,385.3 411.03,385.33 410.64,374.73 406.28,373.21 395.88,375.2 
				383.6,379.66 379.98,382.66 			"/>
			<polygon class="st5" points="380.41,386.1 387.91,401.09 395.35,403.43 397.26,406.44 396,425.41 398.31,427.33 406.18,416.79 
				414.67,403.08 418.73,394.01 418.67,390.4 414.56,390.47 414.53,385.3 411.03,385.33 410.64,374.73 406.28,373.21 395.88,375.2 
				383.6,379.66 379.98,382.66 			"/>
			<polygon class="st4" points="410.64,374.73 415.62,369.11 443.99,362.75 444.95,356.15 443.24,354.84 439.04,361.52 
				435.96,359.92 432.89,353.75 426.48,349.63 424.42,344.48 418.1,341.28 407.09,341.76 404.69,344.11 399.26,363.43 
				395.84,369.73 395.88,375.2 406.28,373.21 			"/>
			<polygon class="st5" points="410.64,374.73 415.62,369.11 443.99,362.75 444.95,356.15 443.24,354.84 439.04,361.52 
				435.96,359.92 432.89,353.75 426.48,349.63 424.42,344.48 418.1,341.28 407.09,341.76 404.69,344.11 399.26,363.43 
				395.84,369.73 395.88,375.2 406.28,373.21 			"/>
			<polygon class="st4" points="185.89,331.86 192.69,331.78 192.7,330.06 222.76,330.17 222.93,324.08 237.83,324.13 
				242.76,314.73 241.24,312.85 241.21,274.9 228.61,274.59 217.77,275.64 217.62,277.37 201.72,277.07 201.65,310.83 
				185.98,310.88 			"/>
			<polygon class="st5" points="185.89,331.86 192.69,331.77 192.7,330.06 222.76,330.16 222.93,324.08 237.83,324.13 
				242.76,314.73 241.24,312.85 241.21,274.9 228.61,274.59 217.77,275.64 217.62,277.37 201.72,277.07 201.65,310.83 
				185.98,310.88 			"/>
			<polygon class="st4" points="238.32,371.63 245.75,369.39 254.47,375.26 259.01,376.77 264.17,374.71 276.96,362.08 
				277.21,358.33 284.92,353.79 284.9,350.33 288.44,346.86 286.74,340.74 284.95,340.75 284.89,330.26 277.85,330.29 277.8,325.05 
				237.65,324.94 240.91,330.19 240.74,334.84 237.75,337.75 238.21,355.08 241.89,360.83 238,366.67 			"/>
			<polygon class="st5" points="238.32,371.63 245.75,369.39 254.47,375.26 259.01,376.77 264.17,374.71 276.96,362.08 
				277.21,358.33 284.92,353.78 284.9,350.33 288.44,346.86 286.74,340.74 284.95,340.75 284.89,330.26 277.85,330.28 277.8,325.05 
				237.65,324.94 240.91,330.19 240.74,334.84 237.75,337.75 238.21,355.08 241.89,360.83 238,366.67 			"/>
			<polygon class="st6" points="503.54,380.61 501.45,387.04 494.69,387.04 500.16,391.01 498.07,397.44 503.54,393.46 509,397.44 
				506.91,391.01 512.39,387.04 505.62,387.04 			"/>
			<g>
				<path class="st7" d="M687.59-8.44"/>
				<g>
					<line class="st8" x1="4.65" y1="-8.44" x2="4.65" y2="515.67"/>
					<line class="st8" x1="687.59" y1="-8.44" x2="687.59" y2="515.67"/>
				</g>
			</g>
		</g>
	</g>
</g>
<g id="Layer_3">
	<g class="st9">
		<path class="st10" d="M513.61,118.84h4.64v22.24h10.88V145h-15.52V118.84z"/>
	</g>
	<g class="st9">
		<path class="st10" d="M531.49,135.2c0-6.56,4.44-10.32,9.32-10.32c4.92,0,9.36,3.76,9.36,10.32c0,6.52-4.44,10.28-9.36,10.28
			C535.93,145.48,531.49,141.72,531.49,135.2z M545.45,135.2c0-3.96-1.76-6.56-4.64-6.56c-2.88,0-4.6,2.6-4.6,6.56
			c0,3.92,1.72,6.52,4.6,6.52C543.69,141.72,545.45,139.12,545.45,135.2z"/>
		<path class="st10" d="M554.53,137.68v-12.32h4.6v11.72c0,3.24,0.92,4.44,3.04,4.44c1.72,0,2.88-0.8,4.36-2.72v-13.44h4.6V145
			h-3.76l-0.36-2.88h-0.12c-1.72,2.04-3.64,3.36-6.32,3.36C556.37,145.48,554.53,142.64,554.53,137.68z"/>
		<path class="st10" d="M576.45,119.32c0-1.56,1.2-2.64,2.84-2.64s2.84,1.08,2.84,2.64c0,1.52-1.2,2.6-2.84,2.6
			S576.45,120.84,576.45,119.32z M576.97,125.36h4.6V145h-4.6V125.36z"/>
		<path class="st10" d="M585.49,142.76l2.16-2.96c1.76,1.36,3.44,2.2,5.44,2.2c2.12,0,3.12-1,3.12-2.36c0-1.64-2.12-2.36-4.2-3.16
			c-2.6-0.96-5.52-2.44-5.52-5.72c0-3.44,2.76-5.88,7.16-5.88c2.72,0,4.92,1.12,6.52,2.36l-2.12,2.8c-1.36-1-2.76-1.68-4.32-1.68
			c-1.96,0-2.88,0.92-2.88,2.16c0,1.56,1.96,2.16,4.08,2.92c2.68,1,5.64,2.28,5.64,5.96c0,3.36-2.68,6.08-7.64,6.08
			C590.25,145.48,587.41,144.32,585.49,142.76z"/>
		<path class="st10" d="M604.17,119.32c0-1.56,1.2-2.64,2.84-2.64s2.84,1.08,2.84,2.64c0,1.52-1.2,2.6-2.84,2.6
			S604.17,120.84,604.17,119.32z M604.69,125.36h4.6V145h-4.6V125.36z"/>
		<path class="st10" d="M614.13,139.72c0-4.2,3.48-6.4,11.56-7.28c-0.08-2.08-0.92-3.84-3.6-3.84c-1.92,0-3.76,0.88-5.52,1.92
			l-1.68-3.08c2.16-1.36,4.96-2.56,8.08-2.56c4.88,0,7.32,3,7.32,8.48V145h-3.8l-0.32-2.16h-0.16c-1.76,1.48-3.76,2.64-6.08,2.64
			C616.49,145.48,614.13,143.16,614.13,139.72z M625.69,139.72v-4.4c-5.36,0.68-7.12,2.08-7.12,4.04c0,1.76,1.2,2.52,2.84,2.52
			C623.01,141.88,624.21,141.08,625.69,139.72z"/>
		<path class="st10" d="M635.81,125.36h3.8l0.32,2.64h0.16c1.76-1.72,3.76-3.12,6.44-3.12c4.2,0,6.04,2.84,6.04,7.8V145h-4.6v-11.72
			c0-3.24-0.92-4.44-3.08-4.44c-1.72,0-2.84,0.84-4.48,2.44V145h-4.6V125.36z"/>
		<path class="st10" d="M657.17,139.72c0-4.2,3.48-6.4,11.56-7.28c-0.08-2.08-0.92-3.84-3.6-3.84c-1.92,0-3.76,0.88-5.52,1.92
			l-1.68-3.08c2.16-1.36,4.96-2.56,8.08-2.56c4.88,0,7.32,3,7.32,8.48V145h-3.8l-0.32-2.16h-0.16c-1.76,1.48-3.76,2.64-6.08,2.64
			C659.53,145.48,657.17,143.16,657.17,139.72z M668.73,139.72v-4.4c-5.36,0.68-7.12,2.08-7.12,4.04c0,1.76,1.2,2.52,2.84,2.52
			C666.05,141.88,667.25,141.08,668.73,139.72z"/>
	</g>
	<g class="st9">
		<path class="st10" d="M557.82,158.1h4.2c4.8,0,7.63,2.59,7.63,7.78c0,5.21-2.83,7.92-7.49,7.92h-4.34V158.1z M561.83,171.54
			c3.17,0,4.97-1.8,4.97-5.67c0-3.84-1.8-5.52-4.97-5.52h-1.22v11.19H561.83z"/>
		<path class="st10" d="M572.27,158.39c0-0.94,0.72-1.58,1.7-1.58c0.98,0,1.71,0.65,1.71,1.58c0,0.91-0.72,1.56-1.71,1.56
			C572.99,159.95,572.27,159.3,572.27,158.39z M572.58,162.01h2.76v11.79h-2.76V162.01z"/>
	</g>
	<g class="st9">
		<path class="st10" d="M577.69,172.46l1.3-1.78c1.06,0.82,2.06,1.32,3.26,1.32c1.27,0,1.87-0.6,1.87-1.42
			c0-0.98-1.27-1.42-2.52-1.9c-1.56-0.58-3.31-1.46-3.31-3.43c0-2.06,1.66-3.53,4.3-3.53c1.63,0,2.95,0.67,3.91,1.42l-1.27,1.68
			c-0.82-0.6-1.66-1.01-2.59-1.01c-1.18,0-1.73,0.55-1.73,1.3c0,0.94,1.18,1.3,2.45,1.75c1.61,0.6,3.38,1.37,3.38,3.58
			c0,2.02-1.61,3.65-4.58,3.65C580.54,174.09,578.84,173.39,577.69,172.46z"/>
	</g>
	<g class="st9">
		<path class="st10" d="M589.14,169.82v-5.62h-1.68v-2.06l1.82-0.12l0.34-3.22h2.3v3.22h3v2.18h-3v5.62c0,1.39,0.53,2.06,1.66,2.06
			c0.41,0,0.89-0.12,1.22-0.26l0.48,2.04c-0.65,0.22-1.46,0.43-2.4,0.43C590.15,174.09,589.14,172.36,589.14,169.82z"/>
		<path class="st10" d="M597.4,162.01h2.28l0.19,2.09h0.1c0.84-1.54,2.09-2.38,3.34-2.38c0.6,0,0.98,0.07,1.34,0.24l-0.48,2.4
			c-0.41-0.12-0.72-0.19-1.22-0.19c-0.94,0-2.06,0.65-2.79,2.42v7.2h-2.76V162.01z"/>
		<path class="st10" d="M606.04,158.39c0-0.94,0.72-1.58,1.7-1.58c0.98,0,1.7,0.65,1.7,1.58c0,0.91-0.72,1.56-1.7,1.56
			C606.76,159.95,606.04,159.3,606.04,158.39z M606.35,162.01h2.76v11.79h-2.76V162.01z"/>
	</g>
	<g class="st9">
		<path class="st10" d="M611.86,167.92c0-3.94,2.76-6.19,5.9-6.19c1.51,0,2.59,0.58,3.46,1.32l-1.34,1.8
			c-0.62-0.55-1.22-0.86-1.97-0.86c-1.9,0-3.22,1.56-3.22,3.94c0,2.35,1.3,3.91,3.14,3.91c0.91,0,1.75-0.46,2.42-1.01l1.13,1.82
			c-1.1,0.96-2.5,1.44-3.84,1.44C614.34,174.09,611.86,171.83,611.86,167.92z"/>
	</g>
	<g class="st9">
		<path class="st10" d="M623.89,169.82v-5.62h-1.68v-2.06l1.82-0.12l0.34-3.22h2.3v3.22h3v2.18h-3v5.62c0,1.39,0.53,2.06,1.66,2.06
			c0.41,0,0.89-0.12,1.22-0.26l0.48,2.04c-0.65,0.22-1.46,0.43-2.4,0.43C624.9,174.09,623.89,172.36,623.89,169.82z"/>
	</g>
</g>
<g id="Layer_4">
	<circle class="st11" cx="503.54" cy="394.46" r="29.28"/>
	<circle class="st12" cx="503.54" cy="394.46" r="9.02"/>
</g>
</svg>
