<svg xmlns="http://www.w3.org/2000/svg" viewBox="0 0 784.06 507.87"><defs><style>.cls-1{fill:#e6e6e6;}.cls-2,.cls-4{opacity:0.8;}.cls-3,.cls-7{fill:#007dbc;}.cls-3{opacity:0.8;}.cls-4{fill:#a5a5a5;}.cls-5,.cls-6,.cls-8{fill:none;}.cls-5{stroke:#868788;stroke-width:0.67px;}.cls-5,.cls-6{stroke-linejoin:bevel;}.cls-6{stroke:#0675af;stroke-width:0.67px;}.cls-7{opacity:0.8;}.cls-8{stroke:#fff;stroke-miterlimit:10;stroke-width:3px;}.cls-9{fill:#fff;}</style></defs><g id="Background"><rect class="cls-1" x="-11.18" y="-11.39" width="804.92" height="529.99"/></g><g id="Layer_10" data-name="Layer 10"><polygon class="cls-3" points="348.5 447.8 353.1 451.61 359.18 460.56 361.96 470.48 360.89 473.58 362.76 479.37 365.46 480.25 367.15 487.94 407.37 483.99 407.48 462.53 408.36 462.53 408.19 445.94 362.51 445.65 362.49 444.85 357.39 442.87 357.65 442.19 351.9 442.19 351.91 443.77 349.18 444.61 348.5 447.8"/><polygon class="cls-3" points="416.47 483.15 462.16 479.28 462.85 478.03 466.27 478.83 469.77 477.48 469.58 475.88 472.06 473.34 472.3 470.39 470.19 464.75 466.96 464.86 465.12 463.76 464.09 464.26 462.68 461.89 463.78 458.37 463.84 453.3 462.01 452.45 462.97 449 461.98 447.14 465.81 445.58 408.19 445.94 408.36 462.53 407.48 462.53 407.37 483.99 416.47 483.15"/></g><g id="Layer_14" data-name="Layer 14"><polygon class="cls-4" points="274.17 400.83 281.86 405.76 283.96 411.03 287.87 413.89 295.19 416.5 295.35 415.08 301.36 410.62 306.13 410.64 306.15 407.19 307.53 407.2 307.37 404.73 297.68 380.8 293.93 380.79 293.93 379.76 283.38 379.66 283.38 377.57 282.06 376.51 277.89 376.51 277.91 375.49 275.53 375.47 275.54 396.87 275.16 399.69 274.17 400.83"/><polygon class="cls-4" points="271.91 452.62 270.38 453.86 274.48 455.95 276.35 455.26 271.91 452.62"/><polygon class="cls-4" points="274.17 400.83 275.16 399.69 275.54 396.87 275.53 375.47 271.84 375.65 268.66 373.09 266.39 371.98 263.55 371.98 260.18 370.43 259.24 369.16 257.04 368.8 256.32 367.82 254.28 367.93 249.83 365.2 246.82 367.13 246.06 369.2 240.49 369.96 241.56 372.48 241.66 375.17 236.18 371.3 233.88 371.04 228.44 372.66 227.84 371.94 226.99 375.33 229.38 377.55 228.3 382.47 229.77 384.94 228.01 390.89 233.28 393.65 235.6 397.37 241.67 396.21 253.18 396.65 258.32 399.22 264.99 399.77 271.01 398.98 274.17 400.83"/><polygon class="cls-4" points="256.77 414.97 258.46 419.62 264.77 420.5 270.89 418.88 270.75 416.01 268.06 418.01 264.83 416.59 256.77 414.97"/><polygon class="cls-4" points="251.34 416.87 244.1 418.22 248.77 423.7 254.74 421.42 251.34 416.87"/><polygon class="cls-4" points="239.04 415.13 236.2 416.84 241.67 417.67 239.04 415.13"/><polygon class="cls-4" points="295.19 416.5 300.69 418.65 303.09 417.12 309.94 416.68 313.06 418.38 317.1 426.44 316.27 430.99 320.74 432.47 322.61 429.6 328.68 429.42 330.19 425.99 333.45 423.3 333.46 421.24 341.09 421.22 340.32 419.82 341.71 417.53 342.94 417.78 345.27 410.78 346.53 404.81 345.69 391.98 345.68 379.26 298.58 379.49 297.68 380.8 307.37 404.73 307.53 407.2 306.15 407.19 306.13 410.64 301.36 410.62 295.35 415.08 295.19 416.5"/><polygon class="cls-4" points="308.58 443.42 313.21 446.22 314.5 450.86 319.68 451.94 320.26 450.16 317.81 446.68 308.58 443.42"/><polygon class="cls-4" points="309.05 464.36 312.79 473.03 315.7 475.32 318 473.71 313.12 469.42 309.05 464.36"/><polygon class="cls-4" points="341.09 421.22 345.42 424.82 346.14 422.23 347.9 422.23 347.92 420.01 349.99 419.21 349.98 417.06 357.21 417.04 357.21 417.74 363.14 417.77 363.14 418.46 374.83 418.43 374.83 417.04 438.58 417.04 438.59 414.95 473.39 414.86 474.16 413.53 477.89 412.07 479.25 410.52 480.48 410.4 484.1 406.65 485.24 406.35 485.13 404.18 483.61 401.98 481.66 401.18 477.18 397.09 475.31 396.78 475.55 393.33 473.35 390.11 472.78 386.7 471.92 384.5 468.75 381.94 467.19 378.36 465.77 377.29 465.56 370.62 425.46 331.48 422 331.48 422 332.24 347.03 332.06 346.98 336.31 346.27 337.73 347.69 337.72 347 339.15 347.07 379.27 345.68 379.26 345.69 391.98 346.53 404.81 345.27 410.78 342.94 417.78 341.71 417.53 340.32 419.82 341.09 421.22"/><polygon class="cls-4" points="351.9 442.19 357.65 442.19 357.39 442.87 362.49 444.85 362.51 445.65 408.19 445.94 465.81 445.58 465.98 444.48 468.55 440.88 469.88 439.91 469.23 438.09 469.96 437.15 469.57 434.38 470.98 433.08 470.56 429.71 469.73 427.47 469.66 425.44 470.68 425.05 469.45 422.2 473.28 417.58 473.39 414.86 438.59 414.95 438.58 417.04 374.83 417.04 374.83 418.43 363.14 418.46 363.14 417.77 357.21 417.74 357.21 417.04 349.98 417.06 349.99 419.21 347.92 420.01 347.9 422.23 346.14 422.23 345.42 424.82 349.09 429.63 350.84 430.19 350.94 432.44 353.29 432.76 355.72 434.88 351.88 440.81 351.9 442.19"/><polygon class="cls-4" points="328.34 430.48 331.3 433.97 340.98 440.42 343.81 444.32 348.5 447.8 349.18 444.61 351.91 443.77 351.88 440.81 355.72 434.88 353.29 432.76 350.94 432.44 350.84 430.19 349.09 429.63 345.42 424.82 341.09 421.22 333.46 421.24 333.45 423.3 330.19 425.99 328.34 430.48"/><polygon class="cls-4" points="134.83 208.34 135.13 207.83 138.63 207.12 145.22 212.8 148.85 214.09 152.13 214.05 152.41 215.15 154.96 217.65 158.37 215.37 159.77 215.29 160.37 213.98 159.96 210.79 158.47 209.06 158.87 207.88 156.76 204.13 154.79 201.85 155.37 200.42 153.53 199.57 152.97 197.03 149.92 194.99 148.92 193.03 149.63 191.82 149.66 189.57 148.91 187.61 147.12 187.37 144.89 183.47 144.87 182.64 141.99 180.31 131.74 180.2 131.73 180.91 129.54 180.85 129.56 182.39 120.38 182.52 120.39 184.02 115.21 183.96 114.44 184.88 121.78 194.74 129.84 200.51 132.65 208.21 134.83 208.34"/><polygon class="cls-4" points="187.66 214.2 189.66 213.37 190.17 212.13 190.06 208.35 190.55 207.46 186.54 207.43 186.52 196.67 184.79 196.12 183.74 196.73 179.99 196.07 176.75 196.33 173.98 198.6 172.22 197.18 170.38 197.36 169.46 201.62 171.56 205.05 171.9 207.32 166.32 207.33 167.01 209.55 166.07 209.49 166.71 211.62 165.96 214.17 166.74 215.41 162.97 215.41 165.48 219.93 169.27 221.02 171.98 216.4 173.97 218.5 177.97 219.08 178.47 220.67 182.21 220.05 185.97 217.38 187.66 214.2"/><polygon class="cls-4" points="162.65 215.41 158.41 215.37 164.65 219.35 162.65 215.41"/><polygon class="cls-4" points="162.88 267.7 165.65 271.77 170.28 275.18 175.41 275.28 176.85 274.09 180.01 276.62 181.9 280.41 182.99 278.64 185.34 277.25 188.53 278.24 189.1 277.37 191 277.92 191.01 277 189.28 275.96 188.46 276.36 187.72 274.83 186.39 274.36 184.03 270.54 181.48 268.64 174.81 265.87 173.42 264.76 172.27 262.48 170.35 261.4 168.43 258.81 168.42 262.33 164.87 262.35 164.87 263.6 161.9 263.75 162.88 267.7"/><polygon class="cls-4" points="191 277.92 193.67 275.72 194.65 273.84 196.11 273.56 197.44 274.96 205.46 274.92 204.29 273.36 204.25 271.74 205.69 269.63 204.37 268.42 205.01 266.33 202.82 263.91 201 264.79 199.96 263.9 197.99 265.28 197.5 262.54 195.96 260.65 195.84 258.99 197.94 257.59 197.23 255.21 197.67 253.69 195.93 253.39 195.3 252 195.3 249.07 179.78 248.95 177.41 250.45 169.9 249.87 166.93 251.62 166.46 254.98 167.54 256.86 166.86 257.19 170.35 261.4 172.27 262.48 173.42 264.76 174.81 265.87 181.48 268.64 184.03 270.54 186.39 274.36 187.72 274.83 188.46 276.36 189.28 275.96 191.01 277 191 277.92"/><polygon class="cls-4" points="154.59 237.81 153.93 246.52 155.88 248.16 158.59 255.12 157.9 261.04 161.43 267.45 162.88 267.7 161.9 263.75 164.87 263.6 164.87 262.35 168.42 262.33 168.43 258.81 166.86 257.19 167.54 256.86 166.46 254.98 166.93 251.62 169.9 249.87 166.46 246.16 159.15 241.73 158.92 237.79 154.59 237.81"/><polygon class="cls-4" points="158.92 237.79 160.35 236.78 157.84 232.66 154.17 234.07 154.59 237.81 158.92 237.79"/><polygon class="cls-4" points="158.41 215.37 158.37 215.37 158.45 215.37 158.41 215.37"/><polygon class="cls-4" points="158.45 215.37 166.74 215.41 165.96 214.17 166.71 211.62 166.07 209.49 167.01 209.55 166.32 207.33 171.9 207.32 171.56 205.05 169.46 201.62 170.38 197.36 169.4 193.81 167.81 190.19 165.6 187.92 165.17 185.89 163.08 180.83 160.68 181.03 158.84 179.59 159.7 181.99 158.73 182.65 156.13 187.66 149.66 189.57 149.63 191.82 148.92 193.03 149.92 194.99 152.97 197.03 153.53 199.57 155.37 200.42 154.79 201.85 156.76 204.13 158.87 207.88 158.47 209.06 159.96 210.79 160.37 213.98 159.77 215.29 158.45 215.37"/><polygon class="cls-4" points="94.51 121.42 101.2 130.03 103.86 138.95 104.4 145.44 102.52 150.28 102.23 154.93 104.48 162.81 106.45 165.81 107.7 171.07 105.79 175.24 109.36 180.55 114.44 184.88 115.21 183.96 120.39 184.02 120.38 182.52 129.56 182.39 129.54 180.85 131.73 180.91 131.74 180.2 141.99 180.31 139.11 178.76 139.13 178.01 136.96 177.77 135.82 175.41 135.47 172.84 133.83 172.87 132.72 171.63 132.37 169.42 131.27 169.04 131.87 163.85 133.36 162.9 135.15 160.69 134.17 158.54 134.16 156.3 131.97 151.91 132.44 147 133.94 146.23 137.44 146.34 139.28 145.7 139.18 136.47 138.38 136.47 138.4 134.45 137.38 134.46 137.4 131.88 136.51 129.46 136.94 126.22 138.09 125.75 137.55 122.61 113.42 122.67 113.42 121.39 94.51 121.42"/><polygon class="cls-4" points="134.83 208.34 139.58 217 135.13 211.09 136.97 215.43 134.43 223.13 137.47 218.96 137.87 221.68 142.02 223.38 146.69 228.52 149.06 228.34 153.44 232.25 155.53 231.93 153.82 228.94 156.68 229.59 154.9 224.69 154.96 217.65 152.41 215.15 152.13 214.05 148.85 214.09 145.22 212.8 138.63 207.12 135.13 207.83 134.83 208.34"/><polygon class="cls-4" points="139.47 143.08 139.28 145.7 137.44 146.34 133.94 146.23 132.44 147 131.97 151.91 134.16 156.3 134.17 158.54 135.15 160.69 133.36 162.9 131.87 163.85 131.27 169.04 132.37 169.42 132.72 171.63 133.83 172.87 135.47 172.84 135.82 175.41 136.96 177.77 139.13 178.01 139.11 178.76 141.99 180.31 144.87 182.64 144.89 183.47 147.12 187.37 148.91 187.61 149.66 189.57 156.13 187.66 158.73 182.65 159.7 181.99 157.78 177.74 158.49 176.5 161.01 176.55 158.29 174.59 158.12 171.67 155.04 170 154.83 165.55 155.71 165.32 154.09 162.05 151.8 162.3 147.55 160.54 144.54 158.21 143.83 156.81 145.25 153.16 145.39 143.05 139.47 143.08"/><polygon class="cls-4" points="92.85 45.1 91.21 57.41 89.16 62.02 89.36 66.71 91.01 68.06 87.99 78.64 80.12 95.05 79.28 98.55 81.64 105.39 81.06 108 88 114.75 91.03 116.11 92.23 119.88 94.51 121.42 113.42 121.39 113.44 83.13 112.62 80.61 112.82 78.43 111.57 76.44 110.34 73.09 111.56 73.32 112.8 72.12 115.9 73.97 117.24 72.46 117.03 71.39 118.89 68.79 118.21 66.47 116.61 65.52 117.98 63.33 117.85 61.01 118.81 60.08 116.94 57.09 117.44 56.43 116.21 50.29 115.14 49.42 104.5 49.52 104.49 45.12 92.85 45.1"/><polygon class="cls-4" points="87.06 16.83 87.26 22.11 85.31 28.27 89.05 30.68 91.41 37.75 92.85 45.1 104.49 45.12 104.5 49.52 108.8 49.45 109.31 47.41 110.76 45.23 109.87 44.01 109.33 41.39 107.52 40.23 107.98 38.24 106.52 38.19 107.69 34.28 108.85 31.92 107.74 28.36 108.36 27.6 107.13 25.8 108.43 25.49 109.54 22.63 110.68 23.08 112.6 21.9 114.47 16.7 108.98 17.01 87.06 16.83"/><polygon class="cls-4" points="162.11 228.34 163.75 227.92 165.61 229.29 167.11 232.18 168.89 232.98 172.66 233.31 174.54 235.05 173.99 235.84 176.01 237.28 191.98 232.2 192.78 230.61 191.08 230.22 191.94 227.03 190.99 222.78 187.99 220.4 184.69 222.22 173.57 220.29 168.47 222.06 164.81 220.28 157.49 224.97 159.1 227.62 162.11 228.34"/><polygon class="cls-4" points="162.11 228.34 161.5 233.29 164.84 234.03 164.14 236.2 167.99 239.62 170.31 248.25 175.45 250.14 177.41 250.45 179.78 248.95 195.33 249.09 194.05 246.9 191.98 246.06 191.98 232.2 176.01 237.28 173.99 235.84 174.54 235.05 172.66 233.31 168.89 232.98 167.11 232.18 165.61 229.29 163.75 227.92 162.11 228.34"/><polygon class="cls-4" points="197.58 172.87 201.94 170.03 202.93 170.94 202.93 160.96 203.43 158.86 205.24 158.3 205.82 156.57 207.55 155.75 208.92 153.33 210.65 152.58 213.1 152.74 212.62 146.45 211.68 145.31 213.01 144.16 213.6 140.03 210.94 142.2 209.75 143.74 208.05 144.35 208.05 145.83 204.47 145.82 204.48 146.51 201.92 146.18 201.53 148.42 200.76 148.79 200.76 151.01 199.61 152.13 199.24 154.11 197.91 155.36 195.21 155.71 191.72 157.16 189.79 156.44 188.84 159.38 189.7 161.05 189.53 163.39 190.81 168.17 189.87 169.75 191.4 175.81 192.5 174.1 194.63 173.1 197.58 172.87"/><polygon class="cls-4" points="170.38 197.36 172.22 197.18 173.98 198.6 176.75 196.33 179.99 196.07 183.74 196.73 184.79 196.12 186.52 196.67 186.54 207.43 190.55 207.46 193.36 205.09 193.56 202.72 192.96 201.66 194.1 201.03 193.87 199.41 191.88 198.14 193.22 197.08 193.97 193.68 192.25 193.01 191.64 190.84 190.5 190.75 189.06 188.04 190.56 184.74 189.31 183.61 188.91 184.53 186.61 184.49 186.68 183.08 185.39 182.66 185.38 180.2 184.35 179.24 182.98 179.98 181.77 178.97 182.11 177.01 180.95 176.54 158.49 176.5 157.78 177.74 158.84 179.59 160.68 181.03 163.08 180.83 165.17 185.89 165.6 187.92 167.81 190.19 169.4 193.81 170.38 197.36"/><polygon class="cls-4" points="113.42 121.39 113.42 122.67 137.55 122.61 136.85 121.57 136.48 116.32 135.35 113.97 136.12 111.86 135.38 108.56 132.91 107.63 132.36 106.65 132.22 104.31 135.06 101 134.99 99.85 136.69 99.69 138.82 98.44 141.03 95.33 143.11 94.84 143.43 93.47 145.88 91.69 146.84 91.99 146.41 88.77 144.74 85.71 145.91 85.42 146.11 82.73 147.99 81.35 148.14 78.62 150.73 74.76 150.46 71.72 153.6 68.76 154.17 64.89 156.4 64.45 156.83 61.17 154.76 59.94 153.81 58.32 154.17 54.63 155.54 52.71 152.66 50.52 151.33 50.67 151.11 52.41 148.94 52.48 148.63 54.34 146.32 55.1 145.82 56.49 143.75 57.41 142.4 58.9 139.45 58.76 137.49 60.22 136.47 60 136.85 61.6 135.99 63.64 136.25 65.21 137.97 65.74 139 68.02 138.2 69.83 136.34 68.89 133.49 69.3 132.76 67.07 129.36 65.36 125.48 65.54 124.14 63.07 121.05 60.99 119.88 61.58 118.81 60.08 117.85 61.01 117.98 63.33 116.61 65.52 118.21 66.47 118.89 68.79 117.03 71.39 117.24 72.46 115.9 73.97 112.8 72.12 111.56 73.32 110.34 73.09 111.57 76.44 112.82 78.43 112.62 80.61 113.44 83.13 113.42 121.39"/><polygon class="cls-4" points="137.55 122.61 138.09 125.75 136.94 126.22 136.51 129.46 137.4 131.88 172.62 131.91 171.72 129.7 172.68 127.47 182.2 127.45 184.31 126.29 184.48 124.66 186.19 122.3 188.45 122.39 188.85 120.15 190.44 118.51 190.8 116.3 193.8 116.3 196.08 115.18 196.71 113.64 196.62 111.41 197.88 111.6 199.42 110.52 200.13 107.22 199.09 106.08 200.45 105.47 198.89 103.88 195.39 103.37 194.84 100.97 195.24 99.56 194.31 98.42 191.64 98.41 190.72 99.14 188.43 98.99 186.88 98.03 184.95 98.94 182.1 98.45 179.22 98.91 176.79 100 174.05 99.41 169.34 100.85 162.19 102.29 156.87 102.17 153.75 101.08 148.75 104.5 144.88 102.57 140.71 103.76 139.98 103.44 137.9 105.65 135.85 105.19 132.36 106.65 132.91 107.63 135.38 108.56 136.12 111.86 135.35 113.97 136.48 116.32 136.85 121.57 137.55 122.61"/><polygon class="cls-4" points="180.95 176.54 182.11 177.01 181.77 178.97 182.98 179.98 184.35 179.24 185.38 180.2 185.39 182.66 186.68 183.08 186.61 184.49 188.91 184.53 189.31 183.61 190.56 184.74 190.15 186.11 194.83 186.17 195.42 185.32 195.43 176.46 197.6 176.45 197.58 172.87 194.63 173.1 192.5 174.1 191.4 175.81 189.87 169.75 190.81 168.17 189.53 163.39 189.7 161.05 188.84 159.38 189.32 157.63 188.79 157.13 178.08 157.21 176.5 160.46 177.25 162.65 176.61 163.49 178.84 169.02 180.44 169.09 182.46 172.79 180.78 174.96 180.95 176.54"/><polygon class="cls-4" points="118.81 60.08 119.88 61.58 121.05 60.99 124.14 63.07 125.48 65.54 129.36 65.36 132.76 67.07 133.49 69.3 136.34 68.89 138.2 69.83 139 68.02 137.97 65.74 136.25 65.21 135.99 63.64 136.85 61.6 136.47 60 137.49 60.22 139.45 58.76 142.4 58.9 143.75 57.41 145.82 56.49 146.32 55.1 148.63 54.34 148.94 52.48 151.11 52.41 151.33 50.67 152.66 50.52 155.54 52.71 154.17 54.63 153.81 58.32 154.76 59.94 196.33 59.89 195.91 19.41 196.29 16.88 159.51 16.25 133.15 16.59 129.17 16.26 121.2 16.8 114.47 16.7 112.6 21.9 110.68 23.08 109.54 22.63 108.43 25.49 107.13 25.8 108.36 27.6 107.74 28.36 108.85 31.92 107.69 34.28 106.52 38.19 107.98 38.24 107.52 40.23 109.33 41.39 109.87 44.01 110.76 45.23 109.31 47.41 108.8 49.45 115.14 49.42 116.21 50.29 117.44 56.43 116.94 57.09 118.81 60.08"/><polygon class="cls-4" points="253.34 150 253.45 135.78 252.87 136.48 227.64 136.59 226.59 138.12 223.87 135.92 222.18 136.42 221.26 134.51 219.08 132.97 216.57 134.93 215.97 138.33 213.6 140.03 213.01 144.16 211.68 145.31 212.62 146.45 213.1 152.74 214.26 151.57 216.67 151.43 220.41 150.24 222.21 150.19 225.29 148.06 227.45 145.97 230.65 145.99 231.52 146.5 232.37 149 233.52 149.94 253.34 150"/><polygon class="cls-4" points="194.31 98.42 201.02 98.43 201.33 74.44 200.84 74.47 200.88 59.87 154.76 59.94 156.83 61.17 156.4 64.45 154.17 64.89 153.6 68.76 150.46 71.72 150.73 74.76 148.14 78.62 147.99 81.35 146.11 82.73 145.91 85.42 144.74 85.71 146.41 88.77 146.84 91.99 145.88 91.69 143.43 93.47 143.11 94.84 141.03 95.33 138.82 98.44 136.69 99.69 134.99 99.85 135.06 101 132.22 104.31 132.36 106.65 135.85 105.19 137.9 105.65 139.98 103.44 140.71 103.76 144.88 102.57 148.75 104.5 153.75 101.08 156.87 102.17 162.19 102.29 169.34 100.85 174.05 99.41 176.79 100 179.22 98.91 182.1 98.45 184.95 98.94 186.88 98.03 188.43 98.99 190.72 99.14 191.64 98.41 194.31 98.42"/><polygon class="cls-4" points="191.98 232.2 191.98 246.06 194.05 246.9 195.33 249.09 203.16 241.29 206.58 238.82 207.7 237.35 210.5 236.14 212.84 236.17 214.14 235.2 217.11 236.28 216.88 219.31 216.39 218.76 212.94 208.23 211.6 208.26 205.2 210.93 203.37 210.52 200.58 211.7 197.36 211.28 195.34 210.15 193.06 213.46 193.25 214.57 190.92 217.5 191.47 218.33 190.99 222.78 191.94 227.03 191.08 230.22 192.78 230.61 191.98 232.2"/><polygon class="cls-4" points="184.84 218.93 191.47 218.33 190.92 217.5 193.25 214.57 193.06 213.46 195.34 210.15 197.36 211.28 200.58 211.7 203.37 210.52 205.2 210.93 211.6 208.26 212.94 208.23 212.89 197.63 209.28 187.04 208.41 187.31 194.83 186.17 190.15 186.11 189.06 188.04 190.5 190.75 191.64 190.84 192.25 193.01 193.97 193.68 193.22 197.08 191.88 198.14 193.87 199.41 194.1 201.03 192.96 201.66 193.56 202.72 193.36 205.09 190.55 207.46 190.06 208.35 190.17 212.13 189.66 213.37 187.66 214.2 186 217.94 184.84 218.93"/><polygon class="cls-4" points="194.31 98.42 195.24 99.56 194.84 100.97 195.39 103.37 198.89 103.88 200.45 105.47 199.09 106.08 200.13 107.22 199.42 110.52 197.88 111.6 196.62 111.41 196.71 113.64 197.99 113.66 197.97 115.52 199.48 117.04 197.4 120.67 197.76 123.63 196.98 125.88 197.7 128.11 199.7 128.93 200.11 130.47 203.37 133.39 203.38 134.14 205.64 135.61 205.73 136.91 207.21 137.67 208.57 140.61 210.12 140.99 210.94 142.2 215.97 138.33 216.57 134.93 219.08 132.97 221.26 134.51 222.18 136.42 223.87 135.92 226.59 138.12 227.64 136.59 247.68 136.53 249.12 133.55 249.19 124.61 247.02 123.1 246.28 120.79 245.54 120.79 245.21 117.05 243.74 117.06 243.74 115.92 240 115.54 237.37 113.87 235.87 112.35 235.54 110.85 234.41 110.85 233.31 108.62 230.7 107.85 230.7 106.73 228.88 106.72 227.72 105.58 223.29 105.15 222 105.93 222.04 107.13 220.54 107.49 219.04 109 219.04 111.18 216.8 111.57 216.1 110.08 213.83 110.07 211.54 108.23 211.55 98.38 194.31 98.42"/><polygon class="cls-4" points="194.83 186.17 208.41 187.31 209.91 183.59 209.99 182.07 211.67 180.47 211.84 177.8 215.65 175.79 216.34 174.62 219.36 175.02 221.38 172.69 223.14 172.22 224.93 172.76 227.61 175.3 229.29 175.59 231.18 177.09 233.27 176.18 234.89 174.42 236.3 171.26 240.53 171.56 246.22 171.12 247.81 169.28 253.39 169.27 253.24 156.57 227.97 156.64 224.71 158.03 221.7 160.82 219.84 161.9 219.07 163.56 216.05 165.4 214.51 167.5 214.27 168.89 212.33 172 209.82 172.08 208.54 170.77 206.65 172.01 205.28 172.1 202.93 170.94 201.94 170.03 197.58 172.87 197.6 176.45 195.43 176.46 195.42 185.32 194.83 186.17"/><polygon class="cls-4" points="202.93 170.94 205.28 172.1 206.65 172.01 208.54 170.77 209.82 172.08 212.33 172 214.27 168.89 214.51 167.5 216.05 165.4 219.07 163.56 219.84 161.9 221.7 160.82 224.71 158.03 227.97 156.64 253.24 156.57 253.34 150 233.52 149.94 232.37 149 231.52 146.5 230.65 145.99 227.45 145.97 225.29 148.06 222.21 150.19 220.41 150.24 216.67 151.43 214.26 151.57 213.1 152.74 210.65 152.58 208.92 153.33 207.55 155.75 205.82 156.57 205.24 158.3 203.43 158.86 202.93 160.96 202.93 170.94"/><polygon class="cls-4" points="196.29 16.88 195.91 19.41 196.33 59.89 253.5 59.87 253.52 17.04 196.29 16.88"/><polygon class="cls-4" points="200.88 59.87 200.84 74.47 201.33 74.44 201.02 98.43 211.55 98.38 211.54 108.23 213.83 110.07 216.1 110.08 216.8 111.57 219.04 111.18 219.04 109 220.54 107.49 222.04 107.13 222 105.93 223.29 105.15 227.72 105.58 228.88 106.72 230.7 106.73 230.7 107.85 233.31 108.62 234.41 110.85 235.54 110.85 235.87 112.35 237.37 113.87 240 115.54 243.74 115.92 243.74 117.06 245.21 117.05 245.54 120.79 246.28 120.79 247.02 123.1 249.19 124.61 249.12 133.55 247.68 136.53 252.87 136.48 253.45 135.78 253.6 117.88 253.5 59.87 200.88 59.87"/><polygon class="cls-4" points="139.47 143.08 145.39 143.05 145.25 153.16 169.08 153.04 169.08 151.56 174.11 151.61 174.07 153.13 178.81 153.13 179.56 149.76 179.31 146.69 180.13 145.29 174.69 145.45 174.33 143.43 174.76 140.54 175.72 139.58 175.05 138.46 176.77 137.03 173.49 133.44 172.62 131.91 137.4 131.88 137.38 134.46 138.4 134.45 138.38 136.47 139.18 136.47 139.47 143.08"/><polygon class="cls-4" points="212.89 197.63 216.2 196.64 218.52 196.78 220.24 195.2 223.45 195.26 228.67 197.88 233.32 197.45 238.54 195.78 240.9 195.85 242.98 194.95 244.65 193.15 245 191.54 248.08 190.9 249.11 187.63 250.63 187.78 254.88 184.07 258.34 179.23 257.27 176.09 253.45 172.72 253.39 169.27 247.81 169.28 246.22 171.12 240.53 171.56 236.3 171.26 234.89 174.42 233.27 176.18 231.18 177.09 229.29 175.59 227.61 175.3 224.93 172.76 223.14 172.22 221.38 172.69 219.36 175.02 216.34 174.62 215.65 175.79 211.84 177.8 211.67 180.47 209.99 182.07 209.91 183.59 208.41 187.31 209.28 187.04 212.89 197.63"/><polygon class="cls-4" points="145.25 153.16 143.83 156.81 144.54 158.21 147.55 160.54 151.8 162.3 154.09 162.05 155.71 165.32 154.83 165.55 155.04 170 158.12 171.67 158.29 174.59 161.01 176.55 180.95 176.54 180.78 174.96 182.46 172.79 180.44 169.09 178.84 169.02 176.61 163.49 177.25 162.65 176.5 160.46 178.08 157.21 178.81 153.13 174.07 153.13 174.11 151.61 169.08 151.56 169.08 153.04 145.25 153.16"/><polygon class="cls-4" points="214.15 211.87 216.39 218.76 227.65 231.6 228.45 230.18 230.94 228.47 233.14 225.53 232.36 223.69 235.2 222.6 236.01 220.25 238.19 217.37 238.92 215.55 242.81 209.57 245.38 206.63 246.51 204.42 248.13 203.28 250.02 202.91 252.7 201.4 250.62 200.71 250.63 197.53 248.54 198.24 245.36 197.99 240.41 199.79 236.76 199.38 235.26 200.75 233.74 200.68 232.8 201.94 229.19 203.61 228.55 206.09 224.35 207.72 223.68 208.7 221.48 209.03 218.73 211.09 215.08 212.27 214.15 211.87"/><polygon class="cls-4" points="172.62 131.91 173.49 133.44 176.77 137.03 175.05 138.46 175.72 139.58 174.76 140.54 174.33 143.43 174.69 145.45 180.13 145.29 179.31 146.69 179.56 149.76 178.08 157.21 188.79 157.13 189.32 157.63 189.79 156.44 191.72 157.16 195.21 155.71 197.91 155.36 199.24 154.11 199.61 152.13 200.76 151.01 200.76 148.79 201.53 148.42 201.92 146.18 204.48 146.51 204.47 145.82 208.05 145.83 208.05 144.35 209.75 143.74 210.94 142.2 210.12 140.99 208.57 140.61 207.21 137.67 205.73 136.91 205.64 135.61 203.38 134.14 203.37 133.39 200.11 130.47 199.7 128.93 197.7 128.11 196.98 125.88 197.76 123.63 197.4 120.67 199.48 117.04 197.97 115.52 197.99 113.66 196.71 113.64 196.08 115.18 193.8 116.3 190.8 116.3 190.44 118.51 188.85 120.15 188.45 122.39 186.19 122.3 184.48 124.66 184.31 126.29 182.2 127.45 172.68 127.47 171.72 129.7 172.62 131.91"/><polygon class="cls-4" points="212.89 197.63 212.94 208.23 214.15 211.87 215.08 212.27 218.73 211.09 221.48 209.03 223.68 208.7 224.35 207.72 228.55 206.09 229.19 203.61 232.8 201.94 233.74 200.68 235.26 200.75 236.76 199.38 240.41 199.79 245.36 197.99 248.54 198.24 250.63 197.53 250.63 187.78 249.11 187.63 248.08 190.9 245 191.54 244.65 193.15 242.98 194.95 240.9 195.85 238.54 195.78 233.32 197.45 228.67 197.88 223.45 195.26 220.24 195.2 218.52 196.78 216.2 196.64 212.89 197.63"/><polygon class="cls-4" points="238.18 241.52 238.01 239.03 240.61 240.76 241.39 239.94 239.84 236.97 246.02 234.82 246.27 233.45 248.46 234.13 250.35 231.77 257.17 235.32 258.85 234.6 261.02 235.46 267.17 232.69 267.47 230.87 268.9 230.55 270.65 228.12 271.91 228.06 274.27 230.43 276.14 229.88 277.02 231.35 279.09 231.9 282.38 236.25 285.06 233 284.53 229.72 285.07 229.05 280.82 225.86 280.26 224.65 280.97 222 279.18 218.9 277.32 217.84 274.69 218.26 274.46 216.76 270.23 215.28 269.87 213.94 268.01 213.21 269.13 211.39 268.78 210.06 267.26 208.8 267.75 206.77 265.35 204.84 265.39 202.58 263.22 202.24 261.33 203.01 258.05 205.29 252.7 201.4 250.02 202.91 248.13 203.28 246.51 204.42 245.38 206.63 242.81 209.57 238.92 215.55 238.19 217.37 236.01 220.25 235.2 222.6 232.36 223.69 233.14 225.53 230.94 228.47 228.45 230.18 227.65 231.6 238.18 241.52"/><polygon class="cls-4" points="270.36 298.22 272.13 298.28 272.11 302.51 274.24 302.53 274.25 309.01 272.09 308.96 271.75 332.43 332.21 332.45 332.31 328.87 333.28 328.67 332.85 324.91 331.81 324.07 332.38 322.96 331.2 321.73 329.88 317.65 330.08 313.65 328.94 312.52 327.49 308.45 328.67 305.96 326.2 302.88 327.08 301.7 326.33 300.98 324.04 300.86 322.65 298.53 323.24 297.98 322.57 295.6 321.05 294.79 321.68 292.88 319.85 291.42 319.51 289.46 318.05 288.24 319.3 287.56 318.28 285.61 293.71 285.77 293.61 289.93 280.96 289.76 280.96 294.05 274.58 293.97 270.36 298.22"/><polygon class="cls-4" points="205.01 266.33 215.39 255.86 214.59 253.19 238.18 241.52 227.65 231.6 216.88 219.31 217.11 236.28 214.14 235.2 212.84 236.17 210.5 236.14 207.7 237.35 206.58 238.82 203.16 241.29 195.3 249.07 195.3 252 195.93 253.39 197.67 253.69 197.23 255.21 197.94 257.59 195.84 258.99 195.96 260.65 197.5 262.54 197.99 265.28 199.96 263.9 201 264.79 202.82 263.91 205.01 266.33"/><polygon class="cls-4" points="227.84 371.94 228.44 372.66 233.88 371.04 236.18 371.3 241.66 375.17 241.56 372.48 240.49 369.96 246.06 369.2 246.82 367.13 249.83 365.2 254.28 367.93 256.32 367.82 257.04 368.8 259.24 369.16 260.18 370.43 263.55 371.98 266.39 371.98 268.66 373.09 271.84 375.65 274.33 375.47 274.33 367 273.62 366.28 270.84 366.48 271.13 362.02 266.65 362.27 266.66 358.03 261.02 357.97 261.03 353.75 258.23 353.73 258.23 349.47 253.59 349.45 253.59 348.03 250.07 345.23 250.1 340.95 245.83 340.96 245.82 332.45 200.25 332.16 202.84 338.4 207.5 340.03 213.83 348.42 217.71 349.02 219.4 353.94 218.02 358.73 223.62 362.96 227.76 363.57 228.6 367.74 227.84 371.94"/><polygon class="cls-4" points="188.53 278.24 189.39 280.61 190.36 281.05 194.06 285 194.95 284.59 196.11 286.63 194.83 287.18 195.48 288.54 197.84 289.96 200.14 290.37 201.39 292.26 200.99 294.98 202.3 296.33 201.77 297.7 204.33 297.33 206.33 300.34 212.36 306.31 212.38 308.9 214.28 308.96 214.56 307.83 215.81 308.73 217.11 306.95 219.31 307.85 222.3 310.67 223.4 312.21 225.38 312.46 225.58 311.06 223.99 306.99 226.68 309.09 227.46 306.69 229.92 306.09 229.89 298.25 216.59 285.26 208.38 281.08 206.14 277.25 204.7 276.62 205.46 274.92 197.44 274.96 196.11 273.56 194.65 273.84 193.67 275.72 191 277.92 189.1 277.37 188.53 278.24"/><polygon class="cls-4" points="181.9 280.41 182.82 282.66 181.71 288.97 178.82 292.68 176.97 290.93 176.94 299.04 178.43 307.14 180.96 309.97 185.66 312.64 188.94 316.24 191.31 321.02 193.76 321.85 195.71 327.75 200.25 332.16 245.04 332.45 244.77 330.98 243.25 329.73 243.88 328.14 242.47 326.71 241.04 326.7 239.27 323.93 236.38 323.69 234.58 321.67 232.14 320.38 227.85 316.89 227.09 314.32 228.72 312.23 226.55 309.88 226.68 309.09 223.99 306.99 225.58 311.06 225.38 312.46 223.4 312.21 222.3 310.67 219.31 307.85 217.11 306.95 215.81 308.73 214.56 307.83 214.28 308.96 212.38 308.9 212.36 306.31 206.33 300.34 204.33 297.33 201.77 297.7 202.3 296.33 200.99 294.98 201.39 292.26 200.14 290.37 197.84 289.96 195.48 288.54 194.83 287.18 196.11 286.63 194.95 284.59 194.06 285 190.36 281.05 189.39 280.61 188.53 278.24 185.34 277.25 182.99 278.64 181.9 280.41"/><polygon class="cls-4" points="267.75 206.77 267.26 208.8 268.78 210.06 269.13 211.39 268.01 213.21 269.87 213.94 270.23 215.28 274.46 216.76 274.69 218.26 277.32 217.84 279.18 218.9 280.97 222 280.26 224.65 280.82 225.86 285.07 229.05 284.53 229.72 285.06 233 282.38 236.25 284.46 237.5 285.17 236.38 288.1 236.52 290.43 238.98 291.72 241.68 292.13 243.91 293.92 245.35 296.29 245.68 298.92 249.39 301.03 248.75 301.9 250.02 339.14 249.93 304.3 218.07 269.88 187.25 268.72 189.65 268.55 192.81 271.56 198.05 270.8 202.54 268.43 203.39 269.01 204.77 267.75 206.77"/><polygon class="cls-4" points="205.01 266.33 204.37 268.42 205.69 269.63 204.25 271.74 204.29 273.36 205.46 274.92 204.7 276.62 206.14 277.25 208.38 281.08 217.19 285.83 234.66 268.24 240.01 266.84 244.51 264.91 248.75 264.81 251.44 263.94 249.81 261.98 246.44 260 246.27 258.56 242.98 253.13 242.63 250.99 238.17 241.53 214.59 253.19 215.39 255.86 205.01 266.33"/><polygon class="cls-4" points="238.17 241.53 242.63 250.99 242.98 253.13 246.27 258.56 246.44 260 249.81 261.98 251.44 263.94 262.91 252.31 267.28 252.28 267.28 250.11 268.69 250.1 268.7 248.45 269.92 248.45 269.95 245.18 280.8 234.31 279.09 231.9 277.02 231.35 276.14 229.88 274.27 230.43 271.91 228.06 270.65 228.12 268.9 230.55 267.47 230.87 267.17 232.69 261.02 235.46 258.85 234.6 257.17 235.32 250.35 231.77 248.46 234.13 246.27 233.45 246.02 234.82 239.84 236.97 241.39 239.94 240.61 240.76 238.01 239.03 238.17 241.53"/><polygon class="cls-4" points="232.07 270.82 235.7 277.34 235.46 279.78 238.17 281.71 238.86 283.64 240.68 283.57 244.4 284.4 250.34 281.64 252.36 282.17 254.1 280.87 255.72 281.2 258.04 280 260.65 280.52 261.86 278.07 264.01 275.55 263.75 274.5 265.71 272.41 266.98 272.35 266.95 271.08 268.47 271.69 269.11 269.49 270.76 269.83 271.76 267.83 270.53 267.19 270.9 265.89 272.33 266.57 272.99 265.55 274.41 267.55 274.82 265.8 276.48 264.88 277.74 265.59 279.92 262.85 280.29 260.77 279.79 257.51 281.68 254.41 292.13 243.91 291.72 241.68 290.43 238.98 288.1 236.52 285.17 236.38 284.46 237.5 282.38 236.25 280.8 234.31 269.95 245.18 269.92 248.45 268.7 248.45 268.69 250.1 267.28 250.11 267.28 252.28 262.91 252.31 251.44 263.94 248.75 264.81 244.51 264.91 240.01 266.84 234.66 268.24 232.07 270.82"/><polygon class="cls-4" points="241.04 326.7 242.47 326.71 243.88 328.14 243.25 329.73 244.77 330.98 245.04 332.45 271.75 332.43 272.09 308.96 274.25 309.01 274.24 302.53 272.11 302.51 272.13 298.28 270.36 298.22 266.66 301.66 266.47 301.06 263.49 301.77 263.21 302.48 255.07 302.54 255.1 313.3 241.04 326.7"/><polygon class="cls-4" points="245.82 332.45 245.83 340.96 250.1 340.95 250.07 345.23 253.59 348.03 253.59 349.45 258.23 349.47 258.23 353.73 261.03 353.75 261.02 357.97 266.66 358.03 266.65 362.27 271.13 362.02 270.84 366.48 273.62 366.28 274.33 367 274.33 375.47 277.91 375.49 277.89 376.51 282.06 376.51 283.38 377.57 283.38 379.66 293.93 379.76 293.93 380.79 297.68 380.8 298.58 379.49 347.07 379.27 347 339.15 347.69 337.72 346.27 337.73 346.98 336.31 347.03 332.06 335.51 332.01 335.57 332.57 313.95 332.29 245.82 332.45"/><polygon class="cls-4" points="318.28 285.61 319.3 287.56 318.05 288.24 319.51 289.46 319.85 291.42 321.68 292.88 321.05 294.79 322.57 295.6 323.24 297.98 322.65 298.53 324.04 300.86 326.33 300.98 327.08 301.7 326.2 302.88 328.67 305.96 327.49 308.45 328.94 312.52 330.08 313.65 329.88 317.65 331.2 321.73 332.38 322.96 331.81 324.07 332.85 324.91 333.28 328.67 332.31 328.87 332.21 332.45 335.57 332.57 335.51 332.01 422 332.24 422 331.48 425.46 331.48 392.27 299.68 339.14 249.93 301.9 250.02 302.51 251.39 301.31 253.46 302.17 255.09 301.44 255.98 303.29 257.38 304.23 256.73 306.24 260.07 305.47 260.97 305.59 262.84 306.66 265.99 309.11 266.16 311.27 267.38 314.06 269.71 314.83 269.61 315.61 272.41 318.27 278.56 318.24 280.65 317.12 281.19 318.28 285.61"/><polygon class="cls-4" points="226.68 309.09 226.55 309.88 228.72 312.23 227.09 314.32 227.85 316.89 232.14 320.38 234.58 321.67 236.38 323.69 239.27 323.93 241.04 326.7 255.1 313.3 255.07 302.54 263.21 302.48 263.49 301.77 266.47 301.06 266.66 301.66 274.58 293.97 280.96 294.05 280.96 289.76 293.61 289.93 293.71 285.77 318.28 285.61 317.12 281.19 318.24 280.65 318.27 278.56 315.61 272.41 314.83 269.61 314.06 269.71 311.27 267.38 309.11 266.16 306.66 265.99 305.59 262.84 305.47 260.97 306.24 260.07 304.23 256.73 303.29 257.38 301.44 255.98 302.17 255.09 301.31 253.46 302.51 251.39 301.9 250.02 301.03 248.75 298.92 249.39 296.29 245.68 293.92 245.35 292.13 243.91 281.68 254.41 279.79 257.51 280.29 260.77 279.92 262.85 277.74 265.59 276.48 264.88 274.82 265.8 274.41 267.55 272.99 265.55 272.33 266.57 270.9 265.89 270.53 267.19 271.76 267.83 270.76 269.83 269.11 269.49 268.47 271.69 266.95 271.08 266.98 272.35 265.71 272.41 263.75 274.5 264.01 275.55 261.86 278.07 260.65 280.52 258.04 280 255.72 281.2 254.1 280.87 252.36 282.17 250.34 281.64 244.4 284.4 240.68 283.57 238.86 283.64 238.17 281.71 235.46 279.78 235.7 277.34 232.07 270.82 217.19 285.83 229.89 298.25 229.92 306.09 227.46 306.69 226.68 309.09"/><polygon class="cls-4" points="250.63 197.53 250.62 200.71 252.7 201.4 258.05 205.29 261.33 203.01 263.22 202.24 265.39 202.58 265.35 204.84 267.75 206.77 269.01 204.77 268.43 203.39 270.8 202.54 271.56 198.05 268.55 192.81 268.72 189.65 269.88 187.25 257.27 176.09 258.34 179.23 254.88 184.07 250.63 187.78 250.63 197.53"/></g><g id="Layer_4" data-name="Layer 4"><polygon class="cls-5" points="134.83 208.34 135.13 207.83 138.63 207.12 145.22 212.8 148.85 214.09 152.13 214.05 152.41 215.15 154.96 217.65 158.37 215.37 159.77 215.29 160.37 213.98 159.96 210.79 158.47 209.06 158.86 207.88 156.76 204.13 154.79 201.85 155.37 200.42 153.53 199.57 152.96 197.03 149.92 194.99 148.92 193.03 149.63 191.82 149.66 189.57 148.91 187.61 147.12 187.37 144.89 183.47 144.87 182.64 141.99 180.31 131.74 180.2 131.73 180.91 129.54 180.85 129.55 182.39 120.38 182.52 120.39 184.02 115.21 183.96 114.44 184.88 121.78 194.74 129.84 200.51 132.65 208.21 134.83 208.34"/><polygon class="cls-5" points="187.66 214.2 189.66 213.37 190.17 212.13 190.06 208.35 190.55 207.46 186.54 207.43 186.52 196.67 184.79 196.12 183.74 196.73 179.99 196.07 176.75 196.33 173.98 198.6 172.22 197.18 170.38 197.36 169.46 201.62 171.56 205.05 171.9 207.32 166.32 207.33 167.01 209.55 166.07 209.49 166.71 211.62 165.96 214.17 166.74 215.41 162.97 215.41 165.48 219.93 169.26 221.02 171.98 216.4 173.97 218.5 177.97 219.08 178.47 220.67 182.21 220.05 185.97 217.38 187.66 214.2"/><polygon class="cls-5" points="162.65 215.41 158.41 215.37 164.65 219.35 162.65 215.41"/><polygon class="cls-5" points="162.88 267.7 165.65 271.76 170.28 275.18 175.41 275.28 176.85 274.09 180.01 276.62 181.9 280.41 182.99 278.64 185.34 277.25 188.53 278.24 189.1 277.37 191 277.92 191.01 277 189.28 275.95 188.46 276.36 187.72 274.83 186.39 274.36 184.03 270.54 181.48 268.64 174.81 265.87 173.42 264.76 172.27 262.48 170.35 261.4 168.43 258.81 168.42 262.33 164.87 262.35 164.87 263.59 161.9 263.75 162.88 267.7"/><polygon class="cls-5" points="191 277.92 193.67 275.72 194.65 273.84 196.1 273.56 197.44 274.96 205.46 274.92 204.29 273.36 204.25 271.74 205.69 269.63 204.37 268.42 205.01 266.33 202.82 263.91 201 264.79 199.96 263.9 197.99 265.28 197.5 262.54 195.96 260.65 195.84 258.99 197.94 257.59 197.23 255.21 197.67 253.69 195.93 253.39 195.3 252 195.29 249.07 179.78 248.95 177.41 250.45 169.9 249.87 166.93 251.62 166.46 254.98 167.54 256.86 166.86 257.19 170.35 261.4 172.27 262.48 173.42 264.76 174.81 265.87 181.48 268.64 184.03 270.54 186.39 274.36 187.72 274.83 188.46 276.36 189.28 275.95 191.01 277 191 277.92"/><polygon class="cls-5" points="154.59 237.81 153.93 246.52 155.88 248.16 158.59 255.12 157.9 261.04 161.43 267.45 162.88 267.7 161.9 263.75 164.87 263.59 164.87 262.35 168.42 262.33 168.43 258.81 166.86 257.19 167.54 256.86 166.46 254.98 166.93 251.62 169.9 249.87 166.46 246.16 159.15 241.73 158.92 237.79 154.59 237.81"/><polygon class="cls-5" points="158.92 237.79 160.35 236.78 157.84 232.66 154.17 234.07 154.59 237.81 158.92 237.79"/><polygon class="cls-5" points="158.41 215.37 158.37 215.37 158.45 215.37 158.41 215.37"/><polygon class="cls-5" points="158.45 215.37 166.74 215.41 165.96 214.17 166.71 211.62 166.07 209.49 167.01 209.55 166.32 207.33 171.9 207.32 171.56 205.05 169.46 201.62 170.38 197.36 169.4 193.81 167.81 190.19 165.6 187.92 165.17 185.89 163.08 180.83 160.68 181.02 158.84 179.59 159.7 181.99 158.73 182.65 156.13 187.66 149.66 189.57 149.63 191.82 148.92 193.03 149.92 194.99 152.96 197.03 153.53 199.57 155.37 200.42 154.79 201.85 156.76 204.13 158.86 207.88 158.47 209.06 159.96 210.79 160.37 213.98 159.77 215.29 158.45 215.37"/><polygon class="cls-5" points="94.51 121.42 101.2 130.03 103.86 138.95 104.4 145.44 102.52 150.28 102.23 154.93 104.48 162.81 106.45 165.81 107.7 171.07 105.79 175.24 109.36 180.55 114.44 184.88 115.21 183.96 120.39 184.02 120.38 182.52 129.55 182.39 129.54 180.85 131.73 180.91 131.74 180.2 141.99 180.31 139.11 178.76 139.13 178.01 136.96 177.77 135.82 175.41 135.47 172.84 133.83 172.87 132.72 171.63 132.37 169.42 131.27 169.04 131.87 163.85 133.36 162.9 135.15 160.69 134.17 158.54 134.16 156.3 131.97 151.91 132.44 147.01 133.94 146.23 137.44 146.34 139.28 145.7 139.18 136.47 138.38 136.47 138.4 134.45 137.38 134.46 137.4 131.88 136.51 129.46 136.94 126.22 138.09 125.75 137.55 122.61 113.42 122.67 113.42 121.39 94.51 121.42"/><polygon class="cls-5" points="134.83 208.34 139.58 217 135.13 211.1 136.97 215.42 134.43 223.13 137.47 218.96 137.87 221.68 142.02 223.38 146.69 228.52 149.06 228.34 153.44 232.25 155.53 231.93 153.82 228.94 156.68 229.59 154.9 224.69 154.96 217.65 152.41 215.15 152.13 214.05 148.85 214.09 145.22 212.8 138.63 207.12 135.13 207.83 134.83 208.34"/><polygon class="cls-5" points="139.47 143.08 139.28 145.7 137.44 146.34 133.94 146.23 132.44 147.01 131.97 151.91 134.16 156.3 134.17 158.54 135.15 160.69 133.36 162.9 131.87 163.85 131.27 169.04 132.37 169.42 132.72 171.63 133.83 172.87 135.47 172.84 135.82 175.41 136.96 177.77 139.13 178.01 139.11 178.76 141.99 180.31 144.87 182.64 144.89 183.47 147.12 187.37 148.91 187.61 149.66 189.57 156.13 187.66 158.73 182.65 159.7 181.99 157.78 177.74 158.49 176.5 161.01 176.55 158.29 174.59 158.12 171.67 155.04 170 154.83 165.55 155.71 165.32 154.09 162.05 151.8 162.3 147.55 160.54 144.54 158.21 143.83 156.81 145.25 153.16 145.39 143.05 139.47 143.08"/><polygon class="cls-5" points="92.85 45.1 91.21 57.41 89.16 62.02 89.36 66.71 91.01 68.06 87.99 78.64 80.12 95.05 79.28 98.55 81.64 105.39 81.06 108 88 114.75 91.03 116.11 92.23 119.88 94.51 121.42 113.42 121.39 113.44 83.13 112.62 80.61 112.82 78.43 111.57 76.44 110.34 73.09 111.56 73.32 112.8 72.12 115.9 73.97 117.24 72.46 117.03 71.39 118.89 68.79 118.21 66.47 116.61 65.52 117.98 63.33 117.85 61.01 118.81 60.08 116.94 57.09 117.44 56.43 116.2 50.29 115.14 49.42 104.5 49.52 104.49 45.12 92.85 45.1"/><polygon class="cls-5" points="87.06 16.83 87.26 22.11 85.31 28.27 89.05 30.68 91.4 37.75 92.85 45.1 104.49 45.12 104.5 49.52 108.8 49.45 109.31 47.41 110.76 45.23 109.87 44 109.33 41.39 107.52 40.23 107.98 38.24 106.52 38.19 107.69 34.28 108.85 31.92 107.74 28.36 108.36 27.6 107.13 25.8 108.43 25.49 109.54 22.63 110.68 23.08 112.6 21.9 114.47 16.7 108.98 17.01 87.06 16.83"/><polygon class="cls-5" points="162.11 228.34 163.75 227.92 165.61 229.29 167.11 232.18 168.89 232.98 172.66 233.31 174.54 235.05 173.99 235.84 176.01 237.28 191.98 232.2 192.78 230.61 191.08 230.23 191.94 227.03 190.99 222.78 187.99 220.4 184.69 222.22 173.57 220.29 168.47 222.06 164.81 220.28 157.49 224.97 159.1 227.62 162.11 228.34"/><polygon class="cls-5" points="162.11 228.34 161.5 233.29 164.84 234.03 164.14 236.2 167.99 239.62 170.31 248.25 175.45 250.14 177.41 250.45 179.78 248.95 195.33 249.09 194.05 246.9 191.98 246.06 191.98 232.2 176.01 237.28 173.99 235.84 174.54 235.05 172.66 233.31 168.89 232.98 167.11 232.18 165.61 229.29 163.75 227.92 162.11 228.34"/><polygon class="cls-6" points="348.5 447.8 353.1 451.61 359.18 460.56 361.96 470.48 360.89 473.58 362.76 479.37 365.46 480.25 367.15 487.94 407.37 483.99 407.48 462.53 408.36 462.53 408.19 445.94 362.51 445.65 362.49 444.85 357.39 442.87 357.65 442.19 351.9 442.19 351.91 443.77 349.18 444.61 348.5 447.8"/><polygon class="cls-6" points="416.47 483.15 462.16 479.28 462.85 478.03 466.27 478.82 469.77 477.48 469.58 475.88 472.06 473.34 472.3 470.39 470.19 464.75 466.96 464.86 465.12 463.76 464.09 464.26 462.68 461.89 463.78 458.36 463.84 453.3 462.01 452.45 462.97 449 461.98 447.14 465.81 445.58 408.19 445.94 408.36 462.53 407.48 462.53 407.37 483.99 416.47 483.15"/><polygon class="cls-5" points="197.58 172.87 201.94 170.03 202.93 170.94 202.93 160.96 203.43 158.86 205.24 158.3 205.82 156.57 207.55 155.75 208.92 153.33 210.65 152.58 213.1 152.74 212.62 146.45 211.68 145.31 213.01 144.16 213.6 140.03 210.94 142.2 209.75 143.74 208.05 144.35 208.05 145.83 204.47 145.82 204.48 146.51 201.92 146.18 201.53 148.42 200.76 148.79 200.76 151.01 199.61 152.13 199.24 154.11 197.91 155.36 195.21 155.71 191.72 157.16 189.79 156.44 188.84 159.38 189.7 161.05 189.53 163.39 190.81 168.17 189.87 169.75 191.4 175.81 192.5 174.1 194.63 173.1 197.58 172.87"/><polygon class="cls-5" points="170.38 197.36 172.22 197.18 173.98 198.6 176.75 196.33 179.99 196.07 183.74 196.73 184.79 196.12 186.52 196.67 186.54 207.43 190.55 207.46 193.36 205.09 193.56 202.72 192.96 201.66 194.1 201.03 193.87 199.41 191.88 198.14 193.22 197.08 193.97 193.68 192.25 193.01 191.64 190.84 190.5 190.75 189.06 188.04 190.56 184.74 189.31 183.6 188.91 184.53 186.61 184.49 186.68 183.08 185.39 182.66 185.38 180.2 184.35 179.24 182.98 179.98 181.77 178.97 182.11 177.01 180.95 176.54 158.49 176.5 157.78 177.74 158.84 179.59 160.68 181.02 163.08 180.83 165.17 185.89 165.6 187.92 167.81 190.19 169.4 193.81 170.38 197.36"/><polygon class="cls-5" points="113.42 121.39 113.42 122.67 137.55 122.61 136.85 121.57 136.48 116.32 135.35 113.97 136.12 111.86 135.38 108.56 132.91 107.63 132.36 106.65 132.22 104.31 135.06 101 134.99 99.85 136.69 99.69 138.82 98.44 141.03 95.33 143.11 94.84 143.43 93.47 145.88 91.69 146.84 91.99 146.41 88.77 144.74 85.71 145.91 85.42 146.11 82.73 147.99 81.35 148.13 78.62 150.73 74.76 150.46 71.72 153.6 68.76 154.17 64.89 156.4 64.45 156.83 61.17 154.76 59.94 153.81 58.32 154.17 54.63 155.54 52.71 152.66 50.52 151.33 50.67 151.11 52.41 148.94 52.48 148.63 54.34 146.32 55.09 145.82 56.49 143.75 57.41 142.4 58.9 139.45 58.76 137.49 60.22 136.47 60 136.85 61.6 135.99 63.64 136.25 65.21 137.97 65.74 139 68.02 138.2 69.83 136.34 68.89 133.49 69.3 132.76 67.07 129.36 65.36 125.48 65.54 124.14 63.07 121.05 60.99 119.88 61.58 118.81 60.08 117.85 61.01 117.98 63.33 116.61 65.52 118.21 66.47 118.89 68.79 117.03 71.39 117.24 72.46 115.9 73.97 112.8 72.12 111.56 73.32 110.34 73.09 111.57 76.44 112.82 78.43 112.62 80.61 113.44 83.13 113.42 121.39"/><polygon class="cls-5" points="137.55 122.61 138.09 125.75 136.94 126.22 136.51 129.46 137.4 131.88 172.62 131.91 171.72 129.7 172.68 127.47 182.2 127.45 184.31 126.29 184.48 124.66 186.19 122.3 188.45 122.39 188.85 120.15 190.44 118.51 190.8 116.3 193.8 116.3 196.08 115.18 196.71 113.64 196.62 111.41 197.88 111.6 199.42 110.52 200.13 107.22 199.09 106.08 200.45 105.47 198.89 103.88 195.39 103.37 194.84 100.97 195.24 99.56 194.31 98.42 191.64 98.41 190.72 99.14 188.43 98.99 186.88 98.03 184.95 98.94 182.1 98.45 179.22 98.91 176.79 100 174.05 99.41 169.34 100.85 162.19 102.29 156.87 102.17 153.75 101.08 148.75 104.5 144.88 102.57 140.71 103.76 139.98 103.44 137.9 105.65 135.85 105.19 132.36 106.65 132.91 107.63 135.38 108.56 136.12 111.86 135.35 113.97 136.48 116.32 136.85 121.57 137.55 122.61"/><polygon class="cls-5" points="180.95 176.54 182.11 177.01 181.77 178.97 182.98 179.98 184.35 179.24 185.38 180.2 185.39 182.66 186.68 183.08 186.61 184.49 188.91 184.53 189.31 183.6 190.56 184.74 190.15 186.11 194.83 186.17 195.42 185.32 195.43 176.46 197.6 176.45 197.58 172.87 194.63 173.1 192.5 174.1 191.4 175.81 189.87 169.75 190.81 168.17 189.53 163.39 189.7 161.05 188.84 159.38 189.32 157.63 188.79 157.13 178.08 157.21 176.5 160.46 177.25 162.65 176.61 163.49 178.84 169.02 180.44 169.09 182.46 172.79 180.78 174.96 180.95 176.54"/><polygon class="cls-5" points="118.81 60.08 119.88 61.58 121.05 60.99 124.14 63.07 125.48 65.54 129.36 65.36 132.76 67.07 133.49 69.3 136.34 68.89 138.2 69.83 139 68.02 137.97 65.74 136.25 65.21 135.99 63.64 136.85 61.6 136.47 60 137.49 60.22 139.45 58.76 142.4 58.9 143.75 57.41 145.82 56.49 146.32 55.09 148.63 54.34 148.94 52.48 151.11 52.41 151.33 50.67 152.66 50.52 155.54 52.71 154.17 54.63 153.81 58.32 154.76 59.94 196.33 59.89 195.91 19.41 196.29 16.88 159.51 16.25 133.15 16.59 129.17 16.26 121.2 16.8 114.47 16.7 112.6 21.9 110.68 23.08 109.54 22.63 108.43 25.49 107.13 25.8 108.36 27.6 107.74 28.36 108.85 31.92 107.69 34.28 106.52 38.19 107.98 38.24 107.52 40.23 109.33 41.39 109.87 44 110.76 45.23 109.31 47.41 108.8 49.45 115.14 49.42 116.2 50.29 117.44 56.43 116.94 57.09 118.81 60.08"/><polygon class="cls-5" points="253.34 150 253.45 135.78 252.87 136.48 227.64 136.59 226.59 138.12 223.87 135.92 222.18 136.42 221.26 134.51 219.08 132.98 216.57 134.94 215.97 138.34 213.6 140.03 213.01 144.16 211.68 145.31 212.62 146.45 213.1 152.74 214.26 151.57 216.67 151.43 220.41 150.24 222.21 150.19 225.29 148.06 227.45 145.97 230.65 145.99 231.52 146.5 232.37 149 233.52 149.94 253.34 150"/><polygon class="cls-5" points="194.31 98.42 201.02 98.43 201.33 74.44 200.84 74.46 200.88 59.87 154.76 59.94 156.83 61.17 156.4 64.45 154.17 64.89 153.6 68.76 150.46 71.72 150.73 74.76 148.13 78.62 147.99 81.35 146.11 82.73 145.91 85.42 144.74 85.71 146.41 88.77 146.84 91.99 145.88 91.69 143.43 93.47 143.11 94.84 141.03 95.33 138.82 98.44 136.69 99.69 134.99 99.85 135.06 101 132.22 104.31 132.36 106.65 135.85 105.19 137.9 105.65 139.98 103.44 140.71 103.76 144.88 102.57 148.75 104.5 153.75 101.08 156.87 102.17 162.19 102.29 169.34 100.85 174.05 99.41 176.79 100 179.22 98.91 182.1 98.45 184.95 98.94 186.88 98.03 188.43 98.99 190.72 99.14 191.64 98.41 194.31 98.42"/><polygon class="cls-5" points="191.98 232.2 191.98 246.06 194.05 246.9 195.33 249.09 203.16 241.29 206.58 238.82 207.7 237.35 210.5 236.14 212.84 236.17 214.14 235.2 217.11 236.28 216.88 219.31 216.39 218.76 212.94 208.23 211.6 208.26 205.2 210.94 203.37 210.52 200.58 211.7 197.36 211.28 195.34 210.15 193.06 213.46 193.25 214.57 190.92 217.5 191.47 218.33 190.99 222.78 191.94 227.03 191.08 230.23 192.78 230.61 191.98 232.2"/><polygon class="cls-5" points="184.84 218.93 191.47 218.33 190.92 217.5 193.25 214.57 193.06 213.46 195.34 210.15 197.36 211.28 200.58 211.7 203.37 210.52 205.2 210.94 211.6 208.26 212.94 208.23 212.89 197.63 209.28 187.04 208.41 187.31 194.83 186.17 190.15 186.11 189.06 188.04 190.5 190.75 191.64 190.84 192.25 193.01 193.97 193.68 193.22 197.08 191.88 198.14 193.87 199.41 194.1 201.03 192.96 201.66 193.56 202.72 193.36 205.09 190.55 207.46 190.06 208.35 190.17 212.13 189.66 213.37 187.66 214.2 186 217.94 184.84 218.93"/><polygon class="cls-5" points="194.31 98.42 195.24 99.56 194.84 100.97 195.39 103.37 198.89 103.88 200.45 105.47 199.09 106.08 200.13 107.22 199.42 110.52 197.88 111.6 196.62 111.41 196.71 113.64 197.99 113.66 197.97 115.52 199.48 117.04 197.4 120.67 197.76 123.63 196.98 125.88 197.7 128.11 199.7 128.93 200.11 130.47 203.37 133.39 203.38 134.14 205.64 135.61 205.73 136.91 207.21 137.67 208.57 140.61 210.12 140.99 210.94 142.2 215.97 138.34 216.57 134.94 219.08 132.98 221.26 134.51 222.18 136.42 223.87 135.92 226.59 138.12 227.64 136.59 247.68 136.53 249.12 133.55 249.19 124.61 247.02 123.1 246.28 120.79 245.54 120.79 245.21 117.05 243.74 117.06 243.74 115.92 240 115.54 237.37 113.87 235.87 112.35 235.54 110.85 234.41 110.85 233.31 108.62 230.7 107.85 230.7 106.73 228.88 106.72 227.72 105.58 223.28 105.15 222 105.93 222.04 107.13 220.54 107.49 219.04 109 219.04 111.18 216.8 111.57 216.1 110.08 213.83 110.07 211.54 108.23 211.55 98.38 194.31 98.42"/><polygon class="cls-5" points="194.83 186.17 208.41 187.31 209.91 183.59 209.99 182.07 211.67 180.47 211.84 177.8 215.65 175.79 216.34 174.62 219.36 175.02 221.38 172.69 223.14 172.22 224.93 172.76 227.61 175.3 229.29 175.59 231.18 177.09 233.27 176.18 234.89 174.42 236.3 171.25 240.53 171.56 246.22 171.12 247.81 169.28 253.39 169.27 253.24 156.57 227.97 156.64 224.71 158.03 221.7 160.82 219.84 161.9 219.07 163.56 216.05 165.4 214.51 167.5 214.27 168.9 212.33 172 209.82 172.08 208.54 170.77 206.65 172.01 205.28 172.1 202.93 170.94 201.94 170.03 197.58 172.87 197.6 176.45 195.43 176.46 195.42 185.32 194.83 186.17"/><polygon class="cls-5" points="202.93 170.94 205.28 172.1 206.65 172.01 208.54 170.77 209.82 172.08 212.33 172 214.27 168.9 214.51 167.5 216.05 165.4 219.07 163.56 219.84 161.9 221.7 160.82 224.71 158.03 227.97 156.64 253.24 156.57 253.34 150 233.52 149.94 232.37 149 231.52 146.5 230.65 145.99 227.45 145.97 225.29 148.06 222.21 150.19 220.41 150.24 216.67 151.43 214.26 151.57 213.1 152.74 210.65 152.58 208.92 153.33 207.55 155.75 205.82 156.57 205.24 158.3 203.43 158.86 202.93 160.96 202.93 170.94"/><polygon class="cls-5" points="196.29 16.88 195.91 19.41 196.33 59.89 253.5 59.87 253.52 17.04 196.29 16.88"/><polygon class="cls-5" points="200.88 59.87 200.84 74.46 201.33 74.44 201.02 98.43 211.55 98.38 211.54 108.23 213.83 110.07 216.1 110.08 216.8 111.57 219.04 111.18 219.04 109 220.54 107.49 222.04 107.13 222 105.93 223.28 105.15 227.72 105.58 228.88 106.72 230.7 106.73 230.7 107.85 233.31 108.62 234.41 110.85 235.54 110.85 235.87 112.35 237.37 113.87 240 115.54 243.74 115.92 243.74 117.06 245.21 117.05 245.54 120.79 246.28 120.79 247.02 123.1 249.19 124.61 249.12 133.55 247.68 136.53 252.87 136.48 253.45 135.78 253.6 117.88 253.5 59.87 200.88 59.87"/><polygon class="cls-5" points="139.47 143.08 145.39 143.05 145.25 153.16 169.08 153.04 169.08 151.56 174.11 151.61 174.07 153.13 178.81 153.13 179.56 149.76 179.31 146.69 180.13 145.29 174.69 145.45 174.33 143.43 174.76 140.54 175.72 139.58 175.05 138.46 176.77 137.02 173.49 133.44 172.62 131.91 137.4 131.88 137.38 134.46 138.4 134.45 138.38 136.47 139.18 136.47 139.47 143.08"/><polygon class="cls-5" points="212.89 197.63 216.2 196.64 218.52 196.78 220.24 195.2 223.45 195.26 228.67 197.88 233.32 197.45 238.54 195.78 240.9 195.85 242.98 194.95 244.65 193.16 245 191.54 248.08 190.9 249.11 187.63 250.63 187.78 254.88 184.07 258.34 179.23 257.27 176.09 253.45 172.72 253.39 169.27 247.81 169.28 246.22 171.12 240.53 171.56 236.3 171.25 234.89 174.42 233.27 176.18 231.18 177.09 229.29 175.59 227.61 175.3 224.93 172.76 223.14 172.22 221.38 172.69 219.36 175.02 216.34 174.62 215.65 175.79 211.84 177.8 211.67 180.47 209.99 182.07 209.91 183.59 208.41 187.31 209.28 187.04 212.89 197.63"/><polygon class="cls-5" points="145.25 153.16 143.83 156.81 144.54 158.21 147.55 160.54 151.8 162.3 154.09 162.05 155.71 165.32 154.83 165.55 155.04 170 158.12 171.67 158.29 174.59 161.01 176.55 180.95 176.54 180.78 174.96 182.46 172.79 180.44 169.09 178.84 169.02 176.61 163.49 177.25 162.65 176.5 160.46 178.08 157.21 178.81 153.13 174.07 153.13 174.11 151.61 169.08 151.56 169.08 153.04 145.25 153.16"/><polygon class="cls-5" points="214.15 211.87 216.39 218.76 227.65 231.6 228.45 230.18 230.94 228.47 233.14 225.53 232.36 223.69 235.2 222.6 236.01 220.25 238.19 217.37 238.92 215.55 242.81 209.57 245.38 206.63 246.51 204.42 248.13 203.28 250.02 202.91 252.7 201.4 250.62 200.71 250.63 197.53 248.54 198.24 245.36 197.99 240.41 199.79 236.76 199.38 235.26 200.75 233.74 200.68 232.8 201.94 229.19 203.61 228.55 206.09 224.35 207.72 223.68 208.7 221.48 209.03 218.73 211.1 215.08 212.27 214.15 211.87"/><polygon class="cls-5" points="172.62 131.91 173.49 133.44 176.77 137.02 175.05 138.46 175.72 139.58 174.76 140.54 174.33 143.43 174.69 145.45 180.13 145.29 179.31 146.69 179.56 149.76 178.08 157.21 188.79 157.13 189.32 157.63 189.79 156.44 191.72 157.16 195.21 155.71 197.91 155.36 199.24 154.11 199.61 152.13 200.76 151.01 200.76 148.79 201.53 148.42 201.92 146.18 204.48 146.51 204.47 145.82 208.05 145.83 208.05 144.35 209.75 143.74 210.94 142.2 210.12 140.99 208.57 140.61 207.21 137.67 205.73 136.91 205.64 135.61 203.38 134.14 203.37 133.39 200.11 130.47 199.7 128.93 197.7 128.11 196.98 125.88 197.76 123.63 197.4 120.67 199.48 117.04 197.97 115.52 197.99 113.66 196.71 113.64 196.08 115.18 193.8 116.3 190.8 116.3 190.44 118.51 188.85 120.15 188.45 122.39 186.19 122.3 184.48 124.66 184.31 126.29 182.2 127.45 172.68 127.47 171.72 129.7 172.62 131.91"/><polygon class="cls-5" points="212.89 197.63 212.94 208.23 214.15 211.87 215.08 212.27 218.73 211.1 221.48 209.03 223.68 208.7 224.35 207.72 228.55 206.09 229.19 203.61 232.8 201.94 233.74 200.68 235.26 200.75 236.76 199.38 240.41 199.79 245.36 197.99 248.54 198.24 250.63 197.53 250.63 187.78 249.11 187.63 248.08 190.9 245 191.54 244.65 193.16 242.98 194.95 240.9 195.85 238.54 195.78 233.32 197.45 228.67 197.88 223.45 195.26 220.24 195.2 218.52 196.78 216.2 196.64 212.89 197.63"/><polygon class="cls-5" points="341.09 421.22 345.42 424.81 346.14 422.23 347.9 422.23 347.92 420.01 349.99 419.21 349.98 417.06 357.21 417.04 357.21 417.74 363.14 417.77 363.14 418.46 374.83 418.43 374.83 417.04 438.58 417.04 438.59 414.95 473.39 414.86 474.16 413.53 477.89 412.07 479.25 410.52 480.48 410.4 484.1 406.65 485.24 406.35 485.13 404.18 483.61 401.98 481.66 401.18 477.18 397.09 475.31 396.78 475.55 393.33 473.35 390.11 472.78 386.7 471.92 384.5 468.75 381.94 467.19 378.36 465.77 377.29 465.56 370.62 425.46 331.48 422 331.48 422 332.24 347.03 332.06 346.98 336.31 346.27 337.73 347.69 337.72 347 339.15 347.07 379.27 345.68 379.26 345.69 391.98 346.53 404.81 345.27 410.79 342.94 417.78 341.71 417.53 340.32 419.82 341.09 421.22"/><polygon class="cls-5" points="351.9 442.19 357.65 442.19 357.39 442.87 362.49 444.85 362.51 445.65 408.19 445.94 465.81 445.58 465.98 444.48 468.55 440.88 469.88 439.91 469.23 438.09 469.96 437.15 469.57 434.38 470.98 433.08 470.56 429.71 469.73 427.47 469.66 425.44 470.68 425.05 469.45 422.2 473.28 417.58 473.39 414.86 438.59 414.95 438.58 417.04 374.83 417.04 374.83 418.43 363.14 418.46 363.14 417.77 357.21 417.74 357.21 417.04 349.98 417.06 349.99 419.21 347.92 420.01 347.9 422.23 346.14 422.23 345.42 424.81 349.09 429.63 350.84 430.19 350.94 432.44 353.29 432.76 355.72 434.88 351.88 440.81 351.9 442.19"/><polygon class="cls-5" points="328.34 430.48 331.3 433.97 340.98 440.42 343.81 444.33 348.5 447.8 349.18 444.61 351.91 443.77 351.88 440.81 355.72 434.88 353.29 432.76 350.94 432.44 350.84 430.19 349.09 429.63 345.42 424.81 341.09 421.22 333.46 421.24 333.45 423.3 330.19 425.99 328.34 430.48"/><polygon class="cls-5" points="274.17 400.83 281.86 405.76 283.96 411.03 287.87 413.89 295.19 416.5 295.35 415.08 301.36 410.62 306.13 410.64 306.14 407.19 307.53 407.2 307.37 404.73 297.68 380.8 293.93 380.79 293.93 379.76 283.38 379.66 283.38 377.57 282.06 376.51 277.89 376.51 277.91 375.49 275.53 375.47 275.54 396.87 275.16 399.69 274.17 400.83"/><polygon class="cls-5" points="271.91 452.62 270.38 453.86 274.48 455.95 276.35 455.26 271.91 452.62"/><polygon class="cls-5" points="274.17 400.83 275.16 399.69 275.54 396.87 275.53 375.47 271.84 375.65 268.66 373.09 266.39 371.98 263.55 371.98 260.18 370.43 259.24 369.16 257.04 368.8 256.32 367.82 254.28 367.93 249.83 365.2 246.82 367.13 246.06 369.2 240.49 369.96 241.56 372.48 241.66 375.17 236.18 371.3 233.88 371.04 228.44 372.66 227.84 371.94 226.98 375.33 229.38 377.55 228.3 382.47 229.77 384.94 228.01 390.89 233.28 393.65 235.6 397.37 241.67 396.21 253.18 396.65 258.32 399.22 264.99 399.77 271.01 398.98 274.17 400.83"/><polygon class="cls-5" points="256.77 414.97 258.46 419.62 264.77 420.5 270.89 418.88 270.75 416.01 268.06 418.01 264.83 416.59 256.77 414.97"/><polygon class="cls-5" points="251.34 416.87 244.1 418.22 248.77 423.7 254.74 421.42 251.34 416.87"/><polygon class="cls-5" points="239.04 415.13 236.2 416.84 241.67 417.67 239.04 415.13"/><polygon class="cls-5" points="295.19 416.5 300.69 418.65 303.09 417.12 309.94 416.68 313.06 418.38 317.1 426.44 316.27 430.99 320.74 432.47 322.61 429.6 328.68 429.42 330.19 425.99 333.45 423.3 333.46 421.24 341.09 421.22 340.32 419.82 341.71 417.53 342.94 417.78 345.27 410.79 346.53 404.81 345.69 391.98 345.68 379.26 298.58 379.49 297.68 380.8 307.37 404.73 307.53 407.2 306.14 407.19 306.13 410.64 301.36 410.62 295.35 415.08 295.19 416.5"/><polygon class="cls-5" points="308.58 443.42 313.21 446.22 314.5 450.86 319.68 451.94 320.26 450.16 317.81 446.68 308.58 443.42"/><polygon class="cls-5" points="309.05 464.36 312.79 473.03 315.7 475.32 318 473.71 313.12 469.42 309.05 464.36"/><polygon class="cls-5" points="238.18 241.52 238.01 239.03 240.61 240.76 241.39 239.94 239.84 236.97 246.02 234.82 246.27 233.45 248.46 234.13 250.35 231.77 257.17 235.32 258.85 234.6 261.02 235.46 267.17 232.69 267.47 230.87 268.9 230.55 270.65 228.12 271.91 228.06 274.27 230.43 276.14 229.87 277.02 231.35 279.09 231.9 282.38 236.25 285.06 233 284.53 229.72 285.07 229.05 280.82 225.86 280.26 224.65 280.97 222 279.18 218.9 277.32 217.84 274.69 218.26 274.46 216.76 270.23 215.28 269.87 213.94 268.01 213.21 269.13 211.39 268.78 210.06 267.26 208.8 267.75 206.77 265.35 204.84 265.39 202.58 263.22 202.25 261.33 203.01 258.05 205.29 252.7 201.4 250.02 202.91 248.13 203.28 246.51 204.42 245.38 206.63 242.81 209.57 238.92 215.55 238.19 217.37 236.01 220.25 235.2 222.6 232.36 223.69 233.14 225.53 230.94 228.47 228.45 230.18 227.65 231.6 238.18 241.52"/><polygon class="cls-5" points="270.36 298.22 272.13 298.28 272.11 302.51 274.24 302.53 274.25 309.01 272.09 308.96 271.75 332.43 332.21 332.45 332.31 328.87 333.28 328.66 332.85 324.91 331.81 324.07 332.38 322.96 331.2 321.73 329.88 317.65 330.08 313.65 328.94 312.52 327.49 308.45 328.67 305.96 326.2 302.88 327.08 301.7 326.33 300.98 324.04 300.86 322.65 298.53 323.24 297.98 322.57 295.6 321.05 294.79 321.68 292.88 319.85 291.42 319.51 289.46 318.05 288.24 319.3 287.56 318.28 285.61 293.7 285.77 293.61 289.93 280.96 289.76 280.96 294.05 274.58 293.97 270.36 298.22"/><polygon class="cls-5" points="205.01 266.33 215.39 255.86 214.59 253.19 238.18 241.52 227.65 231.6 216.88 219.31 217.11 236.28 214.14 235.2 212.84 236.17 210.5 236.14 207.7 237.35 206.58 238.82 203.16 241.29 195.29 249.07 195.3 252 195.93 253.39 197.67 253.69 197.23 255.21 197.94 257.59 195.84 258.99 195.96 260.65 197.5 262.54 197.99 265.28 199.96 263.9 201 264.79 202.82 263.91 205.01 266.33"/><polygon class="cls-5" points="227.84 371.94 228.44 372.66 233.88 371.04 236.18 371.3 241.66 375.17 241.56 372.48 240.49 369.96 246.06 369.2 246.82 367.13 249.83 365.2 254.28 367.93 256.32 367.82 257.04 368.8 259.24 369.16 260.18 370.43 263.55 371.98 266.39 371.98 268.66 373.09 271.84 375.65 274.33 375.47 274.33 367 273.62 366.28 270.84 366.48 271.13 362.02 266.65 362.27 266.66 358.03 261.02 357.97 261.03 353.75 258.23 353.73 258.23 349.47 253.59 349.45 253.59 348.03 250.07 345.23 250.1 340.95 245.83 340.96 245.82 332.45 200.25 332.16 202.84 338.4 207.5 340.03 213.83 348.42 217.71 349.02 219.4 353.94 218.02 358.73 223.62 362.96 227.76 363.57 228.6 367.74 227.84 371.94"/><polygon class="cls-5" points="188.53 278.24 189.39 280.61 190.36 281.05 194.06 285 194.95 284.59 196.1 286.63 194.83 287.18 195.48 288.54 197.84 289.96 200.14 290.37 201.39 292.26 200.99 294.98 202.3 296.33 201.77 297.7 204.33 297.33 206.33 300.34 212.36 306.31 212.38 308.9 214.28 308.96 214.56 307.83 215.81 308.73 217.11 306.95 219.31 307.85 222.3 310.67 223.4 312.21 225.38 312.46 225.58 311.06 223.99 306.99 226.68 309.09 227.46 306.69 229.92 306.09 229.89 298.25 216.59 285.26 208.38 281.08 206.14 277.25 204.7 276.62 205.46 274.92 197.44 274.96 196.1 273.56 194.65 273.84 193.67 275.72 191 277.92 189.1 277.37 188.53 278.24"/><polygon class="cls-5" points="181.9 280.41 182.82 282.66 181.71 288.97 178.82 292.68 176.97 290.93 176.94 299.04 178.43 307.14 180.96 309.97 185.66 312.64 188.94 316.24 191.31 321.02 193.76 321.85 195.71 327.75 200.25 332.16 245.04 332.45 244.77 330.98 243.25 329.73 243.88 328.14 242.47 326.71 241.04 326.7 239.27 323.93 236.38 323.69 234.58 321.67 232.14 320.38 227.85 316.89 227.09 314.32 228.72 312.23 226.55 309.88 226.68 309.09 223.99 306.99 225.58 311.06 225.38 312.46 223.4 312.21 222.3 310.67 219.31 307.85 217.11 306.95 215.81 308.73 214.56 307.83 214.28 308.96 212.38 308.9 212.36 306.31 206.33 300.34 204.33 297.33 201.77 297.7 202.3 296.33 200.99 294.98 201.39 292.26 200.14 290.37 197.84 289.96 195.48 288.54 194.83 287.18 196.1 286.63 194.95 284.59 194.06 285 190.36 281.05 189.39 280.61 188.53 278.24 185.34 277.25 182.99 278.64 181.9 280.41"/><polygon class="cls-5" points="267.75 206.77 267.26 208.8 268.78 210.06 269.13 211.39 268.01 213.21 269.87 213.94 270.23 215.28 274.46 216.76 274.69 218.26 277.32 217.84 279.18 218.9 280.97 222 280.26 224.65 280.82 225.86 285.07 229.05 284.53 229.72 285.06 233 282.38 236.25 284.46 237.51 285.17 236.38 288.1 236.52 290.43 238.98 291.72 241.68 292.13 243.91 293.92 245.35 296.29 245.68 298.92 249.39 301.03 248.75 301.9 250.02 339.14 249.93 304.3 218.07 269.88 187.25 268.72 189.65 268.55 192.81 271.56 198.05 270.8 202.54 268.43 203.39 269.01 204.77 267.75 206.77"/><polygon class="cls-5" points="205.01 266.33 204.37 268.42 205.69 269.63 204.25 271.74 204.29 273.36 205.46 274.92 204.7 276.62 206.14 277.25 208.38 281.08 217.19 285.83 234.66 268.23 240.01 266.84 244.51 264.91 248.75 264.81 251.44 263.94 249.81 261.98 246.44 260 246.27 258.56 242.98 253.13 242.63 250.99 238.17 241.53 214.59 253.19 215.39 255.86 205.01 266.33"/><polygon class="cls-5" points="238.17 241.53 242.63 250.99 242.98 253.13 246.27 258.56 246.44 260 249.81 261.98 251.44 263.94 262.91 252.31 267.28 252.28 267.28 250.11 268.69 250.1 268.7 248.45 269.92 248.45 269.95 245.18 280.8 234.31 279.09 231.9 277.02 231.35 276.14 229.87 274.27 230.43 271.91 228.06 270.65 228.12 268.9 230.55 267.47 230.87 267.17 232.69 261.02 235.46 258.85 234.6 257.17 235.32 250.35 231.77 248.46 234.13 246.27 233.45 246.02 234.82 239.84 236.97 241.39 239.94 240.61 240.76 238.01 239.03 238.17 241.53"/><polygon class="cls-5" points="232.07 270.82 235.7 277.34 235.46 279.78 238.17 281.71 238.86 283.64 240.68 283.57 244.4 284.4 250.34 281.64 252.36 282.17 254.1 280.87 255.72 281.2 258.04 280 260.65 280.52 261.86 278.07 264.01 275.55 263.75 274.5 265.71 272.41 266.98 272.35 266.95 271.08 268.47 271.69 269.11 269.49 270.76 269.83 271.76 267.83 270.53 267.19 270.9 265.89 272.33 266.57 272.99 265.55 274.41 267.55 274.82 265.8 276.48 264.88 277.74 265.59 279.92 262.85 280.29 260.77 279.79 257.51 281.68 254.41 292.13 243.91 291.72 241.68 290.43 238.98 288.1 236.52 285.17 236.38 284.46 237.51 282.38 236.25 280.8 234.31 269.95 245.18 269.92 248.45 268.7 248.45 268.69 250.1 267.28 250.11 267.28 252.28 262.91 252.31 251.44 263.94 248.75 264.81 244.51 264.91 240.01 266.84 234.66 268.23 232.07 270.82"/><polygon class="cls-5" points="241.04 326.7 242.47 326.71 243.88 328.14 243.25 329.73 244.77 330.98 245.04 332.45 271.75 332.43 272.09 308.96 274.25 309.01 274.24 302.53 272.11 302.51 272.13 298.28 270.36 298.22 266.66 301.66 266.47 301.06 263.49 301.78 263.21 302.48 255.07 302.54 255.1 313.3 241.04 326.7"/><polygon class="cls-5" points="245.82 332.45 245.83 340.96 250.1 340.95 250.07 345.23 253.59 348.03 253.59 349.45 258.23 349.47 258.23 353.73 261.03 353.75 261.02 357.97 266.66 358.03 266.65 362.27 271.13 362.02 270.84 366.48 273.62 366.28 274.33 367 274.33 375.47 277.91 375.49 277.89 376.51 282.06 376.51 283.38 377.57 283.38 379.66 293.93 379.76 293.93 380.79 297.68 380.8 298.58 379.49 347.07 379.27 347 339.15 347.69 337.72 346.27 337.73 346.98 336.31 347.03 332.06 335.51 332.01 335.57 332.57 313.95 332.29 245.82 332.45"/><polygon class="cls-5" points="318.28 285.61 319.3 287.56 318.05 288.24 319.51 289.46 319.85 291.42 321.68 292.88 321.05 294.79 322.57 295.6 323.24 297.98 322.65 298.53 324.04 300.86 326.33 300.98 327.08 301.7 326.2 302.88 328.67 305.96 327.49 308.45 328.94 312.52 330.08 313.65 329.88 317.65 331.2 321.73 332.38 322.96 331.81 324.07 332.85 324.91 333.28 328.66 332.31 328.87 332.21 332.45 335.57 332.57 335.51 332.01 422 332.24 422 331.48 425.46 331.48 392.27 299.68 339.14 249.93 301.9 250.02 302.51 251.39 301.31 253.46 302.17 255.09 301.44 255.98 303.28 257.38 304.23 256.73 306.24 260.07 305.47 260.98 305.59 262.84 306.66 265.99 309.11 266.16 311.27 267.38 314.06 269.71 314.83 269.61 315.61 272.41 318.27 278.56 318.24 280.65 317.12 281.19 318.28 285.61"/><polygon class="cls-5" points="226.68 309.09 226.55 309.88 228.72 312.23 227.09 314.32 227.85 316.89 232.14 320.38 234.58 321.67 236.38 323.69 239.27 323.93 241.04 326.7 255.1 313.3 255.07 302.54 263.21 302.48 263.49 301.78 266.47 301.06 266.66 301.66 274.58 293.97 280.96 294.05 280.96 289.76 293.61 289.93 293.7 285.77 318.28 285.61 317.12 281.19 318.24 280.65 318.27 278.56 315.61 272.41 314.83 269.61 314.06 269.71 311.27 267.38 309.11 266.16 306.66 265.99 305.59 262.84 305.47 260.98 306.24 260.07 304.23 256.73 303.28 257.38 301.44 255.98 302.17 255.09 301.31 253.46 302.51 251.39 301.9 250.02 301.03 248.75 298.92 249.39 296.29 245.68 293.92 245.35 292.13 243.91 281.68 254.41 279.79 257.51 280.29 260.77 279.92 262.85 277.74 265.59 276.48 264.88 274.82 265.8 274.41 267.55 272.99 265.55 272.33 266.57 270.9 265.89 270.53 267.19 271.76 267.83 270.76 269.83 269.11 269.49 268.47 271.69 266.95 271.08 266.98 272.35 265.71 272.41 263.75 274.5 264.01 275.55 261.86 278.07 260.65 280.52 258.04 280 255.72 281.2 254.1 280.87 252.36 282.17 250.34 281.64 244.4 284.4 240.68 283.57 238.86 283.64 238.17 281.71 235.46 279.78 235.7 277.34 232.07 270.82 217.19 285.83 229.89 298.25 229.92 306.09 227.46 306.69 226.68 309.09"/><polygon class="cls-5" points="250.63 197.53 250.62 200.71 252.7 201.4 258.05 205.29 261.33 203.01 263.22 202.25 265.39 202.58 265.35 204.84 267.75 206.77 269.01 204.77 268.43 203.39 270.8 202.54 271.56 198.05 268.55 192.81 268.72 189.65 269.88 187.25 257.27 176.09 258.34 179.23 254.88 184.07 250.63 187.78 250.63 197.53"/></g><g id="Layer_6" data-name="Layer 6"><path class="cls-7" d="M557.26,392.63l2.72-3.16a10.38,10.38,0,0,0,6.79,3c3,0,4.56-1.32,4.56-3.36s-1.68-2.84-4-3.84l-3.59-1.56c-2.56-1.08-5.28-3.12-5.28-7,0-4.16,3.68-7.36,8.79-7.36a11.55,11.55,0,0,1,8,3.32l-2.36,3a8.52,8.52,0,0,0-5.68-2.24c-2.48,0-4.12,1.16-4.12,3.08s2,2.8,4.16,3.68l3.56,1.48c3.08,1.32,5.28,3.28,5.28,7.08,0,4.24-3.52,7.76-9.4,7.76A13.53,13.53,0,0,1,557.26,392.63Z"/><path class="cls-7" d="M579.42,390.71c0-4.2,3.48-6.4,11.55-7.28-.08-2.08-.92-3.84-3.6-3.84a11.16,11.16,0,0,0-5.51,1.92l-1.68-3.08a15.3,15.3,0,0,1,8.07-2.56c4.88,0,7.32,3,7.32,8.48V396h-3.8l-.32-2.16h-.16a9.56,9.56,0,0,1-6.08,2.64A5.49,5.49,0,0,1,579.42,390.71Zm11.55,0v-4.4c-5.35.68-7.11,2.08-7.11,4,0,1.76,1.19,2.52,2.83,2.52S589.49,392.07,591,390.71Z"/><path class="cls-7" d="M601.1,376.35h3.79l.32,2.64h.16c1.76-1.72,3.76-3.12,6.44-3.12,4.2,0,6,2.84,6,7.8V396h-4.6V384.27c0-3.24-.92-4.44-3.08-4.44-1.72,0-2.84.84-4.48,2.44V396H601.1Z"/><path class="cls-7" d="M631.89,369.83h7c8,0,12.72,4.32,12.72,13S646.89,396,639.13,396h-7.24Zm6.68,22.4c5.28,0,8.28-3,8.28-9.44s-3-9.2-8.28-9.2h-2v18.64Z"/><path class="cls-7" d="M656,370.31a2.85,2.85,0,1,1,2.84,2.6A2.64,2.64,0,0,1,656,370.31Zm.52,6h4.6V396h-4.6Z"/><path class="cls-7" d="M665.69,386.19c0-6.4,4.44-10.32,9-10.32,5.32,0,8.12,3.84,8.12,9.32a10.72,10.72,0,0,1-.2,2.24H670.17c.4,3.48,2.64,5.48,5.8,5.48a8.2,8.2,0,0,0,4.56-1.44l1.56,2.88a12.39,12.39,0,0,1-6.72,2.12C669.93,396.47,665.69,392.67,665.69,386.19Zm13.16-1.88c0-3-1.32-4.88-4-4.88-2.32,0-4.32,1.72-4.72,4.88Z"/><path class="cls-7" d="M685.53,399.55c0-1.65,1-3.08,2.8-4.2v-.16a3.69,3.69,0,0,1-1.76-3.28,4.74,4.74,0,0,1,2.16-3.64v-.16a6.63,6.63,0,0,1-2.56-5.2c0-4.52,3.64-7,7.76-7a8.85,8.85,0,0,1,2.88.48h7v3.4h-3.6a5.25,5.25,0,0,1,1.12,3.32c0,4.36-3.28,6.68-7.44,6.68a7.24,7.24,0,0,1-2.68-.52,2.26,2.26,0,0,0-1,1.88c0,1.12.8,1.8,3.2,1.8H697c4.72,0,7.2,1.44,7.2,4.84,0,3.87-4.08,6.91-10.48,6.91C689,404.66,685.53,403,685.53,399.55Zm14.2-1c0-1.52-1.24-2-3.48-2h-2.68a10.4,10.4,0,0,1-2.68-.28,3.27,3.27,0,0,0-1.52,2.59c0,1.76,1.92,2.8,5,2.8S699.73,400.19,699.73,398.51Zm-2.4-15.6c0-2.44-1.48-3.88-3.4-3.88s-3.44,1.4-3.44,3.88,1.52,4,3.44,4S697.33,385.43,697.33,382.91Z"/><path class="cls-7" d="M705.73,386.19c0-6.56,4.44-10.32,9.32-10.32s9.36,3.76,9.36,10.32-4.44,10.28-9.36,10.28S705.73,392.71,705.73,386.19Zm14,0c0-4-1.76-6.56-4.64-6.56s-4.6,2.6-4.6,6.56,1.72,6.52,4.6,6.52S719.69,390.11,719.69,386.19Z"/><path class="cls-7" d="M605.6,409.09h4.2c4.81,0,7.64,2.59,7.64,7.77s-2.83,7.93-7.49,7.93H605.6Zm4,13.44c3.17,0,5-1.8,5-5.67s-1.8-5.52-5-5.52h-1.22v11.19Z"/><path class="cls-7" d="M620.05,409.38a1.71,1.71,0,1,1,1.71,1.56A1.59,1.59,0,0,1,620.05,409.38Zm.31,3.62h2.76v11.79h-2.76Z"/><path class="cls-7" d="M625.48,423.44l1.29-1.77A5.3,5.3,0,0,0,630,423c1.27,0,1.87-.6,1.87-1.42,0-1-1.27-1.42-2.52-1.9-1.56-.57-3.31-1.46-3.31-3.43s1.65-3.53,4.29-3.53a6.3,6.3,0,0,1,3.91,1.42L633,415.81a4.36,4.36,0,0,0-2.59-1c-1.18,0-1.73.55-1.73,1.3,0,.93,1.18,1.29,2.45,1.75,1.61.6,3.39,1.37,3.39,3.58,0,2-1.61,3.64-4.59,3.64A7.41,7.41,0,0,1,625.48,423.44Z"/><path class="cls-7" d="M636.92,420.8v-5.61h-1.68v-2.07l1.83-.12.34-3.22h2.3V413h3v2.19h-3v5.61c0,1.39.53,2.07,1.66,2.07a3.29,3.29,0,0,0,1.22-.27l.48,2a7.41,7.41,0,0,1-2.4.43C637.93,425.07,636.92,423.35,636.92,420.8Z"/><path class="cls-7" d="M645.18,413h2.28l.19,2.09h.1a4,4,0,0,1,3.33-2.38,3,3,0,0,1,1.35.24l-.48,2.4a3.86,3.86,0,0,0-1.22-.19c-.94,0-2.07.65-2.79,2.43v7.2h-2.76Z"/><path class="cls-7" d="M653.82,409.38a1.71,1.71,0,1,1,1.71,1.56A1.59,1.59,0,0,1,653.82,409.38Zm.31,3.62h2.76v11.79h-2.76Z"/><path class="cls-7" d="M659.65,418.9a5.82,5.82,0,0,1,5.91-6.19A5.08,5.08,0,0,1,669,414l-1.34,1.8a2.87,2.87,0,0,0-2-.86c-1.89,0-3.21,1.56-3.21,3.93s1.29,3.92,3.14,3.92a3.93,3.93,0,0,0,2.42-1l1.13,1.82a5.87,5.87,0,0,1-3.84,1.44C662.12,425.07,659.65,422.82,659.65,418.9Z"/><path class="cls-7" d="M671.68,420.8v-5.61H670v-2.07l1.82-.12.34-3.22h2.3V413h3v2.19h-3v5.61c0,1.39.53,2.07,1.66,2.07a3.25,3.25,0,0,0,1.22-.27l.48,2a7.41,7.41,0,0,1-2.4.43C672.68,425.07,671.68,423.35,671.68,420.8Z"/><circle class="cls-8" cx="374.75" cy="469.84" r="29.28"/><circle class="cls-9" cx="374.75" cy="469.84" r="9.02"/></g></svg>