<?xml version="1.0" encoding="utf-8"?>
<!-- Generator: Adobe Illustrator 25.4.1, SVG Export Plug-In . SVG Version: 6.00 Build 0)  -->
<svg version="1.1" id="Layer_1" xmlns="http://www.w3.org/2000/svg" xmlns:xlink="http://www.w3.org/1999/xlink" x="0px" y="0px"
	 viewBox="0 0 784.06 507.87" style="enable-background:new 0 0 784.06 507.87;" xml:space="preserve">
<style type="text/css">
	.st0{fill:#E6E6E6;}
	.st1{clip-path:url(#SVGID_00000010296183247377541720000001129512691449255822_);}
	.st2{fill:none;stroke:#F0F0F0;stroke-width:2.54;stroke-miterlimit:10;}
	.st3{fill:#F0F0F0;}
	.st4{opacity:0.8;fill:#007DBC;enable-background:new    ;}
	.st5{fill:none;stroke:#0675AF;stroke-width:0.64;stroke-linejoin:bevel;}
	.st6{fill:#666666;}
	.st7{font-family:'ArialMT';}
	.st8{font-size:6.99px;}
	.st9{enable-background:new    ;}
	.st10{fill:#007DBC;}
	.st11{fill:none;stroke:#FFFFFF;stroke-width:3;stroke-miterlimit:10;}
	.st12{fill:#FFFFFF;}
</style>
<g id="Layer_1_00000011020262151722847730000011600284628549525911_">
	<rect x="-11.18" y="-11.39" class="st0" width="804.92" height="529.99"/>
</g>
<g id="Layer_2_00000128486406579952922290000013572744367676320943_">
	<g>
		<defs>
			<rect id="SVGID_1_" x="-56.86" y="-60.13" width="792" height="612"/>
		</defs>
		<clipPath id="SVGID_00000062155620244453570490000012191811573587639230_">
			<use xlink:href="#SVGID_1_"  style="overflow:visible;"/>
		</clipPath>
		<g style="clip-path:url(#SVGID_00000062155620244453570490000012191811573587639230_);">
			<polygon class="st2" points="336.51,360.62 334.42,367.05 327.66,367.05 333.13,371.01 331.04,377.44 336.51,373.47 
				341.98,377.44 339.89,371.01 345.37,367.05 338.6,367.05 			"/>
			<polyline class="st3" points="375.56,400.24 297.42,400.24 297.42,378.64 			"/>
			<polygon class="st4" points="158.8,396.04 206.01,396.16 206,402.99 219.58,403.06 219.59,390.79 215.1,387.26 212.76,386.5 
				210.43,384.13 211.86,383.88 208.12,380.14 206.22,379.39 201.78,374.25 200.09,374.67 198.61,372.13 198.59,375.63 
				192.44,375.62 192.38,382.41 158.81,382.38 			"/>
			<polygon class="st5" points="158.8,396.04 206.01,396.16 206,402.99 219.58,403.06 219.59,390.79 215.1,387.26 212.76,386.5 
				210.43,384.12 211.86,383.88 208.12,380.14 206.22,379.39 201.78,374.25 200.09,374.67 198.61,372.12 198.59,375.63 
				192.44,375.62 192.38,382.41 158.81,382.38 			"/>
			<polygon class="st4" points="281.11,368.71 308.37,368.83 308.37,361.94 309.95,360.71 312.98,355.24 315.49,354.03 
				314.36,351.82 315.45,350.55 321.51,349.53 322,347.63 318.79,344.03 308.92,343.82 302.74,340.29 299.43,336.61 297.73,337.22 
				292.73,333.66 291.01,336.77 290.38,339.71 286.38,343.29 284.93,341.95 281.06,342.89 			"/>
			<polygon class="st5" points="281.11,368.71 308.37,368.83 308.37,361.94 309.95,360.71 312.98,355.24 315.49,354.03 
				314.36,351.82 315.45,350.55 321.51,349.53 322,347.63 318.79,344.02 308.92,343.82 302.74,340.29 299.43,336.61 297.73,337.22 
				292.73,333.66 291.01,336.77 290.38,339.71 286.38,343.29 284.93,341.95 281.06,342.89 			"/>
			<polygon class="st4" points="402.34,436.9 402.35,457.02 446.64,457.02 442.15,450.23 437.93,445.08 430.02,443.07 
				426.46,440.29 422.89,435.85 416.94,432.46 414.67,430.23 402.34,430.22 			"/>
			<polygon class="st5" points="402.34,436.9 402.35,457.02 446.64,457.02 442.15,450.23 437.93,445.08 430.02,443.07 
				426.46,440.29 422.89,435.85 416.94,432.46 414.67,430.22 402.34,430.22 			"/>
			<polygon class="st4" points="140.34,236.78 142.16,240.54 142.75,248.4 144.21,250.17 146.86,257.48 150.55,261.14 150.2,263.99 
				151.45,271.46 151.63,275.44 152.81,279.19 152.94,282.44 151.84,285.87 169.16,285.89 169.21,264.93 168.36,264.93 
				168.3,236.75 			"/>
			<polygon class="st5" points="140.34,236.78 142.16,240.54 142.75,248.39 144.21,250.17 146.86,257.48 150.55,261.14 
				150.2,263.99 151.45,271.45 151.63,275.44 152.81,279.19 152.94,282.44 151.84,285.87 169.16,285.89 169.21,264.93 
				168.36,264.93 168.3,236.75 			"/>
			<polygon class="st4" points="247.46,436.83 247.49,456.96 274.81,456.97 274.81,436.78 			"/>
			<polygon class="st5" points="247.46,436.83 247.49,456.96 274.81,456.97 274.81,436.77 			"/>
			<polygon class="st4" points="349.92,357.32 351.92,357.33 351.94,375.69 349.95,375.7 350.8,381.65 349.87,383.86 350.73,385.04 
				354.85,384.31 357.75,384.93 359.12,386.93 362.09,387.08 361.89,385.3 364.12,379.6 363.7,374.86 364.95,372.03 363.91,369.29 
				364.32,365.35 362.04,361.94 365.27,358.56 364.05,352.46 364.54,350.55 364.5,344.11 365.23,343.72 350,343.65 			"/>
			<polygon class="st5" points="349.92,357.32 351.92,357.33 351.94,375.69 349.95,375.69 350.8,381.65 349.87,383.86 
				350.73,385.04 354.85,384.3 357.75,384.93 359.12,386.93 362.09,387.08 361.89,385.3 364.12,379.6 363.7,374.86 364.95,372.03 
				363.91,369.28 364.32,365.35 362.04,361.94 365.27,358.55 364.05,352.46 364.54,350.55 364.5,344.11 365.23,343.71 350,343.64 
							"/>
			<polygon class="st4" points="308.28,430.01 308.3,456.95 328.41,456.94 328.42,429.97 			"/>
			<polygon class="st5" points="308.28,430.01 308.3,456.95 328.41,456.94 328.42,429.97 			"/>
			<polygon class="st4" points="230.54,229.69 230.56,236.81 230.99,236.82 230.99,257.94 254.61,257.96 251.96,255.9 
				251.52,222.67 230.59,222.61 			"/>
			<polygon class="st5" points="230.54,229.69 230.56,236.81 230.99,236.82 230.99,257.94 254.61,257.95 251.96,255.9 
				251.52,222.66 230.59,222.61 			"/>
			<polygon class="st4" points="376.08,430.11 388.96,430.12 388.99,436.87 402.34,436.9 402.34,430.22 414.67,430.23 
				412.73,426.95 412.5,423.8 411.21,422.96 410.77,419.14 409,417.25 402.11,413.55 394.45,410.96 393.29,409.88 382.78,409.82 
				382.78,416.6 376.1,416.59 			"/>
			<polygon class="st5" points="376.08,430.11 388.96,430.12 388.99,436.87 402.34,436.9 402.34,430.22 414.67,430.22 
				412.73,426.94 412.5,423.79 411.21,422.95 410.76,419.14 408.99,417.25 402.11,413.55 394.45,410.96 393.29,409.88 
				382.78,409.82 382.78,416.6 376.1,416.58 			"/>
			<polygon class="st4" points="137.42,320.69 169.86,320.73 169.82,292.85 169.13,292.83 169.16,285.89 151.84,285.87 
				152.56,292.81 151.48,302.03 146.49,309.04 142.16,311.71 137.24,315.8 136.23,319.15 			"/>
			<polygon class="st5" points="137.42,320.69 169.86,320.73 169.82,292.84 169.13,292.83 169.16,285.89 151.84,285.87 
				152.56,292.81 151.47,302.03 146.49,309.03 142.16,311.7 137.24,315.8 136.23,319.15 			"/>
			<polygon class="st4" points="230.99,257.94 231.06,264.92 231.54,264.92 231.51,293.01 231.92,293.01 231.88,305.75 
				259.49,305.71 259.28,264.9 258.96,259.57 255.12,259.31 254.61,257.96 			"/>
			<polygon class="st5" points="230.99,257.94 231.06,264.92 231.54,264.92 231.51,293 231.92,293.01 231.88,305.75 259.49,305.71 
				259.28,264.9 258.96,259.57 255.12,259.31 254.61,257.95 			"/>
			<polygon class="st4" points="177.44,334.52 177.38,348.16 178.18,348.17 178.19,353.15 181.91,355.09 225.92,355.07 
				225.93,348.25 225.45,348.25 225.45,334.48 			"/>
			<polygon class="st5" points="177.44,334.52 177.38,348.15 178.18,348.16 178.19,353.15 181.91,355.09 225.92,355.07 
				225.93,348.25 225.45,348.25 225.45,334.48 			"/>
			<polygon class="st4" points="169.81,306.84 169.86,320.73 170.51,320.73 170.51,334.47 198.02,334.49 198,320.73 197.41,320.73 
				197.41,306.82 			"/>
			<polygon class="st5" points="169.81,306.84 169.86,320.73 170.51,320.73 170.51,334.46 198.02,334.49 198,320.73 197.41,320.73 
				197.41,306.82 			"/>
			<polygon class="st4" points="328.41,456.94 348.51,456.92 348.51,429.95 328.42,429.97 			"/>
			<polygon class="st5" points="328.41,456.94 348.51,456.92 348.51,429.94 328.42,429.97 			"/>
			<polygon class="st4" points="231.88,305.75 231.87,320.77 232.33,320.77 232.32,334.49 252.85,334.46 252.84,341.33 
				273.99,341.29 274,344.75 280.83,344.67 281.06,342.89 284.93,341.95 286.38,343.29 290.38,339.71 291.01,336.77 292.73,333.66 
				289.7,331.13 287.45,328.07 287.03,322.83 284.04,318.14 284.31,314.11 283.35,309.49 280.89,308.23 280.22,305.61 			"/>
			<polygon class="st5" points="231.88,305.75 231.87,320.76 232.33,320.77 232.32,334.49 252.85,334.46 252.84,341.33 
				273.99,341.28 274,344.75 280.83,344.67 281.06,342.89 284.93,341.95 286.38,343.29 290.38,339.71 291.01,336.77 292.73,333.66 
				289.7,331.12 287.45,328.07 287.03,322.83 284.04,318.14 284.31,314.11 283.35,309.49 280.89,308.23 280.22,305.61 			"/>
			<polygon class="st4" points="346.54,133.23 346.49,147.46 347.65,147.47 347.19,174.42 347.46,176.24 347.38,197.76 
				347.93,197.76 347.64,225.72 389.97,225.91 389.99,233.82 394.94,235.2 396.94,231.93 396.23,229.71 398.62,229.84 
				401.97,223.46 415.33,212.97 418.24,211.6 418.58,161.81 417.96,146.54 417.97,107.24 414.31,106.92 412.69,104.32 
				409.02,104.68 406.44,102.16 406.74,97.42 404.15,96.3 403.69,94.24 398.79,94.54 397.74,93.9 395.09,95.36 392.16,94.62 
				389.73,97.82 390.56,102.02 391.75,103.58 385.86,105.37 383.58,99.49 381.39,96.67 380.21,93.3 381.33,90.79 378.49,86.78 
				370.28,87.78 367.07,85.54 367.84,82.85 371.82,82.14 371.37,78.83 366.12,79.13 354.89,73.39 353.86,71.48 352,71.99 
				345.93,71.66 345.69,118.59 346.11,118.59 346.14,126.05 346.57,126.04 			"/>
			<polygon class="st5" points="346.54,133.23 346.49,147.45 347.65,147.47 347.19,174.42 347.46,176.24 347.38,197.76 
				347.93,197.76 347.64,225.72 389.97,225.91 389.99,233.82 394.94,235.2 396.94,231.93 396.23,229.71 398.62,229.84 
				401.97,223.46 415.33,212.97 418.24,211.6 418.58,161.8 417.96,146.54 417.97,107.24 414.31,106.92 412.69,104.31 409.02,104.67 
				406.44,102.16 406.74,97.42 404.15,96.3 403.69,94.24 398.79,94.54 397.74,93.9 395.08,95.36 392.16,94.62 389.73,97.82 
				390.56,102.02 391.75,103.58 385.86,105.37 383.58,99.49 381.39,96.66 380.21,93.3 381.33,90.79 378.49,86.78 370.27,87.78 
				367.07,85.54 367.84,82.85 371.82,82.14 371.37,78.83 366.12,79.13 354.89,73.38 353.86,71.48 352,71.99 345.93,71.66 
				345.69,118.59 346.11,118.58 346.14,126.05 346.57,126.04 			"/>
			<polygon class="st4" points="299.29,409.7 301.48,406.54 301.62,404.3 300.33,402.94 301.39,398.95 305.62,395.94 308.28,395.34 
				308.28,392.74 301.56,392.74 301.57,389.32 281.21,389.26 281.17,396.13 267.63,396.16 267.62,389.31 260.28,389.35 
				260.59,409.73 			"/>
			<polygon class="st5" points="299.29,409.7 301.48,406.54 301.62,404.3 300.33,402.94 301.39,398.95 305.62,395.94 308.28,395.34 
				308.28,392.74 301.56,392.74 301.57,389.32 281.21,389.26 281.17,396.13 267.63,396.16 267.62,389.31 260.28,389.35 
				260.59,409.73 			"/>
			<polygon class="st4" points="292.73,333.66 297.73,337.22 299.43,336.61 302.74,340.29 308.92,343.82 318.79,344.03 322,347.63 
				322.53,347.7 322.61,322.86 287.03,322.83 287.45,328.07 289.7,331.13 			"/>
			<polygon class="st5" points="292.73,333.66 297.73,337.22 299.43,336.61 302.74,340.29 308.92,343.82 318.79,344.02 322,347.63 
				322.53,347.7 322.61,322.86 287.03,322.83 287.45,328.07 289.7,331.12 			"/>
			<polygon class="st4" points="321.86,402.91 335.38,402.88 335.57,396.09 333.31,396.1 333.33,389.29 332.77,389.3 332.7,383.52 
				326.34,382.42 322.08,382.49 318.83,383.26 315.91,387.65 316.61,390.04 313.32,391.36 309.92,394.9 305.62,395.94 
				301.39,398.95 300.33,402.94 			"/>
			<polygon class="st5" points="321.86,402.91 335.38,402.87 335.57,396.09 333.31,396.1 333.33,389.29 332.76,389.29 332.7,383.52 
				326.34,382.41 322.08,382.48 318.83,383.26 315.91,387.65 316.61,390.04 313.32,391.36 309.92,394.9 305.62,395.94 
				301.39,398.95 300.33,402.94 			"/>
			<polygon class="st4" points="161.37,40.17 161.4,64.12 162.37,64.12 162.35,78.7 220.58,79.03 220.59,64.48 234.65,64.46 
				234.58,46.89 231.96,49.1 226.53,50.23 222.91,48.32 221.71,45.89 221.67,40.28 224.07,40.17 			"/>
			<polygon class="st5" points="161.37,40.17 161.4,64.11 162.37,64.11 162.35,78.7 220.58,79.03 220.59,64.48 234.65,64.46 
				234.58,46.89 231.96,49.09 226.53,50.23 222.91,48.32 221.71,45.89 221.67,40.27 224.07,40.17 			"/>
			<polygon class="st4" points="158.71,456.83 158.72,483.72 181.01,483.73 181.05,456.87 			"/>
			<polygon class="st5" points="158.71,456.83 158.72,483.72 181.01,483.73 181.05,456.86 			"/>
			<polygon class="st4" points="321.81,429.99 348.79,429.95 348.86,408.51 335.37,408.5 335.38,402.88 321.86,402.91 			"/>
			<polygon class="st5" points="321.81,429.99 348.79,429.94 348.86,408.51 335.37,408.5 335.38,402.87 321.86,402.91 			"/>
			<polygon class="st4" points="219.59,390.79 221.86,391.18 223.26,393.71 225.85,393.23 229.85,396.99 231.26,397.31 
				238.77,402.98 239.63,402.59 250.13,407.74 251.86,409.69 260.59,409.73 260.28,389.35 267.62,389.31 267.64,375.57 
				212.73,375.69 212.76,386.5 215.1,387.26 			"/>
			<polygon class="st5" points="219.59,390.79 221.86,391.18 223.26,393.7 225.85,393.23 229.85,396.99 231.26,397.31 
				238.77,402.98 239.63,402.59 250.13,407.74 251.86,409.69 260.59,409.73 260.28,389.35 267.62,389.31 267.64,375.57 
				212.73,375.69 212.76,386.5 215.1,387.26 			"/>
			<polygon class="st4" points="206.6,430.02 233.6,430.07 233.68,423.32 247.11,423.29 247.13,406.46 239.63,402.59 238.77,402.98 
				231.26,397.31 229.85,396.99 225.85,393.23 223.26,393.71 221.86,391.18 219.59,390.79 219.58,403.06 206.52,403.02 			"/>
			<polygon class="st5" points="206.6,430.01 233.6,430.07 233.68,423.32 247.11,423.29 247.13,406.46 239.63,402.59 238.77,402.98 
				231.26,397.31 229.85,396.99 225.85,393.23 223.26,393.7 221.86,391.18 219.59,390.79 219.58,403.06 206.52,403.01 			"/>
			<polygon class="st4" points="157.07,127.28 157.11,136.93 164.3,136.94 164.36,144.13 193.03,144.12 193.05,136.86 
				200.16,136.83 200.12,127.21 			"/>
			<polygon class="st5" points="157.07,127.28 157.11,136.93 164.3,136.94 164.36,144.13 193.03,144.12 193.05,136.86 
				200.16,136.82 200.12,127.21 			"/>
			<polygon class="st4" points="338.43,364.28 339.47,364.27 339.89,374.27 341.12,375.89 343.9,373.42 348.26,373.43 349.95,375.7 
				351.94,375.69 351.92,357.33 338.38,357.28 			"/>
			<polygon class="st5" points="338.43,364.28 339.47,364.27 339.89,374.26 341.12,375.88 343.9,373.42 348.26,373.43 
				349.95,375.69 351.94,375.69 351.92,357.33 338.38,357.28 			"/>
			<polygon class="st4" points="198.02,334.49 232.32,334.49 232.33,320.77 231.87,320.77 231.88,306.91 197.41,306.82 
				197.41,320.73 198,320.73 			"/>
			<polygon class="st5" points="198.02,334.49 232.32,334.49 232.33,320.77 231.87,320.76 231.88,306.91 197.41,306.82 
				197.41,320.73 198,320.73 			"/>
			<polygon class="st4" points="120.08,109.8 121.32,111.19 120.09,112.23 122.15,115.52 124.28,120.43 125.27,124.94 
				125.21,128.71 127.26,130.91 127.07,134.83 127.95,135.03 129.38,140.08 131.86,143.7 132.15,147.63 134.55,151.44 
				134.46,154.23 136.54,157.51 136.57,161.19 135.6,163.26 136.67,165.75 208.79,165.64 208.83,151.33 207.42,151.33 
				207.23,129.73 200.14,129.58 200.16,136.83 193.05,136.86 193.03,144.12 164.36,144.13 164.3,136.94 157.11,136.93 
				157.07,122.44 156.06,122.44 156.06,109.72 			"/>
			<polygon class="st5" points="120.08,109.8 121.32,111.19 120.09,112.23 122.15,115.52 124.28,120.43 125.27,124.94 
				125.21,128.71 127.26,130.91 127.07,134.83 127.95,135.03 129.38,140.08 131.86,143.7 132.15,147.63 134.55,151.44 
				134.46,154.23 136.54,157.51 136.57,161.19 135.6,163.26 136.67,165.75 208.79,165.64 208.83,151.33 207.42,151.33 
				207.23,129.73 200.14,129.58 200.16,136.82 193.05,136.86 193.03,144.12 164.36,144.13 164.3,136.94 157.11,136.93 
				157.07,122.43 156.05,122.43 156.06,109.72 			"/>
			<polygon class="st4" points="158.71,456.83 180.36,456.86 180.4,429.95 158.73,429.92 			"/>
			<polygon class="st5" points="158.71,456.83 180.36,456.86 180.4,429.95 158.73,429.92 			"/>
			<polygon class="st4" points="343.17,309.15 359.92,309.22 363.06,306.49 364.55,302.73 364.12,301.45 367.42,296 371.12,292.95 
				376.06,291.45 377.51,288.91 380.43,289.79 382.13,286.32 383.89,285.43 387.25,286.31 388.09,282.86 390.39,281.65 
				390.45,254.04 348.01,253.87 348,289.13 343.09,289.14 			"/>
			<polygon class="st5" points="343.17,309.15 359.92,309.22 363.06,306.49 364.55,302.73 364.12,301.44 367.42,296 371.12,292.95 
				376.06,291.45 377.51,288.91 380.43,289.78 382.13,286.32 383.89,285.43 387.25,286.3 388.09,282.85 390.39,281.65 
				390.45,254.04 348.01,253.87 347.99,289.13 343.09,289.14 			"/>
			<polygon class="st4" points="156.06,109.72 156.06,122.44 157.07,122.44 157.07,127.28 200.12,127.21 200.14,129.58 
				207.23,129.73 207.19,122.53 206.66,122.53 206.58,109.82 			"/>
			<polygon class="st5" points="156.06,109.72 156.05,122.43 157.07,122.43 157.07,127.28 200.12,127.21 200.14,129.58 
				207.23,129.73 207.19,122.53 206.66,122.53 206.58,109.81 			"/>
			<polygon class="st4" points="168.3,236.75 168.36,264.93 169.21,264.93 169.17,278.9 231.53,279.05 231.54,264.92 231.06,264.92 
				230.99,236.82 230.56,236.81 230.54,229.69 174.23,229.68 174.36,236.75 			"/>
			<polygon class="st5" points="168.3,236.75 168.36,264.93 169.21,264.93 169.17,278.9 231.53,279.05 231.54,264.92 231.06,264.92 
				230.99,236.82 230.56,236.81 230.54,229.69 174.23,229.67 174.36,236.75 			"/>
			<polygon class="st4" points="368.33,456.91 368.37,458.06 381.76,458.02 381.77,456.93 402.35,457.02 402.34,436.9 
				388.99,436.87 388.96,430.12 368.96,430.03 368.98,456.91 			"/>
			<polygon class="st5" points="368.33,456.91 368.37,458.05 381.76,458.02 381.77,456.93 402.35,457.02 402.34,436.9 
				388.99,436.87 388.96,430.12 368.96,430.03 368.98,456.91 			"/>
			<polygon class="st4" points="136.67,165.75 135.6,167.37 136.28,170.61 135.39,172.35 137.19,173.94 136.13,176.54 
				137.65,178.86 136.93,182.74 137.95,194.05 137.17,194.39 180.22,194.29 180.2,165.73 			"/>
			<polygon class="st5" points="136.67,165.75 135.6,167.37 136.28,170.61 135.39,172.35 137.19,173.93 136.13,176.54 
				137.65,178.86 136.93,182.74 137.94,194.05 137.17,194.38 180.22,194.29 180.2,165.73 			"/>
			<polygon class="st4" points="191.7,483.74 214.35,483.7 214.45,456.97 181.05,456.87 181.01,483.73 			"/>
			<polygon class="st5" points="191.7,483.74 214.35,483.7 214.45,456.97 181.05,456.86 181.01,483.73 			"/>
			<polygon class="st4" points="251.86,409.69 256.67,412.01 257.67,414.37 262.25,415.4 263.14,416.33 267.7,417.6 269.64,419.38 
				272.38,423.94 279.11,426.57 283.42,429.59 287.48,430.19 292.3,433.25 295.24,431.8 293.93,428.06 294.7,426.63 294.16,424.89 
				297.58,421.35 299.1,418.48 297.49,416.86 299.29,409.7 			"/>
			<polygon class="st5" points="251.86,409.69 256.67,412.01 257.67,414.37 262.25,415.4 263.14,416.33 267.7,417.6 269.64,419.37 
				272.38,423.94 279.11,426.57 283.42,429.59 287.48,430.19 292.3,433.25 295.24,431.79 293.93,428.06 294.7,426.63 294.16,424.89 
				297.58,421.35 299.1,418.48 297.49,416.86 299.29,409.7 			"/>
			<polygon class="st4" points="181.05,456.87 213.88,456.97 213.9,429.99 180.4,429.95 180.36,456.86 			"/>
			<polygon class="st5" points="181.05,456.86 213.88,456.96 213.9,429.98 180.4,429.95 180.36,456.86 			"/>
			<polygon class="st4" points="348.32,483.77 381.76,483.71 381.76,458.02 368.37,458.06 368.33,456.91 348.3,456.92 			"/>
			<polygon class="st5" points="348.32,483.77 381.76,483.71 381.76,458.02 368.37,458.05 368.33,456.91 348.3,456.92 			"/>
			<polygon class="st4" points="259.49,305.71 280.22,305.61 277.1,303.74 275.7,301.87 308.51,301.86 308.23,289.01 305.93,288.98 
				305.92,275.05 274.5,275 274.98,273.24 273.32,270.6 273.76,268.41 276.33,265.3 275.27,263.5 271.7,260.93 269.71,260.98 
				265.58,263.27 258.96,259.57 259.28,264.9 			"/>
			<polygon class="st5" points="259.49,305.71 280.22,305.61 277.1,303.74 275.7,301.87 308.51,301.86 308.23,289.01 305.93,288.98 
				305.92,275.04 274.5,275 274.98,273.23 273.32,270.6 273.76,268.41 276.33,265.29 275.27,263.5 271.7,260.93 269.71,260.98 
				265.58,263.27 258.96,259.57 259.28,264.9 			"/>
			<polygon class="st4" points="305.92,275.05 305.93,288.98 308.23,289.01 308.76,322.79 322.61,322.86 322.2,289.08 
				326.97,289.11 327.08,267.84 305.89,268.08 			"/>
			<polygon class="st5" points="305.92,275.04 305.93,288.98 308.23,289.01 308.76,322.79 322.61,322.86 322.2,289.08 
				326.97,289.11 327.08,267.84 305.89,268.08 			"/>
			<polygon class="st4" points="252.84,341.33 253.16,348.22 253.13,375.59 267.38,375.57 267.4,368.69 281.11,368.71 
				280.83,344.67 274,344.75 273.99,341.29 			"/>
			<polygon class="st5" points="252.84,341.33 253.16,348.22 253.13,375.58 267.38,375.57 267.4,368.69 281.11,368.71 
				280.83,344.67 274,344.75 273.99,341.28 			"/>
			<polygon class="st4" points="267.38,375.57 267.64,375.57 267.63,396.16 281.17,396.13 281.21,389.26 294.79,389.3 
				294.68,368.77 267.4,368.69 			"/>
			<polygon class="st5" points="267.38,375.57 267.64,375.57 267.63,396.16 281.17,396.13 281.21,389.26 294.79,389.3 
				294.68,368.77 267.4,368.69 			"/>
			<polygon class="st4" points="247.76,483.68 281.55,483.74 281.6,456.97 247.77,456.95 			"/>
			<polygon class="st5" points="247.76,483.68 281.55,483.74 281.6,456.96 247.77,456.95 			"/>
			<polygon class="st4" points="119.21,78.79 120.14,79.21 119.25,84.42 121.05,86.28 120.93,90.26 119.16,91.48 119.59,93.85 
				121.55,96.92 120.71,100.28 121.76,100.89 119.99,105.58 121.41,106.18 120.39,108.09 120.08,109.8 206.58,109.82 206.61,93.7 
				206.13,93.7 206.11,79.15 171.13,78.62 			"/>
			<polygon class="st5" points="119.21,78.79 120.14,79.21 119.25,84.41 121.05,86.28 120.93,90.26 119.16,91.48 119.59,93.85 
				121.55,96.92 120.7,100.27 121.76,100.89 119.99,105.58 121.41,106.18 120.39,108.09 120.08,109.8 206.58,109.81 206.61,93.7 
				206.13,93.7 206.11,79.15 171.13,78.62 			"/>
			<polygon class="st4" points="180.2,165.73 180.22,194.29 208.96,194.31 208.94,165.63 			"/>
			<polygon class="st5" points="180.2,165.73 180.22,194.29 208.96,194.31 208.94,165.63 			"/>
			<polygon class="st4" points="178.78,396.11 178.78,402.9 179.49,402.93 179.57,429.95 206.6,430.02 206.52,403.02 206,402.99 
				206.01,396.16 			"/>
			<polygon class="st5" points="178.78,396.11 178.78,402.9 179.49,402.93 179.57,429.94 206.6,430.01 206.52,403.01 206,402.99 
				206.01,396.16 			"/>
			<polygon class="st4" points="158.73,429.92 179.57,429.95 179.49,402.93 178.78,402.9 178.78,396.11 158.8,396.04 			"/>
			<polygon class="st5" points="158.73,429.92 179.57,429.94 179.49,402.93 178.78,402.9 178.78,396.11 158.8,396.04 			"/>
			<polygon class="st4" points="308.28,430.01 321.81,429.99 321.86,402.91 300.33,402.94 301.62,404.3 301.48,406.54 299.29,409.7 
				297.49,416.86 299.1,418.48 297.58,421.35 294.16,424.89 294.7,426.63 308.29,426.63 			"/>
			<polygon class="st5" points="308.28,430.01 321.81,429.99 321.86,402.91 300.33,402.94 301.62,404.3 301.48,406.54 299.29,409.7 
				297.49,416.86 299.1,418.48 297.58,421.35 294.16,424.89 294.7,426.63 308.29,426.63 			"/>
			<polygon class="st4" points="220.58,79.03 227.85,79.05 227.91,93.67 271.48,93.56 271.39,65.49 270.79,66.06 265.37,65.33 
				262.65,64.08 256.88,58.97 256.13,55.06 257.17,53.73 256.89,47.22 253.61,31.82 252.36,30.03 249.38,15.24 249.83,12.9 
				247.86,12.63 242.1,8.69 236.69,10.13 231.08,7.32 231.13,40.16 221.67,40.28 221.71,45.89 222.91,48.32 226.53,50.23 
				231.96,49.1 234.58,46.89 234.65,64.46 220.59,64.48 			"/>
			<polygon class="st5" points="220.58,79.03 227.85,79.05 227.91,93.66 271.48,93.56 271.39,65.49 270.79,66.06 265.37,65.33 
				262.65,64.08 256.88,58.97 256.13,55.06 257.17,53.73 256.89,47.21 253.61,31.82 252.36,30.03 249.38,15.24 249.83,12.9 
				247.86,12.62 242.1,8.69 236.69,10.13 231.08,7.31 231.13,40.16 221.67,40.27 221.71,45.89 222.91,48.32 226.53,50.23 
				231.96,49.09 234.58,46.89 234.65,64.46 220.59,64.48 			"/>
			<polygon class="st4" points="417.97,107.24 417.96,146.54 418.58,161.81 418.24,211.6 430.64,199.23 435.66,196.53 
				446.39,185.53 453.31,176.25 461.18,168.55 461.32,133.56 460.99,133.53 461.1,118.9 460.71,118.9 460.71,108.49 457.86,109.16 
				448.48,117.28 441.7,118.52 438.07,120.11 437.38,118.44 435.23,118.49 430.84,120.58 431.29,115.13 426.77,116.12 
				426.06,114.73 422.77,114.66 423.52,113.06 422.65,107.58 			"/>
			<polygon class="st5" points="417.97,107.24 417.96,146.54 418.58,161.8 418.24,211.6 430.64,199.23 435.66,196.53 446.39,185.53 
				453.31,176.25 461.18,168.55 461.32,133.55 460.99,133.53 461.1,118.9 460.71,118.9 460.71,108.49 457.86,109.16 448.48,117.28 
				441.7,118.52 438.07,120.11 437.38,118.43 435.23,118.48 430.83,120.58 431.29,115.12 426.77,116.12 426.06,114.73 
				422.77,114.66 423.52,113.05 422.65,107.58 			"/>
			<polygon class="st4" points="158.73,345.86 158.81,382.38 192.38,382.41 192.44,375.62 198.59,375.63 198.61,372.13 
				194.88,371.11 193.72,368.17 185.05,359.4 181.91,355.09 178.19,353.15 176.17,351.65 174.32,351.87 171.81,349.82 168.54,349.4 
				168.17,347.6 			"/>
			<polygon class="st5" points="158.73,345.86 158.81,382.38 192.38,382.41 192.44,375.62 198.59,375.63 198.61,372.12 
				194.88,371.11 193.72,368.17 185.05,359.4 181.91,355.09 178.19,353.15 176.17,351.65 174.32,351.87 171.81,349.82 168.54,349.4 
				168.17,347.6 			"/>
			<polygon class="st4" points="271.48,93.56 272.05,137.06 307.83,137.01 307.85,132.64 346.54,133.23 346.57,126.04 
				346.14,126.05 346.11,118.59 345.69,118.59 345.93,71.66 341.12,72.05 339.6,70.43 336.61,70.46 331.72,71.77 331.38,72.93 
				328.44,73.18 325.16,74.67 325.07,78.5 320.87,79.93 315.01,80.95 306.81,81.07 305.48,79.88 306.21,76.5 304.05,71.52 
				297.9,71.16 294.98,70.36 282.87,69.83 281.18,68.83 280.85,65.87 278.18,64.71 273.7,64.56 271.39,65.49 			"/>
			<polygon class="st5" points="271.48,93.56 272.05,137.06 307.83,137.01 307.85,132.64 346.54,133.23 346.57,126.04 
				346.14,126.05 346.11,118.58 345.69,118.59 345.93,71.66 341.12,72.05 339.6,70.43 336.61,70.46 331.72,71.77 331.38,72.93 
				328.44,73.18 325.16,74.67 325.07,78.49 320.87,79.92 315.01,80.95 306.81,81.07 305.48,79.88 306.21,76.5 304.05,71.52 
				297.9,71.16 294.98,70.36 282.87,69.83 281.18,68.82 280.85,65.87 278.18,64.71 273.7,64.56 271.39,65.49 			"/>
			<polygon class="st4" points="119.21,78.79 162.35,78.7 162.37,64.12 161.4,64.12 161.37,40.17 115.42,40.17 115.2,44.64 
				117.66,49.01 117.12,50.21 118.57,52.65 117.7,55.9 119.46,56.45 120.61,63.34 122.12,65.05 122.76,69.01 121.65,72.25 
				119.9,72.95 			"/>
			<polygon class="st5" points="119.21,78.79 162.35,78.7 162.37,64.11 161.4,64.11 161.37,40.17 115.42,40.17 115.2,44.64 
				117.66,49.01 117.12,50.21 118.57,52.64 117.7,55.9 119.46,56.45 120.61,63.34 122.12,65.04 122.75,69.01 121.65,72.25 
				119.9,72.95 			"/>
			<polygon class="st4" points="225.92,355.07 225.82,375.64 253.13,375.59 252.85,334.46 225.45,334.48 225.45,348.25 
				225.93,348.25 			"/>
			<polygon class="st5" points="225.92,355.07 225.82,375.64 253.13,375.58 252.85,334.46 225.45,334.48 225.45,348.25 
				225.93,348.25 			"/>
			<polygon class="st4" points="322.44,308.87 343.17,309.15 343.09,289.14 348,289.13 348.06,274.92 335.22,274.82 327.01,275.25 
				326.97,289.11 322.2,289.08 			"/>
			<polygon class="st5" points="322.44,308.87 343.17,309.15 343.09,289.14 347.99,289.13 348.06,274.92 335.22,274.82 
				327.01,275.25 326.97,289.11 322.2,289.08 			"/>
			<polygon class="st4" points="218.06,483.74 247.76,483.68 247.77,456.95 214.45,456.97 214.35,483.7 			"/>
			<polygon class="st5" points="218.06,483.73 247.76,483.68 247.77,456.95 214.45,456.97 214.35,483.7 			"/>
			<polygon class="st4" points="272.05,137.06 272.17,170.21 277.28,172.63 288.79,167.26 290.91,168.26 293.69,172.92 
				293.03,176.13 293.85,177.88 296.81,179 300.32,182.25 302.98,180.35 305.35,182.07 306.51,181.47 307.82,183.85 305.97,187.63 
				307.96,189.44 307.88,204.21 347.95,204.54 347.93,197.76 347.38,197.76 347.46,176.24 347.19,174.42 347.65,147.47 
				346.49,147.46 346.54,133.23 307.85,132.64 307.83,137.01 			"/>
			<polygon class="st5" points="272.05,137.06 272.17,170.21 277.28,172.63 288.79,167.25 290.91,168.26 293.69,172.92 
				293.03,176.13 293.85,177.87 296.81,179 300.32,182.25 302.98,180.35 305.35,182.07 306.51,181.47 307.82,183.85 305.97,187.63 
				307.96,189.43 307.88,204.21 347.95,204.54 347.93,197.76 347.38,197.76 347.46,176.24 347.19,174.42 347.65,147.47 
				346.49,147.45 346.54,133.23 307.85,132.64 307.83,137.01 			"/>
			<polygon class="st4" points="322.44,308.87 322.65,334.3 349.99,334.54 349.83,322.98 343.15,322.91 343.17,309.15 			"/>
			<polygon class="st5" points="322.44,308.87 322.65,334.3 349.99,334.54 349.83,322.98 343.15,322.91 343.17,309.15 			"/>
			<polygon class="st4" points="229.45,172.85 229.47,180 230.21,180.04 230.19,208.46 230.62,208.48 230.59,222.61 258.6,222.72 
				258.39,180.26 257.96,180.26 258.03,173.06 			"/>
			<polygon class="st5" points="229.45,172.85 229.47,180 230.21,180.03 230.19,208.46 230.62,208.47 230.59,222.61 258.6,222.72 
				258.39,180.26 257.96,180.26 258.03,173.06 			"/>
			<polygon class="st4" points="421.78,457.04 421.78,483.7 450.34,483.71 448.89,479.98 449.28,477.01 447.5,474.89 447.51,467.61 
				448.11,466.39 448.87,462.61 446.64,457.02 			"/>
			<polygon class="st5" points="421.78,457.03 421.78,483.69 450.34,483.71 448.89,479.98 449.28,477.01 447.5,474.89 
				447.51,467.61 448.11,466.38 448.87,462.61 446.64,457.02 			"/>
			<polygon class="st4" points="322.08,382.49 326.34,382.42 332.7,383.52 336.99,381.94 339.29,379.69 341.12,375.89 
				339.89,374.27 339.47,364.27 335.28,364.31 335.56,358.94 333.71,355.75 327.4,350.2 324.02,349.28 322.53,347.7 322,347.63 
				321.51,349.53 315.45,350.55 314.36,351.82 315.49,354.03 312.98,355.24 309.95,360.71 308.37,361.94 308.34,375.68 
				322.07,375.66 			"/>
			<polygon class="st5" points="322.08,382.48 326.34,382.41 332.7,383.52 336.99,381.94 339.29,379.69 341.12,375.88 
				339.89,374.26 339.47,364.27 335.28,364.3 335.56,358.94 333.71,355.75 327.4,350.19 324.02,349.28 322.53,347.7 322,347.63 
				321.51,349.53 315.45,350.55 314.36,351.82 315.49,354.03 312.98,355.24 309.95,360.71 308.37,361.94 308.34,375.68 
				322.07,375.66 			"/>
			<polygon class="st4" points="169.81,306.84 197.41,306.82 197.4,292.93 196.8,292.93 196.78,278.99 169.17,278.9 169.13,292.83 
				169.82,292.85 			"/>
			<polygon class="st5" points="169.81,306.84 197.41,306.82 197.4,292.93 196.8,292.93 196.78,278.99 169.17,278.9 169.13,292.83 
				169.82,292.84 			"/>
			<polygon class="st4" points="348.79,429.95 376.08,430.11 376.1,416.59 382.78,416.6 382.78,409.82 393.29,409.88 390.14,406.73 
				389.15,403.11 387.4,401.84 382.68,401.18 376.69,401.04 375.08,398.23 372.09,397.24 372.13,395.44 365.99,389.55 
				365.99,396.19 362.62,396.17 362.61,402.94 355.58,402.93 355.59,404.94 353.58,405.77 351.9,404.84 348.88,405.11 			"/>
			<polygon class="st5" points="348.79,429.94 376.08,430.11 376.1,416.58 382.78,416.6 382.78,409.82 393.29,409.88 390.14,406.73 
				389.15,403.11 387.4,401.84 382.68,401.18 376.69,401.04 375.08,398.23 372.09,397.24 372.13,395.44 365.99,389.55 
				365.99,396.19 362.62,396.17 362.61,402.94 355.58,402.93 355.59,404.94 353.58,405.76 351.9,404.84 348.88,405.11 			"/>
			<polygon class="st4" points="323.36,483.78 348.32,483.77 348.3,456.92 314.94,456.94 314.94,483.78 			"/>
			<polygon class="st5" points="323.36,483.78 348.32,483.77 348.3,456.92 314.94,456.94 314.94,483.78 			"/>
			<polygon class="st4" points="381.76,483.71 421.78,483.7 421.78,457.04 381.77,456.93 			"/>
			<polygon class="st5" points="381.76,483.71 421.78,483.69 421.78,457.03 381.77,456.93 			"/>
			<polygon class="st4" points="296.99,483.76 314.94,483.78 314.94,456.94 281.6,456.97 281.55,483.74 			"/>
			<polygon class="st5" points="296.99,483.76 314.94,483.78 314.94,456.94 281.6,456.96 281.55,483.74 			"/>
			<polygon class="st4" points="197.41,306.82 231.88,306.91 231.53,279.05 196.78,278.99 196.8,292.93 197.4,292.93 			"/>
			<polygon class="st5" points="197.41,306.82 231.88,306.91 231.53,279.05 196.78,278.99 196.8,292.93 197.4,292.93 			"/>
			<polygon class="st4" points="348.51,456.92 368.98,456.91 368.96,430.03 348.51,429.95 			"/>
			<polygon class="st5" points="348.51,456.92 368.98,456.91 368.96,430.03 348.51,429.94 			"/>
			<polygon class="st4" points="335.38,402.88 335.37,408.5 348.86,408.51 348.88,405.11 351.9,404.84 353.58,405.77 355.59,404.94 
				355.58,402.93 362.61,402.94 362.62,396.17 365.99,396.19 365.99,389.55 362.09,387.08 359.12,386.93 357.75,384.93 
				354.85,384.31 350.73,385.04 349.87,383.86 350.8,381.65 349.95,375.7 348.26,373.43 343.9,373.42 341.12,375.89 339.29,379.69 
				336.99,381.94 332.7,383.52 332.77,389.3 333.33,389.29 333.31,396.1 335.57,396.09 			"/>
			<polygon class="st5" points="335.38,402.87 335.37,408.5 348.86,408.51 348.88,405.11 351.9,404.84 353.58,405.76 355.59,404.94 
				355.58,402.93 362.61,402.94 362.62,396.17 365.99,396.19 365.99,389.55 362.09,387.08 359.12,386.93 357.75,384.93 
				354.85,384.3 350.73,385.04 349.87,383.86 350.8,381.65 349.95,375.69 348.26,373.43 343.9,373.42 341.12,375.88 339.29,379.69 
				336.99,381.94 332.7,383.52 332.76,389.29 333.33,389.29 333.31,396.1 335.57,396.09 			"/>
			<polygon class="st4" points="276.33,265.3 273.76,268.41 273.32,270.6 274.98,273.24 274.5,275 305.92,275.05 305.89,268.08 
				306.71,268.08 305.9,267.26 305.86,240.53 307.73,240.08 307.84,222.76 276.28,222.55 276.13,236.71 276.93,236.71 
				277.13,264.33 			"/>
			<polygon class="st5" points="276.33,265.29 273.76,268.41 273.32,270.6 274.98,273.23 274.5,275 305.92,275.04 305.89,268.08 
				306.71,268.07 305.9,267.26 305.86,240.52 307.73,240.08 307.84,222.76 276.28,222.55 276.13,236.7 276.93,236.71 277.13,264.33 
							"/>
			<polygon class="st4" points="213.88,456.97 247.49,456.96 247.46,436.83 234.08,436.82 233.6,430.07 213.9,429.99 			"/>
			<polygon class="st5" points="213.88,456.96 247.49,456.96 247.46,436.83 234.08,436.82 233.6,430.07 213.9,429.98 			"/>
			<polygon class="st4" points="460.71,108.49 460.71,118.9 461.1,118.9 460.99,133.53 461.32,133.56 461.18,168.55 477.51,155.14 
				488.25,148.89 519.6,138.33 529.61,133.31 541.26,124.15 539.45,123.31 534.75,123.7 533.77,122.65 528.16,122.98 527.56,124.26 
				523.83,125.24 521.83,122.98 518.51,121.89 516.87,117.19 510.17,114.83 505.56,115.18 498.96,116.37 495.65,115.45 
				487.38,116.2 485.68,113.97 482.43,115.62 476.36,116.61 473.85,112.6 474.92,110.87 471.73,108.58 471.46,104.34 468.65,103.77 
				463.73,105.91 			"/>
			<polygon class="st5" points="460.71,108.49 460.71,118.9 461.1,118.9 460.99,133.53 461.32,133.55 461.18,168.55 477.51,155.14 
				488.25,148.88 519.6,138.33 529.61,133.31 541.26,124.15 539.45,123.31 534.75,123.7 533.77,122.65 528.16,122.97 527.56,124.26 
				523.83,125.24 521.83,122.98 518.51,121.89 516.87,117.19 510.17,114.82 505.56,115.18 498.96,116.37 495.65,115.45 
				487.38,116.2 485.68,113.96 482.43,115.61 476.36,116.61 473.85,112.59 474.92,110.87 471.73,108.58 471.46,104.34 
				468.65,103.77 463.73,105.9 			"/>
			<polygon class="st4" points="207.23,129.73 207.42,151.33 208.83,151.33 208.96,194.31 230.23,194.22 230.21,180.04 229.47,180 
				229.35,151.35 228.84,151.35 228.87,134.83 225.98,133.99 224.19,130.38 224.4,127.79 226.89,122.58 207.19,122.53 			"/>
			<polygon class="st5" points="207.23,129.73 207.42,151.33 208.83,151.33 208.96,194.31 230.23,194.22 230.21,180.03 229.47,180 
				229.35,151.35 228.84,151.35 228.87,134.83 225.98,133.99 224.19,130.38 224.4,127.79 226.89,122.58 207.19,122.53 			"/>
			<polygon class="st4" points="139.5,236.79 174.36,236.75 174.26,208.53 173.17,208.53 173.11,194.34 137.17,194.39 
				138.49,197.83 138.4,202.42 137.53,205.85 138.1,209.02 139.85,212.53 141.92,213.64 139.25,222.06 140.11,224.16 140.45,229.34 
							"/>
			<polygon class="st5" points="139.5,236.79 174.36,236.75 174.26,208.53 173.17,208.52 173.11,194.34 137.17,194.38 
				138.49,197.83 138.4,202.42 137.53,205.84 138.1,209.02 139.85,212.53 141.92,213.64 139.25,222.06 140.11,224.16 140.45,229.34 
							"/>
			<polygon class="st4" points="349.99,334.54 350,343.65 365.23,343.72 367.83,340.52 367.55,339.15 370.54,335.57 370.75,332.17 
				366.29,326.38 366.32,324.27 363.69,322.11 360.91,322.69 357.54,321.53 357.35,316.07 358.35,310.21 359.92,309.22 
				343.17,309.15 343.15,322.91 349.83,322.98 			"/>
			<polygon class="st5" points="349.99,334.54 350,343.64 365.23,343.71 367.83,340.52 367.55,339.14 370.54,335.57 370.75,332.17 
				366.29,326.38 366.32,324.27 363.69,322.11 360.91,322.69 357.54,321.53 357.35,316.07 358.35,310.21 359.92,309.22 
				343.17,309.15 343.15,322.91 349.83,322.98 			"/>
			<polygon class="st4" points="198.61,372.13 200.09,374.67 201.78,374.25 206.22,379.39 208.12,380.14 211.86,383.88 
				210.43,384.13 212.76,386.5 212.73,375.69 225.82,375.64 225.92,355.07 181.91,355.09 185.05,359.4 193.72,368.17 194.88,371.11 
							"/>
			<polygon class="st5" points="198.61,372.12 200.09,374.67 201.78,374.25 206.22,379.39 208.12,380.14 211.86,383.88 
				210.43,384.12 212.76,386.5 212.73,375.69 225.82,375.64 225.92,355.07 181.91,355.09 185.05,359.4 193.72,368.17 194.88,371.11 
							"/>
			<polygon class="st4" points="254.61,257.96 255.12,259.31 258.96,259.57 265.58,263.27 269.71,260.98 271.7,260.93 275.27,263.5 
				276.33,265.3 277.13,264.33 276.93,236.71 276.13,236.71 276.28,222.55 307.84,222.76 307.96,189.44 305.97,187.63 
				307.82,183.85 306.51,181.47 305.35,182.07 302.98,180.35 300.32,182.25 296.81,179 293.85,177.88 293.03,176.13 293.69,172.92 
				290.91,168.26 288.79,167.26 277.28,172.63 272.17,170.21 272.17,172.93 258.03,173.06 257.96,180.26 258.39,180.26 
				258.6,222.72 251.52,222.67 251.96,255.9 			"/>
			<polygon class="st5" points="254.61,257.95 255.12,259.31 258.96,259.57 265.58,263.27 269.71,260.98 271.7,260.93 275.27,263.5 
				276.33,265.29 277.13,264.33 276.93,236.71 276.13,236.7 276.28,222.55 307.84,222.76 307.96,189.43 305.97,187.63 
				307.82,183.85 306.51,181.47 305.35,182.07 302.98,180.35 300.32,182.25 296.81,179 293.85,177.87 293.03,176.13 293.69,172.92 
				290.91,168.26 288.79,167.25 277.28,172.63 272.17,170.21 272.17,172.93 258.03,173.06 257.96,180.26 258.39,180.26 
				258.6,222.72 251.52,222.66 251.96,255.9 			"/>
			<polygon class="st4" points="294.68,368.77 294.79,389.3 301.57,389.32 301.56,392.74 308.28,392.74 308.28,395.34 309.92,394.9 
				313.32,391.36 316.61,390.04 315.91,387.65 318.83,383.26 322.08,382.49 322.07,375.66 308.34,375.68 308.37,368.83 			"/>
			<polygon class="st5" points="294.68,368.77 294.79,389.3 301.57,389.32 301.56,392.74 308.28,392.74 308.28,395.34 309.92,394.9 
				313.32,391.36 316.61,390.04 315.91,387.65 318.83,383.26 322.08,382.48 322.07,375.66 308.34,375.68 308.37,368.83 			"/>
			<polygon class="st4" points="347.64,225.72 347.57,239.79 347.96,240.94 348.01,253.87 390.45,254.04 390.49,234.12 
				389.99,233.82 389.97,225.91 			"/>
			<polygon class="st5" points="347.64,225.72 347.57,239.79 347.96,240.94 348.01,253.87 390.45,254.04 390.49,234.12 
				389.99,233.82 389.97,225.91 			"/>
			<polygon class="st4" points="247.46,436.83 274.81,436.78 274.66,424.68 272.38,423.94 269.64,419.38 267.7,417.6 263.14,416.33 
				262.25,415.4 257.67,414.37 256.67,412.01 251.86,409.69 250.13,407.74 247.13,406.46 247.11,423.29 233.68,423.32 233.6,430.07 
				234.08,436.82 			"/>
			<polygon class="st5" points="247.46,436.83 274.81,436.77 274.66,424.68 272.38,423.94 269.64,419.37 267.7,417.6 263.14,416.33 
				262.25,415.4 257.67,414.37 256.67,412.01 251.86,409.69 250.13,407.74 247.13,406.46 247.11,423.29 233.68,423.32 233.6,430.07 
				234.08,436.82 			"/>
			<polygon class="st4" points="274.81,436.78 274.81,456.97 308.3,456.95 308.29,426.63 294.7,426.63 293.93,428.06 295.24,431.8 
				292.3,433.25 287.48,430.19 283.42,429.59 279.11,426.57 274.66,424.68 			"/>
			<polygon class="st5" points="274.81,436.77 274.81,456.97 308.3,456.95 308.29,426.63 294.7,426.63 293.93,428.06 295.24,431.79 
				292.3,433.25 287.48,430.19 283.42,429.59 279.11,426.57 274.66,424.68 			"/>
			<polygon class="st4" points="157.75,341.3 158.67,343.27 158.73,345.86 168.17,347.6 168.54,349.4 171.81,349.82 174.32,351.87 
				176.17,351.65 178.19,353.15 178.18,348.17 177.38,348.16 177.44,334.52 170.51,334.47 170.51,320.73 137.42,320.69 
				141.43,325.94 143.22,330.95 146.05,334.64 149.43,334.77 156.71,338.88 			"/>
			<polygon class="st5" points="157.75,341.3 158.67,343.27 158.73,345.86 168.17,347.6 168.54,349.4 171.81,349.82 174.32,351.87 
				176.17,351.65 178.19,353.15 178.18,348.16 177.38,348.15 177.44,334.52 170.51,334.46 170.51,320.73 137.42,320.69 
				141.43,325.94 143.22,330.95 146.05,334.64 149.43,334.77 156.71,338.88 			"/>
			<polygon class="st4" points="280.22,305.61 280.89,308.23 283.35,309.49 284.31,314.11 284.04,318.14 287.03,322.83 
				308.76,322.79 308.51,301.86 275.7,301.87 277.1,303.74 			"/>
			<polygon class="st5" points="280.22,305.61 280.89,308.23 283.35,309.49 284.31,314.11 284.04,318.14 287.03,322.83 
				308.76,322.79 308.51,301.86 275.7,301.87 277.1,303.74 			"/>
			<polygon class="st4" points="206.58,109.82 206.66,122.53 226.89,122.58 224.4,127.79 224.19,130.38 225.98,133.99 
				228.87,134.83 228.84,151.35 229.35,151.35 229.45,172.85 272.17,172.93 272.09,122.59 271.77,122.59 271.48,93.56 227.91,93.67 
				227.85,79.05 206.11,79.15 206.13,93.7 206.61,93.7 			"/>
			<polygon class="st5" points="206.58,109.81 206.66,122.53 226.89,122.58 224.4,127.79 224.19,130.38 225.98,133.99 
				228.87,134.83 228.84,151.35 229.35,151.35 229.45,172.85 272.17,172.93 272.09,122.59 271.76,122.59 271.48,93.56 227.91,93.66 
				227.85,79.05 206.11,79.15 206.13,93.7 206.61,93.7 			"/>
			<polygon class="st4" points="174.23,229.68 230.54,229.69 230.62,208.48 230.19,208.46 230.23,194.22 173.11,194.34 
				173.17,208.53 174.26,208.53 			"/>
			<polygon class="st5" points="174.23,229.67 230.54,229.69 230.62,208.47 230.19,208.46 230.23,194.22 173.11,194.34 
				173.17,208.52 174.26,208.53 			"/>
			<polygon class="st4" points="338.43,364.28 338.38,357.28 349.92,357.32 349.99,334.54 322.65,334.3 322.53,347.7 324.02,349.28 
				327.4,350.2 333.71,355.75 335.56,358.94 335.28,364.31 			"/>
			<polygon class="st5" points="338.43,364.28 338.38,357.28 349.92,357.32 349.99,334.54 322.65,334.3 322.53,347.7 324.02,349.28 
				327.4,350.19 333.71,355.75 335.56,358.94 335.28,364.3 			"/>
			<polygon class="st4" points="327.01,275.25 335.22,274.82 348.06,274.92 347.96,240.94 347.57,239.79 347.95,204.54 
				307.88,204.21 307.73,240.08 305.86,240.53 305.9,267.26 306.71,268.08 327.08,267.84 			"/>
			<polygon class="st5" points="327.01,275.25 335.22,274.82 348.06,274.92 347.96,240.94 347.57,239.79 347.95,204.54 
				307.88,204.21 307.73,240.08 305.86,240.52 305.9,267.26 306.71,268.07 327.08,267.84 			"/>
			<text transform="matrix(1 0 0 1 95.62 503.79)" class="st6 st7 st8">p</text>
		</g>
	</g>
</g>
<g id="Layer_3">
	<g class="st9">
		<path class="st10" d="M504.91,300.71h5.24l4.64,12.8c0.56,1.64,1.12,3.4,1.68,5.12h0.16c0.56-1.72,1.08-3.48,1.64-5.12l4.52-12.8
			h5.28v26.16h-4.28V314.9c0-2.44,0.36-5.92,0.6-8.32h-0.16l-2.12,6.08l-4.28,11.76h-2.76l-4.32-11.76l-2.08-6.08h-0.16
			c0.2,2.4,0.6,5.88,0.6,8.32v11.96h-4.2V300.71z"/>
		<path class="st10" d="M533.79,301.18c0-1.56,1.2-2.64,2.84-2.64s2.84,1.08,2.84,2.64c0,1.52-1.2,2.6-2.84,2.6
			S533.79,302.7,533.79,301.18z M534.31,307.22h4.6v19.64h-4.6V307.22z"/>
		<path class="st10" d="M544.79,307.22h3.8l0.32,2.64h0.16c1.76-1.72,3.76-3.12,6.44-3.12c4.2,0,6.04,2.84,6.04,7.8v12.32h-4.6
			v-11.72c0-3.24-0.92-4.44-3.08-4.44c-1.72,0-2.84,0.84-4.48,2.44v13.72h-4.6V307.22z"/>
		<path class="st10" d="M567.19,307.22h3.8l0.32,2.64h0.16c1.76-1.72,3.76-3.12,6.44-3.12c4.2,0,6.04,2.84,6.04,7.8v12.32h-4.6
			v-11.72c0-3.24-0.92-4.44-3.08-4.44c-1.72,0-2.84,0.84-4.48,2.44v13.72h-4.6V307.22z"/>
		<path class="st10" d="M588.31,317.06c0-6.4,4.44-10.32,9.04-10.32c5.32,0,8.12,3.84,8.12,9.32c0,0.88-0.08,1.76-0.2,2.24h-12.48
			c0.4,3.48,2.64,5.48,5.8,5.48c1.68,0,3.12-0.52,4.56-1.44l1.56,2.88c-1.88,1.24-4.24,2.12-6.72,2.12
			C592.55,327.34,588.31,323.54,588.31,317.06z M601.47,315.18c0-3.04-1.32-4.88-4-4.88c-2.32,0-4.32,1.72-4.72,4.88H601.47z"/>
		<path class="st10" d="M607.91,324.62l2.16-2.96c1.76,1.36,3.44,2.2,5.44,2.2c2.12,0,3.12-1,3.12-2.36c0-1.64-2.12-2.36-4.2-3.16
			c-2.6-0.96-5.52-2.44-5.52-5.72c0-3.44,2.76-5.88,7.16-5.88c2.72,0,4.92,1.12,6.52,2.36l-2.12,2.8c-1.36-1-2.76-1.68-4.32-1.68
			c-1.96,0-2.88,0.92-2.88,2.16c0,1.56,1.96,2.16,4.08,2.92c2.68,1,5.64,2.28,5.64,5.96c0,3.36-2.68,6.08-7.64,6.08
			C612.67,327.34,609.83,326.18,607.91,324.62z"/>
	</g>
	<g class="st9">
		<path class="st10" d="M625.83,317.06c0-6.56,4.44-10.32,9.32-10.32c4.92,0,9.36,3.76,9.36,10.32c0,6.52-4.44,10.28-9.36,10.28
			C630.27,327.34,625.83,323.58,625.83,317.06z M639.79,317.06c0-3.96-1.76-6.56-4.64-6.56s-4.6,2.6-4.6,6.56
			c0,3.92,1.72,6.52,4.6,6.52S639.79,320.98,639.79,317.06z"/>
	</g>
	<g class="st9">
		<path class="st10" d="M648.87,320.22v-9.36h-2.8v-3.44l3.04-0.2l0.56-5.36h3.84v5.36h5v3.64h-5v9.36c0,2.32,0.88,3.44,2.76,3.44
			c0.68,0,1.48-0.2,2.04-0.44l0.8,3.4c-1.08,0.36-2.44,0.72-4,0.72C650.55,327.34,648.87,324.46,648.87,320.22z"/>
	</g>
	<g class="st9">
		<path class="st10" d="M660.75,321.58c0-4.2,3.48-6.4,11.56-7.28c-0.08-2.08-0.92-3.84-3.6-3.84c-1.92,0-3.76,0.88-5.52,1.92
			l-1.68-3.08c2.16-1.36,4.96-2.56,8.08-2.56c4.88,0,7.32,3,7.32,8.48v11.64h-3.8l-0.32-2.16h-0.16c-1.76,1.48-3.76,2.64-6.08,2.64
			C663.11,327.34,660.75,325.02,660.75,321.58z M672.31,321.58v-4.4c-5.36,0.68-7.12,2.08-7.12,4.04c0,1.76,1.2,2.52,2.84,2.52
			C669.63,323.74,670.83,322.94,672.31,321.58z"/>
	</g>
	<g class="st9">
		<path class="st10" d="M555.26,339.96h4.2c4.8,0,7.63,2.59,7.63,7.78c0,5.21-2.83,7.92-7.49,7.92h-4.34V339.96z M559.27,353.4
			c3.17,0,4.97-1.8,4.97-5.67c0-3.84-1.8-5.52-4.97-5.52h-1.22v11.19H559.27z"/>
		<path class="st10" d="M569.71,340.25c0-0.94,0.72-1.58,1.7-1.58s1.71,0.65,1.71,1.58c0,0.91-0.72,1.56-1.71,1.56
			S569.71,341.16,569.71,340.25z M570.02,343.88h2.76v11.79h-2.76V343.88z"/>
	</g>
	<g class="st9">
		<path class="st10" d="M575.13,354.32l1.3-1.78c1.06,0.82,2.06,1.32,3.26,1.32c1.27,0,1.87-0.6,1.87-1.42
			c0-0.98-1.27-1.42-2.52-1.9c-1.56-0.58-3.31-1.46-3.31-3.43c0-2.06,1.66-3.53,4.3-3.53c1.63,0,2.95,0.67,3.91,1.42l-1.27,1.68
			c-0.82-0.6-1.66-1.01-2.59-1.01c-1.18,0-1.73,0.55-1.73,1.3c0,0.94,1.18,1.3,2.45,1.75c1.61,0.6,3.38,1.37,3.38,3.58
			c0,2.02-1.61,3.65-4.58,3.65C577.98,355.95,576.28,355.25,575.13,354.32z"/>
	</g>
	<g class="st9">
		<path class="st10" d="M586.58,351.68v-5.62h-1.68V344l1.82-0.12l0.34-3.22h2.3v3.22h3v2.18h-3v5.62c0,1.39,0.53,2.06,1.66,2.06
			c0.41,0,0.89-0.12,1.22-0.26l0.48,2.04c-0.65,0.22-1.46,0.43-2.4,0.43C587.59,355.95,586.58,354.22,586.58,351.68z"/>
		<path class="st10" d="M594.84,343.88h2.28l0.19,2.09h0.1c0.84-1.54,2.09-2.38,3.34-2.38c0.6,0,0.98,0.07,1.34,0.24l-0.48,2.4
			c-0.41-0.12-0.72-0.19-1.22-0.19c-0.94,0-2.06,0.65-2.78,2.42v7.2h-2.76V343.88z"/>
		<path class="st10" d="M603.48,340.25c0-0.94,0.72-1.58,1.7-1.58s1.7,0.65,1.7,1.58c0,0.91-0.72,1.56-1.7,1.56
			S603.48,341.16,603.48,340.25z M603.79,343.88h2.76v11.79h-2.76V343.88z"/>
	</g>
	<g class="st9">
		<path class="st10" d="M609.3,349.78c0-3.94,2.76-6.19,5.91-6.19c1.51,0,2.59,0.58,3.46,1.32l-1.34,1.8
			c-0.62-0.55-1.22-0.86-1.97-0.86c-1.9,0-3.22,1.56-3.22,3.94c0,2.35,1.3,3.91,3.14,3.91c0.91,0,1.75-0.46,2.42-1.01l1.13,1.82
			c-1.1,0.96-2.5,1.44-3.84,1.44C611.78,355.95,609.3,353.69,609.3,349.78z"/>
	</g>
	<g class="st9">
		<path class="st10" d="M621.33,351.68v-5.62h-1.68V344l1.82-0.12l0.34-3.22h2.3v3.22h3v2.18h-3v5.62c0,1.39,0.53,2.06,1.66,2.06
			c0.41,0,0.89-0.12,1.22-0.26l0.48,2.04c-0.65,0.22-1.46,0.43-2.4,0.43C622.34,355.95,621.33,354.22,621.33,351.68z"/>
	</g>
</g>
<g id="Layer_4">
	<circle class="st11" cx="336.35" cy="369.04" r="29.28"/>
	<circle class="st12" cx="336.35" cy="369.04" r="9.02"/>
</g>
</svg>
