<svg xmlns="http://www.w3.org/2000/svg" viewBox="0 0 781.32 496.46"><defs><style>.cls-1{fill:#e6e6e6;}.cls-2,.cls-5,.cls-6,.cls-9{fill:none;}.cls-2{stroke:#f0f0f0;stroke-width:2.54px;}.cls-2,.cls-6,.cls-7,.cls-9{stroke-miterlimit:10;}.cls-3{fill:#f0f0f0;}.cls-4,.cls-8{fill:#007dbc;}.cls-4{opacity:0.8;}.cls-5{stroke:#0675af;stroke-linejoin:bevel;stroke-width:0.64px;}.cls-6,.cls-7{stroke:#fff;}.cls-6{stroke-width:3px;}.cls-7{fill:#fff;}.cls-8{opacity:0.8;}.cls-9{stroke:#007dbc;stroke-width:4px;}</style></defs><g id="Layer_1" data-name="Layer 1"><polyline class="cls-1" points="791.41 -19.27 791.41 518.88 -22.33 518.88 -22.33 -19.27"/></g><g id="Layer_2" data-name="Layer 2"><polygon class="cls-2" points="458.98 192 457.09 197.82 450.97 197.82 455.92 201.42 454.03 207.24 458.98 203.64 463.93 207.24 462.04 201.42 467 197.82 460.87 197.82 458.98 192"/><rect class="cls-3" x="410.26" y="208.23" width="97.24" height="19.56"/><polygon class="cls-4" points="474.76 88.02 477.44 85.63 477.01 76.67 478.1 70.01 473.48 60.84 473.81 52.67 470.6 48.44 458.55 57.11 456.77 51.38 459.57 48.08 459.49 42.73 421.77 40.48 417.85 44.39 416.91 56.87 411.96 56.53 407.99 59.21 409.4 65.73 407.57 70.32 411.51 85.45 409.11 87.91 474.76 88.02"/><polygon class="cls-5" points="474.76 88.02 477.44 85.63 477.01 76.67 478.1 70 473.48 60.84 473.81 52.67 470.6 48.44 458.55 57.1 456.77 51.38 459.57 48.08 459.49 42.73 421.77 40.49 417.85 44.39 416.91 56.87 411.96 56.53 407.99 59.21 409.4 65.72 407.57 70.32 411.51 85.45 409.11 87.91 474.76 88.02"/><polygon class="cls-4" points="564.87 269.01 567.08 267.82 579.54 268.47 591.38 277.61 592.8 281.77 600.57 285.4 603.93 291.62 612.92 295.03 612.96 290.57 617.85 285.83 622.64 276.36 628.44 269.12 633.75 265.75 640.17 258.78 639.45 255.53 643.08 243.1 653.64 230.56 652.76 227.94 649.66 225.76 639.56 229.91 633.27 231.14 617.69 226.69 617.58 225.37 607.5 225.83 605.4 223.04 599.18 222.97 595.05 216.55 590.44 216.23 585.96 225.27 576.87 232.19 579.27 238.49 577.14 240.81 564.87 269.01"/><polygon class="cls-5" points="564.87 269.01 567.08 267.81 579.54 268.47 591.38 277.61 592.8 281.77 600.57 285.4 603.93 291.62 612.91 295.03 612.96 290.57 617.85 285.83 622.64 276.36 628.44 269.12 633.75 265.75 640.17 258.77 639.44 255.53 643.08 243.1 653.64 230.55 652.76 227.94 649.66 225.76 639.56 229.91 633.27 231.14 617.69 226.69 617.58 225.37 607.5 225.83 605.4 223.04 599.18 222.97 595.05 216.55 590.44 216.23 585.96 225.27 576.87 232.19 579.27 238.49 577.14 240.81 564.87 269.01"/><polygon class="cls-4" points="366.63 119.13 372.77 121.89 384.01 123.97 390.44 127.51 400.65 135.24 402.09 139.69 408.43 133.49 415.37 132.9 415.42 122.24 416.19 113.77 411.86 108.05 411.87 101.76 408.67 98.53 411.99 96.25 409.11 87.91 411.51 85.45 408.74 81.75 401.96 81.24 396.85 78.86 392.56 80.68 390.06 77.08 382.73 75.35 374.62 85.76 369.98 107.4 366.63 119.13"/><polygon class="cls-5" points="366.63 119.13 372.77 121.89 384.01 123.97 390.44 127.51 400.65 135.24 402.08 139.69 408.43 133.49 415.37 132.89 415.42 122.24 416.19 113.77 411.86 108.05 411.87 101.76 408.67 98.53 411.99 96.25 409.11 87.91 411.51 85.45 408.74 81.75 401.96 81.24 396.85 78.86 392.56 80.68 390.06 77.08 382.73 75.35 374.62 85.75 369.98 107.4 366.63 119.13"/><polygon class="cls-4" points="506.21 235.52 509.59 243.49 515.95 249.05 520.06 244.95 522.2 239.48 532.03 239.3 531.45 232.2 545.69 229.68 547.42 227.31 561.04 218.45 562.62 218.34 588.42 202.2 586.16 199.59 576.31 194.02 573.34 199.4 568.41 199.48 555.97 207.11 555.07 199.9 547.72 201.23 545.93 195.77 543.01 195.18 539.93 189.58 530.5 189.44 521.92 185.18 522.08 177.51 510.75 186.92 506.66 186.96 504.99 191.18 508.38 195.66 504.28 199.52 506.72 205.29 504.64 211.84 506.57 214.81 504.71 220.64 508.63 227.36 506.21 235.52"/><polygon class="cls-5" points="506.21 235.52 509.59 243.49 515.95 249.05 520.06 244.94 522.2 239.48 532.03 239.3 531.45 232.2 545.69 229.68 547.42 227.31 561.05 218.45 562.62 218.34 588.42 202.2 586.16 199.59 576.31 194.02 573.34 199.4 568.41 199.48 555.97 207.11 555.07 199.9 547.72 201.23 545.93 195.77 543.01 195.18 539.93 189.58 530.5 189.44 521.92 185.18 522.08 177.51 510.75 186.92 506.66 186.96 504.99 191.18 508.38 195.66 504.28 199.52 506.72 205.29 504.64 211.84 506.57 214.81 504.71 220.64 508.63 227.35 506.21 235.52"/><polygon class="cls-4" points="333.51 92.87 336.98 97.85 340.6 98.44 346.01 107.28 355.54 111.54 362.43 119.49 366.63 119.13 369.98 107.4 374.62 85.76 382.73 75.35 377.84 72.57 373.38 58.35 364.32 37.83 325.65 36.18 324.54 83.04 333.51 92.87"/><polygon class="cls-5" points="333.51 92.86 336.98 97.85 340.6 98.44 346.01 107.28 355.54 111.54 362.43 119.49 366.63 119.13 369.98 107.4 374.62 85.75 382.73 75.35 377.84 72.57 373.38 58.35 364.32 37.83 325.65 36.18 324.54 83.04 333.51 92.86"/><polygon class="cls-4" points="349.18 205.78 362.04 203.91 364.78 215.27 368.58 218.78 389.51 225.86 398.59 217.3 409.85 190.1 402.28 189.4 391.18 180.59 380.72 175.08 374.41 177.91 366.53 175.96 364.8 182.07 358.33 189.97 356.2 195.26 349.18 205.78"/><polygon class="cls-5" points="349.17 205.78 362.04 203.91 364.78 215.27 368.58 218.77 389.51 225.86 398.59 217.3 409.85 190.1 402.28 189.4 391.18 180.59 380.71 175.08 374.42 177.91 366.53 175.96 364.8 182.07 358.33 189.96 356.2 195.26 349.17 205.78"/><polygon class="cls-4" points="424.89 173.56 429.33 177.95 427.61 180.6 432.04 187.26 440.83 187.41 448.75 192.57 452.25 198.12 457.26 200.76 461.32 209.98 461.85 216.91 463.27 219.57 472.6 225.95 476.84 225.69 482.56 230.79 492.48 231.37 506.21 235.52 508.63 227.36 504.71 220.64 506.57 214.81 504.64 211.84 506.72 205.29 504.28 199.52 508.38 195.66 504.99 191.18 506.66 186.96 495 191.14 480.06 176.78 477.99 175.64 482.94 163.82 467.54 166.12 452.43 171.35 442.75 170.46 443.07 176.71 431.77 169.19 427.39 167.83 424.89 173.56"/><polygon class="cls-5" points="424.89 173.56 429.33 177.95 427.61 180.6 432.04 187.26 440.83 187.41 448.75 192.57 452.25 198.12 457.26 200.76 461.32 209.98 461.85 216.91 463.27 219.56 472.6 225.95 476.84 225.69 482.56 230.78 492.48 231.37 506.21 235.52 508.63 227.35 504.71 220.64 506.57 214.81 504.64 211.84 506.72 205.29 504.28 199.52 508.38 195.66 504.99 191.18 506.66 186.96 495 191.14 480.05 176.78 477.99 175.64 482.94 163.82 467.54 166.12 452.43 171.34 442.75 170.46 443.07 176.71 431.77 169.18 427.39 167.83 424.89 173.56"/><polygon class="cls-4" points="255.05 115.2 260.89 108.49 295.03 88.2 296.16 86.96 293.49 75.75 291.61 74.45 289.25 61.14 282.88 62.16 283.29 54.52 285.36 53.02 269.39 55.03 265.23 56.65 263.63 53.86 261.33 51.44 248.58 55.55 243.56 64.39 246.51 67.18 248.78 90.53 250.46 93.5 248.28 98.8 253.34 101.23 255.05 115.2"/><polygon class="cls-5" points="255.05 115.2 260.89 108.49 295.03 88.19 296.16 86.95 293.49 75.74 291.62 74.45 289.25 61.14 282.88 62.16 283.29 54.52 285.36 53.02 269.39 55.03 265.23 56.65 263.63 53.86 261.33 51.44 248.58 55.55 243.56 64.39 246.51 67.17 248.78 90.53 250.46 93.5 248.29 98.8 253.34 101.22 255.05 115.2"/><polygon class="cls-4" points="438.05 276.74 441.86 280.66 454.68 285.73 470.03 295.2 480.64 304.04 481.63 308.72 486.11 312.34 519.49 291.02 521.55 298.4 528.06 301.4 535.43 301.46 536.69 298.7 540.49 300.55 547.46 295.7 549.39 283.34 551.19 283.33 551.23 276.23 545.07 275.79 536.27 278.03 531.82 275.94 524.33 268.2 523.38 263.01 520.23 260.65 518.54 263.38 513.91 259.71 507.31 261.69 509.87 263.31 505.7 268.74 507.22 272.6 501.82 272.52 497.87 265.63 485.01 254.46 476.66 252.34 470.08 253.82 469.59 249.08 467.15 251.58 458.39 240.46 442.07 247.84 421.06 269.89 429.66 271.32 438.05 276.74"/><polygon class="cls-5" points="438.05 276.74 441.86 280.65 454.68 285.72 470.03 295.2 480.64 304.04 481.63 308.72 486.11 312.34 519.49 291.02 521.55 298.4 528.06 301.4 535.43 301.45 536.69 298.69 540.49 300.55 547.46 295.7 549.39 283.34 551.19 283.32 551.23 276.22 545.07 275.79 536.27 278.03 531.83 275.94 524.33 268.2 523.38 263.01 520.23 260.65 518.54 263.38 513.91 259.71 507.31 261.69 509.87 263.31 505.7 268.74 507.22 272.6 501.82 272.52 497.87 265.63 485.01 254.46 476.66 252.34 470.08 253.82 469.59 249.07 467.15 251.58 458.39 240.46 442.06 247.84 421.06 269.89 429.66 271.31 438.05 276.74"/><polygon class="cls-4" points="198.72 106.4 208.1 113.21 209.45 115.92 217.46 117.32 225.25 127.1 231.15 132.99 237.87 134.97 255.05 115.2 253.34 101.23 248.28 98.8 250.46 93.5 248.78 90.53 246.51 67.18 243.56 64.39 248.58 55.55 224.71 63.19 222.58 71.76 219 73.07 214.24 79.24 209.47 80.24 206.6 88.02 204.36 87.48 200.34 92.67 200.02 97.67 197.12 102.42 198.72 106.4"/><polygon class="cls-5" points="198.72 106.4 208.1 113.21 209.45 115.91 217.46 117.32 225.25 127.1 231.15 132.99 237.87 134.97 255.05 115.2 253.34 101.22 248.29 98.8 250.46 93.5 248.78 90.53 246.51 67.17 243.56 64.39 248.58 55.55 224.71 63.19 222.58 71.76 219 73.07 214.24 79.23 209.47 80.24 206.6 88.02 204.36 87.48 200.34 92.67 200.03 97.67 197.12 102.42 198.72 106.4"/><polygon class="cls-4" points="364.8 182.07 366.53 175.96 374.41 177.91 380.72 175.08 391.18 180.59 402.28 189.4 409.85 190.1 419.28 189.61 413.78 182.81 417.57 176.26 424.89 173.56 427.39 167.83 424.18 162.85 415.58 138.45 415.37 132.9 408.43 133.49 402.09 139.69 400.65 135.24 390.44 127.51 383.61 138.47 380.15 140.68 374.65 150.67 368.64 153.62 361.91 159.56 360.15 166.9 356.34 172.81 362 180.71 364.8 182.07"/><polygon class="cls-5" points="364.8 182.07 366.53 175.96 374.42 177.91 380.71 175.08 391.18 180.59 402.28 189.4 409.85 190.1 419.28 189.61 413.78 182.81 417.57 176.26 424.89 173.56 427.39 167.83 424.18 162.85 415.58 138.45 415.37 132.89 408.43 133.49 402.08 139.69 400.65 135.24 390.44 127.51 383.61 138.47 380.15 140.67 374.65 150.67 368.64 153.62 361.91 159.56 360.15 166.9 356.34 172.81 362 180.71 364.8 182.07"/><polygon class="cls-4" points="286.25 206.6 292.08 209.15 294.14 212.6 302.28 219.13 303.91 218.79 316.15 227.74 322.11 234.27 327.87 250.86 335.01 256.31 337.07 255.48 339.31 250.41 331.31 242.69 329.43 238.12 330.56 232.56 337.22 223.71 332.62 216.69 332.5 210.2 344.8 206.94 345.01 202.82 333.05 202.37 327.45 203.48 322.39 197.99 315.47 204.43 313.13 191.81 298.9 192.33 295.37 189.46 290.1 190.73 282.85 198.68 286.25 206.6"/><polygon class="cls-5" points="286.25 206.6 292.08 209.15 294.14 212.6 302.28 219.13 303.91 218.79 316.15 227.74 322.11 234.27 327.87 250.86 335.01 256.3 337.07 255.47 339.31 250.41 331.31 242.69 329.43 238.12 330.56 232.55 337.22 223.71 332.62 216.69 332.5 210.2 344.8 206.94 345.01 202.82 333.05 202.37 327.45 203.48 322.39 197.99 315.47 204.43 313.13 191.81 298.9 192.32 295.37 189.46 290.1 190.73 282.85 198.67 286.25 206.6"/><polygon class="cls-4" points="595.61 127.75 597.93 134.03 602.38 132.63 603.07 129.61 607.86 133.86 604.74 136.52 604.59 140.8 608.58 146.61 612.06 145.78 611.12 151.3 615.09 158.84 617.85 159.82 638.6 115.5 613.11 90.22 584.57 89.96 584.84 95.65 588.62 99.15 590.86 105.49 601.47 116.34 598.56 117.14 595.61 127.75"/><polygon class="cls-5" points="595.61 127.75 597.92 134.03 602.38 132.63 603.07 129.61 607.86 133.85 604.74 136.52 604.59 140.8 608.58 146.61 612.06 145.78 611.12 151.3 615.09 158.83 617.85 159.82 638.6 115.5 613.11 90.22 584.57 89.96 584.84 95.65 588.62 99.14 590.86 105.49 601.47 116.34 598.56 117.14 595.61 127.75"/><polygon class="cls-4" points="652.76 227.94 657.49 239.25 661.63 242.06 667.98 240.64 660.06 225.79 659.66 215.19 656.02 214.1 651.18 204.58 655.3 196.16 661.49 192.75 661.25 188.18 666.22 182.4 666 179.54 674.37 171 675 165.89 669.88 161.26 665.26 165.64 654.96 163.75 646.48 159.47 635.12 161.18 627.57 169.1 624.82 175.46 631.16 187.12 629.74 190.87 631.67 195.39 631.03 201.38 633.75 207.26 645.43 217.85 647.84 221.98 653.13 223.65 652.76 227.94"/><polygon class="cls-5" points="652.76 227.94 657.49 239.25 661.63 242.06 667.98 240.64 660.06 225.79 659.66 215.19 656.02 214.1 651.18 204.58 655.3 196.16 661.49 192.75 661.24 188.18 666.22 182.4 666 179.54 674.37 171.01 675 165.88 669.88 161.26 665.26 165.64 654.96 163.75 646.48 159.46 635.12 161.18 627.57 169.1 624.82 175.46 631.16 187.12 629.74 190.87 631.67 195.38 631.03 201.38 633.75 207.25 645.43 217.85 647.84 221.98 653.13 223.65 652.76 227.94"/><polygon class="cls-4" points="398.59 217.3 406.37 226.73 411.14 228.2 416.65 237.26 421.62 237.52 431.88 241.97 442.07 247.84 467.86 236.46 470.76 232.62 461.66 230.38 459.16 235.28 456.63 235.03 458.96 218.16 461.85 216.91 461.32 209.98 457.26 200.76 452.25 198.12 448.75 192.57 440.83 187.41 432.04 187.26 427.61 180.6 429.33 177.95 424.89 173.56 417.57 176.26 413.78 182.81 419.28 189.61 409.85 190.1 398.59 217.3"/><polygon class="cls-5" points="398.59 217.3 406.37 226.73 411.14 228.2 416.65 237.26 421.62 237.52 431.88 241.97 442.06 247.84 467.86 236.46 470.76 232.62 461.66 230.38 459.16 235.28 456.63 235.03 458.96 218.16 461.85 216.91 461.32 209.98 457.26 200.76 452.25 198.12 448.75 192.57 440.83 187.41 432.04 187.26 427.61 180.6 429.33 177.95 424.89 173.56 417.57 176.26 413.78 182.81 419.28 189.61 409.85 190.1 398.59 217.3"/><polygon class="cls-4" points="576.31 194.02 572.77 190.07 568.14 188.82 561.87 183.52 558.43 178.49 563.63 173.65 563.74 169.32 561.06 161.66 556.58 155.95 556.33 150.48 548.85 156.19 543.71 150.77 535.22 154.14 536.43 159.07 528.67 160.33 527.64 169.54 522.08 177.51 521.92 185.18 530.5 189.44 539.93 189.58 543.01 195.18 545.93 195.77 547.72 201.23 555.07 199.9 555.97 207.11 568.41 199.48 573.34 199.4 576.31 194.02"/><polygon class="cls-5" points="576.31 194.02 572.76 190.07 568.14 188.81 561.87 183.51 558.43 178.49 563.63 173.64 563.74 169.32 561.06 161.66 556.58 155.94 556.33 150.48 548.85 156.19 543.72 150.77 535.22 154.14 536.43 159.07 528.67 160.33 527.64 169.54 522.08 177.51 521.92 185.18 530.5 189.44 539.93 189.58 543.01 195.18 545.93 195.77 547.72 201.23 555.07 199.9 555.97 207.11 568.41 199.48 573.34 199.4 576.31 194.02"/><polygon class="cls-4" points="314.58 134.32 314.53 136.3 322.25 144.51 329.98 151.59 330.96 155.34 340.64 159.66 349.31 167.56 352.56 168.02 356.34 172.81 360.15 166.9 361.91 159.56 368.64 153.62 374.65 150.67 380.15 140.68 383.61 138.47 390.44 127.51 384.01 123.97 372.77 121.89 366.63 119.13 362.43 119.49 355.54 111.54 346.01 107.28 340.6 98.44 336.98 97.85 333.51 92.87 323.18 120.18 323.42 127.18 314.58 134.32"/><polygon class="cls-5" points="314.58 134.32 314.54 136.3 322.25 144.51 329.98 151.59 330.96 155.34 340.64 159.66 349.31 167.55 352.56 168.02 356.34 172.81 360.15 166.9 361.91 159.56 368.64 153.62 374.65 150.67 380.15 140.67 383.61 138.47 390.44 127.51 384.01 123.97 372.77 121.89 366.63 119.13 362.43 119.49 355.54 111.54 346.01 107.28 340.6 98.44 336.98 97.85 333.51 92.86 323.18 120.17 323.42 127.18 314.58 134.32"/><polygon class="cls-4" points="474.76 88.02 477.26 92.52 479.05 105.22 475.86 108.96 474.96 114.02 477.1 126.21 474.87 133.27 476.91 137.92 492.29 126.65 492.61 134.82 498.42 130.03 501.89 135.06 508.97 131.84 511.2 133.58 517.11 130.78 514.09 123.87 530.17 116.36 526.92 110.07 521.09 103.96 521.19 101.61 512.79 88.46 486.15 88.14 487.91 72.14 473.81 52.67 473.48 60.84 478.1 70.01 477.01 76.67 477.44 85.63 474.76 88.02"/><polygon class="cls-5" points="474.76 88.02 477.26 92.52 479.05 105.21 475.86 108.96 474.96 114.02 477.1 126.21 474.87 133.26 476.91 137.92 492.28 126.64 492.61 134.81 498.42 130.03 501.89 135.06 508.97 131.84 511.2 133.58 517.11 130.78 514.09 123.87 530.17 116.35 526.92 110.07 521.09 103.96 521.19 101.61 512.79 88.46 486.15 88.14 487.91 72.14 473.81 52.67 473.48 60.84 478.1 70 477.01 76.67 477.44 85.63 474.76 88.02"/><polygon class="cls-4" points="482.94 163.82 477.99 175.64 480.06 176.78 495 191.14 506.66 186.96 510.75 186.92 522.08 177.51 527.64 169.54 528.67 160.33 536.43 159.07 535.22 154.14 543.71 150.77 539.43 140.8 539 130.81 534.26 125.69 533.45 120.42 530.17 116.36 514.09 123.87 517.11 130.78 511.2 133.58 508.97 131.84 501.89 135.06 498.42 130.03 492.61 134.82 492.29 126.65 476.91 137.92 482.96 144.21 486.61 144.02 489.27 148.99 482.94 163.82"/><polygon class="cls-5" points="482.94 163.82 477.99 175.64 480.05 176.78 495 191.14 506.66 186.96 510.75 186.92 522.08 177.51 527.64 169.54 528.67 160.33 536.43 159.07 535.22 154.14 543.72 150.77 539.43 140.8 539 130.81 534.26 125.69 533.45 120.42 530.17 116.35 514.09 123.87 517.11 130.78 511.2 133.58 508.97 131.84 501.89 135.06 498.42 130.03 492.61 134.81 492.28 126.64 476.91 137.92 482.96 144.21 486.61 144.02 489.28 148.98 482.94 163.82"/><polygon class="cls-4" points="431.41 395.92 431.62 398.63 442.08 408.47 439.67 411.96 444.27 422.38 448.53 424.67 449.61 432.25 445.66 437.51 446.92 440.14 449.31 443.49 449.99 454.67 455.66 458.3 462.48 456.86 471.52 464.81 475.6 465.73 473.99 457.82 467.6 453.5 469.08 448.02 463.9 444.02 461.41 437.74 464.3 434.97 462.52 429.45 470.62 430.23 471.89 423.28 477.09 424.14 477.52 421.04 482.57 415.35 480.47 413 482.71 408.49 482.31 390.95 477.99 381.88 474.29 387.16 467.92 384.36 469.37 378.33 461.59 369.49 431.41 395.92"/><polygon class="cls-5" points="431.41 395.92 431.63 398.63 442.08 408.47 439.67 411.96 444.27 422.38 448.53 424.67 449.61 432.25 445.66 437.51 446.92 440.14 449.31 443.48 449.99 454.67 455.66 458.3 462.48 456.86 471.53 464.81 475.6 465.72 473.99 457.82 467.6 453.49 469.08 448.01 463.9 444.02 461.41 437.73 464.3 434.96 462.52 429.45 470.62 430.23 471.89 423.28 477.09 424.14 477.52 421.04 482.57 415.35 480.47 413 482.71 408.49 482.31 390.95 477.99 381.88 474.29 387.16 467.92 384.35 469.36 378.33 461.59 369.48 431.41 395.92"/><polygon class="cls-4" points="689.36 258.8 707.32 238.51 725.47 225.97 740.21 221.21 737.6 216.88 681.45 159.66 675 165.89 674.37 171 666 179.54 666.22 182.4 661.25 188.18 661.49 192.75 655.3 196.16 651.18 204.58 656.02 214.1 659.66 215.19 660.06 225.79 667.98 240.64 673.93 246.31 678.11 258.84 689.36 258.8"/><polygon class="cls-5" points="689.36 258.8 707.32 238.51 725.47 225.97 740.21 221.21 737.6 216.88 681.45 159.66 675 165.88 674.37 171.01 666 179.54 666.22 182.4 661.24 188.18 661.49 192.75 655.3 196.16 651.18 204.58 656.02 214.1 659.66 215.19 660.06 225.79 667.98 240.64 673.93 246.3 678.11 258.84 689.36 258.8"/><polygon class="cls-4" points="419.21 390.68 426.78 395.49 431.41 395.92 461.59 369.49 469.37 378.33 467.92 384.36 474.29 387.16 477.99 381.88 482.89 376.05 480.76 373.93 474.57 358.84 464.82 349.64 460.95 341.06 453.9 332.67 436.43 344.29 436.35 348.81 431.94 350.77 433.64 357.91 426.01 364.68 424.95 367.42 417.42 370.58 414.93 376.49 418.78 383.15 415.88 386.12 419.21 390.68"/><polygon class="cls-5" points="419.21 390.68 426.78 395.49 431.41 395.92 461.59 369.48 469.36 378.33 467.92 384.35 474.29 387.16 477.99 381.88 482.89 376.05 480.76 373.92 474.57 358.84 464.82 349.64 460.95 341.05 453.9 332.67 436.43 344.29 436.35 348.81 431.94 350.77 433.64 357.91 426.01 364.68 424.95 367.41 417.42 370.57 414.93 376.49 418.79 383.14 415.88 386.11 419.21 390.68"/><polygon class="cls-4" points="344.8 206.94 349.18 205.78 356.2 195.26 358.33 189.97 364.8 182.07 362 180.71 352.56 168.02 349.31 167.56 340.64 159.66 330.96 155.34 329.98 151.59 322.25 144.51 312.31 153.71 314.92 156.75 315.31 162.63 322.09 170.55 322.92 178.29 319.89 185.76 313.13 191.81 315.47 204.43 322.39 197.99 327.45 203.48 333.05 202.37 345.01 202.82 344.8 206.94"/><polygon class="cls-5" points="344.8 206.94 349.17 205.78 356.2 195.26 358.33 189.96 364.8 182.07 362 180.71 352.56 168.02 349.31 167.55 340.64 159.66 330.96 155.34 329.98 151.59 322.25 144.51 312.31 153.71 314.92 156.75 315.31 162.63 322.09 170.55 322.92 178.29 319.88 185.76 313.13 191.81 315.47 204.43 322.39 197.99 327.45 203.48 333.05 202.37 345.01 202.82 344.8 206.94"/><polygon class="cls-4" points="295.03 88.2 299 94.25 297.47 103.83 298.88 115.12 301.66 118.53 302.63 124.28 314.58 134.32 323.42 127.18 323.18 120.18 333.51 92.87 324.54 83.04 325.65 36.18 319.01 35.61 310.11 36.9 306.67 34.17 302.87 35.61 300.94 40.02 298.12 38.66 285.07 43.17 280.75 43.97 263.63 53.86 265.23 56.65 269.39 55.03 285.36 53.02 283.29 54.52 282.88 62.16 289.25 61.14 291.61 74.45 293.49 75.75 296.16 86.96 295.03 88.2"/><polygon class="cls-5" points="295.03 88.19 299 94.24 297.48 103.83 298.88 115.12 301.66 118.53 302.63 124.28 314.58 134.32 323.42 127.18 323.18 120.17 333.51 92.86 324.54 83.04 325.65 36.18 319.01 35.61 310.11 36.9 306.67 34.17 302.87 35.61 300.94 40.01 298.12 38.66 285.07 43.17 280.75 43.97 263.63 53.86 265.23 56.65 269.39 55.03 285.36 53.02 283.29 54.52 282.88 62.16 289.25 61.14 291.62 74.45 293.49 75.74 296.16 86.95 295.03 88.19"/><polygon class="cls-4" points="612.92 295.03 633.62 304.35 638.97 307.39 647.98 314.3 662.27 318.02 667.98 312.9 665.34 303 656.38 296.14 666.27 295.72 678.09 273.89 689.36 258.8 678.11 258.84 673.93 246.31 667.98 240.64 661.63 242.06 657.49 239.25 653.64 230.56 643.08 243.1 639.45 255.53 640.17 258.78 633.75 265.75 628.44 269.12 622.64 276.36 617.85 285.83 612.96 290.57 612.92 295.03"/><polygon class="cls-4" points="670.91 292.79 666.81 300.06 669.12 308.37 670.91 292.79"/><polygon class="cls-5" points="612.91 295.03 633.62 304.35 638.97 307.39 647.98 314.3 662.27 318.02 667.98 312.89 665.34 303 656.38 296.14 666.27 295.72 678.09 273.89 689.36 258.8 678.11 258.84 673.93 246.3 667.98 240.64 661.63 242.06 657.49 239.25 653.64 230.55 643.08 243.1 639.44 255.53 640.17 258.77 633.75 265.75 628.44 269.12 622.64 276.36 617.85 285.83 612.96 290.57 612.91 295.03"/><polygon class="cls-5" points="670.91 292.79 666.81 300.06 669.12 308.37 670.91 292.79"/><polygon class="cls-4" points="568.14 188.82 572.77 190.07 576.31 194.02 586.16 199.59 588.42 202.2 579.25 207.86 582.89 216.24 590.44 216.23 595.05 216.55 599.18 222.97 605.4 223.04 607.5 225.83 617.58 225.37 617.69 226.69 633.27 231.14 639.56 229.91 649.66 225.76 652.76 227.94 653.13 223.65 647.84 221.98 645.43 217.85 633.75 207.26 631.03 201.38 631.67 195.39 629.74 190.87 631.16 187.12 624.82 175.46 627.57 169.1 621.51 160.84 615.09 158.84 612.06 161.66 606.97 160.21 604.73 167.06 597.98 166.06 568.14 188.82"/><polygon class="cls-5" points="568.14 188.81 572.76 190.07 576.31 194.02 586.16 199.59 588.42 202.2 579.25 207.86 582.89 216.24 590.44 216.23 595.05 216.55 599.18 222.97 605.4 223.04 607.5 225.83 617.58 225.37 617.69 226.69 633.27 231.14 639.56 229.91 649.66 225.76 652.76 227.94 653.13 223.65 647.84 221.98 645.43 217.85 633.75 207.25 631.03 201.38 631.67 195.38 629.74 190.87 631.16 187.12 624.82 175.46 627.57 169.1 621.51 160.83 615.09 158.83 612.06 161.66 606.97 160.21 604.72 167.06 597.98 166.06 568.14 188.81"/><polygon class="cls-4" points="415.37 132.9 415.58 138.45 424.18 162.85 427.39 167.83 431.77 169.19 443.07 176.71 442.75 170.46 452.43 171.35 467.54 166.12 482.94 163.82 489.27 148.99 486.61 144.02 482.96 144.21 476.91 137.92 474.87 133.27 477.1 126.21 415.42 122.24 415.37 132.9"/><polygon class="cls-5" points="415.37 132.89 415.58 138.45 424.18 162.85 427.39 167.83 431.77 169.18 443.07 176.71 442.75 170.46 452.43 171.34 467.54 166.12 482.94 163.82 489.28 148.98 486.61 144.02 482.96 144.21 476.91 137.92 474.87 133.26 477.1 126.21 415.42 122.24 415.37 132.89"/><polygon class="cls-4" points="337.07 255.48 346.92 262.5 348.7 264.22 389.51 225.86 368.58 218.78 364.78 215.27 362.04 203.91 349.18 205.78 332.5 210.2 332.62 216.69 337.22 223.71 330.56 232.56 329.43 238.12 331.31 242.69 339.31 250.41 337.07 255.48"/><polygon class="cls-5" points="337.07 255.47 346.92 262.5 348.7 264.22 389.51 225.86 368.58 218.77 364.78 215.27 362.04 203.91 349.17 205.78 332.5 210.2 332.62 216.69 337.22 223.71 330.56 232.55 329.43 238.12 331.31 242.69 339.31 250.41 337.07 255.47"/><polygon class="cls-4" points="486.97 311.81 496.83 315.64 500.53 322.25 505.8 327.2 510.93 328.5 516.19 326.82 522.66 327.54 532.5 331.8 529 340.64 532.31 351.26 530.98 355.3 541.04 356.27 558.47 360.75 558.27 353 564.71 350.57 567.45 345.98 557.36 335.96 559.47 333.3 540.01 315.65 542.71 311.68 538.95 309.44 535.43 301.46 528.06 301.4 521.55 298.4 519.49 291.02 486.97 311.81"/><polygon class="cls-5" points="486.97 311.81 496.83 315.64 500.53 322.24 505.8 327.2 510.93 328.5 516.19 326.82 522.66 327.54 532.5 331.8 529 340.63 532.31 351.26 530.98 355.3 541.04 356.27 558.47 360.75 558.27 353 564.71 350.57 567.45 345.98 557.36 335.96 559.47 333.3 540.01 315.65 542.71 311.68 538.95 309.43 535.43 301.45 528.06 301.4 521.55 298.4 519.49 291.02 486.97 311.81"/><polygon class="cls-4" points="617.85 159.82 621.51 160.84 627.57 169.1 635.12 161.18 646.48 159.47 654.96 163.75 665.26 165.64 669.88 161.26 675 165.89 681.45 159.66 638.6 115.5 617.85 159.82"/><polygon class="cls-5" points="617.85 159.82 621.51 160.83 627.57 169.1 635.12 161.18 646.48 159.46 654.96 163.75 665.26 165.64 669.88 161.26 675 165.88 681.45 159.66 638.6 115.5 617.85 159.82"/><polygon class="cls-4" points="543.71 150.77 548.85 156.19 556.33 150.48 556.58 155.95 561.06 161.66 563.74 169.32 563.63 173.65 558.43 178.49 561.87 183.52 568.14 188.82 597.98 166.06 604.73 167.06 606.97 160.21 612.06 161.66 615.09 158.84 611.12 151.3 612.06 145.78 608.58 146.61 604.59 140.8 604.74 136.52 607.86 133.86 603.07 129.61 602.38 132.63 597.93 134.03 595.61 127.75 589.45 133.31 580.31 133.81 578.57 131.96 571.22 133.17 543.73 150.48 543.71 150.77"/><polygon class="cls-5" points="543.72 150.77 548.85 156.19 556.33 150.48 556.58 155.94 561.06 161.66 563.74 169.32 563.63 173.64 558.43 178.49 561.87 183.51 568.14 188.81 597.98 166.06 604.72 167.06 606.97 160.21 612.06 161.66 615.09 158.83 611.12 151.3 612.06 145.78 608.58 146.61 604.59 140.8 604.74 136.52 607.86 133.85 603.07 129.61 602.38 132.63 597.92 134.03 595.61 127.75 589.45 133.3 580.31 133.81 578.57 131.96 571.22 133.17 543.73 150.48 543.72 150.77"/><polygon class="cls-4" points="537.32 403.87 548.03 399.33 543.55 399.88 537.32 403.87"/><polygon class="cls-4" points="453.9 332.67 460.95 341.06 464.82 349.64 474.57 358.84 480.76 373.93 482.89 376.05 488.9 379.77 495 379.37 501.63 385.51 506.13 392.59 513.98 394.65 518.21 401.62 529.58 407.5 536.45 403.42 529.24 397.27 532.4 393.49 531.68 387.49 528 387.07 532.25 383.63 528.74 380.3 528.52 374.64 525.91 372.93 527.08 364.87 530.27 361.68 530.98 355.3 532.31 351.26 529 340.64 532.5 331.8 522.66 327.54 516.19 326.82 510.93 328.5 505.8 327.2 500.53 322.25 496.83 315.64 486.97 311.81 475.08 319.31 477.19 323.62 473.89 328.11 470.35 322.38 453.9 332.67"/><polygon class="cls-5" points="537.32 403.87 548.03 399.32 543.55 399.88 537.32 403.87"/><polygon class="cls-5" points="453.9 332.67 460.95 341.05 464.82 349.64 474.57 358.84 480.76 373.92 482.89 376.05 488.9 379.77 495 379.37 501.63 385.51 506.13 392.59 513.98 394.65 518.21 401.62 529.58 407.49 536.45 403.42 529.24 397.27 532.4 393.49 531.68 387.48 528 387.07 532.25 383.63 528.74 380.3 528.52 374.63 525.91 372.93 527.08 364.87 530.27 361.68 530.98 355.3 532.31 351.26 529 340.63 532.5 331.8 522.66 327.54 516.19 326.82 510.93 328.5 505.8 327.2 500.53 322.24 496.83 315.64 486.97 311.81 475.08 319.31 477.19 323.62 473.89 328.1 470.35 322.38 453.9 332.67"/><polygon class="cls-4" points="515.95 249.05 515.24 251.21 520.23 260.65 523.38 263.01 524.33 268.2 531.82 275.94 536.27 278.03 545.07 275.79 551.23 276.23 559.33 275.62 559.18 271.49 564.87 269.01 577.14 240.81 579.27 238.49 576.87 232.19 585.96 225.27 590.44 216.23 582.89 216.24 579.25 207.86 562.62 218.34 561.04 218.45 547.42 227.31 545.69 229.68 531.45 232.2 532.03 239.3 522.2 239.48 520.06 244.95 515.95 249.05"/><polygon class="cls-5" points="515.95 249.05 515.24 251.21 520.23 260.65 523.38 263.01 524.33 268.2 531.83 275.94 536.27 278.03 545.07 275.79 551.23 276.22 559.33 275.61 559.18 271.49 564.87 269.01 577.14 240.81 579.27 238.49 576.87 232.19 585.96 225.27 590.44 216.23 582.89 216.24 579.25 207.86 562.62 218.34 561.05 218.45 547.42 227.31 545.69 229.68 531.45 232.2 532.03 239.3 522.2 239.48 520.06 244.94 515.95 249.05"/><polygon class="cls-4" points="530.17 116.36 533.45 120.42 534.26 125.69 539 130.81 539.43 140.8 543.73 150.48 571.22 133.17 578.57 131.96 580.31 133.81 589.45 133.31 595.61 127.75 598.56 117.14 601.47 116.34 590.86 105.49 588.62 99.15 584.84 95.65 584.57 89.96 512.79 88.46 521.19 101.61 521.09 103.96 526.92 110.07 530.17 116.36"/><polygon class="cls-5" points="530.17 116.35 533.45 120.42 534.26 125.69 539 130.81 539.43 140.8 543.73 150.48 571.22 133.17 578.57 131.96 580.31 133.81 589.45 133.3 595.61 127.75 598.56 117.14 601.47 116.34 590.86 105.49 588.62 99.14 584.84 95.65 584.57 89.96 512.79 88.46 521.19 101.61 521.09 103.96 526.92 110.07 530.17 116.35"/><polygon class="cls-4" points="409.11 87.91 411.99 96.25 408.67 98.53 411.87 101.76 411.86 108.05 416.19 113.77 415.42 122.24 477.1 126.21 474.96 114.02 475.86 108.96 479.05 105.22 477.26 92.52 474.76 88.02 409.11 87.91"/><polygon class="cls-5" points="409.11 87.91 411.99 96.25 408.67 98.53 411.87 101.76 411.86 108.05 416.19 113.77 415.42 122.24 477.1 126.21 474.96 114.02 475.86 108.96 479.05 105.21 477.26 92.52 474.76 88.02 409.11 87.91"/><polygon class="cls-4" points="382.73 75.35 390.06 77.08 392.56 80.68 396.85 78.86 401.96 81.24 408.74 81.75 411.51 85.45 407.57 70.32 409.4 65.73 407.99 59.21 411.96 56.53 416.91 56.87 417.85 44.39 421.77 40.48 364.32 37.83 373.38 58.35 377.84 72.57 382.73 75.35"/><polygon class="cls-5" points="382.73 75.35 390.06 77.08 392.56 80.68 396.85 78.86 401.96 81.24 408.74 81.75 411.51 85.45 407.57 70.32 409.4 65.72 407.99 59.21 411.96 56.53 416.91 56.87 417.85 44.39 421.77 40.49 364.32 37.83 373.38 58.35 377.84 72.57 382.73 75.35"/><polygon class="cls-4" points="657.15 317.57 647.98 314.3 638.97 307.39 635.52 308.03 630.8 316.23 627.23 315.18 616.83 319.41 614.7 324.11 602.95 337.86 603.15 342.11 595.36 347.12 588.3 355.7 586.76 365.06 592.97 369.47 608.37 361.36 601.18 358.69 624.23 348.61 619.58 343.77 623.92 335.31 647.99 334.8 648.44 325.8 657.15 317.57"/><polygon class="cls-4" points="536.45 403.42 537.32 403.87 543.55 399.88 548.03 399.33 562.64 391.34 573.71 388.69 586.4 381.13 591.19 372.26 584.43 367.33 580.59 350.95 581.99 348.33 575.01 349.7 570.17 336.27 565.43 337.75 559.47 333.3 557.36 335.96 567.45 345.98 564.71 350.57 558.27 353 558.47 360.75 541.04 356.27 530.98 355.3 530.27 361.68 527.08 364.87 525.91 372.93 528.52 374.64 528.74 380.3 532.25 383.63 528 387.07 531.68 387.49 532.4 393.49 529.24 397.27 536.45 403.42"/><polygon class="cls-5" points="657.15 317.57 647.98 314.3 638.97 307.39 635.52 308.03 630.8 316.23 627.23 315.18 616.83 319.41 614.7 324.11 602.95 337.86 603.15 342.11 595.36 347.12 588.3 355.7 586.76 365.06 592.97 369.47 608.37 361.36 601.18 358.69 624.23 348.6 619.58 343.77 623.92 335.31 647.99 334.8 648.44 325.79 657.15 317.57"/><polygon class="cls-5" points="536.45 403.42 537.32 403.87 543.55 399.88 548.03 399.32 562.64 391.34 573.71 388.69 586.4 381.13 591.2 372.26 584.43 367.33 580.59 350.95 581.99 348.33 575 349.7 570.17 336.27 565.43 337.75 559.47 333.3 557.36 335.96 567.45 345.98 564.71 350.57 558.27 353 558.47 360.75 541.04 356.27 530.98 355.3 530.27 361.68 527.08 364.87 525.91 372.93 528.52 374.63 528.74 380.3 532.25 383.63 528 387.07 531.68 387.48 532.4 393.49 529.24 397.27 536.45 403.42"/><polygon class="cls-4" points="520.23 260.65 515.24 251.21 515.95 249.05 509.59 243.49 506.21 235.52 492.48 231.37 482.56 230.79 476.84 225.69 472.6 225.95 463.27 219.57 461.85 216.91 458.96 218.16 456.63 235.03 459.16 235.28 461.66 230.38 470.76 232.62 467.86 236.46 458.39 240.46 467.15 251.58 469.59 249.08 470.08 253.82 476.66 252.34 485.01 254.46 497.87 265.63 501.82 272.52 507.22 272.6 505.7 268.74 509.87 263.31 507.31 261.69 513.91 259.71 518.54 263.38 520.23 260.65"/><polygon class="cls-5" points="520.23 260.65 515.24 251.21 515.95 249.05 509.59 243.49 506.21 235.52 492.48 231.37 482.56 230.78 476.84 225.69 472.6 225.95 463.27 219.56 461.85 216.91 458.96 218.16 456.63 235.03 459.16 235.28 461.66 230.38 470.76 232.62 467.86 236.46 458.39 240.46 467.15 251.58 469.59 249.07 470.08 253.82 476.66 252.34 485.01 254.46 497.87 265.63 501.82 272.52 507.22 272.6 505.7 268.74 509.87 263.31 507.31 261.69 513.91 259.71 518.54 263.38 520.23 260.65"/><polygon class="cls-4" points="559.47 333.3 565.43 337.75 570.17 336.27 575.01 349.7 581.99 348.33 580.59 350.95 584.96 360.15 595.36 347.12 603.15 342.11 602.95 337.86 614.7 324.11 616.83 319.41 627.23 315.18 630.8 316.23 635.52 308.03 638.97 307.39 633.62 304.35 612.92 295.03 603.93 291.62 600.57 285.4 592.8 281.77 591.38 277.61 579.54 268.47 567.08 267.82 559.18 271.49 559.33 275.62 551.23 276.23 551.19 283.33 549.39 283.34 547.46 295.7 540.49 300.55 536.69 298.7 535.43 301.46 538.95 309.44 542.71 311.68 540.01 315.65 559.47 333.3"/><polygon class="cls-5" points="559.47 333.3 565.43 337.75 570.17 336.27 575 349.7 581.99 348.33 580.59 350.95 584.96 360.15 595.36 347.12 603.15 342.11 602.95 337.86 614.7 324.11 616.83 319.41 627.23 315.18 630.8 316.23 635.52 308.03 638.97 307.39 633.62 304.35 612.91 295.03 603.93 291.62 600.57 285.4 592.8 281.77 591.38 277.61 579.54 268.47 567.08 267.81 559.18 271.49 559.33 275.61 551.23 276.22 551.19 283.32 549.39 283.34 547.46 295.7 540.49 300.55 536.69 298.69 535.43 301.45 538.95 309.43 542.71 311.68 540.01 315.65 559.47 333.3"/><polygon class="cls-4" points="482.67 403.12 490.46 421.37 504.67 436.18 525.08 427.2 528.23 416.58 513.63 409.26 510 403.5 518.21 401.62 513.98 394.65 506.13 392.59 501.63 385.51 495 379.37 488.9 379.77 482.89 376.05 477.99 381.88 482.31 390.95 482.67 403.12"/><polygon class="cls-4" points="482.71 408.49 480.47 413 482.57 415.35 477.52 421.04 477.09 424.14 471.89 423.28 470.62 430.23 462.52 429.45 464.3 434.97 461.41 437.74 463.9 444.02 469.08 448.02 467.6 453.5 473.99 457.82 487.08 445.05 484.46 455.73 492.57 450.93 500.35 439.63 487.39 427.62 482.71 408.49"/><polygon class="cls-5" points="482.67 403.12 490.46 421.36 504.67 436.18 525.08 427.2 528.23 416.58 513.63 409.26 510 403.5 518.21 401.62 513.98 394.65 506.13 392.59 501.63 385.51 495 379.37 488.9 379.77 482.89 376.05 477.99 381.88 482.31 390.95 482.67 403.12"/><polygon class="cls-5" points="482.71 408.49 480.47 413 482.57 415.35 477.52 421.04 477.09 424.14 471.89 423.28 470.62 430.23 462.52 429.45 464.3 434.96 461.41 437.73 463.9 444.02 469.08 448.01 467.6 453.49 473.99 457.82 487.08 445.05 484.46 455.73 492.57 450.93 500.35 439.63 487.39 427.62 482.71 408.49"/><polygon class="cls-4" points="393.78 323.37 401.94 314.86 421.96 321.64 441.4 320.21 437.47 314.53 439.13 282.43 438.05 276.74 429.66 271.32 421.06 269.89 377.61 309.48 376.96 314.79 383.53 320.5 393.78 323.37"/><polygon class="cls-5" points="393.78 323.36 401.94 314.85 421.96 321.64 441.4 320.2 437.47 314.53 439.12 282.43 438.05 276.74 429.66 271.31 421.06 269.89 377.6 309.47 376.96 314.79 383.53 320.5 393.78 323.36"/><polygon class="cls-4" points="438.05 276.74 439.13 282.43 437.47 314.53 441.4 320.21 449.13 329.02 453.9 332.67 470.35 322.38 473.89 328.11 477.19 323.62 475.08 319.31 486.11 312.34 481.63 308.72 480.64 304.04 470.03 295.2 454.68 285.73 441.86 280.66 438.05 276.74"/><polygon class="cls-5" points="438.05 276.74 439.12 282.43 437.47 314.53 441.4 320.2 449.13 329.02 453.9 332.67 470.35 322.38 473.89 328.1 477.19 323.62 475.08 319.31 486.11 312.34 481.63 308.72 480.64 304.04 470.03 295.2 454.68 285.72 441.86 280.65 438.05 276.74"/><polygon class="cls-4" points="237.87 134.97 247.95 134.03 252.79 138.08 255.69 150.62 260.24 154.01 262.54 160.99 265.63 164.12 266.28 172.02 314.58 134.32 302.63 124.28 301.66 118.53 298.88 115.12 297.47 103.83 299 94.25 295.03 88.2 260.89 108.49 237.87 134.97"/><polygon class="cls-5" points="237.87 134.97 247.95 134.03 252.79 138.08 255.69 150.61 260.24 154.01 262.54 160.98 265.63 164.12 266.29 172.02 314.58 134.32 302.63 124.28 301.66 118.53 298.88 115.12 297.48 103.83 299 94.24 295.03 88.19 260.89 108.49 237.87 134.97"/><polygon class="cls-4" points="401.95 330.06 407.6 335.32 406.37 344.49 409.01 352.26 414.99 357.68 415.36 366.07 417.42 370.58 424.95 367.42 426.01 364.68 433.64 357.91 431.94 350.77 436.35 348.81 436.43 344.29 453.9 332.67 449.13 329.02 441.4 320.21 421.96 321.64 401.94 314.86 393.78 323.37 394.99 326.09 401.95 330.06"/><polygon class="cls-5" points="401.95 330.06 407.6 335.32 406.37 344.5 409.01 352.25 414.99 357.68 415.36 366.07 417.42 370.57 424.95 367.41 426.01 364.68 433.64 357.91 431.94 350.77 436.35 348.81 436.43 344.29 453.9 332.67 449.13 329.02 441.4 320.2 421.96 321.64 401.94 314.85 393.78 323.36 394.99 326.09 401.95 330.06"/><polygon class="cls-4" points="366.85 302.8 372.15 307.68 377.61 309.48 421.06 269.89 442.07 247.84 431.88 241.97 421.62 237.52 416.65 237.26 411.14 228.2 406.37 226.73 398.59 217.3 348.7 264.22 351.71 270.42 357.57 272.89 360.27 280.17 356.39 281.65 356.21 286.77 368.72 299.54 366.85 302.8"/><polygon class="cls-5" points="366.85 302.79 372.15 307.68 377.6 309.47 421.06 269.89 442.06 247.84 431.88 241.97 421.62 237.52 416.65 237.26 411.14 228.2 406.37 226.73 398.59 217.3 348.7 264.22 351.71 270.42 357.57 272.89 360.27 280.17 356.39 281.65 356.21 286.77 368.73 299.53 366.85 302.79"/><polygon class="cls-4" points="282.85 198.68 290.1 190.73 295.37 189.46 298.9 192.33 313.13 191.81 319.89 185.76 322.92 178.29 322.09 170.55 315.31 162.63 314.92 156.75 312.31 153.71 322.25 144.51 314.53 136.3 314.58 134.32 266.28 172.02 268.94 180 273.73 182.83 277.54 191.15 282.85 198.68"/><polygon class="cls-5" points="282.85 198.67 290.1 190.73 295.37 189.46 298.9 192.32 313.13 191.81 319.88 185.76 322.92 178.29 322.09 170.55 315.31 162.63 314.92 156.75 312.31 153.71 322.25 144.51 314.54 136.3 314.58 134.32 266.29 172.02 268.94 180 273.73 182.83 277.54 191.15 282.85 198.67"/></g><g id="Layer_3" data-name="Layer 3"><circle class="cls-6" cx="460.74" cy="209.61" r="26.39"/><circle class="cls-7" cx="460.74" cy="209.61" r="8.13"/><circle class="cls-7" cx="350.63" cy="70.25" r="8.13"/><circle class="cls-7" cx="551.23" cy="378.7" r="8.13"/></g><g id="Layer_4" data-name="Layer 4"><path class="cls-8" d="M56.65,322.53l2.72-3.16a10.4,10.4,0,0,0,6.8,3c3,0,4.56-1.32,4.56-3.36s-1.68-2.84-4-3.84l-3.6-1.56c-2.56-1.08-5.28-3.12-5.28-7,0-4.16,3.68-7.36,8.8-7.36a11.55,11.55,0,0,1,8,3.32l-2.36,3a8.52,8.52,0,0,0-5.68-2.24c-2.48,0-4.12,1.16-4.12,3.08s2,2.8,4.16,3.68l3.56,1.48c3.08,1.32,5.28,3.28,5.28,7.08,0,4.24-3.52,7.76-9.4,7.76A13.55,13.55,0,0,1,56.65,322.53Z"/><path class="cls-8" d="M78.57,316.09c0-6.56,4.44-10.32,9.32-10.32s9.36,3.76,9.36,10.32-4.44,10.28-9.36,10.28S78.57,322.61,78.57,316.09Zm14,0c0-4-1.76-6.56-4.64-6.56s-4.6,2.6-4.6,6.56,1.72,6.52,4.6,6.52S92.53,320,92.53,316.09Z"/><path class="cls-8" d="M101.61,318.57V306.25h4.6V318c0,3.24.92,4.44,3,4.44,1.72,0,2.88-.8,4.36-2.72V306.25h4.6v19.64h-3.76l-.36-2.88H114c-1.72,2-3.64,3.36-6.32,3.36C103.45,326.37,101.61,323.53,101.61,318.57Z"/><path class="cls-8" d="M124.73,319.25v-9.36h-2.8v-3.44l3-.2.56-5.36h3.84v5.36h5v3.64h-5v9.36c0,2.32.88,3.44,2.76,3.44a5.63,5.63,0,0,0,2-.44l.8,3.4a12.54,12.54,0,0,1-4,.72C126.41,326.37,124.73,323.49,124.73,319.25Z"/><path class="cls-8" d="M138.49,297.65h4.6v7.28l-.16,3.8a9,9,0,0,1,6.28-3c4.2,0,6,2.84,6,7.8v12.32h-4.6V314.17c0-3.24-.92-4.44-3.08-4.44-1.72,0-2.84.84-4.48,2.44v13.72h-4.6Z"/><path class="cls-8" d="M167.85,312.89c0-8.56,5.36-13.64,12-13.64a10.39,10.39,0,0,1,7.56,3.32l-2.48,3a6.82,6.82,0,0,0-5-2.28c-4.28,0-7.32,3.6-7.32,9.48s2.8,9.56,7.2,9.56a7.45,7.45,0,0,0,5.6-2.68l2.48,2.92a10.55,10.55,0,0,1-8.24,3.8C173.05,326.37,167.85,321.57,167.85,312.89Z"/><path class="cls-8" d="M190.81,320.61c0-4.2,3.48-6.4,11.56-7.28-.08-2.08-.92-3.84-3.6-3.84a11.19,11.19,0,0,0-5.52,1.92l-1.68-3.08a15.36,15.36,0,0,1,8.08-2.56c4.88,0,7.32,3,7.32,8.48v11.64h-3.8l-.32-2.16h-.16a9.56,9.56,0,0,1-6.08,2.64A5.49,5.49,0,0,1,190.81,320.61Zm11.56,0v-4.4c-5.36.68-7.12,2.08-7.12,4,0,1.76,1.2,2.52,2.84,2.52S200.89,322,202.37,320.61Z"/><path class="cls-8" d="M212.49,306.25h3.8l.32,3.48h.16c1.4-2.56,3.48-4,5.56-4a5,5,0,0,1,2.24.4l-.8,4a6.42,6.42,0,0,0-2-.32c-1.56,0-3.44,1.08-4.64,4v12h-4.6Z"/><path class="cls-8" d="M225.73,316.09c0-6.56,4.44-10.32,9.32-10.32s9.36,3.76,9.36,10.32-4.44,10.28-9.36,10.28S225.73,322.61,225.73,316.09Zm14,0c0-4-1.76-6.56-4.64-6.56s-4.6,2.6-4.6,6.56,1.72,6.52,4.6,6.52S239.69,320,239.69,316.09Z"/><path class="cls-8" d="M249,320.85v-23.2h4.6v23.44c0,1.12.52,1.52,1,1.52a2.76,2.76,0,0,0,.72-.08l.6,3.44a6.28,6.28,0,0,1-2.44.4C250.17,326.37,249,324.25,249,320.85Z"/><path class="cls-8" d="M259.29,300.21a2.85,2.85,0,1,1,2.84,2.6A2.64,2.64,0,0,1,259.29,300.21Zm.52,6h4.6v19.64h-4.6Z"/><path class="cls-8" d="M270.29,306.25h3.8l.32,2.64h.16c1.76-1.72,3.76-3.12,6.44-3.12,4.2,0,6,2.84,6,7.8v12.32h-4.6V314.17c0-3.24-.92-4.44-3.08-4.44-1.72,0-2.84.84-4.48,2.44v13.72h-4.6Z"/><path class="cls-8" d="M291.65,320.61c0-4.2,3.48-6.4,11.56-7.28-.08-2.08-.92-3.84-3.6-3.84a11.19,11.19,0,0,0-5.52,1.92l-1.68-3.08a15.36,15.36,0,0,1,8.08-2.56c4.88,0,7.32,3,7.32,8.48v11.64H304l-.32-2.16h-.16a9.56,9.56,0,0,1-6.08,2.64A5.49,5.49,0,0,1,291.65,320.61Zm11.56,0v-4.4c-5.36.68-7.12,2.08-7.12,4,0,1.76,1.2,2.52,2.84,2.52S301.73,322,303.21,320.61Z"/><path class="cls-8" d="M148.54,338.59h4.07c4.66,0,7.41,2.52,7.41,7.55s-2.75,7.68-7.27,7.68h-4.21Zm3.89,13c3.07,0,4.82-1.74,4.82-5.49s-1.75-5.36-4.82-5.36h-1.19v10.85Z"/><path class="cls-8" d="M162.55,338.87a1.66,1.66,0,1,1,1.66,1.52A1.54,1.54,0,0,1,162.55,338.87Zm.31,3.52h2.67v11.43h-2.67Z"/><path class="cls-8" d="M167.81,352.52l1.26-1.72a5.1,5.1,0,0,0,3.17,1.28c1.23,0,1.81-.59,1.81-1.38,0-.95-1.23-1.37-2.44-1.84-1.51-.56-3.21-1.42-3.21-3.33s1.6-3.42,4.16-3.42a6.18,6.18,0,0,1,3.8,1.37l-1.23,1.63a4.29,4.29,0,0,0-2.52-1c-1.14,0-1.68.53-1.68,1.25,0,.91,1.15,1.26,2.38,1.7,1.56.59,3.28,1.33,3.28,3.47,0,2-1.56,3.54-4.44,3.54A7.23,7.23,0,0,1,167.81,352.52Z"/><path class="cls-8" d="M178.92,350v-5.45h-1.63v-2l1.77-.12.33-3.12h2.23v3.12h2.91v2.12h-2.91V350c0,1.35.51,2,1.61,2a3.23,3.23,0,0,0,1.18-.26l.47,2a7.3,7.3,0,0,1-2.33.42C179.9,354.1,178.92,352.43,178.92,350Z"/><path class="cls-8" d="M186.93,342.39h2.21l.19,2h.09a3.88,3.88,0,0,1,3.24-2.31,2.94,2.94,0,0,1,1.3.23l-.47,2.33a3.9,3.9,0,0,0-1.18-.18c-.91,0-2,.62-2.71,2.35v7h-2.67Z"/><path class="cls-8" d="M195.31,338.87a1.66,1.66,0,1,1,1.65,1.52A1.53,1.53,0,0,1,195.31,338.87Zm.3,3.52h2.68v11.43h-2.68Z"/><path class="cls-8" d="M201,348.12a5.64,5.64,0,0,1,5.73-6,5,5,0,0,1,3.36,1.28l-1.31,1.75a2.77,2.77,0,0,0-1.91-.84c-1.84,0-3.12,1.51-3.12,3.82s1.26,3.79,3,3.79a3.81,3.81,0,0,0,2.35-1l1.1,1.76a5.67,5.67,0,0,1-3.73,1.4C203.36,354.1,201,351.91,201,348.12Z"/><path class="cls-8" d="M212.63,350v-5.45H211v-2l1.77-.12.32-3.12h2.24v3.12h2.91v2.12h-2.91V350c0,1.35.51,2,1.6,2a3.24,3.24,0,0,0,1.19-.26l.47,2a7.3,7.3,0,0,1-2.33.42C213.6,354.1,212.63,352.43,212.63,350Z"/></g><g id="Layer_6" data-name="Layer 6"><polyline class="cls-9" points="348.7 264.22 399.18 218.01 409.85 190.1 419.28 189.61 413.78 182.81 417.57 176.26 424.89 173.56 428.93 168.3 443.07 176.71 442.75 170.46 452.43 171.34 467.54 166.12 482.94 163.82 477.99 175.64 495 191.14 506.66 186.96 510.75 186.92 522.08 177.51 527.64 169.54 528.67 160.33 536.43 159.07 535.22 154.14 571.22 133.17 578.57 131.96 580.31 133.81 589.45 133.31 595.61 127.75 598.56 117.14 600.65 115.5 590.86 105.49 588.62 99.14 584.84 95.65 584.57 89.96"/><polyline class="cls-9" points="681.61 159.82 675 165.88 675 171.64 666 179.54 666.22 182.4 661.25 188.18 661.49 192.75 654.88 197.03 651.18 204.58 656.02 214.1 659.66 215.19 659.53 225.16 667.98 240.64 661.63 242.06 657.49 239.25 652.76 227.94 649.66 225.76 639.56 229.91 633.27 231.14 617.69 226.69 608.22 225.8 605.4 223.04 599.18 222.97 595.05 216.55 590.44 216.23 587.2 225.01 576.87 232.19 579.27 238.49 577.14 240.81 564.87 269.01 559.18 271.49 559.33 275.61 551.23 276.23 551.19 283.33 547.46 295.7 540.74 300.58 536.69 298.7 535.43 301.46 529.04 301.46 521.55 298.4 519.99 292.79 475.08 319.31 477.19 323.62 473.89 328.11 470.35 322.38 436.43 344.29 436.43 350.52 431.94 350.77 434.67 357.83 426.01 364.68 424.95 367.42 417.42 370.58"/></g></svg>