<?xml version="1.0" encoding="utf-8"?>
<!-- Generator: Adobe Illustrator 25.4.1, SVG Export Plug-In . SVG Version: 6.00 Build 0)  -->
<svg version="1.1" id="Layer_1" xmlns="http://www.w3.org/2000/svg" xmlns:xlink="http://www.w3.org/1999/xlink" x="0px" y="0px"
	 viewBox="0 0 784.1 507.9" style="enable-background:new 0 0 784.1 507.9;" xml:space="preserve">
<style type="text/css">
	.st0{fill:#E6E6E6;}
	.st1{opacity:0.8;fill:#A5A5A5;enable-background:new    ;}
	.st2{fill:none;stroke:#0675AF;stroke-width:0.67;stroke-linejoin:bevel;}
	.st3{opacity:0.8;fill:#007DBC;stroke:#0675AF;stroke-miterlimit:10;enable-background:new    ;}
	.st4{opacity:0.8;fill:#007DBC;enable-background:new    ;}
	.st5{opacity:0.8;fill:#A5A5A5;stroke:#868788;stroke-miterlimit:10;enable-background:new    ;}
	.st6{fill:none;stroke:#868788;stroke-width:0.67;stroke-linejoin:bevel;}
	.st7{opacity:0.8;fill:#007DBC;stroke:#0675AF;stroke-width:0.68;stroke-miterlimit:10;enable-background:new    ;}
	.st8{fill:none;stroke:#0675AF;stroke-width:0.68;stroke-miterlimit:10;}
	.st9{fill:none;stroke:#0675AF;stroke-width:4;stroke-miterlimit:10;}
	.st10{fill:none;stroke:#FFFFFF;stroke-width:3;stroke-miterlimit:10;}
	.st11{fill:#FFFFFF;}
	.st12{fill:#007DBC;}
	.st13{fill:#868788;}
</style>
<rect x="-9.7" y="-8.5" class="st0" width="804.9" height="530"/>
<polygon class="st1" points="171.5,169.9 173.5,169.9 173.6,185.6 179.2,185.4 181.3,187.5 193,187.5 193,185.5 212.7,185.4 
	212.5,146.3 177.4,146.6 177.5,152.4 175.5,152.4 175.5,158.2 171.7,158.2 "/>
<polygon class="st2" points="171.5,169.9 173.5,169.9 173.6,185.5 179.2,185.4 181.3,187.5 193,187.5 193,185.5 212.7,185.4 
	212.5,146.3 177.4,146.6 177.5,152.4 175.5,152.4 175.5,158.2 171.7,158.2 "/>
<polygon class="st3" points="134.2,89.5 134.4,122.8 181.2,123 181.7,61.7 166,61.9 161.7,68.2 153.4,72.6 151.5,78.8 148,82.4 
	137.1,89.5 "/>
<polygon class="st2" points="134.2,89.4 134.4,122.8 181.2,122.9 181.7,61.7 166,61.9 161.7,68.2 153.4,72.6 151.6,78.8 148,82.4 
	137.1,89.4 "/>
<polygon class="st3" points="40.5,73.8 40.6,87.9 87.6,87.7 87.6,75.9 83.6,76 83.6,62 81.8,61.9 81.7,49.9 40.4,51.2 "/>
<polygon class="st2" points="40.5,73.8 40.6,87.9 87.6,87.7 87.6,75.9 83.6,76 83.6,62 81.8,61.9 81.7,49.9 40.4,51.2 "/>
<polygon class="st4" points="312.5,146.6 312.9,160.7 312.8,190 361.2,190 361.4,147 "/>
<polygon class="st2" points="312.5,146.6 312.9,160.7 312.8,190 361.2,190 361.4,147 "/>
<polygon class="st5" points="353.5,382.6 357,381 358.4,374.9 369.3,375.8 370.6,366.5 380.9,357.2 385.9,360 389.5,366 400,360.2 
	405.2,360 408.5,354.2 414.9,350.8 417.9,345.8 423.3,340 423.5,335.7 402.2,334.8 398.5,331.3 398.5,333.1 387.1,331.9 385.2,328 
	379.2,326 379.1,334.3 357.3,333.3 354.5,334.3 353.9,341.1 355.6,341.2 355.3,347.8 343.6,346 343.3,351.9 341.4,351.8 
	340.5,369.2 344.3,371.3 344.1,375.1 353.9,375.5 "/>
<polygon class="st6" points="353.5,382.6 357,381 358.4,374.9 369.3,375.8 370.6,366.5 380.9,357.2 385.9,360 389.5,366 400,360.2 
	405.2,360 408.5,354.2 414.9,350.8 417.9,345.8 423.3,340 423.5,335.7 402.2,334.8 398.5,331.3 398.5,333.1 387.1,331.9 385.2,328 
	379.2,326 379.1,334.2 357.3,333.3 354.5,334.3 353.9,341.1 355.6,341.2 355.3,347.8 343.6,346 343.3,351.9 341.4,351.8 
	340.5,369.2 344.3,371.3 344.1,375.1 353.9,375.5 "/>
<polygon class="st5" points="85.2,333.4 85.3,339.5 88.6,338.8 88.1,351 86.4,372.6 95.6,373.1 96,375.4 121.6,377.4 124.7,336.1 
	93.3,333.5 "/>
<polygon class="st2" points="85.2,333.4 85.3,339.5 88.6,338.8 88.1,351 86.4,372.6 95.6,373.1 96,375.4 121.6,377.4 124.7,336.1 
	93.3,333.5 "/>
<polygon class="st5" points="248.1,383.6 259.5,384.4 259.4,386 271.1,387.2 270.7,392 282.5,392.8 281.4,406.3 292.8,407.2 
	294.5,384 298.3,384.2 299.2,372.5 295.3,372.2 296.2,360.5 273.3,359 273,362.4 261.1,361.6 261,363.5 249.5,362.6 "/>
<polygon class="st2" points="248.1,383.6 259.5,384.4 259.4,386 271.1,387.2 270.7,392 282.5,392.8 281.4,406.3 292.8,407.2 
	294.5,384 298.3,384.2 299.2,372.5 295.3,372.2 296.2,360.5 273.3,359 273,362.4 261.1,361.6 261,363.5 249.5,362.6 "/>
<polygon class="st1" points="40.7,146.9 40.8,182 76,182 76,187.8 82,187.8 81.9,170.2 87.8,170.2 87.7,158.4 81.8,158.5 
	81.7,146.8 "/>
<polygon class="st2" points="40.7,146.9 40.8,182 76,182 76,187.8 82,187.8 81.9,170.2 87.8,170.2 87.7,158.4 81.8,158.5 
	81.7,146.8 "/>
<polygon class="st5" points="167.9,248.6 173.7,249.1 172.8,264.3 206.7,264.9 206.5,246.6 198.7,246.6 198.7,211.6 171.1,212 "/>
<polygon class="st2" points="167.9,248.6 173.7,249.1 172.8,264.3 206.7,264.9 206.5,246.6 198.7,246.6 198.7,211.6 171.1,212 "/>
<polygon class="st3" points="355.2,219.9 354.9,229.8 364.7,230.1 364,249.7 392.9,250.7 393.3,238.7 399.3,238.8 400.4,203.8 
	394.6,203.6 395,192.2 379.5,191.9 361.3,194.5 360,195.4 359.2,220 "/>
<polygon class="st2" points="355.2,219.9 354.9,229.8 364.7,230.1 364,249.7 392.9,250.7 393.3,238.7 399.3,238.8 400.4,203.8 
	394.6,203.6 395,192.2 379.5,191.9 361.3,194.5 360,195.4 359.2,220 "/>
<polygon class="st4" points="427,98.5 427.3,127.4 476.2,127.5 476.2,77.9 427,77.6 "/>
<polygon class="st2" points="427,98.5 427.3,127.4 476.2,127.5 476.2,77.9 427,77.6 "/>
<polygon class="st3" points="357.3,147 361.4,147 361.4,157 384.6,158 385,147 387.3,147 387.5,98.4 366.5,98.1 369.8,107.9 
	357.7,108 "/>
<polygon class="st2" points="357.3,147 361.4,147 361.4,157 384.6,158 385,147 387.3,147 387.5,98.4 366.5,98.1 369.8,107.9 
	357.7,108 "/>
<polygon class="st4" points="361.2,190 361.3,194.5 379.5,191.9 402.8,192.4 403.2,182.6 418.4,182 418.5,147 385,147 384.6,158 
	361.4,157 "/>
<polygon class="st2" points="361.2,190 361.3,194.5 379.5,191.9 402.8,192.4 403.2,182.6 418.4,182 418.5,147 385,147 384.6,158 
	361.4,157 "/>
<polygon class="st5" points="78.4,252.9 100.1,252.6 100.1,253.2 120,254.7 120.8,242.8 122,237.5 122.1,214.8 87.9,215 87.9,228.7 
	78.2,228.8 "/>
<polygon class="st2" points="78.3,252.9 100.1,252.6 100.1,253.2 120,254.7 120.8,242.8 121.9,237.5 122.1,214.8 87.9,215 
	87.9,228.7 78.2,228.8 "/>
<polygon class="st4" points="181.3,146.5 238.9,146.3 241.3,145.9 240.2,111 181.3,111.2 "/>
<polygon class="st2" points="181.3,146.5 238.9,146.3 241.3,145.9 240.2,111 181.3,111.2 "/>
<polygon class="st5" points="196.8,460.7 209.5,459.8 212,454.4 218.6,450.6 220.8,446.7 226.1,446.6 234.7,442.7 236.9,444.5 
	236.7,452.3 238.8,461.5 242.7,466.8 250.4,463.4 247.7,457.2 248,452.6 253.8,453 254.9,443.5 258.2,443.8 259.5,430.6 
	248.3,429.8 249,418 224,416.6 202.4,416.1 202.1,411.9 196.5,408.8 "/>
<polygon class="st6" points="196.8,460.7 209.5,459.8 212,454.4 218.6,450.6 220.8,446.7 226.1,446.6 234.7,442.7 236.9,444.5 
	236.7,452.3 238.8,461.5 242.7,466.8 250.4,463.4 247.7,457.2 248,452.6 253.8,453 254.9,443.5 258.2,443.8 259.5,430.6 
	248.3,429.8 249,418 224,416.6 202.4,416.1 202.1,411.9 196.4,408.8 "/>
<polygon class="st4" points="181.3,111.2 240.2,111 239.5,87.3 233.8,87.3 220.1,83.6 189.6,83.6 189.5,77.7 181.8,77.8 "/>
<polygon class="st2" points="181.3,111.2 240.2,111 239.5,87.3 233.8,87.3 220.1,83.6 189.6,83.6 189.5,77.7 181.8,77.8 "/>
<polygon class="st5" points="186.1,361.4 185.2,374.4 187.1,379.3 188.7,377.8 188,385 247.7,388.9 250.3,349.4 224.2,347.9 
	224.7,344.4 196.9,343.1 "/>
<polygon class="st6" points="186.1,361.4 185.2,374.4 187.1,379.3 188.7,377.8 188,385 247.7,388.9 250.3,349.4 224.2,347.9 
	224.7,344.4 196.9,343.1 "/>
<polygon class="st1" points="251.7,184.3 261.9,184.5 262.2,205.9 287.5,205.7 291.4,205.2 291.1,182.2 287.2,182.1 287.1,174.1 
	283.3,168.4 283.1,146.4 252,146 "/>
<polygon class="st2" points="251.7,184.3 261.9,184.5 262.2,205.9 287.5,205.7 291.4,205.2 291.1,182.2 287.2,182.1 287.1,174.1 
	283.3,168.4 283.1,146.4 252,146 "/>
<polygon class="st1" points="87.7,164.4 111.2,164.1 111.2,158.3 122.8,158.2 122.8,156.2 134.5,156.2 134.4,122.8 87.6,123.1 
	87.6,146.7 81.7,146.8 81.8,158.5 87.7,158.4 "/>
<polygon class="st6" points="87.7,164.4 111.2,164.1 111.2,158.3 122.8,158.2 122.8,156.2 134.5,156.2 134.4,122.8 87.6,123.1 
	87.6,146.7 81.7,146.8 81.8,158.5 87.7,158.4 "/>
<polygon class="st5" points="39.5,336.3 73.6,336.2 73,289.9 39.7,290.2 "/>
<polygon class="st6" points="39.5,336.3 73.6,336.2 73,289.9 39.7,290.2 "/>
<polygon class="st4" points="387.3,147 427.3,147.1 427,98.5 387.5,98.4 "/>
<polygon class="st2" points="387.3,147 427.3,147.1 427,98.5 387.5,98.4 "/>
<polygon class="st5" points="184.8,403.6 192,404 196.5,408.8 202.1,411.9 202.4,416.1 224,416.6 243.6,417.7 245.7,388.8 188,385 
	"/>
<polygon class="st6" points="184.8,403.6 192,404 196.4,408.8 202.1,411.9 202.4,416.1 224,416.6 243.6,417.7 245.7,388.8 188,385 
	"/>
<polygon class="st5" points="196.9,343.1 224.7,344.4 224.2,347.9 250.3,349.4 251.3,338.1 239.9,337.1 241.8,306.3 199.2,304 "/>
<polygon class="st6" points="196.9,343.1 224.7,344.4 224.2,347.9 250.3,349.4 251.3,338.1 239.9,337.1 241.8,306.3 199.2,304 "/>
<polygon class="st5" points="287.6,324.8 287,332.5 299,333.3 298.8,337.1 321.6,338.6 323.2,315.6 317.5,315.2 318.2,303.5 
	308.3,302.9 309.1,291.2 283.1,289.4 278.6,288.4 277.6,300.7 285.4,301.3 284.5,312.9 288.4,313.2 "/>
<polygon class="st2" points="287.6,324.8 287,332.5 299,333.3 298.8,337.1 321.6,338.6 323.2,315.6 317.5,315.2 318.2,303.5 
	308.3,302.9 309.1,291.2 283.1,289.4 278.6,288.4 277.6,300.7 285.4,301.3 284.5,312.9 288.4,313.2 "/>
<polygon class="st1" points="40.6,111.4 40.7,146.9 87.6,146.7 87.6,117.2 75.9,117.2 75.9,111.2 "/>
<polygon class="st6" points="40.6,111.4 40.7,146.9 87.6,146.7 87.6,117.2 75.9,117.2 75.8,111.2 "/>
<polygon class="st4" points="181.7,61.7 181.8,77.8 189.5,77.7 189.6,83.6 220.1,83.6 228.6,79.4 252.2,76.2 242.4,73.4 241,65.9 
	234.9,75.1 224,72.6 216.9,64.6 207.2,61.1 "/>
<polygon class="st2" points="181.7,61.7 181.8,77.8 189.5,77.7 189.6,83.6 220.1,83.6 228.6,79.4 252.2,76.2 242.4,73.4 241,65.9 
	234.9,75.1 224,72.6 216.9,64.6 207.2,61.1 "/>
<polygon class="st5" points="356.4,311.5 362.3,311.8 361.9,323.4 367.7,323.6 367.5,333.8 379.1,334.3 379.2,326 385.2,328 
	387.1,331.9 398.5,333.1 398.8,317.9 394.8,317.9 395.4,296.4 403.2,296.7 403.5,285.6 388,285.7 388,289.6 380.2,289.2 
	380.1,293.1 368.5,292.7 368.3,300.5 356.7,300 "/>
<polygon class="st6" points="356.4,311.5 362.3,311.8 361.9,323.4 367.7,323.6 367.5,333.8 379.1,334.2 379.2,326 385.2,328 
	387.1,331.9 398.5,333.1 398.8,317.9 394.8,317.9 395.4,296.4 403.2,296.7 403.5,285.6 388,285.7 388,289.6 380.2,289.2 
	380.1,293.1 368.5,292.7 368.3,300.5 356.7,300 "/>
<polygon class="st5" points="301.8,290.6 309.1,291.2 308.3,302.9 318.2,303.5 317.8,309.5 356.4,311.5 357,288.3 353.2,288.2 
	354.5,258.9 316.8,257.7 306.6,257 305.4,285.7 302.1,285.6 "/>
<polygon class="st6" points="301.8,290.6 309.1,291.2 308.3,302.9 318.2,303.5 317.8,309.5 356.4,311.5 357,288.3 353.2,288.2 
	354.5,258.9 316.8,257.6 306.6,257 305.4,285.7 302.1,285.6 "/>
<polygon class="st1" points="221.9,221.4 221.7,223.4 231.6,223.9 231.1,231.5 259.9,233.2 261.3,209.4 262.2,205.9 261.9,184.5 
	238.4,184.1 238.2,192.9 228.3,193.1 228.2,213.8 222.3,214.6 "/>
<polygon class="st6" points="221.9,221.4 221.7,223.4 231.6,223.9 231.1,231.5 259.9,233.2 261.3,209.4 262.2,205.9 261.9,184.5 
	238.4,184.1 238.2,192.9 228.3,193.1 228.2,213.8 222.3,214.6 "/>
<polygon class="st5" points="317.8,309.5 317.5,315.2 323.2,315.6 321.6,338.6 320.8,338.5 320,350.5 343.3,351.9 343.6,346 
	355.3,347.8 355.6,341.2 353.9,341.1 354.5,334.3 357.3,333.3 367.5,333.8 367.7,323.6 361.9,323.4 362.3,311.8 "/>
<polygon class="st6" points="317.8,309.5 317.5,315.2 323.2,315.6 321.6,338.6 320.8,338.5 320,350.5 343.3,351.9 343.6,346 
	355.3,347.8 355.6,341.2 353.9,341.1 354.5,334.3 357.3,333.3 367.5,333.8 367.7,323.6 361.9,323.4 362.3,311.8 "/>
<polygon class="st5" points="73,289.9 73.6,333.2 93.3,333.5 110.7,335 112.9,300.6 116.9,298.9 117.1,295.1 106.3,294.3 
	106.3,289.3 "/>
<polygon class="st6" points="73,289.9 73.6,333.2 93.3,333.5 110.7,335 112.9,300.6 116.9,298.9 117.1,295.1 106.3,294.3 
	106.3,289.3 "/>
<polygon class="st5" points="398.5,331.3 402.2,334.8 423.5,335.7 423.3,340 433,331.1 439.4,329.3 440.9,320.6 444.2,316.1 
	440.5,310.5 445,305.8 445.4,299 414.4,297 395.4,296.4 394.8,317.9 398.8,317.9 "/>
<polygon class="st6" points="398.5,331.3 402.2,334.8 423.5,335.7 423.3,340 433,331.1 439.4,329.3 440.9,320.6 444.2,316.1 
	440.5,310.5 445,305.8 445.4,299 414.4,297 395.4,296.4 394.8,317.9 398.8,317.9 "/>
<polygon class="st1" points="78.4,252.9 79,289.8 106.3,289.3 106.3,294.3 117.1,295.1 120,254.7 100.1,253.2 100.1,252.6 "/>
<polygon class="st6" points="78.3,252.9 79,289.8 106.3,289.3 106.3,294.3 117.1,295.1 120,254.7 100.1,253.2 100.1,252.6 "/>
<polygon class="st1" points="78.1,232 76,231.4 76,182 40.8,182 40.6,232.2 "/>
<polygon class="st6" points="78.1,232 76,231.4 76,182 40.8,182 40.6,232.2 "/>
<polygon class="st5" points="292.8,407.2 292.7,409.1 315.9,410.5 315.6,416.3 320.3,411.7 322,407.5 325,407 327.5,411.6 
	332.4,412.5 335.7,419 333.1,423.8 334.9,426.8 340,425.2 341.4,420.2 344.5,417.9 348.6,420.9 350.4,419.6 347.8,415.5 
	349.6,408.9 345.6,404.6 344.5,400.4 351.3,398.4 350.4,387.2 294.5,384 "/>
<polygon class="st6" points="292.8,407.2 292.7,409.1 315.9,410.5 315.6,416.3 320.3,411.7 322,407.5 325,407 327.5,411.6 
	332.4,412.5 335.7,419 333.1,423.8 334.9,426.8 340,425.2 341.4,420.2 344.5,417.9 348.6,420.9 350.4,419.6 347.8,415.5 
	349.6,408.9 345.6,404.6 344.5,400.4 351.3,398.4 350.4,387.2 294.5,384 "/>
<polygon class="st4" points="308.2,136.9 308,146.5 357.3,147 357.7,108 328.4,108.3 328.2,118.5 318.3,118.5 318.1,127.1 
	308.4,127 "/>
<polygon class="st2" points="308.2,136.9 308,146.5 357.3,147 357.7,108 328.4,108.3 328.2,118.5 318.3,118.5 318.1,127.1 
	308.4,127 "/>
<polygon class="st1" points="181.3,187.5 181.4,211.8 198.7,211.6 198.7,220 221.9,221.4 222.3,214.6 228.2,213.8 228.3,193.1 
	238.2,192.9 238.4,185.1 193,185.5 193,187.5 "/>
<polygon class="st6" points="181.3,187.5 181.4,211.8 198.7,211.6 198.7,220 221.9,221.4 222.3,214.6 228.2,213.8 228.3,193.1 
	238.2,192.9 238.4,185.1 193,185.5 193,187.5 "/>
<polygon class="st4" points="418.5,158.7 437.7,158.8 437.8,154.8 445.4,154.9 445.4,158.8 476.1,158.9 476.2,127.5 427.3,127.4 
	427.3,147.1 418.5,147 "/>
<polygon class="st2" points="418.5,158.7 437.7,158.8 437.8,154.8 445.4,154.9 445.4,158.8 476.1,158.9 476.2,127.5 427.3,127.4 
	427.3,147.1 418.5,147 "/>
<polygon class="st1" points="157.6,316.6 198.3,319.5 199.2,304 198.4,290.1 201,288.2 198.5,283.1 198.2,272.6 202.4,272.7 
	203,264.8 172.8,264.3 171.5,277.8 171.9,277.8 164.1,309.8 158.2,309.2 "/>
<polygon class="st6" points="157.6,316.6 198.3,319.5 199.2,304 198.4,290.1 201,288.1 198.5,283.1 198.2,272.6 202.4,272.7 
	203,264.8 172.8,264.3 171.5,277.8 171.9,277.8 164.1,309.8 158.2,309.2 "/>
<polygon class="st7" points="181.7,61.8 207.1,61.2 189.7,50 175.2,50.5 177.6,46.3 134.4,48.1 134.1,89.6 137.1,89.6 148,82.6 
	151.5,78.9 153.4,72.7 161.6,68.4 166,62.1 "/>
<polygon class="st3" points="290.2,87.5 290.8,107.2 290.6,118.6 291.4,136.6 308.2,136.9 308.4,127 318.1,127.1 318.3,118.5 
	328.2,118.5 328.4,108.3 338,108.3 338.1,98.1 328.5,98 328.9,77 324.4,75.7 299.7,86.7 "/>
<polygon class="st2" points="290.2,87.5 290.8,107.2 290.6,118.6 291.4,136.6 308.2,136.9 308.4,127 318.1,127.1 318.3,118.5 
	328.2,118.5 328.4,108.3 338,108.3 338.1,98.1 328.5,98 328.9,77 324.4,75.7 299.7,86.7 "/>
<polygon class="st1" points="167.9,248.6 171.1,211.3 134.5,208.3 134.5,207.4 122.9,207.8 122.1,214.8 122,237.5 120.8,242.8 
	144.3,244.6 144.1,246.5 "/>
<polygon class="st6" points="167.9,248.6 171.1,211.3 134.5,208.3 134.5,207.4 122.9,207.8 122.1,214.8 121.9,237.5 120.8,242.8 
	144.3,244.6 144.1,246.5 "/>
<polygon class="st5" points="246.1,287.1 277.5,289.1 278.6,288.4 283.1,289.4 301.8,290.6 302.1,285.6 305.4,285.7 307,247.4 
	277.1,246.4 277.2,243.9 249.3,242.3 247,282.3 "/>
<polygon class="st6" points="246.1,287.1 277.5,289.1 278.6,288.4 283.1,289.4 301.8,290.6 302.1,285.6 305.4,285.7 307,247.4 
	277.1,246.4 277.2,243.9 249.3,242.3 247,282.3 "/>
<polygon class="st5" points="242.7,466.8 251.8,468.5 258,475.3 263.3,479.8 265.1,486.2 267.5,488.4 274,487.6 284.5,483.9 
	292.7,482.6 294.8,476.2 296.4,465.3 288.9,465 289.6,453.1 277.6,452.3 278.2,444.6 276.5,440.6 266.4,439.7 267.1,431.2 
	259.5,430.6 258.2,443.8 254.9,443.5 253.8,453 248,452.6 247.7,457.2 250.4,463.4 "/>
<polygon class="st6" points="242.7,466.8 251.8,468.5 258,475.3 263.3,479.8 265.1,486.2 267.5,488.4 274,487.6 284.5,483.9 
	292.7,482.6 294.8,476.2 296.4,465.3 288.9,465 289.6,453.1 277.6,452.3 278.2,444.6 276.5,440.6 266.4,439.7 267.1,431.2 
	259.5,430.6 258.2,443.8 254.9,443.5 253.8,453 248,452.6 247.7,457.2 250.4,463.4 "/>
<polygon class="st4" points="377.6,60 377.7,68.3 397.2,68.3 397.3,58.7 417,58.6 416.9,48.7 426.9,48.6 427,29.6 405.2,40.8 
	398.4,42.1 "/>
<polygon class="st2" points="377.6,60 377.7,68.3 397.2,68.3 397.3,58.7 417,58.6 416.9,48.7 426.9,48.6 427,29.6 405.2,40.8 
	398.4,42.1 "/>
<polygon class="st1" points="249.3,242.3 277.2,243.9 277.1,246.4 305.7,247.3 307.4,202.8 287.5,205.7 262.2,205.9 261.3,209.4 
	259.9,233.2 249.9,232.6 "/>
<polygon class="st6" points="249.3,242.3 277.2,243.9 277.1,246.4 305.7,247.3 307.4,202.8 287.5,205.7 262.2,205.9 261.3,209.4 
	259.9,233.2 249.9,232.6 "/>
<polygon class="st4" points="433.2,222.6 441,222.8 440.3,228.6 439.2,257.9 457.5,258.2 459.6,254.5 461.7,248.6 465.7,244.3 
	467.9,236.9 467.2,229.9 464.7,226.7 466.7,225.5 468.5,216.4 465.1,207.8 461,201.5 453,201.4 453,199.6 441.3,199.2 441.1,205.1 
	435.3,205 434.9,216.8 "/>
<polygon class="st2" points="433.2,222.6 441,222.8 440.3,228.6 439.2,257.9 457.5,258.2 459.6,254.5 461.7,248.6 465.7,244.3 
	467.9,236.9 467.2,229.9 464.7,226.7 466.7,225.5 468.5,216.4 465.1,207.8 461,201.5 453,201.4 453,199.6 441.3,199.2 441.1,205.1 
	435.3,205 434.9,216.8 "/>
<polygon class="st5" points="259.5,430.6 267.1,431.2 267.2,430 279.4,431.2 282.5,392.8 270.7,392 271.1,387.2 259.4,386 
	259.5,384.4 248.1,383.6 247.7,388.9 245.7,388.8 243.6,417.7 249,418 248.3,429.8 "/>
<polygon class="st6" points="259.5,430.6 267.1,431.2 267.2,430 279.4,431.2 282.5,392.8 270.7,392 271.1,387.2 259.4,386 
	259.5,384.4 248.1,383.6 247.7,388.9 245.7,388.8 243.6,417.7 249,418 248.3,429.8 "/>
<polygon class="st4" points="240.1,106.3 241.3,145.9 281.6,146.4 281.2,136.6 291.4,136.6 290.6,118.6 290.8,107.2 "/>
<polygon class="st2" points="240.1,106.3 241.3,145.9 281.6,146.4 281.2,136.6 291.4,136.6 290.6,118.6 290.8,107.2 "/>
<polygon class="st1" points="306.9,218.4 359.2,220 360,195.4 361.3,194.5 361.2,190 303.2,190.1 303.3,203.4 307.4,202.8 "/>
<polygon class="st6" points="306.9,218.4 359.2,220 360,195.4 361.3,194.5 361.2,190 303.2,190.1 303.3,203.4 307.4,202.8 "/>
<polygon class="st5" points="249.5,362.6 261,363.5 261.1,361.6 273,362.4 273.3,359 296.2,360.5 297.1,348.8 308.6,349.7 
	309.4,337.8 298.8,337.1 299,333.3 287,332.5 287.6,324.8 275.8,323.9 275.2,331.7 262.9,330.9 262.6,336.8 251.4,336.1 "/>
<polygon class="st6" points="249.5,362.6 261,363.5 261.1,361.6 273,362.4 273.3,359 296.2,360.5 297.1,348.8 308.6,349.7 
	309.4,337.8 298.8,337.1 299,333.3 287,332.5 287.6,324.8 275.8,323.9 275.2,331.7 262.9,330.9 262.6,336.8 251.4,336.1 "/>
<polygon class="st5" points="136,378.5 135.3,408.1 161.8,408.4 184.8,403.6 188,385 188.7,377.8 187.1,379.3 185.2,374.4 
	186.1,361.4 163.9,361.2 144.3,376.4 142.5,380.5 139,381.6 "/>
<polygon class="st6" points="136,378.5 135.3,408.1 161.8,408.4 184.8,403.6 188,385 188.7,377.8 187.1,379.3 185.2,374.4 
	186.1,361.4 163.9,361.2 144.3,376.4 142.5,380.5 139,381.6 "/>
<polygon class="st3" points="87.6,87.7 99.1,87.6 99.1,123.1 134.4,122.8 134.2,79.5 87.6,79.8 "/>
<polygon class="st2" points="87.6,87.7 99.1,87.6 99.1,123.1 134.4,122.8 134.2,79.5 87.6,79.8 "/>
<polygon class="st4" points="404.3,256.5 439.2,257.9 440.3,228.6 441,222.8 399.8,221.4 399.3,238.8 393.3,238.7 392.8,256.3 "/>
<polygon class="st1" points="134.5,207.4 134.5,208.3 171.1,211.3 171.1,212 181.4,211.8 181.3,187.5 179.2,185.4 173.6,185.6 
	173.5,169.9 134.5,169.7 "/>
<polygon class="st6" points="134.5,207.4 134.5,208.3 171.1,211.3 171.1,212 181.4,211.8 181.3,187.5 179.2,185.4 173.6,185.5 
	173.5,169.9 134.5,169.7 "/>
<polygon class="st5" points="134.5,156.2 134.5,169.7 171.5,169.9 171.7,158.2 175.5,158.2 175.5,152.4 177.5,152.4 177.4,146.6 
	181.3,146.5 181.2,122.9 134.4,122.8 "/>
<polygon class="st6" points="134.5,156.2 134.5,169.7 171.5,169.9 171.7,158.2 175.5,158.2 175.5,152.4 177.5,152.4 177.4,146.6 
	181.3,146.5 181.2,122.9 134.4,122.8 "/>
<polygon class="st5" points="58.9,401.1 66,398 70.9,398.4 74.5,395 77.1,395.9 79.1,403.9 87.2,406 89.9,408 91.9,388.1 
	94.2,384.2 89.8,381.7 96,375.4 95.6,373.1 86.4,372.6 71,370.8 58.3,370 57.1,370.9 39,370.9 39,397.1 45.6,391.7 49.3,392.9 
	52.5,397.5 "/>
<polygon class="st6" points="58.9,401.1 66,398 70.9,398.4 74.5,395 77.1,395.9 79.1,403.9 87.2,406 89.9,408 91.9,388.1 
	94.2,384.2 89.8,381.7 96,375.4 95.6,373.1 86.4,372.6 71,370.8 58.3,370 57.1,370.9 39,370.9 39,397.1 45.6,391.7 49.3,392.9 
	52.5,397.5 "/>
<polygon class="st5" points="356.7,300 368.3,300.5 368.5,292.7 380.1,293.1 380.2,289.2 388,289.6 388,285.7 403.5,285.6 
	404.3,256.5 392.8,256.3 392.9,250.7 359.4,249.6 359.1,259.1 354.5,258.9 353.2,288.2 357,288.3 "/>
<polygon class="st6" points="356.7,300 368.3,300.5 368.5,292.7 380.1,293.1 380.2,289.2 388,289.6 388,285.7 403.5,285.6 
	404.3,256.5 392.8,256.3 392.9,250.7 359.4,249.6 359.1,259.1 354.5,258.9 353.2,288.2 357,288.3 "/>
<polygon class="st5" points="110.7,335 155.9,338.6 158.2,309.2 148.9,308.1 139.7,305.9 139.9,302.6 128.3,301.8 128.5,299.8 
	116.9,298.9 112.9,300.6 "/>
<polygon class="st6" points="110.7,335 155.8,338.6 158.2,309.2 148.9,308.1 139.7,305.9 139.9,302.6 128.3,301.8 128.5,299.8 
	116.9,298.9 112.9,300.6 "/>
<polygon class="st3" points="427,98.5 426.9,48.6 416.9,48.7 417,58.6 397.3,58.7 397.2,68.3 387.5,68.4 387.5,98.4 "/>
<polygon class="st2" points="427,98.5 426.9,48.6 416.9,48.7 417,58.6 397.3,58.7 397.2,68.3 387.5,68.4 387.5,98.4 "/>
<polygon class="st5" points="296.4,465.3 303.4,464.1 307.6,462.6 306.2,452.6 307,449.3 303.1,438.7 311,431.5 311.1,424.2 
	315.6,416.3 315.9,410.5 292.7,409.1 292.8,407.2 281.4,406.3 279.4,431.2 267.2,430 266.4,439.7 276.5,440.6 278.2,444.6 
	277.6,452.3 289.6,453.1 288.9,465 "/>
<polygon class="st6" points="296.4,465.3 303.4,464.1 307.6,462.6 306.2,452.6 307,449.3 303.1,438.7 311,431.5 311.1,424.2 
	315.6,416.3 315.9,410.5 292.7,409.1 292.8,407.2 281.4,406.3 279.4,431.2 267.2,430 266.4,439.7 276.5,440.6 278.2,444.6 
	277.6,452.3 289.6,453.1 288.9,465 "/>
<polygon class="st4" points="81.7,49.9 81.8,61.9 83.6,62 83.6,76 87.6,75.9 87.6,79.8 134.2,79.5 134.5,47.9 "/>
<polygon class="st2" points="81.7,49.9 81.8,61.9 83.6,62 83.6,76 87.6,75.9 87.6,79.8 134.2,79.5 134.5,47.9 "/>
<polygon class="st5" points="241.8,306.3 244.1,302.6 244.9,291 243.2,287 246.1,287.1 247,282.3 248.2,262.4 206.7,260.1 
	206.7,264.9 203,264.8 202.4,272.7 198.2,272.6 198.5,283.1 201,288.2 198.4,290.1 199.2,304 "/>
<polygon class="st6" points="241.8,306.3 244.1,302.6 244.9,291 243.2,287 246.1,287.1 247,282.3 248.2,262.4 206.7,260.1 
	206.7,264.9 203,264.8 202.4,272.7 198.2,272.6 198.5,283.1 201,288.1 198.4,290.1 199.2,304 "/>
<polygon class="st5" points="163.9,361.2 186.1,361.4 196.9,343.1 198.3,319.5 157.6,316.6 155.9,338.6 165.4,339.4 "/>
<polygon class="st6" points="163.9,361.2 186.1,361.4 196.9,343.1 198.3,319.5 157.6,316.6 155.8,338.6 165.4,339.4 "/>
<polygon class="st5" points="251.3,338.1 251.4,336.1 262.6,336.8 262.9,330.9 275.2,331.7 275.8,323.9 287.6,324.8 288.4,313.2 
	284.5,312.9 285.4,301.3 277.6,300.7 278.6,288.4 277.5,289.1 243.2,287 244.9,291 244.1,302.6 241.8,306.3 239.9,337.1 "/>
<polygon class="st6" points="251.3,338.1 251.4,336.1 262.6,336.8 262.9,330.9 275.2,331.7 275.8,323.9 287.6,324.8 288.4,313.2 
	284.5,312.9 285.4,301.3 277.6,300.7 278.6,288.4 277.5,289.1 243.2,287 244.9,291 244.1,302.6 241.8,306.3 239.9,337.1 "/>
<polygon class="st3" points="240.1,106.3 290.8,107.2 290.2,87.5 276,94 254.4,82.7 243.3,81.3 233.8,87.3 239.5,87.3 "/>
<polygon class="st2" points="240.1,106.3 290.8,107.2 290.2,87.5 276,94 254.4,82.7 243.3,81.3 233.8,87.3 239.5,87.3 "/>
<polygon class="st1" points="206.7,260.1 248.2,262.4 249.9,232.6 231.1,231.5 231.6,223.9 221.7,223.4 221.9,221.4 198.7,220 
	198.7,246.6 206.5,246.6 "/>
<polygon class="st6" points="206.7,260.1 248.2,262.4 249.9,232.6 231.1,231.5 231.6,223.9 221.7,223.4 221.9,221.4 198.7,220 
	198.7,246.6 206.5,246.6 "/>
<polygon class="st4" points="40.6,87.9 40.6,111.4 75.9,111.2 75.9,117.2 87.6,117.2 87.6,123.1 99.1,123.1 99.1,87.6 "/>
<polygon class="st5" points="73,289.9 79,289.8 78.1,232 40.6,232.2 39.7,290.2 "/>
<polygon class="st6" points="73,289.9 79,289.8 78.1,232 40.6,232.2 39.7,290.2 "/>
<polygon class="st4" points="338,108.3 369.8,107.9 366.5,98.1 387.5,98.4 387.5,68.4 377.7,68.3 377.6,60 351.6,79.6 339.8,80 
	328.9,77 328.5,98 338.1,98.1 "/>
<polygon class="st2" points="338,108.3 369.8,107.9 366.5,98.1 387.5,98.4 387.5,68.4 377.7,68.3 377.6,60 351.6,79.6 339.8,80 
	328.9,77 328.5,98 338.1,98.1 "/>
<polygon class="st1" points="212.7,185.4 238.4,185.1 238.4,184.1 251.7,184.3 252,146 212.5,146.3 "/>
<polygon class="st6" points="212.7,185.4 238.4,185.1 238.4,184.1 251.7,184.3 252,146 212.5,146.3 "/>
<polygon class="st1" points="306.6,257 316.8,257.7 359.1,259.1 359.4,249.6 364,249.7 364.7,230.1 354.9,229.8 355.2,219.9 
	306.9,218.4 305.7,247.3 307,247.4 "/>
<polygon class="st6" points="306.6,257 316.8,257.6 359.1,259.1 359.4,249.6 364,249.7 364.7,230.1 354.9,229.8 355.2,219.9 
	306.9,218.4 305.7,247.3 307,247.4 "/>
<polygon class="st4" points="418.4,182 435.7,182.1 435.6,193.3 441.4,193.4 441.3,199.2 453,199.6 453,201.4 461,201.5 
	465.2,196.4 469.6,197.1 476.2,194 476.1,158.9 445.4,158.8 445.4,154.9 437.8,154.8 437.7,158.8 418.5,158.7 "/>
<polygon class="st2" points="418.4,182 435.7,182.1 435.6,193.3 441.4,193.4 441.3,199.2 453,199.6 453,201.4 461,201.5 
	465.2,196.4 469.6,197.1 476.2,194 476.1,158.9 445.4,158.8 445.4,154.9 437.8,154.8 437.7,158.8 418.5,158.7 "/>
<polygon class="st5" points="123.4,377.6 136,378.5 139,381.6 142.5,380.5 144.3,376.4 163.9,361.2 165.4,339.4 124.7,336.1 
	121.6,377.4 "/>
<polygon class="st6" points="123.4,377.6 136,378.5 139,381.6 142.5,380.5 144.3,376.4 163.9,361.2 165.4,339.4 124.7,336.1 
	121.6,377.4 "/>
<polygon class="st5" points="98.8,427.2 98.9,433.4 100.7,436.2 113,440.4 117,440.7 123.4,377.6 96,375.4 89.8,381.7 94.2,384.2 
	91.9,388.1 89.9,408 93,416.7 98.5,424.8 "/>
<polygon class="st6" points="98.8,427.2 98.9,433.4 100.7,436.2 113,440.4 117,440.7 123.4,377.6 96,375.4 89.8,381.7 94.2,384.2 
	91.9,388.1 89.9,408 93,416.7 98.5,424.8 "/>
<polygon class="st5" points="158.2,309.2 164.1,309.8 171.9,277.8 118.7,273.8 116.9,298.9 128.5,299.8 128.3,301.8 139.9,302.6 
	139.7,305.9 148.9,308.1 "/>
<polygon class="st6" points="158.2,309.2 164.1,309.8 171.9,277.8 118.7,273.8 116.9,298.9 128.5,299.8 128.3,301.8 139.9,302.6 
	139.7,305.9 148.9,308.1 "/>
<polygon class="st5" points="171.5,277.8 173.7,249.1 144.1,246.5 144.3,244.6 120.8,242.8 118.7,273.8 "/>
<polygon class="st6" points="171.5,277.8 173.7,249.1 144.1,246.5 144.3,244.6 120.8,242.8 118.7,273.8 "/>
<polygon class="st4" points="399.8,221.4 433.2,222.6 434.9,216.8 435.3,205 441.1,205.1 441.4,193.4 435.6,193.3 435.7,182.1 
	418.4,182 403.2,182.6 402.8,192.4 395,192.2 394.6,203.6 400.4,203.8 "/>
<polygon class="st2" points="399.8,221.4 433.2,222.6 434.9,216.8 435.3,205 441.1,205.1 441.4,193.4 435.6,193.3 435.7,182.1 
	418.4,182 403.2,182.6 402.8,192.4 395,192.2 394.6,203.6 400.4,203.8 "/>
<polygon class="st5" points="86.4,372.6 88.1,351 88.6,338.8 85.3,339.5 85.2,333.4 73.6,333.2 73.6,336.2 39.5,336.3 39,370.9 
	57.1,370.9 58.3,370 71,370.8 "/>
<polygon class="st6" points="86.4,372.6 88.1,351 88.6,338.8 85.3,339.5 85.2,333.4 73.6,333.2 73.6,336.2 39.5,336.3 39,370.9 
	57.1,370.9 58.3,370 71,370.8 "/>
<polygon class="st1" points="132.1,441.2 136.7,442.6 138.5,447.1 144.3,450.6 145.5,455.5 152.3,457.8 155.6,408.2 135.3,408.1 
	136,378.5 123.4,377.6 117,440.7 124.8,438.6 "/>
<polygon class="st6" points="132.1,441.2 136.7,442.6 138.5,447.1 144.3,450.6 145.5,455.5 152.3,457.8 155.6,408.2 135.3,408.1 
	136,378.5 123.4,377.6 117,440.7 124.8,438.6 "/>
<polygon class="st5" points="445.4,299 448.6,296.1 447.1,290 451.6,291.2 451.2,286.2 453.7,283 454.4,274.7 453.8,269.1 
	456.7,265.9 457.5,258.2 439.2,257.9 404.3,256.5 403.2,296.7 414.4,297 "/>
<polygon class="st6" points="445.4,299 448.6,296.1 447.1,290 451.6,291.2 451.2,286.2 453.7,283 454.4,274.7 453.8,269.1 
	456.7,265.9 457.5,258.2 439.2,257.9 404.3,256.5 403.2,296.7 414.4,297 "/>
<polygon class="st1" points="76,187.8 76,231.4 78.2,232 78.2,228.8 87.9,228.7 87.9,215 122.1,214.8 122.9,207.8 134.5,207.4 
	134.5,193.2 111.4,193.4 111.4,191.4 99.7,191.5 99.7,187.6 "/>
<polygon class="st6" points="76,187.8 76,231.4 78.2,232 78.2,228.8 87.9,228.7 87.9,215 122.1,214.8 122.9,207.8 134.5,207.4 
	134.5,193.2 111.4,193.4 111.4,191.4 99.7,191.5 99.7,187.6 "/>
<polygon class="st5" points="296.2,360.5 295.3,372.2 299.2,372.5 298.3,384.2 350.4,387.2 353.5,382.6 353.9,375.5 344.1,375.1 
	344.3,371.3 340.5,369.2 341.4,351.8 320,350.5 320.8,338.5 309.4,337.8 308.6,349.7 297.1,348.8 "/>
<polygon class="st6" points="296.2,360.5 295.3,372.2 299.2,372.5 298.3,384.2 350.4,387.2 353.5,382.6 353.9,375.5 344.1,375.1 
	344.3,371.3 340.5,369.2 341.4,351.8 320,350.5 320.8,338.5 309.4,337.8 308.6,349.7 297.1,348.8 "/>
<polygon class="st4" points="426.9,48.6 427,77.6 476.2,77.9 476.1,12.8 437,27.8 427,29.6 "/>
<polygon class="st2" points="426.9,48.6 427,77.6 476.2,77.9 476.1,12.8 437,27.8 427,29.6 "/>
<polygon class="st1" points="291.4,205.2 303.3,203.4 303.2,190.1 312.8,190 312.9,160.7 312.5,146.6 308,146.5 308.2,136.9 
	281.2,136.6 281.6,146.4 283.1,146.4 283.3,168.4 287.1,174.1 287.2,182.1 291.1,182.2 "/>
<polygon class="st6" points="291.4,205.2 303.3,203.4 303.2,190.1 312.8,190 312.9,160.7 312.5,146.6 308,146.5 308.2,136.9 
	281.2,136.6 281.6,146.4 283.1,146.4 283.3,168.4 287.1,174.1 287.2,182.1 291.1,182.2 "/>
<polygon class="st1" points="82,187.8 99.7,187.6 99.7,191.5 111.4,191.4 111.4,193.4 134.5,193.2 134.5,156.2 122.8,156.2 
	122.8,158.2 111.2,158.3 111.2,164.1 87.7,164.4 87.8,170.2 81.9,170.2 "/>
<polygon class="st6" points="82,187.8 99.7,187.6 99.7,191.5 111.4,191.4 111.4,193.4 134.5,193.2 134.5,156.2 122.8,156.2 
	122.8,158.2 111.2,158.3 111.2,164.1 87.7,164.4 87.8,170.2 81.9,170.2 "/>
<polygon class="st5" points="158.3,458.3 161.4,452.1 171.9,449.8 176.4,453.2 185.5,455 190,457.5 194,463.5 196.8,460.7 
	196.5,408.8 192,404 184.8,403.6 161.8,408.4 155.6,408.2 152.3,457.8 "/>
<polygon class="st6" points="158.3,458.3 161.4,452.1 171.9,449.8 176.4,453.2 185.5,455 190,457.5 194,463.5 196.8,460.7 
	196.4,408.8 192,404 184.8,403.6 161.8,408.4 155.6,408.2 152.3,457.8 "/>
<polyline class="st8" points="134.5,47.9 177.6,46.3 175.2,50.5 189.7,50 207.1,61.2 "/>
<polyline class="st9" points="40.6,111.4 75.8,111.2 75.9,117.2 87.6,117.2 87.6,123.1 134.4,122.8 181.2,122.9 181.3,146.5 
	241.3,145.9 283.1,146.4 281.2,136.6 308.2,136.9 308,146.5 312.5,146.6 312.8,190 361.2,190 361.3,194.5 360,195.4 359.2,220 
	355.2,219.9 354.9,229.8 364.7,230.1 364,249.7 392.9,250.7 392.8,256.3 439.2,257.9 457.5,258.2 "/>
<circle class="st10" cx="361.4" cy="78.7" r="29.3"/>
<circle class="st11" cx="361.4" cy="78.7" r="9"/>
<path class="st12" d="M510,96.2h4.8l8.2,14.7l2.7,5.6h0.2c-0.2-2.7-0.6-6-0.6-8.9V96.2h4.4v26.2h-4.8l-8.2-14.7l-2.7-5.6h-0.2
	c0.2,2.8,0.6,5.9,0.6,8.8v11.4H510V96.2z"/>
<path class="st12" d="M534.5,112.6c0-6.6,4.4-10.3,9.3-10.3c4.9,0,9.4,3.8,9.4,10.3s-4.4,10.3-9.4,10.3
	C539,122.8,534.5,119.1,534.5,112.6z M548.5,112.6c0-4-1.8-6.6-4.6-6.6s-4.6,2.6-4.6,6.6c0,3.9,1.7,6.5,4.6,6.5
	C546.7,119.1,548.5,116.5,548.5,112.6z"/>
<path class="st12" d="M557.8,102.7h3.8l0.3,3.5h0.2c1.4-2.6,3.5-4,5.6-4c1,0,1.6,0.1,2.2,0.4l-0.8,4c-0.7-0.2-1.2-0.3-2-0.3
	c-1.6,0-3.4,1.1-4.6,4v12h-4.6v-19.6H557.8z"/>
<path class="st12" d="M573.4,115.7v-9.4h-2.8v-3.4l3-0.2l0.6-5.4h3.8v5.4h5v3.6h-5v9.4c0,2.3,0.9,3.4,2.8,3.4c0.7,0,1.5-0.2,2-0.4
	l0.8,3.4c-1.1,0.4-2.4,0.7-4,0.7C575.1,122.8,573.4,120,573.4,115.7z"/>
<path class="st12" d="M587.1,94.1h4.6v7.3l-0.2,3.8c1.6-1.6,3.6-3,6.3-3c4.2,0,6,2.8,6,7.8v12.3h-4.6v-11.7c0-3.2-0.9-4.4-3.1-4.4
	c-1.7,0-2.8,0.8-4.5,2.4v13.7H587L587.1,94.1L587.1,94.1z"/>
<path class="st12" d="M608.2,112.6c0-6.4,4.4-10.3,9-10.3c5.3,0,8.1,3.8,8.1,9.3c0,0.9-0.1,1.8-0.2,2.2h-12.5
	c0.4,3.5,2.6,5.5,5.8,5.5c1.7,0,3.1-0.5,4.6-1.4l1.6,2.9c-1.9,1.2-4.2,2.1-6.7,2.1C612.4,122.8,608.2,119,608.2,112.6z M621.3,110.7
	c0-3-1.3-4.9-4-4.9c-2.3,0-4.3,1.7-4.7,4.9H621.3z"/>
<path class="st12" d="M629.7,102.7h3.8l0.3,3.5h0.2c1.4-2.6,3.5-4,5.6-4c1,0,1.6,0.1,2.2,0.4l-0.8,4c-0.7-0.2-1.2-0.3-2-0.3
	c-1.6,0-3.4,1.1-4.6,4v12h-4.6v-19.6H629.7z"/>
<path class="st12" d="M644.7,102.7h3.8l0.3,2.6h0.2c1.8-1.7,3.8-3.1,6.4-3.1c4.2,0,6,2.8,6,7.8v12.3h-4.6v-11.7
	c0-3.2-0.9-4.4-3.1-4.4c-1.7,0-2.8,0.8-4.5,2.4v13.7h-4.6L644.7,102.7L644.7,102.7z"/>
<path class="st12" d="M674.1,109.2c0-8.4,4.7-13.4,11.5-13.4s11.6,5,11.6,13.4c0,8.5-4.7,13.7-11.6,13.7
	C678.8,122.8,674.1,117.6,674.1,109.2z M692.4,109.2c0-5.8-2.6-9.4-6.8-9.4s-6.8,3.6-6.8,9.4c0,5.9,2.6,9.6,6.8,9.6
	S692.4,115,692.4,109.2z"/>
<path class="st12" d="M702,94.1h4.6v7.3l-0.2,3.8c1.6-1.6,3.6-3,6.3-3c4.2,0,6,2.8,6,7.8v12.3h-4.6v-11.7c0-3.2-0.9-4.4-3.1-4.4
	c-1.7,0-2.8,0.8-4.5,2.4v13.7H702V94.1L702,94.1z"/>
<path class="st12" d="M723.8,96.7c0-1.6,1.2-2.6,2.8-2.6s2.8,1.1,2.8,2.6s-1.2,2.6-2.8,2.6S723.8,98.2,723.8,96.7z M724.3,102.7h4.6
	v19.6h-4.6V102.7z"/>
<path class="st12" d="M733.5,112.6c0-6.6,4.4-10.3,9.3-10.3c4.9,0,9.4,3.8,9.4,10.3s-4.4,10.3-9.4,10.3
	C738,122.8,733.5,119.1,733.5,112.6z M747.5,112.6c0-4-1.8-6.6-4.6-6.6s-4.6,2.6-4.6,6.6c0,3.9,1.7,6.5,4.6,6.5
	C745.7,119.1,747.5,116.5,747.5,112.6z"/>
<path class="st12" d="M597.1,135.5h4.2c4.8,0,7.6,2.6,7.6,7.8s-2.8,7.9-7.5,7.9h-4.3V135.5z M601.1,148.9c3.2,0,5-1.8,5-5.7
	c0-3.8-1.8-5.5-5-5.5h-1.2v11.2H601.1z"/>
<path class="st12" d="M611.5,135.8c0-0.9,0.7-1.6,1.7-1.6s1.7,0.6,1.7,1.6c0,0.9-0.7,1.6-1.7,1.6
	C612.3,137.3,611.5,136.7,611.5,135.8z M611.9,139.4h2.8v11.8h-2.8V139.4z"/>
<path class="st12" d="M617,149.8l1.3-1.8c1.1,0.8,2.1,1.3,3.3,1.3c1.3,0,1.9-0.6,1.9-1.4c0-1-1.3-1.4-2.5-1.9
	c-1.6-0.6-3.3-1.5-3.3-3.4c0-2.1,1.7-3.5,4.3-3.5c1.6,0,3,0.7,3.9,1.4l-1.3,1.7c-0.8-0.6-1.7-1-2.6-1c-1.2,0-1.7,0.6-1.7,1.3
	c0,0.9,1.2,1.3,2.5,1.8c1.6,0.6,3.4,1.4,3.4,3.6c0,2-1.6,3.6-4.6,3.6C619.8,151.4,618.1,150.8,617,149.8z"/>
<path class="st12" d="M628.4,147.2v-5.6h-1.7v-2.1l1.8-0.1l0.3-3.2h2.3v3.2h3v2.2h-3v5.6c0,1.4,0.5,2.1,1.7,2.1
	c0.4,0,0.9-0.1,1.2-0.3l0.5,2c-0.7,0.2-1.5,0.4-2.4,0.4C629.4,151.4,628.4,149.7,628.4,147.2z"/>
<path class="st12" d="M636.7,139.4h2.3l0.2,2.1h0.1c0.8-1.5,2.1-2.4,3.3-2.4c0.6,0,1,0.1,1.3,0.2l-0.5,2.4c-0.4-0.1-0.7-0.2-1.2-0.2
	c-0.9,0-2.1,0.6-2.8,2.4v7.2h-2.8L636.7,139.4L636.7,139.4z"/>
<path class="st12" d="M645.3,135.8c0-0.9,0.7-1.6,1.7-1.6s1.7,0.6,1.7,1.6c0,0.9-0.7,1.6-1.7,1.6S645.3,136.7,645.3,135.8z
	 M645.6,139.4h2.8v11.8h-2.8V139.4z"/>
<path class="st12" d="M651.1,145.3c0-3.9,2.8-6.2,5.9-6.2c1.5,0,2.6,0.6,3.5,1.3l-1.3,1.8c-0.6-0.6-1.2-0.9-2-0.9
	c-1.9,0-3.2,1.6-3.2,3.9c0,2.4,1.3,3.9,3.1,3.9c0.9,0,1.8-0.5,2.4-1l1.1,1.8c-1.1,1-2.5,1.4-3.8,1.4
	C653.6,151.4,651.1,149.2,651.1,145.3z"/>
<path class="st12" d="M663.2,147.2v-5.6h-1.7v-2.1l1.8-0.1l0.3-3.2h2.3v3.2h3v2.2h-3v5.6c0,1.4,0.5,2.1,1.7,2.1
	c0.4,0,0.9-0.1,1.2-0.3l0.5,2c-0.7,0.2-1.5,0.4-2.4,0.4C664.2,151.4,663.2,149.7,663.2,147.2z"/>
<path class="st13" d="M387.6,407.1c0-3.9,2.4-6.1,5.4-6.1c1.5,0,2.7,0.7,3.4,1.5l-1.1,1.4c-0.6-0.6-1.3-1-2.2-1
	c-1.9,0-3.3,1.6-3.3,4.3c0,2.7,1.3,4.3,3.2,4.3c1,0,1.9-0.5,2.5-1.2l1.1,1.3c-1,1.1-2.2,1.7-3.7,1.7
	C389.9,413.1,387.6,411,387.6,407.1z"/>
<path class="st13" d="M397.8,408.5c0-2.9,2-4.6,4.1-4.6c2.4,0,3.7,1.7,3.7,4.2c0,0.4,0,0.8-0.1,1h-5.6c0.2,1.6,1.2,2.5,2.6,2.5
	c0.8,0,1.4-0.2,2.1-0.6l0.7,1.3c-0.8,0.6-1.9,1-3,1C399.7,413.1,397.8,411.4,397.8,408.5z M403.7,407.6c0-1.4-0.6-2.2-1.8-2.2
	c-1,0-1.9,0.8-2.1,2.2H403.7z"/>
<path class="st13" d="M407.5,404.1h1.7l0.1,1.2h0.1c0.8-0.8,1.7-1.4,2.9-1.4c1.9,0,2.7,1.3,2.7,3.5v5.5h-2v-5.3c0-1.5-0.4-2-1.4-2
	c-0.8,0-1.3,0.4-2,1.1v6.2h-2.1V404.1z"/>
<path class="st13" d="M417.9,409.9v-4.2h-1.3v-1.5l1.4-0.1l0.3-2.4h1.7v2.4h2.3v1.6H420v4.2c0,1,0.4,1.5,1.2,1.5
	c0.3,0,0.7-0.1,0.9-0.2l0.4,1.5c-0.5,0.2-1.1,0.3-1.8,0.3C418.7,413.1,417.9,411.8,417.9,409.9z"/>
<path class="st13" d="M424.1,404.1h1.7l0.1,1.6h0.1c0.6-1.2,1.6-1.8,2.5-1.8c0.5,0,0.7,0.1,1,0.2l-0.4,1.8c-0.3-0.1-0.5-0.1-0.9-0.1
	c-0.7,0-1.5,0.5-2.1,1.8v5.4H424L424.1,404.1L424.1,404.1z"/>
<path class="st13" d="M429.9,410.5c0-1.9,1.6-2.9,5.2-3.3c0-0.9-0.4-1.7-1.6-1.7c-0.9,0-1.7,0.4-2.5,0.9l-0.8-1.4
	c1-0.6,2.2-1.2,3.6-1.2c2.2,0,3.3,1.3,3.3,3.8v5.2h-1.7l-0.1-1h-0.1c-0.8,0.7-1.7,1.2-2.7,1.2C430.9,413.1,429.9,412.1,429.9,410.5z
	 M435.1,410.5v-2c-2.4,0.3-3.2,0.9-3.2,1.8c0,0.8,0.5,1.1,1.3,1.1C433.9,411.5,434.4,411.1,435.1,410.5z"/>
<path class="st13" d="M439.6,410.6v-10.4h2.1v10.6c0,0.5,0.2,0.7,0.5,0.7c0.1,0,0.2,0,0.3,0l0.3,1.5c-0.3,0.1-0.6,0.2-1.1,0.2
	C440.2,413.1,439.6,412.2,439.6,410.6z"/>
<path class="st13" d="M447.6,410.5c0-1.9,1.6-2.9,5.2-3.3c0-0.9-0.4-1.7-1.6-1.7c-0.9,0-1.7,0.4-2.5,0.9L448,405
	c1-0.6,2.2-1.2,3.6-1.2c2.2,0,3.3,1.3,3.3,3.8v5.2h-1.7l-0.1-1H453c-0.8,0.7-1.7,1.2-2.7,1.2C448.7,413.1,447.6,412.1,447.6,410.5z
	 M452.8,410.5v-2c-2.4,0.3-3.2,0.9-3.2,1.8c0,0.8,0.5,1.1,1.3,1.1C451.6,411.5,452.2,411.1,452.8,410.5z"/>
<path class="st13" d="M457.4,404.1h1.7l0.1,1.2h0.1c0.8-0.8,1.7-1.4,2.9-1.4c1.9,0,2.7,1.3,2.7,3.5v5.5h-2.1v-5.3c0-1.5-0.4-2-1.4-2
	c-0.8,0-1.3,0.4-2,1.1v6.2h-2.1L457.4,404.1L457.4,404.1z"/>
<path class="st13" d="M466.9,408.5c0-2.9,1.8-4.6,3.7-4.6c1,0,1.6,0.4,2.3,1l-0.1-1.4v-3.2h2.1V413h-1.7l-0.1-1H473
	c-0.6,0.6-1.5,1.2-2.5,1.2C468.4,413.1,466.9,411.4,466.9,408.5z M472.9,410.4v-4.1c-0.6-0.5-1.2-0.7-1.8-0.7
	c-1.1,0-2.1,1.1-2.1,2.9c0,1.9,0.7,2.9,2,2.9C471.8,411.4,472.3,411.1,472.9,410.4z"/>
<path class="st13" d="M480.6,411.4l1.2-1.4c0.8,0.8,2,1.3,3.1,1.3c1.3,0,2.1-0.6,2.1-1.5c0-1-0.8-1.3-1.8-1.7l-1.6-0.7
	c-1.2-0.5-2.4-1.4-2.4-3.1c0-1.9,1.7-3.3,4-3.3c1.4,0,2.7,0.6,3.6,1.5l-1.1,1.3c-0.8-0.6-1.5-1-2.6-1s-1.9,0.5-1.9,1.4
	s0.9,1.3,1.9,1.7l1.6,0.7c1.4,0.6,2.4,1.5,2.4,3.2c0,1.9-1.6,3.5-4.2,3.5C483.3,413.1,481.7,412.5,480.6,411.4z"/>
<path class="st13" d="M490.5,408.5c0-3,2-4.6,4.2-4.6s4.2,1.7,4.2,4.6s-2,4.6-4.2,4.6S490.5,411.4,490.5,408.5z M496.7,408.5
	c0-1.8-0.8-3-2.1-3c-1.3,0-2.1,1.2-2.1,3s0.8,2.9,2.1,2.9C496,411.4,496.7,410.3,496.7,408.5z"/>
<path class="st13" d="M500.8,409.6v-5.5h2.1v5.3c0,1.5,0.4,2,1.4,2c0.8,0,1.3-0.4,2-1.2v-6.1h2.1v8.8h-1.7l-0.2-1.3h-0.1
	c-0.8,0.9-1.6,1.5-2.8,1.5C501.7,413.1,500.8,411.8,500.8,409.6z"/>
<path class="st13" d="M511.2,409.9v-4.2H510v-1.5l1.4-0.1l0.3-2.4h1.7v2.4h2.3v1.6h-2.3v4.2c0,1,0.4,1.5,1.2,1.5
	c0.3,0,0.7-0.1,0.9-0.2l0.4,1.5c-0.5,0.2-1.1,0.3-1.8,0.3C512,413.1,511.2,411.8,511.2,409.9z"/>
<path class="st13" d="M517.4,400.2h2.1v3.3l-0.1,1.7c0.7-0.7,1.6-1.3,2.8-1.3c1.9,0,2.7,1.3,2.7,3.5v5.5h-2.1v-5.3
	c0-1.5-0.4-2-1.4-2c-0.8,0-1.3,0.4-2,1.1v6.2h-2.1L517.4,400.2L517.4,400.2z"/>
<path class="st13" d="M526.9,408.5c0-2.9,2-4.6,4.1-4.6c2.4,0,3.7,1.7,3.7,4.2c0,0.4,0,0.8-0.1,1H529c0.2,1.6,1.2,2.5,2.6,2.5
	c0.8,0,1.4-0.2,2.1-0.6l0.7,1.3c-0.8,0.6-1.9,1-3,1C528.8,413.1,526.9,411.4,526.9,408.5z M532.8,407.6c0-1.4-0.6-2.2-1.8-2.2
	c-1,0-1.9,0.8-2.1,2.2H532.8z"/>
<path class="st13" d="M536.6,404.1h1.7l0.1,1.6h0.1c0.6-1.2,1.6-1.8,2.5-1.8c0.5,0,0.7,0.1,1,0.2l-0.4,1.8c-0.3-0.1-0.5-0.1-0.9-0.1
	c-0.7,0-1.5,0.5-2.1,1.8v5.4h-2.1v-8.9H536.6z"/>
<path class="st13" d="M543.3,404.1h1.7l0.1,1.2h0.1c0.8-0.8,1.7-1.4,2.9-1.4c1.9,0,2.7,1.3,2.7,3.5v5.5h-2.1v-5.3c0-1.5-0.4-2-1.4-2
	c-0.8,0-1.3,0.4-2,1.1v6.2h-2.1L543.3,404.1L543.3,404.1z"/>
<path class="st13" d="M556.6,407c0-3.8,2.1-6,5.2-6c3.1,0,5.2,2.3,5.2,6c0,3.8-2.1,6.2-5.2,6.2C558.7,413.1,556.6,410.8,556.6,407z
	 M564.8,407c0-2.6-1.2-4.2-3-4.2s-3,1.6-3,4.2s1.2,4.3,3,4.3S564.8,409.6,564.8,407z"/>
<path class="st13" d="M569.1,400.2h2.1v3.3l-0.1,1.7c0.7-0.7,1.6-1.3,2.8-1.3c1.9,0,2.7,1.3,2.7,3.5v5.5h-2.1v-5.3
	c0-1.5-0.4-2-1.4-2c-0.8,0-1.3,0.4-2,1.1v6.2H569L569.1,400.2L569.1,400.2z"/>
<path class="st13" d="M578.9,401.3c0-0.7,0.5-1.2,1.3-1.2s1.3,0.5,1.3,1.2s-0.5,1.2-1.3,1.2S578.9,402,578.9,401.3z M579.2,404.1
	h2.1v8.8h-2.1V404.1z"/>
<path class="st13" d="M583.3,408.5c0-3,2-4.6,4.2-4.6s4.2,1.7,4.2,4.6s-2,4.6-4.2,4.6S583.3,411.4,583.3,408.5z M589.6,408.5
	c0-1.8-0.8-3-2.1-3s-2.1,1.2-2.1,3s0.8,2.9,2.1,2.9S589.6,410.3,589.6,408.5z"/>
<path class="st13" d="M464.9,422.7h3.2c3.6,0,5.7,1.9,5.7,5.8s-2.1,5.9-5.6,5.9h-3.3L464.9,422.7L464.9,422.7z M467.9,432.8
	c2.4,0,3.7-1.4,3.7-4.2c0-2.9-1.4-4.1-3.7-4.1H467v8.4L467.9,432.8L467.9,432.8z"/>
<path class="st13" d="M475.7,422.9c0-0.7,0.5-1.2,1.3-1.2s1.3,0.5,1.3,1.2s-0.5,1.2-1.3,1.2S475.7,423.6,475.7,422.9z M476,425.7
	h2.1v8.8H476V425.7z"/>
<path class="st13" d="M479.8,433.5l1-1.3c0.8,0.6,1.5,1,2.4,1c1,0,1.4-0.5,1.4-1.1c0-0.7-1-1.1-1.9-1.4c-1.2-0.4-2.5-1.1-2.5-2.6
	s1.2-2.6,3.2-2.6c1.2,0,2.2,0.5,2.9,1.1l-1,1.3c-0.6-0.4-1.2-0.8-1.9-0.8c-0.9,0-1.3,0.4-1.3,1c0,0.7,0.9,1,1.8,1.3
	c1.2,0.4,2.5,1,2.5,2.7c0,1.5-1.2,2.7-3.4,2.7C482,434.7,480.7,434.2,479.8,433.5z"/>
<path class="st13" d="M488.4,431.5v-4.2h-1.3v-1.5l1.4-0.1l0.3-2.4h1.7v2.4h2.3v1.6h-2.3v4.2c0,1,0.4,1.5,1.2,1.5
	c0.3,0,0.7-0.1,0.9-0.2l0.4,1.5c-0.5,0.2-1.1,0.3-1.8,0.3C489.2,434.7,488.4,433.4,488.4,431.5z"/>
<path class="st13" d="M494.6,425.7h1.7l0.1,1.6h0.1c0.6-1.2,1.6-1.8,2.5-1.8c0.5,0,0.7,0.1,1,0.2l-0.4,1.8c-0.3-0.1-0.5-0.1-0.9-0.1
	c-0.7,0-1.5,0.5-2.1,1.8v5.4h-2.1L494.6,425.7L494.6,425.7z"/>
<path class="st13" d="M501.1,422.9c0-0.7,0.5-1.2,1.3-1.2s1.3,0.5,1.3,1.2s-0.5,1.2-1.3,1.2S501.1,423.6,501.1,422.9z M501.3,425.7
	h2.1v8.8h-2.1V425.7z"/>
<path class="st13" d="M505.4,430.1c0-3,2.1-4.6,4.4-4.6c1.1,0,1.9,0.4,2.6,1l-1,1.4c-0.5-0.4-0.9-0.6-1.5-0.6c-1.4,0-2.4,1.2-2.4,3
	s1,2.9,2.4,2.9c0.7,0,1.3-0.3,1.8-0.8l0.8,1.4c-0.8,0.7-1.9,1.1-2.9,1.1C507.3,434.7,505.4,433,505.4,430.1z"/>
<path class="st13" d="M514.5,431.5v-4.2h-1.3v-1.5l1.4-0.1l0.3-2.4h1.7v2.4h2.3v1.6h-2.3v4.2c0,1,0.4,1.5,1.2,1.5
	c0.3,0,0.7-0.1,0.9-0.2l0.4,1.5c-0.5,0.2-1.1,0.3-1.8,0.3C515.2,434.7,514.5,433.4,514.5,431.5z"/>
</svg>
