<?xml version="1.0" encoding="utf-8"?>
<!-- Generator: Adobe Illustrator 25.4.1, SVG Export Plug-In . SVG Version: 6.00 Build 0)  -->
<svg version="1.1" id="Layer_1" xmlns="http://www.w3.org/2000/svg" xmlns:xlink="http://www.w3.org/1999/xlink" x="0px" y="0px"
	 viewBox="0 0 784.06 507.87" style="enable-background:new 0 0 784.06 507.87;" xml:space="preserve">
<style type="text/css">
	.st0{fill:#E6E6E6;}
	.st1{clip-path:url(#SVGID_00000095325966647165842310000005461394281133179824_);}
	.st2{clip-path:url(#SVGID_00000104687908951800726320000009885656485423240605_);}
	.st3{fill:none;stroke:#F0F0F0;stroke-width:2.54;stroke-miterlimit:10;}
	.st4{clip-path:url(#SVGID_00000051363457065045694000000017257856603752015006_);}
	.st5{fill:#F0F0F0;}
	.st6{clip-path:url(#SVGID_00000147914598944324557510000001054528862355499956_);}
	.st7{opacity:0.8;fill:#007DBC;enable-background:new    ;}
	.st8{fill:none;stroke:#0675AF;stroke-width:0.64;stroke-linejoin:bevel;}
	.st9{clip-path:url(#SVGID_00000141439686813475362910000003024110132213725613_);}
	.st10{fill:none;stroke:#E6E6E6;stroke-width:0.64;stroke-linecap:square;stroke-linejoin:bevel;}
	.st11{fill:none;stroke:#FFFFFF;stroke-width:3;stroke-miterlimit:10;}
	.st12{fill:#FFFFFF;}
	.st13{fill:#007DBC;}
</style>
<g id="Layer_1_00000063629145624406555670000006494061038686764180_">
	<rect x="-11.18" y="-11.39" class="st0" width="804.92" height="529.99"/>
	<g>
		<g>
			<defs>
				<rect id="SVGID_1_" x="10.26" y="26.25" width="590.85" height="456.57"/>
			</defs>
			<clipPath id="SVGID_00000010283367569232772410000003566408414635984027_">
				<use xlink:href="#SVGID_1_"  style="overflow:visible;"/>
			</clipPath>
			<g style="clip-path:url(#SVGID_00000010283367569232772410000003566408414635984027_);">
				<g>
					<g>
						<defs>
							<rect id="SVGID_00000117651246966697226640000015631905089131827851_" x="42.8" y="58.8" width="509.49" height="391"/>
						</defs>
						<clipPath id="SVGID_00000057136169888636996400000002997409485809469113_">
							<use xlink:href="#SVGID_00000117651246966697226640000015631905089131827851_"  style="overflow:visible;"/>
						</clipPath>
						<g style="clip-path:url(#SVGID_00000057136169888636996400000002997409485809469113_);">
							<polygon class="st3" points="334.91,186.55 333.35,191.35 328.31,191.35 332.38,194.31 330.83,199.1 334.91,196.14 
								338.98,199.1 337.42,194.31 341.51,191.35 336.46,191.35 							"/>
						</g>
					</g>
				</g>
				<g>
					<g>
						<defs>
							<rect id="SVGID_00000119079666617950492100000003065971335021825697_" x="42.8" y="58.8" width="509.49" height="391"/>
						</defs>
						<clipPath id="SVGID_00000090256389964854161180000016795982803104363922_">
							<use xlink:href="#SVGID_00000119079666617950492100000003065971335021825697_"  style="overflow:visible;"/>
						</clipPath>
						<g style="clip-path:url(#SVGID_00000090256389964854161180000016795982803104363922_);">
							<rect x="310.11" y="200.03" class="st5" width="49.29" height="16.11"/>
						</g>
					</g>
				</g>
				<g>
					<g>
						<defs>
							<rect id="SVGID_00000119821821813938579300000012878384784898826153_" x="42.8" y="58.8" width="509.49" height="391"/>
						</defs>
						<clipPath id="SVGID_00000158707937223737340140000015447524982561676472_">
							<use xlink:href="#SVGID_00000119821821813938579300000012878384784898826153_"  style="overflow:visible;"/>
						</clipPath>
						<g style="clip-path:url(#SVGID_00000158707937223737340140000015447524982561676472_);">
							<polygon class="st7" points="478.89,208.1 528.59,207.56 528.48,132.96 480.41,133.1 480.39,140.65 479.51,140.65 
								479.53,170.76 478.85,170.76 479.06,185.59 							"/>
							<polygon class="st8" points="478.89,208.09 528.59,207.56 528.48,132.96 480.41,133.1 480.39,140.65 479.51,140.65 
								479.53,170.75 478.85,170.76 479.06,185.59 							"/>
							<polygon class="st7" points="330.26,148.37 330.42,170.96 334.69,170.32 333.96,168.76 336.46,167.18 336.45,170.96 
								389.98,170.91 390.13,125.64 427.49,125.72 427.6,110.2 428,110.21 427.97,84.05 358.62,84.08 337.64,84.36 337.49,140.84 
								330.17,140.82 							"/>
							<polygon class="st8" points="330.26,148.36 330.42,170.96 334.69,170.32 333.96,168.75 336.46,167.18 336.45,170.96 
								389.98,170.91 390.13,125.64 427.49,125.72 427.6,110.2 428,110.21 427.97,84.05 358.62,84.08 337.64,84.36 337.49,140.84 
								330.17,140.82 							"/>
							<polygon class="st7" points="419.22,208.23 478.89,208.1 479.06,185.59 478.85,170.76 479.53,170.76 479.51,140.65 
								480.39,140.65 480.41,133.1 435.17,133.28 434.8,140.78 434.74,170.86 419.32,170.87 							"/>
							<polygon class="st8" points="419.22,208.23 478.89,208.09 479.06,185.59 478.85,170.76 479.53,170.75 479.51,140.65 
								480.39,140.65 480.41,133.1 435.17,133.28 434.8,140.78 434.74,170.86 419.32,170.87 							"/>
							<polygon class="st7" points="312.18,282.17 318.21,282.2 318.04,286.37 337.7,286.17 337.93,273.74 329.14,273.53 
								329.53,267.59 331.99,267.64 332.12,253.99 331.69,245.48 312.1,245.49 							"/>
							<polygon class="st8" points="312.18,282.17 318.21,282.2 318.04,286.37 337.7,286.17 337.93,273.74 329.14,273.52 
								329.53,267.59 331.99,267.64 332.12,253.98 331.69,245.48 312.1,245.49 							"/>
							<polygon class="st7" points="239.23,177.46 239.82,184.28 242.47,191.01 245.23,191.71 248.71,196.43 252.16,198.47 
								252.41,200.03 255.78,200.88 256.19,204.57 254.12,205.4 254.79,209.63 252.28,209.75 251.3,216.9 253.18,219.63 
								254.27,224.19 258.97,224.19 264.21,226 266.75,225.4 268.38,222.29 271.1,221.21 270.1,219.21 273.74,217.61 277.54,213.52 
								276.69,212.48 279.94,210.63 279.15,208.35 278.57,207.66 282.69,204.91 281.56,202.24 277.89,201.56 272.77,199.09 
								272.88,196.86 266.34,197.77 264.04,194.66 262.38,187.68 259.23,184.4 254.67,182.69 251.28,178.33 241.81,178.39 							
								"/>
							<polygon class="st8" points="239.23,177.45 239.82,184.28 242.47,191.01 245.23,191.71 248.71,196.42 252.16,198.47 
								252.41,200.03 255.78,200.88 256.19,204.57 254.12,205.4 254.79,209.63 252.28,209.75 251.31,216.9 253.18,219.62 
								254.27,224.19 258.97,224.19 264.21,226 266.75,225.4 268.38,222.29 271.1,221.21 270.1,219.21 273.74,217.61 277.54,213.52 
								276.69,212.48 279.95,210.63 279.15,208.35 278.57,207.66 282.69,204.91 281.56,202.24 277.89,201.56 272.77,199.09 
								272.88,196.86 266.34,197.77 264.04,194.66 262.38,187.68 259.23,184.39 254.67,182.69 251.28,178.33 241.81,178.39 							
								"/>
							<polygon class="st7" points="488.75,84 488.9,106.07 528.49,106.05 528.47,83.99 							"/>
							<polygon class="st8" points="488.75,84 488.9,106.07 528.49,106.05 528.47,83.99 							"/>
							<polygon class="st7" points="67.15,328.02 67.19,350.78 81.72,350.81 82.01,349.59 119,349.66 122.12,355.82 126.58,354.85 
								128.5,352.96 129.95,354.23 136.62,352.82 145.11,359.62 146.42,359.73 147.24,356.57 149.36,355.67 150.28,351.9 
								153.19,348.76 152.49,344.77 149.42,341.81 145.88,341.46 142.51,338.65 143.08,331.12 139.12,331.11 138.18,328.07 							
								"/>
							<polygon class="st8" points="67.15,328.01 67.19,350.78 81.72,350.81 82.01,349.59 119,349.66 122.12,355.82 126.58,354.85 
								128.5,352.96 129.95,354.23 136.62,352.82 145.11,359.61 146.42,359.73 147.24,356.57 149.36,355.67 150.28,351.9 
								153.19,348.76 152.49,344.77 149.42,341.81 145.88,341.46 142.51,338.65 143.08,331.12 139.12,331.11 138.18,328.07 							
								"/>
							<polygon class="st7" points="137.77,370.95 170.09,370.96 170.09,360.23 171.67,359.09 170.94,356.71 167.82,355.36 
								166.54,351.39 167.59,349.1 166.77,345.54 164.37,343.77 159.57,343.77 159.82,347.46 156,349.85 153.19,348.76 
								150.28,351.9 149.36,355.67 147.24,356.57 146.42,359.73 145.11,359.62 144.3,364.05 137.97,366.21 138.76,370.18 							"/>
							<polygon class="st8" points="137.77,370.95 170.09,370.96 170.09,360.23 171.67,359.09 170.94,356.71 167.82,355.36 
								166.54,351.39 167.59,349.1 166.77,345.54 164.37,343.77 159.57,343.77 159.82,347.46 156,349.85 153.19,348.76 
								150.28,351.9 149.36,355.67 147.24,356.57 146.42,359.73 145.11,359.61 144.3,364.05 137.97,366.21 138.76,370.18 							"/>
							<polygon class="st7" points="201.88,344.53 204.03,342.94 205.78,344.67 209.89,344.1 211.99,347.61 215.05,348.07 
								216.89,350.42 222.14,351.43 222.12,354.63 229.16,354.69 229.21,361.93 303.72,361.62 303.88,357.93 305.18,357.17 
								305.6,353.25 298.71,344.59 296.93,344.87 294.01,340.11 292.51,335.2 290.62,333.11 289.27,328.59 285.28,323.26 
								281.78,320.34 281.31,318.6 276.06,314.32 275.25,312.24 267.2,303.33 264.05,302.46 262.09,305.37 201.88,305.1 							"/>
							<polygon class="st8" points="201.88,344.52 204.03,342.93 205.78,344.67 209.89,344.1 211.99,347.61 215.05,348.06 
								216.89,350.42 222.14,351.43 222.12,354.63 229.16,354.69 229.21,361.93 303.72,361.62 303.88,357.93 305.18,357.17 
								305.6,353.25 298.71,344.59 296.93,344.87 294.01,340.11 292.51,335.2 290.62,333.11 289.27,328.59 285.28,323.26 
								281.78,320.34 281.31,318.6 276.06,314.32 275.25,312.24 267.2,303.33 264.05,302.46 262.1,305.37 201.88,305.09 							"/>
							<polygon class="st7" points="199.45,163.1 199.82,177.97 220.04,177.82 226.56,177.46 226.59,170.99 225.87,170.81 
								226.18,141.49 224.83,141.49 224.63,126.97 222.18,122.84 221.31,117.63 223.03,114.9 223.79,110.84 223.69,105.12 
								225.88,102.58 224.09,99.2 224.72,97.69 222.26,93.97 219.12,95.48 219.01,93.83 216.29,92.35 215.07,93.3 213.5,90.17 
								211.89,90.64 210.32,87.07 211.3,83.96 180.94,83.95 181.18,119.05 177.4,119.05 177.41,124.08 173.62,124.09 173.4,142.07 
								172.71,142.07 172.92,151.71 199.41,151.55 							"/>
							<polygon class="st8" points="199.45,163.1 199.82,177.97 220.04,177.82 226.56,177.46 226.59,170.99 225.87,170.81 
								226.18,141.49 224.83,141.49 224.63,126.97 222.18,122.84 221.31,117.63 223.03,114.9 223.79,110.84 223.69,105.12 
								225.88,102.58 224.09,99.2 224.72,97.69 222.26,93.97 219.12,95.48 219.01,93.83 216.3,92.35 215.07,93.3 213.5,90.17 
								211.89,90.64 210.32,87.07 211.3,83.96 180.94,83.94 181.18,119.04 177.4,119.04 177.41,124.07 173.62,124.09 173.4,142.07 
								172.71,142.07 172.92,151.71 199.41,151.55 							"/>
							<polygon class="st7" points="221,390.54 265.31,390.82 265.35,361.88 229.21,361.93 229.16,354.69 222.12,354.63 222,368.89 
								220.95,368.89 							"/>
							<polygon class="st8" points="221,390.54 265.31,390.82 265.35,361.88 229.21,361.93 229.16,354.69 222.12,354.63 222,368.89 
								220.95,368.89 							"/>
							<polygon class="st7" points="66.55,200.16 76.81,200.16 76.81,201.04 99.32,201.05 99.32,197.32 139.97,197.25 
								139.98,186.04 149.97,186.04 156.1,185.61 173.42,185.75 173.43,178.07 180.88,178.31 181,163.16 199.45,163.1 
								199.41,151.55 127.63,151.87 66.58,151.77 							"/>
							<polygon class="st8" points="66.55,200.16 76.81,200.16 76.81,201.04 99.32,201.05 99.32,197.32 139.97,197.25 
								139.98,186.04 149.97,186.04 156.1,185.61 173.42,185.75 173.43,178.07 180.88,178.31 181,163.16 199.45,163.1 
								199.41,151.55 127.63,151.87 66.58,151.77 							"/>
							<polygon class="st7" points="330.61,347.92 333,350.77 357.24,349.17 395.86,363.02 396.34,296.94 337.76,297.17 
								337.83,319.17 330.65,319.2 							"/>
							<polygon class="st8" points="330.61,347.92 333,350.77 357.24,349.17 395.86,363.02 396.34,296.94 337.76,297.17 
								337.83,319.17 330.65,319.2 							"/>
							<polygon class="st7" points="482.54,370.62 529.13,370.56 528.92,318.29 482.89,318.44 483.01,355.56 482.52,355.63 							
								"/>
							<polygon class="st8" points="482.54,370.62 529.13,370.56 528.92,318.29 482.89,318.44 483.01,355.55 482.52,355.63 							
								"/>
							<polygon class="st7" points="175.88,234.71 177.41,236.19 177.13,239.69 178.57,241.78 182.4,243.45 183.27,246.43 
								197.54,246.42 202.11,250.62 201.81,252.92 207.97,257.14 211.04,255.72 212.02,257.62 214.99,258.36 218.33,254.32 
								218.45,252.91 222.18,251.84 224.65,252.74 228.37,256.69 228.5,252.71 229.76,251.6 229.22,249.06 230.69,247.51 
								230.87,243.28 234.34,242.34 235.33,239.65 235.06,235.93 236.01,233.31 234.65,232.28 235.9,229.91 239.73,228.99 
								239.76,225.71 173.47,225.34 171.16,229.1 172.11,230.6 175.62,231.4 							"/>
							<polygon class="st8" points="175.88,234.71 177.41,236.19 177.13,239.69 178.57,241.78 182.4,243.45 183.27,246.43 
								197.54,246.42 202.11,250.62 201.81,252.92 207.97,257.14 211.04,255.72 212.02,257.62 214.99,258.36 218.33,254.32 
								218.45,252.91 222.18,251.83 224.65,252.74 228.37,256.68 228.5,252.71 229.76,251.6 229.22,249.06 230.69,247.51 
								230.87,243.28 234.34,242.34 235.33,239.65 235.06,235.93 236.01,233.31 234.65,232.28 235.9,229.91 239.73,228.99 
								239.76,225.71 173.47,225.34 171.16,229.1 172.11,230.6 175.62,231.4 							"/>
							<polygon class="st7" points="488.01,133.09 528.48,132.96 528.49,106.05 488.9,106.07 488.01,109.92 							"/>
							<polygon class="st8" points="488.01,133.09 528.48,132.96 528.49,106.05 488.9,106.07 488.01,109.92 							"/>
							<polygon class="st7" points="269.9,282.48 312.18,282.17 312.1,245.49 307.64,245.5 307.57,208.25 295.1,208.07 
								279.15,208.35 279.94,210.63 276.69,212.48 277.54,213.52 273.74,217.61 270.1,219.21 271.1,221.21 268.38,222.29 
								266.75,225.4 264.21,226 258.97,224.19 258.68,227.61 255.77,230.19 255.72,238.72 256.44,244.86 254.04,247.69 
								256.71,249.18 255.3,251.75 255.17,255.01 256.79,257.25 260.71,257.59 260.58,261.6 263.56,262.3 266.05,261.36 
								270.17,264.5 269.6,266.49 272.85,267.36 271.76,270.07 274.07,272.89 271.95,276.61 271.46,280.52 							"/>
							<polygon class="st8" points="269.9,282.48 312.18,282.17 312.1,245.49 307.64,245.5 307.57,208.25 295.1,208.07 
								279.15,208.35 279.95,210.63 276.69,212.48 277.54,213.52 273.74,217.61 270.1,219.21 271.1,221.21 268.38,222.29 
								266.75,225.4 264.21,226 258.97,224.19 258.68,227.61 255.77,230.19 255.72,238.72 256.44,244.86 254.04,247.69 
								256.71,249.17 255.3,251.75 255.17,255.01 256.79,257.25 260.71,257.58 260.58,261.6 263.56,262.29 266.05,261.36 
								270.17,264.5 269.61,266.48 272.85,267.36 271.76,270.07 274.07,272.89 271.95,276.61 271.46,280.52 							"/>
							<polygon class="st7" points="153.19,348.76 156,349.85 159.82,347.46 159.57,343.77 164.37,343.77 162.89,341.49 
								165.63,340.99 168.2,335.74 165.38,334.21 164.39,328.49 164.81,327.58 162.93,319.7 160.01,315.51 159.96,312.96 
								127.19,313.01 129.01,314.51 130.21,319.43 135.16,319.43 140.04,322.48 139.42,328.06 138.18,328.07 139.12,331.11 
								143.08,331.12 142.51,338.65 145.88,341.46 149.42,341.81 152.49,344.77 							"/>
							<polygon class="st8" points="153.19,348.76 156,349.85 159.82,347.46 159.57,343.77 164.37,343.77 162.89,341.49 
								165.63,340.98 168.2,335.74 165.38,334.21 164.39,328.49 164.81,327.58 162.93,319.7 160.01,315.51 159.96,312.96 
								127.19,313.01 129.01,314.51 130.21,319.43 135.16,319.42 140.04,322.47 139.42,328.06 138.18,328.07 139.12,331.11 
								143.08,331.12 142.51,338.65 145.88,341.46 149.42,341.81 152.49,344.77 							"/>
							<polygon class="st7" points="395.86,363.02 396.05,370.58 439.21,370.62 439.5,355.67 439.5,318.58 432.77,318.61 
								432.28,326.38 425.02,326.46 425.02,331.35 412.89,331.41 410.04,330.51 404.07,330.37 401.54,329.08 396.05,328.56 							
								"/>
							<polygon class="st8" points="395.86,363.02 396.05,370.57 439.21,370.62 439.5,355.66 439.5,318.57 432.77,318.61 
								432.28,326.38 425.02,326.46 425.02,331.35 412.89,331.41 410.04,330.51 404.07,330.36 401.54,329.08 396.05,328.56 							
								"/>
							<polygon class="st7" points="419.32,170.87 434.74,170.86 434.8,140.78 435.17,133.28 435.04,125.73 390.13,125.64 
								389.98,170.91 							"/>
							<polygon class="st8" points="419.32,170.87 434.74,170.86 434.8,140.78 435.17,133.28 435.04,125.73 390.13,125.64 
								389.98,170.91 							"/>
							<polygon class="st7" points="65.97,298.83 65.96,317.73 67.15,328.02 139.42,328.06 140.04,322.48 135.16,319.43 
								130.21,319.43 129.01,314.51 127.19,313.01 159.96,312.96 160.01,315.51 168.92,315.51 168.87,284.59 110.93,284.63 
								110.91,298.83 							"/>
							<polygon class="st8" points="65.97,298.82 65.96,317.73 67.15,328.01 139.42,328.06 140.04,322.47 135.16,319.42 
								130.21,319.43 129.01,314.51 127.19,313.01 159.96,312.96 160.01,315.51 168.92,315.51 168.87,284.59 110.93,284.63 
								110.9,298.82 							"/>
							<polygon class="st7" points="110.9,424.07 111.39,421.62 113.82,419.56 115.44,413.4 116.75,411.95 116.75,405.53 
								119.6,403.34 121.43,400.18 122.41,395.51 128.93,392.37 130.78,387.65 133.73,385.49 133.62,379.9 134.41,375 
								137.77,370.95 119.39,371.51 75.4,371.59 67.06,383.85 66.95,424.1 							"/>
							<polygon class="st8" points="110.9,424.07 111.39,421.62 113.82,419.56 115.44,413.4 116.75,411.95 116.75,405.53 
								119.6,403.34 121.43,400.17 122.41,395.51 128.93,392.37 130.78,387.65 133.73,385.49 133.62,379.9 134.41,375 
								137.77,370.95 119.39,371.51 75.4,371.59 67.06,383.85 66.95,424.1 							"/>
							<polygon class="st7" points="66.58,151.77 172.92,151.71 172.71,142.07 173.4,142.07 173.62,124.09 177.41,124.08 
								177.4,119.05 181.18,119.05 180.94,83.95 66.62,84.14 							"/>
							<polygon class="st8" points="66.58,151.77 172.92,151.71 172.71,142.07 173.4,142.07 173.62,124.09 177.41,124.07 
								177.4,119.04 181.18,119.04 180.94,83.94 66.62,84.14 							"/>
							<polygon class="st7" points="193.42,388.98 193.42,391.52 221,391.2 220.95,368.89 222,368.89 222.14,351.43 216.89,350.42 
								215.05,348.07 211.99,347.61 209.89,344.1 205.78,344.67 204.03,342.94 201.88,344.53 197.44,344.08 192.79,345.96 
								192.85,355.16 192.34,367.96 193.74,368 							"/>
							<polygon class="st8" points="193.42,388.98 193.42,391.52 221,391.2 220.95,368.89 222,368.89 222.14,351.43 216.89,350.42 
								215.05,348.06 211.99,347.61 209.89,344.1 205.78,344.67 204.03,342.93 201.88,344.52 197.44,344.08 192.79,345.96 
								192.85,355.16 192.34,367.96 193.74,368 							"/>
							<polygon class="st7" points="110.93,284.63 110.92,271 126.66,264.25 130.19,259.25 129.67,258.24 136.77,252.02 
								145.25,249.7 151.4,252.84 156.41,249.11 159.84,244.45 168.88,237.98 172.15,236.89 173.56,234.63 175.88,234.71 
								175.62,231.4 172.11,230.6 171.16,229.1 173.47,225.34 66.58,225.3 65.97,298.83 110.91,298.83 							"/>
							<polygon class="st8" points="110.93,284.63 110.92,271 126.66,264.25 130.19,259.25 129.67,258.24 136.77,252.02 
								145.25,249.7 151.4,252.84 156.41,249.1 159.84,244.44 168.88,237.98 172.15,236.89 173.56,234.63 175.88,234.71 
								175.62,231.4 172.11,230.6 171.16,229.1 173.47,225.34 66.58,225.29 65.97,298.82 110.9,298.82 							"/>
							<polygon class="st7" points="435.17,133.28 488.01,133.09 488.01,109.92 488.9,106.07 488.75,84 427.97,84.05 428,110.21 
								427.6,110.2 427.49,125.72 435.04,125.73 							"/>
							<polygon class="st8" points="435.17,133.28 488.01,133.09 488.01,109.92 488.9,106.07 488.75,84 427.97,84.05 428,110.21 
								427.6,110.2 427.49,125.72 435.04,125.73 							"/>
							<polygon class="st7" points="396.23,267.64 396.34,296.94 425.43,296.92 432.58,297.44 432.58,296.83 454.48,296.69 
								454.48,289.33 455.05,282.77 455.13,253.32 455.64,245.64 455.7,208.28 418.74,208.23 418.68,245.61 418.29,245.61 
								418.39,267.82 							"/>
							<polygon class="st8" points="396.23,267.64 396.34,296.94 425.43,296.92 432.58,297.44 432.58,296.83 454.48,296.69 
								454.48,289.33 455.05,282.77 455.13,253.32 455.64,245.64 455.7,208.28 418.74,208.23 418.68,245.61 418.29,245.61 
								418.39,267.82 							"/>
							<polygon class="st7" points="323.67,424.42 377.54,424.56 460.2,424 460.44,392.42 460.96,392.41 460.88,370.63 
								396.05,370.58 395.86,363.02 376.72,356.11 369.75,361.92 369.87,362.51 363.7,373.47 363.68,376.36 358.96,380.07 
								357.05,382.96 353.96,383.87 354.02,387.57 350.47,390.31 341.54,392.07 337.42,391.59 334.2,392.92 331.48,395.74 
								326.29,399.5 323.73,399.76 							"/>
							<polygon class="st8" points="323.67,424.41 377.54,424.56 460.2,424 460.44,392.41 460.96,392.41 460.88,370.63 
								396.05,370.57 395.86,363.02 376.72,356.11 369.75,361.92 369.87,362.51 363.7,373.47 363.68,376.36 358.96,380.07 
								357.05,382.96 353.96,383.87 354.02,387.57 350.47,390.3 341.54,392.07 337.42,391.59 334.2,392.92 331.48,395.74 
								326.29,399.5 323.73,399.76 							"/>
							<polygon class="st7" points="255.33,84.41 255.68,89.97 258.89,92.77 259.53,95.59 264.1,100.17 271.31,115.39 
								273.79,121.99 273.77,125.83 276.37,125.86 277.48,128.94 280.55,129.92 280.1,134.56 282.92,139.51 287.59,142.98 
								288.87,147.44 290.79,148.5 308.1,148.73 314.8,148.31 330.26,148.37 330.17,140.82 337.49,140.84 337.64,84.36 							"/>
							<polygon class="st8" points="255.33,84.41 255.68,89.97 258.89,92.77 259.53,95.59 264.1,100.17 271.31,115.39 
								273.79,121.99 273.77,125.83 276.37,125.86 277.48,128.94 280.55,129.92 280.1,134.56 282.92,139.51 287.59,142.98 
								288.87,147.44 290.79,148.5 308.1,148.73 314.8,148.31 330.26,148.36 330.17,140.82 337.49,140.84 337.64,84.36 							"/>
							<polygon class="st7" points="229.76,251.6 255.3,251.75 256.71,249.18 254.04,247.69 256.44,244.86 255.72,238.72 
								255.77,230.19 258.68,227.61 258.97,224.19 254.27,224.19 249.18,226.76 244.7,226.41 241.47,224.07 239.76,225.71 
								239.73,228.99 235.9,229.91 234.65,232.28 236.01,233.31 235.06,235.93 235.33,239.65 234.34,242.34 230.87,243.28 
								230.69,247.51 229.22,249.06 							"/>
							<polygon class="st8" points="229.76,251.6 255.3,251.75 256.71,249.17 254.04,247.69 256.44,244.86 255.72,238.72 
								255.77,230.19 258.68,227.61 258.97,224.19 254.27,224.19 249.18,226.76 244.7,226.4 241.47,224.07 239.76,225.71 
								239.73,228.99 235.9,229.91 234.65,232.28 236.01,233.31 235.06,235.93 235.33,239.65 234.34,242.34 230.87,243.28 
								230.69,247.51 229.22,249.06 							"/>
							<polygon class="st7" points="110.9,424.07 170.13,424.03 170.09,370.96 137.77,370.95 134.41,375 133.62,379.9 
								133.73,385.49 130.78,387.65 128.93,392.37 122.41,395.51 121.43,400.18 119.6,403.34 116.75,405.53 116.75,411.95 
								115.44,413.4 113.82,419.56 111.39,421.62 							"/>
							<polygon class="st8" points="110.9,424.07 170.13,424.03 170.09,370.96 137.77,370.95 134.41,375 133.62,379.9 
								133.73,385.49 130.78,387.65 128.93,392.37 122.41,395.51 121.43,400.17 119.6,403.34 116.75,405.53 116.75,411.95 
								115.44,413.4 113.82,419.56 111.39,421.62 							"/>
							<polygon class="st7" points="455.13,253.32 528.8,252.52 528.59,207.56 455.7,208.28 455.64,245.64 							"/>
							<polygon class="st8" points="455.13,253.32 528.8,252.52 528.59,207.56 455.7,208.28 455.64,245.64 							"/>
							<polygon class="st7" points="432.58,297.44 432.43,312.11 432.77,318.61 528.92,318.29 528.9,289.1 466.63,289.1 
								454.48,289.33 454.48,296.69 432.58,296.83 							"/>
							<polygon class="st8" points="432.58,297.44 432.43,312.11 432.77,318.61 528.92,318.29 528.9,289.1 466.63,289.1 
								454.48,289.33 454.48,296.69 432.58,296.83 							"/>
							<polygon class="st7" points="307.57,208.25 307.64,245.5 312.2,245.49 316.5,237.03 319.56,234.35 322.84,225.94 
								322.58,221.87 325.73,219.56 325,216.43 327.75,214.95 328.77,210.75 330.69,208.25 330.38,203.51 326.73,203.27 
								330.4,199.53 330.4,178.41 329.17,179.61 324.19,178.4 325.4,180.47 323.01,180.36 324.18,178.4 307.64,178.49 							"/>
							<polygon class="st8" points="307.57,208.25 307.64,245.5 312.2,245.49 316.51,237.03 319.56,234.34 322.84,225.94 
								322.58,221.87 325.73,219.56 325,216.43 327.75,214.95 328.77,210.75 330.69,208.25 330.38,203.51 326.73,203.26 
								330.4,199.53 330.4,178.41 329.17,179.61 324.19,178.4 325.4,180.47 323.01,180.36 324.18,178.4 307.64,178.49 							"/>
							<polygon class="st7" points="211.3,83.96 210.32,87.07 211.89,90.64 213.5,90.17 215.07,93.3 216.29,92.35 219.01,93.83 
								219.12,95.48 222.26,93.97 224.72,97.69 224.09,99.2 225.88,102.58 223.69,105.12 223.79,110.84 223.03,114.9 221.31,117.63 
								222.18,122.84 224.63,126.97 224.87,132.51 227.5,138.21 233.15,137.81 235.59,135.42 238.65,141.06 244.56,140.11 
								247.31,142.47 250.37,139.81 252.72,143.06 256.38,141.35 258.05,142.32 266.68,138.74 270.39,140.92 273.15,136.27 
								274.17,136.53 275.05,129.78 277.48,128.94 276.37,125.86 273.77,125.83 273.79,121.99 271.31,115.39 264.1,100.17 
								259.53,95.59 258.89,92.77 255.68,89.97 255.33,84.41 238.9,84.03 							"/>
							<polygon class="st8" points="211.3,83.96 210.32,87.07 211.89,90.64 213.5,90.17 215.07,93.3 216.3,92.35 219.01,93.83 
								219.12,95.48 222.26,93.97 224.72,97.69 224.09,99.2 225.88,102.58 223.69,105.12 223.79,110.84 223.03,114.9 221.31,117.63 
								222.18,122.84 224.63,126.97 224.88,132.51 227.5,138.21 233.15,137.81 235.59,135.42 238.65,141.06 244.56,140.11 
								247.31,142.47 250.37,139.81 252.72,143.06 256.38,141.35 258.05,142.32 266.68,138.74 270.39,140.92 273.15,136.27 
								274.17,136.53 275.05,129.78 277.48,128.94 276.37,125.86 273.77,125.83 273.79,121.99 271.31,115.39 264.1,100.17 
								259.53,95.59 258.89,92.77 255.68,89.97 255.33,84.41 238.9,84.02 							"/>
							<polygon class="st7" points="301.86,376.09 304.71,373.27 308.07,372.72 309.46,370.97 314.39,369.72 318.33,372.52 
								321.52,372.61 319.5,375.72 322.07,378.52 322.33,386.21 323.59,386.14 325.28,389.92 322.92,391.82 323.04,400.09 
								323.73,399.76 326.29,399.5 331.48,395.74 334.2,392.92 337.42,391.59 341.54,392.07 350.47,390.31 354.02,387.57 
								353.96,383.87 357.05,382.96 358.96,380.07 363.68,376.36 363.7,373.47 369.87,362.51 369.75,361.92 376.72,356.11 
								357.24,349.17 333,350.77 330.61,347.92 328.33,344.58 325.59,344.93 324.13,340.32 321.06,340.21 319.69,343.31 
								317.5,344.85 315.09,349.26 312.98,345.95 306.61,350.01 302.67,349.55 305.6,353.25 305.18,357.17 303.88,357.93 
								303.72,361.62 302.4,365.27 302.4,368.77 300.82,374.37 							"/>
							<polygon class="st8" points="301.86,376.09 304.71,373.27 308.07,372.72 309.46,370.97 314.39,369.72 318.33,372.52 
								321.52,372.61 319.5,375.71 322.07,378.52 322.33,386.21 323.59,386.14 325.28,389.91 322.92,391.82 323.04,400.09 
								323.73,399.76 326.29,399.5 331.48,395.74 334.2,392.92 337.42,391.59 341.54,392.07 350.47,390.3 354.02,387.57 
								353.96,383.87 357.05,382.96 358.96,380.07 363.68,376.36 363.7,373.47 369.87,362.51 369.75,361.92 376.72,356.11 
								357.24,349.17 333,350.77 330.61,347.92 328.33,344.58 325.59,344.93 324.13,340.32 321.06,340.21 319.69,343.31 
								317.5,344.85 315.09,349.26 312.98,345.95 306.61,350 302.67,349.55 305.6,353.25 305.18,357.17 303.88,357.93 
								303.72,361.62 302.4,365.27 302.4,368.77 300.82,374.37 							"/>
							<polygon class="st7" points="164.37,343.77 166.77,345.54 167.59,349.1 166.54,351.39 167.82,355.36 170.94,356.71 
								171.67,359.09 170.09,360.23 170.1,389 193.42,388.98 193.74,368 192.34,367.96 192.85,355.16 192.79,345.96 197.44,344.08 
								201.88,344.53 201.84,328.51 164.39,328.49 165.38,334.21 168.2,335.74 165.63,340.99 162.89,341.49 							"/>
							<polygon class="st8" points="164.37,343.77 166.77,345.54 167.59,349.1 166.54,351.39 167.82,355.36 170.94,356.71 
								171.67,359.09 170.09,360.23 170.1,389 193.42,388.98 193.74,368 192.34,367.96 192.85,355.16 192.79,345.96 197.44,344.08 
								201.88,344.52 201.84,328.51 164.39,328.49 165.38,334.21 168.2,335.74 165.63,340.98 162.89,341.49 							"/>
							<polygon class="st7" points="160.01,315.51 162.93,319.7 164.81,327.58 164.39,328.49 201.84,328.51 201.88,305.1 
								251.62,305.33 247.35,299.26 246.1,299.36 244.53,296.01 245.17,293.04 242.84,287.13 239.56,286.06 238.07,282.04 
								240.36,279.76 240.52,273.51 246.73,265.35 246.39,264.07 241.37,264.1 240.07,262.62 237.22,264.12 233.03,259.92 
								231.34,256.63 228.37,256.69 224.65,252.74 222.18,251.84 218.45,252.91 218.33,254.32 214.99,258.36 212.02,257.62 
								211.04,255.72 207.97,257.14 201.81,252.92 202.11,250.62 197.54,246.42 183.27,246.43 182.4,243.45 178.57,241.78 
								177.13,239.69 177.41,236.19 175.88,234.71 173.56,234.63 172.15,236.89 168.88,237.98 168.92,315.51 							"/>
							<polygon class="st8" points="160.01,315.51 162.93,319.7 164.81,327.58 164.39,328.49 201.84,328.51 201.88,305.09 
								251.62,305.33 247.35,299.25 246.1,299.36 244.53,296.01 245.17,293.04 242.84,287.13 239.56,286.06 238.07,282.04 
								240.36,279.76 240.52,273.51 246.73,265.35 246.39,264.07 241.37,264.1 240.07,262.62 237.22,264.12 233.03,259.92 
								231.34,256.63 228.37,256.68 224.65,252.74 222.18,251.83 218.45,252.91 218.33,254.32 214.99,258.36 212.02,257.62 
								211.04,255.72 207.97,257.14 201.81,252.92 202.11,250.62 197.54,246.42 183.27,246.43 182.4,243.45 178.57,241.78 
								177.13,239.69 177.41,236.19 175.88,234.71 173.56,234.63 172.15,236.89 168.88,237.98 168.92,315.51 							"/>
							<polygon class="st7" points="224.87,132.51 224.83,141.49 226.18,141.49 225.87,170.81 226.59,170.99 226.56,177.46 
								239.23,177.46 241.81,178.39 251.28,178.33 254.67,182.69 259.23,184.4 262.38,187.68 264.04,194.66 266.34,197.77 
								272.88,196.86 275.58,193.6 275.34,188.45 279.59,189.43 281.17,187.9 285.3,187.78 288.34,183.72 287.73,180.33 
								289.3,176.81 288.15,176.04 288.39,169.65 291.75,167.65 291.9,158.36 289.84,157.34 289.18,154.73 290.79,148.5 
								288.87,147.44 287.59,142.98 282.92,139.51 280.1,134.56 280.55,129.92 277.48,128.94 275.05,129.78 274.17,136.53 
								273.15,136.27 270.39,140.92 266.68,138.74 258.05,142.32 256.38,141.35 252.72,143.06 250.37,139.81 247.31,142.47 
								244.56,140.11 238.65,141.06 235.59,135.42 233.15,137.81 227.5,138.21 							"/>
							<polygon class="st8" points="224.88,132.51 224.83,141.49 226.18,141.49 225.87,170.81 226.59,170.99 226.56,177.46 
								239.23,177.45 241.81,178.39 251.28,178.33 254.67,182.69 259.23,184.39 262.38,187.68 264.04,194.66 266.34,197.77 
								272.88,196.86 275.58,193.6 275.34,188.45 279.59,189.43 281.17,187.9 285.3,187.78 288.34,183.72 287.73,180.33 
								289.3,176.81 288.15,176.04 288.39,169.65 291.75,167.64 291.9,158.36 289.84,157.34 289.18,154.73 290.79,148.5 
								288.87,147.44 287.59,142.98 282.92,139.51 280.1,134.56 280.55,129.92 277.48,128.94 275.05,129.78 274.17,136.53 
								273.15,136.27 270.39,140.92 266.68,138.74 258.05,142.32 256.38,141.35 252.72,143.06 250.37,139.81 247.31,142.47 
								244.56,140.11 238.65,141.06 235.59,135.42 233.15,137.81 227.5,138.21 							"/>
							<polygon class="st7" points="288.34,183.72 292.12,184.47 301.11,191.82 307.64,192.74 307.61,176.59 289.3,176.81 
								287.73,180.33 							"/>
							<polygon class="st8" points="288.34,183.72 292.12,184.47 301.11,191.82 307.64,192.73 307.61,176.59 289.3,176.81 
								287.73,180.33 							"/>
							<polygon class="st7" points="66.54,214.1 66.58,225.3 194.43,225.35 194.41,177.95 199.82,177.97 199.45,163.1 181,163.16 
								180.88,178.31 173.43,178.07 173.42,185.75 156.1,185.61 149.97,186.04 139.98,186.04 139.97,197.25 99.32,197.32 
								99.32,201.05 76.81,201.04 76.81,200.16 66.55,200.16 							"/>
							<polygon class="st8" points="66.54,214.1 66.58,225.29 194.43,225.34 194.41,177.95 199.82,177.97 199.45,163.1 181,163.16 
								180.88,178.31 173.43,178.07 173.42,185.75 156.1,185.61 149.97,186.04 139.98,186.04 139.97,197.25 99.32,197.32 
								99.32,201.05 76.81,201.04 76.81,200.16 66.55,200.16 							"/>
							<polygon class="st7" points="281.31,318.6 294.83,318.62 314.35,319.18 337.83,319.17 337.7,286.17 318.04,286.37 
								318.21,282.2 269.9,282.48 272.78,283.64 273.47,287.85 275.88,289.77 273.93,298.35 272,298.53 267.2,303.33 275.25,312.24 
								276.06,314.32 							"/>
							<polygon class="st8" points="281.31,318.6 294.83,318.62 314.35,319.18 337.83,319.17 337.7,286.17 318.04,286.37 
								318.21,282.2 269.9,282.48 272.78,283.64 273.47,287.84 275.88,289.77 273.93,298.35 272,298.53 267.2,303.33 275.25,312.24 
								276.06,314.32 							"/>
							<polygon class="st7" points="396.23,267.64 418.39,267.82 418.29,245.61 418.68,245.61 418.74,208.23 374.75,208.44 
								356.31,208.27 356.14,245.5 396.5,245.61 							"/>
							<polygon class="st8" points="396.23,267.64 418.39,267.82 418.29,245.61 418.68,245.61 418.74,208.23 374.75,208.44 
								356.31,208.27 356.14,245.5 396.5,245.61 							"/>
							<polygon class="st7" points="331.69,245.48 332.12,253.99 331.99,267.64 329.53,267.59 329.14,273.53 337.93,273.74 
								337.76,297.17 396.34,296.94 396.23,267.64 396.5,245.61 							"/>
							<polygon class="st8" points="331.69,245.48 332.12,253.98 331.99,267.64 329.53,267.59 329.14,273.52 337.93,273.74 
								337.76,297.17 396.34,296.94 396.23,267.64 396.5,245.61 							"/>
							<polygon class="st7" points="239.76,225.71 241.47,224.07 244.7,226.41 249.18,226.76 254.27,224.19 253.18,219.63 
								251.3,216.9 252.28,209.75 254.79,209.63 254.12,205.4 256.19,204.57 255.78,200.88 252.41,200.03 252.16,198.47 
								248.71,196.43 245.23,191.71 242.47,191.01 239.82,184.28 239.23,177.46 194.41,177.95 194.43,225.35 							"/>
							<polygon class="st8" points="239.76,225.71 241.47,224.07 244.7,226.4 249.18,226.76 254.27,224.19 253.18,219.62 
								251.31,216.9 252.28,209.75 254.79,209.63 254.12,205.4 256.19,204.57 255.78,200.88 252.41,200.03 252.16,198.47 
								248.71,196.42 245.23,191.71 242.47,191.01 239.82,184.28 239.23,177.45 194.41,177.95 194.43,225.34 							"/>
							<polygon class="st7" points="312.2,245.49 356.14,245.5 356.31,208.27 330.69,208.25 328.77,210.75 327.75,214.95 
								325,216.43 325.73,219.56 322.58,221.87 322.84,225.94 319.56,234.35 316.5,237.03 							"/>
							<polygon class="st8" points="312.2,245.49 356.14,245.5 356.31,208.27 330.69,208.25 328.77,210.75 327.75,214.95 
								325,216.43 325.73,219.56 322.58,221.87 322.84,225.94 319.56,234.34 316.51,237.03 							"/>
							<polygon class="st7" points="137.77,370.95 138.76,370.18 137.97,366.21 144.3,364.05 145.11,359.62 136.62,352.82 
								129.95,354.23 128.5,352.96 126.58,354.85 122.12,355.82 119,349.66 82.01,349.59 81.72,350.81 67.19,350.78 67.06,383.85 
								75.4,371.59 119.39,371.51 							"/>
							<polygon class="st8" points="137.77,370.95 138.76,370.18 137.97,366.21 144.3,364.05 145.11,359.61 136.62,352.82 
								129.95,354.23 128.5,352.96 126.58,354.85 122.12,355.82 119,349.66 82.01,349.59 81.72,350.81 67.19,350.78 67.06,383.85 
								75.4,371.59 119.39,371.51 							"/>
							<polygon class="st7" points="330.38,202.64 331.61,202.47 332.86,198.6 338.39,200.8 339.62,203.28 343.95,200.48 
								340.27,199.56 342.44,196.91 341.51,193.33 345.24,190.5 351.42,190.84 351.44,188.33 349.57,186.22 358.99,185.89 
								358.99,181.85 360.27,179.64 353.34,179.05 351.61,179.72 351.58,184.32 347.71,184.58 347.68,188.33 330.4,188.95 
								330.4,199.53 326.73,203.27 330.38,203.51 							"/>
							<polygon class="st8" points="330.38,202.64 331.61,202.47 332.86,198.6 338.39,200.8 339.62,203.28 343.95,200.48 
								340.27,199.55 342.44,196.9 341.51,193.33 345.24,190.49 351.42,190.84 351.44,188.33 349.57,186.22 358.99,185.89 
								358.99,181.85 360.27,179.64 353.34,179.05 351.61,179.72 351.58,184.32 347.71,184.58 347.68,188.33 330.4,188.95 
								330.4,199.53 326.73,203.26 330.38,203.51 							"/>
							<polygon class="st7" points="168.87,284.59 168.88,237.98 159.84,244.45 156.41,249.11 151.4,252.84 145.25,249.7 
								136.77,252.02 129.67,258.24 130.19,259.25 126.66,264.25 110.92,271 110.93,284.63 							"/>
							<polygon class="st8" points="168.87,284.59 168.88,237.98 159.84,244.44 156.41,249.1 151.4,252.84 145.25,249.7 
								136.77,252.02 129.67,258.24 130.19,259.25 126.66,264.25 110.92,271 110.93,284.63 							"/>
							<polygon class="st7" points="302.67,349.55 306.61,350.01 312.98,345.95 315.09,349.26 317.5,344.85 319.69,343.31 
								321.06,340.21 324.13,340.32 325.59,344.93 328.33,344.58 330.61,347.92 330.65,319.2 314.35,319.18 294.83,318.62 
								281.31,318.6 281.78,320.34 285.28,323.26 289.27,328.59 290.62,333.11 292.51,335.2 294.01,340.11 296.93,344.87 
								298.71,344.59 							"/>
							<polygon class="st8" points="302.67,349.55 306.61,350 312.98,345.95 315.09,349.26 317.5,344.85 319.69,343.31 
								321.06,340.21 324.13,340.32 325.59,344.93 328.33,344.58 330.61,347.92 330.65,319.2 314.35,319.18 294.83,318.62 
								281.31,318.6 281.78,320.34 285.28,323.26 289.27,328.59 290.62,333.11 292.51,335.2 294.01,340.11 296.93,344.87 
								298.71,344.59 							"/>
							<polygon class="st7" points="432.77,318.61 432.43,312.11 432.58,297.44 425.43,296.92 396.34,296.94 396.05,328.56 
								401.54,329.08 404.07,330.37 410.04,330.51 412.89,331.41 425.02,331.35 425.02,326.46 432.28,326.38 							"/>
							<polygon class="st8" points="432.77,318.61 432.43,312.11 432.58,297.44 425.43,296.92 396.34,296.94 396.05,328.56 
								401.54,329.08 404.07,330.36 410.04,330.51 412.89,331.41 425.02,331.35 425.02,326.46 432.28,326.38 							"/>
							<polygon class="st7" points="284.85,394.47 284.18,395.56 286.35,400.39 284.66,403.53 285.73,409.19 284.49,412.83 
								284.95,415.76 283.04,418.92 283.61,421.79 286.49,424.37 323.67,424.42 323.73,399.76 323.04,400.09 322.92,391.82 
								325.28,389.92 323.59,386.14 322.33,386.21 322.07,378.52 319.5,375.72 321.52,372.61 318.33,372.52 314.39,369.72 
								309.46,370.97 308.07,372.72 304.71,373.27 							"/>
							<polygon class="st8" points="284.85,394.47 284.18,395.56 286.35,400.39 284.66,403.53 285.73,409.19 284.49,412.83 
								284.95,415.76 283.04,418.92 283.61,421.79 286.49,424.37 323.67,424.41 323.73,399.76 323.04,400.09 322.92,391.82 
								325.28,389.91 323.59,386.14 322.33,386.21 322.07,378.52 319.5,375.71 321.52,372.61 318.33,372.52 314.39,369.72 
								309.46,370.97 308.07,372.72 304.71,373.27 							"/>
							<polygon class="st7" points="236.48,424.54 286.49,424.37 283.61,421.79 283.04,418.92 284.95,415.76 284.49,412.83 
								285.73,409.19 284.66,403.53 286.35,400.39 284.18,395.56 284.85,394.47 265.34,394.47 265.31,390.82 223.14,390.59 
								223.14,405.11 228.48,407.89 229.03,412.43 							"/>
							<polygon class="st8" points="236.48,424.54 286.49,424.37 283.61,421.79 283.04,418.92 284.95,415.76 284.49,412.83 
								285.73,409.19 284.66,403.53 286.35,400.39 284.18,395.56 284.85,394.47 265.34,394.46 265.31,390.82 223.14,390.59 
								223.14,405.11 228.48,407.89 229.03,412.43 							"/>
							<polygon class="st7" points="279.15,208.35 295.1,208.07 307.57,208.25 307.64,192.74 301.11,191.82 292.12,184.47 
								288.34,183.72 285.3,187.78 281.17,187.9 279.59,189.43 275.34,188.45 275.58,193.6 272.88,196.86 272.77,199.09 
								277.89,201.56 281.56,202.24 282.69,204.91 278.57,207.66 							"/>
							<polygon class="st8" points="279.15,208.35 295.1,208.07 307.57,208.25 307.64,192.73 301.11,191.82 292.12,184.47 
								288.34,183.72 285.3,187.78 281.17,187.9 279.59,189.43 275.34,188.45 275.58,193.6 272.88,196.86 272.77,199.09 
								277.89,201.56 281.56,202.24 282.69,204.91 278.57,207.66 							"/>
							<polygon class="st7" points="528.9,289.1 528.8,252.52 455.13,253.32 455.05,282.77 454.48,289.33 466.63,289.1 							"/>
							<polygon class="st8" points="528.9,289.1 528.8,252.52 455.13,253.32 455.05,282.77 454.48,289.33 466.63,289.1 							"/>
							<polygon class="st7" points="251.62,305.33 262.09,305.37 264.05,302.46 267.2,303.33 272,298.53 273.93,298.35 
								275.88,289.77 273.47,287.85 272.78,283.64 269.9,282.48 271.46,280.52 271.95,276.61 274.07,272.89 271.76,270.07 
								272.85,267.36 269.6,266.49 270.17,264.5 266.05,261.36 263.56,262.3 260.58,261.6 260.71,257.59 256.79,257.25 
								255.17,255.01 255.3,251.75 229.76,251.6 228.5,252.71 228.37,256.69 231.34,256.63 233.03,259.92 237.22,264.12 
								240.07,262.62 241.37,264.1 246.39,264.07 246.73,265.35 240.52,273.51 240.36,279.76 238.07,282.04 239.56,286.06 
								242.84,287.13 245.17,293.04 244.53,296.01 246.1,299.36 247.35,299.26 							"/>
							<polygon class="st8" points="251.62,305.33 262.1,305.37 264.05,302.46 267.2,303.33 272,298.53 273.93,298.35 
								275.88,289.77 273.47,287.84 272.78,283.64 269.9,282.48 271.46,280.52 271.95,276.61 274.07,272.89 271.76,270.07 
								272.85,267.36 269.61,266.48 270.17,264.5 266.05,261.36 263.56,262.29 260.58,261.6 260.71,257.58 256.79,257.25 
								255.17,255.01 255.3,251.75 229.76,251.6 228.5,252.71 228.37,256.68 231.34,256.63 233.03,259.92 237.22,264.12 
								240.07,262.62 241.37,264.1 246.39,264.07 246.73,265.35 240.52,273.51 240.36,279.76 238.07,282.04 239.56,286.06 
								242.84,287.13 245.17,293.04 244.53,296.01 246.1,299.36 247.35,299.25 							"/>
							<polygon class="st7" points="324.18,178.4 323.01,180.36 325.4,180.47 324.19,178.4 329.17,179.61 330.4,178.41 
								332.9,177.76 332.87,172.61 334.73,173.06 336.45,170.96 336.46,167.18 333.96,168.76 334.69,170.32 330.42,170.96 
								330.42,172.92 327.92,176.47 326.07,175.88 							"/>
							<polygon class="st8" points="324.18,178.4 323.01,180.36 325.4,180.47 324.19,178.4 329.17,179.61 330.4,178.41 
								332.9,177.76 332.87,172.61 334.73,173.06 336.45,170.96 336.46,167.18 333.96,168.75 334.69,170.32 330.42,170.96 
								330.42,172.92 327.92,176.46 326.07,175.88 							"/>
							<polygon class="st7" points="307.64,178.49 324.18,178.4 326.07,175.88 327.92,176.47 330.42,172.92 330.26,148.37 
								314.8,148.31 308.1,148.73 290.79,148.5 289.18,154.73 289.84,157.34 291.9,158.36 291.75,167.65 288.39,169.65 
								288.15,176.04 289.3,176.81 307.61,176.59 							"/>
							<polygon class="st8" points="307.64,178.49 324.18,178.4 326.07,175.88 327.92,176.46 330.42,172.92 330.26,148.36 
								314.8,148.31 308.1,148.73 290.79,148.5 289.18,154.73 289.84,157.34 291.9,158.36 291.75,167.64 288.39,169.65 
								288.15,176.04 289.3,176.81 307.61,176.59 							"/>
							<polygon class="st7" points="460.88,370.63 482.54,370.62 482.52,355.63 483.01,355.56 482.89,318.44 439.5,318.58 
								439.5,355.67 439.21,370.62 							"/>
							<polygon class="st8" points="460.88,370.63 482.54,370.62 482.52,355.63 483.01,355.55 482.89,318.44 439.5,318.57 
								439.5,355.66 439.21,370.62 							"/>
							<polygon class="st7" points="460.2,424 478.09,424.04 485.81,424.42 529.1,424.61 529.13,370.56 460.88,370.63 
								460.96,392.41 460.44,392.42 							"/>
							<polygon class="st8" points="460.2,424 478.09,424.04 485.81,424.42 529.1,424.6 529.13,370.56 460.88,370.63 460.96,392.41 
								460.44,392.41 							"/>
							<polygon class="st7" points="170.13,424.03 210.01,424.02 210.51,424.65 236.48,424.54 229.03,412.43 228.48,407.89 
								223.14,405.11 223.14,390.59 221,390.54 221,391.2 193.42,391.52 193.42,388.98 170.1,389 							"/>
							<polygon class="st8" points="170.13,424.03 210.01,424.02 210.51,424.65 236.48,424.54 229.03,412.43 228.48,407.89 
								223.14,405.11 223.14,390.59 221,390.54 221,391.2 193.42,391.52 193.42,388.98 170.1,389 							"/>
							<polygon class="st7" points="330.38,202.95 330.69,208.25 374.75,208.44 419.22,208.23 419.25,193.35 367.59,193.52 
								341.51,193.33 342.44,196.91 340.27,199.56 343.95,200.48 339.62,203.28 338.39,200.8 332.86,198.6 331.61,202.47 
								330.38,202.64 							"/>
							<polygon class="st8" points="330.38,202.95 330.69,208.25 374.75,208.44 419.22,208.23 419.25,193.35 367.59,193.51 
								341.51,193.33 342.44,196.9 340.27,199.55 343.95,200.48 339.62,203.28 338.39,200.8 332.86,198.6 331.61,202.47 
								330.38,202.64 							"/>
							<polygon class="st7" points="265.31,390.82 265.34,394.47 284.85,394.47 301.15,377.26 301.86,376.09 300.82,374.37 
								302.4,368.77 302.4,365.27 303.72,361.62 265.35,361.88 							"/>
							<polygon class="st8" points="265.31,390.82 265.34,394.46 284.85,394.47 301.15,377.26 301.86,376.09 300.82,374.37 
								302.4,368.77 302.4,365.27 303.72,361.62 265.35,361.88 							"/>
							<polygon class="st7" points="341.51,193.33 367.59,193.52 419.25,193.35 419.32,170.87 336.45,170.96 334.73,173.06 
								332.87,172.61 332.9,177.76 330.4,178.41 330.4,188.95 347.68,188.33 347.71,184.58 351.58,184.32 351.61,179.72 
								353.34,179.05 360.27,179.64 358.99,181.85 358.99,185.89 349.57,186.22 351.44,188.33 351.42,190.84 345.24,190.5 							
								"/>
							<polygon class="st8" points="341.51,193.33 367.59,193.51 419.25,193.35 419.32,170.87 336.45,170.96 334.73,173.06 
								332.87,172.61 332.9,177.76 330.4,178.41 330.4,188.95 347.68,188.33 347.71,184.58 351.58,184.32 351.61,179.72 
								353.34,179.05 360.27,179.64 358.99,181.85 358.99,185.89 349.57,186.22 351.44,188.33 351.42,190.84 345.24,190.49 							
								"/>
						</g>
					</g>
				</g>
				<g>
					<g>
						<defs>
							
								<rect id="SVGID_00000024693440719306828550000012476303044900348834_" x="-10.14" y="18.17" width="615.38" height="472.27"/>
						</defs>
						<clipPath id="SVGID_00000042726993638898512420000016289403879472876945_">
							<use xlink:href="#SVGID_00000024693440719306828550000012476303044900348834_"  style="overflow:visible;"/>
						</clipPath>
						<g style="clip-path:url(#SVGID_00000042726993638898512420000016289403879472876945_);">
							<line class="st10" x1="605.24" y1="18.17" x2="605.24" y2="490.43"/>
							<line class="st10" x1="-10.14" y1="18.17" x2="605.24" y2="18.17"/>
							<line class="st10" x1="-10.14" y1="490.43" x2="605.24" y2="490.43"/>
						</g>
					</g>
				</g>
			</g>
		</g>
	</g>
	<circle class="st11" cx="339.62" cy="194.27" r="29.28"/>
	<circle class="st12" cx="339.62" cy="194.27" r="9.02"/>
</g>
<g>
	<path class="st13" d="M575.46,190.29c0-8.56,5.36-13.64,11.96-13.64c3.28,0,5.92,1.56,7.56,3.32l-2.48,3
		c-1.36-1.36-2.92-2.28-4.96-2.28c-4.28,0-7.32,3.6-7.32,9.48c0,5.96,2.8,9.56,7.2,9.56c2.32,0,4.12-1.08,5.6-2.68l2.48,2.92
		c-2.12,2.44-4.88,3.8-8.24,3.8C580.66,203.77,575.46,198.97,575.46,190.29z"/>
	<path class="st13" d="M598.18,193.49c0-6.56,4.44-10.32,9.32-10.32c4.92,0,9.36,3.76,9.36,10.32c0,6.52-4.44,10.28-9.36,10.28
		C602.62,203.77,598.18,200.01,598.18,193.49z M612.14,193.49c0-3.96-1.76-6.56-4.64-6.56c-2.88,0-4.6,2.6-4.6,6.56
		c0,3.92,1.72,6.52,4.6,6.52C610.38,200.01,612.14,197.41,612.14,193.49z"/>
	<path class="st13" d="M621.42,198.25v-23.2h4.6v23.44c0,1.12,0.52,1.52,1,1.52c0.2,0,0.36,0,0.72-0.08l0.6,3.44
		c-0.56,0.24-1.36,0.4-2.44,0.4C622.62,203.77,621.42,201.65,621.42,198.25z"/>
	<path class="st13" d="M630.98,193.49c0-6.56,4.44-10.32,9.32-10.32c4.92,0,9.36,3.76,9.36,10.32c0,6.52-4.44,10.28-9.36,10.28
		C635.42,203.77,630.98,200.01,630.98,193.49z M644.94,193.49c0-3.96-1.76-6.56-4.64-6.56c-2.88,0-4.6,2.6-4.6,6.56
		c0,3.92,1.72,6.52,4.6,6.52C643.18,200.01,644.94,197.41,644.94,193.49z"/>
	<path class="st13" d="M654.22,183.65h3.8l0.32,3.48h0.16c1.4-2.56,3.48-3.96,5.56-3.96c1,0,1.64,0.12,2.24,0.4l-0.8,4
		c-0.68-0.2-1.2-0.32-2.04-0.32c-1.56,0-3.44,1.08-4.64,4.04v12h-4.6V183.65z"/>
	<path class="st13" d="M667.06,198.01c0-4.2,3.48-6.4,11.56-7.28c-0.08-2.08-0.92-3.84-3.6-3.84c-1.92,0-3.76,0.88-5.52,1.92
		l-1.68-3.08c2.16-1.36,4.96-2.56,8.08-2.56c4.88,0,7.32,3,7.32,8.48v11.64h-3.8l-0.32-2.16h-0.16c-1.76,1.48-3.76,2.64-6.08,2.64
		C669.42,203.77,667.06,201.45,667.06,198.01z M678.62,198.01v-4.4c-5.36,0.68-7.12,2.08-7.12,4.04c0,1.76,1.2,2.52,2.84,2.52
		C675.94,200.17,677.14,199.37,678.62,198.01z"/>
	<path class="st13" d="M687.54,193.49c0-6.4,4.04-10.32,8.32-10.32c2.24,0,3.64,0.84,5.16,2.16l-0.16-3.16v-7.12h4.6v28.24h-3.8
		l-0.32-2.12h-0.16c-1.44,1.44-3.44,2.6-5.56,2.6C690.7,203.77,687.54,199.97,687.54,193.49z M700.86,197.77v-9.16
		c-1.36-1.2-2.68-1.64-4-1.64c-2.52,0-4.56,2.36-4.56,6.48c0,4.24,1.6,6.52,4.44,6.52C698.26,199.97,699.54,199.29,700.86,197.77z"
		/>
	<path class="st13" d="M710.02,193.49c0-6.56,4.44-10.32,9.32-10.32c4.92,0,9.36,3.76,9.36,10.32c0,6.52-4.44,10.28-9.36,10.28
		C714.46,203.77,710.02,200.01,710.02,193.49z M723.98,193.49c0-3.96-1.76-6.56-4.64-6.56c-2.88,0-4.6,2.6-4.6,6.56
		c0,3.92,1.72,6.52,4.6,6.52C722.22,200.01,723.98,197.41,723.98,193.49z"/>
	<path class="st13" d="M616.63,216.39h4.2c4.8,0,7.63,2.59,7.63,7.78c0,5.21-2.83,7.92-7.49,7.92h-4.34V216.39z M620.64,229.83
		c3.17,0,4.97-1.8,4.97-5.66c0-3.84-1.8-5.52-4.97-5.52h-1.22v11.19H620.64z"/>
	<path class="st13" d="M631.08,216.68c0-0.94,0.72-1.58,1.7-1.58c0.98,0,1.7,0.65,1.7,1.58c0,0.91-0.72,1.56-1.7,1.56
		C631.8,218.24,631.08,217.59,631.08,216.68z M631.39,220.3h2.76v11.79h-2.76V220.3z"/>
	<path class="st13" d="M636.5,230.75l1.3-1.78c1.06,0.82,2.06,1.32,3.26,1.32c1.27,0,1.87-0.6,1.87-1.42c0-0.98-1.27-1.42-2.52-1.9
		c-1.56-0.58-3.31-1.46-3.31-3.43c0-2.06,1.66-3.53,4.3-3.53c1.63,0,2.95,0.67,3.91,1.42l-1.27,1.68c-0.82-0.6-1.66-1.01-2.59-1.01
		c-1.18,0-1.73,0.55-1.73,1.3c0,0.94,1.18,1.3,2.45,1.75c1.61,0.6,3.38,1.37,3.38,3.58c0,2.02-1.61,3.65-4.58,3.65
		C639.36,232.38,637.65,231.68,636.5,230.75z"/>
	<path class="st13" d="M647.95,228.11v-5.62h-1.68v-2.06l1.82-0.12l0.34-3.22h2.3v3.22h3v2.18h-3v5.62c0,1.39,0.53,2.06,1.66,2.06
		c0.41,0,0.89-0.12,1.22-0.26l0.48,2.04c-0.65,0.22-1.46,0.43-2.4,0.43C648.96,232.38,647.95,230.65,647.95,228.11z"/>
	<path class="st13" d="M656.2,220.3h2.28l0.19,2.09h0.1c0.84-1.54,2.09-2.38,3.34-2.38c0.6,0,0.98,0.07,1.34,0.24l-0.48,2.4
		c-0.41-0.12-0.72-0.19-1.22-0.19c-0.94,0-2.06,0.65-2.78,2.42v7.2h-2.76V220.3z"/>
	<path class="st13" d="M664.84,216.68c0-0.94,0.72-1.58,1.7-1.58c0.98,0,1.7,0.65,1.7,1.58c0,0.91-0.72,1.56-1.7,1.56
		C665.56,218.24,664.84,217.59,664.84,216.68z M665.16,220.3h2.76v11.79h-2.76V220.3z"/>
	<path class="st13" d="M670.68,226.21c0-3.94,2.76-6.19,5.9-6.19c1.51,0,2.59,0.58,3.46,1.32l-1.34,1.8
		c-0.62-0.55-1.22-0.86-1.97-0.86c-1.9,0-3.22,1.56-3.22,3.94c0,2.35,1.3,3.91,3.14,3.91c0.91,0,1.75-0.46,2.42-1.01l1.13,1.82
		c-1.1,0.96-2.5,1.44-3.84,1.44C673.15,232.38,670.68,230.12,670.68,226.21z"/>
	<path class="st13" d="M682.7,228.11v-5.62h-1.68v-2.06l1.82-0.12l0.34-3.22h2.3v3.22h3v2.18h-3v5.62c0,1.39,0.53,2.06,1.66,2.06
		c0.41,0,0.89-0.12,1.22-0.26l0.48,2.04c-0.65,0.22-1.46,0.43-2.4,0.43C683.71,232.38,682.7,230.65,682.7,228.11z"/>
</g>
</svg>
