<?xml version="1.0" encoding="utf-8"?>
<!-- Generator: Adobe Illustrator 25.4.1, SVG Export Plug-In . SVG Version: 6.00 Build 0)  -->
<svg version="1.1" xmlns="http://www.w3.org/2000/svg" xmlns:xlink="http://www.w3.org/1999/xlink" x="0px" y="0px"
	 viewBox="0 0 784.06 507.87" style="enable-background:new 0 0 784.06 507.87;" xml:space="preserve">
<style type="text/css">
	.st0{fill:#E6E6E6;}
	.st1{fill:#002E6D;}
	.st2{opacity:0.8039;fill:#007DBC;}
	.st3{fill-rule:evenodd;clip-rule:evenodd;fill:none;stroke:#FFFFFF;stroke-width:3;stroke-miterlimit:10;}
	.st4{fill:#FFFFFF;}
	.st5{fill:none;stroke:#0675AF;stroke-miterlimit:10;}
	.st6{enable-background:new    ;}
	.st7{opacity:0.8039;fill:#007DBC;enable-background:new    ;}
	.st8{opacity:0.8039;clip-path:url(#SVGID_00000119808607744376011970000002341179442077499560_);fill:#007DBC;}
	
		.st9{clip-path:url(#SVGID_00000119808607744376011970000002341179442077499560_);fill:none;stroke:#0675AF;stroke-width:0.6353;stroke-linejoin:bevel;stroke-miterlimit:10;}
	.st10{fill:#007DBC;}
	.st11{fill:none;stroke:#0675AF;stroke-width:4;stroke-miterlimit:10;}
	.st12{fill:none;stroke:#0675AF;stroke-width:4;stroke-linejoin:bevel;stroke-miterlimit:10;}
</style>
<g id="Layer_1">
	<rect x="-11.18" y="-11.39" class="st0" width="804.92" height="529.99"/>
	<g id="Layer_2_00000130621552190520464790000012175788109251243682_">
		<g class="st6">
			<path class="st7" d="M111.13,210.24h5.44l8.52,26.16h-4.88l-2.04-7.08h-8.8l-2.04,7.08h-4.72L111.13,210.24z M110.45,225.68h6.68
				l-0.92-3.2c-0.84-2.76-1.6-5.76-2.36-8.64h-0.16c-0.72,2.92-1.48,5.88-2.32,8.64L110.45,225.68z"/>
			<path class="st7" d="M127.93,216.76h3.8l0.32,3.48h0.16c1.4-2.56,3.48-3.96,5.56-3.96c1,0,1.64,0.12,2.24,0.4l-0.8,4
				c-0.68-0.2-1.2-0.32-2.04-0.32c-1.56,0-3.44,1.08-4.64,4.04v12h-4.6L127.93,216.76L127.93,216.76z"/>
			<path class="st7" d="M142.33,210.72c0-1.56,1.2-2.64,2.84-2.64s2.84,1.08,2.84,2.64c0,1.52-1.2,2.6-2.84,2.6
				S142.33,212.24,142.33,210.72z M142.85,216.76h4.6v19.64h-4.6V216.76z"/>
			<path class="st7" d="M151.77,233.91l9.28-13.52h-8.24v-3.64h14v2.44l-9.24,13.52h9.56v3.68h-15.36L151.77,233.91L151.77,233.91z"
				/>
			<path class="st7" d="M169.37,226.6c0-6.56,4.44-10.32,9.32-10.32c4.92,0,9.36,3.76,9.36,10.32c0,6.52-4.44,10.28-9.36,10.28
				C173.81,236.87,169.37,233.11,169.37,226.6z M183.33,226.6c0-3.96-1.76-6.56-4.64-6.56s-4.6,2.6-4.6,6.56
				c0,3.92,1.72,6.52,4.6,6.52C181.57,233.11,183.33,230.51,183.33,226.6z"/>
			<path class="st7" d="M192.61,216.76h3.8l0.32,2.64h0.16c1.76-1.72,3.76-3.12,6.44-3.12c4.2,0,6.04,2.84,6.04,7.8v12.32h-4.6
				v-11.72c0-3.24-0.92-4.44-3.08-4.44c-1.72,0-2.84,0.84-4.48,2.44v13.72h-4.6V216.76z"/>
			<path class="st7" d="M213.97,231.11c0-4.2,3.48-6.4,11.56-7.28c-0.08-2.08-0.92-3.84-3.6-3.84c-1.92,0-3.76,0.88-5.52,1.92
				l-1.68-3.08c2.16-1.36,4.96-2.56,8.08-2.56c4.88,0,7.32,3,7.32,8.48v11.64h-3.8l-0.32-2.16h-0.16c-1.76,1.48-3.76,2.64-6.08,2.64
				C216.33,236.87,213.97,234.55,213.97,231.11z M225.53,231.11v-4.4c-5.36,0.68-7.12,2.08-7.12,4.04c0,1.76,1.2,2.52,2.84,2.52
				C222.85,233.27,224.05,232.47,225.53,231.11z"/>
			<path class="st7" d="M134.54,249.5h4.2c4.8,0,7.63,2.59,7.63,7.78c0,5.21-2.83,7.92-7.49,7.92h-4.34V249.5z M138.55,262.94
				c3.17,0,4.97-1.8,4.97-5.67c0-3.84-1.8-5.52-4.97-5.52h-1.22v11.19L138.55,262.94L138.55,262.94z"/>
			<path class="st7" d="M148.99,249.78c0-0.94,0.72-1.58,1.7-1.58s1.7,0.65,1.7,1.58c0,0.91-0.72,1.56-1.7,1.56
				S148.99,250.7,148.99,249.78z M149.3,253.41h2.76v11.78h-2.76V253.41z"/>
			<path class="st7" d="M154.41,263.85l1.3-1.78c1.06,0.82,2.06,1.32,3.26,1.32c1.27,0,1.87-0.6,1.87-1.42
				c0-0.98-1.27-1.42-2.52-1.9c-1.56-0.58-3.31-1.46-3.31-3.43c0-2.06,1.66-3.53,4.3-3.53c1.63,0,2.95,0.67,3.91,1.42l-1.27,1.68
				c-0.82-0.6-1.66-1.01-2.59-1.01c-1.18,0-1.73,0.55-1.73,1.3c0,0.94,1.18,1.3,2.45,1.75c1.61,0.6,3.38,1.37,3.38,3.58
				c0,2.02-1.61,3.65-4.58,3.65C157.27,265.48,155.56,264.79,154.41,263.85z"/>
			<path class="st7" d="M165.86,261.21v-5.62h-1.68v-2.06l1.82-0.12l0.34-3.22h2.3v3.22h3v2.18h-3v5.62c0,1.39,0.53,2.06,1.66,2.06
				c0.41,0,0.89-0.12,1.22-0.26l0.48,2.04c-0.65,0.22-1.46,0.43-2.4,0.43C166.87,265.48,165.86,263.75,165.86,261.21z"/>
			<path class="st7" d="M174.12,253.41h2.28l0.19,2.09h0.1c0.84-1.54,2.09-2.38,3.34-2.38c0.6,0,0.98,0.07,1.34,0.24l-0.48,2.4
				c-0.41-0.12-0.72-0.19-1.22-0.19c-0.94,0-2.06,0.65-2.78,2.42v7.2h-2.76v-11.78H174.12z"/>
			<path class="st7" d="M182.75,249.78c0-0.94,0.72-1.58,1.7-1.58s1.7,0.65,1.7,1.58c0,0.91-0.72,1.56-1.7,1.56
				S182.75,250.7,182.75,249.78z M183.07,253.41h2.76v11.78h-2.76V253.41z"/>
			<path class="st7" d="M188.59,259.31c0-3.94,2.76-6.19,5.9-6.19c1.51,0,2.59,0.58,3.46,1.32l-1.34,1.8
				c-0.62-0.55-1.22-0.86-1.97-0.86c-1.9,0-3.22,1.56-3.22,3.94c0,2.35,1.3,3.91,3.14,3.91c0.91,0,1.75-0.46,2.42-1.01l1.13,1.82
				c-1.1,0.96-2.5,1.44-3.84,1.44C191.06,265.48,188.59,263.23,188.59,259.31z"/>
			<path class="st7" d="M200.61,261.21v-5.62h-1.68v-2.06l1.82-0.12l0.34-3.22h2.3v3.22h3v2.18h-3v5.62c0,1.39,0.53,2.06,1.66,2.06
				c0.41,0,0.89-0.12,1.22-0.26l0.48,2.04c-0.65,0.22-1.46,0.43-2.4,0.43C201.62,265.48,200.61,263.75,200.61,261.21z"/>
		</g>
	</g>
</g>
<g id="Layer_2">
</g>
<g id="Layer_3">
</g>
<g id="Layer_4">
	<g>
		<g>
			<defs>
				<rect id="SVGID_1_" x="169.83" y="-8.45" width="682.94" height="524.11"/>
			</defs>
			<clipPath id="SVGID_00000118366861009490111320000012046426713162341289_">
				<use xlink:href="#SVGID_1_"  style="overflow:visible;"/>
			</clipPath>
			
				<polygon style="opacity:0.8039;clip-path:url(#SVGID_00000118366861009490111320000012046426713162341289_);fill:#007DBC;" points="
				561.42,488.35 570.65,491.84 613.34,491.79 613.31,468.89 613.89,468.89 613.93,459.32 585.88,459.28 585.88,459.69 
				564.44,459.75 564.48,476.41 550.39,476.45 550.39,484.2 			"/>
			
				<polygon style="clip-path:url(#SVGID_00000118366861009490111320000012046426713162341289_);fill:none;stroke:#0675AF;stroke-width:0.6353;stroke-linejoin:bevel;stroke-miterlimit:10;" points="
				561.42,488.35 570.65,491.84 613.34,491.79 613.31,468.89 613.89,468.89 613.93,459.32 585.87,459.28 585.87,459.69 
				564.44,459.75 564.48,476.41 550.39,476.44 550.39,484.2 			"/>
			
				<polygon style="opacity:0.8039;clip-path:url(#SVGID_00000118366861009490111320000012046426713162341289_);fill:#007DBC;" points="
				413.76,434.18 481.04,458.52 550.39,484.2 550.39,476.45 564.48,476.41 564.44,459.75 585.88,459.69 585.88,459.28 
				613.93,459.32 614.2,425.04 613.96,395.15 564.94,395.3 564.94,396.14 536.31,396.17 536.31,395.72 413.75,395.88 			"/>
			
				<polygon style="clip-path:url(#SVGID_00000118366861009490111320000012046426713162341289_);fill:none;stroke:#0675AF;stroke-width:0.6353;stroke-linejoin:bevel;stroke-miterlimit:10;" points="
				413.76,434.18 481.04,458.51 550.39,484.2 550.39,476.44 564.48,476.41 564.44,459.75 585.87,459.69 585.87,459.28 
				613.93,459.32 614.2,425.04 613.96,395.15 564.94,395.29 564.94,396.14 536.31,396.17 536.31,395.72 413.75,395.88 			"/>
			
				<polygon style="opacity:0.8039;clip-path:url(#SVGID_00000118366861009490111320000012046426713162341289_);fill:#007DBC;" points="
				593.16,15.44 593.16,271.7 645.25,271.7 645.25,307.05 652.81,307.81 652.81,290.3 655.07,290.3 655.06,261.14 655.76,261.14 
				655.83,231.94 654.66,224.58 655.68,217.28 655.59,202.46 656.09,202.45 656.15,143.38 657.32,143.4 657.31,131.03 
				645.25,131.01 645.25,15.89 612.64,15.89 609.95,15.37 			"/>
			
				<polygon style="clip-path:url(#SVGID_00000118366861009490111320000012046426713162341289_);fill:none;stroke:#0675AF;stroke-width:0.6353;stroke-linejoin:bevel;stroke-miterlimit:10;" points="
				593.16,15.44 593.16,271.69 645.25,271.69 645.25,307.05 652.81,307.81 652.81,290.3 655.07,290.3 655.06,261.14 655.76,261.14 
				655.83,231.93 654.66,224.58 655.68,217.28 655.59,202.46 656.09,202.45 656.15,143.38 657.32,143.4 657.31,131.03 
				645.25,131.01 645.25,15.89 612.64,15.89 609.95,15.37 			"/>
			
				<polygon style="opacity:0.8039;clip-path:url(#SVGID_00000118366861009490111320000012046426713162341289_);fill:#007DBC;" points="
				680.34,300.72 680.32,348.5 691.59,367.96 692.65,368 697.73,376.33 699.9,381.39 700.42,385.09 699.05,393.89 706.83,402.36 
				711.44,402.34 711.49,290.26 690.6,290.32 689.68,294.46 684.27,295.7 681.35,297.57 			"/>
			
				<polygon style="opacity:0.8039;clip-path:url(#SVGID_00000118366861009490111320000012046426713162341289_);fill:#007DBC;" points="
				706.83,402.36 699.05,393.89 700.42,385.09 699.9,381.39 697.73,376.33 692.65,368 691.59,367.96 680.32,348.5 680.34,300.72 
				678.07,303.19 672.75,304.12 671.64,306.52 668.89,306.49 667.17,309.85 663.31,312.69 661.49,315.5 658.4,314.81 657.13,310.81 
				652.81,307.81 645.25,307.05 645.25,316.31 633.53,316.33 632.1,318.32 626.09,318.41 621.49,319.69 620.08,321.95 616.6,321.68 
				613.92,324.85 613.49,330.7 615.07,335.16 617.47,338.51 614.11,338.87 613.94,402.27 			"/>
			
				<polygon style="clip-path:url(#SVGID_00000118366861009490111320000012046426713162341289_);fill:none;stroke:#0675AF;stroke-width:0.6353;stroke-linejoin:bevel;stroke-miterlimit:10;" points="
				706.83,402.36 699.05,393.89 700.42,385.09 699.9,381.39 697.73,376.33 692.65,368 691.59,367.96 680.32,348.5 680.34,300.72 
				678.07,303.19 672.75,304.12 671.64,306.52 668.89,306.49 667.17,309.85 663.31,312.69 661.49,315.5 658.4,314.81 657.13,310.81 
				652.81,307.81 645.25,307.05 645.25,316.31 633.53,316.33 632.1,318.31 626.09,318.41 621.49,319.69 620.08,321.95 616.6,321.68 
				613.92,324.85 613.49,330.7 615.07,335.16 617.47,338.51 614.11,338.87 613.94,402.27 			"/>
			
				<polygon style="opacity:0.8039;clip-path:url(#SVGID_00000118366861009490111320000012046426713162341289_);fill:#007DBC;" points="
				541.48,271.72 543.45,271.21 545.77,273.01 544.39,274.87 544.53,278.41 547.7,278.45 547.21,281.37 549.99,286.44 
				548.91,288.17 549.3,291.9 552.48,295.09 557.59,303.2 560.42,304.93 561.3,302.34 565.19,298.66 577.6,326.61 579.55,334.25 
				590.93,356.26 594.61,352.81 594.91,349.24 597.87,347.69 601.36,343.17 603.79,343.86 610.25,339.55 617.47,338.51 
				615.07,335.16 613.49,330.7 613.92,324.85 616.6,321.68 620.08,321.95 621.49,319.69 626.09,318.41 632.1,318.32 633.53,316.33 
				645.25,316.31 645.25,271.7 593.16,271.7 593.16,249.61 590.56,245.76 586.4,249.29 583.01,246.32 578.7,245.31 575.58,241.75 
				569.13,238.42 565.63,240.2 564.66,237.8 561.29,237.41 558.46,233.63 554.24,235.77 551.41,234.66 548.26,235.92 546.78,240.05 
				546.46,234.98 543.59,236.85 539.89,235.56 543.06,232.87 538.31,233.33 537.29,232.04 537.36,234.81 530.04,239.29 
				529.77,245.02 528.36,246.54 526.89,253.91 527.59,256.49 526.38,259.02 542.66,259.04 541.56,260.47 543.59,265.61 
				541.59,268.51 			"/>
			
				<polygon style="clip-path:url(#SVGID_00000118366861009490111320000012046426713162341289_);fill:none;stroke:#0675AF;stroke-width:0.6353;stroke-linejoin:bevel;stroke-miterlimit:10;" points="
				541.48,271.72 543.45,271.21 545.77,273.01 544.39,274.87 544.53,278.41 547.7,278.45 547.21,281.37 549.99,286.44 
				548.91,288.17 549.29,291.9 552.48,295.09 557.59,303.2 560.42,304.93 561.3,302.34 565.19,298.66 577.6,326.61 579.55,334.25 
				590.93,356.26 594.61,352.81 594.91,349.24 597.87,347.69 601.36,343.17 603.79,343.85 610.25,339.55 617.47,338.51 
				615.07,335.16 613.49,330.7 613.92,324.85 616.6,321.68 620.08,321.95 621.49,319.69 626.09,318.41 632.1,318.31 633.53,316.33 
				645.25,316.31 645.25,271.69 593.16,271.69 593.16,249.61 590.56,245.76 586.4,249.28 583.01,246.32 578.7,245.31 575.58,241.75 
				569.13,238.42 565.63,240.2 564.66,237.8 561.29,237.41 558.46,233.63 554.24,235.77 551.41,234.66 548.26,235.92 546.78,240.05 
				546.46,234.98 543.59,236.84 539.89,235.56 543.06,232.87 538.31,233.33 537.29,232.04 537.36,234.81 530.04,239.29 
				529.77,245.02 528.36,246.54 526.89,253.91 527.59,256.49 526.38,259.02 542.66,259.04 541.56,260.47 543.59,265.61 
				541.59,268.51 			"/>
			
				<polygon style="opacity:0.8039;clip-path:url(#SVGID_00000118366861009490111320000012046426713162341289_);fill:#007DBC;" points="
				623.1,491.76 711.28,491.81 711.44,402.34 613.94,402.27 614.2,425.04 613.89,468.89 613.31,468.89 613.34,491.79 			"/>
			
				<polygon style="clip-path:url(#SVGID_00000118366861009490111320000012046426713162341289_);fill:none;stroke:#0675AF;stroke-width:0.6353;stroke-linejoin:bevel;stroke-miterlimit:10;" points="
				623.1,491.76 711.28,491.81 711.44,402.34 613.94,402.27 614.2,425.04 613.89,468.89 613.31,468.89 613.34,491.79 			"/>
			
				<polygon style="opacity:0.8039;clip-path:url(#SVGID_00000118366861009490111320000012046426713162341289_);fill:#007DBC;" points="
				645.25,15.89 645.25,131.01 657.31,131.03 657.32,143.4 656.15,143.38 656.09,202.45 655.59,202.46 655.68,217.28 654.66,224.58 
				655.83,231.94 655.76,261.14 655.06,261.14 655.07,290.3 652.81,290.3 652.81,307.81 657.13,310.81 658.4,314.81 661.49,315.5 
				663.31,312.69 667.17,309.85 668.89,306.49 671.64,306.52 672.75,304.12 678.07,303.19 680.34,300.72 681.35,297.57 
				684.27,295.7 689.68,294.46 690.6,290.32 711.49,290.26 711.61,15.8 			"/>
			
				<polygon style="clip-path:url(#SVGID_00000118366861009490111320000012046426713162341289_);fill:none;stroke:#0675AF;stroke-width:0.6353;stroke-linejoin:bevel;stroke-miterlimit:10;" points="
				645.25,15.89 645.25,131.01 657.31,131.03 657.32,143.4 656.15,143.38 656.09,202.45 655.59,202.46 655.68,217.28 654.66,224.58 
				655.83,231.93 655.76,261.14 655.06,261.14 655.07,290.3 652.81,290.3 652.81,307.81 657.13,310.81 658.4,314.81 661.49,315.5 
				663.31,312.69 667.17,309.85 668.89,306.49 671.64,306.52 672.75,304.12 678.07,303.19 680.34,300.72 681.35,297.57 
				684.27,295.7 689.68,294.45 690.6,290.32 711.49,290.26 711.61,15.8 			"/>
			
				<polygon style="opacity:0.8039;clip-path:url(#SVGID_00000118366861009490111320000012046426713162341289_);fill:#007DBC;" points="
				310.99,396.75 413.76,434.18 413.75,323.67 370.4,323.66 370.41,316.41 348.89,316.5 348.82,352.53 331.62,352.71 335.34,362.62 
				334.92,367.8 330.56,372.26 330.9,375.08 324.74,377.44 318.72,376.05 315.35,383.07 311.26,386.71 312.48,390.71 			"/>
			
				<polygon style="clip-path:url(#SVGID_00000118366861009490111320000012046426713162341289_);fill:none;stroke:#0675AF;stroke-width:0.6353;stroke-linejoin:bevel;stroke-miterlimit:10;" points="
				310.99,396.75 413.76,434.18 413.75,323.67 370.4,323.66 370.41,316.41 348.89,316.5 348.82,352.52 331.62,352.71 335.34,362.62 
				334.92,367.8 330.56,372.26 330.9,375.08 324.74,377.44 318.72,376.05 315.35,383.07 311.26,386.71 312.48,390.71 			"/>
			
				<polygon style="opacity:0.8039;clip-path:url(#SVGID_00000118366861009490111320000012046426713162341289_);fill:#007DBC;" points="
				413.73,142.52 413.76,271.77 454.72,271.71 487.23,281.56 489.51,279.62 490.26,275.52 492.87,273.63 494.97,267.67 
				525.47,271.71 541.48,271.72 541.59,268.51 543.59,265.61 541.56,260.47 542.66,259.04 526.38,259.02 527.59,256.49 
				526.89,253.91 528.36,246.54 529.77,245.02 530.04,239.29 537.36,234.81 537.5,204.16 521.82,204.09 521.83,189.02 
				519.65,189.45 483.16,189.72 483.08,174.85 475.68,174.75 475.78,165.31 473.57,167.2 466.29,166.76 458.13,160.96 
				453.97,161.41 451.05,159.99 440.18,157.17 438.62,154.04 430.96,148.92 426.66,146.73 424.82,144.35 421.75,144.15 
				418.9,142.43 			"/>
			
				<polygon style="clip-path:url(#SVGID_00000118366861009490111320000012046426713162341289_);fill:none;stroke:#0675AF;stroke-width:0.6353;stroke-linejoin:bevel;stroke-miterlimit:10;" points="
				413.73,142.52 413.76,271.77 454.72,271.71 487.23,281.56 489.51,279.62 490.26,275.51 492.87,273.63 494.97,267.67 
				525.47,271.71 541.48,271.72 541.59,268.51 543.59,265.61 541.56,260.47 542.66,259.04 526.38,259.02 527.59,256.49 
				526.89,253.91 528.36,246.54 529.77,245.02 530.04,239.29 537.36,234.81 537.5,204.16 521.82,204.09 521.83,189.02 
				519.65,189.45 483.16,189.72 483.08,174.84 475.68,174.75 475.78,165.31 473.57,167.2 466.29,166.76 458.13,160.96 
				453.97,161.41 451.05,159.99 440.18,157.17 438.62,154.04 430.96,148.91 426.66,146.73 424.82,144.35 421.75,144.15 
				418.9,142.43 			"/>
			
				<polygon style="opacity:0.8039;clip-path:url(#SVGID_00000118366861009490111320000012046426713162341289_);fill:#007DBC;" points="
				492.25,395.72 536.31,395.72 536.31,396.17 564.94,396.14 564.94,395.3 614.1,395.15 614.11,338.87 610.25,339.55 603.79,343.86 
				601.36,343.17 597.87,347.69 594.91,349.24 594.61,352.81 590.93,356.26 579.55,334.25 577.6,326.61 573.08,316.29 
				535.52,316.31 535.38,337.96 500.6,338.03 495.9,333.9 493.12,333.08 492.36,330.9 			"/>
			
				<polygon style="clip-path:url(#SVGID_00000118366861009490111320000012046426713162341289_);fill:none;stroke:#0675AF;stroke-width:0.6353;stroke-linejoin:bevel;stroke-miterlimit:10;" points="
				492.25,395.72 536.31,395.72 536.31,396.17 564.94,396.14 564.94,395.29 614.1,395.15 614.11,338.87 610.25,339.55 
				603.79,343.85 601.36,343.17 597.87,347.69 594.91,349.24 594.61,352.81 590.93,356.26 579.55,334.25 577.6,326.61 
				573.08,316.29 535.52,316.31 535.38,337.96 500.6,338.03 495.9,333.89 493.12,333.08 492.36,330.9 			"/>
			
				<polygon style="opacity:0.8039;clip-path:url(#SVGID_00000118366861009490111320000012046426713162341289_);fill:#007DBC;" points="
				323.49,187.27 323.86,198.99 326.36,200.88 329.11,207.17 334.67,211.67 336.18,215.54 337.18,221.53 341.04,227.19 
				340.63,233.24 343.91,233.79 351.79,240.99 355.21,242.38 357.89,246.26 362.81,247.34 365.26,249.92 372.42,250.78 
				377.87,250.73 378.93,252.98 386.19,251.55 388.11,253.99 394.88,252.47 399.45,246.03 409.06,246.55 411.21,247.2 
				413.78,245.02 413.75,119.22 415.33,111.27 413.68,109.51 414.92,105.43 412.34,98.65 415.18,93.53 421.32,94.29 423.28,88.98 
				427.53,87.8 436.51,81.59 438.25,82.19 443.68,80.3 446.21,77.82 451.51,77.44 456.11,72.35 459.06,72.72 463,67.13 
				461.71,62.42 462.22,60.41 460.61,56.52 462.47,52.96 463.14,48.07 462.06,44.03 464.01,32.89 466.8,24.77 469.6,19.95 
				468.86,15.66 363.98,15.68 364.44,85.5 363.41,85.98 356.84,100.13 351.28,101.02 348.68,98.21 345.66,96.92 346.36,95.63 
				341.78,89.87 338.84,89.53 332.44,91.19 332.2,89.26 327.83,89.13 324.74,90.98 323.7,89.9 320.14,92.74 316.51,93.12 
				314.99,94.83 317.34,99.63 315.93,101.6 316.71,106.93 321.47,113.34 318.47,115.09 318.04,118.8 319.27,122.98 318.5,126.81 
				320.08,128.8 319.64,132.07 322.08,135.37 320.62,138.22 321.88,141.92 320.34,144.8 321.41,149.36 323.92,152.56 326.15,160.08 
				327.94,173.66 327.33,176.5 323.58,177.49 322.85,179.24 325.53,181.18 323.17,185.56 			"/>
			
				<polygon style="clip-path:url(#SVGID_00000118366861009490111320000012046426713162341289_);fill:none;stroke:#0675AF;stroke-width:0.6353;stroke-linejoin:bevel;stroke-miterlimit:10;" points="
				323.49,187.27 323.86,198.98 326.36,200.88 329.11,207.16 334.67,211.67 336.18,215.54 337.18,221.53 341.04,227.19 
				340.63,233.24 343.91,233.79 351.79,240.98 355.21,242.38 357.89,246.26 362.81,247.34 365.26,249.91 372.42,250.78 
				377.87,250.73 378.93,252.98 386.19,251.54 388.11,253.99 394.88,252.47 399.45,246.03 409.06,246.55 411.21,247.2 
				413.78,245.02 413.75,119.21 415.33,111.27 413.68,109.51 414.92,105.43 412.34,98.65 415.18,93.53 421.32,94.29 423.28,88.98 
				427.53,87.8 436.51,81.59 438.25,82.19 443.68,80.3 446.21,77.82 451.51,77.43 456.11,72.35 459.06,72.72 463,67.13 
				461.71,62.42 462.22,60.4 460.61,56.52 462.47,52.96 463.14,48.07 462.06,44.02 464.01,32.89 466.8,24.76 469.6,19.95 
				468.86,15.66 363.98,15.68 364.44,85.5 363.41,85.98 356.84,100.13 351.28,101.02 348.68,98.21 345.66,96.92 346.36,95.62 
				341.78,89.86 338.84,89.53 332.44,91.19 332.2,89.25 327.83,89.13 324.74,90.97 323.7,89.9 320.14,92.74 316.51,93.12 
				314.99,94.82 317.34,99.63 315.93,101.59 316.71,106.93 321.47,113.34 318.47,115.09 318.04,118.79 319.27,122.98 318.5,126.81 
				320.08,128.8 319.64,132.07 322.08,135.37 320.62,138.21 321.88,141.92 320.34,144.8 321.41,149.36 323.92,152.56 326.15,160.08 
				327.94,173.66 327.33,176.5 323.58,177.49 322.85,179.24 325.53,181.18 323.17,185.55 			"/>
			
				<polygon style="opacity:0.8039;clip-path:url(#SVGID_00000118366861009490111320000012046426713162341289_);fill:#007DBC;" points="
				413.75,395.88 492.25,395.72 492.36,330.9 493.12,333.08 495.9,333.9 500.6,338.03 535.38,337.96 535.52,316.31 573.08,316.29 
				565.19,298.66 561.3,302.34 560.42,304.93 557.59,303.2 552.48,295.09 549.3,291.9 548.91,288.17 549.99,286.44 547.21,281.37 
				547.7,278.45 544.53,278.41 544.39,274.87 545.77,273.01 543.45,271.21 541.48,271.72 525.47,271.71 494.97,267.67 
				492.87,273.63 490.26,275.52 489.51,279.62 487.23,281.56 454.72,271.71 413.76,271.77 			"/>
			
				<polygon style="clip-path:url(#SVGID_00000118366861009490111320000012046426713162341289_);fill:none;stroke:#0675AF;stroke-width:0.6353;stroke-linejoin:bevel;stroke-miterlimit:10;" points="
				413.75,395.88 492.25,395.72 492.36,330.9 493.12,333.08 495.9,333.89 500.6,338.03 535.38,337.96 535.52,316.31 573.08,316.29 
				565.19,298.66 561.3,302.34 560.42,304.93 557.59,303.2 552.48,295.09 549.29,291.9 548.91,288.17 549.99,286.44 547.21,281.37 
				547.7,278.45 544.53,278.41 544.39,274.87 545.77,273.01 543.45,271.21 541.48,271.72 525.47,271.71 494.97,267.67 
				492.87,273.63 490.26,275.51 489.51,279.62 487.23,281.56 454.72,271.71 413.76,271.77 			"/>
			
				<polygon style="opacity:0.8039;clip-path:url(#SVGID_00000118366861009490111320000012046426713162341289_);fill:#007DBC;" points="
				323.94,319.01 317.19,321.76 318.94,325.02 317.26,331.1 320.47,332.58 320.35,341.48 318.42,347.69 320.9,351.85 322.71,350.96 
				325.95,352.89 348.82,352.53 348.89,316.5 370.41,316.41 370.4,323.66 413.75,323.67 413.78,245.02 411.21,247.2 409.06,246.55 
				399.45,246.03 394.88,252.47 388.11,253.99 386.19,251.55 378.93,252.98 377.87,250.73 372.42,250.78 365.26,249.92 
				362.81,247.34 357.89,246.26 358.08,250.07 356.07,250.59 349.7,257.19 347.56,257.39 345.16,260.13 338.61,262.69 
				337.25,265.03 337.05,269.81 330.33,277.93 332.49,282.94 330.69,283.62 330.81,287.19 332.27,291.12 333.01,297.05 
				330.54,299.32 331.23,304.19 329.95,305.85 331.08,309.05 328.74,310.75 324.23,317.08 			"/>
			
				<polygon style="clip-path:url(#SVGID_00000118366861009490111320000012046426713162341289_);fill:none;stroke:#0675AF;stroke-width:0.6353;stroke-linejoin:bevel;stroke-miterlimit:10;" points="
				323.94,319.01 317.19,321.76 318.94,325.02 317.26,331.1 320.47,332.58 320.35,341.48 318.42,347.69 320.9,351.85 322.71,350.96 
				325.95,352.89 348.82,352.52 348.89,316.5 370.41,316.41 370.4,323.66 413.75,323.67 413.78,245.02 411.21,247.2 409.06,246.55 
				399.45,246.03 394.88,252.47 388.11,253.99 386.19,251.54 378.93,252.98 377.87,250.73 372.42,250.78 365.26,249.91 
				362.81,247.34 357.89,246.26 358.08,250.07 356.07,250.59 349.7,257.19 347.56,257.39 345.16,260.13 338.61,262.68 
				337.25,265.02 337.05,269.81 330.33,277.93 332.5,282.94 330.69,283.62 330.81,287.18 332.27,291.12 333.01,297.05 
				330.54,299.32 331.23,304.19 329.95,305.85 331.08,309.04 328.74,310.75 324.23,317.08 			"/>
			
				<polygon style="opacity:0.8039;clip-path:url(#SVGID_00000118366861009490111320000012046426713162341289_);fill:#007DBC;" points="
				537.29,232.04 538.31,233.33 543.06,232.87 539.89,235.56 543.59,236.85 546.46,234.98 546.78,240.05 548.26,235.92 
				551.41,234.66 554.24,235.77 558.46,233.63 561.29,237.41 564.66,237.8 565.63,240.2 569.13,238.42 575.58,241.75 578.7,245.31 
				583.01,246.32 586.4,249.29 590.56,245.76 593.16,249.61 593.16,15.44 468.86,15.66 469.6,19.95 466.8,24.77 464.01,32.89 
				462.06,44.03 463.14,48.07 462.47,52.96 460.61,56.52 462.22,60.41 461.71,62.42 463,67.13 459.06,72.72 456.11,72.35 
				451.51,77.44 446.21,77.82 443.68,80.3 438.25,82.19 436.51,81.59 427.53,87.8 423.28,88.98 421.32,94.29 415.18,93.53 
				412.34,98.65 414.92,105.43 413.68,109.51 415.33,111.27 413.75,119.22 413.73,142.52 418.9,142.43 421.75,144.15 424.82,144.35 
				426.66,146.73 430.96,148.92 438.62,154.04 440.18,157.17 451.05,159.99 453.97,161.41 458.13,160.96 466.29,166.76 
				473.57,167.2 475.78,165.31 475.68,174.75 483.08,174.85 483.16,189.72 519.65,189.45 521.83,189.02 521.82,204.09 537.5,204.16 
							"/>
			
				<polygon style="clip-path:url(#SVGID_00000118366861009490111320000012046426713162341289_);fill:none;stroke:#0675AF;stroke-width:0.6353;stroke-linejoin:bevel;stroke-miterlimit:10;" points="
				537.29,232.04 538.31,233.33 543.06,232.87 539.89,235.56 543.59,236.84 546.46,234.98 546.78,240.05 548.26,235.92 
				551.41,234.66 554.24,235.77 558.46,233.63 561.29,237.41 564.66,237.8 565.63,240.2 569.13,238.42 575.58,241.75 578.7,245.31 
				583.01,246.32 586.4,249.28 590.56,245.76 593.16,249.61 593.16,15.44 468.86,15.66 469.6,19.95 466.8,24.76 464.01,32.89 
				462.06,44.02 463.14,48.07 462.47,52.96 460.61,56.52 462.22,60.4 461.71,62.42 463,67.13 459.06,72.72 456.11,72.35 
				451.51,77.43 446.21,77.82 443.68,80.3 438.25,82.19 436.51,81.59 427.53,87.8 423.28,88.98 421.32,94.29 415.18,93.53 
				412.34,98.65 414.92,105.43 413.68,109.51 415.33,111.27 413.75,119.21 413.73,142.52 418.9,142.43 421.75,144.15 424.82,144.35 
				426.66,146.73 430.96,148.91 438.62,154.04 440.18,157.17 451.05,159.99 453.97,161.41 458.13,160.96 466.29,166.76 
				473.57,167.2 475.78,165.31 475.68,174.75 483.08,174.84 483.16,189.72 519.65,189.45 521.83,189.02 521.82,204.09 537.5,204.16 
							"/>
		</g>
		<g>
			<defs>
				<rect id="SVGID_00000083783858403521267030000014897170940149867912_" x="169.83" y="-8.45" width="682.94" height="524.11"/>
			</defs>
			<clipPath id="SVGID_00000000217911040653598380000017275027486666175919_">
				<use xlink:href="#SVGID_00000083783858403521267030000014897170940149867912_"  style="overflow:visible;"/>
			</clipPath>
		</g>
	</g>
	<circle class="st4" cx="578.22" cy="420.64" r="9.02"/>
	<circle class="st4" cx="643.98" cy="251.38" r="9.02"/>
	<circle class="st3" cx="502.33" cy="314.18" r="29.28"/>
	<circle class="st4" cx="502.33" cy="314.18" r="9.02"/>
	<polyline class="st11" points="593.16,15.44 593.16,249.61 590.56,245.76 586.4,249.28 583.01,246.32 578.7,245.31 575.58,241.75 
		569.13,238.42 565.63,240.2 564.66,237.8 561.29,237.41 558.46,233.63 554.24,235.77 551.41,234.66 548.26,235.92 546.78,240.05 
		543.59,236.84 539.89,235.56 543.06,232.87 538.31,233.33 530.04,239.29 529.77,245.02 526.89,253.91 526.38,259.02 542.66,259.04 
		543.59,265.61 541.59,268.51 541.48,271.72 545.18,271.72 544.47,276.93 544.53,278.41 547.7,278.45 547.21,281.37 549.99,286.44 
		549.04,290.27 550.59,293.19 557.59,303.2 560.42,304.93 561.3,302.34 563.7,298.6 565.19,298.66 573.08,316.29 581.75,338.51 
		590.93,356.26 594.91,349.24 601.36,343.17 614.11,338.87 614.1,395.15 	"/>
</g>
<g id="Layer_5">
	<polyline class="st12" points="413.76,434.18 413.75,395.88 492.25,395.72 535.41,395.72 536.31,396.17 564.94,396.14 
		564.94,395.29 614.1,395.15 613.94,402.27 711.44,402.34 	"/>
</g>
</svg>
