<?xml version="1.0" encoding="utf-8"?>
<!-- Generator: Adobe Illustrator 25.4.1, SVG Export Plug-In . SVG Version: 6.00 Build 0)  -->
<svg version="1.1" xmlns="http://www.w3.org/2000/svg" xmlns:xlink="http://www.w3.org/1999/xlink" x="0px" y="0px"
	 viewBox="0 0 784.06 507.87" style="enable-background:new 0 0 784.06 507.87;" xml:space="preserve">
<style type="text/css">
	.st0{fill:none;stroke:#FFFFFF;stroke-width:3;stroke-miterlimit:10.0003;}
	.st1{fill:#E6E6E6;}
	.st2{opacity:0.8;fill:#007DBC;enable-background:new    ;}
	.st3{fill:none;stroke:#0675AF;stroke-width:0.64;stroke-linejoin:bevel;}
	.st4{fill:none;stroke:#0675AF;stroke-width:4;stroke-linejoin:bevel;}
	.st5{opacity:0.8039;fill:#007DBC;enable-background:new    ;}
	.st6{fill:#FFFFFF;}
</style>
<g id="Layer_1">
	<g id="Tools">
		<ellipse class="st0" cx="493.89" cy="334.65" rx="29.28" ry="29.28"/>
	</g>
	<g id="Background">
		<rect x="-10.43" y="-11.06" class="st1" width="804.92" height="529.99"/>
	</g>
	<g id="Layer_4">
		<path class="st2" d="M137.12-104.31h4.76l2.27,13.2c0.44,2.8,0.88,5.6,1.28,8.36h0.16c0.56-2.76,1.12-5.6,1.72-8.36l3.2-13.2h4
			l3.2,13.2c0.6,2.72,1.16,5.56,1.76,8.36h0.16c0.4-2.8,0.84-5.6,1.24-8.36l2.28-13.2h4.44l-5,26.16h-5.76l-3.24-13.76
			c-0.44-2-0.84-4-1.16-6h-0.14c-0.36,2-0.76,4-1.2,6l-3.14,13.75h-5.66L137.12-104.31z"/>
		<path class="st2" d="M169.72-83.43c0-4.2,3.47-6.4,11.55-7.28c-0.08-2.08-0.92-3.84-3.6-3.84c-1.98,0.14-3.88,0.8-5.52,1.92
			l-1.67-3.08c2.4-1.6,5.19-2.48,8.07-2.56c4.88,0,7.32,3,7.32,8.48v11.63h-3.8l-0.32-2.16h-0.16c-1.65,1.57-3.8,2.51-6.08,2.63
			c-3.02,0.18-5.61-2.12-5.79-5.13C169.71-83.03,169.71-83.23,169.72-83.43z M181.27-83.43v-4.4c-5.36,0.68-7.12,2.08-7.12,4
			c0,1.76,1.2,2.52,2.84,2.52s2.8-0.76,4.3-2.12C181.29-83.43,181.27-83.43,181.27-83.43z"/>
		<path class="st2" d="M189.43-80.39l2.16-3c1.51,1.34,3.43,2.12,5.44,2.2c2.12,0,3.12-1,3.12-2.36c0-1.64-2.12-2.36-4.2-3.16
			c-2.6-1-5.52-2.44-5.52-5.72c0-3.44,2.76-5.88,7.16-5.88c2.38,0.03,4.67,0.86,6.52,2.36l-2.12,2.8c-1.22-1.01-2.74-1.6-4.32-1.68
			c-2,0-2.88,0.92-2.88,2.16c0,1.56,2,2.16,4.08,2.92c2.68,1,5.64,2.28,5.64,6c0,3.36-2.68,6.07-7.64,6.07
			C194.16-77.75,191.55-78.7,189.43-80.39z"/>
		<path class="st2" d="M208.64-106.39h4.59v7.28l-0.16,3.8c1.61-1.8,3.87-2.88,6.28-3c4.2,0,6,2.84,6,7.8v12.35h-4.6v-11.71
			c0-3.24-0.92-4.44-3.08-4.44c-1.72,0-2.84,0.84-4.48,2.44v13.71h-4.59L208.64-106.39z"/>
		<path class="st2" d="M230.43-103.83c-0.14-1.57,1.02-2.95,2.59-3.09s2.95,1.02,3.09,2.59s-1.02,2.95-2.59,3.09
			c-0.08,0.01-0.17,0.01-0.25,0.01c-1.46,0.11-2.73-0.99-2.83-2.45C230.43-103.73,230.43-103.78,230.43-103.83z M230.96-97.83h4.59
			v19.67h-4.59V-97.83z"/>
		<path class="st2" d="M241.43-97.79h3.8l0.32,2.64h0.16c1.76-1.72,3.76-3.12,6.44-3.12c4.2,0,6,2.84,6,7.8v12.31h-4.6v-11.71
			c0-3.24-0.92-4.44-3.08-4.44c-1.72,0-2.84,0.84-4.48,2.44v13.71h-4.6L241.43-97.79z"/>
		<path class="st2" d="M262.51-74.6c0-1.64,1-3.08,2.8-4.2v-0.15c-1.13-0.7-1.8-1.95-1.76-3.28c0.11-1.49,0.91-2.83,2.16-3.64v-0.16
			c-1.61-1.25-2.55-3.17-2.56-5.2c0-4.52,3.64-7,7.76-7c0.98,0,1.95,0.16,2.88,0.48h7v3.4h-3.6c0.74,0.95,1.14,2.12,1.12,3.32
			c0,4.36-3.28,6.68-7.44,6.68c-0.92,0-1.83-0.18-2.68-0.52c-0.63,0.42-1,1.13-1,1.88c0,1.12,0.8,1.8,3.2,1.8h3.48
			c4.72,0,7.2,1.44,7.2,4.84c0,3.87-4.08,6.91-10.48,6.91C265.99-69.48,262.51-71.16,262.51-74.6z M276.71-75.6
			c0-1.51-1.24-2-3.48-2h-2.68c-0.9,0.02-1.8-0.07-2.68-0.28c-0.9,0.57-1.46,1.54-1.52,2.6c0,1.76,1.92,2.8,5,2.8
			s5.36-1.48,5.36-3.16V-75.6z M274.29-91.23c0-2.44-1.48-3.88-3.4-3.88s-3.44,1.4-3.44,3.88c0,2.48,1.52,4,3.44,4
			S274.29-88.71,274.29-91.23z"/>
		<path class="st2" d="M285.29-84.79v-9.37h-2.8v-3.43l3-0.2l0.56-5.36h3.84v5.36h5v3.63h-5v9.36c0,2.32,0.88,3.44,2.76,3.44
			c0.69-0.02,1.37-0.17,2-0.44l0.8,3.4c-1.29,0.45-2.64,0.69-4,0.71C286.99-77.68,285.29-80.55,285.29-84.79z"/>
		<path class="st2" d="M297.15-87.95c0-6.56,4.44-10.32,9.32-10.32s9.36,3.76,9.36,10.32s-4.44,10.27-9.36,10.27
			S297.15-81.43,297.15-87.95z M311.15-87.95c0-4-1.76-6.56-4.64-6.56s-4.6,2.6-4.6,6.56s1.72,6.52,4.6,6.52s4.6-2.6,4.6-6.52
			H311.15z"/>
		<path class="st2" d="M320.39-97.79h3.8l0.32,2.64h0.16c1.76-1.72,3.76-3.12,6.44-3.12c4.2,0,6,2.84,6,7.8v12.31h-4.6v-11.71
			c0-3.24-0.92-4.44-3.08-4.44c-1.72,0-2.84,0.84-4.48,2.44v13.71h-4.6L320.39-97.79z"/>
		<path class="st2" d="M351.19-104.31h5.24l4.64,12.8c0.56,1.64,1.12,3.4,1.68,5.12h0.16c0.56-1.72,1.08-3.48,1.64-5.12l4.52-12.8
			h5.28v26.15h-4.28v-12c0-2.44,0.36-5.92,0.6-8.32h-0.16l-2.12,6.08l-4.28,11.76h-2.76l-4.32-11.76l-2.08-6.08h-0.16
			c0.2,2.4,0.6,5.88,0.6,8.32v12h-4.2V-104.31z"/>
		<path class="st2" d="M379.29-87.95c0-6.4,4.44-10.32,9-10.32c5.32,0,8.12,3.84,8.12,9.32c0.01,0.75-0.05,1.5-0.2,2.24h-12.42
			c0.4,3.48,2.64,5.48,5.8,5.48c1.63-0.02,3.22-0.52,4.56-1.44l1.56,2.88c-1.99,1.34-4.32,2.07-6.72,2.11
			C383.55-77.68,379.29-81.47,379.29-87.95z M392.45-89.83c0-3-1.32-4.88-4-4.88c-2.32,0-4.32,1.72-4.72,4.88H392.45z"/>
		<path class="st2" d="M401.15-84.79v-9.37h-2.8v-3.43l3-0.2l0.56-5.36h3.84v5.36h5v3.63h-5v9.36c0,2.32,0.88,3.44,2.76,3.44
			c0.69-0.02,1.37-0.17,2-0.44l0.8,3.4c-1.29,0.45-2.64,0.69-4,0.71C402.83-77.68,401.15-80.55,401.15-84.79z"/>
		<path class="st2" d="M414.91-97.79h3.8l0.32,3.48h0.16c1.4-2.56,3.48-4,5.56-4c0.77-0.04,1.53,0.1,2.24,0.4l-0.8,4
			c-0.65-0.21-1.32-0.32-2-0.32c-1.56,0-3.44,1.08-4.64,4v12.07h-4.6L414.91-97.79z"/>
		<path class="st2" d="M428.15-87.95c0-6.56,4.44-10.32,9.32-10.32s9.36,3.76,9.36,10.32s-4.44,10.27-9.36,10.27
			S428.15-81.43,428.15-87.95z M442.15-87.95c0-4-1.76-6.56-4.64-6.56s-4.6,2.6-4.6,6.56s1.72,6.52,4.6,6.52s4.6-2.6,4.6-6.52
			H442.15z"/>
		<path class="st2" d="M451.39-97.79h3.8l0.32,2.08h0.16c1.62-1.51,3.71-2.42,5.92-2.56c4.88,0,7.72,3.92,7.72,10
			c0,6.72-4,10.59-8.4,10.59c-1.87-0.1-3.64-0.87-5-2.15l0.12,3.28v6.15h-4.6L451.39-97.79z M464.55-88.23
			c0-3.92-1.28-6.24-4.24-6.24c-1.44,0-2.8,0.72-4.32,2.2v9.16c1.09,1.01,2.51,1.59,4,1.64C462.55-81.47,464.55-83.79,464.55-88.23z
			"/>
		<path class="st2" d="M472.67-87.95c0-6.56,4.44-10.32,9.32-10.32s9.36,3.76,9.36,10.32s-4.44,10.27-9.36,10.27
			S472.67-81.43,472.67-87.95z M486.67-87.95c0-4-1.76-6.56-4.64-6.56s-4.6,2.6-4.6,6.56s1.72,6.52,4.6,6.52s4.6-2.6,4.6-6.52
			H486.67z"/>
		<path class="st2" d="M495.91-83.16v-23.23h4.6v23.44c0,1.12,0.52,1.52,1,1.52c0.24,0.01,0.48-0.02,0.72-0.08l0.6,3.44
			c-0.78,0.28-1.61,0.42-2.44,0.39C497.11-77.68,495.91-79.79,495.91-83.16z"/>
		<path class="st2" d="M506.23-103.83c-0.14-1.57,1.02-2.95,2.59-3.09s2.95,1.02,3.09,2.59s-1.02,2.95-2.59,3.09
			c-0.08,0.01-0.17,0.01-0.25,0.01c-1.45,0.11-2.72-0.98-2.83-2.43C506.23-103.72,506.23-103.77,506.23-103.83z M506.75-97.83h4.6
			v19.67h-4.6V-97.83z"/>
		<path class="st2" d="M517.91-84.79v-9.37h-2.8v-3.43l3-0.2l0.56-5.36h3.84v5.36h5v3.63h-5v9.36c0,2.32,0.88,3.44,2.76,3.44
			c0.69-0.02,1.37-0.17,2-0.44l0.8,3.4c-1.29,0.45-2.64,0.69-4,0.71C519.59-77.68,517.91-80.55,517.91-84.79z"/>
		<path class="st2" d="M529.79-83.43c0-4.2,3.48-6.4,11.56-7.28c-0.08-2.08-0.92-3.84-3.6-3.84c-1.98,0.14-3.88,0.8-5.52,1.92
			l-1.68-3.08c2.4-1.59,5.2-2.48,8.08-2.56c4.88,0,7.32,3,7.32,8.48v11.63h-3.8l-0.32-2.16h-0.16c-1.65,1.57-3.8,2.51-6.08,2.63
			c-3.02,0.18-5.62-2.12-5.8-5.14C529.78-83.03,529.78-83.23,529.79-83.43z M541.35-83.43v-4.4c-5.36,0.68-7.12,2.08-7.12,4
			c0,1.76,1.2,2.52,2.84,2.52S539.88-82.07,541.35-83.43z"/>
		<path class="st2" d="M551.47-97.79h3.82l0.3,2.63h0.16c1.76-1.72,3.76-3.12,6.44-3.12c4.2,0,6,2.84,6,7.8v12.32h-4.6v-11.71
			c0-3.24-0.92-4.44-3.08-4.44c-1.72,0-2.84,0.84-4.48,2.44v13.71h-4.6L551.47-97.79z"/>
		<path class="st2" d="M587.39-104.31h5.44l8.52,26.15h-4.88l-2-7.08h-8.8l-2,7.08h-4.72L587.39-104.31z M586.71-88.87h6.68
			l-0.92-3.2c-0.84-2.76-1.6-5.76-2.36-8.64h-0.16c-0.72,2.92-1.48,5.88-2.32,8.64L586.71-88.87z"/>
		<path class="st2" d="M604.2-97.79h3.8l0.32,3.48h0.16c1.4-2.56,3.48-4,5.56-4c0.77-0.04,1.53,0.1,2.24,0.4l-0.8,4
			c-0.65-0.21-1.32-0.32-2-0.32c-1.56,0-3.44,1.08-4.64,4v12.07h-4.6L604.2-97.79z"/>
		<path class="st2" d="M617.43-87.95c0-6.4,4.44-10.32,9-10.32c5.32,0,8.12,3.84,8.12,9.32c0.01,0.75-0.05,1.5-0.2,2.24h-12.44
			c0.4,3.48,2.64,5.48,5.8,5.48c1.64-0.01,3.23-0.51,4.58-1.44l1.56,2.88c-1.99,1.34-4.32,2.07-6.72,2.11
			C621.67-77.68,617.43-81.47,617.43-87.95z M630.59-89.83c0-3-1.32-4.88-4-4.88c-2.32,0-4.32,1.72-4.72,4.88H630.59z"/>
		<path class="st2" d="M637.47-83.43c0-4.2,3.48-6.4,11.56-7.28c-0.08-2.08-0.92-3.84-3.6-3.84c-1.98,0.14-3.88,0.8-5.52,1.92
			l-1.68-3.08c2.39-1.59,5.19-2.48,8.06-2.56c4.88,0,7.32,3,7.32,8.48v11.63h-3.8l-0.32-2.16h-0.16c-1.64,1.57-3.78,2.5-6.04,2.64
			c-3.02,0.19-5.62-2.1-5.82-5.12C637.46-83.01,637.46-83.22,637.47-83.43z M649.03-83.43v-4.4c-5.36,0.68-7.12,2.08-7.12,4
			c0,1.76,1.2,2.52,2.84,2.52S647.55-82.07,649.03-83.43z"/>
		<path class="st2" d="M361.02-65.05h4.2c4.8,0,7.63,2.59,7.63,7.77s-2.83,7.93-7.48,7.93h-4.35V-65.05z M365.02-51.61
			c3.17,0,5-1.8,5-5.67s-1.8-5.52-5-5.52h-1.22v11.19H365.02z"/>
		<path class="st2" d="M375.47-64.76c-0.08-0.94,0.61-1.77,1.55-1.85s1.77,0.61,1.85,1.55c0.08,0.94-0.61,1.77-1.55,1.85
			c-0.05,0-0.1,0.01-0.15,0.01c-0.88,0.06-1.64-0.6-1.7-1.48C375.47-64.7,375.47-64.73,375.47-64.76z M375.78-61.14h2.76v11.79
			h-2.76V-61.14z"/>
		<path class="st2" d="M380.89-50.7l1.3-1.77c0.91,0.8,2.06,1.26,3.26,1.31c1.28,0,1.88-0.61,1.88-1.42c0-1-1.28-1.42-2.52-1.9
			c-1.56-0.57-3.32-1.46-3.32-3.43s1.66-3.53,4.3-3.53c1.43,0.02,2.8,0.52,3.91,1.42l-1.27,1.68c-0.73-0.6-1.64-0.95-2.59-1
			c-1.18,0-1.73,0.55-1.73,1.3c0,0.93,1.18,1.29,2.45,1.75c1.61,0.6,3.38,1.37,3.38,3.57c0,2-1.61,3.65-4.58,3.65
			C383.73-49.11,382.16-49.68,380.89-50.7z"/>
		<path class="st2" d="M392.34-53.34v-5.62h-1.68v-2.06l1.83-0.14l0.33-3.22h2.31v3.22h3v2.2h-3v5.62c0,1.39,0.52,2.07,1.65,2.07
			c0.42-0.01,0.84-0.1,1.23-0.27l0.48,2c-0.77,0.27-1.58,0.42-2.4,0.43C393.35-49.07,392.34-50.8,392.34-53.34z"/>
		<path class="st2" d="M400.6-61.16h2.28l0.19,2.09h0.1c0.59-1.34,1.87-2.26,3.33-2.38c0.46-0.03,0.92,0.06,1.35,0.24l-0.48,2.4
			c-0.4-0.13-0.81-0.19-1.23-0.19c-0.93,0-2.06,0.65-2.78,2.43v7.2h-2.76L400.6-61.16z"/>
		<path class="st2" d="M409.29-64.76c-0.08-0.94,0.61-1.77,1.55-1.85s1.77,0.61,1.85,1.55c0.08,0.94-0.61,1.77-1.55,1.85
			c-0.05,0-0.1,0.01-0.15,0.01c-0.88,0.06-1.64-0.6-1.7-1.48C409.29-64.7,409.29-64.73,409.29-64.76z M409.6-61.14h2.69v11.79h-2.76
			L409.6-61.14z"/>
		<path class="st2" d="M415.07-55.24c-0.21-3.2,2.21-5.97,5.42-6.18c0.16-0.01,0.32-0.01,0.48-0.01c1.28-0.01,2.51,0.46,3.46,1.32
			l-1.34,1.8c-0.53-0.53-1.25-0.84-2-0.86c-1.9,0-3.22,1.56-3.22,3.93s1.3,3.92,3.15,3.92c0.9-0.05,1.75-0.4,2.42-1l1.13,1.82
			c-1.07,0.92-2.43,1.43-3.84,1.44C417.54-49.07,415.07-51.32,415.07-55.24z"/>
		<path class="st2" d="M427.09-53.34v-5.62h-1.68v-2.06l1.88-0.14l0.33-3.22h2.31v3.22h3v2.2h-3v5.62c0,1.39,0.52,2.07,1.65,2.07
			c0.42-0.01,0.84-0.1,1.23-0.27l0.48,2c-0.77,0.27-1.58,0.42-2.4,0.43C428.1-49.07,427.09-50.8,427.09-53.34z"/>
	</g>
	<g id="Layer_5">
		<polygon class="st2" points="251.07,311.46 264.6,316.85 278.43,336.07 288.29,337.51 295.78,357.34 374.33,256.29 323.25,246.93 
			316.32,232.78 299.12,218.34 306.39,196.21 324.64,177.4 313.96,164.28 293.94,155.77 283.49,135.77 266.14,137.71 242.83,126.91 
			227.13,128.5 216.52,141.24 186.21,219.94 173.2,244.85 136.06,277.14 		"/>
		<polygon class="st3" points="251.07,311.45 264.6,316.85 278.43,336.07 288.29,337.51 295.78,357.35 374.33,256.29 323.25,246.93 
			316.31,232.78 299.11,218.33 306.38,196.2 324.64,177.39 313.95,164.28 293.94,155.76 283.49,135.76 266.14,137.71 242.83,126.89 
			227.13,128.5 216.52,141.24 186.2,219.93 173.2,244.84 136.06,277.13 		"/>
		<polygon class="st2" points="438.48,345.36 440.47,343.73 432.04,335.2 425.82,333.76 423.76,338.67 425.48,342.52 431.51,342.23 
					"/>
		<polygon class="st3" points="438.48,345.35 440.47,343.72 432.04,335.19 425.81,333.75 423.75,338.66 425.48,342.51 
			431.51,342.23 		"/>
		<polygon class="st2" points="370.99,354.75 377.14,363.41 395.2,360.38 395.16,348.3 		"/>
		<polygon class="st3" points="370.99,354.75 377.14,363.4 395.2,360.37 395.16,348.29 		"/>
		<path class="st2" d="M371,354.75l24.17-6.45v12.08l-18.06,3L371,354.75z M412.07,473.45l35.9-14l-1-18.91l16.03-14.6l17.27-6.63
			l0.75-32.19L467.64,380L445,381l-1.16-13.9l11.24-7.89l-14.61-15.45l-2,1.64l-7-3.13l-6,0.29l-1.72-3.85l2.06-4.91l6.19,1.4
			l19.63-19.74l-11.61-15.09l-31.37-5.1l-4-22.23l-30.39-16.75l-78.55,101l9.78,2.8l6,21.11l18.78-3l9.82,20.67l11,6.11l6.67,18.2
			L363,416l36.5,19.64l13.27,15.55L412.07,473.45z"/>
		<polygon class="st3" points="412.06,473.44 447.96,459.48 446.95,440.58 463.03,425.94 480.31,419.31 481.05,387.11 
			467.64,379.94 445,380.96 443.84,367.05 455.08,359.16 440.47,343.72 438.48,345.35 431.51,342.23 425.48,342.51 423.75,338.66 
			425.81,333.75 432.04,335.19 451.67,315.45 440.06,300.37 408.69,295.26 404.72,273.03 374.33,256.29 295.78,357.35 
			305.56,360.13 311.59,381.25 330.37,378.22 340.19,398.89 351.21,404.99 357.88,423.2 362.97,415.94 399.47,435.58 412.74,451.13 
					"/>
		<polygon class="st3" points="370.99,354.75 395.16,348.29 395.2,360.37 377.14,363.4 		"/>
		<polygon class="st2" points="432.04,335.2 455.08,359.17 478.58,360.23 481.39,345.79 451.67,315.46 		"/>
		<polygon class="st3" points="432.04,335.19 455.08,359.16 478.58,360.23 481.39,345.79 451.67,315.45 		"/>
		<polygon class="st2" points="481.05,387.12 481.8,384.13 478.58,360.23 455.08,359.17 443.84,367.06 445,380.96 467.64,379.95 		
			"/>
		<polygon class="st3" points="481.05,387.11 481.8,384.13 478.58,360.23 455.08,359.16 443.84,367.05 445,380.96 467.64,379.94 		
			"/>
		<polygon class="st2" points="463.03,425.94 478.66,468.36 492.45,451.19 509.42,446.73 532.28,451.38 547.91,448.02 
			591.27,468.12 593.74,495.74 607.3,503.36 619.15,467.26 611.65,458.67 613.83,437.08 608.24,422.91 614.2,404.95 604.01,391.83 
			605.77,372.21 620.5,330.05 612.4,320.18 608.8,291.22 591.04,267.54 557.28,248.33 556.38,234.04 538.35,220.56 499.9,287.5 
			495.67,300.28 530.52,335.4 481.8,384.13 481.05,387.12 480.3,419.31 		"/>
		<polygon class="st3" points="463.03,425.94 478.65,468.35 492.45,451.18 509.42,446.72 532.28,451.37 547.91,448.02 
			591.26,468.11 593.74,495.72 607.3,503.35 619.15,467.26 611.65,458.66 613.82,437.07 608.24,422.91 614.2,404.94 604,391.82 
			605.77,372.2 620.49,330.05 612.4,320.17 608.8,291.21 591.04,267.53 557.27,248.33 556.38,234.03 538.35,220.56 499.9,287.49 
			495.67,300.27 530.52,335.39 481.8,384.13 481.05,387.11 480.31,419.31 		"/>
		<polygon class="st2" points="324.64,177.4 306.39,196.21 299.12,218.34 316.32,232.78 323.25,246.93 374.33,256.29 404.72,273.04 
			408.69,295.27 440.06,300.38 451.67,315.46 481.2,285.91 495.67,300.28 499.9,287.5 538.35,220.56 497.62,203.46 493.05,183.97 
			465.8,158.19 447.63,154.12 426.57,120.32 433.31,112.9 		"/>
		<polygon class="st3" points="324.64,177.39 306.38,196.2 299.11,218.33 316.31,232.78 323.25,246.93 374.33,256.29 404.72,273.03 
			408.69,295.26 440.06,300.37 451.67,315.45 481.2,285.91 495.67,300.27 499.9,287.49 538.35,220.56 497.62,203.45 493.05,183.97 
			465.8,158.18 447.63,154.12 426.56,120.31 433.31,112.9 		"/>
		<polygon class="st2" points="451.67,315.46 481.39,345.79 478.58,360.23 481.8,384.13 530.52,335.4 481.2,285.91 		"/>
		<polygon class="st3" points="451.67,315.45 481.39,345.79 478.58,360.23 481.8,384.13 530.52,335.39 481.2,285.91 		"/>
	</g>
	<g id="Layer_7">
		<polyline class="st4" points="481.82,383.73 480.31,419.31 463.03,425.94 478.65,468.35 		"/>
		<polyline class="st4" points="324.64,177.39 306.38,196.2 299.11,218.33 316.31,232.78 323.25,246.93 374.33,256.29 
			404.72,273.03 408.69,295.26 440.06,300.37 451.67,315.45 		"/>
		<polygon class="st4" points="481.8,384.13 478.58,360.23 481.39,345.79 451.67,315.45 481.2,285.91 530.52,335.39 		"/>
	</g>
	<g>
		<path class="st5" d="M146.54,40.84h4.76l2.28,13.2c0.44,2.8,0.88,5.6,1.28,8.36h0.16c0.56-2.76,1.12-5.6,1.72-8.36l3.2-13.2h4.04
			l3.2,13.2c0.6,2.72,1.16,5.56,1.76,8.36h0.16c0.4-2.8,0.84-5.6,1.24-8.36l2.28-13.2h4.44l-5,26.16h-5.76l-3.24-13.76
			c-0.44-2.04-0.84-4.04-1.16-6.04h-0.16c-0.36,2-0.76,4-1.2,6.04L157.38,67h-5.64L146.54,40.84z"/>
		<path class="st5" d="M179.14,61.72c0-4.2,3.48-6.4,11.56-7.28c-0.08-2.08-0.92-3.84-3.6-3.84c-1.92,0-3.76,0.88-5.52,1.92
			l-1.68-3.08c2.16-1.36,4.96-2.56,8.08-2.56c4.88,0,7.32,3,7.32,8.48V67h-3.8l-0.32-2.16h-0.16c-1.76,1.48-3.76,2.64-6.08,2.64
			C181.5,67.48,179.14,65.16,179.14,61.72z M190.7,61.72v-4.4c-5.36,0.68-7.12,2.08-7.12,4.04c0,1.76,1.2,2.52,2.84,2.52
			C188.02,63.88,189.22,63.08,190.7,61.72z"/>
		<path class="st5" d="M198.86,64.76l2.16-2.96c1.76,1.36,3.44,2.2,5.44,2.2c2.12,0,3.12-1,3.12-2.36c0-1.64-2.12-2.36-4.2-3.16
			c-2.6-0.96-5.52-2.44-5.52-5.72c0-3.44,2.76-5.88,7.16-5.88c2.72,0,4.92,1.12,6.52,2.36l-2.12,2.8c-1.36-1-2.76-1.68-4.32-1.68
			c-1.96,0-2.88,0.92-2.88,2.16c0,1.56,1.96,2.16,4.08,2.92c2.68,1,5.64,2.28,5.64,5.96c0,3.36-2.68,6.08-7.64,6.08
			C203.62,67.48,200.78,66.32,198.86,64.76z"/>
		<path class="st5" d="M218.06,38.76h4.6v7.28l-0.16,3.8c1.64-1.56,3.6-2.96,6.28-2.96c4.2,0,6.04,2.84,6.04,7.8V67h-4.6V55.28
			c0-3.24-0.92-4.44-3.08-4.44c-1.72,0-2.84,0.84-4.48,2.44V67h-4.6L218.06,38.76L218.06,38.76z"/>
		<path class="st5" d="M239.86,41.32c0-1.56,1.2-2.64,2.84-2.64s2.84,1.08,2.84,2.64c0,1.52-1.2,2.6-2.84,2.6
			S239.86,42.84,239.86,41.32z M240.38,47.36h4.6V67h-4.6V47.36z"/>
		<path class="st5" d="M250.86,47.36h3.8l0.32,2.64h0.16c1.76-1.72,3.76-3.12,6.44-3.12c4.2,0,6.04,2.84,6.04,7.8V67h-4.6V55.28
			c0-3.24-0.92-4.44-3.08-4.44c-1.72,0-2.84,0.84-4.48,2.44V67h-4.6L250.86,47.36L250.86,47.36z"/>
		<path class="st5" d="M271.94,70.56c0-1.64,1-3.08,2.8-4.2V66.2c-1-0.64-1.76-1.68-1.76-3.28c0-1.52,1.04-2.84,2.16-3.64v-0.16
			c-1.32-1-2.56-2.88-2.56-5.2c0-4.52,3.64-7.04,7.76-7.04c1.08,0,2.08,0.2,2.88,0.48h7.04v3.4h-3.6c0.64,0.76,1.12,1.96,1.12,3.32
			c0,4.36-3.28,6.68-7.44,6.68c-0.84,0-1.8-0.16-2.68-0.52c-0.6,0.52-0.96,1-0.96,1.88c0,1.12,0.8,1.8,3.2,1.8h3.48
			c4.72,0,7.2,1.44,7.2,4.84c0,3.88-4.08,6.92-10.48,6.92C275.42,75.68,271.94,74,271.94,70.56z M286.14,69.52
			c0-1.52-1.24-1.96-3.48-1.96h-2.68c-1.08,0-1.92-0.08-2.68-0.28c-1.04,0.8-1.52,1.68-1.52,2.6c0,1.76,1.92,2.8,5.04,2.8
			C283.98,72.68,286.14,71.2,286.14,69.52z M283.74,53.92c0-2.44-1.48-3.88-3.4-3.88c-1.92,0-3.44,1.4-3.44,3.88
			c0,2.52,1.52,3.96,3.44,3.96C282.22,57.88,283.74,56.44,283.74,53.92z"/>
		<path class="st5" d="M294.74,60.36V51h-2.8v-3.44l3.04-0.2l0.56-5.36h3.84v5.36h5V51h-5v9.36c0,2.32,0.88,3.44,2.76,3.44
			c0.68,0,1.48-0.2,2.04-0.44l0.8,3.4c-1.08,0.36-2.44,0.72-4,0.72C296.42,67.48,294.74,64.6,294.74,60.36z"/>
		<path class="st5" d="M306.58,57.2c0-6.56,4.44-10.32,9.32-10.32c4.92,0,9.36,3.76,9.36,10.32c0,6.52-4.44,10.28-9.36,10.28
			C311.02,67.48,306.58,63.72,306.58,57.2z M320.54,57.2c0-3.96-1.76-6.56-4.64-6.56s-4.6,2.6-4.6,6.56c0,3.92,1.72,6.52,4.6,6.52
			S320.54,61.12,320.54,57.2z"/>
		<path class="st5" d="M329.82,47.36h3.8l0.32,2.64h0.16c1.76-1.72,3.76-3.12,6.44-3.12c4.2,0,6.04,2.84,6.04,7.8V67h-4.6V55.28
			c0-3.24-0.92-4.44-3.08-4.44c-1.72,0-2.84,0.84-4.48,2.44V67h-4.6V47.36z"/>
		<path class="st5" d="M360.62,40.84h5.24l4.64,12.8c0.56,1.64,1.12,3.4,1.68,5.12h0.16c0.56-1.72,1.08-3.48,1.64-5.12l4.52-12.8
			h5.28V67h-4.28V55.04c0-2.44,0.36-5.92,0.6-8.32h-0.16l-2.12,6.08l-4.28,11.76h-2.76l-4.32-11.76l-2.08-6.08h-0.16
			c0.2,2.4,0.6,5.88,0.6,8.32V67h-4.2V40.84z"/>
		<path class="st5" d="M388.74,57.2c0-6.4,4.44-10.32,9.04-10.32c5.32,0,8.12,3.84,8.12,9.32c0,0.88-0.08,1.76-0.2,2.24h-12.48
			c0.4,3.48,2.64,5.48,5.8,5.48c1.68,0,3.12-0.52,4.56-1.44l1.56,2.88c-1.88,1.24-4.24,2.12-6.72,2.12
			C392.98,67.48,388.74,63.68,388.74,57.2z M401.9,55.32c0-3.04-1.32-4.88-4-4.88c-2.32,0-4.32,1.72-4.72,4.88H401.9z"/>
		<path class="st5" d="M410.58,60.36V51h-2.8v-3.44l3.04-0.2l0.56-5.36h3.84v5.36h5V51h-5v9.36c0,2.32,0.88,3.44,2.76,3.44
			c0.68,0,1.48-0.2,2.04-0.44l0.8,3.4c-1.08,0.36-2.44,0.72-4,0.72C412.26,67.48,410.58,64.6,410.58,60.36z"/>
		<path class="st5" d="M424.34,47.36h3.8l0.32,3.48h0.16c1.4-2.56,3.48-3.96,5.56-3.96c1,0,1.64,0.12,2.24,0.4l-0.8,4
			c-0.68-0.2-1.2-0.32-2.04-0.32c-1.56,0-3.44,1.08-4.64,4.04v12h-4.6L424.34,47.36L424.34,47.36z"/>
		<path class="st5" d="M437.58,57.2c0-6.56,4.44-10.32,9.32-10.32c4.92,0,9.36,3.76,9.36,10.32c0,6.52-4.44,10.28-9.36,10.28
			C442.02,67.48,437.58,63.72,437.58,57.2z M451.53,57.2c0-3.96-1.76-6.56-4.64-6.56s-4.6,2.6-4.6,6.56c0,3.92,1.72,6.52,4.6,6.52
			S451.53,61.12,451.53,57.2z"/>
		<path class="st5" d="M460.82,47.36h3.8l0.32,2.08h0.16c1.64-1.4,3.76-2.56,5.92-2.56c4.88,0,7.72,3.92,7.72,10
			c0,6.72-4.04,10.6-8.4,10.6c-1.72,0-3.44-0.8-5.04-2.16l0.12,3.28v6.16h-4.6V47.36z M473.97,56.92c0-3.92-1.28-6.24-4.24-6.24
			c-1.44,0-2.8,0.72-4.32,2.2v9.16c1.44,1.2,2.8,1.64,3.96,1.64C471.97,63.68,473.97,61.36,473.97,56.92z"/>
		<path class="st5" d="M482.1,57.2c0-6.56,4.44-10.32,9.32-10.32c4.92,0,9.36,3.76,9.36,10.32c0,6.52-4.44,10.28-9.36,10.28
			C486.54,67.48,482.1,63.72,482.1,57.2z M496.05,57.2c0-3.96-1.76-6.56-4.64-6.56s-4.6,2.6-4.6,6.56c0,3.92,1.72,6.52,4.6,6.52
			C494.29,63.72,496.05,61.12,496.05,57.2z"/>
		<path class="st5" d="M505.34,61.96v-23.2h4.6V62.2c0,1.12,0.52,1.52,1,1.52c0.2,0,0.36,0,0.72-0.08l0.6,3.44
			c-0.56,0.24-1.36,0.4-2.44,0.4C506.54,67.48,505.34,65.36,505.34,61.96z"/>
		<path class="st5" d="M515.66,41.32c0-1.56,1.2-2.64,2.84-2.64s2.84,1.08,2.84,2.64c0,1.52-1.2,2.6-2.84,2.6
			S515.66,42.84,515.66,41.32z M516.18,47.36h4.6V67h-4.6V47.36z"/>
		<path class="st5" d="M527.33,60.36V51h-2.8v-3.44l3.04-0.2l0.56-5.36h3.84v5.36h5V51h-5v9.36c0,2.32,0.88,3.44,2.76,3.44
			c0.68,0,1.48-0.2,2.04-0.44l0.8,3.4c-1.08,0.36-2.44,0.72-4,0.72C529.01,67.48,527.33,64.6,527.33,60.36z"/>
		<path class="st5" d="M539.21,61.72c0-4.2,3.48-6.4,11.56-7.28c-0.08-2.08-0.92-3.84-3.6-3.84c-1.92,0-3.76,0.88-5.52,1.92
			l-1.68-3.08c2.16-1.36,4.96-2.56,8.08-2.56c4.88,0,7.32,3,7.32,8.48V67h-3.8l-0.32-2.16h-0.16c-1.76,1.48-3.76,2.64-6.08,2.64
			C541.57,67.48,539.21,65.16,539.21,61.72z M550.77,61.72v-4.4c-5.36,0.68-7.12,2.08-7.12,4.04c0,1.76,1.2,2.52,2.84,2.52
			C548.09,63.88,549.29,63.08,550.77,61.72z"/>
		<path class="st5" d="M560.9,47.36h3.8l0.32,2.64h0.16c1.76-1.72,3.76-3.12,6.44-3.12c4.2,0,6.04,2.84,6.04,7.8V67h-4.6V55.28
			c0-3.24-0.92-4.44-3.08-4.44c-1.72,0-2.84,0.84-4.48,2.44V67h-4.6V47.36z"/>
		<path class="st5" d="M596.81,40.84h5.44L610.77,67h-4.88l-2.04-7.08h-8.8L593.01,67h-4.72L596.81,40.84z M596.13,56.28h6.68
			l-0.92-3.2c-0.84-2.76-1.6-5.76-2.36-8.64h-0.16c-0.72,2.92-1.48,5.88-2.32,8.64L596.13,56.28z"/>
		<path class="st5" d="M613.61,47.36h3.8l0.32,3.48h0.16c1.4-2.56,3.48-3.96,5.56-3.96c1,0,1.64,0.12,2.24,0.4l-0.8,4
			c-0.68-0.2-1.2-0.32-2.04-0.32c-1.56,0-3.44,1.08-4.64,4.04v12h-4.6V47.36z"/>
		<path class="st5" d="M626.85,57.2c0-6.4,4.44-10.32,9.04-10.32c5.32,0,8.12,3.84,8.12,9.32c0,0.88-0.08,1.76-0.2,2.24h-12.48
			c0.4,3.48,2.64,5.48,5.8,5.48c1.68,0,3.12-0.52,4.56-1.44l1.56,2.88c-1.88,1.24-4.24,2.12-6.72,2.12
			C631.09,67.48,626.85,63.68,626.85,57.2z M640.01,55.32c0-3.04-1.32-4.88-4-4.88c-2.32,0-4.32,1.72-4.72,4.88H640.01z"/>
		<path class="st5" d="M646.89,61.72c0-4.2,3.48-6.4,11.56-7.28c-0.08-2.08-0.92-3.84-3.6-3.84c-1.92,0-3.76,0.88-5.52,1.92
			l-1.68-3.08c2.16-1.36,4.96-2.56,8.08-2.56c4.88,0,7.32,3,7.32,8.48V67h-3.8l-0.32-2.16h-0.16c-1.76,1.48-3.76,2.64-6.08,2.64
			C649.25,67.48,646.89,65.16,646.89,61.72z M658.45,61.72v-4.4c-5.36,0.68-7.12,2.08-7.12,4.04c0,1.76,1.2,2.52,2.84,2.52
			C655.77,63.88,656.97,63.08,658.45,61.72z"/>
		<path class="st5" d="M372.56,80.1h4.2c4.8,0,7.63,2.59,7.63,7.78c0,5.21-2.83,7.92-7.49,7.92h-4.34L372.56,80.1L372.56,80.1z
			 M376.57,93.54c3.17,0,4.97-1.8,4.97-5.67c0-3.84-1.8-5.52-4.97-5.52h-1.22v11.19C375.35,93.54,376.57,93.54,376.57,93.54z"/>
		<path class="st5" d="M387.01,80.39c0-0.94,0.72-1.58,1.7-1.58s1.7,0.65,1.7,1.58c0,0.91-0.72,1.56-1.7,1.56
			S387.01,81.3,387.01,80.39z M387.32,84.02h2.76V95.8h-2.76V84.02z"/>
		<path class="st5" d="M392.44,94.46l1.3-1.78C394.79,93.5,395.8,94,397,94c1.27,0,1.87-0.6,1.87-1.42c0-0.98-1.27-1.42-2.52-1.9
			c-1.56-0.58-3.31-1.46-3.31-3.43c0-2.06,1.66-3.53,4.3-3.53c1.63,0,2.95,0.67,3.91,1.42l-1.27,1.68c-0.82-0.6-1.66-1.01-2.59-1.01
			c-1.18,0-1.73,0.55-1.73,1.3c0,0.94,1.18,1.3,2.45,1.75c1.61,0.6,3.38,1.37,3.38,3.58c0,2.02-1.61,3.65-4.58,3.65
			C395.29,96.09,393.59,95.39,392.44,94.46z"/>
		<path class="st5" d="M403.88,91.82V86.2h-1.68v-2.06l1.82-0.12l0.34-3.22h2.3v3.22h3v2.18h-3v5.62c0,1.39,0.53,2.06,1.66,2.06
			c0.41,0,0.89-0.12,1.22-0.26l0.48,2.04c-0.65,0.22-1.46,0.43-2.4,0.43C404.89,96.09,403.88,94.36,403.88,91.82z"/>
		<path class="st5" d="M412.14,84.02h2.28l0.19,2.09h0.1c0.84-1.54,2.09-2.38,3.34-2.38c0.6,0,0.98,0.07,1.34,0.24l-0.48,2.4
			c-0.41-0.12-0.72-0.19-1.22-0.19c-0.94,0-2.06,0.65-2.78,2.42v7.2h-2.76L412.14,84.02L412.14,84.02z"/>
		<path class="st5" d="M420.78,80.39c0-0.94,0.72-1.58,1.7-1.58s1.7,0.65,1.7,1.58c0,0.91-0.72,1.56-1.7,1.56
			S420.78,81.3,420.78,80.39z M421.09,84.02h2.76V95.8h-2.76V84.02z"/>
		<path class="st5" d="M426.61,89.92c0-3.94,2.76-6.19,5.9-6.19c1.51,0,2.59,0.58,3.46,1.32l-1.34,1.8
			c-0.62-0.55-1.22-0.86-1.97-0.86c-1.9,0-3.22,1.56-3.22,3.94c0,2.35,1.3,3.91,3.14,3.91c0.91,0,1.75-0.46,2.42-1.01l1.13,1.82
			c-1.1,0.96-2.5,1.44-3.84,1.44C429.08,96.09,426.61,93.83,426.61,89.92z"/>
		<path class="st5" d="M438.63,91.82V86.2h-1.68v-2.06l1.82-0.12l0.34-3.22h2.3v3.22h3v2.18h-3v5.62c0,1.39,0.53,2.06,1.66,2.06
			c0.41,0,0.89-0.12,1.22-0.26l0.48,2.04c-0.65,0.22-1.46,0.43-2.4,0.43C439.64,96.09,438.63,94.36,438.63,91.82z"/>
	</g>
	<g>
		<path class="st6" d="M488.55,328.97h3.67c4.2,0,6.68,2.27,6.68,6.8c0,4.56-2.48,6.93-6.55,6.93h-3.8V328.97z M492.06,340.73
			c2.77,0,4.35-1.58,4.35-4.96c0-3.36-1.57-4.83-4.35-4.83h-1.07v9.78H492.06z"/>
		<path class="st6" d="M500.96,335.88c0-4.49,2.81-7.16,6.28-7.16c1.72,0,3.11,0.82,3.97,1.74l-1.3,1.57
			c-0.71-0.71-1.53-1.2-2.6-1.2c-2.25,0-3.84,1.89-3.84,4.98c0,3.13,1.47,5.02,3.78,5.02c1.22,0,2.16-0.57,2.94-1.41l1.3,1.53
			c-1.11,1.28-2.56,1.99-4.33,1.99C503.69,342.95,500.96,340.43,500.96,335.88z"/>
	</g>
	<g>
		<g>
			<path class="st6" d="M376.16,228.3l2.35,1.44l-1.43,7c-0.2,0.89-0.43,1.83-0.65,2.75l0.07,0.04c0.72-0.62,1.44-1.26,2.14-1.84
				l5.53-4.49l2.36,1.45l-7.17,11.72l-1.92-1.17l3.28-5.36c0.67-1.09,1.78-2.55,2.55-3.56l-0.07-0.04l-2.61,2.14l-5.14,4.09
				l-1.24-0.76l1.29-6.45l0.73-3.29l-0.07-0.04c-0.57,1.13-1.34,2.8-2.01,3.89l-3.28,5.36l-1.88-1.15L376.16,228.3z"/>
			<path class="st6" d="M391.92,238.07l2.4,1.54l-3.64,13.98l-2.16-1.38l1.1-3.71l-3.89-2.49l-2.91,2.55l-2.09-1.34L391.92,238.07z
				 M387.24,244.7l2.95,1.89l0.5-1.68c0.41-1.46,0.92-3,1.4-4.49l-0.07-0.05c-1.15,1.09-2.32,2.18-3.47,3.16L387.24,244.7z"/>
			<path class="st6" d="M399.67,243.07l3.86,2.58c2.38,1.59,3.63,3.64,1.93,6.19c-1.17,1.75-2.77,2.19-4.45,1.75l-0.46,6.59
				l-2.27-1.52l0.52-6.12l-1.75-1.17l-2.98,4.47l-2.03-1.35L399.67,243.07z M399.75,250.85c1.55,1.04,2.85,0.94,3.72-0.35
				c0.87-1.31,0.32-2.34-1.23-3.37l-1.62-1.08l-2.48,3.72L399.75,250.85z"/>
			<path class="st6" d="M406.95,258.41l1.54-9.43l2.14,1.48l-0.78,3.73c-0.26,1.07-0.49,2.06-0.72,3.18l0.07,0.05
				c0.96-0.61,1.84-1.15,2.76-1.76l3.22-2.03l2.09,1.45l-8.32,4.73l-2.91,4.19l-2-1.39L406.95,258.41z"/>
			<path class="st6" d="M418.8,256.17l1.97,1.43l-6.85,9.46l4.63,3.35l-1.21,1.67l-6.6-4.78L418.8,256.17z"/>
			<path class="st6" d="M429.65,264.14l2.27,1.73l-4.74,13.64l-2.04-1.55l1.39-3.61l-3.68-2.79l-3.1,2.31l-1.97-1.5L429.65,264.14z
				 M424.47,270.38l2.79,2.12l0.63-1.63c0.53-1.42,1.16-2.92,1.76-4.36l-0.07-0.05c-1.23,0.99-2.48,1.99-3.71,2.88L424.47,270.38z"
				/>
			<path class="st6" d="M437.09,269.82l1.94,1.57l-1.53,8.7l-0.74,3.16l0.07,0.05c0.8-1.16,1.74-2.65,2.7-3.84l3.75-4.64l1.81,1.47
				l-8.64,10.68l-1.94-1.57l1.53-8.7l0.74-3.15l-0.07-0.05c-0.83,1.19-1.71,2.61-2.68,3.81l-3.78,4.67l-1.81-1.47L437.09,269.82z"/>
			<path class="st6" d="M448.06,278.81l2.76,2.43c3.15,2.77,3.51,6.11,0.52,9.52c-3.01,3.42-6.44,3.56-9.5,0.87l-2.85-2.51
				L448.06,278.81z M442.92,289.95c2.08,1.83,4.3,1.69,6.54-0.85c2.22-2.52,2.01-4.67-0.07-6.5l-0.8-0.71l-6.46,7.34L442.92,289.95z
				"/>
		</g>
	</g>
	<g>
		<g>
			<path class="st6" d="M360.68,269l2.15,1.43l-2.2,6.83c-0.49,1.54-0.97,2.83-1.45,4.4l0.07,0.05c1.25-1.06,2.26-2,3.47-3.07
				l5.41-4.71l2.08,1.38l-11.13,9.1l-2.4-1.59L360.68,269z"/>
			<path class="st6" d="M371.69,276.34l2.01,1.37l-7.75,11.35l-2.01-1.37L371.69,276.34z"/>
			<path class="st6" d="M376.69,279.75l3.8,2.67c2.34,1.64,3.55,3.72,1.78,6.23c-1.21,1.72-2.83,2.12-4.49,1.64l-0.62,6.58
				l-2.23-1.57l0.67-6.1l-1.72-1.21l-3.09,4.4l-1.99-1.4L376.69,279.75z M376.59,287.54c1.53,1.08,2.83,1.01,3.72-0.26
				c0.91-1.29,0.38-2.33-1.15-3.4l-1.6-1.12l-2.57,3.66L376.59,287.54z"/>
			<path class="st6" d="M382.35,292.2c2.66-3.63,6.52-4.1,9.47-1.94c1.58,1.16,2.15,2.65,2.32,3.87l-1.98,0.5
				c-0.16-0.95-0.49-1.85-1.53-2.6c-1.97-1.44-4.41-0.89-6.23,1.61c-1.85,2.52-1.8,4.91,0.42,6.53c0.63,0.46,1.36,0.74,1.95,0.68
				l1.75-2.39l-2.1-1.54l1.18-1.61l3.86,2.83l-3.58,4.88c-1.29,0.2-3-0.17-4.51-1.27C380.38,299.53,379.65,295.87,382.35,292.2z"/>
			<path class="st6" d="M397.74,294.99l1.94,1.47l-8.3,10.94l-1.94-1.47L397.74,294.99z"/>
			<path class="st6" d="M402.61,298.67l1.96,1.54l-1.41,8.72l-0.7,3.16l0.07,0.05c0.79-1.17,1.7-2.67,2.65-3.88l3.69-4.69l1.83,1.44
				l-8.49,10.8l-1.96-1.54l1.41-8.72l0.7-3.16l-0.07-0.05c-0.81,1.2-1.67,2.64-2.62,3.84l-3.71,4.72l-1.83-1.44L402.61,298.67z"/>
			<path class="st6" d="M413.56,307.39l1.88,1.54l-8.72,10.62l-1.88-1.55L413.56,307.39z"/>
			<path class="st6" d="M420.33,313.02l2.17,1.86l-5.53,13.35l-1.95-1.67l1.6-3.52l-3.51-3l-3.23,2.13l-1.88-1.61L420.33,313.02z
				 M414.79,318.95l2.67,2.28l0.72-1.59c0.61-1.39,1.33-2.85,2.01-4.25l-0.06-0.05c-1.28,0.92-2.6,1.84-3.87,2.66L414.79,318.95z"/>
		</g>
	</g>
</g>
<g id="Layer_2">
</g>
</svg>
