<?xml version="1.0" encoding="utf-8"?>
<!-- Generator: Adobe Illustrator 25.4.1, SVG Export Plug-In . SVG Version: 6.00 Build 0)  -->
<svg version="1.1" id="Layer_1" xmlns="http://www.w3.org/2000/svg" xmlns:xlink="http://www.w3.org/1999/xlink" x="0px" y="0px"
	 viewBox="0 0 784.06 507.87" style="enable-background:new 0 0 784.06 507.87;" xml:space="preserve">
<style type="text/css">
	.st0{fill:#E6E6E6;}
	.st1{fill:none;stroke:#F0F0F0;stroke-width:2.54;stroke-miterlimit:10;}
	.st2{fill:#F0F0F0;}
	.st3{opacity:0.8;fill:#007DBC;enable-background:new    ;}
	.st4{fill:none;stroke:#0675AF;stroke-width:0.64;stroke-linejoin:bevel;}
	.st5{fill:none;stroke:#FFFFFF;stroke-width:3;stroke-miterlimit:10;}
	.st6{fill:#FFFFFF;}
	.st7{opacity:0.8;enable-background:new    ;}
	.st8{fill:#007DBC;}
	.st9{enable-background:new    ;}
</style>
<g id="Layer_1_00000002385391929343799630000001496464928125086864_">
	<rect x="-11.18" y="-11.39" class="st0" width="804.92" height="529.99"/>
</g>
<g id="Layer_2_00000111885431886465733500000013037062524836690863_">
	<polygon class="st1" points="335.68,256.37 333.58,262.8 326.83,262.8 332.29,266.77 330.21,273.2 335.68,269.23 341.14,273.2 
		339.05,266.77 344.53,262.8 337.76,262.8 	"/>
	<rect x="307.94" y="274.68" class="st2" width="55.27" height="21.6"/>
	<polygon class="st3" points="388.19,105.76 388.27,111.22 420.2,110.8 419.93,89.61 422.57,89.59 422.76,79.22 401.69,78.98 
		401.77,75.43 391.15,75.48 391.08,89.69 387.96,89.7 	"/>
	<polygon class="st4" points="388.18,105.75 388.27,111.22 420.2,110.8 419.93,89.61 422.57,89.59 422.76,79.22 401.69,78.98 
		401.77,75.43 391.15,75.48 391.08,89.69 387.96,89.7 	"/>
	<polygon class="st3" points="258.27,143.45 258.58,164.47 288.33,164.56 288.06,152.23 290.97,150.15 289.24,148.13 290.49,143.33 
		305.75,143.53 305.76,122.28 268.47,122.12 268.57,131.15 258.16,131.18 	"/>
	<polygon class="st4" points="258.27,143.45 258.58,164.47 288.33,164.56 288.05,152.23 290.97,150.15 289.24,148.13 290.49,143.33 
		305.75,143.53 305.76,122.28 268.47,122.12 268.57,131.15 258.15,131.18 	"/>
	<polygon class="st3" points="409.81,153.49 409.97,163.98 444.74,163.82 444.24,121.44 420.17,121.53 420.29,153.4 	"/>
	<polygon class="st4" points="409.81,153.49 409.97,163.98 444.74,163.82 444.24,121.44 420.17,121.53 420.29,153.39 	"/>
	<polygon class="st3" points="430.72,257.56 434.19,257.57 434.05,266.29 447.86,266.39 447.88,264.66 468.08,264.96 468.41,231.63 
		432.52,231.7 432.58,247.36 430.76,247.38 	"/>
	<polygon class="st4" points="430.72,257.56 434.19,257.57 434.05,266.28 447.86,266.39 447.88,264.66 468.08,264.96 468.41,231.63 
		432.52,231.7 432.58,247.36 430.76,247.38 	"/>
	<polygon class="st3" points="330.82,419.22 359.66,419.76 359.79,411.52 363.12,409.95 369.76,409.76 373.15,402.98 369.69,401.32 
		369.42,382.62 360.62,378.65 356.82,380.07 350.75,376.85 346.74,379.27 342.25,376.94 333.89,379.16 330.69,382.77 	"/>
	<polygon class="st4" points="330.82,419.22 359.66,419.76 359.79,411.52 363.12,409.95 369.76,409.76 373.15,402.98 369.69,401.32 
		369.42,382.62 360.62,378.65 356.82,380.07 350.75,376.85 346.74,379.27 342.25,376.94 333.89,379.15 330.69,382.77 	"/>
	<polygon class="st3" points="224.4,449.34 223.88,464.59 226,464.55 225.88,475.53 232.18,475.96 239.56,480.45 242.67,482.76 
		242.71,477.4 246.21,472.5 252.87,466.68 253.22,462.43 259.18,462.9 260.66,454.88 265.72,454.85 265.72,444.89 260.61,444.87 
		260.61,441.5 239.91,441.61 238.22,439.92 238.21,445.1 224.46,445.17 	"/>
	<polygon class="st4" points="224.4,449.34 223.88,464.59 226,464.55 225.88,475.53 232.18,475.96 239.56,480.44 242.67,482.76 
		242.71,477.39 246.21,472.5 252.87,466.68 253.22,462.43 259.18,462.9 260.66,454.88 265.71,454.84 265.71,444.89 260.61,444.87 
		260.61,441.5 239.91,441.61 238.21,439.92 238.21,445.1 224.46,445.17 	"/>
	<polygon class="st3" points="218.51,214.48 222.28,214.43 222.27,216.95 229.97,216.94 227.02,212.35 228.75,209.15 234.48,206.91 
		241.42,198.89 246.07,194.78 255.24,191.3 258.86,188.19 258.72,175 218.96,174.82 	"/>
	<polygon class="st4" points="218.51,214.48 222.28,214.43 222.27,216.95 229.97,216.94 227.02,212.35 228.75,209.15 234.47,206.91 
		241.42,198.89 246.07,194.78 255.24,191.3 258.86,188.19 258.72,175 218.96,174.82 	"/>
	<polygon class="st3" points="364.1,111.54 364.72,153.78 392.37,153.55 391.89,111.16 388.27,111.22 388.19,105.76 364.17,106.22 	
		"/>
	<polygon class="st4" points="364.1,111.54 364.71,153.78 392.37,153.55 391.89,111.16 388.27,111.22 388.18,105.75 364.17,106.22 	
		"/>
	<polygon class="st3" points="211.83,320.56 245.24,320.62 245.38,289.54 248.94,289.63 249.04,279.22 218.44,279.19 218.49,310.06 
		214.2,310.97 210.47,315.55 	"/>
	<polygon class="st4" points="211.83,320.56 245.24,320.62 245.38,289.54 248.94,289.63 249.04,279.22 218.44,279.19 218.49,310.06 
		214.2,310.96 210.47,315.55 	"/>
	<polygon class="st3" points="218.44,279.19 232.2,279.12 230.99,273.76 232.27,268.82 232.9,257.01 231.91,252.19 234.82,248.76 
		232.55,243.89 227.53,240.46 228.73,237.94 227.37,229.09 228.98,225.2 229.97,216.94 222.27,216.95 222.28,214.43 218.51,214.48 	
		"/>
	<polygon class="st4" points="218.44,279.19 232.2,279.12 230.99,273.75 232.27,268.82 232.9,257.01 231.91,252.19 234.81,248.76 
		232.55,243.89 227.53,240.46 228.73,237.94 227.37,229.09 228.98,225.2 229.97,216.94 222.27,216.95 222.28,214.43 218.51,214.48 	
		"/>
	<polygon class="st3" points="202.96,480.56 205.99,480.62 204.72,485.44 205.82,488.68 210.8,488.22 213.25,484.85 212.96,481.9 
		209.61,477.02 212.34,471.65 215.09,475.47 220.32,479.55 225.88,475.53 226,464.55 223.88,464.59 224.4,449.34 204.09,448.99 
		203.32,454.1 	"/>
	<polygon class="st4" points="202.96,480.56 205.99,480.62 204.72,485.44 205.82,488.68 210.8,488.22 213.25,484.84 212.96,481.9 
		209.61,477.02 212.34,471.65 215.09,475.47 220.32,479.55 225.88,475.53 226,464.55 223.88,464.59 224.4,449.34 204.09,448.99 
		203.32,454.1 	"/>
	<polygon class="st3" points="447.71,288.86 467.99,289.36 468.08,264.96 447.88,264.66 	"/>
	<polygon class="st4" points="447.71,288.86 467.99,289.36 468.08,264.96 447.88,264.66 	"/>
	<polygon class="st3" points="336.86,187.29 336.88,206.32 371.86,205.95 371.83,183.31 336.88,183.79 	"/>
	<polygon class="st4" points="336.86,187.28 336.88,206.32 371.86,205.95 371.83,183.31 336.87,183.79 	"/>
	<polygon class="st3" points="258.58,164.47 258.82,206.45 295.26,206.49 295.3,164.59 	"/>
	<polygon class="st4" points="258.58,164.47 258.82,206.44 295.26,206.49 295.3,164.59 	"/>
	<polygon class="st3" points="432.37,361.47 432.52,387.69 435.14,388.09 451.67,377.53 455.85,377.81 460.85,375.61 468.16,376.62 
		467.26,370.27 469.84,368.12 469.11,364 462.91,362.99 438.14,362.72 438.56,359.6 432.39,359.73 	"/>
	<polygon class="st4" points="432.37,361.47 432.52,387.69 435.14,388.09 451.67,377.53 455.85,377.81 460.85,375.61 468.16,376.62 
		467.26,370.27 469.84,368.12 469.11,364 462.91,362.99 438.14,362.72 438.56,359.6 432.39,359.73 	"/>
	<polygon class="st3" points="219.29,362.81 245.21,362.9 245.24,320.62 211.83,320.56 214.16,322.29 214.32,326.3 209.57,332.66 
		206.82,335.2 210.52,338.95 210.35,341.04 214.73,344.51 214.65,353.01 220.18,356.48 	"/>
	<polygon class="st4" points="219.29,362.81 245.2,362.89 245.24,320.62 211.83,320.56 214.16,322.29 214.32,326.3 209.57,332.66 
		206.82,335.19 210.52,338.95 210.34,341.04 214.73,344.51 214.64,353.01 220.17,356.48 	"/>
	<polygon class="st3" points="432.95,18.45 433.2,47.12 468.97,46.66 468.86,18.38 	"/>
	<polygon class="st4" points="432.95,18.45 433.2,47.12 468.97,46.66 468.86,18.38 	"/>
	<polygon class="st3" points="273.74,90.44 316.28,90.56 316.32,58.57 300.13,58.59 294.81,62.3 291.12,72.28 287.18,76.61 
		279.24,79.19 273.74,82.56 	"/>
	<polygon class="st4" points="273.73,90.44 316.28,90.55 316.32,58.57 300.13,58.59 294.81,62.3 291.12,72.28 287.18,76.61 
		279.24,79.18 273.74,82.56 	"/>
	<polygon class="st3" points="310.98,58.58 316.32,58.57 316.27,53.24 353.71,52.92 353.43,18.34 311.03,18.44 310.8,31.89 
		314.39,32.02 314.5,41.69 313.22,47.78 310.96,48 	"/>
	<polygon class="st4" points="310.98,58.58 316.32,58.57 316.27,53.24 353.71,52.92 353.43,18.34 311.03,18.44 310.8,31.89 
		314.39,32.02 314.5,41.69 313.22,47.78 310.96,48 	"/>
	<polygon class="st3" points="242.67,482.76 247.02,486.15 252.25,487.07 255.49,493.56 261.16,491.24 264.25,479.54 269.25,476.79 
		276.29,474.93 280.55,470.14 284.33,468.81 288.18,468.88 287.48,462.59 288.6,456.73 285.12,451.98 286.48,444.72 265.72,444.89 
		265.72,454.85 260.66,454.88 259.18,462.9 253.22,462.43 252.87,466.68 246.21,472.5 242.71,477.4 	"/>
	<polygon class="st4" points="242.67,482.76 247.02,486.15 252.25,487.07 255.49,493.55 261.16,491.24 264.25,479.54 269.25,476.79 
		276.29,474.93 280.55,470.14 284.33,468.81 288.18,468.88 287.48,462.59 288.6,456.73 285.12,451.98 286.47,444.71 265.71,444.89 
		265.71,454.84 260.66,454.88 259.18,462.9 253.22,462.43 252.87,466.68 246.21,472.5 242.71,477.39 	"/>
	<polygon class="st3" points="363.58,275.5 363.59,310.12 393.11,309.79 392.87,268.31 363.61,268.48 	"/>
	<polygon class="st4" points="363.58,275.5 363.59,310.12 393.11,309.79 392.87,268.31 363.61,268.48 	"/>
	<polygon class="st3" points="373.15,402.98 378.14,397.87 398.67,397.69 398.59,389.18 395.17,389.18 395.12,385.75 391.71,385.73 
		391.68,383.15 388.27,382.34 388.22,373.08 385.58,371.53 377.97,374.01 373.73,381.83 369.42,382.62 369.69,401.32 	"/>
	<polygon class="st4" points="373.15,402.98 378.13,397.87 398.67,397.69 398.59,389.18 395.17,389.18 395.12,385.75 391.71,385.73 
		391.68,383.15 388.27,382.33 388.22,373.07 385.57,371.53 377.97,374.01 373.73,381.83 369.42,382.62 369.69,401.32 	"/>
	<polygon class="st3" points="392.87,268.31 393.22,297.61 423.69,297.56 423.34,257.68 392.84,257.84 	"/>
	<polygon class="st4" points="392.87,268.31 393.22,297.61 423.69,297.56 423.34,257.68 392.84,257.84 	"/>
	<polygon class="st3" points="410.17,361.56 432.37,361.47 432.39,359.73 438.56,359.6 445,314.88 431.02,314.74 410.61,328.13 	"/>
	<polygon class="st4" points="410.16,361.56 432.37,361.47 432.39,359.73 438.56,359.6 445,314.88 431.02,314.74 410.61,328.13 	"/>
	<polygon class="st3" points="430.93,195.38 431.42,231.72 468.41,231.63 469.06,194.97 	"/>
	<polygon class="st4" points="430.93,195.38 431.42,231.72 468.41,231.63 469.06,194.97 	"/>
	<polygon class="st3" points="266.12,279.49 265.95,295.1 296.08,295.52 296.02,289.37 299.4,284.77 298.84,279.92 300.22,276.48 
		296.04,276.45 296.07,248.44 266.45,248.21 	"/>
	<polygon class="st4" points="266.12,279.49 265.95,295.09 296.08,295.52 296.02,289.37 299.4,284.77 298.84,279.92 300.22,276.48 
		296.04,276.45 296.07,248.44 266.45,248.21 	"/>
	<polygon class="st3" points="305.76,122.28 316.14,122.4 316.28,90.56 273.74,90.44 273.68,122.1 	"/>
	<polygon class="st4" points="305.76,122.28 316.14,122.4 316.28,90.55 273.73,90.44 273.68,122.1 	"/>
	<polygon class="st3" points="172.9,492.03 180.57,494.81 183.98,491.11 183.29,486.17 181.01,483.36 182.16,480.11 184.32,477.33 
		187.61,478.3 190.06,482.37 194.28,483.18 202.96,480.56 203.32,454.1 204.09,448.99 204.11,445.2 193.87,445.09 193.88,441.97 
		176.97,441.76 177.05,444.53 183.65,449.68 177.78,455.77 174.27,456.58 175.04,458.86 179.08,456.97 178.48,460.83 171.6,463.26 
		173.85,464.61 174.31,471.33 172.07,473.75 174.24,480.9 167,481.37 171.45,489.44 167.2,489.99 	"/>
	<polygon class="st4" points="172.9,492.03 180.57,494.81 183.98,491.11 183.28,486.17 181.01,483.36 182.16,480.11 184.32,477.32 
		187.61,478.3 190.06,482.37 194.28,483.18 202.96,480.56 203.32,454.1 204.09,448.99 204.11,445.19 193.87,445.09 193.88,441.97 
		176.97,441.76 177.05,444.53 183.65,449.68 177.78,455.77 174.26,456.58 175.04,458.86 179.08,456.97 178.48,460.83 171.6,463.26 
		173.85,464.61 174.31,471.33 172.07,473.75 174.24,480.9 167,481.37 171.45,489.44 167.2,489.98 	"/>
	<polygon class="st3" points="246.87,35.22 247.22,81.94 249.62,79.11 255.29,76.52 261.85,78.56 270.15,84.66 273.74,82.56 
		273.5,24.5 	"/>
	<polygon class="st4" points="246.87,35.22 247.22,81.94 249.62,79.11 255.29,76.52 261.85,78.56 270.15,84.66 273.74,82.56 
		273.5,24.5 	"/>
	<polygon class="st3" points="238.22,439.92 239.91,441.61 260.61,441.5 260.67,408.45 257.99,406.06 253.54,408.34 251.2,405.01 
		245.09,404.9 239.66,408.97 235.01,405.22 229.54,407.06 224.8,406.27 224.79,414.24 226.49,417.67 229.91,417.65 229.88,424.75 
		236.06,423.42 238.31,424.83 	"/>
	<polygon class="st4" points="238.21,439.92 239.91,441.61 260.61,441.5 260.67,408.45 257.99,406.05 253.54,408.34 251.2,405.01 
		245.09,404.9 239.66,408.97 235.01,405.22 229.54,407.06 224.8,406.26 224.79,414.24 226.49,417.67 229.91,417.65 229.88,424.75 
		236.06,423.42 238.31,424.83 	"/>
	<polygon class="st3" points="284.33,468.81 286.16,469.92 290.24,478.84 293.02,481.19 296.68,478.56 299.41,479.03 299.02,487.01 
		304.24,484.1 305.11,477.84 310.11,478.33 312.64,476.73 310.94,472.36 310.95,465.66 314.09,463.32 317.64,462.77 319.31,458.53 
		316.83,454.52 316.89,444.52 306.66,444.44 306.81,437.56 296.76,437.93 296.81,439.69 286.41,439.57 286.48,444.72 285.12,451.98 
		288.6,456.73 287.48,462.59 288.18,468.88 	"/>
	<polygon class="st4" points="284.33,468.81 286.16,469.92 290.24,478.84 293.02,481.19 296.68,478.56 299.41,479.02 299.02,487.01 
		304.24,484.1 305.11,477.84 310.11,478.33 312.64,476.73 310.94,472.36 310.95,465.66 314.09,463.32 317.64,462.77 319.31,458.53 
		316.83,454.52 316.89,444.52 306.66,444.44 306.81,437.56 296.76,437.93 296.81,439.69 286.41,439.57 286.47,444.71 285.12,451.98 
		288.6,456.73 287.48,462.59 288.18,468.88 	"/>
	<polygon class="st3" points="228.73,237.94 227.53,240.46 232.55,243.89 234.82,248.76 231.91,252.19 232.9,257.01 232.27,268.82 
		230.99,273.76 232.2,279.12 266.12,279.49 266.45,248.21 258.92,248.14 258.96,237.88 	"/>
	<polygon class="st4" points="228.73,237.94 227.53,240.46 232.55,243.89 234.81,248.76 231.91,252.19 232.9,257.01 232.27,268.82 
		230.99,273.75 232.2,279.12 266.12,279.49 266.45,248.21 258.92,248.14 258.96,237.88 	"/>
	<polygon class="st3" points="262.31,331.39 296.44,331.68 296.2,311.48 301.24,310.05 301.12,295.51 272.83,295.16 272.61,310.76 
		262.39,310.69 	"/>
	<polygon class="st4" points="262.31,331.39 296.44,331.68 296.2,311.48 301.24,310.05 301.12,295.51 272.83,295.15 272.6,310.76 
		262.39,310.69 	"/>
	<polygon class="st3" points="296.43,388.25 296.59,422.51 317.69,422.31 330.8,422.6 330.82,388.07 	"/>
	<polygon class="st4" points="296.43,388.24 296.59,422.51 317.69,422.31 330.8,422.6 330.82,388.07 	"/>
	<polygon class="st3" points="438.56,359.6 438.14,362.72 462.91,362.99 462.12,361.2 466.17,356.25 466.32,353.47 462.25,347.62 
		455.26,351.89 451.19,351.74 450.7,354.22 447.35,354.13 445.65,357.31 440.23,358.79 438.86,357.42 	"/>
	<polygon class="st4" points="438.56,359.6 438.14,362.72 462.91,362.99 462.12,361.19 466.17,356.25 466.32,353.47 462.25,347.62 
		455.26,351.89 451.19,351.73 450.7,354.21 447.35,354.13 445.65,357.31 440.23,358.79 438.86,357.42 	"/>
	<polygon class="st3" points="390.88,47.5 391.15,75.48 401.77,75.43 401.69,78.98 433.39,79.22 433.2,47.12 	"/>
	<polygon class="st4" points="390.88,47.5 391.15,75.48 401.77,75.43 401.69,78.98 433.39,79.22 433.2,47.12 	"/>
	<polygon class="st3" points="218.95,91.2 219,143.39 242.77,143.45 242.6,122.21 241.92,122.22 242,84.78 237.55,88.71 
		229.28,91.68 226.72,90.31 	"/>
	<polygon class="st4" points="218.95,91.2 219,143.39 242.77,143.45 242.6,122.21 241.92,122.22 242,84.78 237.55,88.71 
		229.28,91.68 226.72,90.31 	"/>
	<polygon class="st3" points="296.08,295.52 301.12,295.51 301.24,310.91 336.06,310.8 336.22,276.06 316.38,276.49 316.41,279.96 
		298.84,279.92 299.4,284.77 296.02,289.37 	"/>
	<polygon class="st4" points="296.08,295.52 301.12,295.51 301.24,310.91 336.06,310.8 336.22,276.06 316.38,276.49 316.41,279.96 
		298.84,279.92 299.4,284.77 296.02,289.37 	"/>
	<polygon class="st3" points="258.82,206.45 258.92,248.14 295.33,248.44 295.26,206.49 	"/>
	<polygon class="st4" points="258.82,206.44 258.92,248.14 295.33,248.44 295.26,206.49 	"/>
	<polygon class="st3" points="296.44,331.68 296.5,352.18 330.01,352.36 329.96,345.52 325.18,345.56 324.97,321.55 324.14,311.03 
		301.24,310.91 301.24,310.05 296.2,311.48 	"/>
	<polygon class="st4" points="296.44,331.68 296.5,352.18 330.01,352.36 329.96,345.51 325.18,345.56 324.97,321.55 324.14,311.02 
		301.24,310.91 301.24,310.05 296.2,311.48 	"/>
	<polygon class="st3" points="343.65,122.44 344.01,164.49 371.69,164.14 371.6,153.71 364.72,153.78 364.1,111.54 343.7,111.92 	
		"/>
	<polygon class="st4" points="343.65,122.44 344.01,164.49 371.69,164.14 371.6,153.71 364.71,153.78 364.1,111.54 343.7,111.92 	
		"/>
	<polygon class="st3" points="274.29,409.55 278.51,410.74 282.24,407.06 296.5,407.08 296.45,362.54 276.12,362.6 276.12,372.83 
		274.4,372.86 	"/>
	<polygon class="st4" points="274.29,409.55 278.51,410.74 282.24,407.06 296.5,407.07 296.45,362.54 276.12,362.6 276.12,372.83 
		274.4,372.86 	"/>
	<polygon class="st3" points="316.28,90.56 354.22,90.35 353.71,52.92 316.27,53.24 	"/>
	<polygon class="st4" points="316.28,90.55 354.22,90.35 353.71,52.92 316.27,53.24 	"/>
	<polygon class="st3" points="329.2,276.23 363.58,275.5 363.4,247.86 364.86,247.84 364.91,240.98 329.2,241.35 	"/>
	<polygon class="st4" points="329.2,276.23 363.58,275.5 363.4,247.86 364.86,247.84 364.91,240.98 329.2,241.35 	"/>
	<polygon class="st3" points="371.81,239 398.11,238.74 397.88,186.61 371.82,186.74 	"/>
	<polygon class="st4" points="371.81,239 398.1,238.74 397.88,186.61 371.82,186.74 	"/>
	<polygon class="st3" points="296.43,388.25 330.82,388.07 330.69,382.77 333.89,379.16 333.42,352.35 296.5,352.18 	"/>
	<polygon class="st4" points="296.43,388.24 330.82,388.07 330.69,382.77 333.89,379.15 333.42,352.35 296.5,352.18 	"/>
	<polygon class="st3" points="273.74,82.56 279.24,79.19 287.18,76.61 291.12,72.28 294.81,62.3 300.13,58.59 310.98,58.58 
		310.96,48 313.22,47.78 314.5,41.69 314.39,32.02 310.8,31.89 311.03,18.44 283.41,18.37 273.5,24.5 	"/>
	<polygon class="st4" points="273.74,82.56 279.24,79.18 287.18,76.61 291.12,72.28 294.81,62.3 300.13,58.59 310.98,58.58 
		310.96,48 313.22,47.78 314.5,41.69 314.39,32.02 310.8,31.89 311.03,18.44 283.41,18.37 273.5,24.5 	"/>
	<polygon class="st3" points="218.95,91.2 226.72,90.31 229.28,91.68 237.55,88.71 242,84.78 247.22,81.94 246.87,35.22 
		233.61,34.47 219.18,24.66 	"/>
	<polygon class="st4" points="218.95,91.2 226.72,90.31 229.28,91.68 237.55,88.71 242,84.78 247.22,81.94 246.87,35.22 
		233.61,34.47 219.18,24.66 	"/>
	<polygon class="st3" points="390.43,18.52 390.88,47.5 433.2,47.12 432.95,18.45 	"/>
	<polygon class="st4" points="390.43,18.52 390.88,47.5 433.2,47.12 432.95,18.45 	"/>
	<polygon class="st3" points="364.17,106.22 388.19,105.76 387.96,89.7 391.08,89.69 391,58.09 353.75,58.23 354.22,90.35 
		352.06,90.37 352.2,101.1 357.49,100.96 357.46,106.34 	"/>
	<polygon class="st4" points="364.17,106.22 388.18,105.75 387.96,89.7 391.08,89.69 391,58.09 353.75,58.23 354.22,90.35 
		352.06,90.37 352.2,101.1 357.49,100.96 357.46,106.34 	"/>
	<polygon class="st3" points="199.01,420.22 206.49,418.13 205.5,416.31 212.28,415.96 214.49,411.15 217.63,411.13 218.58,408.39 
		222.03,410.5 224.8,406.27 229.54,407.06 235.01,405.22 239.66,408.97 245.09,404.9 244.39,392.2 241.73,387.69 245.29,381.89 
		243.66,378.7 245.38,372.58 247.73,373.95 258.25,362.62 245.21,362.16 245.21,362.9 219.29,362.81 216.62,367.78 218.54,368.7 
		218.88,372.68 221.84,377.01 219.6,387 212.47,390.75 207.48,402.17 205.77,404.87 208,409.11 198.93,412.84 200.2,416.13 	"/>
	<polygon class="st4" points="199.01,420.22 206.49,418.13 205.5,416.31 212.27,415.96 214.49,411.15 217.63,411.12 218.58,408.39 
		222.03,410.5 224.8,406.26 229.54,407.06 235.01,405.22 239.66,408.97 245.09,404.9 244.39,392.2 241.73,387.69 245.29,381.89 
		243.66,378.7 245.38,372.58 247.73,373.95 258.25,362.62 245.2,362.16 245.2,362.89 219.29,362.81 216.62,367.78 218.54,368.7 
		218.88,372.67 221.84,377.01 219.59,387 212.47,390.75 207.48,402.17 205.77,404.87 208,409.11 198.93,412.84 200.2,416.13 	"/>
	<polygon class="st3" points="351.31,310.5 363.59,310.12 363.58,275.5 336.22,276.06 336.06,310.8 	"/>
	<polygon class="st4" points="351.31,310.5 363.59,310.12 363.58,275.5 336.22,276.06 336.06,310.8 	"/>
	<polygon class="st3" points="377.64,343.21 377.97,374.01 385.58,371.53 388.22,373.08 394.94,372.04 394.91,368.55 398.33,368.56 
		398.33,365.14 401.67,365.15 401.6,361.66 410.17,361.56 410.61,328.13 399.01,335.57 377.57,336.04 	"/>
	<polygon class="st4" points="377.64,343.21 377.97,374.01 385.57,371.53 388.22,373.07 394.94,372.04 394.91,368.55 398.33,368.56 
		398.33,365.14 401.67,365.15 401.6,361.65 410.16,361.56 410.61,328.13 399.01,335.57 377.57,336.04 	"/>
	<polygon class="st3" points="388.22,373.08 388.27,382.34 391.68,383.15 391.71,385.73 395.12,385.75 395.17,389.18 398.59,389.18 
		398.67,397.69 405.42,397.62 407.05,400.05 411.7,400.04 409.5,385.57 413.29,382.31 428.42,382.95 432.52,387.69 432.37,361.47 
		401.6,361.66 401.67,365.15 398.33,365.14 398.33,368.56 394.91,368.55 394.94,372.04 	"/>
	<polygon class="st4" points="388.22,373.07 388.27,382.33 391.68,383.15 391.71,385.73 395.12,385.75 395.17,389.18 398.59,389.18 
		398.67,397.69 405.42,397.62 407.05,400.05 411.7,400.04 409.5,385.57 413.29,382.31 428.42,382.95 432.52,387.69 432.37,361.47 
		401.6,361.65 401.67,365.15 398.33,365.14 398.33,368.56 394.91,368.55 394.94,372.04 	"/>
	<polygon class="st3" points="430.83,186.65 430.93,195.38 469.06,194.97 469.17,163.34 432.55,163.95 432.03,186.65 	"/>
	<polygon class="st4" points="430.83,186.65 430.93,195.38 469.06,194.97 469.17,163.34 432.55,163.94 432.02,186.65 	"/>
	<polygon class="st3" points="242.77,143.45 258.27,143.45 258.16,131.18 268.57,131.15 268.47,122.12 273.68,122.1 273.74,82.56 
		270.15,84.66 261.85,78.56 255.29,76.52 249.62,79.11 247.22,81.94 242,84.78 241.92,122.22 242.6,122.21 	"/>
	<polygon class="st4" points="242.77,143.45 258.27,143.45 258.15,131.18 268.57,131.15 268.47,122.12 273.68,122.1 273.74,82.56 
		270.15,84.66 261.85,78.56 255.29,76.52 249.62,79.11 247.22,81.94 242,84.78 241.92,122.22 242.6,122.21 	"/>
	<polygon class="st3" points="329.96,345.52 330.01,352.36 333.42,352.35 333.89,379.16 342.25,376.94 346.74,379.27 350.75,376.85 
		356.82,380.07 360.62,378.65 369.42,382.62 373.73,381.83 377.97,374.01 377.64,343.21 373.72,343.85 371.94,346.46 351.84,347.04 
		351.8,345.34 	"/>
	<polygon class="st4" points="329.96,345.51 330.01,352.36 333.42,352.35 333.89,379.15 342.25,376.94 346.74,379.27 350.75,376.85 
		356.82,380.07 360.62,378.65 369.42,382.62 373.73,381.83 377.97,374.01 377.64,343.21 373.72,343.85 371.94,346.46 351.84,347.04 
		351.8,345.34 	"/>
	<polygon class="st3" points="392.37,153.55 420.29,153.4 420.2,110.8 391.89,111.16 	"/>
	<polygon class="st4" points="392.37,153.55 420.29,153.39 420.2,110.8 391.89,111.16 	"/>
	<polygon class="st3" points="324.66,180.29 330.75,180.31 330.77,185.54 336.86,187.29 336.88,183.79 371.83,183.31 371.69,164.14 
		324.79,164.65 	"/>
	<polygon class="st4" points="324.66,180.29 330.75,180.31 330.77,185.54 336.86,187.28 336.87,183.79 371.83,183.31 371.69,164.14 
		324.79,164.65 	"/>
	<polygon class="st3" points="423.34,257.68 430.72,257.56 430.76,247.38 432.58,247.36 432.52,231.7 431.42,231.72 431.34,223.02 
		398.11,222.99 398.05,247.46 396.22,247.47 396.2,257.79 	"/>
	<polygon class="st4" points="423.34,257.68 430.72,257.56 430.76,247.38 432.58,247.36 432.52,231.7 431.42,231.72 431.34,223.01 
		398.1,222.99 398.05,247.46 396.22,247.47 396.2,257.79 	"/>
	<polygon class="st3" points="295.33,248.44 296.07,248.44 296.04,276.45 300.22,276.48 298.84,279.92 316.41,279.96 316.38,276.49 
		329.2,276.23 329.2,241.35 295.31,241.49 	"/>
	<polygon class="st4" points="295.33,248.44 296.07,248.44 296.04,276.45 300.22,276.48 298.84,279.92 316.41,279.96 316.38,276.49 
		329.2,276.23 329.2,241.35 295.31,241.49 	"/>
	<polygon class="st3" points="328.87,447.46 334.21,452.57 334.66,462 342.74,467.34 347.46,466.79 351.95,468.65 355.67,473.4 
		356.19,469.81 359.29,468.69 363.92,467.87 366.31,465.31 367.79,458.6 368.31,447.84 363.06,446.62 363.3,438.24 359.91,436.5 
		356.18,430.02 356.16,419.81 335.76,419.24 335.98,427.61 333.31,427.73 335.38,432.93 333.94,435.92 333.73,442.13 330.71,447.4 	
		"/>
	<polygon class="st4" points="328.87,447.46 334.21,452.57 334.66,462 342.74,467.34 347.46,466.79 351.95,468.64 355.67,473.4 
		356.19,469.81 359.29,468.69 363.92,467.87 366.3,465.31 367.79,458.6 368.31,447.84 363.06,446.62 363.3,438.24 359.91,436.49 
		356.18,430.02 356.16,419.8 335.76,419.24 335.98,427.61 333.31,427.73 335.38,432.93 333.94,435.92 333.73,442.13 330.71,447.4 	
		"/>
	<polygon class="st3" points="392.87,268.31 392.84,257.84 396.2,257.79 396.22,247.47 398.05,247.46 398.11,238.74 371.81,239 
		371.82,240.76 364.91,240.98 364.86,247.84 363.4,247.86 363.61,268.48 	"/>
	<polygon class="st4" points="392.87,268.31 392.84,257.84 396.2,257.79 396.22,247.47 398.05,247.46 398.1,238.74 371.81,239 
		371.81,240.76 364.91,240.98 364.86,247.84 363.4,247.86 363.61,268.48 	"/>
	<polygon class="st3" points="336.91,210.53 337.16,241.1 371.82,240.76 371.86,205.95 336.88,206.32 	"/>
	<polygon class="st4" points="336.91,210.53 337.16,241.1 371.81,240.76 371.86,205.95 336.88,206.32 	"/>
	<polygon class="st3" points="258.25,362.62 296.45,362.54 296.44,331.68 245.21,330.95 245.21,362.16 	"/>
	<polygon class="st4" points="258.25,362.62 296.45,362.54 296.44,331.68 245.21,330.95 245.2,362.16 	"/>
	<polygon class="st3" points="371.69,164.14 371.82,186.74 410.22,186.66 409.81,153.49 371.6,153.71 	"/>
	<polygon class="st4" points="371.69,164.14 371.82,186.74 410.22,186.66 409.81,153.49 371.6,153.71 	"/>
	<polygon class="st3" points="176.97,441.76 193.88,441.97 193.87,445.09 204.11,445.2 204.09,448.99 224.4,449.34 224.46,445.17 
		238.21,445.1 238.31,424.83 236.06,423.42 229.88,424.75 229.91,417.65 226.49,417.67 224.79,414.24 224.8,406.27 222.03,410.5 
		218.58,408.39 217.63,411.13 214.49,411.15 212.28,415.96 205.5,416.31 206.49,418.13 199.01,420.22 195.22,425.65 193.28,426.23 
		189.15,436.53 186.65,432.7 184.03,437.17 181.23,434.51 179.13,440.98 176.58,438.65 	"/>
	<polygon class="st4" points="176.97,441.76 193.88,441.97 193.87,445.09 204.11,445.19 204.09,448.99 224.4,449.34 224.46,445.17 
		238.21,445.1 238.31,424.83 236.06,423.42 229.88,424.75 229.91,417.65 226.49,417.67 224.79,414.24 224.8,406.26 222.03,410.5 
		218.58,408.39 217.63,411.12 214.49,411.15 212.27,415.96 205.5,416.31 206.49,418.13 199.01,420.22 195.22,425.65 193.28,426.23 
		189.15,436.53 186.65,432.7 184.03,437.17 181.23,434.51 179.13,440.98 176.58,438.65 	"/>
	<polygon class="st3" points="343.65,122.44 343.7,111.92 364.1,111.54 364.17,106.22 357.46,106.34 357.49,100.96 352.2,101.1 
		352.06,90.37 316.28,90.56 316.14,122.4 	"/>
	<polygon class="st4" points="343.65,122.44 343.7,111.92 364.1,111.54 364.17,106.22 357.46,106.34 357.49,100.96 352.2,101.1 
		352.06,90.37 316.28,90.55 316.14,122.4 	"/>
	<polygon class="st3" points="423.64,288.95 423.8,319.51 431.02,314.74 467.61,315.13 467.99,289.36 447.71,288.86 	"/>
	<polygon class="st4" points="423.64,288.95 423.8,319.51 431.02,314.74 467.61,315.13 467.99,289.36 447.71,288.86 	"/>
	<polygon class="st3" points="258.96,237.88 258.86,188.19 255.24,191.3 246.07,194.78 241.42,198.89 234.48,206.91 228.75,209.15 
		227.02,212.35 229.97,216.94 228.98,225.2 227.37,229.09 228.73,237.94 	"/>
	<polygon class="st4" points="258.96,237.88 258.86,188.19 255.24,191.3 246.07,194.78 241.42,198.89 234.47,206.91 228.75,209.15 
		227.02,212.35 229.97,216.94 228.98,225.2 227.37,229.09 228.73,237.94 	"/>
	<polygon class="st3" points="356.16,419.81 356.18,430.02 359.91,436.5 363.3,438.24 363.06,446.62 368.31,447.84 373.9,440.66 
		374.85,436.33 378.32,434.95 377.85,429.69 381.16,427.73 376.78,421.39 362.22,421.49 359.66,419.76 	"/>
	<polygon class="st4" points="356.16,419.8 356.18,430.02 359.91,436.49 363.3,438.24 363.06,446.62 368.31,447.84 373.9,440.66 
		374.85,436.33 378.32,434.95 377.85,429.69 381.16,427.73 376.77,421.39 362.22,421.49 359.66,419.76 	"/>
	<polygon class="st3" points="423.64,288.95 447.71,288.86 447.86,266.39 434.05,266.29 434.19,257.57 423.34,257.68 	"/>
	<polygon class="st4" points="423.64,288.95 447.71,288.86 447.86,266.39 434.05,266.28 434.19,257.57 423.34,257.68 	"/>
	<polygon class="st3" points="353.71,52.92 353.75,58.23 391,58.09 390.43,18.52 353.43,18.34 	"/>
	<polygon class="st4" points="353.71,52.92 353.75,58.23 391,58.09 390.43,18.52 353.43,18.34 	"/>
	<polygon class="st3" points="260.61,441.5 260.61,444.87 286.48,444.72 286.41,439.57 296.81,439.69 296.5,407.08 282.24,407.06 
		278.51,410.74 274.29,409.55 272.13,411.29 267.87,408.65 260.67,408.45 	"/>
	<polygon class="st4" points="260.61,441.5 260.61,444.87 286.47,444.71 286.41,439.57 296.81,439.69 296.5,407.07 282.24,407.06 
		278.51,410.74 274.29,409.55 272.13,411.29 267.87,408.65 260.67,408.45 	"/>
	<polygon class="st3" points="398.11,222.99 431.34,223.02 430.83,186.65 397.88,186.61 	"/>
	<polygon class="st4" points="398.1,222.99 431.34,223.01 430.83,186.65 397.88,186.61 	"/>
	<polygon class="st3" points="433.39,79.22 469.07,78.36 468.97,46.66 433.2,47.12 	"/>
	<polygon class="st4" points="433.39,79.22 469.07,78.35 468.97,46.66 433.2,47.12 	"/>
	<polygon class="st3" points="410.61,328.13 423.8,319.51 423.69,297.56 393.22,297.61 393.11,309.79 388.15,309.8 387.94,335.83 
		399.01,335.57 	"/>
	<polygon class="st4" points="410.61,328.13 423.8,319.51 423.69,297.56 393.22,297.61 393.11,309.79 388.15,309.8 387.94,335.83 
		399.01,335.57 	"/>
	<polygon class="st3" points="462.25,347.62 460.45,344.5 467.55,338.81 467.61,315.13 445,314.88 438.86,357.42 440.23,358.79 
		445.65,357.31 447.35,354.13 450.7,354.22 451.19,351.74 455.26,351.89 	"/>
	<polygon class="st4" points="462.25,347.62 460.45,344.5 467.55,338.81 467.61,315.13 445,314.88 438.86,357.42 440.23,358.79 
		445.65,357.31 447.35,354.13 450.7,354.21 451.19,351.73 455.26,351.89 	"/>
	<polygon class="st3" points="260.67,408.45 267.87,408.65 272.13,411.29 274.29,409.55 274.4,372.86 276.12,372.83 276.12,362.6 
		258.25,362.62 247.73,373.95 245.38,372.58 243.66,378.7 245.29,381.89 241.73,387.69 244.39,392.2 245.09,404.9 251.2,405.01 
		253.54,408.34 257.99,406.06 	"/>
	<polygon class="st4" points="260.67,408.45 267.87,408.65 272.13,411.29 274.29,409.55 274.4,372.86 276.12,372.83 276.12,362.6 
		258.25,362.62 247.73,373.95 245.38,372.58 243.66,378.7 245.29,381.89 241.73,387.69 244.39,392.2 245.09,404.9 251.2,405.01 
		253.54,408.34 257.99,406.05 	"/>
	<polygon class="st3" points="296.76,437.93 306.81,437.56 306.66,444.44 316.89,444.52 316.83,454.52 321.97,456.32 324.7,453.42 
		328.63,453.48 329.62,451.25 324.56,448.77 325.72,445.52 328.87,447.46 330.71,447.4 333.73,442.13 333.94,435.92 335.38,432.93 
		333.31,427.73 335.98,427.61 335.76,419.24 330.82,419.22 330.8,422.6 317.69,422.31 296.59,422.51 	"/>
	<polygon class="st4" points="296.76,437.93 306.81,437.56 306.66,444.44 316.89,444.52 316.83,454.52 321.97,456.31 324.7,453.42 
		328.63,453.48 329.62,451.25 324.56,448.77 325.72,445.52 328.87,447.46 330.71,447.4 333.73,442.13 333.94,435.92 335.38,432.93 
		333.31,427.73 335.98,427.61 335.76,419.24 330.82,419.22 330.8,422.6 317.69,422.31 296.59,422.51 	"/>
	<polygon class="st3" points="336.91,210.53 336.86,187.29 330.77,185.54 330.75,180.31 295.37,180.26 295.26,210.79 316.21,211 	
		"/>
	<polygon class="st4" points="336.91,210.53 336.86,187.28 330.77,185.54 330.75,180.31 295.37,180.26 295.26,210.79 316.21,211 	
		"/>
	<polygon class="st3" points="262.31,331.39 262.39,310.69 272.61,310.76 272.83,295.16 265.95,295.1 266.12,279.49 249.04,279.22 
		248.94,289.63 245.38,289.54 245.21,330.95 	"/>
	<polygon class="st4" points="262.31,331.39 262.39,310.69 272.6,310.76 272.83,295.15 265.95,295.09 266.12,279.49 249.04,279.22 
		248.94,289.63 245.38,289.54 245.21,330.95 	"/>
	<polygon class="st3" points="359.66,419.76 362.22,421.49 376.78,421.39 381.16,427.73 377.85,429.69 378.32,434.95 382.94,437.33 
		388.24,434.14 391,430.44 392.39,424.19 394.01,419.15 398.04,415.71 405.2,413.91 407.45,409.69 411.25,407.37 412.83,404.72 
		411.7,400.04 407.05,400.05 405.42,397.62 378.14,397.87 373.15,402.98 369.76,409.76 363.12,409.95 359.79,411.52 	"/>
	<polygon class="st4" points="359.66,419.76 362.22,421.49 376.77,421.39 381.16,427.73 377.85,429.69 378.32,434.95 382.94,437.32 
		388.24,434.14 391,430.44 392.39,424.19 394.01,419.15 398.04,415.71 405.2,413.91 407.45,409.69 411.25,407.37 412.83,404.71 
		411.7,400.04 407.05,400.05 405.42,397.62 378.13,397.87 373.15,402.98 369.76,409.76 363.12,409.95 359.79,411.52 	"/>
	<polygon class="st3" points="324.79,164.65 344.01,164.49 343.65,122.44 305.76,122.28 305.75,143.53 310.94,143.58 310.94,148.79 
		324.87,148.78 	"/>
	<polygon class="st4" points="324.79,164.65 344.01,164.49 343.65,122.44 305.76,122.28 305.75,143.53 310.94,143.58 310.94,148.79 
		324.87,148.78 	"/>
	<polygon class="st3" points="295.37,180.26 324.66,180.29 324.87,148.78 310.94,148.79 310.94,143.58 290.49,143.33 289.24,148.13 
		290.97,150.15 288.06,152.23 288.33,164.56 295.3,164.59 	"/>
	<polygon class="st4" points="295.37,180.26 324.66,180.29 324.87,148.78 310.94,148.79 310.94,143.58 290.49,143.33 289.24,148.13 
		290.97,150.15 288.05,152.23 288.33,164.56 295.3,164.59 	"/>
	<polygon class="st3" points="329.96,345.52 351.8,345.34 351.31,310.5 324.14,311.03 324.97,321.55 325.18,345.56 	"/>
	<polygon class="st4" points="329.96,345.51 351.8,345.34 351.31,310.5 324.14,311.02 324.97,321.55 325.18,345.56 	"/>
	<polygon class="st3" points="295.31,241.49 337.16,241.1 336.91,210.53 316.21,211 295.26,210.79 	"/>
	<polygon class="st4" points="295.31,241.49 337.16,241.1 336.91,210.53 316.21,211 295.26,210.79 	"/>
	<polygon class="st3" points="409.97,163.98 410.22,186.66 432.03,186.65 432.55,163.95 	"/>
	<polygon class="st4" points="409.97,163.98 410.22,186.66 432.02,186.65 432.55,163.94 	"/>
	<polygon class="st3" points="258.72,175 258.27,143.45 219,143.39 218.96,174.82 	"/>
	<polygon class="st4" points="258.72,175 258.27,143.45 219,143.39 218.96,174.82 	"/>
	<polygon class="st3" points="351.8,345.34 351.84,347.04 371.94,346.46 373.72,343.85 377.64,343.21 377.57,336.04 387.94,335.83 
		388.15,309.8 351.31,310.5 	"/>
	<polygon class="st4" points="351.8,345.34 351.84,347.04 371.94,346.46 373.72,343.85 377.64,343.21 377.57,336.04 387.94,335.83 
		388.15,309.8 351.31,310.5 	"/>
	<polygon class="st3" points="420.17,121.53 444.24,121.44 469.13,120.86 469.07,78.36 422.76,79.22 422.57,89.59 419.93,89.61 	"/>
	<polygon class="st4" points="420.17,121.53 444.24,121.44 469.13,120.86 469.07,78.35 422.76,79.22 422.57,89.59 419.93,89.61 	"/>
	<polygon class="st3" points="444.74,163.82 469.17,163.34 469.13,120.86 444.24,121.44 	"/>
	<polygon class="st4" points="444.74,163.82 469.17,163.34 469.13,120.86 444.24,121.44 	"/>
</g>
<g id="Layer_3">
	<circle class="st5" cx="336.21" cy="266.37" r="29.28"/>
	<circle class="st6" cx="336.21" cy="266.37" r="9.02"/>
</g>
<g id="Layer_4">
	<g class="st7">
		<path class="st8" d="M549.35,143.96h4.64v26.16h-4.64V143.96z"/>
		<path class="st8" d="M560.23,150.48h3.8l0.32,2.64h0.16c1.76-1.72,3.76-3.12,6.44-3.12c4.2,0,6.04,2.84,6.04,7.8v12.32h-4.6V158.4
			c0-3.24-0.92-4.44-3.08-4.44c-1.72,0-2.84,0.84-4.48,2.44v13.72h-4.6V150.48z"/>
		<path class="st8" d="M581.43,160.32c0-6.4,4.04-10.32,8.32-10.32c2.24,0,3.64,0.84,5.16,2.16l-0.16-3.16v-7.12h4.6v28.24h-3.8
			l-0.32-2.12h-0.16c-1.44,1.44-3.44,2.6-5.56,2.6C584.59,170.6,581.43,166.8,581.43,160.32z M594.75,164.6v-9.16
			c-1.36-1.2-2.68-1.64-4-1.64c-2.52,0-4.56,2.36-4.56,6.48c0,4.24,1.6,6.52,4.44,6.52C592.15,166.8,593.43,166.12,594.75,164.6z"/>
		<path class="st8" d="M604.67,144.44c0-1.56,1.2-2.64,2.84-2.64s2.84,1.08,2.84,2.64c0,1.52-1.2,2.6-2.84,2.6
			S604.67,145.96,604.67,144.44z M605.19,150.48h4.6v19.64h-4.6V150.48z"/>
		<path class="st8" d="M614.63,164.84c0-4.2,3.48-6.4,11.56-7.28c-0.08-2.08-0.92-3.84-3.6-3.84c-1.92,0-3.76,0.88-5.52,1.92
			l-1.68-3.08c2.16-1.36,4.96-2.56,8.08-2.56c4.88,0,7.32,3,7.32,8.48v11.64h-3.8l-0.32-2.16h-0.16c-1.76,1.48-3.76,2.64-6.08,2.64
			C616.99,170.6,614.63,168.28,614.63,164.84z M626.19,164.84v-4.4c-5.36,0.68-7.12,2.08-7.12,4.04c0,1.76,1.2,2.52,2.84,2.52
			C623.51,167,624.71,166.2,626.19,164.84z"/>
		<path class="st8" d="M636.31,150.48h3.8l0.32,2.64h0.16c1.76-1.72,3.76-3.12,6.44-3.12c4.2,0,6.04,2.84,6.04,7.8v12.32h-4.6V158.4
			c0-3.24-0.92-4.44-3.08-4.44c-1.72,0-2.84,0.84-4.48,2.44v13.72h-4.6V150.48z"/>
		<path class="st8" d="M657.67,164.84c0-4.2,3.48-6.4,11.56-7.28c-0.08-2.08-0.92-3.84-3.6-3.84c-1.92,0-3.76,0.88-5.52,1.92
			l-1.68-3.08c2.16-1.36,4.96-2.56,8.08-2.56c4.88,0,7.32,3,7.32,8.48v11.64h-3.8l-0.32-2.16h-0.16c-1.76,1.48-3.76,2.64-6.08,2.64
			C660.03,170.6,657.67,168.28,657.67,164.84z M669.23,164.84v-4.4c-5.36,0.68-7.12,2.08-7.12,4.04c0,1.76,1.2,2.52,2.84,2.52
			C666.55,167,667.75,166.2,669.23,164.84z"/>
	</g>
	<g class="st9">
		<path class="st8" d="M575.94,183.22h4.2c4.8,0,7.63,2.59,7.63,7.78c0,5.21-2.83,7.92-7.49,7.92h-4.34V183.22z M579.95,196.66
			c3.17,0,4.97-1.8,4.97-5.67c0-3.84-1.8-5.52-4.97-5.52h-1.22v11.19H579.95z"/>
		<path class="st8" d="M590.39,183.51c0-0.94,0.72-1.58,1.7-1.58c0.98,0,1.71,0.65,1.71,1.58c0,0.91-0.72,1.56-1.71,1.56
			C591.11,185.07,590.39,184.42,590.39,183.51z M590.7,187.13h2.76v11.79h-2.76V187.13z"/>
	</g>
	<g class="st9">
		<path class="st8" d="M595.81,197.58l1.3-1.78c1.06,0.82,2.06,1.32,3.26,1.32c1.27,0,1.87-0.6,1.87-1.42c0-0.98-1.27-1.42-2.52-1.9
			c-1.56-0.58-3.31-1.46-3.31-3.43c0-2.06,1.66-3.53,4.3-3.53c1.63,0,2.95,0.67,3.91,1.42l-1.27,1.68c-0.82-0.6-1.66-1.01-2.59-1.01
			c-1.18,0-1.73,0.55-1.73,1.3c0,0.94,1.18,1.3,2.45,1.75c1.61,0.6,3.38,1.37,3.38,3.58c0,2.02-1.61,3.65-4.58,3.65
			C598.66,199.21,596.96,198.51,595.81,197.58z"/>
	</g>
	<g class="st9">
		<path class="st8" d="M607.26,194.94v-5.62h-1.68v-2.06l1.82-0.12l0.34-3.22h2.3v3.22h3v2.18h-3v5.62c0,1.39,0.53,2.06,1.66,2.06
			c0.41,0,0.89-0.12,1.22-0.26l0.48,2.04c-0.65,0.22-1.46,0.43-2.4,0.43C608.27,199.21,607.26,197.48,607.26,194.94z"/>
		<path class="st8" d="M615.52,187.13h2.28l0.19,2.09h0.1c0.84-1.54,2.09-2.38,3.34-2.38c0.6,0,0.98,0.07,1.34,0.24l-0.48,2.4
			c-0.41-0.12-0.72-0.19-1.22-0.19c-0.94,0-2.06,0.65-2.78,2.42v7.2h-2.76V187.13z"/>
		<path class="st8" d="M624.16,183.51c0-0.94,0.72-1.58,1.7-1.58s1.7,0.65,1.7,1.58c0,0.91-0.72,1.56-1.7,1.56
			S624.16,184.42,624.16,183.51z M624.47,187.13h2.76v11.79h-2.76V187.13z"/>
	</g>
	<g class="st9">
		<path class="st8" d="M629.98,193.04c0-3.94,2.76-6.19,5.9-6.19c1.51,0,2.59,0.58,3.46,1.32l-1.34,1.8
			c-0.62-0.55-1.22-0.86-1.97-0.86c-1.9,0-3.22,1.56-3.22,3.94c0,2.35,1.3,3.91,3.14,3.91c0.91,0,1.75-0.46,2.42-1.01l1.13,1.82
			c-1.1,0.96-2.5,1.44-3.84,1.44C632.46,199.21,629.98,196.95,629.98,193.04z"/>
	</g>
	<g class="st9">
		<path class="st8" d="M642.01,194.94v-5.62h-1.68v-2.06l1.82-0.12l0.34-3.22h2.3v3.22h3v2.18h-3v5.62c0,1.39,0.53,2.06,1.66,2.06
			c0.41,0,0.89-0.12,1.22-0.26l0.48,2.04c-0.65,0.22-1.46,0.43-2.4,0.43C643.02,199.21,642.01,197.48,642.01,194.94z"/>
	</g>
</g>
</svg>
