<?xml version="1.0" encoding="utf-8"?>
<!-- Generator: Adobe Illustrator 25.4.1, SVG Export Plug-In . SVG Version: 6.00 Build 0)  -->
<svg version="1.1" id="Layer_1" xmlns="http://www.w3.org/2000/svg" xmlns:xlink="http://www.w3.org/1999/xlink" x="0px" y="0px"
	 viewBox="0 0 784.06 507.87" style="enable-background:new 0 0 784.06 507.87;" xml:space="preserve">
<style type="text/css">
	.st0{fill:#E6E6E6;}
	.st1{clip-path:url(#SVGID_00000085943304456617259730000015308759682991261098_);}
	.st2{opacity:0.8;fill:#007DBC;enable-background:new    ;}
	.st3{fill:none;stroke:#0675AF;stroke-width:0.64;stroke-linejoin:bevel;}
	.st4{fill:#FFFFFF;}
	.st5{fill:none;stroke:#FFFFFF;stroke-width:3;stroke-miterlimit:10;}
	.st6{fill:#007DBC;}
</style>
<g id="Layer_1_00000052820934677292031030000006659605762393428359_">
	<rect x="-11.18" y="-11.39" class="st0" width="804.92" height="529.99"/>
</g>
<g id="Layer_4">
	<g>
		<defs>
			<rect id="SVGID_1_" x="110.8" y="-8.45" width="682.94" height="524.11"/>
		</defs>
		<clipPath id="SVGID_00000049914118378040352190000010770676245779387798_">
			<use xlink:href="#SVGID_1_"  style="overflow:visible;"/>
		</clipPath>
		<g style="clip-path:url(#SVGID_00000049914118378040352190000010770676245779387798_);">
			<polygon class="st2" points="514.42,337.07 517.55,335.02 516.5,338.82 516.54,341.42 518.68,341.44 518.67,343.57 
				521.84,343.61 521.89,347.91 541.62,348.18 541.63,346.04 547.99,346.05 548,343.91 554.38,343.93 554.41,324.3 555.53,324.31 
				555.53,315.71 564.1,315.73 564.11,313.58 566.25,313.56 566.25,311.44 568.42,311.45 568.42,309.29 574.81,309.29 
				574.82,304.98 583.23,305 583.67,302.31 585.15,300.55 585.57,294.99 583.42,293.9 582.35,289.53 580.17,288.46 580.19,286.31 
				578,285.24 578.01,281.98 575.86,280.89 575.84,278.74 573.68,277.65 572.59,273.3 571.5,272.22 569.29,271.15 569.25,278.7 
				561.68,278.7 559.54,281.99 557.38,283.1 556.47,285.26 556.46,288.55 541.4,288.52 541.39,289.61 537.06,290.62 537.05,298.34 
				510.21,298.38 510.31,311.24 511.39,311.24 511.19,331.79 512.26,333.91 514.4,334.97 			"/>
			<polygon class="st3" points="514.42,337.07 517.55,335.02 516.5,338.82 516.54,341.42 518.68,341.44 518.67,343.57 
				521.84,343.61 521.89,347.91 541.62,348.18 541.63,346.04 547.99,346.05 548,343.91 554.38,343.93 554.41,324.3 555.53,324.31 
				555.53,315.71 564.1,315.73 564.11,313.58 566.25,313.56 566.25,311.44 568.42,311.45 568.42,309.29 574.81,309.29 
				574.82,304.98 583.23,305 583.67,302.31 585.15,300.55 585.57,295 583.42,293.9 582.35,289.53 580.17,288.46 580.19,286.31 
				578,285.24 578.01,281.98 575.86,280.89 575.84,278.74 573.68,277.65 572.59,273.3 571.5,272.22 569.29,271.15 569.25,278.7 
				561.68,278.7 559.54,281.99 557.38,283.1 556.47,285.26 556.46,288.55 541.4,288.52 541.39,289.61 537.06,290.62 537.05,298.34 
				510.21,298.38 510.31,311.24 511.39,311.24 511.19,331.79 512.26,333.91 514.4,334.97 			"/>
			<polygon class="st2" points="733.38,256.94 743.16,256.94 743.17,258.03 746.44,258.02 746.47,260.21 762.42,260.21 
				762.43,202.88 757.98,202.86 757.96,206.19 743.03,206.15 741.42,208.91 744.75,211.16 745.37,213.37 747.1,214.46 
				747.09,216.67 748.43,219.42 748.96,222.74 748.96,229.91 747.84,229.94 747.83,232.68 745.68,237.11 744.01,238.19 
				742.36,241.47 739.1,243.65 733.55,243.65 			"/>
			<polygon class="st3" points="733.38,256.94 743.16,256.94 743.17,258.03 746.44,258.02 746.47,260.21 762.42,260.21 
				762.43,202.88 757.98,202.86 757.96,206.19 743.03,206.15 741.42,208.91 744.75,211.16 745.37,213.37 747.1,214.46 
				747.09,216.67 748.43,219.42 748.96,222.74 748.96,229.91 747.84,229.94 747.83,232.68 745.68,237.11 744.01,238.19 
				742.36,241.47 739.1,243.65 733.55,243.65 			"/>
			<polygon class="st2" points="440.02,291.78 485.46,291.86 485.48,271.55 486.23,271.55 486.17,256.27 463.94,256.3 
				456.18,251.82 453.08,253.06 451.89,252.06 448.62,252.85 446.45,254.57 444.68,253.85 443.7,255.15 440.46,255 440.46,271.61 
				440.03,271.61 			"/>
			<polygon class="st3" points="440.02,291.78 485.46,291.86 485.48,271.55 486.23,271.55 486.17,256.27 463.94,256.3 
				456.18,251.82 453.08,253.06 451.89,252.06 448.62,252.85 446.45,254.57 444.68,253.85 443.7,255.15 440.46,255 440.46,271.61 
				440.03,271.61 			"/>
			<polygon class="st2" points="588.23,180.35 594.87,181.19 596.87,182.67 603.43,182.09 609.11,182.54 610.74,181.59 
				614.03,181.87 616.15,180.87 616.72,176.91 619.87,176.52 622.55,177.43 624.61,175.44 624.57,174.19 626.77,174.4 
				628.04,172.57 630.21,173.15 629.79,171.69 632.12,170.88 632.33,168.64 633.81,168.32 633.34,166.15 635.06,165.91 
				633.95,163.93 636.12,162.02 635.48,159.74 639.1,158.23 639.73,159.89 639.15,155.19 640.99,151.6 642.53,152.98 644.76,152.32 
				649.52,154.56 654.68,154.1 653.88,156.05 656.43,155.78 656.94,153.92 659.09,155.94 660.63,156.1 661.05,154 665.53,156.3 
				666.58,153.96 669.45,155.8 669.46,139.65 671.49,139.63 671.48,112.84 660.27,112.85 660.26,92.43 653.52,92.43 653.53,85.62 
				655.58,85.6 655.58,78.58 600.32,78.58 600.37,85.46 599.02,85.46 599.01,112.47 599.71,112.47 599.7,117.06 596.33,116.63 
				596.34,119.27 594.09,119.27 594.12,126.05 596.21,126.05 596.2,132.98 590.59,132.96 590.55,139.7 588.76,139.7 588.76,166.58 
				588.26,166.59 			"/>
			<polygon class="st3" points="588.23,180.35 594.87,181.19 596.87,182.68 603.43,182.09 609.11,182.54 610.74,181.59 
				614.03,181.87 616.15,180.87 616.72,176.91 619.87,176.52 622.55,177.43 624.61,175.44 624.57,174.19 626.77,174.4 
				628.04,172.57 630.21,173.15 629.79,171.69 632.12,170.88 632.33,168.64 633.81,168.32 633.34,166.15 635.06,165.91 
				633.95,163.93 636.12,162.02 635.48,159.74 639.1,158.23 639.73,159.89 639.15,155.19 640.99,151.6 642.53,152.98 644.76,152.32 
				649.52,154.56 654.68,154.1 653.88,156.05 656.43,155.78 656.94,153.92 659.09,155.94 660.63,156.1 661.05,154 665.53,156.3 
				666.58,153.96 669.45,155.81 669.46,139.65 671.49,139.63 671.48,112.84 660.27,112.85 660.26,92.43 653.52,92.43 653.53,85.62 
				655.58,85.6 655.58,78.58 600.32,78.58 600.37,85.46 599.02,85.46 599.01,112.47 599.71,112.47 599.7,117.06 596.33,116.63 
				596.34,119.27 594.09,119.27 594.12,126.05 596.21,126.05 596.2,132.98 590.59,132.96 590.55,139.7 588.76,139.7 588.76,166.58 
				588.26,166.59 			"/>
			<polygon class="st2" points="571.5,272.22 572.59,273.3 573.68,277.65 575.84,278.74 575.86,280.89 578.01,281.98 578,285.24 
				580.19,286.31 580.17,288.46 582.35,289.53 583.42,293.9 585.57,294.99 585.15,300.55 583.67,302.31 583.23,305 587.71,304.99 
				587.71,311.44 600.56,311.44 600.56,314.67 607,314.63 606.98,317.88 612.82,317.88 612.83,298.04 609.29,298.23 609.3,285.27 
				608.2,285.34 608.21,278.69 601.76,278.69 601.74,273.26 600.65,272.18 			"/>
			<polygon class="st3" points="571.5,272.22 572.59,273.3 573.68,277.65 575.84,278.74 575.86,280.89 578.01,281.98 578,285.24 
				580.19,286.31 580.17,288.46 582.35,289.53 583.42,293.9 585.57,295 585.15,300.55 583.67,302.31 583.23,305 587.71,304.99 
				587.71,311.44 600.56,311.44 600.56,314.67 607,314.64 606.98,317.88 612.82,317.88 612.83,298.04 609.29,298.23 609.3,285.27 
				608.2,285.34 608.21,278.69 601.76,278.69 601.74,273.26 600.65,272.18 			"/>
			<polygon class="st2" points="341.19,78.57 341.67,119.53 343.35,120.01 346.32,122.41 349.31,121.56 351.67,122.58 
				351.68,126.02 361.75,126.12 361.74,129.48 368.48,129.51 368.43,139.61 388.69,139.61 388.91,78.57 			"/>
			<polygon class="st3" points="341.19,78.57 341.67,119.53 343.35,120.01 346.32,122.41 349.31,121.56 351.67,122.58 
				351.68,126.02 361.75,126.12 361.74,129.48 368.48,129.51 368.43,139.61 388.69,139.61 388.91,78.57 			"/>
			<polygon class="st2" points="298.63,146.35 300.37,147.47 299.86,149.01 302.75,151.92 302.26,154.17 304.31,154.37 
				305.78,158.47 304.06,160.72 300.3,160.15 300.9,163.42 304.06,169.99 303.29,174.95 304.59,177.54 303.94,180.09 305.85,183.54 
				309.15,186.85 310.89,187.51 313.27,186.14 317.72,185.81 321.32,184.83 322.57,183.4 324.58,185.68 329.4,187.16 330.17,190.88 
				334.75,191.8 336.81,194.58 343.91,193.9 345.54,194.51 348.75,193.82 355.2,194.68 355.19,186.51 368.42,186.53 368.42,179.87 
				381.76,179.85 381.78,157.6 352.04,157.77 352.05,153.25 348.73,153.26 348.75,149.88 342.03,149.83 342.01,146.47 			"/>
			<polygon class="st3" points="298.63,146.35 300.37,147.47 299.86,149.01 302.76,151.92 302.26,154.17 304.31,154.37 
				305.78,158.47 304.06,160.72 300.3,160.15 300.9,163.42 304.06,169.99 303.29,174.95 304.59,177.54 303.94,180.09 305.85,183.54 
				309.15,186.85 310.89,187.51 313.27,186.14 317.72,185.81 321.32,184.83 322.57,183.4 324.58,185.68 329.4,187.16 330.17,190.88 
				334.75,191.8 336.81,194.59 343.91,193.9 345.54,194.52 348.75,193.82 355.21,194.68 355.19,186.51 368.42,186.53 368.42,179.87 
				381.76,179.85 381.78,157.6 352.04,157.77 352.05,153.25 348.73,153.26 348.75,149.88 342.03,149.84 342.01,146.47 			"/>
			<polygon class="st2" points="451.29,369.38 451.32,356.4 458.1,356.42 458.11,343.6 464.47,343.62 464.47,340.4 470.84,340.43 
				470.86,337.23 477.23,337.21 477.12,324.34 478.03,324.31 477.91,317.82 480.13,317.87 480.09,311.27 484.4,311.19 
				484.71,304.91 475.01,304.85 475.03,298.38 472.47,298.38 472.46,291.87 440.02,291.78 440.02,294.49 439.46,298.28 
				439.46,324.19 443.17,324.19 443.28,356.4 442.75,356.4 442.78,369.33 			"/>
			<polygon class="st3" points="451.29,369.38 451.32,356.4 458.1,356.42 458.11,343.6 464.47,343.62 464.47,340.4 470.84,340.43 
				470.86,337.23 477.23,337.21 477.12,324.34 478.03,324.31 477.91,317.82 480.13,317.87 480.09,311.27 484.4,311.19 
				484.71,304.91 475.01,304.85 475.03,298.38 472.47,298.38 472.46,291.87 440.02,291.78 440.02,294.49 439.46,298.28 
				439.46,324.19 443.17,324.19 443.28,356.4 442.75,356.4 442.78,369.33 			"/>
			<polygon class="st2" points="451.29,369.38 465.02,369.4 465.02,369.73 470.56,369.74 470.59,362.84 474.82,362.84 
				474.81,359.65 477.23,355.37 479.36,354.3 481.49,351.11 483.62,351.11 484.66,348.98 487.87,348.96 487.87,347.89 496.38,347.9 
				496.38,343.56 499.64,343.56 499.66,338.83 502.74,339.13 505.61,337.35 508.02,336.76 509.69,337.63 514.42,337.07 
				514.4,334.97 512.26,333.91 511.19,331.79 511.39,311.24 510.31,311.24 510.21,298.38 484.81,298.37 484.4,311.19 480.09,311.27 
				480.13,317.87 477.91,317.82 478.03,324.31 477.12,324.34 477.23,337.21 470.86,337.23 470.84,340.43 464.47,340.4 
				464.47,343.62 458.11,343.6 458.1,356.42 451.32,356.4 			"/>
			<polygon class="st3" points="451.29,369.38 465.02,369.4 465.02,369.73 470.56,369.74 470.59,362.84 474.82,362.84 
				474.81,359.65 477.23,355.37 479.36,354.3 481.49,351.11 483.62,351.11 484.66,348.98 487.87,348.96 487.87,347.89 496.38,347.9 
				496.38,343.56 499.64,343.56 499.66,338.83 502.74,339.13 505.61,337.35 508.02,336.76 509.69,337.63 514.42,337.07 
				514.4,334.97 512.26,333.91 511.19,331.79 511.39,311.24 510.31,311.24 510.21,298.38 484.81,298.37 484.4,311.19 480.09,311.27 
				480.13,317.87 477.91,317.82 478.03,324.31 477.12,324.34 477.23,337.21 470.86,337.23 470.84,340.43 464.47,340.4 
				464.47,343.62 458.11,343.6 458.1,356.42 451.32,356.4 			"/>
			<polygon class="st2" points="315.7,336.02 322.77,331.65 324.13,329.86 324.73,326.74 327.35,327.32 341.38,326.91 
				338.07,325.26 337.09,323.76 329.13,319.8 330.31,316.6 328.91,313.47 328.13,305.72 326.54,304.41 327.1,301.33 324.3,298.04 
				325.1,294.52 321.38,294.89 319.4,295.88 318.06,295.17 316,298.12 311,298.11 311.03,304.62 307.15,304.62 305.49,308.37 
				302.66,308.78 303.45,313.02 298.31,317.67 295.08,318.59 300.07,322.44 303.2,322.93 304.47,324.54 308.55,324.93 
				311.94,326.93 312.55,330.53 314.87,332.17 			"/>
			<polygon class="st3" points="315.7,336.02 322.77,331.65 324.13,329.86 324.73,326.74 327.35,327.32 341.38,326.91 
				338.07,325.26 337.09,323.76 329.13,319.8 330.31,316.6 328.91,313.47 328.13,305.72 326.54,304.4 327.1,301.33 324.3,298.04 
				325.1,294.52 321.38,294.89 319.4,295.88 318.06,295.17 316,298.12 311,298.11 311.03,304.62 307.15,304.62 305.49,308.37 
				302.66,308.78 303.45,313.02 298.31,317.67 295.08,318.59 300.07,322.44 303.2,322.93 304.47,324.54 308.55,324.93 
				311.94,326.93 312.55,330.53 314.87,332.17 			"/>
			<polygon class="st2" points="710.09,78.56 710.08,85.61 711.09,85.62 711.07,106.05 714.45,106.06 714.44,112.85 725.6,112.86 
				725.58,119.61 732.31,119.63 732.3,126.42 762.34,126.4 762.24,78.58 			"/>
			<polygon class="st3" points="710.09,78.56 710.08,85.61 711.09,85.62 711.07,106.05 714.45,106.06 714.44,112.85 725.6,112.86 
				725.58,119.61 732.31,119.63 732.3,126.42 762.34,126.4 762.24,78.58 			"/>
			<polygon class="st2" points="141.84,139.95 141.9,158.36 142.83,158.66 145.29,163.04 149.51,168.7 152.05,169.87 152.33,173.23 
				153.49,175.7 154.56,175.21 155.61,177.46 158.76,180.08 158.05,183.18 160.22,185.58 160.57,187.79 157.07,191.11 
				159.38,193.28 160.61,196.15 168.78,196.84 169.29,195.28 170.87,197.08 173.18,197.63 175.28,196.24 180.36,197.14 
				181.51,196.05 188,199.02 189.91,201.18 191.09,200.53 197.03,202.93 197.72,204.67 197.72,209.36 200.98,209.39 200.98,210.49 
				204.27,210.49 204.27,212.7 206.6,212.69 211.17,213.77 212.27,212.29 219.38,214.01 222.31,216.46 225.91,217.16 228.11,218.84 
				229.57,218.66 229.41,221.14 232.69,223.61 234.65,223.97 238.12,222.63 238.15,219.33 237.32,219.32 237.3,206.06 
				232.89,206.06 229.56,203.46 230.94,197.56 233.12,197.45 232.5,195.44 229.69,195.3 228.11,196.51 229.06,191.89 230.8,190.64 
				229.71,187.24 217.66,187.25 217.6,176.15 216.55,176.14 216.56,166.2 196.65,166.41 196.67,156.36 195.56,155.24 188.13,155.23 
				189.07,157.81 188.45,159.4 187.01,158.59 186.54,162.84 183.26,163.18 181.73,165.05 179.66,162.71 176.42,164 175.44,161.53 
				174.06,163.48 172.26,162.74 169.17,163.72 167.25,161.1 168.32,158.01 163.19,150.83 162.3,145.28 160.15,142.9 161.38,140.64 
				159.44,137.35 156.87,136.18 154.76,139.33 147.68,142.37 146.66,145.06 144.02,144.31 143.54,140.58 			"/>
			<polygon class="st3" points="141.84,139.95 141.9,158.36 142.83,158.65 145.29,163.04 149.51,168.7 152.05,169.87 152.33,173.23 
				153.49,175.7 154.56,175.22 155.61,177.46 158.76,180.08 158.05,183.18 160.22,185.58 160.57,187.79 157.07,191.11 
				159.38,193.28 160.61,196.15 168.78,196.84 169.29,195.28 170.87,197.08 173.18,197.63 175.28,196.24 180.36,197.14 
				181.51,196.04 188,199.02 189.91,201.18 191.09,200.53 197.03,202.93 197.72,204.67 197.72,209.36 200.98,209.39 200.98,210.49 
				204.27,210.49 204.27,212.7 206.6,212.69 211.17,213.77 212.27,212.29 219.38,214.01 222.31,216.46 225.91,217.16 228.11,218.84 
				229.57,218.66 229.41,221.14 232.69,223.61 234.65,223.97 238.12,222.63 238.15,219.32 237.32,219.32 237.3,206.06 
				232.89,206.06 229.56,203.46 230.95,197.56 233.12,197.45 232.5,195.44 229.69,195.3 228.11,196.51 229.06,191.89 230.8,190.64 
				229.71,187.24 217.66,187.25 217.6,176.15 216.55,176.14 216.56,166.2 196.65,166.41 196.67,156.36 195.56,155.24 188.13,155.23 
				189.07,157.81 188.45,159.4 187.01,158.59 186.54,162.84 183.26,163.18 181.73,165.05 179.66,162.71 176.42,164 175.44,161.53 
				174.06,163.48 172.26,162.74 169.17,163.72 167.25,161.1 168.32,158.01 163.19,150.83 162.3,145.28 160.15,142.9 161.38,140.64 
				159.44,137.35 156.87,136.18 154.76,139.33 147.68,142.37 146.66,145.06 144.02,144.31 143.54,140.58 			"/>
			<polygon class="st2" points="563.56,244.36 564.35,244.85 566.89,251.58 566.99,253.7 568.69,257.25 567.25,259.88 
				567.43,262.13 566.37,263.58 568.54,263.62 568.49,271.16 569.29,271.15 571.5,272.22 600.65,272.18 601.74,273.26 
				601.76,278.69 608.21,278.69 608.2,285.34 609.3,285.27 609.29,298.23 612.83,298.04 612.83,320.73 616.02,320.73 616.04,323.95 
				614.2,323.96 614.17,331.67 623.65,332.49 623.65,356.19 621.64,356.1 621.67,368.82 634.36,369.14 646.91,368.81 646.92,356.18 
				649.19,356.18 649.26,323.94 651.45,323.93 651.48,298.02 653.45,298 653.34,272.08 655.15,272.08 655.12,245.89 656.9,244.78 
				624.13,244.83 624.15,243.75 587.25,243.75 585.55,244.36 			"/>
			<polygon class="st3" points="563.56,244.36 564.35,244.85 566.89,251.58 566.99,253.7 568.69,257.25 567.25,259.88 
				567.44,262.13 566.37,263.58 568.54,263.62 568.49,271.16 569.29,271.15 571.5,272.22 600.65,272.18 601.74,273.26 
				601.76,278.69 608.21,278.69 608.2,285.34 609.3,285.27 609.29,298.23 612.83,298.04 612.83,320.73 616.02,320.73 616.04,323.95 
				614.2,323.96 614.17,331.67 623.65,332.49 623.65,356.19 621.64,356.1 621.67,368.82 634.36,369.14 646.91,368.81 646.92,356.18 
				649.19,356.18 649.26,323.94 651.45,323.93 651.48,298.02 653.45,298 653.34,272.08 655.15,272.08 655.12,245.89 656.9,244.78 
				624.13,244.83 624.15,243.75 587.25,243.75 585.55,244.36 			"/>
			<polygon class="st2" points="703,151.52 703.61,149.04 705.07,150.88 707.35,150.56 707.11,152.04 710.11,150.59 710.39,152.26 
				714.37,150.07 713.89,148.79 716.26,149.18 717.09,145.93 718.69,144.94 722.24,147.4 724.9,146.56 726.46,148.05 728.19,147.36 
				729.75,148.63 732.09,148.04 733.27,145.58 734.55,148.27 735.87,147.15 738.42,148.12 740.98,147.35 741.85,149.25 
				746.13,151.29 746.69,153.01 749.89,152.74 752.05,154.2 754.39,153.72 754.24,151.49 756.12,153.86 757.68,152.26 
				760.01,154.17 759.65,156.6 762.48,156.9 762.34,126.4 732.3,126.42 732.31,119.63 725.58,119.61 725.6,112.86 671.48,112.84 
				671.49,139.63 669.46,139.65 669.45,155.8 672.42,154.85 672.86,152.95 674.26,154.64 677.81,152.07 679.8,152.65 679.54,150.62 
				683.68,150.14 685.3,151.49 687.32,149.03 689.63,149.69 695.94,149.44 696.65,150.49 701.27,149.46 701.66,151.62 			"/>
			<polygon class="st3" points="703,151.52 703.61,149.04 705.07,150.88 707.35,150.56 707.11,152.04 710.11,150.59 710.39,152.26 
				714.37,150.07 713.89,148.79 716.26,149.19 717.09,145.93 718.68,144.94 722.24,147.4 724.9,146.56 726.46,148.05 728.19,147.36 
				729.75,148.63 732.09,148.04 733.27,145.58 734.55,148.27 735.87,147.15 738.42,148.12 740.98,147.35 741.85,149.25 
				746.13,151.29 746.69,153.01 749.89,152.74 752.05,154.2 754.39,153.72 754.24,151.49 756.12,153.86 757.68,152.26 
				760.01,154.17 759.65,156.6 762.48,156.9 762.34,126.4 732.3,126.42 732.31,119.63 725.58,119.61 725.6,112.86 671.48,112.84 
				671.49,139.63 669.46,139.65 669.45,155.81 672.42,154.85 672.86,152.95 674.26,154.64 677.81,152.07 679.8,152.65 
				679.54,150.62 683.68,150.14 685.29,151.49 687.32,149.03 689.63,149.69 695.94,149.44 696.65,150.49 701.27,149.46 
				701.66,151.62 			"/>
			<polygon class="st2" points="743.03,206.15 757.96,206.19 757.98,202.86 762.43,202.88 762.48,156.9 759.65,156.6 760.01,154.17 
				757.68,152.26 756.12,153.86 754.24,151.49 754.39,153.72 752.05,154.2 749.89,152.74 746.69,153.01 746.13,151.29 
				741.85,149.25 740.98,147.35 738.42,148.12 735.87,147.15 734.55,148.27 733.27,145.58 732.09,148.04 729.75,148.63 
				728.19,147.36 726.46,148.05 724.9,146.56 722.24,147.4 718.69,144.94 717.09,145.93 716.26,149.18 713.89,148.79 714.37,150.07 
				710.39,152.26 710.11,150.59 707.11,152.04 707.35,150.56 705.07,150.88 703.61,149.04 703,151.52 702.99,166.77 700.94,166.77 
				700.92,179.43 714.2,179.45 714.18,186.13 734.08,186.16 734.07,192.82 738.25,192.8 738.23,206.15 			"/>
			<polygon class="st3" points="743.03,206.15 757.96,206.19 757.98,202.86 762.43,202.88 762.48,156.9 759.65,156.6 760.01,154.17 
				757.68,152.26 756.12,153.86 754.24,151.49 754.39,153.72 752.05,154.2 749.89,152.74 746.69,153.01 746.13,151.29 
				741.85,149.25 740.98,147.35 738.42,148.12 735.87,147.15 734.55,148.27 733.27,145.58 732.09,148.04 729.75,148.63 
				728.19,147.36 726.46,148.05 724.9,146.56 722.24,147.4 718.68,144.94 717.09,145.93 716.26,149.19 713.89,148.79 714.37,150.07 
				710.39,152.26 710.11,150.59 707.11,152.04 707.35,150.56 705.07,150.88 703.61,149.04 703,151.52 702.99,166.77 700.94,166.77 
				700.92,179.44 714.2,179.45 714.18,186.13 734.08,186.16 734.07,192.82 738.25,192.8 738.23,206.15 			"/>
			<polygon class="st2" points="251.01,330.81 252.4,330.57 252.19,327.16 254.51,324.45 255.61,326.61 257.93,325.85 
				259.02,323.82 263.44,319.86 265,320.46 268.89,319.36 269.58,317.66 271.98,317.26 271.84,314.69 272.81,312.79 268.04,311.97 
				265.18,309.65 263.96,305.58 260.55,304.75 259.72,306.13 257.96,305.39 260.57,299.82 258.4,296.8 258.93,294.75 257.22,293.98 
				257.06,292.38 259.44,291.19 260.73,287.89 258.96,286.96 259.62,284.24 259.08,281.38 256.28,277.25 254.22,270.2 
				255.61,269.71 255.73,267.77 257.46,264.23 257.91,261.03 256.71,258.74 230.6,258.75 231.13,262.52 230.01,264.07 
				230.12,269.37 227.12,270.69 227.09,272.46 228.76,275.51 225.97,279.32 226.42,283.15 225.72,287.07 223.68,287.91 224.9,293.1 
				224.79,295.71 221.2,295.73 220.86,298.89 223.29,299.79 223.67,303.35 221.57,305.87 222.96,305.95 222.6,307.9 226.53,309.9 
				227.01,311.36 225.52,313.01 227.74,316.98 226.63,319.26 225.18,318.44 221.48,319.71 221.37,320.89 218.54,325.02 
				219.49,327.26 221.74,328.88 221.18,331.6 221.98,332.78 218.81,334.94 219.99,337.38 218.61,341.01 220.61,340.04 
				223.82,341.91 225.9,344.56 228.91,345.98 229.97,348.22 233.38,346.7 234.94,343.75 234.98,341.88 237.84,342.57 240.81,341.02 
				241.49,339.05 243.56,338.11 244.31,335.84 247.09,333.58 246.81,331.02 248.42,330.05 			"/>
			<polygon class="st3" points="251.01,330.81 252.4,330.57 252.19,327.16 254.51,324.45 255.61,326.61 257.93,325.85 
				259.02,323.81 263.44,319.86 265,320.46 268.89,319.36 269.58,317.66 271.98,317.26 271.84,314.69 272.81,312.79 268.04,311.98 
				265.18,309.65 263.96,305.58 260.55,304.75 259.72,306.13 257.96,305.39 260.57,299.82 258.4,296.8 258.93,294.75 257.22,293.98 
				257.06,292.38 259.44,291.19 260.73,287.89 258.96,286.96 259.62,284.24 259.08,281.38 256.28,277.25 254.22,270.2 
				255.61,269.71 255.73,267.77 257.46,264.23 257.91,261.03 256.71,258.74 230.6,258.75 231.13,262.52 230.01,264.07 
				230.12,269.37 227.12,270.69 227.09,272.46 228.76,275.51 225.97,279.32 226.42,283.15 225.72,287.06 223.68,287.91 224.9,293.1 
				224.79,295.71 221.2,295.73 220.86,298.89 223.29,299.79 223.67,303.35 221.57,305.87 222.96,305.95 222.6,307.9 226.53,309.9 
				227.01,311.36 225.52,313.01 227.74,316.98 226.63,319.26 225.18,318.44 221.48,319.71 221.37,320.89 218.54,325.02 
				219.49,327.26 221.74,328.88 221.18,331.6 221.98,332.78 218.81,334.94 219.99,337.38 218.61,341.01 220.61,340.04 
				223.82,341.91 225.9,344.56 228.91,345.98 229.97,348.22 233.38,346.7 234.94,343.75 234.98,341.88 237.84,342.57 240.81,341.02 
				241.49,339.05 243.56,338.11 244.31,335.84 247.09,333.58 246.81,331.02 248.42,330.05 			"/>
			<polygon class="st2" points="656.87,219.38 656.89,243.7 670.01,243.68 670.01,245.84 681.14,245.83 681.11,252.41 
				683.27,252.41 683.3,258.97 687.63,258.96 687.64,263.31 689.86,263.32 689.86,265.52 700.7,265.58 700.69,267.77 713.86,267.8 
				713.85,265.62 720.36,265.65 720.37,262.39 726.87,262.37 726.88,259.09 733.38,259.12 733.55,243.65 711.64,243.61 
				711.64,241.4 709.47,239.25 702.89,239.24 702.9,234.85 696.27,234.85 696.28,219.35 670,219.38 670.01,226.06 663.43,226.07 
				663.43,219.37 			"/>
			<polygon class="st3" points="656.87,219.38 656.89,243.7 670.01,243.68 670.01,245.84 681.14,245.83 681.11,252.4 683.27,252.41 
				683.3,258.97 687.63,258.96 687.64,263.31 689.86,263.32 689.86,265.52 700.7,265.58 700.69,267.77 713.86,267.8 713.85,265.62 
				720.36,265.65 720.37,262.39 726.87,262.37 726.88,259.09 733.38,259.12 733.55,243.65 711.64,243.61 711.64,241.4 
				709.47,239.25 702.89,239.24 702.9,234.85 696.27,234.85 696.28,219.35 670,219.38 670.01,226.06 663.43,226.07 663.43,219.37 
							"/>
			<polygon class="st2" points="283.84,245.83 284.44,247.73 285.76,246.31 287.74,249.54 290.57,251.76 290.28,253.46 
				293.52,254.77 297.5,253.08 297.6,288.32 322.33,288.39 321.63,286.11 323.67,283.23 327.97,283.29 330.69,279.29 333.03,279.45 
				335.14,276.77 335.38,270.06 336.02,268.54 334.82,265.19 336,262.89 334.62,259.08 329.96,259.06 329.96,255.82 323.53,255.91 
				323.51,245.66 310.09,245.85 310.02,219.67 296.46,219.5 296.43,195.95 293.56,195.76 293.06,190.61 292.01,187.66 
				275.39,187.38 275.41,219.54 283.85,219.5 			"/>
			<polygon class="st3" points="283.84,245.83 284.44,247.73 285.76,246.31 287.74,249.54 290.57,251.76 290.28,253.46 
				293.52,254.77 297.5,253.08 297.6,288.32 322.33,288.39 321.63,286.11 323.67,283.23 327.97,283.29 330.69,279.29 333.03,279.45 
				335.14,276.77 335.38,270.06 336.02,268.54 334.82,265.19 336,262.89 334.62,259.08 329.96,259.06 329.96,255.82 323.53,255.91 
				323.51,245.66 310.09,245.85 310.02,219.67 296.46,219.5 296.43,195.95 293.56,195.76 293.06,190.61 292.01,187.66 
				275.39,187.38 275.41,219.54 283.85,219.5 			"/>
			<polygon class="st2" points="646.91,368.81 647.74,368.82 647.74,382.44 665.08,382.45 665.85,381.92 711.08,381.96 
				711.09,356.16 713.73,356.17 714.03,349.5 714,324.05 649.26,323.94 649.19,356.18 646.92,356.18 			"/>
			<polygon class="st3" points="646.91,368.81 647.74,368.82 647.74,382.44 665.08,382.45 665.85,381.92 711.08,381.96 
				711.09,356.16 713.73,356.17 714.03,349.5 714,324.05 649.26,323.94 649.19,356.18 646.92,356.18 			"/>
			<polygon class="st2" points="298.63,146.35 342.01,146.47 342.03,149.83 348.75,149.88 348.73,153.26 352.05,153.25 
				352.04,157.77 381.78,157.6 381.76,139.61 368.43,139.61 368.48,129.51 361.74,129.48 361.75,126.12 351.68,126.02 
				351.67,122.58 349.31,121.56 346.32,122.41 343.35,120.01 338.23,119.05 321.38,119.07 321.18,132.59 281.44,132.56 
				284.09,134.54 284.55,136.07 287.26,137.45 287.54,143.39 289.63,143 292.52,145.89 295.97,145.14 296.97,147.22 			"/>
			<polygon class="st3" points="298.63,146.35 342.01,146.47 342.03,149.84 348.75,149.88 348.73,153.26 352.05,153.25 
				352.04,157.77 381.78,157.6 381.76,139.61 368.43,139.61 368.48,129.51 361.74,129.48 361.75,126.12 351.68,126.02 
				351.67,122.58 349.31,121.56 346.32,122.41 343.35,120.01 338.23,119.05 321.38,119.07 321.18,132.59 281.44,132.56 
				284.09,134.54 284.55,136.07 287.26,137.45 287.54,143.39 289.63,143 292.52,145.89 295.97,145.14 296.96,147.23 			"/>
			<polygon class="st2" points="511.92,177.07 515.38,178.92 517.45,181.09 518.09,183.89 520.44,183.59 523.27,185.88 
				526.39,185.52 528.39,186.66 530.57,186.13 533.45,187.51 534.36,186.18 539.91,189.95 541.82,188.65 547.66,188.17 
				548.75,188.91 554.6,187.51 556.83,188.76 559.21,188.47 561.54,189.75 562.16,193.47 563.25,194.27 562.69,198.82 
				565.08,198.39 564.98,194.45 567.13,191.61 570.42,191.06 571.85,189.48 573.71,185.18 576.21,185.28 575.82,183.37 
				577.82,184.91 578.61,183.55 582.76,184.1 583.76,185.53 586.4,185.69 587.97,182.71 588.23,180.35 588.26,166.59 588.76,166.58 
				588.76,139.7 590.55,139.7 590.59,132.96 596.2,132.98 596.21,126.05 594.12,126.05 594.09,119.27 596.34,119.27 596.33,116.63 
				599.7,117.06 599.71,112.47 599.01,112.47 599.02,85.46 600.37,85.46 600.32,78.58 545.75,78.58 545.77,85.39 544.57,85.38 
				544.58,98.84 541.48,98.83 541.5,112.44 540.08,112.44 540.06,123.4 536.72,122.08 536.71,139.61 535.55,139.61 535.54,158.41 
				528.53,158.02 526.55,157.29 525.63,162.71 512.07,162.57 			"/>
			<polygon class="st3" points="511.92,177.07 515.38,178.92 517.45,181.09 518.09,183.9 520.44,183.59 523.27,185.88 
				526.39,185.52 528.39,186.66 530.57,186.13 533.45,187.51 534.36,186.18 539.91,189.95 541.82,188.65 547.66,188.17 
				548.75,188.91 554.6,187.51 556.83,188.76 559.21,188.47 561.54,189.75 562.16,193.47 563.25,194.27 562.69,198.82 
				565.08,198.39 564.98,194.46 567.13,191.61 570.42,191.06 571.85,189.48 573.71,185.18 576.21,185.28 575.82,183.37 
				577.82,184.91 578.61,183.55 582.76,184.1 583.76,185.53 586.4,185.69 587.97,182.71 588.23,180.35 588.26,166.59 588.76,166.58 
				588.76,139.7 590.55,139.7 590.59,132.96 596.2,132.98 596.21,126.05 594.12,126.05 594.09,119.27 596.34,119.27 596.33,116.63 
				599.7,117.06 599.71,112.47 599.01,112.47 599.02,85.46 600.37,85.46 600.32,78.58 545.75,78.58 545.77,85.39 544.57,85.38 
				544.58,98.84 541.48,98.83 541.5,112.44 540.08,112.44 540.06,123.4 536.72,122.08 536.71,139.61 535.55,139.61 535.54,158.41 
				528.53,158.02 526.55,157.29 525.63,162.71 512.06,162.57 			"/>
			<polygon class="st2" points="525.36,252.07 566.89,251.58 564.35,244.85 561.31,242.69 561.7,238.58 562.81,237.96 562.7,235.51 
				564.02,233.25 561.99,231.32 562.23,227.05 560.92,226.72 561.48,224.3 560.03,223.51 561.13,222.05 561.23,216.78 
				559.62,214.21 560.43,212.36 559.88,206.18 562.68,202.56 561.98,199.28 562.69,198.82 563.25,194.27 562.16,193.47 
				561.54,189.75 559.21,188.47 556.83,188.76 554.6,187.51 548.75,188.91 547.66,188.17 541.82,188.65 541.7,209.18 540.59,209.72 
				527.43,209.84 527.45,212.57 520.8,212.58 520.86,219.13 519.91,219.13 519.9,225.67 526.52,225.7 526.4,245.48 525.39,245.49 
							"/>
			<polygon class="st3" points="525.36,252.07 566.89,251.58 564.35,244.85 561.31,242.69 561.7,238.58 562.81,237.96 562.7,235.51 
				564.02,233.25 561.99,231.32 562.23,227.05 560.92,226.72 561.48,224.3 560.03,223.51 561.13,222.05 561.23,216.78 
				559.62,214.21 560.43,212.36 559.88,206.18 562.68,202.56 561.98,199.28 562.69,198.82 563.25,194.27 562.16,193.47 
				561.54,189.75 559.21,188.47 556.83,188.76 554.6,187.51 548.75,188.91 547.66,188.17 541.82,188.65 541.7,209.18 540.59,209.72 
				527.43,209.84 527.45,212.57 520.8,212.58 520.86,219.13 519.91,219.13 519.9,225.67 526.52,225.7 526.4,245.48 525.39,245.49 
							"/>
			<polygon class="st2" points="400.6,381.89 414.01,381.76 418.13,382.55 433.76,382.44 435.84,381.94 444.28,382.26 448.9,381.7 
				465,381.82 465.02,369.4 442.78,369.33 442.75,356.4 443.28,356.4 443.17,324.19 439.46,324.19 439.46,298.28 440.02,294.49 
				433.43,294.49 433.44,293.92 414.06,293.88 413.73,297.64 413.49,338.6 410.28,338.56 410.23,343.42 407.07,343.4 407.15,356.22 
				400.92,356.23 400.87,369.04 400.49,369.04 			"/>
			<polygon class="st3" points="400.6,381.89 414.01,381.76 418.13,382.55 433.76,382.44 435.84,381.94 444.28,382.26 448.9,381.7 
				465,381.82 465.02,369.4 442.78,369.33 442.75,356.4 443.28,356.4 443.17,324.19 439.46,324.19 439.46,298.28 440.02,294.49 
				433.43,294.49 433.44,293.92 414.06,293.88 413.73,297.64 413.49,338.6 410.28,338.56 410.23,343.42 407.07,343.4 407.15,356.22 
				400.92,356.23 400.87,369.04 400.49,369.05 			"/>
			<polygon class="st2" points="517.67,298.35 537.05,298.34 537.06,290.62 541.39,289.61 541.4,288.52 556.46,288.55 
				556.47,285.26 557.38,283.1 559.54,281.99 561.68,278.7 569.25,278.7 569.29,271.15 568.49,271.16 568.54,263.62 566.37,263.58 
				567.43,262.13 567.25,259.88 568.69,257.25 566.99,253.7 566.89,251.58 544.46,251.71 538.37,252.06 505.78,251.98 
				505.81,261.68 507.04,261.53 506.87,264.94 511.21,265.03 511.18,271.63 512.48,271.62 512.39,274.48 513.49,274.47 
				513.46,280.99 515.06,282.06 515.57,285.42 517.71,287.58 			"/>
			<polygon class="st3" points="517.67,298.35 537.05,298.34 537.06,290.62 541.39,289.61 541.4,288.52 556.46,288.55 
				556.47,285.26 557.38,283.1 559.54,281.99 561.68,278.7 569.25,278.7 569.29,271.15 568.49,271.16 568.54,263.62 566.37,263.58 
				567.44,262.13 567.25,259.88 568.69,257.25 566.99,253.7 566.89,251.58 544.46,251.71 538.37,252.06 505.78,251.98 
				505.81,261.68 507.03,261.53 506.87,264.94 511.21,265.03 511.18,271.63 512.48,271.62 512.39,274.48 513.49,274.47 
				513.46,280.99 515.06,282.06 515.57,285.42 517.71,287.58 			"/>
			<polygon class="st2" points="212.91,253.02 215.71,255.24 214.95,258.86 217.06,260.81 219.8,259.57 223.67,260.94 
				225.87,258.77 229.3,258.14 230.6,258.75 265.01,258.93 264.99,254.59 271.02,254.55 271.33,252.41 274.7,252.41 274.69,248.05 
				277.97,248.06 277.99,245.84 283.84,245.83 283.85,219.5 275.41,219.54 275.39,187.38 251.18,187.36 252.21,195.02 
				250.33,196.88 252.75,199.04 254.48,203.29 253.69,205.03 253.68,208.9 254.49,211.24 257.06,212.71 257.01,219.33 
				251.22,219.33 251.24,222.63 238.12,222.63 234.65,223.97 232.69,223.61 229.41,221.14 229.57,218.66 228.11,218.84 
				225.91,217.16 222.31,216.46 219.38,214.01 212.27,212.29 211.17,213.77 206.6,212.69 207.71,215.99 210.99,215.99 211,219.29 
				214.2,220.44 215.28,223.74 217.47,223.74 218.55,228.02 222.81,228.02 222.82,231.35 226.11,231.36 224.48,233.63 
				220.65,232.42 218.55,235.87 218.53,245.71 219.42,245.7 219.43,252.22 212.91,252.22 			"/>
			<polygon class="st3" points="212.91,253.02 215.71,255.24 214.95,258.86 217.06,260.81 219.8,259.57 223.67,260.94 
				225.87,258.77 229.3,258.14 230.6,258.75 265.01,258.93 264.99,254.59 271.02,254.55 271.33,252.4 274.7,252.41 274.69,248.05 
				277.97,248.06 277.99,245.84 283.84,245.83 283.85,219.5 275.41,219.54 275.39,187.38 251.18,187.36 252.21,195.02 
				250.33,196.88 252.75,199.04 254.48,203.29 253.69,205.03 253.68,208.9 254.49,211.24 257.06,212.71 257.01,219.33 
				251.22,219.32 251.24,222.63 238.12,222.63 234.65,223.97 232.69,223.61 229.41,221.14 229.57,218.66 228.11,218.84 
				225.91,217.16 222.31,216.46 219.38,214.01 212.27,212.29 211.17,213.77 206.6,212.69 207.71,215.99 210.99,215.99 211,219.3 
				214.2,220.44 215.28,223.73 217.47,223.73 218.55,228.02 222.81,228.02 222.82,231.35 226.11,231.35 224.48,233.63 
				220.65,232.42 218.55,235.87 218.53,245.71 219.42,245.7 219.43,252.22 212.91,252.22 			"/>
			<polygon class="st2" points="198.22,238.21 199.89,239.21 199.8,244.11 201.48,248.05 203.08,247.17 204.87,249.49 
				208.26,251.42 207.04,254.74 208.98,255.99 211.67,252.77 212.91,253.02 212.91,252.22 219.43,252.22 219.42,245.7 
				218.53,245.71 218.55,235.87 220.65,232.42 224.48,233.63 226.11,231.36 222.82,231.35 222.81,228.02 218.55,228.02 
				217.47,223.74 215.28,223.74 214.2,220.44 211,219.29 210.99,215.99 207.71,215.99 206.6,212.69 204.27,212.7 204.27,210.49 
				200.98,210.49 200.98,209.39 197.72,209.36 197.72,204.67 197.03,202.93 191.09,200.53 189.91,201.18 188,199.02 181.51,196.05 
				180.36,197.14 175.28,196.24 173.18,197.63 170.87,197.08 169.29,195.28 168.78,196.84 163.61,196.6 162.7,198.35 160.29,198.32 
				157.36,199.6 161.88,202.49 162.83,204.41 164.21,204.02 167.62,206.51 168.75,210.37 174.06,211.83 174.95,213.06 178.5,213.15 
				181.01,217.13 180.6,218.88 182.57,219.33 183.51,221.71 186.52,223.27 188.74,225.4 190.58,229.41 192.42,231.14 193.64,235.43 
				196.05,235.25 			"/>
			<polygon class="st3" points="198.22,238.21 199.89,239.21 199.8,244.11 201.48,248.05 203.08,247.17 204.87,249.49 
				208.26,251.42 207.04,254.74 208.98,255.99 211.67,252.77 212.91,253.02 212.91,252.22 219.43,252.22 219.42,245.7 
				218.53,245.71 218.55,235.87 220.65,232.42 224.48,233.63 226.11,231.35 222.82,231.35 222.81,228.02 218.55,228.02 
				217.47,223.73 215.28,223.73 214.2,220.44 211,219.3 210.99,215.99 207.71,215.99 206.6,212.69 204.27,212.7 204.27,210.49 
				200.98,210.49 200.98,209.39 197.72,209.36 197.72,204.67 197.03,202.93 191.09,200.53 189.91,201.18 188,199.02 181.51,196.04 
				180.36,197.14 175.28,196.24 173.18,197.63 170.87,197.08 169.29,195.28 168.78,196.84 163.61,196.6 162.7,198.35 160.29,198.32 
				157.36,199.6 161.88,202.49 162.83,204.41 164.21,204.02 167.62,206.51 168.75,210.37 174.06,211.83 174.95,213.06 178.5,213.15 
				181.01,217.13 180.6,218.88 182.57,219.32 183.51,221.71 186.52,223.27 188.74,225.4 190.58,229.41 192.42,231.14 193.64,235.43 
				196.05,235.25 			"/>
			<polygon class="st2" points="368.87,239.68 371.74,241.34 369.7,243.3 369.53,245.09 371.9,247.67 375.42,247.91 377.24,248.97 
				377.15,251.09 379.36,252.59 379.68,257.21 380.91,257.21 381.56,259.8 385.81,260.8 385.06,267.4 387.81,268.78 389.62,270.99 
				389.95,275.06 391.12,276.2 393.87,274.89 396.36,275.25 399.62,277.61 399.37,281.83 396.79,284.57 396.32,287.8 398.86,289.69 
				399.66,293.85 433.44,293.92 433.43,294.49 440.02,294.49 440.03,271.61 440.46,271.61 440.46,255 436.82,257.88 435.16,256.34 
				430.95,257.4 429.59,255.67 425.43,252.85 425.44,250.41 422.53,250.41 420.84,246.47 418.56,244.87 415.73,244.88 
				415.25,240.67 413,240.57 410.28,238.96 407.38,234.57 403.09,232.74 399.21,232.71 397.57,230.91 398.94,229.72 398.71,226.44 
				394.7,226.43 394.7,232.25 388.15,232.24 388.15,233.06 375.02,233.09 375.01,239.68 			"/>
			<polygon class="st3" points="368.87,239.68 371.74,241.34 369.7,243.3 369.53,245.09 371.9,247.67 375.42,247.91 377.24,248.97 
				377.15,251.09 379.36,252.59 379.68,257.22 380.91,257.22 381.56,259.8 385.81,260.8 385.06,267.4 387.81,268.78 389.62,270.99 
				389.95,275.06 391.12,276.2 393.87,274.89 396.36,275.25 399.62,277.61 399.37,281.83 396.79,284.57 396.32,287.8 398.86,289.69 
				399.66,293.85 433.44,293.92 433.43,294.49 440.02,294.49 440.03,271.61 440.46,271.61 440.46,255 436.82,257.88 435.16,256.34 
				430.95,257.4 429.59,255.67 425.43,252.85 425.44,250.41 422.53,250.41 420.84,246.47 418.56,244.87 415.73,244.88 
				415.25,240.67 413,240.57 410.28,238.96 407.38,234.57 403.09,232.74 399.21,232.71 397.57,230.91 398.94,229.72 398.71,226.44 
				394.7,226.43 394.7,232.25 388.15,232.24 388.15,233.06 375.03,233.09 375.01,239.68 			"/>
			<polygon class="st2" points="639.73,159.89 642.85,159.91 642.85,166.75 647.87,166.76 647.9,192.82 645.96,192.83 
				645.96,206.17 652.55,206.15 652.56,219.39 663.43,219.37 663.43,226.07 670.01,226.06 670,219.38 692.07,219.33 692.05,192.81 
				694.28,192.79 694.3,172.76 700.94,172.73 700.94,166.77 702.99,166.77 703,151.52 701.66,151.62 701.27,149.46 696.65,150.49 
				695.94,149.44 689.63,149.69 687.32,149.03 685.3,151.49 683.68,150.14 679.54,150.62 679.8,152.65 677.81,152.07 674.26,154.64 
				672.86,152.95 672.42,154.85 669.45,155.8 666.58,153.96 665.53,156.3 661.05,154 660.63,156.1 659.09,155.94 656.94,153.92 
				656.43,155.78 653.88,156.05 654.68,154.1 649.52,154.56 644.76,152.32 642.53,152.98 640.99,151.6 639.15,155.19 			"/>
			<polygon class="st3" points="639.73,159.89 642.85,159.91 642.85,166.75 647.87,166.76 647.9,192.82 645.96,192.83 
				645.96,206.17 652.55,206.15 652.56,219.39 663.43,219.37 663.43,226.07 670.01,226.06 670,219.38 692.07,219.33 692.05,192.81 
				694.28,192.79 694.3,172.76 700.94,172.73 700.94,166.77 702.99,166.77 703,151.52 701.66,151.62 701.27,149.46 696.65,150.49 
				695.94,149.44 689.63,149.69 687.32,149.03 685.29,151.49 683.68,150.14 679.54,150.62 679.8,152.65 677.81,152.07 
				674.26,154.64 672.86,152.95 672.42,154.85 669.45,155.81 666.58,153.96 665.53,156.3 661.05,154 660.63,156.1 659.09,155.94 
				656.94,153.92 656.43,155.78 653.88,156.05 654.68,154.1 649.52,154.56 644.76,152.32 642.53,152.98 640.99,151.6 639.15,155.19 
							"/>
			<polygon class="st2" points="315.7,336.02 315.34,342.02 314.76,342.82 315.44,346.48 318.73,349.65 321.33,350.44 
				323.33,349.22 325.08,349.46 327.21,353.11 327.54,356.32 327.58,375.5 333.94,375.51 333.92,381.94 341.32,381.95 
				341.35,388.35 342.57,388.37 342.56,394.63 347.8,394.68 347.79,397.76 362.48,397.95 362.48,403.22 381.48,403.08 
				382.53,400.03 383.37,400.1 383.61,356.27 384.79,356.28 384.73,334.79 375.15,334.77 374.13,332.62 370.88,330.52 
				368.79,327.29 365.6,327.28 365.59,325.13 361.27,323.23 360.92,322.08 355.98,320.98 354.82,318.84 352.81,319.61 350.1,318.7 
				345.74,320.01 344.14,325.18 341.38,326.91 327.35,327.32 324.73,326.74 324.13,329.86 322.77,331.65 			"/>
			<polygon class="st3" points="315.7,336.02 315.34,342.02 314.76,342.82 315.44,346.48 318.73,349.65 321.33,350.44 
				323.33,349.22 325.08,349.46 327.21,353.11 327.54,356.31 327.58,375.5 333.94,375.51 333.92,381.94 341.32,381.95 
				341.35,388.35 342.57,388.37 342.56,394.63 347.8,394.68 347.79,397.76 362.48,397.95 362.48,403.22 381.48,403.08 
				382.53,400.03 383.37,400.1 383.61,356.27 384.79,356.28 384.73,334.79 375.15,334.77 374.13,332.62 370.88,330.52 
				368.79,327.29 365.6,327.28 365.59,325.13 361.27,323.23 360.92,322.08 355.98,320.98 354.82,318.84 352.81,319.61 350.1,318.7 
				345.74,320.01 344.14,325.18 341.38,326.91 327.35,327.32 324.73,326.74 324.13,329.86 322.77,331.65 			"/>
			<polygon class="st2" points="195.56,155.24 195.53,145.83 195.03,145.83 195.07,139.1 203.98,139.09 203.88,112.04 
				201.91,112.04 201.87,105.4 214.78,105.36 212.01,103.68 212.71,100.24 215.8,98.82 214.32,95.96 209.94,93.59 212.05,91 
				210.66,83.4 212.41,80.67 209.85,79.97 210.09,78.57 141.87,78.58 141.84,139.95 143.54,140.58 144.02,144.31 146.66,145.06 
				147.68,142.37 154.76,139.33 156.87,136.18 159.44,137.35 161.38,140.64 160.15,142.9 162.3,145.28 163.19,150.83 168.32,158.01 
				167.25,161.1 169.17,163.72 172.26,162.74 174.06,163.48 175.44,161.53 176.42,164 179.66,162.71 181.73,165.05 183.26,163.18 
				186.54,162.84 187.01,158.59 188.45,159.4 189.07,157.81 188.13,155.23 			"/>
			<polygon class="st3" points="195.56,155.24 195.53,145.83 195.03,145.83 195.07,139.1 203.98,139.09 203.88,112.04 
				201.91,112.04 201.87,105.4 214.78,105.36 212.01,103.68 212.71,100.25 215.8,98.82 214.32,95.96 209.94,93.59 212.05,91 
				210.66,83.4 212.41,80.67 209.85,79.97 210.09,78.57 141.88,78.58 141.84,139.95 143.54,140.58 144.02,144.31 146.66,145.06 
				147.68,142.37 154.76,139.33 156.87,136.18 159.44,137.35 161.38,140.64 160.15,142.9 162.3,145.28 163.19,150.83 168.32,158.01 
				167.25,161.1 169.17,163.72 172.26,162.74 174.06,163.48 175.44,161.53 176.42,164 179.66,162.71 181.73,165.05 183.26,163.18 
				186.54,162.84 187.01,158.59 188.45,159.4 189.07,157.81 188.13,155.23 			"/>
			<polygon class="st2" points="381.75,146.38 411.83,146.3 411.84,139.59 415.53,139.59 415.78,85.34 416.19,85.34 416.18,78.57 
				388.91,78.57 388.69,139.61 381.76,139.61 			"/>
			<polygon class="st3" points="381.75,146.38 411.83,146.3 411.84,139.59 415.53,139.59 415.78,85.34 416.19,85.34 416.18,78.57 
				388.91,78.57 388.69,139.61 381.76,139.61 			"/>
			<polygon class="st2" points="292.01,187.66 293.06,190.61 293.56,195.76 296.43,195.95 296.46,219.5 310.02,219.67 
				310.09,245.85 323.51,245.66 323.53,255.91 329.96,255.82 329.96,259.06 334.62,259.08 336,262.89 334.82,265.19 336.02,268.54 
				335.38,270.06 335.14,276.77 337.25,277.26 342.11,274.1 340.59,270.98 344.24,269.17 346.88,269.61 349.45,267.63 
				349.68,265.65 370.24,265.65 369.81,264.65 369.85,252.92 372.56,249.62 373.85,250.78 377.15,251.09 377.24,248.97 
				375.42,247.91 371.9,247.67 369.53,245.09 369.7,243.3 371.74,241.34 368.87,239.68 362.05,239.64 362.09,223.33 355.34,222.85 
				353.05,221.06 352.35,219.14 348.88,218.49 348.75,193.82 345.54,194.51 343.91,193.9 336.81,194.58 334.75,191.8 330.17,190.88 
				329.4,187.16 324.58,185.68 322.57,183.4 321.32,184.83 317.72,185.81 313.27,186.14 310.89,187.51 309.15,186.85 305.85,183.54 
				303.94,180.09 304.59,177.54 303.29,174.95 304.06,169.99 300.9,163.42 300.3,160.15 298.42,162.17 295.02,162.92 294.72,164.62 
				296.23,165.43 295.92,169.77 296.32,172.93 295.32,175.88 292.36,176.18 290.93,178.12 292.51,182.53 			"/>
			<polygon class="st3" points="292.01,187.66 293.06,190.61 293.56,195.76 296.43,195.95 296.46,219.5 310.02,219.67 
				310.09,245.85 323.51,245.66 323.53,255.91 329.96,255.82 329.96,259.06 334.62,259.08 336,262.89 334.82,265.19 336.02,268.54 
				335.38,270.06 335.14,276.77 337.25,277.26 342.11,274.11 340.59,270.98 344.24,269.17 346.88,269.61 349.45,267.63 
				349.69,265.65 370.24,265.65 369.81,264.65 369.85,252.92 372.56,249.62 373.85,250.78 377.15,251.09 377.24,248.97 
				375.42,247.91 371.9,247.67 369.53,245.09 369.7,243.3 371.74,241.34 368.87,239.68 362.05,239.64 362.09,223.33 355.34,222.85 
				353.05,221.06 352.35,219.14 348.88,218.49 348.75,193.82 345.54,194.52 343.91,193.9 336.81,194.59 334.75,191.8 330.17,190.88 
				329.4,187.16 324.58,185.68 322.57,183.4 321.32,184.83 317.72,185.81 313.27,186.14 310.89,187.51 309.15,186.85 305.85,183.54 
				303.94,180.09 304.59,177.54 303.29,174.95 304.06,169.99 300.9,163.42 300.3,160.15 298.42,162.17 295.02,162.92 294.72,164.62 
				296.23,165.43 295.92,169.77 296.32,172.93 295.32,175.88 292.36,176.18 290.93,178.12 292.51,182.53 			"/>
			<polygon class="st2" points="216.57,172.81 216.55,176.14 217.6,176.15 217.66,187.25 229.71,187.24 230.8,190.64 229.06,191.89 
				228.11,196.51 229.69,195.3 232.5,195.44 233.12,197.45 230.94,197.56 229.56,203.46 232.89,206.06 237.3,206.06 237.32,219.32 
				238.15,219.33 238.12,222.63 251.24,222.63 251.22,219.33 257.01,219.33 257.06,212.71 254.49,211.24 253.68,208.9 
				253.69,205.03 254.48,203.29 252.75,199.04 250.33,196.88 252.21,195.02 251.18,187.36 266.73,187.39 267.32,182.88 
				268.58,180.95 268.28,178.06 266.4,178.17 265.18,176.2 266.06,175.1 264.29,172.43 264.92,171.04 265.11,165.65 263.38,163.02 
				262.34,163.01 260.84,160.23 257.94,158.15 255.98,158.28 253.71,152.65 246.35,152.59 245.22,154.82 243.76,154.78 
				245.82,159.49 222.37,159.54 222.37,166.2 223.13,166.21 223.14,172.81 			"/>
			<polygon class="st3" points="216.57,172.81 216.55,176.14 217.6,176.15 217.66,187.25 229.71,187.24 230.8,190.64 229.06,191.89 
				228.11,196.51 229.69,195.3 232.5,195.44 233.12,197.45 230.95,197.56 229.56,203.46 232.89,206.06 237.3,206.06 237.32,219.32 
				238.15,219.32 238.12,222.63 251.24,222.63 251.22,219.32 257.01,219.33 257.06,212.71 254.49,211.24 253.68,208.9 
				253.69,205.03 254.48,203.29 252.75,199.04 250.33,196.88 252.21,195.02 251.18,187.36 266.73,187.39 267.32,182.88 
				268.58,180.96 268.28,178.06 266.4,178.17 265.18,176.2 266.06,175.1 264.29,172.43 264.92,171.04 265.11,165.65 263.38,163.02 
				262.34,163.01 260.84,160.23 257.94,158.15 255.98,158.28 253.71,152.65 246.34,152.59 245.22,154.82 243.76,154.78 
				245.82,159.49 222.37,159.54 222.37,166.2 223.13,166.21 223.14,172.81 			"/>
			<polygon class="st2" points="420.84,246.47 422.53,250.41 425.44,250.41 425.43,252.85 429.59,255.67 430.95,257.4 
				435.16,256.34 436.82,257.88 440.46,255 443.7,255.15 444.68,253.85 446.45,254.57 448.62,252.85 451.89,252.06 453.08,253.06 
				456.18,251.82 463.94,256.3 467.74,256.27 467.19,249.73 465.56,249.75 465,248.1 463.37,248.09 463.09,245.91 465,245.93 
				465.34,242.08 467.23,240.98 467.16,219.03 461.19,219.04 461.19,215.73 454.58,215.73 454.57,212.44 447.98,212.45 
				447.97,205.82 443.56,205.81 443.56,201.41 421.52,201.44 421.54,205.82 414.93,205.81 414.94,210.51 413.84,209.74 
				413.85,214.14 414.96,215.32 414.67,225.85 421.23,225.86 421.7,245.44 			"/>
			<polygon class="st3" points="420.84,246.47 422.53,250.41 425.44,250.41 425.43,252.85 429.59,255.67 430.95,257.4 
				435.16,256.34 436.82,257.88 440.46,255 443.7,255.15 444.68,253.85 446.45,254.57 448.62,252.85 451.89,252.06 453.08,253.06 
				456.18,251.82 463.94,256.3 467.74,256.27 467.19,249.73 465.56,249.75 465,248.1 463.37,248.1 463.09,245.91 465,245.93 
				465.34,242.08 467.23,240.98 467.16,219.03 461.19,219.04 461.19,215.73 454.58,215.73 454.57,212.44 447.98,212.45 
				447.97,205.82 443.56,205.81 443.56,201.41 421.52,201.44 421.54,205.82 414.93,205.81 414.94,210.51 413.84,209.74 
				413.85,214.14 414.96,215.31 414.67,225.85 421.23,225.86 421.7,245.44 			"/>
			<polygon class="st2" points="321.38,294.89 325.1,294.52 324.3,298.04 327.1,301.33 326.54,304.41 328.13,305.72 328.91,313.47 
				330.31,316.6 329.13,319.8 337.09,323.76 338.07,325.26 341.38,326.91 344.14,325.18 345.74,320.01 350.1,318.7 352.81,319.61 
				354.82,318.84 355.98,320.98 360.92,322.08 361.27,323.23 363.81,322.77 366.42,323.4 368.78,320.6 368.75,304.54 362.35,304.5 
				362.16,265.66 349.68,265.65 349.45,267.63 346.88,269.61 344.24,269.17 340.59,270.98 342.11,274.1 337.25,277.26 
				335.14,276.77 333.03,279.45 330.69,279.29 327.97,283.29 323.67,283.23 321.63,286.11 322.33,288.39 320.39,290.44 
				321.57,292.34 			"/>
			<polygon class="st3" points="321.38,294.89 325.1,294.52 324.3,298.04 327.1,301.33 326.54,304.4 328.13,305.72 328.91,313.47 
				330.31,316.6 329.13,319.8 337.09,323.76 338.07,325.26 341.38,326.91 344.14,325.18 345.74,320.01 350.1,318.7 352.81,319.61 
				354.82,318.84 355.98,320.98 360.92,322.08 361.27,323.23 363.81,322.77 366.42,323.4 368.77,320.6 368.75,304.54 362.35,304.5 
				362.16,265.66 349.69,265.65 349.45,267.63 346.88,269.61 344.24,269.17 340.59,270.98 342.11,274.11 337.25,277.26 
				335.14,276.77 333.03,279.45 330.69,279.29 327.97,283.29 323.67,283.23 321.63,286.11 322.33,288.39 320.39,290.44 
				321.57,292.34 			"/>
			<polygon class="st2" points="415.53,139.59 422.25,139.6 422.26,132.85 462.57,132.89 462.56,139.64 468.71,139.46 468.7,146.34 
				478.66,146.15 478.7,139.47 477.76,139.47 477.77,133.86 479.45,133.87 479.45,125.99 480.59,126 480.58,121.49 482.28,121.49 
				482.28,115.81 480.59,115.83 480.16,112.5 480.14,85.36 480.98,85.35 480.98,78.56 416.18,78.57 416.19,85.34 415.78,85.34 			
				"/>
			<polygon class="st3" points="415.53,139.59 422.25,139.6 422.26,132.85 462.57,132.89 462.56,139.64 468.71,139.46 468.7,146.34 
				478.66,146.15 478.7,139.47 477.76,139.47 477.77,133.86 479.45,133.87 479.45,125.99 480.59,126 480.58,121.49 482.28,121.49 
				482.28,115.81 480.59,115.83 480.16,112.5 480.14,85.36 480.98,85.35 480.98,78.56 416.18,78.57 416.19,85.34 415.78,85.34 			
				"/>
			<polygon class="st2" points="256.71,258.74 257.91,261.03 257.46,264.23 255.73,267.77 255.61,269.71 254.22,270.2 
				256.28,277.25 259.08,281.38 259.62,284.24 258.96,286.96 260.73,287.89 259.44,291.19 257.06,292.38 257.22,293.98 
				258.93,294.75 258.4,296.8 260.57,299.82 257.96,305.39 259.72,306.13 260.55,304.75 263.96,305.58 265.18,309.65 268.04,311.97 
				274.68,312.71 276.66,309.64 279.95,306.86 282.14,307.82 284.75,305.38 285.32,303.8 285.32,298.11 284.78,298.11 
				284.79,291.61 297.58,291.59 297.5,253.08 293.52,254.77 290.28,253.46 290.57,251.76 287.74,249.54 285.76,246.31 
				284.44,247.73 283.84,245.83 277.99,245.84 277.97,248.06 274.69,248.05 274.7,252.41 271.33,252.41 271.02,254.55 
				264.99,254.59 265.01,258.93 			"/>
			<polygon class="st3" points="256.71,258.74 257.91,261.03 257.46,264.23 255.73,267.77 255.61,269.71 254.22,270.2 
				256.28,277.25 259.08,281.38 259.62,284.24 258.96,286.96 260.73,287.89 259.44,291.19 257.06,292.38 257.22,293.98 
				258.93,294.75 258.4,296.8 260.57,299.82 257.96,305.39 259.72,306.13 260.55,304.75 263.96,305.58 265.18,309.65 268.04,311.98 
				274.68,312.71 276.66,309.64 279.95,306.86 282.14,307.82 284.75,305.38 285.32,303.8 285.32,298.11 284.78,298.11 
				284.79,291.61 297.58,291.59 297.5,253.08 293.52,254.77 290.28,253.46 290.57,251.76 287.74,249.54 285.76,246.31 
				284.44,247.73 283.84,245.83 277.99,245.84 277.97,248.06 274.69,248.05 274.7,252.41 271.33,252.4 271.02,254.55 264.99,254.59 
				265.01,258.93 			"/>
			<polygon class="st2" points="472.46,291.87 472.47,298.38 475.03,298.38 475.01,304.85 484.71,304.91 484.81,298.37 
				517.67,298.35 517.71,287.58 515.57,285.42 515.06,282.06 513.46,280.99 513.49,274.47 512.39,274.48 512.48,271.62 
				511.18,271.63 511.21,265.03 506.87,264.94 507.04,261.53 505.81,261.68 505.78,251.98 486.18,251.95 486.23,271.55 
				485.48,271.55 485.46,291.86 			"/>
			<polygon class="st3" points="472.46,291.87 472.47,298.38 475.03,298.38 475.01,304.85 484.71,304.91 484.81,298.37 
				517.67,298.35 517.71,287.58 515.57,285.42 515.06,282.06 513.46,280.99 513.49,274.47 512.39,274.48 512.48,271.62 
				511.18,271.63 511.21,265.03 506.87,264.94 507.03,261.53 505.81,261.68 505.78,251.98 486.18,251.95 486.23,271.55 
				485.48,271.55 485.46,291.86 			"/>
			<polygon class="st2" points="244.23,78.57 245.2,81.45 246.71,81.64 245.61,83.91 247.07,85.83 244.81,87.33 247.48,89.2 
				247.68,91.8 250.03,92.93 252.39,90.37 254.26,91.39 256,89.98 260.29,92.82 260.09,96.36 262.55,98.79 262.65,102.2 
				261.23,102.69 261.99,104.37 260.97,105.87 260.72,108.89 265.33,111.08 266.33,109.92 268.45,111.94 271.38,111 273.09,113.09 
				275.34,114.07 275.37,119.77 274.64,120.92 278.25,124.04 281.04,123.68 281.99,127.75 279.52,129.99 281.44,132.56 
				321.18,132.59 321.38,119.07 338.23,119.05 341.67,119.53 341.19,78.57 			"/>
			<polygon class="st3" points="244.23,78.57 245.2,81.45 246.71,81.64 245.61,83.91 247.07,85.83 244.81,87.32 247.48,89.2 
				247.68,91.8 250.03,92.93 252.39,90.37 254.26,91.39 256,89.98 260.29,92.82 260.09,96.36 262.55,98.79 262.66,102.2 
				261.23,102.69 261.99,104.37 260.97,105.87 260.72,108.89 265.33,111.08 266.33,109.92 268.45,111.94 271.38,111 273.09,113.09 
				275.34,114.07 275.37,119.77 274.64,120.92 278.25,124.04 281.04,123.68 281.99,127.75 279.52,129.99 281.44,132.56 
				321.18,132.59 321.38,119.07 338.23,119.05 341.67,119.53 341.19,78.57 			"/>
			<polygon class="st2" points="563.56,244.36 585.55,244.36 587.25,243.75 624.15,243.75 624.13,244.83 656.9,244.78 
				656.87,219.38 652.56,219.39 652.55,206.15 645.96,206.17 645.96,192.83 647.9,192.82 647.87,166.76 642.85,166.75 
				642.85,159.91 639.73,159.89 639.1,158.23 635.48,159.74 636.12,162.02 633.95,163.93 635.06,165.91 633.34,166.15 
				633.81,168.32 632.33,168.64 632.12,170.88 629.79,171.69 630.21,173.15 628.04,172.57 626.77,174.4 624.57,174.19 
				624.61,175.44 622.55,177.43 619.87,176.52 616.72,176.91 616.15,180.87 614.03,181.87 610.74,181.59 609.11,182.54 
				603.43,182.09 596.87,182.67 594.87,181.19 588.23,180.35 587.97,182.71 586.4,185.69 583.76,185.53 582.76,184.1 578.61,183.55 
				577.82,184.91 575.82,183.37 576.21,185.28 573.71,185.18 571.85,189.48 570.42,191.06 567.13,191.61 564.98,194.45 
				565.08,198.39 562.69,198.82 561.98,199.28 562.68,202.56 559.88,206.18 560.43,212.36 559.62,214.21 561.23,216.78 
				561.13,222.05 560.03,223.51 561.48,224.3 560.92,226.72 562.23,227.05 561.99,231.32 564.02,233.25 562.7,235.51 562.81,237.96 
				561.7,238.58 561.31,242.69 			"/>
			<polygon class="st3" points="563.56,244.36 585.55,244.36 587.25,243.75 624.15,243.75 624.13,244.83 656.9,244.78 
				656.87,219.38 652.56,219.39 652.55,206.15 645.96,206.17 645.96,192.83 647.9,192.82 647.87,166.76 642.85,166.75 
				642.85,159.91 639.73,159.89 639.1,158.23 635.48,159.74 636.12,162.02 633.95,163.93 635.06,165.91 633.34,166.15 
				633.81,168.32 632.33,168.64 632.12,170.88 629.79,171.69 630.21,173.15 628.04,172.57 626.77,174.4 624.57,174.19 
				624.61,175.44 622.55,177.43 619.87,176.52 616.72,176.91 616.15,180.87 614.03,181.87 610.74,181.59 609.11,182.54 
				603.43,182.09 596.87,182.68 594.87,181.19 588.23,180.35 587.97,182.71 586.4,185.69 583.76,185.53 582.76,184.1 578.61,183.55 
				577.82,184.91 575.82,183.37 576.21,185.28 573.71,185.18 571.85,189.48 570.42,191.06 567.13,191.61 564.98,194.46 
				565.08,198.39 562.69,198.82 561.98,199.28 562.68,202.56 559.88,206.18 560.43,212.36 559.62,214.21 561.23,216.78 
				561.13,222.05 560.03,223.51 561.48,224.3 560.92,226.72 562.23,227.05 561.99,231.32 564.02,233.25 562.7,235.51 562.81,237.96 
				561.7,238.58 561.31,242.69 			"/>
			<polygon class="st2" points="383.37,400.1 387.65,403.85 391.56,409.48 390.36,410.22 391.11,412.82 393.55,413.38 
				393.55,414.45 396.08,416.01 396.1,418.39 400.36,420.25 400.04,381.89 400.6,381.89 400.49,369.04 400.87,369.04 400.92,356.23 
				407.15,356.22 407.07,343.4 410.23,343.42 410.28,338.56 413.49,338.6 413.73,297.64 414.06,293.88 384.98,294.2 384.83,298.93 
				382.29,300.34 380.95,303.7 380.74,308.77 379.3,308.34 378.53,311.83 372.17,315.79 366.42,323.4 363.81,322.77 361.27,323.23 
				365.59,325.13 365.6,327.28 368.79,327.29 370.88,330.52 374.13,332.62 375.15,334.77 384.73,334.79 384.79,356.28 
				383.61,356.27 			"/>
			<polygon class="st3" points="383.37,400.1 387.65,403.85 391.56,409.48 390.36,410.22 391.11,412.82 393.55,413.38 
				393.55,414.45 396.08,416.01 396.1,418.39 400.36,420.26 400.04,381.89 400.6,381.89 400.49,369.05 400.87,369.04 400.92,356.23 
				407.15,356.22 407.07,343.4 410.23,343.42 410.28,338.56 413.49,338.6 413.73,297.64 414.06,293.88 384.98,294.2 384.83,298.93 
				382.29,300.34 380.95,303.71 380.74,308.77 379.3,308.34 378.53,311.83 372.17,315.79 366.42,323.4 363.81,322.77 361.27,323.23 
				365.59,325.13 365.6,327.28 368.79,327.29 370.88,330.52 374.13,332.62 375.15,334.77 384.73,334.79 384.79,356.28 
				383.61,356.27 			"/>
			<polygon class="st2" points="216.57,172.81 223.14,172.81 223.13,166.21 222.37,166.2 222.37,159.54 245.82,159.49 
				243.76,154.78 245.22,154.82 246.35,152.59 253.71,152.65 255.98,158.28 257.94,158.15 260.84,160.23 262.34,163.01 
				263.38,163.02 265.11,165.65 264.92,171.04 264.29,172.43 266.06,175.1 265.18,176.2 266.4,178.17 268.28,178.06 268.58,180.95 
				267.32,182.88 266.73,187.39 292.01,187.66 292.51,182.53 290.93,178.12 292.36,176.18 295.32,175.88 296.32,172.93 
				295.92,169.77 296.23,165.43 294.72,164.62 295.02,162.92 298.42,162.17 300.3,160.15 304.06,160.72 305.78,158.47 
				304.31,154.37 302.26,154.17 302.75,151.92 299.86,149.01 300.37,147.47 298.63,146.35 296.97,147.22 295.97,145.14 
				292.52,145.89 289.63,143 287.54,143.39 287.26,137.45 284.55,136.07 284.09,134.54 281.44,132.56 279.52,129.99 281.99,127.75 
				281.04,123.68 278.25,124.04 274.64,120.92 275.37,119.77 275.34,114.07 273.09,113.09 271.38,111 268.45,111.94 266.33,109.92 
				265.33,111.08 260.72,108.89 260.97,105.87 261.99,104.37 261.23,102.69 262.65,102.2 262.55,98.79 260.09,96.36 260.29,92.82 
				256,89.98 254.26,91.39 252.39,90.37 250.03,92.93 247.68,91.8 247.48,89.2 244.81,87.33 247.07,85.83 245.61,83.91 
				246.71,81.64 245.2,81.45 244.23,78.57 210.09,78.57 209.85,79.97 212.41,80.67 210.66,83.4 212.05,91 209.94,93.59 
				214.32,95.96 215.8,98.82 212.71,100.24 212.01,103.68 214.78,105.36 201.87,105.4 201.91,112.04 203.88,112.04 203.98,139.09 
				195.07,139.1 195.03,145.83 195.53,145.83 195.56,155.24 196.67,156.36 196.65,166.41 216.56,166.2 			"/>
			<polygon class="st3" points="216.57,172.81 223.14,172.81 223.13,166.21 222.37,166.2 222.37,159.54 245.82,159.49 
				243.76,154.78 245.22,154.82 246.34,152.59 253.71,152.65 255.98,158.28 257.94,158.15 260.84,160.23 262.34,163.01 
				263.38,163.02 265.11,165.65 264.92,171.04 264.29,172.43 266.06,175.1 265.18,176.2 266.4,178.17 268.28,178.06 268.58,180.96 
				267.32,182.88 266.73,187.39 292.01,187.66 292.51,182.53 290.93,178.12 292.36,176.18 295.32,175.88 296.32,172.93 
				295.92,169.77 296.23,165.43 294.72,164.62 295.02,162.92 298.42,162.17 300.3,160.15 304.06,160.72 305.78,158.47 
				304.31,154.37 302.26,154.17 302.76,151.92 299.86,149.01 300.37,147.47 298.63,146.35 296.96,147.23 295.97,145.14 
				292.52,145.89 289.63,143 287.54,143.39 287.26,137.45 284.55,136.07 284.09,134.54 281.44,132.56 279.52,129.99 281.99,127.75 
				281.04,123.68 278.25,124.04 274.64,120.92 275.37,119.77 275.34,114.07 273.09,113.09 271.38,111 268.45,111.94 266.33,109.92 
				265.33,111.08 260.72,108.89 260.97,105.87 261.99,104.37 261.23,102.69 262.66,102.2 262.55,98.79 260.09,96.36 260.29,92.82 
				256,89.98 254.26,91.39 252.39,90.37 250.03,92.93 247.68,91.8 247.48,89.2 244.81,87.32 247.07,85.83 245.61,83.91 
				246.71,81.64 245.2,81.45 244.23,78.57 210.09,78.57 209.85,79.97 212.41,80.67 210.66,83.4 212.05,91 209.94,93.59 
				214.32,95.96 215.8,98.82 212.71,100.25 212.01,103.68 214.78,105.36 201.87,105.4 201.91,112.04 203.88,112.04 203.98,139.09 
				195.07,139.1 195.03,145.83 195.53,145.83 195.56,155.24 196.67,156.36 196.65,166.41 216.56,166.2 			"/>
			<polygon class="st2" points="467.74,256.27 486.17,256.27 486.18,251.95 525.36,252.07 525.39,245.49 526.4,245.48 526.52,225.7 
				519.9,225.67 519.91,219.13 520.86,219.13 520.8,212.58 527.45,212.57 527.43,209.84 540.59,209.72 541.7,209.18 541.82,188.65 
				539.91,189.95 534.36,186.18 533.45,187.51 530.57,186.13 528.39,186.66 526.39,185.52 523.27,185.88 520.44,183.59 
				518.09,183.89 517.45,181.09 515.38,178.92 511.92,177.07 509.19,177.47 510.4,175.37 509.25,172.65 506.25,171.78 
				502.88,171.94 499.42,173.48 496.45,172.72 492.11,172.54 490.12,175.22 484.3,178.16 476.32,176.04 470.56,177.51 
				468.93,179.51 463.4,178.48 462.84,181.8 463.31,183.73 462.19,188.27 462.65,191.11 456.12,196.01 453.05,196.76 450.51,198.98 
				446.32,201.4 443.56,201.41 443.56,205.81 447.97,205.82 447.98,212.45 454.57,212.44 454.58,215.73 461.19,215.73 
				461.19,219.04 467.16,219.03 467.23,240.98 465.34,242.08 465,245.93 463.09,245.91 463.37,248.09 465,248.1 465.56,249.75 
				467.19,249.73 			"/>
			<polygon class="st3" points="467.74,256.27 486.17,256.27 486.18,251.95 525.36,252.07 525.39,245.49 526.4,245.48 526.52,225.7 
				519.9,225.67 519.91,219.13 520.86,219.13 520.8,212.58 527.45,212.57 527.43,209.84 540.59,209.72 541.7,209.18 541.82,188.65 
				539.91,189.95 534.36,186.18 533.45,187.51 530.57,186.13 528.39,186.66 526.39,185.52 523.27,185.88 520.44,183.59 
				518.09,183.9 517.45,181.09 515.38,178.92 511.92,177.07 509.19,177.47 510.4,175.37 509.25,172.65 506.25,171.78 502.88,171.94 
				499.42,173.48 496.45,172.72 492.11,172.55 490.12,175.22 484.3,178.16 476.32,176.04 470.56,177.51 468.93,179.51 463.4,178.48 
				462.84,181.8 463.31,183.73 462.19,188.27 462.65,191.11 456.12,196.01 453.05,196.76 450.51,198.98 446.32,201.4 443.56,201.41 
				443.56,205.81 447.97,205.82 447.98,212.45 454.57,212.44 454.58,215.73 461.19,215.73 461.19,219.04 467.16,219.03 
				467.23,240.98 465.34,242.08 465,245.93 463.09,245.91 463.37,248.1 465,248.1 465.56,249.75 467.19,249.73 			"/>
			<polygon class="st2" points="718.97,298.04 738.1,298.07 738.07,304.16 744.59,304.13 744.55,310.44 757.8,310.54 757.8,317 
				762.49,317 762.42,260.21 746.47,260.21 746.44,258.02 743.17,258.03 743.16,256.94 733.38,256.94 733.38,259.12 726.88,259.09 
				726.86,272.18 717.93,272.18 717.96,284.83 718.99,284.84 			"/>
			<polygon class="st3" points="718.97,298.04 738.1,298.07 738.07,304.16 744.59,304.13 744.55,310.44 757.8,310.54 757.8,317 
				762.49,317 762.42,260.21 746.47,260.21 746.44,258.02 743.17,258.03 743.16,256.94 733.38,256.94 733.38,259.12 726.88,259.09 
				726.86,272.18 717.93,272.18 717.96,284.83 718.99,284.84 			"/>
			<polygon class="st2" points="272.75,312.69 273.92,313.02 277.31,320.78 277.02,322.57 279.01,325.48 280.74,326.19 
				281.52,322.81 285.27,321.75 287.68,318.15 290.21,316.78 294.32,317.04 295.08,318.59 298.31,317.67 303.45,313.02 
				302.66,308.78 305.49,308.37 307.15,304.62 311.03,304.62 311,298.11 316,298.12 318.06,295.17 319.4,295.88 321.38,294.89 
				321.57,292.34 320.39,290.44 322.33,288.39 297.6,288.32 297.58,291.59 284.79,291.61 284.78,298.11 285.32,298.11 285.32,303.8 
				284.75,305.38 282.14,307.82 279.95,306.86 276.66,309.64 274.68,312.71 			"/>
			<polygon class="st3" points="272.75,312.69 273.92,313.02 277.31,320.78 277.02,322.57 279.01,325.48 280.74,326.19 
				281.52,322.81 285.27,321.75 287.68,318.15 290.21,316.78 294.32,317.04 295.08,318.59 298.31,317.67 303.45,313.02 
				302.66,308.78 305.49,308.37 307.15,304.62 311.03,304.62 311,298.11 316,298.12 318.06,295.17 319.4,295.88 321.38,294.89 
				321.57,292.34 320.39,290.44 322.33,288.39 297.6,288.32 297.58,291.59 284.79,291.61 284.78,298.11 285.32,298.11 285.32,303.8 
				284.75,305.38 282.14,307.82 279.95,306.86 276.66,309.64 274.68,312.71 			"/>
			<polygon class="st2" points="733.55,243.65 739.1,243.65 742.36,241.47 744.01,238.19 745.68,237.11 747.83,232.68 
				747.84,229.94 748.96,229.91 748.96,222.74 748.43,219.42 747.09,216.67 747.1,214.46 745.37,213.37 744.75,211.16 
				741.42,208.91 743.03,206.15 738.23,206.15 738.25,192.8 734.07,192.82 734.08,186.16 714.18,186.13 714.2,179.45 700.92,179.43 
				700.94,172.73 694.3,172.76 694.28,192.79 692.05,192.81 692.07,219.33 696.28,219.35 696.27,234.85 702.9,234.85 702.89,239.24 
				709.47,239.25 711.64,241.4 711.64,243.61 			"/>
			<polygon class="st3" points="733.55,243.65 739.1,243.65 742.36,241.47 744.01,238.19 745.68,237.11 747.83,232.68 
				747.84,229.94 748.96,229.91 748.96,222.74 748.43,219.42 747.09,216.67 747.1,214.46 745.37,213.37 744.75,211.16 
				741.42,208.91 743.03,206.15 738.23,206.15 738.25,192.8 734.07,192.82 734.08,186.16 714.18,186.13 714.2,179.45 700.92,179.44 
				700.94,172.73 694.3,172.76 694.28,192.79 692.05,192.81 692.07,219.33 696.28,219.35 696.27,234.85 702.9,234.85 702.89,239.24 
				709.47,239.25 711.64,241.4 711.64,243.61 			"/>
			<polygon class="st2" points="655.58,78.58 655.58,85.6 653.53,85.62 653.52,92.43 660.26,92.43 660.27,112.85 714.44,112.85 
				714.45,106.06 711.07,106.05 711.09,85.62 710.08,85.61 710.09,78.56 			"/>
			<polygon class="st3" points="655.58,78.58 655.58,85.6 653.53,85.62 653.52,92.43 660.26,92.43 660.27,112.85 714.44,112.85 
				714.45,106.06 711.07,106.05 711.09,85.62 710.08,85.61 710.09,78.56 			"/>
			<polygon class="st2" points="714,324.05 716.21,324.05 716.2,298.05 718.97,298.04 718.99,284.84 717.96,284.83 717.93,272.18 
				726.86,272.18 726.87,262.37 720.37,262.39 720.36,265.65 713.85,265.62 713.86,267.8 700.69,267.77 700.7,265.58 689.86,265.52 
				689.86,263.32 687.64,263.31 687.63,258.96 683.3,258.97 683.27,252.41 681.11,252.41 681.14,245.83 670.01,245.84 
				670.01,243.68 656.89,243.7 656.9,244.78 655.12,245.89 655.15,272.08 653.34,272.08 653.45,298 651.48,298.02 651.45,323.93 			
				"/>
			<polygon class="st3" points="714,324.05 716.21,324.05 716.2,298.05 718.97,298.04 718.99,284.84 717.96,284.83 717.93,272.18 
				726.86,272.18 726.87,262.37 720.37,262.39 720.36,265.65 713.85,265.62 713.86,267.8 700.69,267.77 700.7,265.58 689.86,265.52 
				689.86,263.32 687.64,263.31 687.63,258.96 683.3,258.97 683.27,252.41 681.11,252.4 681.14,245.83 670.01,245.84 670.01,243.68 
				656.89,243.7 656.9,244.78 655.12,245.89 655.15,272.08 653.34,272.08 653.45,298 651.48,298.02 651.45,323.93 			"/>
			<polygon class="st2" points="381.75,146.38 381.76,179.85 404.11,179.82 402.04,183.16 400.32,187.51 405.46,190.92 
				409.77,192.13 409.92,193.12 414.85,193.15 414.83,199.17 421.45,199.16 421.52,201.44 446.32,201.4 450.51,198.98 
				453.05,196.76 456.12,196.01 462.65,191.11 462.19,188.27 463.31,183.73 462.84,181.8 463.4,178.48 468.93,179.51 470.56,177.51 
				476.32,176.04 478.45,176.72 478.66,146.15 468.7,146.34 468.71,139.46 462.56,139.64 462.57,132.89 422.26,132.85 422.25,139.6 
				411.84,139.59 411.83,146.3 			"/>
			<polygon class="st3" points="381.75,146.38 381.76,179.85 404.11,179.82 402.04,183.17 400.32,187.51 405.46,190.92 
				409.77,192.13 409.92,193.12 414.85,193.15 414.82,199.17 421.45,199.16 421.52,201.44 446.32,201.4 450.51,198.98 
				453.05,196.76 456.12,196.01 462.65,191.11 462.19,188.27 463.31,183.73 462.84,181.8 463.4,178.48 468.93,179.51 470.56,177.51 
				476.32,176.04 478.45,176.72 478.66,146.15 468.7,146.34 468.71,139.46 462.56,139.64 462.57,132.89 422.26,132.85 422.25,139.6 
				411.84,139.59 411.83,146.3 			"/>
			<polygon class="st2" points="368.87,239.68 375.01,239.68 375.02,233.09 388.15,233.06 388.15,232.24 394.7,232.25 394.7,226.43 
				398.71,226.44 398.94,229.72 397.57,230.91 399.21,232.71 403.09,232.74 407.38,234.57 410.28,238.96 413,240.57 415.25,240.67 
				415.73,244.88 418.56,244.87 420.84,246.47 421.7,245.44 421.23,225.86 414.67,225.85 414.96,215.32 413.85,214.14 
				413.84,209.74 414.94,210.51 414.93,205.81 421.54,205.82 421.45,199.16 414.83,199.17 414.85,193.15 409.92,193.12 
				409.77,192.13 405.46,190.92 400.32,187.51 402.04,183.16 404.11,179.82 368.42,179.87 368.42,186.53 355.19,186.51 
				355.2,194.68 348.75,193.82 348.88,218.49 352.35,219.14 353.05,221.06 355.34,222.85 362.09,223.33 362.05,239.64 			"/>
			<polygon class="st3" points="368.87,239.68 375.01,239.68 375.03,233.09 388.15,233.06 388.15,232.24 394.7,232.25 394.7,226.43 
				398.71,226.44 398.94,229.72 397.57,230.91 399.21,232.71 403.09,232.74 407.38,234.57 410.28,238.96 413,240.57 415.25,240.67 
				415.73,244.88 418.56,244.87 420.84,246.47 421.7,245.44 421.23,225.86 414.67,225.85 414.96,215.31 413.85,214.14 
				413.84,209.74 414.94,210.51 414.93,205.81 421.54,205.82 421.45,199.16 414.82,199.17 414.85,193.15 409.92,193.12 
				409.77,192.13 405.46,190.92 400.32,187.51 402.04,183.17 404.11,179.82 368.42,179.87 368.42,186.53 355.19,186.51 
				355.21,194.68 348.75,193.82 348.88,218.49 352.35,219.14 353.05,221.06 355.34,222.85 362.09,223.33 362.05,239.64 			"/>
			<polygon class="st2" points="711.08,381.96 762.69,381.98 762.49,317 757.8,317 757.8,310.54 744.55,310.44 744.59,304.13 
				738.07,304.16 738.1,298.07 716.2,298.05 716.21,324.05 714,324.05 714.03,349.5 713.73,356.17 711.09,356.16 			"/>
			<polygon class="st3" points="711.08,381.96 762.69,381.98 762.49,317 757.8,317 757.8,310.54 744.55,310.44 744.59,304.13 
				738.07,304.16 738.1,298.07 716.2,298.05 716.21,324.05 714,324.05 714.03,349.5 713.73,356.17 711.09,356.16 			"/>
			<polygon class="st2" points="465,381.82 500.94,381.55 501.99,382.01 545.09,382.02 544.7,381.51 546.74,375.1 548.23,374.64 
				549.01,370.52 550.97,368.36 551.36,366.02 552.9,365.84 521.81,366.01 521.8,356.37 522.72,350.2 524.64,347.91 521.89,347.91 
				521.84,343.61 518.67,343.57 518.68,341.44 516.54,341.42 516.5,338.82 517.55,335.02 514.42,337.07 509.69,337.63 
				508.02,336.76 505.61,337.35 502.74,339.13 499.66,338.83 499.64,343.56 496.38,343.56 496.38,347.9 487.87,347.89 
				487.87,348.96 484.66,348.98 483.62,351.11 481.49,351.11 479.36,354.3 477.23,355.37 474.81,359.65 474.82,362.84 
				470.59,362.84 470.56,369.74 465.02,369.73 			"/>
			<polygon class="st3" points="465,381.82 500.94,381.55 501.99,382.01 545.09,382.02 544.7,381.51 546.74,375.1 548.23,374.64 
				549.01,370.52 550.97,368.36 551.36,366.02 552.9,365.84 521.81,366.01 521.8,356.37 522.72,350.2 524.64,347.91 521.89,347.91 
				521.84,343.61 518.67,343.57 518.68,341.44 516.54,341.42 516.5,338.82 517.55,335.02 514.42,337.07 509.69,337.63 
				508.02,336.76 505.61,337.35 502.74,339.13 499.66,338.83 499.64,343.56 496.38,343.56 496.38,347.9 487.87,347.89 
				487.87,348.96 484.66,348.98 483.62,351.11 481.49,351.11 479.36,354.3 477.23,355.37 474.81,359.65 474.82,362.84 
				470.59,362.84 470.56,369.74 465.02,369.73 			"/>
			<polygon class="st2" points="368.78,320.6 372.17,315.79 378.53,311.83 379.3,308.34 380.74,308.77 380.95,303.7 382.29,300.34 
				384.83,298.93 384.98,294.2 394.62,294.21 399.66,293.85 398.86,289.69 396.32,287.8 396.79,284.57 399.37,281.83 399.62,277.61 
				396.36,275.25 393.87,274.89 391.12,276.2 389.95,275.06 389.62,270.99 387.81,268.78 385.06,267.4 385.81,260.8 381.56,259.8 
				380.91,257.21 379.68,257.21 379.36,252.59 377.15,251.09 373.85,250.78 372.56,249.62 369.85,252.92 369.81,264.65 
				370.24,265.65 362.16,265.66 362.35,304.5 368.75,304.54 			"/>
			<polygon class="st3" points="368.77,320.6 372.17,315.79 378.53,311.83 379.3,308.34 380.74,308.77 380.95,303.71 382.29,300.34 
				384.83,298.93 384.98,294.2 394.62,294.21 399.66,293.85 398.86,289.69 396.32,287.8 396.79,284.57 399.37,281.83 399.62,277.61 
				396.36,275.25 393.87,274.89 391.12,276.2 389.95,275.06 389.62,270.99 387.81,268.78 385.06,267.4 385.81,260.8 381.56,259.8 
				380.91,257.22 379.68,257.22 379.36,252.59 377.15,251.09 373.85,250.78 372.56,249.62 369.85,252.92 369.81,264.65 
				370.24,265.65 362.16,265.66 362.35,304.5 368.75,304.54 			"/>
			<polygon class="st2" points="478.45,176.72 484.3,178.16 490.12,175.22 492.11,172.54 496.45,172.72 499.42,173.48 
				502.88,171.94 506.25,171.78 509.25,172.65 510.4,175.37 509.19,177.47 511.92,177.07 512.07,162.57 525.63,162.71 
				526.55,157.29 528.53,158.02 535.54,158.41 535.55,139.61 536.71,139.61 536.72,122.08 540.06,123.4 540.08,112.44 541.5,112.44 
				541.48,98.83 544.58,98.84 544.57,85.38 545.77,85.39 545.75,78.58 480.98,78.56 480.98,85.35 480.14,85.36 480.16,112.5 
				480.59,115.83 482.28,115.81 482.28,121.49 480.58,121.49 480.59,126 479.45,125.99 479.45,133.87 477.77,133.86 477.76,139.47 
				478.7,139.47 			"/>
			<polygon class="st3" points="478.45,176.72 484.3,178.16 490.12,175.22 492.11,172.55 496.45,172.72 499.42,173.48 
				502.88,171.94 506.25,171.78 509.25,172.65 510.4,175.37 509.19,177.47 511.92,177.07 512.06,162.57 525.63,162.71 
				526.55,157.29 528.53,158.02 535.54,158.41 535.55,139.61 536.71,139.61 536.72,122.08 540.06,123.4 540.08,112.44 541.5,112.44 
				541.48,98.83 544.58,98.84 544.57,85.38 545.77,85.39 545.75,78.58 480.98,78.56 480.98,85.35 480.14,85.36 480.16,112.5 
				480.59,115.83 482.28,115.81 482.28,121.49 480.58,121.49 480.59,126 479.45,125.99 479.45,133.87 477.77,133.86 477.76,139.47 
				478.7,139.47 			"/>
			<polygon class="st2" points="545.09,382.02 595.06,381.89 605.29,382.23 647.74,382.44 647.74,368.82 634.36,369.14 
				621.67,368.82 621.64,356.1 623.65,356.19 623.65,332.49 614.17,331.67 614.2,323.96 616.04,323.95 616.02,320.73 612.83,320.73 
				612.82,317.88 606.98,317.88 607,314.63 600.56,314.67 600.56,311.44 587.71,311.44 587.71,304.99 574.82,304.98 574.81,309.29 
				568.42,309.29 568.42,311.45 566.25,311.44 566.25,313.56 564.11,313.58 564.1,315.73 555.53,315.71 555.53,324.31 554.41,324.3 
				554.38,343.93 548,343.91 547.99,346.05 541.63,346.04 541.62,348.18 524.64,347.91 522.72,350.2 521.8,356.37 521.81,366.01 
				552.9,365.84 551.36,366.02 550.97,368.36 549.01,370.52 548.23,374.64 546.74,375.1 544.7,381.51 			"/>
			<polygon class="st3" points="545.09,382.02 595.06,381.9 605.29,382.23 647.74,382.44 647.74,368.82 634.36,369.14 
				621.67,368.82 621.64,356.1 623.65,356.19 623.65,332.49 614.17,331.67 614.2,323.96 616.04,323.95 616.02,320.73 612.83,320.73 
				612.82,317.88 606.98,317.88 607,314.64 600.56,314.67 600.56,311.44 587.71,311.44 587.71,304.99 574.82,304.98 574.81,309.29 
				568.42,309.29 568.42,311.45 566.25,311.44 566.25,313.56 564.11,313.58 564.1,315.73 555.53,315.71 555.53,324.31 554.41,324.3 
				554.38,343.93 548,343.91 547.99,346.05 541.63,346.04 541.62,348.18 524.64,347.91 522.72,350.2 521.8,356.37 521.81,366.01 
				552.9,365.84 551.36,366.02 550.97,368.36 549.01,370.52 548.23,374.64 546.74,375.1 544.7,381.51 			"/>
			<polygon class="st2" points="309.13,427.29 307.95,423.73 310.81,419.47 314.09,418.07 316.85,419.36 322.8,419.49 
				325.34,421.05 326.74,419.83 331.2,422.18 332.26,420.74 333.01,415.63 334.7,415.54 336.4,413.41 339.37,413.74 339.74,415.22 
				341.69,415.98 344.14,415.49 346.22,416.7 349.51,415 352.3,415.78 353.89,414.26 358.12,413.82 360.43,417.7 366.49,414.01 
				370.98,414.69 374.56,414.22 376.26,415.7 378.7,415.49 378.63,414.2 376.58,413.8 375.71,410.77 378.66,405.36 378.45,403.19 
				362.48,403.22 362.48,397.95 347.79,397.76 347.8,394.68 342.56,394.63 342.57,388.37 341.35,388.35 341.32,381.95 
				333.92,381.94 333.94,375.51 327.58,375.5 327.54,356.32 327.21,353.11 325.08,349.46 323.33,349.22 321.33,350.44 
				318.73,349.65 315.44,346.48 314.76,342.82 315.34,342.02 315.7,336.02 314.87,332.17 312.55,330.53 311.94,326.93 
				308.55,324.93 304.47,324.54 303.2,322.93 300.07,322.44 295.08,318.59 294.32,317.04 290.21,316.78 287.68,318.15 
				285.27,321.75 281.52,322.81 280.74,326.19 279.01,325.48 277.02,322.57 277.31,320.78 273.92,313.02 272.81,312.79 
				271.84,314.69 271.98,317.26 269.58,317.66 268.89,319.36 265,320.46 263.44,319.86 259.02,323.82 257.93,325.85 255.61,326.61 
				254.51,324.45 252.19,327.16 252.4,330.57 251.01,330.81 252.74,336.07 254.93,336.13 257.8,337.73 256.36,343.74 259.9,343.75 
				260.21,346.74 258.96,348.59 260.12,350.9 259.49,352.14 261.54,353.2 261.32,357.81 264.41,361.75 263.69,362.62 266.58,366.38 
				268.87,368.46 269.02,370.61 270.75,373.55 272.97,373.55 272.62,375.18 274.44,377.35 276.14,377.65 276.56,384.91 
				273.95,385.74 275.98,391.81 277.68,393.82 280,394.04 281.9,397.69 286.73,394.9 290.23,397.52 292.73,398.59 292.54,400.02 
				294.23,401.75 294.43,404.04 296,405.35 296.57,409.77 294.96,411.18 297.45,413.53 297.15,415.19 299.14,416.5 298.1,418.69 
				299.32,421.94 302.03,424.41 304.61,425.71 307.52,428.64 			"/>
			<polygon class="st3" points="309.13,427.29 307.95,423.73 310.81,419.47 314.09,418.07 316.85,419.36 322.8,419.49 
				325.34,421.05 326.74,419.83 331.2,422.18 332.26,420.74 333.01,415.63 334.7,415.54 336.4,413.41 339.37,413.74 339.74,415.23 
				341.69,415.98 344.14,415.49 346.22,416.7 349.51,415 352.3,415.77 353.89,414.26 358.12,413.82 360.43,417.7 366.49,414.01 
				370.98,414.69 374.56,414.22 376.26,415.69 378.7,415.49 378.63,414.2 376.58,413.8 375.71,410.77 378.66,405.36 378.45,403.19 
				362.48,403.22 362.48,397.95 347.79,397.76 347.8,394.68 342.56,394.63 342.57,388.37 341.35,388.35 341.32,381.95 
				333.92,381.94 333.94,375.51 327.58,375.5 327.54,356.31 327.21,353.11 325.08,349.46 323.33,349.22 321.33,350.44 
				318.73,349.65 315.44,346.48 314.76,342.82 315.34,342.02 315.7,336.02 314.87,332.17 312.55,330.53 311.94,326.93 
				308.55,324.93 304.47,324.54 303.2,322.93 300.07,322.44 295.08,318.59 294.32,317.04 290.21,316.78 287.68,318.15 
				285.27,321.75 281.52,322.81 280.74,326.19 279.01,325.48 277.02,322.57 277.31,320.78 273.92,313.02 272.81,312.79 
				271.84,314.69 271.98,317.26 269.58,317.66 268.89,319.36 265,320.46 263.44,319.86 259.02,323.81 257.93,325.85 255.61,326.61 
				254.51,324.45 252.19,327.16 252.4,330.57 251.01,330.81 252.74,336.07 254.93,336.13 257.8,337.73 256.36,343.74 259.9,343.75 
				260.21,346.74 258.96,348.59 260.12,350.9 259.49,352.14 261.54,353.2 261.32,357.81 264.41,361.75 263.69,362.62 266.58,366.38 
				268.87,368.46 269.02,370.61 270.75,373.55 272.97,373.55 272.62,375.18 274.44,377.35 276.14,377.65 276.56,384.91 
				273.95,385.74 275.98,391.81 277.68,393.82 280,394.04 281.9,397.69 286.73,394.9 290.23,397.52 292.73,398.59 292.54,400.02 
				294.23,401.75 294.43,404.04 296,405.35 296.57,409.77 294.96,411.18 297.45,413.54 297.15,415.19 299.14,416.5 298.1,418.69 
				299.32,421.94 302.03,424.41 304.61,425.71 307.52,428.64 			"/>
		</g>
	</g>
	<circle class="st4" cx="534.95" cy="325.61" r="9.02"/>
	<circle class="st5" cx="350.05" cy="264.39" r="29.28"/>
	<circle class="st4" cx="350.05" cy="264.39" r="9.02"/>
</g>
<g>
	<path class="st6" d="M59.29,364.5h5.24l4.64,12.8c0.56,1.64,1.12,3.4,1.68,5.12h0.16c0.56-1.72,1.08-3.48,1.64-5.12l4.52-12.8h5.28
		v26.16h-4.28V378.7c0-2.44,0.36-5.92,0.6-8.32H78.6l-2.12,6.08l-4.28,11.76h-2.76l-4.32-11.76l-2.08-6.08h-0.16
		c0.2,2.4,0.6,5.88,0.6,8.32v11.96h-4.2V364.5z"/>
	<path class="st6" d="M87.41,380.86c0-6.56,4.44-10.32,9.32-10.32c4.92,0,9.36,3.76,9.36,10.32c0,6.52-4.44,10.28-9.36,10.28
		C91.85,391.14,87.41,387.38,87.41,380.86z M101.37,380.86c0-3.96-1.76-6.56-4.64-6.56c-2.88,0-4.6,2.6-4.6,6.56
		c0,3.92,1.72,6.52,4.6,6.52C99.61,387.38,101.37,384.78,101.37,380.86z"/>
	<path class="st6" d="M110.65,371.02h3.8l0.32,2.64h0.16c1.76-1.72,3.76-3.12,6.44-3.12c4.2,0,6.04,2.84,6.04,7.8v12.32h-4.6v-11.72
		c0-3.24-0.92-4.44-3.08-4.44c-1.72,0-2.84,0.84-4.48,2.44v13.72h-4.6V371.02z"/>
	<path class="st6" d="M133.73,384.02v-9.36h-2.8v-3.44l3.04-0.2l0.56-5.36h3.84v5.36h5v3.64h-5v9.36c0,2.32,0.88,3.44,2.76,3.44
		c0.68,0,1.48-0.2,2.04-0.44l0.8,3.4c-1.08,0.36-2.44,0.72-4,0.72C135.41,391.14,133.73,388.26,133.73,384.02z"/>
	<path class="st6" d="M145.61,385.38c0-4.2,3.48-6.4,11.56-7.28c-0.08-2.08-0.92-3.84-3.6-3.84c-1.92,0-3.76,0.88-5.52,1.92
		l-1.68-3.08c2.16-1.36,4.96-2.56,8.08-2.56c4.88,0,7.32,3,7.32,8.48v11.64h-3.8l-0.32-2.16h-0.16c-1.76,1.48-3.76,2.64-6.08,2.64
		C147.97,391.14,145.61,388.82,145.61,385.38z M157.17,385.38v-4.4c-5.36,0.68-7.12,2.08-7.12,4.04c0,1.76,1.2,2.52,2.84,2.52
		C154.49,387.54,155.69,386.74,157.17,385.38z"/>
	<path class="st6" d="M167.29,371.02h3.8l0.32,2.64h0.16c1.76-1.72,3.76-3.12,6.44-3.12c4.2,0,6.04,2.84,6.04,7.8v12.32h-4.6v-11.72
		c0-3.24-0.92-4.44-3.08-4.44c-1.72,0-2.84,0.84-4.48,2.44v13.72h-4.6V371.02z"/>
	<path class="st6" d="M188.65,385.38c0-4.2,3.48-6.4,11.56-7.28c-0.08-2.08-0.92-3.84-3.6-3.84c-1.92,0-3.76,0.88-5.52,1.92
		l-1.68-3.08c2.16-1.36,4.96-2.56,8.08-2.56c4.88,0,7.32,3,7.32,8.48v11.64h-3.8l-0.32-2.16h-0.16c-1.76,1.48-3.76,2.64-6.08,2.64
		C191.01,391.14,188.65,388.82,188.65,385.38z M200.21,385.38v-4.4c-5.36,0.68-7.12,2.08-7.12,4.04c0,1.76,1.2,2.52,2.84,2.52
		C197.53,387.54,198.73,386.74,200.21,385.38z"/>
	<path class="st6" d="M96.4,403.76h4.2c4.8,0,7.63,2.59,7.63,7.78c0,5.21-2.83,7.92-7.49,7.92H96.4V403.76z M100.41,417.2
		c3.17,0,4.97-1.8,4.97-5.66c0-3.84-1.8-5.52-4.97-5.52h-1.22v11.18H100.41z"/>
	<path class="st6" d="M110.85,404.05c0-0.94,0.72-1.58,1.7-1.58c0.98,0,1.7,0.65,1.7,1.58c0,0.91-0.72,1.56-1.7,1.56
		C111.57,405.61,110.85,404.96,110.85,404.05z M111.16,407.67h2.76v11.79h-2.76V407.67z"/>
	<path class="st6" d="M116.27,418.12l1.3-1.78c1.06,0.82,2.06,1.32,3.26,1.32c1.27,0,1.87-0.6,1.87-1.42c0-0.98-1.27-1.42-2.52-1.9
		c-1.56-0.58-3.31-1.46-3.31-3.43c0-2.06,1.66-3.53,4.3-3.53c1.63,0,2.95,0.67,3.91,1.42l-1.27,1.68c-0.82-0.6-1.66-1.01-2.59-1.01
		c-1.18,0-1.73,0.55-1.73,1.3c0,0.94,1.18,1.3,2.45,1.75c1.61,0.6,3.38,1.37,3.38,3.58c0,2.02-1.61,3.65-4.58,3.65
		C119.13,419.75,117.42,419.05,116.27,418.12z"/>
	<path class="st6" d="M127.72,415.48v-5.62h-1.68v-2.06l1.82-0.12l0.34-3.22h2.3v3.22h3v2.18h-3v5.62c0,1.39,0.53,2.06,1.66,2.06
		c0.41,0,0.89-0.12,1.22-0.26l0.48,2.04c-0.65,0.22-1.46,0.43-2.4,0.43C128.73,419.75,127.72,418.02,127.72,415.48z"/>
	<path class="st6" d="M135.97,407.67h2.28l0.19,2.09h0.1c0.84-1.54,2.09-2.38,3.34-2.38c0.6,0,0.98,0.07,1.34,0.24l-0.48,2.4
		c-0.41-0.12-0.72-0.19-1.22-0.19c-0.94,0-2.06,0.65-2.78,2.42v7.2h-2.76V407.67z"/>
	<path class="st6" d="M144.61,404.05c0-0.94,0.72-1.58,1.7-1.58c0.98,0,1.7,0.65,1.7,1.58c0,0.91-0.72,1.56-1.7,1.56
		C145.33,405.61,144.61,404.96,144.61,404.05z M144.93,407.67h2.76v11.79h-2.76V407.67z"/>
	<path class="st6" d="M150.45,413.58c0-3.94,2.76-6.19,5.9-6.19c1.51,0,2.59,0.58,3.46,1.32l-1.34,1.8
		c-0.62-0.55-1.22-0.86-1.97-0.86c-1.9,0-3.22,1.56-3.22,3.94c0,2.35,1.3,3.91,3.14,3.91c0.91,0,1.75-0.46,2.42-1.01l1.13,1.82
		c-1.1,0.96-2.5,1.44-3.84,1.44C152.92,419.75,150.45,417.49,150.45,413.58z"/>
	<path class="st6" d="M162.47,415.48v-5.62h-1.68v-2.06l1.82-0.12l0.34-3.22h2.3v3.22h3v2.18h-3v5.62c0,1.39,0.53,2.06,1.66,2.06
		c0.41,0,0.89-0.12,1.22-0.26l0.48,2.04c-0.65,0.22-1.46,0.43-2.4,0.43C163.48,419.75,162.47,418.02,162.47,415.48z"/>
</g>
</svg>
