<svg xmlns="http://www.w3.org/2000/svg" viewBox="0 0 784.06 507.87"><defs><style>.cls-1{fill:#e6e6e6;}.cls-2,.cls-3,.cls-5{opacity:0.8;}.cls-3{fill:#a5a5a5;}.cls-12,.cls-4{fill:#007dbc;}.cls-4{opacity:0.8;}.cls-5,.cls-9{fill:#047dbc;}.cls-10,.cls-6,.cls-7,.cls-8{fill:none;}.cls-6,.cls-7{stroke:#868788;}.cls-6,.cls-7,.cls-8,.cls-9{stroke-linejoin:bevel;}.cls-6,.cls-8,.cls-9{stroke-width:0.67px;}.cls-7{stroke-width:0.67px;}.cls-8,.cls-9{stroke:#0675af;}.cls-10{stroke:#fff;stroke-miterlimit:10;stroke-width:3px;}.cls-11{fill:#fff;}.cls-12{opacity:0.8;}</style></defs><g id="Background"><rect class="cls-1" x="-11.18" y="-11.39" width="804.92" height="529.99"/></g><g id="Layer_10" data-name="Layer 10"><polygon class="cls-3" points="523.59 448.63 528.2 452.45 534.27 461.4 537.06 471.32 535.99 474.42 537.86 480.2 540.55 481.09 542.24 488.78 582.46 484.82 582.57 463.37 583.45 463.36 583.29 446.77 537.6 446.49 537.59 445.68 532.48 443.71 532.74 443.03 527 443.03 527 444.6 524.28 445.45 523.59 448.63"/><polygon class="cls-3" points="591.56 483.99 637.25 480.12 637.94 478.87 641.36 479.66 644.87 478.32 644.68 476.72 647.16 474.18 647.4 471.23 645.28 465.59 642.05 465.69 640.21 464.6 639.18 465.1 637.77 462.73 638.87 459.2 638.94 454.14 637.11 453.29 638.06 449.84 637.07 447.98 640.91 446.41 583.29 446.77 583.45 463.36 582.57 463.37 582.46 484.82 591.56 483.99"/></g><g id="Layer_14" data-name="Layer 14"><polygon class="cls-4" points="449.27 401.67 456.95 406.6 459.05 411.87 462.96 414.73 470.28 417.34 470.44 415.92 476.45 411.46 481.22 411.48 481.24 408.02 482.62 408.03 482.46 405.57 472.77 381.64 469.02 381.63 469.02 380.6 458.47 380.5 458.47 378.41 457.16 377.35 452.99 377.35 453 376.33 450.62 376.31 450.63 397.71 450.25 400.53 449.27 401.67"/><polygon class="cls-5" points="447 453.45 445.48 454.7 449.58 456.79 451.44 456.1 447 453.45"/><polygon class="cls-4" points="449.27 401.67 450.25 400.53 450.63 397.71 450.62 376.31 446.93 376.49 443.76 373.93 441.49 372.82 438.64 372.82 435.27 371.27 434.34 369.99 432.13 369.64 431.42 368.66 429.37 368.77 424.92 366.04 421.91 367.97 421.15 370.04 415.58 370.8 416.65 373.31 416.75 376.01 411.27 372.14 408.98 371.88 403.53 373.5 402.94 372.77 402.08 376.17 404.47 378.38 403.4 383.31 404.86 385.77 403.11 391.73 408.38 394.49 410.69 398.2 416.76 397.05 428.28 397.49 433.41 400.06 440.08 400.61 446.11 399.81 449.27 401.67"/><polygon class="cls-5" points="431.87 415.81 433.56 420.45 439.86 421.34 445.98 419.72 445.84 416.84 443.16 418.85 439.92 417.43 431.87 415.81"/><polygon class="cls-5" points="426.43 417.71 419.19 419.06 423.86 424.54 429.83 422.26 426.43 417.71"/><polygon class="cls-5" points="414.13 415.97 411.29 417.67 416.76 418.5 414.13 415.97"/><polygon class="cls-4" points="470.28 417.34 475.78 419.49 478.18 417.96 485.03 417.52 488.15 419.22 492.19 427.28 491.36 431.83 495.83 433.31 497.71 430.44 503.77 430.25 505.28 426.83 508.55 424.14 508.55 422.08 516.18 422.05 515.41 420.66 516.8 418.37 518.04 418.62 520.36 411.62 521.63 405.65 520.78 392.81 520.77 380.1 473.68 380.33 472.77 381.64 482.46 405.57 482.62 408.03 481.24 408.02 481.22 411.48 476.45 411.46 470.44 415.92 470.28 417.34"/><polygon class="cls-5" points="483.67 444.26 488.31 447.06 489.59 451.7 494.77 452.77 495.36 451 492.91 447.52 483.67 444.26"/><polygon class="cls-5" points="484.15 465.19 487.89 473.87 490.79 476.16 493.09 474.55 488.21 470.26 484.15 465.19"/><polygon class="cls-3" points="516.18 422.05 520.51 425.65 521.24 423.07 523 423.07 523.02 420.85 525.08 420.05 525.07 417.89 532.31 417.88 532.3 418.57 538.23 418.61 538.24 419.3 549.93 419.27 549.92 417.87 613.68 417.87 613.68 415.79 648.48 415.7 649.25 414.37 652.98 412.91 654.35 411.36 655.57 411.24 659.19 407.48 660.34 407.19 660.23 405.02 658.7 402.81 656.75 402.02 652.27 397.93 650.41 397.61 650.64 394.17 648.45 390.95 647.87 387.54 647.01 385.34 643.85 382.78 642.28 379.2 640.86 378.12 640.66 371.46 600.55 332.31 597.1 332.32 597.09 333.07 522.12 332.9 522.07 337.15 521.36 338.57 522.79 338.56 522.09 339.99 522.16 380.11 520.77 380.1 520.78 392.81 521.63 405.65 520.36 411.62 518.04 418.62 516.8 418.37 515.41 420.66 516.18 422.05"/><polygon class="cls-3" points="527 443.03 532.74 443.03 532.48 443.71 537.59 445.68 537.6 446.49 583.29 446.77 640.91 446.41 641.08 445.32 643.64 441.72 644.98 440.75 644.33 438.93 645.06 437.99 644.66 435.21 646.07 433.92 645.65 430.55 644.82 428.31 644.75 426.28 645.78 425.89 644.55 423.04 648.37 418.42 648.48 415.7 613.68 415.79 613.68 417.87 549.92 417.87 549.93 419.27 538.24 419.3 538.23 418.61 532.3 418.57 532.31 417.88 525.07 417.89 525.08 420.05 523.02 420.85 523 423.07 521.24 423.07 520.51 425.65 524.19 430.47 525.94 431.03 526.04 433.28 528.38 433.59 530.82 435.72 526.98 441.65 527 443.03"/><polygon class="cls-3" points="503.43 431.32 506.39 434.81 516.07 441.25 518.9 445.16 523.59 448.63 524.28 445.45 527 444.6 526.98 441.65 530.82 435.72 528.38 433.59 526.04 433.28 525.94 431.03 524.19 430.47 520.51 425.65 516.18 422.05 508.55 422.08 508.55 424.14 505.28 426.83 503.43 431.32"/><polygon class="cls-3" points="309.93 209.18 310.23 208.67 313.72 207.96 320.31 213.64 323.94 214.93 327.22 214.88 327.5 215.99 330.05 218.49 333.46 216.21 334.87 216.13 335.46 214.82 335.06 211.63 333.56 209.9 333.96 208.72 331.85 204.96 329.89 202.68 330.46 201.26 328.62 200.41 328.06 197.86 325.01 195.83 324.01 193.87 324.72 192.66 324.76 190.41 324 188.45 322.21 188.21 319.99 184.31 319.96 183.48 317.08 181.15 306.83 181.03 306.82 181.75 304.64 181.69 304.65 183.23 295.48 183.36 295.48 184.85 290.31 184.79 289.54 185.72 296.88 195.57 304.93 201.35 307.74 209.05 309.93 209.18"/><polygon class="cls-3" points="362.76 215.04 364.75 214.21 365.26 212.96 365.15 209.19 365.64 208.3 361.63 208.27 361.61 197.51 359.88 196.95 358.83 197.56 355.09 196.91 351.85 197.17 349.07 199.43 347.32 198.01 345.47 198.2 344.56 202.46 346.65 205.89 346.99 208.16 341.41 208.17 342.11 210.39 341.16 210.33 341.81 212.46 341.05 215.01 341.83 216.25 338.06 216.24 340.57 220.77 344.36 221.86 347.07 217.24 349.06 219.34 353.07 219.92 353.56 221.5 357.3 220.89 361.06 218.22 362.76 215.04"/><polygon class="cls-3" points="337.75 216.24 333.5 216.21 339.75 220.19 337.75 216.24"/><polygon class="cls-3" points="337.97 268.54 340.74 272.6 345.37 276.02 350.5 276.12 351.94 274.93 355.11 277.46 356.99 281.25 358.08 279.48 360.43 278.08 363.62 279.08 364.19 278.21 366.09 278.76 366.1 277.84 364.38 276.79 363.55 277.19 362.82 275.67 361.48 275.2 359.12 271.38 356.58 269.48 349.9 266.7 348.52 265.6 347.37 263.32 345.44 262.23 343.52 259.65 343.51 263.17 339.96 263.19 339.96 264.43 337 264.59 337.97 268.54"/><polygon class="cls-3" points="366.09 278.76 368.76 276.56 369.75 274.68 371.2 274.4 372.54 275.8 380.56 275.76 379.38 274.2 379.35 272.58 380.79 270.47 379.47 269.26 380.11 267.17 377.91 264.75 376.09 265.62 375.06 264.74 373.08 266.12 372.59 263.38 371.06 261.49 370.93 259.83 373.03 258.43 372.32 256.05 372.76 254.53 371.02 254.22 370.39 252.84 370.39 249.91 354.88 249.79 352.5 251.29 344.99 250.71 342.02 252.46 341.55 255.82 342.63 257.69 341.96 258.02 345.44 262.23 347.37 263.32 348.52 265.6 349.9 266.7 356.58 269.48 359.12 271.38 361.48 275.2 362.82 275.67 363.55 277.19 364.38 276.79 366.1 277.84 366.09 278.76"/><polygon class="cls-3" points="329.68 238.64 329.02 247.36 330.97 248.99 333.68 255.96 332.99 261.88 336.53 268.29 337.97 268.54 337 264.59 339.96 264.43 339.96 263.19 343.51 263.17 343.52 259.65 341.96 258.02 342.63 257.69 341.55 255.82 342.02 252.46 344.99 250.71 341.55 247 334.24 242.57 334.01 238.63 329.68 238.64"/><polygon class="cls-3" points="334.01 238.63 335.44 237.61 332.94 233.49 329.26 234.91 329.68 238.64 334.01 238.63"/><polygon class="cls-3" points="333.5 216.21 333.46 216.21 333.54 216.21 333.5 216.21"/><polygon class="cls-3" points="333.54 216.21 341.83 216.25 341.05 215.01 341.81 212.46 341.16 210.33 342.11 210.39 341.41 208.17 346.99 208.16 346.65 205.89 344.56 202.46 345.47 198.2 344.49 194.64 342.9 191.02 340.69 188.76 340.26 186.72 338.17 181.67 335.78 181.86 333.94 180.43 334.79 182.83 333.82 183.49 331.22 188.5 324.76 190.41 324.72 192.66 324.01 193.87 325.01 195.83 328.06 197.86 328.62 200.41 330.46 201.26 329.89 202.68 331.85 204.96 333.96 208.72 333.56 209.9 335.06 211.63 335.46 214.82 334.87 216.13 333.54 216.21"/><polygon class="cls-3" points="269.6 122.26 276.29 130.87 278.95 139.79 279.5 146.28 277.61 151.11 277.33 155.76 279.57 163.65 281.55 166.65 282.8 171.91 280.89 176.07 284.45 181.38 289.54 185.72 290.31 184.79 295.48 184.85 295.48 183.36 304.65 183.23 304.64 181.69 306.82 181.75 306.83 181.03 317.08 181.15 314.2 179.59 314.23 178.85 312.05 178.61 310.92 176.25 310.56 173.68 308.93 173.71 307.81 172.47 307.46 170.26 306.36 169.88 306.96 164.69 308.45 163.74 310.24 161.52 309.26 159.37 309.26 157.14 307.07 152.75 307.54 147.84 309.04 147.06 312.54 147.18 314.37 146.54 314.27 137.31 313.48 137.31 313.49 135.29 312.47 135.29 312.5 132.72 311.61 130.3 312.03 127.06 313.19 126.59 312.64 123.45 288.51 123.51 288.52 122.22 269.6 122.26"/><polygon class="cls-3" points="309.93 209.18 314.68 217.84 310.22 211.93 312.06 216.26 309.52 223.96 312.56 219.79 312.97 222.51 317.11 224.22 321.79 229.36 324.15 229.18 328.54 233.09 330.63 232.77 328.92 229.78 331.77 230.43 329.99 225.53 330.05 218.49 327.5 215.99 327.22 214.88 323.94 214.93 320.31 213.64 313.72 207.96 310.23 208.67 309.93 209.18"/><polygon class="cls-3" points="314.56 143.92 314.37 146.54 312.54 147.18 309.04 147.06 307.54 147.84 307.07 152.75 309.26 157.14 309.26 159.37 310.24 161.52 308.45 163.74 306.96 164.69 306.36 169.88 307.46 170.26 307.81 172.47 308.93 173.71 310.56 173.68 310.92 176.25 312.05 178.61 314.23 178.85 314.2 179.59 317.08 181.15 319.96 183.48 319.99 184.31 322.21 188.21 324 188.45 324.76 190.41 331.22 188.5 333.82 183.49 334.79 182.83 332.87 178.57 333.59 177.33 336.11 177.38 333.38 175.43 333.21 172.51 330.14 170.84 329.92 166.39 330.8 166.16 329.19 162.88 326.89 163.13 322.64 161.38 319.63 159.05 318.93 157.65 320.34 153.99 320.48 143.89 314.56 143.92"/><polygon class="cls-3" points="267.94 45.93 266.3 58.25 264.26 62.86 264.45 67.55 266.1 68.9 263.08 79.48 255.21 95.89 254.37 99.39 256.73 106.23 256.16 108.83 263.09 115.58 266.12 116.94 267.32 120.71 269.6 122.26 288.52 122.22 288.53 83.97 287.71 81.45 287.91 79.26 286.66 77.28 285.44 73.93 286.66 74.16 287.9 72.95 291 74.81 292.33 73.29 292.12 72.23 293.99 69.63 293.31 67.3 291.7 66.36 293.07 64.17 292.94 61.84 293.9 60.92 292.04 57.93 292.54 57.26 291.3 51.13 290.23 50.26 279.6 50.36 279.58 45.96 267.94 45.93"/><polygon class="cls-3" points="262.15 17.67 262.35 22.94 260.41 29.11 264.14 31.52 266.5 38.59 267.94 45.93 279.58 45.96 279.6 50.36 283.9 50.29 284.4 48.25 285.86 46.07 284.96 44.84 284.42 42.23 282.61 41.06 283.07 39.08 281.61 39.02 282.78 35.12 283.94 32.76 282.83 29.2 283.45 28.44 282.23 26.64 283.53 26.33 284.63 23.46 285.77 23.91 287.69 22.74 289.57 17.54 284.07 17.85 262.15 17.67"/><polygon class="cls-3" points="337.2 229.18 338.84 228.75 340.7 230.13 342.2 233.01 343.99 233.82 347.75 234.15 349.64 235.89 349.08 236.68 351.1 238.12 367.07 233.03 367.88 231.45 366.17 231.06 367.03 227.86 366.09 223.61 363.09 221.23 359.78 223.06 348.66 221.12 343.56 222.9 339.9 221.11 332.58 225.81 334.19 228.45 337.2 229.18"/><polygon class="cls-3" points="337.2 229.18 336.59 234.13 339.93 234.87 339.23 237.04 343.08 240.46 345.4 249.08 350.55 250.98 352.5 251.29 354.88 249.79 370.42 249.93 369.14 247.73 367.07 246.9 367.07 233.03 351.1 238.12 349.08 236.68 349.64 235.89 347.75 234.15 343.99 233.82 342.2 233.01 340.7 230.13 338.84 228.75 337.2 229.18"/><polygon class="cls-3" points="372.67 173.71 377.04 170.87 378.02 171.78 378.02 161.8 378.52 159.7 380.34 159.14 380.92 157.41 382.65 156.59 384.01 154.17 385.75 153.42 388.19 153.57 387.71 147.28 386.77 146.14 388.11 145 388.69 140.87 386.04 143.04 384.84 144.58 383.14 145.19 383.14 146.67 379.56 146.66 379.58 147.35 377.01 147.02 376.63 149.26 375.85 149.63 375.85 151.85 374.7 152.97 374.34 154.94 373 156.2 370.3 156.55 366.82 158 364.89 157.28 363.93 160.22 364.79 161.89 364.63 164.23 365.9 169 364.96 170.59 366.49 176.64 367.59 174.94 369.72 173.94 372.67 173.71"/><polygon class="cls-3" points="345.47 198.2 347.32 198.01 349.07 199.43 351.85 197.17 355.09 196.91 358.83 197.56 359.88 196.95 361.61 197.51 361.63 208.27 365.64 208.3 368.46 205.93 368.66 203.56 368.05 202.5 369.19 201.87 368.96 200.25 366.97 198.97 368.31 197.91 369.06 194.51 367.34 193.85 366.74 191.68 365.59 191.59 364.16 188.88 365.65 185.57 364.41 184.44 364 185.37 361.7 185.33 361.77 183.92 360.49 183.5 360.48 181.04 359.44 180.08 358.07 180.82 356.87 179.81 357.21 177.85 356.04 177.38 333.59 177.33 332.87 178.57 333.94 180.43 335.78 181.86 338.17 181.67 340.26 186.72 340.69 188.76 342.9 191.02 344.49 194.64 345.47 198.2"/><polygon class="cls-3" points="288.52 122.22 288.51 123.51 312.64 123.45 311.94 122.41 311.57 117.16 310.44 114.81 311.22 112.7 310.47 109.4 308 108.47 307.45 107.49 307.31 105.14 310.16 101.84 310.09 100.69 311.79 100.53 313.91 99.28 316.12 96.17 318.2 95.68 318.52 94.31 320.98 92.52 321.94 92.83 321.51 89.61 319.83 86.55 321 86.26 321.2 83.56 323.08 82.19 323.23 79.46 325.82 75.59 325.55 72.56 328.69 69.6 329.26 65.73 331.49 65.29 331.93 62.01 329.86 60.77 328.9 59.16 329.27 55.47 330.63 53.55 327.75 51.36 326.43 51.5 326.2 53.25 324.04 53.32 323.72 55.18 321.42 55.93 320.92 57.33 318.85 58.25 317.49 59.73 314.54 59.6 312.58 61.06 311.56 60.84 311.94 62.44 311.08 64.48 311.34 66.05 313.06 66.58 314.09 68.86 313.29 70.67 311.43 69.72 308.58 70.14 307.85 67.91 304.45 66.2 300.57 66.38 299.23 63.91 296.14 61.83 294.97 62.42 293.9 60.92 292.94 61.84 293.07 64.17 291.7 66.36 293.31 67.3 293.99 69.63 292.12 72.23 292.33 73.29 291 74.81 287.9 72.95 286.66 74.16 285.44 73.93 286.66 77.28 287.91 79.26 287.71 81.45 288.53 83.97 288.52 122.22"/><polygon class="cls-3" points="312.64 123.45 313.19 126.59 312.03 127.06 311.61 130.3 312.5 132.72 347.71 132.74 346.81 130.54 347.78 128.31 357.3 128.29 359.41 127.13 359.58 125.49 361.28 123.14 363.54 123.23 363.94 120.99 365.53 119.34 365.9 117.14 368.89 117.14 371.17 116.02 371.8 114.48 371.71 112.24 372.97 112.44 374.51 111.36 375.23 108.06 374.18 106.92 375.54 106.31 373.98 104.71 370.48 104.21 369.93 101.8 370.34 100.4 369.4 99.26 366.74 99.25 365.81 99.98 363.52 99.83 361.97 98.87 360.04 99.78 357.19 99.29 354.31 99.75 351.88 100.83 349.14 100.25 344.44 101.69 337.29 103.13 331.97 103.01 328.84 101.91 323.84 105.34 319.97 103.41 315.8 104.59 315.07 104.27 312.99 106.49 310.94 106.03 307.45 107.49 308 108.47 310.47 109.4 311.22 112.7 310.44 114.81 311.57 117.16 311.94 122.41 312.64 123.45"/><polygon class="cls-3" points="356.04 177.38 357.21 177.85 356.87 179.81 358.07 180.82 359.44 180.08 360.48 181.04 360.49 183.5 361.77 183.92 361.7 185.33 364 185.37 364.41 184.44 365.65 185.57 365.24 186.95 369.92 187.01 370.51 186.16 370.52 177.3 372.69 177.28 372.67 173.71 369.72 173.94 367.59 174.94 366.49 176.64 364.96 170.59 365.9 169 364.63 164.23 364.79 161.89 363.93 160.22 364.42 158.47 363.88 157.96 353.18 158.05 351.6 161.29 352.34 163.49 351.7 164.33 353.93 169.85 355.53 169.93 357.55 173.63 355.87 175.8 356.04 177.38"/><polygon class="cls-3" points="293.9 60.92 294.97 62.42 296.14 61.83 299.23 63.91 300.57 66.38 304.45 66.2 307.85 67.91 308.58 70.14 311.43 69.72 313.29 70.67 314.09 68.86 313.06 66.58 311.34 66.05 311.08 64.48 311.94 62.44 311.56 60.84 312.58 61.06 314.54 59.6 317.49 59.73 318.85 58.25 320.92 57.33 321.42 55.93 323.72 55.18 324.04 53.32 326.2 53.25 326.43 51.5 327.75 51.36 330.63 53.55 329.27 55.47 328.9 59.16 329.86 60.77 371.42 60.73 371 20.25 371.38 17.72 334.61 17.08 308.24 17.42 304.26 17.1 296.3 17.64 289.57 17.54 287.69 22.74 285.77 23.91 284.63 23.46 283.53 26.33 282.23 26.64 283.45 28.44 282.83 29.2 283.94 32.76 282.78 35.12 281.61 39.02 283.07 39.08 282.61 41.06 284.42 42.23 284.96 44.84 285.86 46.07 284.4 48.25 283.9 50.29 290.23 50.26 291.3 51.13 292.54 57.26 292.04 57.93 293.9 60.92"/><polygon class="cls-3" points="428.44 150.83 428.54 136.61 427.97 137.32 402.73 137.43 401.68 138.96 398.97 136.76 397.27 137.26 396.36 135.35 394.17 133.81 391.66 135.77 391.07 139.17 388.69 140.87 388.11 145 386.77 146.14 387.71 147.28 388.19 153.57 389.36 152.4 391.76 152.27 395.51 151.07 397.3 151.03 400.38 148.9 402.54 146.81 405.75 146.83 406.61 147.34 407.46 149.84 408.61 150.78 428.44 150.83"/><polygon class="cls-3" points="369.4 99.26 376.12 99.27 376.42 75.28 375.94 75.3 375.98 60.71 329.86 60.77 331.93 62.01 331.49 65.29 329.26 65.73 328.69 69.6 325.55 72.56 325.82 75.59 323.23 79.46 323.08 82.19 321.2 83.56 321 86.26 319.83 86.55 321.51 89.61 321.94 92.83 320.98 92.52 318.52 94.31 318.2 95.68 316.12 96.17 313.91 99.28 311.79 100.53 310.09 100.69 310.16 101.84 307.31 105.14 307.45 107.49 310.94 106.03 312.99 106.49 315.07 104.27 315.8 104.59 319.97 103.41 323.84 105.34 328.84 101.91 331.97 103.01 337.29 103.13 344.44 101.69 349.14 100.25 351.88 100.83 354.31 99.75 357.19 99.29 360.04 99.78 361.97 98.87 363.52 99.83 365.81 99.98 366.74 99.25 369.4 99.26"/><polygon class="cls-3" points="367.07 233.03 367.07 246.9 369.14 247.73 370.42 249.93 378.25 242.13 381.68 239.66 382.79 238.19 385.59 236.98 387.93 237 389.23 236.04 392.2 237.11 391.97 220.15 391.48 219.6 388.03 209.06 386.69 209.09 380.3 211.77 378.46 211.36 375.68 212.54 372.45 212.12 370.44 210.99 368.16 214.3 368.34 215.41 366.01 218.34 366.56 219.17 366.09 223.61 367.03 227.86 366.17 231.06 367.88 231.45 367.07 233.03"/><polygon class="cls-3" points="359.93 219.76 366.56 219.17 366.01 218.34 368.34 215.41 368.16 214.3 370.44 210.99 372.45 212.12 375.68 212.54 378.46 211.36 380.3 211.77 386.69 209.09 388.03 209.06 387.99 198.46 384.37 187.88 383.5 188.15 369.92 187.01 365.24 186.95 364.16 188.88 365.59 191.59 366.74 191.68 367.34 193.85 369.06 194.51 368.31 197.91 366.97 198.97 368.96 200.25 369.19 201.87 368.05 202.5 368.66 203.56 368.46 205.93 365.64 208.3 365.15 209.19 365.26 212.96 364.75 214.21 362.76 215.04 361.1 218.77 359.93 219.76"/><polygon class="cls-3" points="369.4 99.26 370.34 100.4 369.93 101.8 370.48 104.21 373.98 104.71 375.54 106.31 374.18 106.92 375.23 108.06 374.51 111.36 372.97 112.44 371.71 112.24 371.8 114.48 373.08 114.49 373.07 116.36 374.57 117.88 372.49 121.51 372.85 124.47 372.08 126.72 372.79 128.95 374.8 129.77 375.21 131.3 378.47 134.23 378.48 134.98 380.74 136.44 380.82 137.75 382.3 138.5 383.67 141.45 385.21 141.83 386.04 143.04 391.07 139.17 391.66 135.77 394.17 133.81 396.36 135.35 397.27 137.26 398.97 136.76 401.68 138.96 402.73 137.43 422.77 137.37 424.22 134.38 424.29 125.44 422.12 123.94 421.37 121.63 420.63 121.63 420.3 117.88 418.83 117.89 418.83 116.75 415.1 116.38 412.46 114.71 410.96 113.19 410.63 111.69 409.5 111.69 408.4 109.46 405.8 108.69 405.79 107.57 403.98 107.55 402.81 106.41 398.38 105.98 397.1 106.77 397.13 107.97 395.64 108.33 394.13 109.84 394.13 112.02 391.89 112.41 391.19 110.91 388.92 110.9 386.64 109.07 386.64 99.21 369.4 99.26"/><polygon class="cls-3" points="369.92 187.01 383.5 188.15 385 184.42 385.08 182.91 386.76 181.3 386.94 178.63 390.74 176.63 391.43 175.45 394.45 175.86 396.48 173.52 398.24 173.06 400.02 173.59 402.71 176.14 404.38 176.43 406.27 177.93 408.36 177.01 409.99 175.26 411.39 172.09 415.62 172.4 421.31 171.96 422.91 170.11 428.49 170.1 428.34 157.41 403.07 157.47 399.8 158.87 396.79 161.66 394.94 162.74 394.17 164.39 391.14 166.24 389.61 168.34 389.37 169.73 387.43 172.84 384.92 172.92 383.63 171.6 381.74 172.85 380.38 172.94 378.02 171.78 377.04 170.87 372.67 173.71 372.69 177.28 370.52 177.3 370.51 186.16 369.92 187.01"/><polygon class="cls-3" points="378.02 171.78 380.38 172.94 381.74 172.85 383.63 171.6 384.92 172.92 387.43 172.84 389.37 169.73 389.61 168.34 391.14 166.24 394.17 164.39 394.94 162.74 396.79 161.66 399.8 158.87 403.07 157.47 428.34 157.41 428.44 150.83 408.61 150.78 407.46 149.84 406.61 147.34 405.75 146.83 402.54 146.81 400.38 148.9 397.3 151.03 395.51 151.07 391.76 152.27 389.36 152.4 388.19 153.57 385.75 153.42 384.01 154.17 382.65 156.59 380.92 157.41 380.34 159.14 378.52 159.7 378.02 161.8 378.02 171.78"/><polygon class="cls-3" points="371.38 17.72 371 20.25 371.42 60.73 428.59 60.7 428.62 17.88 371.38 17.72"/><polygon class="cls-3" points="375.98 60.71 375.94 75.3 376.42 75.28 376.12 99.27 386.64 99.21 386.64 109.07 388.92 110.9 391.19 110.91 391.89 112.41 394.13 112.02 394.13 109.84 395.64 108.33 397.13 107.97 397.1 106.77 398.38 105.98 402.81 106.41 403.98 107.55 405.79 107.57 405.8 108.69 408.4 109.46 409.5 111.69 410.63 111.69 410.96 113.19 412.46 114.71 415.1 116.38 418.83 116.75 418.83 117.89 420.3 117.88 420.63 121.63 421.37 121.63 422.12 123.94 424.29 125.44 424.22 134.38 422.77 137.37 427.97 137.32 428.54 136.61 428.7 118.72 428.59 60.7 375.98 60.71"/><polygon class="cls-3" points="314.56 143.92 320.48 143.89 320.34 153.99 344.18 153.88 344.17 152.4 349.2 152.44 349.17 153.96 353.9 153.96 354.66 150.6 354.4 147.53 355.22 146.13 349.79 146.29 349.42 144.27 349.85 141.38 350.81 140.41 350.14 139.29 351.86 137.86 348.58 134.28 347.71 132.74 312.5 132.72 312.47 135.29 313.49 135.29 313.48 137.31 314.27 137.31 314.56 143.92"/><polygon class="cls-3" points="387.99 198.46 391.3 197.48 393.61 197.62 395.33 196.04 398.54 196.1 403.76 198.72 408.42 198.29 413.63 196.62 416 196.69 418.07 195.79 419.74 193.99 420.1 192.37 423.17 191.74 424.2 188.47 425.73 188.62 429.97 184.91 433.44 180.07 432.37 176.93 428.55 173.56 428.49 170.1 422.91 170.11 421.31 171.96 415.62 172.4 411.39 172.09 409.99 175.26 408.36 177.01 406.27 177.93 404.38 176.43 402.71 176.14 400.02 173.59 398.24 173.06 396.48 173.52 394.45 175.86 391.43 175.45 390.74 176.63 386.94 178.63 386.76 181.3 385.08 182.91 385 184.42 383.5 188.15 384.37 187.88 387.99 198.46"/><polygon class="cls-3" points="320.34 153.99 318.93 157.65 319.63 159.05 322.64 161.38 326.89 163.13 329.19 162.88 330.8 166.16 329.92 166.39 330.14 170.84 333.21 172.51 333.38 175.43 336.11 177.38 356.04 177.38 355.87 175.8 357.55 173.63 355.53 169.93 353.93 169.85 351.7 164.33 352.34 163.49 351.6 161.29 353.18 158.05 353.9 153.96 349.17 153.96 349.2 152.44 344.17 152.4 344.18 153.88 320.34 153.99"/><polygon class="cls-3" points="389.25 212.71 391.48 219.6 402.75 232.43 403.54 231.02 406.03 229.31 408.24 226.37 407.45 224.53 410.3 223.44 411.1 221.09 413.29 218.21 414.01 216.39 417.91 210.41 420.48 207.47 421.61 205.25 423.22 204.12 425.11 203.75 427.8 202.24 425.72 201.54 425.72 198.37 423.64 199.08 420.46 198.82 415.5 200.63 411.86 200.22 410.35 201.59 408.83 201.52 407.89 202.78 404.28 204.45 403.65 206.93 399.45 208.56 398.77 209.54 396.57 209.87 393.83 211.93 390.18 213.11 389.25 212.71"/><polygon class="cls-3" points="347.71 132.74 348.58 134.28 351.86 137.86 350.14 139.29 350.81 140.41 349.85 141.38 349.42 144.27 349.79 146.29 355.22 146.13 354.4 147.53 354.66 150.6 353.18 158.05 363.88 157.96 364.42 158.47 364.89 157.28 366.82 158 370.3 156.55 373 156.2 374.34 154.94 374.7 152.97 375.85 151.85 375.85 149.63 376.63 149.26 377.01 147.02 379.58 147.35 379.56 146.66 383.14 146.67 383.14 145.19 384.84 144.58 386.04 143.04 385.21 141.83 383.67 141.45 382.3 138.5 380.82 137.75 380.74 136.44 378.48 134.98 378.47 134.23 375.21 131.3 374.8 129.77 372.79 128.95 372.08 126.72 372.85 124.47 372.49 121.51 374.57 117.88 373.07 116.36 373.08 114.49 371.8 114.48 371.17 116.02 368.89 117.14 365.9 117.14 365.53 119.34 363.94 120.99 363.54 123.23 361.28 123.14 359.58 125.49 359.41 127.13 357.3 128.29 347.78 128.31 346.81 130.54 347.71 132.74"/><polygon class="cls-3" points="387.99 198.46 388.03 209.06 389.25 212.71 390.18 213.11 393.83 211.93 396.57 209.87 398.77 209.54 399.45 208.56 403.65 206.93 404.28 204.45 407.89 202.78 408.83 201.52 410.35 201.59 411.86 200.22 415.5 200.63 420.46 198.82 423.64 199.08 425.72 198.37 425.73 188.62 424.2 188.47 423.17 191.74 420.1 192.37 419.74 193.99 418.07 195.79 416 196.69 413.63 196.62 408.42 198.29 403.76 198.72 398.54 196.1 395.33 196.04 393.61 197.62 391.3 197.48 387.99 198.46"/><polygon class="cls-3" points="413.27 242.36 413.1 239.87 415.7 241.59 416.48 240.78 414.94 237.81 421.12 235.66 421.37 234.28 423.56 234.97 425.44 232.61 432.26 236.16 433.94 235.44 436.12 236.3 442.26 233.53 442.57 231.71 443.99 231.39 445.74 228.96 447 228.9 449.36 231.27 451.24 230.71 452.11 232.19 454.18 232.73 457.47 237.09 460.15 233.84 459.63 230.56 460.17 229.89 455.92 226.7 455.36 225.49 456.07 222.84 454.28 219.74 452.42 218.67 449.78 219.1 449.55 217.59 445.32 216.12 444.96 214.78 443.1 214.05 444.23 212.23 443.87 210.9 442.36 209.64 442.84 207.6 440.44 205.67 440.49 203.41 438.31 203.08 436.42 203.85 433.14 206.13 427.8 202.24 425.11 203.75 423.22 204.12 421.61 205.25 420.48 207.47 417.91 210.41 414.01 216.39 413.29 218.21 411.1 221.09 410.3 223.44 407.45 224.53 408.24 226.37 406.03 229.31 403.54 231.02 402.75 232.43 413.27 242.36"/><polygon class="cls-3" points="445.45 299.06 447.23 299.12 447.21 303.34 449.34 303.37 449.35 309.84 447.18 309.8 446.84 333.27 507.31 333.29 507.4 329.71 508.37 329.5 507.94 325.75 506.9 324.91 507.48 323.8 506.29 322.57 504.98 318.49 505.17 314.49 504.04 313.36 502.58 309.29 503.76 306.8 501.3 303.72 502.17 302.53 501.43 301.82 499.13 301.7 497.75 299.37 498.33 298.81 497.66 296.44 496.14 295.63 496.77 293.72 494.94 292.26 494.61 290.3 493.15 289.07 494.39 288.4 493.37 286.45 468.8 286.61 468.7 290.77 456.06 290.6 456.05 294.88 449.68 294.81 445.45 299.06"/><polygon class="cls-3" points="380.11 267.17 390.48 256.7 389.69 254.03 413.27 242.36 402.75 232.43 391.97 220.15 392.2 237.11 389.23 236.04 387.93 237 385.59 236.98 382.79 238.19 381.68 239.66 378.25 242.13 370.39 249.91 370.39 252.84 371.02 254.22 372.76 254.53 372.32 256.05 373.03 258.43 370.93 259.83 371.06 261.49 372.59 263.38 373.08 266.12 375.06 264.74 376.09 265.62 377.91 264.75 380.11 267.17"/><polygon class="cls-3" points="402.94 372.77 403.53 373.5 408.98 371.88 411.27 372.14 416.75 376.01 416.65 373.31 415.58 370.8 421.15 370.04 421.91 367.97 424.92 366.04 429.37 368.77 431.42 368.66 432.13 369.64 434.34 369.99 435.27 371.27 438.64 372.82 441.49 372.82 443.76 373.93 446.93 376.49 449.42 376.31 449.42 367.84 448.72 367.12 445.93 367.31 446.23 362.86 441.74 363.11 441.76 358.86 436.11 358.81 436.12 354.58 433.32 354.57 433.32 350.31 428.69 350.29 428.69 348.87 425.16 346.07 425.19 341.79 420.92 341.8 420.91 333.29 375.34 333 377.94 339.24 382.6 340.87 388.92 349.25 392.8 349.86 394.5 354.78 393.12 359.57 398.71 363.8 402.86 364.41 403.69 368.58 402.94 372.77"/><polygon class="cls-3" points="363.62 279.08 364.49 281.45 365.45 281.89 369.15 285.84 370.04 285.43 371.2 287.47 369.92 288.01 370.57 289.38 372.93 290.79 375.23 291.2 376.49 293.09 376.08 295.81 377.39 297.17 376.86 298.54 379.42 298.17 381.42 301.17 387.46 307.15 387.48 309.74 389.37 309.8 389.65 308.67 390.9 309.57 392.21 307.79 394.4 308.69 397.39 311.51 398.49 313.05 400.47 313.3 400.67 311.89 399.08 307.82 401.77 309.93 402.55 307.53 405.01 306.93 404.99 299.08 391.69 286.1 383.48 281.92 381.23 278.08 379.79 277.46 380.56 275.76 372.54 275.8 371.2 274.4 369.75 274.68 368.76 276.56 366.09 278.76 364.19 278.21 363.62 279.08"/><polygon class="cls-3" points="356.99 281.25 357.92 283.5 356.8 289.8 353.91 293.52 352.06 291.76 352.04 299.88 353.52 307.98 356.05 310.81 360.75 313.48 364.03 317.08 366.41 321.85 368.85 322.68 370.8 328.59 375.34 333 420.13 333.29 419.87 331.81 418.34 330.56 418.97 328.98 417.56 327.55 416.13 327.54 414.37 324.76 411.47 324.52 409.67 322.51 407.23 321.21 402.95 317.73 402.19 315.15 403.81 313.07 401.64 310.72 401.77 309.93 399.08 307.82 400.67 311.89 400.47 313.3 398.49 313.05 397.39 311.51 394.4 308.69 392.21 307.79 390.9 309.57 389.65 308.67 389.37 309.8 387.48 309.74 387.46 307.15 381.42 301.17 379.42 298.17 376.86 298.54 377.39 297.17 376.08 295.81 376.49 293.09 375.23 291.2 372.93 290.79 370.57 289.38 369.92 288.01 371.2 287.47 370.04 285.43 369.15 285.84 365.45 281.89 364.49 281.45 363.62 279.08 360.43 278.08 358.08 279.48 356.99 281.25"/><polygon class="cls-3" points="442.84 207.6 442.36 209.64 443.87 210.9 444.23 212.23 443.1 214.05 444.96 214.78 445.32 216.12 449.55 217.59 449.78 219.1 452.42 218.67 454.28 219.74 456.07 222.84 455.36 225.49 455.92 226.7 460.17 229.89 459.63 230.56 460.15 233.84 457.47 237.09 459.56 238.34 460.26 237.21 463.19 237.35 465.53 239.82 466.81 242.52 467.22 244.75 469.01 246.19 471.38 246.52 474.01 250.23 476.12 249.59 477 250.86 514.23 250.77 479.4 218.91 444.97 188.09 443.81 190.49 443.64 193.64 446.65 198.89 445.89 203.38 443.52 204.23 444.1 205.61 442.84 207.6"/><polygon class="cls-3" points="380.11 267.17 379.47 269.26 380.79 270.47 379.35 272.58 379.38 274.2 380.56 275.76 379.79 277.46 381.23 278.08 383.48 281.92 392.28 286.67 409.75 269.07 415.1 267.68 419.6 265.75 423.84 265.65 426.53 264.77 424.9 262.81 421.53 260.84 421.37 259.4 418.07 253.97 417.72 251.83 413.26 242.37 389.69 254.03 390.48 256.7 380.11 267.17"/><polygon class="cls-3" points="413.26 242.37 417.72 251.83 418.07 253.97 421.37 259.4 421.53 260.84 424.9 262.81 426.53 264.77 438 253.15 442.37 253.12 442.37 250.94 443.78 250.94 443.79 249.29 445.02 249.29 445.04 246.02 455.89 235.15 454.18 232.73 452.11 232.19 451.24 230.71 449.36 231.27 447 228.9 445.74 228.96 443.99 231.39 442.57 231.71 442.26 233.53 436.12 236.3 433.94 235.44 432.26 236.16 425.44 232.61 423.56 234.97 421.37 234.28 421.12 235.66 414.94 237.81 416.48 240.78 415.7 241.59 413.1 239.87 413.26 242.37"/><polygon class="cls-3" points="407.16 271.66 410.8 278.18 410.55 280.62 413.26 282.54 413.95 284.47 415.77 284.4 419.49 285.24 425.43 282.48 427.45 283 429.2 281.7 430.82 282.04 433.13 280.84 435.75 281.35 436.96 278.9 439.11 276.39 438.84 275.33 440.81 273.25 442.08 273.19 442.05 271.92 443.56 272.53 444.2 270.33 445.86 270.67 446.85 268.67 445.62 268.03 445.99 266.72 447.42 267.41 448.08 266.39 449.51 268.39 449.92 266.63 451.58 265.72 452.83 266.43 455.01 263.68 455.38 261.6 454.88 258.35 456.77 255.25 467.22 244.75 466.81 242.52 465.53 239.82 463.19 237.35 460.26 237.21 459.56 238.34 457.47 237.09 455.89 235.15 445.04 246.02 445.02 249.29 443.79 249.29 443.78 250.94 442.37 250.94 442.37 253.12 438 253.15 426.53 264.77 423.84 265.65 419.6 265.75 415.1 267.68 409.75 269.07 407.16 271.66"/><polygon class="cls-3" points="416.13 327.54 417.56 327.55 418.97 328.98 418.34 330.56 419.87 331.81 420.13 333.29 446.84 333.27 447.18 309.8 449.35 309.84 449.34 303.37 447.21 303.34 447.23 299.12 445.45 299.06 441.75 302.5 441.57 301.9 438.58 302.61 438.31 303.32 430.16 303.37 430.2 314.14 416.13 327.54"/><polygon class="cls-3" points="420.91 333.29 420.92 341.8 425.19 341.79 425.16 346.07 428.69 348.87 428.69 350.29 433.32 350.31 433.32 354.57 436.12 354.58 436.11 358.81 441.76 358.86 441.74 363.11 446.23 362.86 445.93 367.31 448.72 367.12 449.42 367.84 449.42 376.31 453 376.33 452.99 377.35 457.16 377.35 458.47 378.41 458.47 380.5 469.02 380.6 469.02 381.63 472.77 381.64 473.68 380.33 522.16 380.11 522.09 339.99 522.79 338.56 521.36 338.57 522.07 337.15 522.12 332.9 510.6 332.85 510.66 333.41 489.04 333.12 420.91 333.29"/><polygon class="cls-3" points="493.37 286.45 494.39 288.4 493.15 289.07 494.61 290.3 494.94 292.26 496.77 293.72 496.14 295.63 497.66 296.44 498.33 298.81 497.75 299.37 499.13 301.7 501.43 301.82 502.17 302.53 501.3 303.72 503.76 306.8 502.58 309.29 504.04 313.36 505.17 314.49 504.98 318.49 506.29 322.57 507.48 323.8 506.9 324.91 507.94 325.75 508.37 329.5 507.4 329.71 507.31 333.29 510.66 333.41 510.6 332.85 597.09 333.07 597.1 332.32 600.55 332.31 567.36 300.51 514.23 250.77 477 250.86 477.6 252.23 476.4 254.3 477.26 255.93 476.53 256.81 478.38 258.22 479.33 257.57 481.33 260.91 480.57 261.81 480.69 263.68 481.75 266.82 484.2 267 486.36 268.22 489.15 270.54 489.92 270.44 490.71 273.25 493.36 279.4 493.33 281.49 492.22 282.03 493.37 286.45"/><polygon class="cls-3" points="401.77 309.93 401.64 310.72 403.81 313.07 402.19 315.15 402.95 317.73 407.23 321.21 409.67 322.51 411.47 324.52 414.37 324.76 416.13 327.54 430.2 314.14 430.16 303.37 438.31 303.32 438.58 302.61 441.57 301.9 441.75 302.5 449.68 294.81 456.05 294.88 456.06 290.6 468.7 290.77 468.8 286.61 493.37 286.45 492.22 282.03 493.33 281.49 493.36 279.4 490.71 273.25 489.92 270.44 489.15 270.54 486.36 268.22 484.2 267 481.75 266.82 480.69 263.68 480.57 261.81 481.33 260.91 479.33 257.57 478.38 258.22 476.53 256.81 477.26 255.93 476.4 254.3 477.6 252.23 477 250.86 476.12 249.59 474.01 250.23 471.38 246.52 469.01 246.19 467.22 244.75 456.77 255.25 454.88 258.35 455.38 261.6 455.01 263.68 452.83 266.43 451.58 265.72 449.92 266.63 449.51 268.39 448.08 266.39 447.42 267.41 445.99 266.72 445.62 268.03 446.85 268.67 445.86 270.67 444.2 270.33 443.56 272.53 442.05 271.92 442.08 273.19 440.81 273.25 438.84 275.33 439.11 276.39 436.96 278.9 435.75 281.35 433.13 280.84 430.82 282.04 429.2 281.7 427.45 283 425.43 282.48 419.49 285.24 415.77 284.4 413.95 284.47 413.26 282.54 410.55 280.62 410.8 278.18 407.16 271.66 392.28 286.67 404.99 299.08 405.01 306.93 402.55 307.53 401.77 309.93"/><polygon class="cls-3" points="425.72 198.37 425.72 201.54 427.8 202.24 433.14 206.13 436.42 203.85 438.31 203.08 440.49 203.41 440.44 205.67 442.84 207.6 444.1 205.61 443.52 204.23 445.89 203.38 446.65 198.89 443.64 193.64 443.81 190.49 444.97 188.09 432.37 176.93 433.44 180.07 429.97 184.91 425.73 188.62 425.72 198.37"/></g><g id="Layer_4" data-name="Layer 4"><polygon class="cls-6" points="309.93 209.18 310.23 208.67 313.72 207.96 320.31 213.64 323.94 214.93 327.22 214.88 327.5 215.99 330.05 218.49 333.46 216.21 334.87 216.13 335.46 214.82 335.06 211.63 333.56 209.9 333.96 208.72 331.85 204.96 329.89 202.68 330.46 201.26 328.62 200.41 328.06 197.86 325.01 195.83 324.01 193.87 324.72 192.66 324.76 190.41 324 188.45 322.21 188.21 319.99 184.31 319.96 183.48 317.08 181.15 306.83 181.04 306.82 181.75 304.64 181.69 304.65 183.23 295.48 183.36 295.48 184.85 290.31 184.79 289.54 185.72 296.88 195.57 304.93 201.35 307.74 209.05 309.93 209.18"/><polygon class="cls-6" points="362.76 215.04 364.75 214.21 365.26 212.96 365.15 209.19 365.64 208.3 361.63 208.27 361.61 197.51 359.88 196.95 358.83 197.57 355.09 196.91 351.85 197.17 349.07 199.43 347.32 198.01 345.47 198.2 344.56 202.46 346.65 205.89 346.99 208.16 341.41 208.17 342.11 210.39 341.16 210.33 341.81 212.46 341.05 215.01 341.83 216.25 338.06 216.24 340.57 220.77 344.36 221.86 347.07 217.24 349.06 219.34 353.07 219.92 353.56 221.5 357.3 220.89 361.06 218.22 362.76 215.04"/><polygon class="cls-6" points="337.75 216.24 333.5 216.21 339.75 220.19 337.75 216.24"/><polygon class="cls-6" points="337.97 268.54 340.74 272.6 345.37 276.02 350.5 276.12 351.94 274.93 355.11 277.46 356.99 281.25 358.08 279.48 360.43 278.08 363.62 279.08 364.19 278.21 366.09 278.76 366.1 277.84 364.38 276.79 363.55 277.19 362.82 275.67 361.48 275.2 359.12 271.38 356.58 269.48 349.9 266.7 348.52 265.6 347.37 263.32 345.44 262.23 343.52 259.65 343.51 263.17 339.96 263.19 339.96 264.43 337 264.59 337.97 268.54"/><polygon class="cls-6" points="366.09 278.76 368.76 276.56 369.75 274.68 371.2 274.4 372.54 275.8 380.56 275.76 379.38 274.2 379.35 272.58 380.79 270.47 379.47 269.26 380.11 267.17 377.91 264.74 376.09 265.62 375.06 264.74 373.08 266.12 372.59 263.38 371.06 261.49 370.93 259.83 373.03 258.43 372.32 256.05 372.76 254.53 371.02 254.22 370.39 252.84 370.39 249.91 354.87 249.79 352.5 251.29 344.99 250.71 342.02 252.46 341.55 255.82 342.63 257.69 341.96 258.02 345.44 262.23 347.37 263.32 348.52 265.6 349.9 266.7 356.58 269.48 359.12 271.38 361.48 275.2 362.82 275.67 363.55 277.19 364.38 276.79 366.1 277.84 366.09 278.76"/><polygon class="cls-6" points="329.68 238.64 329.02 247.36 330.97 248.99 333.68 255.96 332.99 261.88 336.53 268.29 337.97 268.54 337 264.59 339.96 264.43 339.96 263.19 343.51 263.17 343.52 259.65 341.96 258.02 342.63 257.69 341.55 255.82 342.02 252.46 344.99 250.71 341.55 247 334.24 242.57 334.01 238.63 329.68 238.64"/><polygon class="cls-6" points="334.01 238.63 335.44 237.61 332.94 233.49 329.26 234.91 329.68 238.64 334.01 238.63"/><polygon class="cls-6" points="333.5 216.21 333.46 216.21 333.54 216.21 333.5 216.21"/><polygon class="cls-6" points="333.54 216.21 341.83 216.25 341.05 215.01 341.81 212.46 341.16 210.33 342.11 210.39 341.41 208.17 346.99 208.16 346.65 205.89 344.56 202.46 345.47 198.2 344.49 194.64 342.9 191.02 340.69 188.76 340.26 186.72 338.17 181.67 335.78 181.86 333.94 180.43 334.79 182.83 333.82 183.49 331.22 188.5 324.76 190.41 324.72 192.66 324.01 193.87 325.01 195.83 328.06 197.86 328.62 200.41 330.46 201.26 329.89 202.68 331.85 204.96 333.96 208.72 333.56 209.9 335.06 211.63 335.46 214.82 334.87 216.13 333.54 216.21"/><polygon class="cls-6" points="269.6 122.26 276.29 130.87 278.95 139.79 279.5 146.28 277.61 151.11 277.33 155.76 279.57 163.65 281.55 166.65 282.8 171.91 280.89 176.07 284.45 181.38 289.54 185.72 290.31 184.79 295.48 184.85 295.48 183.36 304.65 183.23 304.64 181.69 306.82 181.75 306.83 181.04 317.08 181.15 314.2 179.59 314.23 178.85 312.05 178.61 310.92 176.25 310.56 173.68 308.93 173.71 307.81 172.47 307.46 170.26 306.36 169.88 306.96 164.69 308.45 163.74 310.24 161.52 309.26 159.37 309.26 157.14 307.07 152.75 307.54 147.84 309.04 147.06 312.54 147.18 314.37 146.54 314.27 137.31 313.48 137.31 313.49 135.29 312.47 135.29 312.5 132.72 311.61 130.3 312.03 127.06 313.19 126.59 312.64 123.45 288.51 123.51 288.52 122.22 269.6 122.26"/><polygon class="cls-6" points="309.93 209.18 314.68 217.84 310.22 211.93 312.06 216.26 309.52 223.96 312.56 219.79 312.97 222.51 317.11 224.22 321.79 229.35 324.15 229.18 328.54 233.09 330.63 232.77 328.92 229.78 331.77 230.43 329.99 225.53 330.05 218.49 327.5 215.99 327.22 214.88 323.94 214.93 320.31 213.64 313.72 207.96 310.23 208.67 309.93 209.18"/><polygon class="cls-6" points="314.56 143.92 314.37 146.54 312.54 147.18 309.04 147.06 307.54 147.84 307.07 152.75 309.26 157.14 309.26 159.37 310.24 161.52 308.45 163.74 306.96 164.69 306.36 169.88 307.46 170.26 307.81 172.47 308.93 173.71 310.56 173.68 310.92 176.25 312.05 178.61 314.23 178.85 314.2 179.59 317.08 181.15 319.96 183.48 319.99 184.31 322.21 188.21 324 188.45 324.76 190.41 331.22 188.5 333.82 183.49 334.79 182.83 332.87 178.57 333.59 177.33 336.11 177.38 333.38 175.43 333.21 172.51 330.14 170.84 329.92 166.39 330.8 166.16 329.19 162.88 326.89 163.13 322.64 161.38 319.63 159.05 318.93 157.65 320.34 153.99 320.48 143.89 314.56 143.92"/><polygon class="cls-6" points="267.94 45.93 266.3 58.25 264.26 62.86 264.45 67.55 266.1 68.9 263.08 79.48 255.21 95.89 254.37 99.39 256.73 106.23 256.16 108.83 263.09 115.58 266.12 116.94 267.32 120.71 269.6 122.26 288.52 122.22 288.53 83.97 287.71 81.45 287.91 79.26 286.66 77.28 285.44 73.93 286.65 74.16 287.9 72.95 290.99 74.81 292.33 73.29 292.12 72.23 293.99 69.63 293.31 67.3 291.7 66.36 293.07 64.17 292.94 61.84 293.9 60.92 292.04 57.93 292.54 57.26 291.3 51.12 290.23 50.26 279.6 50.35 279.58 45.96 267.94 45.93"/><polygon class="cls-6" points="262.15 17.67 262.35 22.94 260.41 29.11 264.14 31.52 266.5 38.59 267.94 45.93 279.58 45.96 279.6 50.35 283.9 50.29 284.4 48.25 285.86 46.07 284.96 44.84 284.42 42.22 282.61 41.06 283.07 39.08 281.61 39.02 282.78 35.12 283.94 32.76 282.83 29.2 283.45 28.44 282.23 26.64 283.53 26.33 284.63 23.46 285.77 23.91 287.69 22.74 289.57 17.54 284.07 17.85 262.15 17.67"/><polygon class="cls-6" points="337.2 229.18 338.84 228.75 340.7 230.13 342.2 233.01 343.99 233.82 347.75 234.14 349.64 235.89 349.08 236.68 351.1 238.12 367.07 233.03 367.88 231.45 366.17 231.06 367.03 227.86 366.08 223.61 363.09 221.23 359.78 223.06 348.66 221.12 343.56 222.9 339.9 221.11 332.58 225.81 334.19 228.45 337.2 229.18"/><polygon class="cls-6" points="337.2 229.18 336.59 234.13 339.93 234.86 339.23 237.04 343.08 240.46 345.4 249.08 350.55 250.98 352.5 251.29 354.87 249.79 370.42 249.93 369.14 247.73 367.07 246.9 367.07 233.03 351.1 238.12 349.08 236.68 349.64 235.89 347.75 234.14 343.99 233.82 342.2 233.01 340.7 230.13 338.84 228.75 337.2 229.18"/><polygon class="cls-7" points="523.59 448.63 528.2 452.45 534.27 461.4 537.06 471.32 535.99 474.42 537.86 480.2 540.55 481.09 542.24 488.78 582.46 484.82 582.57 463.37 583.45 463.36 583.29 446.77 537.6 446.49 537.59 445.69 532.48 443.71 532.74 443.03 527 443.03 527 444.6 524.28 445.45 523.59 448.63"/><polygon class="cls-7" points="591.56 483.99 637.25 480.12 637.94 478.87 641.36 479.66 644.87 478.32 644.68 476.72 647.16 474.18 647.4 471.23 645.28 465.59 642.05 465.69 640.21 464.6 639.18 465.1 637.77 462.73 638.87 459.2 638.94 454.14 637.11 453.29 638.06 449.84 637.07 447.98 640.91 446.41 583.29 446.77 583.45 463.36 582.57 463.37 582.46 484.82 591.56 483.99"/><polygon class="cls-6" points="372.67 173.71 377.04 170.87 378.02 171.78 378.02 161.8 378.52 159.7 380.33 159.14 380.92 157.41 382.65 156.59 384.01 154.17 385.75 153.42 388.19 153.57 387.71 147.28 386.77 146.14 388.1 145 388.69 140.87 386.04 143.04 384.84 144.58 383.14 145.19 383.14 146.67 379.56 146.66 379.58 147.35 377.01 147.02 376.63 149.26 375.85 149.63 375.85 151.85 374.7 152.97 374.34 154.94 373 156.2 370.3 156.55 366.82 158 364.89 157.28 363.93 160.22 364.79 161.89 364.63 164.23 365.9 169 364.96 170.59 366.49 176.64 367.59 174.94 369.72 173.94 372.67 173.71"/><polygon class="cls-6" points="345.47 198.2 347.32 198.01 349.07 199.43 351.85 197.17 355.09 196.91 358.83 197.57 359.88 196.95 361.61 197.51 361.63 208.27 365.64 208.3 368.46 205.93 368.66 203.56 368.05 202.5 369.19 201.87 368.96 200.25 366.97 198.97 368.31 197.91 369.06 194.51 367.34 193.85 366.74 191.68 365.59 191.59 364.16 188.88 365.65 185.57 364.41 184.44 364 185.37 361.7 185.33 361.77 183.92 360.49 183.5 360.48 181.04 359.44 180.08 358.07 180.82 356.87 179.81 357.21 177.85 356.04 177.38 333.59 177.33 332.87 178.57 333.94 180.43 335.78 181.86 338.17 181.67 340.26 186.72 340.69 188.76 342.9 191.02 344.49 194.64 345.47 198.2"/><polygon class="cls-6" points="288.52 122.22 288.51 123.51 312.64 123.45 311.94 122.41 311.57 117.16 310.44 114.81 311.22 112.7 310.47 109.4 308 108.47 307.45 107.49 307.31 105.14 310.16 101.84 310.08 100.69 311.79 100.53 313.91 99.28 316.12 96.17 318.2 95.68 318.52 94.31 320.98 92.52 321.94 92.83 321.51 89.61 319.83 86.55 321 86.26 321.2 83.56 323.08 82.19 323.23 79.46 325.82 75.59 325.55 72.56 328.69 69.6 329.26 65.73 331.49 65.29 331.93 62.01 329.86 60.77 328.9 59.16 329.27 55.47 330.63 53.55 327.75 51.36 326.43 51.5 326.2 53.25 324.04 53.32 323.72 55.18 321.42 55.93 320.92 57.33 318.85 58.25 317.49 59.73 314.54 59.6 312.58 61.06 311.56 60.84 311.94 62.44 311.08 64.48 311.34 66.05 313.06 66.58 314.09 68.86 313.29 70.67 311.43 69.72 308.58 70.14 307.85 67.91 304.45 66.2 300.57 66.38 299.23 63.91 296.14 61.83 294.97 62.42 293.9 60.92 292.94 61.84 293.07 64.17 291.7 66.36 293.31 67.3 293.99 69.63 292.12 72.23 292.33 73.29 290.99 74.81 287.9 72.95 286.65 74.16 285.44 73.93 286.66 77.28 287.91 79.26 287.71 81.45 288.53 83.97 288.52 122.22"/><polygon class="cls-6" points="312.64 123.45 313.19 126.59 312.03 127.06 311.61 130.3 312.5 132.72 347.71 132.74 346.81 130.54 347.78 128.31 357.3 128.29 359.41 127.13 359.58 125.49 361.28 123.14 363.54 123.23 363.94 120.99 365.53 119.35 365.9 117.14 368.89 117.14 371.17 116.02 371.8 114.48 371.71 112.24 372.97 112.44 374.51 111.36 375.23 108.06 374.18 106.92 375.54 106.31 373.98 104.72 370.48 104.21 369.93 101.8 370.34 100.4 369.4 99.26 366.74 99.25 365.81 99.98 363.52 99.83 361.97 98.87 360.04 99.78 357.19 99.29 354.31 99.75 351.88 100.83 349.14 100.25 344.44 101.69 337.29 103.13 331.97 103.01 328.84 101.91 323.84 105.34 319.97 103.41 315.8 104.59 315.07 104.27 312.99 106.49 310.94 106.03 307.45 107.49 308 108.47 310.47 109.4 311.22 112.7 310.44 114.81 311.57 117.16 311.94 122.41 312.64 123.45"/><polygon class="cls-6" points="356.04 177.38 357.21 177.85 356.87 179.81 358.07 180.82 359.44 180.08 360.48 181.04 360.49 183.5 361.77 183.92 361.7 185.33 364 185.37 364.41 184.44 365.65 185.57 365.24 186.95 369.92 187.01 370.51 186.16 370.52 177.3 372.69 177.28 372.67 173.71 369.72 173.94 367.59 174.94 366.49 176.64 364.96 170.59 365.9 169 364.63 164.23 364.79 161.89 363.93 160.22 364.42 158.47 363.88 157.96 353.18 158.05 351.6 161.29 352.34 163.49 351.7 164.33 353.93 169.85 355.53 169.93 357.55 173.63 355.87 175.8 356.04 177.38"/><polygon class="cls-6" points="293.9 60.92 294.97 62.42 296.14 61.83 299.23 63.91 300.57 66.38 304.45 66.2 307.85 67.91 308.58 70.14 311.43 69.72 313.29 70.67 314.09 68.86 313.06 66.58 311.34 66.05 311.08 64.48 311.94 62.44 311.56 60.84 312.58 61.06 314.54 59.6 317.49 59.73 318.85 58.25 320.92 57.33 321.42 55.93 323.72 55.18 324.04 53.32 326.2 53.25 326.43 51.5 327.75 51.36 330.63 53.55 329.27 55.47 328.9 59.16 329.86 60.77 371.42 60.73 371 20.25 371.38 17.72 334.61 17.08 308.24 17.42 304.26 17.1 296.3 17.64 289.57 17.54 287.69 22.74 285.77 23.91 284.63 23.46 283.53 26.33 282.23 26.64 283.45 28.44 282.83 29.2 283.94 32.76 282.78 35.12 281.61 39.02 283.07 39.08 282.61 41.06 284.42 42.22 284.96 44.84 285.86 46.07 284.4 48.25 283.9 50.29 290.23 50.26 291.3 51.12 292.54 57.26 292.04 57.93 293.9 60.92"/><polygon class="cls-6" points="428.44 150.83 428.54 136.61 427.97 137.32 402.73 137.43 401.68 138.96 398.97 136.76 397.27 137.26 396.36 135.35 394.17 133.81 391.66 135.77 391.07 139.17 388.69 140.87 388.1 145 386.77 146.14 387.71 147.28 388.19 153.57 389.36 152.4 391.76 152.27 395.51 151.07 397.3 151.03 400.38 148.9 402.54 146.81 405.75 146.83 406.61 147.34 407.46 149.84 408.61 150.78 428.44 150.83"/><polygon class="cls-6" points="369.4 99.26 376.12 99.27 376.42 75.28 375.94 75.3 375.98 60.71 329.86 60.77 331.93 62.01 331.49 65.29 329.26 65.73 328.69 69.6 325.55 72.56 325.82 75.59 323.23 79.46 323.08 82.19 321.2 83.56 321 86.26 319.83 86.55 321.51 89.61 321.94 92.83 320.98 92.52 318.52 94.31 318.2 95.68 316.12 96.17 313.91 99.28 311.79 100.53 310.08 100.69 310.16 101.84 307.31 105.14 307.45 107.49 310.94 106.03 312.99 106.49 315.07 104.27 315.8 104.59 319.97 103.41 323.84 105.34 328.84 101.91 331.97 103.01 337.29 103.13 344.44 101.69 349.14 100.25 351.88 100.83 354.31 99.75 357.19 99.29 360.04 99.78 361.97 98.87 363.52 99.83 365.81 99.98 366.74 99.25 369.4 99.26"/><polygon class="cls-6" points="367.07 233.03 367.07 246.9 369.14 247.73 370.42 249.93 378.25 242.13 381.68 239.66 382.79 238.19 385.59 236.98 387.93 237 389.23 236.04 392.2 237.11 391.97 220.15 391.48 219.6 388.03 209.06 386.69 209.09 380.3 211.77 378.46 211.36 375.68 212.54 372.45 212.12 370.44 210.99 368.16 214.3 368.34 215.41 366.01 218.34 366.56 219.17 366.08 223.61 367.03 227.86 366.17 231.06 367.88 231.45 367.07 233.03"/><polygon class="cls-6" points="359.93 219.76 366.56 219.17 366.01 218.34 368.34 215.41 368.16 214.3 370.44 210.99 372.45 212.12 375.68 212.54 378.46 211.36 380.3 211.77 386.69 209.09 388.03 209.06 387.99 198.46 384.37 187.88 383.5 188.15 369.92 187.01 365.24 186.95 364.16 188.88 365.59 191.59 366.74 191.68 367.34 193.85 369.06 194.51 368.31 197.91 366.97 198.97 368.96 200.25 369.19 201.87 368.05 202.5 368.66 203.56 368.46 205.93 365.64 208.3 365.15 209.19 365.26 212.96 364.75 214.21 362.76 215.04 361.1 218.78 359.93 219.76"/><polygon class="cls-6" points="369.4 99.26 370.34 100.4 369.93 101.8 370.48 104.21 373.98 104.72 375.54 106.31 374.18 106.92 375.23 108.06 374.51 111.36 372.97 112.44 371.71 112.24 371.8 114.48 373.08 114.49 373.07 116.36 374.57 117.88 372.49 121.51 372.85 124.47 372.08 126.72 372.79 128.95 374.8 129.77 375.21 131.3 378.47 134.23 378.48 134.98 380.73 136.44 380.82 137.75 382.3 138.5 383.67 141.45 385.21 141.83 386.04 143.04 391.07 139.17 391.66 135.77 394.17 133.81 396.36 135.35 397.27 137.26 398.97 136.76 401.68 138.96 402.73 137.43 422.77 137.37 424.21 134.38 424.29 125.44 422.12 123.94 421.37 121.63 420.63 121.63 420.3 117.88 418.83 117.89 418.83 116.75 415.1 116.38 412.46 114.71 410.96 113.19 410.63 111.69 409.5 111.69 408.4 109.46 405.8 108.69 405.79 107.57 403.98 107.55 402.81 106.42 398.38 105.98 397.1 106.77 397.13 107.97 395.64 108.33 394.13 109.84 394.13 112.02 391.89 112.41 391.19 110.92 388.92 110.9 386.64 109.07 386.64 99.21 369.4 99.26"/><polygon class="cls-6" points="369.92 187.01 383.5 188.15 385 184.42 385.08 182.91 386.76 181.31 386.94 178.63 390.74 176.63 391.43 175.46 394.45 175.86 396.48 173.52 398.24 173.06 400.02 173.59 402.71 176.14 404.38 176.43 406.27 177.93 408.36 177.01 409.99 175.26 411.39 172.09 415.62 172.4 421.31 171.96 422.91 170.11 428.49 170.1 428.34 157.41 403.07 157.47 399.8 158.87 396.79 161.66 394.94 162.74 394.17 164.39 391.14 166.24 389.61 168.34 389.37 169.73 387.43 172.84 384.92 172.92 383.63 171.6 381.74 172.85 380.38 172.94 378.02 171.78 377.04 170.87 372.67 173.71 372.69 177.28 370.52 177.3 370.51 186.16 369.92 187.01"/><polygon class="cls-6" points="378.02 171.78 380.38 172.94 381.74 172.85 383.63 171.6 384.92 172.92 387.43 172.84 389.37 169.73 389.61 168.34 391.14 166.24 394.17 164.39 394.94 162.74 396.79 161.66 399.8 158.87 403.07 157.47 428.34 157.41 428.44 150.83 408.61 150.78 407.46 149.84 406.61 147.34 405.75 146.83 402.54 146.81 400.38 148.9 397.3 151.03 395.51 151.07 391.76 152.27 389.36 152.4 388.19 153.57 385.75 153.42 384.01 154.17 382.65 156.59 380.92 157.41 380.33 159.14 378.52 159.7 378.02 161.8 378.02 171.78"/><polygon class="cls-6" points="371.38 17.72 371 20.25 371.42 60.73 428.59 60.7 428.62 17.88 371.38 17.72"/><polygon class="cls-6" points="375.98 60.71 375.94 75.3 376.42 75.28 376.12 99.27 386.64 99.21 386.64 109.07 388.92 110.9 391.19 110.92 391.89 112.41 394.13 112.02 394.13 109.84 395.64 108.33 397.13 107.97 397.1 106.77 398.38 105.98 402.81 106.42 403.98 107.55 405.79 107.57 405.8 108.69 408.4 109.46 409.5 111.69 410.63 111.69 410.96 113.19 412.46 114.71 415.1 116.38 418.83 116.75 418.83 117.89 420.3 117.88 420.63 121.63 421.37 121.63 422.12 123.94 424.29 125.44 424.21 134.38 422.77 137.37 427.97 137.32 428.54 136.61 428.7 118.72 428.59 60.7 375.98 60.71"/><polygon class="cls-6" points="314.56 143.92 320.48 143.89 320.34 153.99 344.18 153.88 344.17 152.4 349.2 152.44 349.17 153.96 353.9 153.96 354.66 150.6 354.4 147.53 355.22 146.13 349.79 146.29 349.42 144.27 349.85 141.38 350.81 140.41 350.14 139.3 351.86 137.86 348.58 134.28 347.71 132.74 312.5 132.72 312.47 135.29 313.49 135.29 313.48 137.31 314.27 137.31 314.56 143.92"/><polygon class="cls-6" points="387.99 198.46 391.3 197.48 393.61 197.62 395.33 196.04 398.54 196.1 403.76 198.72 408.42 198.29 413.63 196.62 416 196.69 418.07 195.79 419.74 193.99 420.1 192.37 423.17 191.74 424.2 188.47 425.73 188.62 429.97 184.91 433.44 180.07 432.37 176.93 428.55 173.56 428.49 170.1 422.91 170.11 421.31 171.96 415.62 172.4 411.39 172.09 409.99 175.26 408.36 177.01 406.27 177.93 404.38 176.43 402.71 176.14 400.02 173.59 398.24 173.06 396.48 173.52 394.45 175.86 391.43 175.46 390.74 176.63 386.94 178.63 386.76 181.31 385.08 182.91 385 184.42 383.5 188.15 384.37 187.88 387.99 198.46"/><polygon class="cls-6" points="320.34 153.99 318.93 157.65 319.63 159.05 322.64 161.38 326.89 163.13 329.19 162.88 330.8 166.16 329.92 166.39 330.14 170.84 333.21 172.51 333.38 175.43 336.11 177.38 356.04 177.38 355.87 175.8 357.55 173.63 355.53 169.93 353.93 169.85 351.7 164.33 352.34 163.49 351.6 161.29 353.18 158.05 353.9 153.96 349.17 153.96 349.2 152.44 344.17 152.4 344.18 153.88 320.34 153.99"/><polygon class="cls-6" points="389.25 212.71 391.48 219.6 402.75 232.43 403.54 231.02 406.03 229.31 408.24 226.37 407.45 224.53 410.3 223.44 411.1 221.09 413.29 218.21 414.01 216.39 417.91 210.41 420.48 207.47 421.61 205.25 423.22 204.12 425.11 203.75 427.8 202.24 425.72 201.54 425.72 198.37 423.64 199.08 420.46 198.82 415.5 200.63 411.86 200.22 410.35 201.59 408.83 201.52 407.89 202.78 404.28 204.45 403.65 206.93 399.45 208.56 398.77 209.54 396.57 209.86 393.83 211.93 390.18 213.11 389.25 212.71"/><polygon class="cls-6" points="347.71 132.74 348.58 134.28 351.86 137.86 350.14 139.3 350.81 140.41 349.85 141.38 349.42 144.27 349.79 146.29 355.22 146.13 354.4 147.53 354.66 150.6 353.18 158.05 363.88 157.96 364.42 158.47 364.89 157.28 366.82 158 370.3 156.55 373 156.2 374.34 154.94 374.7 152.97 375.85 151.85 375.85 149.63 376.63 149.26 377.01 147.02 379.58 147.35 379.56 146.66 383.14 146.67 383.14 145.19 384.84 144.58 386.04 143.04 385.21 141.83 383.67 141.45 382.3 138.5 380.82 137.75 380.73 136.44 378.48 134.98 378.47 134.23 375.21 131.3 374.8 129.77 372.79 128.95 372.08 126.72 372.85 124.47 372.49 121.51 374.57 117.88 373.07 116.36 373.08 114.49 371.8 114.48 371.17 116.02 368.89 117.14 365.9 117.14 365.53 119.35 363.94 120.99 363.54 123.23 361.28 123.14 359.58 125.49 359.41 127.13 357.3 128.29 347.78 128.31 346.81 130.54 347.71 132.74"/><polygon class="cls-6" points="387.99 198.46 388.03 209.06 389.25 212.71 390.18 213.11 393.83 211.93 396.57 209.86 398.77 209.54 399.45 208.56 403.65 206.93 404.28 204.45 407.89 202.78 408.83 201.52 410.35 201.59 411.86 200.22 415.5 200.63 420.46 198.82 423.64 199.08 425.72 198.37 425.73 188.62 424.2 188.47 423.17 191.74 420.1 192.37 419.74 193.99 418.07 195.79 416 196.69 413.63 196.62 408.42 198.29 403.76 198.72 398.54 196.1 395.33 196.04 393.61 197.62 391.3 197.48 387.99 198.46"/><polygon class="cls-6" points="516.18 422.05 520.51 425.65 521.24 423.07 523 423.07 523.02 420.85 525.08 420.05 525.07 417.89 532.31 417.88 532.3 418.57 538.23 418.61 538.24 419.29 549.93 419.27 549.92 417.87 613.68 417.87 613.68 415.79 648.48 415.7 649.25 414.37 652.98 412.91 654.35 411.36 655.57 411.24 659.19 407.48 660.34 407.19 660.23 405.02 658.7 402.81 656.75 402.02 652.27 397.93 650.41 397.61 650.64 394.17 648.45 390.95 647.87 387.54 647.01 385.34 643.85 382.78 642.28 379.2 640.86 378.12 640.66 371.46 600.55 332.31 597.1 332.32 597.09 333.07 522.12 332.9 522.07 337.15 521.36 338.57 522.79 338.56 522.09 339.99 522.16 380.11 520.77 380.1 520.78 392.81 521.63 405.65 520.36 411.62 518.04 418.62 516.8 418.37 515.41 420.66 516.18 422.05"/><polygon class="cls-6" points="527 443.03 532.74 443.03 532.48 443.71 537.59 445.69 537.6 446.49 583.29 446.77 640.91 446.41 641.08 445.32 643.64 441.72 644.98 440.75 644.33 438.93 645.06 437.99 644.66 435.21 646.07 433.92 645.65 430.55 644.82 428.31 644.75 426.28 645.78 425.89 644.55 423.04 648.37 418.42 648.48 415.7 613.68 415.79 613.68 417.87 549.92 417.87 549.93 419.27 538.24 419.29 538.23 418.61 532.3 418.57 532.31 417.88 525.07 417.89 525.08 420.05 523.02 420.85 523 423.07 521.24 423.07 520.51 425.65 524.19 430.47 525.94 431.03 526.04 433.28 528.38 433.59 530.82 435.72 526.98 441.65 527 443.03"/><polygon class="cls-6" points="503.43 431.32 506.39 434.81 516.07 441.25 518.9 445.16 523.59 448.63 524.28 445.45 527 444.6 526.98 441.65 530.82 435.72 528.38 433.59 526.04 433.28 525.94 431.03 524.19 430.47 520.51 425.65 516.18 422.05 508.55 422.08 508.55 424.14 505.28 426.83 503.43 431.32"/><polygon class="cls-8" points="449.26 401.67 456.95 406.6 459.05 411.87 462.96 414.73 470.28 417.34 470.44 415.92 476.45 411.46 481.22 411.48 481.24 408.02 482.62 408.03 482.46 405.57 472.77 381.64 469.02 381.63 469.02 380.6 458.47 380.5 458.47 378.41 457.16 377.35 452.99 377.35 453 376.32 450.62 376.31 450.63 397.71 450.25 400.53 449.26 401.67"/><polygon class="cls-9" points="447 453.45 445.48 454.7 449.58 456.79 451.44 456.1 447 453.45"/><polygon class="cls-8" points="449.26 401.67 450.25 400.53 450.63 397.71 450.62 376.31 446.93 376.49 443.76 373.93 441.49 372.82 438.64 372.82 435.27 371.27 434.34 370 432.13 369.64 431.42 368.66 429.37 368.77 424.92 366.03 421.91 367.97 421.15 370.04 415.58 370.8 416.65 373.31 416.75 376.01 411.27 372.14 408.98 371.88 403.53 373.5 402.94 372.77 402.08 376.17 404.47 378.38 403.4 383.31 404.86 385.77 403.11 391.73 408.38 394.49 410.69 398.2 416.76 397.05 428.28 397.49 433.41 400.06 440.08 400.61 446.11 399.81 449.26 401.67"/><polygon class="cls-9" points="431.87 415.81 433.56 420.45 439.86 421.34 445.98 419.72 445.84 416.84 443.16 418.85 439.92 417.43 431.87 415.81"/><polygon class="cls-9" points="426.43 417.71 419.19 419.06 423.86 424.54 429.83 422.26 426.43 417.71"/><polygon class="cls-9" points="414.13 415.97 411.29 417.67 416.76 418.5 414.13 415.97"/><polygon class="cls-8" points="470.28 417.34 475.78 419.49 478.18 417.96 485.03 417.52 488.15 419.22 492.19 427.28 491.36 431.83 495.83 433.31 497.71 430.44 503.77 430.25 505.28 426.83 508.55 424.14 508.55 422.08 516.18 422.05 515.41 420.66 516.8 418.37 518.04 418.62 520.36 411.62 521.63 405.65 520.78 392.81 520.77 380.1 473.68 380.33 472.77 381.64 482.46 405.57 482.62 408.03 481.24 408.02 481.22 411.48 476.45 411.46 470.44 415.92 470.28 417.34"/><polygon class="cls-9" points="483.67 444.26 488.31 447.06 489.59 451.7 494.77 452.77 495.36 451 492.91 447.52 483.67 444.26"/><polygon class="cls-9" points="484.15 465.19 487.89 473.87 490.79 476.16 493.09 474.55 488.21 470.26 484.15 465.19"/><polygon class="cls-6" points="413.27 242.36 413.1 239.87 415.7 241.59 416.48 240.78 414.94 237.81 421.12 235.66 421.37 234.28 423.56 234.97 425.44 232.61 432.26 236.15 433.94 235.44 436.12 236.3 442.26 233.53 442.57 231.71 443.99 231.39 445.74 228.96 447 228.9 449.36 231.27 451.24 230.71 452.11 232.19 454.18 232.74 457.47 237.09 460.15 233.83 459.63 230.56 460.17 229.89 455.92 226.7 455.36 225.49 456.07 222.84 454.28 219.74 452.42 218.67 449.78 219.1 449.55 217.59 445.32 216.12 444.96 214.78 443.1 214.05 444.23 212.23 443.87 210.9 442.36 209.64 442.84 207.6 440.44 205.67 440.49 203.41 438.31 203.08 436.42 203.85 433.14 206.13 427.8 202.24 425.11 203.75 423.22 204.12 421.61 205.25 420.48 207.47 417.91 210.41 414.01 216.39 413.29 218.21 411.1 221.09 410.3 223.44 407.45 224.53 408.24 226.37 406.03 229.31 403.54 231.02 402.75 232.43 413.27 242.36"/><polygon class="cls-6" points="445.45 299.06 447.23 299.12 447.21 303.35 449.34 303.37 449.35 309.84 447.18 309.8 446.84 333.27 507.3 333.29 507.4 329.71 508.37 329.5 507.94 325.75 506.9 324.91 507.48 323.8 506.29 322.57 504.98 318.49 505.17 314.49 504.04 313.36 502.58 309.29 503.76 306.8 501.3 303.72 502.17 302.53 501.42 301.82 499.13 301.7 497.75 299.37 498.33 298.81 497.66 296.44 496.14 295.63 496.77 293.72 494.94 292.26 494.61 290.3 493.14 289.07 494.39 288.4 493.37 286.45 468.8 286.61 468.7 290.77 456.06 290.6 456.05 294.89 449.68 294.81 445.45 299.06"/><polygon class="cls-6" points="380.11 267.17 390.48 256.7 389.69 254.03 413.27 242.36 402.75 232.43 391.97 220.15 392.2 237.11 389.23 236.04 387.93 237 385.59 236.98 382.79 238.19 381.68 239.66 378.25 242.13 370.39 249.91 370.39 252.84 371.02 254.22 372.76 254.53 372.32 256.05 373.03 258.43 370.93 259.83 371.06 261.49 372.59 263.38 373.08 266.12 375.06 264.74 376.09 265.62 377.91 264.74 380.11 267.17"/><polygon class="cls-6" points="402.94 372.77 403.53 373.5 408.98 371.88 411.27 372.14 416.75 376.01 416.65 373.31 415.58 370.8 421.15 370.04 421.91 367.97 424.92 366.03 429.37 368.77 431.42 368.66 432.13 369.64 434.34 370 435.27 371.27 438.64 372.82 441.49 372.82 443.76 373.93 446.93 376.49 449.42 376.31 449.42 367.84 448.72 367.12 445.93 367.31 446.23 362.86 441.74 363.11 441.76 358.86 436.11 358.81 436.12 354.58 433.32 354.57 433.32 350.31 428.69 350.29 428.69 348.87 425.16 346.07 425.19 341.79 420.92 341.8 420.91 333.29 375.34 333 377.94 339.24 382.6 340.87 388.92 349.25 392.8 349.86 394.49 354.78 393.12 359.57 398.71 363.8 402.86 364.41 403.69 368.58 402.94 372.77"/><polygon class="cls-6" points="363.62 279.08 364.49 281.45 365.45 281.89 369.15 285.84 370.04 285.43 371.2 287.47 369.92 288.01 370.57 289.38 372.93 290.8 375.23 291.2 376.49 293.09 376.08 295.81 377.39 297.17 376.86 298.53 379.42 298.17 381.42 301.17 387.46 307.15 387.48 309.74 389.37 309.8 389.65 308.67 390.9 309.57 392.21 307.79 394.4 308.69 397.39 311.51 398.49 313.05 400.47 313.3 400.67 311.89 399.08 307.82 401.77 309.93 402.55 307.53 405.01 306.93 404.99 299.09 391.69 286.1 383.48 281.92 381.23 278.08 379.79 277.46 380.56 275.76 372.54 275.8 371.2 274.4 369.75 274.68 368.76 276.56 366.09 278.76 364.19 278.21 363.62 279.08"/><polygon class="cls-6" points="356.99 281.25 357.92 283.5 356.8 289.8 353.91 293.52 352.06 291.76 352.04 299.88 353.52 307.98 356.05 310.81 360.75 313.48 364.03 317.08 366.41 321.85 368.85 322.68 370.8 328.59 375.34 333 420.13 333.28 419.86 331.81 418.34 330.56 418.97 328.98 417.56 327.55 416.13 327.54 414.37 324.76 411.47 324.52 409.67 322.51 407.23 321.21 402.95 317.73 402.19 315.15 403.81 313.07 401.64 310.72 401.77 309.93 399.08 307.82 400.67 311.89 400.47 313.3 398.49 313.05 397.39 311.51 394.4 308.69 392.21 307.79 390.9 309.57 389.65 308.67 389.37 309.8 387.48 309.74 387.46 307.15 381.42 301.17 379.42 298.17 376.86 298.53 377.39 297.17 376.08 295.81 376.49 293.09 375.23 291.2 372.93 290.8 370.57 289.38 369.92 288.01 371.2 287.47 370.04 285.43 369.15 285.84 365.45 281.89 364.49 281.45 363.62 279.08 360.43 278.08 358.08 279.48 356.99 281.25"/><polygon class="cls-6" points="442.84 207.6 442.36 209.64 443.87 210.9 444.23 212.23 443.1 214.05 444.96 214.78 445.32 216.12 449.55 217.59 449.78 219.1 452.42 218.67 454.28 219.74 456.07 222.84 455.36 225.49 455.92 226.7 460.17 229.89 459.63 230.56 460.15 233.83 457.47 237.09 459.56 238.34 460.26 237.21 463.19 237.35 465.53 239.82 466.81 242.52 467.22 244.75 469.01 246.19 471.38 246.52 474.01 250.23 476.12 249.59 477 250.86 514.23 250.77 479.4 218.91 444.97 188.09 443.81 190.49 443.64 193.64 446.65 198.89 445.89 203.38 443.52 204.23 444.1 205.61 442.84 207.6"/><polygon class="cls-6" points="380.11 267.17 379.47 269.26 380.79 270.47 379.35 272.58 379.38 274.2 380.56 275.76 379.79 277.46 381.23 278.08 383.48 281.92 392.28 286.67 409.75 269.07 415.1 267.68 419.6 265.75 423.84 265.65 426.53 264.77 424.9 262.81 421.53 260.84 421.37 259.4 418.07 253.97 417.72 251.83 413.26 242.37 389.69 254.03 390.48 256.7 380.11 267.17"/><polygon class="cls-6" points="413.26 242.37 417.72 251.83 418.07 253.97 421.37 259.4 421.53 260.84 424.9 262.81 426.53 264.77 438 253.15 442.37 253.12 442.37 250.94 443.78 250.94 443.79 249.29 445.02 249.29 445.04 246.02 455.89 235.15 454.18 232.74 452.11 232.19 451.24 230.71 449.36 231.27 447 228.9 445.74 228.96 443.99 231.39 442.57 231.71 442.26 233.53 436.12 236.3 433.94 235.44 432.26 236.15 425.44 232.61 423.56 234.97 421.37 234.28 421.12 235.66 414.94 237.81 416.48 240.78 415.7 241.59 413.1 239.87 413.26 242.37"/><polygon class="cls-6" points="407.16 271.66 410.8 278.18 410.55 280.62 413.26 282.54 413.95 284.47 415.77 284.4 419.49 285.24 425.43 282.48 427.45 283 429.2 281.7 430.82 282.04 433.13 280.84 435.75 281.35 436.96 278.9 439.11 276.39 438.84 275.33 440.81 273.25 442.08 273.19 442.05 271.92 443.56 272.53 444.2 270.33 445.86 270.67 446.85 268.67 445.62 268.03 445.99 266.72 447.42 267.41 448.08 266.39 449.51 268.39 449.92 266.63 451.58 265.72 452.83 266.43 455.01 263.68 455.38 261.6 454.88 258.35 456.77 255.25 467.22 244.75 466.81 242.52 465.53 239.82 463.19 237.35 460.26 237.21 459.56 238.34 457.47 237.09 455.89 235.15 445.04 246.02 445.02 249.29 443.79 249.29 443.78 250.94 442.37 250.94 442.37 253.12 438 253.15 426.53 264.77 423.84 265.65 419.6 265.75 415.1 267.68 409.75 269.07 407.16 271.66"/><polygon class="cls-6" points="416.13 327.54 417.56 327.55 418.97 328.98 418.34 330.56 419.86 331.81 420.13 333.28 446.84 333.27 447.18 309.8 449.35 309.84 449.34 303.37 447.21 303.35 447.23 299.12 445.45 299.06 441.75 302.5 441.57 301.89 438.58 302.61 438.31 303.32 430.16 303.37 430.2 314.14 416.13 327.54"/><polygon class="cls-6" points="420.91 333.29 420.92 341.8 425.19 341.79 425.16 346.07 428.69 348.87 428.69 350.29 433.32 350.31 433.32 354.57 436.12 354.58 436.11 358.81 441.76 358.86 441.74 363.11 446.23 362.86 445.93 367.31 448.72 367.12 449.42 367.84 449.42 376.31 453 376.32 452.99 377.35 457.16 377.35 458.47 378.41 458.47 380.5 469.02 380.6 469.02 381.63 472.77 381.64 473.68 380.33 522.16 380.11 522.09 339.99 522.79 338.56 521.36 338.57 522.07 337.15 522.12 332.9 510.6 332.85 510.66 333.41 489.04 333.12 420.91 333.29"/><polygon class="cls-6" points="493.37 286.45 494.39 288.4 493.14 289.07 494.61 290.3 494.94 292.26 496.77 293.72 496.14 295.63 497.66 296.44 498.33 298.81 497.75 299.37 499.13 301.7 501.42 301.82 502.17 302.53 501.3 303.72 503.76 306.8 502.58 309.29 504.04 313.36 505.17 314.49 504.98 318.49 506.29 322.57 507.48 323.8 506.9 324.91 507.94 325.75 508.37 329.5 507.4 329.71 507.3 333.29 510.66 333.41 510.6 332.85 597.09 333.07 597.1 332.32 600.55 332.31 567.36 300.51 514.23 250.77 477 250.86 477.6 252.23 476.4 254.3 477.26 255.93 476.53 256.81 478.38 258.22 479.33 257.57 481.33 260.91 480.57 261.81 480.69 263.68 481.75 266.82 484.2 267 486.36 268.22 489.15 270.54 489.92 270.44 490.71 273.25 493.36 279.4 493.33 281.49 492.22 282.03 493.37 286.45"/><polygon class="cls-6" points="401.77 309.93 401.64 310.72 403.81 313.07 402.19 315.15 402.95 317.73 407.23 321.21 409.67 322.51 411.47 324.52 414.37 324.76 416.13 327.54 430.2 314.14 430.16 303.37 438.31 303.32 438.58 302.61 441.57 301.89 441.75 302.5 449.68 294.81 456.05 294.89 456.06 290.6 468.7 290.77 468.8 286.61 493.37 286.45 492.22 282.03 493.33 281.49 493.36 279.4 490.71 273.25 489.92 270.44 489.15 270.54 486.36 268.22 484.2 267 481.75 266.82 480.69 263.68 480.57 261.81 481.33 260.91 479.33 257.57 478.38 258.22 476.53 256.81 477.26 255.93 476.4 254.3 477.6 252.23 477 250.86 476.12 249.59 474.01 250.23 471.38 246.52 469.01 246.19 467.22 244.75 456.77 255.25 454.88 258.35 455.38 261.6 455.01 263.68 452.83 266.43 451.58 265.72 449.92 266.63 449.51 268.39 448.08 266.39 447.42 267.41 445.99 266.72 445.62 268.03 446.85 268.67 445.86 270.67 444.2 270.33 443.56 272.53 442.05 271.92 442.08 273.19 440.81 273.25 438.84 275.33 439.11 276.39 436.96 278.9 435.75 281.35 433.13 280.84 430.82 282.04 429.2 281.7 427.45 283 425.43 282.48 419.49 285.24 415.77 284.4 413.95 284.47 413.26 282.54 410.55 280.62 410.8 278.18 407.16 271.66 392.28 286.67 404.99 299.09 405.01 306.93 402.55 307.53 401.77 309.93"/><polygon class="cls-6" points="425.72 198.37 425.72 201.54 427.8 202.24 433.14 206.13 436.42 203.85 438.31 203.08 440.49 203.41 440.44 205.67 442.84 207.6 444.1 205.61 443.52 204.23 445.89 203.38 446.65 198.89 443.64 193.64 443.81 190.49 444.97 188.09 432.37 176.93 433.44 180.07 429.97 184.91 425.73 188.62 425.72 198.37"/></g><g id="Layer_6" data-name="Layer 6"><circle class="cls-10" cx="498.61" cy="418.57" r="29.28"/><circle class="cls-11" cx="498.61" cy="418.57" r="9.02"/><path class="cls-12" d="M97.8,375.34h4.64v22.23h10.88v3.92H97.8Z"/><path class="cls-12" d="M115.68,391.69c0-6.56,4.44-10.31,9.32-10.31s9.36,3.75,9.36,10.31S129.92,402,125,402,115.68,398.21,115.68,391.69Zm14,0c0-4-1.76-6.56-4.64-6.56s-4.6,2.6-4.6,6.56,1.72,6.52,4.6,6.52S129.64,395.61,129.64,391.69Z"/><path class="cls-12" d="M136.8,399.25l2.16-3a8.74,8.74,0,0,0,5.44,2.2c2.12,0,3.12-1,3.12-2.36,0-1.64-2.12-2.36-4.2-3.16-2.6-1-5.52-2.44-5.52-5.72,0-3.44,2.76-5.87,7.16-5.87a10.66,10.66,0,0,1,6.52,2.35l-2.12,2.8a7.31,7.31,0,0,0-4.32-1.68c-2,0-2.88.92-2.88,2.16,0,1.56,2,2.16,4.08,2.92,2.68,1,5.64,2.28,5.64,6,0,3.36-2.68,6.08-7.64,6.08A12.44,12.44,0,0,1,136.8,399.25Z"/><path class="cls-12" d="M169.52,375.34H175l8.52,26.15H178.6l-2-7.08h-8.8l-2,7.08H161Zm-.68,15.43h6.68l-.92-3.2c-.84-2.76-1.6-5.76-2.36-8.63h-.16c-.72,2.91-1.48,5.87-2.32,8.63Z"/><path class="cls-12" d="M186.32,381.85h3.8l.32,2.64h.16c1.76-1.72,3.76-3.11,6.44-3.11,4.2,0,6,2.84,6,7.79v12.32h-4.6V389.77c0-3.24-.92-4.44-3.08-4.44-1.72,0-2.84.84-4.48,2.44v13.72h-4.6Z"/><path class="cls-12" d="M207.4,405.05c0-1.64,1-3.08,2.8-4.2v-.16a3.69,3.69,0,0,1-1.76-3.28,4.74,4.74,0,0,1,2.16-3.64v-.16a6.63,6.63,0,0,1-2.56-5.2c0-4.52,3.64-7,7.76-7a9.14,9.14,0,0,1,2.88.47h7v3.4h-3.6a5.25,5.25,0,0,1,1.12,3.32c0,4.36-3.28,6.68-7.44,6.68a7.24,7.24,0,0,1-2.68-.52,2.26,2.26,0,0,0-1,1.88c0,1.12.8,1.8,3.2,1.8h3.48c4.72,0,7.2,1.44,7.2,4.84,0,3.88-4.08,6.92-10.48,6.92C210.88,410.17,207.4,408.49,207.4,405.05Zm14.2-1c0-1.52-1.24-2-3.48-2h-2.68a10.4,10.4,0,0,1-2.68-.28,3.3,3.3,0,0,0-1.52,2.6c0,1.76,1.92,2.8,5,2.8S221.6,405.69,221.6,404Zm-2.4-15.6c0-2.44-1.48-3.88-3.4-3.88s-3.44,1.4-3.44,3.88,1.52,4,3.44,4S219.2,390.93,219.2,388.41Z"/><path class="cls-12" d="M227.6,391.69c0-6.4,4.44-10.31,9-10.31,5.32,0,8.12,3.83,8.12,9.31a10.72,10.72,0,0,1-.2,2.24H232.08c.4,3.48,2.64,5.48,5.8,5.48a8.2,8.2,0,0,0,4.56-1.44l1.56,2.88a12.39,12.39,0,0,1-6.72,2.12C231.84,402,227.6,398.17,227.6,391.69Zm13.16-1.88c0-3-1.32-4.87-4-4.87-2.32,0-4.32,1.71-4.72,4.87Z"/><path class="cls-12" d="M249.16,396.45V373.26h4.6v23.43c0,1.12.52,1.52,1,1.52a2.76,2.76,0,0,0,.72-.08l.6,3.44a6.28,6.28,0,0,1-2.44.4C250.36,402,249.16,399.85,249.16,396.45Z"/><path class="cls-12" d="M258.72,391.69c0-6.4,4.44-10.31,9-10.31,5.32,0,8.12,3.83,8.12,9.31a10.72,10.72,0,0,1-.2,2.24H263.2c.4,3.48,2.64,5.48,5.8,5.48a8.2,8.2,0,0,0,4.56-1.44l1.56,2.88A12.39,12.39,0,0,1,268.4,402C263,402,258.72,398.17,258.72,391.69Zm13.16-1.88c0-3-1.32-4.87-4-4.87-2.32,0-4.32,1.71-4.72,4.87Z"/><path class="cls-12" d="M278.32,399.25l2.16-3a8.74,8.74,0,0,0,5.44,2.2c2.12,0,3.12-1,3.12-2.36,0-1.64-2.12-2.36-4.2-3.16-2.6-1-5.52-2.44-5.52-5.72,0-3.44,2.76-5.87,7.16-5.87a10.66,10.66,0,0,1,6.52,2.35l-2.12,2.8a7.31,7.31,0,0,0-4.32-1.68c-2,0-2.88.92-2.88,2.16,0,1.56,2,2.16,4.08,2.92,2.68,1,5.64,2.28,5.64,6,0,3.36-2.68,6.08-7.64,6.08A12.44,12.44,0,0,1,278.32,399.25Z"/><path class="cls-12" d="M159.25,414.6h4.2c4.8,0,7.63,2.59,7.63,7.77s-2.83,7.92-7.49,7.92h-4.34Zm4,13.44c3.17,0,5-1.8,5-5.67s-1.8-5.52-5-5.52H162V428Z"/><path class="cls-12" d="M173.7,414.88a1.71,1.71,0,1,1,1.7,1.56A1.58,1.58,0,0,1,173.7,414.88Zm.31,3.63h2.76v11.78H174Z"/><path class="cls-12" d="M179.12,429l1.3-1.78a5.2,5.2,0,0,0,3.26,1.32c1.27,0,1.87-.6,1.87-1.41,0-1-1.27-1.42-2.52-1.9-1.56-.58-3.31-1.46-3.31-3.43s1.66-3.53,4.3-3.53a6.33,6.33,0,0,1,3.91,1.42l-1.27,1.68a4.41,4.41,0,0,0-2.59-1c-1.18,0-1.73.55-1.73,1.29,0,.94,1.17,1.3,2.44,1.76,1.61.6,3.39,1.36,3.39,3.57,0,2-1.61,3.65-4.59,3.65A7.5,7.5,0,0,1,179.12,429Z"/><path class="cls-12" d="M190.57,426.31v-5.62h-1.68v-2.06l1.82-.12.34-3.22h2.3v3.22h3v2.18h-3v5.62c0,1.39.53,2.06,1.66,2.06a3.4,3.4,0,0,0,1.22-.26l.48,2a7.63,7.63,0,0,1-2.4.43C191.58,430.58,190.57,428.85,190.57,426.31Z"/><path class="cls-12" d="M198.83,418.51h2.28l.19,2.09h.09a4,4,0,0,1,3.34-2.38,3,3,0,0,1,1.34.24l-.48,2.4a3.81,3.81,0,0,0-1.22-.19c-.94,0-2.06.65-2.78,2.42v7.2h-2.76Z"/><path class="cls-12" d="M207.46,414.88a1.71,1.71,0,1,1,1.71,1.56A1.59,1.59,0,0,1,207.46,414.88Zm.32,3.63h2.76v11.78h-2.76Z"/><path class="cls-12" d="M213.3,424.41a5.81,5.81,0,0,1,5.9-6.19,5.12,5.12,0,0,1,3.46,1.32l-1.35,1.8a2.87,2.87,0,0,0-2-.86c-1.89,0-3.21,1.56-3.21,3.93s1.29,3.91,3.14,3.91a3.93,3.93,0,0,0,2.43-1l1.13,1.82a5.9,5.9,0,0,1-3.84,1.44C215.77,430.58,213.3,428.32,213.3,424.41Z"/><path class="cls-12" d="M225.32,426.31v-5.62h-1.68v-2.06l1.82-.12.34-3.22h2.3v3.22h3v2.18h-3v5.62c0,1.39.53,2.06,1.66,2.06a3.4,3.4,0,0,0,1.22-.26l.48,2a7.63,7.63,0,0,1-2.4.43C226.33,430.58,225.32,428.85,225.32,426.31Z"/></g></svg>