<svg xmlns="http://www.w3.org/2000/svg" xmlns:xlink="http://www.w3.org/1999/xlink" viewBox="0 0 781.32 496.46"><defs><style>.cls-1,.cls-6,.cls-8,.cls-9{fill:none;}.cls-2{fill:#e6e6e6;}.cls-3,.cls-7{opacity:0.8;}.cls-4,.cls-7{fill:#007dbc;}.cls-5{clip-path:url(#clip-path);}.cls-6{stroke:#f0f0f0;stroke-width:2.54px;}.cls-6,.cls-9{stroke-miterlimit:10;}.cls-8{stroke:#0675af;stroke-linejoin:bevel;stroke-width:0.64px;}.cls-9{stroke:#fff;stroke-width:3px;}.cls-10{fill:#fff;}</style><clipPath id="clip-path"><rect class="cls-1" x="25" y="-34.33" width="731.33" height="565.12"/></clipPath></defs><g id="Layer_1" data-name="Layer 1"><rect class="cls-2" x="-13.93" y="-31" width="813.74" height="570"/><g class="cls-3"><path class="cls-4" d="M411.79,82.55h7c8,0,12.72,4.31,12.72,13s-4.72,13.2-12.48,13.2h-7.24Zm6.68,22.39c5.28,0,8.28-3,8.28-9.44s-3-9.2-8.28-9.2h-2v18.64Z"/><path class="cls-4" d="M435.11,98.9c0-6.4,4.44-10.32,9-10.32,5.32,0,8.12,3.84,8.12,9.32a10.72,10.72,0,0,1-.2,2.24H439.59c.4,3.48,2.64,5.48,5.8,5.48a8.2,8.2,0,0,0,4.56-1.44l1.56,2.88a12.39,12.39,0,0,1-6.72,2.12C439.35,109.18,435.11,105.38,435.11,98.9ZM448.27,97c0-3-1.32-4.88-4-4.88-2.32,0-4.32,1.72-4.72,4.88Z"/><path class="cls-4" d="M456.67,103.66V80.47h4.6V103.9c0,1.12.52,1.52,1,1.52a2.76,2.76,0,0,0,.72-.08l.6,3.44a6.28,6.28,0,0,1-2.44.4C457.87,109.18,456.67,107.06,456.67,103.66Z"/><path class="cls-4" d="M466.47,103.42c0-4.2,3.48-6.4,11.56-7.28-.08-2.08-.92-3.84-3.6-3.84a11.19,11.19,0,0,0-5.52,1.92l-1.68-3.08a15.36,15.36,0,0,1,8.08-2.56c4.88,0,7.32,3,7.32,8.48V108.7h-3.8l-.32-2.16h-.16a9.56,9.56,0,0,1-6.08,2.64A5.49,5.49,0,0,1,466.47,103.42Zm11.56,0V99c-5.36.68-7.12,2.08-7.12,4,0,1.76,1.2,2.52,2.84,2.52S476.55,104.78,478,103.42Z"/><path class="cls-4" d="M486.19,89.06h4.64l2.36,10.2c.4,1.88.68,3.72,1,5.64h.16c.36-1.92.76-3.8,1.24-5.64l2.56-10.2h4.2l2.6,10.2c.48,1.88.88,3.72,1.32,5.64h.16c.36-1.92.68-3.76,1-5.64l2.36-10.2h4.32l-5,19.64h-5.48l-2.28-9.16c-.44-1.84-.76-3.64-1.2-5.72h-.16c-.36,2.08-.72,3.92-1.16,5.76l-2.24,9.12h-5.28Z"/><path class="cls-4" d="M516.63,103.42c0-4.2,3.48-6.4,11.56-7.28-.08-2.08-.92-3.84-3.6-3.84a11.19,11.19,0,0,0-5.52,1.92l-1.68-3.08a15.36,15.36,0,0,1,8.08-2.56c4.88,0,7.32,3,7.32,8.48V108.7H529l-.32-2.16h-.16a9.56,9.56,0,0,1-6.08,2.64A5.49,5.49,0,0,1,516.63,103.42Zm11.56,0V99c-5.36.68-7.12,2.08-7.12,4,0,1.76,1.2,2.52,2.84,2.52S526.71,104.78,528.19,103.42Z"/><path class="cls-4" d="M538.31,89.06h3.8l.32,3.48h.16c1.4-2.56,3.48-4,5.56-4a5,5,0,0,1,2.24.4l-.8,4a6.42,6.42,0,0,0-2-.32c-1.56,0-3.44,1.08-4.64,4v12h-4.6Z"/><path class="cls-4" d="M551.55,98.9c0-6.4,4.44-10.32,9-10.32,5.32,0,8.12,3.84,8.12,9.32a10.72,10.72,0,0,1-.2,2.24H556c.4,3.48,2.64,5.48,5.8,5.48a8.2,8.2,0,0,0,4.56-1.44l1.56,2.88a12.39,12.39,0,0,1-6.72,2.12C555.79,109.18,551.55,105.38,551.55,98.9ZM564.71,97c0-3-1.32-4.88-4-4.88-2.32,0-4.32,1.72-4.72,4.88Z"/><path class="cls-4" d="M455.1,121.41h4.08c4.65,0,7.4,2.51,7.4,7.54s-2.75,7.69-7.26,7.69H455.1Zm3.89,13c3.07,0,4.82-1.75,4.82-5.5s-1.75-5.35-4.82-5.35H457.8v10.85Z"/><path class="cls-4" d="M469.12,121.69a1.66,1.66,0,1,1,1.65,1.51A1.53,1.53,0,0,1,469.12,121.69Zm.3,3.51h2.68v11.44h-2.68Z"/><path class="cls-4" d="M474.38,135.33l1.25-1.72a5.13,5.13,0,0,0,3.17,1.28c1.23,0,1.82-.58,1.82-1.37,0-1-1.24-1.38-2.45-1.84-1.51-.56-3.21-1.42-3.21-3.33s1.61-3.43,4.17-3.43a6.17,6.17,0,0,1,3.79,1.38l-1.23,1.63a4.28,4.28,0,0,0-2.52-1c-1.14,0-1.67.54-1.67,1.26,0,.91,1.14,1.25,2.37,1.7,1.56.58,3.28,1.32,3.28,3.47,0,2-1.55,3.54-4.44,3.54A7.21,7.21,0,0,1,474.38,135.33Z"/><path class="cls-4" d="M485.48,132.77v-5.45h-1.63v-2l1.77-.12.33-3.12h2.23v3.12h2.91v2.12h-2.91v5.45c0,1.35.51,2,1.61,2a3.28,3.28,0,0,0,1.19-.25l.46,2a7.3,7.3,0,0,1-2.33.42C486.46,136.92,485.48,135.24,485.48,132.77Z"/><path class="cls-4" d="M493.49,125.2h2.21l.19,2H496a3.9,3.9,0,0,1,3.24-2.31,2.79,2.79,0,0,1,1.3.24l-.46,2.33a3.67,3.67,0,0,0-1.19-.19c-.91,0-2,.63-2.7,2.35v7h-2.68Z"/><path class="cls-4" d="M501.87,121.69a1.66,1.66,0,1,1,1.65,1.51A1.54,1.54,0,0,1,501.87,121.69Zm.3,3.51h2.68v11.44h-2.68Z"/><path class="cls-4" d="M507.53,130.93a5.63,5.63,0,0,1,5.72-6,5,5,0,0,1,3.36,1.28L515.3,128a2.8,2.8,0,0,0-1.91-.84c-1.83,0-3.12,1.52-3.12,3.82s1.26,3.8,3.05,3.8a3.82,3.82,0,0,0,2.36-1l1.09,1.77a5.71,5.71,0,0,1-3.72,1.4C509.92,136.92,507.53,134.73,507.53,130.93Z"/><path class="cls-4" d="M519.19,132.77v-5.45h-1.63v-2l1.77-.12.33-3.12h2.23v3.12h2.91v2.12h-2.91v5.45c0,1.35.51,2,1.61,2a3.33,3.33,0,0,0,1.19-.25l.46,2a7.3,7.3,0,0,1-2.33.42C520.17,136.92,519.19,135.24,519.19,132.77Z"/></g></g><g id="Star"><g class="cls-5"><polygon class="cls-6" points="349.37 49.63 347.43 55.56 341.19 55.56 346.24 59.23 344.31 65.16 349.37 61.49 354.41 65.16 352.48 59.23 357.54 55.56 351.29 55.56 349.37 49.63"/><polygon class="cls-7" points="305.89 349.09 313.09 465.16 399.71 467.7 471.54 467.92 468.27 426.93 449.85 395.51 464.56 391.58 461.66 358.69 436.89 356.04 406.99 312.07 389.99 307.07 384.88 320.89 364.17 325.5 355.66 340.54 347.13 346.95 305.89 349.09"/><polygon class="cls-8" points="305.88 349.09 313.09 465.15 399.71 467.7 471.54 467.92 468.27 426.93 449.85 395.51 464.56 391.57 461.65 358.68 436.89 356.03 406.99 312.06 389.99 307.06 384.88 320.88 364.17 325.49 355.66 340.53 347.13 346.94 305.88 349.09"/><polygon class="cls-7" points="289.71 65.23 289.63 87.03 296.74 200.9 322.63 202.55 337.61 197.18 357.78 178.96 338 146.84 344.64 116.46 332.64 96.61 345.63 85.85 369.04 44.06 379.57 38.23 368.01 31.96 341.03 27.95 337.42 28.4 320.5 33.46 302.54 48.03 293.3 65.27 289.71 65.23"/><polygon class="cls-8" points="289.7 65.23 289.63 87.03 296.74 200.89 322.63 202.54 337.61 197.17 357.78 178.96 338 146.84 344.65 116.46 332.64 96.61 345.63 85.84 369.04 44.05 379.57 38.23 368.01 31.95 341.03 27.95 337.42 28.4 320.5 33.46 302.54 48.02 293.3 65.26 289.7 65.23"/><polygon class="cls-7" points="296.74 200.9 305.89 349.09 347.13 346.95 355.66 340.54 364.17 325.5 384.88 320.89 389.99 307.07 406.99 312.07 399.26 287.89 384.75 274.12 386.99 230.15 375.93 195.65 357.78 178.96 337.61 197.18 322.63 202.55 296.74 200.9"/><polygon class="cls-8" points="296.74 200.89 305.88 349.09 347.13 346.94 355.66 340.53 364.17 325.49 384.88 320.88 389.99 307.06 406.99 312.06 399.26 287.89 384.75 274.12 386.99 230.14 375.93 195.65 357.78 178.96 337.61 197.17 322.63 202.54 296.74 200.89"/></g><circle class="cls-9" cx="346.24" cy="51.1" r="26.39"/><circle class="cls-10" cx="346.24" cy="51.1" r="8.13"/></g></svg>