<svg xmlns="http://www.w3.org/2000/svg" xmlns:xlink="http://www.w3.org/1999/xlink" viewBox="0 0 784.06 507.87"><defs><style>.cls-1,.cls-10,.cls-5,.cls-7{fill:none;}.cls-2{fill:#e6e6e6;}.cls-3{clip-path:url(#clip-path);}.cls-4{fill:#a5a5a5;}.cls-5{stroke:#868788;stroke-width:0.64px;}.cls-5,.cls-7{stroke-linejoin:bevel;}.cls-6,.cls-8{fill:#007dbc;}.cls-6{opacity:0.8;}.cls-7{stroke:#0675af;stroke-width:0.67px;}.cls-8,.cls-9{opacity:0.8;}.cls-9{fill:#868788;}.cls-10{stroke:#fff;stroke-miterlimit:10;stroke-width:3px;}.cls-11{fill:#fff;}</style><clipPath id="clip-path"><rect class="cls-1" x="80.89" y="33.55" width="658.12" height="523.12"/></clipPath></defs><g id="Layer_3" data-name="Layer 3"><rect class="cls-2" x="-10.43" y="-9.71" width="804.92" height="529.99"/></g><g id="Layer_1" data-name="Layer 1"><g class="cls-3"><polygon class="cls-4" points="436.99 318.96 442.66 334.36 447.67 328.12 453.83 326.5 462.13 328.19 467.81 326.97 483.55 334.27 484.44 344.3 489.37 347.06 493.67 333.96 490.95 330.84 491.74 323 489.71 317.86 491.87 311.33 488.17 306.57 488.81 299.45 494.16 284.14 491.22 280.56 489.92 270.04 483.46 261.45 471.21 254.47 470.88 249.28 464.34 244.39 450.38 268.69 448.84 273.33 461.49 286.08 443.8 303.78 443.26 316.55 436.99 318.96"/><polygon class="cls-5" points="436.99 318.96 442.66 334.36 447.67 328.12 453.83 326.5 462.13 328.19 467.81 326.97 483.55 334.27 484.44 344.3 489.37 347.06 493.67 333.96 490.95 330.84 491.74 323 489.71 317.86 491.87 311.34 488.17 306.57 488.81 299.45 494.16 284.14 491.22 280.56 489.91 270.04 483.46 261.44 471.2 254.47 470.88 249.28 464.33 244.39 450.37 268.69 448.84 273.33 461.49 286.08 443.8 303.78 443.26 316.55 436.99 318.96"/><polygon class="cls-4" points="386.74 228.72 380.12 235.55 377.48 243.58 383.72 248.83 386.24 253.96 404.78 257.36 415.82 263.44 417.26 271.51 428.65 273.37 432.87 278.84 443.59 268.12 448.84 273.33 450.38 268.69 464.34 244.39 449.55 238.18 447.89 231.11 438 221.74 431.4 220.27 423.75 208 426.2 205.3 386.74 228.72"/><polygon class="cls-5" points="386.74 228.72 380.11 235.55 377.47 243.58 383.72 248.83 386.24 253.97 404.78 257.36 415.82 263.44 417.26 271.51 428.65 273.37 432.87 278.84 443.58 268.12 448.84 273.33 450.37 268.69 464.33 244.39 449.55 238.18 447.88 231.1 438 221.74 431.4 220.27 423.75 208 426.2 205.3 386.74 228.72"/><polygon class="cls-6" points="636.34 442.21 669.87 438.58 675.87 422.84 691.4 398.66 699.01 400.18 708.33 384.19 703.61 373.39 709.09 363.04 674.85 362.92 678.14 371.22 676.42 375.2 679.51 379.8 673.13 386.56 671.66 390.96 637.88 392.98 638.86 398.12 647.01 410.28 642.8 416.26 647.69 425.74 642.21 429.41 637.27 428.59 631.24 433.97 636.34 442.21"/><polygon class="cls-7" points="636.34 442.21 669.87 438.58 675.87 422.84 691.4 398.66 699.01 400.18 708.33 384.18 703.61 373.39 709.09 363.04 674.85 362.92 678.14 371.22 676.42 375.2 679.51 379.8 673.13 386.56 671.66 390.96 637.88 392.97 638.86 398.12 647.01 410.28 642.8 416.27 647.69 425.74 642.21 429.41 637.26 428.6 631.24 433.97 636.34 442.21"/><polygon class="cls-6" points="617.82 391.74 626.8 395.04 631.13 389.49 637.88 392.98 671.66 390.96 673.13 386.56 679.51 379.8 676.42 375.2 678.14 371.22 674.85 362.92 626.93 361.51 625.82 344.02 619.93 348 617.2 353.45 609.57 357.41 607.97 374.23 596 395.47 599.28 401.64 617.82 391.74"/><polygon class="cls-7" points="617.82 391.74 626.8 395.04 631.13 389.49 637.88 392.97 671.66 390.96 673.13 386.56 679.51 379.8 676.42 375.2 678.14 371.22 674.85 362.92 626.92 361.51 625.82 344.02 619.93 348 617.2 353.45 609.56 357.41 607.97 374.23 596 395.47 599.28 401.64 617.82 391.74"/><polygon class="cls-6" points="266.47 140.24 270.48 145.6 263.81 151.54 267.69 155.34 277.04 158.44 278.53 154.77 288.36 145.01 302.56 149.68 310.06 158.41 312.19 161.62 318.26 160.33 321.54 163.81 328.45 159.41 335.15 160.78 334.77 168.12 328.7 170.47 331.32 176.38 336.82 176.53 336.83 180.66 345.04 180.63 340.62 183.24 343.24 185.9 339.87 190.58 346.7 193.01 346.33 208.75 351.34 210.97 357.04 210.39 365.34 184.93 364.4 179.52 367.84 172.3 371.58 158.32 377.18 156.11 382.1 148.35 379.99 146.99 385.34 140.64 266.47 140.24"/><polygon class="cls-7" points="266.46 140.24 270.48 145.6 263.81 151.53 267.69 155.34 277.04 158.44 278.53 154.77 288.36 145.01 302.56 149.68 310.06 158.41 312.19 161.62 318.26 160.33 321.54 163.81 328.45 159.41 335.15 160.78 334.77 168.12 328.7 170.47 331.32 176.38 336.82 176.53 336.83 180.66 345.04 180.63 340.62 183.23 343.24 185.9 339.87 190.58 346.7 193.01 346.33 208.75 351.34 210.97 357.04 210.38 365.34 184.93 364.4 179.51 367.84 172.3 371.58 158.32 377.18 156.11 382.1 148.36 379.99 146.99 385.34 140.64 266.46 140.24"/><polygon class="cls-6" points="571.47 277.6 571.3 287.01 558.38 294.24 561.55 310.78 549.03 293.3 538.64 311.2 548.28 318.15 551.33 307.92 557.88 324.57 581.84 340.73 591.79 324.31 585.62 309.76 599.26 299.68 595.05 295.52 592.08 287.5 592.15 281.64 572.94 276.99 571.47 277.6"/><polygon class="cls-7" points="571.47 277.6 571.3 287.01 558.38 294.25 561.55 310.77 549.03 293.3 538.64 311.2 548.28 318.15 551.33 307.91 557.88 324.57 581.84 340.73 591.79 324.31 585.62 309.76 599.26 299.68 595.05 295.52 592.08 287.5 592.15 281.64 572.94 276.99 571.47 277.6"/><polygon class="cls-6" points="466.61 373.86 476.13 398 482.89 402.78 504.28 403.87 522.68 417.1 524.73 412.13 537.41 432.08 541.6 432.85 532.81 403.54 534.55 389.6 522.34 389.92 516.55 378.62 505.83 372.75 489.97 354.82 479.79 353.03 473.53 366.05 466.61 373.86"/><polygon class="cls-7" points="466.61 373.86 476.13 398 482.89 402.78 504.28 403.87 522.68 417.1 524.73 412.13 537.41 432.08 541.6 432.85 532.81 403.54 534.55 389.59 522.34 389.92 516.55 378.62 505.83 372.75 489.97 354.82 479.79 353.03 473.53 366.05 466.61 373.86"/><polygon class="cls-6" points="617.82 391.74 594.38 415.49 611.4 416.94 599.05 445.62 603.82 450.09 620.98 444.17 631.09 447.88 636.34 442.21 631.24 433.97 637.27 428.59 642.21 429.41 647.69 425.74 642.8 416.26 647.01 410.28 638.86 398.12 637.88 392.98 631.13 389.49 626.8 395.04 617.82 391.74"/><polygon class="cls-6" points="585.88 449.23 584.82 449.21 584.43 449.21 585.88 449.23"/><polygon class="cls-7" points="617.82 391.74 594.38 415.49 611.4 416.94 599.05 445.63 603.82 450.1 620.98 444.17 631.09 447.88 636.34 442.21 631.24 433.97 637.26 428.6 642.21 429.41 647.69 425.74 642.8 416.27 647.01 410.28 638.86 398.12 637.88 392.97 631.13 389.49 626.8 395.04 617.82 391.74"/><polygon class="cls-7" points="585.88 449.23 584.82 449.21 584.43 449.21 585.88 449.23"/><polygon class="cls-6" points="571.47 277.6 572.94 276.99 592.15 281.64 592.68 272.84 601.2 262.46 607.63 248.32 619.55 242.25 618.41 224.19 612.87 225.05 603.59 221.44 593.29 225.52 583.82 225.34 577.15 230.93 579.51 238.72 560.16 259.24 562.96 265.58 554.77 272.86 559.11 287.06 569.62 284.81 571.47 277.6"/><polygon class="cls-6" points="544.27 261.74 536.98 275.08 550.12 281.54 551.4 272.6 544.27 261.74"/><polygon class="cls-7" points="571.47 277.6 572.94 276.99 592.15 281.64 592.68 272.84 601.2 262.46 607.63 248.32 619.55 242.25 618.41 224.19 612.87 225.05 603.59 221.44 593.29 225.52 583.82 225.34 577.15 230.93 579.51 238.72 560.16 259.24 562.96 265.58 554.77 272.86 559.11 287.06 569.62 284.81 571.47 277.6"/><polygon class="cls-7" points="544.27 261.74 536.98 275.08 550.12 281.54 551.4 272.6 544.27 261.74"/><polygon class="cls-6" points="618.41 224.19 617.01 201.08 611.1 200.67 597.33 203.81 570.13 202.05 559.93 211.41 547.48 241.57 553.9 257.15 575.06 243.13 577.15 230.93 583.82 225.34 593.29 225.52 603.59 221.44 612.87 225.05 618.41 224.19"/><polygon class="cls-7" points="618.41 224.19 617.01 201.08 611.1 200.67 597.33 203.81 570.13 202.05 559.93 211.41 547.48 241.56 553.9 257.15 575.06 243.13 577.15 230.93 583.82 225.34 593.29 225.52 603.59 221.44 612.87 225.05 618.41 224.19"/><polygon class="cls-6" points="464.34 244.39 470.88 249.28 477.45 245.51 483.66 235.86 490.27 229.88 477.14 220.62 479.25 215.22 476.98 212.13 469.41 211.92 465.22 205.9 453.3 203.44 446.09 205.78 437.64 202.77 426.2 205.3 423.75 208 431.4 220.27 438 221.74 447.89 231.11 449.55 238.18 464.34 244.39"/><polygon class="cls-7" points="464.33 244.39 470.88 249.28 477.45 245.51 483.66 235.86 490.27 229.88 477.14 220.62 479.25 215.22 476.98 212.13 469.41 211.91 465.22 205.9 453.3 203.44 446.09 205.78 437.64 202.77 426.2 205.3 423.75 208 431.4 220.27 438 221.74 447.88 231.1 449.55 238.18 464.33 244.39"/><polygon class="cls-6" points="507.75 140.43 508.32 159.29 512.81 171.74 525.77 179.15 532.61 186.62 535.43 196.4 546.22 202.45 550.76 189.77 554.16 205.94 577.05 188.52 568.65 180.84 573.67 171.12 552.35 140.38 507.75 140.43"/><polygon class="cls-7" points="507.75 140.43 508.32 159.29 512.81 171.74 525.76 179.14 532.61 186.62 535.43 196.4 546.22 202.45 550.76 189.77 554.16 205.94 577.05 188.52 568.65 180.84 573.67 171.12 552.35 140.38 507.75 140.43"/><polygon class="cls-6" points="110.8 231.23 119.37 227.51 123.54 221.5 134 213.97 137.59 214.8 142.13 204.7 147.93 203.53 150.04 199.39 154.63 199.35 162.87 188.59 162.67 184.08 167.84 183.02 186.41 140.15 112.19 140.45 111.41 173.91 110.8 231.23"/><polygon class="cls-7" points="110.8 231.23 119.37 227.5 123.53 221.5 134 213.97 137.59 214.8 142.13 204.7 147.93 203.53 150.04 199.39 154.63 199.35 162.87 188.59 162.67 184.08 167.84 183.03 186.41 140.15 112.19 140.45 111.41 173.91 110.8 231.23"/><polygon class="cls-6" points="357.04 210.39 365.5 214.31 371.8 213.6 375.6 220.87 382.86 223.96 386.74 228.72 426.29 205.22 429.18 193.72 434.65 180.93 421.87 165.61 410.05 161.02 406.88 154.84 411.63 156.22 417.27 148.14 419.75 140.66 385.34 140.64 379.99 146.99 382.1 148.35 377.18 156.11 371.58 158.32 367.84 172.3 364.4 179.52 365.34 184.93 357.04 210.39"/><polygon class="cls-7" points="357.04 210.38 365.5 214.31 371.8 213.61 375.6 220.87 382.86 223.96 386.74 228.72 426.29 205.22 429.18 193.72 434.65 180.92 421.87 165.61 410.05 161.02 406.88 154.84 411.63 156.22 417.27 148.14 419.75 140.66 385.34 140.64 379.99 146.99 382.1 148.36 377.18 156.11 371.58 158.32 367.84 172.3 364.4 179.51 365.34 184.93 357.04 210.38"/><polygon class="cls-6" points="609.57 357.41 617.2 353.45 619.93 348 625.82 344.02 625.03 331.02 617.51 322.16 612.65 323.89 612.37 320.3 599.26 319.76 593.7 323.75 587.2 340.33 579.02 343.79 561.22 332.32 552.66 332.76 544.11 341.85 558.23 349.36 545.85 359.9 570.87 388.78 577.12 401.34 576.67 388.4 583.4 376.31 590.2 384.98 584.26 388.61 591.54 398.97 597.06 381.93 603.82 378.98 609.57 357.41"/><polygon class="cls-6" points="546.22 353.97 540.12 359.22 545.26 367.42 546.22 353.97"/><polygon class="cls-7" points="609.56 357.41 617.2 353.45 619.93 348 625.82 344.02 625.03 331.02 617.51 322.17 612.65 323.89 612.37 320.3 599.26 319.76 593.7 323.75 587.2 340.33 579.02 343.8 561.22 332.32 552.66 332.76 544.11 341.84 558.23 349.36 545.85 359.89 570.87 388.78 577.11 401.35 576.67 388.4 583.4 376.31 590.2 384.98 584.26 388.61 591.53 398.97 597.06 381.93 603.82 378.98 609.56 357.41"/><polygon class="cls-7" points="546.22 353.97 540.12 359.22 545.26 367.42 546.22 353.97"/><polygon class="cls-6" points="431.52 331.14 411.86 357.78 415.08 374.9 420.92 378.91 436.76 370.61 443.71 358.02 452.13 381.96 459.22 390.24 471.85 393.91 466.61 373.86 473.53 366.05 479.79 353.03 489.97 354.82 489.37 347.06 484.44 344.3 483.55 334.27 467.81 326.97 462.13 328.19 453.83 326.5 447.67 328.12 442.66 334.36 436.99 318.96 431.15 324.27 431.52 331.14"/><polygon class="cls-7" points="431.52 331.14 411.86 357.78 415.08 374.9 420.92 378.91 436.75 370.61 443.71 358.02 452.13 381.96 459.22 390.24 471.85 393.91 466.61 373.86 473.53 366.05 479.79 353.03 489.97 354.82 489.37 347.06 484.44 344.3 483.55 334.27 467.81 326.97 462.13 328.19 453.83 326.5 447.67 328.12 442.66 334.36 436.99 318.96 431.15 324.27 431.52 331.14"/><polygon class="cls-6" points="554.72 140.4 565.17 156.77 578.88 171.28 589.3 169.34 585.75 187.71 596.68 179.07 580.07 199.46 600.75 203.63 611.1 200.67 617.01 201.08 613.95 152.31 613.99 140.25 554.72 140.4"/><polygon class="cls-7" points="554.72 140.4 565.17 156.76 578.88 171.28 589.3 169.34 585.75 187.71 596.68 179.07 580.07 199.46 600.75 203.63 611.1 200.67 617.01 201.08 613.94 152.31 613.99 140.25 554.72 140.4"/><polygon class="cls-6" points="426.29 205.22 437.64 202.77 446.09 205.78 453.3 203.44 465.22 205.9 463.44 192.12 478.13 140.5 419.75 140.66 417.27 148.14 411.63 156.22 406.88 154.84 410.05 161.02 421.87 165.61 434.65 180.93 429.18 193.72 426.29 205.22"/><polygon class="cls-7" points="426.29 205.22 437.64 202.77 446.09 205.78 453.3 203.44 465.22 205.9 463.44 192.12 478.13 140.5 419.75 140.66 417.27 148.14 411.63 156.22 406.88 154.84 410.05 161.02 421.87 165.61 434.65 180.92 429.18 193.72 426.29 205.22"/><polygon class="cls-6" points="593.7 323.75 599.26 319.76 612.37 320.3 612.65 323.89 617.51 322.16 625.03 331.02 619.55 242.25 607.63 248.32 601.2 262.46 592.68 272.84 592.08 287.5 595.05 295.52 599.26 299.68 585.62 309.76 593.7 323.75"/><polygon class="cls-7" points="593.7 323.75 599.26 319.76 612.37 320.3 612.65 323.89 617.51 322.17 625.03 331.02 619.55 242.25 607.63 248.32 601.2 262.46 592.68 272.84 592.08 287.5 595.05 295.52 599.26 299.68 585.62 309.76 593.7 323.75"/><polygon class="cls-6" points="491.87 311.33 489.71 317.86 491.74 323 490.95 330.84 493.67 333.96 494.72 352.74 507.19 367.89 513.93 369.75 527.85 385.99 533.28 374.31 518.53 358.02 514.98 349.24 513.32 317.54 501.49 316.17 500.45 308.02 491.87 311.33"/><polygon class="cls-7" points="491.87 311.34 489.71 317.86 491.74 323 490.95 330.84 493.67 333.96 494.72 352.73 507.19 367.89 513.93 369.75 527.85 385.99 533.28 374.31 518.53 358.02 514.98 349.24 513.32 317.54 501.49 316.17 500.44 308.02 491.87 311.34"/><polygon class="cls-6" points="501.04 225.71 507.49 218.83 513.17 225.21 513.14 202.03 488.44 202.06 488.47 218.6 501.04 225.71"/><polygon class="cls-7" points="501.04 225.71 507.49 218.83 513.17 225.2 513.14 202.03 488.45 202.07 488.47 218.6 501.04 225.71"/><polygon class="cls-6" points="465.22 205.9 469.41 211.92 476.98 212.13 479.25 215.22 477.14 220.62 490.27 229.88 500.58 226.29 501.04 225.71 488.47 218.6 488.44 202.06 513.14 202.03 513.17 225.21 527.45 231.32 530.46 213.27 540.26 208.5 535.43 196.45 532.61 186.62 525.77 179.15 512.81 171.74 508.32 159.29 507.75 140.43 478.13 140.5 463.44 192.12 465.22 205.9"/><polygon class="cls-7" points="465.22 205.9 469.41 211.91 476.98 212.13 479.25 215.22 477.14 220.62 490.27 229.88 500.58 226.29 501.04 225.71 488.47 218.6 488.45 202.07 513.14 202.03 513.17 225.2 527.45 231.32 530.46 213.27 540.26 208.51 535.43 196.45 532.61 186.62 525.76 179.14 512.81 171.74 508.32 159.29 507.75 140.43 478.13 140.5 463.44 192.12 465.22 205.9"/><polygon class="cls-6" points="470.88 249.28 471.21 254.47 483.46 261.45 489.92 270.04 491.22 280.56 494.16 284.14 488.81 299.45 488.17 306.57 491.87 311.33 500.45 308.02 501.49 316.17 513.32 317.54 508.39 307.67 517.49 299.69 511.07 296.83 518.58 287.08 508.65 275.69 522.72 282.19 520.08 270.55 531.63 265.32 514.15 254.47 527.68 252.28 526.89 244.27 514.61 238.04 512.72 230.91 506.68 231.3 505.85 230.98 501.15 225.77 500.58 226.29 490.27 229.88 483.66 235.86 477.45 245.51 470.88 249.28"/><polygon class="cls-7" points="470.88 249.28 471.2 254.47 483.46 261.44 489.91 270.04 491.22 280.56 494.16 284.14 488.81 299.45 488.17 306.57 491.87 311.34 500.44 308.02 501.49 316.17 513.32 317.54 508.39 307.67 517.49 299.69 511.07 296.83 518.58 287.08 508.65 275.69 522.72 282.19 520.08 270.55 531.63 265.32 514.14 254.47 527.68 252.28 526.9 244.27 514.61 238.04 512.72 230.91 506.68 231.3 505.85 230.98 501.15 225.76 500.58 226.29 490.27 229.88 483.66 235.86 477.45 245.51 470.88 249.28"/><polygon class="cls-6" points="167.84 183.02 183.1 189.79 182.61 186.09 188.26 181.98 198.97 167.71 205.51 155.09 213.35 159.31 207.23 161.52 210.29 165.28 223.68 173.31 229.01 172.65 236.14 176.09 249.35 176.57 250.89 170.43 256.4 170.89 251.25 166.35 252.86 163.42 257.85 165.63 255.58 157.56 261.4 160.4 261.44 156.64 267.69 155.34 263.81 151.54 270.48 145.6 266.47 140.24 186.41 140.15 167.84 183.02"/><polygon class="cls-7" points="167.84 183.03 183.1 189.79 182.61 186.09 188.26 181.99 198.97 167.71 205.51 155.09 213.35 159.31 207.22 161.51 210.29 165.28 223.67 173.31 229.01 172.65 236.14 176.09 249.35 176.57 250.89 170.43 256.4 170.89 251.25 166.35 252.86 163.42 257.85 165.63 255.58 157.56 261.4 160.4 261.44 156.64 267.69 155.34 263.81 151.53 270.48 145.6 266.46 140.24 186.41 140.15 167.84 183.03"/></g><path class="cls-8" d="M310,48.62h8.36c5.4,0,9.36,1.64,9.36,6.44a5.9,5.9,0,0,1-3.64,5.68v.16a6,6,0,0,1,5,6.2c0,5.23-4.28,7.67-10,7.67h-9Zm8,10.8c3.64,0,5.2-1.44,5.2-3.68,0-2.56-1.72-3.52-5.12-3.52h-3.4v7.2Zm.6,11.75c3.84,0,6-1.4,6-4.31s-2.08-4-6-4h-3.92v8.27Z"/><path class="cls-8" d="M332.41,69.49c0-4.19,3.48-6.39,11.56-7.27-.08-2.08-.92-3.84-3.6-3.84a11.19,11.19,0,0,0-5.52,1.92l-1.68-3.08a15.36,15.36,0,0,1,8.08-2.56c4.88,0,7.32,3,7.32,8.48V74.77h-3.8l-.32-2.16h-.16a9.56,9.56,0,0,1-6.08,2.64A5.49,5.49,0,0,1,332.41,69.49Zm11.56,0V65.1c-5.36.68-7.12,2.08-7.12,4,0,1.76,1.2,2.52,2.84,2.52S342.49,70.85,344,69.49Z"/><path class="cls-8" d="M354.09,69.73V46.54h4.6V70c0,1.12.52,1.52,1,1.52a2.76,2.76,0,0,0,.72-.08l.6,3.44a6.28,6.28,0,0,1-2.44.4C355.29,75.25,354.09,73.13,354.09,69.73Z"/><path class="cls-8" d="M365.61,68.14V58.78h-2.8V55.34l3-.2.56-5.36h3.84v5.36h5v3.64h-5v9.36c0,2.31.88,3.43,2.76,3.43a5.63,5.63,0,0,0,2-.44l.8,3.4a12.54,12.54,0,0,1-4,.72C367.29,75.25,365.61,72.37,365.61,68.14Z"/><path class="cls-8" d="M378.85,49.1a2.85,2.85,0,1,1,2.84,2.6A2.64,2.64,0,0,1,378.85,49.1Zm.52,6H384V74.77h-4.6Z"/><path class="cls-8" d="M389.85,55.14h3.8l.32,2.68h.16c1.64-1.76,3.56-3.16,6-3.16a5.34,5.34,0,0,1,5.44,3.52c1.88-2,3.84-3.52,6.32-3.52,4.16,0,6.08,2.84,6.08,7.8V74.77h-4.64V63.06c0-3.24-1-4.44-3-4.44-1.24,0-2.6.8-4.12,2.44V74.77h-4.6V63.06c0-3.24-1-4.44-3-4.44-1.2,0-2.6.8-4.12,2.44V74.77h-4.6Z"/><path class="cls-8" d="M422.29,65c0-6.56,4.44-10.32,9.32-10.32S441,58.42,441,65s-4.44,10.27-9.36,10.27S422.29,71.49,422.29,65Zm14,0c0-4-1.76-6.56-4.64-6.56S427,61,427,65s1.72,6.51,4.6,6.51S436.25,68.9,436.25,65Z"/><path class="cls-8" d="M445.53,55.14h3.8l.32,3.48h.16c1.4-2.56,3.48-4,5.56-4a5,5,0,0,1,2.24.4l-.8,4a6.42,6.42,0,0,0-2-.32c-1.56,0-3.44,1.08-4.64,4v12h-4.6Z"/><path class="cls-8" d="M458.77,65c0-6.4,4.44-10.32,9-10.32,5.32,0,8.12,3.84,8.12,9.32a10.72,10.72,0,0,1-.2,2.24H463.25c.4,3.47,2.64,5.47,5.8,5.47a8.2,8.2,0,0,0,4.56-1.44l1.56,2.88a12.39,12.39,0,0,1-6.72,2.12C463,75.25,458.77,71.45,458.77,65Zm13.16-1.88c0-3-1.32-4.88-4-4.88-2.32,0-4.32,1.72-4.72,4.88Z"/><path class="cls-8" d="M356.74,87.88h4.2c4.8,0,7.63,2.59,7.63,7.77s-2.83,7.92-7.48,7.92h-4.35Zm4,13.44c3.17,0,5-1.8,5-5.67s-1.8-5.52-5-5.52h-1.23v11.19Z"/><path class="cls-8" d="M371.19,88.17a1.71,1.71,0,1,1,1.7,1.55A1.59,1.59,0,0,1,371.19,88.17Zm.31,3.62h2.76v11.78H371.5Z"/><path class="cls-8" d="M376.61,102.23l1.3-1.78a5.22,5.22,0,0,0,3.26,1.32c1.27,0,1.88-.6,1.88-1.41,0-1-1.28-1.42-2.53-1.9C379,97.89,377.21,97,377.21,95s1.66-3.53,4.3-3.53a6.33,6.33,0,0,1,3.91,1.42l-1.27,1.68a4.41,4.41,0,0,0-2.59-1c-1.18,0-1.73.55-1.73,1.3,0,.93,1.18,1.29,2.45,1.75,1.61.6,3.38,1.37,3.38,3.57,0,2-1.61,3.65-4.58,3.65A7.47,7.47,0,0,1,376.61,102.23Z"/><path class="cls-8" d="M388.06,99.59V94h-1.68V91.91l1.83-.12.33-3.22h2.31v3.22h3V94h-3v5.62c0,1.39.52,2.06,1.65,2.06a3.51,3.51,0,0,0,1.23-.26l.48,2a7.46,7.46,0,0,1-2.4.43C389.07,103.86,388.06,102.13,388.06,99.59Z"/><path class="cls-8" d="M396.32,91.79h2.28l.19,2.09h.1a4,4,0,0,1,3.33-2.38,3,3,0,0,1,1.35.24l-.48,2.4a3.87,3.87,0,0,0-1.23-.19c-.93,0-2.06.65-2.78,2.42v7.2h-2.76Z"/><path class="cls-8" d="M405,88.17a1.71,1.71,0,1,1,1.7,1.55A1.59,1.59,0,0,1,405,88.17Zm.31,3.62H408v11.78h-2.76Z"/><path class="cls-8" d="M410.79,97.69a5.81,5.81,0,0,1,5.9-6.19,5.08,5.08,0,0,1,3.46,1.32l-1.34,1.8a2.91,2.91,0,0,0-2-.86c-1.9,0-3.22,1.56-3.22,3.93s1.3,3.92,3.15,3.92a3.93,3.93,0,0,0,2.42-1l1.13,1.82a5.9,5.9,0,0,1-3.84,1.44C413.26,103.86,410.79,101.61,410.79,97.69Z"/><path class="cls-8" d="M422.81,99.59V94h-1.68V91.91l1.83-.12.33-3.22h2.31v3.22h3V94h-3v5.62c0,1.39.53,2.06,1.65,2.06a3.51,3.51,0,0,0,1.23-.26l.48,2a7.46,7.46,0,0,1-2.4.43C423.82,103.86,422.81,102.13,422.81,99.59Z"/><path class="cls-9" d="M199.52,279.18h2.14l1,5.94c.2,1.26.39,2.52.57,3.76h.08c.25-1.24.5-2.52.77-3.76l1.44-5.94h1.82l1.44,5.94c.27,1.22.52,2.5.79,3.76h.07c.18-1.26.38-2.52.56-3.76l1-5.94h2L211,291h-2.6L207,284.76c-.2-.92-.38-1.82-.53-2.72h-.07c-.16.9-.34,1.8-.54,2.72L204.4,291h-2.54Z"/><path class="cls-9" d="M214.19,288.57c0-1.89,1.57-2.88,5.2-3.27,0-.94-.41-1.73-1.62-1.73a5,5,0,0,0-2.48.86l-.76-1.38a6.84,6.84,0,0,1,3.64-1.16c2.2,0,3.29,1.35,3.29,3.82V291h-1.71l-.14-1h-.07a4.37,4.37,0,0,1-2.74,1.19A2.47,2.47,0,0,1,214.19,288.57Zm5.2,0v-2c-2.41.31-3.2.94-3.2,1.82s.54,1.14,1.28,1.14A2.77,2.77,0,0,0,219.39,288.57Z"/><path class="cls-9" d="M223.06,289.94l1-1.33a3.92,3.92,0,0,0,2.44,1c1,0,1.41-.45,1.41-1.06s-1-1.06-1.89-1.42c-1.17-.44-2.49-1.1-2.49-2.58s1.25-2.65,3.23-2.65a4.76,4.76,0,0,1,2.93,1.07l-.95,1.26a3.34,3.34,0,0,0-1.95-.76c-.88,0-1.29.41-1.29,1s.88,1,1.83,1.32c1.21.45,2.54,1,2.54,2.68,0,1.51-1.21,2.74-3.44,2.74A5.65,5.65,0,0,1,223.06,289.94Z"/><path class="cls-9" d="M231.7,278.24h2.07v3.28l-.07,1.71a4,4,0,0,1,2.83-1.34c1.89,0,2.72,1.28,2.72,3.52V291h-2.07v-5.27c0-1.46-.42-2-1.39-2a2.81,2.81,0,0,0-2,1.09V291H231.7Z"/><path class="cls-9" d="M241.51,279.39a1.29,1.29,0,1,1,1.28,1.17A1.19,1.19,0,0,1,241.51,279.39Zm.24,2.72h2.07V291h-2.07Z"/><path class="cls-9" d="M246.46,282.11h1.71l.15,1.19h.07a4.08,4.08,0,0,1,2.9-1.41c1.89,0,2.72,1.28,2.72,3.52V291h-2.07v-5.27c0-1.46-.42-2-1.39-2a2.81,2.81,0,0,0-2,1.09V291h-2.07Z"/><path class="cls-9" d="M256,292.55a2.28,2.28,0,0,1,1.26-1.89v-.07a1.67,1.67,0,0,1-.79-1.48,2.11,2.11,0,0,1,1-1.63v-.08a3,3,0,0,1-1.15-2.34,3.21,3.21,0,0,1,3.49-3.17,3.88,3.88,0,0,1,1.3.22h3.17v1.53h-1.63a2.34,2.34,0,0,1,.51,1.49c0,2-1.48,3-3.35,3a3.32,3.32,0,0,1-1.21-.23,1,1,0,0,0-.43.84c0,.51.36.81,1.44.81h1.57c2.12,0,3.24.65,3.24,2.18,0,1.75-1.84,3.12-4.72,3.12C257.52,294.86,256,294.1,256,292.55Zm6.39-.47c0-.68-.56-.88-1.57-.88h-1.2a4.71,4.71,0,0,1-1.21-.12,1.47,1.47,0,0,0-.68,1.17c0,.79.86,1.26,2.27,1.26S262.34,292.84,262.34,292.08Zm-1.08-7a1.55,1.55,0,1,0-3.08,0,1.56,1.56,0,1,0,3.08,0Z"/><path class="cls-9" d="M266.21,288v-4.21H265V282.2l1.37-.09.25-2.41h1.73v2.41h2.25v1.64H268.3V288c0,1.05.39,1.55,1.24,1.55a2.48,2.48,0,0,0,.92-.2l.36,1.53a5.72,5.72,0,0,1-1.8.33C267,291.17,266.21,289.87,266.21,288Z"/><path class="cls-9" d="M271.54,286.54c0-3,2-4.65,4.19-4.65s4.21,1.7,4.21,4.65-2,4.63-4.21,4.63S271.54,289.47,271.54,286.54Zm6.28,0c0-1.78-.79-3-2.09-3s-2.07,1.17-2.07,3,.77,2.93,2.07,2.93S277.82,288.3,277.82,286.54Z"/><path class="cls-9" d="M282,282.11h1.72l.14,1.19h.07a4.08,4.08,0,0,1,2.9-1.41c1.89,0,2.72,1.28,2.72,3.52V291h-2.07v-5.27c0-1.46-.42-2-1.39-2a2.81,2.81,0,0,0-2,1.09V291H282Z"/><path class="cls-9" d="M295.85,279.18h2.36l2.09,5.76c.25.74.51,1.53.76,2.3h.07c.25-.77.49-1.56.74-2.3l2-5.76h2.38V291h-1.93v-5.38c0-1.1.16-2.67.27-3.75h-.07l-.95,2.74-1.93,5.29h-1.24l-1.95-5.29-.93-2.74h-.08c.09,1.08.27,2.65.27,3.75V291h-1.89Z"/><path class="cls-9" d="M308.51,286.54c0-2.88,2-4.65,4.07-4.65,2.39,0,3.65,1.73,3.65,4.2a4.46,4.46,0,0,1-.09,1h-5.62a2.53,2.53,0,0,0,2.61,2.46,3.74,3.74,0,0,0,2.06-.64l.7,1.29a5.58,5.58,0,0,1-3,1A4.26,4.26,0,0,1,308.51,286.54Zm5.92-.85c0-1.37-.59-2.19-1.8-2.19a2.21,2.21,0,0,0-2.12,2.19Z"/><path class="cls-9" d="M318.34,288v-4.21h-1.26V282.2l1.36-.09.26-2.41h1.72v2.41h2.26v1.64h-2.26V288c0,1.05.4,1.55,1.25,1.55a2.57,2.57,0,0,0,.92-.2l.36,1.53a5.72,5.72,0,0,1-1.8.33C319.09,291.17,318.34,289.87,318.34,288Z"/><path class="cls-9" d="M324.53,282.11h1.71l.14,1.57h.08a3,3,0,0,1,2.5-1.79,2.34,2.34,0,0,1,1,.18l-.36,1.8a2.91,2.91,0,0,0-.92-.14c-.7,0-1.55.49-2.09,1.82V291h-2.07Z"/><path class="cls-9" d="M330.49,286.54c0-3,2-4.65,4.19-4.65s4.21,1.7,4.21,4.65-2,4.63-4.21,4.63S330.49,289.47,330.49,286.54Zm6.28,0c0-1.78-.79-3-2.09-3s-2.07,1.17-2.07,3,.77,2.93,2.07,2.93S336.77,288.3,336.77,286.54Z"/><path class="cls-9" d="M340.94,282.11h1.71l.15.94h.07a4.32,4.32,0,0,1,2.67-1.16c2.19,0,3.47,1.77,3.47,4.51,0,3-1.82,4.77-3.78,4.77a3.56,3.56,0,0,1-2.27-1l.05,1.48v2.77h-2.07Zm5.93,4.3c0-1.76-.58-2.81-1.91-2.81a2.87,2.87,0,0,0-1.95,1v4.13a2.83,2.83,0,0,0,1.79.74C346,289.46,346.87,288.41,346.87,286.41Z"/><path class="cls-9" d="M350.52,286.54c0-3,2-4.65,4.2-4.65s4.21,1.7,4.21,4.65a4.22,4.22,0,1,1-8.41,0Zm6.28,0c0-1.78-.79-3-2.08-3s-2.07,1.17-2.07,3,.77,2.93,2.07,2.93S356.8,288.3,356.8,286.54Z"/><path class="cls-9" d="M361,288.68V278.24h2.07v10.55c0,.5.23.68.45.68a1.44,1.44,0,0,0,.32,0l.27,1.55a3,3,0,0,1-1.09.18C361.52,291.17,361,290.21,361,288.68Z"/><path class="cls-9" d="M365.62,279.39a1.29,1.29,0,1,1,1.28,1.17A1.19,1.19,0,0,1,365.62,279.39Zm.24,2.72h2.07V291h-2.07Z"/><path class="cls-9" d="M370.88,288v-4.21h-1.26V282.2l1.37-.09.25-2.41H373v2.41h2.25v1.64H373V288c0,1.05.39,1.55,1.24,1.55a2.48,2.48,0,0,0,.92-.2l.36,1.53a5.72,5.72,0,0,1-1.8.33C371.63,291.17,370.88,289.87,370.88,288Z"/><path class="cls-9" d="M376.22,288.57c0-1.89,1.57-2.88,5.21-3.27,0-.94-.42-1.73-1.62-1.73a5,5,0,0,0-2.49.86l-.75-1.38a6.83,6.83,0,0,1,3.63-1.16c2.2,0,3.3,1.35,3.3,3.82V291h-1.71l-.15-1h-.07a4.33,4.33,0,0,1-2.74,1.19A2.48,2.48,0,0,1,376.22,288.57Zm5.21,0v-2c-2.42.31-3.21.94-3.21,1.82s.54,1.14,1.28,1.14A2.81,2.81,0,0,0,381.43,288.57Z"/><path class="cls-9" d="M386,282.11h1.71l.14,1.19h.08a4.08,4.08,0,0,1,2.9-1.41c1.89,0,2.71,1.28,2.71,3.52V291h-2.07v-5.27c0-1.46-.41-2-1.38-2a2.79,2.79,0,0,0-2,1.09V291H386Z"/><path class="cls-9" d="M253.62,300.78h2.45l3.83,11.77h-2.19l-.92-3.19h-4l-.92,3.19h-2.13Zm-.31,7h3l-.41-1.44c-.38-1.25-.72-2.6-1.07-3.89h-.07c-.32,1.31-.66,2.64-1,3.89Z"/><path class="cls-9" d="M261.18,303.71h1.71l.14,1.57h.08a3,3,0,0,1,2.5-1.79,2.34,2.34,0,0,1,1,.18l-.36,1.8a2.91,2.91,0,0,0-.92-.14c-.7,0-1.55.49-2.09,1.82v5.4h-2.07Z"/><path class="cls-9" d="M267.14,308.14c0-2.88,2-4.65,4.07-4.65,2.39,0,3.65,1.73,3.65,4.2a4.53,4.53,0,0,1-.09,1h-5.62a2.53,2.53,0,0,0,2.61,2.46,3.74,3.74,0,0,0,2.06-.64l.7,1.29a5.59,5.59,0,0,1-3,1C269,312.77,267.14,311.06,267.14,308.14Zm5.92-.85c0-1.37-.59-2.19-1.8-2.19a2.23,2.23,0,0,0-2.13,2.19Z"/><path class="cls-9" d="M276.16,310.17c0-1.89,1.56-2.88,5.2-3.27,0-.94-.42-1.73-1.62-1.73a5,5,0,0,0-2.49.86l-.75-1.38a6.83,6.83,0,0,1,3.63-1.16c2.2,0,3.3,1.35,3.3,3.82v5.24h-1.71l-.15-1h-.07a4.27,4.27,0,0,1-2.73,1.19A2.47,2.47,0,0,1,276.16,310.17Zm5.2,0v-2c-2.41.31-3.21.94-3.21,1.82s.54,1.14,1.28,1.14A2.81,2.81,0,0,0,281.36,310.17Z"/><path class="cls-9" d="M289.69,300.78h3.15c3.6,0,5.73,1.94,5.73,5.83s-2.13,5.94-5.62,5.94h-3.26Zm3,10.08c2.37,0,3.72-1.35,3.72-4.25s-1.35-4.14-3.72-4.14h-.92v8.39Z"/><path class="cls-9" d="M300.53,301a1.28,1.28,0,1,1,1.27,1.17A1.19,1.19,0,0,1,300.53,301Zm.23,2.72h2.07v8.84h-2.07Z"/><path class="cls-9" d="M304.59,311.54l1-1.33a3.94,3.94,0,0,0,2.45,1c1,0,1.4-.45,1.4-1.06s-.95-1.06-1.89-1.42c-1.17-.44-2.49-1.1-2.49-2.58s1.25-2.65,3.23-2.65a4.76,4.76,0,0,1,2.93,1.07l-.95,1.26a3.29,3.29,0,0,0-1.95-.76c-.88,0-1.29.41-1.29,1,0,.71.88,1,1.83,1.32,1.21.45,2.54,1,2.54,2.68s-1.2,2.74-3.44,2.74A5.59,5.59,0,0,1,304.59,311.54Z"/><path class="cls-9" d="M313.18,309.56v-4.21h-1.26V303.8l1.37-.09.25-2.41h1.73v2.41h2.25v1.64h-2.25v4.21c0,1.05.4,1.55,1.24,1.55a2.48,2.48,0,0,0,.92-.2l.36,1.53a5.72,5.72,0,0,1-1.8.33C313.94,312.77,313.18,311.47,313.18,309.56Z"/><path class="cls-9" d="M319.37,303.71h1.71l.15,1.57h.07a3,3,0,0,1,2.5-1.79,2.34,2.34,0,0,1,1,.18l-.36,1.8a2.91,2.91,0,0,0-.92-.14c-.7,0-1.55.49-2.09,1.82v5.4h-2.07Z"/><path class="cls-9" d="M325.85,301a1.29,1.29,0,1,1,1.28,1.17A1.19,1.19,0,0,1,325.85,301Zm.24,2.72h2.07v8.84h-2.07Z"/><path class="cls-9" d="M330.23,308.14a4.37,4.37,0,0,1,4.43-4.65,3.85,3.85,0,0,1,2.59,1l-1,1.35a2.18,2.18,0,0,0-1.48-.64c-1.42,0-2.41,1.17-2.41,2.95s1,2.93,2.36,2.93a3,3,0,0,0,1.82-.75l.84,1.37a4.41,4.41,0,0,1-2.88,1.08C332.08,312.77,330.23,311.07,330.23,308.14Z"/><path class="cls-9" d="M339.24,309.56v-4.21H338V303.8l1.37-.09.25-2.41h1.73v2.41h2.25v1.64h-2.25v4.21c0,1.05.4,1.55,1.24,1.55a2.48,2.48,0,0,0,.92-.2l.36,1.53a5.67,5.67,0,0,1-1.8.33C340,312.77,339.24,311.47,339.24,309.56Z"/></g><g id="Layer_2" data-name="Layer 2"><circle class="cls-10" cx="501.15" cy="214.47" r="29.28"/><circle class="cls-11" cx="501.15" cy="214.47" r="9.02"/></g></svg>