<svg xmlns="http://www.w3.org/2000/svg" xmlns:xlink="http://www.w3.org/1999/xlink" viewBox="0 0 784.06 507.87"><defs><style>.cls-1,.cls-10,.cls-11,.cls-13,.cls-5,.cls-7{fill:none;}.cls-2{fill:#e6e6e6;}.cls-3{clip-path:url(#clip-path);}.cls-4,.cls-8{fill:#007dbc;}.cls-4,.cls-6{opacity:0.8;}.cls-10,.cls-11,.cls-5{stroke:#0675af;}.cls-5,.cls-7{stroke-linejoin:bevel;stroke-width:0.67px;}.cls-6{fill:#a5a5a5;}.cls-7{stroke:#868788;}.cls-8,.cls-9{opacity:0.8;}.cls-9{fill:#868788;}.cls-10{stroke-linejoin:round;}.cls-10,.cls-11{stroke-width:4px;}.cls-11,.cls-13{stroke-miterlimit:10;}.cls-12{fill:#fff;}.cls-13{stroke:#fff;stroke-width:3px;}</style><clipPath id="clip-path"><rect class="cls-1" x="48.92" y="-5.83" width="658.12" height="523.12"/></clipPath></defs><g id="State"><rect class="cls-2" x="-8.04" y="-12.54" width="804.92" height="529.99"/><g class="cls-3"><polygon class="cls-4" points="602.88 299.28 603.01 327.57 630.98 327.57 631.03 322.95 634.68 323 628.7 309.52 625.94 299.39 602.88 299.28"/><polygon class="cls-5" points="602.88 299.28 603.01 327.57 630.98 327.57 631.03 322.95 634.68 323 628.7 309.52 625.94 299.39 602.88 299.28"/><polygon class="cls-4" points="468.43 312.89 477.58 339.69 483.53 348.38 490.58 348.44 490.6 341.43 504.69 341.5 504.76 327.43 490.72 327.34 490.81 313.12 468.43 312.89"/><polygon class="cls-5" points="468.43 312.89 477.58 339.69 483.53 348.38 490.58 348.44 490.61 341.43 504.69 341.5 504.76 327.43 490.72 327.34 490.81 313.12 468.43 312.89"/><polygon class="cls-4" points="504.92 292.21 569.92 292.47 569.65 287.05 565.25 278.17 563.62 276.41 558.35 274.78 557.77 270.06 556.11 267.81 550.48 263.68 547.29 259.9 553.05 262.78 555.38 256.88 547.61 256.82 547.59 252.18 542.7 252.19 542.71 247.48 540.33 242.76 533.22 242.77 533.22 235.66 523.71 235.71 523.69 234.47 518.94 234.46 518.95 235.75 511.81 235.81 511.8 238.8 507.68 237.55 504.8 238.51 504.79 242.79 501.22 242.78 501.24 249.85 504.78 249.86 504.92 292.21"/><polygon class="cls-5" points="504.92 292.21 569.92 292.47 569.65 287.05 565.25 278.17 563.62 276.41 558.35 274.78 557.77 270.06 556.11 267.81 550.48 263.68 547.29 259.9 553.05 262.78 555.38 256.88 547.61 256.82 547.59 252.18 542.7 252.19 542.71 247.48 540.33 242.76 533.22 242.77 533.22 235.66 523.71 235.71 523.69 234.47 518.94 234.46 518.95 235.75 511.81 235.81 511.8 238.8 507.68 237.55 504.8 238.51 504.79 242.79 501.22 242.78 501.24 249.85 504.78 249.86 504.92 292.21"/><polygon class="cls-4" points="462.57 262.28 462.38 249.72 452.81 249.78 452.08 264.53 448.3 273.53 449.4 276.99 462.14 287.88 466.25 274.61 457.4 268.85 462.57 262.28"/><polygon class="cls-5" points="462.57 262.28 462.38 249.72 452.81 249.78 452.08 264.53 448.3 273.53 449.41 276.99 462.14 287.88 466.25 274.61 457.4 268.85 462.57 262.28"/><polygon class="cls-4" points="461.26 228.65 460.59 228.66 456.94 241.73 452.81 249.78 501.24 249.85 501.22 242.78 504.79 242.79 504.85 225.02 490.73 225.01 490.73 228.55 461.26 228.65"/><polygon class="cls-5" points="461.26 228.65 460.59 228.66 456.94 241.73 452.81 249.78 501.24 249.85 501.22 242.78 504.79 242.79 504.85 225.02 490.73 225.01 490.73 228.55 461.26 228.65"/><polygon class="cls-4" points="588.52 397.19 635.16 397.12 645.99 398.2 648.72 359.08 645.59 346.42 641.21 346.38 641.2 347.54 588.21 347.35 588.52 397.19"/><polygon class="cls-5" points="588.52 397.19 635.16 397.12 645.99 398.2 648.72 359.08 645.6 346.42 641.21 346.38 641.2 347.54 588.21 347.35 588.52 397.19"/><polygon class="cls-4" points="569.92 292.47 589.09 292.54 588.5 278.03 589.4 278.03 589.83 235.63 533.22 235.66 533.22 242.77 540.33 242.76 542.71 247.48 542.7 252.19 547.59 252.18 547.61 256.82 555.38 256.88 553.05 262.78 547.29 259.9 550.48 263.68 556.11 267.81 557.77 270.06 558.35 274.78 563.62 276.41 565.25 278.17 569.65 287.05 569.92 292.47"/><polygon class="cls-5" points="569.92 292.47 589.09 292.54 588.5 278.03 589.4 278.03 589.83 235.63 533.22 235.66 533.22 242.77 540.33 242.76 542.71 247.48 542.7 252.19 547.59 252.18 547.61 256.82 555.38 256.88 553.05 262.78 547.29 259.9 550.48 263.68 556.11 267.81 557.77 270.06 558.35 274.78 563.62 276.41 565.25 278.17 569.65 287.05 569.92 292.47"/><polygon class="cls-4" points="584.11 327.2 589.24 331.65 588.21 347.35 603.05 334.33 602.88 299.28 595.94 299.26 595.88 292.47 569.92 292.47 569.9 296.13 564.98 301.49 565.44 304.8 570.15 309.29 569.95 311.04 573.03 313.67 577.56 315.27 576.76 316.78 579.73 319.82 582.16 326.65 584.11 327.2"/><polygon class="cls-5" points="584.11 327.2 589.24 331.65 588.21 347.35 603.05 334.33 602.88 299.28 595.94 299.27 595.88 292.47 569.92 292.47 569.9 296.13 564.98 301.49 565.44 304.8 570.15 309.29 569.95 311.04 573.03 313.67 577.56 315.27 576.76 316.78 579.73 319.82 582.16 326.65 584.11 327.2"/><polygon class="cls-4" points="627.62 480.17 626.08 486.66 620.34 484.09 625.12 489.49 632.23 476.6 627.62 480.17"/><polygon class="cls-4" points="590.16 488.76 589.88 473.98 589.09 473.99 589.1 439.12 559.12 439.24 564.09 445.83 560.17 448.25 568.16 465.49 569.37 472.07 577.29 476.37 582.82 476.54 587.12 483.1 585.01 486.12 578.59 485.47 570.99 476.56 567.95 485.35 574.12 493.52 585.62 491.46 590.16 488.76"/><polygon class="cls-4" points="558.33 447.57 558.99 439.39 554.08 441.78 558.33 447.57"/><polygon class="cls-4" points="551.49 439.27 551.78 439.28 551.61 439.27 551.49 439.27"/><polygon class="cls-4" points="551.78 439.28 551.97 439.29 551.86 439.28 551.78 439.28"/><polygon class="cls-4" points="548.67 439.3 549.08 439.29 548.96 439.29 548.67 439.3"/><polygon class="cls-4" points="549.08 439.29 549.24 439.29 549.49 439.28 549.08 439.29"/><polygon class="cls-5" points="627.62 480.17 626.08 486.66 620.34 484.09 625.12 489.5 632.23 476.6 627.62 480.17"/><polygon class="cls-5" points="590.16 488.76 589.88 473.98 589.09 473.99 589.1 439.12 559.12 439.24 564.09 445.83 560.17 448.25 568.16 465.49 569.37 472.07 577.29 476.37 582.82 476.54 587.12 483.1 585.01 486.12 578.59 485.47 570.99 476.56 567.95 485.35 574.12 493.52 585.62 491.46 590.16 488.76"/><polygon class="cls-5" points="558.33 447.57 558.99 439.39 554.08 441.78 558.33 447.57"/><polygon class="cls-5" points="551.49 439.27 551.78 439.28 551.61 439.27 551.49 439.27"/><polygon class="cls-5" points="551.78 439.28 551.97 439.29 551.86 439.28 551.78 439.28"/><polygon class="cls-5" points="548.67 439.3 549.08 439.29 548.96 439.29 548.67 439.3"/><polygon class="cls-5" points="549.08 439.29 549.24 439.29 549.48 439.28 549.08 439.29"/><polygon class="cls-4" points="589.1 439.12 589.09 473.99 589.88 473.98 590.16 488.76 598.48 491.45 608.22 486.71 616.6 486.34 616.6 485.94 620.34 484.09 621.07 484.06 629.2 473.32 627.04 463.35 634.7 445.01 637.86 442.85 639.14 434.18 642.91 425.67 630.29 426.03 630.3 427.12 602.86 427.12 602.86 425.39 589.12 425.33 589.1 439.12"/><polygon class="cls-5" points="589.1 439.12 589.09 473.99 589.88 473.98 590.16 488.76 598.48 491.45 608.22 486.7 616.6 486.35 616.6 485.94 620.34 484.09 621.07 484.06 629.2 473.32 627.04 463.35 634.7 445.01 637.85 442.85 639.14 434.18 642.91 425.67 630.29 426.03 630.3 427.12 602.86 427.12 602.86 425.39 589.12 425.33 589.1 439.12"/><polygon class="cls-4" points="588.21 347.35 641.2 347.54 641.21 346.38 645.59 346.42 640.09 331.02 630.99 327.2 630.98 327.57 603.01 327.57 603.05 334.33 588.21 347.35"/><polygon class="cls-4" points="634.68 323 631.03 322.95 631.01 325.57 634.68 323"/><polygon class="cls-5" points="588.21 347.35 641.2 347.54 641.21 346.38 645.6 346.42 640.09 331.02 630.98 327.2 630.98 327.57 603.01 327.57 603.05 334.33 588.21 347.35"/><polygon class="cls-5" points="634.68 323 631.03 322.95 631.01 325.57 634.68 323"/><polygon class="cls-4" points="468.43 312.89 490.81 313.12 490.72 327.34 504.76 327.43 504.92 292.21 469.32 292.29 469.17 297.65 460.72 302.41 459.7 306.6 468.43 312.89"/><polygon class="cls-5" points="468.43 312.89 490.81 313.12 490.72 327.34 504.76 327.43 504.92 292.21 469.32 292.29 469.17 297.65 460.72 302.41 459.7 306.6 468.43 312.89"/><path class="cls-4" d="M512.83,379.81l1.86-6.15,5.69-5.12L516,377.7ZM511.09,381l1.74-1.16-.28.9Zm0,0L508,383l6.46,5.55,3.56-1.28,1.74,10.15,1.92,1.13,11.48-.11-.11-8.23,6.93-.12-.26-27.66-35.29-.06L503,370.73l3.53,11Z"/><polygon class="cls-4" points="497.74 367.86 502.1 384.47 504.39 384.49 504.12 375.09 497.74 367.86"/><polygon class="cls-5" points="511.09 380.96 508.01 383.04 514.47 388.6 518.03 387.31 519.77 397.46 521.69 398.59 533.17 398.48 533.06 390.25 539.99 390.13 539.73 362.48 504.44 362.41 502.97 370.73 506.5 381.77 511.09 380.96"/><polygon class="cls-5" points="511.09 380.96 512.83 379.81 512.55 380.71 511.09 380.96"/><polygon class="cls-5" points="512.83 379.81 514.69 373.66 520.38 368.54 515.96 377.7 512.83 379.81"/><polygon class="cls-5" points="497.74 367.86 502.1 384.47 504.39 384.49 504.12 375.09 497.74 367.86"/><polygon class="cls-4" points="589.09 292.54 595.88 292.47 595.94 299.26 625.94 299.39 624.46 291.37 616.33 275.45 615.04 278.07 588.5 278.03 589.09 292.54"/><polygon class="cls-5" points="589.09 292.54 595.88 292.47 595.94 299.27 625.94 299.39 624.46 291.37 616.33 275.45 615.04 278.07 588.5 278.03 589.09 292.54"/><polygon class="cls-4" points="462.38 249.72 462.57 262.28 469.67 266.7 470.22 276.22 475.09 278.06 476.07 268.44 481.3 278.27 469.32 292.29 504.92 292.21 504.78 249.86 462.38 249.72"/><polygon class="cls-5" points="462.38 249.72 462.57 262.28 469.67 266.7 470.22 276.22 475.09 278.06 476.07 268.44 481.3 278.28 469.32 292.29 504.92 292.21 504.78 249.86 462.38 249.72"/><polygon class="cls-4" points="539.88 316.77 539.95 341.37 561.02 341.46 560.98 334.37 568.06 334.32 568.02 327.28 584.11 327.2 582.16 326.65 579.73 319.82 576.76 316.78 577.56 315.27 573.03 313.67 569.95 311.04 570.15 309.29 565.44 304.8 564.98 301.49 569.9 296.13 569.92 292.47 539.91 292.2 539.88 316.77"/><polygon class="cls-5" points="539.88 316.77 539.95 341.37 561.02 341.46 560.98 334.37 568.06 334.32 568.02 327.28 584.11 327.2 582.16 326.65 579.73 319.82 576.76 316.78 577.56 315.27 573.03 313.67 569.95 311.04 570.15 309.29 565.44 304.8 564.98 301.49 569.9 296.13 569.92 292.47 539.91 292.2 539.88 316.77"/><polygon class="cls-4" points="539.88 382.91 560.69 382.61 560.92 403.62 588.62 403.1 588.21 347.35 583.95 362.52 539.73 362.47 539.88 382.91"/><polygon class="cls-5" points="539.88 382.91 560.69 382.61 560.91 403.62 588.62 403.1 588.21 347.35 583.95 362.52 539.73 362.48 539.88 382.91"/><polygon class="cls-4" points="539.88 316.77 539.91 292.2 504.92 292.21 504.81 316.96 539.88 316.77"/><polygon class="cls-5" points="539.88 316.77 539.91 292.2 504.92 292.21 504.81 316.96 539.88 316.77"/><polygon class="cls-4" points="539.73 362.47 583.95 362.52 588.21 347.35 589.24 331.65 584.11 327.2 568.02 327.28 568.06 334.32 560.98 334.37 561.02 341.46 539.95 341.37 539.73 362.47"/><polygon class="cls-5" points="539.73 362.48 583.95 362.52 588.21 347.35 589.24 331.65 584.11 327.2 568.02 327.28 568.06 334.32 560.98 334.37 561.02 341.46 539.95 341.37 539.73 362.48"/><polygon class="cls-4" points="539.95 341.37 539.88 316.77 504.81 316.96 504.69 341.5 539.95 341.37"/><polygon class="cls-5" points="539.95 341.37 539.88 316.77 504.81 316.96 504.69 341.5 539.95 341.37"/><polygon class="cls-4" points="519.77 397.46 522.95 416.24 528.31 424.95 533.57 428.89 542.94 430.66 555.55 439.28 589.1 439.12 588.62 403.1 560.92 403.62 560.69 382.61 539.88 382.91 539.99 390.13 533.06 390.25 533.17 398.48 521.69 398.59 519.77 397.46"/><polygon class="cls-4" points="551.97 439.29 552.31 439.29 551.86 439.28 551.97 439.29"/><polygon class="cls-5" points="519.77 397.46 522.95 416.24 528.31 424.95 533.57 428.89 542.94 430.66 555.55 439.28 589.1 439.12 588.62 403.1 560.91 403.62 560.69 382.61 539.88 382.91 539.99 390.13 533.06 390.25 533.17 398.48 521.69 398.59 519.77 397.46"/><polygon class="cls-5" points="551.97 439.29 552.31 439.29 551.86 439.28 551.97 439.29"/><polygon class="cls-4" points="490.6 343.64 502.77 349.83 504.44 362.41 539.73 362.47 539.95 341.37 490.6 341.43 490.6 343.64"/><polygon class="cls-4" points="490.6 344.14 490.58 348.44 483.53 348.38 491.82 359.29 498.24 360.37 495.68 349.12 490.6 344.14"/><polygon class="cls-5" points="490.6 343.64 502.77 349.83 504.44 362.41 539.73 362.48 539.95 341.37 490.61 341.43 490.6 343.64"/><polygon class="cls-5" points="490.6 344.15 490.58 348.44 483.53 348.38 491.82 359.29 498.24 360.38 495.68 349.12 490.6 344.15"/><polygon class="cls-4" points="588.52 397.19 589.12 425.33 602.86 425.39 602.86 427.12 630.3 427.12 630.29 426.03 642.91 425.67 645.99 398.2 635.16 397.12 588.52 397.19"/><polygon class="cls-5" points="588.52 397.19 589.12 425.33 602.86 425.39 602.86 427.12 630.3 427.12 630.29 426.03 642.91 425.67 645.99 398.2 635.16 397.12 588.52 397.19"/><polygon class="cls-4" points="580.96 214.1 584.08 215.65 584.37 220.37 588.19 222.44 589.25 225.55 587.55 225.95 587.92 231.95 589.83 235.63 589.4 278.03 615.04 278.07 616.33 275.45 603.28 244.81 597.93 230.68 593.15 213.08 590.71 199.63 582.35 199.7 582.6 214.1 580.96 214.1"/><polygon class="cls-4" points="601.74 230.74 604.07 230.6 609.48 217.17 608.27 229.77 613.9 226.55 610.35 216.35 599.1 199.62 598.69 199.62 605.95 210.29 598.49 205.85 595.2 212.9 599.31 214.49 600.13 230.85 601.37 230.76 600.11 231.07 604.21 242.85 601.74 230.74"/><polygon class="cls-4" points="606.33 230.64 607.93 232.55 607.68 250.07 611.39 257.42 607.99 238.56 609.42 230.72 606.33 230.64"/><polygon class="cls-5" points="580.96 214.1 584.08 215.65 584.37 220.37 588.19 222.44 589.25 225.55 587.55 225.95 587.92 231.95 589.83 235.63 589.4 278.03 615.04 278.07 616.33 275.45 603.28 244.81 597.93 230.68 593.15 213.07 590.71 199.63 582.35 199.7 582.6 214.1 580.96 214.1"/><polygon class="cls-5" points="601.75 230.74 604.07 230.6 609.48 217.17 608.27 229.77 613.9 226.55 610.35 216.36 599.1 199.62 598.69 199.62 605.95 210.29 598.49 205.85 595.2 212.9 599.31 214.49 600.13 230.85 601.37 230.76 600.11 231.07 604.21 242.85 601.75 230.74"/><polygon class="cls-5" points="606.33 230.65 607.93 232.55 607.68 250.07 611.39 257.42 607.99 238.56 609.42 230.72 606.33 230.65"/><polygon class="cls-6" points="224.25 68.64 226.19 66.87 231.99 66.91 234.17 64.4 260.21 64.72 260.33 53.9 264.01 53.9 264.18 35.84 260.59 35.81 260.62 32.16 252.24 32.1 250.88 39.29 242.53 39.08 241.41 35.48 236.44 35.4 236.08 40.83 233.2 45.99 229.76 48.2 229.72 51.48 232.29 54.84 231.8 57.84 233.85 59.75 230.77 64.14 226.31 64.46 224.25 68.64"/><polygon class="cls-7" points="224.25 68.64 226.19 66.87 231.99 66.91 234.17 64.4 260.21 64.72 260.33 53.9 264.01 53.9 264.18 35.84 260.59 35.81 260.62 32.16 252.24 32.1 250.88 39.29 242.53 39.09 241.41 35.49 236.44 35.4 236.08 40.83 233.2 45.99 229.76 48.2 229.72 51.48 232.29 54.84 231.8 57.84 233.85 59.75 230.77 64.14 226.31 64.46 224.25 68.64"/><polygon class="cls-6" points="195.41 69.52 202.58 70.86 224 78.55 224.25 68.64 226.31 64.46 230.77 64.14 233.85 59.75 231.8 57.84 232.29 54.84 229.72 51.48 229.76 48.2 233.2 45.99 234.79 42.67 221.05 42.55 221.23 18.58 196.03 18.51 195.6 63.29 205.58 60.58 215.06 65.26 215.26 69.66 206.05 65.39 206.6 68.45 195.44 67.9 195.41 69.52"/><polygon class="cls-7" points="195.41 69.52 202.58 70.86 224 78.55 224.25 68.64 226.31 64.46 230.77 64.14 233.85 59.75 231.8 57.84 232.29 54.84 229.72 51.48 229.76 48.2 233.2 45.99 234.79 42.67 221.05 42.55 221.23 18.58 196.03 18.51 195.6 63.29 205.58 60.58 215.06 65.26 215.26 69.66 206.05 65.39 206.6 68.45 195.44 67.9 195.41 69.52"/><polygon class="cls-6" points="315.42 76 314.48 79.59 316.49 80.5 318.62 85.67 318.6 90.46 324.14 98.3 327.41 99.83 329.62 101.64 332.54 100.58 334.99 102.6 341.9 103.19 340.55 95.69 347.1 92.16 355.08 94.75 360.84 92.79 360.87 78.19 349.07 78.14 348.61 75.73 315.42 76"/><polygon class="cls-7" points="315.42 76 314.48 79.59 316.49 80.5 318.62 85.68 318.6 90.46 324.14 98.3 327.41 99.83 329.62 101.64 332.54 100.58 334.99 102.6 341.9 103.19 340.55 95.69 347.1 92.16 355.08 94.76 360.83 92.79 360.87 78.19 349.07 78.14 348.61 75.73 315.42 76"/><polygon class="cls-6" points="547.62 151.82 539.18 154.16 542.69 164.25 539.28 166.03 542.17 168.17 544.27 174.65 546.82 174.74 547.58 177.41 551.35 179.99 554.79 183.9 554.64 191.78 553.91 192.46 554.54 195.02 557.22 196.1 563.95 196.26 567.12 200.19 570.23 199.61 572.52 196.59 574.63 197.34 576.2 200.34 575.71 202.94 578.88 207.68 579.53 212.18 580.96 214.1 582.6 214.1 582.35 199.7 595.14 199.63 594.7 193.23 598.69 199.62 599.1 199.62 581.18 167.81 572.8 147.75 568.95 149.07 569.36 160.92 550.32 161.31 550.08 149.99 549.13 150.09 547.62 151.82"/><polygon class="cls-7" points="547.62 151.82 539.18 154.16 542.69 164.25 539.28 166.03 542.17 168.17 544.27 174.65 546.82 174.74 547.58 177.41 551.35 179.99 554.79 183.9 554.64 191.78 553.91 192.46 554.54 195.02 557.22 196.1 563.95 196.26 567.12 200.19 570.23 199.61 572.52 196.59 574.63 197.34 576.2 200.34 575.71 202.95 578.88 207.68 579.53 212.18 580.96 214.1 582.6 214.1 582.35 199.7 595.14 199.63 594.7 193.23 598.69 199.62 599.1 199.62 581.18 167.81 572.8 147.75 568.95 149.07 569.36 160.92 550.32 161.31 550.08 149.99 549.13 150.09 547.62 151.82"/><polygon class="cls-6" points="471.04 105.6 478.95 107.07 486.92 104.33 490.28 98.4 492.66 97.96 498.34 91.64 498.62 88.96 476.12 89.51 476.18 92.26 473.26 93.41 470.62 96.23 470.69 98.44 467.74 101.43 471.04 105.6"/><polygon class="cls-7" points="471.04 105.6 478.95 107.07 486.92 104.33 490.28 98.4 492.66 97.96 498.34 91.64 498.62 88.95 476.12 89.51 476.18 92.26 473.26 93.41 470.62 96.23 470.69 98.44 467.74 101.43 471.04 105.6"/><polygon class="cls-6" points="367.44 91.87 367.04 94.39 378.47 102.15 381.4 102.14 391.96 110 395.83 120.43 403.09 126.37 411.66 127.97 412.9 121.82 414.76 118.94 414.8 115.33 412.38 115.36 412.37 109.96 411.09 109.96 411.36 79.28 404.08 79.29 404.12 75.67 379.09 75.73 377.45 77.81 372.26 80.55 371.28 85.13 369.81 85.27 367.44 91.87"/><polygon class="cls-7" points="367.44 91.87 367.04 94.39 378.47 102.15 381.4 102.14 391.96 110 395.83 120.44 403.09 126.37 411.66 127.97 412.9 121.82 414.76 118.94 414.8 115.33 412.38 115.36 412.37 109.96 411.09 109.96 411.36 79.28 404.08 79.29 404.12 75.67 379.09 75.73 377.45 77.82 372.26 80.55 371.28 85.13 369.82 85.27 367.44 91.87"/><polygon class="cls-6" points="446.09 110.05 447.21 108.13 451.77 106.31 454.46 103.64 452.21 101.88 452.16 72.97 448.6 72.64 440.65 66.63 437.25 65.13 432.17 65.66 431.51 64.63 426.49 66.35 425.34 68.98 422.37 72.23 422.57 75.03 419.9 79.26 419.79 85.59 421.39 91.3 424.33 92.97 426.08 91.7 432.56 94.05 432.79 95.36 440.15 101.31 442.46 104.25 442.81 107.21 446.09 110.05"/><polygon class="cls-7" points="446.09 110.05 447.21 108.13 451.77 106.31 454.47 103.64 452.21 101.88 452.16 72.97 448.6 72.64 440.65 66.63 437.25 65.13 432.17 65.66 431.51 64.63 426.49 66.35 425.34 68.98 422.37 72.23 422.57 75.03 419.9 79.26 419.79 85.59 421.39 91.31 424.33 92.97 426.08 91.7 432.56 94.05 432.79 95.36 440.15 101.31 442.46 104.24 442.81 107.21 446.09 110.05"/><polygon class="cls-6" points="490.04 209.66 490.25 212.31 493.95 217.42 498.99 218 501.91 221.25 504.9 221.51 504.8 238.51 507.68 237.55 511.8 238.8 512.06 185.87 486.58 185.86 489.32 191.02 495.78 197.13 496.62 199.7 491.04 205.59 490.04 209.66"/><polygon class="cls-7" points="490.04 209.66 490.25 212.31 493.95 217.42 498.99 217.99 501.91 221.25 504.9 221.51 504.8 238.51 507.68 237.55 511.8 238.8 512.06 185.87 486.58 185.86 489.32 191.02 495.78 197.13 496.62 199.7 491.04 205.59 490.04 209.66"/><polygon class="cls-6" points="537.18 89.99 532.39 95.83 540.43 103.4 538.08 109.78 542.58 120.49 542.74 131.75 556.96 131.49 561.51 127.93 564.88 127.79 558.17 114.75 558.41 104.68 552.99 79.9 548.92 79.95 549.15 92.01 541.67 92.2 541.64 90.87 537.18 89.99"/><polygon class="cls-6" points="560.32 108.59 558.66 114.69 562.21 120.48 560.32 108.59"/><polygon class="cls-7" points="537.18 89.99 532.39 95.83 540.43 103.4 538.08 109.78 542.58 120.49 542.74 131.75 556.96 131.49 561.51 127.93 564.88 127.79 558.17 114.75 558.41 104.68 552.99 79.9 548.92 79.95 549.15 92.01 541.67 92.2 541.64 90.87 537.18 89.99"/><polygon class="cls-7" points="560.32 108.59 558.66 114.69 562.21 120.48 560.32 108.59"/><polygon class="cls-6" points="550.52 200.12 549.98 203.77 547.33 205.96 547.31 211.9 556.61 211.94 556.69 214.32 580.96 214.1 579.53 212.18 578.88 207.68 575.71 202.94 576.2 200.34 574.63 197.34 572.52 196.59 570.23 199.61 567.12 200.19 563.95 196.26 557.22 196.1 554.54 195.02 553.91 192.46 550.13 197.72 550.52 200.12"/><polygon class="cls-7" points="550.52 200.12 549.98 203.78 547.33 205.96 547.31 211.9 556.61 211.94 556.69 214.32 580.96 214.1 579.53 212.18 578.88 207.68 575.71 202.95 576.2 200.34 574.63 197.34 572.52 196.59 570.23 199.61 567.12 200.19 563.95 196.26 557.22 196.1 554.54 195.02 553.91 192.46 550.13 197.72 550.52 200.12"/><polygon class="cls-6" points="138.58 55.45 141.74 53.24 145.28 57.82 145.18 64.05 150.97 59.08 156.97 63.28 151.24 67.52 142.19 70.33 166.76 67.25 167.72 18.28 140.87 18.1 135.88 20.7 134.25 23.71 132.01 24.29 132.19 27.33 130.12 30.53 131.59 33.7 130.18 35.79 130.91 41.3 132.99 41.45 133.61 47.18 137.52 54.91 138.58 55.45"/><polygon class="cls-6" points="158.2 69.85 158.21 70.17 166.69 68.84 166.71 68.34 158.2 69.85"/><polygon class="cls-7" points="138.58 55.45 141.74 53.24 145.28 57.82 145.18 64.05 150.97 59.08 156.97 63.28 151.23 67.52 142.19 70.33 166.76 67.25 167.72 18.28 140.87 18.1 135.88 20.7 134.25 23.71 132.01 24.29 132.19 27.34 130.12 30.53 131.59 33.7 130.18 35.79 130.91 41.3 132.99 41.45 133.61 47.18 137.52 54.91 138.58 55.45"/><polygon class="cls-7" points="158.2 69.85 158.21 70.17 166.69 68.84 166.71 68.34 158.2 69.85"/><polygon class="cls-6" points="539.09 122.97 539.93 118.64 536.86 113.93 522.15 114.18 518.78 116.94 514.91 117.89 513.07 121.49 508.29 122.15 504.83 123.9 504.81 144.14 506.52 142.42 513.64 140.44 515.21 141.38 519.98 140.06 520 142.89 524.74 142.81 524.83 147.58 527.19 147.52 527.22 152.34 532.41 152.28 530.59 146.74 531.36 134.6 531.58 146.99 539.18 154.16 547.62 151.82 549.13 150.09 545.94 150.04 545.09 145.53 542.94 142.28 542.58 120.49 539.09 122.97"/><polygon class="cls-7" points="539.09 122.97 539.93 118.64 536.86 113.93 522.15 114.19 518.78 116.94 514.91 117.89 513.07 121.49 508.29 122.15 504.83 123.9 504.81 144.14 506.52 142.42 513.64 140.44 515.21 141.38 519.98 140.06 520 142.89 524.74 142.81 524.83 147.58 527.19 147.52 527.22 152.34 532.41 152.28 530.59 146.74 531.36 134.6 531.58 146.99 539.18 154.16 547.62 151.82 549.13 150.09 545.93 150.04 545.09 145.53 542.94 142.28 542.58 120.49 539.09 122.97"/><polygon class="cls-6" points="589.83 235.63 587.92 231.95 587.55 225.95 589.25 225.55 588.19 222.44 584.37 220.37 584.08 215.65 580.96 214.1 556.69 214.32 556.61 211.94 547.31 211.9 547.33 205.96 549.98 203.77 550.52 200.12 533.97 200.05 533.12 200.62 533.22 235.66 589.83 235.63"/><polygon class="cls-7" points="589.83 235.63 587.92 231.95 587.55 225.95 589.25 225.55 588.19 222.44 584.37 220.37 584.08 215.65 580.96 214.1 556.69 214.32 556.61 211.94 547.31 211.9 547.33 205.96 549.98 203.78 550.52 200.12 533.97 200.05 533.11 200.62 533.22 235.66 589.83 235.63"/><polygon class="cls-6" points="195.6 63.29 196.03 18.51 167.72 18.28 166.76 67.25 180.6 67.65 191.49 58.79 195.6 63.29"/><polygon class="cls-6" points="195.44 67.9 188.9 66.32 187.57 69.3 195.41 69.52 195.44 67.9"/><polygon class="cls-7" points="195.6 63.29 196.03 18.51 167.72 18.28 166.76 67.25 180.6 67.65 191.49 58.79 195.6 63.29"/><polygon class="cls-7" points="195.44 67.9 188.9 66.32 187.57 69.3 195.41 69.52 195.44 67.9"/><polygon class="cls-6" points="505.24 70.86 505.29 78.21 520.82 62.19 523.42 59.05 526.83 56.94 528.63 53.53 532.76 54.64 535.55 52.36 541.36 57.51 544.45 54.21 547.93 57.9 549.73 42.85 544.52 40.88 541.67 42.21 528.8 39.23 525.29 36.55 517.14 34.57 515.57 32.29 511.36 33.14 510.15 36.55 507.1 36.02 506.17 38.42 505.34 46.73 508.4 54.24 507.59 61.55 505.94 64.72 506.13 70.09 505.24 70.86"/><polygon class="cls-7" points="505.24 70.86 505.29 78.21 520.82 62.19 523.42 59.05 526.83 56.94 528.63 53.53 532.76 54.64 535.55 52.36 541.36 57.51 544.45 54.21 547.93 57.9 549.73 42.85 544.52 40.88 541.67 42.21 528.8 39.23 525.29 36.55 517.14 34.57 515.57 32.29 511.37 33.14 510.14 36.55 507.1 36.02 506.17 38.42 505.34 46.73 508.4 54.24 507.59 61.55 505.94 64.72 506.13 70.09 505.24 70.86"/><polygon class="cls-6" points="470.62 178.96 476.11 178.74 479.07 181.56 486.3 184.83 486.58 185.86 533.12 185.85 533.08 178.73 534.54 178.73 534.31 160.02 532.41 152.28 527.22 152.34 527.19 147.52 524.83 147.58 524.74 142.81 520 142.89 519.98 140.06 515.21 141.38 513.64 140.44 506.52 142.42 504.81 144.14 504.83 146.55 499.17 147.1 498.19 148.57 493.57 147.28 493.73 143.09 479.81 143.01 480.06 165.04 470.59 165.11 470.62 178.96"/><polygon class="cls-7" points="470.62 178.97 476.11 178.74 479.07 181.56 486.3 184.83 486.58 185.86 533.11 185.85 533.08 178.73 534.54 178.73 534.31 160.02 532.41 152.28 527.22 152.34 527.19 147.52 524.83 147.58 524.74 142.81 520 142.89 519.98 140.06 515.21 141.38 513.64 140.44 506.52 142.42 504.81 144.14 504.83 146.55 499.17 147.1 498.19 148.57 493.57 147.28 493.73 143.09 479.81 143.01 480.06 165.04 470.59 165.11 470.62 178.97"/><polygon class="cls-6" points="379.09 75.73 404.12 75.67 404.08 79.29 419.9 79.26 422.57 75.03 422.37 72.23 425.34 68.98 422.18 66.27 422.04 63.16 420.17 61.7 420.5 57.94 418.94 55.1 419.25 52.3 417.83 48.8 415.47 48.37 393.93 46.97 394.47 52.71 392.1 55.13 389.7 55.11 385.02 58.8 386.1 64.91 383.53 68.98 379.96 70.68 381.05 74.45 379.09 75.73"/><polygon class="cls-7" points="379.09 75.73 404.12 75.67 404.08 79.29 419.9 79.26 422.57 75.03 422.37 72.23 425.34 68.98 422.18 66.27 422.04 63.16 420.17 61.7 420.5 57.94 418.94 55.1 419.25 52.3 417.83 48.8 415.47 48.37 393.93 46.97 394.47 52.71 392.1 55.13 389.7 55.11 385.02 58.8 386.1 64.91 383.53 68.98 379.96 70.68 381.05 74.45 379.09 75.73"/><polygon class="cls-6" points="286.74 84.27 284.03 93.22 286.89 98.83 291.14 100.63 293.18 103.09 294.44 99.6 327.41 99.83 324.14 98.3 318.6 90.46 318.62 85.67 316.49 80.5 314.48 79.59 315.42 76 315.29 73.29 320.19 68.72 317.75 68.75 317.76 66.33 315.37 66.34 315.37 62.77 310.59 62.81 310.54 57.94 308.12 56.75 303.36 56.75 303.31 50.75 299.8 50.69 295.58 57.76 295 63.11 296.19 64.3 292.65 66.08 293.97 67.01 291.94 71.68 290.78 79.05 286.74 84.27"/><polygon class="cls-7" points="286.74 84.27 284.03 93.22 286.89 98.83 291.14 100.63 293.18 103.09 294.44 99.6 327.41 99.83 324.14 98.3 318.6 90.46 318.62 85.68 316.49 80.5 314.48 79.59 315.42 76 315.29 73.29 320.19 68.72 317.75 68.75 317.76 66.33 315.37 66.33 315.37 62.77 310.59 62.81 310.54 57.94 308.12 56.75 303.36 56.75 303.31 50.75 299.8 50.69 295.58 57.76 295 63.11 296.19 64.3 292.65 66.08 293.97 67.01 291.94 71.68 290.78 79.05 286.74 84.27"/><polygon class="cls-6" points="434.06 151.68 429.63 156.13 432.69 167.09 436.38 168.87 451.55 168.65 451.4 175.55 454.94 182.47 459.57 179.87 465.13 181.87 466.49 180.18 470.62 178.96 470.59 165.11 480.06 165.04 479.81 143.01 469.11 143.41 469.05 138.7 462.02 138.87 462.02 136.47 454.88 136.66 453.71 134.83 441.99 134.31 439.24 138.4 438.64 144.16 434.06 151.68"/><polygon class="cls-7" points="434.06 151.68 429.63 156.13 432.69 167.09 436.38 168.87 451.55 168.65 451.4 175.55 454.94 182.47 459.57 179.87 465.13 181.87 466.49 180.18 470.62 178.97 470.59 165.11 480.06 165.04 479.81 143.01 469.11 143.41 469.05 138.7 462.02 138.87 462.02 136.48 454.88 136.66 453.71 134.83 441.99 134.31 439.24 138.4 438.64 144.16 434.06 151.68"/><polygon class="cls-6" points="315.42 76 348.61 75.73 349.07 78.14 360.87 78.19 360.94 64.92 363.3 62.52 363.34 57.68 367.88 57.67 365.71 50.45 365.73 45.24 346.12 44.15 342.72 51.22 339.79 52.78 336.29 62.48 329.21 63.5 320.19 68.72 315.29 73.29 315.42 76"/><polygon class="cls-7" points="315.42 76 348.61 75.73 349.07 78.14 360.87 78.19 360.94 64.92 363.3 62.52 363.34 57.68 367.88 57.67 365.71 50.45 365.72 45.24 346.12 44.15 342.72 51.22 339.79 52.78 336.29 62.48 329.21 63.5 320.19 68.72 315.29 73.29 315.42 76"/><polygon class="cls-6" points="511.81 235.81 518.95 235.75 518.94 234.46 523.69 234.47 523.71 235.71 533.22 235.66 533.12 200.62 533.97 200.05 550.52 200.12 550.13 197.72 554.64 191.78 554.79 183.9 551.35 179.99 547.58 177.41 546.82 174.74 544.27 174.65 542.17 168.17 539.28 166.03 534.31 160.02 534.54 178.73 533.08 178.73 533.12 185.85 512.06 185.87 511.81 235.81"/><polygon class="cls-7" points="511.81 235.81 518.95 235.75 518.94 234.46 523.69 234.47 523.71 235.71 533.22 235.66 533.11 200.62 533.97 200.05 550.52 200.12 550.13 197.72 554.64 191.78 554.79 183.9 551.35 179.99 547.58 177.41 546.82 174.74 544.27 174.65 542.17 168.17 539.28 166.03 534.31 160.02 534.54 178.73 533.08 178.73 533.11 185.85 512.06 185.87 511.81 235.81"/><polygon class="cls-6" points="411.36 79.28 411.09 109.96 412.37 109.96 412.38 115.36 444.37 115.19 446.09 110.05 442.81 107.21 442.46 104.25 440.15 101.31 432.79 95.36 432.56 94.05 426.08 91.7 424.33 92.97 421.39 91.3 419.79 85.59 419.9 79.26 411.36 79.28"/><polygon class="cls-7" points="411.36 79.28 411.09 109.96 412.37 109.96 412.38 115.36 444.37 115.19 446.09 110.05 442.81 107.21 442.46 104.24 440.15 101.31 432.79 95.36 432.56 94.05 426.08 91.7 424.33 92.97 421.39 91.31 419.79 85.59 419.9 79.26 411.36 79.28"/><polygon class="cls-6" points="367.44 91.87 369.81 85.27 371.28 85.13 372.26 80.55 377.45 77.81 379.09 75.73 381.05 74.45 379.96 70.68 383.53 68.98 386.1 64.91 385.02 58.8 389.7 55.11 392.1 55.13 394.47 52.71 393.93 46.97 365.73 45.24 365.71 50.45 367.88 57.67 363.34 57.68 363.3 62.52 360.94 64.92 360.84 92.79 367.44 91.87"/><polygon class="cls-7" points="367.44 91.87 369.82 85.27 371.28 85.13 372.26 80.55 377.45 77.82 379.09 75.73 381.05 74.45 379.96 70.68 383.53 68.98 386.1 64.91 385.02 58.8 389.7 55.11 392.1 55.13 394.47 52.71 393.93 46.97 365.72 45.24 365.71 50.45 367.88 57.67 363.34 57.68 363.3 62.52 360.94 64.92 360.83 92.79 367.44 91.87"/><polygon class="cls-6" points="252.24 32.1 260.62 32.16 260.59 35.81 264.18 35.84 264.01 53.9 282.74 54.17 283.03 50.55 299.8 50.69 301.54 49.6 305.12 43.06 304.63 41.98 301.33 38.69 299.5 33.1 300.29 31 299.09 27.29 296.16 23.35 294.82 17.97 259.48 18.29 257.2 23.04 253.97 26.46 252.24 32.1"/><polygon class="cls-7" points="252.24 32.1 260.62 32.16 260.59 35.81 264.18 35.84 264.01 53.9 282.74 54.17 283.03 50.55 299.8 50.69 301.54 49.6 305.12 43.06 304.63 41.98 301.33 38.69 299.5 33.1 300.29 31 299.09 27.29 296.16 23.35 294.82 17.97 259.48 18.28 257.2 23.04 253.97 26.46 252.24 32.1"/><polygon class="cls-6" points="234.79 42.67 236.08 40.83 236.44 35.4 241.41 35.48 242.53 39.08 250.88 39.29 252.24 32.1 253.97 26.46 257.2 23.04 259.48 18.29 221.23 18.58 221.05 42.55 234.79 42.67"/><polygon class="cls-7" points="234.79 42.67 236.08 40.83 236.44 35.4 241.41 35.49 242.53 39.09 250.88 39.29 252.24 32.1 253.97 26.46 257.2 23.04 259.48 18.28 221.23 18.58 221.05 42.55 234.79 42.67"/><polygon class="cls-6" points="504.85 225.02 504.9 221.51 501.91 221.25 498.99 218 493.95 217.42 490.25 212.31 490.04 209.66 479 209.8 478.97 207.45 463.63 207.49 461.38 228.65 490.73 228.55 490.73 225.01 504.85 225.02"/><polygon class="cls-7" points="504.85 225.02 504.9 221.51 501.91 221.25 498.99 217.99 493.95 217.42 490.25 212.31 490.04 209.66 479 209.8 478.97 207.45 463.63 207.49 461.38 228.65 490.73 228.55 490.73 225.01 504.85 225.02"/><polygon class="cls-6" points="425.34 68.98 426.49 66.35 431.51 64.63 432.17 65.66 437.25 65.13 440.65 66.63 448.6 72.64 452.16 72.97 455.58 74.6 460.22 72.52 462.68 68.14 460.52 61.82 456.94 56.96 457.02 54.59 459.67 51.41 415.47 48.37 417.83 48.8 419.25 52.3 418.94 55.1 420.5 57.94 420.17 61.7 422.04 63.16 422.18 66.27 425.34 68.98"/><polygon class="cls-7" points="425.34 68.98 426.49 66.35 431.51 64.63 432.17 65.66 437.25 65.13 440.65 66.63 448.6 72.64 452.16 72.97 455.58 74.6 460.22 72.52 462.68 68.15 460.52 61.82 456.94 56.96 457.02 54.59 459.67 51.41 415.47 48.37 417.83 48.8 419.25 52.3 418.94 55.1 420.5 57.94 420.17 61.7 422.04 63.16 422.18 66.27 425.34 68.98"/><polygon class="cls-6" points="267.31 106.98 273.44 116.56 272.66 126.55 279.44 125.91 280.3 124.47 287.2 119.09 292.13 118.88 293.53 116.57 291.49 107.52 293.72 104.77 293.18 103.09 291.14 100.63 286.89 98.83 284.03 93.22 286.74 84.27 267.21 84.19 267.31 106.98"/><polygon class="cls-7" points="267.31 106.98 273.44 116.56 272.66 126.55 279.44 125.91 280.3 124.47 287.2 119.09 292.13 118.88 293.53 116.57 291.49 107.52 293.72 104.77 293.18 103.09 291.14 100.63 286.89 98.83 284.03 93.22 286.74 84.27 267.21 84.19 267.31 106.98"/><polygon class="cls-6" points="441.99 134.31 453.71 134.83 454.88 136.66 462.02 136.47 461.86 114.71 458.95 114.16 455.11 110.49 453.89 106.64 451.77 106.31 447.21 108.13 446.09 110.05 444.37 115.19 443.18 115.2 441.11 120.93 440.59 130.4 439.54 132.89 441.99 134.31"/><polygon class="cls-7" points="441.99 134.31 453.71 134.83 454.88 136.66 462.02 136.48 461.86 114.71 458.95 114.16 455.11 110.49 453.89 106.64 451.77 106.31 447.21 108.13 446.09 110.05 444.37 115.19 443.18 115.2 441.11 120.93 440.59 130.4 439.54 132.89 441.99 134.31"/><polygon class="cls-6" points="299.8 50.69 303.31 50.75 303.36 56.75 308.12 56.75 310.54 57.94 310.59 62.81 315.37 62.77 315.37 66.34 317.76 66.33 317.75 68.75 320.19 68.72 329.21 63.5 336.29 62.48 339.79 52.78 342.72 51.22 346.12 44.15 304.63 41.98 305.12 43.06 301.54 49.6 299.8 50.69"/><polygon class="cls-7" points="299.8 50.69 303.31 50.75 303.36 56.75 308.12 56.75 310.54 57.94 310.59 62.81 315.37 62.77 315.37 66.33 317.76 66.33 317.75 68.75 320.19 68.72 329.21 63.5 336.29 62.48 339.79 52.78 342.72 51.22 346.12 44.15 304.63 41.98 305.12 43.06 301.54 49.6 299.8 50.69"/><polygon class="cls-6" points="334.99 102.6 332.54 100.58 329.62 101.64 327.41 99.83 294.44 99.6 293.18 103.09 293.72 104.77 291.49 107.52 293.53 116.57 292.13 118.88 287.2 119.09 280.3 124.47 279.44 125.91 296.51 123.32 300.87 118.53 301.94 122.49 312.49 118.12 327.97 108.19 333.79 106.6 341.14 108.97 342.25 105.33 334.99 102.6"/><polygon class="cls-6" points="286.83 126.29 280.61 126.83 284.9 130.91 286.83 126.29"/><polygon class="cls-7" points="334.99 102.6 332.54 100.58 329.62 101.64 327.41 99.83 294.44 99.6 293.18 103.09 293.72 104.77 291.49 107.52 293.53 116.57 292.13 118.88 287.2 119.09 280.3 124.47 279.44 125.91 296.51 123.32 300.87 118.53 301.94 122.49 312.49 118.12 327.97 108.19 333.79 106.6 341.14 108.97 342.25 105.33 334.99 102.6"/><polygon class="cls-7" points="286.83 126.29 280.61 126.83 284.9 130.91 286.83 126.29"/><polygon class="cls-6" points="542.74 131.75 542.94 142.28 545.09 145.53 545.94 150.04 550.08 149.99 550.32 161.31 569.36 160.92 568.95 149.07 572.8 147.75 564.88 127.79 561.51 127.93 556.96 131.49 542.74 131.75"/><polygon class="cls-7" points="542.74 131.75 542.94 142.28 545.09 145.53 545.93 150.04 550.08 149.99 550.32 161.31 569.36 160.92 568.95 149.07 572.8 147.75 564.88 127.79 561.51 127.93 556.96 131.49 542.74 131.75"/><polygon class="cls-6" points="120.51 58.41 127.86 65.8 122.29 67.55 122.94 72.11 118.74 74.83 133.42 72.38 132.35 69.98 139.75 65.8 140.99 58.25 138.58 55.45 137.52 54.91 133.61 47.18 132.99 41.45 130.91 41.3 130.18 35.79 131.59 33.7 130.12 30.53 132.19 27.33 132.01 24.29 134.25 23.71 135.88 20.7 140.87 18.1 109.78 18.23 110.48 21.05 107.21 29.17 109.67 32.93 113.63 36.44 114.67 39.5 123.45 44.99 124.37 47.76 123.33 52.56 120.51 58.41"/><polygon class="cls-7" points="120.51 58.41 127.86 65.8 122.29 67.55 122.94 72.11 118.74 74.83 133.42 72.38 132.35 69.98 139.75 65.8 140.99 58.25 138.58 55.45 137.52 54.91 133.61 47.18 132.99 41.45 130.91 41.3 130.18 35.79 131.59 33.7 130.12 30.53 132.19 27.34 132.01 24.29 134.25 23.71 135.88 20.7 140.87 18.1 109.78 18.24 110.48 21.05 107.21 29.17 109.67 32.93 113.63 36.44 114.67 39.5 123.45 44.99 124.37 47.76 123.33 52.56 120.51 58.41"/><polygon class="cls-6" points="548.88 68.11 551.17 65.06 547.93 57.9 544.45 54.21 541.36 57.51 535.55 52.36 532.76 54.64 528.63 53.53 526.83 56.94 523.42 59.05 520.82 62.19 505.29 78.21 505.27 85.34 530.8 84.99 532.89 81.13 529.69 77.11 535.2 74.47 534.77 68.19 542.13 66.29 546.28 68.21 536.41 68.59 536.41 74.41 532.73 77.87 535.66 81.64 533.11 89.9 537.18 89.99 541.64 90.87 541.67 92.2 549.15 92.01 548.92 79.95 552.99 79.9 552.15 67.98 548.88 68.11"/><polygon class="cls-7" points="548.88 68.11 551.17 65.06 547.93 57.9 544.45 54.21 541.36 57.51 535.55 52.36 532.76 54.64 528.63 53.53 526.83 56.94 523.42 59.05 520.82 62.19 505.29 78.21 505.27 85.34 530.8 84.99 532.89 81.13 529.69 77.11 535.2 74.47 534.77 68.2 542.13 66.29 546.28 68.21 536.41 68.59 536.41 74.41 532.73 77.87 535.66 81.64 533.11 89.9 537.18 89.99 541.64 90.87 541.67 92.2 549.15 92.01 548.92 79.95 552.99 79.9 552.15 67.98 548.88 68.11"/><polygon class="cls-6" points="434.06 151.68 438.64 144.16 439.24 138.4 441.99 134.31 439.54 132.89 440.59 130.4 441.11 120.93 443.18 115.2 414.8 115.33 414.76 118.94 412.9 121.82 411.66 127.97 410.12 127.91 408.74 138.34 418.2 147.48 422.22 148.66 425.89 157.45 434.06 151.68"/><polygon class="cls-7" points="434.06 151.68 438.64 144.16 439.24 138.4 441.99 134.31 439.54 132.89 440.59 130.4 441.11 120.93 443.18 115.2 414.8 115.33 414.76 118.94 412.9 121.82 411.66 127.97 410.12 127.91 408.74 138.34 418.2 147.48 422.23 148.66 425.89 157.45 434.06 151.68"/><polygon class="cls-6" points="451.77 106.31 453.89 106.64 455.11 110.49 458.95 114.16 461.86 114.71 466.97 111.62 467.74 107.89 471.04 105.6 467.74 101.43 470.69 98.44 470.62 96.23 473.26 93.41 476.18 92.26 476.02 52.52 459.67 51.41 457.02 54.59 456.94 56.96 460.52 61.82 462.68 68.14 460.22 72.52 455.58 74.6 452.16 72.97 452.21 101.88 454.46 103.64 451.77 106.31"/><polygon class="cls-7" points="451.77 106.31 453.89 106.64 455.11 110.49 458.95 114.16 461.86 114.71 466.97 111.62 467.74 107.89 471.04 105.6 467.74 101.43 470.69 98.44 470.62 96.23 473.26 93.41 476.18 92.26 476.02 52.52 459.67 51.41 457.02 54.59 456.94 56.96 460.52 61.82 462.68 68.15 460.22 72.52 455.58 74.6 452.16 72.97 452.21 101.88 454.47 103.64 451.77 106.31"/><polygon class="cls-6" points="505.27 88.96 505.29 123.86 508.29 122.15 513.07 121.49 514.91 117.89 518.78 116.94 522.15 114.18 536.86 113.93 536.45 103.75 530.74 100.08 530.8 84.99 505.27 85.34 505.27 88.96"/><polygon class="cls-7" points="505.27 88.95 505.29 123.86 508.29 122.15 513.07 121.49 514.91 117.89 518.78 116.94 522.15 114.19 536.86 113.93 536.45 103.75 530.74 100.08 530.8 84.99 505.27 85.34 505.27 88.95"/><polygon class="cls-6" points="454.94 182.47 459.63 190.27 463.74 192.43 462.2 196.4 463.63 207.49 478.97 207.45 479 209.8 490.04 209.66 491.04 205.59 496.62 199.7 495.78 197.13 489.32 191.02 486.3 184.83 479.07 181.56 476.11 178.74 470.62 178.96 466.49 180.18 465.13 181.87 459.57 179.87 454.94 182.47"/><polygon class="cls-7" points="454.94 182.47 459.63 190.27 463.74 192.43 462.2 196.4 463.63 207.49 478.97 207.45 479 209.8 490.04 209.66 491.04 205.59 496.62 199.7 495.78 197.13 489.32 191.02 486.3 184.83 479.07 181.56 476.11 178.74 470.62 178.97 466.49 180.18 465.13 181.87 459.57 179.87 454.94 182.47"/><polygon class="cls-6" points="286.74 84.27 290.78 79.05 291.94 71.68 293.97 67.01 292.65 66.08 296.19 64.3 295 63.11 295.58 57.76 299.8 50.69 283.03 50.55 282.74 54.17 267.61 53.95 267.21 84.19 286.74 84.27"/><polygon class="cls-7" points="286.74 84.27 290.78 79.05 291.94 71.68 293.97 67.01 292.65 66.08 296.19 64.3 295 63.11 295.58 57.76 299.8 50.69 283.03 50.55 282.74 54.17 267.61 53.95 267.21 84.19 286.74 84.27"/><polygon class="cls-6" points="478.95 107.07 480.46 110.11 484.85 110.71 488.71 113.53 491.51 112.87 499.31 114.23 501.02 118.57 503.14 119.15 504.83 123.9 505.29 123.86 505.27 88.96 498.62 88.96 498.34 91.64 492.66 97.96 490.28 98.4 486.92 104.33 478.95 107.07"/><polygon class="cls-7" points="478.95 107.07 480.46 110.11 484.85 110.71 488.71 113.53 491.51 112.87 499.31 114.23 501.02 118.57 503.14 119.15 504.83 123.9 505.29 123.86 505.27 88.95 498.62 88.95 498.34 91.64 492.66 97.96 490.28 98.4 486.92 104.33 478.95 107.07"/><polygon class="cls-6" points="224 78.55 241.84 89 242 82.89 234.28 77.44 240.61 76.02 243.35 81.01 248.64 77.83 242.75 85.5 259.77 93.28 260.51 97.93 267.12 97.71 267.61 53.95 260.33 53.9 260.21 64.72 234.17 64.4 231.99 66.91 226.19 66.87 224.25 68.64 224 78.55"/><polygon class="cls-6" points="267.11 98.64 261.73 99.47 250.87 90.57 246.08 90.95 267.31 106.98 267.11 98.64"/><polygon class="cls-7" points="224 78.55 241.84 89.01 242 82.89 234.28 77.44 240.61 76.02 243.35 81.01 248.64 77.83 242.75 85.5 259.77 93.28 260.51 97.93 267.12 97.71 267.61 53.95 260.33 53.9 260.21 64.72 234.17 64.4 231.99 66.91 226.19 66.87 224.25 68.64 224 78.55"/><polygon class="cls-7" points="267.11 98.64 261.73 99.47 250.87 90.57 246.08 90.95 267.31 106.98 267.11 98.64"/><polygon class="cls-6" points="476.12 89.51 505.27 88.96 505.24 70.86 501.3 70.33 497.01 71.24 493.77 65.65 494.45 60.71 491.67 56.35 493.49 53.82 476.02 52.52 476.12 89.51"/><polygon class="cls-7" points="476.12 89.51 505.27 88.95 505.24 70.86 501.3 70.33 497.01 71.24 493.77 65.65 494.45 60.71 491.67 56.35 493.49 53.82 476.02 52.52 476.12 89.51"/><polygon class="cls-6" points="462.02 136.47 462.02 138.87 469.05 138.7 469.11 143.41 479.81 143.01 493.73 143.09 493.57 147.28 498.19 148.57 499.17 147.1 504.83 146.55 504.83 123.9 503.14 119.15 501.02 118.57 499.31 114.23 491.51 112.87 488.71 113.53 484.85 110.71 480.46 110.11 478.95 107.07 471.04 105.6 467.74 107.89 466.97 111.62 461.86 114.71 462.02 136.47"/><polygon class="cls-7" points="462.02 136.48 462.02 138.87 469.05 138.7 469.11 143.41 479.81 143.01 493.73 143.09 493.57 147.28 498.19 148.57 499.17 147.1 504.83 146.55 504.83 123.9 503.14 119.15 501.02 118.57 499.31 114.23 491.51 112.87 488.71 113.53 484.85 110.71 480.46 110.11 478.95 107.07 471.04 105.6 467.74 107.89 466.97 111.62 461.86 114.71 462.02 136.48"/></g><path class="cls-8" d="M130.42,338.5l2.72-3.16a10.4,10.4,0,0,0,6.8,3c3,0,4.56-1.32,4.56-3.36s-1.68-2.84-4-3.84l-3.6-1.56c-2.56-1.08-5.28-3.12-5.28-7,0-4.16,3.68-7.36,8.8-7.36a11.55,11.55,0,0,1,8,3.32l-2.36,3a8.52,8.52,0,0,0-5.68-2.24c-2.48,0-4.12,1.16-4.12,3.08s2,2.8,4.16,3.68L144,327.5c3.08,1.32,5.27,3.28,5.27,7.08,0,4.24-3.51,7.76-9.39,7.76A13.55,13.55,0,0,1,130.42,338.5Z"/><path class="cls-8" d="M152.34,332.06c0-6.56,4.44-10.32,9.32-10.32S171,325.5,171,332.06s-4.43,10.28-9.35,10.28S152.34,338.58,152.34,332.06Zm14,0c0-4-1.76-6.56-4.64-6.56s-4.6,2.6-4.6,6.56,1.72,6.52,4.6,6.52S166.3,336,166.3,332.06Z"/><path class="cls-8" d="M175.38,334.54V322.22H180v11.72c0,3.24.92,4.44,3,4.44,1.72,0,2.88-.8,4.36-2.72V322.22H192v19.64h-3.75l-.37-2.88h-.11c-1.73,2-3.64,3.36-6.32,3.36C177.22,342.34,175.38,339.5,175.38,334.54Z"/><path class="cls-8" d="M198.5,335.22v-9.36h-2.8v-3.44l3-.2.56-5.36h3.84v5.36h5v3.64h-5v9.36c0,2.32.88,3.44,2.76,3.44a5.63,5.63,0,0,0,2-.44l.8,3.4a12.54,12.54,0,0,1-4,.72C200.18,342.34,198.5,339.46,198.5,335.22Z"/><path class="cls-8" d="M212.26,313.62h4.6v7.28l-.16,3.8a9,9,0,0,1,6.28-3c4.19,0,6,2.84,6,7.8v12.32h-4.59V330.14c0-3.24-.92-4.44-3.08-4.44-1.72,0-2.84.84-4.48,2.44v13.72h-4.6Z"/><path class="cls-8" d="M243,315.7h15.79v3.92H247.62V327h9.51v3.92h-9.51v10.92H243Z"/><path class="cls-8" d="M263,336.82v-23.2h4.6v23.44c0,1.12.52,1.52,1,1.52a2.76,2.76,0,0,0,.72-.08l.6,3.44a6.28,6.28,0,0,1-2.44.4C264.18,342.34,263,340.22,263,336.82Z"/><path class="cls-8" d="M272.54,332.06c0-6.56,4.44-10.32,9.31-10.32s9.36,3.76,9.36,10.32-4.44,10.28-9.36,10.28S272.54,338.58,272.54,332.06Zm14,0c0-4-1.76-6.56-4.65-6.56s-4.59,2.6-4.59,6.56,1.72,6.52,4.59,6.52S286.5,336,286.5,332.06Z"/><path class="cls-8" d="M295.78,322.22h3.8l.32,3.48h.16c1.4-2.56,3.47-4,5.55-4a5,5,0,0,1,2.24.4l-.8,4a6.42,6.42,0,0,0-2-.32c-1.55,0-3.43,1.08-4.63,4v12h-4.6Z"/><path class="cls-8" d="M310.17,316.18a2.85,2.85,0,1,1,2.84,2.6A2.65,2.65,0,0,1,310.17,316.18Zm.53,6h4.59v19.64H310.7Z"/><path class="cls-8" d="M320,332.06c0-6.4,4-10.32,8.31-10.32a7.25,7.25,0,0,1,5.16,2.16l-.16-3.16v-7.12h4.6v28.24h-3.8l-.32-2.12h-.16a8.18,8.18,0,0,1-5.55,2.6C323.14,342.34,320,338.54,320,332.06Zm13.31,4.28v-9.16a5.86,5.86,0,0,0-4-1.64c-2.52,0-4.55,2.36-4.55,6.48s1.6,6.52,4.43,6.52A5.3,5.3,0,0,0,333.29,336.34Z"/><path class="cls-8" d="M342.7,336.58c0-4.2,3.47-6.4,11.55-7.28-.08-2.08-.92-3.84-3.6-3.84a11.19,11.19,0,0,0-5.51,1.92l-1.68-3.08a15.33,15.33,0,0,1,8.07-2.56c4.88,0,7.32,3,7.32,8.48v11.64h-3.8l-.32-2.16h-.16a9.56,9.56,0,0,1-6.07,2.64A5.49,5.49,0,0,1,342.7,336.58Zm11.55,0v-4.4c-5.35.68-7.11,2.08-7.11,4,0,1.76,1.2,2.52,2.83,2.52S352.77,337.94,354.25,336.58Z"/><path class="cls-8" d="M212,355h4.2c4.8,0,7.64,2.59,7.64,7.78s-2.84,7.92-7.49,7.92H212Zm4,13.44c3.17,0,5-1.8,5-5.66s-1.8-5.52-5-5.52h-1.22V368.4Z"/><path class="cls-8" d="M226.45,355.25a1.71,1.71,0,1,1,1.71,1.56A1.58,1.58,0,0,1,226.45,355.25Zm.31,3.62h2.76v11.79h-2.76Z"/><path class="cls-8" d="M231.88,369.32l1.29-1.78a5.3,5.3,0,0,0,3.27,1.32c1.27,0,1.87-.6,1.87-1.42,0-1-1.27-1.41-2.52-1.89-1.56-.58-3.31-1.47-3.31-3.44s1.65-3.52,4.29-3.52a6.34,6.34,0,0,1,3.91,1.41l-1.27,1.68a4.36,4.36,0,0,0-2.59-1c-1.17,0-1.73.56-1.73,1.3,0,.94,1.18,1.3,2.45,1.75,1.61.6,3.38,1.37,3.38,3.58,0,2-1.6,3.65-4.58,3.65A7.48,7.48,0,0,1,231.88,369.32Z"/><path class="cls-8" d="M243.33,366.67v-5.61h-1.68V359l1.82-.12.34-3.21h2.3v3.21h3v2.19h-3v5.61c0,1.4.53,2.07,1.65,2.07a3.3,3.3,0,0,0,1.23-.27l.48,2a7.74,7.74,0,0,1-2.4.43C244.33,371,243.33,369.22,243.33,366.67Z"/><path class="cls-8" d="M251.58,358.87h2.28l.19,2.09h.1a4,4,0,0,1,3.34-2.37,3,3,0,0,1,1.34.24l-.48,2.4a3.85,3.85,0,0,0-1.22-.2c-.94,0-2.07.65-2.79,2.43v7.2h-2.76Z"/><path class="cls-8" d="M260.22,355.25a1.71,1.71,0,1,1,1.7,1.56A1.58,1.58,0,0,1,260.22,355.25Zm.31,3.62h2.76v11.79h-2.76Z"/><path class="cls-8" d="M266.05,364.78a5.81,5.81,0,0,1,5.91-6.19,5,5,0,0,1,3.45,1.32l-1.34,1.8a2.88,2.88,0,0,0-2-.87c-1.9,0-3.22,1.56-3.22,3.94s1.3,3.91,3.15,3.91a3.88,3.88,0,0,0,2.42-1l1.13,1.83a5.87,5.87,0,0,1-3.84,1.44C268.52,371,266.05,368.69,266.05,364.78Z"/><path class="cls-8" d="M278.08,366.67v-5.61H276.4V359l1.82-.12.34-3.21h2.3v3.21h3v2.19h-3v5.61c0,1.4.53,2.07,1.66,2.07a3.29,3.29,0,0,0,1.22-.27l.48,2a7.69,7.69,0,0,1-2.4.43C279.08,371,278.08,369.22,278.08,366.67Z"/><path class="cls-9" d="M606.2,89.22h2.14L612,95.85l1.21,2.5h.07c-.09-1.21-.27-2.7-.27-4V89.22h2V101h-2.14l-3.68-6.63-1.2-2.5h-.07c.09,1.24.27,2.66.27,4V101h-2Z"/><path class="cls-9" d="M617.25,96.58c0-3,2-4.64,4.19-4.64s4.22,1.69,4.22,4.64a4.28,4.28,0,0,1-4.22,4.63C619.25,101.21,617.25,99.52,617.25,96.58Zm6.28,0c0-1.78-.79-3-2.09-3s-2.07,1.17-2.07,3,.78,2.94,2.07,2.94S623.53,98.35,623.53,96.58Z"/><path class="cls-9" d="M627.71,92.15h1.71l.14,1.57h.07a3,3,0,0,1,2.51-1.78,2.16,2.16,0,0,1,1,.18l-.36,1.8a2.84,2.84,0,0,0-.91-.15c-.71,0-1.55.49-2.09,1.82V101h-2.07Z"/><path class="cls-9" d="M634.73,98V93.79h-1.26V92.24l1.37-.09.25-2.41h1.73v2.41h2.25v1.64h-2.25V98c0,1,.39,1.55,1.24,1.55a2.57,2.57,0,0,0,.92-.2l.36,1.53a5.74,5.74,0,0,1-1.8.32C635.48,101.21,634.73,99.91,634.73,98Z"/><path class="cls-9" d="M640.92,88.28H643v3.28l-.07,1.71a4.06,4.06,0,0,1,2.82-1.33c1.89,0,2.72,1.28,2.72,3.51V101h-2.07V95.72c0-1.46-.41-2-1.38-2a2.8,2.8,0,0,0-2,1.1V101h-2.07Z"/><path class="cls-9" d="M654.74,89.22h7.11V91h-5v3.33h4.29v1.77h-4.29V101h-2.09Z"/><path class="cls-9" d="M663.74,98.73V88.28h2.07V98.83c0,.51.24.69.45.69a1.15,1.15,0,0,0,.33,0l.27,1.55a2.78,2.78,0,0,1-1.1.18C664.28,101.21,663.74,100.26,663.74,98.73Z"/><path class="cls-9" d="M668,96.58c0-3,2-4.64,4.2-4.64s4.21,1.69,4.21,4.64-2,4.63-4.21,4.63S668,99.52,668,96.58Zm6.29,0c0-1.78-.79-3-2.09-3s-2.07,1.17-2.07,3,.77,2.94,2.07,2.94S674.33,98.35,674.33,96.58Z"/><path class="cls-9" d="M678.5,92.15h1.71l.15,1.57h.07a3,3,0,0,1,2.5-1.78,2.2,2.2,0,0,1,1,.18l-.36,1.8a2.91,2.91,0,0,0-.92-.15c-.7,0-1.55.49-2.09,1.82V101H678.5Z"/><path class="cls-9" d="M685,89.44a1.29,1.29,0,1,1,1.28,1.17A1.19,1.19,0,0,1,685,89.44Zm.24,2.71h2.07V101h-2.07Z"/><path class="cls-9" d="M689.39,96.58c0-2.88,1.82-4.64,3.75-4.64a3.26,3.26,0,0,1,2.32,1l-.07-1.42V88.28h2.07V101h-1.71l-.15-1h-.07a3.68,3.68,0,0,1-2.5,1.17C690.81,101.21,689.39,99.5,689.39,96.58Zm6,1.93V94.39a2.64,2.64,0,0,0-1.8-.74c-1.14,0-2.05,1.06-2.05,2.92s.71,2.93,2,2.93A2.41,2.41,0,0,0,695.39,98.51Z"/><path class="cls-9" d="M699.62,98.62c0-1.89,1.56-2.88,5.2-3.28,0-.93-.41-1.73-1.62-1.73a5.09,5.09,0,0,0-2.49.87L700,93.09a6.91,6.91,0,0,1,3.63-1.15c2.2,0,3.3,1.35,3.3,3.82V101h-1.71l-.14-1H705a4.27,4.27,0,0,1-2.73,1.19A2.47,2.47,0,0,1,699.62,98.62Zm5.2,0v-2c-2.41.3-3.21.93-3.21,1.82s.54,1.13,1.28,1.13A2.83,2.83,0,0,0,704.82,98.62Z"/><path class="cls-9" d="M629.91,110.82h3.15c3.6,0,5.73,1.94,5.73,5.83s-2.13,5.95-5.62,5.95h-3.26Zm3,10.08c2.37,0,3.73-1.35,3.73-4.25s-1.36-4.14-3.73-4.14H632v8.39Z"/><path class="cls-9" d="M640.75,111a1.28,1.28,0,1,1,1.28,1.17A1.19,1.19,0,0,1,640.75,111Zm.23,2.71h2.07v8.85H641Z"/><path class="cls-9" d="M644.82,121.59l1-1.34a3.89,3.89,0,0,0,2.45,1c1,0,1.4-.45,1.4-1.06s-.95-1.06-1.89-1.42c-1.17-.43-2.49-1.1-2.49-2.58s1.25-2.64,3.23-2.64a4.76,4.76,0,0,1,2.93,1.06l-.95,1.26a3.29,3.29,0,0,0-2-.76c-.88,0-1.29.42-1.29,1s.88,1,1.83,1.31c1.21.45,2.54,1,2.54,2.68s-1.2,2.74-3.44,2.74A5.59,5.59,0,0,1,644.82,121.59Z"/><path class="cls-9" d="M653.4,119.61v-4.22h-1.26v-1.55l1.37-.09.25-2.41h1.73v2.41h2.25v1.64h-2.25v4.22c0,1,.4,1.54,1.24,1.54a2.69,2.69,0,0,0,.92-.19l.36,1.53a5.69,5.69,0,0,1-1.8.32C654.16,122.81,653.4,121.51,653.4,119.61Z"/><path class="cls-9" d="M659.59,113.75h1.71l.15,1.57h.07a3,3,0,0,1,2.5-1.78,2.2,2.2,0,0,1,1,.18l-.36,1.8a2.87,2.87,0,0,0-.92-.14c-.7,0-1.55.48-2.09,1.81v5.41h-2.07Z"/><path class="cls-9" d="M666.07,111a1.29,1.29,0,1,1,1.28,1.17A1.19,1.19,0,0,1,666.07,111Zm.24,2.71h2.07v8.85h-2.07Z"/><path class="cls-9" d="M670.45,118.18a4.36,4.36,0,0,1,4.43-4.64,3.8,3.8,0,0,1,2.59,1l-1,1.35a2.19,2.19,0,0,0-1.48-.65c-1.42,0-2.41,1.17-2.41,3s1,2.94,2.36,2.94a2.92,2.92,0,0,0,1.82-.76l.85,1.37a4.44,4.44,0,0,1-2.89,1.08C672.3,122.81,670.45,121.12,670.45,118.18Z"/><path class="cls-9" d="M679.46,119.61v-4.22h-1.25v-1.55l1.36-.09.26-2.41h1.72v2.41h2.25v1.64h-2.25v4.22c0,1,.4,1.54,1.25,1.54a2.68,2.68,0,0,0,.91-.19l.36,1.53a5.63,5.63,0,0,1-1.8.32C680.22,122.81,679.46,121.51,679.46,119.61Z"/></g><g id="Outline"><polyline class="cls-10" points="533.22 235.66 533.22 242.77 540.33 242.76 542.71 247.48 542.7 252.19 547.59 252.18 547.61 256.82 555.38 256.88 553.05 262.78 547.29 259.9 550.48 263.68 556.11 267.81 557.77 270.06 558.35 274.78 563.62 276.41 565.25 278.17 569.65 287.05 569.92 292.47 539.91 292.2 539.88 316.77 539.95 341.37 539.73 362.48 504.44 362.41"/><polyline class="cls-11" points="645.99 398.2 635.16 397.12 588.52 397.19 588.21 347.35 583.95 362.52 539.73 362.48"/></g><g id="Bullseye_Location_s_" data-name="Bullseye/Location(s)"><circle class="cls-12" cx="477.1" cy="269.01" r="9.02"/><circle class="cls-12" cx="628.6" cy="308.71" r="9.02"/><circle class="cls-13" cx="636.84" cy="442.82" r="29.28"/><circle class="cls-12" cx="636.84" cy="442.82" r="9.02"/></g></svg>