<svg id="Layer_1" data-name="Layer 1" xmlns="http://www.w3.org/2000/svg" viewBox="0 0 781.32 496.46"><defs><style>.cls-1{fill:#e6e6e6;}.cls-2{fill:#007dbc;}.cls-2,.cls-4,.cls-8{isolation:isolate;opacity:0.8;}.cls-3,.cls-5,.cls-6{fill:none;}.cls-3{stroke:#0675af;}.cls-3,.cls-5{stroke-linejoin:bevel;stroke-width:0.67px;}.cls-4{fill:#a5a5a5;}.cls-4,.cls-5{stroke:#868788;}.cls-4,.cls-6{stroke-miterlimit:10;}.cls-6{stroke:#fff;stroke-width:3px;}.cls-7{fill:#fff;}.cls-8{fill:#868788;}</style></defs><rect class="cls-1" x="-18.1" y="-16.76" width="804.92" height="529.99"/><path class="cls-2" d="M321.08,52.29h4.76l2.28,13.19c.44,2.8.88,5.6,1.28,8.36h.16c.56-2.76,1.12-5.6,1.72-8.36l3.2-13.19h4l3.2,13.19c.59,2.72,1.16,5.56,1.76,8.36h.16c.39-2.8.84-5.6,1.23-8.36l2.28-13.19h4.44l-5,26.15H340.8l-3.2-13.76c-.44-2-.84-4-1.16-6h-.16q-.54,3-1.2,6L331.9,78.44h-5.64Z"/><path class="cls-2" d="M354.76,52.77a2.85,2.85,0,1,1,3.1,2.57h-.26a2.63,2.63,0,0,1-2.83-2.43A.76.76,0,0,1,354.76,52.77Zm.52,6h4.62V78.44h-4.6Z"/><path class="cls-2" d="M364.48,68.64c0-6.56,4.6-10.32,9.84-10.32a8.4,8.4,0,0,1,5.76,2.2l-2.24,3a4.74,4.74,0,0,0-3.28-1.44c-3.16,0-5.36,2.59-5.36,6.55s2.16,6.52,5.24,6.52a6.47,6.47,0,0,0,4-1.68l1.88,3a9.74,9.74,0,0,1-6.4,2.4C368.6,78.92,364.48,75.16,364.48,68.64Z"/><path class="cls-2" d="M384.24,50.24h4.6v7.27l-.16,3.8a9,9,0,0,1,6.28-3c4.19,0,6,2.84,6,7.8V78.44H396.4V66.72c0-3.24-.92-4.44-3.08-4.44-1.72,0-2.84.84-4.48,2.44V78.44h-4.6Z"/><path class="cls-2" d="M406,52.77a2.85,2.85,0,1,1,3.1,2.57l-.24,0a2.64,2.64,0,0,1-2.85-2.42A1,1,0,0,1,406,52.77Zm.52,6h4.6V78.44h-4.6Z"/><path class="cls-2" d="M417.72,71.8V62.44H414.9V59l3-.2.56-5.35h3.84V58.8h5v3.64h-5V71.8c0,2.32.88,3.44,2.76,3.44a5.93,5.93,0,0,0,2-.44l.8,3.4a13,13,0,0,1-4,.72C419.4,78.92,417.72,76,417.72,71.8Z"/><path class="cls-2" d="M429.6,73.16c0-4.2,3.48-6.4,11.55-7.28-.08-2.08-.92-3.84-3.59-3.84A11.07,11.07,0,0,0,432,64l-1.68-3.08a15.23,15.23,0,0,1,8.08-2.56c4.87,0,7.31,3,7.31,8.48V78.44H442l-.31-2.2h-.16a9.61,9.61,0,0,1-6.08,2.64,5.5,5.5,0,0,1-5.8-5.17A5,5,0,0,1,429.6,73.16Zm11.55,0v-4.4c-5.35.68-7.11,2.08-7.11,4,0,1.76,1.2,2.51,2.84,2.51S439.68,74.52,441.15,73.16Z"/><path class="cls-2" d="M349.07,91.54h4.2c4.8,0,7.63,2.6,7.63,7.78s-2.83,7.92-7.49,7.92h-4.34Zm4,13.45c3.16,0,5-1.81,5-5.67s-1.8-5.52-5-5.52H351.9V105Z"/><path class="cls-2" d="M363.52,91.83a1.71,1.71,0,1,1,1.85,1.55.75.75,0,0,1-.15,0,1.58,1.58,0,0,1-1.7-1.45Zm.31,3.62h2.76v11.79h-2.76Z"/><path class="cls-2" d="M368.9,105.9l1.29-1.78a5.28,5.28,0,0,0,3.27,1.32c1.27,0,1.87-.6,1.87-1.41,0-1-1.27-1.42-2.52-1.9-1.56-.58-3.31-1.46-3.31-3.43s1.65-3.53,4.3-3.53a6.35,6.35,0,0,1,3.91,1.41l-1.23,1.66a4.37,4.37,0,0,0-2.6-1c-1.17,0-1.73.55-1.73,1.29,0,.94,1.18,1.3,2.45,1.75,1.61.6,3.39,1.37,3.39,3.58,0,2-1.61,3.65-4.59,3.65A7.58,7.58,0,0,1,368.9,105.9Z"/><path class="cls-2" d="M380.39,103.24v-5.6h-1.68V95.58l1.82-.12.37-3.22h2.3v3.22h3v2.18h-3v5.6c0,1.39.53,2.06,1.66,2.06a3.65,3.65,0,0,0,1.22-.26l.48,2a7.82,7.82,0,0,1-2.4.43C381.4,107.53,380.39,105.8,380.39,103.24Z"/><path class="cls-2" d="M388.64,95.46h2.26l.2,2.08h.09a4,4,0,0,1,3.34-2.37,2.8,2.8,0,0,1,1.34.24l-.48,2.4a3.62,3.62,0,0,0-1.22-.19c-.94,0-2.07.64-2.79,2.42v7.2h-2.76Z"/><path class="cls-2" d="M397.28,91.83a1.71,1.71,0,1,1,1.85,1.55H399a1.58,1.58,0,0,1-1.71-1.46Zm.31,3.62h2.77v11.79h-2.77Z"/><path class="cls-2" d="M403.11,101.36a5.82,5.82,0,0,1,5.44-6.18,3.69,3.69,0,0,1,.47,0,5,5,0,0,1,3.46,1.32l-1.35,1.8a2.86,2.86,0,0,0-2-.86c-1.89,0-3.21,1.55-3.21,3.93s1.29,3.91,3.14,3.91a4,4,0,0,0,2.43-1l1.12,1.83a5.93,5.93,0,0,1-3.84,1.44C405.59,107.53,403.11,105.24,403.11,101.36Z"/><path class="cls-2" d="M415.14,103.24v-5.6h-1.68V95.58l1.82-.12.34-3.22h2.28v3.22h3v2.18h-3v5.6c0,1.39.53,2.06,1.66,2.06a3.65,3.65,0,0,0,1.22-.26l.48,2a7.82,7.82,0,0,1-2.4.43C416.15,107.53,415.14,105.8,415.14,103.24Z"/><polygon class="cls-2" points="94.75 328.7 129.42 328.56 129.19 284.88 94.76 284.98 94.75 328.7"/><polygon class="cls-3" points="94.75 328.7 129.42 328.56 129.19 284.88 94.76 284.98 94.75 328.7"/><polygon class="cls-2" points="423.99 152.88 424.03 197.29 468.12 197.34 468.21 152.96 423.99 152.88"/><polygon class="cls-3" points="423.99 152.88 424.03 197.29 468.12 197.34 468.21 152.96 423.99 152.88"/><polygon class="cls-2" points="57.13 241.28 57.29 285.18 101.25 284.93 101.76 241.12 57.13 241.28"/><polygon class="cls-3" points="57.13 241.28 57.29 285.18 101.25 284.93 101.76 241.12 57.13 241.28"/><polygon class="cls-2" points="503.71 280.99 535.6 281.02 535.55 244.76 528.29 241.96 524.44 239.34 526.83 238.75 524.8 235.18 517.35 235.53 517.33 234.19 512.37 233.53 510.14 236.66 506.15 235.56 505.37 238.68 500.86 237.28 500.71 250.35 492.05 250.31 492.02 272.24 500.73 272.29 500.79 281.01 503.71 280.99"/><polygon class="cls-3" points="503.71 280.99 535.6 281.02 535.55 244.76 528.29 241.96 524.44 239.34 526.83 238.75 524.8 235.18 517.35 235.53 517.33 234.19 512.37 233.53 510.14 236.66 506.15 235.54 505.37 238.68 500.86 237.28 500.71 250.35 492.05 250.31 492.02 272.24 500.73 272.29 500.79 281.01 503.71 280.99"/><polygon class="cls-2" points="205.6 285.21 249.16 285.3 249.68 241.35 206.08 241.38 205.6 285.21"/><polygon class="cls-3" points="205.6 285.2 249.16 285.29 249.68 241.35 206.08 241.38 205.6 285.2"/><polygon class="cls-2" points="108.54 241.09 161.11 241.28 161.2 197.19 108.74 197.16 108.54 241.09"/><polygon class="cls-3" points="108.54 241.09 161.11 241.28 161.2 197.18 108.74 197.15 108.54 241.09"/><polygon class="cls-2" points="389.61 407.07 390.02 453.92 441.36 453.88 440.92 406.94 389.61 407.07"/><polygon class="cls-3" points="389.61 407.07 390.02 453.92 441.36 453.88 440.92 406.94 389.61 407.07"/><polygon class="cls-2" points="95.61 415.55 95.72 454.24 134.03 454 133.93 415.62 95.61 415.55"/><polygon class="cls-3" points="95.61 415.54 95.72 454.24 134.03 454 133.93 415.61 95.61 415.54"/><polygon class="cls-2" points="57.57 390.25 57.57 415.48 98.02 415.54 97.91 381.14 57.53 380.92 57.57 390.25"/><polygon class="cls-3" points="57.57 390.25 57.57 415.46 98.02 415.52 97.91 381.13 57.53 380.92 57.57 390.25"/><polygon class="cls-2" points="294.36 354.89 294.33 372.32 337.47 372.37 337.45 337.74 336.89 328.94 302.96 328.92 302.9 354.88 294.36 354.89"/><polygon class="cls-3" points="294.36 354.89 294.32 372.31 337.47 372.36 337.45 337.73 336.89 328.94 302.96 328.92 302.9 354.88 294.36 354.89"/><polygon class="cls-2" points="290.84 152.87 290.93 197.19 334.89 197.22 334.96 152.87 290.84 152.87"/><polygon class="cls-3" points="290.84 152.85 290.93 197.18 334.89 197.22 334.96 152.85 290.84 152.85"/><polygon class="cls-2" points="56.93 197.16 57.13 241.28 108.54 241.09 108.74 197.16 56.93 197.16"/><polygon class="cls-3" points="56.93 197.16 57.13 241.28 108.54 241.09 108.74 197.15 56.93 197.16"/><polygon class="cls-2" points="161.11 241.28 204.78 241.41 205 197.25 161.2 197.19 161.11 241.28"/><polygon class="cls-3" points="161.11 241.28 204.78 241.41 205 197.25 161.2 197.18 161.11 241.28"/><polygon class="cls-2" points="133.93 415.62 134.03 454 168.01 453.8 167.97 415.63 133.93 415.62"/><polygon class="cls-3" points="133.93 415.61 134.03 454 168.01 453.8 167.97 415.63 133.93 415.61"/><polygon class="cls-2" points="389.59 381.38 389.61 407.07 440.92 406.94 440.98 363.62 397.88 363.63 398.15 381.25 389.59 381.38"/><polygon class="cls-3" points="389.59 381.37 389.61 407.07 440.92 406.94 440.98 363.62 397.88 363.63 398.15 381.25 389.59 381.37"/><polygon class="cls-2" points="129.19 284.88 129.42 328.56 163.74 328.6 163.99 327.9 163.72 284.94 129.19 284.88"/><polygon class="cls-3" points="129.19 284.88 129.42 328.56 163.74 328.6 163.99 327.9 163.72 284.94 129.19 284.88"/><polygon class="cls-2" points="380.09 267.71 380.43 293.99 423.77 294.04 423.78 258.98 380.11 258.94 380.09 267.71"/><polygon class="cls-3" points="380.09 267.71 380.43 293.99 423.77 294.04 423.78 258.98 380.11 258.94 380.09 267.71"/><polygon class="cls-2" points="292.76 285.25 336.4 285.24 336.59 241.32 293.16 241.28 292.76 285.25"/><polygon class="cls-3" points="292.76 285.25 336.4 285.24 336.59 241.32 293.16 241.28 292.76 285.25"/><polygon class="cls-2" points="250.21 285.3 250.24 320.08 293.56 320.19 293.53 285.25 250.21 285.3"/><polygon class="cls-3" points="250.21 285.29 250.24 320.08 293.56 320.18 293.52 285.25 250.21 285.29"/><polygon class="cls-2" points="248.62 241.35 292.36 241.29 292.64 197.19 248.87 197.25 248.62 241.35"/><polygon class="cls-3" points="248.62 241.35 292.36 241.29 292.64 197.19 248.87 197.25 248.62 241.35"/><polygon class="cls-2" points="492.05 250.31 500.71 250.35 500.86 237.28 495.46 235.47 490.93 237.49 487.65 236.46 487.34 230.4 484.69 229.25 474.37 213.88 475.94 208 478.99 206.6 480.82 202.18 484.93 199.63 485.73 197.35 456.16 197.34 455.97 232.47 464.7 232.59 464.7 240.69 466.16 241.59 464.62 245.81 475.99 245.49 475.99 247.34 492.05 247.38 492.05 250.31"/><polygon class="cls-3" points="492.05 250.31 500.71 250.35 500.86 237.28 495.46 235.47 490.93 237.49 487.65 236.46 487.34 230.38 484.69 229.25 474.37 213.88 475.94 208 478.99 206.6 480.82 202.18 484.93 199.63 485.73 197.35 456.16 197.34 455.97 232.47 464.7 232.59 464.7 240.69 466.16 241.59 464.62 245.81 475.99 245.47 475.99 247.34 492.05 247.38 492.05 250.31"/><polygon class="cls-2" points="336.85 302.82 336.89 328.94 337.45 337.74 357.58 337.65 357.59 339.12 363.37 339.05 363.36 337.62 380.6 337.63 380.46 302.73 336.85 302.82"/><polygon class="cls-3" points="336.85 302.82 336.89 328.94 337.45 337.73 357.58 337.64 357.59 339.12 363.37 339.05 363.36 337.61 380.6 337.63 380.46 302.73 336.85 302.82"/><polygon class="cls-2" points="379.87 152.88 379.88 188.43 424.02 188.43 423.99 152.88 379.87 152.88"/><polygon class="cls-3" points="379.87 152.88 379.88 188.43 424.02 188.43 423.99 152.88 379.87 152.88"/><polygon class="cls-2" points="337.45 337.74 337.47 372.37 338.07 381.49 398.15 381.25 397.88 337.63 363.36 337.62 363.37 339.05 357.59 339.12 357.58 337.65 337.45 337.74"/><polygon class="cls-3" points="337.45 337.73 337.47 372.36 338.07 381.48 398.15 381.25 397.88 337.63 363.36 337.61 363.37 339.05 357.59 339.12 357.58 337.64 337.45 337.73"/><polygon class="cls-2" points="106.8 197.16 159.58 197.19 159.74 152.88 107.02 152.85 106.8 197.16"/><polygon class="cls-3" points="106.8 197.15 159.58 197.18 159.74 152.88 107.02 152.84 106.8 197.15"/><polygon class="cls-2" points="295.03 381.46 295.11 407.45 338.08 407.38 338.07 381.49 337.47 372.37 295.05 372.32 295.03 381.46"/><polygon class="cls-3" points="295.03 381.45 295.11 407.45 338.08 407.38 338.07 381.48 337.47 372.36 295.05 372.31 295.03 381.45"/><polygon class="cls-2" points="246.85 197.25 290.93 197.19 290.84 152.87 247.01 152.91 246.85 197.25"/><polygon class="cls-3" points="246.85 197.24 290.93 197.18 290.84 152.85 247.01 152.91 246.85 197.24"/><polygon class="cls-2" points="250.24 320.08 250.28 328.8 251.35 328.8 251.44 346.24 268.63 346.21 268.64 354.86 302.9 354.88 302.96 328.92 293.56 328.89 293.56 320.19 250.24 320.08"/><polygon class="cls-3" points="250.24 320.08 250.28 328.8 251.35 328.8 251.44 346.24 268.63 346.21 268.64 354.86 302.9 354.88 302.96 328.92 293.56 328.89 293.56 320.18 250.24 320.08"/><polygon class="cls-2" points="379.99 232.57 380.11 258.94 423.78 258.98 423.95 223.76 380.05 223.75 379.99 232.57"/><polygon class="cls-3" points="379.99 232.57 380.11 258.94 423.78 258.98 423.95 223.76 380.05 223.75 379.99 232.57"/><polygon class="cls-2" points="292.36 241.29 336.1 241.32 336.3 197.24 292.64 197.19 292.36 241.29"/><polygon class="cls-3" points="292.36 241.29 336.1 241.32 336.3 197.24 292.64 197.19 292.36 241.29"/><polygon class="cls-2" points="203.53 197.29 246.85 197.25 247.01 152.91 203.73 152.94 203.53 197.29"/><polygon class="cls-3" points="203.53 197.29 246.85 197.24 247.01 152.91 203.73 152.94 203.53 197.29"/><polygon class="cls-2" points="198.29 285.12 198.51 328.79 250.28 328.8 250.21 285.3 198.29 285.12"/><polygon class="cls-3" points="198.29 285.12 198.51 328.79 250.28 328.8 250.21 285.29 198.29 285.12"/><polygon class="cls-2" points="58.62 454.46 95.72 454.24 95.61 415.55 57.57 415.48 57.53 454.48 58.62 454.46"/><polygon class="cls-3" points="58.62 454.46 95.72 454.24 95.61 415.54 57.57 415.46 57.53 454.48 58.62 454.46"/><polygon class="cls-2" points="458.41 294.04 458.43 302.75 503.61 302.83 503.71 280.99 500.79 281.01 500.73 272.29 492.02 272.24 492.02 267.87 461.54 267.81 461.54 273.64 458.65 273.65 458.41 294.04"/><polygon class="cls-3" points="458.4 294.04 458.43 302.75 503.61 302.83 503.71 280.99 500.79 281.01 500.73 272.29 492.02 272.24 492.02 267.87 461.54 267.81 461.54 273.64 458.65 273.65 458.4 294.04"/><polygon class="cls-2" points="336.1 232.53 379.99 232.57 380.11 197.29 336.3 197.24 336.1 232.53"/><polygon class="cls-3" points="336.1 232.53 379.99 232.57 380.11 197.29 336.3 197.24 336.1 232.53"/><polygon class="cls-2" points="166.48 407 166.49 415.63 167.97 415.63 168.01 453.8 210.66 453.56 210.5 415.69 209.26 415.68 209.27 407.01 166.48 407"/><polygon class="cls-3" points="166.48 407 166.49 415.63 167.97 415.63 168.01 453.8 210.66 453.56 210.5 415.69 209.26 415.68 209.27 407.01 166.48 407"/><polygon class="cls-2" points="380.46 302.73 380.6 337.63 423.78 337.65 423.77 294.04 380.43 293.99 380.46 302.73"/><polygon class="cls-3" points="380.46 302.73 380.6 337.63 423.78 337.64 423.77 294.04 380.43 293.99 380.46 302.73"/><polygon class="cls-2" points="423.77 294.04 423.78 337.65 440.96 337.52 440.93 346.21 465.41 346.43 465.64 320.17 467.09 320.18 467.08 302.75 458.43 302.75 458.41 294.04 423.77 294.04"/><polygon class="cls-3" points="423.77 294.04 423.78 337.64 440.96 337.52 440.93 346.21 465.41 346.43 465.64 320.17 467.09 320.18 467.08 302.75 458.43 302.75 458.4 294.04 423.77 294.04"/><polygon class="cls-2" points="503.34 337.74 534.57 337.88 535.28 329.01 535.3 285.43 535.6 281.02 503.71 280.99 503.34 337.74"/><polygon class="cls-3" points="503.34 337.73 534.57 337.88 535.28 329.01 535.3 285.42 535.6 281.02 503.71 280.99 503.34 337.73"/><polygon class="cls-2" points="129.19 284.88 153.47 284.94 154.01 241.28 101.76 241.12 101.25 284.93 129.19 284.88"/><polygon class="cls-3" points="129.19 284.88 153.47 284.94 154.01 241.28 101.76 241.12 101.25 284.93 129.19 284.88"/><polygon class="cls-2" points="336.1 241.32 336.59 241.32 336.49 267.75 380.09 267.71 379.99 232.57 336.1 232.53 336.1 241.32"/><polygon class="cls-3" points="336.1 241.32 336.59 241.32 336.49 267.75 380.09 267.71 379.99 232.57 336.1 232.53 336.1 241.32"/><polygon class="cls-2" points="163.74 328.6 198.51 328.79 198.29 285.12 163.72 284.94 163.99 327.9 163.74 328.6"/><polygon class="cls-3" points="163.74 328.6 198.51 328.79 198.29 285.12 163.72 284.94 163.99 327.9 163.74 328.6"/><polygon class="cls-2" points="252.21 381.27 252.51 416.27 295.2 415.95 295.03 381.46 252.21 381.27"/><polygon class="cls-3" points="252.21 381.26 252.51 416.27 295.2 415.95 295.03 381.45 252.21 381.26"/><polygon class="cls-2" points="338.08 407.38 338.06 415.98 389.65 415.75 389.59 381.38 338.07 381.49 338.08 407.38"/><polygon class="cls-3" points="338.08 407.38 338.06 415.98 389.65 415.75 389.59 381.37 338.07 381.48 338.08 407.38"/><polygon class="cls-2" points="97.91 381.14 132.22 381.13 132.21 371.92 131.12 371.93 131.16 328.56 96.73 328.69 96.69 372.07 97.9 372.06 97.91 381.14"/><polygon class="cls-3" points="97.91 381.13 132.22 381.13 132.21 371.92 131.12 371.93 131.16 328.56 96.73 328.69 96.69 372.07 97.9 372.06 97.91 381.13"/><polygon class="cls-2" points="336.3 197.24 379.86 197.28 379.87 152.88 334.96 152.87 334.89 197.22 336.3 197.24"/><polygon class="cls-3" points="336.3 197.24 379.86 197.28 379.87 152.88 334.96 152.85 334.89 197.22 336.3 197.24"/><polygon class="cls-2" points="199.91 354.83 199.87 363.49 251.42 363.6 251.35 328.8 199.87 328.8 199.91 354.83"/><polygon class="cls-3" points="199.91 354.83 199.87 363.49 251.42 363.58 251.35 328.8 199.87 328.8 199.91 354.83"/><polygon class="cls-2" points="132.22 415.62 166.49 415.63 166.52 381.13 132.22 381.13 132.22 415.62"/><polygon class="cls-3" points="132.22 415.62 166.49 415.63 166.52 381.13 132.22 381.13 132.22 415.62"/><polygon class="cls-2" points="397.88 363.63 440.98 363.62 440.96 337.52 397.88 337.63 397.88 363.63"/><polygon class="cls-3" points="397.88 363.63 440.98 363.62 440.96 337.52 397.88 337.63 397.88 363.63"/><polygon class="cls-2" points="347.09 415.98 347.29 453.99 390.02 453.92 389.65 415.75 347.09 415.98"/><polygon class="cls-3" points="347.09 415.98 347.29 453.99 390.02 453.92 389.65 415.75 347.09 415.98"/><polygon class="cls-2" points="57.53 380.92 97.91 381.14 97.9 372.06 96.69 372.07 96.73 328.69 57.34 328.76 57.53 380.92"/><polygon class="cls-3" points="57.53 380.92 97.91 381.13 97.9 372.06 96.69 372.07 96.73 328.69 57.34 328.76 57.53 380.92"/><polygon class="cls-2" points="490.17 393.94 534.42 394.27 534.57 337.88 503.34 337.74 503.28 346.39 490.36 346.33 490.17 393.94"/><polygon class="cls-3" points="490.17 393.94 534.42 394.26 534.57 337.88 503.34 337.73 503.28 346.39 490.36 346.33 490.17 393.94"/><polygon class="cls-2" points="57.3 293.45 57.34 328.76 94.75 328.7 94.76 284.98 57.29 285.18 57.3 293.45"/><polygon class="cls-3" points="57.3 293.45 57.34 328.76 94.75 328.7 94.76 284.98 57.29 285.18 57.3 293.45"/><polygon class="cls-2" points="200.73 406.95 200.85 372.13 199.85 372.14 199.91 354.83 165.59 354.69 165.51 371.95 166.57 371.96 166.48 407 200.73 406.95"/><polygon class="cls-3" points="200.73 406.95 200.85 372.13 199.84 372.14 199.91 354.83 165.59 354.69 165.51 371.95 166.57 371.96 166.48 407 200.73 406.95"/><polygon class="cls-2" points="98.02 415.54 132.22 415.62 132.22 381.13 97.91 381.14 98.02 415.54"/><polygon class="cls-3" points="98.02 415.52 132.22 415.62 132.22 381.13 97.91 381.13 98.02 415.52"/><polygon class="cls-2" points="206.08 241.38 248.62 241.35 248.87 197.25 205 197.25 204.78 241.41 206.08 241.38"/><polygon class="cls-3" points="206.08 241.38 248.62 241.35 248.87 197.25 205 197.25 204.78 241.41 206.08 241.38"/><polygon class="cls-2" points="163.72 284.94 205.6 285.21 206.08 241.38 154.01 241.28 153.47 284.94 163.72 284.94"/><polygon class="cls-3" points="163.72 284.94 205.6 285.2 206.08 241.38 154.01 241.28 153.47 284.94 163.72 284.94"/><polygon class="cls-2" points="455.81 241.35 455.8 258.27 458.73 256.86 458.68 267.79 492.02 267.87 492.05 247.38 475.99 247.34 475.99 245.49 464.62 245.81 466.16 241.59 464.7 240.69 464.7 232.59 455.97 232.47 455.81 241.35"/><polygon class="cls-3" points="455.81 241.35 455.8 258.27 458.73 256.86 458.68 267.79 492.02 267.87 492.05 247.38 475.99 247.34 475.99 245.47 464.62 245.81 466.16 241.59 464.7 240.69 464.7 232.59 455.97 232.47 455.81 241.35"/><polygon class="cls-2" points="200.73 406.95 235.35 407.75 252.49 407.71 252.18 372.3 251.38 372.29 251.42 363.6 199.87 363.49 199.85 372.14 200.85 372.13 200.73 406.95"/><polygon class="cls-3" points="200.73 406.95 235.35 407.75 252.49 407.71 252.18 372.3 251.38 372.29 251.42 363.58 199.87 363.49 199.84 372.14 200.85 372.13 200.73 406.95"/><polygon class="cls-2" points="131.16 328.56 131.12 371.93 132.21 371.92 132.22 381.13 166.52 381.13 166.57 371.96 165.51 371.95 165.59 354.69 199.91 354.83 199.87 328.8 131.16 328.56"/><polygon class="cls-3" points="131.16 328.56 131.12 371.93 132.21 371.92 132.22 381.13 166.52 381.13 166.57 371.96 165.51 371.95 165.59 354.69 199.91 354.83 199.87 328.8 131.16 328.56"/><polygon class="cls-2" points="336.85 302.82 380.46 302.73 380.09 267.71 336.49 267.75 336.4 285.24 336.86 285.24 336.85 302.82"/><polygon class="cls-3" points="336.85 302.82 380.46 302.73 380.09 267.71 336.49 267.75 336.4 285.24 336.86 285.24 336.85 302.82"/><polygon class="cls-2" points="250.21 285.3 292.76 285.25 293.16 241.28 249.68 241.35 249.16 285.3 250.21 285.3"/><polygon class="cls-3" points="250.21 285.29 292.76 285.25 293.16 241.28 249.68 241.35 249.16 285.29 250.21 285.29"/><polygon class="cls-2" points="490.13 406.87 490.2 424 534.15 424.35 534.42 394.27 490.17 393.94 490.13 406.87"/><polygon class="cls-3" points="490.13 406.86 490.2 424 534.15 424.35 534.42 394.26 490.17 393.94 490.13 406.86"/><polygon class="cls-2" points="252.21 381.27 295.03 381.46 295.05 372.32 294.33 372.32 294.36 354.89 268.64 354.86 268.63 346.21 251.44 346.24 251.38 372.29 252.18 372.3 252.21 381.27"/><polygon class="cls-3" points="252.21 381.26 295.03 381.45 295.05 372.31 294.32 372.31 294.36 354.89 268.64 354.86 268.63 346.21 251.44 346.24 251.38 372.29 252.18 372.3 252.21 381.26"/><polygon class="cls-2" points="458.41 294.04 458.65 273.65 461.54 273.64 461.54 267.81 458.68 267.79 458.73 256.86 455.8 258.27 455.81 241.35 423.83 241.4 423.77 294.04 458.41 294.04"/><polygon class="cls-3" points="458.4 294.04 458.65 273.65 461.54 273.64 461.54 267.81 458.68 267.79 458.73 256.86 455.8 258.27 455.81 241.35 423.83 241.4 423.77 294.04 458.4 294.04"/><polygon class="cls-2" points="161.2 197.19 203.53 197.29 203.73 152.94 159.74 152.88 159.58 197.19 161.2 197.19"/><polygon class="cls-3" points="161.2 197.18 203.53 197.29 203.73 152.94 159.74 152.88 159.58 197.18 161.2 197.18"/><polygon class="cls-2" points="440.92 406.94 441.36 453.88 490.15 453.92 490.13 406.87 440.92 406.94"/><polygon class="cls-3" points="440.92 406.94 441.36 453.88 490.15 453.92 490.13 406.86 440.92 406.94"/><polygon class="cls-2" points="253.5 416.27 253.67 453.82 296.03 453.82 296 415.95 253.5 416.27"/><polygon class="cls-3" points="253.5 416.27 253.66 453.82 296.03 453.82 296 415.95 253.5 416.27"/><polygon class="cls-2" points="380.05 223.75 423.95 223.76 424.02 188.43 379.88 188.43 380.05 223.75"/><polygon class="cls-3" points="380.05 223.75 423.95 223.76 424.02 188.43 379.88 188.43 380.05 223.75"/><polygon class="cls-2" points="455.81 241.35 456.16 197.34 424.03 197.29 423.83 241.4 455.81 241.35"/><polygon class="cls-3" points="455.81 241.35 456.16 197.34 424.03 197.29 423.83 241.4 455.81 241.35"/><polygon class="cls-2" points="210.66 453.56 253.67 453.82 253.5 416.27 252.51 416.27 252.49 407.71 235.35 407.75 209.27 407.01 209.26 415.68 210.5 415.69 210.66 453.56"/><polygon class="cls-3" points="210.66 453.56 253.66 453.82 253.5 416.27 252.51 416.27 252.49 407.71 235.35 407.75 209.27 407.01 209.26 415.68 210.5 415.69 210.66 453.56"/><polygon class="cls-2" points="56.93 196.56 56.93 197.16 106.8 197.16 107.02 152.85 56.78 152.78 56.93 196.56"/><polygon class="cls-3" points="56.93 196.56 56.93 197.16 106.8 197.15 107.02 152.84 56.78 152.78 56.93 196.56"/><polygon class="cls-2" points="531.3 453.89 534.16 453.88 534.15 424.35 490.2 424 490.15 453.92 531.3 453.89"/><polygon class="cls-3" points="531.3 453.89 534.16 453.88 534.15 424.35 490.2 424 490.15 453.92 531.3 453.89"/><polygon class="cls-2" points="490.36 346.33 503.28 346.39 503.61 302.83 467.08 302.75 467.09 320.18 465.64 320.17 465.41 346.43 490.36 346.33"/><polygon class="cls-3" points="490.36 346.33 503.28 346.39 503.61 302.83 467.08 302.75 467.09 320.18 465.64 320.17 465.41 346.43 490.36 346.33"/><polygon class="cls-2" points="490.13 406.87 490.36 346.33 440.93 346.21 440.92 406.94 490.13 406.87"/><polygon class="cls-3" points="490.13 406.86 490.36 346.33 440.93 346.21 440.92 406.94 490.13 406.86"/><polygon class="cls-2" points="293.56 320.19 293.56 328.89 336.89 328.94 336.86 285.24 293.53 285.25 293.56 320.19"/><polygon class="cls-3" points="293.56 320.18 293.56 328.89 336.89 328.94 336.86 285.24 293.52 285.25 293.56 320.18"/><polygon class="cls-2" points="295.2 415.95 296 415.95 296.03 453.82 347.29 453.99 347.09 415.98 338.06 415.98 338.08 407.38 295.11 407.45 295.2 415.95"/><polygon class="cls-3" points="295.2 415.95 296 415.95 296.03 453.82 347.29 453.99 347.09 415.98 338.06 415.98 338.08 407.38 295.11 407.45 295.2 415.95"/><polygon class="cls-4" points="616.93 255.59 619.84 248.75 625.21 250.34 640.57 250.28 640.57 243.28 641.01 238.6 637.18 239.16 634.18 236.22 629.17 237.21 627.45 234.63 617.61 234.22 616.97 241.75 616.93 255.59"/><polygon class="cls-5" points="616.93 255.59 619.84 248.75 625.21 250.34 640.57 250.28 640.57 243.28 641.01 238.6 637.18 239.16 634.18 236.22 629.17 237.19 627.45 234.63 617.61 234.22 616.97 241.74 616.93 255.59"/><polygon class="cls-4" points="534.43 381.33 568.56 381.48 569.06 372.8 569.06 351.13 534.55 350.92 534.43 381.33"/><polygon class="cls-5" points="534.43 381.32 568.56 381.46 569.06 372.8 569.06 351.13 534.55 350.92 534.43 381.32"/><polygon class="cls-4" points="534.39 415.71 568.56 415.99 568.56 381.48 534.43 381.33 534.39 415.71"/><polygon class="cls-5" points="534.39 415.71 568.56 415.99 568.56 381.46 534.43 381.32 534.39 415.71"/><polygon class="cls-4" points="528.29 241.96 535.55 244.76 535.56 267.86 570.51 267.86 570.55 249 562.92 247.84 563.54 232.9 528.57 232.85 528.29 241.96"/><polygon class="cls-5" points="528.29 241.96 535.55 244.76 535.56 267.86 570.51 267.86 570.55 249 562.92 247.84 563.54 232.88 528.57 232.84 528.29 241.96"/><polygon class="cls-4" points="500.86 237.28 505.37 238.68 506.15 235.56 510.14 236.66 512.37 233.53 517.33 234.19 517.35 235.53 524.8 235.18 526.83 238.75 524.44 239.34 528.29 241.96 528.54 197.38 485.73 197.35 484.93 199.63 480.82 202.18 478.99 206.6 475.94 208 474.37 213.88 484.69 229.25 487.34 230.4 487.65 236.46 490.93 237.49 495.46 235.47 500.86 237.28"/><polygon class="cls-3" points="500.86 237.28 505.37 238.68 506.15 235.54 510.14 236.66 512.37 233.53 517.33 234.19 517.35 235.53 524.8 235.18 526.83 238.75 524.44 239.34 528.29 241.96 528.54 197.38 485.73 197.35 484.93 199.63 480.82 202.18 478.99 206.6 475.94 208 474.37 213.88 484.69 229.25 487.34 230.38 487.65 236.46 490.93 237.49 495.46 235.47 500.86 237.28"/><polygon class="cls-4" points="535.26 311.57 569.93 311.58 569.92 285.44 570.49 281.04 570.51 267.86 535.56 267.86 535.26 311.57"/><polygon class="cls-5" points="535.26 311.57 569.93 311.58 569.92 285.43 570.49 281.04 570.51 267.86 535.56 267.86 535.26 311.57"/><polygon class="cls-4" points="568.56 381.48 568.56 415.99 602.87 416 602.87 381.5 568.56 381.48"/><polygon class="cls-5" points="568.56 381.46 568.56 415.99 602.87 416 602.87 381.5 568.56 381.46"/><polygon class="cls-4" points="512.6 153 512.62 197.35 547.88 197.38 547.98 153.04 512.6 153"/><polygon class="cls-5" points="512.6 153 512.62 197.35 547.87 197.38 547.98 153.04 512.6 153"/><polygon class="cls-4" points="534.15 424.35 534.16 453.88 568.81 453.86 569.15 429.02 568.91 415.99 534.39 415.71 534.15 424.35"/><polygon class="cls-5" points="534.15 424.35 534.16 453.88 568.81 453.86 569.15 429.01 568.91 415.99 534.39 415.71 534.15 424.35"/><polygon class="cls-4" points="604.62 316.04 640.11 316.15 640.43 281.11 605.36 281.06 604.62 285.45 604.62 316.04"/><polygon class="cls-5" points="604.62 316.02 640.11 316.15 640.43 281.11 605.36 281.06 604.62 285.44 604.62 316.02"/><polygon class="cls-4" points="468.12 197.34 512.62 197.35 512.6 153 468.21 152.96 468.12 197.34"/><polygon class="cls-5" points="468.12 197.34 512.62 197.35 512.6 153 468.21 152.96 468.12 197.34"/><polygon class="cls-4" points="603.69 351.19 640.04 351.25 640.11 316.15 604.62 316.04 604.68 329.14 603.86 329.13 603.69 351.19"/><polygon class="cls-5" points="603.69 351.19 640.04 351.25 640.11 316.15 604.62 316.02 604.67 329.14 603.86 329.13 603.69 351.19"/><polygon class="cls-4" points="595.11 250.28 595.17 258.31 596.91 256.58 603.1 259.39 602.98 256.73 605.37 256.54 608.13 254.74 613.83 256.32 616.93 255.59 616.97 241.75 617.61 234.22 627.45 234.63 622.98 232.91 623.31 229.47 617.74 224.54 616.81 219.19 619.26 216.72 618.48 215.03 614.33 215.31 612.21 212.34 595.59 212.31 595.66 241.72 595.11 250.28"/><polygon class="cls-5" points="595.11 250.28 595.17 258.3 596.91 256.58 603.1 259.38 602.98 256.73 605.37 256.54 608.13 254.72 613.83 256.32 616.93 255.59 616.97 241.74 617.61 234.22 627.45 234.63 622.98 232.91 623.31 229.47 617.74 224.54 616.81 219.19 619.26 216.72 618.48 215.03 614.33 215.31 612.21 212.34 595.59 212.31 595.66 241.72 595.11 250.28"/><polygon class="cls-4" points="568.81 453.86 604.02 453.83 603.88 420.33 602.87 416 568.91 415.99 569.15 429.02 568.81 453.86"/><polygon class="cls-5" points="568.81 453.86 604.01 453.83 603.88 420.33 602.87 416 568.91 415.99 569.15 429.01 568.81 453.86"/><polygon class="cls-4" points="605.36 281.06 640.43 281.11 640.57 250.28 625.21 250.34 619.84 248.75 616.93 255.59 613.83 256.32 608.13 254.74 605.37 256.54 605.36 281.06"/><polygon class="cls-5" points="605.36 281.06 640.43 281.11 640.57 250.28 625.21 250.34 619.84 248.75 616.93 255.59 613.83 256.32 608.13 254.72 605.37 256.54 605.36 281.06"/><polygon class="cls-4" points="563.54 232.9 562.92 247.84 570.55 249 576 247.74 583.06 251.53 586.41 250.47 595.11 250.28 595.66 241.72 595.59 212.31 563.57 212.31 563.54 232.9"/><polygon class="cls-5" points="563.54 232.88 562.92 247.84 570.55 249 576 247.74 583.06 251.53 586.41 250.46 595.11 250.28 595.66 241.72 595.59 212.31 563.57 212.31 563.54 232.88"/><polygon class="cls-4" points="528.57 232.85 563.54 232.9 563.57 212.31 565.04 212.31 565.06 197.41 565.53 188.53 547.91 188.53 547.88 197.38 528.54 197.38 528.57 232.85"/><polygon class="cls-5" points="528.57 232.84 563.54 232.88 563.57 212.31 565.04 212.31 565.06 197.41 565.53 188.53 547.91 188.53 547.87 197.38 528.54 197.38 528.57 232.84"/><polygon class="cls-4" points="569.92 315.99 604.62 316.04 604.62 285.45 605.36 281.06 570.49 281.04 569.92 285.44 569.92 315.99"/><polygon class="cls-5" points="569.92 315.99 604.62 316.02 604.62 285.44 605.36 281.06 570.49 281.04 569.92 285.43 569.92 315.99"/><polygon class="cls-4" points="605.36 281.06 605.37 256.54 602.98 256.73 603.1 259.39 596.91 256.58 595.17 258.31 595.11 250.28 586.41 250.47 583.06 251.53 576 247.74 570.55 249 570.49 281.04 605.36 281.06"/><polygon class="cls-5" points="605.36 281.06 605.37 256.54 602.98 256.73 603.1 259.38 596.91 256.58 595.17 258.3 595.11 250.28 586.41 250.46 583.06 251.53 576 247.74 570.55 249 570.49 281.04 605.36 281.06"/><polygon class="cls-4" points="583.13 153.09 583.13 188.53 600.75 188.59 601.89 191.51 605.47 191.53 608.6 186.37 612.08 185.04 612.1 180.47 613.9 179.13 617.54 181.28 620.16 180.07 620.2 176.43 616.66 177.69 615.61 174.59 618.37 174.41 619.47 171.44 614.5 168.25 615.43 164.75 610.3 163.54 606.81 166.85 603.11 167.22 598.82 165.31 598.32 162.9 594.58 163.25 593.75 159.34 590.15 158.35 585.6 153.09 583.13 153.09"/><polygon class="cls-5" points="583.12 153.09 583.13 188.53 600.75 188.57 601.89 191.51 605.47 191.53 608.6 186.35 612.08 185.04 612.1 180.47 613.9 179.13 617.54 181.28 620.16 180.06 620.2 176.43 616.66 177.69 615.61 174.59 618.37 174.41 619.46 171.44 614.5 168.24 615.43 164.75 610.3 163.54 606.81 166.85 603.11 167.22 598.82 165.31 598.32 162.9 594.58 163.25 593.75 159.34 590.15 158.35 585.6 153.09 583.12 153.09"/><polygon class="cls-4" points="602.87 416 603.88 420.33 639.75 420.49 639.75 387.39 602.89 387.25 602.87 416"/><polygon class="cls-5" points="602.87 416 603.88 420.33 639.75 420.49 639.75 387.39 602.89 387.25 602.87 416"/><polygon class="cls-4" points="569.06 351.13 569.25 329.08 569.98 329.08 569.93 311.58 535.26 311.57 535.28 329.01 534.57 337.88 534.55 350.92 569.06 351.13"/><polygon class="cls-5" points="569.06 351.13 569.25 329.08 569.98 329.08 569.93 311.58 535.26 311.57 535.28 329.01 534.57 337.88 534.55 350.92 569.06 351.13"/><polygon class="cls-4" points="603.88 420.33 604.02 453.83 639.73 453.98 639.75 420.49 603.88 420.33"/><polygon class="cls-5" points="603.88 420.33 604.01 453.83 639.73 453.98 639.75 420.49 603.88 420.33"/><polygon class="cls-4" points="547.91 188.53 583.13 188.53 583.13 153.09 547.98 153.04 547.91 188.53"/><polygon class="cls-5" points="547.91 188.53 583.13 188.53 583.12 153.09 547.98 153.04 547.91 188.53"/><polygon class="cls-4" points="602.89 387.25 639.75 387.39 640.04 351.25 603.69 351.19 603.52 372.83 602.87 381.5 602.89 387.25"/><polygon class="cls-5" points="602.89 387.25 639.75 387.39 640.04 351.25 603.69 351.19 603.52 372.83 602.87 381.5 602.89 387.25"/><polygon class="cls-4" points="595.59 212.31 612.21 212.34 610.55 209.56 607.16 208.06 605.81 204.35 601.71 200.72 600.91 198.07 602.55 195.84 605.32 195.9 605.47 191.53 601.89 191.51 600.75 188.59 565.53 188.53 565.06 197.41 565.04 212.31 595.59 212.31"/><polygon class="cls-5" points="595.59 212.31 612.21 212.34 610.55 209.56 607.16 208.06 605.81 204.34 601.71 200.71 600.91 198.07 602.55 195.84 605.32 195.9 605.47 191.53 601.89 191.51 600.75 188.57 565.53 188.53 565.06 197.41 565.04 212.31 595.59 212.31"/><polygon class="cls-4" points="603.69 351.19 603.86 329.13 604.68 329.14 604.62 316.04 569.92 315.99 569.98 329.08 569.25 329.08 569.06 351.13 603.69 351.19"/><polygon class="cls-5" points="603.69 351.19 603.86 329.13 604.67 329.14 604.62 316.02 569.92 315.99 569.98 329.08 569.25 329.08 569.06 351.13 603.69 351.19"/><polygon class="cls-4" points="602.87 381.5 603.52 372.83 603.69 351.19 569.06 351.13 569.06 372.8 568.56 381.48 602.87 381.5"/><polygon class="cls-5" points="602.87 381.5 603.52 372.83 603.69 351.19 569.06 351.13 569.06 372.8 568.56 381.46 602.87 381.5"/><circle class="cls-6" cx="425.36" cy="387.75" r="29.28"/><circle class="cls-7" cx="425.36" cy="387.75" r="9.02"/><path class="cls-8" d="M657.31,186.41h2.09v5.33h0l4.2-5.33h2.32L662.3,191l4.23,7.18h-2.3L661,192.63l-1.69,2.11v3.44h-2.09Z"/><path class="cls-8" d="M667.41,195.81c0-1.9,1.56-2.89,5.2-3.28A1.51,1.51,0,0,0,671,190.8a5.06,5.06,0,0,0-2.49.86l-.75-1.38a6.84,6.84,0,0,1,3.64-1.15c2.19,0,3.29,1.35,3.29,3.81v5.24H673l-.14-1h-.08a4.31,4.31,0,0,1-2.73,1.19,2.49,2.49,0,0,1-2.61-2.33Zm5.2,0v-2c-2.41.31-3.21.94-3.21,1.82s.54,1.14,1.28,1.14A2.85,2.85,0,0,0,672.61,195.81Z"/><path class="cls-8" d="M677.16,189.34h1.74l.15,1.19h.07a4.07,4.07,0,0,1,2.9-1.4c1.89,0,2.72,1.27,2.72,3.51v5.54h-2.07v-5.27c0-1.47-.42-2-1.39-2a2.76,2.76,0,0,0-2,1.1v6.17h-2.07Z"/><path class="cls-8" d="M686.36,197.16l1-1.33a3.91,3.91,0,0,0,2.45,1c1,0,1.41-.45,1.41-1.06s-1-1.05-1.9-1.42c-1.17-.44-2.48-1.1-2.48-2.58s1.24-2.64,3.22-2.64a4.83,4.83,0,0,1,2.94,1.06l-1,1.26a3.37,3.37,0,0,0-1.94-.76c-.88,0-1.3.42-1.3,1s.88,1,1.84,1.33c1.2.45,2.54,1,2.54,2.67s-1.21,2.75-3.44,2.75A5.54,5.54,0,0,1,686.36,197.16Z"/><path class="cls-8" d="M694.53,195.81c0-1.9,1.57-2.89,5.2-3.28a1.51,1.51,0,0,0-1.62-1.73,5,5,0,0,0-2.48.86l-.73-1.42a6.84,6.84,0,0,1,3.64-1.15c2.2,0,3.3,1.35,3.3,3.81v5.24H700.1l-.15-1h-.05a4.31,4.31,0,0,1-2.74,1.19,2.47,2.47,0,0,1-2.62-2.31A1.48,1.48,0,0,1,694.53,195.81Zm5.2,0v-2c-2.41.31-3.2.94-3.2,1.82s.54,1.14,1.28,1.14A2.85,2.85,0,0,0,699.73,195.81Z"/><path class="cls-8" d="M703.41,197.16l1-1.33a3.91,3.91,0,0,0,2.45,1c1,0,1.4-.45,1.4-1.06s-1-1.05-1.89-1.42c-1.17-.44-2.48-1.1-2.48-2.58s1.24-2.64,3.22-2.64a4.8,4.8,0,0,1,2.93,1.06l-1,1.26a3.37,3.37,0,0,0-1.95-.76c-.88,0-1.29.42-1.29,1s.88,1,1.83,1.33c1.21.45,2.54,1,2.54,2.67s-1.2,2.75-3.44,2.75A5.54,5.54,0,0,1,703.41,197.16Z"/><path class="cls-8" d="M715.21,192.33c0-3.86,2.42-6.14,5.39-6.14a4.63,4.63,0,0,1,3.4,1.49L722.9,189a3.09,3.09,0,0,0-2.23-1c-1.92,0-3.29,1.62-3.29,4.28s1.26,4.3,3.24,4.3a3.36,3.36,0,0,0,2.52-1.22l1.11,1.33a4.74,4.74,0,0,1-3.71,1.71C717.55,198.4,715.21,196.24,715.21,192.33Z"/><path class="cls-8" d="M725.78,186.62a1.29,1.29,0,1,1,1.4,1.16h-.12a1.21,1.21,0,0,1-1.28-1.1Zm.23,2.72h2.07v8.84H726Z"/><path class="cls-8" d="M731,195.24V191h-1.26v-1.55l1.37-.09.26-2.41h1.72v2.41h2.25V191h-2.25v4.22c0,1,.4,1.55,1.25,1.55a2.61,2.61,0,0,0,.91-.2l.36,1.53a5.56,5.56,0,0,1-1.8.33C731.79,198.4,731,197.1,731,195.24Z"/><path class="cls-8" d="M736.67,201.63l.38-1.61a2.68,2.68,0,0,0,.63.11,1.85,1.85,0,0,0,1.76-1.5l.16-.56-3.47-8.73h2.1l1.54,4.34c.25.77.5,1.66.77,2.49h.07c.22-.81.45-1.7.67-2.49l1.33-4.34h2l-3.21,9.24c-.73,2-1.65,3.24-3.58,3.24A3.47,3.47,0,0,1,736.67,201.63Z"/><path class="cls-8" d="M675.65,208h3.15c3.6,0,5.73,1.94,5.73,5.83s-2.13,5.94-5.62,5.94h-3.26Zm3,10.08c2.37,0,3.72-1.35,3.72-4.25s-1.35-4.14-3.72-4.14h-.92v8.39Z"/><path class="cls-8" d="M686.49,208.24a1.28,1.28,0,1,1,1.39,1.16h-.12a1.2,1.2,0,0,1-1.27-1.11Zm.23,2.72h2.07v8.84h-2.07Z"/><path class="cls-8" d="M690.55,218.77l1-1.33a4,4,0,0,0,2.45,1c1,0,1.4-.45,1.4-1.06s-1-1.06-1.89-1.42c-1.17-.44-2.49-1.11-2.49-2.58s1.25-2.64,3.23-2.64a4.68,4.68,0,0,1,2.93,1.06l-1,1.25a3.3,3.3,0,0,0-1.95-.75c-.88,0-1.29.42-1.29,1s.88,1,1.83,1.32c1.21.45,2.54,1,2.54,2.68s-1.2,2.74-3.44,2.74A5.69,5.69,0,0,1,690.55,218.77Z"/><path class="cls-8" d="M699.14,216.79v-4.21H697.9V211l1.37-.08.25-2.42h1.73v2.42h2.25v1.64h-2.25v4.21c0,1,.4,1.55,1.24,1.55a2.62,2.62,0,0,0,.92-.2l.36,1.53a5.56,5.56,0,0,1-1.8.33C699.9,220,699.14,218.7,699.14,216.79Z"/><path class="cls-8" d="M705.33,210.94H707l.15,1.57h.07a3,3,0,0,1,2.5-1.78,2.14,2.14,0,0,1,1,.18l-.36,1.8a2.91,2.91,0,0,0-.92-.15c-.7,0-1.55.49-2.09,1.82v5.4h-2.07Z"/><path class="cls-8" d="M711.81,208.24a1.29,1.29,0,1,1,1.4,1.16h-.12a1.21,1.21,0,0,1-1.28-1.1Zm.24,2.72h2.07v8.84h-2.07Z"/><path class="cls-8" d="M716.19,215.37a4.37,4.37,0,0,1,4.07-4.64h.36a3.77,3.77,0,0,1,2.59,1l-1,1.35a2.09,2.09,0,0,0-1.48-.65c-1.42,0-2.41,1.17-2.41,2.95s1,2.94,2.36,2.94a3,3,0,0,0,1.82-.76l.84,1.37a4.47,4.47,0,0,1-2.88,1.08C718,220,716.19,218.31,716.19,215.37Z"/><path class="cls-8" d="M725.2,216.79v-4.21h-1.3V211l1.37-.08.25-2.42h1.73v2.42h2.25v1.64h-2.25v4.21c0,1,.4,1.55,1.24,1.55a2.62,2.62,0,0,0,.92-.2l.36,1.53a5.56,5.56,0,0,1-1.8.33C726,220,725.2,218.7,725.2,216.79Z"/></svg>