<?xml version="1.0" encoding="UTF-8" standalone="no"?>
<!-- Generator: Adobe Illustrator 25.4.1, SVG Export Plug-In . SVG Version: 6.00 Build 0)  -->

<svg
   version="1.1"
   id="Layer_1"
   x="0px"
   y="0px"
   viewBox="0 0 784.06 507.87"
   style="enable-background:new 0 0 784.06 507.87;"
   xml:space="preserve"
   sodipodi:docname="SBA_DOMap_KS_KansasCity3.svg"
   inkscape:version="1.2 (dc2aedaf03, 2022-05-15)"
   xmlns:inkscape="http://www.inkscape.org/namespaces/inkscape"
   xmlns:sodipodi="http://sodipodi.sourceforge.net/DTD/sodipodi-0.dtd"
   xmlns:xlink="http://www.w3.org/1999/xlink"
   xmlns="http://www.w3.org/2000/svg"
   xmlns:svg="http://www.w3.org/2000/svg"><defs
   id="defs1115">
	
	
	
	
	
	
	
	
	
	
	
	
	
	
	
	
	
	
	
	
	
	
	
	
	
	
	
	
	
	
</defs><sodipodi:namedview
   id="namedview1113"
   pagecolor="#ffffff"
   bordercolor="#000000"
   borderopacity="0.25"
   inkscape:showpageshadow="2"
   inkscape:pageopacity="0.0"
   inkscape:pagecheckerboard="0"
   inkscape:deskcolor="#d1d1d1"
   showgrid="false"
   inkscape:zoom="1.5515782"
   inkscape:cx="279.7152"
   inkscape:cy="275.20366"
   inkscape:window-width="1920"
   inkscape:window-height="986"
   inkscape:window-x="-11"
   inkscape:window-y="-11"
   inkscape:window-maximized="1"
   inkscape:current-layer="Layer_1" />
<style
   type="text/css"
   id="style468">
	.st0{fill:none;stroke:#FFFFFF;stroke-width:0.67;stroke-linejoin:bevel;}
	.st1{fill:#E6E6E6;}
	.st2{clip-path:url(#SVGID_00000132786614586576153100000015393042584119875977_);}
	.st3{opacity:0.8;fill:#A5A5A5;stroke:#868788;stroke-miterlimit:10;enable-background:new    ;}
	.st4{fill:none;stroke:#868788;stroke-width:0.64;stroke-linejoin:bevel;}
	.st5{opacity:0.8;fill:#A5A5A5;enable-background:new    ;}
	.st6{fill:none;stroke:#0675AF;stroke-width:0.64;stroke-linejoin:bevel;}
	.st7{opacity:0.8;fill:#007DBC;stroke:#0675AF;stroke-miterlimit:10;enable-background:new    ;}
	.st8{opacity:0.8;fill:#007DBC;enable-background:new    ;}
	.st9{opacity:0.8;fill:#868788;enable-background:new    ;}
	.st10{fill:none;stroke:#0675AF;stroke-width:4;stroke-linejoin:bevel;}
	.st11{fill:none;stroke:#FFFFFF;stroke-width:3;stroke-miterlimit:10;}
	.st12{fill:#FFFFFF;}
	.st13{font-family:'SourceSansPro-Semibold';}
	.st14{font-size:18px;}
	.st15{fill:none;stroke:#FFFFFF;stroke-linejoin:bevel;}
	.st16{fill:#007DBC;}
</style>
<g
   id="State">
	<path
   id="polyline470"
   class="st0"
   style="fill:none;stroke:#ffffff;stroke-width:0.67;stroke-linejoin:bevel"
   d="m 333.02,397.97 0.03,-34.41 v -33.99 l 0.29,-39.5 0.08,-33.7 0.02,-9.15 0.31,-26.86 0.08,-11.27 0.05,-20.4 v -7.19 l 0.46,-4.81 -3.94,0.57 -3.08,-3.02 -5.15,1.01 -1.77,-2.64 -4.59,-1.77 0.34,-3.53 -5.72,-5.06 -0.95,-5.5 2.51,-2.54 -0.8,-1.75 -4.27,0.31 -3.88,-5.92 -3.48,-1.53 -1.39,-3.82 -4.21,-3.74 -0.82,-2.71 1.68,-2.29 2.85,0.06 0.15,-4.49 3.21,-5.31 3.58,-1.35 0.02,-4.71 1.85,-1.38 3.75,2.22 2.68,-1.25 0.05,-3.74 -3.64,1.3 -1.08,-3.2 2.83,-0.16 1.13,-3.07 -5.1,-3.28 0.96,-3.59 -5.28,-1.24 -3.58,3.4 -3.8,0.38 -4.41,-1.96 -0.51,-2.48 -3.85,0.37 -0.85,-4.02 -3.7,-1.02 -4.67,-5.4" />
</g>
<rect
   x="-10.94"
   y="-7.77"
   class="st1"
   width="804.91998"
   height="529.98999"
   id="rect473" /><g
   id="g1017">
		<g
   id="g1015">
			<defs
   id="defs476">
				<rect
   id="SVGID_1_"
   x="125.66"
   y="-0.82999998"
   width="682.94"
   height="524.10999" />
			</defs>
			<clipPath
   id="SVGID_00000117634671104267718130000007624527063329926587_">
				<use
   xlink:href="#SVGID_1_"
   style="overflow:visible"
   id="use478" />
			</clipPath>
			<g
   clip-path="url(#SVGID_00000117634671104267718130000007624527063329926587_)"
   id="g1013">
				<polygon
   class="st3"
   points="646.22,397.74 649.08,400.73 648.96,405.12 676.69,405.23 684.28,405.64 687.1,404.25 687.13,401.34 693.11,397.03 693.15,393.59 696.15,393.62 696.22,389.11 687.13,389.05 687.57,365.93 660.82,365.67 660.75,370.23 645.85,370.39 645.72,380.97 642.35,383.86 642.3,392.7 646.32,392.79 "
   id="polygon481" />
				<polygon
   class="st4"
   points="646.22,397.74 649.08,400.73 648.96,405.12 676.69,405.23 684.28,405.64 687.1,404.25 687.13,401.34 693.11,397.03 693.15,393.59 696.15,393.62 696.22,389.11 687.13,389.05 687.57,365.93 660.82,365.67 660.75,370.23 645.85,370.39 645.72,380.97 642.35,383.85 642.3,392.7 646.32,392.78 "
   id="polygon483" />
				<polygon
   class="st3"
   points="653.13,323.29 653.55,288.39 649.94,287.38 650.2,285.7 642.25,275.32 616.82,275.32 616.97,296.22 616.48,322.76 634.68,323.35 "
   id="polygon485" />
				<polygon
   class="st4"
   points="653.13,323.28 653.55,288.39 649.94,287.38 650.2,285.7 642.25,275.32 616.82,275.32 616.97,296.22 616.48,322.75 634.68,323.35 "
   id="polygon487" />
				<polygon
   class="st3"
   points="599.31,223.61 606.2,230.18 606.29,232.39 613.86,234.79 618.31,233.66 621.94,235.29 624.11,238.63 627.4,240.03 627.88,206.63 615.57,206.45 615.66,200.33 609.29,200.29 609.36,194.08 603.25,194.01 603.2,209.44 591.04,209.28 590.81,223.29 594.79,224.37 "
   id="polygon489" />
				<polygon
   class="st4"
   points="599.31,223.61 606.2,230.18 606.29,232.39 613.86,234.79 618.31,233.66 621.94,235.28 624.1,238.62 627.4,240.03 627.88,206.63 615.57,206.45 615.66,200.33 609.29,200.28 609.36,194.08 603.24,194.01 603.2,209.44 591.04,209.28 590.81,223.29 594.79,224.37 "
   id="polygon491" />
				<polygon
   class="st3"
   points="687.68,413.62 688.92,420.23 693.84,428.35 693.15,434.95 729.2,435.27 728.89,411.96 729.96,411.94 730.48,405.46 728.05,402.56 727.58,398.77 722.29,388.91 724.03,385.05 708.37,384.92 708.4,392.28 705.46,393.73 693.15,393.59 693.11,397.03 687.13,401.34 687.1,404.25 684.28,405.64 684.42,409.92 "
   id="polygon493" />
				<polygon
   class="st4"
   points="687.68,413.62 688.92,420.22 693.84,428.35 693.15,434.95 729.2,435.27 728.89,411.96 729.96,411.94 730.48,405.46 728.05,402.56 727.58,398.77 722.29,388.91 724.03,385.05 708.37,384.92 708.4,392.28 705.46,393.73 693.15,393.59 693.11,397.03 687.13,401.34 687.1,404.25 684.28,405.64 684.42,409.92 "
   id="polygon495" />
				<polygon
   class="st3"
   points="710.06,309.06 707.19,304.44 710.65,301.5 709.78,299.27 704.43,299.26 700.5,294.75 697.63,294.45 694.57,289.85 688.46,287.21 684.75,283.14 681.34,287.18 678.59,286.55 671.59,291.89 679.1,298.09 668.12,308.59 688.98,329.93 692.69,326.85 696.21,329.75 705.13,314.43 "
   id="polygon497" />
				<polygon
   class="st4"
   points="710.06,309.06 707.19,304.44 710.65,301.5 709.78,299.27 704.43,299.26 700.5,294.74 697.63,294.45 694.57,289.84 688.46,287.21 684.75,283.14 681.34,287.18 678.59,286.55 671.59,291.89 679.1,298.09 668.12,308.59 688.98,329.92 692.69,326.85 696.21,329.75 705.13,314.43 "
   id="polygon499" />
				<polygon
   class="st5"
   points="688.58,220.97 691.71,216.8 684.83,222.34 680.79,228.88 679.29,235.21 684.37,241.63 689.66,234.72 690.5,228.39 688.26,224.01 "
   id="polygon501" />
				<polygon
   class="st4"
   points="688.58,220.97 691.71,216.8 684.83,222.34 680.79,228.88 679.29,235.21 684.37,241.63 689.66,234.72 690.5,228.38 688.26,224.01 "
   id="polygon503" />
				<polygon
   class="st3"
   points="683.66,242.62 684.37,241.63 679.29,235.21 680.79,228.88 684.83,222.34 695.63,213.38 692.34,210.97 690.27,212.12 684.15,208.3 681.04,204.88 677.98,205.49 676.07,210.93 669.61,211.1 664.56,219.35 662.1,221.53 662.35,224.58 660.42,226.2 651.72,225.59 646.11,230.54 645.79,248.35 649.03,247.87 651.72,250.09 651.89,247.06 655.63,247.85 657.49,244.74 672.46,244.79 672.06,249.72 676.84,249.21 677.91,255.53 680.78,252.68 "
   id="polygon505" />
				<polygon
   class="st4"
   points="683.66,242.62 684.37,241.63 679.29,235.21 680.79,228.88 684.83,222.34 695.63,213.38 692.34,210.97 690.27,212.12 684.15,208.3 681.04,204.88 677.98,205.48 676.07,210.93 669.61,211.1 664.56,219.35 662.1,221.53 662.35,224.58 660.42,226.2 651.72,225.59 646.11,230.54 645.79,248.34 649.03,247.87 651.72,250.09 651.89,247.06 655.62,247.85 657.49,244.74 672.46,244.79 672.06,249.72 676.84,249.21 677.91,255.52 680.78,252.68 "
   id="polygon507" />
				<polygon
   class="st3"
   points="693.28,332.77 696.21,329.75 692.69,326.85 688.98,329.93 668.12,308.59 679.1,298.09 671.59,291.89 658.11,295.86 655.72,294.63 655.78,289.03 653.55,288.39 653.13,323.29 652.91,332.65 "
   id="polygon509" />
				<polygon
   class="st4"
   points="693.28,332.77 696.21,329.75 692.69,326.85 688.98,329.92 668.12,308.59 679.1,298.09 671.59,291.89 658.11,295.86 655.72,294.63 655.78,289.03 653.55,288.39 653.13,323.28 652.91,332.65 "
   id="polygon511" />
				<polygon
   class="st3"
   points="660.42,226.2 662.35,224.58 662.1,221.53 664.56,219.35 669.61,211.1 676.07,210.93 677.98,205.49 681.04,204.88 684.15,208.3 690.27,212.12 692.34,210.97 695.63,213.38 695.98,208.87 682.89,201.19 680.17,201.13 673.47,197.5 668.79,196.6 661.13,206.31 658.2,206.85 654.75,204.79 651.48,200.08 650.02,201.89 645.21,200.5 640.35,202.41 640.13,205.67 629.32,204.99 627.88,206.63 627.4,240.03 633.01,240.7 639.33,236.33 643.61,234.42 646.11,230.54 651.72,225.59 "
   id="polygon513" />
				<polygon
   class="st4"
   points="660.42,226.2 662.35,224.58 662.1,221.53 664.56,219.35 669.61,211.1 676.07,210.93 677.98,205.48 681.04,204.88 684.15,208.3 690.27,212.12 692.34,210.97 695.63,213.38 695.98,208.87 682.89,201.19 680.17,201.13 673.47,197.5 668.79,196.6 661.13,206.31 658.19,206.85 654.75,204.79 651.48,200.08 650.02,201.89 645.21,200.5 640.35,202.41 640.13,205.67 629.32,204.99 627.88,206.63 627.4,240.03 633.01,240.69 639.32,236.33 643.61,234.42 646.11,230.54 651.72,225.59 "
   id="polygon515" />
				<polygon
   class="st3"
   points="529.05,124.2 556.31,124.67 556.83,94.29 529.67,93.62 520.77,93.83 519.85,130.24 528.92,130.36 "
   id="polygon517" />
				<polygon
   class="st4"
   points="529.05,124.2 556.31,124.67 556.83,94.28 529.67,93.62 520.77,93.83 519.85,130.23 528.92,130.36 "
   id="polygon519" />
				<polygon
   class="st3"
   points="607.04,389.08 615.7,389.29 623.11,388.12 623.18,383.29 621.78,380.68 618.82,381.35 617.42,377.25 614.39,377.63 614.61,372.06 611.71,372.02 611.78,366.15 610.34,366.18 610.41,355.82 572.44,355.02 571.52,408.96 606.59,409.48 "
   id="polygon521" />
				<polygon
   class="st4"
   points="607.04,389.08 615.7,389.29 623.11,388.12 623.18,383.29 621.78,380.68 618.82,381.35 617.42,377.25 614.39,377.63 614.61,372.06 611.7,372.02 611.78,366.14 610.34,366.18 610.41,355.81 572.44,355.01 571.52,408.96 606.59,409.48 "
   id="polygon523" />
				<polygon
   class="st3"
   points="727.58,398.77 728.05,402.56 730.48,405.46 729.96,411.94 743.8,410.93 745.26,407.23 748.2,407.24 748.19,404.26 751.04,404.27 752.54,401.33 755.46,401.32 755.5,398.36 760.49,396.87 755.34,393.89 754.34,386.85 751.39,383.82 748.47,377.63 748.57,372.46 746.31,372.37 735.71,374.24 735.69,375.73 730.4,377.73 727.53,383.58 724.03,385.05 722.29,388.91 "
   id="polygon525" />
				<polygon
   class="st4"
   points="727.58,398.77 728.05,402.56 730.48,405.46 729.96,411.94 743.8,410.93 745.26,407.23 748.2,407.24 748.19,404.26 751.04,404.27 752.54,401.33 755.46,401.32 755.5,398.36 760.49,396.87 755.34,393.89 754.34,386.85 751.39,383.82 748.47,377.63 748.56,372.45 746.31,372.36 735.71,374.24 735.69,375.72 730.4,377.73 727.53,383.58 724.03,385.05 722.29,388.91 "
   id="polygon527" />
				<polygon
   class="st3"
   points="548.02,57.13 548.55,24.84 515.7,25.74 515.94,56.92 "
   id="polygon529" />
				<polygon
   class="st4"
   points="548.02,57.13 548.55,24.83 515.7,25.74 515.94,56.92 "
   id="polygon531" />
				<polygon
   class="st3"
   points="515.7,25.74 486.41,26.58 488.94,29.66 487.62,33.1 489.5,36.11 486.82,41.78 490.29,46.89 488.69,47.25 488.84,52.62 515.77,52.3 "
   id="polygon533" />
				<polygon
   class="st4"
   points="515.7,25.74 486.41,26.57 488.94,29.66 487.61,33.1 489.5,36.11 486.82,41.78 490.29,46.89 488.69,47.25 488.84,52.62 515.77,52.3 "
   id="polygon535" />
				<polygon
   class="st3"
   points="658.8,438.84 657.33,438.82 657.4,430.06 654.48,430.05 654.55,416.82 632.94,416.63 615.2,415.55 614.35,448.29 658.69,448.21 "
   id="polygon537" />
				<polygon
   class="st4"
   points="658.8,438.84 657.33,438.82 657.4,430.06 654.48,430.05 654.55,416.82 632.94,416.63 615.2,415.55 614.35,448.29 658.69,448.21 "
   id="polygon539" />
				<polygon
   class="st3"
   points="610.34,366.18 611.78,366.15 611.71,372.02 614.61,372.06 614.39,377.63 617.42,377.25 618.82,381.35 621.78,380.68 623.18,383.29 623.11,388.12 627.47,387.95 627.4,392.37 642.3,392.7 642.35,383.86 645.72,380.97 645.85,370.39 644.39,370.48 644.71,360.08 642.84,359.99 643.18,336.7 625.58,336.61 616.43,338.25 599.36,337.74 599.22,346.65 607.54,346.98 607.47,355.77 610.41,355.82 "
   id="polygon541" />
				<polygon
   class="st4"
   points="610.34,366.18 611.78,366.14 611.7,372.02 614.61,372.06 614.39,377.63 617.42,377.25 618.82,381.35 621.78,380.68 623.18,383.29 623.11,388.12 627.47,387.95 627.4,392.37 642.3,392.7 642.35,383.85 645.72,380.97 645.85,370.39 644.39,370.48 644.71,360.08 642.84,359.98 643.18,336.7 625.58,336.61 616.43,338.25 599.36,337.74 599.22,346.65 607.54,346.98 607.47,355.77 610.41,355.81 "
   id="polygon543" />
				<polygon
   class="st5"
   points="518.63,167.66 519.72,130.22 487.84,129.7 486.97,159.84 509.31,167.42 "
   id="polygon545" />
				<polygon
   class="st6"
   points="518.63,167.66 519.72,130.22 487.84,129.7 486.97,159.84 509.31,167.42 "
   id="polygon547" />
				<polygon
   class="st3"
   points="589.23,160.15 587.44,146.38 608.13,130.96 610.2,130.98 606.55,128.95 599.83,121.91 566.87,121.74 567.17,130.89 566.69,158.02 566.65,159.54 "
   id="polygon549" />
				<polygon
   class="st4"
   points="589.23,160.14 587.44,146.38 608.13,130.96 610.2,130.98 606.55,128.95 599.83,121.91 566.87,121.74 567.17,130.89 566.69,158.02 566.65,159.54 "
   id="polygon551" />
				<polygon
   class="st3"
   points="475.03,52.7 488.84,52.62 488.69,47.25 490.29,46.89 486.82,41.78 489.5,36.11 487.62,33.1 488.94,29.66 486.41,26.58 433.23,27.54 433.2,39 433.83,48.44 475.05,48.13 "
   id="polygon553" />
				<polygon
   class="st4"
   points="475.03,52.7 488.84,52.62 488.69,47.25 490.29,46.89 486.82,41.78 489.5,36.11 487.61,33.1 488.94,29.66 486.41,26.57 433.23,27.54 433.2,39 433.83,48.44 475.05,48.13 "
   id="polygon555" />
				<polygon
   class="st3"
   points="609.59,178.84 609.8,169.67 646.96,169.99 646.54,167.17 641.18,161.1 630.9,153.37 629.64,151.72 621.45,146.62 616.41,137.16 612.59,136.45 610.2,130.98 608.13,130.96 587.44,146.38 589.23,160.15 591.59,178.47 "
   id="polygon557" />
				<polygon
   class="st4"
   points="609.59,178.84 609.8,169.67 646.96,169.99 646.53,167.17 641.18,161.1 630.9,153.37 629.64,151.72 621.45,146.62 616.41,137.16 612.59,136.45 610.2,130.98 608.13,130.96 587.44,146.38 589.23,160.14 591.59,178.47 "
   id="polygon559" />
				<polygon
   class="st3"
   points="731.48,338.64 732.05,337.23 737.06,337.86 738.79,339.94 743.63,340.44 743.66,339.83 747.14,337.12 743.97,332.82 744.43,328.31 738.69,325.48 735.88,321.76 731.87,320.69 731.36,316.32 726.07,311.86 721.43,310.31 721.39,308.51 717.62,305.86 712.72,309.56 710.06,309.06 705.13,314.43 696.21,329.75 693.28,332.77 693.28,337.27 716.3,337.08 "
   id="polygon561" />
				<polygon
   class="st4"
   points="731.48,338.64 732.05,337.23 737.06,337.86 738.79,339.94 743.63,340.44 743.66,339.83 747.14,337.12 743.97,332.81 744.43,328.31 738.69,325.48 735.88,321.76 731.87,320.69 731.35,316.32 726.07,311.85 721.43,310.31 721.39,308.51 717.62,305.86 712.72,309.56 710.06,309.06 705.13,314.43 696.21,329.75 693.28,332.77 693.28,337.27 716.3,337.07 "
   id="polygon563" />
				<polygon
   class="st3"
   points="728.73,497.92 730.89,489.79 737.43,485.88 737.97,483.05 734.96,479.53 728.86,474.42 729.67,472.8 736.45,474.15 742.6,472.8 742.54,471.03 736.39,467.17 736.48,464.04 741.76,464.4 737.96,457.7 731.14,457.98 727.25,455.35 725.09,459.42 708.23,459.2 708.38,498.1 "
   id="polygon565" />
				<polygon
   class="st4"
   points="728.73,497.92 730.89,489.79 737.43,485.88 737.97,483.05 734.96,479.53 728.86,474.41 729.67,472.8 736.45,474.14 742.6,472.8 742.54,471.03 736.39,467.17 736.48,464.04 741.75,464.4 737.96,457.69 731.14,457.98 727.25,455.35 725.09,459.42 708.23,459.2 708.38,498.09 "
   id="polygon567" />
				<polygon
   class="st3"
   points="615.2,415.55 606.43,415.35 606.59,409.48 571.52,408.96 571.36,419.19 570.22,419.16 569.89,435.51 570.37,448.11 588.28,448.29 614.35,448.29 "
   id="polygon569" />
				<polygon
   class="st4"
   points="615.2,415.55 606.43,415.34 606.59,409.48 571.52,408.96 571.36,419.19 570.22,419.16 569.89,435.51 570.37,448.11 588.28,448.29 614.35,448.29 "
   id="polygon571" />
				<polygon
   class="st3"
   points="741.99,456.06 743.74,450.19 742.22,448.24 739.66,443.32 741.68,440.04 746.62,440.86 748.19,444.54 745.87,450.44 749.14,451.89 751.99,448.16 755.84,435.91 759.29,434.83 755.58,427.7 748.36,419.05 746.76,414.65 743.81,413.11 743.8,410.93 728.89,411.96 729.2,435.27 708.43,435.09 708.54,452.05 707.33,459.12 725.09,459.42 727.25,455.35 731.14,457.98 737.96,457.7 741.76,464.4 744.62,460.72 "
   id="polygon573" />
				<polygon
   class="st4"
   points="741.99,456.06 743.74,450.19 742.22,448.24 739.66,443.32 741.68,440.04 746.62,440.86 748.19,444.54 745.87,450.43 749.14,451.89 751.99,448.16 755.84,435.91 759.29,434.83 755.57,427.69 748.36,419.05 746.76,414.65 743.81,413.11 743.8,410.93 728.89,411.96 729.2,435.27 708.43,435.09 708.54,452.05 707.33,459.12 725.09,459.42 727.25,455.35 731.14,457.98 737.96,457.69 741.75,464.4 744.62,460.72 "
   id="polygon575" />
				<polygon
   class="st3"
   points="585.1,223 590.81,223.29 591.04,209.28 603.2,209.44 603.58,178.75 573.81,177.92 572.39,223.95 580.6,226.68 "
   id="polygon577" />
				<polygon
   class="st4"
   points="585.1,223 590.81,223.29 591.04,209.28 603.2,209.44 603.58,178.75 573.81,177.92 572.39,223.95 580.6,226.68 "
   id="polygon579" />
				<polygon
   class="st3"
   points="566.69,158.02 567.17,130.89 566.93,124.76 529.05,124.2 528.92,130.36 519.72,130.22 518.99,157.11 535.83,157.83 "
   id="polygon581" />
				<polygon
   class="st4"
   points="566.69,158.02 567.17,130.89 566.93,124.76 529.05,124.2 528.92,130.36 519.72,130.22 518.99,157.11 535.83,157.83 "
   id="polygon583" />
				<polygon
   class="st3"
   points="769.1,438.76 771.38,432.73 772.87,431.36 769.83,426.7 769.75,424.01 772.25,421.99 775.52,422.79 775.7,419.38 771.25,416.83 771.91,413.74 774.57,413.16 777.55,403.53 774.86,399.71 770.21,399.8 769.3,395.87 764.74,391.31 760.89,390.75 761.4,393.24 764.93,396.22 762.15,398.57 760.49,396.87 755.5,398.36 755.46,401.32 752.54,401.33 751.04,404.27 748.19,404.26 748.2,407.24 745.26,407.23 743.8,410.93 743.81,413.11 746.76,414.65 748.36,419.05 755.58,427.7 759.29,434.83 764.85,441.57 "
   id="polygon585" />
				<polygon
   class="st4"
   points="769.1,438.76 771.37,432.73 772.87,431.36 769.83,426.7 769.75,424 772.25,421.98 775.52,422.79 775.7,419.38 771.25,416.83 771.91,413.74 774.57,413.16 777.55,403.53 774.86,399.71 770.21,399.8 769.29,395.87 764.74,391.31 760.89,390.75 761.4,393.24 764.93,396.21 762.15,398.57 760.49,396.87 755.5,398.36 755.46,401.32 752.54,401.33 751.04,404.27 748.19,404.26 748.2,407.24 745.26,407.23 743.8,410.93 743.81,413.11 746.76,414.65 748.36,419.05 755.57,427.69 759.29,434.83 764.85,441.57 "
   id="polygon587" />
				<polygon
   class="st3"
   points="599.83,121.91 594.9,117.29 595.12,114.17 594.08,108.66 589.66,105.58 588.81,100.02 590.63,97.78 589.45,94.6 556.83,94.29 556.31,124.67 566.93,124.76 566.87,121.74 "
   id="polygon589" />
				<polygon
   class="st4"
   points="599.83,121.91 594.9,117.29 595.12,114.17 594.08,108.66 589.66,105.58 588.8,100.02 590.63,97.78 589.45,94.6 556.83,94.28 556.31,124.67 566.93,124.76 566.87,121.74 "
   id="polygon591" />
				<polygon
   class="st3"
   points="693.95,342.98 693.28,337.27 693.28,332.77 662.01,332.57 661.01,337.17 660.82,365.67 693.37,366.23 "
   id="polygon593" />
				<polygon
   class="st4"
   points="693.95,342.98 693.28,337.27 693.28,332.77 662.01,332.57 661.01,337.17 660.82,365.67 693.37,366.23 "
   id="polygon595" />
				<polygon
   class="st3"
   points="488.2,129.71 519.85,130.24 520.77,93.83 516.19,93.75 516.15,84.93 475.68,84.92 474.84,120.32 488.43,120.52 "
   id="polygon597" />
				<polygon
   class="st4"
   points="488.2,129.71 519.85,130.23 520.77,93.83 516.19,93.75 516.14,84.92 475.68,84.92 474.84,120.32 488.43,120.52 "
   id="polygon599" />
				<polygon
   class="st3"
   points="640.13,205.67 640.35,202.41 645.21,200.5 650.02,201.89 651.48,200.08 650.4,193.89 647.7,187.34 650.11,184.1 647.98,177.16 646.96,169.99 609.8,169.67 609.59,178.84 603.58,178.75 603.25,194.01 609.36,194.08 609.29,200.29 615.66,200.33 615.57,206.45 627.88,206.63 629.32,204.99 "
   id="polygon601" />
				<polygon
   class="st4"
   points="640.13,205.67 640.35,202.41 645.21,200.5 650.02,201.89 651.48,200.08 650.4,193.89 647.7,187.34 650.11,184.1 647.98,177.16 646.96,169.99 609.8,169.67 609.59,178.84 603.58,178.75 603.24,194.01 609.36,194.08 609.29,200.28 615.66,200.33 615.57,206.45 627.88,206.63 629.32,204.99 "
   id="polygon603" />
				<polygon
   class="st3"
   points="584.66,85 585.09,82.8 583.38,75.56 584.47,62.62 547.93,61.74 548.22,66.32 547.78,94.16 556.83,94.29 589.45,94.6 "
   id="polygon605" />
				<polygon
   class="st4"
   points="584.66,85 585.09,82.8 583.38,75.56 584.47,62.62 547.93,61.74 548.22,66.32 547.78,94.16 556.83,94.28 589.45,94.6 "
   id="polygon607" />
				<polygon
   class="st3"
   points="529.67,93.62 547.78,94.16 548.22,66.32 548.02,57.13 515.94,56.92 516.15,84.93 516.19,93.75 "
   id="polygon609" />
				<polygon
   class="st4"
   points="529.67,93.62 547.78,94.16 548.22,66.32 548.02,57.13 515.94,56.92 516.14,84.92 516.19,93.75 "
   id="polygon611" />
				<polygon
   class="st3"
   points="655.72,294.63 658.11,295.86 671.59,291.89 678.59,286.55 681.34,287.18 684.75,283.14 681.7,278.77 678.39,277.01 675.79,272.01 674.99,267.34 675.45,261.34 677.91,255.53 676.84,249.21 672.06,249.72 672.46,244.79 657.49,244.74 655.63,247.85 651.89,247.06 651.72,250.09 649.03,247.87 645.79,248.35 645.68,253.61 642.25,275.32 650.2,285.7 649.94,287.38 653.55,288.39 655.78,289.03 "
   id="polygon613" />
				<polygon
   class="st4"
   points="655.72,294.63 658.11,295.86 671.59,291.89 678.59,286.55 681.34,287.18 684.75,283.14 681.7,278.77 678.39,277.01 675.79,272.01 674.99,267.34 675.45,261.34 677.91,255.52 676.84,249.21 672.06,249.72 672.46,244.79 657.49,244.74 655.62,247.85 651.89,247.06 651.72,250.09 649.03,247.87 645.79,248.34 645.68,253.61 642.25,275.32 650.2,285.7 649.94,287.38 653.55,288.39 655.78,289.03 "
   id="polygon615" />
				<polygon
   class="st3"
   points="661.01,337.17 662.01,332.57 652.91,332.65 653.13,323.29 634.68,323.35 612.74,322.67 612.19,327.11 612.04,338.22 616.43,338.25 625.58,336.61 643.18,336.7 642.84,359.99 644.71,360.08 644.39,370.48 645.85,370.39 660.75,370.23 "
   id="polygon617" />
				<polygon
   class="st4"
   points="661.01,337.17 662.01,332.57 652.91,332.65 653.13,323.28 634.68,323.35 612.74,322.67 612.19,327.1 612.04,338.22 616.43,338.25 625.58,336.61 643.18,336.7 642.84,359.98 644.71,360.08 644.39,370.48 645.85,370.39 660.75,370.23 "
   id="polygon619" />
				<polygon
   class="st3"
   points="581.41,274.61 594.93,274.75 594.79,224.37 590.81,223.29 585.1,223 580.6,226.68 572.94,223.91 572.58,280.49 573.73,280.51 581.48,280.6 "
   id="polygon621" />
				<polygon
   class="st4"
   points="581.41,274.61 594.93,274.75 594.79,224.37 590.81,223.29 585.1,223 580.6,226.68 572.94,223.91 572.58,280.49 573.73,280.5 581.48,280.6 "
   id="polygon623" />
				<polygon
   class="st3"
   points="642.25,275.32 645.68,253.61 646.11,230.54 643.61,234.42 639.33,236.33 633.01,240.7 627.4,240.03 624.11,238.63 621.94,235.29 618.31,233.66 613.86,234.79 606.29,232.39 606.2,230.18 599.31,223.61 594.79,224.37 594.92,275.33 "
   id="polygon625" />
				<polygon
   class="st4"
   points="642.25,275.32 645.68,253.61 646.11,230.54 643.61,234.42 639.32,236.33 633.01,240.69 627.4,240.03 624.1,238.62 621.94,235.28 618.31,233.66 613.86,234.79 606.29,232.39 606.2,230.18 599.31,223.61 594.79,224.37 594.92,275.33 "
   id="polygon627" />
				<polygon
   class="st3"
   points="708.23,459.2 707.33,459.12 708.54,452.05 708.43,435.09 693.15,434.95 690.04,439.32 689.67,443.67 687.33,448.27 692.83,448.26 694.84,456.94 700.03,459.7 698.52,465.93 699.96,467.78 698.37,470.85 695.7,471.7 695.07,474.53 687.39,479.57 686.47,483.33 681.5,486.61 674.66,498.44 681.82,498.38 708.38,498.1 "
   id="polygon629" />
				<polygon
   class="st4"
   points="708.23,459.2 707.33,459.12 708.54,452.05 708.43,435.09 693.15,434.95 690.04,439.32 689.67,443.67 687.33,448.27 692.82,448.26 694.84,456.94 700.03,459.7 698.52,465.93 699.96,467.78 698.37,470.85 695.7,471.7 695.06,474.52 687.39,479.57 686.47,483.33 681.5,486.61 674.66,498.44 681.82,498.38 708.38,498.09 "
   id="polygon631" />
				<polygon
   class="st3"
   points="590.75,48.94 585.68,48.54 585.24,46.23 582.27,45.5 582.14,40.44 578.8,40.05 574.84,35.55 574.17,31.45 569.61,30.44 569.32,27.69 566.79,25.61 565.79,24.01 548.55,24.84 547.93,61.74 584.47,62.62 587.31,52.73 "
   id="polygon633" />
				<polygon
   class="st4"
   points="590.75,48.94 585.68,48.53 585.24,46.23 582.27,45.5 582.14,40.44 578.8,40.05 574.83,35.55 574.17,31.44 569.61,30.44 569.32,27.69 566.78,25.61 565.79,24.01 548.55,24.83 547.93,61.74 584.47,62.62 587.31,52.73 "
   id="polygon635" />
				<polygon
   class="st3"
   points="651.73,416.77 651.84,409.58 650.35,409.56 650.44,405.19 648.96,405.12 649.08,400.73 646.22,397.74 646.32,392.79 627.4,392.37 627.47,387.95 623.11,388.12 615.7,389.29 607.04,389.08 606.43,415.35 615.2,415.55 632.94,416.63 "
   id="polygon637" />
				<polygon
   class="st4"
   points="651.73,416.77 651.84,409.58 650.35,409.56 650.44,405.19 648.96,405.12 649.08,400.73 646.22,397.74 646.32,392.78 627.4,392.37 627.47,387.95 623.11,388.12 615.7,389.29 607.04,389.08 606.43,415.34 615.2,415.55 632.94,416.63 "
   id="polygon639" />
				<polygon
   class="st3"
   points="730.4,377.73 735.69,375.73 735.71,374.24 746.31,372.37 743.91,368.84 746.52,363.93 750.55,362.95 751.68,359.3 750.25,353.54 747.72,350.57 744.08,343.55 743.63,340.44 738.79,339.94 737.06,337.86 732.05,337.23 731.48,338.64 716.3,337.08 715.86,385.04 724.03,385.05 727.53,383.58 "
   id="polygon641" />
				<polygon
   class="st4"
   points="730.4,377.73 735.69,375.72 735.71,374.24 746.31,372.36 743.91,368.84 746.52,363.93 750.55,362.95 751.68,359.29 750.25,353.54 747.72,350.57 744.08,343.55 743.63,340.44 738.79,339.94 737.06,337.86 732.05,337.23 731.48,338.64 716.3,337.07 715.86,385.04 724.03,385.05 727.53,383.58 "
   id="polygon643" />
				<polygon
   class="st3"
   points="654.48,430.05 657.4,430.06 657.33,438.82 658.8,438.84 658.69,448.21 687.33,448.27 689.67,443.67 690.04,439.32 693.15,434.95 693.84,428.35 688.92,420.23 687.68,413.62 684.42,409.92 684.28,405.64 676.69,405.23 650.44,405.19 650.35,409.56 651.84,409.58 651.73,416.77 654.55,416.82 "
   id="polygon645" />
				<polygon
   class="st4"
   points="654.48,430.05 657.4,430.06 657.33,438.82 658.8,438.84 658.69,448.21 687.33,448.27 689.67,443.67 690.04,439.32 693.15,434.95 693.84,428.35 688.92,420.22 687.68,413.62 684.42,409.92 684.28,405.64 676.69,405.23 650.44,405.19 650.35,409.56 651.84,409.58 651.73,416.77 654.55,416.82 "
   id="polygon647" />
				<polygon
   class="st3"
   points="708.4,392.28 708.37,384.92 715.86,385.04 716.3,337.08 693.28,337.27 693.95,342.98 693.37,366.23 687.57,365.93 687.13,389.05 696.22,389.11 696.15,393.62 705.46,393.73 "
   id="polygon649" />
				<polygon
   class="st4"
   points="708.4,392.28 708.37,384.92 715.86,385.04 716.3,337.07 693.28,337.27 693.95,342.98 693.37,366.23 687.57,365.93 687.13,389.05 696.22,389.11 696.15,393.62 705.46,393.73 "
   id="polygon651" />
				<polygon
   class="st3"
   points="573.81,177.92 591.59,178.47 589.23,160.15 566.65,159.54 566.69,158.02 535.83,157.83 518.99,157.11 518.63,167.66 535.56,168.36 535.08,186.6 573.46,187.13 "
   id="polygon653" />
				<polygon
   class="st4"
   points="573.81,177.92 591.59,178.47 589.23,160.14 566.65,159.54 566.69,158.02 535.83,157.83 518.99,157.11 518.63,167.66 535.55,168.36 535.08,186.6 573.46,187.13 "
   id="polygon655" />
				<polygon
   class="st7"
   points="489.26,371.19 488.7,391.01 523.71,391.75 524.05,372.02 523.58,372.03 523.64,349.92 488.64,349.05 488.18,371.15 "
   id="polygon657" />
				<polygon
   class="st7"
   points="458.44,370.52 458.13,388.82 471.22,389.18 471.19,390.64 488.7,391.01 489.26,371.19 488.18,371.15 488.64,349.05 457.63,348.45 457.48,355.81 457.21,370.51 "
   id="polygon659" />
				<polygon
   class="st7"
   points="376.92,321.16 378.13,292.49 376.21,292.99 371.93,290.27 363.94,292.99 363.44,291.02 333.34,290.07 333.05,331.55 376.9,332.97 "
   id="polygon661" />
				<polygon
   class="st6"
   points="376.92,321.15 378.13,292.49 376.21,292.99 371.93,290.27 363.94,292.99 363.44,291.02 333.34,290.07 333.05,331.55 376.9,332.97 "
   id="polygon663" />
				<polygon
   class="st7"
   points="482.34,417.32 438.87,416.23 437.99,448.25 481.74,448.29 "
   id="polygon665" />
				<polygon
   class="st7"
   points="417.16,415.92 416.32,448.17 437.99,448.25 438.87,416.23 435.84,416.19 436.2,398.54 414.24,398.2 414.17,405.56 414.01,415.86 "
   id="polygon667" />
				<polygon
   class="st7"
   points="398,313.1 417.21,313.78 417.57,304.91 422.13,305.06 423.33,275.83 421.22,274.98 418.52,275.63 378.8,274.31 377.53,306.33 398.26,307.17 "
   id="polygon669" />
				<polygon
   class="st7"
   points="414.29,322.58 413.34,354.54 448.7,355.57 449.44,323.81 447.97,323.77 448.26,316.37 417.14,315.28 417.21,313.78 412.76,313.64 412.44,322.52 "
   id="polygon671" />
				<polygon
   class="st7"
   points="534.92,418.51 482.34,417.32 481.74,448.29 501.34,448.2 534.27,448.17 "
   id="polygon673" />
				<polygon
   class="st7"
   points="378.05,392.93 333.04,392.05 333,421.29 377.27,423.18 "
   id="polygon675" />
				<polygon
   class="st6"
   points="378.05,392.93 333.04,392.05 333,421.29 377.27,423.18 "
   id="polygon677" />
				<polygon
   class="st6"
   points="492.9,260.56 493.59,252.04 476.13,234.94 476.3,225.95 458.56,225.01 457.13,269.52 459.65,268.52 464.54,274.62 461.6,275.88 464.18,277.02 466.64,272.54 468.66,274.6 466.38,276.03 482.34,276.81 484.42,273.54 487.9,273.48 488.39,260.5 "
   id="polygon679" />
				<polygon
   class="st7"
   points="376.61,448.19 377.27,423.18 333,421.29 333.04,448.12 "
   id="polygon681" />
				<polygon
   class="st6"
   points="376.61,448.19 377.27,423.18 333,421.29 333.04,448.12 "
   id="polygon683" />
				<polygon
   class="st7"
   points="414.64,369.33 378.61,368.46 377.76,404.66 414.17,405.56 "
   id="polygon685" />
				<polygon
   class="st7"
   points="523.91,332.08 510.63,325.42 511,310.6 507.51,314.16 503.56,313.81 499.74,316.59 495.62,312.53 494,307.2 475.05,306.88 474.68,324.67 475.78,324.69 475.21,348.78 523.64,349.92 "
   id="polygon687" />
				<polygon
   class="st7"
   points="376.07,368.38 376.21,362.46 333.06,360.95 333.04,392.05 378.05,392.93 378.61,368.46 "
   id="polygon689" />
				<polygon
   class="st6"
   points="376.07,368.37 376.21,362.46 333.06,360.95 333.04,392.05 378.05,392.93 378.61,368.46 "
   id="polygon691" />
				<polygon
   class="st7"
   points="570.22,419.16 571.36,419.19 571.72,392.85 536.82,392.11 536.23,418.54 534.92,418.51 534.27,448.17 570.37,448.11 569.89,435.51 "
   id="polygon693" />
				<polygon
   class="st6"
   points="570.22,419.16 571.36,419.19 571.72,392.84 536.82,392.11 536.23,418.54 534.92,418.51 534.27,448.17 570.37,448.11 569.89,435.51 "
   id="polygon695" />
				<polygon
   class="st7"
   points="457.56,306.17 458.14,289.82 422.79,288.75 422.13,305.06 417.57,304.91 417.14,315.28 448.26,316.37 448.68,306.02 "
   id="polygon697" />
				<polygon
   class="st7"
   points="414.33,387.87 458.13,388.82 458.44,370.52 457.21,370.51 457.48,355.81 413.34,354.54 412.96,369.28 414.64,369.33 "
   id="polygon699" />
				<polygon
   class="st7"
   points="536.82,392.11 471.19,390.64 470.7,417.01 482.34,417.32 536.23,418.54 "
   id="polygon701" />
				<polygon
   class="st7"
   points="457.63,348.45 475.21,348.78 475.78,324.69 474.68,324.67 475.05,306.88 448.68,306.02 447.97,323.77 449.44,323.81 448.7,355.57 457.48,355.81 "
   id="polygon703" />
				<polygon
   class="st7"
   points="413.75,339.78 376.75,338.88 376.07,368.38 378.61,368.46 412.96,369.28 "
   id="polygon705" />
				<polygon
   class="st7"
   points="471.22,389.18 414.33,387.87 414.24,398.2 436.2,398.54 435.84,416.19 438.87,416.23 470.7,417.01 "
   id="polygon707" />
				<polygon
   class="st7"
   points="412.44,322.52 412.76,313.64 398,313.1 398.26,307.17 377.53,306.33 376.92,321.16 376.75,338.88 413.75,339.78 414.29,322.58 "
   id="polygon709" />
				<polygon
   class="st8"
   points="458.63,277.21 456.77,277.13 457.97,241.82 439.99,241.27 439.88,244.27 422.09,243.63 422.13,250.52 421.22,274.98 423.33,275.83 422.79,288.75 458.14,289.82 "
   id="polygon711" />
				<polygon
   class="st6"
   points="458.63,277.21 456.77,277.12 457.97,241.82 439.99,241.27 439.88,244.27 422.08,243.63 422.13,250.51 421.21,274.98 423.33,275.83 422.79,288.75 458.14,289.82 "
   id="polygon713" />
				<polygon
   class="st7"
   points="376.9,332.97 333.05,331.55 333.06,360.95 376.21,362.46 "
   id="polygon715" />
				<polygon
   class="st6"
   points="376.9,332.97 333.05,331.55 333.06,360.95 376.21,362.46 "
   id="polygon717" />
				<polygon
   class="st7"
   points="417.16,415.92 414.01,415.86 414.17,405.56 377.76,404.66 376.61,448.19 393.56,448.19 416.32,448.17 "
   id="polygon719" />
				<polygon
   class="st8"
   points="333.8,38.98 333.79,48.04 365.56,48.3 365.53,39.18 364.16,39.19 364.11,28.43 331.9,28.49 331.91,38.97 "
   id="polygon721" />
				<polygon
   class="st6"
   points="333.8,38.98 333.79,48.04 365.56,48.3 365.53,39.18 364.16,39.19 364.11,28.43 331.9,28.48 331.91,38.97 "
   id="polygon723" />
				<polygon
   class="st8"
   points="474.98,84.92 475.05,48.13 433.83,48.44 433.81,60.77 433.86,85.36 "
   id="polygon725" />
				<polygon
   class="st6"
   points="474.98,84.92 475.05,48.13 433.83,48.44 433.81,60.77 433.86,85.36 "
   id="polygon727" />
				<polygon
   class="st8"
   points="468.67,186.57 470.73,183.35 467.79,180.6 474.65,172.38 475.55,169.77 471.76,170.22 468.45,168.45 470.09,167.03 466.68,163.92 465.83,160.5 459.79,160.25 457.31,158.2 456.96,154.77 454.98,153.37 452.15,153.9 450.16,151.15 447.22,151.49 447.93,155.25 444.86,159.19 442.78,158.16 441.02,160.9 436.25,161.36 436.88,166.87 432.25,169.63 429.88,168.57 430.93,166.25 424.95,162.84 423.4,199.18 459.33,200.7 459.49,196.12 "
   id="polygon729" />
				<polygon
   class="st6"
   points="468.66,186.57 470.73,183.35 467.79,180.6 474.65,172.38 475.55,169.77 471.76,170.22 468.45,168.45 470.09,167.03 466.68,163.92 465.83,160.5 459.79,160.25 457.31,158.2 456.96,154.77 454.98,153.37 452.15,153.9 450.16,151.15 447.22,151.48 447.92,155.25 444.86,159.19 442.78,158.15 441.02,160.89 436.25,161.36 436.88,166.87 432.25,169.63 429.88,168.56 430.93,166.24 424.95,162.84 423.4,199.18 459.33,200.7 459.49,196.12 "
   id="polygon731" />
				<polygon
   class="st8"
   points="367.74,174.23 372.36,175.73 374.38,178.37 377.79,179.32 380.87,177.23 380.5,173.37 384.43,171.88 385.9,173.32 383.72,177.4 385.95,178.36 387.66,174.61 390.93,174.11 394.47,171.16 402.28,171.77 402.23,138.67 366.03,138.4 365.7,171.76 369.17,171.4 "
   id="polygon733" />
				<polygon
   class="st6"
   points="367.74,174.23 372.36,175.73 374.38,178.37 377.79,179.32 380.87,177.22 380.5,173.37 384.43,171.88 385.9,173.32 383.72,177.4 385.95,178.36 387.66,174.61 390.93,174.11 394.47,171.15 402.28,171.77 402.23,138.67 366.03,138.4 365.7,171.76 369.17,171.39 "
   id="polygon735" />
				<polygon
   class="st8"
   points="311.19,152.47 311.99,154.21 309.48,156.75 310.43,162.25 316.15,167.31 315.81,170.84 320.4,172.61 322.17,175.25 327.32,174.24 330.4,177.27 334.34,176.7 334.38,138.06 293.96,137.76 298.17,141.5 299.56,145.32 303.04,146.85 304.75,149.7 306.92,152.77 "
   id="polygon737" />
				<polygon
   class="st6"
   points="311.19,152.46 311.99,154.21 309.48,156.75 310.43,162.25 316.15,167.31 315.81,170.84 320.4,172.61 322.17,175.25 327.32,174.24 330.4,177.26 334.34,176.69 334.38,138.06 293.96,137.76 298.17,141.5 299.56,145.32 303.04,146.85 304.75,149.7 306.92,152.77 "
   id="polygon739" />
				<polygon
   class="st8"
   points="439.99,241.27 457.97,241.82 459.33,200.7 423.4,199.18 423.67,203.71 422.33,230.92 422.09,243.63 439.88,244.27 "
   id="polygon741" />
				<polygon
   class="st6"
   points="439.99,241.27 457.97,241.82 459.33,200.7 423.4,199.18 423.66,203.7 422.33,230.92 422.08,243.63 439.88,244.27 "
   id="polygon743" />
				<polygon
   class="st8"
   points="297.37,70.76 298.79,75.14 334,75.56 334.6,48.05 333.79,48.04 333.8,38.98 331.91,38.97 331.9,28.49 285.94,27.73 285.98,38.24 287.93,38.26 287.7,61.25 296.51,61.36 "
   id="polygon745" />
				<polygon
   class="st6"
   points="297.37,70.76 298.79,75.14 334,75.56 334.6,48.05 333.79,48.04 333.8,38.98 331.91,38.97 331.9,28.48 285.94,27.73 285.97,38.24 287.93,38.26 287.7,61.25 296.51,61.35 "
   id="polygon747" />
				<polygon
   class="st8"
   points="401.77,38.97 401.89,61.02 433.81,60.77 433.83,48.44 433.2,39 433.23,27.54 401.01,27.84 400.99,38.98 "
   id="polygon749" />
				<polygon
   class="st6"
   points="401.77,38.97 401.89,61.02 433.81,60.77 433.83,48.44 433.2,39 433.23,27.54 401.01,27.84 400.99,38.98 "
   id="polygon751" />
				<polygon
   class="st8"
   points="440.99,129.16 442.3,128.41 440.25,122.21 441.88,119.95 434,119.93 434.23,92.25 402,93.09 402.29,129.6 "
   id="polygon753" />
				<polygon
   class="st6"
   points="440.99,129.16 442.3,128.41 440.25,122.21 441.88,119.95 434,119.92 434.23,92.25 402,93.08 402.29,129.59 "
   id="polygon755" />
				<polygon
   class="st8"
   points="456.76,119.62 474.84,120.32 475.68,84.92 434.23,85.36 434.23,92.25 434,119.93 "
   id="polygon757" />
				<polygon
   class="st6"
   points="456.76,119.62 474.84,120.32 475.68,84.92 434.23,85.36 434.23,92.25 434,119.92 "
   id="polygon759" />
				<polygon
   class="st8"
   points="396.14,199.7 423.33,200.68 424.95,162.84 423.42,165.75 424.08,169.49 418.31,170.54 416.26,168.29 410.82,167.5 406.99,171.49 402.28,171.77 394.47,171.16 390.93,174.11 387.66,174.61 385.95,178.36 383.72,177.4 385.9,173.32 384.43,171.88 380.5,173.37 380.87,177.23 377.79,179.32 374.38,178.37 373.63,201.83 396.01,202.72 "
   id="polygon761" />
				<polygon
   class="st6"
   points="396.14,199.7 423.33,200.68 424.95,162.84 423.42,165.74 424.08,169.49 418.31,170.54 416.26,168.29 410.82,167.5 406.99,171.49 402.28,171.77 394.47,171.15 390.93,174.11 387.66,174.61 385.95,178.36 383.72,177.4 385.9,173.32 384.43,171.88 380.5,173.37 380.87,177.22 377.79,179.32 374.38,178.37 373.63,201.83 396.01,202.72 "
   id="polygon763" />
				<polygon
   class="st8"
   points="373.44,228.89 373.18,237.84 422.22,239.13 423.67,203.71 423.33,200.68 396.14,199.7 396.01,202.72 373.63,201.83 373.21,210.54 372.4,228.85 "
   id="polygon765" />
				<polygon
   class="st6"
   points="373.44,228.89 373.18,237.84 422.22,239.13 423.66,203.7 423.33,200.68 396.14,199.7 396.01,202.72 373.63,201.83 373.21,210.54 372.4,228.85 "
   id="polygon767" />
				<polygon
   class="st8"
   points="372.36,175.73 367.74,174.23 369.17,171.4 365.7,171.76 362.16,168.74 359.46,168.64 353.15,176.59 351.42,173.17 350.41,176.16 345.63,180.77 343.78,178.16 340.64,177.82 333.88,181.5 333.83,209.09 347.62,209.85 373.21,210.54 374.38,178.37 "
   id="polygon769" />
				<polygon
   class="st6"
   points="372.36,175.73 367.74,174.23 369.17,171.39 365.7,171.76 362.16,168.74 359.46,168.64 353.15,176.59 351.42,173.17 350.41,176.15 345.63,180.77 343.78,178.16 340.64,177.82 333.88,181.5 333.83,209.09 347.62,209.85 373.21,210.54 374.38,178.37 "
   id="polygon771" />
				<polygon
   class="st6"
   points="473.06,190.84 474.89,194.86 480.72,196.21 484.85,194.99 495.59,196.59 499.02,196.27 498.69,192.93 509.31,167.42 480.28,157.55 474.65,172.38 467.79,180.6 470.73,183.35 468.66,186.57 470.28,191.06 "
   id="polygon773" />
				<polygon
   class="st8"
   points="263.09,62.73 264.39,65.38 263.75,69.48 270.26,75.68 270.55,80.54 268.36,82.25 269.43,85.36 274.32,85.86 277.41,88.84 282.08,94.24 285.78,95.26 286.64,99.28 290.48,98.91 290.99,101.39 295.4,103.35 299.2,102.97 302.78,99.57 303.15,94.86 301.86,91 301.4,83.92 299.51,83.7 298.79,75.14 297.37,70.76 296.51,61.36 257.53,60.93 257.73,61.24 "
   id="polygon775" />
				<polygon
   class="st6"
   points="263.09,62.73 264.39,65.38 263.74,69.48 270.26,75.68 270.55,80.54 268.36,82.25 269.43,85.36 274.32,85.86 277.41,88.84 282.08,94.24 285.78,95.26 286.63,99.28 290.48,98.91 290.99,101.39 295.4,103.35 299.2,102.97 302.78,99.57 303.15,94.86 301.86,90.99 301.4,83.91 299.51,83.7 298.79,75.14 297.37,70.76 296.51,61.35 257.53,60.93 257.73,61.24 "
   id="polygon777" />
				<polygon
   class="st8"
   points="418.52,275.63 421.22,274.98 422.13,250.52 422.22,239.13 377.64,237.98 377.53,250.37 376.76,274.25 "
   id="polygon779" />
				<polygon
   class="st6"
   points="418.52,275.63 421.21,274.98 422.13,250.51 422.22,239.13 377.64,237.98 377.53,250.37 376.76,274.25 "
   id="polygon781" />
				<polygon
   class="st8"
   points="401.84,74.85 401.77,38.97 400.99,38.98 401.01,27.84 364.11,28.43 364.16,39.19 365.53,39.18 365.56,48.3 365.36,74.46 "
   id="polygon783" />
				<polygon
   class="st6"
   points="401.84,74.85 401.77,38.97 400.99,38.98 401.01,27.84 364.11,28.43 364.16,39.19 365.53,39.18 365.56,48.3 365.36,74.46 "
   id="polygon785" />
				<polygon
   class="st8"
   points="434.23,85.36 433.86,85.36 433.81,60.77 401.89,61.02 402,93.09 434.23,92.25 "
   id="polygon787" />
				<polygon
   class="st6"
   points="434.23,85.36 433.86,85.36 433.81,60.77 401.89,61.02 402,93.08 434.23,92.25 "
   id="polygon789" />
				<polygon
   class="st8"
   points="365.19,85.17 365.56,48.3 334.6,48.05 334.04,84.72 356.09,84.7 "
   id="polygon791" />
				<polygon
   class="st6"
   points="365.19,85.17 365.56,48.3 334.6,48.05 334.04,84.71 356.09,84.7 "
   id="polygon793" />
				<polygon
   class="st8"
   points="366.23,115.53 366.43,85.21 356.09,84.7 334.04,84.72 334.29,115.38 "
   id="polygon795" />
				<polygon
   class="st6"
   points="366.23,115.53 366.43,85.21 356.09,84.7 334.04,84.71 334.29,115.38 "
   id="polygon797" />
				<polygon
   class="st8"
   points="401.84,74.85 365.36,74.46 365.19,85.17 366.43,85.21 366.24,111 402.24,111.45 "
   id="polygon799" />
				<polygon
   class="st6"
   points="401.84,74.85 365.36,74.46 365.19,85.17 366.43,85.21 366.24,111 402.24,111.45 "
   id="polygon801" />
				<polygon
   class="st8"
   points="365.85,145.97 366.23,115.53 334.29,115.38 334.38,138.06 334.42,145.81 "
   id="polygon803" />
				<polygon
   class="st6"
   points="365.85,145.97 366.23,115.53 334.29,115.38 334.38,138.06 334.42,145.81 "
   id="polygon805" />
				<polygon
   class="st8"
   points="334.42,145.81 334.34,176.7 333.88,181.5 340.64,177.82 343.78,178.16 345.63,180.77 350.41,176.16 351.42,173.17 353.15,176.59 359.46,168.64 362.16,168.74 365.7,171.76 365.85,145.97 "
   id="polygon807" />
				<polygon
   class="st6"
   points="334.42,145.81 334.34,176.69 333.88,181.5 340.64,177.82 343.78,178.16 345.63,180.77 350.41,176.15 351.42,173.17 353.15,176.59 359.46,168.64 362.16,168.74 365.7,171.76 365.85,145.97 "
   id="polygon809" />
				<polygon
   class="st8"
   points="457.31,158.2 459.79,160.25 465.83,160.5 466.68,163.92 470.09,167.03 468.45,168.45 471.76,170.22 475.55,169.77 480.28,157.55 486.97,159.84 487.84,129.7 488.2,129.71 488.43,120.52 456.76,119.62 441.88,119.95 440.25,122.21 442.3,128.41 440.99,129.16 442.59,135.63 440.59,139.2 443.26,145.51 445.02,144.04 446.19,148.49 450.05,147.89 453.82,149.89 454.98,153.37 456.96,154.77 "
   id="polygon811" />
				<polygon
   class="st6"
   points="457.31,158.2 459.79,160.25 465.83,160.5 466.68,163.92 470.09,167.03 468.45,168.45 471.76,170.22 475.55,169.77 480.28,157.55 486.97,159.84 487.84,129.7 488.2,129.71 488.43,120.52 456.76,119.62 441.88,119.95 440.25,122.21 442.3,128.41 440.99,129.16 442.59,135.63 440.59,139.2 443.26,145.51 445.02,144.03 446.19,148.49 450.05,147.89 453.82,149.89 454.98,153.37 456.96,154.77 "
   id="polygon813" />
				<polygon
   class="st8"
   points="373.18,237.84 373.44,228.89 372.4,228.85 373.21,210.54 347.62,209.85 333.83,209.09 333.44,247.22 357.67,247.85 362.1,250.05 368.8,250.53 375.86,249.46 377.53,250.37 377.64,237.98 "
   id="polygon815" />
				<polygon
   class="st6"
   points="373.18,237.84 373.44,228.89 372.4,228.85 373.21,210.54 347.62,209.85 333.83,209.09 333.44,247.22 357.67,247.85 362.1,250.05 368.8,250.53 375.86,249.46 377.53,250.37 377.64,237.98 "
   id="polygon817" />
				<polygon
   class="st8"
   points="410.82,167.5 416.26,168.29 418.31,170.54 424.08,169.49 423.42,165.75 424.95,162.84 430.93,166.25 429.88,168.57 432.25,169.63 436.88,166.87 436.25,161.36 441.02,160.9 442.78,158.16 444.86,159.19 447.93,155.25 447.22,151.49 450.16,151.15 452.15,153.9 454.98,153.37 453.82,149.89 450.05,147.89 446.19,148.49 445.02,144.04 443.26,145.51 440.59,139.2 442.59,135.63 440.99,129.16 402.29,129.6 402.28,171.77 406.99,171.49 "
   id="polygon819" />
				<polygon
   class="st6"
   points="410.82,167.5 416.26,168.29 418.31,170.54 424.08,169.49 423.42,165.74 424.95,162.84 430.93,166.24 429.88,168.56 432.25,169.63 436.88,166.87 436.25,161.36 441.02,160.89 442.78,158.15 444.86,159.19 447.92,155.25 447.22,151.48 450.16,151.15 452.15,153.9 454.98,153.37 453.82,149.89 450.05,147.89 446.19,148.49 445.02,144.03 443.26,145.51 440.59,139.2 442.59,135.63 440.99,129.16 402.29,129.59 402.28,171.77 406.99,171.49 "
   id="polygon821" />
				<polygon
   class="st8"
   points="366.24,111 366.03,138.4 402.23,138.67 402.24,111.45 "
   id="polygon823" />
				<polygon
   class="st6"
   points="366.24,111 366.03,138.4 402.23,138.67 402.24,111.45 "
   id="polygon825" />
				<polygon
   class="st8"
   points="312.2,107.68 311.07,110.75 308.25,110.91 309.32,114.11 312.96,112.81 312.91,116.55 310.23,117.8 306.48,115.58 304.63,116.96 304.61,121.67 301.03,123.02 297.82,128.33 297.67,132.82 294.82,132.76 293.14,135.05 293.96,137.76 334.38,138.06 334.25,107.79 "
   id="polygon827" />
				<polygon
   class="st6"
   points="312.2,107.68 311.07,110.75 308.24,110.91 309.32,114.11 312.96,112.81 312.91,116.55 310.23,117.8 306.48,115.58 304.63,116.96 304.61,121.67 301.03,123.02 297.82,128.33 297.67,132.82 294.82,132.76 293.14,135.05 293.96,137.76 334.38,138.06 334.25,107.79 "
   id="polygon829" />
				<polygon
   class="st8"
   points="376.76,274.25 377.53,250.37 375.86,249.46 368.8,250.53 362.1,250.05 357.67,247.85 333.44,247.22 333.34,290.07 363.44,291.02 363.94,292.99 371.93,290.27 376.21,292.99 378.13,292.49 378.8,274.31 "
   id="polygon831" />
				<polygon
   class="st6"
   points="376.76,274.25 377.53,250.37 375.86,249.46 368.8,250.53 362.1,250.05 357.67,247.85 333.44,247.22 333.34,290.07 363.44,291.02 363.94,292.99 371.93,290.27 376.21,292.99 378.13,292.49 378.8,274.3 "
   id="polygon833" />
				<polygon
   class="st8"
   points="248.94,34.22 245.85,35.49 246.41,39.3 249.1,41.93 248.96,44.96 251.68,53.79 249.35,55.16 257.67,58.15 257.53,60.93 287.7,61.25 287.93,38.26 285.98,38.24 285.94,27.73 240.56,27.02 241.25,33.3 245.04,33.53 248.12,29.42 "
   id="polygon835" />
				<polygon
   class="st6"
   points="248.94,34.22 245.85,35.49 246.41,39.3 249.1,41.93 248.96,44.96 251.68,53.79 249.35,55.15 257.67,58.14 257.53,60.93 287.7,61.25 287.93,38.26 285.97,38.24 285.94,27.73 240.56,27.02 241.25,33.3 245.04,33.53 248.12,29.42 "
   id="polygon837" />
				<polygon
   class="st8"
   points="307.1,104.4 312.2,107.68 334.25,107.79 334,75.56 298.79,75.14 299.51,83.7 301.4,83.92 301.86,91 303.15,94.86 302.78,99.57 308.06,100.81 "
   id="polygon839" />
				<polygon
   class="st6"
   points="307.1,104.4 312.2,107.68 334.25,107.79 334,75.56 298.79,75.14 299.51,83.7 301.4,83.91 301.86,90.99 303.15,94.86 302.78,99.57 308.06,100.81 "
   id="polygon841" />
				<polygon
   class="st8"
   points="515.77,52.3 475.03,52.7 474.98,84.92 475.68,84.92 516.15,84.93 "
   id="polygon843" />
				<polygon
   class="st6"
   points="515.77,52.3 475.03,52.7 474.98,84.92 475.68,84.92 516.14,84.92 "
   id="polygon845" />
				<polygon
   class="st8"
   points="318.1,188.75 333.88,188.69 333.88,181.5 334.34,176.7 330.4,177.27 327.32,174.24 322.17,175.25 320.4,172.61 310.29,172.19 309.64,179.92 309.6,194.15 312.59,187.11 "
   id="polygon847" />
				<polygon
   class="st6"
   points="318.1,188.75 333.88,188.69 333.88,181.5 334.34,176.69 330.4,177.26 327.32,174.24 322.17,175.25 320.4,172.61 310.29,172.19 309.64,179.92 309.6,194.15 312.59,187.11 "
   id="polygon849" />
				<polygon
   class="st8"
   points="260.41,314.57 260.41,292.31 224.96,292.09 224.83,323.34 259.9,323.48 "
   id="polygon851" />
				<polygon
   class="st6"
   points="260.41,314.57 260.41,292.31 224.96,292.08 224.83,323.33 259.9,323.48 "
   id="polygon853" />
				<polygon
   class="st8"
   points="259.9,323.48 224.83,323.34 224.79,358.67 259.9,358.94 "
   id="polygon855" />
				<polygon
   class="st6"
   points="259.9,323.48 224.83,323.33 224.79,358.67 259.9,358.94 "
   id="polygon857" />
				<polygon
   class="st8"
   points="226,206.75 261.91,206.75 261.94,187.38 254.1,186.18 254.75,170.82 218.81,170.78 218.53,180.13 225.98,183.02 "
   id="polygon859" />
				<polygon
   class="st6"
   points="226,206.75 261.91,206.75 261.94,187.38 254.1,186.18 254.74,170.82 218.81,170.78 218.53,180.13 225.98,183.02 "
   id="polygon861" />
				<polygon
   class="st8"
   points="195.77,173.56 199.88,174.69 202.17,171.48 207.26,172.16 207.28,173.54 214.94,173.17 217.03,176.84 214.57,177.46 218.53,180.13 218.81,170.78 218.78,134.33 174.8,134.31 173.98,136.64 169.76,139.26 167.87,143.82 164.74,145.26 163.13,151.3 173.73,167.09 176.45,168.25 176.77,174.48 180.13,175.54 184.79,173.47 190.34,175.34 194.98,176.77 "
   id="polygon863" />
				<polygon
   class="st6"
   points="195.77,173.56 199.88,174.69 202.17,171.48 207.26,172.16 207.28,173.53 214.94,173.17 217.03,176.84 214.57,177.45 218.53,180.13 218.81,170.78 218.78,134.33 174.8,134.31 173.98,136.64 169.76,139.26 167.87,143.82 164.74,145.26 163.13,151.3 173.73,167.09 176.45,168.25 176.77,174.48 180.13,175.54 184.79,173.47 190.34,175.33 194.98,176.77 "
   id="polygon865" />
				<polygon
   class="st8"
   points="261.3,224.81 261.88,220.29 261.91,206.75 226,206.75 225.68,251.67 261.3,251.68 "
   id="polygon867" />
				<polygon
   class="st6"
   points="261.3,224.8 261.88,220.29 261.91,206.75 226,206.75 225.68,251.67 261.3,251.68 "
   id="polygon869" />
				<polygon
   class="st8"
   points="295.15,358.96 295.15,323.51 259.9,323.48 259.9,358.94 "
   id="polygon871" />
				<polygon
   class="st6"
   points="295.15,358.96 295.15,323.51 259.9,323.48 259.9,358.94 "
   id="polygon873" />
				<polygon
   class="st8"
   points="238.65,134.33 238.75,88.79 202.41,88.75 202.42,134.31 "
   id="polygon875" />
				<polygon
   class="st6"
   points="238.65,134.33 238.75,88.79 202.41,88.74 202.42,134.31 "
   id="polygon877" />
				<polygon
   class="st8"
   points="260.16,397.85 260.51,372.33 260.26,358.94 224.79,358.67 224.55,367.54 224.56,397.87 "
   id="polygon879" />
				<polygon
   class="st6"
   points="260.16,397.85 260.51,372.33 260.25,358.94 224.79,358.67 224.55,367.53 224.55,397.87 "
   id="polygon881" />
				<polygon
   class="st8"
   points="333.75,220.37 297.71,220.31 296.95,224.83 296.95,256.25 333.42,256.37 "
   id="polygon883" />
				<polygon
   class="st6"
   points="333.75,220.36 297.71,220.31 296.95,224.82 296.95,256.24 333.42,256.37 "
   id="polygon885" />
				<polygon
   class="st8"
   points="202.41,88.75 156.79,88.69 156.71,134.29 202.42,134.31 "
   id="polygon887" />
				<polygon
   class="st6"
   points="202.41,88.74 156.79,88.69 156.7,134.29 202.42,134.31 "
   id="polygon889" />
				<polygon
   class="st8"
   points="333.42,256.37 296.95,256.25 297,269.72 296.17,269.71 295.99,292.36 333.34,292.42 "
   id="polygon891" />
				<polygon
   class="st6"
   points="333.42,256.37 296.95,256.24 297,269.72 296.17,269.71 295.99,292.36 333.34,292.42 "
   id="polygon893" />
				<polygon
   class="st8"
   points="289.03,195.17 295.39,198.05 295.26,195.31 297.71,195.12 300.55,193.26 306.42,194.9 309.6,194.15 309.64,179.92 310.29,172.19 320.4,172.61 315.81,170.84 316.15,167.31 310.43,162.25 309.48,156.75 311.99,154.21 311.19,152.47 306.92,152.77 304.75,149.7 287.68,149.68 287.74,179.88 287.18,188.69 287.24,196.93 "
   id="polygon895" />
				<polygon
   class="st6"
   points="289.03,195.17 295.38,198.05 295.26,195.31 297.71,195.12 300.55,193.26 306.42,194.9 309.6,194.15 309.64,179.92 310.29,172.19 320.4,172.61 315.81,170.84 316.15,167.31 310.43,162.25 309.48,156.75 311.99,154.21 311.19,152.46 306.92,152.77 304.75,149.7 287.67,149.68 287.74,179.88 287.18,188.69 287.24,196.93 "
   id="polygon897" />
				<polygon
   class="st8"
   points="296.19,363.41 295.15,358.96 260.26,358.94 260.51,372.33 260.16,397.85 296.33,397.83 "
   id="polygon899" />
				<polygon
   class="st6"
   points="296.19,363.41 295.15,358.96 260.25,358.94 260.51,372.33 260.16,397.85 296.33,397.83 "
   id="polygon901" />
				<polygon
   class="st8"
   points="333.88,188.69 318.1,188.75 312.59,187.11 309.6,194.15 306.42,194.9 300.55,193.26 297.71,195.12 297.71,220.31 333.75,220.37 "
   id="polygon903" />
				<polygon
   class="st6"
   points="333.88,188.69 318.1,188.75 312.59,187.11 309.6,194.15 306.42,194.9 300.55,193.26 297.71,195.12 297.71,220.31 333.75,220.36 "
   id="polygon905" />
				<polygon
   class="st8"
   points="261.94,187.38 267.55,186.07 274.8,189.97 278.24,188.88 287.18,188.69 287.74,179.88 287.68,149.68 254.77,149.68 254.75,170.82 254.1,186.18 "
   id="polygon907" />
				<polygon
   class="st6"
   points="261.94,187.38 267.55,186.07 274.8,189.97 278.24,188.87 287.18,188.69 287.74,179.88 287.67,149.68 254.77,149.68 254.74,170.82 254.1,186.18 "
   id="polygon909" />
				<polygon
   class="st8"
   points="254.77,149.68 256.28,149.68 256.3,134.36 256.79,125.25 238.68,125.25 238.65,134.33 218.78,134.33 218.81,170.78 254.75,170.82 "
   id="polygon911" />
				<polygon
   class="st6"
   points="254.77,149.68 256.28,149.68 256.3,134.36 256.79,125.24 238.68,125.24 238.65,134.33 218.78,134.33 218.81,170.78 254.74,170.82 "
   id="polygon913" />
				<polygon
   class="st8"
   points="296.95,224.83 297.71,220.31 261.88,220.29 261.3,224.81 261.3,256.19 296.95,256.25 "
   id="polygon915" />
				<polygon
   class="st6"
   points="296.95,224.82 297.71,220.31 261.88,220.29 261.3,224.8 261.3,256.19 296.95,256.24 "
   id="polygon917" />
				<polygon
   class="st8"
   points="295.26,195.31 295.39,198.05 289.03,195.17 287.24,196.93 287.18,188.69 278.24,188.88 274.8,189.97 267.55,186.07 261.94,187.38 261.88,220.29 297.71,220.31 297.71,195.12 "
   id="polygon919" />
				<polygon
   class="st6"
   points="295.26,195.31 295.38,198.05 289.03,195.17 287.24,196.93 287.18,188.69 278.24,188.87 274.8,189.97 267.55,186.07 261.94,187.38 261.88,220.29 297.71,220.31 297.71,195.12 "
   id="polygon921" />
				<polygon
   class="st8"
   points="292.97,125.3 294.14,128.31 297.82,128.33 301.03,123.02 304.61,121.67 304.63,116.96 306.48,115.58 310.23,117.8 312.91,116.55 312.96,112.81 309.32,114.11 308.25,110.91 311.07,110.75 312.2,107.68 307.1,104.4 308.06,100.81 302.78,99.57 299.2,102.97 295.4,103.35 290.99,101.39 290.48,98.91 286.64,99.28 285.78,95.26 282.08,94.24 277.41,88.84 274.86,88.84 274.87,125.25 "
   id="polygon923" />
				<polygon
   class="st6"
   points="292.97,125.3 294.14,128.31 297.82,128.33 301.03,123.02 304.61,121.67 304.63,116.96 306.48,115.58 310.23,117.8 312.91,116.55 312.96,112.81 309.32,114.11 308.24,110.91 311.07,110.75 312.2,107.68 307.1,104.4 308.06,100.81 302.78,99.57 299.2,102.97 295.4,103.35 290.99,101.39 290.48,98.91 286.63,99.28 285.78,95.26 282.08,94.24 277.41,88.84 274.86,88.84 274.87,125.24 "
   id="polygon925" />
				<polygon
   class="st8"
   points="333.05,363.56 333.05,329.57 295.17,329.43 295.15,358.96 296.19,363.41 "
   id="polygon927" />
				<polygon
   class="st6"
   points="333.05,363.56 333.05,329.57 295.17,329.43 295.15,358.96 296.19,363.41 "
   id="polygon929" />
				<polygon
   class="st8"
   points="261.36,269.66 261.3,251.68 225.68,251.67 225.71,269.59 224.97,278.7 224.96,292.09 260.41,292.31 260.61,269.66 "
   id="polygon931" />
				<polygon
   class="st6"
   points="261.36,269.66 261.3,251.68 225.68,251.67 225.71,269.58 224.97,278.7 224.96,292.08 260.41,292.31 260.61,269.66 "
   id="polygon933" />
				<polygon
   class="st8"
   points="333.02,397.97 333.05,363.56 296.19,363.41 296.33,397.83 "
   id="polygon935" />
				<polygon
   class="st6"
   points="333.02,397.97 333.05,363.56 296.19,363.41 296.33,397.83 "
   id="polygon937" />
				<polygon
   class="st8"
   points="274.86,88.84 238.75,88.79 238.68,125.25 274.87,125.25 "
   id="polygon939" />
				<polygon
   class="st6"
   points="274.86,88.84 238.75,88.79 238.68,125.24 274.87,125.24 "
   id="polygon941" />
				<polygon
   class="st8"
   points="333.34,292.42 295.99,292.36 295.82,314.61 295.15,323.51 295.17,329.43 333.05,329.57 "
   id="polygon943" />
				<polygon
   class="st6"
   points="333.34,292.42 295.99,292.36 295.82,314.61 295.15,323.51 295.17,329.43 333.05,329.57 "
   id="polygon945" />
				<polygon
   class="st8"
   points="303.04,146.85 299.56,145.32 298.17,141.5 293.96,137.76 293.14,135.05 294.82,132.76 297.67,132.82 297.82,128.33 294.14,128.31 292.97,125.3 256.79,125.25 256.3,134.36 256.28,149.68 287.68,149.68 304.75,149.7 "
   id="polygon947" />
				<polygon
   class="st6"
   points="303.04,146.85 299.56,145.32 298.17,141.5 293.96,137.76 293.14,135.05 294.82,132.76 297.67,132.82 297.82,128.33 294.14,128.31 292.97,125.3 256.79,125.24 256.3,134.36 256.28,149.68 287.67,149.68 304.75,149.7 "
   id="polygon949" />
				<polygon
   class="st8"
   points="297,269.72 296.95,256.25 261.3,256.19 261.36,269.66 260.61,269.66 260.41,292.31 295.99,292.36 296.17,269.71 "
   id="polygon951" />
				<polygon
   class="st6"
   points="297,269.72 296.95,256.24 261.3,256.19 261.36,269.66 260.61,269.66 260.41,292.31 295.99,292.36 296.17,269.71 "
   id="polygon953" />
				<polygon
   class="st8"
   points="295.99,292.36 260.41,292.31 260.41,314.57 259.9,323.48 295.15,323.51 295.82,314.61 "
   id="polygon955" />
				<polygon
   class="st6"
   points="295.99,292.36 260.41,292.31 260.41,314.57 259.9,323.48 295.15,323.51 295.82,314.61 "
   id="polygon957" />
				<polygon
   class="st3"
   points="559.58,317.53 581.93,317.76 582.24,280.62 573.73,280.51 573.59,291 552.4,290.98 546.68,295.23 542.26,295.13 541.61,336.75 559.35,337.12 "
   id="polygon959" />
				<polygon
   class="st4"
   points="559.58,317.53 581.93,317.76 582.24,280.62 573.73,280.5 573.59,291 552.4,290.98 546.68,295.22 542.26,295.13 541.61,336.75 559.35,337.12 "
   id="polygon961" />
				<polygon
   class="st3"
   points="555,266.14 572.6,266.66 572.94,223.91 565.63,223.72 562.81,225.98 554.48,228.03 548.49,234.91 543.24,237.62 541.88,239.56 543.27,244.92 540.46,248.37 534.6,249.28 530.36,248.34 534.7,255.01 532.92,256.93 528.4,258.21 528.2,266.28 542.99,266.69 "
   id="polygon963" />
				<polygon
   class="st4"
   points="555,266.14 572.6,266.66 572.94,223.91 565.63,223.72 562.81,225.98 554.48,228.02 548.49,234.91 543.24,237.61 541.88,239.56 543.27,244.92 540.46,248.37 534.6,249.28 530.36,248.34 534.7,255.01 532.92,256.93 528.4,258.21 528.2,266.28 542.99,266.69 "
   id="polygon965" />
				<polygon
   class="st3"
   points="493.59,252.04 504.07,252.35 512.15,220.26 510.99,217.35 513,212.37 508.57,210.79 505.47,206.3 503.81,201.33 494.3,224.84 494.25,226.36 476.3,225.95 476.13,234.95 "
   id="polygon967" />
				<polygon
   class="st4"
   points="493.59,252.04 504.07,252.35 512.15,220.26 510.99,217.35 513,212.36 508.57,210.79 505.47,206.3 503.81,201.33 494.29,224.83 494.25,226.36 476.3,225.95 476.13,234.94 "
   id="polygon969" />
				<polygon
   class="st5"
   points="492.29,278.65 495.25,278.74 495.88,284.88 498.06,286.41 498.02,289.4 500.97,290.92 502.39,293.94 529.03,294.55 529.35,279.72 528.03,279.69 528.3,261.83 523.81,263.15 521.04,261.63 511.06,261.24 511.46,252.6 493.59,252.04 492.9,260.56 488.39,260.5 487.9,273.49 492.39,274.41 "
   id="polygon971" />
				<polygon
   class="st4"
   points="492.29,278.65 495.25,278.74 495.88,284.88 498.06,286.4 498.02,289.4 500.97,290.92 502.39,293.94 529.03,294.55 529.35,279.72 528.03,279.69 528.3,261.83 523.81,263.15 521.04,261.63 511.06,261.24 511.46,252.6 493.59,252.04 492.9,260.56 488.39,260.5 487.9,273.48 492.39,274.41 "
   id="polygon973" />
				<polygon
   class="st5"
   points="552.4,290.98 573.59,291 573.73,280.51 572.58,280.49 572.6,266.66 555,266.14 542.99,266.69 528.2,266.28 528.03,279.69 529.35,279.72 529.03,294.55 546.68,295.23 "
   id="polygon975" />
				<polygon
   class="st4"
   points="552.4,290.98 573.59,291 573.73,280.5 572.58,280.49 572.6,266.66 555,266.14 542.99,266.69 528.2,266.28 528.03,279.69 529.35,279.72 529.03,294.55 546.68,295.22 "
   id="polygon977" />
				<polygon
   class="st3"
   points="607.54,346.98 599.22,346.65 599.36,337.74 612.04,338.22 612.19,327.11 599.51,326.83 599.7,317.94 559.58,317.53 559.35,337.12 563.72,337.12 563.71,354.87 572.44,355.02 607.47,355.77 "
   id="polygon979" />
				<polygon
   class="st4"
   points="607.54,346.98 599.22,346.65 599.36,337.74 612.04,338.22 612.19,327.1 599.51,326.83 599.7,317.94 559.58,317.53 559.35,337.12 563.72,337.12 563.71,354.87 572.44,355.01 607.47,355.77 "
   id="polygon981" />
				<polygon
   class="st3"
   points="599.51,326.83 612.19,327.11 612.74,322.67 616.48,322.76 616.97,296.22 616.82,275.32 594.92,275.33 594.93,274.75 581.41,274.61 581.48,280.6 582.24,280.62 581.93,317.76 599.7,317.94 "
   id="polygon983" />
				<polygon
   class="st4"
   points="599.51,326.83 612.19,327.1 612.74,322.67 616.48,322.75 616.97,296.22 616.82,275.32 594.92,275.33 594.93,274.75 581.41,274.61 581.48,280.6 582.24,280.62 581.93,317.76 599.7,317.94 "
   id="polygon985" />
				<polygon
   class="st5"
   points="532.92,256.93 534.7,255.01 530.36,248.34 534.6,249.28 540.46,248.37 543.27,244.92 541.88,239.56 543.24,237.62 539.34,238.92 533.76,238.17 527.61,234.11 526.18,230.16 515.34,226.55 516.27,223.76 512.15,220.26 504.07,252.35 511.46,252.6 511.06,261.24 521.04,261.63 523.81,263.15 528.3,261.83 528.4,258.21 "
   id="polygon987" />
				<polygon
   class="st4"
   points="532.92,256.93 534.7,255.01 530.36,248.34 534.6,249.28 540.46,248.37 543.27,244.92 541.88,239.56 543.24,237.61 539.34,238.92 533.76,238.17 527.61,234.11 526.18,230.16 515.34,226.55 516.27,223.76 512.15,220.26 504.07,252.35 511.46,252.6 511.06,261.24 521.04,261.63 523.81,263.15 528.3,261.83 528.4,258.21 "
   id="polygon989" />
				<polygon
   class="st3"
   points="554.48,228.03 562.81,225.98 565.63,223.72 572.39,223.95 573.46,187.13 533.42,186.55 532.86,194.76 530.37,203.89 532.04,205.59 532.83,212.13 526.9,222.21 526.18,230.16 527.61,234.11 533.76,238.17 539.34,238.92 543.24,237.62 548.49,234.91 "
   id="polygon991" />
				<polygon
   class="st4"
   points="554.48,228.02 562.81,225.98 565.63,223.72 572.39,223.95 573.46,187.13 533.42,186.55 532.86,194.76 530.37,203.89 532.04,205.59 532.83,212.13 526.9,222.21 526.18,230.16 527.61,234.11 533.76,238.17 539.34,238.92 543.24,237.61 548.49,234.91 "
   id="polygon993" />
				<polygon
   class="st5"
   points="508.87,210.8 513.29,212.37 511.29,217.35 512.45,220.27 516.57,223.77 515.64,226.56 526.48,230.17 527.2,222.22 533.13,212.13 532.34,205.59 530.66,203.9 533.15,194.77 533.72,186.56 535.38,186.61 535.85,168.36 509.6,167.43 498.98,192.94 499.31,196.27 504.11,201.34 505.77,206.31 "
   id="polygon995" />
				<polygon
   class="st4"
   points="508.57,210.79 513,212.36 510.99,217.35 512.15,220.26 516.27,223.76 515.34,226.55 526.18,230.16 526.9,222.21 532.83,212.13 532.04,205.59 530.37,203.89 532.86,194.76 533.42,186.55 535.08,186.6 535.55,168.36 509.31,167.42 498.69,192.93 499.02,196.27 503.81,201.33 505.47,206.3 "
   id="polygon997" />
				<polygon
   class="st6"
   points="494.25,226.36 494.29,224.83 503.81,201.33 499.02,196.27 495.59,196.59 484.85,194.99 480.72,196.21 474.89,194.86 473.06,190.84 470.28,191.06 468.66,186.57 459.49,196.12 458.56,225.01 476.3,225.95 "
   id="polygon999" />
				<polygon
   class="st7"
   points="473.06,190.85 474.89,194.86 480.72,196.22 484.85,194.99 495.59,196.59 499.02,196.27 498.69,192.93 509.31,167.42 480.28,157.55 474.65,172.38 467.79,180.6 470.73,183.35 468.67,186.57 470.28,191.06 "
   id="polygon1001" />
				<polygon
   class="st7"
   points="494.25,226.36 494.3,224.84 503.81,201.33 499.02,196.27 495.59,196.59 484.85,194.99 480.72,196.22 474.89,194.86 473.06,190.85 470.28,191.06 468.67,186.57 459.49,196.12 458.56,225.01 476.3,225.95 "
   id="polygon1003" />
				<polygon
   class="st7"
   points="524.05,372.02 523.71,391.75 571.72,392.85 572.44,355.02 563.71,354.87 563.72,337.12 523.87,336.55 523.64,349.92 523.58,372.03 "
   id="polygon1005" />
				<polygon
   class="st7"
   points="542.26,295.13 511.23,294.05 510.63,325.42 523.91,332.08 523.87,336.55 541.61,336.75 "
   id="polygon1007" />
				<polygon
   class="st8"
   points="492.9,260.56 493.59,252.04 476.13,234.95 476.3,225.95 458.56,225.01 457.13,269.52 459.65,268.52 464.54,274.62 461.6,275.88 464.19,277.02 466.64,272.54 468.66,274.6 466.38,276.03 482.34,276.82 484.43,273.54 487.9,273.49 488.39,260.5 "
   id="polygon1009" />
				<polygon
   class="st7"
   points="494,307.2 495.62,312.53 499.74,316.59 503.56,313.81 507.51,314.16 511,310.6 511.23,294.05 502.39,293.94 500.97,290.92 498.02,289.4 498.06,286.41 495.88,284.88 495.25,278.74 492.29,278.65 492.39,274.41 487.9,273.49 484.43,273.54 482.34,276.82 466.38,276.03 468.66,274.6 466.64,272.54 464.19,277.02 461.6,275.88 464.54,274.62 459.65,268.52 457.13,269.52 456.77,277.13 458.63,277.21 458.14,289.82 457.56,306.17 "
   id="polygon1011" />
			</g>
		</g>
	</g><path
   class="st9"
   d="m 627.4,96 1.22,-1.43 c 0.82,0.81 1.91,1.29 3.06,1.34 1.33,0 2.05,-0.6 2.05,-1.51 0,-0.91 -0.75,-1.28 -1.82,-1.73 L 630.29,92 c -1.38,-0.43 -2.33,-1.69 -2.37,-3.13 0,-1.87 1.65,-3.31 4,-3.31 1.33,0 2.62,0.52 3.58,1.44 l -1.06,1.34 c -0.7,-0.64 -1.61,-1 -2.56,-1 -1.12,0 -1.86,0.52 -1.86,1.38 0,0.86 0.9,1.26 1.88,1.66 l 1.6,0.67 c 1.42,0.4 2.39,1.71 2.38,3.18 0,1.91 -1.59,3.5 -4.24,3.5 -1.59,0 -3.11,-0.62 -4.24,-1.73 z"
   id="path1019" /><path
   class="st9"
   d="m 637.67,94.53 v -4.21 h -1.26 v -1.55 l 1.37,-0.09 0.25,-2.41 h 1.73 v 2.41 H 642 v 1.64 h -2.25 v 4.21 c 0,1 0.4,1.55 1.24,1.55 0.32,-0.01 0.63,-0.08 0.92,-0.2 l 0.36,1.53 c -0.58,0.21 -1.19,0.32 -1.8,0.33 -2.04,0 -2.8,-1.3 -2.8,-3.21 z"
   id="path1021" /><path
   class="st9"
   d="m 643.63,96.33 c -0.03,-0.75 0.55,-1.37 1.3,-1.4 0.02,0 0.03,0 0.05,0 0.78,0.07 1.35,0.75 1.29,1.52 -0.06,0.69 -0.6,1.23 -1.29,1.29 -0.75,-0.01 -1.36,-0.62 -1.35,-1.37 0,-0.01 0,-0.03 0,-0.04 z"
   id="path1023" /><path
   class="st9"
   d="m 652.54,85.74 h 2.09 v 10 h 4.9 v 1.76 h -7 z"
   id="path1025" /><path
   class="st9"
   d="m 660.59,93.11 c 0,-3 2,-4.65 4.19,-4.65 2.19,0 4.22,1.7 4.22,4.65 0.19,2.36 -1.56,4.42 -3.92,4.62 -0.1,0.01 -0.2,0.01 -0.3,0.01 -2.19,0 -4.19,-1.74 -4.19,-4.63 z m 6.28,0 c 0,-1.78 -0.79,-3 -2.09,-3 -1.3,0 -2.07,1.17 -2.07,3 0,1.83 0.78,2.93 2.07,2.93 1.29,0 2.09,-1.17 2.09,-2.93 z"
   id="path1027" /><path
   class="st9"
   d="m 671,94.22 v -5.54 h 2 V 94 c 0,1.46 0.41,2 1.36,2 0.78,0 1.3,-0.36 2,-1.22 v -6 h 2.07 v 8.84 h -1.69 l -0.17,-1.3 h -0.05 c -0.66,0.93 -1.71,1.49 -2.85,1.52 -1.89,-0.1 -2.67,-1.38 -2.67,-3.62 z"
   id="path1029" /><path
   class="st9"
   d="m 680.82,86 c -0.07,-0.71 0.46,-1.34 1.16,-1.4 0.71,-0.07 1.34,0.46 1.4,1.16 0.07,0.71 -0.46,1.34 -1.16,1.4 -0.04,0 -0.08,0.01 -0.12,0.01 -0.66,0.05 -1.23,-0.44 -1.28,-1.1 0,-0.02 0,-0.05 0,-0.07 z m 0.23,2.72 h 2.07 v 8.84 h -2.07 z"
   id="path1031" /><path
   class="st9"
   d="m 684.89,96.51 1,-1.33 c 0.68,0.61 1.54,0.96 2.45,1 1,0 1.4,-0.45 1.4,-1.06 0,-0.61 -1,-1.07 -1.89,-1.43 -1.17,-0.43 -2.48,-1.09 -2.48,-2.57 0,-1.48 1.24,-2.65 3.22,-2.65 1.07,0.02 2.11,0.39 2.94,1.07 l -1,1.26 c -0.54,-0.47 -1.22,-0.75 -1.93,-0.8 -0.89,0 -1.3,0.41 -1.3,1 0,0.59 0.88,1 1.84,1.32 1.2,0.45 2.53,1 2.53,2.68 0,1.68 -1.2,2.74 -3.43,2.74 -1.22,-0.03 -2.4,-0.47 -3.35,-1.23 z"
   id="path1033" /><path
   class="st9"
   d="m 633,107.34 h 3.15 c 3.61,0 5.73,2 5.73,5.84 0,3.84 -2.12,5.94 -5.62,5.94 H 633 Z m 3,10.09 c 2.38,0 3.73,-1.35 3.73,-4.25 0,-2.9 -1.35,-4.18 -3.73,-4.18 h -0.92 v 8.39 z"
   id="path1035" /><path
   class="st9"
   d="m 643.83,107.56 c -0.07,-0.71 0.46,-1.34 1.16,-1.4 0.71,-0.07 1.34,0.46 1.4,1.16 0.07,0.71 -0.46,1.34 -1.16,1.4 -0.04,0 -0.08,0.01 -0.12,0.01 -0.66,0.05 -1.23,-0.44 -1.28,-1.1 0,-0.02 0,-0.05 0,-0.07 z m 0.23,2.72 h 2.07 v 8.84 h -2.07 z"
   id="path1037" /><path
   class="st9"
   d="m 647.9,118.11 1,-1.33 c 0.68,0.61 1.54,0.96 2.45,1 0.95,0 1.4,-0.45 1.4,-1.06 0,-0.61 -1,-1.06 -1.89,-1.43 -1.17,-0.43 -2.48,-1.09 -2.48,-2.57 0,-1.48 1.24,-2.65 3.22,-2.65 1.07,0.02 2.1,0.39 2.93,1.07 l -1,1.26 c -0.55,-0.46 -1.23,-0.72 -1.94,-0.76 -0.89,0 -1.3,0.41 -1.3,1 0,0.59 0.88,1 1.84,1.32 1.2,0.45 2.53,1 2.53,2.68 0,1.68 -1.2,2.74 -3.43,2.74 -1.22,-0.05 -2.39,-0.5 -3.33,-1.27 z"
   id="path1039" /><path
   class="st9"
   d="m 656.48,116.13 v -4.21 h -1.26 v -1.55 l 1.37,-0.09 0.25,-2.41 h 1.73 v 2.41 h 2.25 v 1.64 h -2.25 v 4.21 c 0,1.05 0.4,1.55 1.24,1.55 0.32,-0.01 0.63,-0.08 0.92,-0.2 l 0.36,1.53 c -0.58,0.21 -1.19,0.32 -1.8,0.33 -2.05,0 -2.81,-1.34 -2.81,-3.21 z"
   id="path1041" /><path
   class="st9"
   d="m 662.68,110.28 h 1.71 l 0.14,1.57 h 0.07 c 0.44,-1.01 1.41,-1.7 2.51,-1.79 0.34,-0.02 0.68,0.05 1,0.18 l -0.36,1.8 c -0.3,-0.1 -0.61,-0.14 -0.92,-0.14 -0.7,0 -1.54,0.49 -2.08,1.82 v 5.4 h -2.07 z"
   id="path1043" /><path
   class="st9"
   d="m 669.16,107.56 c -0.06,-0.7 0.46,-1.32 1.17,-1.39 0.7,-0.06 1.32,0.46 1.39,1.17 0.06,0.7 -0.46,1.32 -1.17,1.39 -0.04,0 -0.08,0 -0.12,0 -0.66,0.04 -1.22,-0.45 -1.27,-1.11 0,-0.02 0,-0.04 0,-0.06 z m 0.23,2.72 h 2.07 v 8.84 h -2.07 z"
   id="path1045" /><path
   class="st9"
   d="m 673.53,114.71 c -0.15,-2.41 1.67,-4.49 4.08,-4.64 0.12,-0.01 0.23,-0.01 0.35,-0.01 0.96,-0.01 1.88,0.35 2.59,1 l -1,1.35 c -0.39,-0.39 -0.92,-0.62 -1.47,-0.64 -1.43,0 -2.42,1.17 -2.42,2.95 0,1.78 1,2.93 2.36,2.93 0.67,-0.04 1.31,-0.3 1.82,-0.75 l 0.85,1.37 c -0.8,0.69 -1.82,1.08 -2.88,1.08 -2.43,-0.01 -4.28,-1.71 -4.28,-4.64 z"
   id="path1047" /><path
   class="st9"
   d="m 682.55,116.13 v -4.21 h -1.26 v -1.55 l 1.37,-0.09 0.25,-2.41 h 1.73 v 2.41 h 2.25 v 1.64 h -2.25 v 4.21 c 0,1.05 0.39,1.55 1.24,1.55 0.32,-0.01 0.63,-0.08 0.92,-0.2 l 0.36,1.53 c -0.58,0.21 -1.19,0.32 -1.8,0.33 -2.06,0 -2.81,-1.34 -2.81,-3.21 z"
   id="path1049" /><path
   id="line1051"
   class="st10"
   style="fill:none;stroke:#0675af;stroke-width:4;stroke-linejoin:bevel"
   d="M 334.37,288.10999 333.01999,397.97" /><path
   id="polyline1053"
   class="st10"
   style="fill:none;stroke:#0675af;stroke-width:4;stroke-linejoin:bevel"
   d="m 476.3,225.95 -17.74,-0.94 -0.59,16.81 -17.98,-0.55 -0.11,3 -17.79,-0.64 -0.88,31.35 -42.41,-0.68 -0.67,18.19 -1.92,0.5 -4.28,-2.72 -7.99,2.72 -0.5,-1.97 -30.1,-0.95" /><path
   id="circle1055"
   class="st11"
   style="fill:none;stroke:#ffffff;stroke-width:3;stroke-miterlimit:10"
   d="m 365.26001,183.98 a 29.280001,29.280001 0 0 1 -29.28,29.28 29.280001,29.280001 0 0 1 -29.28,-29.28 29.280001,29.280001 0 0 1 29.28,-29.28 29.280001,29.280001 0 0 1 29.28,29.28 z" /><path
   id="circle1057"
   class="st12"
   style="fill:#ffffff"
   d="m 345.00001,183.98 a 9.0200005,9.0200005 0 0 1 -9.02,9.02 9.0200005,9.0200005 0 0 1 -9.02,-9.02 9.0200005,9.0200005 0 0 1 9.02,-9.02 9.0200005,9.0200005 0 0 1 9.02,9.02 z" /><path
   id="circle1059"
   class="st12"
   style="fill:#ffffff"
   d="m 439.78001,368.54999 a 9.0200005,9.0200005 0 0 1 -9.02,9.02 9.0200005,9.0200005 0 0 1 -9.02,-9.02 9.0200005,9.0200005 0 0 1 9.02,-9.02 9.0200005,9.0200005 0 0 1 9.02,9.02 z" /><g
   aria-label="MI"
   transform="rotate(90)"
   id="text1061"
   class="st12 st13 st14"
   style="font-size:18px;font-family:SourceSansPro-Semibold;fill:#ffffff"><path
     d="m 322.8421,-345 h -1.74023 v -11.27637 l -3.63867,7.67285 h -1.03711 l -3.61231,-7.67285 V -345 h -1.62597 v -13.08691 h 2.37304 l 3.48926,7.28613 3.375,-7.28613 h 2.41699 z"
     id="path3401" /><path
     d="m 330.97198,-345 h -5.16796 v -1.33594 h 1.71386 v -10.41504 h -1.71386 v -1.33593 h 5.16796 v 1.33593 h -1.71386 v 10.41504 h 1.71386 z"
     id="path3403" /></g><g
   aria-label="S"
   transform="rotate(90)"
   id="text1063"
   class="st12 st13 st14"
   style="font-size:18px;font-family:SourceSansPro-Semibold;fill:#ffffff"><path
     d="m 339.18759,-348.73535 q 0,0.76465 -0.36035,1.51172 -0.35156,0.74707 -0.99316,1.26562 -0.70313,0.5625 -1.64356,0.87891 -0.93164,0.3164 -2.25,0.3164 -1.41504,0 -2.54883,-0.26367 -1.125,-0.26367 -2.29394,-0.78222 v -2.17969 h 0.12304 q 0.99317,0.82617 2.29395,1.27441 1.30078,0.44825 2.44336,0.44825 1.61719,0 2.51367,-0.60645 0.90527,-0.60645 0.90527,-1.61719 0,-0.87011 -0.43066,-1.2832 -0.42187,-0.41309 -1.29199,-0.6416 -0.65918,-0.17578 -1.43262,-0.29004 -0.76465,-0.11426 -1.62598,-0.29004 -1.74023,-0.36914 -2.58398,-1.25684 -0.83496,-0.89648 -0.83496,-2.3291 0,-1.64355 1.38867,-2.68945 1.38867,-1.05469 3.52442,-1.05469 1.37988,0 2.53125,0.26367 1.15136,0.26368 2.03906,0.65039 v 2.05664 h -0.12305 q -0.74707,-0.63281 -1.96875,-1.04589 -1.21289,-0.42188 -2.4873,-0.42188 -1.39746,0 -2.25,0.58008 -0.84375,0.58008 -0.84375,1.49414 0,0.81738 0.42187,1.2832 0.42188,0.46582 1.48535,0.71192 0.5625,0.12304 1.59961,0.29883 1.03711,0.17578 1.75781,0.36035 1.45899,0.38672 2.19727,1.16894 0.73828,0.78223 0.73828,2.18848 z"
     id="path3406" /></g><path
   d="m 348.73535,348.70758 q -0.76465,0 -1.51172,-0.36035 -0.74707,-0.35156 -1.26562,-0.99317 -0.5625,-0.70312 -0.87891,-1.64355 -0.3164,-0.93164 -0.3164,-2.25 0,-1.41504 0.26367,-2.54883 0.26367,-1.125 0.78222,-2.29394 h 2.17969 v 0.12304 q -0.82617,0.99317 -1.27441,2.29395 -0.44825,1.30078 -0.44825,2.44336 0,1.61719 0.60645,2.51367 0.60645,0.90527 1.61719,0.90527 0.87011,0 1.2832,-0.43066 0.41309,-0.42188 0.6416,-1.29199 0.17578,-0.65918 0.29004,-1.43262 0.11426,-0.76465 0.29004,-1.62598 0.36914,-1.74023 1.25684,-2.58398 0.89648,-0.83496 2.3291,-0.83496 1.64355,0 2.68945,1.38867 1.05469,1.38867 1.05469,3.52441 0,1.37989 -0.26367,2.53125 -0.26368,1.15137 -0.65039,2.03907 h -2.05664 v -0.12305 q 0.63281,-0.74707 1.04589,-1.96875 0.42188,-1.21289 0.42188,-2.4873 0,-1.39747 -0.58008,-2.25 -0.58008,-0.84375 -1.49414,-0.84375 -0.81738,0 -1.2832,0.42187 -0.46582,0.42188 -0.71192,1.48535 -0.12304,0.5625 -0.29883,1.59961 -0.17578,1.03711 -0.36035,1.75781 -0.38672,1.45899 -1.16894,2.19727 -0.78223,0.73828 -2.18848,0.73828 z"
   id="path3409"
   style="font-size:18px;font-family:SourceSansPro-Semibold;fill:#ffffff" /><path
   d="m 356.58398,361.25836 q -0.8789,0.79981 -2.15332,1.22168 -1.27441,0.43067 -2.8916,0.43067 -1.61719,0 -2.90039,-0.43946 -1.27441,-0.43066 -2.12695,-1.21289 -0.8877,-0.80859 -1.33594,-1.91601 -0.44824,-1.09864 -0.44824,-2.51368 0,-1.37988 0.45703,-2.51367 0.45703,-1.125 1.32715,-1.91601 0.87012,-0.79102 2.13574,-1.22168 1.26563,-0.42188 2.8916,-0.42188 1.59961,0 2.86524,0.42188 1.27441,0.42187 2.17968,1.23047 0.86133,0.77343 1.31836,1.91601 0.45703,1.15137 0.45703,2.50488 0,1.40625 -0.46582,2.52247 -0.45703,1.125 -1.30957,1.90722 z m -5.04492,-0.1582 q 2.54883,0 3.92871,-1.14258 1.38868,-1.14258 1.38868,-3.12012 0,-1.99511 -1.38868,-3.13769 -1.37988,-1.13379 -3.92871,-1.13379 -2.57519,0 -3.94629,1.16016 -1.3623,1.16015 -1.3623,3.11132 0,1.95118 1.3623,3.10254 1.3711,1.16016 3.94629,1.16016 z"
   id="path3411"
   style="font-size:18px;font-family:SourceSansPro-Semibold;fill:#ffffff" /><path
   d="m 350.25586,375.52301 q -1.42383,0 -2.48731,-0.31641 -1.05468,-0.30761 -1.75781,-1.01953 -0.66797,-0.67676 -0.97558,-1.58203 -0.30762,-0.90527 -0.30762,-2.10937 0,-1.23047 0.32519,-2.14453 0.3252,-0.91407 0.95801,-1.53809 0.72071,-0.71191 1.74024,-1.02832 1.01953,-0.30762 2.50488,-0.30762 h 7.83105 v 1.74024 h -7.91894 q -1.06348,0 -1.67871,0.14062 -0.61524,0.14942 -1.11621,0.49219 -0.57129,0.38672 -0.86133,1.0459 -0.29004,0.66797 -0.29004,1.59961 0,0.94043 0.28125,1.59961 0.29004,0.65918 0.87012,1.05468 0.50097,0.34278 1.14257,0.4834 0.6504,0.14942 1.6084,0.14942 h 7.96289 v 1.74023 z"
   id="path3413"
   style="font-size:18px;font-family:SourceSansPro-Semibold;fill:#ffffff" /><path
   d="m 345,389.6734 v -2.25879 l 5.20312,-4.37695 v -2.45215 H 345 v -1.74023 h 13.08691 v 3.66503 q 0,1.18653 -0.1582,1.97754 -0.14941,0.79102 -0.54492,1.42383 -0.44824,0.71192 -1.13379,1.10742 -0.67676,0.4043 -1.72266,0.4043 -1.41504,0 -2.37304,-0.71191 -0.94922,-0.71192 -1.43262,-1.95996 z m 9.4043,-4.06934 q 0.5625,0 0.99316,-0.20214 0.43945,-0.19336 0.73828,-0.65039 0.25488,-0.37793 0.35156,-0.89649 0.10547,-0.51855 0.10547,-1.22168 v -2.04785 h -4.93945 v 1.75781 q 0,0.82617 0.14063,1.44141 0.14941,0.61523 0.54492,1.0459 0.36914,0.39551 0.84375,0.58008 0.4834,0.19335 1.22168,0.19335 z"
   id="path3415"
   style="font-size:18px;font-family:SourceSansPro-Semibold;fill:#ffffff" /><path
   d="m 345,395.97516 v -5.16797 h 1.33594 v 1.71387 h 10.41504 v -1.71387 h 1.33593 v 5.16797 h -1.33593 v -1.71387 h -10.41504 v 1.71387 z"
   id="path3417"
   style="font-size:18px;font-family:SourceSansPro-Semibold;fill:#ffffff" /><g
   aria-label="K"
   transform="rotate(90)"
   id="text1067"
   class="st12 st13 st14"
   style="font-size:18px;font-family:SourceSansPro-Semibold;fill:#ffffff"><path
     d="m 326.75833,-312.44919 h -2.25879 l -5.17676,-5.82715 -1.30078,1.38868 v 4.43847 h -1.74023 v -13.08691 h 1.74023 v 6.8291 l 6.3545,-6.8291 h 2.10937 l -5.84473,6.15234 z"
     id="path3420" /></g><path
   d="m 312.44919,337.12616 v -1.85449 l 3.64746,-1.28321 v -5.66015 l -3.64746,-1.28321 v -1.7666 l 13.08691,4.76368 v 2.32031 z m 5.1416,-3.67383 6.4248,-2.29394 -6.4248,-2.30274 z"
   id="path3423"
   style="font-size:18px;font-family:SourceSansPro-Semibold;fill:#ffffff" /><path
   d="m 312.44919,349.09686 v -2.15332 l 11.70703,-6.20508 h -11.70703 v -1.62597 h 13.08691 v 2.69824 l -10.6875,5.66016 h 10.6875 v 1.62597 z"
   id="path3425"
   style="font-size:18px;font-family:SourceSansPro-Semibold;fill:#ffffff" /><path
   d="m 316.18454,362.0871 q -0.76465,0 -1.51172,-0.36035 -0.74707,-0.35157 -1.26562,-0.99317 -0.5625,-0.70312 -0.87891,-1.64355 -0.31641,-0.93164 -0.31641,-2.25 0,-1.41504 0.26368,-2.54883 0.26367,-1.125 0.78222,-2.29395 h 2.17969 v 0.12305 q -0.82617,0.99316 -1.27441,2.29395 -0.44825,1.30078 -0.44825,2.44335 0,1.61719 0.60645,2.51368 0.60644,0.90527 1.61719,0.90527 0.87011,0 1.2832,-0.43066 0.41309,-0.42188 0.6416,-1.292 0.17578,-0.65918 0.29004,-1.43261 0.11426,-0.76465 0.29004,-1.62598 0.36914,-1.74023 1.25683,-2.58398 0.89649,-0.83497 2.32911,-0.83497 1.64355,0 2.68945,1.38868 1.05469,1.38867 1.05469,3.52441 0,1.37988 -0.26367,2.53125 -0.26368,1.15137 -0.6504,2.03906 h -2.05664 v -0.12304 q 0.63282,-0.74707 1.0459,-1.96875 0.42188,-1.21289 0.42188,-2.48731 0,-1.39746 -0.58008,-2.25 -0.58008,-0.84375 -1.49414,-0.84375 -0.81738,0 -1.2832,0.42188 -0.46582,0.42187 -0.71192,1.48535 -0.12305,0.5625 -0.29883,1.59961 -0.17578,1.03711 -0.36035,1.75781 -0.38672,1.45898 -1.16894,2.19727 -0.78223,0.73828 -2.18848,0.73828 z"
   id="path3427"
   style="font-size:18px;font-family:SourceSansPro-Semibold;fill:#ffffff" /><path
   d="m 312.44919,375.0246 v -1.8545 l 3.64746,-1.2832 v -5.66015 l -3.64746,-1.28321 v -1.7666 l 13.08691,4.76367 v 2.32032 z m 5.1416,-3.67383 6.4248,-2.29395 -6.4248,-2.30273 z"
   id="path3429"
   style="font-size:18px;font-family:SourceSansPro-Semibold;fill:#ffffff" /><path
   d="m 316.18454,386.4328 q -0.76465,0 -1.51172,-0.36035 -0.74707,-0.35156 -1.26562,-0.99317 -0.5625,-0.70312 -0.87891,-1.64355 -0.31641,-0.93164 -0.31641,-2.25 0,-1.41504 0.26368,-2.54883 0.26367,-1.125 0.78222,-2.29394 h 2.17969 v 0.12304 q -0.82617,0.99317 -1.27441,2.29395 -0.44825,1.30078 -0.44825,2.44336 0,1.61719 0.60645,2.51367 0.60644,0.90527 1.61719,0.90527 0.87011,0 1.2832,-0.43066 0.41309,-0.42188 0.6416,-1.29199 0.17578,-0.65918 0.29004,-1.43262 0.11426,-0.76465 0.29004,-1.62598 0.36914,-1.74023 1.25683,-2.58398 0.89649,-0.83496 2.32911,-0.83496 1.64355,0 2.68945,1.38867 1.05469,1.38867 1.05469,3.52441 0,1.37989 -0.26367,2.53125 -0.26368,1.15137 -0.6504,2.03907 h -2.05664 v -0.12305 q 0.63282,-0.74707 1.0459,-1.96875 0.42188,-1.21289 0.42188,-2.48731 0,-1.39746 -0.58008,-2.25 -0.58008,-0.84375 -1.49414,-0.84375 -0.81738,0 -1.2832,0.42188 -0.46582,0.42187 -0.71192,1.48535 -0.12305,0.5625 -0.29883,1.59961 -0.17578,1.03711 -0.36035,1.75781 -0.38672,1.45899 -1.16894,2.19727 -0.78223,0.73828 -2.18848,0.73828 z"
   id="path3431"
   style="font-size:18px;font-family:SourceSansPro-Semibold;fill:#ffffff" /><path
   id="polyline1071"
   class="st15"
   style="fill:none;stroke:#ffffff;stroke-linejoin:bevel"
   d="m 333.02,397.97 0.03,-34.41 v -33.99 l 0.29,-39.5 0.08,-33.7 0.02,-9.15 0.31,-26.86 0.08,-11.27 0.05,-20.4 v -7.19 l 0.46,-4.81 -3.94,0.57 -3.08,-3.02 -5.15,1.01 -1.77,-2.64 -4.59,-1.77 0.34,-3.53 -5.72,-5.06 -0.95,-5.5 2.51,-2.54 -0.8,-1.75 -4.27,0.31 -3.88,-5.92 -3.48,-1.53 -1.39,-3.82 -4.21,-3.74 -0.82,-2.71 1.68,-2.29 2.85,0.06 0.15,-4.49 3.21,-5.31 3.58,-1.35 0.02,-4.71 1.85,-1.38 3.75,2.22 2.68,-1.25 0.05,-3.74 -3.64,1.3 -1.08,-3.2 2.83,-0.16 1.13,-3.07 -5.1,-3.28 0.96,-3.59 -5.28,-1.24 -3.58,3.4 -3.8,0.38 -4.41,-1.96 -0.51,-2.48 -3.85,0.37 -0.85,-4.02 -3.7,-1.02 -4.67,-5.4" /><g
   id="g1109">
		<path
   class="st16"
   d="m 14.7,217.25 h 4.64 v 11.88 h 0.12 l 9.32,-11.88 h 5.16 l -8.04,10.2 9.4,15.96 h -5.12 l -7.08,-12.32 -3.76,4.68 v 7.64 H 14.7 Z"
   id="path1073" />
		<path
   class="st16"
   d="m 37.14,238.13 c 0,-4.2 3.48,-6.4 11.56,-7.28 -0.08,-2.08 -0.92,-3.84 -3.6,-3.84 -1.92,0 -3.76,0.88 -5.52,1.92 l -1.68,-3.08 c 2.16,-1.36 4.96,-2.56 8.08,-2.56 4.88,0 7.32,3 7.32,8.48 v 11.64 h -3.8 l -0.32,-2.16 h -0.16 c -1.76,1.48 -3.76,2.64 -6.08,2.64 -3.44,-0.01 -5.8,-2.33 -5.8,-5.76 z m 11.56,0 v -4.4 c -5.36,0.68 -7.12,2.08 -7.12,4.04 0,1.76 1.2,2.52 2.84,2.52 1.6,0 2.8,-0.8 4.28,-2.16 z"
   id="path1075" />
		<path
   class="st16"
   d="m 58.82,223.77 h 3.8 l 0.32,2.64 h 0.16 c 1.76,-1.72 3.76,-3.12 6.44,-3.12 4.2,0 6.04,2.84 6.04,7.8 v 12.32 h -4.6 v -11.72 c 0,-3.24 -0.92,-4.44 -3.08,-4.44 -1.72,0 -2.84,0.84 -4.48,2.44 v 13.72 h -4.6 z"
   id="path1077" />
		<path
   class="st16"
   d="m 79.26,241.17 2.16,-2.96 c 1.76,1.36 3.44,2.2 5.44,2.2 2.12,0 3.12,-1 3.12,-2.36 0,-1.64 -2.12,-2.36 -4.2,-3.16 -2.6,-0.96 -5.52,-2.44 -5.52,-5.72 0,-3.44 2.76,-5.88 7.16,-5.88 2.72,0 4.92,1.12 6.52,2.36 l -2.12,2.8 c -1.36,-1 -2.76,-1.68 -4.32,-1.68 -1.96,0 -2.88,0.92 -2.88,2.16 0,1.56 1.96,2.16 4.08,2.92 2.68,1 5.64,2.28 5.64,5.96 0,3.36 -2.68,6.08 -7.64,6.08 -2.68,-0.01 -5.52,-1.16 -7.44,-2.72 z"
   id="path1079" />
		<path
   class="st16"
   d="m 97.42,238.13 c 0,-4.2 3.48,-6.4 11.56,-7.28 -0.08,-2.08 -0.92,-3.84 -3.6,-3.84 -1.92,0 -3.76,0.88 -5.52,1.92 l -1.68,-3.08 c 2.16,-1.36 4.96,-2.56 8.08,-2.56 4.88,0 7.32,3 7.32,8.48 v 11.64 h -3.8 l -0.32,-2.16 h -0.16 c -1.76,1.48 -3.76,2.64 -6.08,2.64 -3.44,-0.01 -5.8,-2.33 -5.8,-5.76 z m 11.56,0 v -4.4 c -5.36,0.68 -7.12,2.08 -7.12,4.04 0,1.76 1.2,2.52 2.84,2.52 1.6,0 2.8,-0.8 4.28,-2.16 z"
   id="path1081" />
		<path
   class="st16"
   d="m 117.14,241.17 2.16,-2.96 c 1.76,1.36 3.44,2.2 5.44,2.2 2.12,0 3.12,-1 3.12,-2.36 0,-1.64 -2.12,-2.36 -4.2,-3.16 -2.6,-0.96 -5.52,-2.44 -5.52,-5.72 0,-3.44 2.76,-5.88 7.16,-5.88 2.72,0 4.92,1.12 6.52,2.36 l -2.12,2.8 c -1.36,-1 -2.76,-1.68 -4.32,-1.68 -1.96,0 -2.88,0.92 -2.88,2.16 0,1.56 1.96,2.16 4.08,2.92 2.68,1 5.64,2.28 5.64,5.96 0,3.36 -2.68,6.08 -7.64,6.08 -2.68,-0.01 -5.52,-1.16 -7.44,-2.72 z"
   id="path1083" />
		<path
   class="st16"
   d="m 143.38,230.41 c 0,-8.56 5.36,-13.64 11.96,-13.64 3.28,0 5.92,1.56 7.56,3.32 l -2.48,3 c -1.36,-1.36 -2.92,-2.28 -4.96,-2.28 -4.28,0 -7.32,3.6 -7.32,9.48 0,5.96 2.8,9.56 7.2,9.56 2.32,0 4.12,-1.08 5.6,-2.68 l 2.48,2.92 c -2.12,2.44 -4.88,3.8 -8.24,3.8 -6.6,-0.01 -11.8,-4.8 -11.8,-13.48 z"
   id="path1085" />
		<path
   class="st16"
   d="m 166.86,217.73 c 0,-1.56 1.2,-2.64 2.84,-2.64 1.64,0 2.84,1.08 2.84,2.64 0,1.52 -1.2,2.6 -2.84,2.6 -1.64,0 -2.84,-1.08 -2.84,-2.6 z m 0.52,6.04 h 4.6 v 19.64 h -4.6 z"
   id="path1087" />
		<path
   class="st16"
   d="m 178.54,236.77 v -9.36 h -2.8 v -3.44 l 3.04,-0.2 0.56,-5.36 h 3.84 v 5.36 h 5 v 3.64 h -5 v 9.36 c 0,2.32 0.88,3.44 2.76,3.44 0.68,0 1.48,-0.2 2.04,-0.44 l 0.8,3.4 c -1.08,0.36 -2.44,0.72 -4,0.72 -4.56,-0.01 -6.24,-2.88 -6.24,-7.12 z"
   id="path1089" />
		<path
   class="st16"
   d="m 191.06,251.08 0.84,-3.6 c 0.36,0.12 0.92,0.28 1.4,0.28 2.08,0 3.28,-1.4 3.92,-3.36 l 0.36,-1.24 -7.72,-19.4 h 4.68 l 3.4,9.64 c 0.56,1.72 1.12,3.68 1.72,5.52 h 0.16 c 0.48,-1.8 1,-3.76 1.48,-5.52 l 2.96,-9.64 h 4.44 l -7.12,20.52 c -1.64,4.44 -3.68,7.2 -7.96,7.2 -1.08,0 -1.84,-0.16 -2.56,-0.4 z"
   id="path1091" />
		<path
   class="st16"
   d="m 74.99,256.51 h 4.2 c 4.8,0 7.63,2.59 7.63,7.78 0,5.21 -2.83,7.92 -7.49,7.92 H 74.99 Z M 79,269.95 c 3.17,0 4.97,-1.8 4.97,-5.66 0,-3.84 -1.8,-5.52 -4.97,-5.52 h -1.22 v 11.18 z"
   id="path1093" />
		<path
   class="st16"
   d="m 89.44,256.8 c 0,-0.94 0.72,-1.58 1.7,-1.58 0.98,0 1.7,0.65 1.7,1.58 0,0.91 -0.72,1.56 -1.7,1.56 -0.98,0 -1.7,-0.65 -1.7,-1.56 z m 0.31,3.62 h 2.76 v 11.79 h -2.76 z"
   id="path1095" />
		<path
   class="st16"
   d="m 94.86,270.86 1.3,-1.78 c 1.06,0.82 2.06,1.32 3.26,1.32 1.27,0 1.87,-0.6 1.87,-1.42 0,-0.98 -1.27,-1.42 -2.52,-1.9 -1.56,-0.58 -3.31,-1.46 -3.31,-3.43 0,-2.06 1.66,-3.53 4.3,-3.53 1.63,0 2.95,0.67 3.91,1.42 l -1.27,1.68 c -0.82,-0.6 -1.66,-1.01 -2.59,-1.01 -1.18,0 -1.73,0.55 -1.73,1.3 0,0.94 1.18,1.3 2.45,1.75 1.61,0.6 3.38,1.37 3.38,3.58 0,2.02 -1.61,3.65 -4.58,3.65 -1.61,0 -3.32,-0.69 -4.47,-1.63 z"
   id="path1097" />
		<path
   class="st16"
   d="m 106.31,268.22 v -5.62 h -1.68 v -2.06 l 1.82,-0.12 0.34,-3.22 h 2.3 v 3.22 h 3 v 2.18 h -3 v 5.62 c 0,1.39 0.53,2.06 1.66,2.06 0.41,0 0.89,-0.12 1.22,-0.26 l 0.48,2.04 c -0.65,0.22 -1.46,0.43 -2.4,0.43 -2.73,0 -3.74,-1.73 -3.74,-4.27 z"
   id="path1099" />
		<path
   class="st16"
   d="m 114.56,260.42 h 2.28 l 0.19,2.09 h 0.1 c 0.84,-1.54 2.09,-2.38 3.34,-2.38 0.6,0 0.98,0.07 1.34,0.24 l -0.48,2.4 c -0.41,-0.12 -0.72,-0.19 -1.22,-0.19 -0.94,0 -2.06,0.65 -2.78,2.42 v 7.2 h -2.76 v -11.78 z"
   id="path1101" />
		<path
   class="st16"
   d="m 123.2,256.8 c 0,-0.94 0.72,-1.58 1.7,-1.58 0.98,0 1.7,0.65 1.7,1.58 0,0.91 -0.72,1.56 -1.7,1.56 -0.98,0 -1.7,-0.65 -1.7,-1.56 z m 0.31,3.62 h 2.76 v 11.79 h -2.76 z"
   id="path1103" />
		<path
   class="st16"
   d="m 129.04,266.32 c 0,-3.94 2.76,-6.19 5.9,-6.19 1.51,0 2.59,0.58 3.46,1.32 l -1.34,1.8 c -0.62,-0.55 -1.22,-0.86 -1.97,-0.86 -1.9,0 -3.22,1.56 -3.22,3.94 0,2.35 1.3,3.91 3.14,3.91 0.91,0 1.75,-0.46 2.42,-1.01 l 1.13,1.82 c -1.1,0.96 -2.5,1.44 -3.84,1.44 -3.21,0 -5.68,-2.25 -5.68,-6.17 z"
   id="path1105" />
		<path
   class="st16"
   d="m 141.06,268.22 v -5.62 h -1.68 v -2.06 l 1.82,-0.12 0.34,-3.22 h 2.3 v 3.22 h 3 v 2.18 h -3 v 5.62 c 0,1.39 0.53,2.06 1.66,2.06 0.41,0 0.89,-0.12 1.22,-0.26 l 0.48,2.04 c -0.65,0.22 -1.46,0.43 -2.4,0.43 -2.73,0 -3.74,-1.73 -3.74,-4.27 z"
   id="path1107" />
	</g>
</svg>
