<svg xmlns="http://www.w3.org/2000/svg" viewBox="0 0 784.06 507.87"><defs><style>.cls-1{fill:#e6e6e6;}.cls-2,.cls-3{fill:#007dbc;}.cls-2{opacity:0.8;}.cls-3{opacity:0.8;}.cls-4,.cls-6,.cls-7{fill:none;}.cls-4,.cls-6{stroke:#0675af;stroke-linejoin:bevel;}.cls-4{stroke-width:0.64px;}.cls-5{fill:#fff;}.cls-6{stroke-width:4px;fill-rule:evenodd;}.cls-7{stroke:#fff;stroke-miterlimit:10;stroke-width:3px;}</style></defs><g id="Layer_1" data-name="Layer 1"><rect class="cls-1" x="-11.18" y="-11.39" width="804.92" height="529.99"/><path class="cls-2" d="M124.55,214.65h5.24l4.64,12.8c.56,1.64,1.12,3.4,1.68,5.12h.16c.56-1.72,1.08-3.48,1.64-5.12l4.52-12.8h5.28v26.16h-4.28v-12c0-2.44.36-5.92.6-8.32h-.16l-2.12,6.08-4.28,11.76h-2.76l-4.32-11.76-2.08-6.08h-.16c.2,2.4.6,5.88.6,8.32v12h-4.2Z"/><path class="cls-2" d="M152.91,235.53c0-4.2,3.48-6.4,11.56-7.28-.08-2.08-.92-3.84-3.6-3.84a11.19,11.19,0,0,0-5.52,1.92l-1.68-3.08a15.36,15.36,0,0,1,8.08-2.56c4.88,0,7.32,3,7.32,8.48v11.64h-3.8l-.32-2.16h-.16a9.56,9.56,0,0,1-6.08,2.64A5.49,5.49,0,0,1,152.91,235.53Zm11.56,0v-4.4c-5.36.68-7.12,2.08-7.12,4,0,1.76,1.2,2.52,2.84,2.52S163,236.89,164.47,235.53Z"/><path class="cls-2" d="M174.07,215.13a2.85,2.85,0,1,1,2.84,2.6A2.64,2.64,0,0,1,174.07,215.13Zm.52,6h4.6v19.64h-4.6Z"/><path class="cls-2" d="M185.07,221.17h3.8l.32,2.64h.16c1.76-1.72,3.76-3.12,6.44-3.12,4.2,0,6,2.84,6,7.8v12.32h-4.6V229.09c0-3.24-.92-4.44-3.08-4.44-1.72,0-2.84.84-4.48,2.44v13.72h-4.6Z"/><path class="cls-2" d="M206.19,231c0-6.4,4.44-10.32,9-10.32,5.32,0,8.12,3.84,8.12,9.32a10.72,10.72,0,0,1-.2,2.24H210.67c.4,3.48,2.64,5.48,5.8,5.48a8.2,8.2,0,0,0,4.56-1.44l1.56,2.88a12.39,12.39,0,0,1-6.72,2.12C210.43,241.29,206.19,237.49,206.19,231Zm13.16-1.88c0-3-1.32-4.88-4-4.88-2.32,0-4.32,1.72-4.72,4.88Z"/><path class="cls-2" d="M137.69,253.91h4.2c4.8,0,7.63,2.59,7.63,7.78s-2.83,7.92-7.49,7.92h-4.34Zm4,13.44c3.17,0,5-1.8,5-5.66s-1.8-5.52-5-5.52h-1.23v11.18Z"/><path class="cls-2" d="M152.14,254.2a1.71,1.71,0,1,1,1.7,1.56A1.58,1.58,0,0,1,152.14,254.2Zm.31,3.62h2.76v11.79h-2.76Z"/><path class="cls-2" d="M157.56,268.27l1.3-1.78a5.25,5.25,0,0,0,3.26,1.32c1.27,0,1.87-.6,1.87-1.42,0-1-1.27-1.41-2.52-1.89-1.56-.58-3.31-1.47-3.31-3.44s1.66-3.52,4.3-3.52a6.38,6.38,0,0,1,3.91,1.41l-1.27,1.68a4.41,4.41,0,0,0-2.59-1c-1.18,0-1.73.56-1.73,1.3,0,.94,1.17,1.3,2.45,1.75,1.6.6,3.38,1.37,3.38,3.58,0,2-1.61,3.65-4.58,3.65A7.51,7.51,0,0,1,157.56,268.27Z"/><path class="cls-2" d="M169,265.62V260h-1.68v-2.07l1.82-.12.34-3.21h2.3v3.21h3V260h-3v5.61c0,1.4.53,2.07,1.66,2.07a3.21,3.21,0,0,0,1.22-.27l.48,2.05a7.63,7.63,0,0,1-2.4.43C170,269.9,169,268.17,169,265.62Z"/><path class="cls-2" d="M177.27,257.82h2.28l.19,2.09h.09a4,4,0,0,1,3.34-2.37,3,3,0,0,1,1.34.24l-.48,2.4a3.8,3.8,0,0,0-1.22-.2c-.94,0-2.06.65-2.78,2.43v7.2h-2.76Z"/><path class="cls-2" d="M185.91,254.2a1.71,1.71,0,1,1,1.7,1.56A1.57,1.57,0,0,1,185.91,254.2Zm.31,3.62H189v11.79h-2.76Z"/><path class="cls-2" d="M191.74,263.73a5.81,5.81,0,0,1,5.9-6.19,5.08,5.08,0,0,1,3.46,1.32l-1.35,1.8a2.84,2.84,0,0,0-2-.87c-1.89,0-3.21,1.56-3.21,3.94s1.3,3.91,3.14,3.91a3.88,3.88,0,0,0,2.43-1l1.13,1.83a5.9,5.9,0,0,1-3.84,1.44C194.21,269.9,191.74,267.64,191.74,263.73Z"/><path class="cls-2" d="M203.76,265.62V260h-1.68v-2.07l1.83-.12.33-3.21h2.3v3.21h3V260h-3v5.61c0,1.4.53,2.07,1.66,2.07a3.21,3.21,0,0,0,1.22-.27l.49,2.05a7.76,7.76,0,0,1-2.41.43C204.77,269.9,203.76,268.17,203.76,265.62Z"/></g><g id="Layer_4" data-name="Layer 4"><polygon class="cls-3" points="357.54 423.97 358.79 447.33 359.59 450.48 359.82 454.85 358.54 457.04 359.67 461.27 357.72 463.79 357.78 467.39 360.03 472.15 361.84 472.04 364.62 477.32 370.87 484.53 369.49 491.91 380.63 500.29 389.07 484.05 387.68 481.09 391.81 472.03 397.44 471.57 405.41 461.19 406.03 451.06 395.45 443.55 398.07 439.81 391.03 432.06 388.91 435.06 386.26 435.09 382.68 432.51 383.85 427.81 383.18 424.62 378.37 423.36 375.38 424.35 373.25 421.71 365.87 422.03 362.22 424.2 357.54 423.97"/><polygon class="cls-4" points="357.54 423.97 358.79 447.33 359.59 450.48 359.82 454.85 358.54 457.04 359.67 461.27 357.72 463.79 357.78 467.39 360.03 472.14 361.84 472.04 364.62 477.32 370.87 484.53 369.49 491.91 380.63 500.29 389.07 484.05 387.68 481.09 391.81 472.03 397.44 471.57 405.41 461.19 406.03 451.06 395.45 443.55 398.07 439.81 391.03 432.06 388.91 435.06 386.26 435.09 382.68 432.51 383.85 427.81 383.18 424.62 378.37 423.36 375.38 424.35 373.25 421.71 365.87 422.03 362.22 424.2 357.54 423.97"/><polygon class="cls-3" points="581.25 267.47 584.01 281.56 586.81 299.85 577.43 301.62 582.86 330.11 584.29 329.84 586 338.9 584.19 339.24 586.15 348.31 589.82 358.07 597.19 340.6 603.62 342.13 605.08 349.04 610.51 341.69 612.87 345.8 618.66 345.35 621.78 334.65 630.64 338.65 633.97 334.24 631.67 328.77 639.17 326.7 639.97 335.34 649.99 330.73 653.56 323.09 663.49 315.5 660.33 307.3 654.86 307.96 650.4 314.7 649.32 302.3 659.24 301.56 649.18 277.93 641.22 274.48 639.58 274.8 639.2 279.11 635.78 281.57 632.74 278.64 626.37 268.58 624.78 263.58 629.09 257.79 629.81 254.23 625.79 249.24 623.36 242.35 626.42 240 630.08 240.74 628.82 238.81 629.73 235.45 626.95 229.54 623.72 231.46 615.38 229.34 610.28 226.65 607.59 221.37 607.02 223.05 600.27 221.2 581.84 225.65 588.97 256.8 588.1 256.99 590.15 266.16 581.25 267.47"/><polygon class="cls-4" points="581.25 267.47 584.01 281.56 586.81 299.84 577.43 301.62 582.86 330.11 584.29 329.84 586 338.9 584.19 339.24 586.15 348.31 589.82 358.07 597.19 340.6 603.62 342.13 605.08 349.04 610.51 341.69 612.87 345.8 618.66 345.35 621.78 334.65 630.64 338.65 633.97 334.24 631.66 328.77 639.17 326.7 639.97 335.34 649.99 330.73 653.56 323.09 663.49 315.5 660.33 307.3 654.86 307.96 650.4 314.7 649.32 302.3 659.24 301.56 649.18 277.93 641.21 274.48 639.58 274.8 639.2 279.11 635.78 281.57 632.74 278.64 626.37 268.57 624.78 263.58 629.09 257.79 629.81 254.23 625.79 249.24 623.36 242.35 626.42 240 630.08 240.74 628.82 238.81 629.73 235.45 626.95 229.54 623.72 231.46 615.38 229.33 610.28 226.65 607.59 221.37 607.02 223.05 600.27 221.2 581.84 225.65 588.96 256.8 588.1 256.99 590.15 266.16 581.25 267.47"/><polygon class="cls-3" points="470.59 365.54 478.02 367.12 479.19 365.57 482.84 369.23 488.7 363.23 499.96 374.84 505.96 374.43 507.08 375.55 513.2 364.21 508.6 355.94 523.79 349.04 524.44 341.82 519.94 336.24 523.5 330.72 523.31 329.08 521.65 327.13 495.25 333.34 493.59 324.15 484.27 325.79 483.04 321.99 479.86 321.58 477.45 327.23 473.28 328.09 475.49 330.32 474.07 332.96 479.27 333.73 477.45 343.28 480.85 343.97 479.04 353.35 475.27 352.63 470.59 365.54"/><polygon class="cls-3" points="519.34 361.81 516 363.14 515.75 374.59 519.34 361.81"/><polygon class="cls-4" points="470.59 365.54 478.02 367.12 479.19 365.57 482.84 369.23 488.7 363.22 499.96 374.84 505.96 374.43 507.08 375.54 513.2 364.2 508.6 355.94 523.79 349.04 524.44 341.82 519.93 336.24 523.5 330.72 523.31 329.08 521.65 327.13 495.25 333.34 493.59 324.15 484.27 325.78 483.04 321.98 479.86 321.57 477.45 327.23 473.28 328.09 475.49 330.32 474.07 332.96 479.27 333.73 477.45 343.27 480.85 343.97 479.04 353.35 475.27 352.63 470.59 365.54"/><polygon class="cls-4" points="519.34 361.8 516 363.14 515.75 374.58 519.34 361.8"/><polygon class="cls-3" points="454.25 122.92 454.38 142.9 453.39 142.91 453.58 188.91 457.02 188.25 459.98 201.17 456.94 202.52 456.02 198.82 453.26 199.7 455.54 203.15 453.37 213.07 449.49 211.32 449.14 213.93 446.26 214.49 448.81 216.2 449.52 220.11 452.98 221.38 455.81 227 453.57 233.5 449.71 236.24 455.85 263.45 455.27 263.54 459.3 284.26 460.01 284.17 461.87 293.89 469.8 292.39 471.07 289.27 520.19 279.64 518.32 270.75 526.32 269.08 520.1 237.95 511.99 239.56 512.93 232.06 512.36 223.23 522.59 220.79 523.02 142.65 522.82 123.07 454.25 122.92"/><polygon class="cls-4" points="454.25 122.91 454.38 142.9 453.39 142.91 453.58 188.91 457.02 188.25 459.98 201.16 456.94 202.52 456.02 198.82 453.26 199.7 455.54 203.15 453.37 213.07 449.49 211.32 449.14 213.93 446.26 214.49 448.81 216.19 449.52 220.1 452.98 221.38 455.81 227 453.57 233.5 449.71 236.24 455.85 263.45 455.27 263.54 459.3 284.26 460.01 284.16 461.87 293.89 469.8 292.39 471.07 289.27 520.19 279.63 518.32 270.75 526.32 269.08 520.1 237.95 511.99 239.56 512.93 232.06 512.36 223.23 522.59 220.79 523.02 142.65 522.82 123.07 454.25 122.91"/><polygon class="cls-3" points="488.89 324.98 493.59 324.15 495.25 333.34 521.65 327.13 523.31 329.08 525.56 328.77 528.77 331.57 530.1 327.78 532.83 325.02 536.15 326.92 538.48 322.94 551.49 320.47 547.22 297.05 556.92 295.3 555.25 286.06 564.92 284.24 562.38 271.12 581.25 267.47 590.15 266.16 588.1 256.99 588.97 256.8 581.84 225.65 565.76 229.44 565.96 230.32 554.05 233 552.52 232.25 552.99 199.95 552.49 182.37 552.12 181.49 552.23 144.18 532.51 144.13 532.51 142.71 523.02 142.65 522.59 220.79 512.36 223.23 512.93 232.06 511.99 239.56 520.1 237.95 526.32 269.08 518.32 270.75 520.19 279.64 482.11 287.14 487.8 315.67 488.89 324.98"/><polygon class="cls-4" points="488.89 324.98 493.59 324.15 495.25 333.34 521.65 327.13 523.31 329.08 525.56 328.77 528.77 331.57 530.1 327.78 532.83 325.02 536.15 326.92 538.48 322.94 551.49 320.47 547.22 297.05 556.92 295.29 555.25 286.05 564.92 284.24 562.38 271.12 581.25 267.47 590.15 266.16 588.1 256.99 588.96 256.8 581.84 225.65 565.76 229.44 565.96 230.31 554.05 233 552.52 232.24 552.99 199.95 552.49 182.36 552.12 181.49 552.23 144.18 532.51 144.13 532.51 142.71 523.02 142.65 522.59 220.79 512.36 223.23 512.93 232.06 511.99 239.56 520.1 237.95 526.32 269.08 518.32 270.75 520.19 279.63 482.11 287.13 487.8 315.67 488.89 324.98"/><polygon class="cls-3" points="523.5 330.72 521.33 335 526.56 341.47 527.79 347.57 522.83 358.52 522.41 368.79 528.03 365.06 545.48 377.8 542.42 369.04 542.48 359.11 547.13 358.13 549.4 350.14 553.27 349.06 552.42 359.29 565.03 348.27 567.96 352.61 576.82 350.78 577.51 360.92 581.02 366.71 587.68 358.96 584.46 355.94 586.15 348.31 584.19 339.24 586 338.9 584.29 329.84 582.86 330.11 577.43 301.62 586.81 299.85 584.01 281.56 581.25 267.47 562.38 271.12 564.92 284.24 555.25 286.06 556.92 295.3 547.22 297.05 551.49 320.47 538.48 322.94 536.15 326.92 532.83 325.02 530.1 327.78 528.77 331.57 525.56 328.77 523.31 329.08 523.5 330.72"/><polygon class="cls-3" points="561.22 354.69 555.25 361.9 553.47 372.85 559.68 378.41 561 371.43 567.56 371.34 572.27 367.08 566.51 355.87 561.22 354.69"/><polygon class="cls-3" points="529.68 369.28 533.82 372.63 530.5 383.9 536.51 385.2 538.97 376.01 529.68 369.28"/><polygon class="cls-4" points="523.5 330.72 521.33 335 526.56 341.46 527.79 347.56 522.83 358.52 522.41 368.79 528.03 365.06 545.48 377.8 542.42 369.03 542.48 359.1 547.13 358.13 549.4 350.14 553.27 349.06 552.42 359.29 565.03 348.27 567.96 352.61 576.82 350.78 577.51 360.92 581.02 366.71 587.68 358.95 584.46 355.94 586.15 348.31 584.19 339.24 586 338.9 584.29 329.84 582.86 330.11 577.43 301.62 586.81 299.84 584.01 281.56 581.25 267.47 562.38 271.12 564.92 284.24 555.25 286.05 556.92 295.29 547.22 297.05 551.49 320.47 538.48 322.94 536.15 326.92 532.83 325.02 530.1 327.78 528.77 331.57 525.56 328.77 523.31 329.08 523.5 330.72"/><polygon class="cls-4" points="561.22 354.68 555.25 361.9 553.47 372.85 559.68 378.41 561 371.43 567.56 371.34 572.27 367.08 566.51 355.87 561.22 354.68"/><polygon class="cls-4" points="529.68 369.28 533.82 372.63 530.5 383.9 536.51 385.2 538.97 376.01 529.68 369.28"/><polygon class="cls-3" points="406.03 451.06 417.98 447.89 413.71 436.06 417.98 429.63 431.5 416.61 436.37 418.29 430.61 429.11 442.98 411.44 442.57 406.95 438.23 411.33 434.76 411.01 431.44 407.72 430.39 404.56 426.81 409.81 424.14 411.88 417.73 407.09 408.92 398 405.23 403.43 402.32 403.05 396.36 398.61 394.16 397.61 391.48 401.4 386.92 397.58 386.75 391.22 388.19 388.81 385.35 383.82 379.63 387.24 370.31 393.81 367.52 391.9 367.5 395.65 373.54 398.94 378.42 406.05 375.91 407.73 374.62 415.59 371.83 417.23 373.25 421.71 375.38 424.35 378.37 423.36 383.18 424.62 383.85 427.81 382.68 432.51 386.26 435.09 388.91 435.06 391.03 432.06 398.07 439.81 395.45 443.55 406.03 451.06"/><polygon class="cls-3" points="440.25 417.04 436.81 426.6 441.05 424.16 440.25 417.04"/><polygon class="cls-4" points="406.03 451.06 417.97 447.89 413.71 436.06 417.97 429.63 431.5 416.61 436.37 418.29 430.61 429.1 442.98 411.44 442.57 406.95 438.23 411.33 434.76 411 431.44 407.72 430.39 404.56 426.81 409.81 424.14 411.88 417.73 407.08 408.92 398 405.23 403.43 402.32 403.05 396.36 398.61 394.16 397.61 391.48 401.39 386.92 397.58 386.75 391.22 388.19 388.81 385.35 383.82 379.63 387.23 370.31 393.81 367.52 391.9 367.5 395.64 373.54 398.94 378.42 406.05 375.91 407.73 374.62 415.59 371.83 417.23 373.25 421.71 375.38 424.35 378.37 423.36 383.18 424.62 383.85 427.81 382.68 432.51 386.26 435.09 388.91 435.06 391.03 432.06 398.07 439.81 395.45 443.55 406.03 451.06"/><polygon class="cls-4" points="440.25 417.04 436.81 426.6 441.05 424.16 440.25 417.04"/><polygon class="cls-3" points="454.25 122.92 522.82 123.07 523.02 142.65 532.51 142.71 532.51 144.13 552.23 144.18 552.12 181.49 552.49 182.37 552.99 199.95 552.52 232.25 554.05 233 565.96 230.32 565.76 229.44 600.27 221.2 600.02 215.89 602.14 215.7 600.05 211.74 600.6 207.84 604.17 205.62 600.43 200.61 600.47 199.1 604.49 195.27 602.2 192.45 601.51 67.93 594.44 63.77 589.18 53.66 584.01 48.72 579.87 46.4 575.14 42.29 573.89 39.33 567.63 35.59 557.82 35.66 556.17 39.1 556.7 43.23 550.54 43.56 549.28 42.14 543.58 43.82 541.27 43.26 539.18 47.77 534.93 48.97 533.11 48.06 523.62 51.34 516.86 55.54 506.76 48.49 505.37 46.7 505.13 33.04 506.61 28.88 495.64 24.17 492.13 23.82 433.2 109.44 431.21 122.9 454.25 122.92"/><polygon class="cls-4" points="454.25 122.91 522.82 123.07 523.02 142.65 532.51 142.71 532.51 144.13 552.23 144.18 552.12 181.49 552.49 182.36 552.99 199.95 552.52 232.24 554.05 233 565.96 230.31 565.76 229.44 600.27 221.2 600.02 215.89 602.13 215.7 600.05 211.74 600.6 207.84 604.17 205.62 600.43 200.61 600.47 199.09 604.48 195.27 602.2 192.45 601.51 67.93 594.44 63.77 589.18 53.66 584.01 48.72 579.87 46.4 575.14 42.29 573.89 39.32 567.63 35.59 557.82 35.65 556.17 39.1 556.7 43.23 550.54 43.56 549.28 42.13 543.58 43.82 541.27 43.26 539.18 47.77 534.93 48.97 533.11 48.06 523.62 51.34 516.86 55.54 506.76 48.49 505.37 46.7 505.13 33.04 506.6 28.87 495.64 24.17 492.13 23.82 433.2 109.44 431.21 122.9 454.25 122.91"/><polygon class="cls-3" points="390.82 222.62 394.41 239.41 393.43 239.59 401.03 279.42 409.46 277.56 410.52 283.19 420.81 281.2 424.62 300.76 421.41 301.3 422.93 311.04 430.48 309.68 433.27 329.74 436.01 329.35 438.28 336.9 444.17 335.76 446.8 340.05 448.78 340.48 450.04 337.18 463.05 340.49 465.08 335.18 461.37 330.46 460.97 327.3 472.37 325.15 473.28 328.09 477.45 327.23 479.86 321.58 483.04 321.99 484.27 325.79 488.89 324.98 487.8 315.67 482.11 287.14 471.07 289.27 469.8 292.39 461.87 293.89 460.01 284.17 459.3 284.26 455.27 263.54 455.85 263.45 449.71 236.24 453.57 233.5 455.81 227 452.98 221.38 449.52 220.11 448.81 216.2 446.26 214.49 449.14 213.93 449.49 211.32 453.37 213.07 455.54 203.15 453.26 199.7 456.02 198.82 456.94 202.52 459.98 201.17 457.02 188.25 453.58 188.91 453.39 142.91 454.38 142.9 454.25 122.92 431.21 122.9 428.68 140.31 425.33 141.6 421.61 146.72 419.71 146.73 417.16 149.77 417.24 153.3 415.54 154.08 412.23 163.18 410.65 165.18 414.61 169.69 413.57 175.31 411.23 175.28 409.64 179.51 411.71 179.59 408.75 184.16 410.94 186.92 409.15 189.96 412.6 190.22 414.66 192.43 412.91 194.56 413.17 198.16 409.5 201.72 406.84 202.48 401.18 208.69 403.72 215.32 399.5 218.62 397.43 218.38 392.88 222.75 390.82 222.62"/><polygon class="cls-4" points="390.82 222.62 394.41 239.41 393.43 239.58 401.03 279.42 409.46 277.56 410.52 283.19 420.8 281.2 424.62 300.76 421.41 301.3 422.93 311.04 430.48 309.67 433.27 329.74 436.01 329.35 438.28 336.9 444.17 335.76 446.8 340.05 448.78 340.48 450.04 337.18 463.05 340.49 465.08 335.18 461.37 330.46 460.97 327.3 472.37 325.15 473.28 328.09 477.45 327.23 479.86 321.57 483.04 321.98 484.27 325.78 488.89 324.98 487.8 315.67 482.11 287.13 471.07 289.27 469.8 292.39 461.87 293.89 460.01 284.16 459.3 284.26 455.27 263.54 455.85 263.45 449.71 236.24 453.57 233.5 455.81 227 452.98 221.38 449.52 220.1 448.81 216.19 446.26 214.49 449.14 213.93 449.49 211.32 453.37 213.07 455.54 203.15 453.26 199.7 456.02 198.82 456.94 202.52 459.98 201.16 457.02 188.25 453.58 188.91 453.39 142.91 454.38 142.9 454.25 122.91 431.21 122.9 428.68 140.31 425.33 141.6 421.61 146.72 419.71 146.73 417.16 149.77 417.24 153.3 415.54 154.07 412.23 163.17 410.65 165.18 414.61 169.68 413.57 175.31 411.23 175.27 409.64 179.51 411.71 179.59 408.75 184.16 410.94 186.92 409.15 189.96 412.6 190.21 414.66 192.43 412.91 194.56 413.17 198.16 409.5 201.72 406.84 202.48 401.18 208.69 403.72 215.32 399.5 218.62 397.43 218.38 392.88 222.75 390.82 222.62"/><polygon class="cls-3" points="430.39 404.56 431.44 407.72 434.76 411.01 438.23 411.33 442.57 406.95 442.98 411.44 442.43 423.88 444.09 433.3 455.31 420.17 450.56 413.81 454.03 408.68 455.84 401.29 447.17 399.22 448.91 397.61 449.34 392.66 451.4 387.21 451.01 385.73 443.96 384.16 442.01 386.15 440.76 390.57 432.57 388.78 430.35 401.79 430.39 404.56"/><polygon class="cls-4" points="430.39 404.56 431.44 407.72 434.76 411 438.23 411.33 442.57 406.95 442.98 411.44 442.43 423.88 444.09 433.29 455.31 420.17 450.56 413.81 454.03 408.67 455.84 401.29 447.17 399.22 448.91 397.61 449.34 392.66 451.4 387.21 451.01 385.72 443.96 384.16 442.01 386.15 440.76 390.57 432.57 388.77 430.35 401.79 430.39 404.56"/><polygon class="cls-3" points="350.28 262.05 353.85 321.37 355.95 371.73 357.54 423.97 362.22 424.2 365.87 422.03 373.25 421.71 371.83 417.23 374.62 415.59 375.91 407.73 378.42 406.05 373.54 398.94 367.5 395.65 367.52 391.9 370.31 393.81 379.63 387.24 385.35 383.82 388.19 388.81 386.75 391.22 386.92 397.58 391.48 401.4 394.16 397.61 396.36 398.61 395.96 395.59 407.5 379.62 408.17 379.87 412.75 363.39 412.06 355.09 414.76 353.16 413.85 348.39 411.55 348.22 411.56 341.32 391.02 336.9 394.04 335.15 386.07 317.07 374.31 323.88 373.95 312.3 372.24 303.06 371.62 303.15 370.16 293.54 373.48 293.06 369.34 265.04 369.17 269.43 364.45 268.68 362.7 264.91 362.97 261.34 360.31 258.38 355.89 257.5 356.02 260.57 350.28 262.05"/><polygon class="cls-4" points="350.28 262.05 353.85 321.37 355.95 371.73 357.54 423.97 362.22 424.2 365.87 422.03 373.25 421.71 371.83 417.23 374.62 415.59 375.91 407.73 378.42 406.05 373.54 398.94 367.5 395.64 367.52 391.9 370.31 393.81 379.63 387.23 385.35 383.82 388.19 388.81 386.75 391.22 386.92 397.58 391.48 401.39 394.16 397.61 396.36 398.61 395.96 395.59 407.5 379.62 408.17 379.87 412.75 363.39 412.06 355.09 414.76 353.16 413.85 348.39 411.55 348.21 411.56 341.31 391.02 336.9 394.04 335.15 386.07 317.07 374.31 323.88 373.95 312.3 372.24 303.05 371.62 303.15 370.16 293.54 373.48 293.06 369.34 265.04 369.17 269.43 364.45 268.68 362.7 264.91 362.97 261.33 360.31 258.38 355.89 257.49 356.02 260.56 350.28 262.05"/><polygon class="cls-3" points="451.4 387.21 449.34 392.66 448.91 397.61 447.17 399.22 455.84 401.29 454.03 408.68 453.4 414.22 459.54 409.14 458.56 417.69 464.55 416.79 468.84 411.95 469.97 419.85 475.23 405.5 480.59 395.31 483.25 400.6 487.77 396.54 485.51 391.89 486.08 387.89 483.49 379.76 478.29 379.62 474.95 374.13 474.83 368.62 478.02 367.12 470.59 365.54 469.49 372.16 467.83 374.14 459.65 372.27 458.5 377.82 459.16 389.01 451.4 387.21"/><polygon class="cls-4" points="451.4 387.21 449.34 392.66 448.91 397.61 447.17 399.22 455.84 401.29 454.03 408.67 453.4 414.22 459.54 409.14 458.56 417.69 464.55 416.79 468.84 411.95 469.97 419.85 475.23 405.5 480.59 395.31 483.25 400.6 487.77 396.54 485.51 391.89 486.08 387.89 483.49 379.76 478.29 379.62 474.95 374.13 474.83 368.62 478.02 367.12 470.59 365.54 469.49 372.16 467.83 374.14 459.65 372.27 458.5 377.82 459.16 389.01 451.4 387.21"/><polygon class="cls-3" points="537.84 392.48 535.11 400.25 538.24 399.86 537.84 392.48"/><polygon class="cls-3" points="521.23 388.07 516.09 390.18 519.14 396.6 526.27 395.09 521.23 388.07"/><polygon class="cls-3" points="522.71 382.33 514.15 388.21 523.09 384.91 522.71 382.33"/><polygon class="cls-3" points="483.25 400.6 481.28 405.73 489.52 403.69 489.33 410.74 503.65 397 501.68 393.33 507.08 375.55 505.96 374.43 499.96 374.84 488.7 363.23 482.84 369.23 479.19 365.57 478.02 367.12 474.83 368.62 474.95 374.13 478.29 379.62 483.49 379.76 486.08 387.89 485.51 391.89 487.77 396.54 483.25 400.6"/><polygon class="cls-4" points="537.84 392.48 535.1 400.25 538.24 399.86 537.84 392.48"/><polygon class="cls-4" points="521.23 388.07 516.09 390.18 519.14 396.6 526.27 395.09 521.23 388.07"/><polygon class="cls-4" points="522.71 382.33 514.15 388.21 523.09 384.91 522.71 382.33"/><polygon class="cls-4" points="483.25 400.6 481.28 405.73 489.52 403.68 489.33 410.74 503.65 397 501.68 393.33 507.08 375.54 505.96 374.43 499.96 374.84 488.7 363.22 482.84 369.23 479.19 365.57 478.02 367.12 474.83 368.62 474.95 374.13 478.29 379.62 483.49 379.76 486.08 387.89 485.51 391.89 487.77 396.54 483.25 400.6"/><polygon class="cls-3" points="432.57 388.78 440.76 390.57 442.01 386.15 443.96 384.16 451.01 385.73 451.4 387.21 459.16 389.01 458.5 377.82 459.65 372.27 467.83 374.14 469.49 372.16 470.59 365.54 475.27 352.63 479.04 353.35 480.85 343.97 477.45 343.28 479.27 333.73 474.07 332.96 475.49 330.32 473.28 328.09 472.37 325.15 460.97 327.3 461.37 330.46 465.08 335.18 463.05 340.49 450.04 337.18 448.78 340.48 446.8 340.05 444.17 335.76 438.28 336.9 436.52 340.77 429.94 339.23 427.51 345.64 430.28 347.95 429.75 350.35 423.1 350.12 425.31 361.17 422.84 362.5 427.3 370.27 427.2 380.09 428.37 381.64 433.46 382.81 430.89 388.14 432.57 388.78"/><polygon class="cls-4" points="432.57 388.77 440.76 390.57 442.01 386.15 443.96 384.16 451.01 385.72 451.4 387.21 459.16 389.01 458.5 377.82 459.65 372.27 467.83 374.14 469.49 372.16 470.59 365.54 475.27 352.63 479.04 353.35 480.85 343.97 477.45 343.27 479.27 333.73 474.07 332.96 475.49 330.32 473.28 328.09 472.37 325.15 460.97 327.3 461.37 330.46 465.08 335.18 463.05 340.49 450.04 337.18 448.78 340.48 446.8 340.05 444.17 335.76 438.28 336.9 436.52 340.77 429.94 339.23 427.51 345.64 430.28 347.95 429.75 350.35 423.1 350.12 425.3 361.16 422.84 362.5 427.3 370.27 427.2 380.09 428.37 381.64 433.46 382.81 430.89 388.14 432.57 388.77"/><polygon class="cls-3" points="414.76 353.16 417.62 351.12 423.1 350.12 429.75 350.35 430.28 347.95 427.51 345.64 429.94 339.23 436.52 340.77 438.28 336.9 436.01 329.35 433.27 329.74 430.48 309.68 422.93 311.04 421.41 301.3 424.62 300.76 420.81 281.2 410.52 283.19 409.46 277.56 401.03 279.42 393.43 239.59 394.41 239.41 390.82 222.62 387.8 226.75 383.81 229.24 380.42 234.13 381.27 235.11 377.82 240.07 380.99 246.01 384.94 248.84 385.39 251.77 383.31 254.26 381.27 252.38 378.65 252.79 375.35 248.69 373.38 248.38 370.01 251.74 371.74 255.62 370.48 258.14 371.03 262.41 369.34 265.04 373.48 293.06 370.16 293.54 371.62 303.15 372.24 303.06 373.95 312.3 374.31 323.88 386.07 317.07 394.04 335.15 391.02 336.9 411.56 341.32 411.55 348.22 413.85 348.39 414.76 353.16"/><polygon class="cls-4" points="414.76 353.16 417.62 351.11 423.1 350.12 429.75 350.35 430.28 347.95 427.51 345.64 429.94 339.23 436.52 340.77 438.28 336.9 436.01 329.35 433.27 329.74 430.48 309.67 422.93 311.04 421.41 301.3 424.62 300.76 420.8 281.2 410.52 283.19 409.46 277.56 401.03 279.42 393.43 239.58 394.41 239.41 390.82 222.62 387.8 226.75 383.81 229.24 380.42 234.13 381.27 235.11 377.82 240.07 380.99 246.01 384.94 248.84 385.39 251.77 383.31 254.26 381.27 252.38 378.65 252.79 375.35 248.69 373.37 248.38 370.01 251.74 371.74 255.62 370.48 258.13 371.02 262.41 369.34 265.04 373.48 293.06 370.16 293.54 371.62 303.15 372.24 303.05 373.95 312.3 374.31 323.88 386.07 317.07 394.04 335.15 391.02 336.9 411.56 341.31 411.55 348.21 413.85 348.39 414.76 353.16"/><polygon class="cls-3" points="430.39 404.56 430.35 401.79 432.57 388.78 430.89 388.14 433.46 382.81 428.37 381.64 427.2 380.09 427.3 370.27 422.84 362.5 425.31 361.17 423.1 350.12 417.62 351.12 412.06 355.09 412.75 363.39 408.17 379.87 407.5 379.62 395.96 395.59 396.36 398.61 402.32 403.05 405.23 403.43 408.92 398 417.73 407.09 424.14 411.88 426.81 409.81 430.39 404.56"/><polygon class="cls-4" points="430.39 404.56 430.35 401.79 432.57 388.77 430.89 388.14 433.46 382.81 428.37 381.64 427.2 380.09 427.3 370.27 422.84 362.5 425.3 361.16 423.1 350.12 417.62 351.11 412.06 355.09 412.75 363.39 408.17 379.87 407.5 379.62 395.96 395.59 396.36 398.61 402.32 403.05 405.23 403.43 408.92 398 417.73 407.08 424.14 411.88 426.81 409.81 430.39 404.56"/><circle class="cls-5" cx="414.65" cy="439.35" r="9.02"/><circle class="cls-5" cx="527.07" cy="317.06" r="9.02"/><circle class="cls-5" cx="449.35" cy="368.03" r="9.02"/><polyline class="cls-6" points="431.21 122.9 454.25 122.91 454.38 142.9 453.39 142.91 453.58 188.91 457.02 188.25 459.98 201.16 456.94 202.52 456.02 198.82 453.26 199.7 455.54 203.15 453.37 213.07 449.49 211.32 449.14 213.93 446.26 214.49 448.81 216.19 449.52 220.1 452.98 221.38 455.81 227 453.57 233.5 449.71 236.24 455.85 263.45 455.36 263.92 459.3 284.26 460.01 284.16 461.87 293.89 469.8 292.39 471.07 289.27 482.11 287.13 487.8 315.67 488.89 324.98 484.27 325.78 483.04 321.98 479.86 321.57 477.45 327.23 473.28 328.09 475.49 330.32 474.07 332.96 479.27 333.73 477.45 343.27 480.85 343.97 479.04 353.35 475.27 352.63 470.59 365.54 478.02 367.12 479.19 365.57 482.84 369.23 488.7 363.22 499.96 374.84 505.96 374.43 507.08 375.54"/><polyline class="cls-6" points="444.09 433.29 442.43 423.88 442.98 411.44 442.57 406.95 438.23 411.33 434.76 411 431.44 407.72 430.39 404.56 426.81 409.81 424.14 411.88 417.73 407.08 408.92 398 405.23 403.43 402.32 403.05 396.36 398.61 394.16 397.61 391.48 401.39 386.92 397.58 386.75 391.22 388.19 388.81 385.35 383.82 370.31 393.81 367.52 391.9 367.5 395.64 373.54 398.94 378.42 406.05 375.91 407.73 374.62 415.59 371.83 417.23 373.25 421.71 365.87 422.03 362.22 424.2 357.54 423.97"/><circle class="cls-7" cx="449.35" cy="368.03" r="29.28"/></g></svg>