<?xml version="1.0" encoding="utf-8"?>
<!-- Generator: Adobe Illustrator 25.4.1, SVG Export Plug-In . SVG Version: 6.00 Build 0)  -->
<svg version="1.1" id="Layer_1" xmlns="http://www.w3.org/2000/svg" xmlns:xlink="http://www.w3.org/1999/xlink" x="0px" y="0px"
	 viewBox="0 0 784.06 507.87" style="enable-background:new 0 0 784.06 507.87;" xml:space="preserve">
<style type="text/css">
	.st0{fill:#E6E6E6;}
	.st1{clip-path:url(#SVGID_00000001643967194320237650000012635538161607184273_);}
	.st2{opacity:0.8;fill:#007DBC;enable-background:new    ;}
	.st3{fill:none;stroke:#0675AF;stroke-width:0.64;stroke-linejoin:bevel;}
	.st4{fill:#FFFFFF;}
	.st5{fill:none;stroke:#FFFFFF;stroke-width:3;stroke-miterlimit:10;}
	.st6{fill:none;stroke:#0675AF;stroke-width:4;stroke-linejoin:bevel;}
	.st7{opacity:0.8039;fill:#007DBC;}
</style>
<g id="Layer_1_00000020395362612468465840000010808424728784032405_">
	<rect x="-11.18" y="-11.39" class="st0" width="804.92" height="529.99"/>
</g>
<g id="Layer_4">
	<g>
		<defs>
			
				<rect id="SVGID_1_" x="-0.02" y="-8.43" transform="matrix(0.9997 -0.0248 0.0248 0.9997 -6.1803 8.5394)" width="682.94" height="524.11"/>
		</defs>
		<clipPath id="SVGID_00000088099558585624522950000007637360015601883267_">
			<use xlink:href="#SVGID_1_"  style="overflow:visible;"/>
		</clipPath>
		<g style="clip-path:url(#SVGID_00000088099558585624522950000007637360015601883267_);">
			<polygon class="st2" points="165.2,280.52 206.04,306.19 228.93,337.23 244.59,350.14 231.99,393.33 235.31,404.43 288.36,366 
				300.71,373.7 344.38,361.25 364.48,371.14 400.08,358.63 415.2,365.62 412.04,363.31 411.73,359.96 396.8,337.15 389.43,334.35 
				389.47,310.21 375.48,288.32 346.24,295.45 346.5,269.9 342.63,229.03 327.02,231.91 313.6,244.39 300.63,236.54 280.77,240.03 
				282.34,202.53 268.09,204.9 257.04,216.1 244.25,219.58 233.89,235.33 210.9,241.64 214.3,259.86 161.96,265.05 			"/>
			<polygon class="st3" points="165.19,280.51 206.04,306.19 228.93,337.23 244.59,350.13 231.99,393.32 235.31,404.42 288.36,366 
				300.71,373.69 344.38,361.24 364.48,371.13 400.08,358.62 415.2,365.62 412.04,363.3 411.73,359.95 396.79,337.14 389.43,334.34 
				389.46,310.21 375.48,288.31 346.24,295.45 346.5,269.9 342.63,229.03 327.02,231.9 313.6,244.38 300.63,236.53 280.77,240.02 
				282.34,202.53 268.09,204.89 257.03,216.09 244.25,219.58 233.89,235.33 210.9,241.63 214.3,259.85 161.96,265.04 			"/>
			<polygon class="st2" points="411.73,359.96 476.83,358.17 465,315.97 450.36,306.82 448.13,292.92 487.05,286.4 480.29,244.69 
				446.03,249.69 420.86,197.93 354.37,207.85 354.39,217.87 342.63,229.03 346.5,269.9 346.24,295.45 375.48,288.32 389.47,310.21 
				389.43,334.35 396.8,337.15 			"/>
			<polygon class="st3" points="411.73,359.95 476.83,358.17 465,315.96 450.36,306.81 448.13,292.92 487.05,286.4 480.29,244.69 
				446.03,249.69 420.86,197.92 354.37,207.85 354.39,217.87 342.63,229.03 346.5,269.9 346.24,295.45 375.48,288.31 389.46,310.21 
				389.43,334.34 396.79,337.14 			"/>
			<polygon class="st2" points="58.79,487.72 78.67,469.8 130.28,457.43 135.52,438.92 184.33,429.55 231.99,393.33 244.59,350.14 
				228.93,337.23 206.04,306.19 165.2,280.52 144.25,272.33 140.24,261.48 123.05,271.95 118.07,248.18 96.68,197.51 90.1,356.37 
				112.82,390.97 35.59,440.55 59.99,477.9 58.83,485.52 59.44,486.73 			"/>
			<polygon class="st3" points="58.79,487.71 78.67,469.79 130.28,457.43 135.52,438.91 184.33,429.54 231.99,393.32 244.59,350.13 
				228.93,337.23 206.04,306.19 165.19,280.51 144.25,272.32 140.23,261.48 123.05,271.95 118.07,248.17 96.68,197.5 90.09,356.36 
				112.82,390.96 35.59,440.55 59.99,477.89 58.83,485.51 59.44,486.73 			"/>
			<polygon class="st2" points="505.18,167.03 532.05,190.63 543.9,188.49 598.07,198.97 628.03,193.98 650.54,195.26 642.93,37.29 
				642.28,30.63 545.78,30.79 547.48,60.85 509.81,62.09 510.9,114.96 527.89,114.66 531.25,149.44 518.31,160.71 500.84,161.14 			
				"/>
			<polygon class="st3" points="505.18,167.03 532.05,190.62 543.9,188.48 598.07,198.96 628.03,193.98 650.54,195.26 642.93,37.28 
				642.29,30.62 545.77,30.78 547.48,60.84 509.81,62.08 510.89,114.95 527.89,114.66 531.25,149.43 518.3,160.7 500.84,161.13 			
				"/>
			<polygon class="st2" points="415.51,31.74 421.72,68.88 415.15,69.95 414.5,108.03 421.31,106.44 418.46,128.21 428.5,126.54 
				438.93,186.82 451.68,204.02 451.67,216.52 478.02,214.28 475.67,198.03 497,183.27 505.18,167.03 500.84,161.14 518.31,160.71 
				531.25,149.44 527.89,114.66 510.9,114.96 509.81,62.09 547.48,60.85 545.78,30.79 535.04,30.45 			"/>
			<polygon class="st3" points="415.52,31.73 421.72,68.87 415.15,69.94 414.5,108.02 421.31,106.44 418.46,128.21 428.5,126.53 
				438.93,186.81 451.68,204.01 451.67,216.51 478.02,214.28 475.67,198.02 497,183.26 505.18,167.03 500.84,161.13 518.3,160.7 
				531.25,149.43 527.89,114.66 510.89,114.95 509.81,62.08 547.48,60.84 545.77,30.78 535.04,30.44 			"/>
			<polygon class="st2" points="433.92,224.63 446.03,249.69 480.29,244.69 487.05,286.4 448.13,292.92 450.36,306.82 465,315.97 
				486.36,353.93 529.17,333.77 584.65,339.3 598.08,320.46 630.35,330.92 639.23,310.91 635.51,293.72 649.71,290.64 
				650.54,195.26 628.03,193.98 598.07,198.97 543.9,188.49 532.05,190.63 505.18,167.03 497,183.27 475.67,198.03 478.02,214.28 
				451.67,216.52 			"/>
			<polygon class="st3" points="433.91,224.62 446.03,249.69 480.29,244.69 487.05,286.4 448.13,292.92 450.36,306.81 465,315.96 
				486.36,353.92 529.17,333.77 584.66,339.29 598.08,320.46 630.35,330.91 639.23,310.91 635.51,293.72 649.71,290.63 
				650.54,195.26 628.03,193.98 598.07,198.96 543.9,188.48 532.05,190.62 505.18,167.03 497,183.26 475.67,198.02 478.02,214.28 
				451.67,216.51 			"/>
			<polygon class="st2" points="96.68,197.51 118.07,248.18 123.05,271.95 140.24,261.48 144.25,272.33 165.2,280.52 161.96,265.05 
				214.3,259.86 210.9,241.64 233.89,235.33 244.25,219.58 257.04,216.1 268.09,204.9 255.68,137.19 277.25,133.13 280.86,118.4 
				275.27,112.78 278.99,94.93 287.07,94.04 295.27,61.01 249.79,64.94 255.67,33.64 122.05,31.96 102.44,32.84 			"/>
			<polygon class="st3" points="96.68,197.5 118.07,248.17 123.05,271.95 140.23,261.48 144.25,272.32 165.19,280.51 161.96,265.04 
				214.3,259.85 210.9,241.63 233.89,235.33 244.25,219.58 257.03,216.09 268.09,204.89 255.68,137.18 277.25,133.13 280.85,118.39 
				275.27,112.77 278.99,94.92 287.06,94.04 295.27,61 249.79,64.93 255.67,33.64 122.05,31.96 102.44,32.84 			"/>
			<polygon class="st2" points="255.67,33.64 249.79,64.94 295.27,61.01 287.07,94.04 278.99,94.93 275.27,112.78 280.86,118.4 
				277.25,133.13 255.68,137.19 268.09,204.9 282.34,202.53 280.77,240.03 300.63,236.54 313.6,244.39 327.02,231.91 342.63,229.03 
				354.39,217.87 354.37,207.85 420.86,197.93 433.92,224.63 451.67,216.52 451.68,204.02 438.93,186.82 428.5,126.54 
				418.46,128.21 421.31,106.44 414.5,108.03 415.15,69.95 421.72,68.88 415.51,31.74 383.98,33.95 336.6,32.8 333.47,47.18 
				317.53,49.9 318.14,33.13 			"/>
			<polygon class="st3" points="255.67,33.64 249.79,64.93 295.27,61 287.06,94.04 278.99,94.92 275.27,112.77 280.85,118.39 
				277.25,133.13 255.68,137.18 268.09,204.89 282.34,202.53 280.77,240.02 300.63,236.53 313.6,244.38 327.02,231.9 342.63,229.03 
				354.39,217.87 354.37,207.85 420.86,197.92 433.91,224.62 451.67,216.51 451.68,204.01 438.93,186.81 428.5,126.53 
				418.46,128.21 421.31,106.44 414.5,108.02 415.15,69.94 421.72,68.87 415.52,31.73 383.97,33.94 336.6,32.79 333.47,47.17 
				317.53,49.9 318.14,33.12 			"/>
		</g>
	</g>
	<circle class="st4" cx="206.57" cy="402.37" r="9.02"/>
	<circle class="st5" cx="367.63" cy="151.65" r="29.28"/>
	<circle class="st4" cx="367.63" cy="151.65" r="9.02"/>
	<polyline class="st6" points="96.68,197.5 118.07,248.17 123.05,271.95 140.23,261.48 144.25,272.32 165.19,280.51 161.96,265.04 
		214.3,259.85 210.9,241.63 233.89,235.33 244.25,219.58 257.03,216.09 268.09,204.89 282.34,202.53 280.77,240.02 300.63,236.53 
		313.6,244.38 327.02,231.9 342.63,229.03 354.39,217.87 354.37,207.85 420.86,197.92 446.03,249.69 480.29,244.69 487.05,286.4 
		448.13,292.92 450.36,306.81 465,315.96 	"/>
</g>
<g>
	<path class="st7" d="M507.72,405.48c0-8.56,5.36-13.64,11.96-13.64c3.28,0,5.92,1.56,7.56,3.32l-2.48,3
		c-1.36-1.36-2.92-2.28-4.96-2.28c-4.28,0-7.32,3.6-7.32,9.48c0,5.96,2.8,9.56,7.2,9.56c2.32,0,4.12-1.08,5.6-2.68l2.48,2.92
		c-2.12,2.44-4.88,3.8-8.24,3.8C512.92,418.96,507.72,414.16,507.72,405.48z"/>
	<path class="st7" d="M530.44,408.68c0-6.56,4.44-10.32,9.32-10.32c4.92,0,9.36,3.76,9.36,10.32c0,6.52-4.44,10.28-9.36,10.28
		C534.88,418.96,530.44,415.2,530.44,408.68z M544.4,408.68c0-3.96-1.76-6.56-4.64-6.56c-2.88,0-4.6,2.6-4.6,6.56
		c0,3.92,1.72,6.52,4.6,6.52C542.64,415.2,544.4,412.6,544.4,408.68z"/>
	<path class="st7" d="M553.68,398.84h3.8l0.32,2.64h0.16c1.76-1.72,3.76-3.12,6.44-3.12c4.2,0,6.04,2.84,6.04,7.8v12.32h-4.6v-11.72
		c0-3.24-0.92-4.44-3.08-4.44c-1.72,0-2.84,0.84-4.48,2.44v13.72h-4.6V398.84z"/>
	<path class="st7" d="M576.08,398.84h3.8l0.32,2.64h0.16c1.76-1.72,3.76-3.12,6.44-3.12c4.2,0,6.04,2.84,6.04,7.8v12.32h-4.6v-11.72
		c0-3.24-0.92-4.44-3.08-4.44c-1.72,0-2.84,0.84-4.48,2.44v13.72h-4.6V398.84z"/>
	<path class="st7" d="M597.2,408.68c0-6.4,4.44-10.32,9.04-10.32c5.32,0,8.12,3.84,8.12,9.32c0,0.88-0.08,1.76-0.2,2.24h-12.48
		c0.4,3.48,2.64,5.48,5.8,5.48c1.68,0,3.12-0.52,4.56-1.44l1.56,2.88c-1.88,1.24-4.24,2.12-6.72,2.12
		C601.44,418.96,597.2,415.16,597.2,408.68z M610.36,406.8c0-3.04-1.32-4.88-4-4.88c-2.32,0-4.32,1.72-4.72,4.88H610.36z"/>
	<path class="st7" d="M617.48,408.68c0-6.56,4.6-10.32,9.84-10.32c2.52,0,4.32,0.96,5.76,2.2l-2.24,3
		c-1.04-0.92-2.04-1.44-3.28-1.44c-3.16,0-5.36,2.6-5.36,6.56c0,3.92,2.16,6.52,5.24,6.52c1.52,0,2.92-0.76,4.04-1.68l1.88,3.04
		c-1.84,1.6-4.16,2.4-6.4,2.4C621.6,418.96,617.48,415.2,617.48,408.68z"/>
	<path class="st7" d="M637.52,411.84v-9.36h-2.8v-3.44l3.04-0.2l0.56-5.36h3.84v5.36h5v3.64h-5v9.36c0,2.32,0.88,3.44,2.76,3.44
		c0.68,0,1.48-0.2,2.04-0.44l0.8,3.4c-1.08,0.36-2.44,0.72-4,0.72C639.2,418.96,637.52,416.08,637.52,411.84z"/>
	<path class="st7" d="M650.76,392.8c0-1.56,1.2-2.64,2.84-2.64s2.84,1.08,2.84,2.64c0,1.52-1.2,2.6-2.84,2.6
		S650.76,394.32,650.76,392.8z M651.28,398.84h4.6v19.64h-4.6V398.84z"/>
	<path class="st7" d="M660.48,408.68c0-6.56,4.6-10.32,9.84-10.32c2.52,0,4.32,0.96,5.76,2.2l-2.24,3
		c-1.04-0.92-2.04-1.44-3.28-1.44c-3.16,0-5.36,2.6-5.36,6.56c0,3.92,2.16,6.52,5.24,6.52c1.52,0,2.92-0.76,4.04-1.68l1.88,3.04
		c-1.84,1.6-4.16,2.4-6.4,2.4C664.6,418.96,660.48,415.2,660.48,408.68z"/>
	<path class="st7" d="M680.04,411.16v-12.32h4.6v11.72c0,3.24,0.92,4.44,3.04,4.44c1.72,0,2.88-0.8,4.36-2.72v-13.44h4.6v19.64
		h-3.76l-0.36-2.88h-0.12c-1.72,2.04-3.64,3.36-6.32,3.36C681.88,418.96,680.04,416.12,680.04,411.16z"/>
	<path class="st7" d="M703.16,411.84v-9.36h-2.8v-3.44l3.04-0.2l0.56-5.36h3.84v5.36h5v3.64h-5v9.36c0,2.32,0.88,3.44,2.76,3.44
		c0.68,0,1.48-0.2,2.04-0.44l0.8,3.4c-1.08,0.36-2.44,0.72-4,0.72C704.84,418.96,703.16,416.08,703.16,411.84z"/>
	<path class="st7" d="M576.71,431.58h4.2c4.8,0,7.63,2.59,7.63,7.78c0,5.21-2.83,7.92-7.49,7.92h-4.34V431.58z M580.72,445.02
		c3.17,0,4.97-1.8,4.97-5.67c0-3.84-1.8-5.52-4.97-5.52h-1.22v11.19H580.72z"/>
	<path class="st7" d="M591.16,431.87c0-0.94,0.72-1.58,1.7-1.58c0.98,0,1.7,0.65,1.7,1.58c0,0.91-0.72,1.56-1.7,1.56
		C591.88,433.43,591.16,432.78,591.16,431.87z M591.47,435.5h2.76v11.79h-2.76V435.5z"/>
	<path class="st7" d="M596.58,445.94l1.3-1.78c1.06,0.82,2.06,1.32,3.26,1.32c1.27,0,1.87-0.6,1.87-1.42c0-0.98-1.27-1.42-2.52-1.9
		c-1.56-0.58-3.31-1.46-3.31-3.43c0-2.06,1.66-3.53,4.3-3.53c1.63,0,2.95,0.67,3.91,1.42l-1.27,1.68c-0.82-0.6-1.66-1.01-2.59-1.01
		c-1.18,0-1.73,0.55-1.73,1.3c0,0.94,1.18,1.3,2.45,1.75c1.61,0.6,3.38,1.37,3.38,3.58c0,2.02-1.61,3.65-4.58,3.65
		C599.44,447.57,597.73,446.87,596.58,445.94z"/>
	<path class="st7" d="M608.03,443.3v-5.62h-1.68v-2.06l1.82-0.12l0.34-3.22h2.3v3.22h3v2.18h-3v5.62c0,1.39,0.53,2.06,1.66,2.06
		c0.41,0,0.89-0.12,1.22-0.26l0.48,2.04c-0.65,0.22-1.46,0.43-2.4,0.43C609.04,447.57,608.03,445.84,608.03,443.3z"/>
	<path class="st7" d="M616.29,435.5h2.28l0.19,2.09h0.1c0.84-1.54,2.09-2.38,3.34-2.38c0.6,0,0.98,0.07,1.34,0.24l-0.48,2.4
		c-0.41-0.12-0.72-0.19-1.22-0.19c-0.94,0-2.06,0.65-2.78,2.42v7.2h-2.76V435.5z"/>
	<path class="st7" d="M624.92,431.87c0-0.94,0.72-1.58,1.7-1.58c0.98,0,1.7,0.65,1.7,1.58c0,0.91-0.72,1.56-1.7,1.56
		C625.64,433.43,624.92,432.78,624.92,431.87z M625.24,435.5H628v11.79h-2.76V435.5z"/>
	<path class="st7" d="M630.76,441.4c0-3.94,2.76-6.19,5.9-6.19c1.51,0,2.59,0.58,3.46,1.32l-1.34,1.8
		c-0.62-0.55-1.22-0.86-1.97-0.86c-1.9,0-3.22,1.56-3.22,3.94c0,2.35,1.3,3.91,3.14,3.91c0.91,0,1.75-0.46,2.42-1.01l1.13,1.82
		c-1.1,0.96-2.5,1.44-3.84,1.44C633.23,447.57,630.76,445.31,630.76,441.4z"/>
	<path class="st7" d="M642.78,443.3v-5.62h-1.68v-2.06l1.82-0.12l0.34-3.22h2.3v3.22h3v2.18h-3v5.62c0,1.39,0.53,2.06,1.66,2.06
		c0.41,0,0.89-0.12,1.22-0.26l0.48,2.04c-0.65,0.22-1.46,0.43-2.4,0.43C643.79,447.57,642.78,445.84,642.78,443.3z"/>
</g>
</svg>
