<svg xmlns="http://www.w3.org/2000/svg" viewBox="0 0 784.06 507.87"><defs><style>.cls-1{fill:#e6e6e6;}.cls-2,.cls-5{fill:#007dbc;}.cls-2{opacity:0.8;}.cls-3,.cls-4,.cls-6{fill:none;}.cls-3{stroke:#0675af;stroke-linejoin:bevel;stroke-width:0.64px;}.cls-4{fill-rule:evenodd;}.cls-5{opacity:0.8;}.cls-6{stroke:#fff;stroke-miterlimit:10;stroke-width:3px;}.cls-7{fill:#fff;}</style></defs><g id="State"><rect class="cls-1" x="-10.19" y="-9.54" width="804.92" height="529.99"/><polygon class="cls-2" points="153.08 257.29 188.46 257.55 188.43 253.6 200.38 253.49 200.32 241.51 198.38 239.52 204.33 235.67 212.28 225.76 220.76 220.09 228.05 212.02 228.18 207.51 233.72 206.84 241.08 199.52 244.24 199.18 232.58 199.49 229.32 200.97 227.49 206.34 223.1 205.08 223.09 197.52 219.41 198.96 215.13 190.32 210.1 185.32 205.26 184.77 201.44 179.06 201.25 193.44 181.44 193 173.29 202.64 158.37 202.26 153.48 204.08 153.68 219.84 153.08 257.29"/><polygon class="cls-3" points="153.08 257.29 188.46 257.55 188.43 253.6 200.38 253.49 200.32 241.51 198.38 239.52 204.33 235.67 212.28 225.75 220.76 220.08 228.05 212.02 228.18 207.51 233.72 206.84 241.08 199.52 244.24 199.17 232.58 199.49 229.32 200.97 227.49 206.34 223.1 205.08 223.09 197.52 219.41 198.96 215.13 190.32 210.1 185.32 205.26 184.77 201.44 179.06 201.25 193.43 181.44 193 173.29 202.64 158.37 202.26 153.48 204.08 153.68 219.84 153.08 257.29"/><polygon class="cls-2" points="404.46 210.29 404.87 215.44 415.8 215.44 415.27 234.46 423.52 234.49 423.72 224.57 429.87 224.59 429.94 221.97 451.46 222.41 452.08 174 428.36 173.55 428.22 161.43 417.65 162.35 416.61 166.61 408.87 171.14 407.5 181.85 410.34 181.03 410.41 186.27 414.02 193.09 410.87 193.42 407.92 199.66 405.04 199.74 408.51 203.86 404.46 210.29"/><polygon class="cls-3" points="404.46 210.29 404.87 215.43 415.8 215.43 415.27 234.46 423.52 234.49 423.72 224.57 429.87 224.6 429.94 221.97 451.46 222.41 452.08 174 428.36 173.55 428.22 161.43 417.65 162.35 416.61 166.61 408.87 171.14 407.5 181.85 410.34 181.03 410.42 186.26 414.02 193.09 410.87 193.42 407.92 199.66 405.04 199.74 408.51 203.86 404.46 210.29"/><polygon class="cls-2" points="331.17 213.45 343.06 212.11 345.16 214.48 358.11 219.18 366.68 218.38 370.81 215.71 378.65 214.03 384.86 218.87 391.02 219.11 391.13 210.03 404.46 210.29 408.51 203.86 405.04 199.74 407.92 199.66 410.87 193.42 414.02 193.09 410.41 186.27 410.34 181.03 407.5 181.85 408.87 171.14 416.61 166.61 417.65 162.35 391.07 161.88 391.38 149.8 367.63 149.29 367.42 160.08 361.35 162.7 361.14 173.45 332.08 172.85 331.17 213.45"/><polygon class="cls-3" points="331.17 213.45 343.06 212.11 345.16 214.48 358.1 219.18 366.68 218.38 370.81 215.71 378.65 214.03 384.86 218.87 391.02 219.11 391.13 210.03 404.46 210.29 408.51 203.86 405.04 199.74 407.92 199.66 410.87 193.42 414.02 193.09 410.42 186.26 410.34 181.03 407.5 181.85 408.87 171.14 416.61 166.61 417.65 162.35 391.07 161.88 391.38 149.8 367.63 149.29 367.42 160.08 361.35 162.7 361.14 173.45 332.08 172.85 331.17 213.45"/><polygon class="cls-2" points="58.81 70.85 65.43 118.28 106.66 119.49 106.72 117.53 124.79 118.04 126.04 108.05 126.89 72.39 133.2 52.43 119.31 52.07 119.21 56.12 83.29 55.25 82.97 65.3 76.98 65.25 76.85 71.23 58.81 70.85"/><polygon class="cls-3" points="58.81 70.85 65.43 118.27 106.66 119.49 106.72 117.53 124.79 118.04 126.04 108.05 126.89 72.38 133.2 52.43 119.31 52.07 119.21 56.12 83.29 55.25 82.97 65.3 76.98 65.25 76.85 71.23 58.81 70.85"/><polygon class="cls-2" points="249.33 159.07 290.89 160.1 290.66 172.06 316.26 172.71 317.64 124.76 297.73 124.26 297.91 114.22 274.05 113.91 273.9 123.9 253.9 123.35 253.5 147.24 249.47 147.21 249.33 159.07"/><polygon class="cls-3" points="249.33 159.07 290.89 160.1 290.66 172.06 316.26 172.71 317.64 124.76 297.73 124.26 297.91 114.22 274.05 113.91 273.9 123.9 253.9 123.35 253.5 147.24 249.47 147.21 249.33 159.07"/><polygon class="cls-2" points="263.39 490.74 336.83 491.57 332.3 488.11 329.15 479.19 331.89 475.01 329.17 470.88 319.67 464.69 319.48 459 308.01 457.53 305.34 452.69 301.95 455.4 295.11 456.08 291.58 453.35 290.69 448.85 285.93 450.32 284.89 445.04 278.03 442.68 270.65 445.08 259.46 440.76 255.61 442.83 235.01 442.19 233.87 490.34 263.39 490.74"/><polygon class="cls-3" points="263.39 490.74 336.83 491.57 332.3 488.11 329.15 479.18 331.89 475.01 329.17 470.88 319.67 464.69 319.48 459 308.01 457.53 305.34 452.69 301.95 455.4 295.11 456.08 291.57 453.35 290.69 448.85 285.93 450.32 284.89 445.04 278.03 442.68 270.65 445.08 259.46 440.76 255.61 442.83 235.01 442.18 233.87 490.34 263.39 490.74"/><polygon class="cls-2" points="297.91 114.22 297.73 124.26 362.8 125.76 362.92 119.7 359.67 116.67 359.01 111.18 361.43 103.33 356.17 101.21 349.83 94.46 344.02 96.15 339.25 92.83 332.42 94.52 335 89.73 333.44 84.2 337.45 81.62 336.2 77.65 331.92 76.06 328.99 69.46 323.38 70.42 322.66 66.58 322.44 76.79 310.42 76.54 310.17 88.6 298.18 88.33 297.91 114.22"/><polygon class="cls-3" points="297.91 114.22 297.73 124.26 362.8 125.77 362.92 119.7 359.67 116.67 359.01 111.18 361.43 103.34 356.17 101.21 349.83 94.46 344.02 96.15 339.25 92.83 332.42 94.52 335 89.73 333.44 84.2 337.45 81.62 336.2 77.65 331.92 76.05 328.99 69.46 323.38 70.42 322.66 66.58 322.44 76.79 310.42 76.54 310.17 88.6 298.18 88.33 297.91 114.22"/><polygon class="cls-2" points="439.76 222.19 439.47 234.57 443.48 234.58 443.34 240.64 445.36 240.66 445.43 234.58 461.93 235.24 522.76 235.63 523.64 202.26 512.18 202.81 485.22 202.32 451.75 202.26 451.46 222.41 439.76 222.19"/><polygon class="cls-3" points="439.76 222.19 439.47 234.57 443.48 234.58 443.34 240.64 445.36 240.65 445.43 234.58 461.93 235.24 522.76 235.63 523.64 202.26 512.18 202.81 485.22 202.32 451.75 202.26 451.46 222.41 439.76 222.19"/><polygon class="cls-2" points="376.97 93.05 404.67 93.73 404.5 99.87 416.54 100.13 417.49 63.14 417.37 52.98 419.42 51.05 427.49 51.25 427.58 39.11 425.66 33.19 421.81 30.92 421.97 26.66 417.45 26.59 416 19.44 410.95 15.98 406.15 15.9 405.66 38.47 393.17 38.2 393.15 50.36 379.12 49.89 379.03 56.01 381.06 56.09 380.41 62.18 380.14 84.93 377.11 84.88 376.97 93.05"/><polygon class="cls-3" points="376.97 93.05 404.67 93.73 404.5 99.87 416.54 100.13 417.49 63.14 417.37 52.98 419.42 51.05 427.49 51.25 427.58 39.11 425.66 33.19 421.81 30.92 421.97 26.66 417.44 26.59 416 19.44 410.95 15.98 406.15 15.9 405.66 38.47 393.17 38.21 393.15 50.36 379.12 49.89 379.03 56.01 381.06 56.09 380.41 62.18 380.14 84.93 377.11 84.87 376.97 93.05"/><polygon class="cls-2" points="125.25 391.97 125.05 387.34 114.73 373.79 112.78 368.18 114.15 363.3 109.96 347.79 111.64 341.4 109.06 340.05 109.61 332.54 93.35 332.37 67.98 332.72 67.2 366.37 74.58 368.27 78.12 367.43 77.13 372.54 82.47 374.24 83.32 377.22 94.06 385.09 100.09 384.02 99.37 386.83 116.06 387.8 115.96 391.68 125.25 391.97"/><polygon class="cls-3" points="125.25 391.97 125.05 387.34 114.73 373.79 112.78 368.18 114.15 363.29 109.96 347.79 111.64 341.4 109.06 340.05 109.61 332.54 93.35 332.37 67.98 332.72 67.2 366.37 74.58 368.27 78.12 367.42 77.13 372.54 82.47 374.24 83.32 377.22 94.06 385.09 100.09 384.03 99.37 386.83 116.06 387.8 115.96 391.68 125.25 391.97"/><polygon class="cls-2" points="104.9 208.9 105.04 202.91 117.15 203.26 117.45 193.27 111.37 192.98 112.25 161.49 102.89 162.19 105.51 167.83 102.55 170.9 99.39 169.37 95.58 174.08 84.68 173.56 82.14 170.32 81.92 165.21 75.46 160.85 72.33 168.12 70.5 231.56 79.45 227.71 81.5 229.6 94.83 226.84 95.09 214.66 92.58 213.57 104.9 208.9"/><polygon class="cls-3" points="104.9 208.89 105.04 202.91 117.15 203.25 117.45 193.27 111.37 192.98 112.25 161.49 102.89 162.19 105.51 167.84 102.55 170.9 99.39 169.37 95.58 174.08 84.68 173.56 82.14 170.32 81.92 165.21 75.46 160.85 72.33 168.12 70.5 231.56 79.45 227.71 81.5 229.59 94.83 226.84 95.09 214.66 92.58 213.57 104.9 208.89"/><polygon class="cls-2" points="253.9 123.35 273.9 123.9 274.05 113.91 297.91 114.22 298.5 76.31 250.76 75.29 250.87 69.25 238.8 69.06 239.49 75.07 238.06 123.03 253.9 123.35"/><polygon class="cls-3" points="253.9 123.35 273.9 123.9 274.05 113.91 297.91 114.22 298.5 76.31 250.76 75.29 250.87 69.25 238.8 69.06 239.49 75.07 238.06 123.03 253.9 123.35"/><polygon class="cls-2" points="69.74 259.51 85.17 259.85 85.07 263.82 118.6 264.48 118.6 265.74 128.47 266.17 128.42 268.15 134.29 268.19 135.17 261.73 145.09 260.96 145.1 258.99 153.08 257.29 153.68 219.84 112.32 218.9 112.39 215.15 104.76 214.92 104.9 208.9 92.58 213.57 95.09 214.66 94.83 226.84 81.5 229.6 79.45 227.71 70.5 231.56 69.74 259.51"/><polygon class="cls-3" points="69.74 259.51 85.17 259.85 85.07 263.82 118.6 264.48 118.6 265.74 128.47 266.17 128.42 268.14 134.29 268.19 135.17 261.73 145.09 260.95 145.1 258.99 153.08 257.29 153.68 219.84 112.32 218.9 112.39 215.15 104.76 214.92 104.9 208.89 92.58 213.57 95.09 214.66 94.83 226.84 81.5 229.59 79.45 227.71 70.5 231.56 69.74 259.51"/><polygon class="cls-2" points="224.18 253.67 236.05 253.61 235.99 265.52 234.85 272.01 246.54 272.3 246.38 278.28 254.1 278.38 255.94 282.24 255.75 290.18 261.9 290.22 261.84 294.21 267.87 294.33 267.74 302.25 274.66 302.47 278.6 296.7 299.26 297.2 299.38 291.24 317.05 291.55 317.23 279.67 305.51 279.48 305.74 273.59 294.73 273.41 294.94 267.27 288.54 267.04 282.76 264.9 283 255.06 271.31 254.67 271.66 242.78 261.74 242.54 261.65 246.03 251.66 242.29 224.33 241.91 224.18 253.67"/><polygon class="cls-3" points="224.18 253.67 236.05 253.61 235.99 265.52 234.85 272.01 246.54 272.3 246.38 278.28 254.1 278.38 255.94 282.24 255.75 290.18 261.9 290.22 261.84 294.21 267.87 294.33 267.74 302.25 274.66 302.47 278.6 296.7 299.26 297.2 299.38 291.24 317.05 291.55 317.23 279.67 305.51 279.48 305.74 273.59 294.73 273.41 294.94 267.27 288.54 267.04 282.76 264.9 283 255.06 271.31 254.67 271.66 242.78 261.74 242.54 261.65 246.03 251.66 242.29 224.33 241.91 224.18 253.67"/><polygon class="cls-2" points="410.95 15.98 416 19.44 417.45 26.59 421.97 26.66 421.81 30.92 425.66 33.19 427.58 39.11 427.55 49.25 431.09 53.84 438.31 56.47 440.7 61.95 447.28 64.1 449.41 68.52 451.47 64.03 477.83 64.28 478.22 45.07 484.36 46.19 484.7 27.71 481.2 24.27 482.33 17.63 480.67 15.79 410.95 15.98"/><polygon class="cls-3" points="410.95 15.98 416 19.44 417.44 26.59 421.97 26.66 421.81 30.92 425.66 33.19 427.58 39.11 427.55 49.25 431.09 53.84 438.3 56.47 440.7 61.95 447.28 64.1 449.41 68.52 451.47 64.03 477.83 64.28 478.22 45.07 484.36 46.19 484.7 27.7 481.2 24.27 482.33 17.63 480.67 15.79 410.95 15.98"/><polygon class="cls-2" points="261.74 242.54 271.66 242.78 271.31 254.67 283 255.06 282.76 264.9 288.54 267.04 294.94 267.27 294.73 273.41 305.74 273.59 305.51 279.48 317.23 279.67 317.05 291.55 341.21 292.11 341.26 274.16 331.88 273.94 334.11 261.98 335.77 259.35 336.64 220.92 319.1 220.55 318.83 232.42 297.62 231.86 294.21 235.71 295.05 240.49 290.43 229.24 283.63 228.91 283.59 231.24 272.04 230.84 271.8 234.83 260.19 234.66 259.99 242.51 261.74 242.54"/><polygon class="cls-3" points="261.74 242.54 271.66 242.78 271.31 254.67 283 255.06 282.76 264.9 288.54 267.04 294.94 267.27 294.73 273.41 305.74 273.59 305.51 279.48 317.23 279.67 317.05 291.55 341.21 292.11 341.26 274.16 331.88 273.94 334.11 261.98 335.77 259.35 336.64 220.92 319.1 220.55 318.83 232.42 297.62 231.86 294.21 235.71 295.05 240.49 290.43 229.24 283.63 228.91 283.59 231.24 272.04 230.84 271.8 234.83 260.19 234.66 259.99 242.51 261.74 242.54"/><polygon class="cls-2" points="380.62 293.13 389.83 293.29 389.97 281.45 414.23 282.04 414.31 278.05 406.39 275.82 406.47 267.9 414.57 268.09 415.73 240.52 417.96 240.07 415.27 234.46 415.8 215.44 404.87 215.44 404.46 210.29 391.13 210.03 391.02 219.11 384.86 218.87 378.65 214.03 370.81 215.71 366.68 218.38 366.52 233.24 378.86 233.5 378.07 267.26 385.04 273.52 382.06 279.81 385.47 284.29 381.79 287.7 380.62 293.13"/><polygon class="cls-3" points="380.62 293.12 389.83 293.29 389.97 281.45 414.23 282.04 414.31 278.05 406.39 275.82 406.47 267.9 414.57 268.09 415.73 240.52 417.96 240.07 415.27 234.46 415.8 215.43 404.87 215.43 404.46 210.29 391.13 210.03 391.02 219.11 384.86 218.87 378.65 214.03 370.81 215.71 366.68 218.38 366.52 233.24 378.86 233.5 378.07 267.26 385.04 273.52 382.06 279.81 385.47 284.29 381.79 287.7 380.62 293.12"/><polygon class="cls-2" points="199.13 177.69 201.44 179.06 205.26 184.77 210.1 185.32 215.13 190.32 219.41 198.96 223.09 197.52 223.1 205.08 227.49 206.34 229.32 200.97 232.58 199.49 248.84 198.89 249.47 147.21 253.5 147.24 253.9 123.35 214.19 122.47 213.82 140.53 207.84 140.37 207.57 158.3 199.47 158.12 199.13 177.69"/><polygon class="cls-3" points="199.13 177.69 201.44 179.06 205.26 184.77 210.1 185.32 215.13 190.32 219.41 198.96 223.09 197.52 223.1 205.08 227.49 206.34 229.32 200.97 232.58 199.49 248.84 198.89 249.47 147.21 253.5 147.24 253.9 123.35 214.19 122.47 213.82 140.53 207.84 140.37 207.57 158.3 199.47 158.12 199.13 177.69"/><polygon class="cls-2" points="93.35 332.37 93.33 321.94 91.97 321.96 92.12 310.28 127.87 311.01 128.47 266.17 118.6 265.74 118.6 264.48 85.07 263.82 85.17 259.85 69.74 259.51 67.98 332.72 93.35 332.37"/><polygon class="cls-3" points="93.35 332.37 93.33 321.94 91.97 321.96 92.12 310.28 127.87 311.01 128.47 266.17 118.6 265.74 118.6 264.48 85.07 263.82 85.17 259.85 69.74 259.51 67.98 332.72 93.35 332.37"/><polygon class="cls-2" points="452.12 161.82 464.24 161.97 500.11 161.02 512.25 162 536.35 162.42 536.4 126.45 512.45 125.43 499.81 125.85 452.39 125.25 452.12 161.82"/><polygon class="cls-3" points="452.12 161.82 464.24 161.97 500.11 161.02 512.25 161.99 536.35 162.42 536.4 126.45 512.45 125.43 499.81 125.85 452.39 125.25 452.12 161.82"/><polygon class="cls-2" points="140.45 357.19 148.7 357.49 173.4 366.06 181.47 364.21 190.8 364.19 190.15 360.23 184.03 351.71 180.92 330.56 176.38 329.44 176.45 324.06 178.82 324.13 179.02 312.26 149.4 311.28 127.87 311.01 127.69 322.79 129.12 322.82 128.93 333.18 140.72 333.54 140.45 357.19"/><polygon class="cls-3" points="140.45 357.19 148.7 357.49 173.4 366.06 181.47 364.21 190.8 364.18 190.15 360.23 184.03 351.71 180.92 330.56 176.38 329.44 176.45 324.07 178.82 324.13 179.02 312.26 149.4 311.28 127.87 311.01 127.69 322.79 129.12 322.82 128.93 333.18 140.72 333.54 140.45 357.19"/><polygon class="cls-2" points="461.55 342.34 466.61 336.02 473.64 339.89 478.12 336.26 477.07 333.65 469.08 333.79 463.59 326.57 473.57 330.47 475.2 322.64 482.82 320.45 485.54 316.92 482.82 312 483.83 308.68 492.73 308.12 490.89 314.74 494.89 314.11 494.77 307.54 503.48 302.81 505.07 300.24 502.45 292.73 507.38 282.06 503.37 276.5 503.2 271.44 450.72 270.85 450.4 294.62 456.48 294.81 456.25 312.88 450.23 312.84 447.67 324.61 449.75 329.08 445.97 334.48 447.05 339.33 443.33 342.3 461.55 342.34"/><polygon class="cls-3" points="461.55 342.34 466.61 336.02 473.64 339.89 478.12 336.26 477.07 333.65 469.08 333.79 463.59 326.57 473.57 330.47 475.2 322.64 482.82 320.45 485.54 316.92 482.82 312 483.83 308.68 492.73 308.12 490.89 314.74 494.89 314.1 494.77 307.54 503.48 302.81 505.07 300.24 502.45 292.73 507.38 282.06 503.37 276.5 503.2 271.44 450.72 270.85 450.4 294.62 456.48 294.81 456.25 312.88 450.23 312.84 447.67 324.61 449.75 329.07 445.97 334.48 447.05 339.33 443.33 342.3 461.55 342.34"/><polygon class="cls-2" points="200.38 253.49 224.18 253.67 224.33 241.91 251.66 242.29 261.65 246.03 261.74 242.54 259.99 242.51 260.19 234.66 271.8 234.83 272.04 230.84 283.59 231.24 283.63 228.91 278.69 225.76 278.11 220.92 282.06 217.38 284.05 211.7 282.46 207.03 276.3 211.59 272.38 212.08 274.76 207.64 268.95 211.8 264.37 212.73 228.05 212.02 220.76 220.09 212.28 225.76 204.33 235.67 198.38 239.52 200.32 241.51 200.38 253.49"/><polygon class="cls-3" points="200.38 253.49 224.18 253.67 224.33 241.91 251.66 242.29 261.65 246.03 261.74 242.54 259.99 242.51 260.19 234.66 271.8 234.83 272.04 230.84 283.59 231.24 283.63 228.91 278.69 225.75 278.11 220.92 282.06 217.38 284.05 211.7 282.46 207.03 276.3 211.59 272.38 212.08 274.76 207.64 268.95 211.8 264.37 212.73 228.05 212.02 220.76 220.08 212.28 225.75 204.33 235.67 198.38 239.52 200.32 241.51 200.38 253.49"/><polygon class="cls-2" points="219.57 432.05 219.28 441.78 255.61 442.83 259.46 440.76 270.65 445.08 278.03 442.68 281.06 443.54 279.01 439.41 271.43 434.58 265.62 434.96 264.37 428.19 258.78 426.5 259.55 421.6 264.88 416.32 263.13 405.86 271.47 404.13 279.07 393.91 279.28 385.08 244.52 384.04 241.77 382.46 233.39 388.42 229.07 389.37 224.66 386.91 220.93 388.47 219.57 432.05"/><polygon class="cls-3" points="219.57 432.05 219.28 441.78 255.61 442.83 259.46 440.76 270.65 445.08 278.03 442.68 281.06 443.54 279.01 439.41 271.43 434.58 265.62 434.95 264.37 428.19 258.78 426.5 259.55 421.6 264.88 416.32 263.13 405.86 271.47 404.13 279.07 393.91 279.28 385.07 244.52 384.04 241.77 382.46 233.39 388.42 229.07 389.37 224.66 386.91 220.93 388.47 219.57 432.05"/><polygon class="cls-2" points="174.47 117.68 174.43 121.7 238.06 123.03 239.49 75.07 238.8 69.06 178.91 67.67 178.84 73.73 182.71 73.83 182.14 89.5 176.07 95.35 173.98 101.37 174.47 117.68"/><polygon class="cls-3" points="174.47 117.68 174.43 121.7 238.06 123.03 239.49 75.07 238.8 69.06 178.91 67.67 178.84 73.73 182.71 73.82 182.14 89.5 176.07 95.34 173.98 101.38 174.47 117.68"/><polygon class="cls-2" points="191.67 433.17 207.83 433.72 207.86 431.76 219.57 432.05 220.93 388.47 217.01 383.38 212.52 385.35 210.38 382.64 200.07 379.29 197.75 370.95 190.8 364.19 181.47 364.21 181 382 179.85 381.98 178.41 432.81 191.67 433.17"/><polygon class="cls-3" points="191.67 433.17 207.83 433.72 207.86 431.76 219.57 432.05 220.93 388.47 217.01 383.38 212.52 385.35 210.38 382.64 200.07 379.3 197.75 370.94 190.8 364.18 181.47 364.21 181 382 179.85 381.98 178.41 432.81 191.67 433.17"/><polygon class="cls-2" points="179.02 312.26 186.91 312.45 187.57 265.48 188.46 257.55 153.08 257.29 145.1 258.99 145.09 260.96 135.17 261.73 134.29 268.19 128.42 268.15 127.87 311.01 149.4 311.28 179.02 312.26"/><polygon class="cls-3" points="179.02 312.26 186.91 312.45 187.57 265.48 188.46 257.55 153.08 257.29 145.1 258.99 145.09 260.95 135.17 261.73 134.29 268.19 128.42 268.14 127.87 311.01 149.4 311.28 179.02 312.26"/><polygon class="cls-2" points="414.23 282.04 423.89 282.27 422.82 285.75 427.24 286.97 427.02 290.41 433.11 292.95 432.05 298.3 436.97 297.4 444.46 310.56 450.23 312.84 456.25 312.88 456.48 294.81 450.4 294.62 451.01 258.82 445.07 258.71 445.36 240.66 443.34 240.64 443.48 234.58 439.47 234.57 439.76 222.19 429.94 221.97 429.87 224.59 423.72 224.57 423.52 234.49 415.27 234.46 417.96 240.07 415.73 240.52 414.57 268.09 406.47 267.9 406.39 275.82 414.31 278.05 414.23 282.04"/><polygon class="cls-3" points="414.23 282.04 423.89 282.27 422.82 285.75 427.24 286.97 427.02 290.41 433.11 292.95 432.05 298.3 436.97 297.4 444.46 310.57 450.23 312.84 456.25 312.88 456.48 294.81 450.4 294.62 451.01 258.82 445.07 258.71 445.36 240.65 443.34 240.64 443.48 234.58 439.47 234.57 439.76 222.19 429.94 221.97 429.87 224.6 423.72 224.57 423.52 234.49 415.27 234.46 417.96 240.07 415.73 240.52 414.57 268.09 406.47 267.9 406.39 275.82 414.31 278.05 414.23 282.04"/><polygon class="cls-2" points="536.13 85.51 536.35 162.42 552.79 162.7 555.18 158.34 558.98 156.9 562.42 169.19 563.85 168.19 566.39 158.82 562.87 151.72 564.05 147.38 569.68 145.72 573.39 150.46 577.68 152.04 578.6 148.77 575.06 146.19 574.34 140.2 584.55 135.48 584.4 130.81 576.4 132.09 573.45 127.74 574.06 121.13 578.86 118.19 582.32 121.2 588.52 118.62 592.93 111.94 601.59 109.94 601.04 107.27 595.2 104.75 594.73 100.03 600.42 97.97 604.66 100.81 608.27 98.22 607 95.26 599.98 89.39 598.38 84.92 536.13 85.51"/><polygon class="cls-3" points="536.13 85.51 536.35 162.42 552.79 162.7 555.18 158.34 558.98 156.9 562.42 169.19 563.85 168.19 566.39 158.82 562.86 151.72 564.05 147.38 569.68 145.72 573.39 150.46 577.68 152.04 578.6 148.77 575.06 146.19 574.34 140.2 584.55 135.48 584.39 130.81 576.4 132.09 573.45 127.73 574.06 121.13 578.86 118.19 582.32 121.2 588.51 118.62 592.93 111.94 601.59 109.94 601.04 107.27 595.2 104.75 594.73 100.03 600.42 97.97 604.66 100.81 608.27 98.22 607 95.26 599.98 89.39 598.38 84.92 536.13 85.51"/><polygon class="cls-2" points="115.78 418.7 115.83 490.1 142.48 490.07 136.27 480.3 137.42 473.25 148.61 468.09 153.95 459.8 151.81 454.06 154.72 455.95 154.3 450.86 158.08 448.23 153.34 446.9 154.54 442.74 150.5 436.34 151.66 428.14 148.19 423.52 146.09 425.92 142.97 417.03 140.03 415.42 140.13 410.96 135.84 410.88 132.1 416.08 127.92 414.99 127.47 419.3 124.29 414.83 122.89 420.86 119.5 416.98 115.78 418.7"/><polygon class="cls-3" points="115.78 418.7 115.83 490.1 142.48 490.07 136.27 480.3 137.42 473.25 148.61 468.09 153.95 459.8 151.81 454.06 154.72 455.95 154.3 450.86 158.08 448.23 153.34 446.9 154.54 442.73 150.5 436.34 151.66 428.14 148.19 423.52 146.09 425.92 142.97 417.03 140.03 415.42 140.13 410.96 135.84 410.88 132.1 416.08 127.92 414.99 127.47 419.3 124.29 414.83 122.89 420.86 119.5 416.98 115.78 418.7"/><polygon class="cls-2" points="244.84 69.2 250.87 69.25 250.76 75.29 298.5 76.31 298.45 62.54 295.1 62.25 290.79 57.37 293.13 55.2 292.05 50.11 283.76 47.69 285.97 43.61 278.16 35.3 284.87 31.36 285.33 15.78 248.95 15.89 248.87 20.51 245.48 16.85 244.84 69.2"/><polygon class="cls-3" points="244.84 69.2 250.87 69.25 250.76 75.29 298.5 76.31 298.45 62.54 295.1 62.25 290.79 57.37 293.13 55.2 292.05 50.11 283.76 47.69 285.97 43.61 278.16 35.3 284.87 31.36 285.33 15.78 248.95 15.89 248.87 20.51 245.48 16.85 244.84 69.2"/><polygon class="cls-2" points="124.79 118.04 130.63 118.19 130.65 116.2 174.47 117.68 173.98 101.37 176.07 95.35 182.14 89.5 182.71 73.83 178.84 73.73 178.91 67.67 170.91 67.53 170.94 63.53 167.05 63.43 167.12 59.27 163.19 57.12 163.39 49.11 158.51 46.9 158.98 42.97 135.3 42.36 135.24 52.46 133.2 52.43 126.89 72.39 126.04 108.05 124.79 118.04"/><polygon class="cls-3" points="124.79 118.04 130.63 118.19 130.65 116.21 174.47 117.68 173.98 101.38 176.07 95.34 182.14 89.5 182.71 73.82 178.84 73.73 178.91 67.67 170.91 67.53 170.95 63.53 167.05 63.43 167.12 59.27 163.19 57.12 163.39 49.11 158.51 46.9 158.98 42.97 135.3 42.36 135.24 52.45 133.2 52.43 126.89 72.38 126.04 108.05 124.79 118.04"/><polygon class="cls-2" points="341.21 292.11 380.62 293.13 381.79 287.7 385.47 284.29 382.06 279.81 385.04 273.52 378.07 267.26 378.86 233.5 366.52 233.24 366.68 218.38 358.11 219.18 345.16 214.48 343.06 212.11 331.17 213.45 330.99 220.86 336.64 220.92 335.77 259.35 334.11 261.98 331.88 273.94 341.26 274.16 341.21 292.11"/><polygon class="cls-3" points="341.21 292.11 380.62 293.12 381.79 287.7 385.47 284.29 382.06 279.81 385.04 273.52 378.07 267.26 378.86 233.5 366.52 233.24 366.68 218.38 358.1 219.18 345.16 214.48 343.06 212.11 331.17 213.45 330.99 220.86 336.64 220.92 335.77 259.35 334.11 261.98 331.88 273.94 341.26 274.16 341.21 292.11"/><polygon class="cls-2" points="104.9 208.9 104.76 214.92 112.39 215.15 112.32 218.9 153.68 219.84 153.48 204.08 158.37 202.26 173.29 202.64 181.44 193 201.25 193.44 201.44 179.06 195.33 175.77 185.81 177.77 186.21 172.49 184.41 164.47 180.76 164.4 177.23 168.15 173.59 166.57 166.03 169.96 158.64 167.19 153.11 171.12 148.76 172.6 142.27 163.6 141.9 179.65 129.92 178.84 129.57 191.13 117.47 190.89 117.15 203.26 105.04 202.91 104.9 208.9"/><polygon class="cls-3" points="104.9 208.89 104.76 214.92 112.39 215.15 112.32 218.9 153.68 219.84 153.48 204.08 158.37 202.26 173.29 202.64 181.44 193 201.25 193.43 201.44 179.06 195.33 175.77 185.81 177.77 186.21 172.49 184.41 164.47 180.76 164.4 177.23 168.15 173.59 166.57 166.03 169.96 158.64 167.19 153.11 171.12 148.76 172.6 142.27 163.6 141.9 179.66 129.92 178.85 129.57 191.13 117.47 190.89 117.15 203.25 105.04 202.91 104.9 208.89"/><polygon class="cls-2" points="66.24 407.19 77.03 419.45 81.05 419.81 81.96 416.68 85.98 418.78 88.89 414.72 89.75 417.93 96.1 418.19 100 413.01 104.14 416.96 111.41 415.55 115.78 418.7 119.5 416.98 122.89 420.86 124.29 414.83 127.47 419.3 127.92 414.99 132.1 416.08 135.84 410.88 140.13 410.96 134.84 407.7 129.97 408.27 124.49 402.92 126.09 397.88 125.42 391.99 115.96 391.68 116.06 387.8 99.37 386.83 100.09 384.02 94.06 385.09 83.32 377.22 82.47 374.24 77.13 372.54 78.12 367.43 74.58 368.27 67.2 366.37 66.24 407.19"/><polygon class="cls-3" points="66.24 407.19 77.03 419.45 81.05 419.81 81.96 416.68 85.98 418.78 88.89 414.72 89.75 417.93 96.1 418.19 100 413.01 104.14 416.97 111.41 415.55 115.78 418.7 119.5 416.98 122.89 420.86 124.29 414.83 127.47 419.3 127.92 414.99 132.1 416.08 135.84 410.88 140.13 410.96 134.84 407.7 129.97 408.27 124.49 402.92 126.09 397.88 125.42 391.99 115.96 391.68 116.06 387.8 99.37 386.83 100.09 384.03 94.06 385.09 83.32 377.22 82.47 374.24 77.13 372.54 78.12 367.42 74.58 368.27 67.2 366.37 66.24 407.19"/><polygon class="cls-2" points="347.25 386.48 382.22 386.42 394.1 387.61 395.1 361.53 404.39 361.66 404.45 357.75 409.32 356.44 406.64 347.57 399.8 348.34 394.73 344.07 389.1 346.49 389.06 342.46 378.86 335.32 375.1 334.86 375.18 349.58 373.12 345.69 349.76 345.77 349.81 361.47 347.21 361.46 347.25 386.48"/><polygon class="cls-3" points="347.25 386.48 382.22 386.42 394.1 387.61 395.1 361.53 404.39 361.66 404.45 357.74 409.32 356.44 406.64 347.57 399.8 348.34 394.73 344.07 389.1 346.49 389.06 342.46 378.86 335.32 375.1 334.86 375.18 349.58 373.12 345.69 349.76 345.77 349.81 361.47 347.21 361.46 347.25 386.48"/><polygon class="cls-2" points="445.36 240.66 445.07 258.71 451.01 258.82 450.72 270.85 503.2 271.44 502.62 267.41 507.85 265.16 507.27 272.84 510.59 272.87 516.7 265.15 514.46 263.24 507.35 263.18 504.96 260.29 508.55 256.64 507.15 252.67 510.87 249.59 512.35 253.27 510.25 259.12 517.83 258.03 515.62 249.49 517.34 246.64 514.32 241.47 516.3 237.42 519.42 238.29 520.49 244.19 522.82 245.34 522.76 235.63 461.93 235.24 445.43 234.58 445.36 240.66"/><polygon class="cls-3" points="445.36 240.65 445.07 258.71 451.01 258.82 450.72 270.85 503.2 271.44 502.62 267.41 507.85 265.16 507.27 272.84 510.59 272.87 516.7 265.15 514.46 263.24 507.35 263.18 504.96 260.29 508.55 256.64 507.15 252.67 510.87 249.59 512.35 253.27 510.25 259.12 517.83 258.03 515.62 249.5 517.34 246.64 514.32 241.47 516.3 237.42 519.42 238.29 520.49 244.19 522.82 245.33 522.76 235.63 461.93 235.24 445.43 234.58 445.36 240.65"/><polygon class="cls-2" points="416.54 100.13 434.3 100.21 470.77 101.47 470.84 95.46 473.08 89.43 472.39 86.31 476.61 73.94 482.24 69.77 484.51 64.37 451.47 64.03 449.41 68.52 447.28 64.1 440.7 61.95 438.31 56.47 431.09 53.84 427.55 49.25 427.49 51.25 419.42 51.05 417.37 52.98 417.49 63.14 416.54 100.13"/><polygon class="cls-3" points="416.54 100.13 434.3 100.21 470.77 101.47 470.84 95.46 473.08 89.43 472.39 86.31 476.61 73.94 482.24 69.77 484.51 64.37 451.47 64.03 449.41 68.52 447.28 64.1 440.7 61.95 438.3 56.47 431.09 53.84 427.55 49.25 427.49 51.25 419.42 51.05 417.37 52.98 417.49 63.14 416.54 100.13"/><polygon class="cls-2" points="142.48 490.07 177.69 490.21 178.66 457.9 183.12 458.14 184.55 450.47 191.67 433.17 178.41 432.81 178.51 428.93 151.66 428.14 150.5 436.34 154.54 442.74 153.34 446.9 158.08 448.23 154.3 450.86 154.72 455.95 151.81 454.06 153.95 459.8 148.61 468.09 137.42 473.25 136.27 480.3 142.48 490.07"/><polygon class="cls-3" points="142.48 490.07 177.69 490.21 178.66 457.9 183.12 458.14 184.55 450.47 191.67 433.17 178.41 432.81 178.51 428.93 151.66 428.14 150.5 436.34 154.54 442.73 153.34 446.9 158.08 448.23 154.3 450.86 154.72 455.95 151.81 454.06 153.95 459.8 148.61 468.09 137.42 473.25 136.27 480.3 142.48 490.07"/><polygon class="cls-2" points="199.13 177.69 199.47 158.12 207.57 158.3 207.84 140.37 213.82 140.53 214.19 122.47 174.43 121.7 174.47 117.68 154.68 116.98 153.11 171.12 158.64 167.19 166.03 169.96 173.59 166.57 177.23 168.15 180.76 164.4 184.41 164.47 186.21 172.49 185.81 177.77 195.33 175.77 199.13 177.69"/><polygon class="cls-3" points="199.13 177.69 199.47 158.12 207.57 158.3 207.84 140.37 213.82 140.53 214.19 122.47 174.43 121.7 174.47 117.68 154.68 116.98 153.11 171.12 158.64 167.19 166.03 169.96 173.59 166.57 177.23 168.15 180.76 164.4 184.41 164.47 186.21 172.49 185.81 177.77 195.33 175.77 199.13 177.69"/><polygon class="cls-2" points="349.74 349.72 349.76 345.77 373.12 345.69 375.18 349.58 375.1 334.86 378.86 335.32 389.06 342.46 389.1 346.49 394.73 344.07 399.8 348.34 406.64 347.57 406.95 341.43 398.76 338.75 395.99 328.01 376.84 326.76 377.57 293.02 321.28 291.64 320.73 327.25 318.54 327.18 318.44 349.98 349.74 349.72"/><polygon class="cls-3" points="349.74 349.72 349.76 345.77 373.12 345.69 375.18 349.58 375.1 334.86 378.86 335.32 389.06 342.46 389.1 346.49 394.73 344.07 399.8 348.34 406.64 347.57 406.95 341.43 398.76 338.75 395.99 328.01 376.84 326.76 377.57 293.02 321.28 291.64 320.73 327.25 318.54 327.18 318.44 349.98 349.74 349.72"/><polygon class="cls-2" points="417.65 162.35 428.22 161.43 428.36 173.55 452.08 174 452.39 125.25 452.89 100.89 434.3 100.21 430.51 110.89 424.23 115.22 417.54 123.81 416.96 129.36 420.13 135.12 415.24 134.71 415.15 150.35 391.38 149.8 391.07 161.88 417.65 162.35"/><polygon class="cls-3" points="417.65 162.35 428.22 161.43 428.36 173.55 452.08 174 452.39 125.25 452.89 100.89 434.3 100.21 430.51 110.89 424.23 115.22 417.54 123.81 416.96 129.36 420.13 135.12 415.24 134.71 415.15 150.35 391.38 149.8 391.07 161.88 417.65 162.35"/><polygon class="cls-2" points="322.66 66.58 323.38 70.42 328.99 69.46 331.92 76.06 336.2 77.65 337.45 81.62 333.44 84.2 335 89.73 332.42 94.52 339.25 92.83 344.02 96.15 349.83 94.46 356.17 101.21 361.43 103.33 372.18 92.91 376.97 93.05 377.11 84.88 380.14 84.93 380.41 62.18 381.06 56.09 379.03 56.01 379.12 49.89 326.99 48.79 326.67 60.92 320.62 60.74 320.47 66.52 322.66 66.58"/><polygon class="cls-3" points="322.66 66.58 323.38 70.42 328.99 69.46 331.92 76.05 336.2 77.65 337.45 81.62 333.44 84.2 335 89.73 332.42 94.52 339.25 92.83 344.02 96.15 349.83 94.46 356.17 101.21 361.43 103.34 372.18 92.91 376.97 93.05 377.11 84.87 380.14 84.93 380.41 62.18 381.06 56.09 379.03 56.01 379.12 49.89 326.99 48.79 326.67 60.92 320.62 60.74 320.47 66.52 322.66 66.58"/><polygon class="cls-2" points="362.8 125.76 368.1 124.83 367.63 149.29 415.15 150.35 415.24 134.71 420.13 135.12 416.96 129.36 417.54 123.81 424.23 115.22 430.51 110.89 434.3 100.21 404.5 99.87 404.67 93.73 372.18 92.91 361.43 103.33 359.01 111.18 359.67 116.67 362.92 119.7 362.8 125.76"/><polygon class="cls-3" points="362.8 125.77 368.1 124.83 367.63 149.29 415.15 150.35 415.24 134.71 420.13 135.12 416.96 129.36 417.54 123.81 424.23 115.22 430.51 110.89 434.3 100.21 404.5 99.87 404.67 93.73 372.18 92.91 361.43 103.34 359.01 111.18 359.67 116.67 362.92 119.7 362.8 125.77"/><polygon class="cls-2" points="93.35 332.37 109.61 332.54 109.06 340.05 111.64 341.4 109.96 347.79 114.15 363.3 112.78 368.18 114.73 373.79 125.05 387.34 125.25 391.97 139.51 392.42 140.72 333.54 128.93 333.18 129.12 322.82 127.69 322.79 127.87 311.01 92.12 310.28 91.97 321.96 93.33 321.94 93.35 332.37"/><polygon class="cls-3" points="93.35 332.37 109.61 332.54 109.06 340.05 111.64 341.4 109.96 347.79 114.15 363.29 112.78 368.18 114.73 373.79 125.05 387.34 125.25 391.97 139.51 392.42 140.72 333.54 128.93 333.18 129.12 322.82 127.69 322.79 127.87 311.01 92.12 310.28 91.97 321.96 93.33 321.94 93.35 332.37"/><polygon class="cls-2" points="186.91 312.45 192.77 312.56 192.66 320.48 210.4 320.88 210.28 324.84 222.52 325.16 228.72 326.41 227.78 334.02 229.74 336.76 268.61 338.17 269.7 302.32 267.74 302.25 267.87 294.33 261.84 294.21 261.9 290.22 242.11 289.84 242.29 297.67 238.44 297.58 238.41 305.7 187.01 304.66 186.91 312.45"/><polygon class="cls-3" points="186.91 312.45 192.77 312.56 192.66 320.48 210.4 320.88 210.28 324.84 222.52 325.16 228.72 326.41 227.78 334.02 229.74 336.76 268.61 338.17 269.7 302.32 267.74 302.25 267.87 294.33 261.84 294.21 261.9 290.22 242.11 289.84 242.29 297.67 238.44 297.58 238.41 305.69 187.01 304.66 186.91 312.45"/><polygon class="cls-2" points="140.13 410.96 140.03 415.42 142.97 417.03 146.09 425.92 148.19 423.52 151.66 428.14 178.51 428.93 179.85 381.98 181 382 181.47 364.21 173.4 366.06 148.7 357.49 140.45 357.19 139.51 392.42 125.42 391.99 126.09 397.88 124.49 402.92 129.97 408.27 134.84 407.7 140.13 410.96"/><polygon class="cls-3" points="140.13 410.96 140.03 415.42 142.97 417.03 146.09 425.92 148.19 423.52 151.66 428.14 178.51 428.93 179.85 381.98 181 382 181.47 364.21 173.4 366.06 148.7 357.49 140.45 357.19 139.51 392.42 125.42 391.99 126.09 397.88 124.49 402.92 129.97 408.27 134.84 407.7 140.13 410.96"/><polygon class="cls-2" points="526.18 85.59 535.68 69.16 542.59 64.59 543.86 59.37 547.21 57.08 532.54 57.2 532.69 49.05 516.76 48.97 488.33 47.85 478.19 48 477.83 64.28 484.51 64.37 482.24 69.77 476.61 73.94 472.39 86.31 473.08 89.43 525.12 89.88 526.18 85.59"/><polygon class="cls-3" points="526.18 85.59 535.68 69.16 542.59 64.59 543.86 59.37 547.21 57.08 532.54 57.2 532.69 49.05 516.76 48.97 488.33 47.85 478.19 48 477.83 64.28 484.51 64.37 482.24 69.77 476.61 73.94 472.39 86.31 473.08 89.43 525.12 89.88 526.18 85.59"/><polygon class="cls-2" points="306.88 350.34 318.44 349.98 318.54 327.18 320.73 327.25 321.28 291.64 299.38 291.24 299.26 297.2 278.6 296.7 274.66 302.47 269.7 302.32 268.61 338.17 289.3 338.9 300.8 344.54 306.88 350.34"/><polygon class="cls-3" points="306.88 350.34 318.44 349.98 318.54 327.18 320.73 327.25 321.28 291.64 299.38 291.24 299.26 297.2 278.6 296.7 274.66 302.47 269.7 302.32 268.61 338.17 289.3 338.9 300.8 344.54 306.88 350.34"/><polygon class="cls-2" points="255.75 290.18 255.94 282.24 254.1 278.38 246.38 278.28 246.54 272.3 234.85 272.01 235.99 265.52 236.05 253.61 188.43 253.6 188.46 257.55 187.57 265.48 187.01 304.66 238.41 305.7 238.44 297.58 242.29 297.67 242.11 289.84 255.75 290.18"/><polygon class="cls-3" points="255.75 290.18 255.94 282.24 254.1 278.38 246.38 278.28 246.54 272.3 234.85 272.01 235.99 265.52 236.05 253.61 188.43 253.6 188.46 257.55 187.57 265.48 187.01 304.66 238.41 305.69 238.44 297.58 242.29 297.67 242.11 289.84 255.75 290.18"/><polygon class="cls-2" points="326.99 48.79 393.15 50.36 393.17 38.2 405.66 38.47 406.15 15.9 327.74 15.78 326.99 48.79"/><polygon class="cls-3" points="326.99 48.79 393.15 50.36 393.17 38.21 405.66 38.47 406.15 15.9 327.74 15.78 326.99 48.79"/><polygon class="cls-2" points="112.25 161.49 111.37 192.98 117.45 193.27 117.47 190.89 129.57 191.13 129.92 178.84 141.9 179.65 142.27 163.6 148.76 172.6 153.11 171.12 154.68 116.98 130.65 116.2 130.55 122.19 124.65 122.01 122.41 131.84 112.42 131.65 112.11 143.59 118.06 143.77 116.06 149.78 117.37 153 114.16 157.64 117.63 159.27 112.25 161.49"/><polygon class="cls-3" points="112.25 161.49 111.37 192.98 117.45 193.27 117.47 190.89 129.57 191.13 129.92 178.85 141.9 179.66 142.27 163.6 148.76 172.6 153.11 171.12 154.68 116.98 130.65 116.21 130.55 122.19 124.65 122.01 122.41 131.84 112.42 131.65 112.11 143.59 118.06 143.77 116.06 149.78 117.37 153 114.16 157.64 117.63 159.27 112.25 161.49"/><polygon class="cls-2" points="283.63 228.91 290.43 229.24 295.05 240.49 294.21 235.71 297.62 231.86 318.83 232.42 319.1 220.55 330.99 220.86 332.08 172.85 290.66 172.06 290.27 184.83 285.44 190.97 285.37 196.59 288.56 198.74 286.24 206.78 282.46 207.03 284.05 211.7 282.06 217.38 278.11 220.92 278.69 225.76 283.63 228.91"/><polygon class="cls-3" points="283.63 228.91 290.43 229.24 295.05 240.49 294.21 235.71 297.62 231.86 318.83 232.42 319.1 220.55 330.99 220.86 332.08 172.85 290.66 172.06 290.26 184.82 285.44 190.97 285.37 196.59 288.56 198.74 286.24 206.77 282.46 207.03 284.05 211.7 282.06 217.38 278.11 220.92 278.69 225.75 283.63 228.91"/><polygon class="cls-2" points="345.67 439.38 405.32 440.62 406.12 388.01 394.1 387.61 382.22 386.42 347.25 386.48 347.24 421.73 343.68 421.77 345.67 439.38"/><polygon class="cls-3" points="345.67 439.38 405.32 440.62 406.11 388.01 394.1 387.61 382.22 386.42 347.25 386.48 347.24 421.73 343.68 421.77 345.67 439.38"/><polygon class="cls-2" points="394.1 387.61 406.12 388.01 405.76 417.17 417.4 417.18 417.25 423.1 429.01 423.43 430.68 417.48 439.5 414.61 441.93 411.48 437.36 405.86 431.78 403.82 433.27 398.82 438.52 397.88 441.6 401.96 447.74 404.45 453.13 400.48 448.88 396.62 443.35 398.13 440.14 394.72 441.45 387.76 444.52 389.33 450.5 388.24 456.52 389.52 457.46 386.37 451.29 383.3 448.36 377.64 455.38 367.92 446.66 363.78 446.69 361.73 454.42 357.96 456.52 362.93 460.83 361.11 457.89 355.83 468.08 355.07 471.01 347 465.36 345.69 461.55 342.34 443.33 342.3 434.78 348.81 434.72 353.73 441.68 364.44 439.58 366.83 436.76 363.92 432.98 364.45 430.19 361.54 417.52 364.48 420.48 358.38 414.73 360.8 409.32 356.44 404.45 357.75 404.39 361.66 395.1 361.53 394.1 387.61"/><polygon class="cls-3" points="394.1 387.61 406.11 388.01 405.76 417.17 417.4 417.18 417.25 423.1 429.01 423.43 430.68 417.48 439.5 414.61 441.93 411.48 437.36 405.86 431.78 403.82 433.27 398.82 438.52 397.88 441.6 401.96 447.74 404.45 453.13 400.48 448.88 396.62 443.36 398.13 440.14 394.72 441.45 387.75 444.52 389.33 450.5 388.24 456.52 389.52 457.46 386.37 451.29 383.3 448.36 377.64 455.38 367.92 446.66 363.78 446.69 361.73 454.42 357.96 456.52 362.93 460.83 361.11 457.89 355.83 468.08 355.07 471.01 347 465.36 345.69 461.55 342.34 443.33 342.3 434.78 348.81 434.72 353.73 441.67 364.44 439.58 366.83 436.76 363.92 432.98 364.45 430.19 361.54 417.52 364.48 420.48 358.38 414.73 360.8 409.32 356.44 404.45 357.74 404.39 361.66 395.1 361.53 394.1 387.61"/><polygon class="cls-2" points="244.52 384.04 307.15 386.03 306.28 379.91 300.23 373.71 297.31 366.35 291.32 362.08 291.75 350.68 306.88 350.34 300.8 344.54 289.3 338.9 245.33 337.32 244.57 360.65 236.95 361.8 244.52 371.57 243.82 377.72 246.39 379.27 244.52 384.04"/><polygon class="cls-3" points="244.52 384.04 307.15 386.03 306.28 379.91 300.23 373.71 297.31 366.34 291.32 362.08 291.75 350.68 306.88 350.34 300.8 344.54 289.3 338.9 245.33 337.32 244.57 360.65 236.95 361.79 244.52 371.57 243.82 377.71 246.39 379.26 244.52 384.04"/><polygon class="cls-2" points="512.18 202.81 511.79 198.08 512.25 162 500.11 161.02 464.24 161.97 452.12 161.82 451.75 202.26 485.22 202.32 512.18 202.81"/><polygon class="cls-3" points="512.18 202.81 511.79 198.08 512.25 161.99 500.11 161.02 464.24 161.97 452.12 161.82 451.75 202.26 485.22 202.32 512.18 202.81"/><polygon class="cls-2" points="512.18 202.81 523.64 202.26 522.76 235.63 522.82 245.34 530.38 241.6 534.4 241.57 533.4 240.05 540.49 235.19 539.96 228.6 533.87 223.12 535.8 216.82 545.05 218.91 549.06 206.38 552.93 204.2 557.23 206.57 561.04 203.93 556.52 199.72 559.62 191.22 557.36 188.12 550.71 186.58 550.16 181.99 556.28 180.76 556.48 175.54 560.1 169.89 555.69 166.2 552.13 167.79 553.33 170.92 548.42 169.76 549.58 164.72 552.79 162.7 512.25 162 511.79 198.08 512.18 202.81"/><polygon class="cls-3" points="512.18 202.81 523.64 202.26 522.76 235.63 522.82 245.33 530.38 241.59 534.4 241.57 533.39 240.05 540.49 235.19 539.96 228.6 533.87 223.12 535.8 216.82 545.05 218.91 549.06 206.38 552.93 204.2 557.23 206.57 561.04 203.93 556.52 199.72 559.62 191.22 557.36 188.12 550.71 186.58 550.16 181.98 556.28 180.76 556.48 175.53 560.1 169.89 555.69 166.2 552.13 167.79 553.33 170.92 548.42 169.76 549.57 164.72 552.79 162.7 512.25 161.99 511.79 198.08 512.18 202.81"/><polygon class="cls-2" points="67.73 134.9 72.33 168.12 75.46 160.85 81.92 165.21 82.14 170.32 84.68 173.56 95.58 174.08 99.39 169.37 102.55 170.9 105.51 167.83 102.89 162.19 112.25 161.49 117.63 159.27 114.16 157.64 117.37 153 116.06 149.78 118.06 143.77 112.11 143.59 112.42 131.65 122.41 131.84 124.65 122.01 130.55 122.19 130.63 118.19 106.72 117.53 106.66 119.49 65.43 118.28 67.73 134.9"/><polygon class="cls-3" points="67.72 134.9 72.33 168.12 75.46 160.85 81.92 165.21 82.14 170.32 84.68 173.56 95.58 174.08 99.39 169.37 102.55 170.9 105.51 167.84 102.89 162.19 112.25 161.49 117.63 159.27 114.16 157.64 117.37 153 116.06 149.78 118.06 143.77 112.11 143.59 112.42 131.65 122.41 131.84 124.65 122.01 130.55 122.19 130.63 118.19 106.72 117.53 106.66 119.49 65.43 118.27 67.72 134.9"/><polygon class="cls-2" points="452.39 125.25 499.81 125.85 512.45 125.43 536.4 126.45 536.13 85.51 526.18 85.59 525.12 89.88 473.08 89.43 470.84 95.46 470.77 101.47 452.89 100.89 452.39 125.25"/><polygon class="cls-3" points="452.39 125.25 499.81 125.85 512.45 125.43 536.4 126.45 536.13 85.51 526.18 85.59 525.12 89.88 473.08 89.43 470.84 95.46 470.77 101.47 452.89 100.89 452.39 125.25"/><polygon class="cls-2" points="282.46 207.03 286.24 206.78 288.56 198.74 285.37 196.59 285.44 190.97 290.27 184.83 290.89 160.1 249.33 159.07 248.84 198.89 241.08 199.52 233.72 206.84 228.18 207.51 228.05 212.02 264.37 212.73 268.95 211.8 274.76 207.64 272.38 212.08 276.3 211.59 282.46 207.03"/><polygon class="cls-3" points="282.46 207.03 286.24 206.77 288.56 198.74 285.37 196.59 285.44 190.97 290.26 184.82 290.89 160.1 249.33 159.07 248.84 198.89 241.08 199.52 233.72 206.84 228.18 207.51 228.05 212.02 264.37 212.73 268.95 211.8 274.76 207.64 272.38 212.08 276.3 211.59 282.46 207.03"/><polygon class="cls-2" points="177.69 490.21 233.87 490.34 235.01 442.19 219.28 441.78 219.57 432.05 207.86 431.76 207.83 433.72 191.67 433.17 184.55 450.47 183.12 458.14 178.66 457.9 177.69 490.21"/><polygon class="cls-3" points="177.69 490.21 233.87 490.34 235.01 442.18 219.28 441.78 219.57 432.05 207.86 431.76 207.83 433.72 191.67 433.17 184.55 450.47 183.12 458.14 178.66 457.9 177.69 490.21"/><polygon class="cls-2" points="306.88 350.34 291.75 350.68 291.32 362.08 297.31 366.35 300.23 373.71 306.28 379.91 307.15 386.03 306.28 393.05 307.52 397.79 347.28 398.25 347.21 361.46 349.81 361.47 349.74 349.72 306.88 350.34"/><polygon class="cls-3" points="306.88 350.34 291.75 350.68 291.32 362.08 297.31 366.34 300.23 373.71 306.28 379.91 307.15 386.03 306.28 393.05 307.52 397.79 347.28 398.25 347.21 361.46 349.81 361.47 349.74 349.72 306.88 350.34"/><polygon class="cls-2" points="332.08 172.85 361.14 173.45 361.35 162.7 367.42 160.08 368.1 124.83 362.8 125.76 317.64 124.76 316.26 172.71 332.08 172.85"/><polygon class="cls-3" points="332.08 172.85 361.14 173.45 361.35 162.7 367.42 160.08 368.1 124.83 362.8 125.77 317.64 124.76 316.26 172.71 332.08 172.85"/><polygon class="cls-2" points="478.19 48 488.33 47.85 516.76 48.97 532.69 49.05 532.54 57.2 547.21 57.08 554.53 52.36 555.42 48.43 559.13 47.25 561.33 42.98 559.34 40.41 561.43 31.75 554.22 27.93 551.42 15.86 480.67 15.79 482.33 17.63 481.2 24.27 484.7 27.71 484.36 46.19 478.22 45.07 478.19 48"/><polygon class="cls-3" points="478.19 48 488.33 47.85 516.76 48.97 532.69 49.05 532.54 57.2 547.21 57.08 554.53 52.36 555.42 48.43 559.13 47.25 561.33 42.98 559.34 40.41 561.43 31.75 554.22 27.93 551.42 15.86 480.67 15.79 482.33 17.63 481.2 24.27 484.7 27.7 484.36 46.19 478.22 45.07 478.19 48"/><polygon class="cls-2" points="190.8 364.19 197.75 370.95 200.07 379.29 210.38 382.64 212.52 385.35 217.01 383.38 220.93 388.47 224.66 386.91 229.07 389.37 233.39 388.42 241.77 382.46 244.52 384.04 246.39 379.27 243.82 377.72 244.52 371.57 236.95 361.8 244.57 360.65 245.33 337.32 229.74 336.76 227.78 334.02 228.72 326.41 222.52 325.16 210.28 324.84 210.4 320.88 192.66 320.48 192.77 312.56 179.02 312.26 178.82 324.13 176.45 324.06 176.38 329.44 180.92 330.56 184.03 351.71 190.15 360.23 190.8 364.19"/><polygon class="cls-3" points="190.8 364.18 197.75 370.94 200.07 379.3 210.38 382.64 212.52 385.35 217.01 383.38 220.93 388.47 224.66 386.91 229.07 389.37 233.39 388.42 241.77 382.46 244.52 384.04 246.39 379.26 243.82 377.71 244.52 371.57 236.95 361.79 244.57 360.65 245.33 337.32 229.74 336.76 227.78 334.02 228.72 326.41 222.52 325.16 210.28 324.84 210.4 320.88 192.66 320.48 192.77 312.56 179.02 312.26 178.82 324.13 176.45 324.07 176.38 329.44 180.92 330.56 184.03 351.71 190.15 360.23 190.8 364.18"/><polygon class="cls-2" points="404.98 491.88 437.94 492.12 437.91 491.16 442.08 488.18 442.58 484.1 434.02 478.21 435.96 473.73 444.86 475.08 446.72 473.26 446.26 463.15 451.65 455.95 447.06 455.59 445.32 460.83 440.72 452.76 440.61 445.98 450.02 435.29 447.82 431.68 443.02 440.68 437.91 441.86 433.1 438.48 441.76 435.1 442.53 429.37 438.1 426.02 437.56 432.15 430.2 433.91 436 425.96 432.38 421.77 430.68 417.48 429.01 423.43 417.25 423.1 417.4 417.18 405.76 417.17 404.98 491.88"/><polygon class="cls-3" points="404.98 491.88 437.94 492.12 437.91 491.15 442.08 488.18 442.58 484.1 434.02 478.21 435.96 473.73 444.85 475.08 446.73 473.26 446.26 463.15 451.65 455.95 447.06 455.58 445.32 460.83 440.72 452.76 440.61 445.98 450.02 435.29 447.82 431.68 443.02 440.68 437.91 441.87 433.1 438.48 441.76 435.1 442.53 429.38 438.1 426.02 437.55 432.15 430.2 433.91 436 425.97 432.38 421.77 430.68 417.48 429.01 423.43 417.25 423.1 417.4 417.18 405.76 417.17 404.98 491.88"/><polygon class="cls-2" points="135.55 15.76 135.42 38.41 141.29 42.48 158.98 42.97 158.51 46.9 163.39 49.11 163.19 57.12 167.12 59.27 167.05 63.43 170.94 63.53 170.91 67.53 199 68.2 199.42 15.83 135.55 15.76"/><polygon class="cls-3" points="135.55 15.76 135.42 38.41 141.29 42.48 158.98 42.97 158.51 46.9 163.39 49.11 163.19 57.12 167.12 59.27 167.05 63.43 170.95 63.53 170.91 67.53 199 68.2 199.42 15.83 135.55 15.76"/><polygon class="cls-2" points="281.06 443.54 284.89 445.04 285.93 450.32 290.69 448.85 291.58 453.35 295.11 456.08 301.95 455.4 305.34 452.69 302.13 450.47 302.64 442 306.33 437.21 309.74 425.76 307.77 410 308.73 401.21 306.28 393.05 307.15 386.03 279.28 385.08 279.07 393.91 271.47 404.13 263.13 405.86 264.88 416.32 259.55 421.6 258.78 426.5 264.37 428.19 265.62 434.96 271.43 434.58 279.01 439.41 281.06 443.54"/><polygon class="cls-3" points="281.06 443.54 284.89 445.04 285.93 450.32 290.69 448.85 291.57 453.35 295.11 456.08 301.95 455.4 305.34 452.69 302.13 450.47 302.64 442 306.33 437.21 309.74 425.76 307.76 410 308.73 401.2 306.28 393.05 307.15 386.03 279.28 385.07 279.07 393.91 271.47 404.13 263.13 405.86 264.88 416.32 259.55 421.6 258.78 426.5 264.37 428.19 265.62 434.95 271.43 434.58 279.01 439.41 281.06 443.54"/><polygon class="cls-2" points="329.17 470.88 330.31 464.68 335.5 464.33 335.1 460.46 339.62 458.32 339.86 455.46 347.11 452.28 345.96 447.05 349.05 442.12 345.67 439.38 343.68 421.77 347.24 421.73 347.28 398.25 307.52 397.79 308.73 401.21 307.77 410 309.74 425.76 306.33 437.21 302.64 442 302.13 450.47 305.34 452.69 308.01 457.53 319.48 459 319.67 464.69 329.17 470.88"/><polygon class="cls-3" points="329.17 470.88 330.31 464.68 335.5 464.33 335.1 460.46 339.62 458.32 339.86 455.47 347.11 452.28 345.96 447.05 349.05 442.12 345.67 439.38 343.68 421.77 347.24 421.73 347.28 398.25 307.52 397.79 308.73 401.2 307.76 410 309.74 425.76 306.33 437.21 302.64 442 302.13 450.47 305.34 452.69 308.01 457.53 319.48 459 319.67 464.69 329.17 470.88"/><polygon class="cls-2" points="238.8 69.06 244.84 69.2 245.48 16.85 248.87 20.51 248.95 15.89 199.42 15.83 199 68.2 238.8 69.06"/><polygon class="cls-3" points="238.8 69.06 244.84 69.2 245.48 16.85 248.87 20.51 248.95 15.89 199.42 15.83 199 68.2 238.8 69.06"/><polygon class="cls-2" points="51.46 15.66 58.81 70.85 76.85 71.23 76.98 65.25 82.97 65.3 83.29 55.25 119.21 56.12 119.31 52.07 135.24 52.46 135.3 42.36 141.29 42.48 135.42 38.41 135.55 15.76 51.46 15.66"/><polygon class="cls-3" points="51.46 15.66 58.81 70.85 76.85 71.23 76.98 65.25 82.97 65.3 83.29 55.25 119.21 56.12 119.31 52.07 135.24 52.45 135.3 42.36 141.29 42.48 135.42 38.41 135.55 15.76 51.46 15.66"/><polygon class="cls-2" points="298.5 76.31 298.18 88.33 310.17 88.6 310.42 76.54 322.44 76.79 322.66 66.58 320.47 66.52 320.62 60.74 326.67 60.92 327.74 15.78 285.33 15.78 284.87 31.36 278.16 35.3 285.97 43.61 283.76 47.69 292.05 50.11 293.13 55.2 290.79 57.37 295.1 62.25 298.45 62.54 298.5 76.31"/><polygon class="cls-3" points="298.5 76.31 298.18 88.33 310.17 88.6 310.42 76.54 322.44 76.79 322.66 66.58 320.47 66.52 320.62 60.74 326.67 60.92 327.74 15.78 285.33 15.78 284.87 31.36 278.16 35.3 285.97 43.61 283.76 47.69 292.05 50.11 293.13 55.2 290.79 57.37 295.1 62.25 298.45 62.54 298.5 76.31"/><polygon class="cls-2" points="329.17 470.88 331.89 475.01 329.15 479.19 332.3 488.11 336.83 491.57 404.98 491.88 405.32 440.62 345.67 439.38 349.05 442.12 345.96 447.05 347.11 452.28 339.86 455.46 339.62 458.32 335.1 460.46 335.5 464.33 330.31 464.68 329.17 470.88"/><polygon class="cls-3" points="329.17 470.88 331.89 475.01 329.15 479.18 332.3 488.11 336.83 491.57 404.98 491.88 405.32 440.62 345.67 439.38 349.05 442.12 345.96 447.05 347.11 452.28 339.86 455.47 339.62 458.32 335.1 460.46 335.5 464.33 330.31 464.68 329.17 470.88"/><polygon class="cls-2" points="377.57 293.02 376.84 326.76 395.99 328.01 398.76 338.75 406.95 341.43 406.64 347.57 409.32 356.44 414.73 360.8 420.48 358.38 417.52 364.48 430.19 361.54 432.98 364.45 436.76 363.92 439.58 366.83 441.68 364.44 434.72 353.73 434.78 348.81 447.05 339.33 445.97 334.48 449.75 329.08 447.67 324.61 450.23 312.84 444.46 310.56 436.97 297.4 432.05 298.3 433.11 292.95 427.02 290.41 427.24 286.97 422.82 285.75 423.89 282.27 389.97 281.45 389.83 293.29 377.57 293.02"/><polygon class="cls-3" points="377.57 293.02 376.84 326.76 395.99 328.01 398.76 338.75 406.95 341.43 406.64 347.57 409.32 356.44 414.73 360.8 420.48 358.38 417.52 364.48 430.19 361.54 432.98 364.45 436.76 363.92 439.58 366.83 441.67 364.44 434.72 353.73 434.78 348.81 447.05 339.33 445.97 334.48 449.75 329.07 447.67 324.61 450.23 312.84 444.46 310.57 436.97 297.4 432.05 298.3 433.11 292.95 427.02 290.41 427.24 286.97 422.82 285.75 423.89 282.27 389.97 281.45 389.83 293.29 377.57 293.02"/><polyline class="cls-4" points="671.33 515.94 -11.61 515.94 -11.61 -8.17 671.33 -8.17"/><path class="cls-5" d="M539.26,361.54h5.44l8.51,26.15h-4.88l-2-7.07H537.5l-2,7.07h-4.72ZM538.58,377h6.67l-.91-3.2c-.84-2.76-1.6-5.76-2.36-8.64h-.16c-.72,2.92-1.48,5.88-2.32,8.64Z"/><path class="cls-5" d="M556.06,368.06h3.8l.32,3.48h.16c1.4-2.56,3.48-4,5.56-4a4.92,4.92,0,0,1,2.23.4l-.79,4a6.42,6.42,0,0,0-2-.32c-1.56,0-3.44,1.08-4.64,4v12h-4.6Z"/><path class="cls-5" d="M571,359.46h4.52V377.1h.12l7.27-9h5l-6.72,8,7.4,11.63h-5l-5-8.51-3.08,3.51v5H571Z"/><path class="cls-5" d="M590.42,382.41c0-4.19,3.48-6.39,11.55-7.27-.08-2.08-.92-3.84-3.6-3.84a11.19,11.19,0,0,0-5.51,1.92l-1.68-3.08a15.33,15.33,0,0,1,8.07-2.56c4.88,0,7.32,3,7.32,8.48v11.63h-3.8l-.32-2.16h-.16a9.56,9.56,0,0,1-6.08,2.64A5.49,5.49,0,0,1,590.42,382.41Zm11.55,0V378c-5.35.68-7.11,2.08-7.11,4,0,1.75,1.19,2.51,2.83,2.51S600.49,383.77,602,382.41Z"/><path class="cls-5" d="M612.1,368.06h3.79l.32,2.64h.17c1.75-1.72,3.75-3.12,6.43-3.12,4.2,0,6,2.84,6,7.8v12.31h-4.6V376c0-3.24-.92-4.44-3.08-4.44-1.72,0-2.84.84-4.48,2.44v13.71H612.1Z"/><path class="cls-5" d="M632.54,385.45l2.16-3a8.71,8.71,0,0,0,5.43,2.2c2.12,0,3.12-1,3.12-2.35,0-1.65-2.12-2.37-4.2-3.16-2.59-1-5.51-2.44-5.51-5.72,0-3.44,2.75-5.88,7.15-5.88a10.6,10.6,0,0,1,6.52,2.36l-2.12,2.8a7.31,7.31,0,0,0-4.32-1.68c-1.95,0-2.87.92-2.87,2.16,0,1.56,2,2.16,4.07,2.92,2.68,1,5.64,2.28,5.64,6,0,3.35-2.68,6.07-7.64,6.07A12.41,12.41,0,0,1,632.54,385.45Z"/><path class="cls-5" d="M650.7,382.41c0-4.19,3.48-6.39,11.55-7.27-.08-2.08-.92-3.84-3.6-3.84a11.19,11.19,0,0,0-5.51,1.92l-1.68-3.08a15.36,15.36,0,0,1,8.07-2.56c4.88,0,7.32,3,7.32,8.48v11.63h-3.8l-.32-2.16h-.16a9.56,9.56,0,0,1-6.07,2.64A5.49,5.49,0,0,1,650.7,382.41Zm11.55,0V378c-5.35.68-7.11,2.08-7.11,4,0,1.75,1.2,2.51,2.83,2.51S660.77,383.77,662.25,382.41Z"/><path class="cls-5" d="M670.42,385.45l2.16-3a8.71,8.71,0,0,0,5.43,2.2c2.12,0,3.12-1,3.12-2.35,0-1.65-2.12-2.37-4.2-3.16-2.59-1-5.51-2.44-5.51-5.72,0-3.44,2.75-5.88,7.15-5.88a10.6,10.6,0,0,1,6.52,2.36l-2.12,2.8a7.31,7.31,0,0,0-4.32-1.68c-1.95,0-2.87.92-2.87,2.16,0,1.56,2,2.16,4.07,2.92,2.68,1,5.64,2.28,5.64,6,0,3.35-2.68,6.07-7.64,6.07A12.41,12.41,0,0,1,670.42,385.45Z"/><path class="cls-5" d="M573.47,400.8h4.2c4.8,0,7.63,2.59,7.63,7.77s-2.83,7.92-7.49,7.92h-4.34Zm4,13.44c3.17,0,5-1.8,5-5.67s-1.8-5.52-5-5.52h-1.22v11.19Z"/><path class="cls-5" d="M587.91,401.09a1.71,1.71,0,0,1,3.41,0,1.71,1.71,0,0,1-3.41,0Zm.32,3.62H591v11.78h-2.76Z"/><path class="cls-5" d="M593.34,415.15l1.29-1.78a5.25,5.25,0,0,0,3.27,1.32c1.27,0,1.87-.6,1.87-1.41,0-1-1.27-1.42-2.52-1.9-1.56-.57-3.31-1.46-3.31-3.43s1.65-3.53,4.29-3.53a6.33,6.33,0,0,1,3.92,1.42l-1.28,1.68a4.36,4.36,0,0,0-2.59-1c-1.17,0-1.73.55-1.73,1.3,0,.93,1.18,1.29,2.45,1.75,1.61.6,3.39,1.37,3.39,3.57,0,2-1.61,3.65-4.59,3.65A7.41,7.41,0,0,1,593.34,415.15Z"/><path class="cls-5" d="M604.79,412.51v-5.62h-1.68v-2.06l1.82-.12.34-3.22h2.3v3.22h3v2.18h-3v5.62c0,1.39.53,2.06,1.66,2.06a3.5,3.5,0,0,0,1.22-.26l.48,2a7.41,7.41,0,0,1-2.4.43C605.79,416.78,604.79,415.05,604.79,412.51Z"/><path class="cls-5" d="M613,404.71h2.28l.19,2.09h.1a4,4,0,0,1,3.34-2.38,3,3,0,0,1,1.34.24l-.48,2.4a3.86,3.86,0,0,0-1.22-.19c-.94,0-2.07.65-2.79,2.42v7.2H613Z"/><path class="cls-5" d="M621.68,401.09a1.71,1.71,0,0,1,3.41,0,1.71,1.71,0,0,1-3.41,0Zm.31,3.62h2.76v11.78H622Z"/><path class="cls-5" d="M627.51,410.61a5.82,5.82,0,0,1,5.91-6.19,5.08,5.08,0,0,1,3.45,1.32l-1.34,1.8a2.87,2.87,0,0,0-2-.86c-1.89,0-3.21,1.56-3.21,3.93s1.29,3.92,3.14,3.92a3.93,3.93,0,0,0,2.42-1l1.13,1.82a5.87,5.87,0,0,1-3.84,1.44C630,416.78,627.51,414.53,627.51,410.61Z"/><path class="cls-5" d="M639.54,412.51v-5.62h-1.68v-2.06l1.82-.12.34-3.22h2.3v3.22h3v2.18h-3v5.62c0,1.39.53,2.06,1.66,2.06a3.4,3.4,0,0,0,1.22-.26l.48,2a7.41,7.41,0,0,1-2.4.43C640.54,416.78,639.54,415.05,639.54,412.51Z"/></g><g id="Bullseye_Location_s_" data-name="Bullseye/Location(s)"><circle class="cls-6" cx="314.15" cy="257.35" r="29.28"/><circle class="cls-7" cx="314.15" cy="257.35" r="9.02"/></g></svg>