<?xml version="1.0" encoding="utf-8"?>
<!-- Generator: Adobe Illustrator 26.3.1, SVG Export Plug-In . SVG Version: 6.00 Build 0)  -->
<svg version="1.1" id="Layer_1" xmlns="http://www.w3.org/2000/svg" xmlns:xlink="http://www.w3.org/1999/xlink" x="0px" y="0px"
	 viewBox="0 0 781.3 496.5" style="enable-background:new 0 0 781.3 496.5;" xml:space="preserve">
<style type="text/css">
	.st0{fill:#E6E6E6;}
	.st1{fill:none;stroke:#F0F0F0;stroke-width:2.54;stroke-miterlimit:10;}
	.st2{fill:#F0F0F0;}
	.st3{opacity:0.8;fill:#007DBC;enable-background:new    ;}
	.st4{fill:none;stroke:#0675AF;stroke-width:0.64;stroke-linejoin:bevel;}
	.st5{fill:none;stroke:#FFFFFF;stroke-width:3;stroke-miterlimit:10;}
	.st6{fill:#FFFFFF;}
	.st7{opacity:0.8;}
	.st8{fill:#007DBC;}
</style>
<g id="Layer_4">
	<rect x="-13.9" y="-31" class="st0" width="813.7" height="570"/>
</g>
<g id="Layer_1_00000035495932057116650970000002474731623852448395_">
	<polygon class="st1" points="299.4,141.4 297.5,147.2 291.4,147.2 296.3,150.8 294.4,156.5 299.4,153 304.3,156.5 302.4,150.8 
		307.3,147.2 301.2,147.2 	"/>
	<rect x="283" y="158" class="st2" width="33.2" height="19.5"/>
	<polygon class="st3" points="259,121.5 279.1,114.8 293.1,114.8 295.3,116.2 301.2,116 299.8,113.3 301,110.9 304.5,109.3 
		308,109.4 310.4,111.9 313,112.4 317.3,109.9 318.4,107.2 325,108.3 328.8,102.8 328.1,100.5 330,96.5 326.2,94.4 324,91 322,92.6 
		321.2,91 316.9,91.1 314.7,92.4 313.7,90.5 311.8,91.6 309.8,95.2 307.1,95.7 305.1,93.8 300.4,93.2 299.2,90.7 297.1,92 
		294.4,90.1 293.3,95.1 294.1,96.2 289.8,98.7 275.9,98.7 	"/>
	<polygon class="st4" points="259,121.5 279.1,114.8 293.1,114.8 295.3,116.2 301.2,116 299.8,113.3 301,110.9 304.5,109.3 
		308,109.4 310.4,111.9 313,112.4 317.3,109.9 318.4,107.2 325,108.3 328.8,102.8 328.1,100.5 330,96.5 326.2,94.4 324,91 322,92.6 
		321.2,91 316.9,91.1 314.7,92.4 313.7,90.5 311.8,91.6 309.8,95.2 307.1,95.7 305.1,93.8 300.4,93.2 299.2,90.7 297.1,92 
		294.4,90.1 293.3,95.1 294.1,96.2 289.8,98.7 275.9,98.7 	"/>
	<polygon class="st3" points="302.1,373 330.4,373 330.5,372.7 428.8,372.9 431.6,369.8 429.4,366.8 428.5,361.7 425.1,356 
		421.9,352.7 423.8,350.9 422.7,348 423.9,345.2 422.4,343.5 337.6,343.5 337.6,342.7 307.8,342.7 301.7,349.9 	"/>
	<polygon class="st4" points="302.1,372.9 330.4,373 330.5,372.7 428.8,372.9 431.6,369.8 429.4,366.8 428.5,361.7 425.1,356 
		421.9,352.7 423.8,350.9 422.7,348 423.9,345.2 422.4,343.5 337.6,343.5 337.6,342.7 307.8,342.7 301.7,349.9 	"/>
	<polygon class="st3" points="155.9,469.1 232.1,469.1 232,427.5 223,427.6 223,429.6 215.8,429.7 208.7,429 208.7,425.1 
		194.1,425.1 194,417.6 186.6,417.6 186.6,418.8 155.8,418.8 	"/>
	<polygon class="st4" points="155.9,469.1 232.1,469.1 232,427.5 223,427.6 223,429.6 215.8,429.7 208.7,429 208.7,425.1 
		194.1,425.1 194,417.6 186.6,417.6 186.6,418.8 155.8,418.8 	"/>
	<polygon class="st3" points="318.5,165.2 320.3,167.8 319.8,173.1 316.8,176.3 319.7,179.5 321,184.5 326.2,184.6 328.9,187.4 
		327.6,189.3 329.6,190.5 333.1,189.6 337.5,190.8 340.3,194.4 339.8,196.1 342.9,200.8 343.2,204.5 341.4,210.5 344.3,211.2 
		346.9,216.2 350,218.1 349.2,219.8 352.4,220.5 352.4,223.9 365,224 364.7,177.9 364.3,177.9 364.4,156.4 361.9,157.1 360.3,162.8 
		355.8,165.3 352.6,163.7 349.9,164.1 347.9,167.7 341.5,165 336.3,161.2 333,160.4 331.8,155.4 328.9,155.8 329.4,157.6 
		326.5,159.4 325.5,163.3 321.2,162.4 	"/>
	<polygon class="st4" points="318.5,165.2 320.3,167.8 319.8,173.1 316.8,176.3 319.7,179.5 321,184.5 326.2,184.6 328.9,187.4 
		327.6,189.3 329.6,190.5 333.1,189.6 337.5,190.8 340.3,194.4 339.8,196.1 342.9,200.8 343.2,204.5 341.4,210.5 344.3,211.2 
		346.9,216.2 350,218.1 349.2,219.8 352.4,220.5 352.4,223.9 365,224 364.7,177.9 364.3,177.9 364.4,156.4 361.9,157.1 360.3,162.8 
		355.8,165.3 352.6,163.7 349.9,164.1 347.9,167.7 341.5,165 336.3,161.2 333,160.4 331.8,155.4 328.9,155.8 329.4,157.6 
		326.5,159.4 325.5,163.3 321.2,162.4 	"/>
	<polygon class="st3" points="315.4,231.4 367.3,231.4 367.3,224 352.4,223.9 352.4,220.5 349.2,219.8 350,218.1 346.9,216.2 
		344.3,211.2 341.4,210.5 343.2,204.5 342.9,200.8 339.8,196.1 340.3,194.4 337.5,190.8 333.1,189.6 329.6,190.5 327.6,189.3 
		328.9,187.4 326.2,184.6 321,184.5 319.7,179.5 316.8,176.3 319.8,173.1 320.3,167.8 318.5,165.2 315.6,166 313.1,169.1 
		309.2,169.1 305.8,170.8 305.6,172.2 301.2,174.8 300.2,174 295.3,178.5 291.2,178.3 289.1,175 287.3,176.6 280.2,174.8 
		277.6,175.5 278.8,178.8 278.3,181.8 280.1,186.2 278.8,186.9 278.9,192.4 281.7,197.1 282,200.5 280,204 281.6,206.2 279.5,210.1 
		279.8,214.3 285.4,219.3 284.6,220.6 288.1,224.5 286.3,226.9 287.2,230.1 285.7,234.1 290,234 294.5,229.4 297.6,224.4 
		302.7,221.8 303.1,219.9 305.3,221.3 309,227 307.1,231.6 	"/>
	<polygon class="st4" points="315.4,231.4 367.3,231.4 367.3,224 352.4,223.9 352.4,220.5 349.2,219.8 350,218.1 346.9,216.2 
		344.3,211.2 341.4,210.5 343.2,204.5 342.9,200.8 339.8,196.1 340.3,194.4 337.5,190.8 333.1,189.6 329.6,190.5 327.6,189.3 
		328.9,187.4 326.2,184.6 321,184.5 319.7,179.5 316.8,176.3 319.8,173.1 320.3,167.8 318.5,165.2 315.6,166 313.1,169.1 
		309.2,169.1 305.8,170.8 305.6,172.2 301.2,174.8 300.2,174 295.3,178.5 291.2,178.3 289.1,175 287.3,176.6 280.2,174.8 
		277.6,175.5 278.8,178.8 278.3,181.8 280,186.2 278.8,186.9 278.9,192.4 281.7,197.1 282,200.5 280,204 281.6,206.2 279.5,210.1 
		279.8,214.3 285.4,219.3 284.6,220.6 288.1,224.5 286.3,226.9 287.2,230.1 285.7,234.1 290,234 294.5,229.4 297.6,224.4 
		302.7,221.8 303.1,219.9 305.3,221.3 309,227 307.1,231.6 	"/>
	<polygon class="st3" points="486.8,258.5 487,158.6 482.1,158.5 482.1,155.9 479.6,155.9 479.4,147 476.8,147 476.8,140.6 
		464.1,140.7 464.1,146.6 461.5,147.8 461.4,149.5 458.2,151.1 456.3,150 456.2,145.1 455.2,143.4 448.4,144.4 445.4,146.2 
		440.4,145.5 439.6,147.3 432.6,148.9 425.5,144.9 425.6,201.6 426.2,232.1 431.7,232.1 431.9,234 429.3,234.2 428.7,236.9 
		424.5,240.9 425.1,244.3 423.3,246.5 421.5,252.6 423.1,259.1 422.5,261.6 483.2,261.6 484.4,259 	"/>
	<polygon class="st4" points="486.8,258.5 487,158.6 482.1,158.5 482.1,155.9 479.6,155.9 479.4,147 476.8,147 476.8,140.6 
		464.1,140.7 464.1,146.6 461.5,147.8 461.4,149.5 458.2,151.1 456.3,150 456.2,145.1 455.2,143.4 448.4,144.4 445.4,146.2 
		440.4,145.5 439.6,147.3 432.6,148.9 425.5,144.9 425.6,201.6 426.2,232.1 431.7,232.1 431.9,234 429.3,234.2 428.7,236.9 
		424.5,240.9 425.1,244.3 423.3,246.5 421.5,252.6 423.1,259.1 422.5,261.6 483.2,261.6 484.4,259 	"/>
	<polygon class="st3" points="156.2,223.4 269,223.6 269.7,219.4 273.8,220.6 276.7,216.4 279.8,214.3 279.5,210.1 281.6,206.2 
		280,204 282,200.5 281.7,197.1 278.9,192.4 278.8,186.9 280.1,186.2 278.3,181.8 278.8,178.8 277.6,175.5 280.2,174.8 279.7,171.7 
		280.1,162.8 278.6,161.1 277.9,153.1 274.2,148.1 259,121.5 238.8,128.2 156.5,128.3 	"/>
	<polygon class="st4" points="156.2,223.4 269,223.6 269.7,219.4 273.8,220.6 276.7,216.4 279.8,214.3 279.5,210.1 281.6,206.2 
		280,204 282,200.5 281.7,197.1 278.9,192.4 278.8,186.9 280,186.2 278.3,181.8 278.8,178.8 277.6,175.5 280.2,174.8 279.7,171.7 
		280,162.8 278.6,161.1 277.9,153.1 274.2,148.1 259,121.5 238.8,128.2 156.5,128.3 	"/>
	<polygon class="st3" points="315.4,145.9 314.9,148.1 316.7,149.5 316.7,151.9 318.6,154.3 317.9,157.4 321.2,162.4 325.5,163.3 
		326.5,159.4 329.4,157.6 328.9,155.8 331.8,155.4 333,160.4 336.3,161.2 341.5,165 347.9,167.7 349.9,164.1 352.6,163.7 
		355.8,165.3 360.3,162.8 361.9,157.1 364.4,156.4 364.9,152.1 369.5,153.6 374.3,150.3 377,149.9 380.5,151 382.6,148.4 
		386.9,149.4 391.8,147.5 398.9,146.9 401.3,143.7 406.8,142.7 413,144.7 417.4,145.1 422.3,143.9 424,144.6 424,128.5 354.8,128.4 
		354.8,106.1 352.9,106.9 351.1,110 348.5,111.8 337.5,116.8 333.6,116.9 332.7,120.6 328.3,121.1 324.2,122.7 318.6,128.9 
		319.6,131.9 323.1,132.3 322.9,135.4 326.1,140.7 323.6,144.1 322.9,147 321.2,147.5 317.4,144.8 	"/>
	<polygon class="st4" points="315.4,145.9 314.9,148.1 316.7,149.5 316.7,151.9 318.6,154.3 317.9,157.4 321.2,162.4 325.5,163.3 
		326.5,159.4 329.4,157.6 328.9,155.8 331.8,155.4 333,160.4 336.3,161.2 341.5,165 347.9,167.7 349.9,164.1 352.6,163.7 
		355.8,165.3 360.3,162.8 361.9,157.1 364.4,156.4 364.9,152.1 369.5,153.6 374.3,150.3 377,149.9 380.5,151 382.6,148.4 
		386.9,149.4 391.8,147.5 398.9,146.9 401.3,143.7 406.8,142.7 413,144.7 417.4,145.1 422.3,143.9 424,144.6 424,128.5 354.8,128.4 
		354.8,106.1 352.9,106.9 351.1,110 348.5,111.8 337.5,116.8 333.6,116.9 332.7,120.6 328.3,121.1 324.2,122.7 318.6,128.9 
		319.6,131.9 323.1,132.3 322.9,135.4 326.1,140.7 323.6,144.1 322.9,147 321.2,147.5 317.4,144.8 	"/>
	<polygon class="st3" points="257.4,342.7 287.5,342.6 287.5,343.4 307.1,343.4 307.8,342.7 337.6,342.7 337.5,328.9 338.1,328.9 
		338,298.3 301.4,298.3 301.6,297.2 290.7,297.2 290.4,301.4 287.3,302 287.4,304.7 282.9,304.8 280.4,311.4 276.8,312.6 
		276.5,321.1 277.2,324.2 272.9,326.5 271.2,328.6 268.1,328 262,328.2 259.6,331.3 259.6,335 257.6,337.4 	"/>
	<polygon class="st4" points="257.4,342.7 287.5,342.6 287.5,343.4 307.1,343.4 307.8,342.7 337.6,342.7 337.5,328.9 338.1,328.9 
		338,298.3 301.4,298.3 301.6,297.2 290.7,297.2 290.4,301.4 287.3,302 287.4,304.7 282.9,304.8 280.4,311.4 276.8,312.6 
		276.5,321.1 277.2,324.2 272.9,326.5 271.2,328.6 268.1,328 262,328.2 259.6,331.3 259.6,335 257.6,337.4 	"/>
	<polygon class="st3" points="290.6,274.2 290.7,297.2 301.6,297.2 301.4,298.3 338,298.3 337.9,261.2 341.5,261.2 341.5,231.4 
		315.4,231.4 316.6,234 319.1,234 319.1,237.7 315.3,237.8 312.2,241.6 310.3,241.6 310.6,261.8 308.4,261.8 308.4,268.4 
		296.8,268.5 294.4,269.8 294.5,272.3 290.6,272.3 	"/>
	<polygon class="st4" points="290.6,274.2 290.7,297.2 301.6,297.2 301.4,298.3 338,298.3 337.9,261.2 341.5,261.2 341.5,231.4 
		315.4,231.4 316.6,234 319.1,234 319.1,237.7 315.3,237.8 312.2,241.6 310.3,241.6 310.6,261.8 308.4,261.8 308.4,268.4 
		296.8,268.5 294.4,269.8 294.5,272.3 290.6,272.3 	"/>
	<polygon class="st3" points="374.4,468.8 390.4,468.8 392.9,469.3 487.2,469.2 487.5,372.8 486.3,362.5 486.3,343.5 422.4,343.5 
		423.9,345.2 422.7,348 423.8,350.9 421.9,352.7 425.1,356 428.5,361.7 429.4,366.8 431.6,369.8 424.3,377.2 423.2,376.5 
		419.7,382.2 418.9,385.8 415,385.2 413.1,388.3 410.6,390.2 409.8,394.7 406.6,394.1 405.7,396.5 403.9,394.9 400,394.7 
		397.3,395.8 397.4,398.1 395.1,401.9 392.8,401.7 393.4,404.8 395.7,404.2 394.3,407.9 391.8,410.5 390.9,415 386.8,416 384.3,419 
		384.1,421.6 381.3,424.1 379.6,429.4 376.5,429.1 374.7,431.5 377.8,433.3 376.2,435.9 374.2,436 376.2,438.1 375.3,440.4 
		372.6,442.3 366.5,440.1 368.6,444.2 366.2,445.3 364.5,454.5 363,454.3 360.4,458.9 354,460.9 349.9,460.1 349,461.5 346,460.6 
		341.5,467.3 340.1,464.6 337,468.1 330.5,469 	"/>
	<polygon class="st4" points="374.4,468.8 390.4,468.8 392.9,469.3 487.2,469.2 487.5,372.8 486.3,362.5 486.3,343.5 422.4,343.5 
		423.9,345.2 422.7,348 423.8,350.9 421.9,352.7 425.1,356 428.5,361.7 429.4,366.8 431.6,369.8 424.3,377.2 423.2,376.5 
		419.7,382.2 418.9,385.8 415,385.2 413.1,388.3 410.6,390.2 409.8,394.7 406.6,394.1 405.7,396.5 403.9,394.9 400,394.7 
		397.3,395.8 397.4,398.1 395.1,401.9 392.8,401.7 393.4,404.8 395.7,404.2 394.3,407.9 391.8,410.5 390.9,415 386.8,416 384.3,419 
		384.1,421.6 381.3,424.1 379.6,429.4 376.5,429.1 374.7,431.5 377.8,433.3 376.2,435.9 374.2,436 376.2,438.1 375.3,440.4 
		372.6,442.3 366.5,440.1 368.6,444.2 366.2,445.3 364.5,454.5 363,454.3 360.4,458.9 354,460.9 349.9,460.1 349,461.5 346,460.6 
		341.5,467.3 340.1,464.6 337,468.1 330.5,469 	"/>
	<polygon class="st3" points="280.2,174.8 287.3,176.6 289.1,175 291.2,178.3 295.3,178.5 300.2,174 301.2,174.8 305.6,172.2 
		305.8,170.8 309.2,169.1 313.1,169.1 315.6,166 318.5,165.2 321.2,162.4 317.9,157.4 318.6,154.3 316.7,151.9 316.7,149.5 
		314.9,148.1 315.4,145.9 314,141.5 309,140.4 300.3,143.9 295.6,143.8 293.7,138.1 294.4,135.1 291.2,135.1 282.2,141.4 
		274.2,148.1 277.9,153.1 278.6,161.1 280.1,162.8 279.7,171.7 	"/>
	<polygon class="st4" points="280.2,174.8 287.3,176.6 289.1,175 291.2,178.3 295.3,178.5 300.2,174 301.2,174.8 305.6,172.2 
		305.8,170.8 309.2,169.1 313.1,169.1 315.6,166 318.5,165.2 321.2,162.4 317.9,157.4 318.6,154.3 316.7,151.9 316.7,149.5 
		314.9,148.1 315.4,145.9 314,141.5 309,140.4 300.3,143.9 295.6,143.8 293.7,138.1 294.4,135.1 291.2,135.1 282.2,141.4 
		274.2,148.1 277.9,153.1 278.6,161.1 280,162.8 279.7,171.7 	"/>
	<polygon class="st3" points="324,91 326.2,94.4 330,96.5 332.5,95.4 335.9,96.8 340.6,102.2 339.1,108.2 343.2,109.6 340.3,115.6 
		348.5,111.8 351.1,110 352.9,106.9 354.8,106.1 354.8,39.7 324.3,39.9 325.8,42.1 326.7,46.3 324.6,47.6 325.2,51.1 324.2,53 
		326.9,55.5 328.5,60.2 328.6,63.3 330.2,65.4 329.6,68.5 331.3,70.6 329.4,73.8 328.5,81.5 326.4,83.8 	"/>
	<polygon class="st4" points="324,91 326.2,94.4 330,96.5 332.5,95.4 335.9,96.8 340.6,102.2 339.1,108.2 343.2,109.6 340.3,115.6 
		348.5,111.8 351.1,110 352.9,106.9 354.8,106.1 354.8,39.7 324.3,39.9 325.8,42.1 326.7,46.3 324.6,47.6 325.2,51.1 324.2,53 
		326.9,55.5 328.5,60.2 328.6,63.3 330.2,65.4 329.6,68.5 331.3,70.6 329.4,73.8 328.5,81.5 326.4,83.8 	"/>
	<polygon class="st3" points="257.4,342.7 257.4,345.2 261.7,349.5 262.8,351.8 264.1,350.3 269.5,357.6 268.3,362.1 266.5,365.1 
		268,366.8 263.6,370.4 262.3,373.1 294.9,373.4 302.1,373 301.7,349.9 307.1,343.4 287.5,343.4 287.5,342.6 	"/>
	<polygon class="st4" points="257.4,342.7 257.4,345.2 261.7,349.5 262.8,351.8 264.1,350.3 269.5,357.6 268.3,362.1 266.5,365.1 
		268,366.8 263.6,370.4 262.3,373.1 294.9,373.4 302.1,372.9 301.7,349.9 307.1,343.4 287.5,343.4 287.5,342.6 	"/>
	<polygon class="st3" points="309,140.4 314,141.5 315.4,145.9 317.4,144.8 321.2,147.5 322.9,147 323.6,144.1 326.1,140.7 
		322.9,135.4 323.1,132.3 319.6,131.9 318.6,128.9 324.2,122.7 328.3,121.1 332.7,120.6 333.6,116.9 337.5,116.8 340.3,115.6 
		343.2,109.6 339.1,108.2 340.6,102.2 335.9,96.8 332.5,95.4 330,96.5 328.1,100.5 328.8,102.8 325,108.3 318.4,107.2 317.3,109.9 
		313,112.4 310.4,111.9 308,109.4 304.5,109.3 301,110.9 299.8,113.3 301.2,116 301.5,122.3 302.4,126.3 306.6,131.8 303.9,132 
		307,139.4 	"/>
	<polygon class="st4" points="309,140.4 314,141.5 315.4,145.9 317.4,144.8 321.2,147.5 322.9,147 323.6,144.1 326.1,140.7 
		322.9,135.4 323.1,132.3 319.6,131.9 318.6,128.9 324.2,122.7 328.3,121.1 332.7,120.6 333.6,116.9 337.5,116.8 340.3,115.6 
		343.2,109.6 339.1,108.2 340.6,102.2 335.9,96.8 332.5,95.4 330,96.5 328.1,100.5 328.8,102.8 325,108.3 318.4,107.2 317.3,109.9 
		313,112.4 310.4,111.9 308,109.4 304.5,109.3 301,110.9 299.8,113.3 301.2,116 301.5,122.3 302.4,126.3 306.6,131.8 303.9,132 
		307,139.4 	"/>
	<polygon class="st3" points="257.6,337.4 259.6,335 259.6,331.3 262,328.2 268.1,328 271.2,328.6 272.9,326.5 277.2,324.2 
		276.5,321.1 276.8,312.6 280.4,311.4 282.9,304.8 287.4,304.7 287.3,302 290.4,301.4 290.7,297.2 290.6,274.2 286.9,274.2 
		286.9,273 278.7,273 278,267.7 279.2,266 277.2,256.8 278.6,254.7 276.1,253.8 171.5,253.8 171.5,254.6 156.1,254.7 156,337.4 
		230.8,337 238.5,337.4 	"/>
	<polygon class="st4" points="257.6,337.4 259.6,335 259.6,331.3 262,328.2 268.1,328 271.2,328.6 272.9,326.5 277.2,324.2 
		276.5,321.1 276.8,312.6 280.4,311.4 282.9,304.8 287.4,304.7 287.3,302 290.4,301.4 290.7,297.2 290.6,274.2 286.9,274.2 
		286.9,273 278.7,273 278,267.7 279.2,266 277.2,256.8 278.6,254.7 276.1,253.8 171.5,253.8 171.5,254.6 156.1,254.7 156,337.4 
		230.8,337 238.5,337.4 	"/>
	<polygon class="st3" points="232,427.5 232.1,469.1 330.5,469 337,468.1 340.1,464.6 341.5,467.3 346,460.6 349,461.5 349.9,460.1 
		354,460.9 360.4,458.9 363,454.3 364.5,454.5 366.2,445.3 368.6,444.2 366.5,440.1 372.6,442.3 375.3,440.4 376.2,438.1 374.2,436 
		376.2,435.9 377.8,433.3 374.7,431.5 376.5,429.1 379.6,429.4 381.3,424.1 302.2,424.2 302.2,424.5 267.8,424.5 267.8,423.9 
		232,423.9 	"/>
	<polygon class="st4" points="232,427.5 232.1,469.1 330.5,469 337,468.1 340.1,464.6 341.5,467.3 346,460.6 349,461.5 349.9,460.1 
		354,460.9 360.4,458.9 363,454.3 364.5,454.5 366.2,445.3 368.6,444.2 366.5,440.1 372.6,442.3 375.3,440.4 376.2,438.1 374.2,436 
		376.2,435.9 377.8,433.3 374.7,431.5 376.5,429.1 379.6,429.4 381.3,424.1 302.2,424.2 302.2,424.5 267.8,424.5 267.8,423.9 
		232,423.9 	"/>
	<polygon class="st3" points="290.6,274.2 290.6,272.3 294.5,272.3 294.4,269.8 296.8,268.5 308.4,268.4 308.4,261.8 310.6,261.8 
		310.3,241.6 312.2,241.6 315.3,237.8 319.1,237.7 319.1,234 316.6,234 315.4,231.4 307.1,231.6 309,227 305.3,221.3 303.1,219.9 
		302.7,221.8 297.6,224.4 294.5,229.4 290,234 285.7,234.1 287.2,230.1 286.3,226.9 288.1,224.5 284.6,220.6 285.4,219.3 
		279.8,214.3 276.7,216.4 273.8,220.6 269.7,219.4 269,223.6 156.2,223.4 156.1,254.7 171.5,254.6 171.5,253.8 276.1,253.8 
		278.6,254.7 277.2,256.8 279.2,266 278,267.7 278.7,273 286.9,273 286.9,274.2 	"/>
	<polygon class="st4" points="290.6,274.2 290.6,272.3 294.5,272.3 294.4,269.8 296.8,268.5 308.4,268.4 308.4,261.8 310.6,261.8 
		310.3,241.6 312.2,241.6 315.3,237.8 319.1,237.7 319.1,234 316.6,234 315.4,231.4 307.1,231.6 309,227 305.3,221.3 303.1,219.9 
		302.7,221.8 297.6,224.4 294.5,229.4 290,234 285.7,234.1 287.2,230.1 286.3,226.9 288.1,224.5 284.6,220.6 285.4,219.3 
		279.8,214.3 276.7,216.4 273.8,220.6 269.7,219.4 269,223.6 156.2,223.4 156.1,254.7 171.5,254.6 171.5,253.8 276.1,253.8 
		278.6,254.7 277.2,256.8 279.2,266 278,267.7 278.7,273 286.9,273 286.9,274.2 	"/>
	<polygon class="st3" points="232,427.5 232,423.9 246.4,423.9 246.1,402 253.4,402.1 253.4,395.6 252.7,394.9 260.7,394.9 
		260.8,387.5 260,387.5 260,373.3 156,373.2 155.8,418.8 186.6,418.8 186.6,417.6 194,417.6 194.1,425.1 208.7,425.1 208.7,429 
		215.8,429.7 223,429.6 223,427.6 	"/>
	<polygon class="st4" points="232,427.5 232,423.9 246.4,423.9 246.1,402 253.4,402.1 253.4,395.6 252.7,394.9 260.7,394.9 
		260.8,387.5 260,387.5 260,373.3 156,373.2 155.8,418.8 186.6,418.8 186.6,417.6 194,417.6 194.1,425.1 208.7,425.1 208.7,429 
		215.8,429.7 223,429.6 223,427.6 	"/>
	<polygon class="st3" points="422.4,343.5 486.3,343.5 486.8,258.5 484.4,259 483.2,261.6 422.5,261.6 423.4,265.5 422.6,271 
		418.9,277.5 420.4,281.6 418.9,281.8 416.4,288.1 416.3,292.9 414.9,293.5 413.7,298.3 414.9,300.8 417.6,301 423.7,304.2 
		421.3,305.4 419.5,302.9 414.1,302.7 414.8,307.5 412.4,307.5 413.3,312.7 417,317.2 416,318.7 418.5,322.2 416.5,326 419.4,330.3 
		421.6,330.6 420.3,334.6 423.9,333.3 424.3,335.5 421.8,334.7 420.2,336.4 423.2,338.4 424.4,341.2 	"/>
	<polygon class="st4" points="422.4,343.5 486.3,343.5 486.8,258.5 484.4,259 483.2,261.6 422.5,261.6 423.4,265.5 422.6,271 
		418.9,277.5 420.4,281.6 418.9,281.8 416.4,288.1 416.3,292.9 414.9,293.5 413.7,298.3 414.9,300.8 417.6,301 423.7,304.2 
		421.3,305.4 419.5,302.9 414.1,302.7 414.8,307.5 412.4,307.5 413.3,312.7 417,317.2 416,318.7 418.5,322.2 416.5,326 419.4,330.3 
		421.6,330.6 420.3,334.6 423.9,333.3 424.3,335.5 421.8,334.7 420.2,336.4 423.2,338.4 424.4,341.2 	"/>
	<polygon class="st3" points="381.3,424.1 384.1,421.6 384.3,419 386.8,416 390.9,415 391.8,410.5 394.3,407.9 395.7,404.2 
		393.4,404.8 392.8,401.7 395.1,401.9 397.4,398.1 397.3,395.8 400,394.7 403.9,394.9 405.7,396.5 406.6,394.1 409.8,394.7 
		410.6,390.2 413.1,388.3 415,385.2 418.9,385.8 419.7,382.2 423.2,376.5 424.3,377.2 428.8,372.9 330.5,372.7 330.4,373 302.1,373 
		294.9,373.4 287.6,373.1 260,373.3 260,387.5 260.8,387.5 260.7,394.9 252.7,394.9 253.4,395.6 253.4,402.1 246.1,402 246.4,423.9 
		267.8,423.9 267.8,424.5 302.2,424.5 302.2,424.2 	"/>
	<polygon class="st4" points="381.3,424.1 384.1,421.6 384.3,419 386.8,416 390.9,415 391.8,410.5 394.3,407.9 395.7,404.2 
		393.4,404.8 392.8,401.7 395.1,401.9 397.4,398.1 397.3,395.8 400,394.7 403.9,394.9 405.7,396.5 406.6,394.1 409.8,394.7 
		410.6,390.2 413.1,388.3 415,385.2 418.9,385.8 419.7,382.2 423.2,376.5 424.3,377.2 428.8,372.9 330.5,372.7 330.4,373 
		302.1,372.9 294.9,373.4 287.6,373.1 260,373.3 260,387.5 260.8,387.5 260.7,394.9 252.7,394.9 253.4,395.6 253.4,402.1 246.1,402 
		246.4,423.9 267.8,423.9 267.8,424.5 302.2,424.5 302.2,424.2 	"/>
	<polygon class="st3" points="422.4,343.5 424.4,341.2 423.2,338.4 420.2,336.4 421.8,334.7 424.3,335.5 423.9,333.3 420.3,334.6 
		421.6,330.6 419.4,330.3 416.5,326 418.5,322.2 416,318.7 417,317.2 413.3,312.7 412.4,307.5 414.8,307.5 414.1,302.7 419.5,302.9 
		421.3,305.4 423.7,304.2 417.6,301 414.9,300.8 413.7,298.3 414.9,293.5 416.3,292.9 416.4,288.1 418.9,281.8 420.4,281.6 
		418.9,277.5 422.6,271 423.4,265.5 422.5,261 352.7,261 352.2,256.5 350.2,253.9 348.8,248.5 347.2,250.1 345.5,248.1 343.2,241.9 
		341.5,240.8 341.5,261.2 337.9,261.2 338.1,328.9 337.5,328.9 337.6,343.5 	"/>
	<polygon class="st4" points="422.4,343.5 424.4,341.2 423.2,338.4 420.2,336.4 421.8,334.7 424.3,335.5 423.9,333.3 420.3,334.6 
		421.6,330.6 419.4,330.3 416.5,326 418.5,322.2 416,318.7 417,317.2 413.3,312.7 412.4,307.5 414.8,307.5 414.1,302.7 419.5,302.9 
		421.3,305.4 423.7,304.2 417.6,301 414.9,300.8 413.7,298.3 414.9,293.5 416.3,292.9 416.4,288.1 418.9,281.8 420.4,281.6 
		418.9,277.5 422.6,271 423.4,265.5 422.5,261 352.7,261 352.2,256.5 350.2,253.9 348.8,248.5 347.2,250.1 345.5,248.1 343.2,241.9 
		341.5,240.8 341.5,261.2 337.9,261.2 338.1,328.9 337.5,328.9 337.6,343.5 	"/>
	<polygon class="st3" points="364.4,156.4 364.3,177.9 364.7,177.9 365,224 367.3,224 367.3,231.4 389.8,231.6 389.8,232 
		426.2,232.1 425.6,201.6 425.5,144.9 422.3,143.9 417.4,145.1 413,144.7 406.8,142.7 401.3,143.7 398.9,146.9 391.8,147.5 
		386.9,149.4 382.6,148.4 380.5,151 377,149.9 374.3,150.3 369.5,153.6 364.9,152.1 	"/>
	<polygon class="st4" points="364.4,156.4 364.3,177.9 364.7,177.9 365,224 367.3,224 367.3,231.4 389.8,231.6 389.8,232 
		426.2,232.1 425.6,201.6 425.5,144.9 422.3,143.9 417.4,145.1 413,144.7 406.8,142.7 401.3,143.7 398.9,146.9 391.8,147.5 
		386.9,149.4 382.6,148.4 380.5,151 377,149.9 374.3,150.3 369.5,153.6 364.9,152.1 	"/>
	<polygon class="st3" points="274.2,148.1 282.2,141.4 291.2,135.1 294.4,135.1 293.7,138.1 295.6,143.8 300.3,143.9 309,140.4 
		307,139.4 303.9,132 306.6,131.8 302.4,126.3 301.5,122.3 301.2,116 295.3,116.2 293.1,114.8 279.1,114.8 259,121.5 	"/>
	<polygon class="st4" points="274.2,148.1 282.2,141.4 291.2,135.1 294.4,135.1 293.7,138.1 295.6,143.8 300.3,143.9 309,140.4 
		307,139.4 303.9,132 306.6,131.8 302.4,126.3 301.5,122.3 301.2,116 295.3,116.2 293.1,114.8 279.1,114.8 259,121.5 	"/>
	<polygon class="st3" points="425.5,144.9 432.6,148.9 439.6,147.3 440.4,145.5 445.4,146.2 448.4,144.4 455.2,143.4 456.2,145.1 
		456.3,150 458.2,151.1 461.4,149.5 461.5,147.8 464.1,146.6 464.1,140.7 476.8,140.6 476.8,147 479.4,147 479.6,155.9 482.1,155.9 
		482.1,158.5 487,158.6 486.9,128.2 424,128.5 424,144.6 	"/>
	<polygon class="st4" points="425.5,144.9 432.6,148.9 439.6,147.3 440.4,145.5 445.4,146.2 448.4,144.4 455.2,143.4 456.2,145.1 
		456.3,150 458.2,151.1 461.4,149.5 461.5,147.8 464.1,146.6 464.1,140.7 476.8,140.6 476.8,147 479.4,147 479.6,155.9 482.1,155.9 
		482.1,158.5 487,158.6 486.9,128.2 424,128.5 424,144.6 	"/>
	<polygon class="st3" points="341.5,240.8 343.2,241.9 345.5,248.1 347.2,250.1 348.8,248.5 350.2,253.9 352.2,256.5 352.7,261 
		422.5,261 423.1,259.1 421.5,252.6 423.3,246.5 425.1,244.3 424.5,240.9 428.7,236.9 429.3,234.2 431.9,234 431.7,232.1 389.8,232 
		389.8,231.6 341.5,231.4 	"/>
	<polygon class="st4" points="341.5,240.8 343.2,241.9 345.5,248.1 347.2,250.1 348.8,248.5 350.2,253.9 352.2,256.5 352.7,261 
		422.5,261 423.1,259.1 421.5,252.6 423.3,246.5 425.1,244.3 424.5,240.9 428.7,236.9 429.3,234.2 431.9,234 431.7,232.1 389.8,232 
		389.8,231.6 341.5,231.4 	"/>
	<polygon class="st3" points="299.2,90.7 300.4,93.2 305.1,93.8 307.1,95.7 309.8,95.2 311.8,91.6 313.7,90.5 314.7,92.4 
		316.9,91.1 321.2,91 322,92.6 324,91 326.4,83.8 328.5,81.5 329.4,73.8 331.3,70.6 329.6,68.5 330.2,65.4 328.6,63.3 328.5,60.2 
		326.9,55.5 324.2,53 325.2,51.1 324.6,47.6 326.7,46.3 325.8,42.1 324.3,39.9 280.8,40.2 283.6,46.3 288.2,51.8 289.9,59.8 
		288.2,66.6 290.5,69.8 291.2,76.1 292.9,81.2 295.4,79.5 297.2,80.8 298,84.5 299.7,86.5 297.2,87.7 	"/>
	<polygon class="st4" points="299.2,90.7 300.4,93.2 305.1,93.8 307.1,95.7 309.8,95.2 311.8,91.6 313.7,90.5 314.7,92.4 
		316.9,91.1 321.2,91 322,92.6 324,91 326.4,83.8 328.5,81.5 329.4,73.8 331.3,70.6 329.6,68.5 330.2,65.4 328.6,63.3 328.5,60.2 
		326.9,55.5 324.2,53 325.2,51.1 324.6,47.6 326.7,46.3 325.8,42.1 324.3,39.9 280.8,40.2 283.6,46.3 288.2,51.8 289.9,59.8 
		288.2,66.6 290.5,69.8 291.2,76.1 292.9,81.2 295.4,79.5 297.2,80.8 298,84.5 299.7,86.5 297.2,87.7 	"/>
	<polygon class="st3" points="259,121.5 275.9,98.7 289.8,98.7 294.1,96.2 293.3,95.1 294.4,90.1 297.1,92 299.2,90.7 297.2,87.7 
		299.7,86.5 298,84.5 297.2,80.8 295.4,79.5 292.9,81.2 291.2,76.1 290.5,69.8 288.2,66.6 289.9,59.8 288.2,51.8 283.6,46.3 
		280.8,40.2 278.9,39.8 225.4,40 166.4,40.9 156.5,40.4 156.5,128.3 238.8,128.2 	"/>
	<polygon class="st4" points="259,121.5 275.9,98.7 289.8,98.7 294.1,96.2 293.3,95.1 294.4,90.1 297.1,92 299.2,90.7 297.2,87.7 
		299.7,86.5 298,84.5 297.2,80.8 295.4,79.5 292.9,81.2 291.2,76.1 290.5,69.8 288.2,66.6 289.9,59.8 288.2,51.8 283.6,46.3 
		280.8,40.2 278.9,39.8 225.4,40 166.4,40.9 156.5,40.4 156.5,128.3 238.8,128.2 	"/>
	<polygon class="st3" points="156,373.2 260,373.3 262.3,373.1 263.6,370.4 268,366.8 266.5,365.1 268.3,362.1 269.5,357.6 
		264.1,350.3 262.8,351.8 261.7,349.5 257.4,345.2 257.6,337.4 238.5,337.4 230.8,337 156,337.4 	"/>
	<polygon class="st4" points="156,373.2 260,373.3 262.3,373.1 263.6,370.4 268,366.8 266.5,365.1 268.3,362.1 269.5,357.6 
		264.1,350.3 262.8,351.8 261.7,349.5 257.4,345.2 257.6,337.4 238.5,337.4 230.8,337 156,337.4 	"/>
</g>
<g id="Bullseye">
	<circle class="st5" cx="299.5" cy="148.5" r="26.4"/>
	<circle class="st6" cx="299.5" cy="148.5" r="8.1"/>
	<g class="st7">
		<path class="st8" d="M599.2,136.1v-14.7h4.6v15c0,5.7,2.1,7.6,5.3,7.6s5.4-1.9,5.4-7.6v-15h4.4V136c0,8.6-3.8,12-9.9,12
			S599.2,144.6,599.2,136.1z"/>
		<path class="st8" d="M625.8,140.9v-9.4H623v-3.4l3-0.2l0.6-5.4h3.8v5.4h5v3.6h-5v9.4c0,2.3,0.9,3.4,2.8,3.4c0.7,0,1.4-0.2,2-0.4
			l0.8,3.4c-1.3,0.5-2.6,0.7-4,0.7C627.5,148,625.8,145.1,625.8,140.9z"/>
		<path class="st8" d="M637.7,142.2c0-4.2,3.5-6.4,11.6-7.3c-0.1-2.1-0.9-3.8-3.6-3.8c-2,0.1-3.9,0.8-5.5,1.9l-1.7-3.1
			c2.4-1.6,5.2-2.5,8.1-2.6c4.9,0,7.3,3,7.3,8.5v11.6h-3.8l-0.3-2.2h-0.2c-1.6,1.6-3.8,2.5-6.1,2.6c-3,0.2-5.6-2.1-5.8-5.2
			C637.7,142.7,637.7,142.5,637.7,142.2z M649.3,142.2v-4.4c-5.4,0.7-7.1,2.1-7.1,4c0,1.8,1.2,2.5,2.8,2.5S647.8,143.6,649.3,142.2
			L649.3,142.2z"/>
		<path class="st8" d="M659.4,119.3h4.6v7.3l-0.2,3.8c1.6-1.8,3.9-2.9,6.3-3c4.2,0,6,2.8,6,7.8v12.3h-4.6v-11.7
			c0-3.2-0.9-4.4-3.1-4.4c-1.7,0-2.8,0.8-4.5,2.4v13.7h-4.6L659.4,119.3z"/>
		<path class="st8" d="M602.1,160.6h4.2c4.8,0,7.6,2.6,7.6,7.8s-2.8,7.9-7.5,7.9h-4.3V160.6z M606.1,174.1c3.2,0,5-1.8,5-5.7
			s-1.8-5.5-5-5.5h-1.2v11.2H606.1z"/>
		<path class="st8" d="M616.6,160.9c-0.1-0.9,0.6-1.8,1.6-1.9c0.9-0.1,1.8,0.6,1.9,1.6c0.1,0.9-0.6,1.8-1.6,1.9c-0.1,0-0.1,0-0.2,0
			c-0.9,0.1-1.6-0.6-1.7-1.5C616.6,161,616.6,161,616.6,160.9z M616.9,164.5h2.8v11.8h-2.8V164.5z"/>
		<path class="st8" d="M622,175l1.3-1.8c0.9,0.8,2.1,1.3,3.3,1.3c1.3,0,1.9-0.6,1.9-1.4c0-1-1.3-1.4-2.5-1.9
			c-1.6-0.6-3.3-1.5-3.3-3.4s1.7-3.5,4.3-3.5c1.4,0,2.8,0.5,3.9,1.4l-1.3,1.7c-0.7-0.6-1.6-1-2.6-1c-1.2,0-1.7,0.6-1.7,1.3
			c0,0.9,1.2,1.3,2.4,1.8c1.6,0.6,3.4,1.4,3.4,3.6c0,2-1.6,3.6-4.6,3.6C624.8,176.6,623.3,176,622,175z"/>
		<path class="st8" d="M633.5,172.4v-5.6h-1.7v-2.1l1.8-0.1l0.3-3.2h2.3v3.2h3v2.2h-3v5.6c0,1.4,0.5,2.1,1.7,2.1
			c0.4,0,0.8-0.1,1.2-0.3l0.5,2c-0.8,0.3-1.6,0.4-2.4,0.4C634.5,176.6,633.5,174.9,633.5,172.4z"/>
		<path class="st8" d="M641.7,164.5h2.3l0.2,2.1h0.1c0.6-1.3,1.9-2.3,3.3-2.4c0.5,0,0.9,0.1,1.3,0.2l-0.5,2.4
			c-0.4-0.1-0.8-0.2-1.2-0.2c-0.9,0-2.1,0.6-2.8,2.4v7.2h-2.8V164.5z"/>
		<path class="st8" d="M650.3,160.9c-0.1-0.9,0.6-1.8,1.6-1.9c0.9-0.1,1.8,0.6,1.9,1.6c0.1,0.9-0.6,1.8-1.6,1.9c0,0-0.1,0-0.1,0
			c-0.9,0.1-1.6-0.6-1.7-1.4C650.3,161,650.3,161,650.3,160.9z M650.7,164.5h2.8v11.8h-2.8V164.5z"/>
		<path class="st8" d="M656.2,170.4c-0.2-3.2,2.2-6,5.4-6.2c0.2,0,0.3,0,0.5,0c1.3,0,2.5,0.5,3.5,1.3l-1.3,1.8
			c-0.5-0.5-1.2-0.9-2-0.9c-1.9,0-3.2,1.6-3.2,3.9s1.3,3.9,3.1,3.9c0.9,0,1.8-0.4,2.4-1l1.1,1.8c-1.1,0.9-2.4,1.4-3.8,1.4
			C658.7,176.6,656.2,174.4,656.2,170.4z"/>
		<path class="st8" d="M668.2,172.4v-5.6h-1.7v-2.1l1.8-0.1l0.3-3.2h2.3v3.2h3v2.2h-3v5.6c0,1.4,0.5,2.1,1.7,2.1
			c0.4,0,0.8-0.1,1.2-0.3l0.5,2c-0.8,0.3-1.6,0.4-2.4,0.4C669.2,176.6,668.2,174.9,668.2,172.4z"/>
	</g>
</g>
<circle class="st6" cx="198" cy="451.5" r="8.1"/>
</svg>
